<?xml version="1.0" encoding="iso-8859-1"?>
<!-- Generator: Adobe Illustrator 17.1.0, SVG Export Plug-In . SVG Version: 6.00 Build 0)  -->
<!DOCTYPE svg PUBLIC "-//W3C//DTD SVG 1.1//EN" "http://www.w3.org/Graphics/SVG/1.1/DTD/svg11.dtd">
<svg version="1.1" id="Capa_1" xmlns="http://www.w3.org/2000/svg" xmlns:xlink="http://www.w3.org/1999/xlink" x="0px" y="0px"
	 viewBox="0 0 440 440" style="enable-background:new 0 0 440 440;" xml:space="preserve">
<g>
	<path d="M416,171.859h-8.167v-31.886c0-17.645-14.355-32-32-32H56c-14.872,0-27.406,10.199-30.978,23.969H20
		c-11.028,0-20,8.972-20,20v136.115c0,11.028,8.972,20,20,20h5.022c3.572,13.77,16.106,23.969,30.978,23.969h319.833
		c17.645,0,32-14.355,32-32v-31.886H416c13.233,0,24-10.767,24-24v-48.281C440,182.626,429.233,171.859,416,171.859z M16,288.058
		V151.942c0-2.168,1.832-4,4-4h4v144.115h-4C17.832,292.058,16,290.226,16,288.058z M391.833,300.026c0,8.822-7.178,16-16,16
		H223.916v-167.75c0-4.418-3.581-8-8-8s-8,3.582-8,8v167.75H56c-8.822,0-16-7.178-16-16V139.974c0-8.822,7.178-16,16-16h319.833
		c8.822,0,16,7.178,16,16V300.026z M424,244.141c0,4.411-3.589,8-8,8h-8.167v-64.281H416c4.411,0,8,3.589,8,8V244.141z"/>
	<path d="M335.75,212h-16v-16c0-4.418-3.582-8-8-8s-8,3.582-8,8v16h-16c-4.418,0-8,3.582-8,8s3.582,8,8,8h16v16c0,4.418,3.582,8,8,8
		s8-3.582,8-8v-16h16c4.418,0,8-3.582,8-8S340.168,212,335.75,212z"/>
	<path d="M144.333,212h-48c-4.418,0-8,3.582-8,8s3.582,8,8,8h48c4.418,0,8-3.582,8-8S148.751,212,144.333,212z"/>
</g>
<g>
</g>
<g>
</g>
<g>
</g>
<g>
</g>
<g>
</g>
<g>
</g>
<g>
</g>
<g>
</g>
<g>
</g>
<g>
</g>
<g>
</g>
<g>
</g>
<g>
</g>
<g>
</g>
<g>
</g>
</svg>
