<?xml version="1.0" encoding="iso-8859-1"?>
<!-- Generator: Adobe Illustrator 17.1.0, SVG Export Plug-In . SVG Version: 6.00 Build 0)  -->
<!DOCTYPE svg PUBLIC "-//W3C//DTD SVG 1.1//EN" "http://www.w3.org/Graphics/SVG/1.1/DTD/svg11.dtd">
<svg version="1.1" id="Capa_1" xmlns="http://www.w3.org/2000/svg" xmlns:xlink="http://www.w3.org/1999/xlink" x="0px" y="0px"
	 viewBox="0 0 439.5 439.5" style="enable-background:new 0 0 439.5 439.5;" xml:space="preserve">
<g>
	<path d="M295.595,0H143.905c-17.645,0-32,14.355-32,32v399.5c0,4.418,3.582,8,8,8h199.689c4.418,0,8-3.582,8-8V32
		C327.595,14.355,313.239,0,295.595,0z M127.905,423.5V280.25h136.023c4.418,0,8-3.582,8-8s-3.582-8-8-8H127.905V47.75h136.023
		c4.418,0,8-3.582,8-8s-3.582-8-8-8h-80.097c-0.133-4.301-3.654-7.75-7.987-7.75s-7.854,3.449-7.987,7.75h-8.025
		c-0.133-4.301-3.654-7.75-7.987-7.75s-7.854,3.449-7.987,7.75h-15.939c0.135-8.706,7.25-15.75,15.987-15.75h151.689
		c8.738,0,15.852,7.044,15.987,15.75h-15.653c-4.418,0-8,3.582-8,8s3.582,8,8,8h15.666v216.5h-15.666c-4.418,0-8,3.582-8,8
		s3.582,8,8,8h15.666V423.5H127.905z"/>
	<path d="M199.845,295.75h-47.939c-4.418,0-8,3.582-8,8s3.582,8,8,8h47.939c4.418,0,8-3.582,8-8S204.263,295.75,199.845,295.75z"/>
	<path d="M199.845,232h-47.939c-4.418,0-8,3.582-8,8s3.582,8,8,8h47.939c4.418,0,8-3.582,8-8S204.263,232,199.845,232z"/>
</g>
<g>
</g>
<g>
</g>
<g>
</g>
<g>
</g>
<g>
</g>
<g>
</g>
<g>
</g>
<g>
</g>
<g>
</g>
<g>
</g>
<g>
</g>
<g>
</g>
<g>
</g>
<g>
</g>
<g>
</g>
</svg>
