<?xml version="1.0" encoding="iso-8859-1"?>
<!-- Generator: Adobe Illustrator 17.1.0, SVG Export Plug-In . SVG Version: 6.00 Build 0)  -->
<!DOCTYPE svg PUBLIC "-//W3C//DTD SVG 1.1//EN" "http://www.w3.org/Graphics/SVG/1.1/DTD/svg11.dtd">
<svg version="1.1" id="Capa_1" xmlns="http://www.w3.org/2000/svg" xmlns:xlink="http://www.w3.org/1999/xlink" x="0px" y="0px"
	 viewBox="0 0 423.99 423.99" style="enable-background:new 0 0 423.99 423.99;" xml:space="preserve">
<g>
	<path d="M104.338,128.324h215.595c8.822,0,16-7.178,16-16v-64c0-8.822-7.178-16-16-16H176.95c-0.002,0-0.003,0-0.005,0h-72.607
		c-8.822,0-16,7.178-16,16v64C88.338,121.146,95.516,128.324,104.338,128.324z M104.338,48.324h69.295l13.505,13.505
		c1.563,1.563,3.609,2.343,5.657,2.343s4.095-0.781,5.657-2.343c3.124-3.124,3.124-8.189,0-11.313l-2.191-2.191h123.671l0.002,64
		h-59.672l-29.809-29.809c-3.125-3.124-8.189-3.124-11.314,0c-3.124,3.124-3.124,8.189,0,11.313l18.495,18.495H104.338V48.324z"/>
	<path d="M184.688,144.49h-8.101c-13.233,0-24,10.766-24,24v8c0,13.234,10.767,24,24,24h8.101c13.233,0,24-10.766,24-24v-8
		C208.688,155.256,197.922,144.49,184.688,144.49z M192.688,176.49c0,4.411-3.589,8-8,8h-8.101c-4.411,0-8-3.589-8-8v-8
		c0-4.411,3.589-8,8-8h8.101c4.411,0,8,3.589,8,8V176.49z"/>
	<path d="M120.438,144.49h-8.101c-13.233,0-24,10.766-24,24v8c0,13.234,10.767,24,24,24h8.101c13.233,0,24-10.766,24-24v-8
		C144.438,155.256,133.672,144.49,120.438,144.49z M128.438,176.49c0,4.411-3.589,8-8,8h-8.101c-4.411,0-8-3.589-8-8v-8
		c0-4.411,3.589-8,8-8h8.101c4.411,0,8,3.589,8,8V176.49z"/>
	<path d="M248.938,144.49h-8.101c-13.233,0-24,10.766-24,24v8c0,13.234,10.767,24,24,24h8.101c13.233,0,24-10.766,24-24v-8
		C272.938,155.256,262.172,144.49,248.938,144.49z M256.938,176.49c0,4.411-3.589,8-8,8h-8.101c-4.411,0-8-3.589-8-8v-8
		c0-4.411,3.589-8,8-8h8.101c4.411,0,8,3.589,8,8V176.49z"/>
	<path d="M312.373,144.49h-8.101c-13.233,0-24,10.766-24,24v8c0,13.234,10.767,24,24,24h8.101c13.233,0,24-10.766,24-24v-8
		C336.373,155.256,325.606,144.49,312.373,144.49z M320.373,176.49c0,4.411-3.589,8-8,8h-8.101c-4.411,0-8-3.589-8-8v-8
		c0-4.411,3.589-8,8-8h8.101c4.411,0,8,3.589,8,8V176.49z"/>
	<path d="M184.688,208.824h-8.101c-13.233,0-24,10.766-24,24v8c0,13.234,10.767,24,24,24h8.101c13.233,0,24-10.766,24-24v-8
		C208.688,219.59,197.922,208.824,184.688,208.824z M192.688,240.824c0,4.411-3.589,8-8,8h-8.101c-4.411,0-8-3.589-8-8v-8
		c0-4.411,3.589-8,8-8h8.101c4.411,0,8,3.589,8,8V240.824z"/>
	<path d="M120.438,208.824h-8.101c-13.233,0-24,10.766-24,24v8c0,13.234,10.767,24,24,24h8.101c13.233,0,24-10.766,24-24v-8
		C144.438,219.59,133.672,208.824,120.438,208.824z M128.438,240.824c0,4.411-3.589,8-8,8h-8.101c-4.411,0-8-3.589-8-8v-8
		c0-4.411,3.589-8,8-8h8.101c4.411,0,8,3.589,8,8V240.824z"/>
	<path d="M248.938,208.824h-8.101c-13.233,0-24,10.766-24,24v8c0,13.234,10.767,24,24,24h8.101c13.233,0,24-10.766,24-24v-8
		C272.938,219.59,262.172,208.824,248.938,208.824z M256.938,240.824c0,4.411-3.589,8-8,8h-8.101c-4.411,0-8-3.589-8-8v-8
		c0-4.411,3.589-8,8-8h8.101c4.411,0,8,3.589,8,8V240.824z"/>
	<path d="M312.373,208.824h-8.101c-13.233,0-24,10.766-24,24v8c0,13.234,10.767,24,24,24h8.101c13.233,0,24-10.766,24-24v-8
		C336.373,219.59,325.606,208.824,312.373,208.824z M320.373,240.824c0,4.411-3.589,8-8,8h-8.101c-4.411,0-8-3.589-8-8v-8
		c0-4.411,3.589-8,8-8h8.101c4.411,0,8,3.589,8,8V240.824z"/>
	<path d="M184.688,272.49h-8.101c-13.233,0-24,10.766-24,24v8c0,13.234,10.767,24,24,24h8.101c13.233,0,24-10.766,24-24v-8
		C208.688,283.256,197.922,272.49,184.688,272.49z M192.688,304.49c0,4.411-3.589,8-8,8h-8.101c-4.411,0-8-3.589-8-8v-8
		c0-4.411,3.589-8,8-8h8.101c4.411,0,8,3.589,8,8V304.49z"/>
	<path d="M120.438,272.49h-8.101c-13.233,0-24,10.766-24,24v8c0,13.234,10.767,24,24,24h8.101c13.233,0,24-10.766,24-24v-8
		C144.438,283.256,133.672,272.49,120.438,272.49z M128.438,304.49c0,4.411-3.589,8-8,8h-8.101c-4.411,0-8-3.589-8-8v-8
		c0-4.411,3.589-8,8-8h8.101c4.411,0,8,3.589,8,8V304.49z"/>
	<path d="M248.938,272.49h-8.101c-13.233,0-24,10.766-24,24v8c0,13.234,10.767,24,24,24h8.101c13.233,0,24-10.766,24-24v-8
		C272.938,283.256,262.172,272.49,248.938,272.49z M256.938,304.49c0,4.411-3.589,8-8,8h-8.101c-4.411,0-8-3.589-8-8v-8
		c0-4.411,3.589-8,8-8h8.101c4.411,0,8,3.589,8,8V304.49z"/>
	<path d="M312.373,272.49h-8.101c-13.233,0-24,10.766-24,24v8c0,13.234,10.767,24,24,24h8.101c13.233,0,24-10.766,24-24v-8
		C336.373,283.256,325.606,272.49,312.373,272.49z M320.373,304.49c0,4.411-3.589,8-8,8h-8.101c-4.411,0-8-3.589-8-8v-8
		c0-4.411,3.589-8,8-8h8.101c4.411,0,8,3.589,8,8V304.49z"/>
	<path d="M184.688,335.99h-8.101c-13.233,0-24,10.766-24,24v8c0,13.234,10.767,24,24,24h8.101c13.233,0,24-10.766,24-24v-8
		C208.688,346.756,197.922,335.99,184.688,335.99z M192.688,367.99c0,4.411-3.589,8-8,8h-8.101c-4.411,0-8-3.589-8-8v-8
		c0-4.411,3.589-8,8-8h8.101c4.411,0,8,3.589,8,8V367.99z"/>
	<path d="M120.438,335.99h-8.101c-13.233,0-24,10.766-24,24v8c0,13.234,10.767,24,24,24h8.101c13.233,0,24-10.766,24-24v-8
		C144.438,346.756,133.672,335.99,120.438,335.99z M128.438,367.99c0,4.411-3.589,8-8,8h-8.101c-4.411,0-8-3.589-8-8v-8
		c0-4.411,3.589-8,8-8h8.101c4.411,0,8,3.589,8,8V367.99z"/>
	<path d="M248.938,335.99h-8.101c-13.233,0-24,10.766-24,24v8c0,13.234,10.767,24,24,24h8.101c13.233,0,24-10.766,24-24v-8
		C272.938,346.756,262.172,335.99,248.938,335.99z M256.938,367.99c0,4.411-3.589,8-8,8h-8.101c-4.411,0-8-3.589-8-8v-8
		c0-4.411,3.589-8,8-8h8.101c4.411,0,8,3.589,8,8V367.99z"/>
	<path d="M312.373,335.99h-8.101c-13.233,0-24,10.766-24,24v8c0,13.234,10.767,24,24,24h8.101c13.233,0,24-10.766,24-24v-8
		C336.373,346.756,325.606,335.99,312.373,335.99z M320.373,367.99c0,4.411-3.589,8-8,8h-8.101c-4.411,0-8-3.589-8-8v-8
		c0-4.411,3.589-8,8-8h8.101c4.411,0,8,3.589,8,8V367.99z"/>
	<path d="M327.959,0H96.031c-22.056,0-40,17.944-40,40V383.99c0,22.056,17.944,40,40,40h231.928c22.056,0,40-17.944,40-40V40
		C367.959,17.944,350.015,0,327.959,0z M351.959,383.99c0,13.234-10.767,24-24,24H96.031c-13.233,0-24-10.766-24-24V40
		c0-13.233,10.767-24,24-24h231.928c13.233,0,24,10.766,24,24V383.99z"/>
</g>
<g>
</g>
<g>
</g>
<g>
</g>
<g>
</g>
<g>
</g>
<g>
</g>
<g>
</g>
<g>
</g>
<g>
</g>
<g>
</g>
<g>
</g>
<g>
</g>
<g>
</g>
<g>
</g>
<g>
</g>
</svg>
