<?xml version="1.0" encoding="iso-8859-1"?>
<!-- Generator: Adobe Illustrator 17.1.0, SVG Export Plug-In . SVG Version: 6.00 Build 0)  -->
<!DOCTYPE svg PUBLIC "-//W3C//DTD SVG 1.1//EN" "http://www.w3.org/Graphics/SVG/1.1/DTD/svg11.dtd">
<svg version="1.1" id="Capa_1" xmlns="http://www.w3.org/2000/svg" xmlns:xlink="http://www.w3.org/1999/xlink" x="0px" y="0px"
	 viewBox="0 0 464.119 464.119" style="enable-background:new 0 0 464.119 464.119;" xml:space="preserve">
<g>
	<path d="M352.104,135.986h-240.09c-4.418,0-8,3.582-8,8s3.582,8,8,8h240.09c4.418,0,8-3.582,8-8S356.522,135.986,352.104,135.986z"
		/>
	<path d="M456.119,151.986h-32.47c-3.951-31.525-30.903-56-63.482-56h-9.335c-7.438-24.343-49.336-39.646-110.962-39.646h-15.833
		c-61.508,0-103.327,15.303-110.751,39.646h-9.333c-32.579,0-59.531,24.475-63.482,56H8c-4.418,0-8,3.582-8,8v7.524
		c0,17.907,14.569,32.476,32.477,32.476h7.476v175.792c0,4.418,3.582,8,8,8h17.409c3.562,13.786,16.104,24,30.987,24
		s27.426-10.214,30.987-24h209.129c3.562,13.786,16.104,24,30.987,24s27.426-10.214,30.987-24h17.728c4.418,0,8-3.582,8-8V199.986
		h7.476c17.907,0,32.477-14.568,32.477-32.476v-7.524C464.119,155.568,460.537,151.986,456.119,151.986z M224.036,72.341h15.833
		c30.383,0,55.912,3.826,73.829,11.063c9.018,3.643,15.579,8.002,19.171,12.582H131.148
		C140.687,83.468,172.561,72.341,224.036,72.341z M32.477,183.986c-8.926,0-16.217-7.135-16.47-16h23.945v16H32.477z
		 M96.349,391.778c-5.906,0-11.063-3.226-13.835-8h27.67C107.412,388.552,102.255,391.778,96.349,391.778z M367.452,391.778
		c-5.906,0-11.063-3.226-13.835-8h27.67C378.515,388.552,373.359,391.778,367.452,391.778z M408.167,367.778H55.952V191.986v-32
		c0-26.468,21.533-48,48-48h256.215c26.467,0,48,21.532,48,48v32V367.778z M431.643,183.986h-7.476v-16h23.945
		C447.859,176.852,440.568,183.986,431.643,183.986z"/>
</g>
<g>
</g>
<g>
</g>
<g>
</g>
<g>
</g>
<g>
</g>
<g>
</g>
<g>
</g>
<g>
</g>
<g>
</g>
<g>
</g>
<g>
</g>
<g>
</g>
<g>
</g>
<g>
</g>
<g>
</g>
</svg>
