<?xml version="1.0" encoding="iso-8859-1"?>
<!-- Generator: Adobe Illustrator 17.1.0, SVG Export Plug-In . SVG Version: 6.00 Build 0)  -->
<!DOCTYPE svg PUBLIC "-//W3C//DTD SVG 1.1//EN" "http://www.w3.org/Graphics/SVG/1.1/DTD/svg11.dtd">
<svg version="1.1" id="Capa_1" xmlns="http://www.w3.org/2000/svg" xmlns:xlink="http://www.w3.org/1999/xlink" x="0px" y="0px"
	 viewBox="0 0 408.152 408.152" style="enable-background:new 0 0 408.152 408.152;" xml:space="preserve">
<g>
	<path d="M390.857,119.86H193.599c-9.486,0-17.203,7.618-17.203,16.982v39.283h-8.25v-49.894c0-0.411-0.041-0.812-0.101-1.206
		c5.226-11.249,8.15-23.775,8.15-36.973C176.195,39.5,136.695,0,88.143,0C39.591,0,0.091,39.5,0.091,88.052
		c0,13.368,3,26.047,8.354,37.408c-0.024,0.254-0.039,0.511-0.039,0.772v243.143c0,21.382,18.244,38.778,40.669,38.778h78.402
		c22.425,0,40.669-17.396,40.669-38.778V224.027h8.25v46.976c0,9.364,7.717,16.982,17.203,16.982h197.259
		c9.486,0,17.204-7.618,17.204-16.982V136.842C408.062,127.479,400.344,119.86,390.857,119.86z M88.143,16
		c39.73,0,72.053,32.322,72.053,72.052s-32.322,72.053-72.053,72.053c-39.729,0-72.052-32.323-72.052-72.053S48.413,16,88.143,16z
		 M88.143,208.022c4.414,0,8.005,3.591,8.005,8.004c0,4.414-3.591,8.005-8.005,8.005s-8.005-3.591-8.005-8.005
		C80.138,211.613,83.729,208.022,88.143,208.022z M127.477,392.152H49.074c-13.603,0-24.669-10.218-24.669-22.778V148.744
		c14.35,15.063,33.971,25.057,55.87,27.006v17.604c-9.383,3.265-16.138,12.193-16.138,22.674c0,13.236,10.769,24.005,24.005,24.005
		s24.005-10.769,24.005-24.005c0-10.382-6.627-19.244-15.872-22.583v-17.718c21.929-2.018,41.555-12.107,55.87-27.267v220.915
		C152.146,381.934,141.079,392.152,127.477,392.152z M168.146,192.125h47.859c4.586,0,8.317,3.567,8.317,7.951
		s-3.731,7.951-8.317,7.951h-47.859V192.125z M392.062,271.003c0,0.463-0.515,0.982-1.204,0.982H193.599
		c-0.688,0-1.203-0.519-1.203-0.982v-46.976h23.609c13.408,0,24.317-10.745,24.317-23.951s-10.909-23.951-24.317-23.951h-23.609
		v-39.283c0-0.463,0.515-0.982,1.203-0.982h197.259c0.689,0,1.204,0.519,1.204,0.982V271.003z"/>
	<path d="M116.528,341.658H60.846c-4.418,0-8,3.582-8,8s3.582,8,8,8h55.683c4.418,0,8-3.582,8-8S120.946,341.658,116.528,341.658z"
		/>
	<path d="M88.143,144.105c30.907,0,56.053-25.145,56.053-56.053C144.195,57.145,119.05,32,88.143,32S32.091,57.145,32.091,88.052
		C32.091,118.96,57.235,144.105,88.143,144.105z M88.143,48c22.085,0,40.053,17.967,40.053,40.052s-17.968,40.053-40.053,40.053
		s-40.052-17.968-40.052-40.053S66.058,48,88.143,48z"/>
	<path d="M88.143,112.105c13.263,0,24.053-10.79,24.053-24.053c0-4.418-3.582-8-8-8s-8,3.582-8,8c0,4.44-3.612,8.053-8.053,8.053
		c-4.439,0-8.052-3.612-8.052-8.053c0-4.44,3.612-8.052,8.052-8.052c4.418,0,8-3.582,8-8s-3.582-8-8-8
		c-13.262,0-24.052,10.79-24.052,24.052S74.881,112.105,88.143,112.105z"/>
</g>
<g>
</g>
<g>
</g>
<g>
</g>
<g>
</g>
<g>
</g>
<g>
</g>
<g>
</g>
<g>
</g>
<g>
</g>
<g>
</g>
<g>
</g>
<g>
</g>
<g>
</g>
<g>
</g>
<g>
</g>
</svg>
