<?xml version="1.0" encoding="iso-8859-1"?>
<!-- Generator: Adobe Illustrator 17.1.0, SVG Export Plug-In . SVG Version: 6.00 Build 0)  -->
<!DOCTYPE svg PUBLIC "-//W3C//DTD SVG 1.1//EN" "http://www.w3.org/Graphics/SVG/1.1/DTD/svg11.dtd">
<svg version="1.1" id="Capa_1" xmlns="http://www.w3.org/2000/svg" xmlns:xlink="http://www.w3.org/1999/xlink" x="0px" y="0px"
	 viewBox="0 0 423.771 423.771" style="enable-background:new 0 0 423.771 423.771;" xml:space="preserve">
<g>
	<path d="M396.354,119.818h-68.551v-15.021c0-22.608-18.393-41.001-41.001-41.001H137.137c-22.608,0-41.001,18.393-41.001,41.001
		v15.021H27.418C12.3,119.818,0,132.118,0,147.236v185.32c0,15.118,12.3,27.418,27.418,27.418h368.936
		c15.118,0,27.418-12.3,27.418-27.418v-185.32C423.771,132.118,411.472,119.818,396.354,119.818z M112.136,104.798
		c0-13.785,11.216-25.001,25.001-25.001h149.665c13.785,0,25.001,11.216,25.001,25.001v15.021H112.136V104.798z M407.771,332.557
		c0,6.296-5.122,11.418-11.418,11.418H27.418c-6.296,0-11.418-5.122-11.418-11.418v-185.32c0-6.296,5.122-11.418,11.418-11.418
		h368.936c6.296,0,11.418,5.122,11.418,11.418V332.557z"/>
	<path d="M88.012,215.644c-30.84,0-55.93,25.09-55.93,55.929c0,30.84,25.09,55.931,55.93,55.931s55.93-25.091,55.93-55.931
		C143.941,240.733,118.852,215.644,88.012,215.644z M88.012,311.503c-22.018,0-39.93-17.913-39.93-39.931
		c0-22.017,17.912-39.929,39.93-39.929s39.93,17.912,39.93,39.929C127.941,293.59,110.029,311.503,88.012,311.503z"/>
	<path d="M263.886,231.818h-104c-4.418,0-8,3.582-8,8v63.916c0,4.418,3.582,8,8,8h104c4.418,0,8-3.582,8-8v-63.916
		C271.886,235.4,268.304,231.818,263.886,231.818z M255.886,295.734h-88v-47.916h88V295.734z"/>
	<path d="M191.843,287.499c8.67,0,15.723-7.053,15.723-15.723s-7.053-15.723-15.723-15.723s-15.723,7.053-15.723,15.723
		S183.173,287.499,191.843,287.499z M191.843,271.499c0.153,0,0.277,0.124,0.277,0.277c0,0.307-0.555,0.307-0.555,0
		C191.565,271.623,191.689,271.499,191.843,271.499z"/>
	<path d="M232.005,287.499c8.669,0,15.722-7.053,15.722-15.723s-7.053-15.723-15.722-15.723c-8.67,0-15.723,7.053-15.723,15.723
		S223.335,287.499,232.005,287.499z M232.005,271.499c0.153,0,0.277,0.124,0.277,0.277c0,0.307-0.556,0.307-0.556,0
		C231.727,271.623,231.852,271.499,232.005,271.499z"/>
	<path d="M383.839,183.818H40.082c-4.418,0-8,3.582-8,8s3.582,8,8,8h343.757c4.418,0,8-3.582,8-8S388.257,183.818,383.839,183.818z"
		/>
	<path d="M383.839,151.901h-16.286c-4.418,0-8,3.582-8,8s3.582,8,8,8h16.286c4.418,0,8-3.582,8-8S388.257,151.901,383.839,151.901z"
		/>
	<path d="M328.172,167.901h16.286c4.418,0,8-3.582,8-8s-3.582-8-8-8h-16.286c-4.418,0-8,3.582-8,8S323.754,167.901,328.172,167.901z
		"/>
	<path d="M288.148,167.901h16.286c4.418,0,8-3.582,8-8s-3.582-8-8-8h-16.286c-4.418,0-8,3.582-8,8S283.73,167.901,288.148,167.901z"
		/>
	<path d="M40.086,167.905c2.1,0,4.159-0.859,5.649-2.35s2.351-3.55,2.351-5.66c0-2.1-0.86-4.16-2.351-5.65
		c-1.49-1.489-3.55-2.34-5.649-2.34c-2.11,0-4.17,0.851-5.66,2.34c-1.49,1.49-2.34,3.551-2.34,5.65c0,2.11,0.85,4.18,2.34,5.66
		C35.916,167.046,37.976,167.905,40.086,167.905z"/>
	<path d="M72.336,167.905c2.1,0,4.159-0.859,5.649-2.35s2.351-3.55,2.351-5.65c0-2.109-0.86-4.17-2.351-5.66
		c-1.49-1.489-3.55-2.34-5.649-2.34c-2.11,0-4.17,0.851-5.66,2.34c-1.49,1.49-2.34,3.551-2.34,5.66c0,2.101,0.85,4.16,2.34,5.65
		S70.226,167.905,72.336,167.905z"/>
	<path d="M104.136,167.905c2.109,0,4.17-0.859,5.66-2.35c1.489-1.49,2.34-3.55,2.34-5.65c0-2.109-0.851-4.17-2.34-5.66
		c-1.49-1.489-3.551-2.34-5.66-2.34c-2.11,0-4.17,0.851-5.66,2.34c-1.49,1.49-2.34,3.551-2.34,5.66c0,2.101,0.85,4.16,2.34,5.65
		S102.025,167.905,104.136,167.905z"/>
	<path d="M103.691,263.573c-4.418,0-8,3.582-8,8c0,4.234-3.445,7.68-7.68,7.68s-7.68-3.445-7.68-7.68s3.445-7.68,7.68-7.68
		c4.418,0,8-3.582,8-8s-3.582-8-8-8c-13.057,0-23.68,10.623-23.68,23.68s10.623,23.68,23.68,23.68s23.68-10.623,23.68-23.68
		C111.691,267.155,108.109,263.573,103.691,263.573z"/>
	<path d="M335.909,215.644c-30.84,0-55.93,25.09-55.93,55.929c0,30.84,25.09,55.931,55.93,55.931s55.93-25.091,55.93-55.931
		C391.839,240.733,366.749,215.644,335.909,215.644z M335.909,311.503c-22.018,0-39.93-17.913-39.93-39.931
		c0-22.017,17.912-39.929,39.93-39.929s39.93,17.912,39.93,39.929C375.839,293.59,357.927,311.503,335.909,311.503z"/>
	<path d="M351.589,263.573c-4.418,0-8,3.582-8,8c0,4.234-3.445,7.68-7.68,7.68s-7.68-3.445-7.68-7.68s3.445-7.68,7.68-7.68
		c4.418,0,8-3.582,8-8s-3.582-8-8-8c-13.057,0-23.68,10.623-23.68,23.68s10.623,23.68,23.68,23.68s23.68-10.623,23.68-23.68
		C359.589,267.155,356.007,263.573,351.589,263.573z"/>
</g>
<g>
</g>
<g>
</g>
<g>
</g>
<g>
</g>
<g>
</g>
<g>
</g>
<g>
</g>
<g>
</g>
<g>
</g>
<g>
</g>
<g>
</g>
<g>
</g>
<g>
</g>
<g>
</g>
<g>
</g>
</svg>
