<?xml version="1.0" encoding="iso-8859-1"?>
<!-- Generator: Adobe Illustrator 17.1.0, SVG Export Plug-In . SVG Version: 6.00 Build 0)  -->
<!DOCTYPE svg PUBLIC "-//W3C//DTD SVG 1.1//EN" "http://www.w3.org/Graphics/SVG/1.1/DTD/svg11.dtd">
<svg version="1.1" id="Capa_1" xmlns="http://www.w3.org/2000/svg" xmlns:xlink="http://www.w3.org/1999/xlink" x="0px" y="0px"
	 viewBox="0 0 407.936 407.936" style="enable-background:new 0 0 407.936 407.936;" xml:space="preserve">
<path d="M363.988,311.667c0-0.041-0.005-0.08-0.006-0.121c-0.129-38.091-13.847-74.924-38.669-103.769
	c-23.173-26.931-54.619-45.384-89.143-52.453v-23.762c0-10.948-8.906-19.854-19.854-19.854h-4.348V8c0-4.418-3.582-8-8-8
	s-8,3.582-8,8v103.708h-4.348c-10.948,0-19.854,8.906-19.854,19.854v23.762c-34.524,7.069-65.969,25.522-89.143,52.453
	c-24.822,28.845-38.539,65.678-38.669,103.769c-0.001,0.041-0.006,0.08-0.006,0.121c0,0.026,0.004,0.051,0.004,0.077
	c0,0.116-0.004,0.231-0.004,0.346v31.41c0,4.418,3.582,8,8,8h88.482c3.756,31.735,30.809,56.436,63.538,56.436
	s59.781-24.7,63.538-56.436h88.482c4.418,0,8-3.582,8-8v-31.41c0-0.115-0.004-0.23-0.004-0.346
	C363.984,311.718,363.988,311.693,363.988,311.667z M203.968,391.936c-23.893,0-43.76-17.55-47.399-40.436h94.797
	C247.728,374.386,227.861,391.936,203.968,391.936z M59.948,335.5v-15.833h232.353c4.418,0,8-3.582,8-8s-3.582-8-8-8H60.196
	c3.837-67.417,53.461-122.992,120.833-133.771c0.434-0.069,0.853-0.178,1.258-0.313h21.68c4.418,0,8-3.582,8-8s-3.582-8-8-8h-16.203
	v-22.021c0-2.125,1.729-3.854,3.854-3.854h24.696c2.125,0,3.854,1.729,3.854,3.854v30.434c0,3.931,2.855,7.278,6.736,7.899
	c67.372,10.78,116.996,66.355,120.833,133.771h-23.813c-4.418,0-8,3.582-8,8s3.582,8,8,8h24.062V335.5H59.948z"/>
<g>
</g>
<g>
</g>
<g>
</g>
<g>
</g>
<g>
</g>
<g>
</g>
<g>
</g>
<g>
</g>
<g>
</g>
<g>
</g>
<g>
</g>
<g>
</g>
<g>
</g>
<g>
</g>
<g>
</g>
</svg>
