<?xml version="1.0" encoding="iso-8859-1"?>
<!-- Generator: Adobe Illustrator 17.1.0, SVG Export Plug-In . SVG Version: 6.00 Build 0)  -->
<!DOCTYPE svg PUBLIC "-//W3C//DTD SVG 1.1//EN" "http://www.w3.org/Graphics/SVG/1.1/DTD/svg11.dtd">
<svg version="1.1" id="Capa_1" xmlns="http://www.w3.org/2000/svg" xmlns:xlink="http://www.w3.org/1999/xlink" x="0px" y="0px"
	 viewBox="0 0 424.166 424.166" style="enable-background:new 0 0 424.166 424.166;" xml:space="preserve">
<g>
	<path d="M220.146,32.202c-28.742,0-52.125,23.383-52.125,52.125s23.383,52.125,52.125,52.125s52.125-23.383,52.125-52.125
		S248.887,32.202,220.146,32.202z M220.146,120.452c-19.919,0-36.125-16.206-36.125-36.125s16.206-36.125,36.125-36.125
		s36.125,16.206,36.125,36.125S240.065,120.452,220.146,120.452z"/>
	<path d="M144.396,76.327c-4.418,0-8,3.582-8,8c0,6.502-5.29,11.792-11.792,11.792s-11.792-5.29-11.792-11.792
		s5.29-11.791,11.792-11.791c4.418,0,8-3.582,8-8s-3.582-8-8-8c-15.324,0-27.792,12.467-27.792,27.791s12.467,27.792,27.792,27.792
		s27.792-12.468,27.792-27.792C152.396,79.909,148.814,76.327,144.396,76.327z"/>
	<path d="M335.671,76.327c-4.418,0-8,3.582-8,8c0,6.502-5.29,11.792-11.792,11.792s-11.792-5.29-11.792-11.792
		s5.29-11.791,11.792-11.791c4.418,0,8-3.582,8-8s-3.582-8-8-8c-15.325,0-27.792,12.467-27.792,27.791s12.467,27.792,27.792,27.792
		c15.324,0,27.792-12.468,27.792-27.792C343.671,79.909,340.09,76.327,335.671,76.327z"/>
	<path d="M408.813,240.163v-47.66c0-0.265-0.014-0.529-0.04-0.793c-0.011-0.116-0.033-0.228-0.049-0.342
		c-0.021-0.144-0.037-0.289-0.066-0.432c-0.026-0.133-0.063-0.262-0.096-0.392c-0.031-0.123-0.058-0.246-0.094-0.367
		c-0.039-0.128-0.087-0.251-0.132-0.376c-0.043-0.121-0.083-0.243-0.133-0.363c-0.048-0.116-0.105-0.228-0.159-0.342
		c-0.058-0.123-0.112-0.247-0.177-0.367c-0.058-0.109-0.125-0.213-0.188-0.319c-0.07-0.118-0.137-0.238-0.214-0.353
		c-0.076-0.114-0.161-0.221-0.243-0.331c-0.074-0.099-0.144-0.202-0.223-0.298c-0.152-0.185-0.314-0.362-0.482-0.533
		c-0.017-0.017-0.03-0.036-0.047-0.052l-18.676-18.677h4.333c0.007,0,0.013,0.001,0.019,0.001c4.418,0,8-3.582,8-8V32
		c0-17.645-14.355-32-32-32h-296c-17.645,0-32,14.355-32,32v120.166h-20c-10.959,0-19.875,8.916-19.875,19.875
		s8.916,19.875,19.875,19.875h36.667v124.505c-9.923,5.441-16.667,15.986-16.667,28.079v71.666c0,4.418,3.582,8,8,8h344
		c4.418,0,8-3.582,8-8V344.5c0-14.792-10.091-27.268-23.75-30.916V179.397l16.417,16.417v47.217
		c-5.228,3.584-8.667,9.596-8.667,16.399v44.429c0,4.416,3.578,7.996,7.993,8l23.75,0.021c0.002,0,0.004,0,0.007,0
		c2.121,0,4.154-0.842,5.654-2.341c1.502-1.5,2.346-3.536,2.346-5.659V259.43C423.896,250.125,417.46,242.316,408.813,240.163z
		 M56.146,32c0-8.822,7.178-16,16-16h296c8.822,0,16,7.178,16,16v120.166h-328V32z M184.021,168.458
		c0-0.099-0.011-0.194-0.015-0.292h72.28c-0.004,0.098-0.015,0.193-0.015,0.292v23.833c0,4.411-3.589,8-8,8h-56.25
		c-4.411,0-8-3.589-8-8V168.458z M16.271,172.041c0-2.137,1.738-3.875,3.875-3.875h27.981c0.007,0,0.013,0.001,0.019,0.001
		s0.013-0.001,0.019-0.001h119.87c-0.004,0.098-0.015,0.193-0.015,0.292v7.458H20.146C18.009,175.916,16.271,174.178,16.271,172.041
		z M168.021,191.916v0.375c0,13.233,10.766,24,24,24h56.25c13.234,0,24-10.767,24-24v-23.833c0-0.099-0.011-0.194-0.015-0.292h88.14
		V312.5H72.813V191.916H168.021z M384.146,344.5v63.666h-328V344.5c0-8.822,7.178-16,16-16h296
		C376.968,328.5,384.146,335.678,384.146,344.5z M407.896,295.872l-7.75-0.007V259.43c0-2.137,1.738-3.875,3.875-3.875
		s3.875,1.738,3.875,3.875V295.872z"/>
	<path d="M328.146,336.333c-4.418,0-8,3.582-8,8c0,8.822-7.178,16-16,16h-168c-8.822,0-16-7.178-16-16c0-4.418-3.582-8-8-8
		s-8,3.582-8,8c0,17.645,14.355,32,32,32h168c17.645,0,32-14.355,32-32C336.146,339.915,332.564,336.333,328.146,336.333z"/>
</g>
<g>
</g>
<g>
</g>
<g>
</g>
<g>
</g>
<g>
</g>
<g>
</g>
<g>
</g>
<g>
</g>
<g>
</g>
<g>
</g>
<g>
</g>
<g>
</g>
<g>
</g>
<g>
</g>
<g>
</g>
</svg>
