<?xml version="1.0" encoding="iso-8859-1"?>
<!-- Generator: Adobe Illustrator 17.1.0, SVG Export Plug-In . SVG Version: 6.00 Build 0)  -->
<!DOCTYPE svg PUBLIC "-//W3C//DTD SVG 1.1//EN" "http://www.w3.org/Graphics/SVG/1.1/DTD/svg11.dtd">
<svg version="1.1" id="Capa_1" xmlns="http://www.w3.org/2000/svg" xmlns:xlink="http://www.w3.org/1999/xlink" x="0px" y="0px"
	 viewBox="0 0 416.248 416.248" style="enable-background:new 0 0 416.248 416.248;" xml:space="preserve">
<g>
	<path d="M207.904,296.203c-2.1,0-4.17,0.86-5.66,2.35c-1.48,1.49-2.34,3.55-2.34,5.65c0,2.11,0.86,4.17,2.34,5.66
		c1.49,1.49,3.56,2.34,5.66,2.34c2.11,0,4.17-0.85,5.66-2.34c1.49-1.49,2.34-3.55,2.34-5.66c0-2.1-0.85-4.16-2.34-5.65
		C212.074,297.064,210.014,296.203,207.904,296.203z"/>
	<path d="M416.248,280.019c0-0.515-0.053-1.016-0.146-1.504V80.041c0-22.057-17.944-40-40-40H88.054c-0.002,0-0.003,0-0.005,0H40
		c-22.056,0-40,17.943-40,40v216.103c0,22.056,17.944,40,40,40h104.149v24.063h-24.161c-4.418,0-8,3.582-8,8s3.582,8,8,8h174.991
		c4.418,0,8-3.582,8-8s-3.582-8-8-8h-23.241v-24.063h104.363c22.056,0,40-17.944,40-40v-14.62
		C416.194,281.036,416.248,280.534,416.248,280.019z M40,56.041h44.738l36.657,36.656c1.562,1.563,3.609,2.344,5.657,2.344
		s4.095-0.781,5.657-2.344c3.125-3.124,3.125-8.189,0-11.313l-25.343-25.343h268.737c13.234,0,24,10.766,24,24v191.979h-76.758
		L164.708,113.383c-3.124-3.124-8.189-3.124-11.313,0c-3.125,3.124-3.125,8.189,0,11.314l147.323,147.322H16V80.041
		C16,66.807,26.766,56.041,40,56.041z M255.738,360.207h-95.589v-24.063h95.589V360.207z M376.102,320.144H40
		c-13.234,0-24-10.766-24-24v-8.124h384.102v8.124C400.102,309.377,389.335,320.144,376.102,320.144z"/>
</g>
<g>
</g>
<g>
</g>
<g>
</g>
<g>
</g>
<g>
</g>
<g>
</g>
<g>
</g>
<g>
</g>
<g>
</g>
<g>
</g>
<g>
</g>
<g>
</g>
<g>
</g>
<g>
</g>
<g>
</g>
</svg>
