<?xml version="1.0" encoding="iso-8859-1"?>
<!-- Generator: Adobe Illustrator 17.1.0, SVG Export Plug-In . SVG Version: 6.00 Build 0)  -->
<!DOCTYPE svg PUBLIC "-//W3C//DTD SVG 1.1//EN" "http://www.w3.org/Graphics/SVG/1.1/DTD/svg11.dtd">
<svg version="1.1" id="Capa_1" xmlns="http://www.w3.org/2000/svg" xmlns:xlink="http://www.w3.org/1999/xlink" x="0px" y="0px"
	 viewBox="0 0 383.834 383.834" style="enable-background:new 0 0 383.834 383.834;" xml:space="preserve">
<g>
	<path d="M358.318,59.848H25.516C11.446,59.848,0,71.294,0,85.363v213.107c0,14.069,11.446,25.516,25.516,25.516h332.803
		c14.069,0,25.516-11.446,25.516-25.516V85.363C383.834,71.294,372.388,59.848,358.318,59.848z M367.834,85.363v38.576h-31.951
		c-1.982-13.599-13.717-24.078-27.857-24.078s-25.875,10.479-27.857,24.078h-32.157V75.848h110.308
		C363.565,75.848,367.834,80.116,367.834,85.363z M320.182,128.018c0,6.703-5.453,12.156-12.156,12.156s-12.156-5.453-12.156-12.156
		s5.453-12.156,12.156-12.156S320.182,121.314,320.182,128.018z M151.917,75.848h80.094v232.139h-80.094V75.848z M25.516,75.848
		h110.401v48.092h-32.143c-1.982-13.599-13.717-24.078-27.857-24.078S50.042,110.34,48.06,123.939H16V85.363
		C16,80.116,20.269,75.848,25.516,75.848z M88.073,128.018c0,6.703-5.453,12.156-12.156,12.156s-12.156-5.453-12.156-12.156
		s5.453-12.156,12.156-12.156S88.073,121.314,88.073,128.018z M16,298.471V139.939h34.417c4.498,9.581,14.234,16.234,25.5,16.234
		s21.002-6.653,25.5-16.234h34.5v168.047H25.516C20.269,307.986,16,303.718,16,298.471z M358.318,307.986H248.011V139.939h34.515
		c4.498,9.581,14.234,16.234,25.5,16.234s21.002-6.653,25.5-16.234h34.309v158.531C367.834,303.718,363.565,307.986,358.318,307.986
		z"/>
	<path d="M75.917,187.918c-28.679,0-52.011,23.332-52.011,52.011c0,28.68,23.332,52.012,52.011,52.012s52.011-23.332,52.011-52.012
		C127.928,211.25,104.596,187.918,75.917,187.918z M75.917,275.94c-19.856,0-36.011-16.154-36.011-36.012
		c0-19.856,16.154-36.011,36.011-36.011s36.011,16.154,36.011,36.011C111.928,259.786,95.773,275.94,75.917,275.94z"/>
	<path d="M216,100.06h-47.916c-4.418,0-8,3.582-8,8v39.916c0,4.418,3.582,8,8,8H216c4.418,0,8-3.582,8-8V108.06
		C224,103.642,220.418,100.06,216,100.06z M208,139.976h-31.916V116.06H208V139.976z"/>
	<path d="M216,196.084h-48.166c-4.418,0-8,3.582-8,8s3.582,8,8,8H216c4.418,0,8-3.582,8-8S220.418,196.084,216,196.084z"/>
	<path d="M216,227.97h-48.166c-4.418,0-8,3.582-8,8s3.582,8,8,8H216c4.418,0,8-3.582,8-8S220.418,227.97,216,227.97z"/>
	<path d="M216,259.939h-48.166c-4.418,0-8,3.582-8,8s3.582,8,8,8H216c4.418,0,8-3.582,8-8S220.418,259.939,216,259.939z"/>
	<path d="M87.762,239.929c0,6.531-5.313,11.845-11.845,11.845s-11.845-5.313-11.845-11.845c0-6.53,5.313-11.844,11.845-11.844
		c4.418,0,8-3.582,8-8s-3.582-8-8-8c-15.354,0-27.845,12.49-27.845,27.844s12.491,27.845,27.845,27.845s27.845-12.491,27.845-27.845
		c0-4.418-3.582-8-8-8S87.762,235.511,87.762,239.929z"/>
	<path d="M308.057,187.918c-28.68,0-52.012,23.332-52.012,52.011c0,28.68,23.332,52.012,52.012,52.012
		c28.679,0,52.011-23.332,52.011-52.012C360.067,211.25,336.735,187.918,308.057,187.918z M308.057,275.94
		c-19.857,0-36.012-16.154-36.012-36.012c0-19.856,16.154-36.011,36.012-36.011c19.856,0,36.011,16.154,36.011,36.011
		C344.067,259.786,327.913,275.94,308.057,275.94z"/>
	<path d="M319.9,239.929c0,6.531-5.313,11.845-11.844,11.845c-6.531,0-11.845-5.313-11.845-11.845
		c0-6.53,5.313-11.844,11.845-11.844c4.418,0,8-3.582,8-8s-3.582-8-8-8c-15.354,0-27.845,12.49-27.845,27.844
		s12.491,27.845,27.845,27.845s27.844-12.491,27.844-27.845c0-4.418-3.582-8-8-8S319.9,235.511,319.9,239.929z"/>
</g>
<g>
</g>
<g>
</g>
<g>
</g>
<g>
</g>
<g>
</g>
<g>
</g>
<g>
</g>
<g>
</g>
<g>
</g>
<g>
</g>
<g>
</g>
<g>
</g>
<g>
</g>
<g>
</g>
<g>
</g>
</svg>
