<?xml version="1.0" encoding="iso-8859-1"?>
<!-- Generator: Adobe Illustrator 17.1.0, SVG Export Plug-In . SVG Version: 6.00 Build 0)  -->
<!DOCTYPE svg PUBLIC "-//W3C//DTD SVG 1.1//EN" "http://www.w3.org/Graphics/SVG/1.1/DTD/svg11.dtd">
<svg version="1.1" id="Capa_1" xmlns="http://www.w3.org/2000/svg" xmlns:xlink="http://www.w3.org/1999/xlink" x="0px" y="0px"
	 viewBox="0 0 432.166 432.166" style="enable-background:new 0 0 432.166 432.166;" xml:space="preserve">
<path d="M429.225,217.636c-1.861-1.519-4.308-2.122-6.66-1.641l-79.124,16.171H320v-0.083c0-14.793-10.092-27.268-23.75-30.916
	v-25.334c0-17.645-14.355-32-32-32h-0.584H236.75h-52.563v-7.896c0-8.822,7.178-16,16-16h32.345
	c0.124,8.716,7.243,15.771,15.988,15.771h127.417c8.822,0,16-7.178,16-16v-15.542c0-8.822-7.178-16-16-16H248.521
	c-8.745,0-15.864,7.055-15.988,15.771h-32.345c-17.645,0-32,14.355-32,32v7.896H96.375l-87.626-8.236
	c-2.251-0.21-4.47,0.533-6.135,2.049S0,141.31,0,143.562v40.521c0,2.252,0.949,4.399,2.614,5.916
	c1.479,1.347,3.402,2.084,5.386,2.084c0.249,0,0.499-0.012,0.749-0.035L88,184.599v15.484h-8.021c-17.645,0-32,14.355-32,32V312
	c0,17.645,14.355,32,32,32H288c17.626,0,31.969-14.325,31.999-31.945h23.636l78.948,15.941c0.525,0.106,1.056,0.158,1.583,0.158
	c1.831,0,3.625-0.629,5.066-1.809c1.856-1.52,2.934-3.792,2.934-6.191v-96.321C432.166,221.43,431.086,219.155,429.225,217.636z
	 M248.521,104.167h127.417l0.001,15.542H248.521V104.167z M336.25,248.167v47.888H320v-47.888H336.25z M263.666,159.833h0.584
	c8.822,0,16,7.178,16,16v24.25h-8.209v-23.417c0-1.317-0.324-2.556-0.888-3.652c-1.135-3.037-4.055-5.203-7.487-5.203H104v-7.979
	h132.75H263.666z M256.041,183.812v16.271h-71.854v-16.271H256.041z M16,152.349l72,6.767v9.413l-72,6.767V152.349z M104,183.812
	h64.188v16.271H104V183.812z M304,312c0,8.822-7.178,16-16,16H79.979c-8.822,0-16-7.178-16-16v-64.104h216.084c4.418,0,8-3.582,8-8
	s-3.582-8-8-8H63.988c0.102-8.735,7.231-15.813,15.99-15.813H288c8.822,0,16,7.178,16,16V312z M416.166,310.377l-63.916-12.906
	v-50.775l63.916-13.063V310.377z"/>
<g>
</g>
<g>
</g>
<g>
</g>
<g>
</g>
<g>
</g>
<g>
</g>
<g>
</g>
<g>
</g>
<g>
</g>
<g>
</g>
<g>
</g>
<g>
</g>
<g>
</g>
<g>
</g>
<g>
</g>
</svg>
