<?xml version="1.0" encoding="iso-8859-1"?>
<!-- Generator: Adobe Illustrator 17.1.0, SVG Export Plug-In . SVG Version: 6.00 Build 0)  -->
<!DOCTYPE svg PUBLIC "-//W3C//DTD SVG 1.1//EN" "http://www.w3.org/Graphics/SVG/1.1/DTD/svg11.dtd">
<svg version="1.1" id="Capa_1" xmlns="http://www.w3.org/2000/svg" xmlns:xlink="http://www.w3.org/1999/xlink" x="0px" y="0px"
	 viewBox="0 0 455.334 455.334" style="enable-background:new 0 0 455.334 455.334;" xml:space="preserve">
<g>
	<path d="M399.334,39.5h-183.5c-18.986,0-35.785,9.506-45.917,24h-34.583c-14.914,0-27.475,10.256-31.007,24.084H55.083
		c-17.645,0-32,14.355-32,32v0.291H8c-4.418,0-8,3.582-8,8s3.582,8,8,8h15.083v0.292c0,17.645,14.355,32,32,32h49.243
		c3.533,13.828,16.094,24.083,31.007,24.083h34.879c10.161,14.259,26.817,23.584,45.621,23.584h16v35.137
		c0,20.269,16.489,36.758,36.758,36.758h2.841l0.109,88.105c0,22.056,17.944,40,40,40h16.333c22.056,0,40-17.944,40-40.012
		l-0.208-144.073c0-8.776,7.14-15.916,15.916-15.916h15.751c30.879,0,56-25.121,56-56V95.5
		C455.334,64.621,430.213,39.5,399.334,39.5z M39.083,136.167v-16.583c0-8.822,7.178-16,16-16h48.25v48.583h-48.25
		C46.261,152.167,39.083,144.989,39.083,136.167z M135.333,176.25c-8.822,0-16-7.178-16-16V95.5c0-8.822,7.178-16,16-16h26.841
		c-1.516,5.073-2.341,10.441-2.341,16v64.334c0,5.71,0.864,11.222,2.46,16.416H135.333z M268.592,271.729
		c-11.446,0-20.758-9.312-20.758-20.758v-35.137h23.51l0.069,55.895H268.592z M439.334,159.834c0,22.056-17.944,40-40,40h-15.751
		c-17.599,0-31.916,14.317-31.916,31.916l0,0.006l0,0.006l0.208,144.072c0,13.233-10.767,24-24,24h-16.333
		c-13.233,0-24-10.767-24-24.01l-0.198-159.99h40.24c4.418,0,8-3.582,8-8s-3.582-8-8-8h-48.25h-63.5
		c-14.412,0-27.065-7.664-34.107-19.128c-0.174-0.352-0.369-0.69-0.591-1.01c-3.366-5.857-5.302-12.636-5.302-19.862V95.5
		c0-22.056,17.944-40,40-40h183.5c22.056,0,40,17.944,40,40V159.834z"/>
	<path d="M407.334,87.834h-79.75c-4.418,0-8,3.582-8,8s3.582,8,8,8h79.75c4.418,0,8-3.582,8-8S411.752,87.834,407.334,87.834z"/>
	<path d="M407.334,120.167h-79.75c-4.418,0-8,3.582-8,8s3.582,8,8,8h79.75c4.418,0,8-3.582,8-8S411.752,120.167,407.334,120.167z"/>
	<path d="M407.334,151.834h-79.75c-4.418,0-8,3.582-8,8s3.582,8,8,8h79.75c4.418,0,8-3.582,8-8S411.752,151.834,407.334,151.834z"/>
</g>
<g>
</g>
<g>
</g>
<g>
</g>
<g>
</g>
<g>
</g>
<g>
</g>
<g>
</g>
<g>
</g>
<g>
</g>
<g>
</g>
<g>
</g>
<g>
</g>
<g>
</g>
<g>
</g>
<g>
</g>
</svg>
