<?xml version="1.0" encoding="iso-8859-1"?>
<!-- Generator: Adobe Illustrator 17.1.0, SVG Export Plug-In . SVG Version: 6.00 Build 0)  -->
<!DOCTYPE svg PUBLIC "-//W3C//DTD SVG 1.1//EN" "http://www.w3.org/Graphics/SVG/1.1/DTD/svg11.dtd">
<svg version="1.1" id="Capa_1" xmlns="http://www.w3.org/2000/svg" xmlns:xlink="http://www.w3.org/1999/xlink" x="0px" y="0px"
	 viewBox="0 0 424.744 424.744" style="enable-background:new 0 0 424.744 424.744;" xml:space="preserve">
<g>
	<path d="M352.701,0.41h-8.364H304.61c-44.162,0-80.09,35.928-80.09,80.09c0,1.45,0.044,2.889,0.12,4.32
		c-0.196,0.694-0.309,1.423-0.309,2.18v166.273c0,19.332,15.728,35.061,35.06,35.061h4.523v128.41c0,4.418,3.582,8,8,8s8-3.582,8-8
		V288.26c18.322-1.128,32.884-16.386,32.884-34.986v-92.683h31.538h8.364c17.645,0,32-14.355,32-32V32.41
		C384.701,14.766,370.346,0.41,352.701,0.41z M304.61,16.41h31.727v128.181H304.61c-35.339,0-64.09-28.751-64.09-64.091
		C240.521,45.161,269.271,16.41,304.61,16.41z M277.739,272.334h-18.348c-10.51,0-19.06-8.551-19.06-19.061V128.22
		c13.146,17.662,33.387,29.739,56.467,31.984v93.069C296.799,263.783,288.249,272.334,277.739,272.334z M368.701,128.591
		c0,8.822-7.178,16-16,16h-0.364V16.41h0.364c8.822,0,16,7.178,16,16V128.591z"/>
	<path d="M120.074,0C75.945,0,40.043,35.902,40.043,80.031c0,27.76,14.214,52.256,35.739,66.616v106.626
		c0,19.332,15.729,35.061,35.061,35.061h0.833v128.41c0,4.418,3.582,8,8,8s8-3.582,8-8v-128.41h1.514
		c19.332,0,35.06-15.729,35.06-35.061V146.722c21.59-14.349,35.856-38.881,35.856-66.691C200.105,35.902,164.203,0,120.074,0z
		 M148.249,253.273c0,10.51-8.55,19.061-19.06,19.061h-18.347c-10.51,0-19.061-8.551-19.061-19.061v-98.392
		c8.802,3.338,18.334,5.181,28.292,5.181c9.914,0,19.405-1.825,28.175-5.135V253.273z M152.654,135.124
		c-0.296,0.15-0.586,0.311-0.86,0.495c-9.359,5.362-20.183,8.444-31.72,8.444c-35.307,0-64.031-28.725-64.031-64.031
		S84.768,16,120.074,16s64.031,28.725,64.031,64.031C184.105,103.447,171.464,123.957,152.654,135.124z"/>
	<path d="M152.272,80.031c0,17.754-14.444,32.198-32.198,32.198S87.877,97.785,87.877,80.031s14.443-32.197,32.197-32.197
		c4.418,0,8-3.582,8-8s-3.582-8-8-8c-26.576,0-48.197,21.621-48.197,48.197s21.621,48.198,48.197,48.198
		s48.198-21.622,48.198-48.198c0-4.418-3.582-8-8-8S152.272,75.613,152.272,80.031z"/>
</g>
<g>
</g>
<g>
</g>
<g>
</g>
<g>
</g>
<g>
</g>
<g>
</g>
<g>
</g>
<g>
</g>
<g>
</g>
<g>
</g>
<g>
</g>
<g>
</g>
<g>
</g>
<g>
</g>
<g>
</g>
</svg>
