<?xml version="1.0" encoding="iso-8859-1"?>
<!-- Generator: Adobe Illustrator 17.1.0, SVG Export Plug-In . SVG Version: 6.00 Build 0)  -->
<!DOCTYPE svg PUBLIC "-//W3C//DTD SVG 1.1//EN" "http://www.w3.org/Graphics/SVG/1.1/DTD/svg11.dtd">
<svg version="1.1" id="Capa_1" xmlns="http://www.w3.org/2000/svg" xmlns:xlink="http://www.w3.org/1999/xlink" x="0px" y="0px"
	 viewBox="0 0 427.758 427.758" style="enable-background:new 0 0 427.758 427.758;" xml:space="preserve">
<path d="M369.604,155.726C369.604,69.858,299.746,0,213.879,0S58.153,69.858,58.153,155.726c0,51.666,25.486,99.737,68.215,128.818
	c0.192,0.168,0.391,0.33,0.602,0.481c0.467,0.336,0.922,0.671,1.381,1.016c15.573,11.684,22.598,23.13,25.777,42.035v41.219
	c0,22.293,15.218,40.996,35.555,45.791c0.998,7.147,7.134,12.672,14.552,12.672h19.627c7.43,0,13.574-5.536,14.562-12.695
	c20.287-4.833,35.454-23.512,35.454-45.768v-41.214c3.289-19.466,10.846-31.58,26.841-43.044c0.118-0.084,0.224-0.178,0.336-0.268
	C343.997,255.701,369.604,207.561,369.604,155.726z M257.879,369.295c0,17.091-13.377,30.995-29.82,30.995h-28.109
	c-11.378,0-21.284-6.659-26.31-16.423h60.572c4.418,0,8-3.582,8-8s-3.582-8-8-8h-64.083v-8h64.083c4.418,0,8-3.582,8-8s-3.582-8-8-8
	h-64.083v-7.816h87.75V369.295z M202.05,320.051L165.989,193.36c2.576,2.21,5.978,3.963,10.607,3.963
	c8.834,0,13.23-6.361,15.857-10.162c0.768-1.11,2.053-2.97,2.569-3.252c0,0,0.038-0.007,0.126-0.007
	c0.043-0.001,0.071,0.001,0.087,0c0.596,0.354,1.848,2.167,2.602,3.257c2.626,3.802,7.021,10.164,15.853,10.164
	c8.835,0,13.233-6.359,15.861-10.159c0.77-1.111,2.057-2.973,2.576-3.254c0,0,0.04-0.008,0.129-0.008
	c0.047-0.001,0.081,0.002,0.093,0.001c0.596,0.347,1.854,2.166,2.611,3.261c2.628,3.8,7.026,10.159,15.861,10.159
	c5.211,0,8.872-2.212,11.545-4.805l-36.312,127.532H202.05z M291.2,272.131c-0.316,0.21-0.604,0.445-0.879,0.689
	c-17.39,12.753-26.741,26.804-31.19,47.23h-16.44l42.902-150.678c1.21-4.249-1.254-8.675-5.504-9.885
	c-4.244-1.21-8.675,1.253-9.885,5.504l-0.829,2.911c-8.814,0.013-13.208,6.359-15.834,10.152c-0.771,1.114-2.062,2.979-2.587,3.26
	c0,0-0.04,0.008-0.133,0.008c-0.051,0-0.082,0-0.092-0.001c-0.596-0.347-1.854-2.166-2.611-3.26
	c-2.628-3.8-7.026-10.16-15.862-10.16s-13.235,6.36-15.863,10.16c-0.77,1.111-2.056,2.972-2.575,3.253c0,0-0.039,0.008-0.128,0.008
	c-0.043-0.001-0.074-0.005-0.087,0c-0.596-0.354-1.848-2.167-2.602-3.257c-2.626-3.802-7.021-10.164-15.853-10.164
	c-8.834,0-13.23,6.361-15.857,10.162c-0.768,1.11-2.053,2.97-2.569,3.252c0,0-0.038,0.007-0.126,0.007c-0.045,0-0.073-0.003-0.087,0
	c-0.596-0.354-1.849-2.166-2.602-3.256c-2.555-3.697-6.797-9.798-15.156-10.133l-0.837-2.942c-1.209-4.249-5.632-6.711-9.885-5.504
	c-4.249,1.21-6.714,5.635-5.504,9.885l42.889,150.678h-16.537c-4.374-19.965-13.622-33.828-30.921-46.807
	c-0.298-0.224-0.601-0.442-0.901-0.662c-0.288-0.262-0.591-0.513-0.924-0.736c-38.809-26.043-61.978-69.452-61.978-116.12
	C74.153,78.681,136.834,16,213.879,16s139.726,62.681,139.726,139.726C353.604,202.596,330.275,246.111,291.2,272.131z"/>
<g>
</g>
<g>
</g>
<g>
</g>
<g>
</g>
<g>
</g>
<g>
</g>
<g>
</g>
<g>
</g>
<g>
</g>
<g>
</g>
<g>
</g>
<g>
</g>
<g>
</g>
<g>
</g>
<g>
</g>
</svg>
