<?xml version="1.0" encoding="iso-8859-1"?>
<!-- Generator: Adobe Illustrator 17.1.0, SVG Export Plug-In . SVG Version: 6.00 Build 0)  -->
<!DOCTYPE svg PUBLIC "-//W3C//DTD SVG 1.1//EN" "http://www.w3.org/Graphics/SVG/1.1/DTD/svg11.dtd">
<svg version="1.1" id="Capa_1" xmlns="http://www.w3.org/2000/svg" xmlns:xlink="http://www.w3.org/1999/xlink" x="0px" y="0px"
	 viewBox="0 0 440.125 440.125" style="enable-background:new 0 0 440.125 440.125;" xml:space="preserve">
<g>
	<path d="M316.188,0h-192.25c-0.056,0-0.111,0.004-0.167,0.004c-0.028,0-0.055-0.004-0.083-0.004c-0.085,0-0.167,0.01-0.252,0.013
		C101.611,0.284,83.938,18.113,83.938,40v168.5c0,18.495,5.598,47.511,12.478,64.68l40.11,100.092
		c6.827,17.037,24.938,30.845,43.412,34.033v12.82c0,11.028,8.972,20,20,20h40.25c11.028,0,20-8.972,20-20v-12.82
		c18.474-3.188,36.585-16.996,43.412-34.033l40.11-100.092c6.88-17.169,12.478-46.185,12.478-64.68V40
		C356.188,17.944,338.243,0,316.188,0z M131.688,16h176.25v40c0,4.411-3.589,8-8,8h-160.25c-4.411,0-8-3.589-8-8V16z
		 M240.188,424.125h-40.25c-2.206,0-4-1.794-4-4V408h48.25v12.125C244.188,422.331,242.394,424.125,240.188,424.125z
		 M328.858,267.229l-40.11,100.092c-5.361,13.378-22.065,24.68-36.478,24.68h-64.416c-14.412,0-31.116-11.302-36.478-24.68
		l-40.11-100.092c-6.141-15.325-11.329-42.22-11.329-58.729v-96.833h184c4.418,0,8-3.582,8-8s-3.582-8-8-8h-184V40
		c0-10.336,6.568-19.167,15.75-22.539V56c0,13.233,10.767,24,24,24h160.25c13.233,0,24-10.767,24-24V17.292
		c9.441,3.231,16.25,12.187,16.25,22.708v55.667h-15.417c-4.418,0-8,3.582-8,8s3.582,8,8,8h15.417V208.5
		C340.188,225.009,334.999,251.903,328.858,267.229z"/>
	<path d="M220.146,143.958c-22.079,0-40.041,17.963-40.041,40.042v96.5c0,22.079,17.962,40.042,40.041,40.042
		s40.042-17.963,40.042-40.042V184C260.188,161.921,242.225,143.958,220.146,143.958z M244.188,280.5
		c0,13.257-10.785,24.042-24.042,24.042c-13.256,0-24.041-10.785-24.041-24.042V184c0-13.257,10.785-24.042,24.041-24.042
		c13.257,0,24.042,10.785,24.042,24.042V280.5z"/>
	<path d="M220.146,176.333c-4.418,0-8,3.582-8,8V208c0,4.418,3.582,8,8,8s8-3.582,8-8v-23.667
		C228.146,179.915,224.563,176.333,220.146,176.333z"/>
	<path d="M220.146,256c-4.418,0-8,3.582-8,8v23.667c0,4.418,3.582,8,8,8s8-3.582,8-8V264C228.146,259.582,224.563,256,220.146,256z"
		/>
</g>
<g>
</g>
<g>
</g>
<g>
</g>
<g>
</g>
<g>
</g>
<g>
</g>
<g>
</g>
<g>
</g>
<g>
</g>
<g>
</g>
<g>
</g>
<g>
</g>
<g>
</g>
<g>
</g>
<g>
</g>
</svg>
