<?xml version="1.0" encoding="iso-8859-1"?>
<!-- Generator: Adobe Illustrator 17.1.0, SVG Export Plug-In . SVG Version: 6.00 Build 0)  -->
<!DOCTYPE svg PUBLIC "-//W3C//DTD SVG 1.1//EN" "http://www.w3.org/Graphics/SVG/1.1/DTD/svg11.dtd">
<svg version="1.1" id="Capa_1" xmlns="http://www.w3.org/2000/svg" xmlns:xlink="http://www.w3.org/1999/xlink" x="0px" y="0px"
	 viewBox="0 0 439.604 439.604" style="enable-background:new 0 0 439.604 439.604;" xml:space="preserve">
<g>
	<path d="M297.064,64.544l2.247-16.94h0.991c4.418,0,8-3.582,8-8v-7.875c0-13.233-10.767-24-24-24h-64.514
		C219.644,3.438,216.128,0,211.802,0s-7.842,3.438-7.986,7.729h-64.014c-13.233,0-24,10.767-24,24v7.875c0,4.418,3.582,8,8,8h0.977
		l30.29,232.008l-14.585,113.387c-9.665,3.102-16.681,12.173-16.681,22.855v15.75c0,4.418,3.582,8,8,8h160.5c4.418,0,8-3.582,8-8
		v-15.75c0-10.872-7.27-20.074-17.202-23.013l-14.563-113.22l8.491-64.017h0.441c16.107,0,27.335-9.461,30.804-25.958
		c0.022-0.108,0.043-0.218,0.062-0.327l15.358-91.896c0.073-0.436,0.109-0.877,0.109-1.318
		C323.802,80.252,312.213,67.062,297.064,64.544z M139.802,23.729h144.5c4.369,0,7.932,3.521,7.999,7.875H131.803
		C131.87,27.25,135.433,23.729,139.802,23.729z M283.171,47.604l-2.844,21.443c-0.39,0.942-0.608,1.974-0.608,3.057
		c0,0.34,0.028,0.674,0.07,1.003L253.46,271.604h-83.302l-29.244-224H283.171z M284.302,423.604h-144.5v-7.75c0-4.411,3.589-8,8-8
		h81c4.418,0,8-3.582,8-8s-3.582-8-8-8h-72.04l13.41-104.25h83.26l13.41,104.25h-7.04c-4.418,0-8,3.582-8,8s3.582,8,8,8h16.104
		c0.007,0,0.014,0.001,0.021,0.001c0.005,0,0.01-0.001,0.015-0.001h0.36c4.411,0,8,3.589,8,8V423.604z M292.582,186.508
		c-2.268,10.527-8.377,12.704-13.425,13.041l15.801-119.133c7.126,1.432,12.556,7.613,12.833,15.089L292.582,186.508z"/>
	<path d="M195.969,223.438h31.666c4.418,0,8-3.582,8-8s-3.582-8-8-8h-31.666c-4.418,0-8,3.582-8,8S191.551,223.438,195.969,223.438z
		"/>
	<path d="M195.969,191.438h31.666c4.418,0,8-3.582,8-8s-3.582-8-8-8h-31.666c-4.418,0-8,3.582-8,8S191.551,191.438,195.969,191.438z
		"/>
	<path d="M195.969,159.438h31.666c4.418,0,8-3.582,8-8s-3.582-8-8-8h-31.666c-4.418,0-8,3.582-8,8S191.551,159.438,195.969,159.438z
		"/>
	<path d="M195.969,127.438h31.666c4.418,0,8-3.582,8-8s-3.582-8-8-8h-31.666c-4.418,0-8,3.582-8,8S191.551,127.438,195.969,127.438z
		"/>
	<path d="M195.969,95.438h31.666c4.418,0,8-3.582,8-8s-3.582-8-8-8h-31.666c-4.418,0-8,3.582-8,8S191.551,95.438,195.969,95.438z"/>
</g>
<g>
</g>
<g>
</g>
<g>
</g>
<g>
</g>
<g>
</g>
<g>
</g>
<g>
</g>
<g>
</g>
<g>
</g>
<g>
</g>
<g>
</g>
<g>
</g>
<g>
</g>
<g>
</g>
<g>
</g>
</svg>
