<?xml version="1.0" encoding="iso-8859-1"?>
<!-- Generator: Adobe Illustrator 17.1.0, SVG Export Plug-In . SVG Version: 6.00 Build 0)  -->
<!DOCTYPE svg PUBLIC "-//W3C//DTD SVG 1.1//EN" "http://www.w3.org/Graphics/SVG/1.1/DTD/svg11.dtd">
<svg version="1.1" id="Capa_1" xmlns="http://www.w3.org/2000/svg" xmlns:xlink="http://www.w3.org/1999/xlink" x="0px" y="0px"
	 viewBox="0 0 416.375 416.375" style="enable-background:new 0 0 416.375 416.375;" xml:space="preserve">
<g>
	<path d="M393.315,167.638c-0.017-0.047-0.034-0.094-0.052-0.141L342.931,35.335C335.768,15.516,313.68,0,292.608,0H60.837
		c-22.056,0-40,17.944-40,40v128.458c0,22.056,17.944,40,40,40v89.186c-13.74,3.569-23.917,16.106-23.917,30.981v55.75
		c0,17.645,14.318,32,31.917,32c17.599,0,31.917-14.355,31.917-32v-55.75c0-14.875-10.177-27.413-23.917-30.981v-89.186h287.771
		c11.029,0,20.493-4.463,25.966-12.244C396.045,188.432,397.045,178.017,393.315,167.638z M84.754,328.625v55.75
		c0,5.889-3.19,11.032-7.917,13.81V344.06c0-4.418-3.582-8-8-8s-8,3.582-8,8v54.125c-4.726-2.778-7.917-7.921-7.917-13.81v-55.75
		c0-5.942,3.246-11.126,8.042-13.886c0.648,3.767,3.923,6.636,7.875,6.636c3.952,0,7.227-2.869,7.875-6.636
		C81.508,317.499,84.754,322.684,84.754,328.625z M377.486,187.01c-2.471,3.514-7.044,5.448-12.878,5.448H60.837
		c-13.234,0-24-10.767-24-24V40c0-13.233,10.766-24,24-24h231.771c14.297,0,30.459,11.366,35.292,24.82
		c0.018,0.048,0.035,0.095,0.053,0.143l50.329,132.153C380.228,178.578,379.947,183.511,377.486,187.01z"/>
	<path d="M312.995,46.64l-0.151-0.409C310.31,39.182,300.098,32,292.608,32H92.895c-1.897,0-3.732,0.674-5.178,1.901
		c-0.378,0.322-0.784,0.735-1.096,1.122c-1.153,1.424-1.783,3.201-1.783,5.034v40.567c0,4.418,3.582,8,8,8h224.539
		c2.631,0,5.094-1.294,6.587-3.46s1.826-4.929,0.89-7.387L312.995,46.64z M100.837,72.625V48H292.39
		c1.476,0.343,4.651,2.576,5.47,3.848c0.063,0.173,0.127,0.343,0.188,0.503l7.721,20.274H100.837z"/>
	<path d="M148.962,104.5H92.754c-4.418,0-8,3.582-8,8s3.582,8,8,8h56.208c4.418,0,8-3.582,8-8S153.381,104.5,148.962,104.5z"/>
	<path d="M148.962,128.375H92.754c-4.418,0-8,3.582-8,8s3.582,8,8,8h56.208c4.418,0,8-3.582,8-8S153.381,128.375,148.962,128.375z"
		/>
	<path d="M148.962,152.375H92.754c-4.418,0-8,3.582-8,8s3.582,8,8,8h56.208c4.418,0,8-3.582,8-8S153.381,152.375,148.962,152.375z"
		/>
	<path d="M252.837,128.375c-4.418,0-8,3.582-8,8c0,4.319-3.514,7.833-7.833,7.833s-7.834-3.514-7.834-7.833s3.515-7.833,7.834-7.833
		c4.418,0,8-3.582,8-8s-3.582-8-8-8c-13.143,0-23.834,10.691-23.834,23.833s10.691,23.833,23.834,23.833
		c13.142,0,23.833-10.691,23.833-23.833C260.837,131.957,257.255,128.375,252.837,128.375z"/>
	<path d="M308.35,128.375c-4.418,0-8,3.582-8,8c0,4.319-3.515,7.833-7.834,7.833s-7.833-3.514-7.833-7.833s3.514-7.833,7.833-7.833
		c4.418,0,8-3.582,8-8s-3.582-8-8-8c-13.142,0-23.833,10.691-23.833,23.833s10.691,23.833,23.833,23.833
		c13.143,0,23.834-10.691,23.834-23.833C316.35,131.957,312.768,128.375,308.35,128.375z"/>
</g>
<g>
</g>
<g>
</g>
<g>
</g>
<g>
</g>
<g>
</g>
<g>
</g>
<g>
</g>
<g>
</g>
<g>
</g>
<g>
</g>
<g>
</g>
<g>
</g>
<g>
</g>
<g>
</g>
<g>
</g>
</svg>
