<?xml version="1.0" encoding="iso-8859-1"?>
<!-- Generator: Adobe Illustrator 17.1.0, SVG Export Plug-In . SVG Version: 6.00 Build 0)  -->
<!DOCTYPE svg PUBLIC "-//W3C//DTD SVG 1.1//EN" "http://www.w3.org/Graphics/SVG/1.1/DTD/svg11.dtd">
<svg version="1.1" id="Capa_1" xmlns="http://www.w3.org/2000/svg" xmlns:xlink="http://www.w3.org/1999/xlink" x="0px" y="0px"
	 viewBox="0 0 416.205 416.205" style="enable-background:new 0 0 416.205 416.205;" xml:space="preserve">
<g>
	<path d="M416.11,256.591c0.002-0.073,0.011-0.144,0.011-0.217c0-0.079-0.01-0.155-0.012-0.233l-0.17-92.125
		c0-18.51-14.071-33.793-32.083-35.74V80.144c0-4.418-3.582-8-8-8h-248c-4.418,0-8,3.582-8,8v47.917h-7.849v-27.917
		c0-15.439-12.561-28-28-28H28c-15.439,0-28,12.561-28,28V140.3c0,7.323,2.958,14.389,8.07,19.597v96.41
		C2.958,261.516,0,268.582,0,275.905v40.156c0,15.439,12.561,28,28,28h38.363h17.645h292.936c0.007,0,0.015-0.001,0.022-0.001
		s0.015,0.001,0.022,0.001h3.242c19.837,0,35.976-16.13,35.976-35.971L416.11,256.591z M223.856,256.374v71.688H109.301
		c1.734-3.639,2.707-7.708,2.707-12v-40.156c0-7.323-2.958-14.389-8.07-19.597v-64.247h296.054l0.104,56.313H231.856
		C227.438,248.374,223.856,251.955,223.856,256.374z M399.939,164.029l0.022,12.032h-16.105v-31.614
		C393.013,146.262,399.939,154.345,399.939,164.029z M367.856,88.144v87.917h-232V88.144H367.856z M119.856,176.061h-15.919v-16.164
		c4.23-4.309,6.979-9.891,7.804-15.836h8.115V176.061z M66.363,328.061H28c-6.617,0-12-5.383-12-12v-40.156
		c0-3.782,1.773-7.279,4.865-9.594c2.018-1.511,3.205-3.883,3.205-6.404V156.298c0-2.521-1.188-4.893-3.205-6.404
		C17.773,147.579,16,144.082,16,140.3v-40.156c0-6.617,5.383-12,12-12h56.008c6.617,0,12,5.383,12,12V140.3
		c0,3.782-1.773,7.279-4.865,9.594c-2.018,1.511-3.205,3.883-3.205,6.404v103.609c0,2.521,1.188,4.893,3.205,6.404
		c3.092,2.315,4.865,5.812,4.865,9.594v40.156c0,6.617-5.383,12-12,12H66.363z M380.229,328.061h-3.242
		c-0.007,0-0.015,0.001-0.022,0.001s-0.015-0.001-0.022-0.001H239.856v-16.094h136.125c4.418,0,8-3.582,8-8s-3.582-8-8-8H239.856
		v-31.594h160.268l0.081,43.731C400.205,319.108,391.244,328.061,380.229,328.061z"/>
	<path d="M199.669,200.092h-71.563c-4.418,0-8,3.582-8,8v31.927c0,4.418,3.582,8,8,8h71.563c4.418,0,8-3.582,8-8v-31.927
		C207.669,203.674,204.087,200.092,199.669,200.092z M191.669,232.019h-55.563v-15.927h55.563V232.019z"/>
	<path d="M168.022,160.045h167.834c4.418,0,8-3.582,8-8s-3.582-8-8-8H168.022c-4.418,0-8,3.582-8,8S163.604,160.045,168.022,160.045
		z"/>
	<path d="M168.022,128.077h72c4.418,0,8-3.582,8-8s-3.582-8-8-8h-72c-4.418,0-8,3.582-8,8S163.604,128.077,168.022,128.077z"/>
	<path d="M271.689,128.077h64.167c4.418,0,8-3.582,8-8s-3.582-8-8-8h-64.167c-4.418,0-8,3.582-8,8S267.271,128.077,271.689,128.077z
		"/>
	<path d="M351.817,208.228h-31.795c-4.418,0-8,3.582-8,8s3.582,8,8,8h31.795c4.418,0,8-3.582,8-8S356.235,208.228,351.817,208.228z"
		/>
	<path d="M381.593,210.572c-1.49-1.49-3.551-2.34-5.65-2.34c-2.11,0-4.17,0.85-5.66,2.34c-1.49,1.49-2.34,3.55-2.34,5.65
		c0,2.11,0.85,4.17,2.34,5.66c1.49,1.49,3.55,2.35,5.66,2.35c2.1,0,4.16-0.86,5.65-2.35c1.489-1.49,2.35-3.55,2.35-5.66
		C383.942,214.123,383.082,212.063,381.593,210.572z"/>
	<path d="M135.981,256.394h-7.875c-4.418,0-8,3.582-8,8s3.582,8,8,8h7.875c4.418,0,8-3.582,8-8S140.399,256.394,135.981,256.394z"/>
	<path d="M167.825,256.394h-7.875c-4.418,0-8,3.582-8,8s3.582,8,8,8h7.875c4.418,0,8-3.582,8-8S172.243,256.394,167.825,256.394z"/>
	<path d="M199.669,256.394h-7.875c-4.418,0-8,3.582-8,8s3.582,8,8,8h7.875c4.418,0,8-3.582,8-8S204.087,256.394,199.669,256.394z"/>
	<path d="M135.981,280.186h-7.875c-4.418,0-8,3.582-8,8s3.582,8,8,8h7.875c4.418,0,8-3.582,8-8S140.399,280.186,135.981,280.186z"/>
	<path d="M167.825,280.186h-7.875c-4.418,0-8,3.582-8,8s3.582,8,8,8h7.875c4.418,0,8-3.582,8-8S172.243,280.186,167.825,280.186z"/>
	<path d="M199.669,280.186h-7.875c-4.418,0-8,3.582-8,8s3.582,8,8,8h7.875c4.418,0,8-3.582,8-8S204.087,280.186,199.669,280.186z"/>
	<path d="M135.981,304.061h-7.875c-4.418,0-8,3.582-8,8s3.582,8,8,8h7.875c4.418,0,8-3.582,8-8S140.399,304.061,135.981,304.061z"/>
	<path d="M167.825,304.061h-7.875c-4.418,0-8,3.582-8,8s3.582,8,8,8h7.875c4.418,0,8-3.582,8-8S172.243,304.061,167.825,304.061z"/>
	<path d="M199.669,304.061h-7.875c-4.418,0-8,3.582-8,8s3.582,8,8,8h7.875c4.418,0,8-3.582,8-8S204.087,304.061,199.669,304.061z"/>
</g>
<g>
</g>
<g>
</g>
<g>
</g>
<g>
</g>
<g>
</g>
<g>
</g>
<g>
</g>
<g>
</g>
<g>
</g>
<g>
</g>
<g>
</g>
<g>
</g>
<g>
</g>
<g>
</g>
<g>
</g>
</svg>
