<?xml version="1.0" encoding="iso-8859-1"?>
<!-- Generator: Adobe Illustrator 17.1.0, SVG Export Plug-In . SVG Version: 6.00 Build 0)  -->
<!DOCTYPE svg PUBLIC "-//W3C//DTD SVG 1.1//EN" "http://www.w3.org/Graphics/SVG/1.1/DTD/svg11.dtd">
<svg version="1.1" id="Capa_1" xmlns="http://www.w3.org/2000/svg" xmlns:xlink="http://www.w3.org/1999/xlink" x="0px" y="0px"
	 viewBox="0 0 407.846 407.846" style="enable-background:new 0 0 407.846 407.846;" xml:space="preserve">
<path d="M339.708,221.523L307.804,30.433c-0.644-3.856-3.98-6.683-7.891-6.683h-59.5h-28.5V16h24.333c4.418,0,8-3.582,8-8
	s-3.582-8-8-8H171.58c-4.418,0-8,3.582-8,8s3.582,8,8,8h24.333v7.75h-28.5h-59.5c-3.91,0-7.247,2.826-7.891,6.683l-32,191.667
	c-0.388,2.32,0.266,4.692,1.786,6.487c1.52,1.795,3.753,2.83,6.104,2.83h79.333h40.667v128.381h-55.5c-13.233,0-24,10.767-24,24
	v16.048c0,4.418,3.582,7.976,8,7.976c0.208,0,0.415-0.008,0.619-0.023h157.753c0.289,0.031,0.581,0.048,0.878,0.048
	c4.418,0,8-3.582,8-8v-16.048c0-13.233-10.767-24-24-24h-55.75V231.417h40.667h79.333c0.006,0,0.014,0,0.02,0c4.419,0,8-3.582,8-8
	C339.933,222.765,339.855,222.131,339.708,221.523z M275.663,383.798v8h-143.25v-8c0-4.411,3.589-8,8-8h127.25
	C272.074,375.798,275.663,379.387,275.663,383.798z M114.689,39.75h44.2l-11.151,175.667H85.359L114.689,39.75z M260.089,215.417
	l-8.621-135.813c-0.28-4.409-4.073-7.747-8.491-7.478c-4.409,0.28-7.757,4.082-7.478,8.491l8.557,134.799h-80.285l11.15-175.667
	h57.983l0.69,10.884c0.28,4.409,4.059,7.751,8.491,7.478c4.409-0.28,7.757-4.082,7.478-8.491l-0.626-9.87h44.2l29.329,175.667
	H260.089z"/>
<g>
</g>
<g>
</g>
<g>
</g>
<g>
</g>
<g>
</g>
<g>
</g>
<g>
</g>
<g>
</g>
<g>
</g>
<g>
</g>
<g>
</g>
<g>
</g>
<g>
</g>
<g>
</g>
<g>
</g>
</svg>
