<?xml version="1.0" encoding="iso-8859-1"?>
<!-- Generator: Adobe Illustrator 17.1.0, SVG Export Plug-In . SVG Version: 6.00 Build 0)  -->
<!DOCTYPE svg PUBLIC "-//W3C//DTD SVG 1.1//EN" "http://www.w3.org/Graphics/SVG/1.1/DTD/svg11.dtd">
<svg version="1.1" id="Capa_1" xmlns="http://www.w3.org/2000/svg" xmlns:xlink="http://www.w3.org/1999/xlink" x="0px" y="0px"
	 viewBox="0 0 448 448" style="enable-background:new 0 0 448 448;" xml:space="preserve">
<g>
	<path d="M408,127.958H40c-22.056,0-40,17.944-40,40v88.667c0,22.056,17.944,40,40,40h8.312
		c0.312,12.965,10.947,23.417,23.985,23.417h15.479c13.038,0,23.673-10.452,23.985-23.417h224.478
		c0.312,12.965,10.947,23.417,23.985,23.417h15.479c13.038,0,23.673-10.452,23.985-23.417H408c22.056,0,40-17.944,40-40v-88.667
		C448,145.902,430.056,127.958,408,127.958z M87.776,304.042H72.297c-4.214,0-7.67-3.278-7.97-7.417h31.42
		C95.445,300.764,91.99,304.042,87.776,304.042z M375.703,304.042h-15.479c-4.214,0-7.67-3.278-7.97-7.417h31.42
		C383.373,300.764,379.917,304.042,375.703,304.042z M432,256.625c0,13.233-10.766,24-24,24H40c-13.234,0-24-10.767-24-24v-88.667
		c0-13.234,10.766-24,24-24h368c13.234,0,24,10.766,24,24V256.625z"/>
	<path d="M112.39,204.089c-4.418,0-8,3.582-8,8c0,11.028-8.972,20-20,20s-20-8.972-20-20s8.972-20,20-20c4.418,0,8-3.582,8-8
		s-3.582-8-8-8c-19.851,0-36,16.149-36,36s16.149,36,36,36s36-16.149,36-36C120.39,207.67,116.809,204.089,112.39,204.089z"/>
	<path d="M380.375,184.422H376c-4.418,0-8,3.582-8,8s3.582,8,8,8h4.375c6.433,0,11.667,5.233,11.667,11.667
		s-5.234,11.667-11.667,11.667h-192.31c-6.433,0-11.667-5.233-11.667-11.667s5.233-11.667,11.667-11.667H345c4.418,0,8-3.582,8-8
		s-3.582-8-8-8H188.066c-15.255,0-27.667,12.411-27.667,27.667s12.411,27.667,27.667,27.667h192.31
		c15.255,0,27.667-12.411,27.667-27.667S395.631,184.422,380.375,184.422z"/>
</g>
<g>
</g>
<g>
</g>
<g>
</g>
<g>
</g>
<g>
</g>
<g>
</g>
<g>
</g>
<g>
</g>
<g>
</g>
<g>
</g>
<g>
</g>
<g>
</g>
<g>
</g>
<g>
</g>
<g>
</g>
</svg>
