<?xml version="1.0" encoding="iso-8859-1"?>
<!-- Generator: Adobe Illustrator 17.1.0, SVG Export Plug-In . SVG Version: 6.00 Build 0)  -->
<!DOCTYPE svg PUBLIC "-//W3C//DTD SVG 1.1//EN" "http://www.w3.org/Graphics/SVG/1.1/DTD/svg11.dtd">
<svg version="1.1" id="Capa_1" xmlns="http://www.w3.org/2000/svg" xmlns:xlink="http://www.w3.org/1999/xlink" x="0px" y="0px"
	 viewBox="0 0 475.479 475.479" style="enable-background:new 0 0 475.479 475.479;" xml:space="preserve">
<g>
	<path d="M331.666,145.571h-47.75c-4.418,0-8,3.582-8,8s3.582,8,8,8h47.75c4.418,0,8-3.582,8-8S336.084,145.571,331.666,145.571z"/>
	<path d="M331.666,177.905h-47.75c-4.418,0-8,3.582-8,8s3.582,8,8,8h47.75c4.418,0,8-3.582,8-8S336.084,177.905,331.666,177.905z"/>
	<path d="M331.666,209.571h-47.75c-4.418,0-8,3.582-8,8s3.582,8,8,8h47.75c4.418,0,8-3.582,8-8S336.084,209.571,331.666,209.571z"/>
	<path d="M411.479,129.571h-46.917c-0.39,0-0.772,0.022-1.188,0.055c-4.163,0.327-7.374,3.8-7.374,7.976v119.94
		c0,4.188,3.293,7.671,7.469,7.982c0.362,0.027,0.725,0.047,1.093,0.047h46.917c8.822,0,16-7.178,16-16v-104
		C427.479,136.749,420.301,129.571,411.479,129.571z M411.479,249.507c-0.02,0.03-0.043,0.063,0,0.064H372V145.569l39.389-0.013
		c0.035,0.017,0.09,0.066,0.09,0.015V249.507z"/>
	<path d="M411.479,81.571H155.791h-16.229c-12.925,0-24.432,6.168-31.749,15.709h-52.73c-17.645,0-32,14.355-32,32v0.291H8
		c-4.418,0-8,3.582-8,8s3.582,8,8,8h15.083v0.292c0,17.645,14.355,32,32,32h52.731c7.317,9.541,18.824,15.708,31.748,15.708h16.229
		h15.75v17.438c-9.376,3.267-16.125,12.191-16.125,22.666v136.231c0,13.233,10.767,24,24,24h0.25c13.233,0,24-10.767,24-24V233.676
		c0-10.475-6.749-19.399-16.125-22.666v-17.438h31.771c13.291,0,24.104,10.813,24.104,24.104v103.896c0,22.056,17.944,40,40,40H332
		c22.056,0,40-17.944,40-40v-8h39.479c35.29,0,64-28.71,64-64v-104C475.479,110.281,446.769,81.571,411.479,81.571z
		 M187.666,369.907c0,4.411-3.589,8-8,8h-0.25c-4.411,0-8-3.589-8-8V233.676c0-4.411,3.589-8,8-8h0.25c4.411,0,8,3.589,8,8V369.907z
		 M55.083,161.863c-8.822,0-16-7.178-16-16V129.28c0-8.822,7.178-16,16-16h45.349c-0.566,2.676-0.87,5.449-0.87,8.291v32
		c0,2.843,0.303,5.615,0.87,8.292H55.083z M459.479,249.571c0,26.468-21.532,48-48,48l-46.95-0.002
		c-0.148-0.006-0.296-0.01-0.445-0.012c-0.027,0-0.055,0-0.083,0c-2.106,0-4.129,0.831-5.627,2.313
		c-1.519,1.503-2.373,3.551-2.373,5.687v16.014c0,13.233-10.767,24-24,24h-48.584c-13.233,0-24-10.767-24-24V217.676
		c0-22.113-17.99-40.104-40.104-40.104h-55.521v-40c0-4.418-3.582-8-8-8s-8,3.582-8,8v40h-8.229c-13.233,0-24-10.767-24-24v-32
		c0-13.233,10.767-24,24-24h8.229v8c0,4.418,3.582,8,8,8s8-3.582,8-8v-8h247.688c26.468,0,48,21.532,48,48V249.571z"/>
</g>
<g>
</g>
<g>
</g>
<g>
</g>
<g>
</g>
<g>
</g>
<g>
</g>
<g>
</g>
<g>
</g>
<g>
</g>
<g>
</g>
<g>
</g>
<g>
</g>
<g>
</g>
<g>
</g>
<g>
</g>
</svg>
