<?xml version="1.0" encoding="iso-8859-1"?>
<!-- Generator: Adobe Illustrator 17.1.0, SVG Export Plug-In . SVG Version: 6.00 Build 0)  -->
<!DOCTYPE svg PUBLIC "-//W3C//DTD SVG 1.1//EN" "http://www.w3.org/Graphics/SVG/1.1/DTD/svg11.dtd">
<svg version="1.1" id="Capa_1" xmlns="http://www.w3.org/2000/svg" xmlns:xlink="http://www.w3.org/1999/xlink" x="0px" y="0px"
	 viewBox="0 0 440.167 440.167" style="enable-background:new 0 0 440.167 440.167;" xml:space="preserve">
<g>
	<path d="M356.333,0h-272.5c-13.233,0-24,10.766-24,24v392.167c0,13.234,10.767,24,24,24h272.5c13.233,0,24-10.766,24-24V24
		C380.333,10.766,369.567,0,356.333,0z M364.333,416.167c0,4.411-3.589,8-8,8h-272.5c-4.411,0-8-3.589-8-8V24c0-4.411,3.589-8,8-8
		h272.5c4.411,0,8,3.589,8,8V416.167z"/>
	<path d="M129.515,239.474l-9.897,9.897c-1.214-0.305-2.477-0.484-3.785-0.484c-8.593,0-15.583,6.991-15.583,15.583
		c0,8.593,6.99,15.583,15.583,15.583s15.583-6.991,15.583-15.583c0-1.307-0.18-2.571-0.484-3.785l9.897-9.897
		c21.193,18.569,48.93,29.841,79.254,29.841c66.394,0,120.408-54.015,120.408-120.409S286.477,39.812,220.083,39.812
		S99.675,93.826,99.675,160.22C99.675,190.544,110.947,218.281,129.515,239.474z M220.083,55.812
		c57.571,0,104.408,46.837,104.408,104.408c0,57.571-46.837,104.409-104.408,104.409c-25.912,0-49.647-9.492-67.918-25.177
		l25.602-25.602c3.124-3.124,3.124-8.189,0-11.313c-3.125-3.124-8.189-3.124-11.314,0l-25.601,25.602
		c-15.684-18.271-25.176-42.006-25.176-67.918C115.675,102.649,162.512,55.812,220.083,55.812z"/>
	<path d="M220.083,200.317c22.109,0,40.097-17.987,40.097-40.097c0-3.8-0.532-7.563-1.582-11.183
		c-1.23-4.243-5.666-6.687-9.912-5.456c-4.243,1.23-6.686,5.668-5.455,9.912c0.63,2.172,0.949,4.435,0.949,6.727
		c0,13.287-10.81,24.097-24.097,24.097s-24.097-10.81-24.097-24.097s10.81-24.097,24.097-24.097c2.259,0,4.492,0.311,6.637,0.923
		c4.247,1.211,8.676-1.247,9.89-5.495c1.214-4.248-1.247-8.676-5.495-9.89c-3.574-1.021-7.285-1.539-11.031-1.539
		c-22.109,0-40.097,17.987-40.097,40.097C179.987,182.33,197.974,200.317,220.083,200.317z"/>
	<path d="M100.083,336.083h240c4.418,0,8-3.582,8-8s-3.582-8-8-8h-240c-4.418,0-8,3.582-8,8S95.665,336.083,100.083,336.083z"/>
	<path d="M104.175,56.395c6.662,0,12.083-5.42,12.083-12.083s-5.421-12.083-12.083-12.083c-6.663,0-12.084,5.42-12.084,12.083
		S97.512,56.395,104.175,56.395z"/>
	<path d="M336.576,32.228c-6.663,0-12.084,5.42-12.084,12.083s5.421,12.083,12.084,12.083c6.662,0,12.083-5.42,12.083-12.083
		S343.238,32.228,336.576,32.228z"/>
	<path d="M104.175,383.839c-6.663,0-12.084,5.42-12.084,12.083s5.421,12.083,12.084,12.083c6.662,0,12.083-5.42,12.083-12.083
		S110.837,383.839,104.175,383.839z"/>
	<path d="M336.576,383.839c-6.663,0-12.084,5.42-12.084,12.083s5.421,12.083,12.084,12.083c6.662,0,12.083-5.42,12.083-12.083
		S343.238,383.839,336.576,383.839z"/>
</g>
<g>
</g>
<g>
</g>
<g>
</g>
<g>
</g>
<g>
</g>
<g>
</g>
<g>
</g>
<g>
</g>
<g>
</g>
<g>
</g>
<g>
</g>
<g>
</g>
<g>
</g>
<g>
</g>
<g>
</g>
</svg>
