<?xml version="1.0" encoding="iso-8859-1"?>
<!-- Generator: Adobe Illustrator 17.1.0, SVG Export Plug-In . SVG Version: 6.00 Build 0)  -->
<!DOCTYPE svg PUBLIC "-//W3C//DTD SVG 1.1//EN" "http://www.w3.org/Graphics/SVG/1.1/DTD/svg11.dtd">
<svg version="1.1" id="Capa_1" xmlns="http://www.w3.org/2000/svg" xmlns:xlink="http://www.w3.org/1999/xlink" x="0px" y="0px"
	 viewBox="0 0 455.813 455.813" style="enable-background:new 0 0 455.813 455.813;" xml:space="preserve">
<path d="M284.073,151.813h-20V40c0-22.056-16.224-40-36.166-40S191.74,17.944,191.74,40v111.813h-20c-11.028,0-20,8.972-20,20
	v156.25c0,23.844,17.478,43.674,40.293,47.373v8.574c0,10.253,6.624,18.998,15.854,22.264v41.539c0,4.418,3.582,8,8,8h23.75
	c4.418,0,8-3.582,8-8v-41.398c9.446-3.148,16.271-11.998,16.271-22.404v-8.597c22.752-3.753,40.165-23.552,40.165-47.35v-156.25
	C304.073,160.785,295.101,151.813,284.073,151.813z M207.74,55.792h40.333v16.031H207.74V55.792z M227.907,16
	c11.06,0,20.067,10.654,20.162,23.792h-40.324C207.839,26.654,216.845,16,227.907,16z M207.74,87.823h40.333v63.99H207.74V87.823z
	 M223.886,439.813v-32.167h7.75v32.167H223.886z M247.908,384.01c0,4.21-3.524,7.636-7.856,7.636h-24.163
	c-4.331,0-7.855-3.426-7.855-7.636v-7.947h39.875V384.01z M288.073,328.063c0,17.645-14.355,32-32,32h-0.165h-55.875h-0.293
	c-17.645,0-32-14.355-32-32v-156.25c0-2.168,1.832-4,4-4h112.333c2.168,0,4,1.832,4,4V328.063z"/>
<g>
</g>
<g>
</g>
<g>
</g>
<g>
</g>
<g>
</g>
<g>
</g>
<g>
</g>
<g>
</g>
<g>
</g>
<g>
</g>
<g>
</g>
<g>
</g>
<g>
</g>
<g>
</g>
<g>
</g>
</svg>
