<?xml version="1.0" encoding="iso-8859-1"?>
<!-- Generator: Adobe Illustrator 17.1.0, SVG Export Plug-In . SVG Version: 6.00 Build 0)  -->
<!DOCTYPE svg PUBLIC "-//W3C//DTD SVG 1.1//EN" "http://www.w3.org/Graphics/SVG/1.1/DTD/svg11.dtd">
<svg version="1.1" id="Capa_1" xmlns="http://www.w3.org/2000/svg" xmlns:xlink="http://www.w3.org/1999/xlink" x="0px" y="0px"
	 viewBox="0 0 416.02 416.02" style="enable-background:new 0 0 416.02 416.02;" xml:space="preserve">
<g>
	<path d="M356.973,0H59.047C35.311,0,16,19.307,16,43.039v297.858c0,23.732,19.311,43.04,43.047,43.04h4.88v24.083
		c0,4.418,3.582,8,8,8h272.166c4.418,0,8-3.582,8-8v-24.083h4.88c23.736,0,43.047-19.308,43.047-43.04V43.039
		C400.02,19.307,380.709,0,356.973,0z M336.093,400.02H79.927v-16.083h256.166V400.02z M384.02,340.897
		c0,14.91-12.133,27.04-27.047,27.04H59.047c-14.914,0-27.047-12.13-27.047-27.04V43.039C32,28.13,44.133,16,59.047,16h297.926
		c14.914,0,27.047,12.13,27.047,27.039V340.897z"/>
	<path d="M336.093,39.918H79.76c-4.418,0-8,3.582-8,8v160.227c0,4.418,3.582,8,8,8h56.072v55.708c0,4.418,3.582,8,8,8H272.09
		c4.418,0,8-3.582,8-8v-55.708h56.003c4.418,0,8-3.582,8-8V47.918C344.093,43.5,340.511,39.918,336.093,39.918z M328.093,200.145
		H272.09c-4.418,0-8,3.582-8,8v55.708H151.832v-55.708c0-4.418-3.582-8-8-8H87.76V55.918h16.167v80.102c0,4.418,3.582,8,8,8
		s8-3.582,8-8V55.918h16.041v80.102c0,4.418,3.582,8,8,8s8-3.582,8-8V55.918h16.042v80.102c0,4.418,3.582,8,8,8s8-3.582,8-8V55.918
		h16.042v80.102c0,4.418,3.582,8,8,8s8-3.582,8-8V55.918h16.041v80.102c0,4.418,3.582,8,8,8s8-3.582,8-8V55.918h16.042v80.102
		c0,4.418,3.582,8,8,8s8-3.582,8-8V55.918h16.042v80.102c0,4.418,3.582,8,8,8s8-3.582,8-8V55.918h15.916V200.145z"/>
	<path d="M208.052,152.02c-4.418,0-8,3.582-8,8v8c0,4.418,3.582,8,8,8s8-3.582,8-8v-8C216.052,155.601,212.47,152.02,208.052,152.02
		z"/>
	<path d="M176.01,152.02c-4.418,0-8,3.582-8,8v8c0,4.418,3.582,8,8,8s8-3.582,8-8v-8C184.01,155.601,180.428,152.02,176.01,152.02z"
		/>
	<path d="M143.968,152.02c-4.418,0-8,3.582-8,8v8c0,4.418,3.582,8,8,8s8-3.582,8-8v-8
		C151.968,155.601,148.386,152.02,143.968,152.02z"/>
	<path d="M111.927,152.02c-4.418,0-8,3.582-8,8v8c0,4.418,3.582,8,8,8s8-3.582,8-8v-8
		C119.927,155.601,116.345,152.02,111.927,152.02z"/>
	<path d="M304.177,152.02c-4.418,0-8,3.582-8,8v8c0,4.418,3.582,8,8,8s8-3.582,8-8v-8
		C312.177,155.601,308.595,152.02,304.177,152.02z"/>
	<path d="M272.135,152.02c-4.418,0-8,3.582-8,8v8c0,4.418,3.582,8,8,8s8-3.582,8-8v-8
		C280.135,155.601,276.553,152.02,272.135,152.02z"/>
	<path d="M240.093,152.02c-4.418,0-8,3.582-8,8v8c0,4.418,3.582,8,8,8s8-3.582,8-8v-8
		C248.093,155.601,244.511,152.02,240.093,152.02z"/>
</g>
<g>
</g>
<g>
</g>
<g>
</g>
<g>
</g>
<g>
</g>
<g>
</g>
<g>
</g>
<g>
</g>
<g>
</g>
<g>
</g>
<g>
</g>
<g>
</g>
<g>
</g>
<g>
</g>
<g>
</g>
</svg>
