<?xml version="1.0" encoding="iso-8859-1"?>
<!-- Generator: Adobe Illustrator 17.1.0, SVG Export Plug-In . SVG Version: 6.00 Build 0)  -->
<!DOCTYPE svg PUBLIC "-//W3C//DTD SVG 1.1//EN" "http://www.w3.org/Graphics/SVG/1.1/DTD/svg11.dtd">
<svg version="1.1" id="Capa_1" xmlns="http://www.w3.org/2000/svg" xmlns:xlink="http://www.w3.org/1999/xlink" x="0px" y="0px"
	 viewBox="0 0 431.705 431.705" style="enable-background:new 0 0 431.705 431.705;" xml:space="preserve">
<g>
	<path d="M397.281,71.966H34.424C15.765,71.966,0,87.957,0,106.885v218.427c0,18.983,15.442,34.428,34.424,34.428h362.857
		c18.981,0,34.424-15.444,34.424-34.428V106.387C431.705,87.407,416.263,71.966,397.281,71.966z M415.705,325.312
		c0,10.161-8.265,18.428-18.424,18.428H34.424c-10.159,0-18.424-8.267-18.424-18.428V106.885c0-10.255,8.438-18.919,18.424-18.919
		h362.857c10.159,0,18.424,8.264,18.424,18.421V325.312z"/>
	<path d="M279.416,207.413c-17.326,0-31.422-14.097-31.422-31.423s14.096-31.423,31.422-31.423c6.287,0,12.144,1.863,17.061,5.056
		c-0.113,0.168-0.232,0.33-0.344,0.5c-5.018,7.705-7.67,16.649-7.67,25.866c0,26.149,21.274,47.423,47.425,47.423
		c26.146,0,47.419-21.273,47.419-47.423s-21.272-47.423-47.419-47.423c-4.418,0-8,3.582-8,8s3.582,8,8,8
		c17.324,0,31.419,14.097,31.419,31.423s-14.095,31.423-31.419,31.423c-6.288,0-12.146-1.863-17.064-5.057
		c5.2-7.745,8.013-16.868,8.013-26.366c0-26.149-21.273-47.423-47.422-47.423s-47.422,21.273-47.422,47.423
		s21.273,47.423,47.422,47.423c4.418,0,8-3.582,8-8S283.834,207.413,279.416,207.413z M310.838,175.99
		c0,4.844-1.106,9.538-3.182,13.783c-2.042-4.164-3.192-8.841-3.192-13.783c0-4.814,1.106-9.507,3.189-13.771
		C309.69,166.381,310.838,171.053,310.838,175.99z"/>
	<path d="M122.554,127.765H61.571c-16.227,0-29.428,13.196-29.428,29.416v37.248c0,16.225,13.201,29.424,29.428,29.424h60.982
		c16.225,0,29.424-13.199,29.424-29.424v-37.248C151.978,140.961,138.778,127.765,122.554,127.765z M122.554,207.853H61.571
		c-5.622,0-10.44-3.475-12.438-8.386h23.143c4.418,0,8-3.582,8-8s-3.582-8-8-8H48.144v-15.728h24.133c4.418,0,8-3.582,8-8
		s-3.582-8-8-8H49.309c2.094-4.691,6.798-7.975,12.262-7.975h60.982c5.463,0,10.166,3.283,12.259,7.975h-23.355
		c-4.418,0-8,3.582-8,8s3.582,8,8,8h24.52v15.728h-24.52c-4.418,0-8,3.582-8,8s3.582,8,8,8h23.53
		C132.991,204.378,128.174,207.853,122.554,207.853z"/>
	<path d="M56.228,271.989c-4.418,0-8,3.582-8,8V295c0,4.418,3.582,8,8,8s8-3.582,8-8v-15.011
		C64.228,275.571,60.646,271.989,56.228,271.989z"/>
	<path d="M95.992,271.989c-4.418,0-8,3.582-8,8V295c0,4.418,3.582,8,8,8s8-3.582,8-8v-15.011
		C103.992,275.571,100.41,271.989,95.992,271.989z"/>
	<path d="M135.757,271.989c-4.418,0-8,3.582-8,8V295c0,4.418,3.582,8,8,8s8-3.582,8-8v-15.011
		C143.757,275.571,140.175,271.989,135.757,271.989z"/>
	<path d="M175.521,271.989c-4.418,0-8,3.582-8,8V295c0,4.418,3.582,8,8,8s8-3.582,8-8v-15.011
		C183.521,275.571,179.939,271.989,175.521,271.989z"/>
	<path d="M215.563,271.989c-4.418,0-8,3.582-8,8V295c0,4.418,3.582,8,8,8s8-3.582,8-8v-15.011
		C223.563,275.571,219.98,271.989,215.563,271.989z"/>
	<path d="M255.327,271.989c-4.418,0-8,3.582-8,8V295c0,4.418,3.582,8,8,8s8-3.582,8-8v-15.011
		C263.327,275.571,259.745,271.989,255.327,271.989z"/>
	<path d="M295.092,271.989c-4.418,0-8,3.582-8,8V295c0,4.418,3.582,8,8,8s8-3.582,8-8v-15.011
		C303.092,275.571,299.51,271.989,295.092,271.989z"/>
	<path d="M334.856,271.989c-4.418,0-8,3.582-8,8V295c0,4.418,3.582,8,8,8s8-3.582,8-8v-15.011
		C342.856,275.571,339.274,271.989,334.856,271.989z"/>
	<path d="M375.478,271.989c-4.418,0-8,3.582-8,8V295c0,4.418,3.582,8,8,8s8-3.582,8-8v-15.011
		C383.478,275.571,379.896,271.989,375.478,271.989z"/>
</g>
<g>
</g>
<g>
</g>
<g>
</g>
<g>
</g>
<g>
</g>
<g>
</g>
<g>
</g>
<g>
</g>
<g>
</g>
<g>
</g>
<g>
</g>
<g>
</g>
<g>
</g>
<g>
</g>
<g>
</g>
</svg>
