<?xml version="1.0" encoding="iso-8859-1"?>
<!-- Generator: Adobe Illustrator 17.1.0, SVG Export Plug-In . SVG Version: 6.00 Build 0)  -->
<!DOCTYPE svg PUBLIC "-//W3C//DTD SVG 1.1//EN" "http://www.w3.org/Graphics/SVG/1.1/DTD/svg11.dtd">
<svg version="1.1" id="Capa_1" xmlns="http://www.w3.org/2000/svg" xmlns:xlink="http://www.w3.org/1999/xlink" x="0px" y="0px"
	 viewBox="0 0 391.917 391.917" style="enable-background:new 0 0 391.917 391.917;" xml:space="preserve">
<g>
	<path d="M67.604,171.868c19.851,0,36-16.149,36-36c0-4.418-3.582-8-8-8s-8,3.582-8,8c0,11.028-8.972,20-20,20s-20-8.972-20-20
		s8.972-20,20-20c4.418,0,8-3.582,8-8s-3.582-8-8-8c-19.851,0-36,16.149-36,36S47.754,171.868,67.604,171.868z"/>
	<path d="M98.534,227.609c-4.139,1.547-6.239,6.156-4.691,10.295c1.169,3.128,1.762,6.427,1.762,9.805c0,15.439-12.561,28-28,28
		s-28-12.561-28-28s12.561-28,28-28c3.251,0,6.433,0.55,9.457,1.635c4.161,1.491,8.739-0.67,10.231-4.829
		c1.492-4.159-0.67-8.739-4.829-10.231c-4.762-1.708-9.761-2.574-14.859-2.574c-24.262,0-44,19.738-44,44s19.738,44,44,44
		s44-19.738,44-44c0-5.298-0.934-10.482-2.776-15.408C107.281,228.16,102.67,226.058,98.534,227.609z"/>
	<path d="M367.917,52.306H280c-13.233,0-24,10.767-24,24v80.876c-2.504-0.888-5.195-1.376-8-1.376H143.917
		c-2.805,0-5.496,0.488-8,1.376V76.306c0-13.233-10.767-24-24-24H24c-13.233,0-24,10.767-24,24v239.305c0,13.233,10.767,24,24,24
		h87.917c6.142,0,11.751-2.322,16-6.131c4.249,3.809,9.858,6.131,16,6.131H248c6.142,0,11.751-2.322,16-6.131
		c4.25,3.809,9.858,6.131,16,6.131h87.916c13.233,0,24-10.767,24-24V76.306C391.917,63.073,381.15,52.306,367.917,52.306z
		 M111.917,323.611H24c-4.411,0-8-3.589-8-8V76.306c0-4.411,3.589-8,8-8h87.917c4.411,0,8,3.589,8,8v103.5v135.805
		C119.917,320.022,116.328,323.611,111.917,323.611z M248,323.611H143.917c-4.411,0-8-3.589-8-8v-79.688h80.75c4.418,0,8-3.582,8-8
		s-3.582-8-8-8h-80.75v-40.117c0-4.411,3.589-8,8-8H248c4.411,0,8,3.589,8,8v40.117h-7.834c-4.418,0-8,3.582-8,8s3.582,8,8,8H256
		v79.688C256,320.022,252.412,323.611,248,323.611z M375.917,315.611c0,4.411-3.589,8-8,8H280c-4.411,0-8-3.589-8-8V179.806v-103.5
		c0-4.411,3.589-8,8-8h87.916c4.411,0,8,3.589,8,8V315.611z"/>
	<path d="M323.604,171.868c19.851,0,36-16.149,36-36c0-4.418-3.582-8-8-8s-8,3.582-8,8c0,11.028-8.972,20-20,20s-20-8.972-20-20
		s8.972-20,20-20c4.418,0,8-3.582,8-8s-3.582-8-8-8c-19.851,0-36,16.149-36,36S303.753,171.868,323.604,171.868z"/>
	<path d="M354.534,227.609c-4.139,1.547-6.239,6.156-4.691,10.295c1.169,3.127,1.762,6.426,1.762,9.805c0,15.439-12.561,28-28,28
		s-28-12.561-28-28s12.561-28,28-28c3.251,0,6.434,0.55,9.457,1.635c4.155,1.492,8.739-0.669,10.231-4.829
		c1.492-4.159-0.67-8.739-4.829-10.231c-4.762-1.708-9.762-2.574-14.859-2.574c-24.262,0-44,19.738-44,44s19.738,44,44,44
		s44-19.738,44-44c0-5.299-0.934-10.483-2.775-15.408C363.281,228.161,358.67,226.058,354.534,227.609z"/>
	<path d="M239.667,195.493c0-4.418-3.582-8-8-8H160.25c-4.418,0-8,3.582-8,8s3.582,8,8,8h71.417
		C236.084,203.493,239.667,199.911,239.667,195.493z"/>
	<path d="M167.333,251.972c-8.73,0-15.833,7.104-15.833,15.834s7.103,15.833,15.833,15.833s15.833-7.103,15.833-15.833
		S176.064,251.972,167.333,251.972z M167.333,267.972v-0.333c0.092,0,0.167,0.075,0.167,0.167
		C167.5,267.899,167.427,267.972,167.333,267.972z"/>
	<path d="M231.39,251.972c-8.73,0-15.833,7.104-15.833,15.834s7.103,15.833,15.833,15.833s15.834-7.103,15.834-15.833
		S240.121,251.972,231.39,251.972z M231.39,267.972v-0.333c0.092,0,0.167,0.075,0.167,0.167S231.482,267.972,231.39,267.972z"/>
</g>
<g>
</g>
<g>
</g>
<g>
</g>
<g>
</g>
<g>
</g>
<g>
</g>
<g>
</g>
<g>
</g>
<g>
</g>
<g>
</g>
<g>
</g>
<g>
</g>
<g>
</g>
<g>
</g>
<g>
</g>
</svg>
