<?xml version="1.0" encoding="iso-8859-1"?>
<!-- Generator: Adobe Illustrator 17.1.0, SVG Export Plug-In . SVG Version: 6.00 Build 0)  -->
<!DOCTYPE svg PUBLIC "-//W3C//DTD SVG 1.1//EN" "http://www.w3.org/Graphics/SVG/1.1/DTD/svg11.dtd">
<svg version="1.1" id="Capa_1" xmlns="http://www.w3.org/2000/svg" xmlns:xlink="http://www.w3.org/1999/xlink" x="0px" y="0px"
	 viewBox="0 0 416.333 416.333" style="enable-background:new 0 0 416.333 416.333;" xml:space="preserve">
<g>
	<path d="M80.063,288.169v-0.003c0-8.822-7.178-16-16-16h-7.77c-8.822,0-16,7.178-16,16l-0.428,0.001c-8.822,0-16,7.178-16,16v7.769
		c0,8.822,7.178,16,16,16h0.428v0.23c0,8.822,7.178,16,16,16h7.77c8.822,0,16-7.178,16-16v-0.232
		c8.708-0.134,15.75-7.259,15.75-15.998v-7.769C95.813,295.429,88.77,288.303,80.063,288.169z M79.813,311.937h-7.75
		c-4.418,0-8,3.582-8,8l0.001,8.23h-7.771v-8.23c0-4.418-3.582-8-8-8h-8.428v-7.769h8.428c4.418,0,8-3.582,8-8v-8.001h7.77v8.001
		c0,4.418,3.582,8,8,8h7.75V311.937z"/>
	<path d="M80.063,138.277c4.418,0,8-3.582,8-8v-41.61c0-4.418-3.582-8-8-8s-8,3.582-8,8v41.61
		C72.063,134.695,75.644,138.277,80.063,138.277z"/>
	<path d="M56.313,130.777c4.418,0,8-3.582,8-8v-26.61c0-4.418-3.582-8-8-8s-8,3.582-8,8v26.61
		C48.313,127.195,51.894,130.777,56.313,130.777z"/>
	<path d="M336.563,138.277c4.418,0,8-3.582,8-8v-41.61c0-4.418-3.582-8-8-8s-8,3.582-8,8v41.61
		C328.563,134.695,332.144,138.277,336.563,138.277z"/>
	<path d="M360.563,130.777c4.418,0,8-3.582,8-8v-26.61c0-4.418-3.582-8-8-8s-8,3.582-8,8v26.61
		C352.563,127.195,356.144,130.777,360.563,130.777z"/>
	<path d="M391.938,0H24.396c-13.234,0-24,10.767-24,24v368.333c0,13.233,10.766,24,24,24h367.542c13.234,0,24-10.767,24-24V24
		C415.938,10.767,405.171,0,391.938,0z M24.396,16h367.542c4.411,0,8,3.589,8,8v176.167H16.396V24
		C16.396,19.589,19.984,16,24.396,16z M391.938,400.333H24.396c-4.411,0-8-3.589-8-8V216.167h383.542v176.167
		C399.938,396.744,396.349,400.333,391.938,400.333z"/>
	<path d="M120.167,184.375h176c4.418,0,8-3.582,8-8V40.292c0-4.418-3.582-8-8-8h-176c-4.418,0-8,3.582-8,8v136.083
		C112.167,180.793,115.748,184.375,120.167,184.375z M128.167,48.292h6.292l36.657,36.657c1.562,1.562,3.609,2.343,5.657,2.343
		s4.095-0.781,5.657-2.343c3.125-3.124,3.125-8.189,0-11.313l-25.343-25.343h131.081v120.083h-10.997l-62.74-62.74
		c-3.124-3.124-8.189-3.124-11.313,0c-3.125,3.124-3.125,8.189,0,11.313l51.427,51.427H128.167V48.292z"/>
	<path d="M296.167,232.167H138.571c-0.531-0.053-1.067-0.053-1.598,0h-16.807c-4.418,0-8,3.582-8,8V376.25c0,4.418,3.582,8,8,8h176
		c4.418,0,8-3.582,8-8V240.167C304.167,235.748,300.585,232.167,296.167,232.167z M288.167,368.25h-10.955l-62.782-62.782
		c-3.124-3.124-8.189-3.124-11.313,0c-3.125,3.124-3.125,8.189,0,11.313l51.469,51.468H128.167V248.167h6.334l36.615,36.615
		c1.562,1.562,3.609,2.343,5.657,2.343s4.095-0.781,5.657-2.343c3.125-3.124,3.125-8.189,0-11.313l-25.302-25.302h131.039V368.25z"
		/>
	<path d="M348.072,272.167c-6.617,0-12,5.383-12,12s5.383,12,12,12s12-5.383,12-12S354.688,272.167,348.072,272.167z
		 M348.072,288.167c-2.206,0-4-1.794-4-4s1.794-4,4-4s4,1.794,4,4S350.277,288.167,348.072,288.167z"/>
	<path d="M348.072,320.25c-6.617,0-12,5.383-12,12s5.383,12,12,12s12-5.383,12-12S354.688,320.25,348.072,320.25z M348.072,336.25
		c-2.206,0-4-1.794-4-4s1.794-4,4-4s4,1.794,4,4S350.277,336.25,348.072,336.25z"/>
	<path d="M324.03,296.208c-6.617,0-12,5.383-12,12s5.383,12,12,12s12-5.383,12-12S330.647,296.208,324.03,296.208z M324.03,312.208
		c-2.206,0-4-1.794-4-4s1.794-4,4-4s4,1.794,4,4S326.236,312.208,324.03,312.208z"/>
	<path d="M372.113,296.208c-6.617,0-12,5.383-12,12s5.383,12,12,12s12-5.383,12-12S378.73,296.208,372.113,296.208z
		 M372.113,312.208c-2.206,0-4-1.794-4-4s1.794-4,4-4c2.206,0,4,1.794,4,4S374.319,312.208,372.113,312.208z"/>
</g>
<g>
</g>
<g>
</g>
<g>
</g>
<g>
</g>
<g>
</g>
<g>
</g>
<g>
</g>
<g>
</g>
<g>
</g>
<g>
</g>
<g>
</g>
<g>
</g>
<g>
</g>
<g>
</g>
<g>
</g>
</svg>
