<?xml version="1.0" encoding="iso-8859-1"?>
<!-- Generator: Adobe Illustrator 17.1.0, SVG Export Plug-In . SVG Version: 6.00 Build 0)  -->
<!DOCTYPE svg PUBLIC "-//W3C//DTD SVG 1.1//EN" "http://www.w3.org/Graphics/SVG/1.1/DTD/svg11.dtd">
<svg version="1.1" id="Capa_1" xmlns="http://www.w3.org/2000/svg" xmlns:xlink="http://www.w3.org/1999/xlink" x="0px" y="0px"
	 viewBox="0 0 407.989 407.989" style="enable-background:new 0 0 407.989 407.989;" xml:space="preserve">
<g>
	<path d="M275.931,183.844H60.264c-11.086,0-20.106,9.02-20.106,20.106v137.306c0,11.086,9.02,20.106,20.106,20.106h215.667
		c11.086,0,20.106-9.02,20.106-20.106V203.95C296.037,192.863,287.017,183.844,275.931,183.844z M280.037,341.256
		c0,2.226-1.88,4.106-4.106,4.106h-99.956v-41.456c0-4.418-3.582-8-8-8s-8,3.582-8,8v41.456H60.264c-2.226,0-4.106-1.88-4.106-4.106
		v-61.129h197.53c4.418,0,8-3.582,8-8s-3.582-8-8-8H56.158v-24.22h199.911c4.418,0,8-3.582,8-8s-3.582-8-8-8H56.158V203.95
		c0-2.226,1.88-4.106,4.106-4.106h215.667c2.226,0,4.106,1.88,4.106,4.106V341.256z"/>
	<path d="M406.629,212.209c0.074-0.11,0.138-0.225,0.205-0.338c0.066-0.11,0.135-0.218,0.196-0.332
		c0.063-0.118,0.117-0.24,0.174-0.361c0.055-0.115,0.112-0.229,0.161-0.347c0.049-0.119,0.089-0.24,0.132-0.361
		c0.045-0.126,0.093-0.25,0.132-0.378c0.037-0.122,0.064-0.245,0.095-0.368c0.033-0.13,0.069-0.258,0.095-0.391
		c0.029-0.144,0.046-0.29,0.066-0.435c0.016-0.113,0.038-0.224,0.049-0.338c0.026-0.264,0.04-0.528,0.04-0.793v-39.779
		c0-0.265-0.014-0.529-0.04-0.793c-0.011-0.114-0.033-0.225-0.049-0.338c-0.021-0.145-0.038-0.291-0.066-0.435
		c-0.026-0.132-0.063-0.261-0.095-0.391c-0.031-0.123-0.058-0.246-0.095-0.368c-0.039-0.129-0.087-0.252-0.132-0.378
		c-0.043-0.121-0.083-0.242-0.132-0.361c-0.049-0.118-0.107-0.232-0.161-0.347c-0.057-0.121-0.111-0.243-0.174-0.361
		c-0.061-0.114-0.13-0.222-0.196-0.332c-0.068-0.113-0.132-0.228-0.205-0.338c-0.083-0.124-0.175-0.241-0.265-0.361
		c-0.067-0.089-0.129-0.181-0.201-0.268c-0.335-0.409-0.71-0.784-1.119-1.119c-0.084-0.069-0.172-0.128-0.258-0.193
		c-0.123-0.093-0.243-0.187-0.371-0.273c-0.107-0.072-0.219-0.133-0.328-0.199c-0.114-0.068-0.225-0.14-0.343-0.203
		c-0.113-0.061-0.23-0.112-0.346-0.167c-0.121-0.057-0.24-0.117-0.364-0.169c-0.112-0.046-0.226-0.083-0.339-0.124
		c-0.133-0.048-0.264-0.099-0.4-0.14c-0.113-0.034-0.227-0.059-0.341-0.088c-0.139-0.035-0.276-0.074-0.418-0.102
		c-0.13-0.026-0.261-0.041-0.392-0.06c-0.127-0.019-0.253-0.043-0.382-0.055c-0.232-0.023-0.465-0.033-0.698-0.035
		c-0.03,0-0.059-0.004-0.089-0.004s-0.059,0.004-0.089,0.004c-0.233,0.003-0.466,0.012-0.698,0.035
		c-0.129,0.013-0.255,0.036-0.382,0.055c-0.131,0.019-0.262,0.034-0.392,0.06c-0.142,0.028-0.279,0.067-0.418,0.102
		c-0.114,0.029-0.228,0.054-0.341,0.088c-0.136,0.041-0.267,0.092-0.4,0.14c-0.113,0.041-0.227,0.078-0.339,0.124
		c-0.124,0.051-0.243,0.112-0.364,0.169c-0.116,0.055-0.232,0.106-0.346,0.167c-0.117,0.063-0.229,0.134-0.343,0.203
		c-0.11,0.066-0.221,0.128-0.328,0.199c-0.128,0.086-0.249,0.18-0.371,0.273c-0.086,0.065-0.174,0.124-0.258,0.193
		c-0.206,0.169-0.404,0.347-0.592,0.535l-58.378,58.378v-94.003c0-21.374-17.388-38.762-38.762-38.762h-1.161V71.745
		c0-4.418-3.582-8-8-8H143.912c-4.418,0-8,3.582-8,8v16.201h-55.79v-8.201h34.037c7.718,0,13.997-6.139,13.997-13.684V13.684
		C128.156,6.139,121.877,0,114.159,0H30.086C22.368,0,16.09,6.139,16.09,13.684v52.377c0,7.545,6.279,13.684,13.996,13.684h34.037
		v8.242c-0.243-0.022-0.488-0.042-0.737-0.042h-24.61c-21.374,0-38.762,17.388-38.762,38.762v273.282c0,4.418,3.582,8,8,8h319.923
		c4.418,0,8-3.582,8-8V283.121l69.691-69.691c0.188-0.188,0.366-0.385,0.535-0.591c0.072-0.087,0.133-0.179,0.201-0.268
		C406.454,212.451,406.546,212.334,406.629,212.209z M32.09,16h80.066v47.745H32.09V16z M151.912,79.745h128.102v8.201H151.912
		V79.745z M38.776,103.946h24.61c0.249,0,0.493-0.019,0.737-0.042v15.752c0,4.418,3.582,8,8,8s8-3.582,8-8v-15.71h63.79h144.102
		h9.161c12.551,0,22.762,10.211,22.762,22.762v9.199H16.014v-9.199C16.014,114.157,26.225,103.946,38.776,103.946z M16.014,391.989
		V151.906h303.923v88.115c0,0.002,0,0.003,0,0.005v39.779c0,0.002,0,0.003,0,0.005v112.179H16.014z M335.937,243.337l56.039-56.039
		v17.157l-56.039,56.039V243.337z"/>
</g>
<g>
</g>
<g>
</g>
<g>
</g>
<g>
</g>
<g>
</g>
<g>
</g>
<g>
</g>
<g>
</g>
<g>
</g>
<g>
</g>
<g>
</g>
<g>
</g>
<g>
</g>
<g>
</g>
<g>
</g>
</svg>
