<?xml version="1.0" encoding="iso-8859-1"?>
<!-- Generator: Adobe Illustrator 17.1.0, SVG Export Plug-In . SVG Version: 6.00 Build 0)  -->
<!DOCTYPE svg PUBLIC "-//W3C//DTD SVG 1.1//EN" "http://www.w3.org/Graphics/SVG/1.1/DTD/svg11.dtd">
<svg version="1.1" id="Capa_1" xmlns="http://www.w3.org/2000/svg" xmlns:xlink="http://www.w3.org/1999/xlink" x="0px" y="0px"
	 viewBox="0 0 424.129 424.129" style="enable-background:new 0 0 424.129 424.129;" xml:space="preserve">
<g>
	<path d="M421.171,62.636c-1.872-1.519-4.329-2.109-6.688-1.617l-70.922,14.914L191.134,61.006
		c-20.281-20.211-48.24-32.724-79.067-32.724C50.273,28.281,0,78.554,0,140.348c0,44.553,26.136,83.115,63.879,101.166v106.834
		c0,15.002,10.38,27.62,24.333,31.065v8.435c0,4.418,3.582,8,8,8s8-3.582,8-8v-7.5h16c17.645,0,32-14.355,32-32V244.974
		c14.848-5.717,28.184-14.503,39.221-25.584l152.128-14.897l70.922,14.914c2.359,0.495,4.816-0.099,6.688-1.617
		c1.872-1.52,2.958-3.802,2.958-6.212V68.848C424.129,66.438,423.042,64.156,421.171,62.636z M136.213,348.348
		c0,8.822-7.178,16-16,16H95.879c-8.822,0-16-7.178-16-16V247.697c10.2,3.064,21.003,4.719,32.188,4.719
		c8.288,0,16.366-0.912,24.146-2.628V348.348z M112.067,236.415C59.095,236.415,16,193.32,16,140.348
		c0-52.971,43.095-96.066,96.067-96.066s96.067,43.096,96.067,96.066C208.134,193.32,165.039,236.415,112.067,236.415z
		 M408.129,201.72l-56.125-11.803v-57.569c0-4.418-3.582-8-8-8s-8,3.582-8,8v56.808l-130.35,12.765
		c11.672-17.682,18.479-38.846,18.479-61.573c0-22.851-6.88-44.122-18.67-61.862L336.004,91.27v9.745c0,4.418,3.582,8,8,8
		s8-3.582,8-8V90.508l56.125-11.803V201.72z"/>
	<path d="M176.504,132.348H47.629c-4.418,0-8,3.582-8,8s3.582,8,8,8h128.875c4.418,0,8-3.582,8-8S180.923,132.348,176.504,132.348z"
		/>
	<path d="M56.367,117.015h111.4c4.418,0,8-3.582,8-8s-3.582-8-8-8h-111.4c-4.418,0-8,3.582-8,8S51.948,117.015,56.367,117.015z"/>
	<path d="M104.004,84.448h16.125c4.418,0,8-3.582,8-8s-3.582-8-8-8h-16.125c-4.418,0-8,3.582-8,8S99.586,84.448,104.004,84.448z"/>
	<path d="M120.129,196.248h-16.125c-4.418,0-8,3.582-8,8s3.582,8,8,8h16.125c4.418,0,8-3.582,8-8S124.548,196.248,120.129,196.248z"
		/>
	<path d="M166.994,165.015H57.14c-4.418,0-8,3.582-8,8s3.582,8,8,8h109.854c4.418,0,8-3.582,8-8S171.413,165.015,166.994,165.015z"
		/>
</g>
<g>
</g>
<g>
</g>
<g>
</g>
<g>
</g>
<g>
</g>
<g>
</g>
<g>
</g>
<g>
</g>
<g>
</g>
<g>
</g>
<g>
</g>
<g>
</g>
<g>
</g>
<g>
</g>
<g>
</g>
</svg>
