<?xml version="1.0" encoding="iso-8859-1"?>
<!-- Generator: Adobe Illustrator 17.1.0, SVG Export Plug-In . SVG Version: 6.00 Build 0)  -->
<!DOCTYPE svg PUBLIC "-//W3C//DTD SVG 1.1//EN" "http://www.w3.org/Graphics/SVG/1.1/DTD/svg11.dtd">
<svg version="1.1" id="Capa_1" xmlns="http://www.w3.org/2000/svg" xmlns:xlink="http://www.w3.org/1999/xlink" x="0px" y="0px"
	 viewBox="0 0 424.125 424.125" style="enable-background:new 0 0 424.125 424.125;" xml:space="preserve">
<g>
	<path d="M392.125,71.896H32c-17.645,0-32,14.355-32,32v240.334c0,4.418,3.582,8,8,8h408.125c4.418,0,8-3.582,8-8V103.896
		C424.125,86.251,409.77,71.896,392.125,71.896z M320.063,288.229c-8.822,0-16-7.178-16-16V151.896c0-8.822,7.178-16,16-16V288.229z
		 M16,103.896c0-8.822,7.178-16,16-16h288.063v32c-17.645,0-32,14.355-32,32v120.334c0,17.645,14.355,32,32,32v32H16V103.896z
		 M408.125,336.229h-72.063V87.896h56.063c8.822,0,16,7.178,16,16V336.229z"/>
	<path d="M240.729,119.896h-161c-17.645,0-32,14.355-32,32v120.334c0,17.645,14.355,32,32,32h161c17.645,0,32-14.355,32-32V151.896
		C272.729,134.251,258.374,119.896,240.729,119.896z M63.729,272.229V151.896c0-8.822,7.178-16,16-16h5.181l36.991,36.991
		c1.562,1.562,3.609,2.343,5.657,2.343s4.095-0.781,5.657-2.343c3.125-3.125,3.125-8.189,0-11.314l-25.677-25.677h133.191
		c8.822,0,16,7.178,16,16v120.334c0,3.611-1.217,6.935-3.242,9.615l-88.273-88.272c-3.124-3.123-8.189-3.123-11.313,0
		c-3.125,3.125-3.125,8.189,0,11.314l83.343,83.343H79.729C70.907,288.229,63.729,281.052,63.729,272.229z"/>
	<path d="M352.063,168.229h39.875c4.418,0,8-3.582,8-8v-32c0-4.418-3.582-8-8-8h-39.875c-4.418,0-8,3.582-8,8v32
		C344.063,164.647,347.644,168.229,352.063,168.229z M360.063,136.229h23.875v16h-23.875V136.229z"/>
	<path d="M352.063,199.896h8.208c4.418,0,8-3.582,8-8s-3.582-8-8-8h-8.208c-4.418,0-8,3.582-8,8S347.644,199.896,352.063,199.896z"
		/>
	<path d="M352.063,231.896h8.208c4.418,0,8-3.582,8-8s-3.582-8-8-8h-8.208c-4.418,0-8,3.582-8,8S347.644,231.896,352.063,231.896z"
		/>
	<path d="M392,183.896h-8.208c-4.418,0-8,3.582-8,8s3.582,8,8,8H392c4.418,0,8-3.582,8-8S396.418,183.896,392,183.896z"/>
	<path d="M392,215.896h-8.208c-4.418,0-8,3.582-8,8s3.582,8,8,8H392c4.418,0,8-3.582,8-8S396.418,215.896,392,215.896z"/>
	<path d="M392,260.171c-4.418,0-8,3.582-8,8c0,6.617-5.383,12-12,12s-12-5.383-12-12s5.383-12,12-12c4.418,0,8-3.582,8-8
		s-3.582-8-8-8c-15.439,0-28,12.561-28,28s12.561,28,28,28s28-12.561,28-28C400,263.753,396.418,260.171,392,260.171z"/>
</g>
<g>
</g>
<g>
</g>
<g>
</g>
<g>
</g>
<g>
</g>
<g>
</g>
<g>
</g>
<g>
</g>
<g>
</g>
<g>
</g>
<g>
</g>
<g>
</g>
<g>
</g>
<g>
</g>
<g>
</g>
</svg>
