<?xml version="1.0" encoding="iso-8859-1"?>
<!-- Generator: Adobe Illustrator 17.1.0, SVG Export Plug-In . SVG Version: 6.00 Build 0)  -->
<!DOCTYPE svg PUBLIC "-//W3C//DTD SVG 1.1//EN" "http://www.w3.org/Graphics/SVG/1.1/DTD/svg11.dtd">
<svg version="1.1" id="Capa_1" xmlns="http://www.w3.org/2000/svg" xmlns:xlink="http://www.w3.org/1999/xlink" x="0px" y="0px"
	 viewBox="0 0 416.25 416.25" style="enable-background:new 0 0 416.25 416.25;" xml:space="preserve">
<g>
	<path d="M379.247,151.958h-23.647c-3.554-13.6-15.943-23.667-30.641-23.667c-14.698,0-27.088,10.067-30.641,23.667h-10.185
		c-3.554-13.6-15.943-23.667-30.641-23.667c-14.698,0-27.087,10.067-30.641,23.667H68.125V8c0-4.418-3.582-8-8-8s-8,3.582-8,8
		v143.958H37.002c-18.192,0-32.992,15.196-32.992,33.875v196.54c0,18.68,14.8,33.877,32.992,33.877h342.245
		c18.192,0,32.993-15.197,32.993-33.877v-196.54C412.24,167.154,397.439,151.958,379.247,151.958z M324.958,144.291
		c5.714,0,10.709,3.085,13.445,7.667h-26.891C314.25,147.376,319.244,144.291,324.958,144.291z M253.491,144.291
		c5.714,0,10.709,3.085,13.446,7.667h-26.891C242.783,147.376,247.777,144.291,253.491,144.291z M396.24,382.373
		c0,9.857-7.623,17.877-16.993,17.877H37.002c-9.369,0-16.992-8.02-16.992-17.877v-196.54c0-9.856,7.623-17.875,16.992-17.875
		h342.245c9.37,0,16.993,8.019,16.993,17.875V382.373z"/>
	<path d="M243.19,264.031h-70.82c-4.418,0-8,3.582-8,8s3.582,8,8,8h70.82c4.418,0,8-3.582,8-8S247.608,264.031,243.19,264.031z"/>
	<path d="M243.19,320.156h-70.82c-4.418,0-8,3.582-8,8s3.582,8,8,8h70.82c4.418,0,8-3.582,8-8S247.608,320.156,243.19,320.156z"/>
	<path d="M356,292.01c-4.418,0-8,3.582-8,8c0,6.53-5.313,11.844-11.844,11.844s-11.844-5.313-11.844-11.844
		s5.313-11.844,11.844-11.844c4.418,0,8-3.582,8-8s-3.582-8-8-8c-15.353,0-27.844,12.49-27.844,27.844s12.491,27.844,27.844,27.844
		S364,315.363,364,300.01C364,295.592,360.418,292.01,356,292.01z"/>
	<path d="M99.813,292.01c-4.418,0-8,3.582-8,8c0,6.53-5.313,11.844-11.844,11.844s-11.844-5.313-11.844-11.844
		s5.313-11.844,11.844-11.844c4.418,0,8-3.582,8-8s-3.582-8-8-8c-15.353,0-27.844,12.49-27.844,27.844s12.491,27.844,27.844,27.844
		s27.844-12.49,27.844-27.844C107.813,295.592,104.231,292.01,99.813,292.01z"/>
	<path d="M208.125,224.015c-41.902,0-75.992,34.09-75.992,75.992c0,41.901,34.09,75.99,75.992,75.99
		c41.902,0,75.991-34.089,75.991-75.99C284.117,258.104,250.027,224.015,208.125,224.015z M208.125,359.997
		c-33.08,0-59.992-26.911-59.992-59.99c0-33.08,26.913-59.992,59.992-59.992c33.079,0,59.991,26.912,59.991,59.992
		C268.117,333.086,241.205,359.997,208.125,359.997z"/>
	<path d="M372.292,183.874H44.125c-4.418,0-8,3.582-8,8s3.582,8,8,8h328.167c4.418,0,8-3.582,8-8S376.71,183.874,372.292,183.874z"
		/>
</g>
<g>
</g>
<g>
</g>
<g>
</g>
<g>
</g>
<g>
</g>
<g>
</g>
<g>
</g>
<g>
</g>
<g>
</g>
<g>
</g>
<g>
</g>
<g>
</g>
<g>
</g>
<g>
</g>
<g>
</g>
</svg>
