<?xml version="1.0" encoding="iso-8859-1"?>
<!-- Generator: Adobe Illustrator 17.1.0, SVG Export Plug-In . SVG Version: 6.00 Build 0)  -->
<!DOCTYPE svg PUBLIC "-//W3C//DTD SVG 1.1//EN" "http://www.w3.org/Graphics/SVG/1.1/DTD/svg11.dtd">
<svg version="1.1" id="Capa_1" xmlns="http://www.w3.org/2000/svg" xmlns:xlink="http://www.w3.org/1999/xlink" x="0px" y="0px"
	 viewBox="0 0 447.971 447.971" style="enable-background:new 0 0 447.971 447.971;" xml:space="preserve">
<g>
	<path d="M363.904,352.892V72.304c0-4.418-3.582-8-8-8H91.985c-4.418,0-8,3.582-8,8v16.668c0,0.003,0,0.007,0,0.01v278.884
		c0,4.418,3.582,8,8,8h263.919c4.418,0,8-3.582,8-8v-14.964C363.904,352.899,363.904,352.895,363.904,352.892z M99.985,359.867
		V108.292l25.343,25.343c1.563,1.562,3.609,2.343,5.657,2.343s4.095-0.781,5.657-2.343c3.124-3.124,3.124-8.189,0-11.313
		L99.985,85.664v-5.359h247.919v253.279L168.643,154.321c-3.123-3.124-8.188-3.125-11.314,0c-3.124,3.125-3.124,8.19,0,11.314
		l190.576,190.577v3.656H99.985z"/>
	<path d="M387.985,28.688C387.985,12.869,375.11,0,359.284,0H88.564C72.746,0,59.877,12.869,59.877,28.69l0.108,390.586
		c0,15.822,12.875,28.694,28.7,28.694h270.721c15.818,0,28.688-12.872,28.688-28.697L387.985,28.688z M359.406,431.971H88.686
		c-7.003,0-12.7-5.694-12.7-12.697L75.877,28.688C75.877,21.691,81.568,16,88.564,16h270.72c7.004,0,12.701,5.691,12.701,12.69
		l0.108,390.586C372.094,426.276,366.402,431.971,359.406,431.971z"/>
	<path d="M203.967,48.138h39.956c4.418,0,8-3.582,8-8c0-4.418-3.582-8-8-8h-39.956c-4.418,0-8,3.582-8,8
		C195.967,44.556,199.549,48.138,203.967,48.138z"/>
	<path d="M179.855,48.135c2.109,0,4.17-0.85,5.66-2.34c1.489-1.49,2.34-3.55,2.34-5.66c0-2.1-0.851-4.17-2.34-5.65
		c-1.49-1.49-3.551-2.35-5.66-2.35c-2.101,0-4.16,0.86-5.65,2.35c-1.49,1.48-2.35,3.55-2.35,5.65c0,2.11,0.859,4.17,2.35,5.66
		C175.695,47.285,177.755,48.135,179.855,48.135z"/>
	<path d="M223.95,384.509c-10.95,0-19.858,8.905-19.858,19.85c0,10.948,8.908,19.855,19.858,19.855
		c10.943,0,19.847-8.907,19.847-19.855C243.797,393.414,234.894,384.509,223.95,384.509z M223.95,408.215
		c-2.128,0-3.858-1.729-3.858-3.855c0-2.123,1.73-3.85,3.858-3.85c2.121,0,3.847,1.727,3.847,3.85
		C227.797,406.485,226.071,408.215,223.95,408.215z"/>
</g>
<g>
</g>
<g>
</g>
<g>
</g>
<g>
</g>
<g>
</g>
<g>
</g>
<g>
</g>
<g>
</g>
<g>
</g>
<g>
</g>
<g>
</g>
<g>
</g>
<g>
</g>
<g>
</g>
<g>
</g>
</svg>
