<?xml version="1.0" encoding="iso-8859-1"?>
<!-- Generator: Adobe Illustrator 17.1.0, SVG Export Plug-In . SVG Version: 6.00 Build 0)  -->
<!DOCTYPE svg PUBLIC "-//W3C//DTD SVG 1.1//EN" "http://www.w3.org/Graphics/SVG/1.1/DTD/svg11.dtd">
<svg version="1.1" id="Capa_1" xmlns="http://www.w3.org/2000/svg" xmlns:xlink="http://www.w3.org/1999/xlink" x="0px" y="0px"
	 viewBox="0 0 432.333 432.333" style="enable-background:new 0 0 432.333 432.333;" xml:space="preserve">
<g>
	<path d="M355.833,224.917h-39.5V40c0-22.056-17.944-40-40-40H156c-22.056,0-40,17.944-40,40v184.917H76.5
		c-17.645,0-32,14.355-32,32v103.542v0.208v39.667c0,17.645,14.355,32,32,32h279.334c17.645,0,32-14.355,32-32v-39.667v-0.208
		V256.917C387.833,239.271,373.478,224.917,355.833,224.917z M132,40c0-13.233,10.766-24,24-24h120.334c13.233,0,24,10.767,24,24
		v272.167H132V40z M355.833,416.333H76.5c-8.822,0-16-7.178-16-16v-11.971c4.711,2.732,10.173,4.305,16,4.305h247.834
		c4.418,0,8-3.582,8-8s-3.582-8-8-8H76.5c-8.822,0-16-7.178-16-16v-0.208V256.917c0-8.822,7.178-16,16-16H116v79.25
		c0,4.418,3.582,8,8,8h184.334c4.418,0,8-3.582,8-8v-79.25h39.5c8.822,0,16,7.178,16,16v103.542v0.208c0,8.822-7.178,16-16,16
		c-4.418,0-8,3.582-8,8s3.582,8,8,8c5.826,0,11.289-1.573,16-4.305v11.972C371.833,409.155,364.656,416.333,355.833,416.333z"/>
	<path d="M156.5,144.458h119.334c4.418,0,8-3.582,8-8V80.333c0-4.418-3.582-8-8-8H156.5c-4.418,0-8,3.582-8,8v56.125
		C148.5,140.876,152.081,144.458,156.5,144.458z M164.5,88.333h103.334v40.125H164.5V88.333z"/>
	<path d="M164.5,200.868h8.011c8.822,0,16-7.178,16-16v-8.035c0-8.822-7.178-16-16-16H164.5c-8.822,0-16,7.178-16,16v8.035
		C148.5,193.69,155.677,200.868,164.5,200.868z M164.5,176.833h8.011l0.001,8.035H164.5V176.833z"/>
	<path d="M220.171,160.833h-8.01c-8.822,0-16,7.178-16,16v8.035c0,8.822,7.178,16,16,16h8.01c8.822,0,16-7.178,16-16v-8.035
		C236.171,168.011,228.994,160.833,220.171,160.833z M212.161,184.868v-8.035h8.01l0.002,8.035H212.161z"/>
	<path d="M267.833,160.833h-8.011c-8.822,0-16,7.178-16,16v8.035c0,8.822,7.178,16,16,16h8.011c8.822,0,16-7.178,16-16v-8.035
		C283.833,168.011,276.656,160.833,267.833,160.833z M259.823,184.868v-8.035h8.011l0.002,8.035H259.823z"/>
	<path d="M164.5,248.868h8.011c8.822,0,16-7.178,16-16v-8.035c0-8.822-7.178-16-16-16H164.5c-8.822,0-16,7.178-16,16v8.035
		C148.5,241.69,155.677,248.868,164.5,248.868z M164.5,224.833h8.011l0.001,8.035H164.5V224.833z"/>
	<path d="M220.171,208.833h-8.01c-8.822,0-16,7.178-16,16v8.035c0,8.822,7.178,16,16,16h8.01c8.822,0,16-7.178,16-16v-8.035
		C236.171,216.011,228.994,208.833,220.171,208.833z M212.161,232.868v-8.035h8.01l0.002,8.035H212.161z"/>
	<path d="M267.833,208.833h-8.011c-8.822,0-16,7.178-16,16v8.035c0,8.822,7.178,16,16,16h8.011c8.822,0,16-7.178,16-16v-8.035
		C283.833,216.011,276.656,208.833,267.833,208.833z M259.823,232.868v-8.035h8.011l0.002,8.035H259.823z"/>
	<path d="M164.5,296.535h8.011c8.822,0,16-7.178,16-16V272.5c0-8.822-7.178-16-16-16H164.5c-8.822,0-16,7.178-16,16v8.035
		C148.5,289.357,155.677,296.535,164.5,296.535z M164.5,272.5h8.011l0.001,8.035H164.5V272.5z"/>
	<path d="M220.171,256.5h-8.01c-8.822,0-16,7.178-16,16v8.035c0,8.822,7.178,16,16,16h8.01c8.822,0,16-7.178,16-16V272.5
		C236.171,263.678,228.994,256.5,220.171,256.5z M212.161,280.535V272.5h8.01l0.002,8.035H212.161z"/>
	<path d="M267.833,256.5h-8.011c-8.822,0-16,7.178-16,16v8.035c0,8.822,7.178,16,16,16h8.011c8.822,0,16-7.178,16-16V272.5
		C283.833,263.678,276.656,256.5,267.833,256.5z M259.823,280.535V272.5h8.011l0.002,8.035H259.823z"/>
	<path d="M195.833,56.667H236.5c4.418,0,8-3.582,8-8s-3.582-8-8-8h-40.667c-4.418,0-8,3.582-8,8S191.415,56.667,195.833,56.667z"/>
</g>
<g>
</g>
<g>
</g>
<g>
</g>
<g>
</g>
<g>
</g>
<g>
</g>
<g>
</g>
<g>
</g>
<g>
</g>
<g>
</g>
<g>
</g>
<g>
</g>
<g>
</g>
<g>
</g>
<g>
</g>
</svg>
