<?xml version="1.0" encoding="iso-8859-1"?>
<!-- Generator: Adobe Illustrator 17.1.0, SVG Export Plug-In . SVG Version: 6.00 Build 0)  -->
<!DOCTYPE svg PUBLIC "-//W3C//DTD SVG 1.1//EN" "http://www.w3.org/Graphics/SVG/1.1/DTD/svg11.dtd">
<svg version="1.1" id="Capa_1" xmlns="http://www.w3.org/2000/svg" xmlns:xlink="http://www.w3.org/1999/xlink" x="0px" y="0px"
	 viewBox="0 0 407.958 407.958" style="enable-background:new 0 0 407.958 407.958;" xml:space="preserve">
<g>
	<g>
		<path d="M84.979,307.916H33.153C14.873,307.916,0,293.04,0,274.756l0.197-125.688c0-18.274,14.878-33.151,33.166-33.151h27.116
			c4.418,0,8,3.582,8,8s-3.582,8-8,8H33.363c-9.465,0-17.166,7.7-17.166,17.164L16,274.768c0,9.45,7.695,17.148,17.153,17.148
			h51.826c4.418,0,8,3.582,8,8S89.397,307.916,84.979,307.916z"/>
	</g>
	<g>
		<path d="M374.607,307.916h-53.961c-4.418,0-8-3.582-8-8s3.582-8,8-8h53.961c9.458,0,17.153-7.698,17.153-17.161l0.197-125.688
			c0-9.452-7.695-17.151-17.153-17.151h-29.43c-4.418,0-8-3.582-8-8s3.582-8,8-8h29.43c18.281,0,33.153,14.877,33.153,33.164
			l-0.197,125.688C407.76,293.04,392.888,307.916,374.607,307.916z"/>
	</g>
	<g>
		<path d="M359.906,172H47.854c-4.418,0-8-3.582-8-8s3.582-8,8-8h312.052c4.418,0,8,3.582,8,8S364.325,172,359.906,172z"/>
	</g>
	<g>
		<path d="M64.042,170.146c-4.418,0-8-3.582-8-8V83.96c0-4.418,3.582-8,8-8h23.101c4.418,0,8,3.582,8,8s-3.582,8-8,8H72.042v70.187
			C72.042,166.565,68.46,170.146,64.042,170.146z"/>
	</g>
	<g>
		<path d="M343.854,170.242c-4.418,0-8-3.582-8-8V92.056h-14.582c-4.418,0-8-3.582-8-8s3.582-8,8-8h22.582c4.418,0,8,3.582,8,8
			v78.187C351.854,166.661,348.272,170.242,343.854,170.242z"/>
	</g>
	<g>
		<path d="M87.979,170.763c-4.418,0-8-3.582-8-8V44.041c0-4.418,3.582-8,8-8h231.906c4.418,0,8,3.582,8,8v111.893
			c0,4.418-3.582,8-8,8s-8-3.582-8-8V52.041H95.979v110.722C95.979,167.182,92.397,170.763,87.979,170.763z"/>
	</g>
	<g>
		<path d="M319.979,371.916H88.062c-4.418,0-8-3.582-8-8V227.791c0-4.418,3.582-8,8-8h231.917c4.418,0,8,3.582,8,8v136.125
			C327.979,368.335,324.397,371.916,319.979,371.916z M96.062,355.916h215.917V235.791H96.062V355.916z"/>
	</g>
	<g>
		<path d="M47.849,204.169c-2.1,0-4.16-0.86-5.65-2.35c-1.49-1.48-2.35-3.55-2.35-5.65c0-2.11,0.86-4.17,2.35-5.66
			c1.49-1.49,3.55-2.34,5.65-2.34c2.11,0,4.17,0.85,5.66,2.34c1.49,1.49,2.34,3.55,2.34,5.66c0,2.1-0.85,4.17-2.34,5.65
			C52.019,203.309,49.959,204.169,47.849,204.169z"/>
	</g>
	<g>
		<path d="M343.949,203.919c-2.11,0-4.17-0.86-5.66-2.35c-1.49-1.48-2.34-3.55-2.34-5.65c0-2.11,0.85-4.17,2.34-5.66
			c1.49-1.49,3.55-2.34,5.66-2.34c2.11,0,4.17,0.85,5.65,2.34c1.49,1.49,2.35,3.55,2.35,5.66c0,2.1-0.86,4.17-2.35,5.65
			C348.119,203.059,346.049,203.919,343.949,203.919z"/>
	</g>
	<g>
		<path d="M279.976,299.841H127.907c-4.418,0-8-3.582-8-8s3.582-8,8-8h152.069c4.418,0,8,3.582,8,8S284.395,299.841,279.976,299.841
			z"/>
	</g>
	<g>
		<path d="M279.976,331.791h-15.997c-4.418,0-8-3.582-8-8s3.582-8,8-8h15.997c4.418,0,8,3.582,8,8S284.395,331.791,279.976,331.791z
			"/>
	</g>
	<g>
		<path d="M231.812,331.791H127.907c-4.418,0-8-3.582-8-8s3.582-8,8-8h103.905c4.418,0,8,3.582,8,8S236.23,331.791,231.812,331.791z
			"/>
	</g>
	<g>
		<path d="M191.979,267.891h-64.072c-4.418,0-8-3.582-8-8s3.582-8,8-8h64.072c4.418,0,8,3.582,8,8S196.397,267.891,191.979,267.891z
			"/>
	</g>
	<g>
		<path d="M279.976,267.891h-55.831c-4.418,0-8-3.582-8-8s3.582-8,8-8h55.831c4.418,0,8,3.582,8,8S284.395,267.891,279.976,267.891z
			"/>
	</g>
	<g>
		<path d="M319.979,204.166h-32c-4.418,0-8-3.582-8-8s3.582-8,8-8h32c4.418,0,8,3.582,8,8S324.397,204.166,319.979,204.166z"/>
	</g>
</g>
<g>
</g>
<g>
</g>
<g>
</g>
<g>
</g>
<g>
</g>
<g>
</g>
<g>
</g>
<g>
</g>
<g>
</g>
<g>
</g>
<g>
</g>
<g>
</g>
<g>
</g>
<g>
</g>
<g>
</g>
</svg>
