<?xml version="1.0" encoding="iso-8859-1"?>
<!-- Generator: Adobe Illustrator 17.1.0, SVG Export Plug-In . SVG Version: 6.00 Build 0)  -->
<!DOCTYPE svg PUBLIC "-//W3C//DTD SVG 1.1//EN" "http://www.w3.org/Graphics/SVG/1.1/DTD/svg11.dtd">
<svg version="1.1" id="Capa_1" xmlns="http://www.w3.org/2000/svg" xmlns:xlink="http://www.w3.org/1999/xlink" x="0px" y="0px"
	 viewBox="0 0 407.623 407.623" style="enable-background:new 0 0 407.623 407.623;" xml:space="preserve">
<g>
	<path d="M407.623,153.268c0-23.47-12.109-44.925-31.904-57.087V50.436c0-15.975-12.108-28.021-28.165-28.021
		c-3.29,0-6.611,0.518-9.9,1.549L182.614,73.22H85.813c-21.28,0-40.081,10.815-51.2,27.239c-0.003,0-0.006,0-0.009,0h-4.05
		C13.707,100.458,0,114.165,0,131.013v44.171c0,16.848,13.707,30.554,30.555,30.554h3.934
		c11.102,16.526,29.963,27.424,51.325,27.424h25.829v123.342c0,15.827,12.882,28.704,28.717,28.704h22.573
		c15.835,0,28.717-12.876,28.717-28.704v-120.48l146.027,46.276c3.264,1.026,6.589,1.546,9.885,1.546h0.001
		c7.548,0,14.561-2.725,19.747-7.672c5.423-5.174,8.409-12.402,8.409-20.354v-45.496
		C395.499,198.172,407.623,176.684,407.623,153.268z M16,175.184v-44.171c0-6.694,4.548-12.331,10.712-14.023
		c-1.745,5.709-2.691,11.763-2.691,18.035v36.346c0,6.194,0.927,12.175,2.631,17.821C20.519,187.48,16,181.856,16,175.184z
		 M40.021,171.371v-36.346c0-25.257,20.542-45.805,45.792-45.805h90.041v127.942H85.813
		C60.563,217.163,40.021,196.621,40.021,171.371z M162.933,369.208h-22.573c-7.012,0-12.717-5.699-12.717-12.704V233.163h48.007
		v123.342C175.649,363.51,169.944,369.208,162.933,369.208z M359.719,255.821c0,3.586-1.194,6.621-3.454,8.777
		c-2.196,2.095-5.286,3.249-8.702,3.249c0,0,0,0-0.001,0c-1.666,0-3.378-0.272-5.069-0.804l-150.638-47.738v-100.06l107.088-33.998
		c4.211-1.337,6.541-5.834,5.204-10.046c-1.336-4.21-5.838-6.54-10.046-5.204l-102.246,32.461V87.073l150.613-47.851
		c1.709-0.536,3.421-0.807,5.086-0.807c6.056,0,12.165,3.717,12.165,12.021V255.821z M375.719,190.271v-74.033
		c10.031,9.491,15.904,22.772,15.904,37.03C391.623,167.491,385.746,180.781,375.719,190.271z"/>
	<path d="M143.771,145.298H71.938c-4.418,0-8,3.582-8,8s3.582,8,8,8h71.834c4.418,0,8-3.582,8-8S148.189,145.298,143.771,145.298z"
		/>
	<path d="M71.938,129.333h71.834c4.418,0,8-3.582,8-8s-3.582-8-8-8H71.938c-4.418,0-8,3.582-8,8S67.52,129.333,71.938,129.333z"/>
	<path d="M143.771,177.25H71.938c-4.418,0-8,3.582-8,8s3.582,8,8,8h71.834c4.418,0,8-3.582,8-8S148.189,177.25,143.771,177.25z"/>
	<path d="M333.545,57.146l-15.44,5.026c-4.201,1.368-6.498,5.882-5.131,10.083c1.101,3.378,4.235,5.525,7.605,5.525
		c0.821,0,1.655-0.127,2.479-0.395l15.44-5.026c4.201-1.368,6.498-5.882,5.131-10.083C342.26,58.075,337.744,55.778,333.545,57.146z
		"/>
</g>
<g>
</g>
<g>
</g>
<g>
</g>
<g>
</g>
<g>
</g>
<g>
</g>
<g>
</g>
<g>
</g>
<g>
</g>
<g>
</g>
<g>
</g>
<g>
</g>
<g>
</g>
<g>
</g>
<g>
</g>
</svg>
