<?xml version="1.0" encoding="iso-8859-1"?>
<!-- Generator: Adobe Illustrator 17.1.0, SVG Export Plug-In . SVG Version: 6.00 Build 0)  -->
<!DOCTYPE svg PUBLIC "-//W3C//DTD SVG 1.1//EN" "http://www.w3.org/Graphics/SVG/1.1/DTD/svg11.dtd">
<svg version="1.1" id="Capa_1" xmlns="http://www.w3.org/2000/svg" xmlns:xlink="http://www.w3.org/1999/xlink" x="0px" y="0px"
	 viewBox="0 0 391.768 391.768" style="enable-background:new 0 0 391.768 391.768;" xml:space="preserve">
<g>
	<path d="M195.883,200.02c-44.018,0-79.829,35.811-79.829,79.829s35.811,79.829,79.829,79.829c44.019,0,79.83-35.811,79.83-79.829
		S239.902,200.02,195.883,200.02z M195.883,343.678c-35.195,0-63.829-28.634-63.829-63.829s28.634-63.829,63.829-63.829
		c35.196,0,63.83,28.634,63.83,63.829S231.079,343.678,195.883,343.678z"/>
	<path d="M331.167,168.101l-9.394-21.767c-0.047-0.109-0.097-0.217-0.148-0.324c-4.944-10.183-17.377-18.159-28.306-18.159h-25.25
		v-16h43.095c11.389,0,20.655-9.428,20.655-21.018V21.018C331.819,9.428,322.554,0,311.165,0H176.6
		c-11.389,0-20.655,9.428-20.655,21.018v69.815c0,11.589,9.266,21.018,20.655,21.018h43.47v16h-24.186
		c-10.929,0-23.362,7.977-28.305,18.16c-0.052,0.107-0.102,0.215-0.148,0.324l-9.331,21.621h-26.35v-1.797
		c0-11.957-9.733-21.685-21.696-21.685H97.551c-11.957,0-21.685,9.728-21.685,21.685v1.797H63.471
		c-15.212,0-27.589,12.376-27.589,27.589v168.634c0,15.212,12.376,27.589,27.589,27.589h264.825c15.213,0,27.59-12.376,27.59-27.589
		V195.107C355.886,181.089,345.036,169.519,331.167,168.101z M171.944,90.833V21.018c0-2.72,2.132-5.018,4.655-5.018h134.565
		c2.523,0,4.655,2.298,4.655,5.018v69.815c0,2.72-2.132,5.018-4.655,5.018H176.6C174.076,95.851,171.944,93.553,171.944,90.833z
		 M236.069,111.851h16v16h-16V111.851z M182.04,152.861c2.345-4.65,9.022-9.01,13.844-9.01h97.436c4.821,0,11.499,4.36,13.845,9.011
		l6.514,15.094H175.526L182.04,152.861z M91.866,166.158c0-3.082,2.604-5.685,5.685-5.685h12.502c3.087,0,5.696,2.604,5.696,5.685
		v1.797H91.866V166.158z M339.886,364.179c0,6.39-5.199,11.589-11.59,11.589h-12.477v-168c0-4.418-3.582-8-8-8s-8,3.582-8,8v168
		H63.471c-6.39,0-11.589-5.199-11.589-11.589V195.544c0-6.391,5.199-11.589,11.589-11.589h61.703h38.186h162.483h1.476h0.977
		c6.499,0,11.59,4.899,11.59,11.152V364.179z"/>
	<path d="M83.866,191.778c-13.228,0-23.989,10.762-23.989,23.989s10.762,23.989,23.989,23.989s23.989-10.761,23.989-23.989
		S97.094,191.778,83.866,191.778z M83.866,223.756c-4.405,0-7.989-3.584-7.989-7.989c0-4.405,3.584-7.989,7.989-7.989
		s7.989,3.584,7.989,7.989C91.855,220.172,88.271,223.756,83.866,223.756z"/>
	<path d="M187.819,63.861h111.586c4.418,0,8-3.582,8-8s-3.582-8-8-8H187.819c-4.418,0-8,3.582-8,8S183.401,63.861,187.819,63.861z"
		/>
	<path d="M187.819,39.893h111.586c4.418,0,8-3.582,8-8s-3.582-8-8-8H187.819c-4.418,0-8,3.582-8,8S183.401,39.893,187.819,39.893z"
		/>
	<path d="M307.405,79.83c0-4.418-3.582-8-8-8H187.819c-4.418,0-8,3.582-8,8s3.582,8,8,8h111.586
		C303.824,87.83,307.405,84.249,307.405,79.83z"/>
	<path d="M228.639,255.68c-4.001,1.874-5.727,6.636-3.854,10.637c1.988,4.246,2.996,8.799,2.996,13.533
		c0,17.626-14.34,31.966-31.967,31.966c-17.626,0-31.966-14.34-31.966-31.966c0-17.627,14.34-31.967,31.966-31.967
		c4.649,0,9.128,0.973,13.312,2.893c4.016,1.84,8.765,0.081,10.607-3.936c1.842-4.016,0.08-8.765-3.936-10.607
		c-6.292-2.886-13.016-4.35-19.984-4.35c-26.449,0-47.966,21.518-47.966,47.967c0,26.449,21.518,47.966,47.966,47.966
		c26.449,0,47.967-21.518,47.967-47.966c0-7.096-1.516-13.931-4.504-20.316C237.402,255.531,232.64,253.806,228.639,255.68z"/>
</g>
<g>
</g>
<g>
</g>
<g>
</g>
<g>
</g>
<g>
</g>
<g>
</g>
<g>
</g>
<g>
</g>
<g>
</g>
<g>
</g>
<g>
</g>
<g>
</g>
<g>
</g>
<g>
</g>
<g>
</g>
</svg>
