<?xml version="1.0" encoding="iso-8859-1"?>
<!-- Generator: Adobe Illustrator 17.1.0, SVG Export Plug-In . SVG Version: 6.00 Build 0)  -->
<!DOCTYPE svg PUBLIC "-//W3C//DTD SVG 1.1//EN" "http://www.w3.org/Graphics/SVG/1.1/DTD/svg11.dtd">
<svg version="1.1" id="Capa_1" xmlns="http://www.w3.org/2000/svg" xmlns:xlink="http://www.w3.org/1999/xlink" x="0px" y="0px"
	 viewBox="0 0 455.666 455.666" style="enable-background:new 0 0 455.666 455.666;" xml:space="preserve">
<g>
	<path d="M431.75,59.583c-13.188,0-23.917,10.767-23.917,24v8.5h-8.229v-0.25c0-22.056-17.944-40-40-40H56
		c-22.056,0-40,17.944-40,40V227.5c0,22.056,17.944,40,40,40h16.166v64.833c0,4.418,3.582,8,8,8s8-3.582,8-8V267.5h16
		c22.056,0,40-17.944,40-40v-39.417h119.104V347.5H24c-13.233,0-24,10.767-24,24v24.333c0,4.418,3.582,8,8,8h399.604
		c4.418,0,8-3.582,8-8V371.5c0-10.429-6.689-19.321-16-22.624V147.583h8.229v8.75c0,13.233,10.729,24,23.917,24
		s23.916-10.767,23.916-24v-72.75C455.666,70.35,444.938,59.583,431.75,59.583z M239.666,172.083v-64.25c0-4.418-3.582-8-8-8
		s-8,3.582-8,8v64.25h-39.5v-64.25c0-4.418-3.582-8-8-8s-8,3.582-8,8v64.25h-32c-4.418,0-8,3.582-8,8V227.5
		c0,13.233-10.767,24-24,24H56c-13.233,0-24-10.767-24-24V91.833c0-13.233,10.767-24,24-24h112.166v8.5c0,4.418,3.582,8,8,8
		s8-3.582,8-8v-8.5h39.5v8.5c0,4.418,3.582,8,8,8s8-3.582,8-8v-8.5h119.938c13.233,0,24,10.767,24,24v254.333H279.271V180.083
		c0-4.418-3.582-8-8-8H239.666z M399.604,387.833H16V371.5c0-4.411,3.589-8,8-8h367.604c4.411,0,8,3.589,8,8V387.833z
		 M399.604,131.583v-23.5h8.229v23.5H399.604z M439.666,156.333c0,4.411-3.551,8-7.916,8s-7.917-3.589-7.917-8v-72.75
		c0-4.411,3.552-8,7.917-8s7.916,3.589,7.916,8V156.333z"/>
	<path d="M303.916,187.833h55.25c4.418,0,8-3.582,8-8s-3.582-8-8-8h-55.25c-4.418,0-8,3.582-8,8S299.498,187.833,303.916,187.833z"
		/>
	<path d="M303.916,220h55.25c4.418,0,8-3.582,8-8s-3.582-8-8-8h-55.25c-4.418,0-8,3.582-8,8S299.498,220,303.916,220z"/>
	<path d="M303.916,251.833h55.25c4.418,0,8-3.582,8-8s-3.582-8-8-8h-55.25c-4.418,0-8,3.582-8,8S299.498,251.833,303.916,251.833z"
		/>
</g>
<g>
</g>
<g>
</g>
<g>
</g>
<g>
</g>
<g>
</g>
<g>
</g>
<g>
</g>
<g>
</g>
<g>
</g>
<g>
</g>
<g>
</g>
<g>
</g>
<g>
</g>
<g>
</g>
<g>
</g>
</svg>
