<?xml version="1.0" encoding="iso-8859-1"?>
<!-- Generator: Adobe Illustrator 17.1.0, SVG Export Plug-In . SVG Version: 6.00 Build 0)  -->
<!DOCTYPE svg PUBLIC "-//W3C//DTD SVG 1.1//EN" "http://www.w3.org/Graphics/SVG/1.1/DTD/svg11.dtd">
<svg version="1.1" id="Capa_1" xmlns="http://www.w3.org/2000/svg" xmlns:xlink="http://www.w3.org/1999/xlink" x="0px" y="0px"
	 viewBox="0 0 416.045 416.045" style="enable-background:new 0 0 416.045 416.045;" xml:space="preserve">
<g>
	<path d="M296.21,64.253H120.272c-4.418,0-8,3.582-8,8v271.75c0,4.418,3.582,8,8,8H296.21c4.418,0,8-3.582,8-8V72.253
		C304.21,67.835,300.628,64.253,296.21,64.253z M128.272,336.003V139.587l26.364,26.364c1.562,1.562,3.609,2.343,5.657,2.343
		s4.095-0.781,5.657-2.343c3.125-3.124,3.125-8.189,0-11.313l-37.678-37.678V80.253H288.21v196.645l-90.26-90.26
		c-3.124-3.125-8.189-3.125-11.313,0c-3.125,3.124-3.125,8.189,0,11.313L288.21,299.525v36.478H128.272z"/>
	<path d="M192.147,48.253h31.75c4.418,0,8-3.582,8-8s-3.582-8-8-8h-31.75c-4.418,0-8,3.582-8,8S187.729,48.253,192.147,48.253z"/>
	<path d="M168.022,48.252c2.11,0,4.17-0.85,5.66-2.34c1.49-1.49,2.34-3.55,2.34-5.66c0-2.1-0.85-4.17-2.34-5.66
		c-1.49-1.49-3.55-2.34-5.66-2.34c-2.11,0-4.17,0.85-5.66,2.34s-2.34,3.55-2.34,5.66s0.85,4.17,2.34,5.66
		C163.853,47.402,165.912,48.252,168.022,48.252z"/>
	<path d="M223.783,358.063c-4.361-3.82-9.958-5.924-15.761-5.924c-13.19,0-23.921,10.728-23.921,23.914
		c0,13.188,10.731,23.918,23.921,23.918c13.191,0,23.922-10.729,23.922-23.918C231.944,369.164,228.969,362.607,223.783,358.063z
		 M208.022,383.972c-4.368,0-7.921-3.552-7.921-7.918c0-4.364,3.554-7.914,7.921-7.914c1.922,0,3.775,0.695,5.218,1.959
		c1.719,1.505,2.705,3.676,2.705,5.955C215.944,380.42,212.39,383.972,208.022,383.972z"/>
	<path d="M294.147,0h-172.25c-18.748,0-34,15.252-34,34v348.045c0,18.748,15.252,34,34,34h172.25c18.748,0,34-15.252,34-34V34
		C328.147,15.252,312.895,0,294.147,0z M312.147,382.045c0,9.925-8.075,18-18,18h-172.25c-9.925,0-18-8.075-18-18V34
		c0-9.925,8.075-18,18-18h172.25c9.925,0,18,8.075,18,18V382.045z"/>
</g>
<g>
</g>
<g>
</g>
<g>
</g>
<g>
</g>
<g>
</g>
<g>
</g>
<g>
</g>
<g>
</g>
<g>
</g>
<g>
</g>
<g>
</g>
<g>
</g>
<g>
</g>
<g>
</g>
<g>
</g>
</svg>
