<?xml version="1.0" encoding="iso-8859-1"?>
<!-- Generator: Adobe Illustrator 17.1.0, SVG Export Plug-In . SVG Version: 6.00 Build 0)  -->
<!DOCTYPE svg PUBLIC "-//W3C//DTD SVG 1.1//EN" "http://www.w3.org/Graphics/SVG/1.1/DTD/svg11.dtd">
<svg version="1.1" id="Capa_1" xmlns="http://www.w3.org/2000/svg" xmlns:xlink="http://www.w3.org/1999/xlink" x="0px" y="0px"
	 viewBox="0 0 416 416" style="enable-background:new 0 0 416 416;" xml:space="preserve">
<g>
	<path d="M64,114.221V95.875c0-4.418-3.582-8-8-8s-8,3.582-8,8v18.346c-4.707,2.76-7.883,7.859-7.883,13.698
		s3.176,10.938,7.883,13.698v178.508c0,4.418,3.582,8,8,8s8-3.582,8-8V141.617c4.707-2.76,7.883-7.859,7.883-13.698
		S68.707,116.98,64,114.221z"/>
	<path d="M208,114.221V95.875c0-4.418-3.582-8-8-8s-8,3.582-8,8v18.346c-4.707,2.76-7.883,7.859-7.883,13.698
		s3.176,10.938,7.883,13.698v178.508c0,4.418,3.582,8,8,8s8-3.582,8-8V141.617c4.707-2.76,7.883-7.859,7.883-13.698
		S212.707,116.98,208,114.221z"/>
	<path d="M256,218.274V95.875c0-4.418-3.582-8-8-8s-8,3.582-8,8v122.399c-4.707,2.76-7.883,7.859-7.883,13.698
		s3.176,10.938,7.883,13.698v74.455c0,4.418,3.582,8,8,8s8-3.582,8-8V245.67c4.707-2.76,7.883-7.859,7.883-13.698
		S260.707,221.033,256,218.274z"/>
	<path d="M112,274.594V95.875c0-4.418-3.582-8-8-8s-8,3.582-8,8v178.719c-4.707,2.76-7.883,7.859-7.883,13.698
		c0,5.838,3.176,10.938,7.883,13.697v18.136c0,4.418,3.582,8,8,8s8-3.582,8-8v-18.136c4.707-2.76,7.883-7.859,7.883-13.697
		C119.883,282.453,116.707,277.354,112,274.594z"/>
	<path d="M160,146.084V95.875c0-4.418-3.582-8-8-8s-8,3.582-8,8v50.209c-4.707,2.76-7.883,7.859-7.883,13.698
		s3.176,10.938,7.883,13.698v146.645c0,4.418,3.582,8,8,8s8-3.582,8-8V173.48c4.707-2.76,7.883-7.859,7.883-13.698
		S164.707,148.844,160,146.084z"/>
	<path d="M304,258.623V95.875c0-4.418-3.582-8-8-8s-8,3.582-8,8v162.748c-4.707,2.76-7.883,7.859-7.883,13.697
		c0,5.839,3.176,10.938,7.883,13.698v34.107c0,4.418,3.582,8,8,8s8-3.582,8-8v-34.107c4.707-2.76,7.883-7.859,7.883-13.698
		C311.883,266.482,308.707,261.383,304,258.623z"/>
	<path d="M352.18,216.089c-8.757,0-15.882,7.125-15.882,15.883s7.125,15.883,15.882,15.883c8.758,0,15.883-7.125,15.883-15.883
		S360.938,216.089,352.18,216.089z M352.181,232.089l-0.001,7.766L352.181,232.089c-0.069-0.003-0.116-0.051-0.118-0.116
		c0.002-0.068,0.049-0.115,0.117-0.118h0.001c0.069,0.002,0.115,0.048,0.117,0.116C352.296,232.04,352.248,232.087,352.181,232.089z
		"/>
	<path d="M352.18,256.438c-8.757,0-15.882,7.125-15.882,15.882c0,8.758,7.125,15.883,15.882,15.883
		c8.758,0,15.883-7.125,15.883-15.883C368.063,263.563,360.938,256.438,352.18,256.438z M352.181,272.438l-0.001,7.765
		L352.181,272.438c-0.068-0.003-0.116-0.052-0.118-0.117c0.002-0.068,0.049-0.115,0.117-0.118h0.001
		c0.069,0.002,0.115,0.048,0.117,0.116C352.296,272.389,352.248,272.437,352.181,272.438z"/>
	<path d="M352.18,296.359c-8.757,0-15.882,7.125-15.882,15.883s7.125,15.883,15.882,15.883c8.758,0,15.883-7.125,15.883-15.883
		S360.938,296.359,352.18,296.359z M352.181,312.359l-0.001,7.766L352.181,312.359c-0.069-0.003-0.116-0.051-0.118-0.116
		c0.002-0.068,0.049-0.115,0.117-0.118h0.001c0.069,0.002,0.115,0.048,0.117,0.116C352.296,312.311,352.248,312.357,352.181,312.359
		z"/>
	<path d="M384,47.875H32c-17.645,0-32,14.355-32,32v256.25c0,17.645,14.355,32,32,32h352c17.645,0,32-14.355,32-32V79.875
		C416,62.23,401.645,47.875,384,47.875z M400,336.125c0,8.822-7.178,16-16,16H32c-8.822,0-16-7.178-16-16V79.875
		c0-8.822,7.178-16,16-16h352c8.822,0,16,7.178,16,16V336.125z"/>
	<path d="M352.18,87.958c-13.118,0-23.791,10.673-23.791,23.792s10.673,23.792,23.791,23.792c13.119,0,23.792-10.673,23.792-23.792
		S365.299,87.958,352.18,87.958z M352.18,119.542c-4.296,0-7.791-3.495-7.791-7.792s3.495-7.792,7.791-7.792
		c4.297,0,7.792,3.495,7.792,7.792S356.477,119.542,352.18,119.542z"/>
	<path d="M352.18,151.782c-13.118,0-23.791,10.673-23.791,23.792c0,13.118,10.673,23.791,23.791,23.791
		c13.119,0,23.792-10.673,23.792-23.791C375.972,162.455,365.299,151.782,352.18,151.782z M352.18,183.365
		c-4.296,0-7.791-3.495-7.791-7.791c0-4.297,3.495-7.792,7.791-7.792c4.297,0,7.792,3.495,7.792,7.792
		C359.972,179.87,356.477,183.365,352.18,183.365z"/>
</g>
<g>
</g>
<g>
</g>
<g>
</g>
<g>
</g>
<g>
</g>
<g>
</g>
<g>
</g>
<g>
</g>
<g>
</g>
<g>
</g>
<g>
</g>
<g>
</g>
<g>
</g>
<g>
</g>
<g>
</g>
</svg>
