<?xml version="1.0" encoding="iso-8859-1"?>
<!-- Generator: Adobe Illustrator 17.1.0, SVG Export Plug-In . SVG Version: 6.00 Build 0)  -->
<!DOCTYPE svg PUBLIC "-//W3C//DTD SVG 1.1//EN" "http://www.w3.org/Graphics/SVG/1.1/DTD/svg11.dtd">
<svg version="1.1" id="Capa_1" xmlns="http://www.w3.org/2000/svg" xmlns:xlink="http://www.w3.org/1999/xlink" x="0px" y="0px"
	 viewBox="0 0 456.007 456.007" style="enable-background:new 0 0 456.007 456.007;" xml:space="preserve">
<g>
	<path d="M440.007,72.061H16c-8.822,0-16,7.178-16,16v247.792c0,8.822,7.178,16,16,16h168.253v16.094H97.333c-4.418,0-8,3.582-8,8
		s3.582,8,8,8h263.004c4.418,0,8-3.582,8-8s-3.582-8-8-8h-88v-16.094h167.67c8.822,0,16-7.178,16-16V88.061
		C456.007,79.238,448.829,72.061,440.007,72.061z M256.337,367.946h-56.083v-16.094h56.083V367.946z M371.234,335.853
		L198.035,162.654c-3.124-3.124-8.189-3.124-11.313,0c-3.125,3.124-3.125,8.189,0,11.313l161.885,161.885H16V88.061h84.815
		l53.907,53.907c1.562,1.562,3.609,2.343,5.657,2.343s4.095-0.781,5.657-2.343c3.125-3.124,3.125-8.189,0-11.313l-42.593-42.593
		h316.565l0.001,247.792H371.234z"/>
	<path d="M215.753,328.228h24.5c4.418,0,8-3.582,8-8s-3.582-8-8-8h-24.5c-4.418,0-8,3.582-8,8S211.335,328.228,215.753,328.228z"/>
</g>
<g>
</g>
<g>
</g>
<g>
</g>
<g>
</g>
<g>
</g>
<g>
</g>
<g>
</g>
<g>
</g>
<g>
</g>
<g>
</g>
<g>
</g>
<g>
</g>
<g>
</g>
<g>
</g>
<g>
</g>
</svg>
