<?xml version="1.0" encoding="iso-8859-1"?>
<!-- Generator: Adobe Illustrator 17.1.0, SVG Export Plug-In . SVG Version: 6.00 Build 0)  -->
<!DOCTYPE svg PUBLIC "-//W3C//DTD SVG 1.1//EN" "http://www.w3.org/Graphics/SVG/1.1/DTD/svg11.dtd">
<svg version="1.1" id="Capa_1" xmlns="http://www.w3.org/2000/svg" xmlns:xlink="http://www.w3.org/1999/xlink" x="0px" y="0px"
	 viewBox="0 0 360.631 360.631" style="enable-background:new 0 0 360.631 360.631;" xml:space="preserve">
<g>
	<path d="M320.631,88.581H176.609c-4.418,0-8,3.582-8,8v56.188c0,4.418,3.582,8,8,8h144.021c4.418,0,8-3.582,8-8V96.581
		C328.631,92.163,325.049,88.581,320.631,88.581z M312.631,144.769H184.609v-40.188h128.021V144.769z"/>
	<path d="M360.398,87.766c0-17.169-13.969-31.138-31.138-31.138H152.18V44.169c0-15.439-12.561-28-28-28H68.172
		c-15.439,0-28,12.561-28,28v12.458h-9.033C13.969,56.628,0,70.596,0,87.774l0.232,225.558c0,17.165,13.969,31.13,31.138,31.13
		h298.122c17.17,0,31.139-13.965,31.139-31.138L360.398,87.766z M56.172,244.173c0-3.782,1.773-7.279,4.865-9.595
		c2.018-1.51,3.205-3.883,3.205-6.403V100.323c0-2.521-1.188-4.893-3.205-6.404c-3.092-2.315-4.865-5.812-4.865-9.594V44.169
		c0-6.617,5.383-12,12-12h56.008c6.617,0,12,5.383,12,12v40.156c0,3.782-1.773,7.279-4.865,9.594
		c-2.018,1.511-3.205,3.883-3.205,6.404v127.852c0,2.52,1.188,4.893,3.205,6.403c3.092,2.316,4.865,5.813,4.865,9.595v40.156
		c0,6.617-5.383,12-12,12H68.172c-6.617,0-12-5.383-12-12V244.173z M329.492,328.461H31.37c-8.347,0-15.138-6.787-15.138-15.138
		L16,87.766c0-8.347,6.791-15.138,15.139-15.138h9.033v11.698c0,7.323,2.958,14.389,8.07,19.597v120.653
		c-5.112,5.208-8.07,12.274-8.07,19.597v40.156c0,15.439,12.561,28,28,28h56.008c15.439,0,28-12.561,28-28v-40.156
		c0-7.323-2.958-14.389-8.07-19.597V103.923c5.112-5.208,8.07-12.274,8.07-19.597V72.628h177.081
		c8.347,0,15.138,6.791,15.138,15.146l0.232,225.558C344.631,321.674,337.84,328.461,329.492,328.461z"/>
	<path d="M312.631,272.294h-16.021c-8.822,0-16,7.178-16,16v8.035c0,8.822,7.178,16,16,16h16.021c8.822,0,16-7.178,16-16v-8.035
		C328.631,279.472,321.453,272.294,312.631,272.294z M296.609,296.33v-8.035h16.021l0.002,8.035H296.609z"/>
	<path d="M312.631,224.294h-16.021c-8.822,0-16,7.178-16,16v8.035c0,8.822,7.178,16,16,16h16.021c8.822,0,16-7.178,16-16v-8.035
		C328.631,231.472,321.453,224.294,312.631,224.294z M296.609,248.33v-8.035h16.021l0.002,8.035H296.609z"/>
	<path d="M312.631,176.294h-16.021c-8.822,0-16,7.178-16,16v8.035c0,8.822,7.178,16,16,16h16.021c8.822,0,16-7.178,16-16v-8.035
		C328.631,183.472,321.453,176.294,312.631,176.294z M296.609,200.33v-8.035h16.021l0.002,8.035H296.609z"/>
	<path d="M256.631,272.294h-16.021c-8.822,0-16,7.178-16,16v8.035c0,8.822,7.178,16,16,16h16.021c8.822,0,16-7.178,16-16v-8.035
		C272.631,279.472,265.453,272.294,256.631,272.294z M240.609,296.33v-8.035h16.021l0.002,8.035H240.609z"/>
	<path d="M256.631,224.294h-16.021c-8.822,0-16,7.178-16,16v8.035c0,8.822,7.178,16,16,16h16.021c8.822,0,16-7.178,16-16v-8.035
		C272.631,231.472,265.453,224.294,256.631,224.294z M240.609,248.33v-8.035h16.021l0.002,8.035H240.609z"/>
	<path d="M256.631,176.294h-16.021c-8.822,0-16,7.178-16,16v8.035c0,8.822,7.178,16,16,16h16.021c8.822,0,16-7.178,16-16v-8.035
		C272.631,183.472,265.453,176.294,256.631,176.294z M240.609,200.33v-8.035h16.021l0.002,8.035H240.609z"/>
	<path d="M200.631,272.294h-16.021c-8.822,0-16,7.178-16,16v8.035c0,8.822,7.178,16,16,16h16.021c8.822,0,16-7.178,16-16v-8.035
		C216.631,279.472,209.453,272.294,200.631,272.294z M184.609,296.33v-8.035h16.021l0.002,8.035H184.609z"/>
	<path d="M200.631,224.294h-16.021c-8.822,0-16,7.178-16,16v8.035c0,8.822,7.178,16,16,16h16.021c8.822,0,16-7.178,16-16v-8.035
		C216.631,231.472,209.453,224.294,200.631,224.294z M184.609,248.33v-8.035h16.021l0.002,8.035H184.609z"/>
	<path d="M200.631,176.294h-16.021c-8.822,0-16,7.178-16,16v8.035c0,8.822,7.178,16,16,16h16.021c8.822,0,16-7.178,16-16v-8.035
		C216.631,183.472,209.453,176.294,200.631,176.294z M184.609,200.33v-8.035h16.021l0.002,8.035H184.609z"/>
</g>
<g>
</g>
<g>
</g>
<g>
</g>
<g>
</g>
<g>
</g>
<g>
</g>
<g>
</g>
<g>
</g>
<g>
</g>
<g>
</g>
<g>
</g>
<g>
</g>
<g>
</g>
<g>
</g>
<g>
</g>
</svg>
