<?xml version="1.0" encoding="iso-8859-1"?>
<!-- Generator: Adobe Illustrator 17.1.0, SVG Export Plug-In . SVG Version: 6.00 Build 0)  -->
<!DOCTYPE svg PUBLIC "-//W3C//DTD SVG 1.1//EN" "http://www.w3.org/Graphics/SVG/1.1/DTD/svg11.dtd">
<svg version="1.1" id="Capa_1" xmlns="http://www.w3.org/2000/svg" xmlns:xlink="http://www.w3.org/1999/xlink" x="0px" y="0px"
	 viewBox="0 0 408.143 408.143" style="enable-background:new 0 0 408.143 408.143;" xml:space="preserve">
<g>
	<path d="M387.695,44.228H20.449C9.173,44.228,0,53.401,0,64.676v278.791c0,11.275,9.173,20.448,20.449,20.448h367.246
		c11.275,0,20.448-9.173,20.448-20.448V64.676C408.143,53.401,398.97,44.228,387.695,44.228z M392.143,343.467
		c0,2.411-2.037,4.448-4.448,4.448H20.449c-2.412,0-4.449-2.037-4.449-4.448V64.676c0-2.411,2.038-4.448,4.449-4.448h367.246
		c2.411,0,4.448,2.037,4.448,4.448V343.467z"/>
	<path d="M160.047,76.001c-70.582,0-128.004,57.423-128.004,128.005S89.465,332.01,160.047,332.01
		c70.583,0,128.005-57.422,128.005-128.004S230.629,76.001,160.047,76.001z M160.047,316.01
		c-61.759,0-112.004-50.245-112.004-112.004c0-61.76,50.245-112.005,112.004-112.005c61.76,0,112.005,50.245,112.005,112.005
		C272.052,265.765,221.807,316.01,160.047,316.01z"/>
	<path d="M336.155,123.311c-4.418,0-8,3.582-8,8v160.667c0,4.418,3.582,8,8,8s8-3.582,8-8V131.311
		C344.155,126.893,340.573,123.311,336.155,123.311z"/>
	<path d="M336.152,316.011c-2.101,0-4.17,0.851-5.66,2.34c-1.48,1.49-2.34,3.551-2.34,5.66c0,2.101,0.859,4.17,2.34,5.65
		c1.49,1.49,3.56,2.35,5.66,2.35c2.109,0,4.17-0.859,5.66-2.35c1.489-1.48,2.34-3.54,2.34-5.65c0-2.109-0.851-4.17-2.34-5.66
		C340.322,316.862,338.261,316.011,336.152,316.011z"/>
	<path d="M165.702,209.732c1.49-1.49,2.35-3.561,2.35-5.66c0-2.101-0.86-4.17-2.35-5.66c-1.48-1.49-3.55-2.34-5.65-2.34
		c-2.11,0-4.17,0.85-5.66,2.34s-2.34,3.56-2.34,5.66c0,2.1,0.85,4.16,2.34,5.66c1.49,1.489,3.55,2.34,5.66,2.34
		C162.151,212.072,164.211,211.221,165.702,209.732z"/>
	<path d="M360.072,316.011c-2.11,0-4.17,0.851-5.66,2.34c-1.49,1.49-2.34,3.551-2.34,5.66c0,2.101,0.85,4.17,2.34,5.65
		c1.49,1.49,3.55,2.35,5.66,2.35c2.1,0,4.17-0.859,5.649-2.35c1.5-1.48,2.351-3.54,2.351-5.65c0-2.109-0.851-4.17-2.351-5.66
		C364.242,316.862,362.181,316.011,360.072,316.011z"/>
	<path d="M312.072,316.011c-2.11,0-4.17,0.851-5.66,2.34c-1.49,1.49-2.34,3.551-2.34,5.66c0,2.101,0.85,4.17,2.34,5.65
		c1.49,1.49,3.55,2.35,5.66,2.35c2.1,0,4.17-0.859,5.66-2.35c1.489-1.48,2.34-3.55,2.34-5.65c0-2.109-0.851-4.17-2.34-5.66
		C316.242,316.862,314.181,316.011,312.072,316.011z"/>
	<path d="M336.155,84.145c-4.418,0-8,3.582-8,8v15.5c0,4.418,3.582,8,8,8s8-3.582,8-8v-15.5
		C344.155,87.727,340.573,84.145,336.155,84.145z"/>
	<path d="M208.176,204.006c0-26.539-21.59-48.13-48.129-48.13c-26.539,0-48.129,21.591-48.129,48.13
		c0,26.538,21.591,48.129,48.129,48.129C186.586,252.135,208.176,230.544,208.176,204.006z M127.917,204.006
		c0-17.717,14.413-32.13,32.129-32.13s32.13,14.413,32.13,32.13c0,17.716-14.414,32.129-32.13,32.129
		S127.917,221.722,127.917,204.006z"/>
	<path d="M232.052,204.006c0,39.703-32.301,72.004-72.005,72.004c-4.418,0-8,3.582-8,8s3.582,8,8,8
		c48.526,0,88.005-39.479,88.005-88.004c0-4.418-3.582-8-8-8C235.634,196.006,232.052,199.588,232.052,204.006z"/>
	<path d="M168.047,124.001c0-4.418-3.582-8-8-8c-48.526,0-88.004,39.479-88.004,88.005c0,4.418,3.582,8,8,8s8-3.582,8-8
		c0-39.704,32.301-72.005,72.004-72.005C164.465,132.001,168.047,128.419,168.047,124.001z"/>
</g>
<g>
</g>
<g>
</g>
<g>
</g>
<g>
</g>
<g>
</g>
<g>
</g>
<g>
</g>
<g>
</g>
<g>
</g>
<g>
</g>
<g>
</g>
<g>
</g>
<g>
</g>
<g>
</g>
<g>
</g>
</svg>
