<?xml version="1.0" encoding="iso-8859-1"?>
<!-- Generator: Adobe Illustrator 17.1.0, SVG Export Plug-In . SVG Version: 6.00 Build 0)  -->
<!DOCTYPE svg PUBLIC "-//W3C//DTD SVG 1.1//EN" "http://www.w3.org/Graphics/SVG/1.1/DTD/svg11.dtd">
<svg version="1.1" id="Capa_1" xmlns="http://www.w3.org/2000/svg" xmlns:xlink="http://www.w3.org/1999/xlink" x="0px" y="0px"
	 viewBox="0 0 399.806 399.806" style="enable-background:new 0 0 399.806 399.806;" xml:space="preserve">
<g>
	<path d="M397.457,87.027L312.785,2.344C311.285,0.843,309.25,0,307.128,0s-4.157,0.843-5.657,2.344l-67.84,67.851
		c-4.731-4.035-10.689-6.24-17-6.24c-7.023,0-13.614,2.724-18.557,7.668L26.73,242.976c-0.002,0.002-0.003,0.003-0.005,0.005
		c-35.721,35.743-35.61,93.994,0.247,129.851c17.318,17.324,40.368,26.904,64.905,26.974c0.092,0,0.18,0,0.271,0
		c24.447-0.001,47.386-9.459,64.625-26.656c0.02-0.02,0.04-0.039,0.06-0.059l171.346-171.347c4.951-4.948,7.677-11.54,7.677-18.563
		c0-6.304-2.204-12.259-6.236-16.994l67.837-67.848C400.58,95.215,400.58,90.151,397.457,87.027z M313.594,159.587
		c-0.157,0.157-0.301,0.323-0.442,0.489c-0.147,0.127-0.295,0.253-0.434,0.393c-3.124,3.125-3.124,8.19,0,11.314l4.149,4.148
		c1.928,1.928,2.989,4.502,2.989,7.25c0,2.747-1.061,5.32-2.989,7.248L145.585,361.711c-0.018,0.017-0.035,0.035-0.053,0.052
		c-14.225,14.22-33.175,22.042-53.385,22.042c-0.074,0-0.15,0-0.224,0c-20.279-0.058-39.328-7.973-53.637-22.287
		c-29.62-29.62-29.73-77.72-0.248-107.224c0.001-0.001,0.002-0.002,0.003-0.003L209.39,82.935c1.921-1.922,4.493-2.98,7.241-2.98
		s5.32,1.059,7.243,2.982l68.94,68.943c3.125,3.125,8.19,3.125,11.313,0c3.125-3.124,3.125-8.189,0-11.313l-59.119-59.121
		l62.12-62.13l73.358,73.369L313.594,159.587z"/>
	<path d="M290.115,58.87c-3.124-3.125-8.189-3.127-11.313-0.004c-0.06,0.06-0.118,0.12-0.175,0.18L261.83,75.844
		c-3.124,3.124-3.125,8.189,0,11.313l16.925,16.928c1.5,1.5,3.535,2.344,5.657,2.344h0c2.122,0,4.156-0.843,5.656-2.343
		l16.97-16.967c3.124-3.124,3.125-8.188,0.002-11.312L290.115,58.87z M284.412,87.114l-5.613-5.613l5.658-5.658l5.612,5.615
		L284.412,87.114z"/>
	<path d="M295.77,121.097l16.925,16.928c1.5,1.5,3.535,2.344,5.657,2.344c0,0,0,0,0,0c2.122,0,4.156-0.843,5.656-2.343l16.97-16.967
		c3.124-3.123,3.125-8.188,0.002-11.312L324.055,92.81c-3.123-3.125-8.189-3.127-11.313-0.004c-0.062,0.062-0.123,0.125-0.183,0.188
		l-16.789,16.79C292.646,112.908,292.646,117.973,295.77,121.097z M318.398,109.783l5.612,5.616l-5.657,5.656l-5.613-5.614
		L318.398,109.783z"/>
	<path d="M229.865,109.892c-3.728-3.73-8.695-5.784-13.988-5.784c-5.293,0-10.261,2.054-13.987,5.782L86.452,225.334
		c0,0-0.001,0.001-0.002,0.002c-24.172,24.186-24.1,63.6,0.16,87.859c12.161,12.165,28.128,18.251,44.078,18.25
		c15.873,0,31.73-6.028,43.796-18.09c0.018-0.017,0.035-0.035,0.052-0.052l115.377-115.377c3.733-3.73,5.789-8.7,5.789-13.992
		c0-5.292-2.055-10.261-5.787-13.991L229.865,109.892z M278.601,186.611L163.163,302.049c-0.015,0.015-0.03,0.029-0.044,0.044
		c-8.942,8.91-20.675,13.361-32.43,13.359c-11.851-0.001-23.723-4.526-32.764-13.57c-18.024-18.024-18.094-47.289-0.157-65.236
		l-0.001,0.001l115.439-115.445c0.952-0.952,2.083-1.094,2.672-1.094c0.589,0,1.719,0.142,2.673,1.096l60.051,60.054
		c0.957,0.957,1.1,2.088,1.1,2.677S279.559,185.654,278.601,186.611z"/>
</g>
<g>
</g>
<g>
</g>
<g>
</g>
<g>
</g>
<g>
</g>
<g>
</g>
<g>
</g>
<g>
</g>
<g>
</g>
<g>
</g>
<g>
</g>
<g>
</g>
<g>
</g>
<g>
</g>
<g>
</g>
</svg>
