<?xml version="1.0" encoding="iso-8859-1"?>
<!-- Generator: Adobe Illustrator 17.1.0, SVG Export Plug-In . SVG Version: 6.00 Build 0)  -->
<!DOCTYPE svg PUBLIC "-//W3C//DTD SVG 1.1//EN" "http://www.w3.org/Graphics/SVG/1.1/DTD/svg11.dtd">
<svg version="1.1" id="Capa_1" xmlns="http://www.w3.org/2000/svg" xmlns:xlink="http://www.w3.org/1999/xlink" x="0px" y="0px"
	 viewBox="0 0 407.833 407.833" style="enable-background:new 0 0 407.833 407.833;" xml:space="preserve">
<g>
	<path d="M99.776,71.952c13.217,0,23.97-10.753,23.97-23.971c0-13.218-10.753-23.972-23.97-23.972
		c-13.218,0-23.971,10.753-23.971,23.972C75.804,61.199,86.558,71.952,99.776,71.952z M99.776,40.009c4.395,0,7.97,3.576,7.97,7.972
		s-3.575,7.971-7.97,7.971c-4.396,0-7.971-3.576-7.971-7.971S95.38,40.009,99.776,40.009z"/>
	<path d="M268.063,71.986h47.665c8.822,0,16-7.178,16-16.001V39.984c0-8.823-7.178-16-16-16h-47.665
		c-8.823,0-16.001,7.178-16.001,16v16.001C252.062,64.808,259.24,71.986,268.063,71.986z M268.063,39.983l47.665,0l0.001,16.002
		l-47.667-0.001L268.063,39.983z"/>
	<path d="M358.86,263.98h-2.865V40.682C355.994,18.25,337.875,0,315.603,0H92.073C69.801,0,51.681,18.25,51.681,40.682V263.98
		h-2.708c-11.619,0-21.072,9.453-21.072,21.072v29.794c0,11.62,9.453,21.073,21.072,21.073h50.875v63.914c0,4.418,3.582,8,8,8
		h191.958c4.418,0,8-3.582,8-8v-63.914h51.053c11.619,0,21.072-9.453,21.072-21.073v-29.794
		C379.932,273.433,370.479,263.98,358.86,263.98z M67.681,111.783h57.833c-6.279,12.113-9.831,25.857-9.831,40.417
		c0,11.188,2.101,21.894,5.92,31.75H67.681V111.783z M131.683,152.2c0-39.769,32.354-72.124,72.124-72.124
		s72.124,32.354,72.124,72.124s-32.354,72.124-72.124,72.124S131.683,191.969,131.683,152.2z M282.099,111.783h57.896v72.167H286.01
		c3.82-9.856,5.92-20.562,5.92-31.75C291.93,137.64,288.377,123.896,282.099,111.783z M92.073,16h223.53
		c13.449,0,24.392,11.072,24.392,24.682v55.101h-68.547c-16.178-19.364-40.494-31.707-67.641-31.707s-51.463,12.342-67.641,31.707
		H67.681V40.682C67.681,27.072,78.623,16,92.073,16z M67.681,199.95h62.093c15.712,24.275,43.026,40.374,74.032,40.374
		s58.321-16.098,74.032-40.374h62.156v64.03H67.681V199.95z M291.807,391.833H115.848v-88.063h175.958V391.833z M363.932,314.846
		c0,2.75-2.323,5.073-5.072,5.073h-51.053v-24.148c0-4.418-3.582-8-8-8H107.848c-4.418,0-8,3.582-8,8v24.148H48.973
		c-2.75,0-5.072-2.323-5.072-5.073v-29.794c0-2.75,2.323-5.072,5.072-5.072H358.86c2.749,0,5.072,2.323,5.072,5.072V314.846z"/>
	<path d="M139.848,375.73h127.958c4.418,0,8-3.582,8-8v-39.561c0-4.418-3.582-8-8-8s-8,3.582-8,8v31.561H147.848v-31.561
		c0-4.418-3.582-8-8-8s-8,3.582-8,8v39.561C131.848,372.148,135.43,375.73,139.848,375.73z"/>
	<path d="M203.806,192.24c22.079,0,40.041-17.962,40.041-40.04c0-4.418-3.582-8-8-8s-8,3.582-8,8
		c0,13.256-10.784,24.04-24.041,24.04c-13.256,0-24.04-10.784-24.04-24.04s10.784-24.041,24.04-24.041c4.418,0,8-3.582,8-8
		s-3.581-8-8-8c-22.078,0-40.04,17.962-40.04,40.041C163.766,174.278,181.728,192.24,203.806,192.24z"/>
</g>
<g>
</g>
<g>
</g>
<g>
</g>
<g>
</g>
<g>
</g>
<g>
</g>
<g>
</g>
<g>
</g>
<g>
</g>
<g>
</g>
<g>
</g>
<g>
</g>
<g>
</g>
<g>
</g>
<g>
</g>
</svg>
