<?xml version="1.0" encoding="iso-8859-1"?>
<!-- Generator: Adobe Illustrator 17.1.0, SVG Export Plug-In . SVG Version: 6.00 Build 0)  -->
<!DOCTYPE svg PUBLIC "-//W3C//DTD SVG 1.1//EN" "http://www.w3.org/Graphics/SVG/1.1/DTD/svg11.dtd">
<svg version="1.1" id="Capa_1" xmlns="http://www.w3.org/2000/svg" xmlns:xlink="http://www.w3.org/1999/xlink" x="0px" y="0px"
	 viewBox="0 0 399.935 399.935" style="enable-background:new 0 0 399.935 399.935;" xml:space="preserve">
<g>
	<path d="M367.885,128.051H83.678l152.597-97.509c3.723-2.379,4.813-7.326,2.434-11.049c-2.379-3.724-7.326-4.812-11.049-2.434
		L53.963,128.051H32.05C14.377,128.051,0,142.423,0,160.089v192.008c0,17.666,14.377,32.038,32.05,32.038h335.835
		c17.672,0,32.049-14.372,32.049-32.038V160.089C399.935,142.423,385.557,128.051,367.885,128.051z M383.935,352.096
		c0,8.844-7.2,16.038-16.049,16.038H32.05c-8.85,0-16.05-7.194-16.05-16.038V160.089c0-8.844,7.2-16.038,16.05-16.038h24.242
		c0.005,0,0.011,0.001,0.016,0.001c0.005,0,0.009-0.001,0.014-0.001h311.563c8.85,0,16.049,7.194,16.049,16.038V352.096z"/>
	<path d="M119.977,175.961c-44.191,0-80.143,35.947-80.143,80.132s35.952,80.132,80.143,80.132
		c44.191,0,80.144-35.947,80.144-80.132S164.168,175.961,119.977,175.961z M119.977,320.224c-35.369,0-64.143-28.77-64.143-64.132
		s28.774-64.132,64.143-64.132c35.369,0,64.144,28.77,64.144,64.132S155.346,320.224,119.977,320.224z"/>
	<path d="M344.634,175.961h-96.167c-4.418,0-8,3.582-8,8v40.121c0,4.418,3.582,8,8,8h96.167c4.418,0,8-3.582,8-8v-40.121
		C352.634,179.543,349.052,175.961,344.634,175.961z M336.634,216.082h-80.167v-24.121h80.167V216.082z"/>
	<path d="M248.217,248.072c-4.418,0-8,3.582-8,8v71.98c0,4.418,3.582,8,8,8s8-3.582,8-8v-71.98
		C256.217,251.654,252.636,248.072,248.217,248.072z"/>
	<path d="M280.352,248.072c-4.418,0-8,3.582-8,8v71.98c0,4.418,3.582,8,8,8s8-3.582,8-8v-71.98
		C288.352,251.654,284.771,248.072,280.352,248.072z"/>
	<path d="M312.486,248.072c-4.418,0-8,3.582-8,8v71.98c0,4.418,3.582,8,8,8s8-3.582,8-8v-71.98
		C320.486,251.654,316.905,248.072,312.486,248.072z"/>
	<path d="M344.634,248.072c-4.418,0-8,3.582-8,8v71.98c0,4.418,3.582,8,8,8s8-3.582,8-8v-71.98
		C352.634,251.654,349.052,248.072,344.634,248.072z"/>
	<path d="M153.333,232.94c-4.054,1.757-5.915,6.468-4.158,10.521c1.729,3.989,2.606,8.239,2.606,12.631
		c0,17.533-14.268,31.798-31.805,31.798c-17.537,0-31.804-14.265-31.804-31.798s14.267-31.798,31.804-31.798
		c4.811,0,9.428,1.044,13.724,3.103c3.985,1.912,8.762,0.227,10.672-3.756c1.91-3.984,0.228-8.763-3.757-10.672
		c-6.471-3.103-13.416-4.675-20.639-4.675c-26.359,0-47.804,21.442-47.804,47.798s21.445,47.798,47.804,47.798
		c26.36,0,47.805-21.442,47.805-47.798c0-6.594-1.321-12.985-3.926-18.994C162.098,233.044,157.389,231.182,153.333,232.94z"/>
</g>
<g>
</g>
<g>
</g>
<g>
</g>
<g>
</g>
<g>
</g>
<g>
</g>
<g>
</g>
<g>
</g>
<g>
</g>
<g>
</g>
<g>
</g>
<g>
</g>
<g>
</g>
<g>
</g>
<g>
</g>
</svg>
