<?xml version="1.0" encoding="iso-8859-1"?>
<!-- Generator: Adobe Illustrator 17.1.0, SVG Export Plug-In . SVG Version: 6.00 Build 0)  -->
<!DOCTYPE svg PUBLIC "-//W3C//DTD SVG 1.1//EN" "http://www.w3.org/Graphics/SVG/1.1/DTD/svg11.dtd">
<svg version="1.1" id="Capa_1" xmlns="http://www.w3.org/2000/svg" xmlns:xlink="http://www.w3.org/1999/xlink" x="0px" y="0px"
	 viewBox="0 0 424.166 424.166" style="enable-background:new 0 0 424.166 424.166;" xml:space="preserve">
<g>
	<path d="M360.083,0h-296c-17.645,0-32,14.355-32,32v384.166c0,4.418,3.582,8,8,8h344c4.418,0,8-3.582,8-8V32
		C392.083,14.355,377.728,0,360.083,0z M48.083,408.166V80H320.25c4.418,0,8-3.582,8-8s-3.582-8-8-8H48.083V32
		c0-8.822,7.178-16,16-16h296c8.822,0,16,7.178,16,16v32h-23.75c-4.418,0-8,3.582-8,8s3.582,8,8,8h23.75v328.166H48.083z"/>
	<path d="M212.083,112.005c-72.966,0-132.329,59.362-132.329,132.328s59.362,132.328,132.329,132.328
		c72.966,0,132.328-59.362,132.328-132.328S285.049,112.005,212.083,112.005z M212.083,360.661
		c-64.144,0-116.329-52.185-116.329-116.328s52.185-116.328,116.329-116.328c48.707,0,90.511,30.094,107.815,72.661h-7.315
		c-3.419,0-6.712,0.545-9.803,1.542c-16.255-34.945-51.646-57.87-90.697-57.87c-55.138,0-99.995,44.857-99.995,99.995
		s44.857,99.995,99.995,99.995c39.052,0,74.442-22.925,90.697-57.87c3.091,0.997,6.384,1.542,9.803,1.542h7.315
		C302.594,330.567,260.79,360.661,212.083,360.661z M303.671,269.28c-0.152-0.123-0.311-0.239-0.473-0.35
		c-3.999-2.911-6.614-7.615-6.614-12.93v-23.334c0-5.314,2.615-10.018,6.614-12.93c0.162-0.112,0.321-0.228,0.473-0.35
		c2.549-1.716,5.615-2.72,8.912-2.72h12.495c2.172,8.871,3.333,18.135,3.333,27.667s-1.161,18.796-3.333,27.667h-12.495
		C309.286,272,306.219,270.996,303.671,269.28z M289.15,277.761c-13.224,30.451-43.539,50.567-77.067,50.567
		c-46.315,0-83.995-37.68-83.995-83.995s37.68-83.995,83.995-83.995c33.528,0,63.843,20.116,77.067,50.567
		c-5.311,5.715-8.567,13.363-8.567,21.761V256C280.583,264.398,283.839,272.046,289.15,277.761z"/>
	<path d="M344.083,40.083c0-8.776-7.141-15.917-15.917-15.917s-15.916,7.141-15.916,15.917S319.39,56,328.166,56
		S344.083,48.859,344.083,40.083z"/>
	<path d="M280.5,24.166c-8.776,0-15.917,7.141-15.917,15.917S271.724,56,280.5,56s15.916-7.141,15.916-15.917
		S289.276,24.166,280.5,24.166z"/>
	<path d="M152.416,32.083h-72c-4.418,0-8,3.582-8,8s3.582,8,8,8h72c4.418,0,8-3.582,8-8S156.834,32.083,152.416,32.083z"/>
	<path d="M199.75,32.083h-15.417c-4.418,0-8,3.582-8,8s3.582,8,8,8h15.417c4.418,0,8-3.582,8-8S204.168,32.083,199.75,32.083z"/>
	<path d="M212.083,176.005c-37.677,0-68.329,30.652-68.329,68.328c0,4.418,3.582,8,8,8s8-3.582,8-8
		c0-28.854,23.475-52.328,52.329-52.328c4.418,0,8-3.582,8-8S216.501,176.005,212.083,176.005z"/>
</g>
<g>
</g>
<g>
</g>
<g>
</g>
<g>
</g>
<g>
</g>
<g>
</g>
<g>
</g>
<g>
</g>
<g>
</g>
<g>
</g>
<g>
</g>
<g>
</g>
<g>
</g>
<g>
</g>
<g>
</g>
</svg>
