<?xml version="1.0" encoding="iso-8859-1"?>
<!-- Generator: Adobe Illustrator 17.1.0, SVG Export Plug-In . SVG Version: 6.00 Build 0)  -->
<!DOCTYPE svg PUBLIC "-//W3C//DTD SVG 1.1//EN" "http://www.w3.org/Graphics/SVG/1.1/DTD/svg11.dtd">
<svg version="1.1" id="Capa_1" xmlns="http://www.w3.org/2000/svg" xmlns:xlink="http://www.w3.org/1999/xlink" x="0px" y="0px"
	 viewBox="0 0 410.949 410.949" style="enable-background:new 0 0 410.949 410.949;" xml:space="preserve">
<path d="M321.452,139.824h-48.478V20c0-11.028-8.86-20-19.75-20s-19.75,8.972-19.75,20v119.824h-56V20c0-11.028-8.86-20-19.75-20
	s-19.75,8.972-19.75,20v119.824H89.497c-4.418,0-8,3.582-8,8v31.833c0,4.418,3.582,8,8,8h0.145v50.832
	c0,54.263,37.509,99.923,87.958,112.434v52.026c0,4.418,3.582,8,8,8h39.75c4.418,0,8-3.582,8-8v-52.026
	c50.45-12.511,87.958-58.171,87.958-112.434v-50.832h0.145c4.418,0,8-3.582,8-8v-31.833
	C329.452,143.406,325.871,139.824,321.452,139.824z M249.474,20c0-2.168,1.717-4,3.75-4s3.75,1.832,3.75,4v119.824h-7.5V20z
	 M153.974,20c0-2.168,1.717-4,3.75-4s3.75,1.832,3.75,4v119.824h-7.5V20z M217.349,394.949h-23.75v-41.231
	c3.905,0.399,7.866,0.604,11.875,0.604s7.97-0.205,11.875-0.604V394.949z M305.308,238.489c0,55.048-44.785,99.833-99.833,99.833
	s-99.833-44.785-99.833-99.833v-50.832h159.833c4.418,0,8-3.582,8-8s-3.582-8-8-8H97.497v-15.833h215.956v15.833h-15.728
	c-4.418,0-8,3.582-8,8s3.582,8,8,8h7.583V238.489z"/>
<g>
</g>
<g>
</g>
<g>
</g>
<g>
</g>
<g>
</g>
<g>
</g>
<g>
</g>
<g>
</g>
<g>
</g>
<g>
</g>
<g>
</g>
<g>
</g>
<g>
</g>
<g>
</g>
<g>
</g>
</svg>
