<?xml version="1.0" encoding="UTF-8" standalone="no"?>
<svg xmlns="http://www.w3.org/2000/svg" viewBox="0 0 40 40">
	<circle cx="20" cy="20" r="20" fill="#fff"/>
	<path fill="#e64a19" d="M3.416 27.913l14.476-14.487L20 11.318l2.108 2.108 10.686 10.686-.016.054-.21.62-.24.607-.269.591-.296.577-.269.468L20 15.534 4.954 30.592c-.58-.853-1.117-1.732-1.538-2.68z"/>
	<path fill="#474747" d="M20 1.502c10.189 0 18.498 8.31 18.498 18.498S30.19 38.498 20 38.498c-5.565 0-10.569-2.481-13.964-6.392l.653-.656.475-.475.475-.476.476-.475.02-.02c2.852 3.378 7.114 5.53 11.865 5.53 8.556 0 15.535-6.977 15.535-15.534S28.556 4.465 20 4.465C11.443 4.465 4.465 11.443 4.465 20c0 1.152.128 2.275.368 3.358l-1.03 1.033-1.376 1.376A18.378 18.378 0 011.502 20C1.502 9.811 9.81 1.502 20 1.502z"/>
</svg>
