<svg width="32" height="32" xmlns="http://www.w3.org/2000/svg"><path d="M31 19.085v-6.17a1.5 1.5 0 0 0 0-2.83V6.991A2.991 2.991 0 0 0 28.007 4H2.993A2.997 2.997 0 0 0 0 6.991V25.01A2.991 2.991 0 0 0 2.993 28h25.014A2.997 2.997 0 0 0 31 25.009v-3.094a1.5 1.5 0 0 0 0-2.83ZM8.124 23a8.037 8.037 0 0 1-2.37-2H4v-1h1.07a7.95 7.95 0 0 1-.818-2H4v-1h.062a8.079 8.079 0 0 1 0-2H4v-1h.252a7.95 7.95 0 0 1 .818-2H4v-1h1.755a8.037 8.037 0 0 1 2.369-2H4V8h16v1h-4.124a8.037 8.037 0 0 1 2.37 2H20v1h-1.07a7.95 7.95 0 0 1 .818 2H20v1h-.062a8.079 8.079 0 0 1 0 2H20v1h-.252a7.95 7.95 0 0 1-.818 2H20v1h-1.755a8.037 8.037 0 0 1-2.369 2H20v1H4v-1h4.124Zm9.621-3c.422-.604.75-1.278.965-2H5.29c.215.722.543 1.396.965 2H5.07h12.675Zm-.846 1A6.977 6.977 0 0 1 12 23a6.977 6.977 0 0 1-4.899-2H5.755h11.144Zm2.03-4a7.06 7.06 0 0 0 0-2H5.071a7.06 7.06 0 0 0 0 2h13.858Zm-.219-3a6.972 6.972 0 0 0-.965-2H6.255a6.972 6.972 0 0 0-.965 2h13.42ZM16.9 11A6.977 6.977 0 0 0 12 9a6.977 6.977 0 0 0-4.899 2h9.798ZM2 6.991C2 6.447 2.449 6 2.993 6h25.014c.55 0 .993.443.993.991V25.01a.997.997 0 0 1-.993.991H2.993A.991.991 0 0 1 2 25.009V6.99Zm19 3C21 8.892 21.898 8 22.998 8h2.004C26.106 8 27 8.893 27 9.992v11.016c0 1.1-.898 1.992-1.998 1.992h-2.004A1.996 1.996 0 0 1 21 21.008V9.992Zm1 0v11.017c0 .546.447.992.998.992h2.004c.55 0 .998-.446.998-.992V9.992A.996.996 0 0 0 25.002 9h-2.004a.997.997 0 0 0-.998.992Z" fill="#000" fill-rule="evenodd"/></svg>