<svg width="32" height="32" xmlns="http://www.w3.org/2000/svg"><path d="M0 6.003v7.994A4 4 0 0 0 4 18h24c2.206 0 4-1.794 4-4.003V6.003A4 4 0 0 0 28 2H4C1.794 2 0 3.794 0 6.003Zm2 0C2 4.898 2.898 4 4 4h24a2 2 0 0 1 2 2.003v7.994A2.004 2.004 0 0 1 28 16H4a2 2 0 0 1-2-2.003V6.003ZM6.5 14h19v-1h-19v1Zm0-2h19v-1h-19v1ZM7 7.5c0 .268.224.5.5.5.268 0 .5-.224.5-.5 0-.268-.224-.5-.5-.5-.268 0-.5.224-.5.5Zm-1 0C6 6.672 6.68 6 7.5 6 8.328 6 9 6.68 9 7.5 9 8.328 8.32 9 7.5 9 6.672 9 6 8.32 6 7.5Zm6 0c0-.824.659-1.5 1.49-1.5h3.02A1.5 1.5 0 0 1 18 7.5c0 .824-.659 1.5-1.49 1.5h-3.02A1.5 1.5 0 0 1 12 7.5Zm1 0c0 .268.22.5.49.5h3.02c.275 0 .49-.224.49-.5a.5.5 0 0 0-.49-.5h-3.02a.492.492 0 0 0-.49.5Zm10.646 17.646c-1.47 1.472-1.658 2.623-.068 5.122a.5.5 0 0 0 .844-.536c-1.326-2.085-1.222-2.725-.068-3.878 1.47-1.472 1.658-2.623.068-5.122a.5.5 0 0 0-.844.536c1.326 2.085 1.222 2.725.068 3.878ZM7.578 21.268c1.326 2.085 1.222 2.725.068 3.878-1.47 1.472-1.658 2.623-.068 5.122a.5.5 0 0 0 .844-.536c-1.326-2.085-1.222-2.725-.068-3.878 1.47-1.472 1.658-2.623.068-5.122a.5.5 0 0 0-.844.536Zm8 0c1.326 2.085 1.222 2.725.068 3.878-1.47 1.472-1.658 2.623-.068 5.122a.5.5 0 0 0 .844-.536c-1.326-2.085-1.222-2.725-.068-3.878 1.47-1.472 1.658-2.623.068-5.122a.5.5 0 0 0-.844.536Z" fill="#000" fill-rule="evenodd"/></svg>