<svg width="32" height="32" xmlns="http://www.w3.org/2000/svg"><path d="M16 32C7.163 32 0 24.837 0 16S7.163 0 16 0s16 7.163 16 16-7.163 16-16 16Zm0-2c7.732 0 14-6.268 14-14S23.732 2 16 2 2 8.268 2 16s6.268 14 14 14Zm0-2C9.373 28 4 22.627 4 16S9.373 4 16 4s12 5.373 12 12-5.373 12-12 12Zm0-1c6.075 0 11-4.925 11-11S22.075 5 16 5 5 9.925 5 16s4.925 11 11 11ZM13 8.5c0-.276.215-.5.49-.5h3.02a.5.5 0 0 1 .49.5c0 .276-.215.5-.49.5h-3.02a.5.5 0 0 1-.49-.5Zm-3 3a.5.5 0 0 1 .491-.5h5.018a.5.5 0 0 1 0 1h-5.018a.5.5 0 0 1-.491-.5Zm-2 3c0-.276.222-.5.51-.5h7.98a.51.51 0 0 1 .51.5c0 .276-.222.5-.51.5H8.51a.51.51 0 0 1-.51-.5Zm0 3a.5.5 0 0 1 .496-.5h15.008a.5.5 0 0 1 0 1H8.496A.503.503 0 0 1 8 17.5Zm2 3c0-.276.229-.5.5-.5h11c.276 0 .5.232.5.5 0 .276-.229.5-.5.5h-11a.505.505 0 0 1-.5-.5Zm3 3a.5.5 0 0 1 .491-.5h5.018a.5.5 0 0 1 0 1h-5.018a.5.5 0 0 1-.491-.5Zm7.5-9.5a2.5 2.5 0 1 1 0-5 2.5 2.5 0 0 1 0 5Zm0-1a1.5 1.5 0 1 0 0-3 1.5 1.5 0 0 0 0 3Z" fill="#000" fill-rule="evenodd"/></svg>