<svg width="32" height="32" xmlns="http://www.w3.org/2000/svg"><path d="M8.049 20.988A11.97 11.97 0 0 1 4 12C4 5.373 9.373 0 16 0s12 5.373 12 12a11.97 11.97 0 0 1-3.961 8.91c-1.168 1.054-1.645 5.404-2.811 8.12-.96 2.233-2.36 3.012-5.195 2.945-2.766-.065-4.307-.763-5.264-2.889-1.216-2.702-1.535-7.049-2.72-8.098ZM6 12C6 6.477 10.477 2 16 2s10 4.477 10 10c0 1.404-.29 2.76-.831 4H6.83A9.984 9.984 0 0 1 6 12Zm4.446 9c-.285-.643-.614-1.105-1.071-1.51A10.036 10.036 0 0 1 7.337 17h17.326c-.52.898-1.18 1.717-1.964 2.425-.459.414-.794.896-1.095 1.575H10.446Zm.656 2c.07.266.142.55.217.857.025.1.277 1.148.386 1.587l9.182-2.306.039-.138h-9.824Zm1.473 5.225c-.213-.48-.409-1.06-.618-1.814l8.636-2.168-.316 1.215a47.02 47.02 0 0 1-.245.895l-7.457 1.872Zm.55.893c.55.603 1.375.82 2.955.857 2.07.05 2.696-.304 3.31-1.734.1-.233.197-.486.294-.77l-6.56 1.647ZM8.5 12.048c-.5 0-.478-.739-.435-1.075a8.004 8.004 0 0 1 6.93-6.91c.25-.032 1.05-.063 1.05.437s-1.128.583-1.128.583a7.005 7.005 0 0 0-5.834 5.834S9 12.047 8.5 12.047Z" fill="#000" fill-rule="evenodd"/></svg>