<svg width="32" height="32" xmlns="http://www.w3.org/2000/svg"><g fill="#000" fill-rule="evenodd"><path d="m33.994-5.7-.006-2.29 6.81-6.577c1.784-1.83 2.7-5.206 2.082-7.683l-.736-2.951c-.04-.162.069-.498.197-.605l4.53-3.784c.246-.205.806-.409 1.118-.409l4.015.003c.277 0 .788.212.987.411l8.594 8.594c.204.204.41.702.41.987L62-15.99c0 .245-.214.701-.41.864l-4.53 3.784c-.201.168-.688.301-.94.259l-2.11-.355c-2.514-.422-5.855.667-7.632 2.484l-6.386 6.965-2.29-.006 8.653-8.652-.708-.708-9.003 9.004-2.293-2.293 9.004-9.003-.708-.708L33.994-5.7ZM54.405-31c-.573-.573-1.592-.995-2.4-.996l-4.015-.003c-.782 0-1.796.37-2.4.874l-4.531 3.784c-.717.6-1.08 1.72-.855 2.624l.735 2.95c.45 1.805-.272 4.47-1.572 5.804l-7.095 7.277-.285.292.001.408.007 2.993.001.413.292.292 4 4 .292.292h.413l2.993.008h.422l.295-.301 7.104-7.265c1.32-1.35 4.003-2.224 5.87-1.91l2.11.354c.83.14 1.906-.154 2.554-.696l4.53-3.784c.65-.542 1.128-1.56 1.128-2.4l-.003-4.016c0-.814-.418-1.82-.997-2.4l-8.594-8.593Zm-4.041 6.485a1.996 1.996 0 0 1 2.833.004l2.113 2.113c.783.784.79 2.047.004 2.833a1.996 1.996 0 0 1-2.833-.004l-2.113-2.113a1.998 1.998 0 0 1-.004-2.833Zm.707.707a.998.998 0 0 0 .004 1.419l2.113 2.113a.996.996 0 0 0 1.419.004.998.998 0 0 0-.005-1.418l-2.113-2.113a.996.996 0 0 0-1.418-.005ZM17 14.268V7.5l3.243-3.255a.997.997 0 0 0 0-1.414.997.997 0 0 0-1.414 0L17 4.659V.993C17 .453 16.552 0 16 0c-.556 0-1 .444-1 .993v3.702l-1.829-1.829a.997.997 0 0 0-1.414 0 .997.997 0 0 0 0 1.414L15 7.536v6.732l-5.861-3.384L7.94 6.448a.997.997 0 0 0-1.225-.707.997.997 0 0 0-.707 1.225l.67 2.498L3.502 7.63a1.002 1.002 0 0 0-1.36.37.994.994 0 0 0 .36 1.362l3.206 1.851-2.498.67a.997.997 0 0 0-.707 1.224.997.997 0 0 0 1.225.707l4.44-1.18L14 16l-5.861 3.384-4.44-1.18a.997.997 0 0 0-1.225.706.997.997 0 0 0 .707 1.225l2.497.67-3.175 1.833c-.468.27-.636.884-.36 1.362a.994.994 0 0 0 1.36.37l3.206-1.851-.669 2.498a.997.997 0 0 0 .707 1.224.997.997 0 0 0 1.225-.707l1.198-4.436L15 17.732v6.804l-3.243 3.318a.997.997 0 0 0 0 1.414.997.997 0 0 0 1.414 0L15 27.439v3.568c0 .54.448.993 1 .993.556 0 1-.444 1-.993v-3.603l1.829 1.828a.997.997 0 0 0 1.414 0 .997.997 0 0 0 0-1.414L17 24.5v-6.768l5.892 3.402 1.252 4.467a.997.997 0 0 0 1.225.707.997.997 0 0 0 .707-1.224l-.67-2.498 3.09 1.784c.469.27 1.084.108 1.36-.37a.994.994 0 0 0-.36-1.362l-3.12-1.802 2.498-.67a.997.997 0 0 0 .707-1.224.997.997 0 0 0-1.225-.707l-4.495 1.149L18 16l5.892-3.402 4.495 1.15a.997.997 0 0 0 1.225-.708.997.997 0 0 0-.707-1.224l-2.498-.67 3.09-1.784c.468-.27.636-.884.36-1.362a.994.994 0 0 0-1.36-.37l-3.121 1.802.67-2.498a.997.997 0 0 0-.708-1.224.997.997 0 0 0-1.225.707l-1.252 4.467L17 14.268Z"/></g></svg>