<svg width="32" height="32" xmlns="http://www.w3.org/2000/svg"><path d="M6 21v-5.993C6 9.48 10.476 5 16 5c5.525 0 10 4.476 10 10.007V21H6Zm21 1h1c1.103 0 2 .897 2 2s-.898 2-2 2H4c-1.103 0-2-.897-2-2s.898-2 2-2h23ZM0 24c0 2.207 1.792 4 4 4h24c2.206 0 4-1.792 4-4 0-2.207-1.792-4-4-4v-4.993C28 8.371 22.63 3 16 3 9.372 3 4 8.376 4 15.007V20c-2.206 0-4 1.792-4 4Zm22.5-5a1.5 1.5 0 1 1 0-3 1.5 1.5 0 0 1 0 3Zm0-1a.5.5 0 1 1 0-1 .5.5 0 0 1 0 1ZM16 19a5 5 0 1 1 0-10 5 5 0 0 1 0 10Zm0-1a4 4 0 1 0 0-8 4 4 0 0 0 0 8Zm0-2a2 2 0 1 1 0-4 2 2 0 0 1 0 4Zm0-1a1 1 0 1 0 0-2 1 1 0 0 0 0 2Z" fill="#000" fill-rule="evenodd"/></svg>