<?xml version="1.0" encoding="UTF-8" standalone="no"?>
<svg width="32px" height="32px" viewBox="0 0 32 32" version="1.1" xmlns="http://www.w3.org/2000/svg" xmlns:xlink="http://www.w3.org/1999/xlink" xmlns:sketch="http://www.bohemiancoding.com/sketch/ns">
    <!-- Generator: Sketch 3.3.2 (12043) - http://www.bohemiancoding.com/sketch -->
    <title>dome camera</title>
    <desc>Created with Sketch.</desc>
    <defs></defs>
    <g id="flatten" stroke="none" stroke-width="1" fill="none" fill-rule="evenodd" sketch:type="MSPage">
        <g id="z-copy" sketch:type="MSArtboardGroup" transform="translate(-68.000000, -68.000000)" fill="#000000">
            <g id="dome-camera" sketch:type="MSLayerGroup" transform="translate(68.000000, 68.000000)">
                <path d="M6,21 L6,15.0074961 C6,9.47987572 10.4764494,5 16,5 C21.5253025,5 26,9.47570791 26,15.0074961 L26,21 L6,21 L6,21 L6,21 Z M27,22 L27.9999809,22 C29.1032251,22 30,22.8974653 30,24 C30,25.1029166 29.1020507,26 27.9999809,26 L4.00001915,26 C2.8967749,26 2,25.1025347 2,24 C2,22.8970834 2.89794926,22 4.00001915,22 L5,22 L27,22 L27,22 Z M0,24 C0,26.2067598 1.79186071,28 4.00001915,28 L27.9999809,28 C30.2061885,28 32,26.2079182 32,24 C32,21.7932402 30.2081393,20 27.9999809,20 L28,15.0074961 C28,8.37123948 22.6299731,3 16,3 C9.37153723,3 4,8.37564863 4,15.0074961 L4.00001915,20 C1.79381145,20 0,21.7920818 0,24 L0,24 Z M22.5,19 C21.6715729,19 21,18.3284271 21,17.5 C21,16.6715729 21.6715729,16 22.5,16 C23.3284271,16 24,16.6715729 24,17.5 C24,18.3284271 23.3284271,19 22.5,19 L22.5,19 Z M22.5,18 C22.2238576,18 22,17.7761424 22,17.5 C22,17.2238576 22.2238576,17 22.5,17 C22.7761424,17 23,17.2238576 23,17.5 C23,17.7761424 22.7761424,18 22.5,18 L22.5,18 Z M16,19 C13.2385763,19 11,16.7614237 11,14 C11,11.2385763 13.2385763,9 16,9 C18.7614237,9 21,11.2385763 21,14 C21,16.7614237 18.7614237,19 16,19 L16,19 Z M16,18 C18.209139,18 20,16.209139 20,14 C20,11.790861 18.209139,10 16,10 C13.790861,10 12,11.790861 12,14 C12,16.209139 13.790861,18 16,18 L16,18 Z M16,16 C14.8954305,16 14,15.1045695 14,14 C14,12.8954305 14.8954305,12 16,12 C17.1045695,12 18,12.8954305 18,14 C18,15.1045695 17.1045695,16 16,16 L16,16 Z M16,15 C16.5522847,15 17,14.5522847 17,14 C17,13.4477153 16.5522847,13 16,13 C15.4477153,13 15,13.4477153 15,14 C15,14.5522847 15.4477153,15 16,15 L16,15 Z" sketch:type="MSShapeGroup"></path>
            </g>
        </g>
    </g>
</svg>