<svg width="32" height="32" xmlns="http://www.w3.org/2000/svg"><path d="M26 9V3.997C26 1.798 24.21 0 22 0H10C7.791 0 6 1.793 6 4.004v23.992A4 4 0 0 0 10 32h12a4 4 0 0 0 4-3.997V15h3c1.66 0 3-1.342 3-3 0-1.663-1.341-3-3-3h-3Zm-2 6v13.003A2 2 0 0 1 22 30H10a2 2 0 0 1-2-2.004V4.004C8 2.898 8.897 2 10 2h12c1.101 0 2 .9 2 1.997V9h-2.803a6 6 0 1 0 0 6H24Zm-3.998 0a5.001 5.001 0 1 1 0-6H16c-1.66 0-3 1.342-3 3 0 1.663 1.341 3 3 3h4.002ZM16 26a3 3 0 1 1 0-6 3 3 0 0 1 0 6Zm0-1a2 2 0 1 0 0-4 2 2 0 0 0 0 4Zm-1-13c0-.555.445-1 1-1h13c.556 0 1 .443 1 1 0 .555-.445 1-1 1H16c-.556 0-1-.443-1-1Z" fill="#000" fill-rule="evenodd"/></svg>