<svg width="32" height="32" xmlns="http://www.w3.org/2000/svg"><path d="M4 4.004A3.996 3.996 0 0 1 7.99 0h16.02A3.995 3.995 0 0 1 28 4.004v23.992A3.996 3.996 0 0 1 24.01 32H7.99A3.995 3.995 0 0 1 4 27.996V4.004Zm2 0v23.992C6 29.106 6.891 30 7.99 30h16.02c1.099 0 1.99-.895 1.99-2.004V4.004C26 2.894 25.109 2 24.01 2H7.99C6.891 2 6 2.895 6 4.004ZM16 17a6 6 0 1 1 0-12 6 6 0 0 1 0 12Zm0-1a5 5 0 1 0 0-10 5 5 0 0 0 0 10Zm-3 4.5a.5.5 0 0 1 .491-.5h5.018a.5.5 0 0 1 0 1h-5.018a.5.5 0 0 1-.491-.5Zm-2 2c0-.276.228-.5.51-.5h8.98a.51.51 0 0 1 .51.5c0 .276-.228.5-.51.5h-8.98a.51.51 0 0 1-.51-.5Zm0 2c0-.276.228-.5.51-.5h8.98a.51.51 0 0 1 .51.5c0 .276-.228.5-.51.5h-8.98a.51.51 0 0 1-.51-.5Zm2 2a.5.5 0 0 1 .491-.5h5.018a.5.5 0 0 1 0 1h-5.018a.5.5 0 0 1-.491-.5ZM13 11c0 1 1 1 1 0s1-2 2-2 1-1 0-1c-1.5 0-3 1.5-3 3Z" fill="#000" fill-rule="evenodd"/></svg>