<svg width="32" height="32" xmlns="http://www.w3.org/2000/svg"><path d="M4 20c0-6.263 5.311-9.04 11.003-18.312C15.5 1 16.5 1 17.024 1.738 22.724 11.042 28 13.746 28 20c0 6.627-5.373 12-12 12S4 26.627 4 20ZM14.966 5.013c-2.281 2.935-7.413 10.136-7.53 10.325C6.446 16.946 6 18.344 6 20c0 5.523 4.477 10 10 10s10-4.477 10-10c0-1.656-.443-3.044-1.43-4.643-.086-.138-5.244-7.386-7.52-10.339-.556-.722-1.525-.724-2.084-.005ZM16 27.545c0 .5-.738.478-1.074.434a8.004 8.004 0 0 1-6.91-6.93C7.983 20.8 7.952 20 8.452 20s.583 1.128.583 1.128a7.005 7.005 0 0 0 5.833 5.833s1.131.084 1.131.584Z" fill="#000" fill-rule="evenodd"/></svg>