<svg width="32" height="32" xmlns="http://www.w3.org/2000/svg"><path d="M8.995 11.986A5.994 5.994 0 1 0 8.995 0a5.994 5.994 0 1 0 0 11.986Zm5.994 7.986a5.994 5.994 0 0 0-5.994-5.993 5.994 5.994 0 1 0 0 11.986 5.994 5.994 0 0 0 5.994-5.993Zm8.016-7.986a5.994 5.994 0 1 0 0-11.986 5.994 5.994 0 1 0 0 11.986Zm-.027 13.98a5.994 5.994 0 1 0 0-11.987 5.994 5.994 0 1 0 0 11.986Zm0-2a3.994 3.994 0 1 1-.001-7.988 3.994 3.994 0 0 1 0 7.987Zm.027-13.98a3.994 3.994 0 1 1 0-7.987 3.994 3.994 0 0 1 0 7.987Zm-14.01 13.98a3.994 3.994 0 1 1-.001-7.988 3.994 3.994 0 0 1 0 7.987Zm0-13.98A3.994 3.994 0 1 1 8.994 2a3.994 3.994 0 0 1 0 7.987ZM21.005 31a1 1 0 1 0 0-2 1 1 0 0 0 0 2Zm4 0a1 1 0 1 0 .001-2 1 1 0 0 0 0 2Zm-14.003 0a1 1 0 1 0 0-2 1 1 0 0 0 0 2Zm-4 0a1 1 0 1 0 0-2 1 1 0 0 0 0 2Zm9.001 1a2 2 0 1 1 0-4 2 2 0 0 1 0 4Zm0-1a1 1 0 1 0 0-2 1 1 0 0 0 0 2Z" fill="#000" fill-rule="evenodd"/></svg>