<svg width="32" height="32" xmlns="http://www.w3.org/2000/svg"><path d="M3.984 10.64c0 2.749 0 13.908-.006 17.34 0 .638.445 1.009 1.041 1.009l1.999-.002c.557 0 .966-.696.966-.998v-13c0-1.105.894-2 1.994-2H21.99c1.101 0 1.994.888 1.994 2v8l-.007 4.976c0 .61.452 1.024 1.055 1.025.607 0 1.365.001 1.96.003.57.001.992-.69.992-1.004V10.57L16.05 4.172 3.984 10.64ZM1.978 29.01c0 1.09.89 1.99 1.984 1.99h4.006a1.999 1.999 0 0 0 1.985-2.004v-4.999h11.962v5c0 1.112.884 2.003 1.985 2.003h4.005c1.09 0 1.985-.892 1.985-1.99V11.645l.642.345a.995.995 0 0 0 1.35-.409 1.002 1.002 0 0 0-.408-1.354l-14.66-7.889A.997.997 0 0 0 16 2.002a.997.997 0 0 0-.815.337L.526 10.228a1.002 1.002 0 0 0-.407 1.354c.26.487.864.67 1.35.41l.509-.275v17.292Zm7.006-9.02h14v2h-14v-2Zm0-3h14v2h-14v-2Zm12.993-3c.556 0 1.007.443 1.007 1v1h-14v-1c0-.553.45-1 1.007-1h11.986Z" fill="#000" fill-rule="evenodd"/></svg>