<svg width="32" height="32" xmlns="http://www.w3.org/2000/svg"><path d="M15 9.955a2.351 2.351 0 0 1-1.8-1.464c-.19-.474-.206-.716-.2-1.376V7c0-.287-.457-.725-1-.911v19.822c.543-.186 1-.624 1-.911v-.119c-.007-.658.01-.9.2-1.376a2.351 2.351 0 0 1 1.8-1.46V9.955Zm1 0a2.351 2.351 0 0 0 1.8-1.46c.19-.476.207-.718.2-1.376V7c0-.287.457-.725 1-.911v19.822c-.543-.186-1-.624-1-.911v-.115c.006-.66-.01-.901-.2-1.376a2.352 2.352 0 0 0-1.8-1.464V9.955Zm-8 0a2.351 2.351 0 0 0 1.8-1.46c.19-.476.207-.718.2-1.376V7c0-.287.457-.725 1-.911v19.822c-.543-.186-1-.624-1-.911v-.115c.006-.66-.01-.902-.2-1.377A2.351 2.351 0 0 0 8 22.045V9.955Zm-1 0a2.351 2.351 0 0 1-1.8-1.464c-.19-.474-.206-.716-.2-1.376V7c0-.287-.457-.725-1-.911v19.822c.543-.186 1-.624 1-.911v-.119c-.007-.658.01-.9.2-1.376a2.351 2.351 0 0 1 1.8-1.46V9.955ZM3 6.09c-.543.186-1 .624-1 .911v18c0 .287.457.725 1 .911V6.089Zm17 19.822c.543-.186 1-.624 1-.911V7c0-.287-.457-.725-1-.911v19.822ZM15 7c0 .556-.052 1 .5 1 .556 0 .5-.448.5-1 0-2 2.46-3 3.5-3C21.157 4 23 5.343 23 7v18c0 1.657-1.843 3-3.5 3-1.04 0-3.5-1-3.5-3 0-.556.052-1-.5-1-.556 0-.5.448-.5 1 0 2-2.46 3-3.5 3S8 27 8 25c0-.556.052-1-.5-1-.556 0-.5.448-.5 1 0 2-2.46 3-3.5 3C1.843 28 0 26.657 0 25V7c0-1.657 1.843-3 3.5-3C4.54 4 7 5 7 7c0 .556-.052 1 .5 1 .556 0 .5-.448.5-1 0-2 2.46-3 3.5-3S15 5 15 7Zm9-1.003A4.001 4.001 0 0 1 28 2c2.21 0 4 1.794 4 3.997v20.006A4.001 4.001 0 0 1 28 30c-2.21 0-4-1.794-4-3.997V5.997Zm2 0v20.006c0 1.1.897 1.997 2 1.997 1.102 0 2-.896 2-1.997V5.997C30 4.897 29.103 4 28 4c-1.102 0-2 .896-2 1.997ZM28 10a1 1 0 1 0 0-2 1 1 0 0 0 0 2Zm0 6a1 1 0 1 0 0-2 1 1 0 0 0 0 2Zm0 4a1 1 0 1 0 0-2 1 1 0 0 0 0 2Zm0 4a1 1 0 1 0 0-2 1 1 0 0 0 0 2Z" fill="#000" fill-rule="evenodd"/></svg>