<svg width="32" height="32" xmlns="http://www.w3.org/2000/svg"><path d="M10.144 25.49c.142 1.215.387 2.48.748 3.799-4.633-1.871-7.32-5.109-8.494-9.4-.856-3.128-.829-6.519-.26-9.71l.038-.216s.162.058.75.314a26.994 26.994 0 0 1 4.931 2.775c1.335.956 2.452 1.967 3.366 3.038-.796 2.101-1.255 4.44-1.23 7.034l-4.559-8.363a.5.5 0 1 0-.877.478l5.587 10.252Zm2.89 3.924c-2.043-9.508-1.945-14.492 8.48-22.678 2.099-1.65 4.46-2.723 6.774-3.7.809-.342 1.03-.418 1.03-.418l.054.286c.78 4.256.818 8.777-.358 12.949-1.863 6.609-6.502 11.343-14.83 13.56L25.412 9.749a.5.5 0 0 0-.868-.496l-11.51 20.162ZM13.487 32C38.966 25.5 30.756 0 30.756 0S17.03 3.723 11.989 14.5C7.993 9 .873 8 .873 8c-4.87 22.5 12.615 24 12.615 24Z" fill="#000" fill-rule="evenodd"/></svg>