<svg width="32" height="32" xmlns="http://www.w3.org/2000/svg"><path d="M4 7.997A3.992 3.992 0 0 1 7.99 4h16.02A3.996 3.996 0 0 1 28 7.997v20.006A3.992 3.992 0 0 1 24.01 32H7.99A3.996 3.996 0 0 1 4 28.003V7.997Zm2 0v20.006C6 29.104 6.894 30 7.99 30h16.02c1.1 0 1.99-.892 1.99-1.997V7.997C26 6.896 25.106 6 24.01 6H7.99C6.89 6 6 6.892 6 7.997ZM16 21a5 5 0 1 1 0-10 5 5 0 0 1 0 10Zm0-1a4 4 0 1 0 0-8 4 4 0 0 0 0 8Zm0-2a2 2 0 1 1 0-4 2 2 0 0 1 0 4Zm0-1a1 1 0 1 0 0-2 1 1 0 0 0 0 2ZM30 6s0 1 1 1 1-1 1-1V3.99C32 1.784 29.955 0 27.432 0H4.568C2.05 0 0 1.786 0 3.99V6s0 1 1 1 1-1 1-1V3.99C2 2.958 3.097 2 4.568 2h22.864C28.907 2 30 2.954 30 3.99V6Zm-7.5 5a1.5 1.5 0 1 1 0-3 1.5 1.5 0 0 1 0 3ZM10 26.5c0-.833.68-1.5 1.51-1.5h8.98c.83 0 1.51.675 1.51 1.5 0 .833-.68 1.5-1.51 1.5h-8.98A1.51 1.51 0 0 1 10 26.5Zm1 0c0 .268.228.5.51.5h8.98c.282 0 .51-.224.51-.5a.51.51 0 0 0-.51-.5h-8.98a.505.505 0 0 0-.51.5ZM22.5 10a.5.5 0 1 0 0-1 .5.5 0 0 0 0 1Z" fill="#000" fill-rule="evenodd"/></svg>