<?xml version="1.0" encoding="UTF-8" standalone="no"?>
<svg width="32px" height="32px" viewBox="0 0 32 32" version="1.1" xmlns="http://www.w3.org/2000/svg" xmlns:xlink="http://www.w3.org/1999/xlink" xmlns:sketch="http://www.bohemiancoding.com/sketch/ns">
    <!-- Generator: Sketch 3.3.2 (12043) - http://www.bohemiancoding.com/sketch -->
    <title>key</title>
    <desc>Created with Sketch.</desc>
    <defs></defs>
    <g id="flatten" stroke="none" stroke-width="1" fill="none" fill-rule="evenodd" sketch:type="MSPage">
        <g id="z-copy" sketch:type="MSArtboardGroup" transform="translate(-132.000000, -4.000000)" fill="#000000">
            <g id="key" sketch:type="MSLayerGroup" transform="translate(125.000000, 0.000000)">
                <path d="M18.9773514,36.3137397 L17.3543418,34.6984571 L17.5196346,25.232346 C17.487146,22.677132 15.7468783,19.6425185 13.5585621,18.3276711 L10.9517006,16.7613412 C10.8090258,16.6756152 10.6484783,16.3609187 10.6634037,16.1947217 L11.1913994,10.3153824 C11.2199767,9.99716789 11.4715698,9.45695904 11.6921878,9.23663279 L14.5336569,6.39892127 C14.7297024,6.20313499 15.2404267,5.99168742 15.5220514,5.99168742 L27.6752911,5.99168742 C27.96375,5.99168742 28.4626704,6.19817183 28.6636858,6.39892135 L31.5051554,9.23663303 C31.6784051,9.40965367 31.8495774,9.88322502 31.8268327,10.1364919 L31.2988364,16.015831 C31.2753973,16.2768304 31.0248643,16.7155472 30.8164582,16.8639939 L29.0742515,18.1049594 C26.99844,19.5835501 25.4060023,22.7165482 25.4345076,25.2577624 L25.8430019,34.6984571 L24.219992,36.3137399 L24.219992,36.3137399 L24.219992,24.0767995 L23.219992,24.0767995 L23.219992,36.8096784 L19.9773514,36.8096784 L19.9773514,24.0767995 L18.9773514,24.0767995 L18.9773514,36.3137397 L18.9773514,36.3137397 Z M15.5220514,3.99168742 C14.7103361,3.99168742 13.6913391,4.41356755 13.1203793,4.98377232 L10.2789102,7.82148385 C9.72539998,8.37426215 9.26982732,9.35244631 9.1994159,10.1364918 L8.67142024,16.015831 C8.58783602,16.9465584 9.1231952,17.9959405 9.92163923,18.4756847 L12.5285007,20.0420145 C14.1224199,20.9997191 15.4961132,23.3951141 15.5197963,25.2577733 L15.6490051,35.4199627 L15.6541945,35.8281062 L15.9435068,36.1160411 L18.0648275,38.2272624 L18.3574285,38.5184704 L18.770245,38.5184704 L24.4270987,38.5184704 L24.8399152,38.5184704 L25.1325162,38.2272624 L27.2538369,36.1160411 L27.5530922,35.8182106 L27.5483565,35.3960326 L27.4343818,25.2353294 C27.41322,23.3487741 28.6921133,20.8326501 30.2345799,19.7339585 L31.9767866,18.492993 C32.6619169,18.0049779 33.2152702,17.0359824 33.2908199,16.1947218 L33.8188161,10.3153827 C33.8945329,9.47226211 33.5121885,8.41445444 32.9184328,7.821484 L30.0769633,4.98377232 C29.5009673,4.40853815 28.4937468,3.99168742 27.6752911,3.99168742 L15.5220514,3.99168742 L15.5220514,3.99168742 Z M17.2494293,11.4346639 C17.2494293,10.3300944 18.1359841,9.43466387 19.2553483,9.43466387 L22.2435102,9.43466387 C23.3513487,9.43466387 24.2494293,10.3223935 24.2494293,11.4346639 C24.2494293,12.5392334 23.3628745,13.4346639 22.2435102,13.4346639 L19.2553483,13.4346639 C18.1475098,13.4346639 17.2494293,12.5469342 17.2494293,11.4346639 L17.2494293,11.4346639 Z M18.2494293,11.4346639 C18.2494293,11.9907282 18.6958662,12.4346639 19.2553483,12.4346639 L22.2435102,12.4346639 C22.8063802,12.4346639 23.2494293,11.9911619 23.2494293,11.4346639 C23.2494293,10.8785995 22.8029924,10.4346639 22.2435102,10.4346639 L19.2553483,10.4346639 C18.6924784,10.4346639 18.2494293,10.8781658 18.2494293,11.4346639 L18.2494293,11.4346639 Z" sketch:type="MSShapeGroup" transform="translate(21.245594, 21.255079) rotate(-315.000000) translate(-21.245594, -21.255079) "></path>
            </g>
        </g>
    </g>
</svg>