<?xml version="1.0" encoding="UTF-8" standalone="no"?>
<svg width="32px" height="32px" viewBox="0 0 32 32" version="1.1" xmlns="http://www.w3.org/2000/svg" xmlns:xlink="http://www.w3.org/1999/xlink" xmlns:sketch="http://www.bohemiancoding.com/sketch/ns">
    <!-- Generator: Sketch 3.3.2 (12043) - http://www.bohemiancoding.com/sketch -->
    <title>loudspeakers</title>
    <desc>Created with Sketch.</desc>
    <defs></defs>
    <g id="flatten" stroke="none" stroke-width="1" fill="none" fill-rule="evenodd" sketch:type="MSPage">
        <g id="z-copy" sketch:type="MSArtboardGroup" transform="translate(-4.000000, -196.000000)" fill="#000000">
            <g id="loudspeakers" sketch:type="MSLayerGroup" transform="translate(4.000000, 196.000000)">
                <path d="M16,32 C20.9705627,32 25,27.9705627 25,23 C25,18.0294373 20.9705627,14 16,14 C11.0294373,14 7,18.0294373 7,23 C7,27.9705627 11.0294373,32 16,32 L16,32 Z M16,30 C12.1340068,30 9,26.8659932 9,23 C9,19.1340068 12.1340068,16 16,16 C19.8659932,16 23,19.1340068 23,23 C23,26.8659932 19.8659932,30 16,30 L16,30 Z M16,29 C12.6862915,29 10,26.3137085 10,23 C10,19.6862915 12.6862915,17 16,17 C19.3137085,17 22,19.6862915 22,23 C22,26.3137085 19.3137085,29 16,29 L16,29 Z M16,28 C18.7614237,28 21,25.7614237 21,23 C21,20.2385763 18.7614237,18 16,18 C13.2385763,18 11,20.2385763 11,23 C11,25.7614237 13.2385763,28 16,28 L16,28 Z M16,24 C15.4477153,24 15,23.5522847 15,23 C15,22.4477153 15.4477153,22 16,22 C16.5522847,22 17,22.4477153 17,23 C17,23.5522847 16.5522847,24 16,24 L16,24 Z M16,12 C19.3137085,12 22,9.3137085 22,6 C22,2.6862915 19.3137085,0 16,0 C12.6862915,0 10,2.6862915 10,6 C10,9.3137085 12.6862915,12 16,12 L16,12 Z M16,10 C13.790861,10 12,8.209139 12,6 C12,3.790861 13.790861,2 16,2 C18.209139,2 20,3.790861 20,6 C20,8.209139 18.209139,10 16,10 L16,10 Z M16,9 C14.3431458,9 13,7.65685425 13,6 C13,4.34314575 14.3431458,3 16,3 C17.6568542,3 19,4.34314575 19,6 C19,7.65685425 17.6568542,9 16,9 L16,9 Z M16,8 C17.1045695,8 18,7.1045695 18,6 C18,4.8954305 17.1045695,4 16,4 C14.8954305,4 14,4.8954305 14,6 C14,7.1045695 14.8954305,8 16,8 L16,8 Z" sketch:type="MSShapeGroup"></path>
            </g>
        </g>
    </g>
</svg>