<svg width="32" height="32" xmlns="http://www.w3.org/2000/svg"><path d="M16 13c-3.989 0-10 6.09-10 11 0 3.262 1.01 5.12 2.825 5.766.626.223 1.144.263 1.941.24C10.924 30 10.952 30 11 30c.419 0 .839-.137 1.42-.405.193-.09.396-.19.686-.336-.207.105.542-.278.716-.365.582-.29 1.028-.49 1.448-.639.323-.113.614-.19.874-.227h-.286c.26.037.55.113.873.226.421.148.867.346 1.449.636.174.086.923.466.717.362.289.146.492.245.686.334.58.266 1 .402 1.417.402.048 0 .076 0 .234.006.797.024 1.315-.017 1.941-.24C24.99 29.11 26 27.25 26 23.988 26 19.078 19.992 13 16 13Zm0 2c2.882 0 8 5.178 8 8.988 0 2.49-.579 3.556-1.495 3.882-.328.116-.647.142-1.21.125a8.233 8.233 0 0 0-.295-.007c-.14 0-.133.004-1.93-.89a14.528 14.528 0 0 0-1.676-.731 6.664 6.664 0 0 0-1.25-.319l-.143-.02-.144.02c-.4.058-.814.167-1.252.322-.514.18-1.027.41-1.677.736-1.795.897-1.789.894-1.928.894-.077 0-.109 0-.294.006-.564.017-.883-.008-1.211-.124C8.579 27.556 8 26.49 8 24c0-3.812 5.121-9 8-9Zm-4.944-3.655c2.168-.58 3.076-4.444 2.41-6.932a4.121 4.121 0 1 0-7.962 2.134c.666 2.487 3.384 5.38 5.552 4.798Zm-.517-1.931c-.777.208-2.685-1.823-3.104-3.385a2.121 2.121 0 1 1 4.099-1.098c.418 1.562-.219 4.275-.995 4.483Zm-4.526 7.959c1.677-.968 1.575-4.25.5-6.111a3.49 3.49 0 0 0-4.768-1.277A3.487 3.487 0 0 0 .468 14.75c1.075 1.861 3.868 3.59 5.545 2.623ZM4.92 15.64c-.428.247-2.214-.86-2.81-1.891a1.488 1.488 0 0 1 2.577-1.488c.596 1.032.661 3.132.233 3.379Zm15.024-4.296c2.168.581 4.886-2.31 5.552-4.798a4.121 4.121 0 0 0-7.962-2.134c-.666 2.488.242 6.351 2.41 6.932Zm.517-1.931c-.776-.208-1.413-2.921-.995-4.483a2.121 2.121 0 0 1 4.099 1.098c-.419 1.562-2.327 3.593-3.104 3.385Zm5.523 7.949c1.673.966 4.457-.76 5.53-2.618a3.483 3.483 0 0 0-1.275-4.757 3.479 3.479 0 0 0-4.754 1.275c-1.072 1.858-1.174 5.134.499 6.1Zm1.108-1.732c-.425-.246-.36-2.34.234-3.368a1.482 1.482 0 1 1 2.567 1.482c-.594 1.028-2.375 2.132-2.8 1.886Z" fill="#000" fill-rule="evenodd"/></svg>