<svg width="32" height="32" xmlns="http://www.w3.org/2000/svg"><path d="M11 23c-.622-1.908-1.499-2.88-2.78-3.88a12.194 12.194 0 0 0-1.282-.86c-.009-.006-.99-.579-1.25-.743-.786-.497-1.28-.95-1.586-1.578L4 15.731V10.01A3 3 0 0 1 6.991 7H10V.998C10 .447 10.444 0 11 0c.552 0 1 .446 1 .998V7h8V.998C20 .447 20.444 0 21 0c.552 0 1 .446 1 .998V7h3.009A2.994 2.994 0 0 1 28 10.01v5.721l-.102.208c-.285.583-.741 1.03-1.442 1.514.163-.113-2.063 1.292-2.7 1.807C22.494 20.282 21.63 21.207 21 23v2s0 1-2 1v6h-6l-.003-6C11 26 11 25 11 25v-2Zm2 1v-1.159l-.05-.15c-.748-2.298-1.912-3.91-3.5-5.148a14.098 14.098 0 0 0-1.485-1c-.037-.022-.984-.574-1.208-.716-.5-.317-.65-.608-.757-.827v-4.99A1 1 0 0 1 6.991 9H25.01c.55 0 .991.444.991 1.01V15c-.102.21-.236.5-.679.806-.154.106-.327.217-.572.37l-.683.425c-.616.389-1.094.72-1.568 1.105-1.541 1.247-2.684 2.807-3.441 4.963l-.057.16V24h-6Zm-1-10h8v1h-8v-1Zm1 2h6v1h-6v-1Zm0-4h6v1h-6v-1Zm2 14h2v4h-2v-4Z" fill="#000" fill-rule="evenodd"/></svg>