<svg width="32" height="32" xmlns="http://www.w3.org/2000/svg"><path d="M19.002 9V6.985a1 1 0 0 0-2 .016s0 1-1 1-1-1-1-1a3 3 0 0 1 6 0V18.84a4.02 4.02 0 0 0 .788-1.093c.369-.75 1.447-.75 1.815 0a4.043 4.043 0 0 0 3.632 2.256c1.597 0 2.98-.924 3.634-2.259.402-.741 1.41-.741.987.266a5.052 5.052 0 0 1-4.62 2.993 5.055 5.055 0 0 1-3.924-1.857c-.616-.64-.616-.64-1.234 0a5.053 5.053 0 0 1-3.922 1.857 5.055 5.055 0 0 1-3.923-1.857c-.616-.64-.616-.64-1.234 0a5.053 5.053 0 0 1-3.922 1.857 5.055 5.055 0 0 1-3.923-1.857c-.616-.64-.616-.64-1.234 0A5.053 5.053 0 0 1 0 21.002v-1c1.56 0 2.96-.888 3.632-2.256.368-.75 1.446-.75 1.814 0a4.043 4.043 0 0 0 3.633 2.256c1.13 0 2.176-.466 2.922-1.242V6.984a1 1 0 0 0-2 .016s0 1-1 1-1-1-1-1a3 3 0 1 1 6 0v2h5Zm0 2v2.001h-5v-2h5Zm0 8.914v-.912h-3.513a4.052 4.052 0 0 0 3.513.912Zm0-2.912v-2h-5v2h5Zm-5.2 11.002a5.055 5.055 0 0 0 3.923-1.858c.616-.64.616-.64 1.234 0a5.053 5.053 0 0 0 3.922 1.858 5.055 5.055 0 0 0 3.923-1.858c.616-.64.616-.64 1.234 0a5.053 5.053 0 0 0 3.922 1.858v-1c-1.56 0-2.96-.889-3.632-2.257-.368-.75-1.446-.75-1.814 0a4.043 4.043 0 0 1-3.633 2.256c-1.56 0-2.96-.888-3.632-2.256-.368-.75-1.446-.75-1.814 0a4.043 4.043 0 0 1-3.633 2.256c-1.56 0-2.96-.888-3.632-2.256-.369-.75-1.447-.75-1.815 0a4.043 4.043 0 0 1-3.632 2.256 4.045 4.045 0 0 1-3.634-2.258c-.402-.742-1.41-.742-.987.265a5.052 5.052 0 0 0 4.62 2.994 5.055 5.055 0 0 0 3.924-1.858c.616-.64.616-.64 1.234 0a5.053 5.053 0 0 0 3.922 1.858Z" fill="#000" fill-rule="evenodd"/></svg>