<svg width="32" height="32" xmlns="http://www.w3.org/2000/svg"><path d="M16 32c8.837 0 16-7.163 16-16S24.837 0 16 0 0 7.163 0 16s7.163 16 16 16Zm0-2C8.268 30 2 23.732 2 16S8.268 2 16 2s14 6.268 14 14-6.268 14-14 14ZM15 7.998c0-.551.444-.998 1-.998.552 0 1 .446 1 .998v7.004c0 .551-.444.998-1 .998-.552 0-1-.446-1-.998V7.998ZM21.459 9.5c-.459.477-.285 1.335 0 1.703A7.38 7.38 0 0 1 23 15.745C23 19.764 19.853 23 16 23s-7-3.236-7-7.255c0-1.703.566-3.31 1.584-4.597.289-.365.416-1.18-.084-1.648-.5-.467-1.485.407-1.485.407A9.38 9.38 0 0 0 7 15.745C7 20.856 11.03 25 16 25s9-4.144 9-9.255a9.381 9.381 0 0 0-1.96-5.768s-1.122-.954-1.581-.477Z" fill="#000" fill-rule="evenodd"/></svg>