<svg width="32" height="32" xmlns="http://www.w3.org/2000/svg"><path d="M16 32c8.837 0 16-7.163 16-16S24.837 0 16 0 0 7.163 0 16s7.163 16 16 16Zm0-2C8.268 30 2 23.732 2 16S8.268 2 16 2s14 6.268 14 14-6.268 14-14 14Zm-3.742-12.289h-.071c-1.109 0-1.54-.764-.966-1.707l5.26-8.65c1.198-1.97 1.581-1.795.857.393l-1.613 4.866c-.348 1.05.27 1.892 1.374 1.892h3.099l-.013.013h.07c1.11 0 1.54.764.966 1.707l-5.037 8.283c-1.32 2.171-1.743 1.976-.942-.44l1.475-4.452c.348-1.05-.27-1.892-1.374-1.892h-3.099l.014-.013Z" fill="#000" fill-rule="evenodd"/></svg>