<svg width="32" height="32" xmlns="http://www.w3.org/2000/svg"><path d="m18.21 29 1.314 1.293a.989.989 0 0 1 0 1.414c-.397.39-1.04.39-1.437 0l-3.05-3a.989.989 0 0 1 0-1.414l3.05-3c.397-.39 1.04-.39 1.437 0a.989.989 0 0 1 0 1.414L18.21 27h8.992c2.584 0 3.474-1.511 2.194-3.733l-1.506-2.615-.957-1.66a.991.991 0 0 1 .384-1.363 1.026 1.026 0 0 1 1.385.377l.956 1.66 1.507 2.615c2.046 3.553.182 6.719-3.963 6.719H18.21Zm6.652-17.66.5-1.83c.144-.534.702-.85 1.244-.708a.998.998 0 0 1 .719 1.225l-1.116 4.098a1 1 0 0 1-.474.607c-.225.128-.5.171-.771.1l-4.166-1.098a.998.998 0 0 1-.719-1.225c.145-.533.703-.85 1.245-.707l1.73.456-4.068-7.064-.85-1.475c-1.277-2.217-2.976-2.215-4.252 0l-1.452 2.52-.998 1.734c-.277.48-.897.65-1.386.377a.991.991 0 0 1-.383-1.363l.998-1.733 1.452-2.521c2.054-3.565 5.733-3.57 7.79 0l.85 1.475 4.107 7.132ZM5.707 13.857l-1.8.475a1.018 1.018 0 0 1-1.245-.707.998.998 0 0 1 .719-1.225l4.166-1.098c.27-.071.546-.028.77.1a1 1 0 0 1 .475.607l1.116 4.098a.998.998 0 0 1-.719 1.225 1.018 1.018 0 0 1-1.245-.707l-.48-1.761-3.209 5.571-1.631 2.832C1.34 25.493 2.236 27 4.834 27H9.91c.561 0 1.016.448 1.016 1s-.455 1-1.016 1H4.833C.68 29-1.196 25.841.855 22.281l1.631-2.832 3.221-5.592Z" fill="#000" fill-rule="evenodd"/></svg>