<svg width="32" height="32" xmlns="http://www.w3.org/2000/svg"><path d="M7 15c0-1.105.839-2.321 1.877-2.677 0 0 2.898-1.323 7.26-1.323 4.363 0 6.996 1.295 6.996 1.295C24.164 12.685 25 13.89 25 15v13c0 1.105-.83 2.335-1.867 2.705 0 0-2.633 1.295-6.995 1.295-4.363 0-7.261-1.323-7.261-1.323C7.84 30.303 7 29.11 7 28V15Zm2 0v13c0 .265.31.707.555.796l.152.062c.044.02.172.072.376.147.367.134.8.27 1.292.398 1.43.372 3.033.597 4.763.597 1.726 0 3.273-.218 4.614-.579.772-.207 1.282-.404 1.499-.51l.102-.051.108-.038c.222-.08.539-.543.539-.822V15c0-.276-.32-.738-.573-.834l-.176-.076c-.217-.107-.727-.304-1.499-.511-1.34-.36-2.888-.579-4.614-.579-1.73 0-3.333.225-4.763.597-.492.128-.925.264-1.292.398a6.321 6.321 0 0 0-.376.147l-.182.073c-.214.073-.525.52-.525.785Zm3.464-7c-.535 0 0-.536 0-.536a5 5 0 0 1 7.072 0s.535.536 0 .536c-.536 0-1.663-.536-1.663-.536a4.01 4.01 0 0 0-3.746 0S13 8 12.464 8ZM10.5 6c-.5 0-.157-.657-.157-.657a8 8 0 0 1 11.314 0S22 6 21.5 6s-1.375-.657-1.375-.657a7.005 7.005 0 0 0-8.25 0S11 6 10.5 6Zm11.786-2.778S23 4 23.5 4s.278-.778.278-.778c-4.296-4.296-11.26-4.296-15.556 0 0 0-.222.778.278.778s1.214-.778 1.214-.778a10.004 10.004 0 0 1 12.572 0ZM16 28a3 3 0 1 1 0-6 3 3 0 0 1 0 6Zm0-1a2 2 0 1 0 0-4 2 2 0 0 0 0 4Zm-3-7a2 2 0 1 1 0-4 2 2 0 0 1 0 4Zm0-1a1 1 0 1 0 0-2 1 1 0 0 0 0 2Zm6 1a2 2 0 1 1 0-4 2 2 0 0 1 0 4Zm0-1a1 1 0 1 0 0-2 1 1 0 0 0 0 2Z" fill="#000" fill-rule="evenodd"/></svg>