<svg width="32" height="32" xmlns="http://www.w3.org/2000/svg"><path d="M11.71 18a1.75 1.75 0 0 0 .136-.849l-.762-9.149A1.114 1.114 0 0 0 10 7c-.556 0-1.037.449-1.084 1.002l-.762 9.15A1.75 1.75 0 0 0 8.29 18H4.004A4 4 0 0 0 0 22.002v2.996A4.003 4.003 0 0 0 4.004 29h23.992A4 4 0 0 0 32 24.998v-2.996A4.003 4.003 0 0 0 27.996 18H11.71ZM2 22.002v2.996C2 26.103 2.897 27 4.004 27h23.992A2 2 0 0 0 30 24.998v-2.996A2.003 2.003 0 0 0 27.996 20H4.004A2 2 0 0 0 2 22.002ZM5.5 22c.828 0 1.5.666 1.5 1.5 0 .828-.666 1.5-1.5 1.5-.828 0-1.5-.666-1.5-1.5 0-.828.666-1.5 1.5-1.5ZM25 23.5c0-.828.666-1.5 1.5-1.5.828 0 1.5.666 1.5 1.5 0 .828-.666 1.5-1.5 1.5-.828 0-1.5-.666-1.5-1.5Zm-16 0c0-.276.214-.5.505-.5h.99c.279 0 .505.232.505.5 0 .276-.214.5-.505.5h-.99A.508.508 0 0 1 9 23.5Zm4 0c0-.276.214-.5.505-.5h.99c.279 0 .505.232.505.5 0 .276-.214.5-.505.5h-.99a.508.508 0 0 1-.505-.5Zm4 0c0-.276.214-.5.505-.5h.99c.279 0 .505.232.505.5 0 .276-.214.5-.505.5h-.99a.508.508 0 0 1-.505-.5Zm4 0c0-.276.214-.5.505-.5h.99c.279 0 .505.232.505.5 0 .276-.214.5-.505.5h-.99a.508.508 0 0 1-.505-.5ZM6.02 12.402c.135.188.283.368.444.54 0 0 .518.326.536-.569.009-.455-.536-1.196-.536-1.196a4.417 4.417 0 0 1-.42-1.362h.069A4.509 4.509 0 0 1 6.003 9c.012-.274.049-.547.11-.815h-.07c.066-.47.207-.932.421-1.362 0 0 .545-.74.536-1.196-.018-.895-.536-.569-.536-.569-.161.172-.31.352-.444.54A5.521 5.521 0 0 0 5.003 9a5.521 5.521 0 0 0 1.017 3.402ZM2 9a8.278 8.278 0 0 1 2.342-5.942S5 2.707 5 3.731c0 .137-.657.897-.657.897a7.244 7.244 0 0 0-1.307 3.494h.035c-.04.291-.064.585-.07.878.006.293.03.587.07.878h-.035a7.244 7.244 0 0 0 1.307 3.494s.657.76.657.897c0 1.024-.657.673-.657.673A8.278 8.278 0 0 1 2.001 9Zm11.98 3.402a5.275 5.275 0 0 1-.445.54s-.518.326-.536-.569c-.009-.455.536-1.196.536-1.196.214-.43.355-.891.42-1.362h-.069c.062-.268.098-.541.11-.815a4.509 4.509 0 0 0-.11-.815h.07a4.417 4.417 0 0 0-.421-1.362s-.545-.74-.536-1.196c.018-.895.536-.569.536-.569.161.172.31.352.444.54A5.521 5.521 0 0 1 14.997 9a5.521 5.521 0 0 1-1.017 3.402ZM17.998 9a8.278 8.278 0 0 0-2.342-5.942S15 2.707 15 3.731c0 .137.657.897.657.897a7.244 7.244 0 0 1 1.307 3.494h-.035c.04.291.064.585.07.878-.006.293-.03.587-.07.878h.035a7.244 7.244 0 0 1-1.307 3.494s-.657.76-.657.897c0 1.024.657.673.657.673A8.278 8.278 0 0 0 17.999 9ZM5.5 24a.5.5 0 1 0 0-1 .5.5 0 0 0 0 1Zm21 0a.5.5 0 1 0 0-1 .5.5 0 0 0 0 1Z" fill="#000" fill-rule="evenodd"/></svg>