<svg width="32" height="32" xmlns="http://www.w3.org/2000/svg"><path d="M12 12.794v5.208c0 1.111.716 1.998 1.6 1.998h4.8c.89 0 1.6-.895 1.6-1.998v-5.208l.257.143a.5.5 0 0 0 .486-.874l-4.5-2.5L16 9.428l-.243.135-4.5 2.5a.5.5 0 0 0 .486.874l.257-.143Zm7-.555v5.763c0 .597-.32.998-.6.998h-4.8c-.28 0-.6-.4-.6-.998v-5.763l3.243-1.802h-.486L19 12.24ZM25 26v2.003C25 29.06 23.965 30 22.6 30H9.4C8.032 30 7 29.06 7 27.996V26h18Zm0-1V3.997C25 2.944 23.962 2 22.6 2H9.4C8.035 2 7 2.942 7 4.004V25h18Zm2 3.003C27 30.21 25.028 32 22.6 32H9.4C6.97 32 5 30.211 5 27.996V4.004C5 1.793 6.972 0 9.4 0h13.2C25.03 0 27 1.798 27 3.997v24.006ZM16 29a1 1 0 1 1 0-2 1 1 0 0 1 0 2Z" fill="#000" fill-rule="evenodd"/></svg>