<svg width="32" height="32" xmlns="http://www.w3.org/2000/svg"><path d="M0 6a6 6 0 0 1 6-6h20a6 6 0 0 1 6 6v20a6 6 0 0 1-6 6H6a6 6 0 0 1-6-6V6Zm2 0v20a4 4 0 0 0 4 4h20a4 4 0 0 0 4-4V6a4 4 0 0 0-4-4H6a4 4 0 0 0-4 4Zm2 3.002A5 5 0 0 1 9.002 4h13.996A5 5 0 0 1 28 9.002v13.996A5 5 0 0 1 22.998 28H9.002A5 5 0 0 1 4 22.998V9.002Zm1 0v13.996A4 4 0 0 0 9.002 27h13.996A4 4 0 0 0 27 22.998V9.002A4 4 0 0 0 22.998 5H9.002A4 4 0 0 0 5 9.002ZM16 25a9 9 0 1 1 0-18 9 9 0 0 1 0 18Zm0-1a8 8 0 1 0 0-16 8 8 0 0 0 0 16Zm0-3a1 1 0 0 1-1-1.01v-1.98a1 1 0 1 1 2 0v1.98c0 .558-.444 1.01-1 1.01Zm1.268-8a1 1 0 0 1 1.374-.361l1.716.99a1 1 0 1 1-1 1.732l-1.716-.99A1.002 1.002 0 0 1 17.268 13Zm-6 2a1 1 0 0 1 .374-1.37l1.716-.991a1 1 0 1 1 1 1.732l-1.716.99A1.002 1.002 0 0 1 11.268 15Z" fill="#000" fill-rule="evenodd"/></svg>