<svg width="32" height="32" xmlns="http://www.w3.org/2000/svg"><g fill="#000" fill-rule="evenodd"><path d="M-21.856 25.49c.142 1.215.387 2.48.748 3.799-4.633-1.871-7.32-5.109-8.494-9.4-.856-3.128-.829-6.519-.26-9.71l.038-.216s.162.058.75.314a26.994 26.994 0 0 1 4.931 2.775c1.335.956 2.452 1.967 3.366 3.038-.796 2.101-1.255 4.44-1.23 7.034l-4.559-8.363a.5.5 0 1 0-.877.478l5.587 10.252Zm2.89 3.924c-2.043-9.508-1.945-14.492 8.48-22.678 2.099-1.65 4.46-2.723 6.774-3.7.809-.342 1.03-.418 1.03-.418l.054.286c.78 4.256.818 8.777-.358 12.949-1.863 6.609-6.502 11.343-14.83 13.56L-6.588 9.749a.5.5 0 0 0-.868-.496l-11.51 20.162Zm.454 2.586C6.966 25.5-1.244 0-1.244 0S-14.97 3.723-20.011 14.5C-24.007 9-31.127 8-31.127 8c-4.87 22.5 12.615 24 12.615 24Z"/><path d="M0 6a6 6 0 0 1 6-6h20a6 6 0 0 1 6 6v20a6 6 0 0 1-6 6H6a6 6 0 0 1-6-6V6Zm2 0v20a4 4 0 0 0 4 4h20a4 4 0 0 0 4-4V6a4 4 0 0 0-4-4H6a4 4 0 0 0-4 4Zm2 3.002A5 5 0 0 1 9.002 4h13.996A5 5 0 0 1 28 9.002v13.996A5 5 0 0 1 22.998 28H9.002A5 5 0 0 1 4 22.998V9.002Zm1 0v13.996A4 4 0 0 0 9.002 27h13.996A4 4 0 0 0 27 22.998V9.002A4 4 0 0 0 22.998 5H9.002A4 4 0 0 0 5 9.002ZM16 25a9 9 0 1 1 0-18 9 9 0 0 1 0 18Zm0-1a8 8 0 1 0 0-16 8 8 0 0 0 0 16Zm-3-6a2 2 0 1 1 0-4 2 2 0 0 1 0 4Zm0-1a1 1 0 1 0 0-2 1 1 0 0 0 0 2Zm6 1a2 2 0 1 1 0-4 2 2 0 0 1 0 4Zm0-1a1 1 0 1 0 0-2 1 1 0 0 0 0 2Z"/></g></svg>