<svg width="32" height="32" xmlns="http://www.w3.org/2000/svg"><path d="M13 27v-5H2v5h11Zm0 1v.997A1 1 0 0 1 11.997 30H3.003A1 1 0 0 1 2 28.997V28h11Zm0-7v-.997A1 1 0 0 0 11.997 19H3.003A1 1 0 0 0 2 20.003V21h11Zm17 6v-5H19v5h11Zm0 1v.997A1 1 0 0 1 28.997 30h-8.994A1 1 0 0 1 19 28.997V28h11Zm0-7v-.997A1 1 0 0 0 28.997 19h-8.994A1 1 0 0 0 19 20.003V21h11Zm0-11V5H19v5h11Zm0 1v.997A1 1 0 0 1 28.997 13h-8.994A1 1 0 0 1 19 11.997V11h11Zm0-7v-.997A1 1 0 0 0 28.997 2h-8.994A1 1 0 0 0 19 3.003V4h11Zm-17 6V5H2v5h11Zm0 1v.997A1 1 0 0 1 11.997 13H3.003A1 1 0 0 1 2 11.997V11h11Zm0-7v-.997A1 1 0 0 0 11.997 2H3.003A1 1 0 0 0 2 3.003V4h11ZM0 3.003v8.994A3 3 0 0 0 3.003 15h8.994A3 3 0 0 0 15 11.997V3.003A3 3 0 0 0 11.997 0H3.003A3 3 0 0 0 0 3.003Zm0 17v8.994A3 3 0 0 0 3.003 32h8.994A3 3 0 0 0 15 28.997v-8.994A3 3 0 0 0 11.997 17H3.003A3 3 0 0 0 0 20.003Zm17-17v8.994A3 3 0 0 0 20.003 15h8.994A3 3 0 0 0 32 11.997V3.003A3 3 0 0 0 28.997 0h-8.994A3 3 0 0 0 17 3.003Zm0 17v8.994A3 3 0 0 0 20.003 32h8.994A3 3 0 0 0 32 28.997v-8.994A3 3 0 0 0 28.997 17h-8.994A3 3 0 0 0 17 20.003Z" fill="#000" fill-rule="evenodd"/></svg>