<svg width="32" height="32" xmlns="http://www.w3.org/2000/svg"><path d="M10.788 28.583c-.808-.334-1.372-.369-2.494-.254-1.147.118-1.609.115-2.3-.144-.467-.176-.899-.463-1.308-.871-.408-.409-.695-.84-.87-1.309-.26-.69-.263-1.152-.145-2.299.115-1.122.08-1.686-.254-2.494-.265-.64-.608-1.092-1.119-1.55-.107-.096-.219-.191-.371-.316l-.399-.326C.481 18.144 0 17.344 0 16s.48-2.144 1.528-3.02l.399-.326c.152-.125.264-.22.371-.316.511-.458.854-.91 1.119-1.55.334-.808.369-1.372.254-2.494-.118-1.147-.115-1.609.144-2.3.176-.467.463-.899.871-1.308.409-.408.84-.695 1.309-.87.69-.26 1.152-.263 2.299-.145 1.122.115 1.686.08 2.494-.254.64-.265 1.092-.608 1.55-1.119.096-.107.191-.219.316-.371l.326-.399C13.856.481 14.656 0 16 0s2.144.48 3.02 1.528l.326.399c.125.152.22.264.316.371.458.511.91.854 1.55 1.119.808.334 1.372.369 2.494.254 1.147-.118 1.609-.115 2.3.144.467.176.899.463 1.308.871.408.409.695.84.87 1.309.26.69.263 1.152.145 2.299-.115 1.122-.08 1.686.254 2.494.265.64.608 1.092 1.119 1.55.107.096.219.191.371.316l.399.326C31.519 13.856 32 14.656 32 16s-.48 2.144-1.528 3.02l-.399.326c-.152.125-.264.22-.371.316-.511.458-.854.91-1.119 1.55-.334.808-.369 1.372-.254 2.494.118 1.147.115 1.609-.144 2.3-.176.467-.463.899-.871 1.308-.409.408-.84.695-1.309.87-.69.26-1.152.263-2.299.145-1.122-.115-1.686-.08-2.494.254-.64.265-1.092.608-1.55 1.119-.096.107-.191.219-.316.371l-.326.399C18.144 31.519 17.344 32 16 32s-2.144-.48-3.02-1.528l-.326-.399c-.125-.152-.22-.264-.316-.371-.458-.511-.91-.854-1.55-1.119Zm.382-.924C13.822 28.758 13.585 31 16 31s2.178-2.242 4.83-3.34c2.651-1.099 4.07.654 5.777-1.053 1.707-1.708-.046-3.126 1.052-5.777C28.758 18.178 31 18.415 31 16s-2.242-2.178-3.34-4.83c-1.099-2.651.654-4.07-1.053-5.777-1.708-1.707-3.126.046-5.777-1.052C18.178 3.242 18.415 1 16 1s-2.178 2.242-4.83 3.34C8.52 5.44 7.1 3.687 5.393 5.394 3.686 7.101 5.44 8.52 4.341 11.17 3.242 13.822 1 13.585 1 16s2.242 2.178 3.34 4.83c1.099 2.651-.654 4.07 1.053 5.777 1.708 1.707 3.126-.046 5.777 1.052ZM16 26c-5.523 0-10-4.477-10-10S10.477 6 16 6s10 4.477 10 10-4.477 10-10 10Zm0-2a8 8 0 1 0 0-16 8 8 0 0 0 0 16Z" fill="#000" fill-rule="evenodd"/></svg>