<svg width="32" height="32" xmlns="http://www.w3.org/2000/svg"><path d="M10 11.779A10.99 10.99 0 0 0 5 21c0 6.075 4.925 11 11 11s11-4.925 11-11a10.99 10.99 0 0 0-5-9.221v-5.78A5.997 5.997 0 0 0 16 0c-3.307 0-6 2.686-6 5.999v5.78Zm10 1.157a9 9 0 1 1-8 0V5.999A4.004 4.004 0 0 1 16 2c2.21 0 4 1.788 4 3.999v6.937Zm-6 .854a7 7 0 1 0 4 0V6.006A2.002 2.002 0 0 0 16 4c-1.112 0-2 .898-2 2.006v7.784Zm3 .793A6.002 6.002 0 0 1 16 26.5a6 6 0 0 1-1-11.917V6.006A.998.998 0 0 1 16 5c.552 0 1 .45 1 1.006v8.577ZM17 24c0 .5-1 .5-1 .5a4 4 0 0 1-4-4s0-1 .5-1 .5.628.5 1c0 1 1.5 3 3 3 .708 0 1 0 1 .5Z" fill="#000" fill-rule="evenodd"/></svg>