<svg width="32" height="32" xmlns="http://www.w3.org/2000/svg"><g fill="#000" fill-rule="evenodd"><path d="M16 32c8.837 0 16-7.163 16-16S24.837 0 16 0 0 7.163 0 16s7.163 16 16 16Zm0-2C8.268 30 2 23.732 2 16S8.268 2 16 2s14 6.268 14 14-6.268 14-14 14Zm0-2C9.373 28 4 22.627 4 16S9.373 4 16 4s12 5.373 12 12-5.373 12-12 12Zm0-1c6.075 0 11-4.925 11-11S22.075 5 16 5 5 9.925 5 16s4.925 11 11 11Zm-2.121-8.879a3 3 0 0 0 4.242 0c1.172-1.171 5.657-8.485 4.95-9.192-.707-.707-8.02 3.778-9.192 4.95a3 3 0 0 0 0 4.242Zm1.414-1.414a1 1 0 1 0 1.414-1.414 1 1 0 0 0-1.414 1.414ZM33.994 26.3l-.006-2.29 6.81-6.577c1.784-1.83 2.7-5.206 2.082-7.683l-.736-2.951c-.04-.162.069-.498.197-.605l4.53-3.784c.246-.205.806-.409 1.118-.409l4.015.003c.277 0 .788.212.987.411l8.594 8.594c.204.204.41.702.41.987L62 16.01c0 .245-.214.701-.41.864l-4.53 3.784c-.201.168-.688.301-.94.259l-2.11-.355c-2.514-.422-5.855.667-7.632 2.484l-6.386 6.965-2.29-.006 8.653-8.652-.708-.708-9.003 9.004-2.293-2.293 9.004-9.003-.708-.708-8.652 8.653ZM54.405 1c-.573-.573-1.592-.995-2.4-.996L47.99.001c-.782 0-1.796.37-2.4.874L41.059 4.66c-.717.6-1.08 1.72-.855 2.624l.735 2.95c.45 1.805-.272 4.47-1.572 5.804l-7.095 7.277-.285.292.001.408.007 2.993.001.413.292.292 4 4 .292.292h.413l2.993.008h.422l.295-.301 7.104-7.265c1.32-1.35 4.003-2.224 5.87-1.91l2.11.354c.83.14 1.906-.154 2.554-.696l4.53-3.784c.65-.542 1.128-1.56 1.128-2.4l-.003-4.016c0-.814-.418-1.82-.997-2.4l-8.594-8.593Zm-4.041 6.485a1.996 1.996 0 0 1 2.833.004l2.113 2.113c.783.784.79 2.047.004 2.833a1.996 1.996 0 0 1-2.833-.004l-2.113-2.113a1.998 1.998 0 0 1-.004-2.833Zm.707.707a.998.998 0 0 0 .004 1.419l2.113 2.113a.996.996 0 0 0 1.419.004.998.998 0 0 0-.005-1.418L52.49 8.197a.996.996 0 0 0-1.418-.005Z"/></g></svg>