<svg width="32" height="32" xmlns="http://www.w3.org/2000/svg"><path d="M22.26 25c.471.346.72 1 .72 1H9.02s.249-.654.72-1h12.52Zm2.459 0c.6 1.427.256 3-1.188 3H8.47c-1.444 0-1.788-1.573-1.188-3H2.996A3.002 3.002 0 0 1 0 21.991V7.01A2.998 2.998 0 0 1 2.996 4h26.008A3.002 3.002 0 0 1 32 7.009V21.99A2.998 2.998 0 0 1 29.004 25h-4.285ZM2 7.009V21.99c0 .56.447 1.009.996 1.009h26.008A.998.998 0 0 0 30 21.991V7.01C30 6.449 29.553 6 29.004 6H2.996A.998.998 0 0 0 2 7.009Zm1 1.983C3 7.892 3.895 7 4.997 7h22.006C28.106 7 29 7.893 29 8.992v11.016c0 1.1-.895 1.992-1.997 1.992H4.997A1.995 1.995 0 0 1 3 20.008V8.992Zm1 0v11.016c0 .546.446.992.997.992h22.006c.55 0 .997-.445.997-.992V8.992A.995.995 0 0 0 27.003 8H4.997A.995.995 0 0 0 4 8.992Z" fill="#000" fill-rule="evenodd"/></svg>