<svg width="32" height="32" xmlns="http://www.w3.org/2000/svg"><g fill="none" fill-rule="evenodd"><path d="M19.708 29.504A14.015 14.015 0 0 1 16 30c-1.284 0-2.527-.173-3.708-.496a4 4 0 1 1 7.416 0Zm1.164-.375C26.202 27.15 30 22.019 30 16c0-7.732-6.268-14-14-14S2 8.268 2 16c0 6.019 3.798 11.15 9.128 13.129a5 5 0 1 1 9.744 0ZM16 32C7.163 32 0 24.837 0 16S7.163 0 16 0s16 7.163 16 16-7.163 16-16 16Zm0-25a9 9 0 0 1 9 9s0 1 1 1 1-1 1-1c0-6.075-4.925-11-11-11S5 9.925 5 16c0 0 0 1 1 1s1-1 1-1a9 9 0 0 1 9-9Zm0 21a1 1 0 1 1 0-2 1 1 0 0 1 0 2Zm0-7a5 5 0 1 1 0-10 5 5 0 0 1 0 10Zm0-1a4 4 0 1 0 0-8 4 4 0 0 0 0 8Zm0-2a2 2 0 1 1 0-4 2 2 0 0 1 0 4Zm0-1a1 1 0 1 0 0-2 1 1 0 0 0 0 2Z" fill="#000"/><path d="M51.988 10.265c.382-.596.952-1.424 1.844-2.71C56.462 3.61 54.456 0 49 0c-6.263 0-10.09 5.65-6.835 11.923-.593-.383-1.415-.948-2.681-1.826-3.945-2.63-7.555-.625-7.555 4.832 0 6.308 5.73 10.145 12.058 6.764-.383.598-.958 1.435-1.872 2.752C39.485 28.39 41.491 32 46.947 32c6.267 0 10.095-5.655 6.83-11.932.593.382 1.412.945 2.668 1.817 3.945 2.63 7.555.624 7.555-4.832 0-6.293-5.703-10.127-12.012-6.788Zm-.407 2.601C57.101 8.924 62 11.806 62 17.053c0 3.877-1.845 4.901-4.445 3.168-2.525-1.762-3.46-2.385-4.406-2.763a5.632 5.632 0 0 0-.81-.258c.105-.382.161-.784.161-1.2 0-1.327-.919-3.134-.919-3.134Zm-2.176-2.015c.378-.946 1.001-1.88 2.763-4.406C53.902 3.845 52.877 2 49 2c-5.247 0-8.13 4.899-4.186 10.419 0 0 1.89-.919 3.186-.919.398 0 .784.052 1.15.149.065-.27.149-.534.255-.798Zm-6.625 3.673c-.946-.378-1.88-1.001-4.406-2.763-2.6-1.734-4.445-.709-4.445 3.168 0 5.247 4.899 8.129 10.419 4.186 0 0-.848-1.812-.848-3.115 0-.416.057-.82.162-1.203a5.605 5.605 0 0 1-.882-.273Zm3.762 6.625c-.378.946-1 1.88-2.763 4.406-1.733 2.6-.709 4.445 3.168 4.445 5.248 0 8.13-4.899 4.187-10.419 0 0-1.831.919-3.134.919-.416 0-.818-.056-1.2-.162-.065.274-.15.542-.258.811ZM48 19.5a3.5 3.5 0 1 1 0-7 3.5 3.5 0 0 1 0 7Z" fill="#000"/></g></svg>