<svg width="32" height="32" xmlns="http://www.w3.org/2000/svg"><path d="M19.988 10.265c.382-.596.952-1.424 1.844-2.71C24.462 3.61 22.456 0 17 0c-6.263 0-10.09 5.65-6.835 11.923-.593-.383-1.415-.948-2.681-1.826-3.945-2.63-7.555-.625-7.555 4.832 0 6.308 5.73 10.145 12.058 6.764-.383.598-.958 1.435-1.872 2.752C7.485 28.39 9.491 32 14.947 32c6.267 0 10.095-5.655 6.83-11.932.593.382 1.412.945 2.668 1.817 3.945 2.63 7.555.624 7.555-4.832 0-6.293-5.703-10.127-12.012-6.788Zm-.407 2.601C25.101 8.924 30 11.806 30 17.053c0 3.877-1.845 4.901-4.445 3.168-2.525-1.762-3.46-2.385-4.406-2.763a5.632 5.632 0 0 0-.81-.258c.105-.382.161-.784.161-1.2 0-1.327-.919-3.134-.919-3.134Zm-2.176-2.015c.378-.946 1.001-1.88 2.763-4.406C21.902 3.845 20.877 2 17 2c-5.247 0-8.13 4.899-4.186 10.419 0 0 1.89-.919 3.186-.919.398 0 .784.052 1.15.149.065-.27.149-.534.255-.798Zm-6.625 3.673c-.946-.378-1.88-1.001-4.406-2.763-2.6-1.734-4.445-.709-4.445 3.168 0 5.247 4.899 8.129 10.419 4.186 0 0-.848-1.812-.848-3.115 0-.416.057-.82.162-1.203a5.605 5.605 0 0 1-.882-.273Zm3.762 6.625c-.378.946-1 1.88-2.763 4.406-1.733 2.6-.709 4.445 3.168 4.445 5.248 0 8.13-4.899 4.187-10.419 0 0-1.831.919-3.134.919-.416 0-.818-.056-1.2-.162-.065.274-.15.542-.258.811ZM16 19.5a3.5 3.5 0 1 1 0-7 3.5 3.5 0 0 1 0 7Z" fill="#000" fill-rule="evenodd"/></svg>