<svg width="32" height="32" xmlns="http://www.w3.org/2000/svg"><g fill="#000" fill-rule="evenodd"><path d="m1.994-5.7-.006-2.29 6.81-6.577c1.784-1.83 2.7-5.206 2.082-7.683l-.736-2.951c-.04-.162.069-.498.197-.605l4.53-3.784c.246-.205.806-.409 1.118-.409l4.015.003c.277 0 .788.212.987.411l8.594 8.594c.204.204.41.702.41.987L30-15.99c0 .245-.214.701-.41.864l-4.53 3.784c-.201.168-.688.301-.94.259l-2.11-.355c-2.514-.422-5.855.667-7.632 2.484L7.991-1.988 5.7-1.994l8.653-8.652-.708-.708L4.643-2.35 2.35-4.643l9.004-9.003-.708-.708L1.994-5.7ZM22.405-31c-.573-.573-1.592-.995-2.4-.996l-4.015-.003c-.782 0-1.796.37-2.4.874L9.059-27.34c-.717.6-1.08 1.72-.855 2.624l.735 2.95c.45 1.805-.272 4.47-1.572 5.804L.272-8.686l-.285.292.001.408.007 2.993.001.413.292.292 4 4 .292.292h.413l2.993.008h.422l.295-.301 7.104-7.265c1.32-1.35 4.003-2.224 5.87-1.91l2.11.354c.83.14 1.906-.154 2.554-.696l4.53-3.784c.65-.542 1.128-1.56 1.128-2.4l-.003-4.016c0-.814-.418-1.82-.997-2.4l-8.594-8.593Zm-4.041 6.485a1.996 1.996 0 0 1 2.833.004l2.113 2.113c.783.784.79 2.047.004 2.833a1.996 1.996 0 0 1-2.833-.004l-2.113-2.113a1.998 1.998 0 0 1-.004-2.833Zm.707.707a.998.998 0 0 0 .004 1.419l2.113 2.113a.996.996 0 0 0 1.419.004.998.998 0 0 0-.005-1.418l-2.113-2.113a.996.996 0 0 0-1.418-.005ZM29.542 12.309A15.006 15.006 0 0 0 15 1C6.716 1 0 7.716 0 16c0 8.284 6.716 15 15 15a15.006 15.006 0 0 0 14.542-11.309A4.003 4.003 0 0 0 32 16a4.004 4.004 0 0 0-2.458-3.691Zm-2.153 7.644A13.008 13.008 0 0 1 15 29C7.82 29 2 23.18 2 16S7.82 3 15 3c5.732 0 10.7 3.739 12.389 9.047a3.982 3.982 0 0 0-1.848.799C24.185 8.308 19.98 5 15 5 8.925 5 4 9.925 4 16s4.925 11 11 11c4.979 0 9.185-3.308 10.541-7.846a3.981 3.981 0 0 0 1.848.8Zm-2.656-1.646C23.69 22.717 19.729 26 15 26 9.477 26 5 21.523 5 16S9.477 6 15 6c4.729 0 8.691 3.283 9.733 7.693A3.98 3.98 0 0 0 24 16c0 .859.271 1.655.733 2.307ZM26 16c0-1.103.897-2 2-2s2 .897 2 2-.897 2-2 2-2-.897-2-2Zm-11 7.545c0 .5-.738.478-1.074.434a8.004 8.004 0 0 1-6.91-6.93C6.983 16.8 6.952 16 7.452 16s.583 1.128.583 1.128a7.005 7.005 0 0 0 5.833 5.833s1.131.084 1.131.584Z"/></g></svg>