<svg width="32" height="32" xmlns="http://www.w3.org/2000/svg"><path d="M23.795 19.081A3.988 3.988 0 0 0 23 19c0-.693-.088-1.365-.253-2.005a5.5 5.5 0 1 0-5.742-5.742 8.014 8.014 0 0 0-2.93-.199c.075-.176.213-.326.447-.522-.083.07.367-.299.492-.41a3.51 3.51 0 0 0 .952-1.328c.286-.69.317-1.191.23-2.03-.052-.516-.051-.683.023-.88.048-.13.133-.257.27-.394.138-.138.266-.223.394-.271.198-.074.365-.075.881-.022.839.086 1.34.055 2.03-.23a3.51 3.51 0 0 0 1.328-.953c.111-.125.48-.575.41-.492.336-.4.537-.522.968-.522.43 0 .632.121.968.522-.07-.083.299.367.41.492.379.421.78.725 1.328.952.69.286 1.191.317 2.03.23.516-.052.683-.051.88.023.13.048.257.133.394.27.138.138.223.266.271.394.074.198.075.365.022.881-.086.839-.055 1.34.23 2.03.228.548.532.95.953 1.328.125.111.575.48.492.41.4.336.522.537.522.968 0 .43-.121.632-.522.968.083-.07-.367.299-.492.41a3.51 3.51 0 0 0-.952 1.328c-.286.69-.317 1.191-.23 2.03.052.516.051.683-.023.88a1.113 1.113 0 0 1-.27.394 1.113 1.113 0 0 1-.394.271c-.198.074-.365.075-.881.022-.839-.086-1.34-.055-2.03.23-.599.249-.985.555-1.41 1.048Zm1.044.352C26.595 20.27 28 22.223 28 24.5a5.5 5.5 0 0 1-5.5 5.5H7a7 7 0 0 1-7-7c0-3.866 4-7 7.5-7 .964-2.334 3.049-4.111 5.51-4.746.055-.628.33-1.038.871-1.49-.066.056.36-.293.465-.387.317-.284.531-.567.696-.966.209-.504.23-.856.16-1.545-.07-.672-.067-.94.08-1.334a2.1 2.1 0 0 1 .5-.75 2.1 2.1 0 0 1 .75-.5c.394-.147.662-.15 1.334-.08.689.07 1.041.049 1.545-.16.399-.165.682-.38.966-.696.094-.105.443-.531.388-.465.508-.608.963-.881 1.735-.881.772 0 1.227.273 1.735.881-.055-.066.294.36.388.465.284.317.567.531.966.696.504.209.856.23 1.545.16.672-.07.94-.067 1.334.08.267.1.514.265.75.5.235.236.4.483.5.75.147.394.15.662.08 1.334-.07.689-.049 1.041.16 1.545.165.399.38.682.696.966.105.094.531.443.465.388.608.508.881.963.881 1.735 0 .772-.273 1.227-.881 1.735.066-.055-.36.294-.465.388a2.525 2.525 0 0 0-.696.966c-.209.504-.23.856-.16 1.545.07.672.067.94-.08 1.334a2.1 2.1 0 0 1-.5.75 2.1 2.1 0 0 1-.75.5c-.394.147-.662.15-1.334.08-.689-.07-1.041-.049-1.545.16a2.362 2.362 0 0 0-.75.475ZM22.5 16.21a8.024 8.024 0 0 0-4.71-4.71H18a4.5 4.5 0 1 1 4.5 4.5v.21ZM9.216 17.397a6 6 0 0 1 11.718 2.492 1 1 0 0 0 1.117 1.14A3.5 3.5 0 1 1 22.5 28l-15.501-.001a5 5 0 1 1 1.045-9.89 1 1 0 0 0 1.171-.713Z" fill="#000" fill-rule="evenodd"/></svg>