<svg xmlns="http://www.w3.org/2000/svg" id="Layer_6" data-name="Layer 6" viewBox="0 0 192 192" version="1.1"><defs id="defs902"><style id="style900">.cls-1{fill:#4285f4}.cls-2{fill:#c8d1db}</style></defs><g id="g1013" transform="translate(23.5 -7.912)"><path id="path906" d="M20.14 32C13.435 31.994 7.995 37.434 8 44.14v104.72c-.006 6.706 5.434 12.146 12.14 12.14h4.727a19.977 19.977 0 0 0 19.293 14.83A19.977 19.977 0 0 0 63.438 161h20.568a8 8 0 0 0 8-8V40l-8-8z" style="fill:#4285f4"/><path id="path908" d="M80.008 31.994C79.998 49.697 80 67.397 80 85.11l-16.63-9.398c-2.398-1.353-5.365.376-5.37 3.129v40.62c.005 2.754 2.972 4.483 5.37 3.13l16.63-9.4V161H125.48c6.362 0 11.52-5.158 11.52-11.52v-106c-.022-6.346-5.173-11.48-11.52-11.48Z" style="fill:#c8d1db"/></g></svg>