<svg xmlns="http://www.w3.org/2000/svg" width="56" height="56" viewBox="0 0 56 56"><path d="M 39.1563 50.9336 C 43.2345 50.9336 45.9298 49.8321 48.3202 47.1602 C 48.5079 46.9727 48.6720 46.7617 48.8592 46.5742 C 50.2656 45.0039 50.9218 43.4570 50.9218 41.9805 C 50.9218 40.2930 49.9378 38.7226 47.8517 37.2695 L 41.0313 32.5352 C 38.9219 31.0821 36.4610 30.9180 34.4923 32.8633 L 32.6876 34.6680 C 32.1485 35.2070 31.6798 35.2305 31.1407 34.9023 C 29.8985 34.1055 27.3438 31.8789 25.6094 30.1445 C 23.7813 28.3399 22.0001 26.3242 21.0860 24.8477 C 20.7579 24.3086 20.8047 23.8633 21.3438 23.3242 L 23.1250 21.5195 C 25.0938 19.5508 24.9298 17.0664 23.4766 14.9805 L 18.7188 8.1602 C 17.2891 6.0742 15.7188 5.1133 14.0313 5.0899 C 12.5547 5.0664 11.0079 5.7461 9.4376 7.1523 C 9.2266 7.3399 9.0391 7.5039 8.8282 7.6680 C 6.1798 10.0586 5.0782 12.7539 5.0782 16.8086 C 5.0782 23.5117 9.2032 31.6680 16.7735 39.2383 C 24.2969 46.7617 32.4766 50.9336 39.1563 50.9336 Z M 39.1798 47.3242 C 33.2032 47.4414 25.5391 42.8477 19.4688 36.8008 C 13.3516 30.7070 8.5469 22.7852 8.6641 16.8086 C 8.7110 14.2305 9.6016 12.0039 11.4532 10.4102 C 11.5938 10.2695 11.7345 10.1523 11.8985 10.0352 C 12.5782 9.4258 13.3516 9.0977 14.0079 9.0977 C 14.7110 9.0977 15.3204 9.3555 15.7657 10.0586 L 20.3126 16.8789 C 20.8047 17.6055 20.8516 18.4258 20.1250 19.1523 L 18.0625 21.2148 C 16.4219 22.8321 16.5625 24.8008 17.7345 26.3711 C 19.0704 28.1758 21.3907 30.8008 23.1719 32.5821 C 24.9766 34.3867 27.8126 36.9180 29.6172 38.2774 C 31.1876 39.4492 33.1798 39.5664 34.7969 37.9492 L 36.8594 35.8867 C 37.5860 35.1602 38.3829 35.2070 39.1094 35.6758 L 45.9298 40.2227 C 46.6329 40.6914 46.9141 41.2774 46.9141 41.9805 C 46.9141 42.6602 46.5860 43.4102 45.9532 44.1133 C 45.8360 44.2774 45.7423 44.3945 45.6016 44.5586 C 43.9845 46.3867 41.7579 47.2774 39.1798 47.3242 Z"/></svg>