<svg xmlns="http://www.w3.org/2000/svg" width="547.453" height="547.453" style="enable-background:new 0 0 547.453 547.453" xml:space="preserve"><path d="m282.572 42.075-120.966 73.631v401.625h-20.081v30.122h281.138v-30.122h-20.082V115.706L282.572 42.075zm-15.779 53.55h30.123v30.122h-30.123V95.625zm18.17 50.203c40.162 0 72.675 32.513 72.675 72.675s-32.513 72.675-72.675 72.675c-40.163 0-72.676-32.513-72.676-72.675s32.513-72.675 72.676-72.675zm77.934 351.422H201.769V326.56h70.284v109.013c-9.562 4.303-15.778 13.387-15.778 24.384 0 14.822 11.953 26.775 26.775 26.775s26.775-11.953 26.775-26.775c0-11.953-7.65-21.516-18.169-25.341V326.56h70.284l.957 170.69z"/><path d="M92.756 125.747c1.913 2.868 5.259 4.781 8.606 4.781 1.913 0 3.825-.479 5.259-1.435l175.473-107.1 158.737 97.06c4.781 2.869 10.997 1.435 13.866-3.347 2.868-4.781 1.435-10.997-3.347-13.865L287.354 1.435c-3.348-1.913-7.172-1.913-10.52 0L96.103 111.881c-4.781 2.869-6.216 9.085-3.347 13.866zM280.659 215.634l-17.212 16.257c-1.913 1.912-1.913 5.259 0 7.172.956.956 2.391 1.435 3.825 1.435 1.435 0 2.391-.479 3.347-1.435l20.559-19.604.479-.478c0-.479.479-.479.479-.957s0-.478.478-.956V214.2c0-.479-.478-.479-.478-.957s0-.478-.479-.956l-40.641-47.812c-1.912-1.912-4.781-2.391-7.172-.478-1.912 1.912-2.391 4.781-.478 7.172l37.293 44.465z"/></svg>