<svg xmlns="http://www.w3.org/2000/svg" width="442.266" height="442.266" style="enable-background:new 0 0 442.266 442.266" xml:space="preserve"><path d="M197.227 295.481c-5.737-1.913-9.562-7.172-9.562-13.388v-4.781h66.938v4.781c0 6.216-3.825 11.475-9.562 13.388-1.435.478-2.869.956-4.781.956h-38.25c-1.915.001-3.349-.478-4.783-.956zm124.312-75.543H115.945c-8.128 0-14.344 6.216-14.344 14.344v19.125c0 8.128 6.216 14.344 14.344 14.344H326.32c8.128 0 14.344-6.216 14.344-14.344v-14.344c0-10.519-8.606-19.125-19.125-19.125zM140.33 193.162c2.391 8.129 11.475 17.213 20.082 17.213h123.356c2.391 0 13.865-.956 19.603-17.213l32.991-123.834c1.434-7.172 2.868-26.775-10.997-43.509-11.953-14.344-33.469-22.95-61.679-24.863C259.383 0 255.08 0 250.776 0h-66.938c-4.781 0-9.562 0-13.865.478h-.479c-30.122 2.869-45.9 14.822-54.028 25.341-10.997 14.344-11.953 31.556-9.084 43.031l33.948 124.312zm-60.244-30.121c-.478-1.434-1.435-2.869-2.391-4.303C70.523 149.175 50.442 153 39.923 153c-7.65 0-13.866 6.216-13.866 13.866 0 8.606 6.216 14.822 13.866 14.822h24.384v66.937h19.125s0-67.894-.478-74.109c-.477-3.826-.955-8.128-2.868-11.475zM402.342 153c-10.996 0-30.6-3.825-37.771 5.737-.956 1.435-1.912 2.869-2.391 4.303-1.435 3.825-2.391 7.65-2.391 11.953-.956 5.738-.956 73.631-.956 73.631h19.125v-66.936h24.384c7.65 0 13.866-6.216 13.866-14.822 0-7.65-6.216-13.866-13.866-13.866zm-84.628 247.669c2.869 0 5.737.478 8.606 1.435-8.606-21.994-31.078-39.685-81.281-43.988-3.347-.478-6.216-.478-9.562-.956V306h-28.688v51.159c-3.347 0-6.694.479-9.562.479-58.331 4.303-81.281 26.297-90.366 43.509 1.913-.478 3.347-.478 5.259-.478 4.781 0 9.562 1.435 13.866 4.303 7.65-11.475 26.297-24.862 71.241-28.209 2.869 0 6.216-.479 9.562-.479v28.688c4.303-2.868 9.084-4.303 14.344-4.303s10.041 1.435 14.344 4.781v-28.688c3.347 0 6.693.478 9.562.478 37.771 3.348 54.028 14.344 61.2 26.297 3.825-1.912 7.65-2.868 11.475-2.868zm-84.628 15.3c-2.869-3.347-7.172-5.737-11.953-5.737-3.825 0-6.694 1.435-9.562 3.347-3.825 2.869-6.216 7.172-6.216 11.953v.956c0 8.606 7.172 15.778 15.778 15.778s15.778-7.172 15.778-15.778v-.956c0-3.826-1.434-7.173-3.825-9.563zm97.06 0c-2.869-3.347-7.172-5.737-11.953-5.737-3.825 0-6.694 1.435-9.562 3.347-3.825 2.869-6.216 7.172-6.216 11.953v.956c0 8.606 7.172 15.778 15.778 15.778s15.778-7.172 15.778-15.778v-.956c-.479-3.826-1.913-7.173-3.825-9.563zm-205.594 0c-2.869-3.347-7.172-5.737-11.953-5.737-3.825 0-6.694 1.435-9.562 3.347-3.825 2.869-6.216 7.172-6.216 11.953v.956c0 8.606 7.172 15.778 15.778 15.778 8.606 0 15.778-7.172 15.778-15.778v-.956c-.479-3.826-1.913-7.173-3.825-9.563z"/></svg>