<?xml version="1.0" encoding="iso-8859-1"?>
<!-- Generator: Adobe Illustrator 16.0.0, SVG Export Plug-In . SVG Version: 6.00 Build 0)  -->
<!DOCTYPE svg PUBLIC "-//W3C//DTD SVG 1.1//EN" "http://www.w3.org/Graphics/SVG/1.1/DTD/svg11.dtd">
<svg version="1.1" id="Capa_1" xmlns="http://www.w3.org/2000/svg" xmlns:xlink="http://www.w3.org/1999/xlink" x="0px" y="0px"
	 width="442.266px" height="442.266px" viewBox="0 0 442.266 442.266" style="enable-background:new 0 0 442.266 442.266;"
	 xml:space="preserve">
<g>
	<path d="M197.227,295.481c-5.737-1.913-9.562-7.172-9.562-13.388v-4.781h66.938v4.781c0,6.216-3.825,11.475-9.562,13.388
		c-1.435,0.478-2.869,0.956-4.781,0.956h-4.781h-28.688h-4.781C200.095,296.438,198.661,295.959,197.227,295.481z M321.539,219.938
		h-41.597h-0.479H156.586h-40.641c-8.128,0-14.344,6.216-14.344,14.344v19.125c0,8.128,6.216,14.344,14.344,14.344h62.634h2.391
		h7.65h63.591h1.912h10.041h62.156c8.128,0,14.344-6.216,14.344-14.344v-14.344C340.664,228.544,332.058,219.938,321.539,219.938z
		 M140.33,193.162c2.391,8.129,11.475,17.213,20.082,17.213h123.356l0,0c2.391,0,13.865-0.956,19.603-17.213l32.991-123.834
		c1.434-7.172,2.868-26.775-10.997-43.509c-11.953-14.344-33.469-22.95-61.679-24.863C259.383,0,255.08,0,250.776,0l0,0h-66.938l0,0
		c-4.781,0-9.562,0-13.865,0.478c0,0,0,0-0.479,0c-30.122,2.869-45.9,14.822-54.028,25.341
		c-10.997,14.344-11.953,31.556-9.084,43.031L140.33,193.162z M80.086,163.041c-0.478-1.434-1.435-2.869-2.391-4.303
		C70.523,149.175,50.442,153,39.923,153c-7.65,0-13.866,6.216-13.866,13.866c0,8.606,6.216,14.822,13.866,14.822h24.384v9.562
		v57.375h19.125c0,0,0-67.894-0.478-74.109C82.477,170.69,81.999,166.388,80.086,163.041z M402.342,153
		c-10.996,0-30.6-3.825-37.771,5.737c-0.956,1.435-1.912,2.869-2.391,4.303c-1.435,3.825-2.391,7.65-2.391,11.953
		c-0.956,5.738-0.956,73.631-0.956,73.631h19.125V191.25v-9.562h24.384c7.65,0,13.866-6.216,13.866-14.822
		C416.208,159.216,409.992,153,402.342,153z M317.714,400.669c2.869,0,5.737,0.478,8.606,1.435
		c-8.606-21.994-31.078-39.685-81.281-43.988c-3.347-0.478-6.216-0.478-9.562-0.956V306h-28.688v51.159
		c-3.347,0-6.694,0.479-9.562,0.479c-58.331,4.303-81.281,26.297-90.366,43.509c1.913-0.478,3.347-0.478,5.259-0.478
		c4.781,0,9.562,1.435,13.866,4.303c7.65-11.475,26.297-24.862,71.241-28.209c2.869,0,6.216-0.479,9.562-0.479v28.688
		c4.303-2.868,9.084-4.303,14.344-4.303c5.26,0,10.041,1.435,14.344,4.781v-28.688c3.347,0,6.693,0.478,9.562,0.478
		c37.771,3.348,54.028,14.344,61.2,26.297C310.064,401.625,313.889,400.669,317.714,400.669z M233.086,415.969
		c-2.869-3.347-7.172-5.737-11.953-5.737c-3.825,0-6.694,1.435-9.562,3.347c-3.825,2.869-6.216,7.172-6.216,11.953
		c0,0.479,0,0.479,0,0.956c0,8.606,7.172,15.778,15.778,15.778s15.778-7.172,15.778-15.778c0-0.478,0-0.478,0-0.956
		C236.911,421.706,235.477,418.359,233.086,415.969z M330.146,415.969c-2.869-3.347-7.172-5.737-11.953-5.737
		c-3.825,0-6.694,1.435-9.562,3.347c-3.825,2.869-6.216,7.172-6.216,11.953c0,0.479,0,0.479,0,0.956
		c0,8.606,7.172,15.778,15.778,15.778s15.778-7.172,15.778-15.778c0-0.478,0-0.478,0-0.956
		C333.492,421.706,332.058,418.359,330.146,415.969z M124.552,415.969c-2.869-3.347-7.172-5.737-11.953-5.737
		c-3.825,0-6.694,1.435-9.562,3.347c-3.825,2.869-6.216,7.172-6.216,11.953c0,0.479,0,0.479,0,0.956
		c0,8.606,7.172,15.778,15.778,15.778c8.606,0,15.778-7.172,15.778-15.778c0-0.478,0-0.478,0-0.956
		C127.898,421.706,126.464,418.359,124.552,415.969z"/>
</g>
<g>
</g>
<g>
</g>
<g>
</g>
<g>
</g>
<g>
</g>
<g>
</g>
<g>
</g>
<g>
</g>
<g>
</g>
<g>
</g>
<g>
</g>
<g>
</g>
<g>
</g>
<g>
</g>
<g>
</g>
</svg>
