<svg xmlns="http://www.w3.org/2000/svg" width="583.312" height="583.312" style="enable-background:new 0 0 583.312 583.312" xml:space="preserve"><path d="M86.062 297.604c-28.362 0-51.427 23.074-51.427 51.427s23.065 51.427 51.427 51.427 51.427-23.074 51.427-51.427-23.064-51.427-51.427-51.427zm0 75.334c-13.206 0-23.906-10.7-23.906-23.906s10.7-23.906 23.906-23.906 23.906 10.7 23.906 23.906-10.699 23.906-23.906 23.906z"/><path d="M172.125 420.75V162.562c0-10.566-8.559-19.125-19.125-19.125H19.125C8.559 143.438 0 151.996 0 162.562V420.75c0 10.566 8.559 19.125 19.125 19.125H153c10.566 0 19.125-8.559 19.125-19.125zm-86.063-229.5c13.206 0 23.906 10.7 23.906 23.906s-10.7 23.906-23.906 23.906-23.906-10.7-23.906-23.906 10.7-23.906 23.906-23.906zm0 219.507c-34.033 0-61.726-27.692-61.726-61.726s27.693-61.726 61.726-61.726 61.726 27.692 61.726 61.726-27.693 61.726-61.726 61.726zM392.062 392.062v-28.688H191.25v28.688c0 10.566 8.559 19.125 19.125 19.125h162.562c10.567.001 19.125-8.558 19.125-19.125zM392.062 286.875c0-10.566-8.559-19.125-19.125-19.125H210.375c-10.566 0-19.125 8.559-19.125 19.125v66.938h200.812v-66.938zM306 334.688h-95.625v-47.812H306v47.812zm38.25 0c-13.206 0-23.906-10.7-23.906-23.906s10.7-23.906 23.906-23.906 23.906 10.7 23.906 23.906-10.7 23.906-23.906 23.906zM497.25 297.604c-28.362 0-51.427 23.074-51.427 51.427s23.074 51.427 51.427 51.427 51.427-23.074 51.427-51.427-23.065-51.427-51.427-51.427zm0 75.334c-13.206 0-23.906-10.7-23.906-23.906s10.7-23.906 23.906-23.906 23.906 10.7 23.906 23.906-10.7 23.906-23.906 23.906z"/><path d="M564.188 143.438H430.312c-10.566 0-19.125 8.559-19.125 19.125V420.75c0 10.566 8.559 19.125 19.125 19.125h133.875c10.566 0 19.125-8.559 19.125-19.125V162.562c0-10.566-8.558-19.124-19.124-19.124zM497.25 191.25c13.206 0 23.906 10.7 23.906 23.906s-10.7 23.906-23.906 23.906-23.906-10.7-23.906-23.906 10.7-23.906 23.906-23.906zm0 219.507c-34.033 0-61.726-27.692-61.726-61.726s27.692-61.726 61.726-61.726 61.726 27.692 61.726 61.726-27.693 61.726-61.726 61.726zM210.375 420.75h38.25v19.125h-38.25zM334.688 420.75h38.25v19.125h-38.25z"/></svg>