<svg xmlns="http://www.w3.org/2000/svg" width="578.531" height="578.531" style="enable-background:new 0 0 578.531 578.531" xml:space="preserve"><path d="M88.931 524.025H489.6v54.506h27.254V232.369H61.678V578.531h27.253v-54.506zm391.585-273.487h18.168v145.828h-18.168V250.538zm-36.338 0h27.254v145.828h-27.254V250.538zm-36.338 0h27.254v145.828H407.84V250.538zm-36.815 0h27.252v145.828h-27.252V250.538zm-36.337 0h27.252v145.828h-27.252V250.538zm-36.338 0h27.254v145.828H298.35V250.538zm-36.338 0h27.253v145.828h-27.253V250.538zm-36.338 0h27.253v145.828h-27.253V250.538zm-36.815 0h27.253v145.828h-27.253V250.538zm-36.338 0h27.253v145.828h-27.253V250.538zm-36.337 0h27.253v145.828h-27.253V250.538zm-36.338 0H107.1v145.828H79.846V250.538zM375.807 180.253l-4.305-9.084V86.541c0-8.128-3.346-11.475-3.346-11.475L296.438 1.435C295.48.478 294.524 0 293.09 0s-2.391.478-3.347 1.435L223.762 76.5c-3.347 3.347-7.172 7.172-7.172 11.953v90.366l-16.734 17.212 25.818 25.819 25.819-25.819-25.819-25.819V99.45c12.91 8.128 38.25 11.475 63.591 11.953v45.9c-8.606 1.913-14.822 9.562-14.822 18.647 0 10.519 8.606 19.125 19.125 19.125 10.52 0 19.125-8.606 19.125-19.125 0-8.606-5.738-15.778-13.865-18.169v-46.378c25.818-.479 50.682-3.825 63.59-11.953v71.24l-4.303 9.084-20.082 2.869 14.344 14.344-3.346 20.082 18.168-9.562 18.17 9.562-3.348-20.082 14.344-14.344-20.558-2.39zm-86.542-75.544c-40.163-.478-62.634-10.041-63.591-15.778 0 0-.478-1.913 2.869-4.303 6.693-4.781 28.209-11.475 60.722-11.953v32.034zm-48.768-33.468 53.072-59.766 59.287 61.2c-28.688-8.128-81.281-8.606-112.359-1.434zm121.442 18.168c-.955 5.26-23.428 14.822-63.59 15.778V73.153c40.162.478 62.635 10.041 63.59 15.778v.478z"/></svg>