<?xml version="1.0" encoding="iso-8859-1"?>
<!-- Generator: Adobe Illustrator 16.0.0, SVG Export Plug-In . SVG Version: 6.00 Build 0)  -->
<!DOCTYPE svg PUBLIC "-//W3C//DTD SVG 1.1//EN" "http://www.w3.org/Graphics/SVG/1.1/DTD/svg11.dtd">
<svg version="1.1" id="Capa_1" xmlns="http://www.w3.org/2000/svg" xmlns:xlink="http://www.w3.org/1999/xlink" x="0px" y="0px"
	 width="578.531px" height="578.531px" viewBox="0 0 578.531 578.531" style="enable-background:new 0 0 578.531 578.531;"
	 xml:space="preserve">
<g>
	<path d="M88.931,524.025H489.6v54.506h27.254v-54.506v-9.085V232.369H61.678V514.94v9.085v54.506h27.253V524.025z M480.516,250.538
		h18.168v145.828h-18.168V250.538z M444.178,250.538h27.254v145.828h-27.254V250.538z M407.84,250.538h27.254v145.828H407.84
		V250.538z M371.025,250.538h27.252v145.828h-27.252V250.538z M334.688,250.538h27.252v145.828h-27.252V250.538z M298.35,250.538
		h27.254v145.828H298.35V250.538L298.35,250.538z M262.012,250.538h27.253v145.828h-27.253V250.538z M225.674,250.538h27.253
		v145.828h-27.253V250.538z M188.859,250.538h27.253v145.828h-27.253V250.538z M152.521,250.538h27.253v145.828h-27.253V250.538z
		 M116.184,250.538h27.253v145.828h-27.253V250.538z M79.846,250.538H107.1v145.828H79.846V250.538z"/>
	<path d="M375.807,180.253l-4.305-9.084c0,0,0-76.979,0-84.628c0-8.128-3.346-11.475-3.346-11.475L296.438,1.435
		C295.48,0.478,294.524,0,293.09,0c-1.434,0-2.391,0.478-3.347,1.435L223.762,76.5c-3.347,3.347-7.172,7.172-7.172,11.953v90.366
		l-16.734,17.212l25.818,25.819l25.819-25.819l-25.819-25.819V99.45c12.91,8.128,38.25,11.475,63.591,11.953v45.9
		c-8.606,1.913-14.822,9.562-14.822,18.647c0,10.519,8.606,19.125,19.125,19.125c10.52,0,19.125-8.606,19.125-19.125
		c0-8.606-5.738-15.778-13.865-18.169v-46.378c25.818-0.479,50.682-3.825,63.59-11.953v71.24l-4.303,9.084l-20.082,2.869
		l14.344,14.344l-3.346,20.082l18.168-9.562l18.17,9.562l-3.348-20.082l14.344-14.344L375.807,180.253z M289.265,104.709
		c-40.163-0.478-62.634-10.041-63.591-15.778c0,0-0.478-1.913,2.869-4.303c6.693-4.781,28.209-11.475,60.722-11.953V104.709z
		 M240.497,71.241l53.072-59.766l59.287,61.2C324.168,64.547,271.575,64.069,240.497,71.241z M361.939,89.409
		c-0.955,5.26-23.428,14.822-63.59,15.778V73.153c40.162,0.478,62.635,10.041,63.59,15.778V89.409z"/>
</g>
<g>
</g>
<g>
</g>
<g>
</g>
<g>
</g>
<g>
</g>
<g>
</g>
<g>
</g>
<g>
</g>
<g>
</g>
<g>
</g>
<g>
</g>
<g>
</g>
<g>
</g>
<g>
</g>
<g>
</g>
</svg>
