<?xml version="1.0" encoding="iso-8859-1"?>
<!-- Generator: Adobe Illustrator 16.0.0, SVG Export Plug-In . SVG Version: 6.00 Build 0)  -->
<!DOCTYPE svg PUBLIC "-//W3C//DTD SVG 1.1//EN" "http://www.w3.org/Graphics/SVG/1.1/DTD/svg11.dtd">
<svg version="1.1" id="Capa_1" xmlns="http://www.w3.org/2000/svg" xmlns:xlink="http://www.w3.org/1999/xlink" x="0px" y="0px"
	 width="502.262px" height="502.261px" viewBox="0 0 502.262 502.261" style="enable-background:new 0 0 502.262 502.261;"
	 xml:space="preserve">
<g>
	<g>
		<path d="M34.074,190.021v6.646c13.015,4.829,32.513,9.458,59.766,9.458c18.953,0,34.186-2.936,45.422-6.273v-7.602
			c-11.733,3.127-28.056,5.508-50.796,5.508C64.167,197.757,46.601,194.324,34.074,190.021z"/>
		<path d="M491.927,247.711c-3.624,1.023-8.157,2.057-14.22,3.424c-5.67,1.281-12.775,2.888-21.764,5.059
			c-5.184,1.253-12.068,2.974-20.244,5.077v4.619c-0.115,2.267,0.249,8.147,3.203,11.255c1.444,1.521,3.424,2.257,6.082,2.257
			c1.405,0,2.993-0.201,4.724-0.621c7.564-1.836,13.818-3.118,19.106-4.188c11.255-2.286,17.451-3.558,22.07-7.249
			c5.24-4.188,2.467-13.215,2.438-13.301L491.927,247.711z"/>
		<path d="M171.994,407.759c-0.201,5.527-0.067,9.123-0.067,9.275l0.086,1.636l-0.927,1.339
			c-0.641,0.937-16.486,22.787-78.04,22.787c-61.344,0-85.594-29.232-86.608-30.476l-0.115-0.144
			c-3.299,4.428-6.11,11.37-6.321,22.338c-0.086,4.303,1.635,7.287,5.231,10.959c16.591,16.878,65.933,21.229,82.027,21.229h2.228
			c54.726,0,87.487-12.574,94.774-38.068c1.205-4.227,0.765-7.583-1.348-11.188C180.61,413.488,176.469,410.303,171.994,407.759z"/>
		<path d="M500.112,204.824c-0.727-6.34-1.674-14.067-10.117-19.288c-0.02,0.105-0.028,0.229-0.058,0.334
			c-5.402,22.883-109.863,43.146-276.652,68.41c-16.18,2.458-29.032,4.409-36.758,5.738c-6.34,1.08-12.164,1.625-17.452,1.625
			c-9.543,0-17.337-1.778-23.342-5.316c-1.951-1.147-3.729-2.477-5.298-4.007c-1.827-1.769-3.137-3.662-4.236-5.556
			c-4.676-8.08-3.691-16.381-3.634-16.802c0.373-2.61,2.735-4.398,5.403-4.063c2.592,0.373,4.418,2.773,4.064,5.374
			c-0.038,0.344-0.985,8.425,5.145,14.286c0.468,0.449,1.033,0.812,1.559,1.215c0.172,0.134,0.334,0.268,0.507,0.401
			c2.543,1.788,5.756,3.089,9.562,3.892c6.847,1.444,15.596,1.339,26.086-0.468c7.765-1.33,20.684-3.29,36.949-5.757
			c65.235-9.888,263.763-39.972,268.764-61.162c0.058-0.239-0.411-1.147-2.228-2.429c-0.01-0.01-0.01-0.019-0.02-0.019
			c-4.857-1.014-10.806-1.616-18.207-1.616c-7.22,0-15.51,0.593-24.643,1.779c-72.799,9.39-248.462,29.022-252.641,29.481
			c0.01,0,0.01,0,0.01,0c0.201,0-2.286,0.669-5.46,0.669c-7.545,0-13.129-3.672-15.797-10.107c-3.05,1.54-7.42,3.452-12.804,5.374
			c-2.869,1.023-6.043,2.037-9.562,3.002c-11.676,3.223-26.794,5.872-45.422,5.872c-26.325,0-45.909-4.074-59.766-8.778
			c-3.614-1.224-6.713-2.477-9.562-3.729c-3.787-1.664-7.047-3.299-9.562-4.752v196.739v5.164v4.981v2.161
			c5.04,5.116,28.439,25.762,78.097,25.762c47.984,0,65.283-13.741,69.261-17.681c-0.058-2.372-0.077-6.646,0.239-12.145
			c0.086-1.521,0.22-3.185,0.364-4.877c0.134-1.578,0.315-3.251,0.507-4.963c1.797-15.836,6.455-36.51,17.958-53.101
			c-28.735,16.648-31.977,31.184-32.015,31.384c-0.43,2.295-2.448,3.949-4.714,3.949c-0.258,0-0.516-0.019-0.774-0.066
			c-2.572-0.421-4.332-2.783-3.959-5.365c0.201-1.396,5.986-34.042,86.455-59.115c49.906-17.184,145.856-43.471,199.779-57.423
			c3.376-0.87,6.531-1.683,9.562-2.457c7.104-1.808,13.234-3.347,18.006-4.495c9.047-2.189,16.189-3.796,21.908-5.087
			c6.665-1.501,11.102-2.524,14.268-3.442c1.013-0.297,1.893-0.574,2.667-0.86c2.783-1.014,4.208-2.027,5.47-3.596
			c0.173-0.22,0.345-0.479,0.517-0.708c2.983-4.016,5.365-10.107,2.295-23.629C500.514,208.238,500.322,206.622,500.112,204.824z"/>
		<path d="M177.626,128.496c17.547-2.926,204.389-49.065,206.273-49.534c4.562-0.688,16.887-3.882,19.66-10.471
			c1.473-3.52,0.163-8.147-3.921-13.751c-12.173-16.744-22.911-18.686-29.931-18.686c-4.283,0-8.405,0.794-12.383,1.559
			l-2.602,0.488c-12.88,2.343-188.658,44.351-190.437,44.771l-5.9,1.415v-6.062v-5.718c-14.497,4.714-33.88,8.415-59.134,8.415
			c-4.122,0-8.377-0.096-12.814-0.306c-36.988-1.731-58.695-9.648-71.499-17.71v105.57c1.339,1.367,4.351,4.007,9.562,6.914
			c2.611,1.454,5.738,2.974,9.562,4.447c11.523,4.437,28.917,8.367,54.392,8.367c23.83,0,39.971-2.726,50.796-5.938
			c3.825-1.138,6.981-2.324,9.562-3.481c5.298-2.381,8.243-4.6,9.562-5.795v-30.762c-0.277-1.387-0.191-3.118,0.708-4.877
			C161.284,133.048,167.175,130.236,177.626,128.496z"/>
		<path d="M158.396,62.276c-0.029-1.415-0.641-5.824-7.344-10.854c-7.736-5.814-24.767-13.196-61.965-15.367
			c-56.974-3.337-70.705,11.083-73.555,15.654c9.993,7.841,30.39,17.442,71.375,19.354
			C119.161,72.565,142.427,67.927,158.396,62.276z"/>
	</g>
</g>
<g>
</g>
<g>
</g>
<g>
</g>
<g>
</g>
<g>
</g>
<g>
</g>
<g>
</g>
<g>
</g>
<g>
</g>
<g>
</g>
<g>
</g>
<g>
</g>
<g>
</g>
<g>
</g>
<g>
</g>
</svg>
