<?xml version="1.0" encoding="iso-8859-1"?>
<!-- Generator: Adobe Illustrator 16.0.0, SVG Export Plug-In . SVG Version: 6.00 Build 0)  -->
<!DOCTYPE svg PUBLIC "-//W3C//DTD SVG 1.1//EN" "http://www.w3.org/Graphics/SVG/1.1/DTD/svg11.dtd">
<svg version="1.1" id="Capa_1" xmlns="http://www.w3.org/2000/svg" xmlns:xlink="http://www.w3.org/1999/xlink" x="0px" y="0px"
	 width="411.188px" height="411.188px" viewBox="0 0 411.188 411.188" style="enable-background:new 0 0 411.188 411.188;"
	 xml:space="preserve">
<g>
	<g>
		<path d="M105.427,105.188h200.324c0.087-1.597,0.249-3.165,0.249-4.781c0-36.07-19.183-67.655-47.812-85.364v47.114
			c0,13.177-10.729,23.906-23.906,23.906h-57.375C163.729,86.062,153,75.333,153,62.156V15.042
			c-28.63,17.709-47.812,49.304-47.812,85.364C105.188,102.022,105.35,103.591,105.427,105.188z"/>
		<path d="M162.562,62.156c0,7.908,6.436,14.344,14.344,14.344h57.375c7.908,0,14.344-6.436,14.344-14.344V9.83
			C235.562,3.596,221.009,0,205.594,0c-15.415,0-29.969,3.596-43.031,9.83V62.156z"/>
		<polygon points="290.958,153 120.229,153 114.597,153 109.051,153 105.188,153 105.188,411.188 306,411.188 306,153 302.137,153 
			296.591,153 		"/>
		<polygon points="306.774,143.438 315.562,143.438 325.125,143.438 325.125,114.75 314.521,114.75 309.691,114.75 304.853,114.75 
			106.335,114.75 101.497,114.75 96.667,114.75 86.062,114.75 86.062,143.438 95.625,143.438 104.413,143.438 105.188,143.438 
			109.682,143.438 115.018,143.438 296.17,143.438 301.506,143.438 306,143.438 		"/>
	</g>
</g>
<g>
</g>
<g>
</g>
<g>
</g>
<g>
</g>
<g>
</g>
<g>
</g>
<g>
</g>
<g>
</g>
<g>
</g>
<g>
</g>
<g>
</g>
<g>
</g>
<g>
</g>
<g>
</g>
<g>
</g>
</svg>
