<svg xmlns="http://www.w3.org/2000/svg" width="535.5" height="535.5" style="enable-background:new 0 0 535.5 535.5" xml:space="preserve"><path d="M473.344 101.788c-3.48 3.175-8.539 5.192-14.344 5.192s-10.863-2.018-14.344-5.192c-3.48 3.175-8.539 5.192-14.344 5.192s-10.863-2.018-14.344-5.192c-3.48 3.175-8.539 5.192-14.344 5.192s-10.863-2.018-14.344-5.192c-3.48 3.175-8.539 5.192-14.344 5.192s-10.863-2.018-14.344-5.192c-3.48 3.175-8.539 5.192-14.344 5.192s-10.863-2.018-14.344-5.192c-3.48 3.175-8.539 5.192-14.344 5.192s-10.863-2.018-14.344-5.192c-3.48 3.175-8.539 5.192-14.344 5.192s-10.863-2.018-14.344-5.192c-3.48 3.175-8.539 5.192-14.344 5.192s-10.863-2.018-14.344-5.192c-3.481 3.175-8.539 5.192-14.344 5.192s-10.863-2.018-14.344-5.192c-3.481 3.175-8.539 5.192-14.344 5.192s-10.863-2.018-14.344-5.192c-3.481 3.175-8.539 5.192-14.344 5.192s-10.863-2.018-14.344-5.192c-3.481 3.175-8.539 5.192-14.344 5.192s-10.863-2.018-14.344-5.192c-3.481 3.175-8.539 5.192-14.344 5.192s-10.863-2.018-14.344-5.192c-3.481 3.175-8.539 5.192-14.344 5.192s-10.863-2.018-14.344-5.192c-3.481 3.175-8.539 5.192-14.344 5.192-3.528 0-6.751-.784-9.562-2.075v394.138H497.25V104.905a22.819 22.819 0 0 1-9.562 2.075c-5.805 0-10.864-2.017-14.344-5.192zM100.999 438.082c-8.252 0-14.937-6.693-14.937-14.937 0-8.253 6.694-14.937 14.937-14.937 8.243 0 14.937 6.693 14.937 14.937.009 8.244-6.685 14.937-14.937 14.937zm0-124.312c-8.252 0-14.937-6.693-14.937-14.937 0-8.253 6.694-14.937 14.937-14.937 8.243 0 14.937 6.693 14.937 14.937.009 8.243-6.685 14.937-14.937 14.937zm0-124.313c-8.252 0-14.937-6.694-14.937-14.937 0-8.252 6.694-14.937 14.937-14.937 8.243 0 14.937 6.693 14.937 14.937.009 8.243-6.685 14.937-14.937 14.937zm38.25 191.25c-8.252 0-14.937-6.693-14.937-14.937 0-8.253 6.694-14.937 14.937-14.937 8.243 0 14.937 6.693 14.937 14.937.009 8.244-6.685 14.937-14.937 14.937zm0-124.312c-8.252 0-14.937-6.694-14.937-14.937 0-8.252 6.694-14.937 14.937-14.937 8.243 0 14.937 6.693 14.937 14.937.009 8.243-6.685 14.937-14.937 14.937zm47.813 181.687c-8.252 0-14.937-6.693-14.937-14.937 0-8.253 6.694-14.937 14.937-14.937 8.243 0 14.937 6.693 14.937 14.937.009 8.244-6.685 14.937-14.937 14.937zm0-124.312c-8.252 0-14.937-6.693-14.937-14.937 0-8.253 6.694-14.937 14.937-14.937 8.243 0 14.937 6.693 14.937 14.937.009 8.243-6.685 14.937-14.937 14.937zm0-124.313c-8.252 0-14.937-6.694-14.937-14.937 0-8.252 6.694-14.937 14.937-14.937 8.243 0 14.937 6.693 14.937 14.937.009 8.243-6.685 14.937-14.937 14.937zm38.25 191.25c-8.252 0-14.937-6.693-14.937-14.937 0-8.253 6.694-14.937 14.937-14.937 8.243 0 14.937 6.693 14.937 14.937.009 8.244-6.685 14.937-14.937 14.937zm0-124.312c-8.252 0-14.937-6.694-14.937-14.937 0-8.252 6.694-14.937 14.937-14.937 8.243 0 14.937 6.693 14.937 14.937.009 8.243-6.685 14.937-14.937 14.937zm47.812 181.687c-8.252 0-14.937-6.693-14.937-14.937 0-8.253 6.693-14.937 14.937-14.937s14.937 6.693 14.937 14.937c.009 8.244-6.684 14.937-14.937 14.937zm0-124.312c-8.252 0-14.937-6.693-14.937-14.937 0-8.253 6.693-14.937 14.937-14.937s14.937 6.693 14.937 14.937c.009 8.243-6.684 14.937-14.937 14.937zm0-124.313c-8.252 0-14.937-6.694-14.937-14.937 0-8.252 6.693-14.937 14.937-14.937s14.937 6.693 14.937 14.937c.009 8.243-6.684 14.937-14.937 14.937zm38.25 191.25c-8.252 0-14.937-6.693-14.937-14.937 0-8.253 6.693-14.937 14.937-14.937s14.937 6.693 14.937 14.937c.009 8.244-6.684 14.937-14.937 14.937zm0-124.312c-8.252 0-14.937-6.694-14.937-14.937 0-8.252 6.693-14.937 14.937-14.937s14.937 6.693 14.937 14.937c.009 8.243-6.684 14.937-14.937 14.937zm47.813 181.687c-8.252 0-14.937-6.693-14.937-14.937 0-8.253 6.693-14.937 14.937-14.937s14.937 6.693 14.937 14.937c.009 8.244-6.685 14.937-14.937 14.937zm0-124.312c-8.252 0-14.937-6.693-14.937-14.937 0-8.253 6.693-14.937 14.937-14.937s14.937 6.693 14.937 14.937c.009 8.243-6.685 14.937-14.937 14.937zm0-124.313c-8.252 0-14.937-6.694-14.937-14.937 0-8.252 6.693-14.937 14.937-14.937s14.937 6.693 14.937 14.937c.009 8.243-6.685 14.937-14.937 14.937zm38.25 191.25c-8.252 0-14.937-6.693-14.937-14.937 0-8.253 6.693-14.937 14.937-14.937s14.937 6.693 14.937 14.937c.009 8.244-6.685 14.937-14.937 14.937zm0-124.312c-8.252 0-14.937-6.694-14.937-14.937 0-8.252 6.693-14.937 14.937-14.937s14.937 6.693 14.937 14.937c.009 8.243-6.685 14.937-14.937 14.937zm47.812 181.687c-8.252 0-14.937-6.693-14.937-14.937 0-8.253 6.693-14.937 14.937-14.937s14.937 6.693 14.937 14.937c.009 8.244-6.684 14.937-14.937 14.937zm0-124.312c-8.252 0-14.937-6.693-14.937-14.937 0-8.253 6.693-14.937 14.937-14.937s14.937 6.693 14.937 14.937c.009 8.243-6.684 14.937-14.937 14.937zm0-124.313c-8.252 0-14.937-6.694-14.937-14.937 0-8.252 6.693-14.937 14.937-14.937s14.937 6.693 14.937 14.937c.009 8.243-6.684 14.937-14.937 14.937zM38.25 49.605H14.344C6.426 49.605 0 56.031 0 63.949s6.426 14.344 14.344 14.344H38.25V49.605zM521.156 49.605h-14.344v28.688h14.344c7.918 0 14.344-6.426 14.344-14.344s-6.426-14.344-14.344-14.344zM315.562 97.418c5.633 0 9.562-3.06 9.562-5.795V42.251c0-2.745-3.93-5.795-9.562-5.795S306 39.517 306 42.252v49.372c0 2.734 3.93 5.794 9.562 5.794zM286.875 97.418c5.633 0 9.562-3.06 9.562-5.795V42.251c0-2.745-3.93-5.795-9.562-5.795s-9.562 3.06-9.562 5.795v49.372c-.001 2.735 3.929 5.795 9.562 5.795zM344.25 97.418c5.633 0 9.562-3.06 9.562-5.795V42.251c0-2.745-3.93-5.795-9.562-5.795s-9.562 3.06-9.562 5.795v49.372c0 2.735 3.929 5.795 9.562 5.795zM325.125 42.252v-.01zM325.125 91.642v-.019zM372.938 97.418c5.633 0 9.562-3.06 9.562-5.795V42.251c0-2.745-3.93-5.795-9.562-5.795s-9.562 3.06-9.562 5.795v49.372c-.001 2.735 3.929 5.795 9.562 5.795zM353.812 42.252v-.01zM353.812 91.642v-.019zM401.625 97.418c5.633 0 9.562-3.06 9.562-5.795V42.251c0-2.745-3.93-5.795-9.562-5.795s-9.562 3.06-9.562 5.795v49.372c-.001 2.735 3.929 5.795 9.562 5.795zM382.5 42.252v-.01zM382.5 91.642v-.019zM430.312 97.418c5.633 0 9.562-3.06 9.562-5.795V42.251c0-2.745-3.93-5.795-9.562-5.795s-9.562 3.06-9.562 5.795v49.372c0 2.735 3.93 5.795 9.562 5.795zM411.188 42.252v-.01zM411.188 91.642v-.019zM459 97.418c5.633 0 9.562-3.06 9.562-5.795V42.251c0-2.745-3.93-5.795-9.562-5.795s-9.562 3.06-9.562 5.795v49.372c0 2.735 3.929 5.795 9.562 5.795zM439.875 42.252v-.01zM439.875 91.642v-.019zM487.688 36.457c-5.633 0-9.562 3.06-9.562 5.795v49.372c0 2.735 3.93 5.795 9.562 5.795s9.562-3.06 9.562-5.795V42.251c0-2.734-3.93-5.794-9.562-5.794zM468.562 42.252v-.01zM468.562 91.642v-.019zM86.062 97.418c5.632 0 9.562-3.06 9.562-5.795V42.251c0-2.745-3.93-5.795-9.562-5.795s-9.562 3.06-9.562 5.795v49.372c0 2.735 3.93 5.795 9.562 5.795zM38.25 42.252v-.01zM57.375 97.418c5.632 0 9.562-3.06 9.562-5.795V42.251c0-2.745-3.93-5.795-9.562-5.795s-9.562 3.06-9.562 5.795v49.372c-.001 2.735 3.93 5.795 9.562 5.795zM38.25 91.623v.019-.019zM114.75 97.418c5.632 0 9.562-3.06 9.562-5.795V42.251c0-2.745-3.93-5.795-9.562-5.795s-9.562 3.06-9.562 5.795v49.372c0 2.735 3.93 5.795 9.562 5.795zM95.625 42.252v-.01zM95.625 91.642v-.019zM143.438 97.418c5.632 0 9.562-3.06 9.562-5.795V42.251c0-2.745-3.93-5.795-9.562-5.795s-9.562 3.06-9.562 5.795v49.372c-.001 2.735 3.929 5.795 9.562 5.795zM124.312 42.252v-.01zM124.312 91.642v-.019zM172.125 97.418c5.632 0 9.562-3.06 9.562-5.795V42.251c0-2.745-3.93-5.795-9.562-5.795s-9.562 3.06-9.562 5.795v49.372c-.001 2.735 3.93 5.795 9.562 5.795zM153 42.252v-.01zM153 91.642v-.019zM200.812 97.418c5.632 0 9.562-3.06 9.562-5.795V42.251c0-2.745-3.93-5.795-9.562-5.795s-9.562 3.06-9.562 5.795v49.372c0 2.735 3.93 5.795 9.562 5.795zM181.688 42.252v-.01zM181.688 91.642v-.019zM229.5 97.418c5.632 0 9.562-3.06 9.562-5.795V42.251c0-2.745-3.93-5.795-9.562-5.795s-9.562 3.06-9.562 5.795v49.372c0 2.735 3.93 5.795 9.562 5.795zM210.375 42.252v-.01zM210.375 91.642v-.019zM258.188 97.418c5.633 0 9.562-3.06 9.562-5.795V42.251c0-2.745-3.93-5.795-9.562-5.795s-9.562 3.06-9.562 5.795v49.372c-.001 2.735 3.929 5.795 9.562 5.795zM239.062 42.252v-.01zM239.062 91.642v-.019z"/></svg>