<svg xmlns="http://www.w3.org/2000/svg" width="583.312" height="583.312" style="enable-background:new 0 0 583.312 583.312" xml:space="preserve"><path d="M125.25 545.507c25.694-5.097 43.28-28.305 53.292-52.259h-13.588c-5.795 0-11.532-.115-17.203-.373-5.89 12.049-14.831 22.472-28.181 24.557-4.121-3.566-9.419-5.795-15.3-5.795-12.977 0-23.495 10.519-23.495 23.495s10.519 23.495 23.495 23.495c9.237 0 17.145-5.374 20.98-13.12zM491.685 558.627c12.977 0 23.495-10.519 23.495-23.495s-10.519-23.495-23.495-23.495c-5.183 0-9.936 1.73-13.817 4.58-11.398-3.796-19.584-13.808-25.274-24.958-8.701 1.511-16.438 1.989-22.242 1.989H420.13c8.204 22.52 23.39 44.389 49.982 51.159 3.595 8.358 11.896 14.22 21.573 14.22zM453.215 110.146l-48.023-48.032c-8.816 2.247-35.85 19.68-43.93 28.114l63.906 63.906c8.377-8.014 25.627-34.78 28.047-43.988zM361.979 128.133a4.806 4.806 0 0 0 3.386-1.396l6.761-6.761c.43-.43.727-.927.956-1.444.784-1.759.478-3.873-.956-5.316-1.435-1.444-3.558-1.741-5.317-.957a4.84 4.84 0 0 0-1.443.957l-6.771 6.751a4.786 4.786 0 0 0 3.384 8.166zM341.688 148.415a4.802 4.802 0 0 0 3.385-1.396l6.761-6.761c1.864-1.865 1.864-4.896 0-6.761s-4.896-1.865-6.761 0l-6.761 6.761a4.786 4.786 0 0 0 0 6.761 4.74 4.74 0 0 0 3.376 1.396zM321.405 168.707a4.804 4.804 0 0 0 3.385-1.396l6.761-6.76a4.784 4.784 0 0 0 0-6.761 4.784 4.784 0 0 0-6.761 0l-6.761 6.761a4.785 4.785 0 0 0 0 6.76 4.77 4.77 0 0 0 3.376 1.396zM386.593 132.044c.784-1.76.487-3.883-.956-5.317-1.444-1.444-3.558-1.741-5.317-.957a4.853 4.853 0 0 0-1.443.957l-6.761 6.77a4.784 4.784 0 0 0 0 6.761 4.76 4.76 0 0 0 3.385 1.396 4.806 4.806 0 0 0 3.386-1.396l6.761-6.77c.418-.421.715-.918.945-1.444zM365.354 147.019a4.784 4.784 0 0 0-6.761 0l-6.761 6.761a4.786 4.786 0 0 0 0 6.761 4.764 4.764 0 0 0 3.385 1.396 4.802 4.802 0 0 0 3.386-1.396l6.761-6.761a4.793 4.793 0 0 0-.01-6.761zM345.072 167.301a4.784 4.784 0 0 0-6.761 0l-6.761 6.77a4.786 4.786 0 0 0 0 6.761 4.764 4.764 0 0 0 3.386 1.396 4.802 4.802 0 0 0 3.385-1.396l6.761-6.77a4.792 4.792 0 0 0-.01-6.761zM389.021 155.175a4.798 4.798 0 0 0 3.385-1.396l6.761-6.761c.431-.43.728-.928.957-1.444.784-1.759.478-3.873-.957-5.317-1.434-1.444-3.557-1.74-5.316-.956-.517.229-1.023.535-1.444.956l-6.76 6.761a4.784 4.784 0 0 0 0 6.761 4.72 4.72 0 0 0 3.374 1.396zM368.739 175.467a4.802 4.802 0 0 0 3.386-1.396l6.761-6.761a4.785 4.785 0 0 0 0-6.76 4.784 4.784 0 0 0-6.761 0l-6.761 6.76a4.784 4.784 0 0 0 0 6.761 4.763 4.763 0 0 0 3.375 1.396zM348.448 195.749a4.802 4.802 0 0 0 3.385-1.396l6.761-6.761c1.864-1.865 1.864-4.896 0-6.761s-4.896-1.865-6.761 0l-6.761 6.761a4.786 4.786 0 0 0 0 6.761 4.797 4.797 0 0 0 3.376 1.396z"/><path d="M564.188 254.186H535.5V34.248a9.56 9.56 0 0 0-9.562-9.562h-41.539a9.58 9.58 0 0 0-6.483 2.524l-34.368 31.643c-7.812-1.979-16.725.688-22.224 2.926l32.838 32.847c2.372-6.12 4.571-14.478 2.706-22.032l31.27-28.783h28.238v210.375H19.125C8.559 254.186 0 262.744 0 273.311v19.125c0 10.566 8.559 19.125 19.125 19.125h11.896c1.454 7.401 3.328 15.912 5.7 25.723l13.387 64.146c18.733 69.328 56.667 80.583 101.621 82.037 4.351.134 8.75.22 13.225.22h17.222l234.845.01a.748.748 0 0 0-.038-.134c.01.038.02.086.038.124h13.33c5.422 0 11.638-.344 18.303-1.329 29.405-4.332 67.598-21.104 85.441-75.879l21.754-94.917H564.188c.517 0 .994-.115 1.501-.153 9.85-.774 17.624-8.922 17.624-18.972v-19.125c-.001-10.568-8.559-19.126-19.125-19.126zM411.762 454.013z"/></svg>