<?xml version="1.0" encoding="iso-8859-1"?>
<!-- Generator: Adobe Illustrator 16.0.0, SVG Export Plug-In . SVG Version: 6.00 Build 0)  -->
<!DOCTYPE svg PUBLIC "-//W3C//DTD SVG 1.1//EN" "http://www.w3.org/Graphics/SVG/1.1/DTD/svg11.dtd">
<svg version="1.1" id="Capa_1" xmlns="http://www.w3.org/2000/svg" xmlns:xlink="http://www.w3.org/1999/xlink" x="0px" y="0px"
	 width="506.812px" height="506.812px" viewBox="0 0 506.812 506.812" style="enable-background:new 0 0 506.812 506.812;"
	 xml:space="preserve">
<g>
	<g>
		<path d="M377.719,306c2.64,0,4.781-2.142,4.781-4.781s-2.142-4.781-4.781-4.781h-76.5V267.75h-28.688V19.125
			C272.531,8.568,263.963,0,253.406,0c-10.557,0-19.125,8.568-19.125,19.125V267.75h-28.688v28.688h-76.5
			c-2.639,0-4.781,2.142-4.781,4.781s2.142,4.781,4.781,4.781h105.188v9.562H129.094c-2.639,0-4.781,2.142-4.781,4.781
			s2.142,4.781,4.781,4.781h105.188v9.562H129.094c-2.639,0-4.781,2.142-4.781,4.781s2.142,4.781,4.781,4.781h105.188v9.562H129.094
			c-2.639,0-4.781,2.142-4.781,4.781s2.142,4.781,4.781,4.781h105.188v9.562H129.094c-2.639,0-4.781,2.142-4.781,4.781
			s2.142,4.781,4.781,4.781h105.188v9.562H129.094c-2.639,0-4.781,2.142-4.781,4.781s2.142,4.781,4.781,4.781h105.188v9.562h-95.625
			c-2.639,0-4.781,2.142-4.781,4.781s2.142,4.781,4.781,4.781h95.625v9.562h-86.062c-2.639,0-4.781,2.142-4.781,4.781
			s2.142,4.781,4.781,4.781h86.062v9.562h-66.938c-2.639,0-4.781,2.142-4.781,4.781s2.142,4.781,4.781,4.781h66.938v9.562h-47.812
			c-2.639,0-4.781,2.142-4.781,4.781s2.142,4.781,4.781,4.781h47.812v9.562h-19.125c-2.639,0-4.781,2.142-4.781,4.781
			s2.142,4.781,4.781,4.781h21.774c3.309,5.689,9.409,9.562,16.476,9.562c7.066,0,13.158-3.873,16.477-9.562h21.773
			c2.64,0,4.781-2.142,4.781-4.781s-2.142-4.781-4.781-4.781h-19.125v-9.562h38.25c2.64,0,4.781-2.142,4.781-4.781
			s-2.142-4.781-4.781-4.781h-38.25V459h57.375c2.64,0,4.781-2.142,4.781-4.781s-2.142-4.781-4.781-4.781h-57.375v-9.562h76.5
			c2.64,0,4.781-2.142,4.781-4.781s-2.142-4.781-4.781-4.781h-76.5v-9.562h95.625c2.64,0,4.781-2.142,4.781-4.781
			s-2.142-4.781-4.781-4.781h-95.625v-9.562h105.188c2.64,0,4.781-2.142,4.781-4.781s-2.142-4.781-4.781-4.781H272.531V382.5
			h105.188c2.64,0,4.781-2.142,4.781-4.781s-2.142-4.781-4.781-4.781H272.531v-9.562h105.188c2.64,0,4.781-2.142,4.781-4.781
			s-2.142-4.781-4.781-4.781H272.531v-9.562h105.188c2.64,0,4.781-2.142,4.781-4.781s-2.142-4.781-4.781-4.781H272.531v-9.562
			h105.188c2.64,0,4.781-2.142,4.781-4.781s-2.142-4.781-4.781-4.781H272.531V306H377.719z"/>
	</g>
</g>
<g>
</g>
<g>
</g>
<g>
</g>
<g>
</g>
<g>
</g>
<g>
</g>
<g>
</g>
<g>
</g>
<g>
</g>
<g>
</g>
<g>
</g>
<g>
</g>
<g>
</g>
<g>
</g>
<g>
</g>
</svg>
