<?xml version="1.0" encoding="iso-8859-1"?>
<!-- Generator: Adobe Illustrator 16.0.0, SVG Export Plug-In . SVG Version: 6.00 Build 0)  -->
<!DOCTYPE svg PUBLIC "-//W3C//DTD SVG 1.1//EN" "http://www.w3.org/Graphics/SVG/1.1/DTD/svg11.dtd">
<svg version="1.1" id="Capa_1" xmlns="http://www.w3.org/2000/svg" xmlns:xlink="http://www.w3.org/1999/xlink" x="0px" y="0px"
	 width="492.746px" height="492.746px" viewBox="0 0 492.746 492.746" style="enable-background:new 0 0 492.746 492.746;"
	 xml:space="preserve">
<g>
	<g>
		<path d="M305.536,71.996c0.259-9.562,0.44-6.254,0.44-8.721C305.977,28.726,279.173,0,246.105,0s-59.871,29.089-59.871,63.629
			c0,2.467,0.172-1.205,0.44,8.357h4.705h114.157V71.996z"/>
		<path d="M327.654,208.252v-59.756h-10.089h-9.036v-38.25h9.562V91.121h-11.484H188.95h-2.821h-11.475v19.125h9.562v38.25h-9.037
			h-10.088v60.789c-19.125,8.883-38.25,28.477-38.25,51.293v172.001c0,31.136,31.145,60.167,58.915,60.167H309.83
			c27.76,0,56.074-29.031,56.074-60.167V260.568C365.904,236.787,346.779,216.533,327.654,208.252z"/>
	</g>
</g>
<g>
</g>
<g>
</g>
<g>
</g>
<g>
</g>
<g>
</g>
<g>
</g>
<g>
</g>
<g>
</g>
<g>
</g>
<g>
</g>
<g>
</g>
<g>
</g>
<g>
</g>
<g>
</g>
<g>
</g>
</svg>
