<svg xmlns="http://www.w3.org/2000/svg" width="492.746" height="492.746" style="enable-background:new 0 0 492.746 492.746" xml:space="preserve"><path d="M305.536 71.996c.259-9.562.44-6.254.44-8.721C305.977 28.726 279.173 0 246.105 0s-59.871 29.089-59.871 63.629c0 2.467.172-1.205.44 8.357h118.862v.01zM327.654 208.252v-59.756h-19.125v-38.25h9.562V91.121H174.654v19.125h9.562v38.25h-19.125v60.789c-19.125 8.883-38.25 28.477-38.25 51.293v172.001c0 31.136 31.145 60.167 58.915 60.167H309.83c27.76 0 56.074-29.031 56.074-60.167V260.568c0-23.781-19.125-44.035-38.25-52.316z"/></svg>