<svg xmlns="http://www.w3.org/2000/svg" width="545.062" height="545.062" style="enable-background:new 0 0 545.062 545.062" xml:space="preserve"><path d="M37.294 294.047H15.3c-2.391 0-3.825.479-4.303.479l17.212 77.456h12.91c-9.084-10.997-15.3-22.472-15.3-39.206-.478-14.344 3.825-27.732 11.475-38.729zM130.05 371.981l16.734-77.456c-.479 0-1.435-.479-4.303-.479h-21.994c7.172 10.519 11.475 23.906 11.475 38.729 0 16.734-6.215 28.688-14.822 39.206h12.91z"/><path d="M106.622 371.981c10.519-11.476 17.69-22.472 17.69-39.206 0-15.301-5.259-28.688-13.866-38.729-2.869-3.347-6.693-6.693-10.041-8.606-6.694-3.825-13.387-6.216-21.038-6.216-7.65 0-14.822 2.391-21.037 6.216-3.347 2.391-6.694 5.26-10.041 8.606-8.606 10.041-13.865 23.428-13.865 38.729 0 16.734 6.693 27.253 17.69 39.206h54.508zM479.082 384.412c-6.695 1.913-14.344 2.869-21.994 2.869-6.693 0-13.389-.956-20.082-2.391l-16.734 130.528c0 1.912 1.912 3.347 4.303 3.347h67.416c2.391 0 3.826-1.912 3.826-3.825l-16.735-130.528c0 .479 0 .479 0 0zM491.99 527.85zM540.281 311.26h-34.425v-17.213h4.781c2.391 0 3.826-1.912 3.826-3.825v-.478c0-2.391-1.912-3.825-3.826-3.825H491.99c-2.391 0-3.824 1.912-3.824 3.825v.478c0 2.391 1.912 3.825 3.824 3.825h4.781v17.213h-22.949l-4.781-23.429c-.957-4.781-1.912-10.519-7.172-10.519v-13.866c0-2.391-1.912-4.303-4.303-4.303s-4.305 1.913-4.305 4.303v13.866c-5.258 0-7.648 4.303-9.084 10.519l-4.781 23.429h-28.688v-17.213h4.781c2.391 0 3.826-1.912 3.826-3.825v-.478c0-2.391-1.914-3.825-3.826-3.825H397.8c-2.391 0-3.826 1.912-3.826 3.825v.478c0 2.391 1.912 3.825 3.826 3.825h4.303v17.213h-25.818c-2.391 0-4.305 1.912-4.305 4.303s1.914 4.303 4.305 4.303h11.954c1.434 24.863 19.602 46.379 44.943 54.984 7.172 2.391 15.777 3.825 24.385 3.825 9.084 0 17.689-1.912 25.34-4.303 24.863-8.606 42.553-29.644 43.51-54.507H540.761c2.391 0 4.303-1.912 4.303-4.303s-2.392-4.302-4.783-4.302zM79.369 447.525c-10.041 0-19.603-1.913-28.209-4.781l-10.519 71.719c0 1.434 2.391 4.781 3.825 4.781h66.938c1.913 0 3.825-2.869 3.825-5.26l-10.52-70.284c-7.649 2.391-16.256 3.825-25.34 3.825zM153.478 389.193h6.216c2.391 0 4.303-1.912 4.303-4.303s-1.913-4.303-4.303-4.303H3.825c-2.391 0-3.347 1.434-3.825 3.347v.956c0 .956.478 1.435.957 2.391 0 1.435 1.434 2.391 2.869 2.391h5.737c3.825 17.69 16.734 32.513 34.425 41.119 1.434.956 2.869 1.434 4.303 2.391 1.435.478 2.391.956 3.825 1.434 8.128 2.869 17.212 4.781 26.775 4.781 8.606 0 17.212-1.434 24.863-3.824 1.434-.479 2.391-.957 3.825-1.435 1.913-.479 2.869-1.435 4.303-1.913 18.647-8.605 32.513-23.906 36.337-42.553 0-.479 5.259-.479 5.259-.479zM257.231 87.975l30.122 30.122c3.824-3.825 11.953-16.256 13.387-20.559l-22.949-22.95c-3.348.956-16.735 9.562-20.56 13.387zM257.709 105.666c.478 0 1.435 0 1.913-.956l2.869-2.869c.478-.479.478-.479.478-.957.478-.956.478-1.913-.478-2.391-.956-.956-1.913-.956-2.391-.478-.478 0-.478 0-.956.478l-2.869 2.869c-.956.957-.956 2.391 0 2.869.478 1.435.956 1.435 1.434 1.435zM248.147 115.228c.478 0 1.435 0 1.913-.956l2.869-2.869c.956-.957.956-2.391 0-2.869-.956-.956-2.391-.956-2.869 0l-2.869 2.869c-.957.956-.957 2.391 0 2.869 0 .956.478.956.956.956zM243.366 117.619c-.956-.956-2.391-.956-2.869 0l-3.347 3.347c-.956.956-.956 2.391 0 2.869.479.478.957.956 1.913.956.957 0 1.435 0 1.913-.956l2.869-2.869c.477-.479.477-2.391-.479-3.347zM262.491 111.403c.478.478.956.956 1.913.956.956 0 1.434 0 1.913-.956l2.869-2.869s0-.478.478-.956c.478-.956.478-1.913-.478-2.391-.957-.956-1.913-.956-2.391-.478-.478 0-.478 0-.957.478l-3.347 2.869c-.956.957-.956 2.869 0 3.347zM256.275 114.75l-3.347 2.869c-.956.957-.956 2.391 0 2.869.478.479.956.957 1.913.957.956 0 1.434 0 1.913-.957l2.869-2.869c.956-.956.956-2.391 0-2.869-.957-.956-2.87-.956-3.348 0zM249.582 124.312c-.957-.956-2.391-.956-2.869 0l-3.347 2.869c-.956.957-.956 2.391 0 2.869.478.479.956.957 1.913.957.956 0 1.434 0 1.913-.957l2.869-2.869c.477-.956.477-2.39-.479-2.869zM273.009 111.403c-.478 0-.478 0-.956.478l-2.869 2.869c-.957.956-.957 2.391 0 2.869.478.478.956.957 1.913.957.956 0 1.434 0 1.912-.957l2.87-2.869c.477-.478.477-.478.477-.956.479-.957.479-1.913-.477-2.391-.957-.478-1.914-.478-2.87 0zM262.491 120.966l-2.869 3.347c-.957.956-.957 2.391 0 2.869.478.478.956.957 1.913.957.956 0 1.434 0 1.912-.957l2.869-2.869c.956-.956.956-2.391 0-2.869-1.435-.957-2.869-.957-3.825-.478zM252.928 130.528l-2.869 3.347c-.957.956-.957 2.391 0 2.869.478.478.956.957 1.913.957.956 0 1.434 0 1.912-.957l2.869-2.869c.956-.956.956-2.391 0-2.869-1.434-1.434-2.869-1.434-3.825-.478zM393.02 82.237v120.966a21.426 21.426 0 0 0 21.516 21.516h86.539a21.426 21.426 0 0 0 21.516-21.516V82.237a21.426 21.426 0 0 0-21.516-21.516h-86.062c-12.431.001-21.993 9.563-21.993 21.516zm108.533-12.909c7.172 0 12.91 5.737 12.91 12.909v120.966a12.856 12.856 0 0 1-12.91 12.909h-86.541a12.854 12.854 0 0 1-12.908-12.909V82.237a12.854 12.854 0 0 1 12.908-12.909h86.541z"/><path d="M176.906 467.128v69.328H358.592V8.606H176.906v458.522zm8.607-449.916h164.476v449.916h-8.607V65.025a4.285 4.285 0 0 0-4.303-4.303h-21.037c-1.436 0-2.391.479-2.869 1.435l-13.387 12.431c-4.305-2.869-10.041-1.434-13.389 0l15.779 15.778c.955-2.391 1.434-4.781 1.912-6.694l14.344-13.388h15.299v397.8H185.513V17.212z"/><path d="M213.722 233.803h-4.303c-8.128 0-15.3 6.694-15.3 15.3v38.728c0 8.128 6.694 15.3 15.3 15.3h4.303c8.128 0 15.3-6.693 15.3-15.3v-39.206c0-8.128-7.172-14.822-15.3-14.822zm6.694 54.028c0 3.347-2.869 6.694-6.693 6.694h-4.303c-3.347 0-6.694-2.869-6.694-6.694v-39.206c0-3.347 2.869-6.694 6.694-6.694h4.303c3.347 0 6.693 2.869 6.693 6.694v39.206zM3.825 181.688h147.262v25.819H3.825zM3.825 69.328h147.262v25.819H3.825zM65.025 60.722l8.128-52.116H38.728l4.781 52.116zM107.578 173.081v-34.425h-68.85v34.425h68.85zm-51.637-17.212h34.425v8.606H55.941v-8.606zM29.644 120.966h86.541v8.606H29.644z"/></svg>