<svg xmlns="http://www.w3.org/2000/svg" width="568.969" height="568.969" style="enable-background:new 0 0 568.969 568.969" xml:space="preserve"><path d="m380.109 557.016-38.25-294.525c0-1.913-.479-3.347-.956-4.781-17.213 5.259-35.382 8.128-54.028 8.128-17.212 0-33.947-2.391-49.725-6.694-.478.957-.478 2.391-.478 3.347l-38.25 295.003c0 7.172 6.694 11.475 14.344 11.475h153c8.128 0 14.343-4.303 14.343-11.953z"/><path d="M115.228 109.969h9.563c-1.434 0 3.825 32.034 4.781 34.903 2.869 10.997 7.172 21.516 12.91 31.078 10.997 19.603 26.775 35.859 45.422 48.291 47.812 32.034 107.1 40.641 161.128 19.603 16.256-6.216 31.557-14.822 45.422-25.341C428.4 192.685 448.481 153 448.959 109.969h17.212c5.26 0 9.562-4.303 9.562-9.562s-4.303-9.562-9.562-9.562h-71.719V62.156h10.041c5.259 0 9.084.478 9.084-4.781v-.956c0-5.26-4.303-13.866-9.084-13.866h-39.207c-5.259 0-9.084 8.606-9.084 13.866v.956c0 5.259 4.303 4.781 9.084 4.781h10.041v28.688h-52.594L316.04 43.51c0-9.562-4.781-18.168-8.129-21.038v24.863c0 10.519-8.605 19.603-19.125 19.603h-2.391c-9.084-1.913-16.256-9.562-16.256-19.125V23.906c-5.259 4.781-8.606 10.041-8.606 18.647l-10.041 48.291h-57.853V62.156h10.041c5.259 0 9.084.478 9.084-4.781v-.956c0-5.26-4.303-13.866-9.084-13.866h-39.206c-5.259 0-9.084 8.606-9.084 13.866v.956c0 5.259 4.303 4.781 9.084 4.781h10.041v28.688h-71.719c-5.259 0-9.562 4.303-9.562 9.562s4.303 9.562 9.562 9.562h12.432z"/><path d="M289.266 57.375c5.26 0 9.562-4.303 9.562-9.562V10.998c0-7.172-4.781-10.997-9.562-10.997-6.216 0-9.562 5.737-9.562 10.519v37.294c-.001 5.258 4.302 9.561 9.562 9.561z"/></svg>