<svg xmlns="http://www.w3.org/2000/svg" width="439.875" height="439.875" style="enable-background:new 0 0 439.875 439.875" xml:space="preserve"><path d="M363.375 325.125v47.813h28.687V306h-28.687zM430.312 28.688a9.56 9.56 0 0 0-9.562 9.562v14.344c0 7.946-2.61 14.344-4.781 14.344h-41.75c-2.199 2.486-4.265 5.604-6.005 9.562-1.205 2.754-2.219 5.958-3.022 9.562-1.108 4.963-1.816 10.691-1.816 17.528v192.847h28.688V86.062h23.906c14.296 0 23.906-13.455 23.906-33.469V38.25a9.561 9.561 0 0 0-9.564-9.562zM19.125 52.594V38.25c0-5.278-4.274-9.562-9.562-9.562S0 32.972 0 38.25v14.344c0 15.95 17.519 33.469 33.469 33.469h14.43c.335-5.623 1.865-12.632 5.279-19.125H33.469c-5.231 0-14.344-9.114-14.344-14.344z"/><path d="M371.943 57.375H86.062c-10.614 0-17.298 4.227-21.506 9.562-5.279 6.694-6.665 15.07-7.029 19.125a31.875 31.875 0 0 0-.153 2.4v246.225h296.438V103.581c0-6.608.65-12.383 1.73-17.528a59.997 59.997 0 0 1 2.85-9.562c1.416-3.624 3.07-6.799 4.925-9.562 2.621-3.893 5.556-7.087 8.626-9.554zM392.062 57.317v.058h4.781s-1.883-.182-4.781-.058zM86.062 344.25H57.375v66.937h296.438v-66.936H86.062z"/></svg>