<svg xmlns="http://www.w3.org/2000/svg" width="439.875" height="439.875" style="enable-background:new 0 0 439.875 439.875" xml:space="preserve"><path d="M114.75 306h200.812v133.875H114.75zM74.903 210.375c0 44.887 17.509 81.712 39.847 85.671v.392h198.575s1.874.459.296-.784c-18.78-14.755-28.343-41.702-28.343-85.278 0-43.156 16.332-80.487 27.712-85.106 2.065-.841.469-.956.469-.956H118.738c-1.349 0-2.668.163-3.988.392-20.722 3.672-37.265 35.649-39.55 76.108H38.25V38.25h363.375v162.562h-19.422c-2.228-39.397-17.977-70.734-37.953-75.726-1.826-.459-3.682-.774-5.575-.774-24.202 0-43.824 38.527-43.824 86.062s19.622 86.062 43.824 86.062c1.894 0 3.749-.315 5.575-.774 21.563-5.394 38.25-41.482 38.25-85.288H411.187V0h-382.5V210.374h46.216zm263.772-23.313c.517 0 1.014.086 1.511.211 4.16 1.042 7.603 6.32 9.276 13.54h-21.583c1.855-8.09 5.976-13.751 10.796-13.751zm1.511 46.416a6.154 6.154 0 0 1-1.511.211c-6.56 0-11.867-10.433-11.867-23.313h23.744c-.01 11.866-4.532 21.639-10.366 23.102z"/></svg>