<?xml version="1.0" encoding="iso-8859-1"?>
<!-- Generator: Adobe Illustrator 16.0.0, SVG Export Plug-In . SVG Version: 6.00 Build 0)  -->
<!DOCTYPE svg PUBLIC "-//W3C//DTD SVG 1.1//EN" "http://www.w3.org/Graphics/SVG/1.1/DTD/svg11.dtd">
<svg version="1.1" id="Capa_1" xmlns="http://www.w3.org/2000/svg" xmlns:xlink="http://www.w3.org/1999/xlink" x="0px" y="0px"
	 width="513.199px" height="513.199px" viewBox="0 0 513.199 513.199" style="enable-background:new 0 0 513.199 513.199;"
	 xml:space="preserve">
<g>
	<g>
		<path d="M204.006,209.534c0-10.567-3.882-19.125-19.125-19.125v-19.871h-47.812v19.871c-9.562,0-19.125,8.558-19.125,19.125V256.6
			h86.062V209.534z"/>
		<path d="M385.693,209.534c0-10.567-4.035-19.125-19.125-19.125v-19.871h-47.812v19.871c-9.562,0-19.125,8.558-19.125,19.125V256.6
			h86.062V209.534z"/>
		<rect x="280.506" y="380.912" width="105.188" height="19.125"/>
		<rect x="280.506" y="342.662" width="105.188" height="28.688"/>
		<path d="M385.693,494.152c0,10.021,3.146,19.047,15.692,19.047c16.284,0,16.609-17.279,16.581-18.148
			c-0.076-2.631-1.77-4.695-4.476-4.639c-2.629,0.049-4.522,2.229-4.484,4.857c0.019,1.301,1.08,8.377-7.478,8.377
			c-6.235,0-6.273-4.551-6.273-9.59v-27.082h11.552c8.567,0,17.136-7.42,17.136-18.789v-28.287v-9.562v-4.781v-9.562v-4.781v-93.176
			v-21.574v-9.562v-4.781v-9.562v-4.781V145.455v-2.008l-1.415-0.86l-132.46-80.564V40.373C290.068,17.738,273.267,0,251.818,0
			c-21.803,0-38.25,17.012-38.25,39.57v23.906l-123.031,79.12l-1.281,0.822v2.189v102.176v9.562v9.562v9.562v21.574v93.176v9.562
			v9.562v9.562v28.889c0,6.379,2.562,18.178,12.613,18.178h25.637v29.023c0,0.391-0.153,7.631-6.455,7.631
			c-7.947,0-8.167-7.049-8.119-8.254c0.115-2.619-1.406-4.857-4.035-4.98c-2.812-0.336-4.638,1.893-4.762,4.541
			c-0.039,0.881-0.87,18.246,16.811,18.246c11.944,0,16.123-8.617,16.123-19.135v-27.072h149.873h98.752V494.152z M223.131,66.096
			V39.579c0-17.107,12.335-30.007,28.688-30.007c16.084,0,28.688,13.531,28.688,30.811v24.079c0,1.3,130.05,86.952,130.05,86.952
			H99.115C99.115,151.413,223.131,67.712,223.131,66.096z M98.818,247.784v-86.809h315.562v86.809v18.378h-22.262h-86.062h-95.625
			h-86.062H98.818V247.784z M98.818,276.471v-0.746h25.551h86.062h203.949v38.25h-39.742c10.567,0,11.055-17.385,11.055-27.941
			v-0.746h-86.053c0.028,10.635,1.301,28.688,9.553,28.688H193.277c10.566,0,10.729-17.385,10.729-27.941v-0.746h-86.062v0.746
			c0,10.557,0.048,27.941,10.605,27.941h-29.73V276.471z M98.818,391.221v-67.684c0,0,11.246,0,14.239,0l301.525-0.037l-0.201,86.1
			h-22.262H286.932H98.818V391.221z M280.506,428.725v28.688h-173.12c-5.068,0-8.568-6.225-8.568-12.221v-25.293v-0.736h188.113
			h105.188h22.262v0.746v22.711c0,3.893-0.593,14.793-9.764,14.793h-18.924v-28.688H280.506z"/>
		<path d="M299.631,285.287L299.631,285.287c0.01-0.143,0-0.314,0-0.449V285.287z"/>
	</g>
</g>
<g>
</g>
<g>
</g>
<g>
</g>
<g>
</g>
<g>
</g>
<g>
</g>
<g>
</g>
<g>
</g>
<g>
</g>
<g>
</g>
<g>
</g>
<g>
</g>
<g>
</g>
<g>
</g>
<g>
</g>
</svg>
