<?xml version="1.0" encoding="iso-8859-1"?>
<!-- Generator: Adobe Illustrator 16.0.0, SVG Export Plug-In . SVG Version: 6.00 Build 0)  -->
<!DOCTYPE svg PUBLIC "-//W3C//DTD SVG 1.1//EN" "http://www.w3.org/Graphics/SVG/1.1/DTD/svg11.dtd">
<svg version="1.1" id="Capa_1" xmlns="http://www.w3.org/2000/svg" xmlns:xlink="http://www.w3.org/1999/xlink" x="0px" y="0px"
	 width="575.347px" height="575.347px" viewBox="0 0 575.347 575.347" style="enable-background:new 0 0 575.347 575.347;"
	 xml:space="preserve">
<g>
	<g>
		<path d="M220.736,487.688h315.562V86.062H220.736V487.688z M383.298,439.875c0,10.566-8.559,19.125-19.125,19.125h-86.062
			c-10.566,0-19.125-8.559-19.125-19.125v-28.688c0-10.566,8.559-19.125,19.125-19.125h86.062c10.566,0,19.125,8.559,19.125,19.125
			V439.875z M507.611,459h-86.062v-47.812h86.062V459z M488.486,401.625h-9.562V382.5h9.562V401.625z M469.361,401.625h-9.562V382.5
			h9.562V401.625z M450.236,401.625h-9.562V382.5h9.562V401.625z M431.111,401.625h-9.562V382.5h9.562V401.625z M507.611,401.625
			h-9.562V382.5h9.562V401.625z M507.611,315.562c0,10.566-8.559,19.125-19.125,19.125h-86.062
			c-10.566,0-19.125-8.559-19.125-19.125v-28.688c0-10.566,8.559-19.125,19.125-19.125h86.062c10.566,0,19.125,8.559,19.125,19.125
			V315.562z M345.048,124.312v19.125h-9.562v-19.125H345.048z M325.923,124.312v19.125h-9.562v-19.125H325.923z M306.798,124.312
			v19.125h-9.562v-19.125H306.798z M287.673,124.312v19.125h-9.562v-19.125H287.673z M258.986,124.312h9.562v19.125h-9.562V124.312z
			 M258.986,153h86.062v47.812h-86.062V153z M249.423,210.375h258.188v9.562H249.423V210.375z M297.236,296.438l-19.125-38.25
			h86.062l-19.125,38.25H297.236z M345.048,306v28.688h-47.812V306H345.048z M278.111,248.625v-9.562h86.062v9.562H278.111z
			 M249.423,344.25h258.188v9.562H249.423V344.25z"/>
		<polygon points="39.048,575.347 211.173,485.077 211.173,89.83 39.048,0 		"/>
		<path d="M475.998,277.312h-61.095c-6.876,0-12.479,5.604-12.479,12.488v22.845c0,6.876,5.604,12.479,12.488,12.479h61.095
			c6.876,0,12.479-5.604,12.479-12.488v-22.845C488.486,282.916,482.882,277.312,475.998,277.312z M478.923,312.637
			c0,1.615-1.311,2.926-2.926,2.926h-61.095c-1.606,0-2.917-1.311-2.917-2.926v-22.845c0-1.606,1.311-2.917,2.926-2.917h61.095
			c1.606,0,2.917,1.311,2.917,2.926V312.637z"/>
		<path d="M351.685,401.625h-61.096c-6.875,0-12.479,5.604-12.479,12.488v22.845c0,6.876,5.604,12.479,12.488,12.479h61.095
			c6.876,0,12.479-5.604,12.479-12.488v-22.845C364.173,407.229,358.57,401.625,351.685,401.625z M354.611,436.949
			c0,1.615-1.311,2.926-2.926,2.926h-61.096c-1.606,0-2.916-1.311-2.916-2.926v-22.845c0-1.606,1.31-2.917,2.926-2.917h61.095
			c1.606,0,2.917,1.311,2.917,2.926V436.949z"/>
	</g>
</g>
<g>
</g>
<g>
</g>
<g>
</g>
<g>
</g>
<g>
</g>
<g>
</g>
<g>
</g>
<g>
</g>
<g>
</g>
<g>
</g>
<g>
</g>
<g>
</g>
<g>
</g>
<g>
</g>
<g>
</g>
</svg>
