<svg xmlns="http://www.w3.org/2000/svg" width="502.262" height="502.261" style="enable-background:new 0 0 502.262 502.261" xml:space="preserve"><path d="M34.074 190.021v6.646c13.015 4.829 32.513 9.458 59.766 9.458 18.953 0 34.186-2.936 45.422-6.273v-7.602c-11.733 3.127-28.056 5.508-50.796 5.508-24.299-.001-41.865-3.434-54.392-7.737zM491.927 247.711c-3.624 1.023-8.157 2.057-14.22 3.424-5.67 1.281-12.775 2.888-21.764 5.059a1483.697 1483.697 0 0 0-20.244 5.077v4.619c-.115 2.267.249 8.147 3.203 11.255 1.444 1.521 3.424 2.257 6.082 2.257 1.405 0 2.993-.201 4.724-.621 7.564-1.836 13.818-3.118 19.106-4.188 11.255-2.286 17.451-3.558 22.07-7.249 5.24-4.188 2.467-13.215 2.438-13.301l-1.395-6.332zM171.994 407.759c-.201 5.527-.067 9.123-.067 9.275l.086 1.636-.927 1.339c-.641.937-16.486 22.787-78.04 22.787-61.344 0-85.594-29.232-86.608-30.476l-.115-.144c-3.299 4.428-6.11 11.37-6.321 22.338-.086 4.303 1.635 7.287 5.231 10.959 16.591 16.878 65.933 21.229 82.027 21.229h2.228c54.726 0 87.487-12.574 94.774-38.068 1.205-4.227.765-7.583-1.348-11.188-2.304-3.958-6.445-7.143-10.92-9.687z"/><path d="M500.112 204.824c-.727-6.34-1.674-14.067-10.117-19.288-.02.105-.028.229-.058.334-5.402 22.883-109.863 43.146-276.652 68.41-16.18 2.458-29.032 4.409-36.758 5.738-6.34 1.08-12.164 1.625-17.452 1.625-9.543 0-17.337-1.778-23.342-5.316-1.951-1.147-3.729-2.477-5.298-4.007-1.827-1.769-3.137-3.662-4.236-5.556-4.676-8.08-3.691-16.381-3.634-16.802.373-2.61 2.735-4.398 5.403-4.063 2.592.373 4.418 2.773 4.064 5.374-.038.344-.985 8.425 5.145 14.286.468.449 1.033.812 1.559 1.215.172.134.334.268.507.401 2.543 1.788 5.756 3.089 9.562 3.892 6.847 1.444 15.596 1.339 26.086-.468 7.765-1.33 20.684-3.29 36.949-5.757 65.235-9.888 263.763-39.972 268.764-61.162.058-.239-.411-1.147-2.228-2.429-.01-.01-.01-.019-.02-.019-4.857-1.014-10.806-1.616-18.207-1.616-7.22 0-15.51.593-24.643 1.779-72.799 9.39-248.462 29.022-252.641 29.481h.01c.201 0-2.286.669-5.46.669-7.545 0-13.129-3.672-15.797-10.107-3.05 1.54-7.42 3.452-12.804 5.374a133.68 133.68 0 0 1-9.562 3.002c-11.676 3.223-26.794 5.872-45.422 5.872-26.325 0-45.909-4.074-59.766-8.778a115.241 115.241 0 0 1-9.562-3.729c-3.787-1.664-7.047-3.299-9.562-4.752v209.045c5.04 5.116 28.439 25.762 78.097 25.762 47.984 0 65.283-13.741 69.261-17.681-.058-2.372-.077-6.646.239-12.145.086-1.521.22-3.185.364-4.877.134-1.578.315-3.251.507-4.963 1.797-15.836 6.455-36.51 17.958-53.101-28.735 16.648-31.977 31.184-32.015 31.384-.43 2.295-2.448 3.949-4.714 3.949-.258 0-.516-.019-.774-.066-2.572-.421-4.332-2.783-3.959-5.365.201-1.396 5.986-34.042 86.455-59.115 49.906-17.184 145.856-43.471 199.779-57.423 3.376-.87 6.531-1.683 9.562-2.457 7.104-1.808 13.234-3.347 18.006-4.495 9.047-2.189 16.189-3.796 21.908-5.087 6.665-1.501 11.102-2.524 14.268-3.442a41.48 41.48 0 0 0 2.667-.86c2.783-1.014 4.208-2.027 5.47-3.596.173-.22.345-.479.517-.708 2.983-4.016 5.365-10.107 2.295-23.629-.317-1.319-.509-2.935-.719-4.733zM177.626 128.496c17.547-2.926 204.389-49.065 206.273-49.534 4.562-.688 16.887-3.882 19.66-10.471 1.473-3.52.163-8.147-3.921-13.751-12.173-16.744-22.911-18.686-29.931-18.686-4.283 0-8.405.794-12.383 1.559l-2.602.488c-12.88 2.343-188.658 44.351-190.437 44.771l-5.9 1.415V72.507c-14.497 4.714-33.88 8.415-59.134 8.415-4.122 0-8.377-.096-12.814-.306-36.988-1.731-58.695-9.648-71.499-17.71v105.57c1.339 1.367 4.351 4.007 9.562 6.914 2.611 1.454 5.738 2.974 9.562 4.447 11.523 4.437 28.917 8.367 54.392 8.367 23.83 0 39.971-2.726 50.796-5.938 3.825-1.138 6.981-2.324 9.562-3.481 5.298-2.381 8.243-4.6 9.562-5.795v-30.762c-.277-1.387-.191-3.118.708-4.877 2.202-4.303 8.093-7.115 18.544-8.855z"/><path d="M158.396 62.276c-.029-1.415-.641-5.824-7.344-10.854-7.736-5.814-24.767-13.196-61.965-15.367-56.974-3.337-70.705 11.083-73.555 15.654 9.993 7.841 30.39 17.442 71.375 19.354 32.254 1.502 55.52-3.136 71.489-8.787z"/></svg>