<?xml version="1.0" encoding="iso-8859-1"?>
<!-- Generator: Adobe Illustrator 16.0.0, SVG Export Plug-In . SVG Version: 6.00 Build 0)  -->
<!DOCTYPE svg PUBLIC "-//W3C//DTD SVG 1.1//EN" "http://www.w3.org/Graphics/SVG/1.1/DTD/svg11.dtd">
<svg version="1.1" id="Capa_1" xmlns="http://www.w3.org/2000/svg" xmlns:xlink="http://www.w3.org/1999/xlink" x="0px" y="0px"
	 width="578.609px" height="578.609px" viewBox="0 0 578.609 578.609" style="enable-background:new 0 0 578.609 578.609;"
	 xml:space="preserve">
<g>
	<g>
		<path d="M247.89,0c9.084,9.562,22.108,13.779,37.293,13.779c13.235,0.01,25.809-4.217,35.745-13.779H247.89z"/>
		<path d="M239.972,124.312h95.625V19.584c-19.125,9.591-28.937,19.584-47.812,19.584c-20.636,0-38.25-9.955-47.812-18.58V124.312z
			 M285.193,52.948c11.867,0,21.525,9.658,21.525,21.525s-9.658,21.525-21.525,21.525c-11.867,0-21.525-9.658-21.525-21.525
			C263.677,62.605,273.335,52.948,285.193,52.948z"/>
		<circle cx="285.193" cy="74.482" r="7.746"/>
		<path d="M364.284,209.906v-47.344h-19.125v-19.125H220.847v19.125h-19.125v54.43C134.784,249.897,89.688,316.939,89.688,394.3
			c0,62.186,27.846,117.677,72.981,154.167c7.985,6.455,15.94,12.326,24.872,17.519c29.644,17.251,63.744,11.81,100.511,11.81
			c38.929,0,75.057,4.236,105.828-14.937c56.534-35.209,95.042-97.519,95.042-168.559
			C488.912,310.915,440.784,239.464,364.284,209.906z"/>
	</g>
</g>
<g>
</g>
<g>
</g>
<g>
</g>
<g>
</g>
<g>
</g>
<g>
</g>
<g>
</g>
<g>
</g>
<g>
</g>
<g>
</g>
<g>
</g>
<g>
</g>
<g>
</g>
<g>
</g>
<g>
</g>
</svg>
