<svg xmlns="http://www.w3.org/2000/svg" width="525.938" height="525.938" style="enable-background:new 0 0 525.938 525.938" xml:space="preserve"><path d="M286.875 0H191.25v9.562l71.719 9.563H191.25v9.563h96.667l.345 9.562H191.25v9.562h97.365l.345 9.563h-97.71v9.563h98.054l.353 9.562H191.25v9.562h98.752l.353 9.563H191.25v9.563h99.45l.344 9.562H191.25v9.562h100.148l.344 9.563H191.25v9.563h100.837l.353 9.562H191.25v9.562h101.534l.345 9.563H191.25v9.563h102.232l.345 9.562H191.25v9.562h102.931l.344 9.563H191.25v9.563h103.619l.354 9.562H191.25v9.562h71.719l-71.719 9.563v9.563h105.016L306 525.938h28.688V0z"/></svg>