<?xml version="1.0" encoding="iso-8859-1"?>
<!-- Generator: Adobe Illustrator 16.0.0, SVG Export Plug-In . SVG Version: 6.00 Build 0)  -->
<!DOCTYPE svg PUBLIC "-//W3C//DTD SVG 1.1//EN" "http://www.w3.org/Graphics/SVG/1.1/DTD/svg11.dtd">
<svg version="1.1" id="Capa_1" xmlns="http://www.w3.org/2000/svg" xmlns:xlink="http://www.w3.org/1999/xlink" x="0px" y="0px"
	 width="566.1px" height="566.1px" viewBox="0 0 566.1 566.1" style="enable-background:new 0 0 566.1 566.1;" xml:space="preserve"
	>
<g>
	<g>
		<path d="M97.537,117.141h19.604v371.024h322.256V117.141h29.166c5.259,0,9.562-4.303,9.562-9.562c0-5.26-4.304-9.562-9.562-9.562
			h-97.538V68.85h9.562v9.562h39.207V48.769h-58.81c-5.26,0-9.562,4.303-9.562,9.562v39.685h-30.601L310.781,45.9
			c-0.956-6.694-3.347-17.691-8.128-21.038v23.906c0,10.997-8.606,19.603-19.604,19.603c-0.956,0-1.435,0-2.391-0.478
			c-9.562-1.435-17.212-9.562-17.212-19.125V23.906c-5.259,4.781-6.694,11.475-9.084,21.037l-10.041,52.116h-39.207V57.375
			c0-5.26-4.303-9.562-9.562-9.562h-58.809v29.166h39.206v-9.562h9.562v29.166H97.537c-5.259,0-9.562,4.303-9.562,9.562
			S92.278,117.141,97.537,117.141z M273.487,468.562h-9.562H136.744V175.472v-9.562h136.744V468.562z M419.794,468.562h-9.562
			H283.05V175.472v-9.562h136.744V468.562z"/>
		<path d="M283.05,58.331c5.26,0,9.562-4.303,9.562-9.562V20.559v-9.562C292.612,6.215,289.743,0,283.05,0
			c-6.694,0-9.562,5.737-9.562,10.519v8.606v29.644C273.487,54.028,277.791,58.331,283.05,58.331z"/>
		<path d="M117.141,566.1h77.934c0-21.516,37.294-39.206,83.194-39.206c45.9,0,83.193,17.69,83.193,39.206h77.935v-68.372H117.141
			V566.1z"/>
		<path d="M263.447,175.472H146.306V459h117.141V175.472z M244.8,329.428c-7.65,0-13.866-6.216-13.866-13.865
			c0-7.65,6.216-13.866,13.866-13.866s13.866,6.216,13.866,13.866C258.666,323.212,252.45,329.428,244.8,329.428z"/>
		<path d="M410.231,175.472H292.612V459h117.141V175.472H410.231z M313.172,329.428c-7.65,0-13.866-6.216-13.866-13.865
			c0-7.65,6.216-13.866,13.866-13.866c7.649,0,13.865,6.216,13.865,13.866C327.037,323.212,320.821,329.428,313.172,329.428z"/>
	</g>
</g>
<g>
</g>
<g>
</g>
<g>
</g>
<g>
</g>
<g>
</g>
<g>
</g>
<g>
</g>
<g>
</g>
<g>
</g>
<g>
</g>
<g>
</g>
<g>
</g>
<g>
</g>
<g>
</g>
<g>
</g>
</svg>
