<svg xmlns="http://www.w3.org/2000/svg" width="439.875" height="439.875" style="enable-background:new 0 0 439.875 439.875" xml:space="preserve"><path d="M162.558 86.062h114.75v28.688h-114.75zM191.245 76.5h66.938V5.527c-8.453 6.665-20.368 13.598-33.469 13.598-14.315 0-25.962-6.904-33.469-12.89V76.5zm33.469-47.812c8.233 0 14.937 6.703 14.937 14.937s-6.703 14.937-14.937 14.937-14.937-6.703-14.937-14.937 6.703-14.937 14.937-14.937z"/><path d="M249.51 0h-50.672c6.302 4.686 15.338 9.562 25.876 9.562 9.18 0 17.901-4.58 24.796-9.562z"/><circle cx="224.714" cy="43.624" r="5.374"/><path d="M387.859 124.312H51.241c-18.312 0-32.111 13.474-32.111 31.346v252.881c-.01 17.862 13.798 31.336 32.111 31.336h336.61c18.445 0 32.895-13.761 32.895-31.327v-252.89c-.001-17.575-14.44-31.346-32.887-31.346z"/></svg>