<svg xmlns="http://www.w3.org/2000/svg" width="513.199" height="513.199" style="enable-background:new 0 0 513.199 513.199" xml:space="preserve"><path d="M204.006 209.534c0-10.567-3.882-19.125-19.125-19.125v-19.871h-47.812v19.871c-9.562 0-19.125 8.558-19.125 19.125V256.6h86.062v-47.066zM385.693 209.534c0-10.567-4.035-19.125-19.125-19.125v-19.871h-47.812v19.871c-9.562 0-19.125 8.558-19.125 19.125V256.6h86.062v-47.066zM280.506 380.912h105.188v19.125H280.506zM280.506 342.662h105.188v28.688H280.506z"/><path d="M385.693 494.152c0 10.021 3.146 19.047 15.692 19.047 16.284 0 16.609-17.279 16.581-18.148-.076-2.631-1.77-4.695-4.476-4.639-2.629.049-4.522 2.229-4.484 4.857.019 1.301 1.08 8.377-7.478 8.377-6.235 0-6.273-4.551-6.273-9.59v-27.082h11.552c8.567 0 17.136-7.42 17.136-18.789V143.447l-1.415-.86-132.46-80.564v-21.65C290.068 17.738 273.267 0 251.818 0c-21.803 0-38.25 17.012-38.25 39.57v23.906l-123.031 79.12-1.281.822V448.794c0 6.379 2.562 18.178 12.613 18.178h25.637v29.023c0 .391-.153 7.631-6.455 7.631-7.947 0-8.167-7.049-8.119-8.254.115-2.619-1.406-4.857-4.035-4.98-2.812-.336-4.638 1.893-4.762 4.541-.039.881-.87 18.246 16.811 18.246 11.944 0 16.123-8.617 16.123-19.135v-27.072h248.625v27.18zM223.131 66.096V39.579c0-17.107 12.335-30.007 28.688-30.007 16.084 0 28.688 13.531 28.688 30.811v24.079c0 1.3 130.05 86.952 130.05 86.952H99.115c0-.001 124.016-83.702 124.016-85.318zM98.818 247.784v-86.809H414.38v105.187H98.818v-18.378zm0 28.687v-.746H414.38v38.25h-39.742c10.567 0 11.055-17.385 11.055-27.941v-.746H299.64c.028 10.635 1.301 28.688 9.553 28.688H193.277c10.566 0 10.729-17.385 10.729-27.941v-.746h-86.062v.746c0 10.557.048 27.941 10.605 27.941h-29.73v-37.505zm0 114.75v-67.684h14.239l301.525-.037-.201 86.1H98.818v-18.379zm181.688 37.504v28.688h-173.12c-5.068 0-8.568-6.225-8.568-12.221v-26.029h315.563V442.62c0 3.893-.593 14.793-9.764 14.793h-18.924v-28.688H280.506z"/><path d="M299.631 285.287c.01-.143 0-.314 0-.449v.449z"/></svg>