<svg xmlns="http://www.w3.org/2000/svg" width="578.609" height="578.609" style="enable-background:new 0 0 578.609 578.609" xml:space="preserve"><path d="M247.89 0c9.084 9.562 22.108 13.779 37.293 13.779 13.235.01 25.809-4.217 35.745-13.779H247.89zM239.972 124.312h95.625V19.584c-19.125 9.591-28.937 19.584-47.812 19.584-20.636 0-38.25-9.955-47.812-18.58v103.724zm45.221-71.364c11.867 0 21.525 9.658 21.525 21.525s-9.658 21.525-21.525 21.525c-11.867 0-21.525-9.658-21.525-21.525.009-11.868 9.667-21.525 21.525-21.525z"/><circle cx="285.193" cy="74.482" r="7.746"/><path d="M364.284 209.906v-47.344h-19.125v-19.125H220.847v19.125h-19.125v54.43C134.784 249.897 89.688 316.939 89.688 394.3c0 62.186 27.846 117.677 72.981 154.167 7.985 6.455 15.94 12.326 24.872 17.519 29.644 17.251 63.744 11.81 100.511 11.81 38.929 0 75.057 4.236 105.828-14.937 56.534-35.209 95.042-97.519 95.042-168.559-.01-83.385-48.138-154.836-124.638-184.394z"/></svg>