<svg xmlns="http://www.w3.org/2000/svg" width="506.812" height="506.812" style="enable-background:new 0 0 506.812 506.812" xml:space="preserve"><path d="M377.719 306a4.782 4.782 0 0 0 0-9.562h-76.5V267.75h-28.688V19.125C272.531 8.568 263.963 0 253.406 0s-19.125 8.568-19.125 19.125V267.75h-28.688v28.688h-76.5c-2.639 0-4.781 2.142-4.781 4.781s2.142 4.781 4.781 4.781h105.188v9.562H129.094c-2.639 0-4.781 2.142-4.781 4.781s2.142 4.781 4.781 4.781h105.188v9.562H129.094c-2.639 0-4.781 2.142-4.781 4.781s2.142 4.781 4.781 4.781h105.188v9.562H129.094c-2.639 0-4.781 2.142-4.781 4.781s2.142 4.781 4.781 4.781h105.188v9.562H129.094c-2.639 0-4.781 2.142-4.781 4.781s2.142 4.781 4.781 4.781h105.188v9.562H129.094c-2.639 0-4.781 2.142-4.781 4.781s2.142 4.781 4.781 4.781h105.188v9.562h-95.625c-2.639 0-4.781 2.142-4.781 4.781s2.142 4.781 4.781 4.781h95.625v9.562H148.22c-2.639 0-4.781 2.142-4.781 4.781s2.142 4.781 4.781 4.781h86.062v9.562h-66.938c-2.639 0-4.781 2.142-4.781 4.781s2.142 4.781 4.781 4.781h66.938v9.562H186.47c-2.639 0-4.781 2.142-4.781 4.781s2.142 4.781 4.781 4.781h47.812v9.562h-19.125c-2.639 0-4.781 2.142-4.781 4.781s2.142 4.781 4.781 4.781h21.774c3.309 5.689 9.409 9.562 16.476 9.562 7.066 0 13.158-3.873 16.477-9.562h21.773a4.782 4.782 0 0 0 0-9.562h-19.125v-9.562h38.25a4.782 4.782 0 0 0 0-9.562h-38.25V459h57.375a4.782 4.782 0 0 0 0-9.562h-57.375v-9.562h76.5a4.782 4.782 0 0 0 0-9.562h-76.5v-9.562h95.625a4.782 4.782 0 0 0 0-9.562h-95.625v-9.562H377.72a4.782 4.782 0 0 0 0-9.562H272.531V382.5h105.188a4.782 4.782 0 0 0 0-9.562H272.531v-9.562h105.188a4.782 4.782 0 0 0 0-9.562H272.531v-9.562h105.188a4.782 4.782 0 0 0 0-9.562H272.531v-9.562h105.188a4.782 4.782 0 0 0 0-9.562H272.531V306h105.188z"/></svg>