<svg xmlns="http://www.w3.org/2000/svg" width="567.057" height="567.057" style="enable-background:new 0 0 567.057 567.057" xml:space="preserve"><path d="M283.528 0C126.703 0 0 126.703 0 283.528s127.182 283.528 283.528 283.528 283.528-127.182 283.528-283.528S440.354 0 283.528 0zm-37.772 463.304h-66.459c-7.65 0-14.344-6.216-14.344-14.344 0-7.65 6.216-14.344 14.344-14.344h65.981c7.65 0 14.344 6.215 14.344 14.344.478 7.649-6.216 14.344-13.866 14.344zm0-47.335h-94.668c-7.65 0-14.344-6.216-14.344-14.344 0-7.649 6.215-14.344 14.344-14.344h94.668c7.65 0 14.344 6.216 14.344 14.344s-6.694 14.344-14.344 14.344zm0-47.334H122.878c-7.65 0-14.344-6.216-14.344-14.344 0-7.65 6.215-14.344 14.344-14.344h122.878c7.65 0 14.344 6.216 14.344 14.344s-6.694 14.344-14.344 14.344zm0-47.335H94.191c-7.65 0-14.344-6.215-14.344-14.344 0-8.128 6.215-14.344 14.344-14.344h151.087c7.65 0 14.344 6.216 14.344 14.344.478 8.129-6.216 14.344-13.866 14.344zm0-47.334H94.191c-7.65 0-14.344-6.216-14.344-14.344s6.215-14.344 14.344-14.344h151.087c7.65 0 14.344 6.216 14.344 14.344.478 8.128-6.216 14.344-13.866 14.344zm0-47.335H122.878c-7.65 0-14.344-6.215-14.344-14.344 0-7.65 6.215-14.344 14.344-14.344h122.878c7.65 0 14.344 6.216 14.344 14.344 0 8.129-6.694 14.344-14.344 14.344zm0-47.334h-94.668c-7.65 0-14.344-6.215-14.344-14.344 0-7.65 6.215-14.344 14.344-14.344h94.668c7.65 0 14.344 6.216 14.344 14.344 0 8.129-6.694 14.344-14.344 14.344zm0-46.856h-66.459c-7.65 0-14.344-6.216-14.344-14.344s6.216-14.344 14.344-14.344h65.981c7.65 0 14.344 6.215 14.344 14.344.478 7.65-6.216 14.344-13.866 14.344zm75.544-28.688h65.981c7.65 0 14.344 6.215 14.344 14.344 0 8.128-6.216 14.344-14.344 14.344H321.3c-7.649 0-14.344-6.216-14.344-14.344s6.694-14.344 14.344-14.344zm0 47.335h94.669c7.65 0 14.344 6.215 14.344 14.344 0 7.65-6.216 14.344-14.344 14.344H321.3c-7.649 0-14.344-6.216-14.344-14.344 0-8.129 6.694-14.344 14.344-14.344zm0 47.334h122.879c7.649 0 14.344 6.216 14.344 14.344 0 7.65-6.216 14.344-14.344 14.344H321.3c-7.649 0-14.344-6.215-14.344-14.344 0-8.128 6.694-14.344 14.344-14.344zm0 47.334h151.088c7.65 0 14.344 6.216 14.344 14.344s-6.216 14.344-14.344 14.344H321.3c-7.649 0-14.344-6.215-14.344-14.344 0-8.128 6.694-14.344 14.344-14.344zm66.46 217.548H321.3c-7.649 0-14.344-6.216-14.344-14.344 0-7.65 6.216-14.344 14.344-14.344h65.981c7.65 0 14.344 6.215 14.344 14.344 0 7.649-6.216 14.344-13.865 14.344zm28.209-47.335H321.3c-7.649 0-14.344-6.216-14.344-14.344 0-7.649 6.216-14.344 14.344-14.344h94.669c7.65 0 14.344 6.216 14.344 14.344s-6.694 14.344-14.344 14.344zm28.21-47.334H321.3c-7.649 0-14.344-6.216-14.344-14.344 0-7.65 6.216-14.344 14.344-14.344h122.879c7.649 0 14.344 6.216 14.344 14.344s-6.216 14.344-14.344 14.344zm28.687-47.335H321.3c-7.649 0-14.344-6.215-14.344-14.344 0-8.128 6.216-14.344 14.344-14.344h151.088c7.65 0 14.344 6.216 14.344 14.344-.001 8.129-6.216 14.344-13.866 14.344z"/></svg>