<?xml version="1.0" encoding="iso-8859-1"?>
<!-- Generator: Adobe Illustrator 16.0.0, SVG Export Plug-In . SVG Version: 6.00 Build 0)  -->
<!DOCTYPE svg PUBLIC "-//W3C//DTD SVG 1.1//EN" "http://www.w3.org/Graphics/SVG/1.1/DTD/svg11.dtd">
<svg version="1.1" id="Capa_1" xmlns="http://www.w3.org/2000/svg" xmlns:xlink="http://www.w3.org/1999/xlink" x="0px" y="0px"
	 width="334.688px" height="334.688px" viewBox="0 0 334.688 334.688" style="enable-background:new 0 0 334.688 334.688;"
	 xml:space="preserve">
<g>
	<g>
		<path d="M325.125,239.062v-66.938c0-5.259-4.303-9.562-9.562-9.562h-19.125c-5.26,0-13.865,0-19.125,0s-13.865,0-19.125,0h-35.229
			c-8.683-14.535-22.548-25.599-39.101-30.562c4.389-2.448,7.392-7.086,7.392-12.47c0-7.918-6.426-14.344-14.344-14.344h-4.781
			V86.062h43.031c7.918,0,14.344-6.426,14.344-14.344s-6.426-14.344-14.344-14.344h-43.031c0-5.278-3.185-9.562-9.562-9.562
			S153,52.097,153,57.375h-43.031c-7.918,0-14.344,6.426-14.344,14.344s6.426,14.344,14.344,14.344H153v19.125h-4.781
			c-7.918,0-14.344,6.426-14.344,14.344c0,5.872,3.538,10.901,8.587,13.12c-11.867,3.959-22.271,11.064-30.255,20.349H38.25v-28.688
			c0-10.566-8.559-19.125-19.125-19.125S0,113.746,0,124.312V267.75c0,10.566,8.559,19.125,19.125,19.125
			s19.125-8.559,19.125-19.125V229.5h65.264c11.475,21.783,34.31,36.653,60.645,36.653c33.488,0,61.315-24.031,67.301-55.778h26.728
			c5.26,0,9.562,4.303,9.562,9.562v19.125c-5.26,0-9.562,4.303-9.562,9.562v19.125c0,5.26,4.303,9.562,9.562,9.562h57.375
			c5.26,0,9.562-4.303,9.562-9.562v-19.125C334.688,243.365,330.385,239.062,325.125,239.062z"/>
	</g>
</g>
<g>
</g>
<g>
</g>
<g>
</g>
<g>
</g>
<g>
</g>
<g>
</g>
<g>
</g>
<g>
</g>
<g>
</g>
<g>
</g>
<g>
</g>
<g>
</g>
<g>
</g>
<g>
</g>
<g>
</g>
</svg>
