<svg xmlns="http://www.w3.org/2000/svg" width="384.929" height="384.929" style="enable-background:new 0 0 384.929 384.929" xml:space="preserve"><path d="M350.246 191.25v-66.938c0-5.259-4.303-9.562-9.562-9.562H248.08c-8.683-14.535-22.548-25.599-39.101-30.562 4.389-2.448 7.392-7.086 7.392-12.47 0-7.918-6.426-14.344-14.344-14.344h-4.781V38.25h43.031c7.918 0 14.344-6.426 14.344-14.344s-6.426-14.344-14.344-14.344h-43.031c0-5.278-3.185-9.562-9.562-9.562s-9.562 4.284-9.562 9.562h-43.031c-7.918 0-14.344 6.426-14.344 14.344s6.426 14.344 14.344 14.344h43.031v19.125h-4.781c-7.918 0-14.344 6.426-14.344 14.344 0 5.872 3.538 10.901 8.587 13.12-11.867 3.959-22.271 11.064-30.255 20.349H63.371V76.5c0-10.566-8.559-19.125-19.125-19.125S25.121 65.934 25.121 76.5v143.438c0 10.566 8.559 19.125 19.125 19.125s19.125-8.559 19.125-19.125v-38.25h65.264c11.475 21.783 34.31 36.653 60.645 36.653 33.488 0 61.315-24.031 67.301-55.778h26.728c5.26 0 9.562 4.303 9.562 9.562v19.125c-5.26 0-9.562 4.303-9.562 9.562v19.125c0 5.26 4.303 9.562 9.562 9.562h57.375c5.26 0 9.562-4.303 9.562-9.562v-19.125c0-5.259-4.303-9.562-9.562-9.562zM279.722 344.881c0 22.118 17.93 40.048 40.048 40.048s40.038-17.93 40.038-40.048-40.048-79.55-40.048-79.55-40.038 57.432-40.038 79.55z"/></svg>