<svg xmlns="http://www.w3.org/2000/svg" width="334.688" height="334.688" style="enable-background:new 0 0 334.688 334.688" xml:space="preserve"><path d="M325.125 239.062v-66.938c0-5.259-4.303-9.562-9.562-9.562h-92.604c-8.683-14.535-22.548-25.599-39.101-30.562 4.389-2.448 7.392-7.086 7.392-12.47 0-7.918-6.426-14.344-14.344-14.344h-4.781V86.062h43.031c7.918 0 14.344-6.426 14.344-14.344s-6.426-14.344-14.344-14.344h-43.031c0-5.278-3.185-9.562-9.562-9.562S153 52.097 153 57.375h-43.031c-7.918 0-14.344 6.426-14.344 14.344s6.426 14.344 14.344 14.344H153v19.125h-4.781c-7.918 0-14.344 6.426-14.344 14.344 0 5.872 3.538 10.901 8.587 13.12-11.867 3.959-22.271 11.064-30.255 20.349H38.25v-28.688c0-10.566-8.559-19.125-19.125-19.125S0 113.746 0 124.312V267.75c0 10.566 8.559 19.125 19.125 19.125s19.125-8.559 19.125-19.125V229.5h65.264c11.475 21.783 34.31 36.653 60.645 36.653 33.488 0 61.315-24.031 67.301-55.778h26.728c5.26 0 9.562 4.303 9.562 9.562v19.125c-5.26 0-9.562 4.303-9.562 9.562v19.125c0 5.26 4.303 9.562 9.562 9.562h57.375c5.26 0 9.562-4.303 9.562-9.562v-19.125c.001-5.259-4.302-9.562-9.562-9.562z"/></svg>