<svg xmlns="http://www.w3.org/2000/svg" width="575.347" height="575.347" style="enable-background:new 0 0 575.347 575.347" xml:space="preserve"><path d="M220.736 487.688h315.562V86.062H220.736v401.626zm162.562-47.813c0 10.566-8.559 19.125-19.125 19.125h-86.062c-10.566 0-19.125-8.559-19.125-19.125v-28.688c0-10.566 8.559-19.125 19.125-19.125h86.062c10.566 0 19.125 8.559 19.125 19.125v28.688zM507.611 459h-86.062v-47.812h86.062V459zm-19.125-57.375h-9.562V382.5h9.562v19.125zm-19.125 0h-9.562V382.5h9.562v19.125zm-19.125 0h-9.562V382.5h9.562v19.125zm-19.125 0h-9.562V382.5h9.562v19.125zm76.5 0h-9.562V382.5h9.562v19.125zm0-86.063c0 10.566-8.559 19.125-19.125 19.125h-86.062c-10.566 0-19.125-8.559-19.125-19.125v-28.688c0-10.566 8.559-19.125 19.125-19.125h86.062c10.566 0 19.125 8.559 19.125 19.125v28.688zm-162.563-191.25v19.125h-9.562v-19.125h9.562zm-19.125 0v19.125h-9.562v-19.125h9.562zm-19.125 0v19.125h-9.562v-19.125h9.562zm-19.125 0v19.125h-9.562v-19.125h9.562zm-28.687 0h9.562v19.125h-9.562v-19.125zm0 28.688h86.062v47.812h-86.062V153zm-9.563 57.375h258.188v9.562H249.423v-9.562zm47.813 86.063-19.125-38.25h86.062l-19.125 38.25h-47.812zM345.048 306v28.688h-47.812V306h47.812zm-66.937-57.375v-9.562h86.062v9.562h-86.062zm-28.688 95.625h258.188v9.562H249.423v-9.562zM39.048 575.347l172.125-90.27V89.83L39.048 0z"/><path d="M475.998 277.312h-61.095c-6.876 0-12.479 5.604-12.479 12.488v22.845c0 6.876 5.604 12.479 12.488 12.479h61.095c6.876 0 12.479-5.604 12.479-12.488v-22.845c0-6.875-5.604-12.479-12.488-12.479zm2.925 35.325a2.927 2.927 0 0 1-2.926 2.926h-61.095a2.925 2.925 0 0 1-2.917-2.926v-22.845a2.925 2.925 0 0 1 2.926-2.917h61.095a2.925 2.925 0 0 1 2.917 2.926v22.836zM351.685 401.625h-61.096c-6.875 0-12.479 5.604-12.479 12.488v22.845c0 6.876 5.604 12.479 12.488 12.479h61.095c6.876 0 12.479-5.604 12.479-12.488v-22.845c.001-6.875-5.602-12.479-12.487-12.479zm2.926 35.324a2.927 2.927 0 0 1-2.926 2.926h-61.096a2.925 2.925 0 0 1-2.916-2.926v-22.845a2.925 2.925 0 0 1 2.926-2.917h61.095a2.925 2.925 0 0 1 2.917 2.926v22.836z"/></svg>