<?xml version="1.0" encoding="iso-8859-1"?>
<!-- Generator: Adobe Illustrator 16.0.0, SVG Export Plug-In . SVG Version: 6.00 Build 0)  -->
<!DOCTYPE svg PUBLIC "-//W3C//DTD SVG 1.1//EN" "http://www.w3.org/Graphics/SVG/1.1/DTD/svg11.dtd">
<svg version="1.1" id="Capa_1" xmlns="http://www.w3.org/2000/svg" xmlns:xlink="http://www.w3.org/1999/xlink" x="0px" y="0px"
	 width="439.875px" height="439.875px" viewBox="0 0 439.875 439.875" style="enable-background:new 0 0 439.875 439.875;"
	 xml:space="preserve">
<g>
	<g>
		<rect x="114.75" y="306" width="200.812" height="133.875"/>
		<path d="M74.903,210.375c0,44.887,17.509,81.712,39.847,85.671v0.392h3.988h194.587c0,0,1.874,0.459,0.296-0.784
			c-18.78-14.755-28.343-41.702-28.343-85.278c0-43.156,16.332-80.487,27.712-85.106c2.065-0.841,0.469-0.956,0.469-0.956H137.863
			h-3.988h-15.137c-1.349,0-2.668,0.163-3.988,0.392c-20.722,3.672-37.265,35.649-39.55,76.108H38.25V38.25h363.375v162.562h-19.422
			c-2.228-39.397-17.977-70.734-37.953-75.726c-1.826-0.459-3.682-0.774-5.575-0.774c-24.202,0-43.824,38.527-43.824,86.062
			s19.622,86.062,43.824,86.062c1.894,0,3.749-0.315,5.575-0.774c21.563-5.394,38.25-41.482,38.25-85.288h19.125h9.562v-9.562V38.25
			v-9.562V0h-382.5v28.688v9.562v162.562v9.562h9.562H74.903z M338.675,187.062c0.517,0,1.014,0.086,1.511,0.211
			c4.16,1.042,7.603,6.32,9.276,13.54h-21.583C329.734,192.723,333.855,187.062,338.675,187.062z M340.186,233.478
			c-0.497,0.125-0.994,0.211-1.511,0.211c-6.56,0-11.867-10.433-11.867-23.313h23.744
			C350.542,222.242,346.02,232.015,340.186,233.478z"/>
	</g>
</g>
<g>
</g>
<g>
</g>
<g>
</g>
<g>
</g>
<g>
</g>
<g>
</g>
<g>
</g>
<g>
</g>
<g>
</g>
<g>
</g>
<g>
</g>
<g>
</g>
<g>
</g>
<g>
</g>
<g>
</g>
</svg>
