<svg xmlns="http://www.w3.org/2000/svg" width="545.062" height="545.062" style="enable-background:new 0 0 545.062 545.062" xml:space="preserve"><path d="M545.062 328.31v-41.435H0v41.435c0 16.725 18.341 35.065 35.066 35.065h484.502c16.716 0 25.494-18.341 25.494-35.065zM535.969 267.75l-99.957-86.062H120.86L17.394 267.75h518.575zm-151.461-80.746c2.334.067 9.85 6.713 19.632 18.207 15.577 18.293 32.217 43.079 26.249 42.458-5.871-.622-26.622-25.36-38.364-43.099-7.431-11.226-9.84-17.642-7.517-17.566zm-112.254 16.295c1.014-10.251 3.376-15.147 5.585-13.904 2.228 1.252 4.656 8.95 5.747 20.579 1.73 18.522-.277 41.281-5.623 37.819-5.27-3.414-7.296-28.295-5.709-44.494zm-118.499 1.903c9.783-11.484 17.299-18.13 19.632-18.207 2.324-.067-.086 6.34-7.516 17.566-11.743 17.729-32.493 42.477-38.365 43.098-5.966.622 10.672-24.164 26.249-42.457z"/></svg>