<svg xmlns="http://www.w3.org/2000/svg" width="411.188" height="411.188" style="enable-background:new 0 0 411.188 411.188" xml:space="preserve"><path d="M105.427 105.188h200.324c.087-1.597.249-3.165.249-4.781 0-36.07-19.183-67.655-47.812-85.364v47.114c0 13.177-10.729 23.906-23.906 23.906h-57.375C163.729 86.062 153 75.333 153 62.156V15.042c-28.63 17.709-47.812 49.304-47.812 85.364 0 1.616.162 3.185.239 4.782z"/><path d="M162.562 62.156c0 7.908 6.436 14.344 14.344 14.344h57.375c7.908 0 14.344-6.436 14.344-14.344V9.83C235.562 3.596 221.009 0 205.594 0s-29.969 3.596-43.031 9.83v52.326zM290.958 153h-185.77v258.188H306V153h-9.409zM306.774 143.438h18.351V114.75H86.062v28.688H306z"/></svg>