<?xml version="1.0" encoding="iso-8859-1"?>
<!-- Generator: Adobe Illustrator 16.0.0, SVG Export Plug-In . SVG Version: 6.00 Build 0)  -->
<!DOCTYPE svg PUBLIC "-//W3C//DTD SVG 1.1//EN" "http://www.w3.org/Graphics/SVG/1.1/DTD/svg11.dtd">
<svg version="1.1" id="Capa_1" xmlns="http://www.w3.org/2000/svg" xmlns:xlink="http://www.w3.org/1999/xlink" x="0px" y="0px"
	 width="516.375px" height="516.375px" viewBox="0 0 516.375 516.375" style="enable-background:new 0 0 516.375 516.375;"
	 xml:space="preserve">
<g>
	<path d="M439.875,253.406H26.374C13.569,253.406,0,262.768,0,275.572v81.138c0,12.804,9.562,23.18,28.688,23.18v60.855
		c0,11.198,6.761,23.036,17.968,23.036h5.795c11.198,0,24.05-11.838,24.05-23.036v-63.026h344.25v63.026
		c0,11.198,8.788,23.036,19.995,23.036h5.795c11.197,0,22.022-11.838,22.022-23.036v-63.026h21.439
		c12.804,0,26.373-8.205,26.373-21.009v-34.77v-46.358V52.594h-76.5V253.406z"/>
	<path d="M430.312,224.929c0-17.528-12.47-28.898-29.998-28.898h-47.602c-17.528,0-37.15,11.37-37.15,28.898v18.915h114.75V224.929z
		"/>
</g>
<g>
</g>
<g>
</g>
<g>
</g>
<g>
</g>
<g>
</g>
<g>
</g>
<g>
</g>
<g>
</g>
<g>
</g>
<g>
</g>
<g>
</g>
<g>
</g>
<g>
</g>
<g>
</g>
<g>
</g>
</svg>
