<?xml version="1.0" encoding="iso-8859-1"?>
<!-- Generator: Adobe Illustrator 16.0.0, SVG Export Plug-In . SVG Version: 6.00 Build 0)  -->
<!DOCTYPE svg PUBLIC "-//W3C//DTD SVG 1.1//EN" "http://www.w3.org/Graphics/SVG/1.1/DTD/svg11.dtd">
<svg version="1.1" id="Capa_1" xmlns="http://www.w3.org/2000/svg" xmlns:xlink="http://www.w3.org/1999/xlink" x="0px" y="0px"
	 width="547.74px" height="547.74px" viewBox="0 0 547.74 547.74" style="enable-background:new 0 0 547.74 547.74;"
	 xml:space="preserve">
<g>
	<path d="M79.866,204.255c-11.016,0-20.196,9.18-20.196,20.195v20.196h438.498v-20.196c0-11.016-9.18-20.195-20.195-20.195H79.866z"
		/>
	<path d="M530.297,154.683h-4.895c-9.486,0-17.137,7.65-17.137,17.136v82.314H39.474v-82.314c0-9.485-8.262-17.136-17.748-17.136
		h-4.59C7.65,154.683,0,162.333,0,171.819v204.103c0,9.485,7.65,17.136,17.136,17.136h513.468c9.486,0,17.137-7.65,17.137-17.136
		V171.819C547.74,162.333,540.09,154.683,530.297,154.683z M189.108,294.219v79.866H39.474v-89.964h10.098h12.852h126.684V294.219z
		 M349.146,374.391l-149.635-0.306v-79.866v-10.099h149.635v10.099V374.391z M508.266,373.779H358.633v-79.254v-10.098h149.633
		V373.779L508.266,373.779z"/>
	<path d="M460.836,154.683h-41.004c-14.688,0-31.518,11.016-31.518,26.316v13.77h99.449V181
		C488.07,165.699,475.523,154.683,460.836,154.683z"/>
	<path d="M458.082,294.219c5.201,0,10.098,4.284,10.098,10.098c0,5.814-4.283,10.099-10.098,10.099H408.51
		c-5.814,0-10.098-4.284-10.098-10.099c0-5.813,4.283-10.098,10.098-10.098H368.73v69.768h129.438v-69.768h-20.195H458.082z"/>
	<path d="M179.316,363.987v-69.768h-39.78c5.814,0,10.098,4.284,10.098,10.098c0,5.814-4.284,10.099-10.098,10.099H89.964
		c-5.202,0-10.098-4.284-10.098-10.099c0-5.813,4.284-10.098,10.098-10.098H79.866H50.184v69.768H179.316z"/>
	<path d="M338.436,294.219h-39.779c5.814,0,10.098,4.284,10.098,10.098c0,5.814-4.283,10.099-10.098,10.099h-49.572
		c-5.814,0-10.098-4.284-10.098-10.099c0-5.813,4.284-10.098,10.098-10.098h-39.78v69.768h129.438v-69.768H338.436z"/>
</g>
<g>
</g>
<g>
</g>
<g>
</g>
<g>
</g>
<g>
</g>
<g>
</g>
<g>
</g>
<g>
</g>
<g>
</g>
<g>
</g>
<g>
</g>
<g>
</g>
<g>
</g>
<g>
</g>
<g>
</g>
</svg>
