<?xml version="1.0" encoding="iso-8859-1"?>
<!-- Generator: Adobe Illustrator 16.0.0, SVG Export Plug-In . SVG Version: 6.00 Build 0)  -->
<!DOCTYPE svg PUBLIC "-//W3C//DTD SVG 1.1//EN" "http://www.w3.org/Graphics/SVG/1.1/DTD/svg11.dtd">
<svg version="1.1" id="Capa_1" xmlns="http://www.w3.org/2000/svg" xmlns:xlink="http://www.w3.org/1999/xlink" x="0px" y="0px"
	 width="110.25px" height="110.25px" viewBox="0 0 110.25 110.25" style="enable-background:new 0 0 110.25 110.25;"
	 xml:space="preserve">
<g>
	<path d="M26.25,49H21V24.5C21,10.761,35.988,0,55.125,0C74.262,0,89.25,10.761,89.25,24.5V49H84V24.5
		C84,13.706,71.316,5.25,55.125,5.25c-16.191,0-28.875,8.456-28.875,19.25V49z M15.75,56H94.5v43.75V105v5.25h-5.25V105v-5.25v-21
		H21v21V105v5.25h-5.25V105v-5.25V56z M22.75,75.25H87.5v-14H22.75V75.25z M24.5,63h61.25v10.5H24.5V63z M51.844,67.921
		c0,1.208,0.98,2.188,2.188,2.188s2.188-0.979,2.188-2.188s-0.98-2.188-2.188-2.188S51.844,66.713,51.844,67.921z M91,50.75h-1.75
		H84h-1.75h-56h-7h-7l3.5,3.5H94.5l3.5-3.5H91z M60.223,31.651c0.528-0.495-1.812-3.856-5.228-7.507s-6.614-6.209-7.144-5.714
		c-0.529,0.496,1.811,3.856,5.227,7.507C56.494,29.589,59.691,32.147,60.223,31.651z M44.352,23.679
		c-0.528,0.495,3.059,5.189,8.012,10.485c4.955,5.296,9.4,9.188,9.93,8.692s-3.06-5.19-8.012-10.486
		C49.326,27.075,44.881,23.184,44.352,23.679z"/>
</g>
<g>
</g>
<g>
</g>
<g>
</g>
<g>
</g>
<g>
</g>
<g>
</g>
<g>
</g>
<g>
</g>
<g>
</g>
<g>
</g>
<g>
</g>
<g>
</g>
<g>
</g>
<g>
</g>
<g>
</g>
</svg>
