<svg xmlns="http://www.w3.org/2000/svg" width="547.74" height="547.74" style="enable-background:new 0 0 547.74 547.74" xml:space="preserve"><path d="M79.866 204.255c-11.016 0-20.196 9.18-20.196 20.195v20.196h438.498V224.45c0-11.016-9.18-20.195-20.195-20.195H79.866z"/><path d="M530.297 154.683h-4.895a17.109 17.109 0 0 0-17.137 17.136v82.314H39.474v-82.314c0-9.485-8.262-17.136-17.748-17.136h-4.59A17.108 17.108 0 0 0 0 171.819v204.103c0 9.485 7.65 17.136 17.136 17.136h513.468c9.486 0 17.137-7.65 17.137-17.136V171.819c-.001-9.486-7.651-17.136-17.444-17.136zM189.108 294.219v79.866H39.474v-89.964H189.108v10.098zm160.038 80.172-149.635-.306V284.12h149.635v90.271zm159.12-.612H358.633v-89.352h149.633v89.352z"/><path d="M460.836 154.683h-41.004c-14.688 0-31.518 11.016-31.518 26.316v13.77h99.449V181c.307-15.301-12.24-26.317-26.927-26.317zM458.082 294.219c5.201 0 10.098 4.284 10.098 10.098 0 5.814-4.283 10.099-10.098 10.099H408.51c-5.814 0-10.098-4.284-10.098-10.099 0-5.813 4.283-10.098 10.098-10.098h-39.78v69.768h129.438v-69.768h-40.086zM179.316 363.987v-69.768h-39.78c5.814 0 10.098 4.284 10.098 10.098 0 5.814-4.284 10.099-10.098 10.099H89.964c-5.202 0-10.098-4.284-10.098-10.099 0-5.813 4.284-10.098 10.098-10.098h-39.78v69.768h129.132zM338.436 294.219h-39.779c5.814 0 10.098 4.284 10.098 10.098 0 5.814-4.283 10.099-10.098 10.099h-49.572c-5.814 0-10.098-4.284-10.098-10.099 0-5.813 4.284-10.098 10.098-10.098h-39.78v69.768h129.438v-69.768h-.307z"/></svg>