<svg xmlns="http://www.w3.org/2000/svg" width="110.25" height="110.25" style="enable-background:new 0 0 110.25 110.25" xml:space="preserve"><path d="M26.25 49H21V24.5C21 10.761 35.988 0 55.125 0S89.25 10.761 89.25 24.5V49H84V24.5C84 13.706 71.316 5.25 55.125 5.25c-16.191 0-28.875 8.456-28.875 19.25V49zm-10.5 7H94.5v54.25h-5.25v-31.5H21v31.5h-5.25V56zm7 19.25H87.5v-14H22.75v14zM24.5 63h61.25v10.5H24.5V63zm27.344 4.921a2.189 2.189 0 1 0 4.377-.001 2.189 2.189 0 0 0-4.377.001zM91 50.75H12.25l3.5 3.5H94.5l3.5-3.5h-7zM60.223 31.651c.528-.495-1.812-3.856-5.228-7.507s-6.614-6.209-7.144-5.714c-.529.496 1.811 3.856 5.227 7.507 3.416 3.652 6.613 6.21 7.145 5.714zm-15.871-7.972c-.528.495 3.059 5.189 8.012 10.485 4.955 5.296 9.4 9.188 9.93 8.692s-3.06-5.19-8.012-10.486c-4.956-5.295-9.401-9.186-9.93-8.691z"/></svg>