<?xml version="1.0" encoding="iso-8859-1"?>
<!-- Generator: Adobe Illustrator 16.0.0, SVG Export Plug-In . SVG Version: 6.00 Build 0)  -->
<!DOCTYPE svg PUBLIC "-//W3C//DTD SVG 1.1//EN" "http://www.w3.org/Graphics/SVG/1.1/DTD/svg11.dtd">
<svg version="1.1" id="Capa_1" xmlns="http://www.w3.org/2000/svg" xmlns:xlink="http://www.w3.org/1999/xlink" x="0px" y="0px"
	 width="525.938px" height="525.938px" viewBox="0 0 525.938 525.938" style="enable-background:new 0 0 525.938 525.938;"
	 xml:space="preserve">
<g>
	<path d="M430.312,66.938H286.875v382.5h143.438V66.938z M314.606,258.666c-6.694,0-11.953-5.26-11.953-11.954
		s5.259-11.953,11.953-11.953c6.693,0,11.953,5.259,11.953,11.953C326.081,253.406,320.822,258.666,314.606,258.666z"/>
	<path d="M478.125,525.938V497.25v-28.688V28.688H47.812v439.875v28.688v28.688H76.5V497.25h172.125v28.688h28.688V497.25h172.125
		v28.688H478.125z M248.625,459H86.062V57.375h162.562V459z M439.875,459H277.312V57.375h162.562V459z"/>
	<polygon points="478.125,19.125 497.25,0 28.688,0 47.812,19.125 	"/>
</g>
<g>
</g>
<g>
</g>
<g>
</g>
<g>
</g>
<g>
</g>
<g>
</g>
<g>
</g>
<g>
</g>
<g>
</g>
<g>
</g>
<g>
</g>
<g>
</g>
<g>
</g>
<g>
</g>
<g>
</g>
</svg>
