<svg xmlns="http://www.w3.org/2000/svg" width="440.481" height="440.481" style="enable-background:new 0 0 440.481 440.481" xml:space="preserve"><path d="M185.664 43.132C163.756 6.612 118.373-7.664 79.884 8.869L77.56 4.471a8.374 8.374 0 0 0-11.322-3.5c-4.093 2.161-5.661 7.229-3.49 11.322l2.467 4.676C30.14 41.066 18.292 87.941 38.401 126.067l147.263-82.935zM378.33 19.235l3.662-6.933c2.171-4.093.594-9.161-3.49-11.322-4.083-2.17-9.151-.593-11.321 3.5l-3.185 6.024C324.808-8.41 277.378 5.542 254.83 43.151l147.254 82.936c19.516-36.998 8.912-82.181-23.754-106.852zM222.681 241.592a9.452 9.452 0 0 0 5.775-1.951l44.925-34.176c4.198-3.194 5.011-9.199 1.816-13.397-3.203-4.198-9.208-5.02-13.396-1.816l-34.349 26.125v-89.534a4.783 4.783 0 0 0-4.781-4.781 4.783 4.783 0 0 0-4.782 4.781v96.811l-1.004.766c-4.198 3.193-5.011 9.199-1.817 13.396a9.522 9.522 0 0 0 7.613 3.776z"/><path d="M189.202 21.654h19.125v42.438C120.85 70.251 51.741 142.983 51.741 232.029c0 59.135 30.514 111.068 76.596 141.143-.947.985-1.817 2.046-2.534 3.28l-21.019 36.175c-4.81 8.271-1.999 18.886 6.273 23.695l3.098 1.798c8.281 4.811 18.886 1.999 23.696-6.272l21.019-36.175c1.119-1.923 1.778-3.979 2.104-6.044 18.475 6.952 38.403 10.939 59.307 10.939 19.25 0 37.667-3.385 54.889-9.323.393 1.521.908 3.012 1.73 4.437l21.019 36.176c4.811 8.28 15.415 11.082 23.696 6.272l3.098-1.798c8.271-4.81 11.083-15.415 6.273-23.695l-21.019-36.176c-.277-.487-.65-.889-.966-1.329 47.851-29.739 79.809-82.62 79.809-143.093 0-93.082-75.457-168.539-168.54-168.539-.803 0-1.587.105-2.391.124v-41.97h19.125c5.288 0 9.562-4.284 9.562-9.562s-4.274-9.562-9.562-9.562h-47.813c-5.288 0-9.562 4.284-9.562 9.562s4.285 9.562 9.573 9.562zm31.078 75.305c74.597 0 135.071 60.473 135.071 135.07s-60.474 135.07-135.071 135.07-135.07-60.473-135.07-135.07 60.473-135.07 135.07-135.07z"/><path d="M103.14 232.029h28.688v9.562H103.14zM303.953 232.029h28.688v9.562h-28.688zM217.89 318.092h9.563v28.688h-9.563z"/></svg>