<svg xmlns="http://www.w3.org/2000/svg" width="581.4" height="581.401" style="enable-background:new 0 0 581.4 581.401" xml:space="preserve"><path d="m118.575 74.349 39.207 4.781h167.344v39.207H147.741v-30.6L0 70.045v450.872l147.741-34.903V127.899h29.644v40.162c-5.737 1.913-10.041 7.65-10.041 13.866v187.425c0 8.128 6.694 14.821 14.822 14.821s14.822-6.693 14.822-14.821V182.405c0-6.215-4.303-11.953-10.041-13.865v-40.163h39.206v40.163c-5.737 1.912-10.041 7.65-10.041 13.865v216.591c0 8.128 6.694 14.822 14.822 14.822s14.822-6.694 14.822-14.822V182.405c0-6.215-4.303-11.953-10.041-13.865v-40.163h39.207v40.163c-5.738 1.912-10.041 7.65-10.041 13.865v216.591c0 8.128 6.693 14.822 14.822 14.822s14.822-6.694 14.822-14.822V182.405c0-6.215-4.303-11.953-10.041-13.865v-40.163h39.207v364.332H156.347l-39.206 10.519v58.331h29.644v-29.644h177.384v29.644h29.645v-29.644h177.385v29.644h29.643V49.008H118.575v25.341zm236.195 4.303h167.344V492.23H354.77V78.652z"/><path d="M364.809 482.667h147.742V88.692H364.809v393.975zm28.211-220.893c6.693 0 12.43 5.737 12.43 12.431s-5.736 12.431-12.43 12.431c-6.695 0-12.432-5.737-12.432-12.431 0-7.172 5.736-12.431 12.432-12.431zM118.575 39.446h443.222L581.4 19.842H98.494z"/></svg>