<svg xmlns="http://www.w3.org/2000/svg" width="590.963" height="590.963" style="enable-background:new 0 0 590.963 590.963" xml:space="preserve"><path d="M204.16 111.164h-10.041v110.925h212.287V111.164h-12.909l-84.628-73.153c0-.478.478-.956.478-1.434 0-5.26-4.303-9.084-9.084-9.084-5.259 0-9.084 4.303-9.084 9.084 0 .478 0 .956.478 1.434l-87.019 72.197s-.478.478-.478.956zm190.772 9.085h2.391v92.278h-194.12v-92.278h191.729zm-98.016-75.066c.956.478 1.912.478 3.347.478.956 0 1.912-.478 2.869-.478l76.021 65.503H218.025l78.891-65.503zM165.91 351.184V406.168c6.215-10.041 16.256-18.17 32.512-18.17h187.903c25.341 0 30.6 6.217 38.729 18.646v-55.461c0-51.16-41.598-92.279-92.278-92.279h-74.109c-51.161.001-92.757 41.119-92.757 92.28zM120.01 462.107H27.731v46.379h92.278v-46.379zm-18.647 15.301c0 1.434-1.435 2.869-2.869 2.869H48.769c-1.435 0-2.869-1.436-2.869-2.869v-3.348c0-1.434 1.434-2.869 2.869-2.869h49.725c1.434 0 2.869 1.436 2.869 2.869v3.348zM27.731 434.377h92.278v-46.379H27.731v46.379zM45.9 400.43c0-1.434 1.434-2.869 2.869-2.869h49.725c1.434 0 2.869 1.436 2.869 2.869v3.348c0 1.434-1.435 2.867-2.869 2.867H48.769c-1.435 0-2.869-1.434-2.869-2.867v-3.348zM420.272 489.84H170.691c-1.435 0-3.347 0-4.781-.479v74.109h27.731v-27.732h203.203v27.732h27.731v-74.588c-1.434.479-2.869.958-4.303.958z"/><path d="M147.741 360.268H0v203.203h27.731v-27.732h92.278v27.732h27.731V360.268zM129.094 517.57H18.169v-65.025h110.925v65.025zm0-74.109H18.169v-64.547h110.925v64.547zM563.231 462.107h-92.278v46.379h92.278v-46.379zm-18.169 15.301c0 1.434-1.435 2.869-2.868 2.869h-49.726c-1.435 0-2.868-1.436-2.868-2.869v-3.348c0-1.434 1.434-2.869 2.868-2.869h49.726c1.434 0 2.868 1.436 2.868 2.869v3.348zM470.953 434.377h92.278v-46.379h-92.278v46.379zm18.648-33.947c0-1.434 1.434-2.869 2.868-2.869h49.726c1.434 0 2.868 1.436 2.868 2.869v3.348c0 1.434-1.435 2.867-2.868 2.867h-49.726c-1.435 0-2.868-1.434-2.868-2.867v-3.348z"/><path d="M443.222 457.326V563.47h27.731v-27.732h92.278v27.732h27.731V360.268h-147.74v97.058zm18.647-78.412h110.925v64.547H461.869v-64.547zm0 129.094v-55.463h110.925v64.547H461.87v-9.084h-.001zM393.019 397.561H198.422c-21.994 0-28.688 19.604-31.078 32.035-.478 1.912-.478 3.346-.956 4.781h258.188c-1.913-12.432-10.519-36.816-31.557-36.816zM212.288 129.333H387.76v74.109H212.288zM425.054 444.418c-.957-.479-1.435-.479-2.391-.479-.957 0-1.435-.479-2.391-.479H170.213c-1.435 0-2.869.479-4.303.957-5.259 1.912-9.084 7.172-9.084 12.908v9.084c0 6.217 3.825 10.998 9.084 12.91 1.434.479 2.869.957 4.781.957h249.582c.956 0 1.912 0 2.391-.479.478 0 1.434-.479 1.912-.479 4.781-1.434 8.128-5.738 9.084-10.996v-11.477c.478-5.255-3.348-10.515-8.606-12.427z"/></svg>