<?xml version="1.0" encoding="iso-8859-1"?>
<!-- Generator: Adobe Illustrator 16.0.0, SVG Export Plug-In . SVG Version: 6.00 Build 0)  -->
<!DOCTYPE svg PUBLIC "-//W3C//DTD SVG 1.1//EN" "http://www.w3.org/Graphics/SVG/1.1/DTD/svg11.dtd">
<svg version="1.1" id="Capa_1" xmlns="http://www.w3.org/2000/svg" xmlns:xlink="http://www.w3.org/1999/xlink" x="0px" y="0px"
	 width="516.375px" height="516.375px" viewBox="0 0 516.375 516.375" style="enable-background:new 0 0 516.375 516.375;"
	 xml:space="preserve">
<g>
	<path d="M499.641,16.734h-4.781c-9.237,0-16.734,7.497-16.734,16.734v98.016v9.562h-9.562h-306v-9.562h306v-19.125
		c0-10.566-8.559-19.125-19.125-19.125H162.562v-38.25c0-2.639-2.142-4.781-4.781-4.781S153,52.345,153,54.984v38.25H66.938v-38.25
		c0-2.639-2.142-4.781-4.781-4.781s-4.781,2.142-4.781,4.781v40.899c-5.689,3.309-9.562,9.409-9.562,16.476v19.125h9.562v9.562
		h-9.562H38.25v-9.562V33.469c0-9.237-7.497-16.734-16.734-16.734h-4.781C7.497,16.734,0,24.231,0,33.469v444.656
		c0,9.237,7.497,16.734,16.734,16.734h4.781c9.237,0,16.734-7.497,16.734-16.734V179.297h19.125v315.562
		c0,2.64,2.142,4.781,4.781,4.781s4.781-2.142,4.781-4.781v-28.688H153v28.688c0,2.64,2.142,4.781,4.781,4.781
		s4.781-2.142,4.781-4.781V179.297h9.562v315.562h322.734h2.391h2.391c9.237,0,16.734-7.497,16.734-16.734V33.469
		C516.375,24.231,508.878,16.734,499.641,16.734z M153,456.609H66.938v-28.688H153V456.609z M153,418.359H66.938v-28.688H153
		V418.359z M153,380.109H66.938v-28.688H153V380.109z M153,341.859H66.938v-28.688H153V341.859z M153,303.609H66.938v-28.688H153
		V303.609z M153,265.359H66.938v-28.688H153V265.359z M153,227.109H66.938v-28.688H153V227.109z M153,188.859H66.938v-9.562H153
		V188.859z M153,141.047H66.938v-9.562H153V141.047z M334.688,475.734H191.25V179.297h143.438V475.734z M497.25,475.734h-19.125
		H353.812v-57.375h33.469h76.5h14.344h19.125V475.734z M497.25,399.234h-19.125H353.812v-47.812h33.469h76.5h14.344h19.125V399.234z
		 M497.25,332.297h-19.125H353.812v-153h95.625h28.688h9.562h9.562V332.297z"/>
	<path d="M432.818,45.422h-39.273c-14.459,0-30.17,10.7-30.17,25.159v13.091H459V70.581C459,56.122,447.276,45.422,432.818,45.422z"
		/>
	<path d="M325.125,188.859H200.812v277.312h124.312V188.859z M305.206,332.297c-4.398,0-7.965-3.566-7.965-7.966
		c0-4.398,3.566-7.965,7.965-7.965c4.399,0,7.966,3.566,7.966,7.965C313.172,328.73,309.605,332.297,305.206,332.297z"/>
	<path d="M363.375,188.859v133.875h114.75h9.562V188.859h-9.562H363.375z M381.706,265.359c-4.398,0-7.965-3.566-7.965-7.966
		c0-4.398,3.566-7.965,7.965-7.965c4.399,0,7.966,3.566,7.966,7.965C389.672,261.793,386.105,265.359,381.706,265.359z"/>
	<path d="M468.562,360.984c0,4.121-2.142,9.562-4.781,9.562h-76.5c-2.64,0-4.781-5.441-4.781-9.562h-19.125v28.688h114.75h9.562
		v-28.688h-9.562H468.562z"/>
	<path d="M468.562,427.922c0,4.121-2.142,9.562-4.781,9.562h-76.5c-2.64,0-4.781-5.441-4.781-9.562h-19.125v38.25h114.75h9.562
		v-38.25h-9.562H468.562z"/>
</g>
<g>
</g>
<g>
</g>
<g>
</g>
<g>
</g>
<g>
</g>
<g>
</g>
<g>
</g>
<g>
</g>
<g>
</g>
<g>
</g>
<g>
</g>
<g>
</g>
<g>
</g>
<g>
</g>
<g>
</g>
</svg>
