<?xml version="1.0" encoding="iso-8859-1"?>
<!-- Generator: Adobe Illustrator 16.0.0, SVG Export Plug-In . SVG Version: 6.00 Build 0)  -->
<!DOCTYPE svg PUBLIC "-//W3C//DTD SVG 1.1//EN" "http://www.w3.org/Graphics/SVG/1.1/DTD/svg11.dtd">
<svg version="1.1" id="Capa_1" xmlns="http://www.w3.org/2000/svg" xmlns:xlink="http://www.w3.org/1999/xlink" x="0px" y="0px"
	 width="571.359px" height="571.359px" viewBox="0 0 571.359 571.359" style="enable-background:new 0 0 571.359 571.359;"
	 xml:space="preserve">
<g>
	<path d="M429.117,0H142.242c-31.556,0-57.375,25.819-57.375,57.375V459c0,6.693,0,12.909,0,19.125h401.625
		c0-7.172,0-12.432,0-19.125V57.375C486.492,25.819,460.674,0,429.117,0z M258.905,56.897l33.468,99.928l-18.168,6.215
		l-33.469-99.928L258.905,56.897z M218.742,57.375h19.125v105.188h-19.125V57.375z M190.055,76.5h19.125v86.062h-19.125V76.5z
		 M151.805,76.5h28.688v86.062h-28.688V76.5z M113.555,47.812h28.688v114.75h-28.688V47.812z M123.117,459h-19.125v-86.062h19.125
		V459z M161.367,459H132.68V344.25h28.688V459z M197.705,461.391l-32.034-79.847l26.775-10.519l32.034,79.847L197.705,461.391z
		 M365.526,454.219c-28.209,0-51.159-17.213-51.159-38.729c0-1.434,0.479-2.868,0.479-4.303h100.884
		c0,1.435,0.479,2.869,0.479,4.303C416.686,437.006,393.736,454.219,365.526,454.219z M457.805,459h-28.688v-86.062h28.688V459z
		 M457.805,325.125H103.992v-9.562h353.812V325.125z M113.555,272.053c0-1.435,0.478-2.869,0.478-4.303h100.884
		c0,1.435,0.479,2.869,0.479,4.303c0,21.515-22.95,38.728-51.16,38.728S113.555,293.568,113.555,272.053z M228.305,306v-86.062
		h19.125V306H228.305z M256.992,306V191.25h28.688V306H256.992z M295.242,306v-86.062h28.688V306H295.242z M343.055,258.188h105.188
		L429.117,306H362.18L343.055,258.188z M457.805,181.688H103.992v-9.562h353.812V181.688z"/>
	<circle cx="130.289" cy="530.719" r="40.641"/>
	<circle cx="445.852" cy="530.719" r="40.641"/>
</g>
<g>
</g>
<g>
</g>
<g>
</g>
<g>
</g>
<g>
</g>
<g>
</g>
<g>
</g>
<g>
</g>
<g>
</g>
<g>
</g>
<g>
</g>
<g>
</g>
<g>
</g>
<g>
</g>
<g>
</g>
</svg>
