<?xml version="1.0" encoding="iso-8859-1"?>
<!-- Generator: Adobe Illustrator 16.0.0, SVG Export Plug-In . SVG Version: 6.00 Build 0)  -->
<!DOCTYPE svg PUBLIC "-//W3C//DTD SVG 1.1//EN" "http://www.w3.org/Graphics/SVG/1.1/DTD/svg11.dtd">
<svg version="1.1" id="Capa_1" xmlns="http://www.w3.org/2000/svg" xmlns:xlink="http://www.w3.org/1999/xlink" x="0px" y="0px"
	 width="109.373px" height="109.373px" viewBox="0 0 109.373 109.373" style="enable-background:new 0 0 109.373 109.373;"
	 xml:space="preserve">
<g>
	<path d="M24.062,53.373h57.75c0.966,0,1.75-0.784,1.75-1.75V13.342c0-0.525-0.236-1.022-0.643-1.354
		c-0.407-0.334-0.943-0.465-1.457-0.36c-2.769,0.563-5.162,0.849-7.119,0.849c-5.717,0-7.012-2.308-8.646-5.232
		C63.888,4.016,61.638,0,53.374,0C44.475,0,42,4.328,40.014,7.803c-1.759,3.078-3.15,5.511-8.858,5.511
		c-1.873,0-4.141-0.273-6.738-0.81c-0.521-0.107-1.055,0.024-1.459,0.357c-0.411,0.332-0.647,0.829-0.647,1.356v37.406
		C22.312,52.589,23.096,53.373,24.062,53.373z M25.812,16.324c1.984,0.329,3.747,0.488,5.346,0.488
		c7.737,0,9.948-3.864,11.896-7.273c1.853-3.241,3.452-6.041,10.321-6.041c6.212,0,7.561,2.406,9.266,5.455
		c1.752,3.129,3.937,7.023,11.703,7.023c1.69,0,3.575-0.173,5.719-0.528v34.425H25.812V16.324z M85.312,62.123h-26.25v10.5h26.25
		V62.123z M78.312,69.287c0,0.875-0.711,1.586-1.586,1.586h-9.078c-0.875,0-1.586-0.711-1.586-1.586v-0.328
		c0-0.875,0.711-1.586,1.586-1.586h9.078c0.875,0,1.586,0.711,1.586,1.586V69.287z M50.312,62.123h-26.25v10.5h26.25V62.123z
		 M43.312,69.287c0,0.875-0.71,1.586-1.585,1.586h-9.079c-0.875,0-1.585-0.711-1.585-1.586v-0.328c0-0.875,0.71-1.586,1.585-1.586
		h9.079c0.875,0,1.585,0.711,1.585,1.586V69.287z M15.312,55.123v43.75v5.25v5.25h5.25v-5.25v-5.25v-21h68.25v21v5.25v5.25h5.25
		v-5.25v-5.25v-43.75H15.312z M52.062,74.373h-29.75v-14h29.75V74.373z M87.062,74.373h-29.75v-14h29.75V74.373z M52.641,28.561
		c-3.416-3.651-5.756-7.012-5.228-7.507c0.529-0.495,3.729,2.063,7.144,5.713c3.416,3.651,5.756,7.012,5.228,7.507
		C59.253,34.77,56.056,32.212,52.641,28.561z M53.842,34.994c4.954,5.296,8.542,9.991,8.012,10.486
		c-0.529,0.495-4.975-3.396-9.93-8.692c-4.954-5.296-8.541-9.99-8.012-10.485C44.442,25.807,48.889,29.698,53.842,34.994z
		 M76.562,87.936v0.875c0,1.688-1.372,3.062-3.062,3.062H35.874c-1.689,0-3.062-1.372-3.062-3.062v-0.875
		c0-1.689,1.372-3.062,3.062-3.062h37.625C75.189,84.873,76.562,86.245,76.562,87.936z M67.812,93.623h3.5v7v3.5v5.25h-3.5v-5.25
		v-3.5h-26.25v3.5v5.25h-3.5v-5.25v-10.5h3.5H67.812z"/>
</g>
<g>
</g>
<g>
</g>
<g>
</g>
<g>
</g>
<g>
</g>
<g>
</g>
<g>
</g>
<g>
</g>
<g>
</g>
<g>
</g>
<g>
</g>
<g>
</g>
<g>
</g>
<g>
</g>
<g>
</g>
</svg>
