<svg xmlns="http://www.w3.org/2000/svg" width="487.688" height="487.688" style="enable-background:new 0 0 487.688 487.688" xml:space="preserve"><path d="M133.727 210.375h219.938v-86.062H133.727v86.062zm115.83-64.643c10.52 0 19.049 8.53 19.049 19.049s-8.529 19.048-19.049 19.048c-10.519 0-19.048-8.53-19.048-19.048 0-10.519 8.529-19.049 19.048-19.049z"/><path d="M420.602 487.688V47.812H66.789v439.875h47.812v-47.812h258.188v47.812h47.813zm-306-382.5H372.79V229.5H114.602V105.188zm0 277.312V258.188H372.79V382.5H114.602zM419.109 28.688 449.586 0H38.102l30.485 28.688z"/></svg>