<svg xmlns="http://www.w3.org/2000/svg" width="525.938" height="525.938" style="enable-background:new 0 0 525.938 525.938" xml:space="preserve"><path d="M430.312 66.938H286.875v382.5h143.438v-382.5zM314.606 258.666c-6.694 0-11.953-5.26-11.953-11.954s5.259-11.953 11.953-11.953c6.693 0 11.953 5.259 11.953 11.953-.478 6.694-5.737 11.954-11.953 11.954z"/><path d="M478.125 525.938V28.688H47.812v497.251H76.5V497.25h172.125v28.688h28.688V497.25h172.125v28.688h28.687zM248.625 459H86.062V57.375h162.562V459zm191.25 0H277.312V57.375h162.562V459zM478.125 19.125 497.25 0H28.688l19.124 19.125z"/></svg>