<?xml version="1.0" encoding="iso-8859-1"?>
<!-- Generator: Adobe Illustrator 16.0.0, SVG Export Plug-In . SVG Version: 6.00 Build 0)  -->
<!DOCTYPE svg PUBLIC "-//W3C//DTD SVG 1.1//EN" "http://www.w3.org/Graphics/SVG/1.1/DTD/svg11.dtd">
<svg version="1.1" id="Capa_1" xmlns="http://www.w3.org/2000/svg" xmlns:xlink="http://www.w3.org/1999/xlink" x="0px" y="0px"
	 width="545.062px" height="545.062px" viewBox="0 0 545.062 545.062" style="enable-background:new 0 0 545.062 545.062;"
	 xml:space="preserve">
<g>
	<path d="M248.625,420.75H105.188v57.375h143.438V420.75z M180.492,459.593c-6.598,0-11.953-5.354-11.953-11.953
		c0-6.598,5.355-11.953,11.953-11.953s11.953,5.355,11.953,11.953C192.445,454.238,187.09,459.593,180.492,459.593z"/>
	<path d="M439.875,420.75H296.438v57.375h143.438V420.75z M371.742,459.593c-6.598,0-11.953-5.354-11.953-11.953
		c0-6.598,5.355-11.953,11.953-11.953s11.953,5.355,11.953,11.953C383.695,454.238,378.34,459.593,371.742,459.593z"/>
	<path d="M439.875,315.562H105.188v57.375h334.688V315.562z M266.555,354.405c-6.598,0-11.953-5.354-11.953-11.953
		c0-6.598,5.355-11.953,11.953-11.953c6.598,0,11.953,5.355,11.953,11.953C278.508,349.051,273.152,354.405,266.555,354.405z"/>
	<path d="M487.688,545.062v-28.688v-28.688V277.312H57.375v210.375v28.688v28.688h28.688v-28.688h172.125v28.688h28.688v-28.688H459
		v28.688H487.688z M258.188,487.688H95.625v-76.5h162.562V487.688z M449.438,487.688H286.875v-76.5h162.562V487.688z M449.438,382.5
		H95.625V306h353.812V382.5z"/>
	<polygon points="487.688,267.75 506.812,248.625 38.25,248.625 57.375,267.75 	"/>
	<polygon points="219.938,191.25 219.938,219.938 162.562,219.938 162.562,239.062 382.5,239.062 382.5,219.938 325.125,219.938 
		325.125,191.25 	"/>
	<path d="M449.438,0H95.625v181.688h353.812V0z M420.75,153H124.312V28.688H420.75V153z"/>
</g>
<g>
</g>
<g>
</g>
<g>
</g>
<g>
</g>
<g>
</g>
<g>
</g>
<g>
</g>
<g>
</g>
<g>
</g>
<g>
</g>
<g>
</g>
<g>
</g>
<g>
</g>
<g>
</g>
<g>
</g>
</svg>
