<svg xmlns="http://www.w3.org/2000/svg" width="545.062" height="545.062" style="enable-background:new 0 0 545.062 545.062" xml:space="preserve"><path d="M248.625 420.75H105.188v57.375h143.438V420.75zm-68.133 38.843c-6.598 0-11.953-5.354-11.953-11.953 0-6.598 5.355-11.953 11.953-11.953s11.953 5.355 11.953 11.953c0 6.598-5.355 11.953-11.953 11.953zM439.875 420.75H296.438v57.375h143.438V420.75zm-68.133 38.843c-6.598 0-11.953-5.354-11.953-11.953 0-6.598 5.355-11.953 11.953-11.953s11.953 5.355 11.953 11.953c0 6.598-5.355 11.953-11.953 11.953zM439.875 315.562H105.188v57.375h334.688v-57.375zm-173.32 38.843c-6.598 0-11.953-5.354-11.953-11.953 0-6.598 5.355-11.953 11.953-11.953 6.598 0 11.953 5.355 11.953 11.953 0 6.599-5.356 11.953-11.953 11.953z"/><path d="M487.688 545.062v-267.75H57.375v267.751h28.688v-28.688h172.125v28.688h28.688v-28.688H459v28.688h28.688zm-229.5-57.374H95.625v-76.5h162.562v76.5zm191.25 0H286.875v-76.5h162.562v76.5zm0-105.188H95.625V306h353.812v76.5zM487.688 267.75l19.124-19.125H38.25l19.125 19.125zM219.938 191.25v28.688h-57.376v19.124H382.5v-19.124h-57.375V191.25zM449.438 0H95.625v181.688h353.812V0zM420.75 153H124.312V28.688H420.75V153z"/></svg>