<?xml version="1.0" encoding="iso-8859-1"?>
<!-- Generator: Adobe Illustrator 16.0.0, SVG Export Plug-In . SVG Version: 6.00 Build 0)  -->
<!DOCTYPE svg PUBLIC "-//W3C//DTD SVG 1.1//EN" "http://www.w3.org/Graphics/SVG/1.1/DTD/svg11.dtd">
<svg version="1.1" id="Capa_1" xmlns="http://www.w3.org/2000/svg" xmlns:xlink="http://www.w3.org/1999/xlink" x="0px" y="0px"
	 width="525.938px" height="525.938px" viewBox="0 0 525.938 525.938" style="enable-background:new 0 0 525.938 525.938;"
	 xml:space="preserve">
<g>
	<path d="M95.625,449.438h143.438v-57.375H95.625V449.438z M170.93,406.999c6.598,0,11.953,5.355,11.953,11.953
		c0,6.599-5.355,11.953-11.953,11.953s-11.953-5.354-11.953-11.953C158.977,412.354,164.332,406.999,170.93,406.999z"/>
	<path d="M95.625,353.812h143.438v-57.375H95.625V353.812z M170.93,311.374c6.598,0,11.953,5.355,11.953,11.953
		c0,6.599-5.355,11.953-11.953,11.953s-11.953-5.354-11.953-11.953C158.977,316.729,164.332,311.374,170.93,311.374z"/>
	<path d="M286.875,449.438h143.438v-382.5H286.875V449.438z M314.367,234.874c6.598,0,11.953,5.355,11.953,11.953
		s-5.355,11.953-11.953,11.953s-11.953-5.355-11.953-11.953S307.77,234.874,314.367,234.874z"/>
	<path d="M95.625,258.188h143.438V66.938H95.625V258.188z M209.18,158.374c6.598,0,11.953,5.355,11.953,11.953
		s-5.355,11.953-11.953,11.953s-11.953-5.355-11.953-11.953S202.582,158.374,209.18,158.374z"/>
	<path d="M47.812,468.562v28.688v28.688H76.5V497.25h172.125v28.688h28.688V497.25h172.125v28.688h28.688V497.25v-28.688V28.688
		H47.812V468.562z M277.312,57.375h162.562V459H277.312V57.375z M86.062,57.375h162.562V267.75H86.062V57.375z M86.062,286.875
		h162.562v76.5H86.062V286.875z M86.062,382.5h162.562V459H86.062V382.5z"/>
	<polygon points="47.812,19.125 478.125,19.125 497.25,0 28.688,0 	"/>
</g>
<g>
</g>
<g>
</g>
<g>
</g>
<g>
</g>
<g>
</g>
<g>
</g>
<g>
</g>
<g>
</g>
<g>
</g>
<g>
</g>
<g>
</g>
<g>
</g>
<g>
</g>
<g>
</g>
<g>
</g>
</svg>
