<?xml version="1.0" encoding="iso-8859-1"?>
<!-- Generator: Adobe Illustrator 16.0.0, SVG Export Plug-In . SVG Version: 6.00 Build 0)  -->
<!DOCTYPE svg PUBLIC "-//W3C//DTD SVG 1.1//EN" "http://www.w3.org/Graphics/SVG/1.1/DTD/svg11.dtd">
<svg version="1.1" id="Capa_1" xmlns="http://www.w3.org/2000/svg" xmlns:xlink="http://www.w3.org/1999/xlink" x="0px" y="0px"
	 width="590.963px" height="590.963px" viewBox="0 0 590.963 590.963" style="enable-background:new 0 0 590.963 590.963;"
	 xml:space="preserve">
<g>
	<path d="M204.16,111.164h-10.041v110.925h212.287V111.164h-12.909l-84.628-73.153c0-0.478,0.478-0.956,0.478-1.434
		c0-5.26-4.303-9.084-9.084-9.084c-5.259,0-9.084,4.303-9.084,9.084c0,0.478,0,0.956,0.478,1.434l-87.019,72.197
		C204.638,110.208,204.16,110.686,204.16,111.164z M394.932,120.249h2.391v92.278h-9.085H203.203v-83.194v-9.084H390.15H394.932z
		 M296.916,45.183c0.956,0.478,1.912,0.478,3.347,0.478c0.956,0,1.912-0.478,2.869-0.478l76.021,65.503H218.025L296.916,45.183z"/>
	<path d="M165.91,351.184v9.084v45.9c6.215-10.041,16.256-18.17,32.512-18.17h187.903c25.341,0,30.6,6.217,38.729,18.646v-55.461
		c0-51.16-41.598-92.279-92.278-92.279h-74.109C207.506,258.905,165.91,300.023,165.91,351.184z"/>
	<path d="M120.01,462.107H27.731v46.379h92.278V462.107z M101.363,477.408c0,1.434-1.435,2.869-2.869,2.869H48.769
		c-1.435,0-2.869-1.436-2.869-2.869v-3.348c0-1.434,1.434-2.869,2.869-2.869h49.725c1.434,0,2.869,1.436,2.869,2.869V477.408z"/>
	<path d="M27.731,434.377h92.278v-46.379H27.731V434.377z M45.9,400.43c0-1.434,1.434-2.869,2.869-2.869h49.725
		c1.434,0,2.869,1.436,2.869,2.869v3.348c0,1.434-1.435,2.867-2.869,2.867H48.769c-1.435,0-2.869-1.434-2.869-2.867V400.43z"/>
	<path d="M420.272,489.84H170.691c-1.435,0-3.347,0-4.781-0.479v74.109h27.731v-27.732h203.203v27.732h27.731v-74.588
		C423.141,489.361,421.706,489.84,420.272,489.84z"/>
	<path d="M147.741,360.268H0v203.203h27.731v-27.732h92.278v27.732h27.731V360.268z M129.094,517.57H18.169v-65.025h110.925V517.57z
		 M129.094,443.461H18.169v-64.547h110.925V443.461z"/>
	<path d="M563.231,462.107h-92.278v46.379h92.278V462.107z M545.062,477.408c0,1.434-1.435,2.869-2.868,2.869h-49.726
		c-1.435,0-2.868-1.436-2.868-2.869v-3.348c0-1.434,1.434-2.869,2.868-2.869h49.726c1.434,0,2.868,1.436,2.868,2.869V477.408z"/>
	<path d="M470.953,434.377h92.278v-46.379h-92.278V434.377z M489.601,400.43c0-1.434,1.434-2.869,2.868-2.869h49.726
		c1.434,0,2.868,1.436,2.868,2.869v3.348c0,1.434-1.435,2.867-2.868,2.867h-49.726c-1.435,0-2.868-1.434-2.868-2.867V400.43z"/>
	<path d="M443.222,457.326v9.084v41.598v27.73v27.732h27.731v-27.732h92.278v27.732h27.731v-27.732v-27.73v-147.74H443.222V457.326z
		 M461.869,378.914h110.925v64.547H461.869V378.914z M461.869,508.008v-55.463h110.925v55.463v9.084h-9.562h-92.278h-9.084V508.008
		L461.869,508.008z"/>
	<path d="M393.019,397.561H198.422c-21.994,0-28.688,19.604-31.078,32.035c-0.478,1.912-0.478,3.346-0.956,4.781h1.435h2.869
		h253.884C422.663,421.945,414.057,397.561,393.019,397.561z"/>
	<rect x="212.288" y="129.333" width="175.472" height="74.109"/>
	<path d="M425.054,444.418c-0.957-0.479-1.435-0.479-2.391-0.479c-0.957,0-1.435-0.479-2.391-0.479H170.691h-0.478
		c-1.435,0-2.869,0.479-4.303,0.957c-5.259,1.912-9.084,7.172-9.084,12.908v9.084c0,6.217,3.825,10.998,9.084,12.91
		c1.434,0.479,2.869,0.957,4.781,0.957h21.994h227.588c0.956,0,1.912,0,2.391-0.479c0.478,0,1.434-0.479,1.912-0.479
		c4.781-1.434,8.128-5.738,9.084-10.996c0-0.957,0-1.436,0-2.391v-9.086C434.138,451.59,430.312,446.33,425.054,444.418z"/>
</g>
<g>
</g>
<g>
</g>
<g>
</g>
<g>
</g>
<g>
</g>
<g>
</g>
<g>
</g>
<g>
</g>
<g>
</g>
<g>
</g>
<g>
</g>
<g>
</g>
<g>
</g>
<g>
</g>
<g>
</g>
</svg>
