<svg xmlns="http://www.w3.org/2000/svg" width="519.244" height="519.244" style="enable-background:new 0 0 519.244 519.244" xml:space="preserve"><path d="M406.45 114.272c-1.434-2.391-32.512-46.378-96.103-63.113V21.038h31.078c5.737 0 10.519-4.781 10.519-10.519S347.163 0 341.426 0H175.994c-5.737 0-10.519 4.781-10.519 10.519s4.781 10.519 10.519 10.519h31.078V51.16c-63.112 16.734-92.756 60.722-94.19 63.113-2.868 4.781-1.912 10.997 2.869 14.344 4.781 3.347 10.997 1.913 14.344-2.869.478-.957 5.737-8.128 14.821-17.213v361.94l-31.078 31.078c-3.824 3.825-3.824 10.52 0 14.822 1.913 1.912 4.781 2.869 7.172 2.869s5.26-.957 7.172-2.869l31.078-31.078h195.075l31.078 31.078c1.912 1.912 4.781 2.869 7.172 2.869s5.26-.957 7.172-2.869c3.825-3.825 3.825-10.519 0-14.822l-27.731-27.73V107.1c10.997 10.041 16.734 17.69 17.213 18.647 1.912 2.869 5.259 4.303 8.606 4.303 1.912 0 3.824-.478 5.737-1.912 4.781-2.869 6.216-9.085 2.868-13.866zM227.632 20.56h62.156v26.297c-9.562-1.435-20.081-2.391-31.078-2.391s-21.037.956-31.078 2.391V20.56zm123.834 444.177H165.954v-165.43h185.99v165.431h-.478zm0-185.99H165.954v-41.119h185.99v41.119h-.478zm-185.512-62.156V91.8c21.037-13.865 51.638-27.253 92.756-27.253 40.641 0 71.24 12.431 92.756 26.297v125.269H165.954v.478z"/></svg>