<svg xmlns="http://www.w3.org/2000/svg" width="468.562" height="468.562" style="enable-background:new 0 0 468.562 468.562" xml:space="preserve"><path d="M401.625 86.062H66.938v57.375h334.688V86.062zm-173.32 38.843c-6.598 0-11.953-5.355-11.953-11.953s5.355-11.953 11.953-11.953 11.953 5.355 11.953 11.953-5.356 11.953-11.953 11.953zM210.375 191.25H66.938V382.5h143.438V191.25zm-29.883 115.343c-6.598 0-11.953-5.354-11.953-11.953 0-6.598 5.355-11.953 11.953-11.953s11.953 5.355 11.953 11.953c0 6.598-5.355 11.953-11.953 11.953zM401.625 191.25H258.188V382.5h143.438V191.25zM285.68 306.593c-6.598 0-11.953-5.354-11.953-11.953 0-6.598 5.355-11.953 11.953-11.953s11.953 5.355 11.953 11.953c0 6.598-5.356 11.953-11.953 11.953z"/><path d="M449.438 449.438V47.812H19.125v401.626h28.688V420.75h172.125v28.688h28.688V420.75H420.75v28.688h28.688zm-229.5-57.376H57.375V181.688h162.562v210.374zm191.25 0H248.625V181.688h162.562v210.374zm0-239.062H57.375V76.5h353.812V153zM449.438 38.25l19.124-19.125H0L19.125 38.25z"/></svg>