<svg xmlns="http://www.w3.org/2000/svg" width="571.359" height="571.359" style="enable-background:new 0 0 571.359 571.359" xml:space="preserve"><path d="M429.117 0H142.242c-31.556 0-57.375 25.819-57.375 57.375v420.75h401.625V57.375C486.492 25.819 460.674 0 429.117 0zM258.905 56.897l33.468 99.928-18.168 6.215-33.469-99.928 18.169-6.215zm-40.163.478h19.125v105.188h-19.125V57.375zM190.055 76.5h19.125v86.062h-19.125V76.5zm-38.25 0h28.688v86.062h-28.688V76.5zm-38.25-28.688h28.688v114.75h-28.688V47.812zM123.117 459h-19.125v-86.062h19.125V459zm38.25 0H132.68V344.25h28.688V459zm36.338 2.391-32.034-79.847 26.775-10.519 32.034 79.847-26.775 10.519zm167.821-7.172c-28.209 0-51.159-17.213-51.159-38.729 0-1.434.479-2.868.479-4.303H415.73c0 1.435.479 2.869.479 4.303.477 21.516-22.473 38.729-50.683 38.729zM457.805 459h-28.688v-86.062h28.688V459zm0-133.875H103.992v-9.562h353.812v9.562zm-344.25-53.072c0-1.435.478-2.869.478-4.303h100.884c0 1.435.479 2.869.479 4.303 0 21.515-22.95 38.728-51.16 38.728s-50.681-17.213-50.681-38.728zM228.305 306v-86.062h19.125V306h-19.125zm28.687 0V191.25h28.688V306h-28.688zm38.25 0v-86.062h28.688V306h-28.688zm47.813-47.812h105.188L429.117 306H362.18l-19.125-47.812zm114.75-76.5H103.992v-9.562h353.812v9.562z"/><circle cx="130.289" cy="530.719" r="40.641"/><circle cx="445.852" cy="530.719" r="40.641"/></svg>