<svg xmlns="http://www.w3.org/2000/svg" width="109.373" height="109.373" style="enable-background:new 0 0 109.373 109.373" xml:space="preserve"><path d="M24.062 53.373h57.75a1.75 1.75 0 0 0 1.75-1.75V13.342c0-.525-.236-1.022-.643-1.354a1.746 1.746 0 0 0-1.457-.36c-2.769.563-5.162.849-7.119.849-5.717 0-7.012-2.308-8.646-5.232C63.888 4.016 61.638 0 53.374 0 44.475 0 42 4.328 40.014 7.803c-1.759 3.078-3.15 5.511-8.858 5.511-1.873 0-4.141-.273-6.738-.81a1.737 1.737 0 0 0-1.459.357 1.74 1.74 0 0 0-.647 1.356v37.406c0 .966.784 1.75 1.75 1.75zm1.75-37.049c1.984.329 3.747.488 5.346.488 7.737 0 9.948-3.864 11.896-7.273 1.853-3.241 3.452-6.041 10.321-6.041 6.212 0 7.561 2.406 9.266 5.455 1.752 3.129 3.937 7.023 11.703 7.023 1.69 0 3.575-.173 5.719-.528v34.425H25.812V16.324zm59.5 45.799h-26.25v10.5h26.25v-10.5zm-7 7.164c0 .875-.711 1.586-1.586 1.586h-9.078a1.587 1.587 0 0 1-1.586-1.586v-.328c0-.875.711-1.586 1.586-1.586h9.078c.875 0 1.586.711 1.586 1.586v.328zm-28-7.164h-26.25v10.5h26.25v-10.5zm-7 7.164c0 .875-.71 1.586-1.585 1.586h-9.079a1.586 1.586 0 0 1-1.585-1.586v-.328c0-.875.71-1.586 1.585-1.586h9.079c.875 0 1.585.711 1.585 1.586v.328zm-28-14.164v54.25h5.25v-31.5h68.25v31.5h5.25v-54.25h-78.75zm36.75 19.25h-29.75v-14h29.75v14zm35 0h-29.75v-14h29.75v14zM52.641 28.561c-3.416-3.651-5.756-7.012-5.228-7.507.529-.495 3.729 2.063 7.144 5.713 3.416 3.651 5.756 7.012 5.228 7.507-.532.496-3.729-2.062-7.144-5.713zm1.201 6.433c4.954 5.296 8.542 9.991 8.012 10.486-.529.495-4.975-3.396-9.93-8.692-4.954-5.296-8.541-9.99-8.012-10.485.53-.496 4.977 3.395 9.93 8.691zm22.72 52.942v.875a3.065 3.065 0 0 1-3.062 3.062H35.874a3.064 3.064 0 0 1-3.062-3.062v-.875a3.064 3.064 0 0 1 3.062-3.062h37.625a3.063 3.063 0 0 1 3.063 3.062zm-8.75 5.687h3.5v15.75h-3.5v-8.75h-26.25v8.75h-3.5v-15.75h29.75z"/></svg>