<svg xmlns="http://www.w3.org/2000/svg" width="525.938" height="525.938" style="enable-background:new 0 0 525.938 525.938" xml:space="preserve"><path d="M95.625 449.438h143.438v-57.375H95.625v57.375zm75.305-42.439c6.598 0 11.953 5.355 11.953 11.953 0 6.599-5.355 11.953-11.953 11.953s-11.953-5.354-11.953-11.953c0-6.598 5.355-11.953 11.953-11.953zM95.625 353.812h143.438v-57.375H95.625v57.375zm75.305-42.438c6.598 0 11.953 5.355 11.953 11.953 0 6.599-5.355 11.953-11.953 11.953s-11.953-5.354-11.953-11.953c0-6.598 5.355-11.953 11.953-11.953zM286.875 449.438h143.438v-382.5H286.875v382.5zm27.492-214.564c6.598 0 11.953 5.355 11.953 11.953s-5.355 11.953-11.953 11.953-11.953-5.355-11.953-11.953 5.356-11.953 11.953-11.953zM95.625 258.188h143.438V66.938H95.625v191.25zm113.555-99.814c6.598 0 11.953 5.355 11.953 11.953s-5.355 11.953-11.953 11.953-11.953-5.355-11.953-11.953 5.355-11.953 11.953-11.953z"/><path d="M47.812 468.562v57.376H76.5V497.25h172.125v28.688h28.688V497.25h172.125v28.688h28.688V28.688H47.812v439.874zm229.5-411.187h162.562V459H277.312V57.375zm-191.25 0h162.562V267.75H86.062V57.375zm0 229.5h162.562v76.5H86.062v-76.5zm0 95.625h162.562V459H86.062v-76.5zM47.812 19.125h430.313L497.25 0H28.688z"/></svg>