<?xml version="1.0" encoding="iso-8859-1"?>
<!-- Generator: Adobe Illustrator 16.0.0, SVG Export Plug-In . SVG Version: 6.00 Build 0)  -->
<!DOCTYPE svg PUBLIC "-//W3C//DTD SVG 1.1//EN" "http://www.w3.org/Graphics/SVG/1.1/DTD/svg11.dtd">
<svg version="1.1" id="Capa_1" xmlns="http://www.w3.org/2000/svg" xmlns:xlink="http://www.w3.org/1999/xlink" x="0px" y="0px"
	 width="525.938px" height="525.938px" viewBox="0 0 525.938 525.938" style="enable-background:new 0 0 525.938 525.938;"
	 xml:space="preserve">
<g>
	<path d="M191.25,449.438h143.438v-57.375H191.25V449.438z M266.555,406.999c6.598,0,11.953,5.355,11.953,11.953
		c0,6.599-5.355,11.953-11.953,11.953s-11.953-5.354-11.953-11.953C254.602,412.354,259.957,406.999,266.555,406.999z"/>
	<path d="M191.25,353.812h143.438v-57.375H191.25V353.812z M266.555,311.374c6.598,0,11.953,5.355,11.953,11.953
		c0,6.599-5.355,11.953-11.953,11.953s-11.953-5.354-11.953-11.953C254.602,316.729,259.957,311.374,266.555,311.374z"/>
	<path d="M191.25,258.188h143.438V66.938H191.25V258.188z M304.805,158.374c6.598,0,11.953,5.355,11.953,11.953
		s-5.355,11.953-11.953,11.953s-11.953-5.355-11.953-11.953S298.207,158.374,304.805,158.374z"/>
	<path d="M372.938,525.938V497.25v-28.688V28.688H153v439.875v28.688v28.688h28.688V497.25H344.25v28.688H372.938z M181.688,57.375
		H344.25V267.75H181.688V57.375z M181.688,286.875H344.25v76.5H181.688V286.875z M181.688,459v-76.5H344.25V459H181.688z"/>
	<polygon points="372.938,19.125 392.062,0 133.875,0 153,19.125 	"/>
</g>
<g>
</g>
<g>
</g>
<g>
</g>
<g>
</g>
<g>
</g>
<g>
</g>
<g>
</g>
<g>
</g>
<g>
</g>
<g>
</g>
<g>
</g>
<g>
</g>
<g>
</g>
<g>
</g>
<g>
</g>
</svg>
