<svg xmlns="http://www.w3.org/2000/svg" width="516.375" height="516.375" style="enable-background:new 0 0 516.375 516.375" xml:space="preserve"><path d="M497.25 186.469H196.987c18.169 16.256 29.166 39.685 29.166 65.503 0 7.65-.957 14.344-2.869 20.56H497.25c10.519 0 19.125-8.606 19.125-19.125v-47.812c0-10.52-8.606-19.126-19.125-19.126zm-221.372 59.765c-7.649 0-13.865-6.216-13.865-13.866s6.216-13.866 13.865-13.866c7.65 0 13.866 6.216 13.866 13.866-.478 8.129-6.216 13.866-13.866 13.866zm172.125 0c-7.649 0-13.865-6.216-13.865-13.866s6.216-13.866 13.865-13.866c7.65 0 13.866 6.216 13.866 13.866-.478 8.129-6.216 13.866-13.866 13.866zM67.416 186.469H19.125C8.606 186.469 0 195.075 0 205.594v47.812c0 10.519 8.606 19.125 19.125 19.125h21.994c-1.913-6.216-2.869-12.909-2.869-20.56 0-25.818 11.475-49.246 29.166-65.502z"/><path d="m186.469 367.678 1.913.479c11.953 0 21.994-10.519 21.994-23.906V285.92c0-2.391-.478-4.304-.956-6.216 1.434-1.912 2.869-4.303 3.825-7.172 2.391-5.737 3.825-12.432 3.825-20.56 0-26.775-13.866-50.681-34.903-65.503-6.694-4.781-10.041-8.606-19.603-10.997h-3.347c0-1.912 0-3.347-.479-4.781-.478-1.912-.956-3.825-1.434-5.259-4.303-10.519-13.866-17.212-24.863-17.212s-20.559 6.694-24.862 16.256c-.956 1.913-1.435 3.347-1.435 5.259-.956 1.913-.956 3.825-.956 5.737-8.128 2.869-15.778 6.216-22.472 10.997-21.038 14.822-34.903 38.25-34.903 65.503 0 8.128 1.435 14.822 3.825 20.56 1.434 3.825 3.825 7.172 6.215 10.041 0 1.434-.478 2.868-.478 4.303v57.375c0 13.865 8.606 23.906 20.081 23.906l1.913-.479s21.516-8.605 54.506-8.605c32.513.477 52.594 8.605 52.594 8.605zm-71.241-195.075c.478-1.913.957-3.347 1.435-5.259.956-1.913 2.391-3.825 4.303-5.259 2.869-2.869 7.172-4.303 11.475-4.303s8.128 1.435 11.475 4.303c1.913 1.434 3.347 3.347 4.303 5.259.956 1.435 1.435 3.347 1.435 5.259 0 .957.478 1.913.478 2.869 0 3.825-.478 5.26-7.172 5.26h-21.037c-6.694 0-7.172-.957-7.172-5.26-.001-.956-.001-1.912.477-2.869zm-38.25 185.991c-6.694-.479-10.041-7.65-10.041-14.344v-54.028c15.3 9.562 38.728 10.997 65.503 10.997 27.731 0 52.116-1.435 67.416-12.432.478 0 .478-.478.956-.956v56.418c0 7.65-5.259 13.865-11.475 14.344-4.781-1.912-24.384-8.606-55.462-8.606s-52.116 6.695-56.897 8.607z"/></svg>