<?xml version="1.0" encoding="iso-8859-1"?>
<!-- Generator: Adobe Illustrator 16.0.0, SVG Export Plug-In . SVG Version: 6.00 Build 0)  -->
<!DOCTYPE svg PUBLIC "-//W3C//DTD SVG 1.1//EN" "http://www.w3.org/Graphics/SVG/1.1/DTD/svg11.dtd">
<svg version="1.1" id="Capa_1" xmlns="http://www.w3.org/2000/svg" xmlns:xlink="http://www.w3.org/1999/xlink" x="0px" y="0px"
	 width="106.898px" height="106.898px" viewBox="0 0 106.898 106.898" style="enable-background:new 0 0 106.898 106.898;"
	 xml:space="preserve">
<g>
	<path d="M74.564,92.82c-0.332,0.303-0.752,0.449-1.168,0.449c-0.479,0-0.957-0.191-1.303-0.578l-7.48-8.312l-7.779,8.337
		c-0.346,0.368-0.812,0.555-1.277,0.555c-0.428,0-0.857-0.153-1.193-0.471c-0.708-0.658-0.746-1.769-0.086-2.476l9.082-9.731
		c0.02-0.021,0.045-0.027,0.062-0.046c0.02-0.021,0.023-0.045,0.045-0.062c0.057-0.049,0.125-0.065,0.184-0.104v-5.647l-17.5,17.5
		v-4.946l16.981-16.983L51.885,77.37l-5.736-22.046v-3.476v-3.474l6.829,26.243l10.67-6.707l3.5-2.201l3.562-2.238l-3.562-13.374
		l-3.5-13.143L54.479,2.52L34.037,1.83l10.86,41.739c-0.314-0.266-0.672-0.478-1.065-0.62c-0.304-0.11-0.621-0.176-0.955-0.198
		L31.752,0l24.083,0.813l8.476,31.825c0.303-0.245,0.67-0.411,1.088-0.411c0.965,0,1.75,0.784,1.75,1.75v9.317l5.584,20.972
		l-5.584,3.51v13.451c0,0.213-0.051,0.41-0.121,0.602l7.668,8.521C75.343,91.066,75.287,92.176,74.564,92.82z M46.068,95.957
		l-0.027-0.029l-1.516-1.684c-0.018-0.021-0.042-0.026-0.062-0.049c-0.02-0.019-0.026-0.045-0.045-0.062
		c-0.005-0.009-0.015-0.009-0.021-0.017V93.96v-4.928V48.595v-2.368c0-0.707-0.423-1.311-1.028-1.585
		c-0.222-0.102-0.463-0.165-0.722-0.165c-0.968,0-1.75,0.784-1.75,1.75v49c0,0.033,0.019,0.062,0.02,0.098l-0.008,0.008
		l-1.371,1.469l-6.675,7.15c-0.659,0.707-0.62,1.812,0.085,2.475c0.337,0.314,0.768,0.473,1.194,0.473
		c0.467,0,0.936-0.188,1.279-0.557l7.115-7.623l0.667-0.715l0.491,0.549l6.989,7.768c0.345,0.387,0.823,0.578,1.302,0.578
		c0.417,0,0.836-0.146,1.169-0.447c0.72-0.646,0.778-1.755,0.13-2.473L46.068,95.957z M58.227,36.999
		c0.17-0.384-1.844-1.648-4.497-2.823c-2.653-1.175-4.942-1.816-5.113-1.431c-0.171,0.384,1.843,1.647,4.497,2.822
		C55.77,36.743,58.057,37.383,58.227,36.999z M47.94,36.344c-0.17,0.384,2.812,2.077,6.662,3.781s7.105,2.772,7.275,2.389
		c0.17-0.383-2.812-2.077-6.661-3.781C51.369,37.028,48.11,35.959,47.94,36.344z"/>
</g>
<g>
</g>
<g>
</g>
<g>
</g>
<g>
</g>
<g>
</g>
<g>
</g>
<g>
</g>
<g>
</g>
<g>
</g>
<g>
</g>
<g>
</g>
<g>
</g>
<g>
</g>
<g>
</g>
<g>
</g>
</svg>
