<svg xmlns="http://www.w3.org/2000/svg" width="516.375" height="516.375" style="enable-background:new 0 0 516.375 516.375" xml:space="preserve"><path d="M499.641 16.734h-4.781c-9.237 0-16.734 7.497-16.734 16.734v107.578H162.564v-9.562h306v-19.125c0-10.566-8.559-19.125-19.125-19.125H162.562v-38.25c0-2.639-2.142-4.781-4.781-4.781S153 52.345 153 54.984v38.25H66.938v-38.25c0-2.639-2.142-4.781-4.781-4.781s-4.781 2.142-4.781 4.781v40.899c-5.689 3.309-9.562 9.409-9.562 16.476v19.125h9.562v9.562H38.25V33.469c0-9.237-7.497-16.734-16.734-16.734h-4.781C7.497 16.734 0 24.231 0 33.469v444.656c0 9.237 7.497 16.734 16.734 16.734h4.781c9.237 0 16.734-7.497 16.734-16.734V179.297h19.125v315.562a4.782 4.782 0 0 0 9.562 0v-28.688H153v28.688a4.782 4.782 0 0 0 9.562 0V179.297h9.562v315.562H499.64c9.237 0 16.734-7.497 16.734-16.734V33.469c.001-9.238-7.496-16.735-16.733-16.735zM153 456.609H66.938v-28.688H153v28.688zm0-38.25H66.938v-28.688H153v28.688zm0-38.25H66.938v-28.688H153v28.688zm0-38.25H66.938v-28.688H153v28.688zm0-38.25H66.938v-28.688H153v28.688zm0-38.25H66.938v-28.688H153v28.688zm0-38.25H66.938v-28.688H153v28.688zm0-38.25H66.938v-9.562H153v9.562zm0-47.812H66.938v-9.562H153v9.562zm181.688 334.687H191.25V179.297h143.438v296.437zm162.562 0H353.812v-57.375H497.25v57.375zm0-76.5H353.812v-47.812H497.25v47.812zm0-66.937H353.812v-153h143.437v153z"/><path d="M432.818 45.422h-39.273c-14.459 0-30.17 10.7-30.17 25.159v13.091H459V70.581c0-14.459-11.724-25.159-26.182-25.159zM325.125 188.859H200.812v277.312h124.312V188.859zm-19.919 143.438a7.966 7.966 0 1 1 .002-15.932 7.966 7.966 0 0 1-.002 15.932zM363.375 188.859v133.875h124.312V188.859H363.375zm18.331 76.5a7.966 7.966 0 1 1 .002-15.932 7.966 7.966 0 0 1-.002 15.932zM468.562 360.984c0 4.121-2.142 9.562-4.781 9.562h-76.5c-2.64 0-4.781-5.441-4.781-9.562h-19.125v28.688h124.312v-28.688h-19.125zM468.562 427.922c0 4.121-2.142 9.562-4.781 9.562h-76.5c-2.64 0-4.781-5.441-4.781-9.562h-19.125v38.25h124.312v-38.25h-19.125z"/></svg>