<svg xmlns="http://www.w3.org/2000/svg" width="525.938" height="525.938" style="enable-background:new 0 0 525.938 525.938" xml:space="preserve"><path d="M191.25 449.438h143.438v-57.375H191.25v57.375zm75.305-42.439c6.598 0 11.953 5.355 11.953 11.953 0 6.599-5.355 11.953-11.953 11.953s-11.953-5.354-11.953-11.953c0-6.598 5.355-11.953 11.953-11.953zM191.25 353.812h143.438v-57.375H191.25v57.375zm75.305-42.438c6.598 0 11.953 5.355 11.953 11.953 0 6.599-5.355 11.953-11.953 11.953s-11.953-5.354-11.953-11.953c0-6.598 5.355-11.953 11.953-11.953zM191.25 258.188h143.438V66.938H191.25v191.25zm113.555-99.814c6.598 0 11.953 5.355 11.953 11.953s-5.355 11.953-11.953 11.953-11.953-5.355-11.953-11.953 5.355-11.953 11.953-11.953z"/><path d="M372.938 525.938V28.688H153v497.251h28.688V497.25H344.25v28.688h28.688zM181.688 57.375H344.25V267.75H181.688V57.375zm0 229.5H344.25v76.5H181.688v-76.5zm0 172.125v-76.5H344.25V459H181.688zM372.938 19.125 392.062 0H133.875L153 19.125z"/></svg>