<?xml version="1.0" encoding="iso-8859-1"?>
<!-- Generator: Adobe Illustrator 16.0.0, SVG Export Plug-In . SVG Version: 6.00 Build 0)  -->
<!DOCTYPE svg PUBLIC "-//W3C//DTD SVG 1.1//EN" "http://www.w3.org/Graphics/SVG/1.1/DTD/svg11.dtd">
<svg version="1.1" id="Capa_1" xmlns="http://www.w3.org/2000/svg" xmlns:xlink="http://www.w3.org/1999/xlink" x="0px" y="0px"
	 width="519.244px" height="519.244px" viewBox="0 0 519.244 519.244" style="enable-background:new 0 0 519.244 519.244;"
	 xml:space="preserve">
<g>
	<path d="M406.45,114.272c-1.434-2.391-32.512-46.378-96.103-63.113V21.038h31.078c5.737,0,10.519-4.781,10.519-10.519
		C351.944,4.781,347.163,0,341.426,0H175.994c-5.737,0-10.519,4.781-10.519,10.519c0,5.738,4.781,10.519,10.519,10.519h31.078
		v30.122c-63.112,16.734-92.756,60.722-94.19,63.113c-2.868,4.781-1.912,10.997,2.869,14.344c4.781,3.347,10.997,1.913,14.344-2.869
		c0.478-0.957,5.737-8.128,14.821-17.213v361.94l-31.078,31.078c-3.824,3.825-3.824,10.52,0,14.822
		c1.913,1.912,4.781,2.869,7.172,2.869s5.26-0.957,7.172-2.869l31.078-31.078h195.075l31.078,31.078
		c1.912,1.912,4.781,2.869,7.172,2.869s5.26-0.957,7.172-2.869c3.825-3.825,3.825-10.519,0-14.822l-27.731-27.73V107.1
		c10.997,10.041,16.734,17.69,17.213,18.647c1.912,2.869,5.259,4.303,8.606,4.303c1.912,0,3.824-0.478,5.737-1.912
		C408.363,125.269,409.798,119.053,406.45,114.272z M227.632,20.56h62.156v26.297c-9.562-1.435-20.081-2.391-31.078-2.391
		s-21.037,0.956-31.078,2.391V20.56z M351.466,464.737H165.954V299.307h185.99v165.431H351.466z M351.466,278.747H165.954v-41.119
		h185.99v41.119H351.466z M165.954,216.591V91.8c21.037-13.865,51.638-27.253,92.756-27.253c40.641,0,71.24,12.431,92.756,26.297
		v125.269H165.954V216.591z"/>
</g>
<g>
</g>
<g>
</g>
<g>
</g>
<g>
</g>
<g>
</g>
<g>
</g>
<g>
</g>
<g>
</g>
<g>
</g>
<g>
</g>
<g>
</g>
<g>
</g>
<g>
</g>
<g>
</g>
<g>
</g>
</svg>
