<svg xmlns="http://www.w3.org/2000/svg" width="106.898" height="106.898" style="enable-background:new 0 0 106.898 106.898" xml:space="preserve"><path d="M74.564 92.82a1.726 1.726 0 0 1-1.168.449c-.479 0-.957-.191-1.303-.578l-7.48-8.312-7.779 8.337a1.75 1.75 0 1 1-2.556-2.392l9.082-9.731c.02-.021.045-.027.062-.046.02-.021.023-.045.045-.062.057-.049.125-.065.184-.104v-5.647l-17.5 17.5v-4.946l16.981-16.983-11.247 7.065-5.736-22.046v-6.95l6.829 26.243 10.67-6.707 3.5-2.201 3.562-2.238-3.562-13.374-3.5-13.143L54.479 2.52l-20.442-.69 10.86 41.739a3.454 3.454 0 0 0-2.02-.818L31.752 0l24.083.813 8.476 31.825c.303-.245.67-.411 1.088-.411.965 0 1.75.784 1.75 1.75v9.317l5.584 20.972-5.584 3.51v13.451c0 .213-.051.41-.121.602l7.668 8.521a1.744 1.744 0 0 1-.132 2.47zm-28.496 3.137-.027-.029-1.516-1.684c-.018-.021-.042-.026-.062-.049-.02-.019-.026-.045-.045-.062-.005-.009-.015-.009-.021-.017V46.227a1.74 1.74 0 0 0-1.028-1.585 1.718 1.718 0 0 0-.722-.165 1.75 1.75 0 0 0-1.75 1.75v49c0 .033.019.062.02.098l-.008.008-1.371 1.469-6.675 7.15a1.754 1.754 0 0 0 1.279 2.948c.467 0 .936-.188 1.279-.557l7.115-7.623.667-.715.491.549 6.989 7.768c.345.387.823.578 1.302.578a1.75 1.75 0 0 0 1.299-2.92l-7.216-8.023zm12.159-58.958c.17-.384-1.844-1.648-4.497-2.823-2.653-1.175-4.942-1.816-5.113-1.431-.171.384 1.843 1.647 4.497 2.822 2.656 1.176 4.943 1.816 5.113 1.432zm-10.287-.655c-.17.384 2.812 2.077 6.662 3.781s7.105 2.772 7.275 2.389c.17-.383-2.812-2.077-6.661-3.781-3.847-1.705-7.106-2.774-7.276-2.389z"/></svg>