<svg xmlns="http://www.w3.org/2000/svg" width="468.562" height="468.562" style="enable-background:new 0 0 468.562 468.562" xml:space="preserve"><path d="M105.188 229.5h258.188v-95.625H105.188V229.5zm229.5-86.062v76.5h-38.25v-76.5h38.25zm-86.063 0h38.25v76.5h-38.25v-76.5zm-28.687 0v76.5h-38.25v-76.5h38.25zm-86.063 0h38.25v76.5h-38.25v-76.5zM254.354 69.366c55.749 6.761 93.329 34.501 109.021 48.482V57.375H256.523l-2.169 11.991zM105.188 116.481c14.373-14.516 46.971-40.507 99.469-47.086l-2.18-12.02h-97.289v59.106z"/><path d="M243.844 105.188h-32.675l-4.791-26.335c-50.949 6.388-82.448 32.359-95.319 45.46h245.048c-15.415-13.32-51.475-39.187-103.476-45.489l-4.801 26.364h-3.986zM86.062 19.125h109.453l-1.741-9.563H86.062zM263.485 19.125H382.5V9.562H265.226zM197.255 28.688H90.212l12.757 19.124h97.767zM258.264 47.812h107.33l12.756-19.124H261.745zM286.875 239.062H105.188v229.5h258.188v-229.5h-76.501zm-38.25 19.126h38.25v38.25h-38.25v-38.25zm38.25 86.062h-38.25V306h38.25v38.25zM181.688 306h38.25v38.25h-38.25V306zm-9.563 38.25h-38.25V306h38.25v38.25zm-38.25 19.125h38.25v38.25h-38.25v-38.25zm47.813 0h38.25v38.25h-38.25v-38.25zm66.937 0h38.25v38.25h-38.25v-38.25zm47.813 0h38.25v38.25h-38.25v-38.25zm38.25-19.125h-38.25V306h38.25v38.25zm-114.75-86.062v38.25h-38.25v-38.25h38.25zm-86.063 0h38.25v38.25h-38.25v-38.25zm0 153h38.25v38.25h-38.25v-38.25zm86.063 38.25h-38.25v-38.25h38.25v38.25zm28.687-38.25h38.25v38.25h-38.25v-38.25zm86.063 38.25h-38.25v-38.25h38.25v38.25zm0-191.25v38.25h-38.25v-38.25h38.25z"/><path d="M257.24 0h-55.481l1.741 9.562 1.74 9.563 1.74 9.563 3.472 19.124 1.74 9.563 1.998 10.958 1.722 9.506 3.232 17.786h20.712l3.232-17.786 1.731-9.515 1.99-10.949 1.74-9.563 3.471-19.124 1.74-9.563 1.74-9.563z"/></svg>