<?xml version="1.0" encoding="iso-8859-1"?>
<!-- Generator: Adobe Illustrator 16.0.0, SVG Export Plug-In . SVG Version: 6.00 Build 0)  -->
<!DOCTYPE svg PUBLIC "-//W3C//DTD SVG 1.1//EN" "http://www.w3.org/Graphics/SVG/1.1/DTD/svg11.dtd">
<svg version="1.1" id="Capa_1" xmlns="http://www.w3.org/2000/svg" xmlns:xlink="http://www.w3.org/1999/xlink" x="0px" y="0px"
	 width="487.688px" height="487.688px" viewBox="0 0 487.688 487.688" style="enable-background:new 0 0 487.688 487.688;"
	 xml:space="preserve">
<g>
	<g>
		<path d="M334.688,162.562c0,15.845-12.843,28.688-28.688,28.688H162.562c-15.845,0-28.688-12.842-28.688-28.688
			c0-3.375,0.688-6.56,1.759-9.562H28.688v258.188H459V153H332.928C333.999,156.002,334.688,159.187,334.688,162.562z
			 M86.062,401.625H38.25v-47.812h9.562v38.25h38.25V401.625z M401.625,392.062h38.25v-38.25h9.562v47.812h-47.812V392.062z"/>
		<polygon points="0,133.875 162.562,133.875 306,133.875 487.688,133.875 487.688,76.5 0,76.5 		"/>
	</g>
</g>
<g>
</g>
<g>
</g>
<g>
</g>
<g>
</g>
<g>
</g>
<g>
</g>
<g>
</g>
<g>
</g>
<g>
</g>
<g>
</g>
<g>
</g>
<g>
</g>
<g>
</g>
<g>
</g>
<g>
</g>
</svg>
