<svg xmlns="http://www.w3.org/2000/svg" width="602.438" height="602.438" style="enable-background:new 0 0 602.438 602.438" xml:space="preserve"><path d="M463.781 0H138.656v602.438h325.125V0zM320.344 47.812V38.25h86.062V306h-86.062V47.812zm-124.313 0V38.25h86.062V306h-86.062V47.812zm210.375 516.376H196.031V344.25h210.375v219.938zm17.93-216.352c-13.177 0-23.906-10.729-23.906-23.906s10.729-23.906 23.906-23.906 23.906 10.729 23.906 23.906-10.729 23.906-23.906 23.906z"/><path d="M205.594 47.812h66.938v248.625h-66.938zM329.906 47.812h66.938v248.625h-66.938zM205.594 353.812h191.25v200.812h-191.25z"/><circle cx="424.336" cy="323.93" r="14.344"/></svg>