<svg xmlns="http://www.w3.org/2000/svg" width="497.25" height="497.25" style="enable-background:new 0 0 497.25 497.25" xml:space="preserve"><path d="M478.125 205.594v-86.062c0-10.566-8.559-19.125-19.125-19.125H38.25c-10.566 0-19.125 8.559-19.125 19.125v86.101c.134 0 .258-.038.402-.038h458.598zM497.25 243.844c0-10.566-8.463-19.125-19.029-19.125H19.527c-.144 0-.268.038-.402.038C8.74 224.977 0 233.421 0 243.844v114.75h497.25v-114.75zM19.125 377.719h47.812v19.125H19.125zM430.312 377.719h47.812v19.125h-47.812z"/></svg>