<svg xmlns="http://www.w3.org/2000/svg" width="573.75" height="573.75" style="enable-background:new 0 0 573.75 573.75" xml:space="preserve"><path d="M86.062 181.688h401.625V76.5h19.125V35.859C506.812 16.256 494.859 0 475.256 0H89.409C69.806 0 57.375 16.256 57.375 35.859V76.5h28.688v105.188zM38.25 525.938h86.062v47.812H38.25zM420.75 525.938h86.062v47.812H420.75zM0 439.875h573.75v66.938H0zM488.644 200.812H88.453C40.641 202.725 0 229.978 0 277.791V420.75h573.75V277.791c0-49.247-35.859-76.979-85.106-76.979zM19.125 286.396c0-43.031 26.297-66.459 69.328-66.459h22.95l-21.038 21.516-71.241 76.021v-31.078z"/></svg>