<svg xmlns="http://www.w3.org/2000/svg" width="602.438" height="602.438" style="enable-background:new 0 0 602.438 602.438" xml:space="preserve"><path d="M138.656 602.438h325.125V0H138.656v602.438zm248.625-277.313v-9.562h47.812V420.75h-9.562v9.562c0 7.908-6.436 14.344-14.344 14.344s-14.344-6.436-14.344-14.344v-9.562h-9.562v-95.625zm-76.5-192.847c13.177 0 23.906 10.729 23.906 23.906s-10.729 23.906-23.906 23.906-23.906-10.729-23.906-23.906 10.729-23.906 23.906-23.906z"/><path d="M411.188 377.719c7.908 0 14.344 6.436 14.344 14.344v-66.938h-28.688v66.938c0-7.909 6.435-14.344 14.344-14.344z"/><path d="M411.188 387.281a4.791 4.791 0 0 0-4.408 2.917c-.124.621-.373 1.204-.373 1.864V430.311c0 .66.249 1.243.373 1.864a4.792 4.792 0 0 0 4.408 2.917 4.782 4.782 0 0 0 4.781-4.781V392.062a4.783 4.783 0 0 0-4.781-4.781z"/><circle cx="310.781" cy="156.185" r="14.344"/></svg>