<?xml version="1.0" encoding="iso-8859-1"?>
<!-- Generator: Adobe Illustrator 16.0.0, SVG Export Plug-In . SVG Version: 6.00 Build 0)  -->
<!DOCTYPE svg PUBLIC "-//W3C//DTD SVG 1.1//EN" "http://www.w3.org/Graphics/SVG/1.1/DTD/svg11.dtd">
<svg version="1.1" id="Capa_1" xmlns="http://www.w3.org/2000/svg" xmlns:xlink="http://www.w3.org/1999/xlink" x="0px" y="0px"
	 width="602.438px" height="602.438px" viewBox="0 0 602.438 602.438" style="enable-background:new 0 0 602.438 602.438;"
	 xml:space="preserve">
<g>
	<g>
		<path d="M138.656,602.438h325.125V0H138.656V602.438z M387.281,325.125v-9.562h47.812V420.75h-9.562v9.562
			c0,7.908-6.436,14.344-14.344,14.344s-14.344-6.436-14.344-14.344v-9.562h-9.562V325.125z M310.781,132.278
			c13.177,0,23.906,10.729,23.906,23.906c0,13.177-10.729,23.906-23.906,23.906s-23.906-10.729-23.906-23.906
			C286.875,143.007,297.604,132.278,310.781,132.278z"/>
		<path d="M411.188,377.719c7.908,0,14.344,6.436,14.344,14.344v-66.938h-28.688v66.938
			C396.844,384.154,403.279,377.719,411.188,377.719z"/>
		<path d="M411.188,387.281c-1.979,0-3.682,1.205-4.408,2.917c-0.124,0.621-0.373,1.204-0.373,1.864v19.125v9.562v9.562
			c0,0.66,0.249,1.243,0.373,1.864c0.727,1.712,2.429,2.917,4.408,2.917c2.64,0,4.781-2.142,4.781-4.781v-9.562v-9.562v-19.125
			C415.969,389.423,413.827,387.281,411.188,387.281z"/>
		<circle cx="310.781" cy="156.185" r="14.344"/>
	</g>
</g>
<g>
</g>
<g>
</g>
<g>
</g>
<g>
</g>
<g>
</g>
<g>
</g>
<g>
</g>
<g>
</g>
<g>
</g>
<g>
</g>
<g>
</g>
<g>
</g>
<g>
</g>
<g>
</g>
<g>
</g>
</svg>
