<?xml version="1.0" encoding="iso-8859-1"?>
<!-- Generator: Adobe Illustrator 16.0.0, SVG Export Plug-In . SVG Version: 6.00 Build 0)  -->
<!DOCTYPE svg PUBLIC "-//W3C//DTD SVG 1.1//EN" "http://www.w3.org/Graphics/SVG/1.1/DTD/svg11.dtd">
<svg version="1.1" id="Capa_1" xmlns="http://www.w3.org/2000/svg" xmlns:xlink="http://www.w3.org/1999/xlink" x="0px" y="0px"
	 width="596.222px" height="596.222px" viewBox="0 0 596.222 596.222" style="enable-background:new 0 0 596.222 596.222;"
	 xml:space="preserve">
<g>
	<path d="M340.425,295.003c-1.435,0-2.868-0.478-4.781-0.478h-4.781h-67.416c-4.781,0-9.562,0.478-14.344,1.913
		c-15.3,4.303-21.516,14.821-21.516,31.078v226.153c0,21.037,11.475,42.553,32.035,42.553h76.021
		c21.038,0,32.991-21.516,32.991-42.553V327.993C369.112,308.391,358.594,296.916,340.425,295.003z"/>
	<path d="M415.969,39.684C386.803,15.3,346.162,0,301.219,0c-48.291,0-91.322,17.212-120.966,44.943v170.213
		c19.604,18.646,45.9,32.034,75.066,39.206v30.122h85.106v-1.435v-21.994v-5.738c29.166-5.737,54.984-18.168,75.544-35.381V39.684z
		 M378.197,191.25c-28.21,14.822-47.812,23.906-77.935,23.906c-32.513,0-54.028-10.519-82.238-27.253V85.584
		c0-1.912,14.822-14.344,39.685-21.994l7.172,14.822h65.981l8.128-15.778c25.341,7.65,39.207,20.559,39.207,23.428V191.25z"/>
</g>
<g>
</g>
<g>
</g>
<g>
</g>
<g>
</g>
<g>
</g>
<g>
</g>
<g>
</g>
<g>
</g>
<g>
</g>
<g>
</g>
<g>
</g>
<g>
</g>
<g>
</g>
<g>
</g>
<g>
</g>
</svg>
