<svg xmlns="http://www.w3.org/2000/svg" width="489.312" height="489.312" style="enable-background:new 0 0 489.312 489.312" xml:space="preserve"><path d="M19.125 115.562h105.187v-38.25H19.125zM133.875 115.562h105.188v-38.25H133.875zM248.625 115.562h105.187v-38.25H248.625zM468.562 77.312H363.375v38.25h105.187zM19.125 125.125h47.812v38.25H19.125zM124.312 125.125H76.5v38.25h105.188v-38.25h-47.813zM239.063 125.125H191.25v38.25h105.188v-38.25h-47.813zM363.375 163.375h47.813v-38.25H306v38.25h47.812zM420.75 125.125h47.812v38.25H420.75zM19.125 211.188h105.187v-38.25H19.125zM191.25 211.188h47.813v-38.25H133.875v38.25h47.813zM296.438 172.938h-47.813v38.25h105.187v-38.25H306zM468.562 172.938H363.375v38.25h105.187zM19.125 220.75h47.812V259H19.125zM124.312 220.75H76.5V259h105.188v-38.25h-47.813zM248.625 259h47.813v-38.25H191.25V259h47.813zM411.188 259v-38.25H306V259h57.375zM420.75 220.75h47.812V259H420.75zM76.5 306.812h47.812v-38.25H19.125v38.25h16.467c7.019-6.34 15.137-11.351 24.624-14.344l9.285-2.936-3.356 9.142c-.048.134-1.119 3.099-2.668 8.138H76.5zM239.063 268.562h-13.971c2.104 1.023 7.478 4.064 13.971 10.175v-10.175zM228.439 306.812c-1.636-12.393-4.743-23.505-10.098-31.633l-4.38-6.617h-80.085v38.25h20.091c6.034-4.322 12.747-8.271 20.234-11.704l17.796-8.138-12.039 15.424c-.058.076-1.291 1.683-3.137 4.408H228.439v.01zM350.389 306.812c-.086-.172-.133-.354-.219-.535l-6.512-12.661 10.154 4.877v-29.931H248.626v20.933c3.605 4.752 7.201 10.461 10.586 17.317H350.389zM468.562 268.562H363.376v36.089a50.523 50.523 0 0 1 2.305 2.161h102.882v-38.25zM19.125 327.113a102.377 102.377 0 0 1 7.488-10.738h-7.488v10.738zM66.938 351.804v-35.429h-6.206c-2.687 9.993-5.728 23.457-7.621 38.25h12.335c.488-.946.975-1.884 1.492-2.821zM142.462 316.375h-29.873l-2.189 5.298c-.115.287-6.206 15.194-10.567 32.952h15.271c6.063-13.139 14.841-26.526 27.358-38.25zM181.688 316.375h-10.853c-5.623 9.716-12.192 23.515-14.927 38.25h25.78v-38.25zM101.965 316.375H76.5v20.664c6.952-8.988 15.386-16.38 25.465-20.664zM229.423 316.375h-37.848v6.598l7.822 13.359c.363.65 4.188 7.525 9.142 18.283h20.425c.966-12.612 1.339-25.828.459-38.24zM296.438 316.375h-33c4.16 10.471 7.611 23.112 9.791 38.25h23.209v-38.25zM353.852 316.375H306v38.25h.545c3.777-3.72 7.697-7.21 11.752-10.213l13.924-10.337-6.656 16.018c-.037.086-.727 1.788-1.674 4.542h27.713c3.892-12.642 5.441-25.886 2.248-38.26zM403.021 341.84l5.479-3.768 1.818 6.397c.018.066.334 1.186.859 3.089v-31.184h-37.695c5.67 8.415 14.697 29.586 16.793 49.906-.009.001 5.077-19.725 12.746-24.44zM464.756 316.375H420.75v38.25h19.307c6.769-13.646 15.004-27.301 24.699-38.25zM101.965 409.208s0-26.699 9.151-45.021H97.738c-6.894 28.487 4.151 44.848 4.227 45.021zM51.552 390.427c2.266-7.975 5.326-17.107 9.314-26.239h-8.788c-.746 8.586-1.024 17.451-.526 26.239zM228.132 364.188h-15.357c3.768 8.846 7.774 19.249 11.265 30.504a473.994 473.994 0 0 0 4.092-30.504zM155.228 376.667c1.501 9.734 8.53 24.575 18.886 33.239l2.687-7.469c3.069-8.339 7.009-21.085 10.117-38.25h-32.207c-.238 4.161-.114 8.348.517 12.48zM322.143 409.906l4.494-7.469c6.453-8.95 15.318-22.73 21.582-38.25h-27.264c-2.963 11.055-7.189 26.89 1.188 45.719zM297.613 364.188h-23.237c.908 9.123 1.463 18.896 1.33 29.739 5.519-8.683 13.11-19.565 21.907-29.739zM415.566 364.188c2.297 9.075 5.021 20.396 7.449 32.044 3.004-8.932 7.211-20.244 12.527-32.044h-19.976zM0 67.75h487.688V19.938H0z"/><path d="M468.562 326.559c-6.664 8.311-12.574 18.073-17.738 28.066a251.718 251.718 0 0 0-4.695 9.562c-6.656 14.296-11.732 28.219-15.031 38.25a373.615 373.615 0 0 0-2.994 9.562c-.947 3.213-1.502 5.26-1.539 5.394l-5.652 21.716-3.691-22.137a346.816 346.816 0 0 0-.889-4.982 531.329 531.329 0 0 0-1.816-9.562c-2.82-14.037-6.168-27.874-8.826-38.25a1200.59 1200.59 0 0 0-2.199-8.463c-1.32 2.295-2.592 5.184-3.826 8.463-3.557 9.448-18.656 73.517-18.656 73.517s.154-62.864-1.213-73.526c-.441-3.423-1.023-6.521-1.637-9.562-3.223-15.988-8.539-26.976-13.559-34.09 1.664 11.341.229 22.979-2.869 34.09a121.198 121.198 0 0 1-3.127 9.562c-1.443 3.902-3.07 7.679-4.781 11.352-4.838 10.355-10.434 19.584-15.414 26.898a214.292 214.292 0 0 1-6.877 9.562c-3.193 4.17-5.469 6.838-5.908 7.345l-3.309 3.786-3.615-3.5c-2.344-2.266-4.094-4.886-5.604-7.631-1.645-2.992-2.84-6.196-3.662-9.562-3.08-12.632-1.109-27.119 1.635-38.25.057-.248.115-.525.172-.765-.238.249-.479.517-.717.765-12.01 12.537-22.309 27.741-28.812 38.25a276.58 276.58 0 0 0-5.67 9.562c-1.053 1.865-1.635 2.955-1.664 3.022l-10.566 20.023 1.568-22.577c.01-.162.01-.306.02-.469.219-3.289.344-6.426.469-9.562.555-14.209.143-26.956-1.062-38.25a215.413 215.413 0 0 0-1.252-9.562c-2.4-15.52-6.254-28.085-10.691-38.25-1.367-3.127-2.773-6.043-4.227-8.73-.152-.286-.316-.555-.469-.832-2.993-5.412-6.082-9.926-9.093-13.664-1.664-2.065-3.3-3.949-4.858-5.556 1.76 5.967 3.003 12.45 3.845 19.22.392 3.137.688 6.331.918 9.562.87 12.565.545 25.704-.363 38.25a405.283 405.283 0 0 1-.804 9.562 470.06 470.06 0 0 1-5.354 38.25 448.6 448.6 0 0 1-1.855 9.562 291.138 291.138 0 0 1-1.129 5.27l-4.781 20.837-4.552-20.895c-.383-1.75-.832-3.471-1.253-5.212a249.267 249.267 0 0 0-2.543-9.562c-4.169-14.372-9.371-27.683-14.019-38.25a351.767 351.767 0 0 0-4.179-9.199c-.469 3.262-1.014 6.188-1.54 9.199-2.869 16.419-6.455 29.271-9.572 38.25a155.177 155.177 0 0 1-3.653 9.562c-1.625 3.863-2.792 6.168-2.955 6.465l-2.524 4.686-4.389-3.013a75.598 75.598 0 0 1-9.955-8.138 63.244 63.244 0 0 1-8.109-9.562c-5.011-7.276-8.271-15.396-9.648-24.346-.717-4.647-.774-9.285-.555-13.904a81.596 81.596 0 0 1 1.004-9.562c2.381-14.468 8.071-27.903 13.626-38.25.574-1.07 1.157-2.218 1.731-3.223-1.53 1.033-2.831 2.162-4.246 3.232-14.698 11.141-24.824 24.69-31.7 38.25-.478.938-.909 1.865-1.348 2.802a122.394 122.394 0 0 0-3.003 6.761c-5.996 14.727-8.616 28.554-9.715 38.25-.45 3.979-.679 7.239-.765 9.562-.096 2.429-.077 3.931-.077 4.035l.239 7.325-6.799-2.726c-4.514-1.816-8.157-4.762-11.026-8.625-1.405-1.894-2.687-3.93-3.681-6.302-.421-1.004-.603-2.189-.947-3.261-3.452-10.882-2.831-24.748-.45-38.25a183.447 183.447 0 0 1 1.932-9.562c2.171-9.409 4.848-18.14 7.096-24.681-8.3 5.947-15.08 14.717-20.617 24.403a2.31 2.31 0 0 1-.153.277 133.956 133.956 0 0 0-4.905 9.562c-6.417 13.751-10.605 27.999-13.082 38.25a237.424 237.424 0 0 0-2.113 9.562c-.574 2.926-.88 4.791-.899 4.905l-3.462 22.94-5.891-22.443c-.468-1.778-.841-3.595-1.224-5.402-.669-3.155-1.253-6.34-1.683-9.562-1.721-12.737-1.692-25.8-.679-38.25.258-3.232.574-6.436.947-9.562 1.779-14.641 4.695-27.941 7.411-38.25a279.619 279.619 0 0 1 2.677-9.562c.134-.431.268-.928.392-1.339-.727.383-1.348.918-2.046 1.339a61.236 61.236 0 0 0-12.25 9.562c-8.664 8.711-15.3 19.985-20.416 32.293-.822 1.979-1.654 3.939-2.4 5.957a184.197 184.197 0 0 0-3.232 9.562c-1.52 4.982-2.792 9.993-3.93 14.975C0 408.615 0 450.25 0 450.25v19.125h473.047l-4.484-28.688s-2.553-17.786-2.371-28.688c.057-3.117.201-6.302.459-9.562.41-5.221 1.07-10.576 1.902-15.998 1.148-7.421 2.602-14.898 4.275-22.252.736-3.232 1.5-6.416 2.295-9.562a514.81 514.81 0 0 1 2.982-11.265 562.325 562.325 0 0 1 11.207-35.4c-3.92 2.181-7.621 5.135-11.207 8.435-3.298 3.049-6.521 6.396-9.543 10.164z"/></svg>