<?xml version="1.0" encoding="iso-8859-1"?>
<!-- Generator: Adobe Illustrator 16.0.0, SVG Export Plug-In . SVG Version: 6.00 Build 0)  -->
<!DOCTYPE svg PUBLIC "-//W3C//DTD SVG 1.1//EN" "http://www.w3.org/Graphics/SVG/1.1/DTD/svg11.dtd">
<svg version="1.1" id="Capa_1" xmlns="http://www.w3.org/2000/svg" xmlns:xlink="http://www.w3.org/1999/xlink" x="0px" y="0px"
	 width="496.478px" height="496.478px" viewBox="0 0 496.478 496.478" style="enable-background:new 0 0 496.478 496.478;"
	 xml:space="preserve">
<g>
	<g>
		<path d="M86.062,268.32V146.876h315.084v35.381c1.913-0.478,3.825-0.478,5.738-0.478c15.3,0,27.73,12.431,27.73,27.731
			c0,8.606-4.303,16.734-10.519,21.516c4.304,8.129,7.172,17.691,7.172,27.254c0,3.347-0.478,6.693-0.956,10.04h10.997V126.317
			c0-10.997-9.085-20.081-20.081-20.081H65.981c-10.997,0-20.082,9.084-20.082,20.081v142.481h40.163V268.32z"/>
		<path d="M303.609,201.861c13.388,0,25.818,4.781,35.381,12.431c9.562-7.649,21.994-12.431,35.382-12.431
			c1.912,0,3.347,0,5.259,0.478c1.913-6.215,5.738-11.953,10.52-15.3v-29.644H96.103v111.881h151.566
			c-0.479-3.347-0.956-6.693-0.956-10.04C246.713,227.202,272.531,201.861,303.609,201.861z"/>
		<path d="M383.935,268.32h7.172h10.04h19.125c0.957-3.347,0.957-6.693,0.957-10.04c0-8.129-2.391-15.778-6.216-22.473
			c-2.869,0.957-5.26,1.435-8.128,1.435c-1.913,0-3.825-0.478-5.738-0.478c-3.824-0.957-7.172-2.391-10.04-4.304
			c-6.216-4.303-10.519-11.475-11.476-19.603c-1.434,0-2.868-0.479-4.303-0.479c-10.519,0-20.081,3.825-28.209,9.562
			c5.259,6.216,9.084,13.388,11.475,21.037C371.981,243.458,382.979,254.455,383.935,268.32z"/>
		<path d="M318.909,268.32h5.26h4.303c0-1.435,0-2.868,0.479-4.303c1.912-10.041,9.562-17.69,18.646-20.56
			c-1.912-5.737-4.781-10.519-8.606-15.3c-0.956-1.435-2.391-2.869-3.347-3.825c-1.435-1.435-2.868-2.391-3.825-3.347
			c-7.649-6.216-17.69-9.562-28.209-9.562c-25.818,0-46.378,21.037-46.378,46.378c0,3.347,0.478,6.693,0.956,10.041L318.909,268.32
			L318.909,268.32z"/>
		<path d="M482.428,278.838h-40.641h-13.865h-5.26h-0.956h-4.781h-15.3h-10.041H382.5c-3.825,11.476-13.865,19.604-26.297,19.604
			c-2.391,0-4.781-0.479-7.172-0.956c-0.956-0.479-2.391-0.479-3.347-0.956c-1.435-0.479-3.347-1.435-4.781-2.391
			c-1.435-0.957-2.869-1.913-3.825-3.348c-3.347-3.347-6.216-7.172-7.65-11.953h-2.391h-5.259h-59.766h-5.737h-5.26H96.103H86.062
			H65.981H45.9H15.3c-8.606,0-15.3,6.694-15.3,15.301c0,7.172,5.259,13.387,11.953,14.821c0.956,0,1.913,0.479,2.869,0.479h12.91
			l2.869,10.04l14.344,50.682c3.347,11.475,10.519,20.081,21.994,20.081H420.75c10.997,0,16.734-8.606,20.081-20.081l14.344-50.682
			l2.869-10.04h23.428c0.956,0,1.913,0,2.869-0.479c7.172-1.435,11.953-7.649,11.953-14.821
			C497.729,285.533,490.557,278.838,482.428,278.838z"/>
		<path d="M343.294,282.664c0.956,1.435,2.391,2.391,4.303,3.347c1.435,0.957,3.347,1.435,4.781,1.913
			c1.435,0.478,2.391,0.478,3.825,0.478c6.693,0,12.432-3.824,15.3-9.084c1.435-2.391,2.391-5.26,2.391-8.606
			c0-0.478,0-0.956,0-1.912c-0.956-7.65-6.216-13.866-13.865-15.778c-1.435-0.479-2.391-0.479-3.825-0.479c-0.479,0-0.956,0-1.435,0
			c-1.912,0-3.347,0.479-4.781,0.957c-6.216,2.391-10.519,8.128-10.997,14.821c0,0.479,0,0.956,0,1.913
			c0,2.868,0.957,5.737,2.391,8.605C341.381,280.273,342.338,281.229,343.294,282.664z"/>
		<path d="M406.885,191.342c-1.913,0-4.304,0.478-5.738,0.956c-4.303,1.435-8.128,4.781-10.04,9.084
			c-0.479,0.479-0.479,1.435-0.956,1.913c-0.479,1.434-0.957,3.347-0.957,5.259c0,0,0,0,0,0.479c0,1.912,0.479,3.825,0.957,5.259
			c0,0.957,0.478,1.435,0.956,1.913c1.912,4.303,5.737,7.649,10.04,9.084c1.913,0.479,3.825,0.956,5.738,0.956
			c0.478,0,1.434,0,1.912,0c1.912,0,3.825-0.478,5.26-1.434c1.434-0.957,3.347-1.913,4.303-2.869
			c3.825-3.347,6.216-8.128,6.216-13.388C424.575,199.47,416.925,191.342,406.885,191.342z"/>
	</g>
</g>
<g>
</g>
<g>
</g>
<g>
</g>
<g>
</g>
<g>
</g>
<g>
</g>
<g>
</g>
<g>
</g>
<g>
</g>
<g>
</g>
<g>
</g>
<g>
</g>
<g>
</g>
<g>
</g>
<g>
</g>
</svg>
