<svg xmlns="http://www.w3.org/2000/svg" width="496.478" height="496.478" style="enable-background:new 0 0 496.478 496.478" xml:space="preserve"><path d="M86.062 268.32V146.876h315.084v35.381c1.913-.478 3.825-.478 5.738-.478 15.3 0 27.73 12.431 27.73 27.731 0 8.606-4.303 16.734-10.519 21.516 4.304 8.129 7.172 17.691 7.172 27.254 0 3.347-.478 6.693-.956 10.04h10.997V126.317c0-10.997-9.085-20.081-20.081-20.081H65.981c-10.997 0-20.082 9.084-20.082 20.081v142.481h40.163v-.478z"/><path d="M303.609 201.861c13.388 0 25.818 4.781 35.381 12.431 9.562-7.649 21.994-12.431 35.382-12.431 1.912 0 3.347 0 5.259.478 1.913-6.215 5.738-11.953 10.52-15.3v-29.644H96.103v111.881h151.566c-.479-3.347-.956-6.693-.956-10.04 0-32.034 25.818-57.375 56.896-57.375zM383.935 268.32h36.337c.957-3.347.957-6.693.957-10.04 0-8.129-2.391-15.778-6.216-22.473-2.869.957-5.26 1.435-8.128 1.435-1.913 0-3.825-.478-5.738-.478-3.824-.957-7.172-2.391-10.04-4.304-6.216-4.303-10.519-11.475-11.476-19.603-1.434 0-2.868-.479-4.303-.479-10.519 0-20.081 3.825-28.209 9.562 5.259 6.216 9.084 13.388 11.475 21.037 13.387.481 24.385 11.478 25.341 25.343z"/><path d="M318.909 268.32H328.472c0-1.435 0-2.868.479-4.303 1.912-10.041 9.562-17.69 18.646-20.56-1.912-5.737-4.781-10.519-8.606-15.3-.956-1.435-2.391-2.869-3.347-3.825-1.435-1.435-2.868-2.391-3.825-3.347-7.649-6.216-17.69-9.562-28.209-9.562-25.818 0-46.378 21.037-46.378 46.378 0 3.347.478 6.693.956 10.041l60.721.478zM482.428 278.838H382.5c-3.825 11.476-13.865 19.604-26.297 19.604-2.391 0-4.781-.479-7.172-.956-.956-.479-2.391-.479-3.347-.956-1.435-.479-3.347-1.435-4.781-2.391-1.435-.957-2.869-1.913-3.825-3.348-3.347-3.347-6.216-7.172-7.65-11.953H15.3c-8.606 0-15.3 6.694-15.3 15.301 0 7.172 5.259 13.387 11.953 14.821.956 0 1.913.479 2.869.479h12.91l2.869 10.04 14.344 50.682c3.347 11.475 10.519 20.081 21.994 20.081H420.75c10.997 0 16.734-8.606 20.081-20.081l14.344-50.682 2.869-10.04h23.428c.956 0 1.913 0 2.869-.479 7.172-1.435 11.953-7.649 11.953-14.821 1.435-8.606-5.737-15.301-13.866-15.301z"/><path d="M343.294 282.664c.956 1.435 2.391 2.391 4.303 3.347 1.435.957 3.347 1.435 4.781 1.913 1.435.478 2.391.478 3.825.478 6.693 0 12.432-3.824 15.3-9.084a16.508 16.508 0 0 0 2.391-8.606V268.8c-.956-7.65-6.216-13.866-13.865-15.778-1.435-.479-2.391-.479-3.825-.479h-1.435c-1.912 0-3.347.479-4.781.957-6.216 2.391-10.519 8.128-10.997 14.821v1.913c0 2.868.957 5.737 2.391 8.605-.001 1.434.956 2.39 1.912 3.825zM406.885 191.342c-1.913 0-4.304.478-5.738.956-4.303 1.435-8.128 4.781-10.04 9.084-.479.479-.479 1.435-.956 1.913-.479 1.434-.957 3.347-.957 5.259v.479c0 1.912.479 3.825.957 5.259 0 .957.478 1.435.956 1.913 1.912 4.303 5.737 7.649 10.04 9.084 1.913.479 3.825.956 5.738.956h1.912c1.912 0 3.825-.478 5.26-1.434 1.434-.957 3.347-1.913 4.303-2.869 3.825-3.347 6.216-8.128 6.216-13.388-.001-9.084-7.651-17.212-17.691-17.212z"/></svg>