<svg xmlns="http://www.w3.org/2000/svg" width="487.688" height="487.688" style="enable-background:new 0 0 487.688 487.688" xml:space="preserve"><path d="M430.312 200.272v9.62l47.813 5.212v10.777l-47.813-4.332v9.601l47.813 4.332v13.731l-47.813-3.873v9.592l47.813 3.882v14.182l9.563.774v-67.234zM296.438 124.585 229.5 109.237v32.991l66.938 11.523zM401.625 213.583v-68.209l-64.93-13.541.182 73.288zM296.438 163.447 229.5 151.934v80.784l66.938 5.479zM336.973 243.734l64.652 6.063v-26.575l-64.719-8.462z"/><path d="M420.75 254.156V116.867l-219.938-58.8v192.561l219.938 17.738v-14.21zM306 248.572l-86.062-7.047V97.246L306 116.964v131.608zm105.188 11.725-83.758-7.852-.335-132.374 84.093 17.538v122.688zM0 292.121l191.25-44.457V59.943L0 165.532zM363.375 412.254l19.125-2.047V307.678l-19.125-.621zM392.062 307.984v101.2l28.66-3.059-.355-97.213zM459 401.916l9.562-1.07v-90.375l-9.562-.307zM328.683 415.965l25.129-2.688V306.742l-25.694-.832zM286.951 304.57l2.869 115.545 29.3-3.136-.564-111.375zM239.062 303.021v122.516l41.215-4.41-2.907-116.863zM430.284 405.102l7.392-.786 11.762-1.318V309.85l-19.508-.631z"/><path d="m209.065 260.898-8.253-.669v169.39l28.688-3.06V293.135l248.625 8.09v98.769l9.563-1.023v-115.61l-60.474-4.877zM0 301.932v101.925l191.25 25.62V257.475l-97.404 22.644z"/></svg>