<svg xmlns="http://www.w3.org/2000/svg" width="516.375" height="516.375" style="enable-background:new 0 0 516.375 516.375" xml:space="preserve"><path d="M449.438 93.234H162.562v-38.25c0-2.639-2.142-4.781-4.781-4.781S153 52.345 153 54.984v38.25H66.938v-38.25c0-2.639-2.142-4.781-4.781-4.781s-4.781 2.142-4.781 4.781v40.899c-5.689 3.309-9.562 9.409-9.562 16.476v19.125h9.562v9.562h-9.562v19.125c0 7.057 3.873 13.158 9.562 16.476v186.995c-5.689 3.309-9.562 9.41-9.562 16.477v19.125h9.562v9.562h-9.562v19.125c0 7.057 3.873 13.158 9.562 16.476v50.452a4.782 4.782 0 0 0 9.562 0v-28.688H153v28.688a4.782 4.782 0 0 0 9.562 0v-47.812h286.875c10.566 0 19.125-8.559 19.125-19.125v-19.125h-306v-9.562h306V380.11c0-10.566-8.559-19.125-19.125-19.125H162.562V179.297h286.875c10.566 0 19.125-8.559 19.125-19.125v-19.125h-306v-9.562h306V112.36c0-10.567-8.558-19.126-19.124-19.126zM153 456.609H66.938v-9.562H153v9.562zm0-47.812H66.938v-9.562H153v9.562zm0-47.813H66.938v-9.562H153v9.562zm0-19.125H66.938v-28.688H153v28.688zm0-38.25H66.938v-28.688H153v28.688zm0-38.25H66.938v-28.688H153v28.688zm0-38.25H66.938v-28.688H153v28.688zm0-38.25H66.938v-9.562H153v9.562zm0-47.812H66.938v-9.562H153v9.562zM21.516 16.734h-4.781C7.497 16.734 0 24.231 0 33.469v444.656c0 9.237 7.497 16.734 16.734 16.734h4.781c9.237 0 16.734-7.497 16.734-16.734V33.469c.001-9.238-7.496-16.735-16.733-16.735zM499.641 16.734h-4.781c-9.237 0-16.734 7.497-16.734 16.734V478.124c0 9.237 7.497 16.734 16.734 16.734h4.781c9.237 0 16.734-7.497 16.734-16.734V33.469c0-9.238-7.497-16.735-16.734-16.735z"/><path d="M459 70.581c0-14.459-11.724-25.159-26.182-25.159h-39.273c-14.459 0-30.17 10.7-30.17 25.159v13.091H459V70.581zM393.545 313.172c-14.459 0-30.17 10.7-30.17 25.159v13.091H459v-13.091c0-14.459-11.724-25.159-26.182-25.159h-39.273z"/></svg>