<svg xmlns="http://www.w3.org/2000/svg" width="551.92" height="551.92" style="enable-background:new 0 0 551.92 551.92" xml:space="preserve"><path d="M371.585 226.795h-14.344V92.92h-36.653l-17.527-28.688h-23.085C272.824 14.067 238.322.699 236.754.202c-2.553-.813-5.202.918-5.996 3.433-.784 2.515.612 5.795 3.137 6.579.325.115 29.586 10.892 36.385 54.019h-25.398L229.343 92.92h-34.664v133.875h-14.344c-7.918 0-14.344 6.426-14.344 14.344s6.426 14.344 14.344 14.344h64.729c-15.969 6.847-26.479 18.437-26.479 31.585 0 16.256 16.084 30.092 38.68 35.572-22.605 5.479-38.68 19.316-38.68 35.572s16.084 30.094 38.68 35.572c-22.605 5.48-38.68 19.316-38.68 35.572 0 14.879 13.493 27.742 33.115 34.014-2.056 24.719-14.516 41.043-24.508 50.299h-22.95c-10.566 0-19.125 8.559-19.125 19.125s8.559 19.125 19.125 19.125H347.68c10.566 0 19.125-8.559 19.125-19.125s-8.559-19.125-19.125-19.125h-21.544c-10.175-9.275-23.151-25.398-25.771-48.807 22.501-5.508 38.479-19.316 38.479-35.525 0-16.246-16.084-30.092-38.68-35.572 22.605-5.479 38.68-19.316 38.68-35.572 0-16.246-16.084-30.094-38.68-35.572 22.605-5.479 38.68-19.316 38.68-35.572 0-13.149-10.499-24.738-26.479-31.585h59.221c7.918 0 14.344-6.426 14.344-14.344-.001-7.918-6.427-14.325-14.345-14.325z"/></svg>