<?xml version="1.0" encoding="iso-8859-1"?>
<!-- Generator: Adobe Illustrator 16.0.0, SVG Export Plug-In . SVG Version: 6.00 Build 0)  -->
<!DOCTYPE svg PUBLIC "-//W3C//DTD SVG 1.1//EN" "http://www.w3.org/Graphics/SVG/1.1/DTD/svg11.dtd">
<svg version="1.1" id="Capa_1" xmlns="http://www.w3.org/2000/svg" xmlns:xlink="http://www.w3.org/1999/xlink" x="0px" y="0px"
	 width="551.92px" height="551.92px" viewBox="0 0 551.92 551.92" style="enable-background:new 0 0 551.92 551.92;"
	 xml:space="preserve">
<g>
	<g>
		<path d="M371.585,226.795h-14.344V92.92h-36.653l-17.527-28.688h-23.085c-7.152-50.165-41.654-63.533-43.222-64.03
			c-2.553-0.813-5.202,0.918-5.996,3.433c-0.784,2.515,0.612,5.795,3.137,6.579c0.325,0.115,29.586,10.892,36.385,54.019h-25.398
			L229.343,92.92h-34.664v133.875h-14.344c-7.918,0-14.344,6.426-14.344,14.344s6.426,14.344,14.344,14.344h64.729
			c-15.969,6.847-26.479,18.437-26.479,31.585c0,16.256,16.084,30.092,38.68,35.572c-22.605,5.479-38.68,19.316-38.68,35.572
			s16.084,30.094,38.68,35.572c-22.605,5.48-38.68,19.316-38.68,35.572c0,14.879,13.493,27.742,33.115,34.014
			c-2.056,24.719-14.516,41.043-24.508,50.299h-22.95c-10.566,0-19.125,8.559-19.125,19.125s8.559,19.125,19.125,19.125h143.438
			c10.566,0,19.125-8.559,19.125-19.125s-8.559-19.125-19.125-19.125h-21.544c-10.175-9.275-23.151-25.398-25.771-48.807
			c22.501-5.508,38.479-19.316,38.479-35.525c0-16.246-16.084-30.092-38.68-35.572c22.605-5.479,38.68-19.316,38.68-35.572
			c0-16.246-16.084-30.094-38.68-35.572c22.605-5.479,38.68-19.316,38.68-35.572c0-13.149-10.499-24.738-26.479-31.585h59.221
			c7.918,0,14.344-6.426,14.344-14.344C385.929,233.202,379.503,226.795,371.585,226.795z"/>
	</g>
</g>
<g>
</g>
<g>
</g>
<g>
</g>
<g>
</g>
<g>
</g>
<g>
</g>
<g>
</g>
<g>
</g>
<g>
</g>
<g>
</g>
<g>
</g>
<g>
</g>
<g>
</g>
<g>
</g>
<g>
</g>
</svg>
