<?xml version="1.0" encoding="iso-8859-1"?>
<!-- Generator: Adobe Illustrator 16.0.0, SVG Export Plug-In . SVG Version: 6.00 Build 0)  -->
<!DOCTYPE svg PUBLIC "-//W3C//DTD SVG 1.1//EN" "http://www.w3.org/Graphics/SVG/1.1/DTD/svg11.dtd">
<svg version="1.1" id="Capa_1" xmlns="http://www.w3.org/2000/svg" xmlns:xlink="http://www.w3.org/1999/xlink" x="0px" y="0px"
	 width="551.316px" height="551.316px" viewBox="0 0 551.316 551.316" style="enable-background:new 0 0 551.316 551.316;"
	 xml:space="preserve">
<g>
	<g>
		<path d="M371.283,47.688v19.125h28.688v210.375c0,40.363-33.172,46.98-38.891,47.812h-94.984v-9.562v-9.562h90.844
			c7.908,0,14.344-6.436,14.344-14.344v-4.781c0-10.566-8.559-19.125-19.125-19.125H146.564c-7.908,0-14.344,6.436-14.344,14.343
			v9.562c0,7.908,6.436,14.344,14.344,14.344h90.844v9.562v28.688h-9.562V401.5h-9.562v57.375v9.562h-62.156
			c-7.908,0-14.344,6.436-14.344,14.344s6.436,14.344,14.344,14.344h191.25c7.096,0,12.957-5.182,14.104-11.953
			c-1.195-9.418-9.142-16.734-18.886-16.734h-57.375v-9.562V401.5h-9.562v-57.375h86.617l0.555-0.066
			c19.46-2.266,56.266-19.174,56.266-66.871v-229.5H371.283z"/>
		<path d="M173.272,505.34c-1.062-0.439-2.18-0.746-3.309-1.023c-1.884-0.479-3.834-0.812-5.872-0.812
			c-4.284,0-8.243,1.215-11.714,3.184c-7.239,4.113-12.192,11.801-12.192,20.723c0,13.205,10.701,23.906,23.906,23.906
			c13.206,0,23.906-10.701,23.906-23.906C187.999,517.455,181.917,508.936,173.272,505.34z"/>
		<path d="M345.397,505.34c-1.062-0.439-2.181-0.746-3.309-1.023c-1.884-0.479-3.835-0.812-5.871-0.812
			c-4.284,0-8.243,1.215-11.714,3.184c-7.239,4.113-12.192,11.801-12.192,20.723c0,13.205,10.7,23.906,23.906,23.906
			s23.906-10.701,23.906-23.906C360.124,517.455,354.042,508.936,345.397,505.34z"/>
		<path d="M361.721,161.864V0c-14.238,0.793-28.688,5.948-28.688,29.758v102.797C333.033,152.856,351.938,159.98,361.721,161.864z"
			/>
	</g>
</g>
<g>
</g>
<g>
</g>
<g>
</g>
<g>
</g>
<g>
</g>
<g>
</g>
<g>
</g>
<g>
</g>
<g>
</g>
<g>
</g>
<g>
</g>
<g>
</g>
<g>
</g>
<g>
</g>
<g>
</g>
</svg>
