<svg xmlns="http://www.w3.org/2000/svg" width="551.316" height="551.316" style="enable-background:new 0 0 551.316 551.316" xml:space="preserve"><path d="M371.283 47.688v19.125h28.688v210.375c0 40.363-33.172 46.98-38.891 47.812h-94.984v-19.124h90.844c7.908 0 14.344-6.436 14.344-14.344v-4.781c0-10.566-8.559-19.125-19.125-19.125H146.564c-7.908 0-14.344 6.436-14.344 14.343v9.562c0 7.908 6.436 14.344 14.344 14.344h90.844v38.25h-9.562V401.5h-9.562v66.937h-62.156c-7.908 0-14.344 6.436-14.344 14.344s6.436 14.344 14.344 14.344h191.25c7.096 0 12.957-5.182 14.104-11.953-1.195-9.418-9.142-16.734-18.886-16.734h-57.375V401.5h-9.562v-57.375h86.617l.555-.066c19.46-2.266 56.266-19.174 56.266-66.871v-229.5h-47.814zM173.272 505.34c-1.062-.439-2.18-.746-3.309-1.023-1.884-.479-3.834-.812-5.872-.812-4.284 0-8.243 1.215-11.714 3.184-7.239 4.113-12.192 11.801-12.192 20.723 0 13.205 10.701 23.906 23.906 23.906 13.206 0 23.906-10.701 23.906-23.906.002-9.957-6.08-18.476-14.725-22.072zM345.397 505.34c-1.062-.439-2.181-.746-3.309-1.023-1.884-.479-3.835-.812-5.871-.812-4.284 0-8.243 1.215-11.714 3.184-7.239 4.113-12.192 11.801-12.192 20.723 0 13.205 10.7 23.906 23.906 23.906s23.906-10.701 23.906-23.906c.001-9.957-6.081-18.476-14.726-22.072z"/><path d="M361.721 161.864V0c-14.238.793-28.688 5.948-28.688 29.758v102.797c0 20.301 18.905 27.425 28.688 29.309z"/></svg>