<svg xmlns="http://www.w3.org/2000/svg" width="517.408" height="517.408" style="enable-background:new 0 0 517.408 517.408" xml:space="preserve"><path d="M26.775 185.331c9.008-10.663 26.383-12.145 37.055-3.118 11.073 9.362 12.47 25.981 3.117 37.055l37.026 31.289h96.982l7.975-23.992-109.566-92.576-36.366 19.346-32.14-27.158L0 162.696l26.775 22.635zm161.377 36.193-18.513 21.918-36.519-30.858 18.513-21.918 36.519 30.858zm-87.65-74.051 36.519 30.858-18.513 21.917-10.385-8.778-26.134-22.08 18.513-21.917z"/><path d="M34.081 191.508a16.657 16.657 0 0 0-3.892 12.202 16.618 16.618 0 0 0 5.871 11.379c6.799 5.757 17.854 4.791 23.581-1.979 5.958-7.047 5.068-17.623-1.989-23.581a16.756 16.756 0 0 0-10.787-3.949 16.657 16.657 0 0 0-12.784 5.928zM335.223 250.557c11.371-10.213 20.053-23.571 24.719-39.102l-41.367-9.974c-3.174 17.002-1.443 33.89 4.389 49.075h12.259zM446.311 222.452l50.672 12.222c4.131-22.119-.125-44.017-10.738-62.243-.832.469-1.684.87-2.506 1.367-18.247 11.15-31.337 28.334-37.428 48.654zM403.223 250.557h29.93c-.248-6.933.297-13.98 1.635-21.047l-25.025-6.034-6.54 27.081zM437.016 220.215c6.693-22.807 21.314-42.095 41.73-54.583.736-.449 1.521-.804 2.268-1.233-11.658-15.922-28.535-28.066-48.875-33.728L412 214.181l25.016 6.034zM400.459 221.229l-31.193-7.526c-4.141 14.067-11.256 26.546-20.551 36.854h44.668l7.076-29.328zM361.031 140.215c10.576 18.962 14.736 41.482 10.443 64.193l31.221 7.535 20.102-83.356c-22.004-3.72-43.748.812-61.766 11.628zM362.189 202.17c3.672-20.005.047-39.827-9.113-56.609-15.031 11.321-26.545 27.405-32.254 46.636l41.367 9.973zM442.658 250.557h49.877a87.87 87.87 0 0 0 2.199-6.589l-50.672-12.221c-1.146 6.264-1.644 12.565-1.404 18.81z"/><path d="M443.508 260.119H273.707l.812-9.562 10.453-122.888 11.322 1.348c5.182.612 9.887-3.088 10.498-8.271l.029-.22c.611-5.183-3.088-9.888-8.271-10.499l-47.698-5.671c-5.183-.612-9.888 3.089-10.5 8.271l-.029.22c-.612 5.183 3.089 9.888 8.271 10.5l12.307 1.463-28.038 125.747-1.329 5.986c-.191 1.205-.22 2.4-.143 3.576H10.595v114.75c0 23.906 14.344 38.25 36.653 38.25h443.863c20.568 0 26.297-19.125 26.297-45.422V260.119h-73.9z"/></svg>