<?xml version="1.0" encoding="iso-8859-1"?>
<!-- Generator: Adobe Illustrator 16.0.0, SVG Export Plug-In . SVG Version: 6.00 Build 0)  -->
<!DOCTYPE svg PUBLIC "-//W3C//DTD SVG 1.1//EN" "http://www.w3.org/Graphics/SVG/1.1/DTD/svg11.dtd">
<svg version="1.1" id="Capa_1" xmlns="http://www.w3.org/2000/svg" xmlns:xlink="http://www.w3.org/1999/xlink" x="0px" y="0px"
	 width="517.408px" height="517.408px" viewBox="0 0 517.408 517.408" style="enable-background:new 0 0 517.408 517.408;"
	 xml:space="preserve">
<g>
	<path d="M26.775,185.331c9.008-10.663,26.383-12.145,37.055-3.118c11.073,9.362,12.47,25.981,3.117,37.055l37.026,31.289h59.268
		h14.812h22.902l7.975-23.992L99.364,133.989l-36.366,19.346l-32.14-27.158L0,162.696L26.775,185.331L26.775,185.331z
		 M188.152,221.524l-18.513,21.918l-36.519-30.858l18.513-21.918L188.152,221.524z M100.502,147.473l36.519,30.858l-18.513,21.917
		l-10.385-8.778l-26.134-22.08L100.502,147.473z"/>
	<path d="M34.081,191.508L34.081,191.508c-2.878,3.414-4.265,7.746-3.892,12.202c0.373,4.456,2.458,8.491,5.871,11.379
		c6.799,5.757,17.854,4.791,23.581-1.979l0,0c5.958-7.047,5.068-17.623-1.989-23.581c-3.012-2.543-6.847-3.949-10.787-3.949
		C41.932,185.569,37.274,187.73,34.081,191.508z"/>
	<path d="M335.223,250.557c11.371-10.213,20.053-23.571,24.719-39.102l-41.367-9.974c-3.174,17.002-1.443,33.89,4.389,49.075
		H335.223z"/>
	<path d="M446.311,222.452l50.672,12.222c4.131-22.119-0.125-44.017-10.738-62.243c-0.832,0.469-1.684,0.87-2.506,1.367
		C465.492,184.948,452.402,202.132,446.311,222.452z"/>
	<path d="M403.223,250.557h29.93c-0.248-6.933,0.297-13.98,1.635-21.047l-25.025-6.034L403.223,250.557z"/>
	<path d="M437.016,220.215c6.693-22.807,21.314-42.095,41.73-54.583c0.736-0.449,1.521-0.804,2.268-1.233
		c-11.658-15.922-28.535-28.066-48.875-33.728L412,214.181L437.016,220.215z"/>
	<path d="M400.459,221.229l-31.193-7.526c-4.141,14.067-11.256,26.546-20.551,36.854h44.668L400.459,221.229z"/>
	<path d="M361.031,140.215c10.576,18.962,14.736,41.482,10.443,64.193l31.221,7.535l20.102-83.356
		C400.793,124.867,379.049,129.399,361.031,140.215z"/>
	<path d="M362.189,202.17c3.672-20.005,0.047-39.827-9.113-56.609c-15.031,11.321-26.545,27.405-32.254,46.636L362.189,202.17z"/>
	<path d="M442.658,250.557h49.877c0.822-2.151,1.541-4.351,2.199-6.589l-50.672-12.221
		C442.916,238.011,442.418,244.312,442.658,250.557z"/>
	<path d="M443.508,260.119h-9.543h-33.047h-9.83h-52.375h-11.359h-4.936h-48.711l0.812-9.562l10.453-122.888l11.322,1.348
		c5.182,0.612,9.887-3.088,10.498-8.271l0.029-0.22c0.611-5.183-3.088-9.888-8.271-10.499l-47.698-5.671
		c-5.183-0.612-9.888,3.089-10.5,8.271l-0.029,0.22c-0.612,5.183,3.089,9.888,8.271,10.5l12.307,1.463l-28.038,125.747l-1.329,5.986
		c-0.191,1.205-0.22,2.4-0.143,3.576h-33.612h-8.396h-14.812h-59.268H10.595v114.75c0,23.906,14.344,38.25,36.653,38.25l0,0h443.863
		c20.568,0,26.297-19.125,26.297-45.422V260.119h-29.205H443.508z"/>
</g>
<g>
</g>
<g>
</g>
<g>
</g>
<g>
</g>
<g>
</g>
<g>
</g>
<g>
</g>
<g>
</g>
<g>
</g>
<g>
</g>
<g>
</g>
<g>
</g>
<g>
</g>
<g>
</g>
<g>
</g>
</svg>
