<svg xmlns="http://www.w3.org/2000/svg" width="554.625" height="554.625" style="enable-background:new 0 0 554.625 554.625" xml:space="preserve"><path d="M277.312 0C124.312 0 0 124.312 0 277.312s124.312 277.312 277.312 277.312 277.312-124.312 277.312-277.312S430.312 0 277.312 0zm0 529.284c-139.134 0-251.972-113.315-251.972-251.972S138.178 25.341 277.312 25.341c139.135 0 251.972 113.315 251.972 251.972S416.447 529.284 277.312 529.284z"/><path d="M277.312 35.381c-133.397 0-241.931 108.534-241.931 241.931 0 133.396 108.534 241.932 241.931 241.932 133.396 0 241.932-108.535 241.932-241.932 0-133.396-108.535-241.931-241.932-241.931zm153 85.585c7.172 0 12.909 5.737 12.909 12.909s-5.737 12.909-12.909 12.909-12.909-5.737-12.909-12.909 5.738-12.909 12.909-12.909zm-153-66.938c7.172 0 12.909 5.737 12.909 12.909s-5.737 12.909-12.909 12.909-12.909-5.737-12.909-12.909 5.738-12.909 12.909-12.909zm-162.562 76.5c7.172 0 12.909 5.737 12.909 12.909s-5.737 12.909-12.909 12.909-12.909-5.737-12.909-12.909 5.737-12.909 12.909-12.909zM66.938 290.222c-7.172 0-12.909-5.737-12.909-12.909s5.737-12.909 12.909-12.909 12.909 5.737 12.909 12.909-5.738 12.909-12.909 12.909zm57.374 153c-7.172 0-12.909-5.737-12.909-12.909s5.737-12.909 12.909-12.909 12.909 5.737 12.909 12.909-5.737 12.909-12.909 12.909zm153 57.375c-7.172 0-12.909-5.737-12.909-12.909s5.737-12.909 12.909-12.909 12.909 5.737 12.909 12.909-5.737 12.909-12.909 12.909zm143.438-57.375c-7.172 0-12.909-5.737-12.909-12.909s5.737-12.909 12.909-12.909 12.909 5.737 12.909 12.909-5.737 12.909-12.909 12.909zm66.938-178.819c7.172 0 12.909 5.737 12.909 12.909s-5.737 12.909-12.909 12.909-12.909-5.737-12.909-12.909 5.737-12.909 12.909-12.909zM277.312 459c-100.406 0-181.688-81.281-181.688-181.688S176.906 95.625 277.312 95.625 459 176.906 459 277.312 377.719 459 277.312 459z"/></svg>