<?xml version="1.0" encoding="iso-8859-1"?>
<!-- Generator: Adobe Illustrator 16.0.0, SVG Export Plug-In . SVG Version: 6.00 Build 0)  -->
<!DOCTYPE svg PUBLIC "-//W3C//DTD SVG 1.1//EN" "http://www.w3.org/Graphics/SVG/1.1/DTD/svg11.dtd">
<svg version="1.1" id="Capa_1" xmlns="http://www.w3.org/2000/svg" xmlns:xlink="http://www.w3.org/1999/xlink" x="0px" y="0px"
	 width="554.625px" height="554.625px" viewBox="0 0 554.625 554.625" style="enable-background:new 0 0 554.625 554.625;"
	 xml:space="preserve">
<g>
	<g>
		<path d="M277.312,0C124.312,0,0,124.312,0,277.312s124.312,277.312,277.312,277.312s277.312-124.312,277.312-277.312
			S430.312,0,277.312,0z M277.312,497.25c-121.444,0-219.938-98.494-219.938-219.938c0-121.444,98.494-219.938,219.938-219.938
			c121.443,0,219.938,98.494,219.938,219.938C497.25,398.756,398.756,497.25,277.312,497.25z"/>
		<rect x="258.188" y="77.456" width="28.688" height="57.375"/>
		<rect x="411.188" y="259.144" width="57.375" height="28.688"/>
		<rect x="76.5" y="259.144" width="57.375" height="28.688"/>
		<rect x="258.188" y="412.144" width="28.688" height="57.375"/>
		<circle cx="375.328" cy="138.656" r="15.3"/>
		<circle cx="423.141" cy="196.031" r="15.3"/>
		<circle cx="126.703" cy="368.156" r="15.3"/>
		<circle cx="174.516" cy="425.531" r="15.3"/>
		<circle cx="418.359" cy="372.938" r="15.3"/>
		<circle cx="360.984" cy="420.75" r="15.3"/>
		<circle cx="131.484" cy="181.687" r="15.3"/>
		<circle cx="188.859" cy="133.875" r="15.3"/>
		<path d="M360.028,287.831c0-8.128-6.216-14.344-14.344-14.344h-58.81v-107.1c0-8.128-6.216-14.344-14.344-14.344
			s-14.344,6.216-14.344,14.344v121.444c0,8.128,6.216,14.344,14.344,14.344h73.153
			C353.812,302.175,360.028,295.959,360.028,287.831z"/>
	</g>
</g>
<g>
</g>
<g>
</g>
<g>
</g>
<g>
</g>
<g>
</g>
<g>
</g>
<g>
</g>
<g>
</g>
<g>
</g>
<g>
</g>
<g>
</g>
<g>
</g>
<g>
</g>
<g>
</g>
<g>
</g>
</svg>
