<?xml version="1.0" encoding="iso-8859-1"?>
<!-- Generator: Adobe Illustrator 16.0.0, SVG Export Plug-In . SVG Version: 6.00 Build 0)  -->
<!DOCTYPE svg PUBLIC "-//W3C//DTD SVG 1.1//EN" "http://www.w3.org/Graphics/SVG/1.1/DTD/svg11.dtd">
<svg version="1.1" id="Capa_1" xmlns="http://www.w3.org/2000/svg" xmlns:xlink="http://www.w3.org/1999/xlink" x="0px" y="0px"
	 width="554.625px" height="554.625px" viewBox="0 0 554.625 554.625" style="enable-background:new 0 0 554.625 554.625;"
	 xml:space="preserve">
<g>
	<g>
		<path d="M277.312,0C124.312,0,0,124.312,0,277.312s124.312,277.312,277.312,277.312s277.312-124.312,277.312-277.312
			S430.312,0,277.312,0z M277.312,529.284c-139.134,0-251.972-113.315-251.972-251.972S138.178,25.341,277.312,25.341
			c139.135,0,251.972,113.315,251.972,251.972S416.447,529.284,277.312,529.284z"/>
		<path d="M277.312,35.381c-133.397,0-241.931,108.534-241.931,241.931c0,133.396,108.534,241.932,241.931,241.932
			c133.396,0,241.932-108.535,241.932-241.932C519.244,143.916,410.709,35.381,277.312,35.381z M430.312,120.966
			c7.172,0,12.909,5.737,12.909,12.909s-5.737,12.909-12.909,12.909s-12.909-5.737-12.909-12.909S423.141,120.966,430.312,120.966z
			 M277.312,54.028c7.172,0,12.909,5.737,12.909,12.909s-5.737,12.909-12.909,12.909s-12.909-5.737-12.909-12.909
			S270.141,54.028,277.312,54.028z M114.75,130.528c7.172,0,12.909,5.737,12.909,12.909s-5.737,12.909-12.909,12.909
			s-12.909-5.737-12.909-12.909S107.578,130.528,114.75,130.528z M66.938,290.222c-7.172,0-12.909-5.737-12.909-12.909
			s5.737-12.909,12.909-12.909s12.909,5.737,12.909,12.909S74.109,290.222,66.938,290.222z M124.312,443.222
			c-7.172,0-12.909-5.737-12.909-12.909s5.737-12.909,12.909-12.909s12.909,5.737,12.909,12.909S131.484,443.222,124.312,443.222z
			 M277.312,500.597c-7.172,0-12.909-5.737-12.909-12.909s5.737-12.909,12.909-12.909s12.909,5.737,12.909,12.909
			S284.484,500.597,277.312,500.597z M420.75,443.222c-7.172,0-12.909-5.737-12.909-12.909s5.737-12.909,12.909-12.909
			s12.909,5.737,12.909,12.909S427.922,443.222,420.75,443.222z M487.688,264.403c7.172,0,12.909,5.737,12.909,12.909
			s-5.737,12.909-12.909,12.909s-12.909-5.737-12.909-12.909S480.516,264.403,487.688,264.403z M277.312,459
			c-100.406,0-181.688-81.281-181.688-181.688S176.906,95.625,277.312,95.625S459,176.906,459,277.312S377.719,459,277.312,459z"/>
	</g>
</g>
<g>
</g>
<g>
</g>
<g>
</g>
<g>
</g>
<g>
</g>
<g>
</g>
<g>
</g>
<g>
</g>
<g>
</g>
<g>
</g>
<g>
</g>
<g>
</g>
<g>
</g>
<g>
</g>
<g>
</g>
</svg>
