<svg xmlns="http://www.w3.org/2000/svg" width="554.625" height="554.625" style="enable-background:new 0 0 554.625 554.625" xml:space="preserve"><path d="M277.312 0C124.312 0 0 124.312 0 277.312s124.312 277.312 277.312 277.312 277.312-124.312 277.312-277.312S430.312 0 277.312 0zm0 497.25c-121.444 0-219.938-98.494-219.938-219.938 0-121.444 98.494-219.938 219.938-219.938 121.443 0 219.938 98.494 219.938 219.938 0 121.444-98.494 219.938-219.938 219.938z"/><path d="M258.188 77.456h28.688v57.375h-28.688zM411.188 259.144h57.375v28.688h-57.375zM76.5 259.144h57.375v28.688H76.5zM258.188 412.144h28.688v57.375h-28.688z"/><circle cx="375.328" cy="138.656" r="15.3"/><circle cx="423.141" cy="196.031" r="15.3"/><circle cx="126.703" cy="368.156" r="15.3"/><circle cx="174.516" cy="425.531" r="15.3"/><circle cx="418.359" cy="372.938" r="15.3"/><circle cx="360.984" cy="420.75" r="15.3"/><circle cx="131.484" cy="181.687" r="15.3"/><circle cx="188.859" cy="133.875" r="15.3"/><path d="M360.028 287.831c0-8.128-6.216-14.344-14.344-14.344h-58.81v-107.1c0-8.128-6.216-14.344-14.344-14.344s-14.344 6.216-14.344 14.344v121.444c0 8.128 6.216 14.344 14.344 14.344h73.153c8.129 0 14.345-6.216 14.345-14.344z"/></svg>