<svg xmlns="http://www.w3.org/2000/svg" width="535.979" height="535.979" style="enable-background:new 0 0 535.979 535.979" xml:space="preserve"><path d="M244.083 535.979V411.666c0-2.869 1.913-4.781 4.781-4.781s4.781 1.912 4.781 4.781v124.312h9.562V411.666c0-2.869 1.912-4.781 4.781-4.781s4.781 1.912 4.781 4.781v124.312h9.562V411.666c0-2.869 1.912-4.781 4.781-4.781s4.781 1.912 4.781 4.781v124.312h9.562V411.666c0-2.869 1.912-4.781 4.781-4.781s4.781 1.912 4.781 4.781v124.312h9.562V411.666c0-2.869 1.912-4.781 4.781-4.781s4.781 1.912 4.781 4.781v124.312h9.562V394.932c0-2.869 0-5.738-.479-8.607 0-1.434-.478-2.391-.478-3.824H197.227c-.478 3.824-.956 8.129-.956 11.953v141.525h9.562V411.666c0-2.869 1.913-4.781 4.781-4.781s4.781 1.912 4.781 4.781v124.312h9.562V411.666c0-2.869 1.913-4.781 4.781-4.781s4.781 1.912 4.781 4.781v124.312h9.564zM290.939 318.432c-1.913 4.303-6.216 7.172-10.997 7.172h-23.906c-4.781 0-9.084-2.869-10.997-7.172-22.95 8.127-40.162 28.688-46.378 54.984h138.656c-6.693-26.297-23.906-46.857-46.378-54.984zM255.08 315.562c.478 0 .478.479.956.479H279.943c.479 0 .479 0 .956-.479.956-.479 1.435-.957 1.435-1.912v-5.261c0-.479-.479-.957-.479-1.434-.478-.479-.956-.479-1.434-.479h-24.386c-.478 0-.956.479-1.435.479-.478.477-.478.955-.478 1.434V313.65c-.476.955.48 1.912.958 1.912zM263.208 0h9.562v296.916h-9.562z"/></svg>