<?xml version="1.0" encoding="iso-8859-1"?>
<!-- Generator: Adobe Illustrator 16.0.0, SVG Export Plug-In . SVG Version: 6.00 Build 0)  -->
<!DOCTYPE svg PUBLIC "-//W3C//DTD SVG 1.1//EN" "http://www.w3.org/Graphics/SVG/1.1/DTD/svg11.dtd">
<svg version="1.1" id="Capa_1" xmlns="http://www.w3.org/2000/svg" xmlns:xlink="http://www.w3.org/1999/xlink" x="0px" y="0px"
	 width="535.979px" height="535.979px" viewBox="0 0 535.979 535.979" style="enable-background:new 0 0 535.979 535.979;"
	 xml:space="preserve">
<g>
	<path d="M244.083,535.979V411.666c0-2.869,1.913-4.781,4.781-4.781s4.781,1.912,4.781,4.781v124.312h9.562V411.666
		c0-2.869,1.912-4.781,4.781-4.781s4.781,1.912,4.781,4.781v124.312h9.562V411.666c0-2.869,1.912-4.781,4.781-4.781
		s4.781,1.912,4.781,4.781v124.312h9.562V411.666c0-2.869,1.912-4.781,4.781-4.781s4.781,1.912,4.781,4.781v124.312h9.562V411.666
		c0-2.869,1.912-4.781,4.781-4.781s4.781,1.912,4.781,4.781v124.312h9.562V394.932c0-2.869,0-5.738-0.479-8.607
		c0-1.434-0.478-2.391-0.478-3.824H197.227c-0.478,3.824-0.956,8.129-0.956,11.953v141.525h9.562V411.666
		c0-2.869,1.913-4.781,4.781-4.781s4.781,1.912,4.781,4.781v124.312h9.562V411.666c0-2.869,1.913-4.781,4.781-4.781
		s4.781,1.912,4.781,4.781v124.312H244.083z"/>
	<g>
		<path d="M290.939,318.432c-1.913,4.303-6.216,7.172-10.997,7.172h-4.781h-7.172h-7.172h-4.781c-4.781,0-9.084-2.869-10.997-7.172
			c-22.95,8.127-40.162,28.688-46.378,54.984h69.328h69.328C330.624,347.119,313.411,326.559,290.939,318.432z"/>
		<path d="M255.08,315.562c0.478,0,0.478,0.479,0.956,0.479h6.694h0.956h3.825h0.479h0.479h3.824h0.957h6.693
			c0.479,0,0.479,0,0.956-0.479c0.956-0.479,1.435-0.957,1.435-1.912v-3.348v-1.434v-0.479c0-0.479-0.479-0.957-0.479-1.434
			c-0.478-0.479-0.956-0.479-1.434-0.479h-11.476h-0.956h-0.479h-11.475c-0.478,0-0.956,0.479-1.435,0.479
			c-0.478,0.477-0.478,0.955-0.478,1.434v0.479v1.434v3.348C253.646,314.605,254.602,315.562,255.08,315.562z"/>
	</g>
	<rect x="263.208" width="9.562" height="296.916"/>
</g>
<g>
</g>
<g>
</g>
<g>
</g>
<g>
</g>
<g>
</g>
<g>
</g>
<g>
</g>
<g>
</g>
<g>
</g>
<g>
</g>
<g>
</g>
<g>
</g>
<g>
</g>
<g>
</g>
<g>
</g>
</svg>
