<svg xmlns="http://www.w3.org/2000/svg" width="548.506" height="548.506" style="enable-background:new 0 0 548.506 548.506" xml:space="preserve"><path d="M524.149 325.887c-26.297-1.912-109.491-11.475-111.882-11.475h-3.347c-4.303 0-13.388.956-28.688 8.606-5.259 2.868-20.56 10.04-41.118 20.559h1.434c6.694 0 13.866 1.435 17.691 6.216l42.074-21.516 108.057 10.041-283.05 196.987-174.993-26.296 227.588-117.141s.478-13.865 7.172-19.125C190.896 420.556 59.411 488.928 32.158 503.271c-11.475 5.737-10.041 15.778 0 17.69 14.822 2.869 181.209 26.775 185.034 27.253 13.866 1.913 23.428-6.216 23.906-6.693l285.919-199.378c4.781-3.348 6.216-4.781 6.216-9.562.956-3.825-3.346-6.216-9.084-6.694z"/><path d="M363.021 401.909c0 1.434-.957 3.347-2.391 3.824l-54.507 34.426c-1.912.956-3.825.956-4.781.478-.956-.478-21.993-6.693-21.993-6.693-2.391-.956-3.348-4.304-3.348-6.216l1.913-25.341L79.971 504.228l143.438 21.516L483.51 345.013l-80.325-7.172-40.162 21.038v43.03zM291.303 358.878l4.303 5.259c4.781-2.391 10.519-5.259 16.256-8.606l-3.824-5.259-5.738-7.172L31.68 3.631C28.333-.673 23.074-1.15 18.77 2.196s-4.781 8.606-1.434 12.909l268.707 336.601 5.26 7.172z"/><path d="M336.246 353.618c-1.912.956-35.381 19.125-36.815 19.604-8.606 4.781-10.519 15.3-10.997 19.125-.479 3.824-3.347 33.946-3.347 33.946l13.865 4.304v-41.598c0-.956.956-10.04 5.26-12.431 3.347-1.913 40.162-21.038 40.641-21.516-.479-1.434-1.914-4.303-8.607-1.434z"/><path d="M352.024 359.834c-1.913.956-39.206 20.56-41.597 22.472s-2.391 5.737-2.391 6.693v39.685l45.899-29.165v-36.338c0-1.435 0-2.869-.478-3.347.002-.479-.477-.479-1.433 0z"/></svg>