<svg xmlns="http://www.w3.org/2000/svg" width="554.625" height="554.625" style="enable-background:new 0 0 554.625 554.625" xml:space="preserve"><path d="M382.103 153c0-15.185-7.822-28.688-17.461-28.688h-13.731c.028-.622.124-1.233.124-1.855 0-20.282-14.095-37.963-35.065-47.65V47.812h-66.938v24.365c-24.452 8.845-41.435 27.999-41.435 50.27 0 .631.096 1.234.125 1.855h-17.719c-9.658.01-17.48 13.512-17.48 28.697s7.822 28.688 17.461 28.688c-9.639 0-17.461 13.502-17.461 28.688s7.822 28.688 17.461 28.688h1.664v200.812h-1.664c-9.639 0-17.461 13.502-17.461 28.688s7.822 28.688 17.461 28.688c-9.639 0-17.461 13.502-17.461 28.688s7.822 28.688 17.461 28.688h174.649c9.648 0 17.461-13.502 17.461-28.688s-7.821-28.688-17.461-28.688c9.648 0 17.461-13.502 17.461-28.688s-7.821-28.688-17.461-28.688h-.86V239.062h.86c9.648 0 17.461-13.502 17.461-28.688s-7.821-28.688-17.461-28.688c9.648.002 17.47-13.501 17.47-28.686zM239.459 0h86.062v38.25h-86.062z"/></svg>