<svg xmlns="http://www.w3.org/2000/svg" width="592.875" height="592.875" style="enable-background:new 0 0 592.875 592.875" xml:space="preserve"><path d="m161.702 106.172 55.071-.985 2.543 28.688h85.604l35.161-86.062h75.888V0H259.068c-17.834 0-28.802 11.561-28.802 11.561s-54.784 53.914-70.495 68.008c-26.565 23.821 1.931 26.603 1.931 26.603zM425.532 42.438l28.687-7.774V16.142L425.532 5.977zM205.594 143.438h114.75v38.25h-114.75zM368.157 424.336c0-87.258-47.144-107.979-52.23-112.761s-8.415-9.219-8.415-18.781 12.833-16.677 12.833-26.641c0-17.528-12.307-20.311-12.307-28.678 0-14.353 10.729-13.904 10.729-25.857 0-16.381-10.7-20.368-10.7-20.368s-79.397-.593-97.231 0c-73.373 118.336-72.178 239.062-72.178 239.062v131.484c0 28.687 13.914 31.078 13.914 31.078h203.815c14.268 0 11.771-19.125 11.771-19.125l-.001-149.413z"/><path d="M449.466 162.562c-43.48-44.771-44.159-105.188-44.159-105.188h-52.316c10.872 63.753 50.882 98.073 77.743 114.157 13.971 8.367 18.656 7.153 20.885 4.293 5.66-7.285-2.153-13.262-2.153-13.262z"/></svg>