<svg xmlns="http://www.w3.org/2000/svg" width="401.625" height="401.625" style="enable-background:new 0 0 401.625 401.625" xml:space="preserve"><path d="M362.12 38.25 377.43 0H18.607l15.31 38.25zM33.917 363.375l-15.31 38.25H377.43l-15.31-38.25zM366.701 344.25c7.812-24.107 54.152-179.564-11.169-286.875H39.664c-8.635 18.771-57.815 137.317-.928 286.875h327.965zM132.745 153.794c1.405 0 2.735.277 4.102.411 14.727-15.386 35.41-25.025 58.332-25.025 7.917 0 15.557 1.195 22.796 3.328 6.226-15.511 21.362-26.527 39.082-26.527 23.256 0 42.161 18.915 42.161 42.161 0 17.719-11.007 32.847-26.526 39.082 2.132 7.239 3.327 14.879 3.327 22.797 0 44.57-36.271 80.831-80.84 80.831-35.668 0-65.962-23.256-76.663-55.376-16.237-5.871-27.932-21.286-27.932-39.522 0-23.236 18.905-42.16 42.161-42.16z"/><path d="M174.906 195.964c0 23.247-18.915 42.161-42.161 42.161-1.09 0-2.123-.238-3.194-.325 10.853 25.542 36.184 43.49 65.627 43.49 39.301 0 71.278-31.967 71.278-71.269a70.88 70.88 0 0 0-3.002-20.359c-2.104.325-4.208.65-6.407.65-23.256 0-42.161-18.915-42.161-42.161 0-2.19.325-4.293.65-6.397a70.874 70.874 0 0 0-20.358-3.002c-18.102 0-34.607 6.847-47.191 18.006 15.712 6.139 26.919 21.344 26.919 39.206z"/><path d="M257.057 180.75c.994 0 1.932-.201 2.897-.296 1.692-.153 3.347-.373 4.953-.775 1.568-.392 3.117-.822 4.59-1.425 11.819-4.905 20.158-16.543 20.158-30.112 0-17.978-14.621-32.598-32.599-32.598-13.569 0-25.207 8.338-30.112 20.157-.612 1.473-1.033 3.022-1.425 4.59-.401 1.606-.622 3.261-.774 4.953-.086.966-.297 1.903-.297 2.897.01 17.988 14.632 32.609 32.609 32.609zM115.571 223.552a32.355 32.355 0 0 0 5.336 2.706c1.73.68 3.509 1.272 5.364 1.655 2.094.42 4.255.649 6.474.649 17.978 0 32.599-14.621 32.599-32.598 0-15.291-10.624-28.066-24.853-31.566-1.769-.43-3.596-.669-5.46-.803-.774-.057-1.511-.229-2.295-.229-1.281 0-2.496.229-3.739.373-16.199 1.874-28.869 15.529-28.869 32.226.018 11.656 6.215 21.821 15.443 27.587z"/></svg>