<svg xmlns="http://www.w3.org/2000/svg" width="479.914" height="479.913" style="enable-background:new 0 0 479.914 479.913" xml:space="preserve"><path d="M129.988 479.913h219.937l5.795-47.812H124.193zM123.036 422.538h233.841l24.346-200.812H98.69zM375.62 126.101h-3.586c-6.923 0-12.546 3.749-12.546 8.367v29.883H120.425v-29.883c0-4.619-5.623-8.367-12.556-8.367h-3.586c-6.923 0-12.546 3.749-12.546 8.367v31.078c0 .287.201.526.239.794l5.556 45.823H382.38l5.556-45.823c.038-.268.239-.507.239-.794v-31.078c0-4.619-5.623-8.367-12.555-8.367zM238.761 9.553c60.655 0 112.78 41.147 126.771 100.072l9.304-2.2C359.832 44.169 303.873 0 238.771 0c-65.035 0-120.966 44.121-136.046 107.291l9.304 2.219c14.029-58.848 66.144-99.957 126.732-99.957z"/></svg>