<?xml version="1.0" encoding="iso-8859-1"?>
<!-- Generator: Adobe Illustrator 16.0.0, SVG Export Plug-In . SVG Version: 6.00 Build 0)  -->
<!DOCTYPE svg PUBLIC "-//W3C//DTD SVG 1.1//EN" "http://www.w3.org/Graphics/SVG/1.1/DTD/svg11.dtd">
<svg version="1.1" id="Capa_1" xmlns="http://www.w3.org/2000/svg" xmlns:xlink="http://www.w3.org/1999/xlink" x="0px" y="0px"
	 width="554.625px" height="554.625px" viewBox="0 0 554.625 554.625" style="enable-background:new 0 0 554.625 554.625;"
	 xml:space="preserve">
<g>
	<g>
		<path d="M382.103,153c0-15.185-7.822-28.688-17.461-28.688h-13.731c0.028-0.622,0.124-1.233,0.124-1.855
			c0-20.282-14.095-37.963-35.065-47.65V47.812h-66.938v24.365c-24.452,8.845-41.435,27.999-41.435,50.27
			c0,0.631,0.096,1.234,0.125,1.855h-17.719c-9.658,0.01-17.48,13.512-17.48,28.697s7.822,28.688,17.461,28.688
			c-9.639,0-17.461,13.502-17.461,28.688s7.822,28.688,17.461,28.688h1.664v200.812h-1.664c-9.639,0-17.461,13.502-17.461,28.688
			s7.822,28.688,17.461,28.688c-9.639,0-17.461,13.502-17.461,28.688s7.822,28.688,17.461,28.688h174.649
			c9.648,0,17.461-13.502,17.461-28.688s-7.821-28.688-17.461-28.688c9.648,0,17.461-13.502,17.461-28.688
			s-7.821-28.688-17.461-28.688h-0.86V239.062h0.86c9.648,0,17.461-13.502,17.461-28.688s-7.821-28.688-17.461-28.688
			C374.281,181.688,382.103,168.185,382.103,153z"/>
		<rect x="239.459" width="86.062" height="38.25"/>
	</g>
</g>
<g>
</g>
<g>
</g>
<g>
</g>
<g>
</g>
<g>
</g>
<g>
</g>
<g>
</g>
<g>
</g>
<g>
</g>
<g>
</g>
<g>
</g>
<g>
</g>
<g>
</g>
<g>
</g>
<g>
</g>
</svg>
