<?xml version="1.0" encoding="iso-8859-1"?>
<!-- Generator: Adobe Illustrator 16.0.0, SVG Export Plug-In . SVG Version: 6.00 Build 0)  -->
<!DOCTYPE svg PUBLIC "-//W3C//DTD SVG 1.1//EN" "http://www.w3.org/Graphics/SVG/1.1/DTD/svg11.dtd">
<svg version="1.1" id="Capa_1" xmlns="http://www.w3.org/2000/svg" xmlns:xlink="http://www.w3.org/1999/xlink" x="0px" y="0px"
	 width="535.022px" height="535.021px" viewBox="0 0 535.022 535.021" style="enable-background:new 0 0 535.022 535.021;"
	 xml:space="preserve">
<g>
	<g>
		<path d="M321.539,0h-42.074c-7.65,0-14.344,3.825-18.169,9.562h26.774c1.435,0,2.869,0,3.825,0.478
			c3.347,0.478,6.216,1.435,9.085,3.347c2.391,1.434,4.303,2.869,6.215,4.781c4.304,4.781,7.172,10.997,7.172,18.168v166.388
			c0,14.822-11.953,26.775-26.774,26.775h-4.781h-6.216h-9.562h-9.084c0.956,6.216,4.303,11.953,9.084,15.3
			c2.869,1.913,6.216,2.869,9.562,3.347v270.619c0,8.606,13.865,16.256,28.688,16.256s28.688-7.649,28.688-16.256l0,0V244.8
			c5.737-3.825,9.562-10.519,9.562-18.168V33.947V21.516C343.533,10.041,333.492,0,321.539,0z"/>
		<path d="M276.595,219.938h11.475c9.562,0,17.213-7.65,17.213-17.212V41.119v-4.781c0-7.65-5.26-14.344-12.432-16.256
			c-1.434-0.478-2.868-0.478-4.303-0.478h-4.781h-5.737h-3.347h-16.734h-11.953c-0.957,0-1.913,0-2.869,0.478
			c5.26,3.347,10.041,8.606,14.344,15.3c3.825,5.737,6.693,12.431,9.562,20.081c4.781,13.388,8.128,29.166,9.562,46.856
			c0.479,6.215,0.956,12.431,0.956,19.125s-0.478,12.909-0.956,19.125c-1.435,17.69-4.781,33.947-9.562,46.856
			c-2.869,7.65-5.737,14.344-9.562,20.082c-3.347,5.259-7.172,9.562-11.475,12.909h11.475h9.562L276.595,219.938L276.595,219.938z"
			/>
		<path d="M257.47,185.513c4.781-12.432,8.128-27.731,9.562-45.422c0.479-6.216,0.956-12.432,0.956-19.125
			c0-6.694-0.478-12.91-0.956-19.125c-1.435-17.691-4.781-33.469-9.562-45.422c-6.693-17.213-15.3-28.688-24.385-30.6
			c-0.956-0.478-2.391-0.478-3.347-0.478s-2.391,0-3.347,0.478c-1.912,0.478-3.347,1.434-5.26,2.391
			c-15.3,10.041-29.644,44.944-29.644,93.234c0,47.812,13.388,82.237,28.688,92.756c0.479,0.478,1.435,0.956,1.913,1.434
			c2.391,1.435,4.781,1.913,7.649,1.913c1.913,0,3.347-0.478,5.26-0.956C243.126,212.288,251.254,201.769,257.47,185.513z"/>
	</g>
</g>
<g>
</g>
<g>
</g>
<g>
</g>
<g>
</g>
<g>
</g>
<g>
</g>
<g>
</g>
<g>
</g>
<g>
</g>
<g>
</g>
<g>
</g>
<g>
</g>
<g>
</g>
<g>
</g>
<g>
</g>
</svg>
