<svg xmlns="http://www.w3.org/2000/svg" width="487.209" height="487.209" style="enable-background:new 0 0 487.209 487.209" xml:space="preserve"><path d="M394.453 487.209V331.34H93.712v155.869h20.56v-134.83c0-2.869 2.391-5.26 5.259-5.26s5.259 2.391 5.259 5.26v134.83h20.56v-134.83c0-2.869 2.391-5.26 5.259-5.26s5.259 2.391 5.259 5.26v134.83h20.56v-134.83c0-2.869 2.391-5.26 5.259-5.26s5.259 2.391 5.259 5.26v134.83h20.56v-134.83c0-2.869 2.391-5.26 5.259-5.26s5.259 2.391 5.259 5.26v134.83h20.559v-134.83c0-2.869 2.391-5.26 5.26-5.26s5.26 2.391 5.26 5.26v134.83h20.559v-134.83c0-2.869 2.391-5.26 5.26-5.26s5.26 2.391 5.26 5.26v134.83h20.559v-134.83c0-2.869 2.391-5.26 5.26-5.26s5.26 2.391 5.26 5.26v134.83h20.559v-134.83c0-2.869 2.391-5.26 5.26-5.26s5.26 2.391 5.26 5.26v134.83h20.559v-134.83c0-2.869 2.391-5.26 5.26-5.26s5.26 2.391 5.26 5.26v134.83h21.034zM79.369 321.301h330.384v-74.109c0-19.604-27.253-27.254-55.94-35.86-31.557-9.084-67.416-19.603-68.372-49.725V20.559C285.44 9.084 276.834 0 267.271 0H224.24c-9.562 0-21.994 9.084-21.994 20.559V168.3c0 21.994-29.644 30.6-61.2 39.685-31.078 9.084-63.591 18.647-63.591 39.207v74.109h1.914zm163.04-287.832c7.65 0 13.866 6.215 13.866 13.866 0 7.65-6.216 13.865-13.866 13.865-7.65 0-13.865-6.215-13.865-13.865 0-7.651 6.215-13.866 13.865-13.866z"/></svg>