<svg xmlns="http://www.w3.org/2000/svg" width="535.022" height="535.021" style="enable-background:new 0 0 535.022 535.021" xml:space="preserve"><path d="M321.539 0h-42.074c-7.65 0-14.344 3.825-18.169 9.562h26.774c1.435 0 2.869 0 3.825.478 3.347.478 6.216 1.435 9.085 3.347 2.391 1.434 4.303 2.869 6.215 4.781 4.304 4.781 7.172 10.997 7.172 18.168v166.388c0 14.822-11.953 26.775-26.774 26.775H257.95c.956 6.216 4.303 11.953 9.084 15.3 2.869 1.913 6.216 2.869 9.562 3.347v270.619c0 8.606 13.865 16.256 28.688 16.256s28.688-7.649 28.688-16.256V244.8c5.737-3.825 9.562-10.519 9.562-18.168V21.516C343.533 10.041 333.492 0 321.539 0z"/><path d="M276.595 219.938h11.475c9.562 0 17.213-7.65 17.213-17.212V36.338c0-7.65-5.26-14.344-12.432-16.256-1.434-.478-2.868-.478-4.303-.478H245.996c-.957 0-1.913 0-2.869.478 5.26 3.347 10.041 8.606 14.344 15.3 3.825 5.737 6.693 12.431 9.562 20.081 4.781 13.388 8.128 29.166 9.562 46.856.479 6.215.956 12.431.956 19.125s-.478 12.909-.956 19.125c-1.435 17.69-4.781 33.947-9.562 46.856-2.869 7.65-5.737 14.344-9.562 20.082-3.347 5.259-7.172 9.562-11.475 12.909h21.037l9.562-.478z"/><path d="M257.47 185.513c4.781-12.432 8.128-27.731 9.562-45.422.479-6.216.956-12.432.956-19.125 0-6.694-.478-12.91-.956-19.125-1.435-17.691-4.781-33.469-9.562-45.422-6.693-17.213-15.3-28.688-24.385-30.6-.956-.478-2.391-.478-3.347-.478s-2.391 0-3.347.478c-1.912.478-3.347 1.434-5.26 2.391-15.3 10.041-29.644 44.944-29.644 93.234 0 47.812 13.388 82.237 28.688 92.756.479.478 1.435.956 1.913 1.434 2.391 1.435 4.781 1.913 7.649 1.913 1.913 0 3.347-.478 5.26-.956 8.129-4.303 16.257-14.822 22.473-31.078z"/></svg>