<?xml version="1.0" encoding="iso-8859-1"?>
<!-- Generator: Adobe Illustrator 16.0.0, SVG Export Plug-In . SVG Version: 6.00 Build 0)  -->
<!DOCTYPE svg PUBLIC "-//W3C//DTD SVG 1.1//EN" "http://www.w3.org/Graphics/SVG/1.1/DTD/svg11.dtd">
<svg version="1.1" id="Capa_1" xmlns="http://www.w3.org/2000/svg" xmlns:xlink="http://www.w3.org/1999/xlink" x="0px" y="0px"
	 width="592.875px" height="592.875px" viewBox="0 0 592.875 592.875" style="enable-background:new 0 0 592.875 592.875;"
	 xml:space="preserve">
<g>
	<g>
		<path d="M161.702,106.172l55.071-0.985l2.543,28.688h85.604l35.161-86.062h75.888V0c0,0-139.067,0-156.901,0
			s-28.802,11.561-28.802,11.561s-54.784,53.914-70.495,68.008C133.206,103.39,161.702,106.172,161.702,106.172z"/>
		<polygon points="425.532,42.438 454.219,34.664 454.219,16.142 425.532,5.977 		"/>
		<rect x="205.594" y="143.438" width="114.75" height="38.25"/>
		<path d="M368.157,424.336c0-87.258-47.144-107.979-52.23-112.761s-8.415-9.219-8.415-18.781s12.833-16.677,12.833-26.641
			c0-17.528-12.307-20.311-12.307-28.678c0-14.353,10.729-13.904,10.729-25.857c0-16.381-10.7-20.368-10.7-20.368
			s-79.397-0.593-97.231,0c-73.373,118.336-72.178,239.062-72.178,239.062s0,102.797,0,131.484s13.914,31.078,13.914,31.078
			s189.547,0,203.815,0s11.771-19.125,11.771-19.125S368.157,542.672,368.157,424.336z"/>
		<path d="M449.466,162.562c-43.48-44.771-44.159-105.188-44.159-105.188h-52.316c10.872,63.753,50.882,98.073,77.743,114.157
			c13.971,8.367,18.656,7.153,20.885,4.293C457.279,168.539,449.466,162.562,449.466,162.562z"/>
	</g>
</g>
<g>
</g>
<g>
</g>
<g>
</g>
<g>
</g>
<g>
</g>
<g>
</g>
<g>
</g>
<g>
</g>
<g>
</g>
<g>
</g>
<g>
</g>
<g>
</g>
<g>
</g>
<g>
</g>
<g>
</g>
</svg>
