<svg xmlns="http://www.w3.org/2000/svg" width="487.688" height="487.688" style="enable-background:new 0 0 487.688 487.688" xml:space="preserve"><path d="M329.906 124.312a4.782 4.782 0 0 0 4.781-4.781v-19.125c0-2.639-2.142-4.781-4.781-4.781s-4.781 2.142-4.781 4.781v19.125a4.783 4.783 0 0 0 4.781 4.781zM349.031 124.312a4.782 4.782 0 0 0 4.781-4.781v-19.125c0-2.639-2.142-4.781-4.781-4.781s-4.781 2.142-4.781 4.781v19.125a4.783 4.783 0 0 0 4.781 4.781zM368.156 124.312a4.782 4.782 0 0 0 4.781-4.781v-19.125c0-2.639-2.142-4.781-4.781-4.781s-4.781 2.142-4.781 4.781v19.125a4.783 4.783 0 0 0 4.781 4.781zM329.906 162.562a4.782 4.782 0 0 0 4.781-4.781v-19.125c0-2.639-2.142-4.781-4.781-4.781s-4.781 2.142-4.781 4.781v19.125a4.783 4.783 0 0 0 4.781 4.781zM349.031 162.562a4.782 4.782 0 0 0 4.781-4.781v-19.125c0-2.639-2.142-4.781-4.781-4.781s-4.781 2.142-4.781 4.781v19.125a4.783 4.783 0 0 0 4.781 4.781zM368.156 162.562a4.782 4.782 0 0 0 4.781-4.781v-19.125c0-2.639-2.142-4.781-4.781-4.781s-4.781 2.142-4.781 4.781v19.125a4.783 4.783 0 0 0 4.781 4.781zM329.906 200.812a4.782 4.782 0 0 0 4.781-4.781v-19.125c0-2.639-2.142-4.781-4.781-4.781s-4.781 2.142-4.781 4.781v19.125a4.783 4.783 0 0 0 4.781 4.781zM349.031 200.812a4.782 4.782 0 0 0 4.781-4.781v-19.125c0-2.639-2.142-4.781-4.781-4.781s-4.781 2.142-4.781 4.781v19.125a4.783 4.783 0 0 0 4.781 4.781zM368.156 200.812a4.782 4.782 0 0 0 4.781-4.781v-19.125c0-2.639-2.142-4.781-4.781-4.781s-4.781 2.142-4.781 4.781v19.125a4.783 4.783 0 0 0 4.781 4.781z"/><path d="M0 396.844v86.062h487.688V4.781H0v392.063zm468.562-9.563h-19.125V38.25a4.783 4.783 0 0 0-4.781-4.781h-95.625a4.782 4.782 0 0 0-4.781 4.781v23.906h-31.078A7.175 7.175 0 0 0 306 69.328v4.781a7.175 7.175 0 0 0 7.172 7.172h71.719a7.175 7.175 0 0 0 7.172-7.172v-4.781a7.175 7.175 0 0 0-7.172-7.172h-31.078V43.031h86.062v152.407c0-4.954-2.888-8.97-6.445-8.97h-.86c-3.558 0-2.257 4.016-2.257 8.97v20.32c0 4.944-1.301 8.96 2.257 8.96h.86c3.558 0 6.445-4.016 6.445-8.97V387.28H258.188V23.906h210.375v363.375zm-219.937 0h-28.688V23.906h28.688v363.375zM19.125 23.906h191.25v363.375H19.125V23.906z"/><path d="M177.499 148.219h-1.195c-7.573 0-13.741 6.168-13.741 13.751v58.57c0 7.573 6.168 13.741 13.751 13.741h1.195c7.573 0 13.741-6.168 13.741-13.751v-58.57c0-7.573-6.168-13.741-13.751-13.741zm4.189 72.311a4.187 4.187 0 0 1-4.188 4.188h-1.195a4.185 4.185 0 0 1-4.179-4.188v-58.57a4.185 4.185 0 0 1 4.188-4.179h1.195a4.185 4.185 0 0 1 4.179 4.188v58.561zM281.501 234.281h1.195c7.573 0 13.741-6.168 13.741-13.751v-58.57c0-7.573-6.168-13.741-13.751-13.741h-1.195c-7.573 0-13.741 6.168-13.741 13.751v58.57c0 7.573 6.168 13.741 13.751 13.741zm-4.189-72.311a4.187 4.187 0 0 1 4.188-4.188h1.195a4.185 4.185 0 0 1 4.179 4.188v58.57a4.185 4.185 0 0 1-4.188 4.179h-1.195a4.185 4.185 0 0 1-4.179-4.188V161.97z"/></svg>