<?xml version="1.0" encoding="iso-8859-1"?>
<!-- Generator: Adobe Illustrator 16.0.0, SVG Export Plug-In . SVG Version: 6.00 Build 0)  -->
<!DOCTYPE svg PUBLIC "-//W3C//DTD SVG 1.1//EN" "http://www.w3.org/Graphics/SVG/1.1/DTD/svg11.dtd">
<svg version="1.1" id="Capa_1" xmlns="http://www.w3.org/2000/svg" xmlns:xlink="http://www.w3.org/1999/xlink" x="0px" y="0px"
	 width="487.688px" height="487.688px" viewBox="0 0 487.688 487.688" style="enable-background:new 0 0 487.688 487.688;"
	 xml:space="preserve">
<g>
	<g>
		<path d="M329.906,124.312c2.64,0,4.781-2.142,4.781-4.781v-19.125c0-2.639-2.142-4.781-4.781-4.781s-4.781,2.142-4.781,4.781
			v19.125C325.125,122.17,327.267,124.312,329.906,124.312z"/>
		<path d="M349.031,124.312c2.64,0,4.781-2.142,4.781-4.781v-19.125c0-2.639-2.142-4.781-4.781-4.781s-4.781,2.142-4.781,4.781
			v19.125C344.25,122.17,346.392,124.312,349.031,124.312z"/>
		<path d="M368.156,124.312c2.64,0,4.781-2.142,4.781-4.781v-19.125c0-2.639-2.142-4.781-4.781-4.781s-4.781,2.142-4.781,4.781
			v19.125C363.375,122.17,365.517,124.312,368.156,124.312z"/>
		<path d="M329.906,162.562c2.64,0,4.781-2.142,4.781-4.781v-19.125c0-2.639-2.142-4.781-4.781-4.781s-4.781,2.142-4.781,4.781
			v19.125C325.125,160.42,327.267,162.562,329.906,162.562z"/>
		<path d="M349.031,162.562c2.64,0,4.781-2.142,4.781-4.781v-19.125c0-2.639-2.142-4.781-4.781-4.781s-4.781,2.142-4.781,4.781
			v19.125C344.25,160.42,346.392,162.562,349.031,162.562z"/>
		<path d="M368.156,162.562c2.64,0,4.781-2.142,4.781-4.781v-19.125c0-2.639-2.142-4.781-4.781-4.781s-4.781,2.142-4.781,4.781
			v19.125C363.375,160.42,365.517,162.562,368.156,162.562z"/>
		<path d="M329.906,200.812c2.64,0,4.781-2.142,4.781-4.781v-19.125c0-2.639-2.142-4.781-4.781-4.781s-4.781,2.142-4.781,4.781
			v19.125C325.125,198.67,327.267,200.812,329.906,200.812z"/>
		<path d="M349.031,200.812c2.64,0,4.781-2.142,4.781-4.781v-19.125c0-2.639-2.142-4.781-4.781-4.781s-4.781,2.142-4.781,4.781
			v19.125C344.25,198.67,346.392,200.812,349.031,200.812z"/>
		<path d="M368.156,200.812c2.64,0,4.781-2.142,4.781-4.781v-19.125c0-2.639-2.142-4.781-4.781-4.781s-4.781,2.142-4.781,4.781
			v19.125C363.375,198.67,365.517,200.812,368.156,200.812z"/>
		<path d="M0,396.844v9.562v76.5h487.688v-76.5v-9.562V4.781H0V396.844z M468.562,387.281h-19.125V38.25
			c0-2.639-2.142-4.781-4.781-4.781h-95.625c-2.64,0-4.781,2.142-4.781,4.781v23.906h-31.078c-3.959,0-7.172,3.213-7.172,7.172
			v4.781c0,3.959,3.213,7.172,7.172,7.172h71.719c3.959,0,7.172-3.213,7.172-7.172v-4.781c0-3.959-3.213-7.172-7.172-7.172h-31.078
			V43.031h86.062v152.407c0-4.954-2.888-8.97-6.445-8.97h-0.86c-3.558,0-2.257,4.016-2.257,8.97v20.32
			c0,4.944-1.301,8.96,2.257,8.96h0.86c3.558,0,6.445-4.016,6.445-8.97v171.532H258.188V23.906h210.375V387.281z M248.625,387.281
			h-28.688V23.906h28.688V387.281z M19.125,23.906h191.25v363.375H19.125V23.906z"/>
		<path d="M177.499,148.219h-1.195c-7.573,0-13.741,6.168-13.741,13.751v58.57c0,7.573,6.168,13.741,13.751,13.741h1.195
			c7.573,0,13.741-6.168,13.741-13.751v-58.57C191.25,154.387,185.082,148.219,177.499,148.219z M181.688,220.53
			c0,2.314-1.874,4.188-4.188,4.188h-1.195c-2.305,0-4.179-1.874-4.179-4.188v-58.57c0-2.305,1.874-4.179,4.188-4.179h1.195
			c2.305,0,4.179,1.874,4.179,4.188V220.53z"/>
		<path d="M281.501,234.281h1.195c7.573,0,13.741-6.168,13.741-13.751v-58.57c0-7.573-6.168-13.741-13.751-13.741h-1.195
			c-7.573,0-13.741,6.168-13.741,13.751v58.57C267.75,228.113,273.918,234.281,281.501,234.281z M277.312,161.97
			c0-2.314,1.874-4.188,4.188-4.188h1.195c2.305,0,4.179,1.874,4.179,4.188v58.57c0,2.305-1.874,4.179-4.188,4.179h-1.195
			c-2.305,0-4.179-1.874-4.179-4.188V161.97z"/>
	</g>
</g>
<g>
</g>
<g>
</g>
<g>
</g>
<g>
</g>
<g>
</g>
<g>
</g>
<g>
</g>
<g>
</g>
<g>
</g>
<g>
</g>
<g>
</g>
<g>
</g>
<g>
</g>
<g>
</g>
<g>
</g>
</svg>
