<?xml version="1.0" encoding="iso-8859-1"?>
<!-- Generator: Adobe Illustrator 16.0.0, SVG Export Plug-In . SVG Version: 6.00 Build 0)  -->
<!DOCTYPE svg PUBLIC "-//W3C//DTD SVG 1.1//EN" "http://www.w3.org/Graphics/SVG/1.1/DTD/svg11.dtd">
<svg version="1.1" id="Capa_1" xmlns="http://www.w3.org/2000/svg" xmlns:xlink="http://www.w3.org/1999/xlink" x="0px" y="0px"
	 width="589.527px" height="589.528px" viewBox="0 0 589.527 589.528" style="enable-background:new 0 0 589.527 589.528;"
	 xml:space="preserve">
<g>
	<path d="M159.216,213.042c4.303,1.435,8.128,1.435,8.128,1.435c6.694,0,12.91-2.391,17.212-6.694
		c-13.865-1.913-27.253-3.825-40.162-6.215C147.263,206.826,152.522,211.129,159.216,213.042z"/>
	<path d="M342.338,213.52c-32.99,1.912-64.069,1.912-93.235,0l4.781,9.562c13.388,0.478,26.775,0.956,40.641,0.956
		c13.866,0,28.688-0.478,43.032-0.956L342.338,213.52z"/>
	<path d="M79.847,186.267c-47.334-12.909-75.066-25.34-75.544-25.819L0,169.054c0.957,0.478,27.253,12.431,73.153,25.341
		L79.847,186.267z"/>
	<path d="M510.637,185.789l6.695,7.65c24.383-6.694,47.334-14.344,72.195-23.906l-3.346-8.606
		C560.363,171.445,535.979,178.617,510.637,185.789z"/>
	<path d="M441.309,211.129c5.26-2.391,9.086-6.694,11.477-11.475c-13.867,2.869-27.732,5.259-41.119,7.172
		c3.346,3.825,8.605,6.215,14.822,7.172C431.27,213.998,436.527,213.042,441.309,211.129z"/>
	<path d="M235.716,207.304l-5.259-0.478l-0.479,5.259c0,0,0,0,0,0.478c-0.478,3.825-2.391,6.694-4.781,8.606
		s-5.259,3.347-8.606,3.347c-0.478,0-0.957,0-1.435,0c-3.825-0.478-6.694-1.913-9.084-4.781l0,0
		c-2.391-2.869-3.347-6.215-2.869-9.562v-0.478l0.478-6.216l-5.259-0.478c-0.478,2.391-1.913,4.781-2.869,6.694
		c-1.913,3.347-4.781,6.216-7.65,8.128c-5.259,3.825-12.431,6.216-20.082,6.216c-1.434,0-3.347,0-4.781-0.478
		c-10.041-1.435-18.646-6.694-23.906-13.866c-2.391-3.347-3.825-6.694-4.781-10.041c-0.478-1.913-0.478-3.347-0.478-5.259
		l-6.215-0.957l-0.479,1.435c0,0.956-0.478,1.913-0.956,2.869c-1.913,3.825-4.781,6.216-8.606,7.65
		c-0.956,0.478-2.391,0.478-3.347,0.478s-1.913,0-2.869-0.478c-2.391-0.478-11.953-3.347-10.997-13.866c0-0.478,0-1.434,0-1.912
		l-10.519-1.435l-41.119,48.769l31.556,27.253L62.156,407.161l145.828,18.646l18.169-142.959l37.293-18.647L235.716,207.304z"/>
	<path d="M500.598,187.701l-9.086,1.434c0,0.479,0,0.957,0,1.913c0.479,2.869-0.477,12.431-10.518,14.822
		c-0.957,0-1.912,0.479-2.869,0.479c-1.912,0-3.348-0.479-5.26-0.957c-3.346-1.434-6.215-4.303-7.65-7.65
		c0-0.478-1.434-3.825-1.434-3.825h-0.957c0,1.435,0,2.869-0.477,4.303c-0.479,3.825-1.914,7.172-4.305,10.519
		c-4.781,7.65-13.865,13.387-24.383,14.822c-1.914,0.478-3.348,0.478-5.26,0.478c-7.65,0-14.822-2.391-20.561-6.694
		c-2.867-2.391-5.736-5.259-7.648-8.128c-0.957-1.913-1.914-3.825-2.391-5.738l-9.562,1.435c0,0,0.955,5.737,0.955,6.216
		c0.479,3.347-0.955,6.693-2.869,9.562c-1.912,2.869-5.258,4.781-9.084,5.259c-0.479,0-1.434,0-1.912,0l0,0
		c-3.348,0-6.693-1.435-9.084-3.347c-2.391-1.912-4.303-4.781-4.781-8.128v-0.478l-0.479-4.781l-6.693,0.956l-26.775,57.853
		l37.771,18.169l20.082,142.959l145.35-20.559l-19.604-145.351l31.078-27.731L500.598,187.701z"/>
	<path d="M219.938,178.617c-2.869,0-4.781,1.913-4.781,4.303l-1.434,12.431l-0.479,4.781l-0.478,4.781l-0.478,6.216v0.478
		c0,0.956,0.478,1.913,0.956,2.869c0.957,0.956,1.913,1.435,2.869,1.913h0.478c2.391,0,3.825-1.435,4.303-3.347v-0.478l0.478-5.737
		l0.478-4.781l0.478-4.781l1.435-12.431c0-1.435,0-2.391-0.957-3.347C221.85,179.095,220.894,178.617,219.938,178.617
		L219.938,178.617z"/>
	<path d="M371.504,178.617c-2.869,0.478-4.305,2.869-3.826,5.259l1.436,12.431l0.477,4.781l0.479,4.781l0.957,6.216v0.478
		c0.479,0.957,0.955,1.913,1.434,2.391c0.957,0.957,2.391,0.957,3.348,0.957h0.479c1.912-0.479,3.346-2.391,3.346-4.303v-0.478
		l-0.955-5.738l-0.479-4.781l-0.479-4.781l-1.434-12.431c0-1.435-0.957-2.391-1.914-2.869
		C373.895,179.095,372.938,178.139,371.504,178.617L371.504,178.617z"/>
	<path d="M120.488,160.448c-2.869-0.478-4.781,1.435-5.26,3.347l-2.869,11.953l-0.956,4.303l-0.957,4.303l-0.956,6.694v0.478
		c0,0.957,0,1.913,0.478,2.869c0.478,0.956,1.913,1.912,2.869,1.912h0.479c1.912,0,4.303-0.956,4.781-2.869v-0.478l1.434-5.737
		l0.957-4.303l0.956-4.303l2.869-12.431c0.478-1.435,0-2.391-0.478-3.347C122.878,161.404,121.922,160.448,120.488,160.448
		L120.488,160.448z"/>
	<path d="M480.516,181.485l-3.824-17.212c-0.479-1.913-2.391-3.825-4.305-3.825c-0.477,0-0.477,0-0.955,0
		c-1.436,0.479-2.391,0.957-2.869,1.913c-0.479,0.957-0.957,2.391-0.479,3.347l3.826,16.734l0.955,4.303l0.957,4.303l0.479,1.435
		c0,0.478,0.477,1.434,0.955,1.913c0.957,1.434,2.869,1.912,4.303,1.434c1.436-0.478,2.391-0.956,2.869-1.913
		c0.479-0.478,0.479-0.956,0.479-1.434s0-1.435,0-1.913v-0.478l-0.957-4.303L480.516,181.485z"/>
</g>
<g>
</g>
<g>
</g>
<g>
</g>
<g>
</g>
<g>
</g>
<g>
</g>
<g>
</g>
<g>
</g>
<g>
</g>
<g>
</g>
<g>
</g>
<g>
</g>
<g>
</g>
<g>
</g>
<g>
</g>
</svg>
