<svg xmlns="http://www.w3.org/2000/svg" width="428.066" height="428.065" style="enable-background:new 0 0 428.066 428.065" xml:space="preserve"><path d="M161.441 296.447c-.803 3.107-1.626 6.272-2.448 9.477 14.458 3.452 33.268 6.569 54.306 6.569 17.403 0 36.298-2.181 55.405-8.014-.822-3.175-1.626-6.282-2.42-9.343-39.971 12.127-79.454 7.24-104.843 1.311z"/><path d="m167.37 237.867 3.385-.096c2.582-.066 5.021.593 7.315.593l7.516.698h.096c14.631 0 19.555-.717 22.137-20.607 2.62-20.244-6.598-22.529-19.364-25.216-1.96-.421-3.892-.995-5.728-1.463l-4.447-1.243.985-4.542c6.082-27.703 28.486-116.787 30.591-125.145L208.737 0h-38.805c-8.816 42.668-79.885 386.287-84.848 407.496-1.501 6.436-.736 11.801 2.209 15.529 2.544 3.204 6.723 5.03 11.456 5.03 8.377 0 19.804-5.795 24.432-22.156 2.505-8.864 9.926-37.743 17.786-68.334 2.955-11.484 5.929-23.055 8.759-34.042.823-3.203 1.635-6.35 2.438-9.438 6.732-26.029 12.307-47.21 14.162-53.005l1.044-3.213zM258.146 0h-39.847l1.119 60.712c2.046 7.889 25.293 97.432 31.394 125.24l.994 4.504-4.456 1.157c-1.941.507-4.035.937-6.177 1.377-13.13 2.678-23.505 5.47-20.904 25.484 2.554 19.871 7.497 20.588 22.118 20.588h.096l7.517-.698c2.295 0 4.733-.315 7.314-.258l3.386-.077 1.032 3.146c1.798 5.623 7.115 25.762 13.589 50.768.803 3.098 1.625 6.272 2.457 9.505 3.003 11.608 6.168 23.935 9.314 36.165 7.86 30.581 15.29 59.45 17.786 68.306 4.628 16.361 16.056 22.146 24.432 22.146 4.733 0 8.913-1.836 11.456-5.04 2.955-3.729 3.72-9.094 2.209-15.539C338.032 386.296 266.963 42.668 258.146 0z"/></svg>