<svg xmlns="http://www.w3.org/2000/svg" width="473.001" height="473" style="enable-background:new 0 0 473.001 473" xml:space="preserve"><path d="M451.426 315.003c-.517-.344-1.855-.641-2.41-.889l-201.09-88.884v-28.879c38.25-4.6 57.136-29.835 57.136-62.28 0-35.926-25.283-63.026-59.345-63.026-35.763 0-65.771 29.481-65.771 64.384 0 6.005 4.973 10.882 10.978 10.882 1.788 0 3.452-.535 4.934-1.291 3.519-1.808 6.024-5.365 6.024-9.591 0-22.702 20.674-42.62 44.217-42.62 22.003 0 37.982 17.356 37.982 41.262 0 23.523-19.011 41.262-44.925 41.262-6.005 0-10.356 4.877-10.356 10.882V228.835c0 .21-.421.383-.401.593L35.61 320.55C7.181 330.792-2.554 354.095.554 371.881c3.194 18.293 18.704 30.074 38.795 30.074H422.26c23.782 0 42.438-12.307 48.683-32.942 6.167-20.33-1.865-42.247-19.517-54.01zm-1.311 49.028c-3.452 11.427-13.607 18.8-27.846 18.8H39.349c-9.725 0-16.104-5.394-17.5-13.368-1.587-9.104 4.265-22.032 21.831-28.42l199.531-94.583 196.844 87.65c9.248 6.607 13.379 18.962 10.06 29.921z"/></svg>