<svg xmlns="http://www.w3.org/2000/svg" width="589.527" height="589.528" style="enable-background:new 0 0 589.527 589.528" xml:space="preserve"><path d="M159.216 213.042c4.303 1.435 8.128 1.435 8.128 1.435 6.694 0 12.91-2.391 17.212-6.694-13.865-1.913-27.253-3.825-40.162-6.215 2.869 5.258 8.128 9.561 14.822 11.474zM342.338 213.52c-32.99 1.912-64.069 1.912-93.235 0l4.781 9.562c13.388.478 26.775.956 40.641.956s28.688-.478 43.032-.956l4.781-9.562zM79.847 186.267c-47.334-12.909-75.066-25.34-75.544-25.819L0 169.054c.957.478 27.253 12.431 73.153 25.341l6.694-8.128zM510.637 185.789l6.695 7.65c24.383-6.694 47.334-14.344 72.195-23.906l-3.346-8.606c-25.818 10.518-50.202 17.69-75.544 24.862zM441.309 211.129c5.26-2.391 9.086-6.694 11.477-11.475a675.894 675.894 0 0 1-41.119 7.172c3.346 3.825 8.605 6.215 14.822 7.172 4.781 0 10.038-.956 14.82-2.869z"/><path d="m235.716 207.304-5.259-.478-.479 5.259v.478c-.478 3.825-2.391 6.694-4.781 8.606s-5.259 3.347-8.606 3.347h-1.435c-3.825-.478-6.694-1.913-9.084-4.781-2.391-2.869-3.347-6.215-2.869-9.562v-.478l.478-6.216-5.259-.478c-.478 2.391-1.913 4.781-2.869 6.694-1.913 3.347-4.781 6.216-7.65 8.128-5.259 3.825-12.431 6.216-20.082 6.216-1.434 0-3.347 0-4.781-.478-10.041-1.435-18.646-6.694-23.906-13.866-2.391-3.347-3.825-6.694-4.781-10.041-.478-1.913-.478-3.347-.478-5.259l-6.215-.957-.479 1.435c0 .956-.478 1.913-.956 2.869-1.913 3.825-4.781 6.216-8.606 7.65-.956.478-2.391.478-3.347.478s-1.913 0-2.869-.478c-2.391-.478-11.953-3.347-10.997-13.866v-1.912l-10.519-1.435-41.119 48.769 31.556 27.253-18.168 142.96 145.828 18.646 18.169-142.959 37.293-18.647-27.73-56.897zM500.598 187.701l-9.086 1.434v1.913c.479 2.869-.477 12.431-10.518 14.822-.957 0-1.912.479-2.869.479-1.912 0-3.348-.479-5.26-.957-3.346-1.434-6.215-4.303-7.65-7.65 0-.478-1.434-3.825-1.434-3.825h-.957c0 1.435 0 2.869-.477 4.303-.479 3.825-1.914 7.172-4.305 10.519-4.781 7.65-13.865 13.387-24.383 14.822-1.914.478-3.348.478-5.26.478-7.65 0-14.822-2.391-20.561-6.694-2.867-2.391-5.736-5.259-7.648-8.128-.957-1.913-1.914-3.825-2.391-5.738l-9.562 1.435s.955 5.737.955 6.216c.479 3.347-.955 6.693-2.869 9.562-1.912 2.869-5.258 4.781-9.084 5.259h-1.912c-3.348 0-6.693-1.435-9.084-3.347s-4.303-4.781-4.781-8.128v-.478l-.479-4.781-6.693.956-26.775 57.853 37.771 18.169 20.082 142.959 145.35-20.559-19.604-145.351 31.078-27.731-41.594-47.812z"/><path d="M219.938 178.617c-2.869 0-4.781 1.913-4.781 4.303l-1.434 12.431-.479 4.781-.478 4.781-.478 6.216v.478c0 .956.478 1.913.956 2.869.957.956 1.913 1.435 2.869 1.913h.478c2.391 0 3.825-1.435 4.303-3.347v-.478l.478-5.737.478-4.781.478-4.781 1.435-12.431c0-1.435 0-2.391-.957-3.347-.956-2.392-1.912-2.87-2.868-2.87zM371.504 178.617c-2.869.478-4.305 2.869-3.826 5.259l1.436 12.431.477 4.781.479 4.781.957 6.216v.478c.479.957.955 1.913 1.434 2.391.957.957 2.391.957 3.348.957h.479c1.912-.479 3.346-2.391 3.346-4.303v-.478l-.955-5.738-.479-4.781-.479-4.781-1.434-12.431c0-1.435-.957-2.391-1.914-2.869-.478-1.435-1.435-2.391-2.869-1.913zM120.488 160.448c-2.869-.478-4.781 1.435-5.26 3.347l-2.869 11.953-.956 4.303-.957 4.303-.956 6.694v.478c0 .957 0 1.913.478 2.869.478.956 1.913 1.912 2.869 1.912h.479c1.912 0 4.303-.956 4.781-2.869v-.478l1.434-5.737.957-4.303.956-4.303 2.869-12.431c.478-1.435 0-2.391-.478-3.347-.957-1.435-1.913-2.391-3.347-2.391zM480.516 181.485l-3.824-17.212c-.479-1.913-2.391-3.825-4.305-3.825h-.955c-1.436.479-2.391.957-2.869 1.913-.479.957-.957 2.391-.479 3.347l3.826 16.734.955 4.303.957 4.303.479 1.435c0 .478.477 1.434.955 1.913.957 1.434 2.869 1.912 4.303 1.434 1.436-.478 2.391-.956 2.869-1.913.479-.478.479-.956.479-1.434v-2.391l-.957-4.303-1.434-4.304z"/></svg>