<svg xmlns="http://www.w3.org/2000/svg" width="499.24" height="499.239" style="enable-background:new 0 0 499.24 499.239" xml:space="preserve"><path d="M436.083 0H63.146C52.58 0 44.021 8.559 44.021 19.125v28.688c0 10.566 8.559 19.125 19.125 19.125h181.688v24.365c0 4.38 2.983 8.195 7.229 9.275 18.628 4.714 39.646 15.482 40.009 23.419.077 1.54-.994 15.673-59.995 36.576a9.57 9.57 0 0 0-6.34 9.821 9.557 9.557 0 0 0 7.908 8.606c27.09 4.667 57.967 16.505 58.723 25.34.048.564.479 13.914-60.311 35.602a9.559 9.559 0 0 0-6.292 10.06 9.552 9.552 0 0 0 8.348 8.435c29.175 3.566 62.759 14.993 64.327 25.694.411 2.858-.86 18.57-66.985 47.372a9.557 9.557 0 0 0-5.699 9.64 9.541 9.541 0 0 0 7.363 8.443c34.224 7.966 66.736 22.988 66.908 30.925 0 .096-1.108 10.366-48.166 23.39a9.558 9.558 0 0 0-7.028 9.219v17.193l9.161 68.927 9.964-68.927v-9.983c38.432-11.446 55.52-23.964 55.176-40.21-.411-19.909-30.523-33.861-56.305-42.171 39.752-20.11 57.185-38.326 54.535-56.571-2.734-18.743-27.023-29.567-48.645-35.544 30.658-14.124 44.026-27.846 42.716-43.127-1.521-17.652-24.068-28.802-44.743-35.362 30.974-14.152 45.24-28.477 44.495-44.255-1.033-21.879-31.729-34.176-47.22-39.015V66.938h172.125c10.566 0 19.125-8.559 19.125-19.125V19.125C455.208 8.559 446.65 0 436.083 0z"/></svg>