<?xml version="1.0" encoding="iso-8859-1"?>
<!-- Generator: Adobe Illustrator 16.0.0, SVG Export Plug-In . SVG Version: 6.00 Build 0)  -->
<!DOCTYPE svg PUBLIC "-//W3C//DTD SVG 1.1//EN" "http://www.w3.org/Graphics/SVG/1.1/DTD/svg11.dtd">
<svg version="1.1" id="Capa_1" xmlns="http://www.w3.org/2000/svg" xmlns:xlink="http://www.w3.org/1999/xlink" x="0px" y="0px"
	 width="523.46px" height="523.46px" viewBox="0 0 523.46 523.46" style="enable-background:new 0 0 523.46 523.46;"
	 xml:space="preserve">
<g>
	<path d="M343.011,119.53h-4.781h-25.359c-0.67-2.4-1.865-5.824-3.777-9.562c-5.441-10.643-16.964-23.906-40.784-23.906
		c-23.811,0-35.773,13.292-41.559,23.906c-2.056,3.768-3.356,7.191-4.093,9.562h-32.646c-52.813,0-100.406,38.03-100.406,90.844
		v14.344h344.25v-14.344C433.855,157.56,395.825,119.53,343.011,119.53z M232.641,119.53c1.004-2.687,2.629-6.129,5.145-9.562
		c5.278-7.201,14.525-14.344,30.514-14.344c15.864,0,24.814,7.162,29.825,14.344c2.4,3.452,3.911,6.895,4.82,9.562H232.641z"/>
	<path d="M89.605,258.186c0,52.814,47.593,100.407,100.406,100.407h32.292h21.171h40.096h21.171h38.27
		c52.813,0,90.844-47.593,90.844-100.407V234.28H89.605V258.186z"/>
	<path d="M142.792,492.4c0,17.155,13.904,31.06,31.059,31.06s31.059-13.904,31.059-31.06c0-10.413-5.173-19.574-13.034-25.206
		l32.321-68.028c9.314,3.051,20.913,5.451,34.549,5.451c16.189,0,31.317-3.356,43.289-7.162l55.052,115.85
		c1.635,3.442,5.068,5.46,8.645,5.46c1.377,0,2.772-0.297,4.103-0.928c4.771-2.266,6.799-7.975,4.532-12.737l-54.401-114.491
		c4.753-2.133,7.669-3.729,8.052-3.94c2.305-1.281,3.127-4.188,1.846-6.502c-1.281-2.305-4.207-3.127-6.503-1.846
		c-0.086,0.048-2.85,1.549-7.516,3.624l-6.56-13.789h-21.172l9.754,20.521c-11.045,3.423-24.719,6.378-39.12,6.378
		c-11.896,0-22.061-2.056-30.371-4.676l10.557-22.224h-21.171l-6.981,14.688c-3.997-2.266-6.359-4.025-6.426-4.073
		c-2.037-1.626-5.059-1.31-6.713,0.746c-1.645,2.056-1.329,5.059,0.727,6.713c0.316,0.258,3.28,2.515,8.281,5.316l-33.191,69.845
		C156.495,461.6,142.792,475.38,142.792,492.4z M173.851,478.076c4.217,0,7.965,1.855,10.586,4.753
		c2.295,2.543,3.729,5.871,3.729,9.562c0,7.908-6.417,14.324-14.325,14.324c-0.535,0-1.042-0.096-1.568-0.162
		c-7.163-0.794-12.756-6.79-12.756-14.162c0-0.736,0.105-1.444,0.22-2.152c0.43-2.84,1.683-5.393,3.529-7.43
		C165.904,479.922,169.643,478.076,173.851,478.076z"/>
	<path d="M224.675,46.912c0,13.148,9.974,19.871,15.262,21.583c0.488,0.163,0.985,0.229,1.473,0.229
		c1.999,0,3.844-1.271,4.523-3.271c0.832-2.486-0.516-5.192-2.993-6.043c-0.889-0.306-8.692-3.261-8.692-12.498
		c0-1.979,2.084-4.781,4.303-7.746c3.404-4.571,7.65-10.251,7.65-17.652c0-13.301-11.667-20.521-12.164-20.827
		c-2.248-1.358-5.154-0.641-6.541,1.597c-1.377,2.237-0.669,5.183,1.559,6.569c0.076,0.048,7.583,4.81,7.583,12.661
		c0,4.227-2.792,7.966-5.757,11.934C227.831,37.531,224.675,41.758,224.675,46.912z"/>
	<path d="M253.363,46.912c0,13.148,9.974,19.871,15.262,21.583c0.487,0.163,0.985,0.229,1.473,0.229
		c1.999,0,3.844-1.271,4.523-3.271c0.832-2.486-0.517-5.192-2.993-6.043c-0.89-0.306-8.692-3.261-8.692-12.498
		c0-1.979,2.084-4.781,4.303-7.746c3.404-4.571,7.65-10.251,7.65-17.652c0-13.301-11.666-20.521-12.164-20.827
		c-2.237-1.358-5.164-0.641-6.541,1.597c-1.377,2.237-0.669,5.183,1.559,6.569c0.076,0.048,7.583,4.81,7.583,12.661
		c0,4.227-2.792,7.966-5.757,11.934C256.519,37.531,253.363,41.758,253.363,46.912z"/>
	<path d="M282.05,46.912c0,13.148,9.974,19.871,15.262,21.583c0.487,0.163,0.985,0.229,1.473,0.229c1.999,0,3.844-1.271,4.523-3.271
		c0.832-2.486-0.517-5.192-2.993-6.043c-0.89-0.306-8.692-3.261-8.692-12.498c0-1.979,2.084-4.781,4.303-7.746
		c3.404-4.571,7.65-10.251,7.65-17.652c0-13.301-11.666-20.521-12.164-20.827c-2.247-1.358-5.163-0.641-6.54,1.597
		c-1.377,2.237-0.67,5.183,1.559,6.569c0.076,0.048,7.583,4.81,7.583,12.661c0,4.227-2.793,7.966-5.757,11.934
		C285.206,37.531,282.05,41.758,282.05,46.912z"/>
</g>
<g>
</g>
<g>
</g>
<g>
</g>
<g>
</g>
<g>
</g>
<g>
</g>
<g>
</g>
<g>
</g>
<g>
</g>
<g>
</g>
<g>
</g>
<g>
</g>
<g>
</g>
<g>
</g>
<g>
</g>
</svg>
