<svg xmlns="http://www.w3.org/2000/svg" width="523.46" height="523.46" style="enable-background:new 0 0 523.46 523.46" xml:space="preserve"><path d="M343.011 119.53h-30.14c-.67-2.4-1.865-5.824-3.777-9.562-5.441-10.643-16.964-23.906-40.784-23.906-23.811 0-35.773 13.292-41.559 23.906-2.056 3.768-3.356 7.191-4.093 9.562h-32.646c-52.813 0-100.406 38.03-100.406 90.844v14.344h344.25v-14.344c-.001-52.814-38.031-90.844-90.845-90.844zm-110.37 0a40.01 40.01 0 0 1 5.145-9.562c5.278-7.201 14.525-14.344 30.514-14.344 15.864 0 24.814 7.162 29.825 14.344a38.905 38.905 0 0 1 4.82 9.562h-70.304zM89.605 258.186c0 52.814 47.593 100.407 100.406 100.407h153c52.813 0 90.844-47.593 90.844-100.407V234.28H89.605v23.906zM142.792 492.4c0 17.155 13.904 31.06 31.059 31.06s31.059-13.904 31.059-31.06c0-10.413-5.173-19.574-13.034-25.206l32.321-68.028c9.314 3.051 20.913 5.451 34.549 5.451 16.189 0 31.317-3.356 43.289-7.162l55.052 115.85a9.567 9.567 0 0 0 12.748 4.532c4.771-2.266 6.799-7.975 4.532-12.737l-54.401-114.491c4.753-2.133 7.669-3.729 8.052-3.94 2.305-1.281 3.127-4.188 1.846-6.502-1.281-2.305-4.207-3.127-6.503-1.846-.086.048-2.85 1.549-7.516 3.624l-6.56-13.789h-21.172l9.754 20.521c-11.045 3.423-24.719 6.378-39.12 6.378a100.398 100.398 0 0 1-30.371-4.676l10.557-22.224h-21.171l-6.981 14.688c-3.997-2.266-6.359-4.025-6.426-4.073-2.037-1.626-5.059-1.31-6.713.746a4.78 4.78 0 0 0 .727 6.713c.316.258 3.28 2.515 8.281 5.316l-33.191 69.845c-16.964.21-30.667 13.99-30.667 31.01zm31.059-14.324c4.217 0 7.965 1.855 10.586 4.753 2.295 2.543 3.729 5.871 3.729 9.562 0 7.908-6.417 14.324-14.325 14.324-.535 0-1.042-.096-1.568-.162-7.163-.794-12.756-6.79-12.756-14.162 0-.736.105-1.444.22-2.152a14.194 14.194 0 0 1 3.529-7.43c2.638-2.887 6.377-4.733 10.585-4.733zM224.675 46.912c0 13.148 9.974 19.871 15.262 21.583a4.786 4.786 0 0 0 5.996-3.042c.832-2.486-.516-5.192-2.993-6.043-.889-.306-8.692-3.261-8.692-12.498 0-1.979 2.084-4.781 4.303-7.746 3.404-4.571 7.65-10.251 7.65-17.652 0-13.301-11.667-20.521-12.164-20.827-2.248-1.358-5.154-.641-6.541 1.597-1.377 2.237-.669 5.183 1.559 6.569.076.048 7.583 4.81 7.583 12.661 0 4.227-2.792 7.966-5.757 11.934-3.05 4.083-6.206 8.31-6.206 13.464zM253.363 46.912c0 13.148 9.974 19.871 15.262 21.583a4.786 4.786 0 0 0 5.996-3.042c.832-2.486-.517-5.192-2.993-6.043-.89-.306-8.692-3.261-8.692-12.498 0-1.979 2.084-4.781 4.303-7.746 3.404-4.571 7.65-10.251 7.65-17.652 0-13.301-11.666-20.521-12.164-20.827-2.237-1.358-5.164-.641-6.541 1.597-1.377 2.237-.669 5.183 1.559 6.569.076.048 7.583 4.81 7.583 12.661 0 4.227-2.792 7.966-5.757 11.934-3.05 4.083-6.206 8.31-6.206 13.464zM282.05 46.912c0 13.148 9.974 19.871 15.262 21.583a4.786 4.786 0 0 0 5.996-3.042c.832-2.486-.517-5.192-2.993-6.043-.89-.306-8.692-3.261-8.692-12.498 0-1.979 2.084-4.781 4.303-7.746 3.404-4.571 7.65-10.251 7.65-17.652 0-13.301-11.666-20.521-12.164-20.827a4.777 4.777 0 0 0-6.54 1.597c-1.377 2.237-.67 5.183 1.559 6.569.076.048 7.583 4.81 7.583 12.661 0 4.227-2.793 7.966-5.757 11.934-3.051 4.083-6.207 8.31-6.207 13.464z"/></svg>