<svg xmlns="http://www.w3.org/2000/svg" width="525.938" height="525.938" style="enable-background:new 0 0 525.938 525.938" xml:space="preserve"><path d="M406.406 506.812 387.281 191.25c0-10.566-8.559-19.125-19.125-19.125H205.594c-10.566 0-19.125 8.559-19.125 19.125l-19.125 315.562c0 10.566 8.559 19.125 19.125 19.125h200.812c10.567.001 19.125-8.558 19.125-19.125zM148.219 66.938V39.445l124.552 15.568c-.134.774-.239 1.549-.239 2.362v57.375H224.72c-10.566 0-19.125 8.559-19.125 19.125v9.562c0 10.566 8.559 19.125 19.125 19.125h114.75c10.566 0 19.125-8.559 19.125-19.125v-9.562c0-10.566-8.559-19.125-19.125-19.125h-38.25V57.375c0-.86-.105-1.692-.249-2.515 5.824-3.28 9.812-9.448 9.812-16.61V19.125c0-1.645-.383-3.213-.612-4.771-.984-6.79-8.845-3.567-12.612-2.945-8.808 1.444-22.721 4.934-40.163 4.934C207.191 16.333 207.392 0 178.895 0h-40.239c-10.566 0-19.125 8.559-19.125 19.125v47.813c0 10.566 7.086 19.125 14.344 19.125s14.344-8.559 14.344-19.125z"/></svg>