<?xml version="1.0" encoding="iso-8859-1"?>
<!-- Generator: Adobe Illustrator 16.0.0, SVG Export Plug-In . SVG Version: 6.00 Build 0)  -->
<!DOCTYPE svg PUBLIC "-//W3C//DTD SVG 1.1//EN" "http://www.w3.org/Graphics/SVG/1.1/DTD/svg11.dtd">
<svg version="1.1" id="Capa_1" xmlns="http://www.w3.org/2000/svg" xmlns:xlink="http://www.w3.org/1999/xlink" x="0px" y="0px"
	 width="525.938px" height="525.938px" viewBox="0 0 525.938 525.938" style="enable-background:new 0 0 525.938 525.938;"
	 xml:space="preserve">
<g>
	<g>
		<path d="M406.406,506.812L387.281,191.25c0-10.566-8.559-19.125-19.125-19.125H205.594c-10.566,0-19.125,8.559-19.125,19.125
			l-19.125,315.562c0,10.566,8.559,19.125,19.125,19.125h200.812C397.848,525.938,406.406,517.379,406.406,506.812z"/>
		<path d="M148.219,66.938V39.445l124.552,15.568c-0.134,0.774-0.239,1.549-0.239,2.362v57.375h-47.812
			c-10.566,0-19.125,8.559-19.125,19.125v9.562c0,10.566,8.559,19.125,19.125,19.125h114.75c10.566,0,19.125-8.559,19.125-19.125
			v-9.562c0-10.566-8.559-19.125-19.125-19.125h-38.25V57.375c0-0.86-0.105-1.692-0.249-2.515c5.824-3.28,9.812-9.448,9.812-16.61
			V19.125c0-1.645-0.383-3.213-0.612-4.771c-0.984-6.79-8.845-3.567-12.612-2.945c-8.808,1.444-22.721,4.934-40.163,4.934
			C207.191,16.333,207.392,0,178.895,0c-2.983,0-40.239,0-40.239,0c-10.566,0-19.125,8.559-19.125,19.125V38.25v28.688
			c0,10.566,7.086,19.125,14.344,19.125S148.219,77.504,148.219,66.938z"/>
	</g>
</g>
<g>
</g>
<g>
</g>
<g>
</g>
<g>
</g>
<g>
</g>
<g>
</g>
<g>
</g>
<g>
</g>
<g>
</g>
<g>
</g>
<g>
</g>
<g>
</g>
<g>
</g>
<g>
</g>
<g>
</g>
</svg>
