<?xml version="1.0" encoding="iso-8859-1"?>
<!-- Generator: Adobe Illustrator 16.0.0, SVG Export Plug-In . SVG Version: 6.00 Build 0)  -->
<!DOCTYPE svg PUBLIC "-//W3C//DTD SVG 1.1//EN" "http://www.w3.org/Graphics/SVG/1.1/DTD/svg11.dtd">
<svg version="1.1" id="Capa_1" xmlns="http://www.w3.org/2000/svg" xmlns:xlink="http://www.w3.org/1999/xlink" x="0px" y="0px"
	 width="479.977px" height="479.977px" viewBox="0 0 479.977 479.977" style="enable-background:new 0 0 479.977 479.977;"
	 xml:space="preserve">
<g>
	<path d="M54.014,4.686c75.831,70.59,70.6,169.945,70.6,169.945l0.449-0.02c9.945-19.144,29.577-31.709,52.049-31.709l0,0
		c3.251,0,6.493,0.363,9.725,0.899c-8.912-60.55-38.412-104.709-87.984-131.303c-8.874-4.762-17.662-8.501-26.01-11.494
		C61.301,2.419,54.014,4.686,54.014,4.686z"/>
	<path d="M223.939,166.043C212.934,26.479,141.167,1.252,94.473,0c43.28,20.569,91.188,62.213,102.376,146.335
		C207.875,150.236,217.17,157.198,223.939,166.043z"/>
	<path d="M417.6,313.889l-110.658-75.352c5.949-8.73,3.691-20.626-5.039-26.574c-8.73-5.948-20.627-3.691-26.574,5.039
		l-43.06,63.227c-5.947,8.73-3.691,20.627,5.04,26.574c8.731,5.947,20.625,3.691,26.575-5.039l110.656,75.352
		c8.73,5.949,20.627,3.691,26.574-5.039l21.535-31.613C428.586,331.732,426.331,319.836,417.6,313.889z"/>
	<path d="M262.045,219.526l-25.971-17.691c0,4.351-0.43,8.759-1.434,13.177c-3.653,16.017-13.541,29.042-26.689,37.093
		l21.803,14.852L262.045,219.526z"/>
	<path d="M92.016,470.982l37.293,8.51c10.299,2.352,20.55-4.092,22.902-14.391l29.797-130.52l0,0
		c10.298,2.352,20.549-4.092,22.902-14.391s-4.093-20.551-14.392-22.902l-74.578-17.031c-10.299-2.354-20.55,4.092-22.902,14.391
		c-2.352,10.299,4.093,20.551,14.392,22.902L77.624,448.08C75.271,458.379,81.717,468.629,92.016,470.982z"/>
	<path d="M134.377,242.438l-7,30.648l55.931,12.766l6.015-26.363l1.195-5.23l1.205-5.279c2.524-0.783,4.953-1.77,7.306-2.936
		c12.823-6.369,22.836-18.112,26.278-33.153c1.387-6.082,1.453-12.125,0.621-17.949c-1.281-8.97-5.049-17.26-10.682-24.165
		c-4.608-5.661-10.365-10.423-17.212-13.617c-3.117-1.454-6.407-2.64-9.897-3.433c-0.019-0.009-0.048-0.009-0.066-0.009
		c-3.682-0.832-7.354-1.243-10.969-1.243c-16.428,0-31.633,8.319-40.727,21.659c-3.375,4.954-5.977,10.557-7.392,16.763
		c-3.271,14.334,0.21,28.516,8.128,39.608l-1.406,6.167L134.377,242.438z M192.689,205.431c-1.96,8.578-10.5,13.952-19.086,11.991
		c-8.587-1.96-13.952-10.5-11.992-19.087c1.96-8.577,10.5-13.952,19.087-11.991C189.275,188.305,194.649,196.854,192.689,205.431z"
		/>
</g>
<g>
</g>
<g>
</g>
<g>
</g>
<g>
</g>
<g>
</g>
<g>
</g>
<g>
</g>
<g>
</g>
<g>
</g>
<g>
</g>
<g>
</g>
<g>
</g>
<g>
</g>
<g>
</g>
<g>
</g>
</svg>
