<svg xmlns="http://www.w3.org/2000/svg" width="479.977" height="479.977" style="enable-background:new 0 0 479.977 479.977" xml:space="preserve"><path d="M54.014 4.686c75.831 70.59 70.6 169.945 70.6 169.945l.449-.02c9.945-19.144 29.577-31.709 52.049-31.709 3.251 0 6.493.363 9.725.899-8.912-60.55-38.412-104.709-87.984-131.303-8.874-4.762-17.662-8.501-26.01-11.494-11.542 1.415-18.829 3.682-18.829 3.682z"/><path d="M223.939 166.043C212.934 26.479 141.167 1.252 94.473 0c43.28 20.569 91.188 62.213 102.376 146.335a58.743 58.743 0 0 1 27.09 19.708zM417.6 313.889l-110.658-75.352c5.949-8.73 3.691-20.626-5.039-26.574s-20.627-3.691-26.574 5.039l-43.06 63.227c-5.947 8.73-3.691 20.627 5.04 26.574 8.731 5.947 20.625 3.691 26.575-5.039l110.656 75.352c8.73 5.949 20.627 3.691 26.574-5.039l21.535-31.613c5.937-8.732 3.682-20.628-5.049-26.575zM262.045 219.526l-25.971-17.691c0 4.351-.43 8.759-1.434 13.177-3.653 16.017-13.541 29.042-26.689 37.093l21.803 14.852 32.291-47.431zM92.016 470.982l37.293 8.51c10.299 2.352 20.55-4.092 22.902-14.391l29.797-130.52c10.298 2.352 20.549-4.092 22.902-14.391s-4.093-20.551-14.392-22.902l-74.578-17.031c-10.299-2.354-20.55 4.092-22.902 14.391-2.352 10.299 4.093 20.551 14.392 22.902L77.624 448.08c-2.353 10.299 4.093 20.549 14.392 22.902zM134.377 242.438l-7 30.648 55.931 12.766 6.015-26.363 1.195-5.23 1.205-5.279a49.384 49.384 0 0 0 7.306-2.936c12.823-6.369 22.836-18.112 26.278-33.153 1.387-6.082 1.453-12.125.621-17.949-1.281-8.97-5.049-17.26-10.682-24.165-4.608-5.661-10.365-10.423-17.212-13.617-3.117-1.454-6.407-2.64-9.897-3.433-.019-.009-.048-.009-.066-.009a49.736 49.736 0 0 0-10.969-1.243c-16.428 0-31.633 8.319-40.727 21.659-3.375 4.954-5.977 10.557-7.392 16.763-3.271 14.334.21 28.516 8.128 39.608l-1.406 6.167-1.328 5.766zm58.312-37.007c-1.96 8.578-10.5 13.952-19.086 11.991-8.587-1.96-13.952-10.5-11.992-19.087 1.96-8.577 10.5-13.952 19.087-11.991 8.577 1.961 13.951 10.51 11.991 19.087z"/></svg>