<?xml version="1.0" encoding="iso-8859-1"?>
<!-- Generator: Adobe Illustrator 16.0.0, SVG Export Plug-In . SVG Version: 6.00 Build 0)  -->
<!DOCTYPE svg PUBLIC "-//W3C//DTD SVG 1.1//EN" "http://www.w3.org/Graphics/SVG/1.1/DTD/svg11.dtd">
<svg version="1.1" id="Capa_1" xmlns="http://www.w3.org/2000/svg" xmlns:xlink="http://www.w3.org/1999/xlink" x="0px" y="0px"
	 width="469.519px" height="469.519px" viewBox="0 0 469.519 469.519" style="enable-background:new 0 0 469.519 469.519;"
	 xml:space="preserve">
<g>
	<path d="M122.4,469.519h223.763V59.766H122.4V469.519z M315.562,218.981c10.52,0,18.648,8.128,18.648,18.646
		s-8.129,18.647-18.648,18.647c-10.518,0-18.646-8.129-18.646-18.647S305.044,218.981,315.562,218.981z"/>
	<circle cx="315.562" cy="237.628" r="10.997"/>
	<polygon points="96.104,29.644 120.01,52.116 348.554,52.116 372.937,29.644 	"/>
	<polygon points="91.8,21.994 377.718,21.994 406.406,0 63.113,0 	"/>
	<polygon points="353.812,469.519 375.806,469.519 375.806,36.815 353.812,57.853 	"/>
	<polygon points="114.75,57.375 92.756,36.337 92.756,469.041 114.75,469.041 	"/>
</g>
<g>
</g>
<g>
</g>
<g>
</g>
<g>
</g>
<g>
</g>
<g>
</g>
<g>
</g>
<g>
</g>
<g>
</g>
<g>
</g>
<g>
</g>
<g>
</g>
<g>
</g>
<g>
</g>
<g>
</g>
</svg>
