<svg xmlns="http://www.w3.org/2000/svg" width="526.941" height="526.941" style="enable-background:new 0 0 526.941 526.941" xml:space="preserve"><path d="M20.736 461.945c-.775 17.604-1.501 35.219-1.501 38.699 0 10.978 32.283 26.297 84.867 26.297 52.718 0 86.359-16.113 86.359-27.196v-36.863c-20.808 10.71-52.46 16.247-83.968 16.247-32.417 0-64.997-5.862-85.757-17.184zM202.414 0c-41.683 0-67.435 24.814-81.692 45.632-16.208 23.658-25.886 54.439-25.886 82.372V405.909c-29.682 1.367-52.67 7.793-65.551 14.869-5.279 2.907-8.836 5.9-10.452 8.712-.66 1.138-1.09 2.257-1.09 3.309 0 2.122 1.406 4.456 3.997 6.847 10.624 9.772 41.865 20.349 84.752 20.349 38.479 0 67.53-8.521 80.784-17.327 5.058-3.356 7.87-6.761 7.937-9.744 0-.038.019-.076.019-.124 0-2.841-2.505-6.072-7.076-9.285-11.991-8.435-38.623-16.726-74.205-17.768V128.003c0-45.642 30.734-108.869 88.453-108.869 47.832 0 87.028 34.004 101.821 48.778l12.833-14.287C299.827 36.414 256.93 0 202.414 0z"/><path d="m330.035 53.492-6.349 7.067-11.581 12.9-2.352 2.62 50.614 49.199 25.656-29.319zM405.895 102.003h-12.441l-28.114 32.13 1.377 3.969 2.037 5.871.688 1.979c9.515-5.919 25.589-19.01 36.453-43.949zM415.295 104.47c-.957 2.285-2.037 4.284-3.061 6.388-.966 1.97-1.903 3.997-2.916 5.824-10.003 17.958-22.138 28.85-31.261 35.084-2.562 1.76-4.896 3.185-6.847 4.255-.258.144-.583.344-.822.478l2.869 4.083 55.807 79.282c7.2-2.458 26.718-10.719 49.677-33.669 23.161-23.16 29.042-45.708 30.457-53.674l-92.364-47.267-1.539-.784z"/></svg>