<?xml version="1.0" encoding="iso-8859-1"?>
<!-- Generator: Adobe Illustrator 16.0.0, SVG Export Plug-In . SVG Version: 6.00 Build 0)  -->
<!DOCTYPE svg PUBLIC "-//W3C//DTD SVG 1.1//EN" "http://www.w3.org/Graphics/SVG/1.1/DTD/svg11.dtd">
<svg version="1.1" id="Capa_1" xmlns="http://www.w3.org/2000/svg" xmlns:xlink="http://www.w3.org/1999/xlink" x="0px" y="0px"
	 width="526.941px" height="526.941px" viewBox="0 0 526.941 526.941" style="enable-background:new 0 0 526.941 526.941;"
	 xml:space="preserve">
<g>
	<path d="M20.736,461.945c-0.775,17.604-1.501,35.219-1.501,38.699c0,10.978,32.283,26.297,84.867,26.297
		c52.718,0,86.359-16.113,86.359-27.196v-36.863c-20.808,10.71-52.46,16.247-83.968,16.247
		C74.076,479.129,41.496,473.267,20.736,461.945z"/>
	<path d="M202.414,0c-41.683,0-67.435,24.814-81.692,45.632c-16.208,23.658-25.886,54.439-25.886,82.372v258.761v9.572v9.572
		c-29.682,1.367-52.67,7.793-65.551,14.869c-5.279,2.907-8.836,5.9-10.452,8.712c-0.66,1.138-1.09,2.257-1.09,3.309
		c0,2.122,1.406,4.456,3.997,6.847c10.624,9.772,41.865,20.349,84.752,20.349c38.479,0,67.53-8.521,80.784-17.327
		c5.058-3.356,7.87-6.761,7.937-9.744c0-0.038,0.019-0.076,0.019-0.124c0-2.841-2.505-6.072-7.076-9.285
		c-11.991-8.435-38.623-16.726-74.205-17.768v-9.562v-9.562V128.003c0-45.642,30.734-108.869,88.453-108.869
		c47.832,0,87.028,34.004,101.821,48.778l12.833-14.287C299.827,36.414,256.93,0,202.414,0z"/>
	<polygon points="330.035,53.492 323.686,60.559 312.105,73.459 309.753,76.079 360.367,125.278 386.023,95.959 	"/>
	<path d="M405.895,102.003h-2.926h-6.168h-3.347l-28.114,32.13l1.377,3.969l2.037,5.871l0.688,1.979
		C378.957,140.033,395.031,126.942,405.895,102.003z"/>
	<path d="M415.295,104.47c-0.957,2.285-2.037,4.284-3.061,6.388c-0.966,1.97-1.903,3.997-2.916,5.824
		c-10.003,17.958-22.138,28.85-31.261,35.084c-2.562,1.76-4.896,3.185-6.847,4.255c-0.258,0.144-0.583,0.344-0.822,0.478
		l2.869,4.083l55.807,79.282c7.2-2.458,26.718-10.719,49.677-33.669c23.161-23.16,29.042-45.708,30.457-53.674l-92.364-47.267
		L415.295,104.47z"/>
</g>
<g>
</g>
<g>
</g>
<g>
</g>
<g>
</g>
<g>
</g>
<g>
</g>
<g>
</g>
<g>
</g>
<g>
</g>
<g>
</g>
<g>
</g>
<g>
</g>
<g>
</g>
<g>
</g>
<g>
</g>
</svg>
