<?xml version="1.0" encoding="iso-8859-1"?>
<!-- Generator: Adobe Illustrator 16.0.0, SVG Export Plug-In . SVG Version: 6.00 Build 0)  -->
<!DOCTYPE svg PUBLIC "-//W3C//DTD SVG 1.1//EN" "http://www.w3.org/Graphics/SVG/1.1/DTD/svg11.dtd">
<svg version="1.1" id="Capa_1" xmlns="http://www.w3.org/2000/svg" xmlns:xlink="http://www.w3.org/1999/xlink" x="0px" y="0px"
	 width="516.854px" height="516.854px" viewBox="0 0 516.854 516.854" style="enable-background:new 0 0 516.854 516.854;"
	 xml:space="preserve">
<g>
	<path d="M412.622,346.402H293.568H135.788H12.909C2.869,346.402,0,352.617,0,360.267v9.084c0,7.65,3.347,12.91,12.909,12.91
		h399.713c10.04,0,13.388-4.781,13.388-12.432v-10.519C426.01,350.705,422.662,346.402,412.622,346.402z"/>
	<path d="M448.003,134.592c-16.256,0-30.6,5.737-42.553,14.822c-0.479-2.391-0.479-4.781-0.956-7.172H24.862
		c-1.912,10.519-2.869,21.038-2.869,31.556c0,64.068,32.513,120.487,81.759,154.912h221.372
		c30.122-20.559,53.55-49.246,67.416-83.193c12.431,16.734,32.512,27.253,54.984,27.253c38.25,0,69.328-31.078,69.328-69.328
		S485.775,134.592,448.003,134.592z M409.753,203.442c0-21.037,17.213-38.25,38.25-38.25c21.038,0,38.25,17.213,38.25,38.25
		c0,21.038-17.212,38.25-38.25,38.25C426.966,241.692,409.753,224.48,409.753,203.442z"/>
</g>
<g>
</g>
<g>
</g>
<g>
</g>
<g>
</g>
<g>
</g>
<g>
</g>
<g>
</g>
<g>
</g>
<g>
</g>
<g>
</g>
<g>
</g>
<g>
</g>
<g>
</g>
<g>
</g>
<g>
</g>
</svg>
