<svg xmlns="http://www.w3.org/2000/svg" width="554.627" height="554.627" style="enable-background:new 0 0 554.627 554.627" xml:space="preserve"><path d="M109.965 229.712c-1.014 3.634-1.387 8.109-1.387 13.101L93.04 530.549c0 13.301 8.559 24.078 19.125 24.078h28.688c10.566 0 19.125-10.777 19.125-24.078l-15.941-287.727c0-4.121-.258-7.812-.86-11.044 26.067-9.084 45.441-42.639 45.441-82.754 0-47.095-26.66-85.269-59.546-85.269-32.885 0-59.545 38.174-59.545 85.269-.002 37.504 16.933 69.28 40.438 80.688zM235.779 251.495c0 8.979 7.937 16.256 17.72 16.256h16.294l-14.191 262.797c0 13.301 8.559 24.078 19.125 24.078h28.687c10.566 0 19.125-10.777 19.125-24.078l-14.553-262.797h16.408c9.793 0 17.719-7.277 17.719-16.256l8.865-46.378c0-.402-.096-.755-.135-1.138a13.8 13.8 0 0 0 .383-3.165v-95.625c0-7.927-6.416-14.344-14.344-14.344s-14.344 6.417-14.344 14.344v95.624c0 5.278-4.283 9.562-9.562 9.562-5.277 0-9.562-4.284-9.562-9.562v-95.624c0-7.927-6.416-14.344-14.344-14.344-7.927 0-14.343 6.417-14.343 14.344v95.624c0 5.278-4.284 9.562-9.562 9.562s-9.562-4.284-9.562-9.562v-95.624c0-7.927-6.417-14.344-14.344-14.344s-14.344 6.417-14.344 14.344v95.625c0 .784.105 1.53.229 2.276-.096.669-.229 1.31-.229 2.027l8.864 46.378zM475.539 258.189V19.126c0-10.566-11.217-19.125-25.043-19.125 0 0-21.918-2.391-50.1 174.516-4.283 26.89 12.527 83.672 12.527 83.672 0 8.951 8.08 16.399 18.953 18.484l-13.713 253.875c0 13.301 8.559 24.078 19.125 24.078h28.688c10.566 0 19.125-10.777 19.125-24.078l-14.459-261.095c3.042-3.164 4.897-7.037 4.897-11.264z"/></svg>