<?xml version="1.0" encoding="iso-8859-1"?>
<!-- Generator: Adobe Illustrator 16.0.0, SVG Export Plug-In . SVG Version: 6.00 Build 0)  -->
<!DOCTYPE svg PUBLIC "-//W3C//DTD SVG 1.1//EN" "http://www.w3.org/Graphics/SVG/1.1/DTD/svg11.dtd">
<svg version="1.1" id="Capa_1" xmlns="http://www.w3.org/2000/svg" xmlns:xlink="http://www.w3.org/1999/xlink" x="0px" y="0px"
	 width="535.5px" height="535.5px" viewBox="0 0 535.5 535.5" style="enable-background:new 0 0 535.5 535.5;" xml:space="preserve"
	>
<g>
	<g>
		<path d="M509.682,276.355V25.818H25.819v250.537H0v198.422h51.638H535.5V276.355H509.682z M380.109,43.031h103.753v216.112
			H380.109V43.031z M168.3,43.031h198.422v216.112h-94.669h-8.606H168.3V43.031z M51.638,43.031h103.753v216.112H51.638V43.031z
			 M172.603,440.354H51.638H25.819V310.781h25.819h120.965V440.354z M337.078,440.354H198.422v-51.639H336.6v51.639H337.078z
			 M337.078,362.896H198.422v-52.115H336.6v52.115H337.078z M509.682,440.354H362.896V310.781h146.785V440.354L509.682,440.354z"/>
		<path d="M501.075,319.387H371.503v112.359h129.572V319.387L501.075,319.387z M473.822,389.193
			c-5.738,0-10.997-4.781-10.997-10.996c0-5.738,4.781-10.998,10.997-10.998c5.737,0,10.996,4.781,10.996,10.998
			C484.818,384.412,480.037,389.193,473.822,389.193z"/>
		<rect x="60.244" y="51.637" width="86.541" height="198.422"/>
		<rect x="388.716" y="51.637" width="86.54" height="198.422"/>
		<path d="M263.447,51.637h-86.541v198.422h86.541V51.637z M245.278,155.868c-5.738,0-10.997-4.781-10.997-10.997
			c0-6.216,4.781-10.997,10.997-10.997c6.215,0,10.997,4.781,10.997,10.997C255.797,151.087,251.016,155.868,245.278,155.868z"/>
		<path d="M358.594,51.637h-86.541v198.422h86.541V51.637z M289.744,155.868c-5.738,0-10.997-4.781-10.997-10.997
			c0-6.216,4.781-10.997,10.997-10.997c5.737,0,10.996,4.781,10.996,10.997C300.74,151.087,295.959,155.868,289.744,155.868z"/>
		<path d="M34.425,319.387v112.359h17.213h112.359V319.387H51.638H34.425z M137.222,367.678c5.738,0,10.997,4.781,10.997,10.996
			c0,5.738-4.781,10.998-10.997,10.998c-6.215,0-10.997-4.781-10.997-10.998C126.225,372.459,131.006,367.678,137.222,367.678z"/>
		<rect x="17.212" y="492.469" width="43.031" height="17.213"/>
		<rect x="475.256" y="492.469" width="43.031" height="17.213"/>
	</g>
</g>
<g>
</g>
<g>
</g>
<g>
</g>
<g>
</g>
<g>
</g>
<g>
</g>
<g>
</g>
<g>
</g>
<g>
</g>
<g>
</g>
<g>
</g>
<g>
</g>
<g>
</g>
<g>
</g>
<g>
</g>
</svg>
