<?xml version="1.0" encoding="iso-8859-1"?>
<!-- Generator: Adobe Illustrator 16.0.0, SVG Export Plug-In . SVG Version: 6.00 Build 0)  -->
<!DOCTYPE svg PUBLIC "-//W3C//DTD SVG 1.1//EN" "http://www.w3.org/Graphics/SVG/1.1/DTD/svg11.dtd">
<svg version="1.1" id="Capa_1" xmlns="http://www.w3.org/2000/svg" xmlns:xlink="http://www.w3.org/1999/xlink" x="0px" y="0px"
	 width="602.438px" height="602.438px" viewBox="0 0 602.438 602.438" style="enable-background:new 0 0 602.438 602.438;"
	 xml:space="preserve">
<g>
	<path d="M272.531,363.375H138.656v181.688h133.875V363.375z M236.069,466.172c-6.273,0-11.351-5.087-11.351-11.36
		c0-6.272,5.087-11.36,11.351-11.36c6.273,0,11.36,5.088,11.36,11.36C247.43,461.085,242.342,466.172,236.069,466.172z"/>
	<path d="M109.969,334.688v210.375v28.688v28.688h28.688V573.75h133.875v28.688h28.688V573.75v-28.688V334.688h-66.938H109.969z
		 M282.094,545.062v9.562h-9.562H138.656h-9.562v-9.562v-191.25h153V545.062z"/>
	<path d="M310.781,334.688v210.375v28.688v28.688h28.688V573.75h133.875v28.688h28.688V573.75v-28.688V334.688h-114.75H310.781z
		 M482.906,545.062v9.562h-9.562H339.469h-9.562v-9.562v-191.25h153V545.062z"/>
	<path d="M473.344,363.375H339.469v181.688h133.875V363.375z M446.444,466.172c-6.272,0-11.351-5.087-11.351-11.36
		c0-6.272,5.087-11.36,11.351-11.36c6.273,0,11.36,5.088,11.36,11.36C457.805,461.085,452.718,466.172,446.444,466.172z"/>
	<path d="M301.219,0h-66.938H100.406v277.312h200.812h200.812V0h-114.75H301.219z M291.656,267.75H109.969V9.562h181.688V267.75z
		 M492.469,267.75H310.781V9.562h181.688V267.75z"/>
	<path d="M129.094,28.688h19.125v40.373c-12.278,11.676-21.114,41.338-21.114,55.051c0,0.067,0.019,0.134,0.019,0.201h62.51
		c0-0.067,0.019-0.134,0.019-0.201c0-14.153-9.409-45.346-22.309-56.161V28.688h19.125c2.639,0,4.781-2.142,4.781-4.781
		s-2.142-4.781-4.781-4.781h-57.375c-2.639,0-4.781,2.142-4.781,4.781S126.455,28.688,129.094,28.688z"/>
	<path d="M215.156,28.688h19.125v40.373c-12.278,11.676-21.114,41.338-21.114,55.051c0,0.067,0.019,0.134,0.019,0.201h62.51
		c0-0.067,0.02-0.134,0.02-0.201c0-14.153-9.41-45.346-22.31-56.161V28.688h19.125c2.639,0,4.781-2.142,4.781-4.781
		s-2.142-4.781-4.781-4.781h-57.375c-2.639,0-4.781,2.142-4.781,4.781S212.517,28.688,215.156,28.688z"/>
	<path d="M329.906,28.688h19.125v40.373c-12.278,11.676-21.114,41.338-21.114,55.051c0,0.067,0.02,0.134,0.02,0.201h62.51
		c0-0.067,0.02-0.134,0.02-0.201c0-14.153-9.41-45.346-22.31-56.161V28.688h19.125c2.64,0,4.781-2.142,4.781-4.781
		s-2.142-4.781-4.781-4.781h-57.375c-2.64,0-4.781,2.142-4.781,4.781S327.267,28.688,329.906,28.688z"/>
	<path d="M415.969,28.688h19.125v40.373c-12.278,11.676-21.114,41.338-21.114,55.051c0,0.067,0.02,0.134,0.02,0.201h62.51
		c0-0.067,0.02-0.134,0.02-0.201c0-14.153-9.41-45.346-22.31-56.161V28.688h19.125c2.64,0,4.781-2.142,4.781-4.781
		s-2.142-4.781-4.781-4.781h-57.375c-2.64,0-4.781,2.142-4.781,4.781S413.329,28.688,415.969,28.688z"/>
	<path d="M129.094,153h19.125v40.373c-12.278,11.676-21.114,41.338-21.114,55.051c0,0.067,0.019,0.134,0.019,0.201h62.51
		c0-0.067,0.019-0.134,0.019-0.201c0-14.153-9.409-45.346-22.309-56.161V153h19.125c2.639,0,4.781-2.142,4.781-4.781
		s-2.142-4.781-4.781-4.781h-57.375c-2.639,0-4.781,2.142-4.781,4.781S126.455,153,129.094,153z"/>
	<path d="M215.156,153h19.125v40.373c-12.278,11.676-21.114,41.338-21.114,55.051c0,0.067,0.019,0.134,0.019,0.201h62.51
		c0-0.067,0.02-0.134,0.02-0.201c0-14.153-9.41-45.346-22.31-56.161V153h19.125c2.639,0,4.781-2.142,4.781-4.781
		s-2.142-4.781-4.781-4.781h-57.375c-2.639,0-4.781,2.142-4.781,4.781S212.517,153,215.156,153z"/>
	<path d="M329.906,153h19.125v40.373c-12.278,11.676-21.114,41.338-21.114,55.051c0,0.067,0.02,0.134,0.02,0.201h62.51
		c0-0.067,0.02-0.134,0.02-0.201c0-14.153-9.41-45.346-22.31-56.161V153h19.125c2.64,0,4.781-2.142,4.781-4.781
		s-2.142-4.781-4.781-4.781h-57.375c-2.64,0-4.781,2.142-4.781,4.781S327.267,153,329.906,153z"/>
	<path d="M415.969,153h19.125v40.373c-12.278,11.676-21.114,41.338-21.114,55.051c0,0.067,0.02,0.134,0.02,0.201h62.51
		c0-0.067,0.02-0.134,0.02-0.201c0-14.153-9.41-45.346-22.31-56.161V153h19.125c2.64,0,4.781-2.142,4.781-4.781
		s-2.142-4.781-4.781-4.781h-57.375c-2.64,0-4.781,2.142-4.781,4.781S413.329,153,415.969,153z"/>
</g>
<g>
</g>
<g>
</g>
<g>
</g>
<g>
</g>
<g>
</g>
<g>
</g>
<g>
</g>
<g>
</g>
<g>
</g>
<g>
</g>
<g>
</g>
<g>
</g>
<g>
</g>
<g>
</g>
<g>
</g>
</svg>
