<?xml version="1.0" encoding="iso-8859-1"?>
<!-- Generator: Adobe Illustrator 16.0.0, SVG Export Plug-In . SVG Version: 6.00 Build 0)  -->
<!DOCTYPE svg PUBLIC "-//W3C//DTD SVG 1.1//EN" "http://www.w3.org/Graphics/SVG/1.1/DTD/svg11.dtd">
<svg version="1.1" id="Capa_1" xmlns="http://www.w3.org/2000/svg" xmlns:xlink="http://www.w3.org/1999/xlink" x="0px" y="0px"
	 width="573.75px" height="573.75px" viewBox="0 0 573.75 573.75" style="enable-background:new 0 0 573.75 573.75;"
	 xml:space="preserve">
<g>
	<g>
		<path d="M0,103.093v367.563h573.75V103.093H0z M109.615,239.789l8.09,153.909c0,7.392-4.408,14.2-9.849,14.2H93.082
			c-5.441,0-9.85-6.809-9.85-14.2l7.956-155.142c-11.686-6.206-20.062-22.166-20.062-41.062c0-24.25,13.722-43.911,30.667-43.911
			c16.935,0,30.667,19.66,30.667,43.92C132.45,217.853,122.725,234.807,109.615,239.789z M285.689,409.552
			c-73.22,0-132.775-59.564-132.775-132.766s59.564-132.766,132.775-132.766c73.21,0,132.766,59.564,132.766,132.766
			S358.899,409.552,285.689,409.552z M514.988,245.345c0,4.628-4.628,10.136-10.327,10.136h-10.404l7.325,131.427
			c0,6.847-4.408,12.01-9.85,12.01h-14.774c-5.44,0-9.849-5.163-9.849-12.01l7.133-131.418h-10.9
			c-5.699,0-10.328-5.518-10.328-10.136l-5.164-25.723c0-0.564,0.259-1.09,0.393-1.645v-52.145c0-4.944,4.007-8.97,8.96-8.97
			s8.97,4.017,8.97,8.97v44.829v8.97c0,2.477,2.008,4.485,4.484,4.485c2.478,0,4.485-2.008,4.485-4.485v-8.97v-44.829
			c0-4.944,4.007-8.97,8.97-8.97s8.96,4.017,8.96,8.97v44.829v8.97c0,2.477,2.008,4.485,4.484,4.485
			c2.478,0,4.485-2.008,4.485-4.485v-8.97v-44.829c0-4.944,4.007-8.97,8.96-8.97s8.97,4.017,8.97,8.97v53.015
			c0.028,0.258,0.191,0.497,0.191,0.774L514.988,245.345z"/>
		<path d="M285.689,200.784c-41.913,0-76.003,34.09-76.003,75.993c0,41.903,34.09,75.993,76.003,75.993
			c41.902,0,75.993-34.09,75.993-75.993C361.683,234.874,327.592,200.784,285.689,200.784z M285.689,334.85
			c-32.025,0-58.073-26.039-58.073-58.063c0-32.025,26.048-58.063,58.073-58.063c32.015,0,58.063,26.048,58.063,58.063
			C343.753,308.802,317.704,334.85,285.689,334.85z"/>
	</g>
</g>
<g>
</g>
<g>
</g>
<g>
</g>
<g>
</g>
<g>
</g>
<g>
</g>
<g>
</g>
<g>
</g>
<g>
</g>
<g>
</g>
<g>
</g>
<g>
</g>
<g>
</g>
<g>
</g>
<g>
</g>
</svg>
