<svg xmlns="http://www.w3.org/2000/svg" width="528.453" height="528.453" style="enable-background:new 0 0 528.453 528.453" xml:space="preserve"><path d="M49.214 419.412h-.517l-8.271-134.211H25.164v234.865h15.262l4.399-50.328h74.463l6.225 50.328h8.712V419.412H49.214zm69.032 41.94H45.551l1.473-16.771h69.156l2.066 16.771zM477.652 419.412H385.86V520.076h14.994l6.226-50.328h74.463l4.398 50.328h17.347V285.201h-17.355l-8.281 134.211zm3.146 41.94h-72.694l2.075-16.771h69.156l1.463 16.771z"/><path d="M436.18 361.691v-27.156a7.392 7.392 0 0 0-7.392-7.393H99.656a7.392 7.392 0 0 0-7.392 7.393v27.156a7.392 7.392 0 0 0 7.392 7.393h93.273v16.771h33.555v124.887c0 .326.077.621.096.938h-33.641v16.773h142.596V511.68h-33.641c.019-.316.096-.621.096-.938V385.855h33.555v-16.771h93.272c4.064 0 7.363-3.309 7.363-7.393zM214.702 0v120.153h-5.632c-6.712 22.434-16.151 41.444-16.151 71.977 0 27.215 10.796 50.595 13.359 64.145h29.261c5.221-15.405 11.379-37.772 11.379-64.145 0-30.543-7.287-49.553-14-71.977h-7.009V0h-11.207zM293.22 0v52.852h-5.067c-7.048 22.434-14.487 43.509-14.487 75.572 0 33.794 10.557 53.626 13.244 67.836h29.021c5.499-16.17 12.26-40.134 12.26-67.817 0-32.063-7.956-53.139-14.994-75.572h-8.75V0H293.22z"/></svg>