<svg xmlns="http://www.w3.org/2000/svg" width="516.854" height="516.854" style="enable-background:new 0 0 516.854 516.854" xml:space="preserve"><path d="M412.622 346.402H12.909C2.869 346.402 0 352.617 0 360.267v9.084c0 7.65 3.347 12.91 12.909 12.91h399.713c10.04 0 13.388-4.781 13.388-12.432V359.31c0-8.605-3.348-12.908-13.388-12.908zM448.003 134.592c-16.256 0-30.6 5.737-42.553 14.822-.479-2.391-.479-4.781-.956-7.172H24.862c-1.912 10.519-2.869 21.038-2.869 31.556 0 64.068 32.513 120.487 81.759 154.912h221.372c30.122-20.559 53.55-49.246 67.416-83.193 12.431 16.734 32.512 27.253 54.984 27.253 38.25 0 69.328-31.078 69.328-69.328s-31.077-68.85-68.849-68.85zm-38.25 68.85c0-21.037 17.213-38.25 38.25-38.25 21.038 0 38.25 17.213 38.25 38.25 0 21.038-17.212 38.25-38.25 38.25-21.037 0-38.25-17.212-38.25-38.25z"/></svg>