<svg xmlns="http://www.w3.org/2000/svg" width="573.75" height="573.75" style="enable-background:new 0 0 573.75 573.75" xml:space="preserve"><path d="M0 103.093v367.563h573.75V103.093H0zm109.615 136.696 8.09 153.909c0 7.392-4.408 14.2-9.849 14.2H93.082c-5.441 0-9.85-6.809-9.85-14.2l7.956-155.142c-11.686-6.206-20.062-22.166-20.062-41.062 0-24.25 13.722-43.911 30.667-43.911 16.935 0 30.667 19.66 30.667 43.92-.01 20.35-9.735 37.304-22.845 42.286zm176.074 169.763c-73.22 0-132.775-59.564-132.775-132.766S212.478 144.02 285.689 144.02c73.21 0 132.766 59.564 132.766 132.766s-59.556 132.766-132.766 132.766zm229.299-164.207c0 4.628-4.628 10.136-10.327 10.136h-10.404l7.325 131.427c0 6.847-4.408 12.01-9.85 12.01h-14.774c-5.44 0-9.849-5.163-9.849-12.01l7.133-131.418h-10.9c-5.699 0-10.328-5.518-10.328-10.136l-5.164-25.723c0-.564.259-1.09.393-1.645v-52.145c0-4.944 4.007-8.97 8.96-8.97s8.97 4.017 8.97 8.97v53.799a4.485 4.485 0 1 0 8.969 0v-53.799c0-4.944 4.007-8.97 8.97-8.97s8.96 4.017 8.96 8.97v53.799a4.485 4.485 0 1 0 8.969 0v-53.799c0-4.944 4.007-8.97 8.96-8.97s8.97 4.017 8.97 8.97v53.015c.028.258.191.497.191.774l-5.174 25.715z"/><path d="M285.689 200.784c-41.913 0-76.003 34.09-76.003 75.993 0 41.903 34.09 75.993 76.003 75.993 41.902 0 75.993-34.09 75.993-75.993.001-41.903-34.09-75.993-75.993-75.993zm0 134.066c-32.025 0-58.073-26.039-58.073-58.063 0-32.025 26.048-58.063 58.073-58.063 32.015 0 58.063 26.048 58.063 58.063.001 32.015-26.048 58.063-58.063 58.063z"/></svg>