<?xml version="1.0" encoding="iso-8859-1"?>
<!-- Generator: Adobe Illustrator 16.0.0, SVG Export Plug-In . SVG Version: 6.00 Build 0)  -->
<!DOCTYPE svg PUBLIC "-//W3C//DTD SVG 1.1//EN" "http://www.w3.org/Graphics/SVG/1.1/DTD/svg11.dtd">
<svg version="1.1" id="Capa_1" xmlns="http://www.w3.org/2000/svg" xmlns:xlink="http://www.w3.org/1999/xlink" x="0px" y="0px"
	 width="554.627px" height="554.627px" viewBox="0 0 554.627 554.627" style="enable-background:new 0 0 554.627 554.627;"
	 xml:space="preserve">
<g>
	<path d="M109.965,229.712c-1.014,3.634-1.387,8.109-1.387,13.101L93.04,530.549c0,13.301,8.559,24.078,19.125,24.078h28.688
		c10.566,0,19.125-10.777,19.125-24.078l-15.941-287.727c0-4.121-0.258-7.812-0.86-11.044c26.067-9.084,45.441-42.639,45.441-82.754
		c0-47.095-26.66-85.269-59.546-85.269c-32.885,0-59.545,38.174-59.545,85.269C69.525,186.528,86.46,218.304,109.965,229.712z"/>
	<path d="M235.779,251.495c0,8.979,7.937,16.256,17.72,16.256h16.294l-14.191,262.797c0,13.301,8.559,24.078,19.125,24.078h28.687
		c10.566,0,19.125-10.777,19.125-24.078l-14.553-262.797h16.408c9.793,0,17.719-7.277,17.719-16.256l8.865-46.378
		c0-0.402-0.096-0.755-0.135-1.138c0.24-1.023,0.383-2.075,0.383-3.165v-95.625c0-7.927-6.416-14.344-14.344-14.344
		s-14.344,6.417-14.344,14.344v86.062v9.562c0,5.278-4.283,9.562-9.562,9.562c-5.277,0-9.562-4.284-9.562-9.562v-9.562v-86.062
		c0-7.927-6.416-14.344-14.344-14.344c-7.927,0-14.343,6.417-14.343,14.344v86.062v9.562c0,5.278-4.284,9.562-9.562,9.562
		s-9.562-4.284-9.562-9.562v-9.562v-86.062c0-7.927-6.417-14.344-14.344-14.344s-14.344,6.417-14.344,14.344v95.625
		c0,0.784,0.105,1.53,0.229,2.276c-0.096,0.669-0.229,1.31-0.229,2.027L235.779,251.495z"/>
	<path d="M475.539,258.189V19.126c0-10.566-11.217-19.125-25.043-19.125c0,0-21.918-2.391-50.1,174.516
		c-4.283,26.89,12.527,83.672,12.527,83.672c0,8.951,8.08,16.399,18.953,18.484l-13.713,253.875
		c0,13.301,8.559,24.078,19.125,24.078h28.688c10.566,0,19.125-10.777,19.125-24.078l-14.459-261.095
		C473.684,266.289,475.539,262.416,475.539,258.189z"/>
</g>
<g>
</g>
<g>
</g>
<g>
</g>
<g>
</g>
<g>
</g>
<g>
</g>
<g>
</g>
<g>
</g>
<g>
</g>
<g>
</g>
<g>
</g>
<g>
</g>
<g>
</g>
<g>
</g>
<g>
</g>
</svg>
