<svg xmlns="http://www.w3.org/2000/svg" width="545.062" height="545.062" style="enable-background:new 0 0 545.062 545.062" xml:space="preserve"><path d="M38.25 315.562h28.688v9.562H38.25zM38.25 372.938h28.688v9.562H38.25zM38.25 353.812h28.688v9.562H38.25zM38.25 296.438h28.688V306H38.25zM38.25 334.688h28.688v9.562H38.25zM516.375 153v248.625h28.687V143.438h-28.687zM478.125 181.688h28.688v9.562h-28.688zM478.125 258.188h28.688v9.562h-28.688zM478.125 277.312h28.688v9.562h-28.688zM478.125 239.062h28.688v9.562h-28.688zM76.5 153v248.625h392.062V143.438H76.5zM478.125 219.938h28.688v9.562h-28.688zM478.125 200.812h28.688v9.562h-28.688zM478.125 296.438h28.688V306h-28.688zM478.125 315.562h28.688v9.562h-28.688zM478.125 372.938h28.688v9.562h-28.688zM38.25 392.062h28.688v9.562H38.25zM478.125 143.438h28.688V153h-28.688zM478.125 353.812h28.688v9.562h-28.688zM38.25 143.438h28.688V153H38.25zM478.125 334.688h28.688v9.562h-28.688zM478.125 392.062h28.688v9.562h-28.688zM478.125 162.562h28.688v9.562h-28.688zM38.25 219.938h28.688v9.562H38.25zM38.25 162.562h28.688v9.562H38.25zM38.25 239.062h28.688v9.562H38.25zM38.25 277.312h28.688v9.562H38.25zM38.25 200.812h28.688v9.562H38.25zM38.25 181.688h28.688v9.562H38.25zM38.25 258.188h28.688v9.562H38.25zM0 143.438h28.688v258.188H0z"/></svg>