<svg xmlns="http://www.w3.org/2000/svg" width="535.5" height="535.5" style="enable-background:new 0 0 535.5 535.5" xml:space="preserve"><path d="M509.682 276.355V25.818H25.819v250.537H0v198.422h535.5V276.355h-25.818zM380.109 43.031h103.753v216.112H380.109V43.031zm-211.809 0h198.422v216.112H168.3V43.031zm-116.662 0h103.753v216.112H51.638V43.031zm120.965 397.323H25.819V310.781h146.784v129.573zm164.475 0H198.422v-51.639H336.6v51.639h.478zm0-77.458H198.422v-52.115H336.6v52.115h.478zm172.604 77.458H362.896V310.781h146.785v129.573h.001z"/><path d="M501.075 319.387H371.503v112.359h129.572V319.387zm-27.253 69.806c-5.738 0-10.997-4.781-10.997-10.996 0-5.738 4.781-10.998 10.997-10.998 5.737 0 10.996 4.781 10.996 10.998 0 6.215-4.781 10.996-10.996 10.996zM60.244 51.637h86.541v198.422H60.244zM388.716 51.637h86.54v198.422h-86.54zM263.447 51.637h-86.541v198.422h86.541V51.637zm-18.169 104.231c-5.738 0-10.997-4.781-10.997-10.997s4.781-10.997 10.997-10.997c6.215 0 10.997 4.781 10.997 10.997-.478 6.216-5.259 10.997-10.997 10.997zM358.594 51.637h-86.541v198.422h86.541V51.637zm-68.85 104.231c-5.738 0-10.997-4.781-10.997-10.997s4.781-10.997 10.997-10.997c5.737 0 10.996 4.781 10.996 10.997s-4.781 10.997-10.996 10.997zM34.425 319.387v112.359h129.572V319.387H34.425zm102.797 48.291c5.738 0 10.997 4.781 10.997 10.996 0 5.738-4.781 10.998-10.997 10.998-6.215 0-10.997-4.781-10.997-10.998 0-6.215 4.781-10.996 10.997-10.996zM17.212 492.469h43.031v17.213H17.212zM475.256 492.469h43.031v17.213h-43.031z"/></svg>