<svg xmlns="http://www.w3.org/2000/svg" width="602.438" height="602.438" style="enable-background:new 0 0 602.438 602.438" xml:space="preserve"><path d="M272.531 363.375H138.656v181.688h133.875V363.375zm-36.462 102.797c-6.273 0-11.351-5.087-11.351-11.36 0-6.272 5.087-11.36 11.351-11.36 6.273 0 11.36 5.088 11.36 11.36.001 6.273-5.087 11.36-11.36 11.36z"/><path d="M109.969 334.688v267.751h28.688V573.75h133.875v28.688h28.688v-267.75H109.969zm172.125 210.374v9.562H129.094V353.812h153v191.25zM310.781 334.688v267.751h28.688V573.75h133.875v28.688h28.688v-267.75H310.781zm172.125 210.374v9.562H329.907V353.812h153v191.25z"/><path d="M473.344 363.375H339.469v181.688h133.875V363.375zm-26.9 102.797c-6.272 0-11.351-5.087-11.351-11.36 0-6.272 5.087-11.36 11.351-11.36 6.273 0 11.36 5.088 11.36 11.36.001 6.273-5.086 11.36-11.36 11.36zM301.219 0H100.406v277.312H502.03V0H301.219zm-9.563 267.75H109.969V9.562h181.688V267.75zm200.813 0H310.781V9.562h181.688V267.75z"/><path d="M129.094 28.688h19.125v40.373c-12.278 11.676-21.114 41.338-21.114 55.051 0 .067.019.134.019.201h62.51c0-.067.019-.134.019-.201 0-14.153-9.409-45.346-22.309-56.161V28.688h19.125c2.639 0 4.781-2.142 4.781-4.781s-2.142-4.781-4.781-4.781h-57.375c-2.639 0-4.781 2.142-4.781 4.781s2.142 4.781 4.781 4.781zM215.156 28.688h19.125v40.373c-12.278 11.676-21.114 41.338-21.114 55.051 0 .067.019.134.019.201h62.51c0-.067.02-.134.02-.201 0-14.153-9.41-45.346-22.31-56.161V28.688h19.125c2.639 0 4.781-2.142 4.781-4.781s-2.142-4.781-4.781-4.781h-57.375c-2.639 0-4.781 2.142-4.781 4.781s2.142 4.781 4.781 4.781zM329.906 28.688h19.125v40.373c-12.278 11.676-21.114 41.338-21.114 55.051 0 .067.02.134.02.201h62.51c0-.067.02-.134.02-.201 0-14.153-9.41-45.346-22.31-56.161V28.688h19.125a4.782 4.782 0 0 0 0-9.562h-57.375a4.782 4.782 0 0 0-.001 9.562zM415.969 28.688h19.125v40.373c-12.278 11.676-21.114 41.338-21.114 55.051 0 .067.02.134.02.201h62.51c0-.067.02-.134.02-.201 0-14.153-9.41-45.346-22.31-56.161V28.688h19.125a4.782 4.782 0 0 0 0-9.562H415.97a4.782 4.782 0 0 0-.001 9.562zM129.094 153h19.125v40.373c-12.278 11.676-21.114 41.338-21.114 55.051 0 .067.019.134.019.201h62.51c0-.067.019-.134.019-.201 0-14.153-9.409-45.346-22.309-56.161V153h19.125c2.639 0 4.781-2.142 4.781-4.781s-2.142-4.781-4.781-4.781h-57.375c-2.639 0-4.781 2.142-4.781 4.781s2.142 4.781 4.781 4.781zM215.156 153h19.125v40.373c-12.278 11.676-21.114 41.338-21.114 55.051 0 .067.019.134.019.201h62.51c0-.067.02-.134.02-.201 0-14.153-9.41-45.346-22.31-56.161V153h19.125c2.639 0 4.781-2.142 4.781-4.781s-2.142-4.781-4.781-4.781h-57.375c-2.639 0-4.781 2.142-4.781 4.781s2.142 4.781 4.781 4.781zM329.906 153h19.125v40.373c-12.278 11.676-21.114 41.338-21.114 55.051 0 .067.02.134.02.201h62.51c0-.067.02-.134.02-.201 0-14.153-9.41-45.346-22.31-56.161V153h19.125a4.782 4.782 0 0 0 0-9.562h-57.375a4.782 4.782 0 0 0-.001 9.562zM415.969 153h19.125v40.373c-12.278 11.676-21.114 41.338-21.114 55.051 0 .067.02.134.02.201h62.51c0-.067.02-.134.02-.201 0-14.153-9.41-45.346-22.31-56.161V153h19.125a4.782 4.782 0 0 0 0-9.562H415.97a4.782 4.782 0 0 0-.001 9.562z"/></svg>