<?xml version="1.0" encoding="iso-8859-1"?>
<!-- Generator: Adobe Illustrator 16.0.0, SVG Export Plug-In . SVG Version: 6.00 Build 0)  -->
<!DOCTYPE svg PUBLIC "-//W3C//DTD SVG 1.1//EN" "http://www.w3.org/Graphics/SVG/1.1/DTD/svg11.dtd">
<svg version="1.1" id="Capa_1" xmlns="http://www.w3.org/2000/svg" xmlns:xlink="http://www.w3.org/1999/xlink" x="0px" y="0px"
	 width="528.453px" height="528.453px" viewBox="0 0 528.453 528.453" style="enable-background:new 0 0 528.453 528.453;"
	 xml:space="preserve">
<g>
	<g>
		<path d="M49.214,419.412h-0.517l-8.271-134.211H25.164v134.211v8.385v16.773v75.496h15.262l4.399-50.328h74.463l6.225,50.328
			h8.712v-54.525V444.58v-25.168h-21.152H49.214z M118.246,461.352H45.551l1.473-16.771h69.156L118.246,461.352z"/>
		<path d="M477.652,419.412h-0.517h-63.839h-27.436v25.168v75.496h14.994l6.226-50.328h74.463l4.398,50.328h17.347V444.58v-16.773
			v-8.387V285.201h-17.355L477.652,419.412z M480.798,461.352h-72.694l2.075-16.771h69.156L480.798,461.352z"/>
		<path d="M436.18,361.691v-27.156c0-4.084-3.309-7.393-7.392-7.393H99.656c-4.083,0-7.392,3.309-7.392,7.393v27.156
			c0,4.084,3.309,7.393,7.392,7.393h93.273v16.771h33.555v124.887c0,0.326,0.077,0.621,0.096,0.938h-33.641v16.773h50.328h41.941
			h50.327V511.68h-33.641c0.019-0.316,0.096-0.621,0.096-0.938V385.855h33.555v-16.771h93.272
			C432.881,369.084,436.18,365.775,436.18,361.691z"/>
		<path d="M214.702,0v120.153h-5.632c-6.712,22.434-16.151,41.444-16.151,71.977c0,27.215,10.796,50.595,13.359,64.145h29.261
			c5.221-15.405,11.379-37.772,11.379-64.145c0-30.543-7.287-49.553-14-71.977h-7.009V0H214.702z"/>
		<path d="M293.22,0v52.852h-5.067c-7.048,22.434-14.487,43.509-14.487,75.572c0,33.794,10.557,53.626,13.244,67.836h29.021
			c5.499-16.17,12.26-40.134,12.26-67.817c0-32.063-7.956-53.139-14.994-75.572h-8.75V0H293.22z"/>
	</g>
</g>
<g>
</g>
<g>
</g>
<g>
</g>
<g>
</g>
<g>
</g>
<g>
</g>
<g>
</g>
<g>
</g>
<g>
</g>
<g>
</g>
<g>
</g>
<g>
</g>
<g>
</g>
<g>
</g>
<g>
</g>
</svg>
