<svg xmlns="http://www.w3.org/2000/svg" width="602.438" height="602.438" style="enable-background:new 0 0 602.438 602.438" xml:space="preserve"><path d="M463.781 0H138.656v602.438h325.125V0zm-267.75 57.375v-9.562h210.375V267.75H196.031V57.375zm210.375 506.813H196.031V344.25h210.375v219.938zm17.93-235.477c-13.177 0-23.906-10.729-23.906-23.906s10.729-23.906 23.906-23.906 23.906 10.729 23.906 23.906c0 13.176-10.729 23.906-23.906 23.906z"/><path d="M234.281 392.062v-6.273l-28.687-25.98v188.055l28.687-28.687zM358.594 525.938H241.042l-28.688 28.687h177.729l-28.687-28.687zM361.396 382.5l28.687-28.688H213.215l31.671 28.688zM368.156 519.177l28.688 28.687V360.573l-28.688 28.688zM234.281 95.625v-6.273l-28.687-25.981v188.056l28.687-28.688zM358.594 229.5H241.042l-28.688 28.688h177.729L361.396 229.5zM361.396 86.062l28.687-28.687H213.215l31.671 28.687zM368.156 222.739l28.688 28.688V64.136l-28.688 28.687zM243.844 95.625h114.75v124.312h-114.75zM243.844 392.062h114.75v124.312h-114.75z"/><circle cx="424.336" cy="304.805" r="14.344"/></svg>