<svg xmlns="http://www.w3.org/2000/svg" width="501.4" height="501.4" style="enable-background:new 0 0 501.4 501.4" xml:space="preserve"><path d="M346.7 0h-192v394.7h192V0zm-10.599 220c0 8.101-6.601 14.7-14.7 14.7h-45.3c-7.5 0-13.601-5.6-14.5-12.9-.101-.6-.2-1.199-.2-1.8v-2.7c0-8.1 6.6-14.7 14.7-14.7h45.3c8.1 0 14.7 6.6 14.7 14.7v2.7z"/><path d="M321.4 213.3h-45.3c-2.2 0-4 1.8-4 4v2.7c0 2.2 1.8 4 4 4h45.3c1.7 0 3.2-1.1 3.7-2.7.1-.399.3-.899.3-1.3v-2.7c0-2.2-1.799-4-4-4zM378.7 416h-256l-21.4 21.4h298.801zM400.101 448H101.3L80 469.4h341.4zM80 480l-21.3 21.4h384L421.4 480z"/></svg>