<?xml version="1.0" encoding="iso-8859-1"?>
<!-- Generator: Adobe Illustrator 16.0.0, SVG Export Plug-In . SVG Version: 6.00 Build 0)  -->
<!DOCTYPE svg PUBLIC "-//W3C//DTD SVG 1.1//EN" "http://www.w3.org/Graphics/SVG/1.1/DTD/svg11.dtd">
<svg version="1.1" id="Capa_1" xmlns="http://www.w3.org/2000/svg" xmlns:xlink="http://www.w3.org/1999/xlink" x="0px" y="0px"
	 width="602.438px" height="602.438px" viewBox="0 0 602.438 602.438" style="enable-background:new 0 0 602.438 602.438;"
	 xml:space="preserve">
<g>
	<g>
		<path d="M463.781,0H138.656v602.438h325.125V0z M196.031,57.375v-9.562h210.375V267.75h-9.562H196.031V57.375z M406.406,564.188
			h-9.562H196.031V353.812v-9.562h210.375V564.188z M424.336,328.711c-13.177,0-23.906-10.729-23.906-23.906
			c0-13.177,10.729-23.906,23.906-23.906s23.906,10.729,23.906,23.906C448.242,317.981,437.513,328.711,424.336,328.711z"/>
		<polygon points="234.281,392.062 234.281,385.789 205.594,359.809 205.594,547.864 234.281,519.177 		"/>
		<polygon points="358.594,525.938 241.042,525.938 212.354,554.625 390.083,554.625 361.396,525.938 		"/>
		<polygon points="361.396,382.5 390.083,353.812 213.215,353.812 244.886,382.5 		"/>
		<polygon points="368.156,519.177 396.844,547.864 396.844,360.573 368.156,389.261 		"/>
		<polygon points="234.281,95.625 234.281,89.352 205.594,63.371 205.594,251.427 234.281,222.739 		"/>
		<polygon points="358.594,229.5 241.042,229.5 212.354,258.188 390.083,258.188 361.396,229.5 		"/>
		<polygon points="361.396,86.062 390.083,57.375 213.215,57.375 244.886,86.062 		"/>
		<polygon points="368.156,222.739 396.844,251.427 396.844,64.136 368.156,92.823 		"/>
		<rect x="243.844" y="95.625" width="114.75" height="124.312"/>
		<rect x="243.844" y="392.062" width="114.75" height="124.312"/>
		<circle cx="424.336" cy="304.805" r="14.344"/>
	</g>
</g>
<g>
</g>
<g>
</g>
<g>
</g>
<g>
</g>
<g>
</g>
<g>
</g>
<g>
</g>
<g>
</g>
<g>
</g>
<g>
</g>
<g>
</g>
<g>
</g>
<g>
</g>
<g>
</g>
<g>
</g>
</svg>
