<svg xmlns="http://www.w3.org/2000/svg" width="450.068" height="450.068" style="enable-background:new 0 0 450.068 450.068" xml:space="preserve"><path d="M.315 95.625h382.5V0H.315zM392.378 95.625h57.375v-76.5L392.378 0zM9.878 450.068l28.687-19.125V105.188H9.878zM57.69 105.188h-9.562v344.88l28.687-19.125V105.188h-9.562zM95.94 105.188h-9.562v344.88l28.687-19.125V105.188h-9.562zM134.19 105.188h-9.562v344.88l28.687-19.125V105.188h-9.562zM172.44 105.188h-9.562v344.88l28.687-19.125V105.188h-9.562zM210.69 105.188h-9.562v344.88l28.687-19.125V105.188h-9.562zM248.94 105.188h-9.562v344.88l28.687-19.125V105.188h-9.562zM287.19 105.188h-9.562v344.88l28.687-19.125V105.188h-9.562zM325.44 105.188h-9.562v344.88l28.687-19.125V105.188h-9.562zM363.69 105.188h-9.562v344.88l28.687-19.125V105.188h-9.562zM401.94 105.188h-9.562v344.88l47.812-31.88v-313h-28.687z"/></svg>