<?xml version="1.0" encoding="iso-8859-1"?>
<!-- Generator: Adobe Illustrator 16.0.0, SVG Export Plug-In . SVG Version: 6.00 Build 0)  -->
<!DOCTYPE svg PUBLIC "-//W3C//DTD SVG 1.1//EN" "http://www.w3.org/Graphics/SVG/1.1/DTD/svg11.dtd">
<svg version="1.1" id="Capa_1" xmlns="http://www.w3.org/2000/svg" xmlns:xlink="http://www.w3.org/1999/xlink" x="0px" y="0px"
	 width="573.75px" height="573.75px" viewBox="0 0 573.75 573.75" style="enable-background:new 0 0 573.75 573.75;"
	 xml:space="preserve">
<g>
	<g>
		<path d="M516.375,402.82h9.562v-22.95c-3.347,0-6.216,0-9.562,0V402.82z"/>
		<path d="M506.812,370.786c0.479,0,0.956,0,1.435,0c1.912,0,3.825,0,5.737-0.479c0.956,0,1.912,0,2.391,0
			c1.435,0,3.347-0.478,4.781-0.478s3.347,0,4.781,0.478c0.956,0,1.912,0,2.391,0c1.912,0,3.825,0.479,5.737,0.479
			c0.479,0,0.956,0,1.435,0c5.737-0.479,13.388-3.825,13.388-51.159c0-74.11-15.778-177.385-28.21-181.688
			c-11.953,3.825-27.73,107.1-27.73,181.688c0,22.472,1.434,36.815,5.259,44.465C500.597,368.873,502.987,370.308,506.812,370.786z"
			/>
		<path d="M57.375,402.82h9.562v-22.95c-3.347,0-6.216,0-9.562,0V402.82z"/>
		<path d="M286.875,106.383V27.492c-36.337,0-75.065,18.169-106.622,44.944l36.338,61.2
			C235.237,116.901,259.622,106.383,286.875,106.383z"/>
		<polygon points="392.062,460.195 392.062,546.258 459,546.258 459,494.143 453.263,460.195 		"/>
		<path d="M459,191.967L459,191.967c0-38.25-21.037-79.847-53.55-112.359l-37.772,64.069c11.476,13.387,19.125,30.122,22.473,48.291
			H459L459,191.967z"/>
		<rect x="392.062" y="288.07" width="66.938" height="76.5"/>
		<polygon points="449.438,412.383 449.438,402.82 459,402.82 459,374.133 392.062,374.133 392.062,450.633 451.828,450.633 
			449.438,431.508 		"/>
		<path d="M208.94,139.852l-35.859-61.2c-34.425,32.035-58.331,74.109-58.331,113.316v0.478h66.938v9.562H114.75v76.5h66.938V211.57
			c0-3.347,0-6.694,0.478-10.519c2.391-24.385,13.388-46.378,29.166-63.113L208.94,139.852z"/>
		<path d="M398.278,73.392c-27.731-25.34-63.591-42.553-101.841-45.422v78.891c24.862,2.391,47.334,13.388,64.547,30.122
			L398.278,73.392z"/>
		<path d="M392.062,278.508H459v-76.5h-67.416c0.479,3.347,0.479,6.216,0.479,9.562V278.508z"/>
		<polygon points="114.75,402.82 124.312,402.82 125.269,431.508 124.312,441.07 121.922,450.633 181.688,450.633 181.688,374.133 
			114.75,374.133 		"/>
		<rect x="114.75" y="288.07" width="66.938" height="76.5"/>
		<polygon points="114.75,494.143 114.75,546.258 181.688,546.258 181.688,460.195 120.487,460.195 		"/>
		<path d="M286.875,115.945c-52.594,0-95.625,43.031-95.625,95.625v334.688H382.5v-86.062v-9.562v-76.5v-9.562v-76.5v-9.562V211.57
			C382.5,158.977,339.469,115.945,286.875,115.945z M219.938,211.57c0-2.391,0-4.781,0.478-6.694
			c2.869-28.209,22.95-51.637,50.681-58.331l5.738-1.435v171.647h-9.562h-47.334V211.57z M277.312,517.57h-9.562h-47.812V402.82
			v-9.562h57.375V517.57z M353.812,517.57h-9.562h-47.812V402.82v-9.562h57.375V517.57z M353.812,383.695h-9.562h-43.031h-28.688
			h-52.594v-47.812v-9.562h133.875V383.695z M353.812,316.758h-9.562h-47.812V151.327v-6.216l5.737,1.435
			c30.601,7.172,51.638,33.947,51.638,65.025V316.758z"/>
		<polygon points="459.956,441.07 461.391,450.633 462.825,460.195 468.562,493.186 477.169,546.258 555.581,546.258 
			572.794,441.07 468.562,441.07 		"/>
		<polygon points="535.5,412.383 525.938,412.383 516.375,412.383 506.812,412.383 468.562,412.383 459,412.383 459,431.508 
			468.562,431.508 506.812,431.508 525.938,431.508 535.5,431.508 573.75,431.508 573.75,412.383 		"/>
		<rect x="229.5" y="402.82" width="38.25" height="105.188"/>
		<path d="M267.75,157.542c-22.95,8.128-38.25,29.644-38.25,54.028v95.625h38.25V157.542z"/>
		<path d="M306,157.542v149.653h38.25V211.57c0-3.347-0.479-6.216-0.956-9.084C339.947,181.927,326.081,164.714,306,157.542z"/>
		<rect x="306" y="402.82" width="38.25" height="105.188"/>
		<polygon points="344.25,335.883 301.219,335.883 272.531,335.883 229.5,335.883 229.5,374.133 344.25,374.133 		"/>
		<polygon points="0.956,441.07 18.169,546.258 96.581,546.258 105.188,493.186 110.925,460.195 112.359,450.633 113.794,441.07 
			105.188,441.07 		"/>
		<polygon points="66.938,431.508 76.5,431.508 105.188,431.508 114.75,431.508 114.75,412.383 105.188,412.383 76.5,412.383 
			66.938,412.383 57.375,412.383 47.812,412.383 0,412.383 0,431.508 47.812,431.508 		"/>
		<path d="M47.812,370.786c0.478,0,0.956,0,1.435,0c1.912,0,3.825,0,5.737-0.479c0.956,0,1.913,0,2.391,0
			c1.435,0,3.347-0.478,4.781-0.478s3.347,0,4.781,0.478c0.956,0,1.913,0,2.391,0c1.913,0,3.825,0.479,5.737,0.479
			c0.479,0,0.957,0,1.435,0c2.869,0,5.737-0.956,8.128-6.216c2.869-6.216,5.26-19.125,5.26-44.943
			c0-10.041-0.479-20.56-0.957-31.557c0-3.347-0.478-6.216-0.478-9.562c-1.435-26.297-4.781-53.072-8.128-76.5
			c-0.479-3.347-0.957-6.216-1.435-9.562c-5.259-30.6-11.475-52.594-16.734-54.506c-11.953,3.825-27.731,107.1-27.731,181.688
			c0,22.472,1.913,36.815,5.26,44.465C41.597,368.873,43.987,370.308,47.812,370.786z"/>
	</g>
</g>
<g>
</g>
<g>
</g>
<g>
</g>
<g>
</g>
<g>
</g>
<g>
</g>
<g>
</g>
<g>
</g>
<g>
</g>
<g>
</g>
<g>
</g>
<g>
</g>
<g>
</g>
<g>
</g>
<g>
</g>
</svg>
