<svg xmlns="http://www.w3.org/2000/svg" width="573.75" height="573.75" style="enable-background:new 0 0 573.75 573.75" xml:space="preserve"><path d="M516.375 402.82h9.562v-22.95h-9.562v22.95zM506.812 370.786h1.435c1.912 0 3.825 0 5.737-.479h2.391c1.435 0 3.347-.478 4.781-.478s3.347 0 4.781.478h2.391c1.912 0 3.825.479 5.737.479h1.435c5.737-.479 13.388-3.825 13.388-51.159 0-74.11-15.778-177.385-28.21-181.688-11.953 3.825-27.73 107.1-27.73 181.688 0 22.472 1.434 36.815 5.259 44.465 2.39 4.781 4.78 6.216 8.605 6.694zM57.375 402.82h9.562v-22.95h-9.562v22.95zM286.875 106.383V27.492c-36.337 0-75.065 18.169-106.622 44.944l36.338 61.2c18.646-16.735 43.031-27.253 70.284-27.253zM392.062 460.195v86.063H459v-52.115l-5.737-33.948zM459 191.967c0-38.25-21.037-79.847-53.55-112.359l-37.772 64.069c11.476 13.387 19.125 30.122 22.473 48.291H459v-.001zM392.062 288.07H459v76.5h-66.938zM449.438 412.383v-9.563H459v-28.687h-66.938v76.5h59.766l-2.39-19.125zM208.94 139.852l-35.859-61.2c-34.425 32.035-58.331 74.109-58.331 113.316v.478h66.938v9.562H114.75v76.5h66.938V211.57c0-3.347 0-6.694.478-10.519 2.391-24.385 13.388-46.378 29.166-63.113l-2.392 1.914zM398.278 73.392c-27.731-25.34-63.591-42.553-101.841-45.422v78.891c24.862 2.391 47.334 13.388 64.547 30.122l37.294-63.591zM392.062 278.508H459v-76.5h-67.416c.479 3.347.479 6.216.479 9.562v66.938zM114.75 402.82h9.562l.957 28.688-.957 9.562-2.39 9.563h59.766v-76.5H114.75zM114.75 288.07h66.938v76.5H114.75zM114.75 494.143v52.115h66.938v-86.063h-61.201z"/><path d="M286.875 115.945c-52.594 0-95.625 43.031-95.625 95.625v334.688H382.5V211.57c0-52.593-43.031-95.625-95.625-95.625zm-66.937 95.625c0-2.391 0-4.781.478-6.694 2.869-28.209 22.95-51.637 50.681-58.331l5.738-1.435v171.647h-56.896V211.57zm57.374 306H219.938V393.258h57.375V517.57zm76.5 0H296.438V393.258h57.375V517.57zm0-133.875H219.937V326.321h133.875v57.374zm0-66.937H296.438V145.111l5.737 1.435c30.601 7.172 51.638 33.947 51.638 65.025v105.187zM459.956 441.07l1.435 9.563 1.434 9.562 5.737 32.991 8.607 53.072h78.412l17.213-105.188H468.562zM535.5 412.383H459v19.125h114.75v-19.125z"/><path d="M229.5 402.82h38.25v105.188H229.5zM267.75 157.542c-22.95 8.128-38.25 29.644-38.25 54.028v95.625h38.25V157.542zM306 157.542v149.653h38.25V211.57c0-3.347-.479-6.216-.956-9.084-3.347-20.559-17.213-37.772-37.294-44.944zM306 402.82h38.25v105.188H306zM344.25 335.883H229.5v38.25h114.75zM.956 441.07l17.213 105.188h78.412l8.607-53.072 5.737-32.991 1.434-9.562 1.435-9.563h-8.606zM66.938 431.508h47.812v-19.125H0v19.125h47.812zM47.812 370.786h1.435c1.912 0 3.825 0 5.737-.479h2.391c1.435 0 3.347-.478 4.781-.478s3.347 0 4.781.478h2.391c1.913 0 3.825.479 5.737.479H76.5c2.869 0 5.737-.956 8.128-6.216 2.869-6.216 5.26-19.125 5.26-44.943 0-10.041-.479-20.56-.957-31.557 0-3.347-.478-6.216-.478-9.562-1.435-26.297-4.781-53.072-8.128-76.5-.479-3.347-.957-6.216-1.435-9.562-5.259-30.6-11.475-52.594-16.734-54.506-11.953 3.825-27.731 107.1-27.731 181.688 0 22.472 1.913 36.815 5.26 44.465 1.912 4.78 4.302 6.215 8.127 6.693z"/></svg>