<svg xmlns="http://www.w3.org/2000/svg" width="545.062" height="545.062" style="enable-background:new 0 0 545.062 545.062" xml:space="preserve"><path d="M143.438 545.062h258.188V0H143.438v545.062zm210.374-325.124c0-7.908 6.436-14.344 14.344-14.344s14.344 6.436 14.344 14.344v76.5c0 7.908-6.436 14.344-14.344 14.344s-14.344-6.436-14.344-14.344v-76.5zM229.5 57.375h95.625v430.312H229.5V57.375z"/><path d="M368.156 301.219a4.782 4.782 0 0 0 4.781-4.781v-76.5a4.783 4.783 0 0 0-9.189-1.864c-.124.622-.373 1.205-.373 1.865v76.5c0 .66.249 1.243.373 1.864a4.793 4.793 0 0 0 4.408 2.916zM57.375 363.375h76.5v47.812h-76.5zM57.375 248.625h76.5v47.812h-76.5zM57.375 0h76.5v124.312h-76.5zM57.375 420.75h76.5v124.312h-76.5zM57.375 191.25h76.5v47.812h-76.5zM57.375 133.875h76.5v47.812h-76.5zM57.375 306h76.5v47.812h-76.5zM411.188 191.25h76.5v47.812h-76.5zM411.188 133.875h76.5v47.812h-76.5zM411.188 0h76.5v124.312h-76.5zM411.188 306h76.5v47.812h-76.5zM411.188 248.625h76.5v47.812h-76.5zM411.188 420.75h76.5v124.312h-76.5zM411.188 363.375h76.5v47.812h-76.5zM248.625 191.25H306v47.812h-57.375zM248.625 133.875H306v47.812h-57.375zM248.625 420.75H306v47.812h-57.375zM248.625 248.625H306v47.812h-57.375zM248.625 76.5H306v47.812h-57.375zM248.625 363.375H306v47.812h-57.375zM248.625 306H306v47.812h-57.375z"/></svg>