<svg xmlns="http://www.w3.org/2000/svg" width="612" height="612" style="enable-background:new 0 0 612 612" xml:space="preserve"><path d="M28.688 363.375h66.938v28.688H28.688zM506.812 363.375h66.938v28.688h-66.938zM592.875 219.938H19.125C8.559 219.938 0 228.496 0 239.062v95.625c0 10.566 8.559 19.125 19.125 19.125h573.75c10.566 0 19.125-8.559 19.125-19.125v-95.625c0-10.566-8.559-19.124-19.125-19.124zm-296.437 66.937H38.25v-28.688h258.188v28.688zm114.75 17.299v-44.169l38.25 22.08-38.25 22.089zM516.375 306H497.25v-47.812h19.125V306zm28.687 0h-19.125v-47.812h19.125V306z"/></svg>