<?xml version="1.0" encoding="iso-8859-1"?>
<!-- Generator: Adobe Illustrator 16.0.0, SVG Export Plug-In . SVG Version: 6.00 Build 0)  -->
<!DOCTYPE svg PUBLIC "-//W3C//DTD SVG 1.1//EN" "http://www.w3.org/Graphics/SVG/1.1/DTD/svg11.dtd">
<svg version="1.1" id="Capa_1" xmlns="http://www.w3.org/2000/svg" xmlns:xlink="http://www.w3.org/1999/xlink" x="0px" y="0px"
	 width="612px" height="612px" viewBox="0 0 612 612" style="enable-background:new 0 0 612 612;" xml:space="preserve">
<g>
	<rect x="28.688" y="363.375" width="66.938" height="28.688"/>
	<rect x="506.812" y="363.375" width="66.938" height="28.688"/>
	<path d="M592.875,219.938H19.125C8.559,219.938,0,228.496,0,239.062v95.625c0,10.566,8.559,19.125,19.125,19.125h573.75
		c10.566,0,19.125-8.559,19.125-19.125v-95.625C612,228.496,603.441,219.938,592.875,219.938z M296.438,286.875H38.25v-28.688
		h258.188V286.875z M411.188,304.174v-44.169l38.25,22.08L411.188,304.174z M516.375,306H497.25v-47.812h19.125V306z M545.062,306
		h-19.125v-47.812h19.125V306z"/>
</g>
<g>
</g>
<g>
</g>
<g>
</g>
<g>
</g>
<g>
</g>
<g>
</g>
<g>
</g>
<g>
</g>
<g>
</g>
<g>
</g>
<g>
</g>
<g>
</g>
<g>
</g>
<g>
</g>
<g>
</g>
</svg>
