<svg xmlns="http://www.w3.org/2000/svg" width="592.875" height="592.875" style="enable-background:new 0 0 592.875 592.875" xml:space="preserve"><path d="M66.938 106.688 0 195.936v134.668l66.938-32.666zM512.388 238.173 76.5 106.688v188.859l177.461 20.464L424.575 281.3c.296-.066.593.02.898.02.307 0 .612-.096.928-.038l89.505 16.571-3.518-59.68zm-349.826-73.316 86.062 23.906v10.547l-86.062-21.841v-12.612zm86.063 76.5-86.062-14.745v-39.273l86.062 21.841v32.177zM233.086 319.053 72.914 302.318 7.172 332.201l121.52 8.367z"/><path d="M430.312 291.732v194.454l127.334-15.329h6.541v-.784l28.688-3.452V321.835l-76.395-14.152-86.168-15.951zm19.126 46.819v-1.167l54.182 7.421 3.193.43v123.003l-57.375 7V338.551zm133.874 120.353-19.125 2.333V353.086l19.125 2.62v103.198zm-28.687 3.5-38.25 4.666V346.545l38.25 5.24v110.619zM105.188 356.031v91.475l95.624 11.714v-78.412l47.813-5.576v89.85l172.125 21.095V291.828L284.57 319.54zM95.625 352.12z"/></svg>