<svg xmlns="http://www.w3.org/2000/svg" width="554.625" height="554.625" style="enable-background:new 0 0 554.625 554.625" xml:space="preserve"><path d="M90.844 554.625h372.938V0H90.844v554.625zM212.641 76.5h125.748c19.679 9.562 32.148 42.783 32.148 71.126 0 28.984-13.015 53.187-33.469 72.312H213.961c-20.454-19.125-33.469-43.337-33.469-72.312 0-28.343 12.479-61.564 32.149-71.126zm75.449 206.789c0 6.942-5.633 12.574-12.575 12.574s-12.574-5.632-12.574-12.574 5.632-12.574 12.574-12.574c6.952 0 12.575 5.632 12.575 12.574zm-75.449 70.523h125.748c19.679 9.562 32.148 42.782 32.148 71.126 0 28.983-13.015 53.187-33.469 72.312H213.961c-20.454-19.125-33.469-43.337-33.469-72.312 0-28.343 12.479-61.563 32.149-71.126z"/><path d="M234.281 105.188h19.125V153h-19.125zM301.219 105.188h19.125V153h-19.125zM262.969 191.25h28.688v-9.562s1.186-12.948-14.354-12.948-14.334 12.948-14.334 12.948v9.562zM234.281 382.5h19.125v47.812h-19.125zM301.219 382.5h19.125v47.812h-19.125zM262.969 468.562h28.688V459s1.186-12.947-14.354-12.947S262.969 459 262.969 459v9.562z"/></svg>