<svg xmlns="http://www.w3.org/2000/svg" width="344.25" height="344.25" style="enable-background:new 0 0 344.25 344.25" xml:space="preserve"><path d="M339.469 0H4.781v344.25h334.688V0zM176.906 51.265V76.5h-19.125V47.812h19.125v3.453zm-19.125 252.44v-26.393h19.125V306h-19.125v-2.295zm28.688-.631V267.75h-38.25v34.596C88.511 292.115 43.031 240.229 43.031 177.604S88.511 63.093 148.219 52.861v33.201h38.25V52.135c62.041 8.205 109.969 61.181 109.969 125.47 0 64.288-47.928 117.264-109.969 125.469z"/><circle cx="100.464" cy="181.037" r="19.106"/><circle cx="243.901" cy="181.037" r="19.106"/><path d="M170.327 160.746c-9.572 0-17.346 7.784-17.346 17.356s7.774 17.355 17.346 17.355 17.347-7.783 17.347-17.355-7.775-17.356-17.347-17.356zm0 25.149c-4.293 0-7.784-3.5-7.784-7.793s3.49-7.793 7.784-7.793 7.784 3.5 7.784 7.793-3.48 7.793-7.784 7.793z"/></svg>