<?xml version="1.0" encoding="iso-8859-1"?>
<!-- Generator: Adobe Illustrator 16.0.0, SVG Export Plug-In . SVG Version: 6.00 Build 0)  -->
<!DOCTYPE svg PUBLIC "-//W3C//DTD SVG 1.1//EN" "http://www.w3.org/Graphics/SVG/1.1/DTD/svg11.dtd">
<svg version="1.1" id="Capa_1" xmlns="http://www.w3.org/2000/svg" xmlns:xlink="http://www.w3.org/1999/xlink" x="0px" y="0px"
	 width="570.757px" height="570.757px" viewBox="0 0 570.757 570.757" style="enable-background:new 0 0 570.757 570.757;"
	 xml:space="preserve">
<g>
	<rect x="263.39" y="303.007" width="9.562" height="28.688"/>
	<rect x="292.077" y="303.007" width="9.562" height="28.688"/>
	<path d="M283.93,336.925c-7.325,0-6.76,6.102-6.76,6.102v4.504h13.521v-4.504C290.69,343.035,291.255,336.925,283.93,336.925z"/>
	<rect x="263.39" y="389.069" width="9.562" height="28.688"/>
	<rect x="292.077" y="389.069" width="9.562" height="28.688"/>
	<path d="M283.93,422.987c-7.325,0-6.76,6.102-6.76,6.102v4.504h13.521v-4.504C290.69,429.098,291.255,422.987,283.93,422.987z"/>
	<rect x="263.39" y="475.132" width="9.562" height="28.688"/>
	<rect x="292.077" y="475.132" width="9.562" height="28.688"/>
	<path d="M283.93,509.05c-7.325,0-6.76,6.102-6.76,6.102v4.504h13.521v-4.504C290.69,515.16,291.255,509.05,283.93,509.05z"/>
	<path d="M364.742,19.115L364.054,0c-24.202,0.889-44.178,10.193-59.354,27.664c-33.565,38.633-33.68,106.459-32.398,131.905
		h-13.693c-7.918,0-14.344,6.426-14.344,14.344c0,1.683,0.344,3.28,0.88,4.781H225.14c-10.566,0-19.125,8.559-19.125,19.125v353.812
		c0,10.566,8.559,19.125,19.125,19.125h114.75c10.566,0,19.125-8.559,19.125-19.125V197.819c0-10.566-8.559-19.125-19.125-19.125
		h-20.005c0.536-1.501,0.88-3.098,0.88-4.781c0-7.918-6.426-14.344-14.344-14.344h-14.937
		c-1.128-22.242-1.511-85.843,27.674-119.388C330.882,26.698,345.79,19.804,364.742,19.115z M312.101,532.507h-58.044
		c-9.639-9.562-15.778-20.091-15.778-33.746c0-13.358,5.881-28.678,15.157-33.191h59.278c9.275,4.504,15.156,19.823,15.156,33.191
		C327.879,512.416,321.749,522.944,312.101,532.507z M312.101,446.444h-58.044c-9.639-9.562-15.778-20.091-15.778-33.746
		c0-13.358,5.881-28.678,15.157-33.191h59.278c9.275,4.504,15.156,19.823,15.156,33.191
		C327.879,426.354,321.749,436.882,312.101,446.444z M312.101,360.382h-58.044c-9.639-9.562-15.778-20.091-15.778-33.746
		c0-13.358,5.881-28.678,15.157-33.191h59.278c9.275,4.504,15.156,19.823,15.156,33.191
		C327.879,340.291,321.749,350.819,312.101,360.382z M330.327,216.944v38.25h-95.625v-38.25H330.327z"/>
	<circle cx="256.514" cy="237.561" r="8.071"/>
</g>
<g>
</g>
<g>
</g>
<g>
</g>
<g>
</g>
<g>
</g>
<g>
</g>
<g>
</g>
<g>
</g>
<g>
</g>
<g>
</g>
<g>
</g>
<g>
</g>
<g>
</g>
<g>
</g>
<g>
</g>
</svg>
