<svg xmlns="http://www.w3.org/2000/svg" width="570.757" height="570.757" style="enable-background:new 0 0 570.757 570.757" xml:space="preserve"><path d="M263.39 303.007h9.562v28.688h-9.562zM292.077 303.007h9.562v28.688h-9.562zM283.93 336.925c-7.325 0-6.76 6.102-6.76 6.102v4.504h13.521v-4.504c-.001.008.564-6.102-6.761-6.102zM263.39 389.069h9.562v28.688h-9.562zM292.077 389.069h9.562v28.688h-9.562zM283.93 422.987c-7.325 0-6.76 6.102-6.76 6.102v4.504h13.521v-4.504c-.001.009.564-6.102-6.761-6.102zM263.39 475.132h9.562v28.688h-9.562zM292.077 475.132h9.562v28.688h-9.562zM283.93 509.05c-7.325 0-6.76 6.102-6.76 6.102v4.504h13.521v-4.504c-.001.008.564-6.102-6.761-6.102z"/><path d="M364.742 19.115 364.054 0c-24.202.889-44.178 10.193-59.354 27.664-33.565 38.633-33.68 106.459-32.398 131.905h-13.693c-7.918 0-14.344 6.426-14.344 14.344 0 1.683.344 3.28.88 4.781H225.14c-10.566 0-19.125 8.559-19.125 19.125v353.812c0 10.566 8.559 19.125 19.125 19.125h114.75c10.566 0 19.125-8.559 19.125-19.125V197.819c0-10.566-8.559-19.125-19.125-19.125h-20.005c.536-1.501.88-3.098.88-4.781 0-7.918-6.426-14.344-14.344-14.344h-14.937c-1.128-22.242-1.511-85.843 27.674-119.388 11.724-13.483 26.632-20.377 45.584-21.066zm-52.641 513.392h-58.044c-9.639-9.562-15.778-20.091-15.778-33.746 0-13.358 5.881-28.678 15.157-33.191h59.278c9.275 4.504 15.156 19.823 15.156 33.191.009 13.655-6.121 24.183-15.769 33.746zm0-86.063h-58.044c-9.639-9.562-15.778-20.091-15.778-33.746 0-13.358 5.881-28.678 15.157-33.191h59.278c9.275 4.504 15.156 19.823 15.156 33.191.009 13.656-6.121 24.184-15.769 33.746zm0-86.062h-58.044c-9.639-9.562-15.778-20.091-15.778-33.746 0-13.358 5.881-28.678 15.157-33.191h59.278c9.275 4.504 15.156 19.823 15.156 33.191.009 13.655-6.121 24.183-15.769 33.746zm18.226-143.438v38.25h-95.625v-38.25h95.625z"/><circle cx="256.514" cy="237.561" r="8.071"/></svg>