<svg xmlns="http://www.w3.org/2000/svg" width="420.75" height="420.75" style="enable-background:new 0 0 420.75 420.75" xml:space="preserve"><path d="M59.766 0h-4.781c-6.598 0-11.953 5.355-11.953 11.953v396.844c0 6.598 5.355 11.953 11.953 11.953h4.781c6.598 0 11.953-5.355 11.953-11.953V11.953C71.719 5.355 66.364 0 59.766 0zM98.016 0h-4.781c-6.598 0-11.953 5.355-11.953 11.953v329.906c0 6.598 5.355 11.953 11.953 11.953h4.781c6.598 0 11.953-5.355 11.953-11.953V11.953C109.969 5.355 104.614 0 98.016 0zM136.266 0h-4.781c-6.598 0-11.953 5.355-11.953 11.953v329.906c0 6.598 5.355 11.953 11.953 11.953h4.781c6.598 0 11.953-5.355 11.953-11.953V11.953C148.219 5.355 142.864 0 136.266 0zM174.516 0h-4.781c-6.598 0-11.953 5.355-11.953 11.953v329.906c0 6.598 5.355 11.953 11.953 11.953h4.781c6.598 0 11.953-5.355 11.953-11.953V11.953C186.469 5.355 181.114 0 174.516 0zM212.766 0h-4.781c-6.598 0-11.953 5.355-11.953 11.953v329.906c0 6.598 5.355 11.953 11.953 11.953h4.781c6.598 0 11.953-5.355 11.953-11.953V11.953C224.719 5.355 219.363 0 212.766 0zM251.016 0h-4.781c-6.598 0-11.953 5.355-11.953 11.953v329.906c0 6.598 5.355 11.953 11.953 11.953h4.781c6.598 0 11.953-5.355 11.953-11.953V11.953C262.969 5.355 257.613 0 251.016 0zM289.266 0h-4.781c-6.598 0-11.953 5.355-11.953 11.953v329.906c0 6.598 5.355 11.953 11.953 11.953h4.781c6.598 0 11.953-5.355 11.953-11.953V11.953C301.219 5.355 295.863 0 289.266 0zM327.516 0h-4.781c-6.598 0-11.953 5.355-11.953 11.953v329.906c0 6.598 5.355 11.953 11.953 11.953h4.781c6.598 0 11.953-5.355 11.953-11.953V11.953C339.469 5.355 334.113 0 327.516 0zM365.766 0h-4.781c-6.598 0-11.953 5.355-11.953 11.953v396.844c0 6.598 5.355 11.953 11.953 11.953h4.781c6.598 0 11.953-5.355 11.953-11.953V11.953C377.719 5.355 372.363 0 365.766 0z"/></svg>