<?xml version="1.0" encoding="iso-8859-1"?>
<!-- Generator: Adobe Illustrator 16.0.0, SVG Export Plug-In . SVG Version: 6.00 Build 0)  -->
<!DOCTYPE svg PUBLIC "-//W3C//DTD SVG 1.1//EN" "http://www.w3.org/Graphics/SVG/1.1/DTD/svg11.dtd">
<svg version="1.1" id="Capa_1" xmlns="http://www.w3.org/2000/svg" xmlns:xlink="http://www.w3.org/1999/xlink" x="0px" y="0px"
	 width="554.625px" height="554.625px" viewBox="0 0 554.625 554.625" style="enable-background:new 0 0 554.625 554.625;"
	 xml:space="preserve">
<g>
	<path d="M90.844,554.625h372.938V0H90.844V554.625z M212.641,76.5h125.748c19.679,9.562,32.148,42.783,32.148,71.126
		c0,28.984-13.015,53.187-33.469,72.312H213.961c-20.454-19.125-33.469-43.337-33.469-72.312
		C180.492,119.283,192.971,86.062,212.641,76.5z M288.09,283.289c0,6.942-5.633,12.574-12.575,12.574s-12.574-5.632-12.574-12.574
		s5.632-12.574,12.574-12.574C282.467,270.715,288.09,276.347,288.09,283.289z M212.641,353.812h125.748
		c19.679,9.562,32.148,42.782,32.148,71.126c0,28.983-13.015,53.187-33.469,72.312H213.961
		c-20.454-19.125-33.469-43.337-33.469-72.312C180.492,396.595,192.971,363.375,212.641,353.812z"/>
	<rect x="234.281" y="105.188" width="19.125" height="47.812"/>
	<rect x="301.219" y="105.188" width="19.125" height="47.812"/>
	<path d="M262.969,191.25h28.688v-9.562c0,0,1.186-12.948-14.354-12.948s-14.334,12.948-14.334,12.948V191.25z"/>
	<rect x="234.281" y="382.5" width="19.125" height="47.812"/>
	<rect x="301.219" y="382.5" width="19.125" height="47.812"/>
	<path d="M262.969,468.562h28.688V459c0,0,1.186-12.947-14.354-12.947S262.969,459,262.969,459V468.562z"/>
</g>
<g>
</g>
<g>
</g>
<g>
</g>
<g>
</g>
<g>
</g>
<g>
</g>
<g>
</g>
<g>
</g>
<g>
</g>
<g>
</g>
<g>
</g>
<g>
</g>
<g>
</g>
<g>
</g>
<g>
</g>
</svg>
