<svg xmlns="http://www.w3.org/2000/svg" width="372.938" height="372.938" style="enable-background:new 0 0 372.938 372.938" xml:space="preserve"><path d="M0 368.156h372.938V4.781H0v363.375zm186.469-35.859c-6.158 0-11.159-4.991-11.159-11.159s4.991-11.16 11.159-11.16 11.159 4.992 11.159 11.16-5.001 11.159-11.159 11.159zm0-280.497c6.158 0 11.159 4.992 11.159 11.16s-5.001 11.15-11.159 11.15-11.159-4.992-11.159-11.16 5.001-11.15 11.159-11.15zM47.812 119.531h277.312v133.875H47.812V119.531z"/><path d="M133.875 157.781H153v57.375h-19.125zM219.938 157.781h19.125v57.375h-19.125z"/></svg>