<?xml version="1.0" encoding="iso-8859-1"?>
<!-- Generator: Adobe Illustrator 16.0.0, SVG Export Plug-In . SVG Version: 6.00 Build 0)  -->
<!DOCTYPE svg PUBLIC "-//W3C//DTD SVG 1.1//EN" "http://www.w3.org/Graphics/SVG/1.1/DTD/svg11.dtd">
<svg version="1.1" id="Capa_1" xmlns="http://www.w3.org/2000/svg" xmlns:xlink="http://www.w3.org/1999/xlink" x="0px" y="0px"
	 width="344.25px" height="344.25px" viewBox="0 0 344.25 344.25" style="enable-background:new 0 0 344.25 344.25;"
	 xml:space="preserve">
<g>
	<path d="M4.781,344.25h334.688V0H4.781V344.25z M157.781,303.705v-26.393h19.125v26.632V306h-19.125V303.705z M176.906,51.265V76.5
		h-19.125V51.503v-3.691h19.125V51.265z M148.219,52.861v33.201h28.688h9.562V52.135c62.041,8.205,109.969,61.181,109.969,125.47
		c0,64.288-47.928,117.265-109.969,125.47V267.75h-38.25v9.562v25.034C88.511,292.115,43.031,240.229,43.031,177.604
		S88.511,63.093,148.219,52.861z"/>
	<circle cx="100.464" cy="181.038" r="19.106"/>
	<circle cx="243.901" cy="181.038" r="19.106"/>
	<path d="M170.327,195.457c9.572,0,17.356-7.783,17.356-17.355s-7.784-17.355-17.356-17.355s-17.355,7.783-17.355,17.355
		S160.765,195.457,170.327,195.457z M170.327,170.309c4.294,0,7.794,3.499,7.794,7.793s-3.5,7.793-7.794,7.793
		c-4.293,0-7.793-3.499-7.793-7.793S166.033,170.309,170.327,170.309z"/>
</g>
<g>
</g>
<g>
</g>
<g>
</g>
<g>
</g>
<g>
</g>
<g>
</g>
<g>
</g>
<g>
</g>
<g>
</g>
<g>
</g>
<g>
</g>
<g>
</g>
<g>
</g>
<g>
</g>
<g>
</g>
</svg>
