<svg xmlns="http://www.w3.org/2000/svg" width="602.438" height="602.438" style="enable-background:new 0 0 602.438 602.438" xml:space="preserve"><path d="M583.312 28.688H19.125C8.559 28.688 0 37.246 0 47.812V420.75c0 10.566 8.559 19.125 19.125 19.125h564.188c10.566 0 19.125-8.559 19.125-19.125V47.812c0-10.566-8.559-19.124-19.126-19.124zm-28.687 382.5h-47.812v-19.125h47.812v19.125zm0-38.25H47.812V76.5h506.812v296.438zM153 545.062v28.688h315.562v-28.688l-57.374-38.25H210.375zM210.375 459h200.812v28.688H210.375z"/><path d="M169.39 95.625 66.938 167.229v33.039L216.667 95.625zM535.5 95.625H259.201L66.938 229.997v123.815H535.5z"/></svg>