<?xml version="1.0" encoding="iso-8859-1"?>
<!-- Generator: Adobe Illustrator 16.0.0, SVG Export Plug-In . SVG Version: 6.00 Build 0)  -->
<!DOCTYPE svg PUBLIC "-//W3C//DTD SVG 1.1//EN" "http://www.w3.org/Graphics/SVG/1.1/DTD/svg11.dtd">
<svg version="1.1" id="Capa_1" xmlns="http://www.w3.org/2000/svg" xmlns:xlink="http://www.w3.org/1999/xlink" x="0px" y="0px"
	 width="516.375px" height="516.375px" viewBox="0 0 516.375 516.375" style="enable-background:new 0 0 516.375 516.375;"
	 xml:space="preserve">
<g>
	<path d="M110.2,219.938h267.75c21.124,0,38.25-17.126,38.25-38.25V38.25C416.2,17.126,399.074,0,377.95,0H110.2
		C89.077,0,71.95,17.126,71.95,38.25v143.438C71.95,202.811,89.077,219.938,110.2,219.938z M357.964,35.859
		c13.167,0,23.839,10.672,23.839,23.839s-10.672,23.839-23.839,23.839c-13.168,0-23.84-10.672-23.84-23.839
		S344.796,35.859,357.964,35.859z M357.964,102.797c13.167,0,23.839,10.672,23.839,23.839s-10.672,23.839-23.839,23.839
		c-13.168,0-23.84-10.672-23.84-23.839S344.796,102.797,357.964,102.797z"/>
	<path d="M71.95,315.562v95.625c0,10.566,8.559,19.125,19.125,19.125h306c10.566,0,19.125-8.559,19.125-19.125v-19.125h43.031
		c7.918,0,14.344-6.416,14.344-14.344v-95.625c0-7.928-6.426-14.344-14.344-14.344H416.2v-9.562
		c0-10.566-8.559-19.125-19.125-19.125c0,0-319.941,0-340.262,0s-12.556,16.084-12.556,16.084L71.95,315.562z M444.887,296.438
		v66.938H416.2v-66.938H444.887z M100.638,309.72c19.125-9.477,35.438-20.875,70.82-22.242
		c61.659-2.391,80.42,35.859,153.535,35.267c21.851-0.191,52.957-4.198,62.52-9.668v50.299v28.688v2.688
		c0,10.566-3.777,16.438-14.344,16.438H114.981c-10.566,0-14.344-7.363-14.344-17.93V309.72z"/>
	<path d="M71.95,497.25c0,10.566,8.559,19.125,19.125,19.125h306c10.566,0,19.125-8.559,19.125-19.125s-8.559-19.125-19.125-19.125
		h-306C80.509,478.125,71.95,486.684,71.95,497.25z"/>
	<path d="M368.387,459c5.288,0,9.562-4.284,9.562-9.562s-4.274-9.562-9.562-9.562H119.763c-5.288,0-9.562,4.284-9.562,9.562
		s4.274,9.562,9.562,9.562H368.387z"/>
</g>
<g>
</g>
<g>
</g>
<g>
</g>
<g>
</g>
<g>
</g>
<g>
</g>
<g>
</g>
<g>
</g>
<g>
</g>
<g>
</g>
<g>
</g>
<g>
</g>
<g>
</g>
<g>
</g>
<g>
</g>
</svg>
