<svg xmlns="http://www.w3.org/2000/svg" width="516.375" height="516.375" style="enable-background:new 0 0 516.375 516.375" xml:space="preserve"><path d="M110.2 219.938h267.75c21.124 0 38.25-17.126 38.25-38.25V38.25C416.2 17.126 399.074 0 377.95 0H110.2C89.077 0 71.95 17.126 71.95 38.25v143.438c0 21.123 17.127 38.25 38.25 38.25zM357.964 35.859c13.167 0 23.839 10.672 23.839 23.839s-10.672 23.839-23.839 23.839c-13.168 0-23.84-10.672-23.84-23.839s10.672-23.839 23.84-23.839zm0 66.938c13.167 0 23.839 10.672 23.839 23.839s-10.672 23.839-23.839 23.839c-13.168 0-23.84-10.672-23.84-23.839s10.672-23.839 23.84-23.839zM71.95 315.562v95.625c0 10.566 8.559 19.125 19.125 19.125h306c10.566 0 19.125-8.559 19.125-19.125v-19.125h43.031c7.918 0 14.344-6.416 14.344-14.344v-95.625c0-7.928-6.426-14.344-14.344-14.344H416.2v-9.562c0-10.566-8.559-19.125-19.125-19.125H56.813c-20.321 0-12.556 16.084-12.556 16.084l27.693 60.416zm372.937-19.124v66.938H416.2v-66.938h28.687zM100.638 309.72c19.125-9.477 35.438-20.875 70.82-22.242 61.659-2.391 80.42 35.859 153.535 35.267 21.851-.191 52.957-4.198 62.52-9.668v81.675c0 10.566-3.777 16.438-14.344 16.438H114.981c-10.566 0-14.344-7.363-14.344-17.93v-83.54zM71.95 497.25c0 10.566 8.559 19.125 19.125 19.125h306c10.566 0 19.125-8.559 19.125-19.125s-8.559-19.125-19.125-19.125h-306c-10.566 0-19.125 8.559-19.125 19.125zM368.387 459c5.288 0 9.562-4.284 9.562-9.562s-4.274-9.562-9.562-9.562H119.763c-5.288 0-9.562 4.284-9.562 9.562s4.274 9.562 9.562 9.562h248.624z"/></svg>