<?xml version="1.0" encoding="iso-8859-1"?>
<!-- Generator: Adobe Illustrator 16.0.0, SVG Export Plug-In . SVG Version: 6.00 Build 0)  -->
<!DOCTYPE svg PUBLIC "-//W3C//DTD SVG 1.1//EN" "http://www.w3.org/Graphics/SVG/1.1/DTD/svg11.dtd">
<svg version="1.1" id="Capa_1" xmlns="http://www.w3.org/2000/svg" xmlns:xlink="http://www.w3.org/1999/xlink" x="0px" y="0px"
	 width="602.438px" height="602.438px" viewBox="0 0 602.438 602.438" style="enable-background:new 0 0 602.438 602.438;"
	 xml:space="preserve">
<g>
	<path d="M583.312,28.688H19.125C8.559,28.688,0,37.246,0,47.812V420.75c0,10.566,8.559,19.125,19.125,19.125h564.188
		c10.566,0,19.125-8.559,19.125-19.125V47.812C602.438,37.246,593.879,28.688,583.312,28.688z M554.625,411.188h-47.812v-19.125
		h47.812V411.188z M554.625,372.938H47.812V76.5h506.812V372.938z"/>
	<polygon points="153,545.062 153,573.75 468.562,573.75 468.562,545.062 411.188,506.812 210.375,506.812 	"/>
	<rect x="210.375" y="459" width="200.812" height="28.688"/>
	<polygon points="169.39,95.625 66.938,167.229 66.938,200.268 216.667,95.625 	"/>
	<polygon points="535.5,95.625 259.201,95.625 66.938,229.997 66.938,353.812 535.5,353.812 	"/>
</g>
<g>
</g>
<g>
</g>
<g>
</g>
<g>
</g>
<g>
</g>
<g>
</g>
<g>
</g>
<g>
</g>
<g>
</g>
<g>
</g>
<g>
</g>
<g>
</g>
<g>
</g>
<g>
</g>
<g>
</g>
</svg>
