<svg xmlns="http://www.w3.org/2000/svg" width="478.125" height="478.125" style="enable-background:new 0 0 478.125 478.125" xml:space="preserve"><path d="M162.562 449.438H306V133.875H162.562v315.563zm116.29-199.646c9.754 0 17.691 7.937 17.691 17.681s-7.938 17.681-17.691 17.681-17.681-7.927-17.681-17.681 7.936-17.681 17.681-17.681z"/><circle cx="278.852" cy="267.463" r="8.119"/><path d="M133.875 113.163v336.275H153v-320.01l-4.36-4.102zM141.162 105.188h-1.922l15.682 12.918 7.526 6.206h143.323l.229-.21v-1.415l20.502-17.499zM315.562 128.357v321.081h19.126V110.772l-19.126 16.323zM107.578 47.812H460.195L428.008 0H41.75L9.562 47.812h7.172zM28.688 86.062h66.938v363.375H28.688zM102.797 459H16.734c-3.949 0-7.172 3.213-7.172 7.172v4.781c0 3.959 3.223 7.172 7.172 7.172h90.844c3.949 0 7.172-3.213 7.172-7.172 0-6.598-5.355-11.953-11.953-11.953zM102.797 57.375H16.734c-3.949 0-7.172 3.213-7.172 7.172v4.781c0 3.959 3.223 7.172 7.172 7.172H107.578c3.949 0 7.172-3.213 7.172-7.172 0-6.598-5.355-11.953-11.953-11.953zM382.5 86.062h66.938v363.375H382.5zM456.609 459h-86.063c-3.949 0-7.172 3.213-7.172 7.172v4.781c0 3.959 3.223 7.172 7.172 7.172h90.844c3.949 0 7.172-3.213 7.172-7.172 0-6.598-5.355-11.953-11.953-11.953zM456.609 57.375h-86.062c-3.949 0-7.172 3.213-7.172 7.172v4.781c0 3.959 3.223 7.172 7.172 7.172H461.391c3.949 0 7.172-3.213 7.172-7.172-.001-6.598-5.356-11.953-11.954-11.953z"/></svg>