<?xml version="1.0" encoding="iso-8859-1"?>
<!-- Generator: Adobe Illustrator 16.0.0, SVG Export Plug-In . SVG Version: 6.00 Build 0)  -->
<!DOCTYPE svg PUBLIC "-//W3C//DTD SVG 1.1//EN" "http://www.w3.org/Graphics/SVG/1.1/DTD/svg11.dtd">
<svg version="1.1" id="Capa_1" xmlns="http://www.w3.org/2000/svg" xmlns:xlink="http://www.w3.org/1999/xlink" x="0px" y="0px"
	 width="478.125px" height="478.125px" viewBox="0 0 478.125 478.125" style="enable-background:new 0 0 478.125 478.125;"
	 xml:space="preserve">
<g>
	<g>
		<path d="M162.562,449.438H306V133.875H162.562V449.438z M278.852,249.792c9.754,0,17.691,7.937,17.691,17.681
			s-7.938,17.681-17.691,17.681c-9.753,0-17.681-7.927-17.681-17.681S269.107,249.792,278.852,249.792z"/>
		<circle cx="278.852" cy="267.463" r="8.119"/>
		<polygon points="133.875,113.163 133.875,449.438 153,449.438 153,133.875 153,129.428 148.64,125.326 		"/>
		<polygon points="141.162,105.188 139.24,105.188 154.922,118.106 162.448,124.312 305.771,124.312 306,124.102 306,122.687 
			326.502,105.188 		"/>
		<polygon points="315.562,128.357 315.562,449.438 334.688,449.438 334.688,111.135 334.688,110.772 315.562,127.095 		"/>
		<polygon points="107.578,47.812 370.547,47.812 460.195,47.812 428.008,0 41.75,0 9.562,47.812 16.734,47.812 		"/>
		<rect x="28.688" y="86.062" width="66.938" height="363.375"/>
		<path d="M102.797,459h-7.172h-76.5h-2.391c-3.949,0-7.172,3.213-7.172,7.172v4.781c0,3.959,3.223,7.172,7.172,7.172h90.844
			c3.949,0,7.172-3.213,7.172-7.172C114.75,464.355,109.395,459,102.797,459z"/>
		<path d="M102.797,57.375H16.734c-3.949,0-7.172,3.213-7.172,7.172v4.781c0,3.959,3.223,7.172,7.172,7.172h2.391h86.062h2.391
			c3.949,0,7.172-3.213,7.172-7.172C114.75,62.73,109.395,57.375,102.797,57.375z"/>
		<rect x="382.5" y="86.062" width="66.938" height="363.375"/>
		<path d="M456.609,459h-7.172h-76.5h-2.391c-3.949,0-7.172,3.213-7.172,7.172v4.781c0,3.959,3.223,7.172,7.172,7.172h90.844
			c3.949,0,7.172-3.213,7.172-7.172C468.562,464.355,463.207,459,456.609,459z"/>
		<path d="M456.609,57.375h-86.062c-3.949,0-7.172,3.213-7.172,7.172v4.781c0,3.959,3.223,7.172,7.172,7.172h2.391H459h2.391
			c3.949,0,7.172-3.213,7.172-7.172C468.562,62.73,463.207,57.375,456.609,57.375z"/>
	</g>
</g>
<g>
</g>
<g>
</g>
<g>
</g>
<g>
</g>
<g>
</g>
<g>
</g>
<g>
</g>
<g>
</g>
<g>
</g>
<g>
</g>
<g>
</g>
<g>
</g>
<g>
</g>
<g>
</g>
<g>
</g>
</svg>
