<?xml version="1.0" encoding="iso-8859-1"?>
<!-- Generator: Adobe Illustrator 16.0.0, SVG Export Plug-In . SVG Version: 6.00 Build 0)  -->
<!DOCTYPE svg PUBLIC "-//W3C//DTD SVG 1.1//EN" "http://www.w3.org/Graphics/SVG/1.1/DTD/svg11.dtd">
<svg version="1.1" id="Capa_1" xmlns="http://www.w3.org/2000/svg" xmlns:xlink="http://www.w3.org/1999/xlink" x="0px" y="0px"
	 width="535.5px" height="535.5px" viewBox="0 0 535.5 535.5" style="enable-background:new 0 0 535.5 535.5;" xml:space="preserve"
	>
<g>
	<g>
		<path d="M124.312,15.711v517.398h286.875V15.75c-13.684-3.05-65.379-13.359-138.656-13.359
			C188.4,2.391,137.633,12.642,124.312,15.711z M382.5,513.984h-9.562H153V351.422v-9.562h229.5V513.984z M382.5,322.734h-9.562H153
			V160.172v-9.562h229.5V322.734z M382.5,46.225v85.259h-9.562H153V50.203v-3.882l3.796-0.794
			c0.459-0.105,46.665-9.667,112.149-9.667c57.155,0,109.127,9.553,109.653,9.639L382.5,46.225z"/>
		<path d="M420.75,399.234H535.5c0-33.259,0-69.414,0-105.188H420.75V399.234z"/>
		<path d="M420.75,533.109H535.5c0-18.369,0-61.64,0-114.75H420.75V533.109z"/>
		<path d="M420.75,150.609H535.5c0-37.255,0-64.996,0-75.228c-44.925-31.69-97.126-50.873-114.75-56.84V150.609z"/>
		<path d="M420.75,274.922H535.5c0-37.447,0-73.794,0-105.188H420.75V274.922z"/>
		<rect y="294.047" width="114.75" height="105.188"/>
		<rect y="418.359" width="114.75" height="114.75"/>
		<path d="M0,150.609h114.75V18.57C97.222,24.576,45.575,43.777,0,75.4V150.609z"/>
		<rect y="169.734" width="114.75" height="105.188"/>
		<polygon points="162.562,121.922 252.507,121.922 162.562,59.354 		"/>
		<path d="M277.312,45.489v68.735l87.984-61.209C348.295,50.452,314.482,46.091,277.312,45.489z"/>
		<polygon points="372.938,121.922 372.938,59.354 282.992,121.922 		"/>
		<path d="M258.188,114.224V45.518c-40.564,0.65-72.273,4.819-88.166,7.382L258.188,114.224z"/>
		<polygon points="353.812,287.286 372.938,306.411 372.938,166.933 353.812,186.058 		"/>
		<polygon points="347.052,179.297 366.177,160.172 169.323,160.172 188.448,179.297 		"/>
		<polygon points="181.688,188.859 181.688,186.058 162.562,166.933 162.562,306.411 181.688,287.286 		"/>
		<polygon points="344.25,294.047 188.448,294.047 169.323,313.172 366.177,313.172 347.052,294.047 		"/>
		<rect x="191.25" y="188.859" width="153" height="95.625"/>
		<polygon points="181.688,380.109 181.688,377.308 162.562,358.183 162.562,497.661 181.688,478.536 		"/>
		<polygon points="347.052,370.547 366.177,351.422 169.323,351.422 188.448,370.547 		"/>
		<polygon points="344.25,485.297 188.448,485.297 169.323,504.422 366.177,504.422 347.052,485.297 		"/>
		<polygon points="353.812,478.536 372.938,497.661 372.938,358.183 353.812,377.308 		"/>
		<rect x="191.25" y="380.109" width="153" height="95.625"/>
	</g>
</g>
<g>
</g>
<g>
</g>
<g>
</g>
<g>
</g>
<g>
</g>
<g>
</g>
<g>
</g>
<g>
</g>
<g>
</g>
<g>
</g>
<g>
</g>
<g>
</g>
<g>
</g>
<g>
</g>
<g>
</g>
</svg>
