<svg xmlns="http://www.w3.org/2000/svg" width="535.5" height="535.5" style="enable-background:new 0 0 535.5 535.5" xml:space="preserve"><path d="M124.312 15.711v517.398h286.875V15.75C397.503 12.7 345.808 2.391 272.531 2.391c-84.131 0-134.898 10.251-148.219 13.32zM382.5 513.984H153V341.86h229.5v172.124zm0-191.25H153V150.61h229.5v172.124zm0-276.509v85.259H153V46.321l3.796-.794c.459-.105 46.665-9.667 112.149-9.667 57.155 0 109.127 9.553 109.653 9.639l3.902.726zM420.75 399.234H535.5V294.046H420.75v105.188zM420.75 533.109H535.5v-114.75H420.75v114.75zM420.75 150.609H535.5V75.381c-44.925-31.69-97.126-50.873-114.75-56.84v132.068zM420.75 274.922H535.5V169.734H420.75v105.188zM0 294.047h114.75v105.188H0zM0 418.359h114.75v114.75H0zM0 150.609h114.75V18.57C97.222 24.576 45.575 43.777 0 75.4v75.209zM0 169.734h114.75v105.188H0z"/><path d="M162.562 121.922h89.945l-89.945-62.568zM277.312 45.489v68.735l87.984-61.209c-17.001-2.563-50.814-6.924-87.984-7.526zM372.938 121.922V59.354l-89.946 62.568zM258.188 114.224V45.518c-40.564.65-72.273 4.819-88.166 7.382l88.166 61.324zM353.812 287.286l19.126 19.125V166.933l-19.126 19.125zM347.052 179.297l19.125-19.125H169.323l19.125 19.125zM181.688 188.859v-2.801l-19.126-19.125v139.478l19.126-19.125zM344.25 294.047H188.448l-19.125 19.125h196.854l-19.125-19.125zM191.25 188.859h153v95.625h-153zM181.688 380.109v-2.801l-19.126-19.125v139.478l19.126-19.125zM347.052 370.547l19.125-19.125H169.323l19.125 19.125zM344.25 485.297H188.448l-19.125 19.125h196.854l-19.125-19.125zM353.812 478.536l19.126 19.125V358.183l-19.126 19.125zM191.25 380.109h153v95.625h-153z"/></svg>