<svg xmlns="http://www.w3.org/2000/svg" width="482.906" height="482.906" style="enable-background:new 0 0 482.906 482.906" xml:space="preserve"><path d="M241.453 0C144.566 0 65.742 78.824 65.742 175.711c0 84.169 59.517 154.635 138.656 171.704 3.146.679 6.359 1.138 9.562 1.645v47.784h57.375v-48.156c3.213-.555 6.407-1.167 9.562-1.894 77.925-17.969 136.266-87.774 136.266-171.083C417.164 78.824 338.341 0 241.453 0zm39.445 336.935c-3.165.774-6.33 1.501-9.562 2.095-9.716 1.769-19.67 2.84-29.883 2.84-9.381 0-18.532-.966-27.492-2.467-3.213-.536-6.407-1.119-9.562-1.846-73.813-16.907-129.094-82.975-129.094-161.836 0-91.628 74.53-166.158 166.148-166.158s166.148 74.53 166.148 166.148c.001 78.001-54.094 143.437-126.703 161.224z"/><path d="M227.023 152.445c4.207-2.62 9.122-4.198 14.43-4.198 2.209 0 4.332.334 6.388.822l54.688-116.108c-8.884-3.596-17.768-5.317-26.899-5.317-27.77 0-53.35 16.218-65.169 41.32-8.186 17.394-9.113 36.93-2.61 55.022 3.997 11.132 10.7 20.685 19.172 28.459zM282.725 172.986c-4.733 0-9.381.497-13.933 1.396.02.449.134.87.134 1.329 0 7.201-2.84 13.703-7.392 18.599l57.413 112.885c15.377-8.912 26.747-22.95 32.273-39.933 5.958-18.284 4.438-37.782-4.274-54.918-12.354-24.279-36.959-39.358-64.221-39.358zM216.973 187.913l-128.31 13.541c5.919 35.065 35.591 60.436 70.877 60.444h.01c2.534 0 5.068-.134 7.641-.401 33.115-3.5 58.637-29.061 63.542-60.502-6.014-2.554-10.843-7.259-13.76-13.082zM257.365 167.659a17.966 17.966 0 0 0-4.896-5.967c-1.262-.995-2.61-1.875-4.102-2.505-1.482-.622-3.089-.966-4.733-1.176-.718-.086-1.425-.22-2.171-.22-2.171 0-4.217.449-6.14 1.147a17.534 17.534 0 0 0-4.867 2.735c-1.291 1.014-2.448 2.17-3.413 3.5-2.171 2.965-3.491 6.579-3.491 10.528 0 .641.124 1.253.191 1.884.172 1.635.517 3.213 1.1 4.686.66 1.654 1.578 3.155 2.678 4.523 1.157 1.454 2.477 2.764 4.026 3.796 1.434.956 3.04 1.645 4.724 2.151 1.473.45 3.012.746 4.628.803.191.01.373.058.574.058 2.888 0 5.584-.756 8.004-1.97a17.87 17.87 0 0 0 3.978-2.715 17.975 17.975 0 0 0 3.309-4.036 17.735 17.735 0 0 0 2.486-7.879c.028-.44.134-.861.134-1.31 0-1.243-.124-2.448-.373-3.615-.336-1.558-.939-3.021-1.646-4.418zM381.305 406.406H103.992c-7.908 0-14.344 6.436-14.344 14.344v62.156h306V420.75c0-7.908-6.435-14.344-14.343-14.344zm-4.782 38.25H252.212V415.969h124.312v28.687z"/><path d="M347.836 425.531h19.125v9.562h-19.125zM261.773 425.531h19.125v9.562h-19.125zM319.148 425.531h19.125v9.562h-19.125zM290.461 425.531h19.125v9.562h-19.125z"/></svg>