<svg xmlns="http://www.w3.org/2000/svg" width="545.062" height="545.062" style="enable-background:new 0 0 545.062 545.062" xml:space="preserve"><path d="M57.375 172.125h76.5v267.75h-76.5zM420.75 172.125h76.5v267.75h-76.5zM525.938 105.188H19.125C8.559 105.188 0 113.746 0 124.312v9.562C0 144.441 8.559 153 19.125 153h506.812c10.566 0 19.125-8.559 19.125-19.125v-9.562c0-10.567-8.558-19.125-19.124-19.125zM320.086 259.105c3.356 10.682 4.197 21.487 3.93 30.829-22.3-14.582-44.542-25.541-44.542-45.048 0-31.977 24.365-58.886 24.365-58.886s-106.593 8.119-122.84 93.397 15.233 153.296 81.214 153.296c67.769 0 103.113-46.646 106.354-73.325l.258.229c7.144-49.504-48.739-100.492-48.739-100.492zm-45.26 117.734c-19.899 8.176-37.819-8.443-43.49-36.165-5.67-27.731 25.475-43.385 25.475-43.385s-4.016 11.13-.048 20.779c4.781 11.637 31.643 2.391 40.526 21.993 3.413 7.536-.727 27.846-22.463 36.778z"/></svg>