<svg xmlns="http://www.w3.org/2000/svg" width="557.857" height="557.857" style="enable-background:new 0 0 557.857 557.857" xml:space="preserve"><path d="M244.134 557.857c28.716 0 43.615-35.458 43.615-47.21V340.435c0-11.752-7.908-24.872-18.264-24.872H222.59c-.593 0-1.186.182-1.779.268-9.754 1.377-19.125 13.521-19.125 24.604v170.213c.001 11.751 14.315 47.209 42.448 47.209zm14.756-213.569c.057 0 .114-.038.172-.038 5.278 0 9.562 4.284 9.562 9.562v38.25c0 5.278-4.284 9.562-9.562 9.562s-9.562-4.284-9.562-9.562v-38.25c0-2.295.918-4.312 2.257-5.957 1.72-2.104 4.216-3.519 7.133-3.567zM312.392 261.056l15.645 54.755c1.798 6.302 7.545 10.403 13.779 10.403 1.31 0 2.63-.182 3.949-.555 7.611-2.18 12.029-10.117 9.85-17.729l-15.539-54.392c-5.088-19.766-19.737-25.092-29.529-24.04h-41.922V38.25c0-6.321-2.496-12.03-6.502-16.304L257.034 0h-21.276l-3.309 17.834c-6.942 4.179-11.638 11.714-11.638 20.416v258.359c.822-.076 1.635-.172 2.458-.172h45.355v-38.25h42.792c.259.564.612 1.473.976 2.869z"/></svg>