<?xml version="1.0" encoding="iso-8859-1"?>
<!-- Generator: Adobe Illustrator 16.0.0, SVG Export Plug-In . SVG Version: 6.00 Build 0)  -->
<!DOCTYPE svg PUBLIC "-//W3C//DTD SVG 1.1//EN" "http://www.w3.org/Graphics/SVG/1.1/DTD/svg11.dtd">
<svg version="1.1" id="Capa_1" xmlns="http://www.w3.org/2000/svg" xmlns:xlink="http://www.w3.org/1999/xlink" x="0px" y="0px"
	 width="545.062px" height="545.062px" viewBox="0 0 545.062 545.062" style="enable-background:new 0 0 545.062 545.062;"
	 xml:space="preserve">
<g>
	<g>
		<rect x="57.375" y="172.125" width="76.5" height="267.75"/>
		<rect x="420.75" y="172.125" width="76.5" height="267.75"/>
		<path d="M525.938,105.188H19.125C8.559,105.188,0,113.746,0,124.312v9.562C0,144.441,8.559,153,19.125,153h506.812
			c10.566,0,19.125-8.559,19.125-19.125v-9.562C545.062,113.746,536.504,105.188,525.938,105.188z"/>
		<path d="M320.086,259.105c3.356,10.682,4.197,21.487,3.93,30.829c-22.3-14.582-44.542-25.541-44.542-45.048
			c0-31.977,24.365-58.886,24.365-58.886s-106.593,8.119-122.84,93.397c-16.247,85.278,15.233,153.296,81.214,153.296
			c67.769,0,103.113-46.646,106.354-73.325l0.258,0.229C375.969,310.093,320.086,259.105,320.086,259.105z M274.826,376.839
			c-19.899,8.176-37.819-8.443-43.49-36.165c-5.67-27.731,25.475-43.385,25.475-43.385s-4.016,11.13-0.048,20.779
			c4.781,11.637,31.643,2.391,40.526,21.993C300.702,347.597,296.562,367.907,274.826,376.839z"/>
	</g>
</g>
<g>
</g>
<g>
</g>
<g>
</g>
<g>
</g>
<g>
</g>
<g>
</g>
<g>
</g>
<g>
</g>
<g>
</g>
<g>
</g>
<g>
</g>
<g>
</g>
<g>
</g>
<g>
</g>
<g>
</g>
</svg>
