<?xml version="1.0" encoding="iso-8859-1"?>
<!-- Generator: Adobe Illustrator 16.0.0, SVG Export Plug-In . SVG Version: 6.00 Build 0)  -->
<!DOCTYPE svg PUBLIC "-//W3C//DTD SVG 1.1//EN" "http://www.w3.org/Graphics/SVG/1.1/DTD/svg11.dtd">
<svg version="1.1" id="Capa_1" xmlns="http://www.w3.org/2000/svg" xmlns:xlink="http://www.w3.org/1999/xlink" x="0px" y="0px"
	 width="569.925px" height="569.925px" viewBox="0 0 569.925 569.925" style="enable-background:new 0 0 569.925 569.925;"
	 xml:space="preserve">
<g>
	<path d="M266.43,94.513c-0.487,3.528-1.97,6.713-4.179,9.295C337.422,167.599,363.461,108.226,266.43,94.513z"/>
	<path d="M261.735,106.189c-0.296-0.315-0.536-0.612-0.832-0.918c-0.01,0.01-0.029,0.019-0.038,0.029
		C261.162,105.615,261.439,105.874,261.735,106.189z"/>
	<path d="M248.663,73.877c0-0.459-0.019-0.88-0.009-1.349c0,0.469-0.029,0.88-0.039,1.339
		C248.625,73.877,248.644,73.877,248.663,73.877z"/>
	<path d="M266.66,91.855c0,0.019,0.01,0.038,0.01,0.048c0.459-0.01,0.88-0.029,1.348-0.039
		C267.54,91.874,267.119,91.855,266.66,91.855z"/>
	<path d="M246.292,74.078c-12.278-97.92-66.613-75.678-8.578,3.395C240.172,75.646,243.098,74.47,246.292,74.078z"/>
	<path d="M263.103,81.327c1.855,2.524,3.031,5.527,3.385,8.807C364.417,79.356,342.347,23.607,263.103,81.327z"/>
	<path d="M262.979,78.812c-0.383,0.354-0.746,0.65-1.128,0.995c0.009,0.019,0.019,0.028,0.038,0.048
		C262.261,79.5,262.586,79.156,262.979,78.812z"/>
	<path d="M235.218,104.41c-0.315,0.296-0.593,0.583-0.908,0.89c0.325-0.296,0.622-0.555,0.947-0.851
		C235.237,104.429,235.228,104.42,235.218,104.41z"/>
	<path d="M228.974,91.845c0.468,0,0.88,0.038,1.339,0.038c0-0.019,0-0.038,0.009-0.048
		C229.854,91.835,229.433,91.855,228.974,91.845z"/>
	<path d="M230.504,89.961c0.421-3.576,1.855-6.809,4.036-9.448C159.521,18.989,133.598,78.267,230.504,89.961z"/>
	<path d="M250.624,74.078c3.577,0.421,6.799,1.865,9.429,4.054C321.826,3.086,262.529-22.857,250.624,74.078z"/>
	<path d="M233.812,102.708c-1.769-2.429-2.907-5.307-3.289-8.434C132.173,106.734,153.077,160.982,233.812,102.708z"/>
	<path d="M236.299,78.639c-0.354-0.392-0.698-0.727-1.062-1.119c0.364,0.392,0.66,0.765,1.014,1.157
		C236.271,78.659,236.29,78.649,236.299,78.639z"/>
	<path d="M240.095,93.241c0.201,1.368,0.688,2.582,1.454,3.663c0.191,0.268,0.334,0.564,0.545,0.812
		c0.096,0.105,0.144,0.258,0.239,0.354c0.22,0.229,0.516,0.354,0.765,0.555c1.157,0.947,2.553,1.549,4.093,1.788
		c0.392,0.058,0.746,0.229,1.157,0.229c0.048,0,0.086,0.029,0.134,0.029c0.105,0,0.182-0.058,0.287-0.058
		c0.277-0.009,0.516-0.124,0.784-0.162c1.396-0.182,2.648-0.688,3.758-1.454c0.277-0.201,0.593-0.344,0.851-0.574
		c0.105-0.096,0.249-0.144,0.354-0.239c0.22-0.22,0.344-0.507,0.535-0.746c0.947-1.157,1.54-2.544,1.789-4.083
		c0.067-0.401,0.239-0.774,0.239-1.195c0-0.038,0.029-0.076,0.029-0.115c0-0.105-0.057-0.201-0.057-0.306
		c-0.01-0.268-0.125-0.497-0.153-0.755c-0.182-1.434-0.698-2.706-1.501-3.834c-0.163-0.229-0.287-0.487-0.479-0.698
		c-0.096-0.105-0.143-0.249-0.239-0.354c-0.268-0.277-0.603-0.449-0.899-0.698c-1.176-0.937-2.572-1.54-4.141-1.759
		c-0.306-0.039-0.574-0.172-0.889-0.182c-0.096,0-0.182-0.058-0.277-0.058c-0.048,0-0.096,0.029-0.144,0.029
		c-0.363,0.01-0.679,0.153-1.023,0.21c-1.396,0.201-2.639,0.708-3.739,1.492c-0.22,0.153-0.459,0.277-0.669,0.449
		c-0.105,0.096-0.258,0.144-0.354,0.239c-0.287,0.268-0.469,0.612-0.708,0.918c-0.937,1.176-1.54,2.582-1.75,4.141
		c-0.039,0.287-0.163,0.545-0.172,0.851c0,0.105-0.057,0.191-0.057,0.296c0,0.048,0.028,0.086,0.028,0.134
		C239.885,92.553,240.047,92.878,240.095,93.241z"/>
	<path d="M495.338,195.522c99.449-42.84,26.898-114.693-15.387-15.243c42.295-99.45-68.104-99.45-23.418,0
		c-44.686-99.45-114.195-27.598-14.746,15.243c-99.449-42.84-99.449,67.549,0,23.418c-99.449,44.131-29.939,114.338,14.746,14.889
		c-18.522,41.224-10.385,65.302,2.467,72.35v39.569c-5.116-6.98-11.341-9.82-17.633-10.643c-11.035-1.454-27.187,6.98-45.9-5.489
		c1.778,47.898,43.433,61.649,56.056,53.588c2.936-1.874,5.402-3.7,7.478-5.393v30.055H325.125v-8.453
		c1.692,0.478,3.462,0.946,5.565,1.339c11.608,2.151,37.953-20.234,25.063-55.74c-9.467,13.914-22.769,13.426-30.629,17.041v-14.325
		c5.537-7.019,7.698-20.798,0-41.319v-0.66c29.252,62.635,75.888,15.73,8.846-14.028c68.371,30.342,68.371-45.555,0-16.103
		c68.371-29.452,18.493-78.852-10.576-10.48c29.079-68.372-46.818-68.372-16.104,0c-30.725-68.372-78.508-18.972-10.137,10.48
		c-17.451-7.516-30.428-8.147-38.967-5.451v-122.62c17.776,52.986,49.859,27.54,0.899-40.784c-0.296,0.21-0.593,0.421-0.899,0.612
		c-2.286,1.454-4.925,2.955-7.746,3.261c-0.603,0.077-1.186,0.794-1.798,0.794c-0.019,0-0.038,0-0.048,0
		c-0.038,0-0.067-0.583-0.105-0.583c-0.832,0-1.616-0.44-2.419-0.545c-2.543-0.344-4.906-1.329-7-2.61
		c-0.823-0.507-1.587-1.157-2.314-1.779c-55.491,65.637-17.26,93.655,2.314,35.133v266.822h-114.76v-41.329
		c2.4,2.151,5.518,4.58,9.477,7.104c12.623,8.062,54.277-5.689,56.055-53.588c-18.714,12.47-34.865,4.035-45.9,5.489
		c-7.143,0.937-14.191,4.514-19.632,13.779v-34.684c11.619-8.615,18.255-32.168,1.826-70.81
		c42.295,99.45,114.836,29.242,15.386-14.889c99.45,44.141,99.45-66.258,0-23.418c99.45-42.84,26.899-114.693-15.386-15.243
		c42.295-99.45-68.104-99.45-23.418,0c-44.686-99.45-114.195-27.598-14.745,15.243c-99.45-42.84-99.45,67.549,0,23.418
		c-99.45,44.131-29.94,114.338,14.745,14.889c-18.522,41.224-10.385,65.302,2.467,72.35v21.793c-2.63-1.281-5.336-2.075-8.071-2.429
		c-11.035-1.454-27.186,6.98-45.9-5.489c1.692,45.575,39.436,60.187,53.971,54.554v33.259H19.125C8.559,407.867,0,416.425,0,426.992
		v114.75c0,10.566,8.559,19.125,19.125,19.125h497.25c10.566,0,19.125-8.559,19.125-19.125v-114.75
		c0-10.566-8.559-19.125-19.125-19.125h-38.25V304.639c11.618-8.615,18.255-32.168,1.826-70.81
		c42.295,99.45,114.836,29.242,15.387-14.889C594.787,263.071,594.787,152.682,495.338,195.522z M101.2,206.796
		c0-7.401,6.005-13.407,13.407-13.407s13.407,6.005,13.407,13.407s-6.005,13.407-13.407,13.407S101.2,214.207,101.2,206.796z
		 M323.451,283.296c0,4.437-3.595,8.033-8.032,8.033c-4.437,0-8.032-3.596-8.032-8.033s3.596-8.032,8.032-8.032
		C319.856,275.264,323.451,278.869,323.451,283.296z M258.188,297.688c8.539,2.581,21.516,1.778,38.967-5.968
		c-67.425,29.922-21.889,77.198,8.846,12.919v0.431c-9.582,23.142-6.617,37.944,0,44.389v58.408h-47.812V297.688z M487.688,426.992
		c10.566,0,19.125,8.559,19.125,19.125s-8.559,19.125-19.125,19.125H47.812c-10.566,0-19.125-8.559-19.125-19.125
		s8.559-19.125,19.125-19.125h57.375v28.688h19.125v-28.688h114.75v28.688h19.125v-28.688H306v28.688h19.125v-28.688H459v28.688
		h19.125v-28.688H487.688z M468.429,220.212c-7.401,0-13.406-6.005-13.406-13.407s6.005-13.407,13.406-13.407
		s13.406,6.005,13.406,13.407S475.83,220.212,468.429,220.212z"/>
</g>
<g>
</g>
<g>
</g>
<g>
</g>
<g>
</g>
<g>
</g>
<g>
</g>
<g>
</g>
<g>
</g>
<g>
</g>
<g>
</g>
<g>
</g>
<g>
</g>
<g>
</g>
<g>
</g>
<g>
</g>
</svg>
