<svg xmlns="http://www.w3.org/2000/svg" width="569.925" height="569.925" style="enable-background:new 0 0 569.925 569.925" xml:space="preserve"><path d="M266.43 94.513a18.042 18.042 0 0 1-4.179 9.295c75.171 63.791 101.21 4.418 4.179-9.295zM261.735 106.189c-.296-.315-.536-.612-.832-.918-.01.01-.029.019-.038.029.297.315.574.574.87.889zM248.663 73.877c0-.459-.019-.88-.009-1.349 0 .469-.029.88-.039 1.339.01.01.029.01.048.01zM266.66 91.855c0 .019.01.038.01.048.459-.01.88-.029 1.348-.039-.478.01-.899-.009-1.358-.009zM246.292 74.078c-12.278-97.92-66.613-75.678-8.578 3.395 2.458-1.827 5.384-3.003 8.578-3.395zM263.103 81.327c1.855 2.524 3.031 5.527 3.385 8.807 97.929-10.778 75.859-66.527-3.385-8.807zM262.979 78.812c-.383.354-.746.65-1.128.995.009.019.019.028.038.048.372-.355.697-.699 1.09-1.043zM235.218 104.41c-.315.296-.593.583-.908.89.325-.296.622-.555.947-.851l-.039-.039zM228.974 91.845c.468 0 .88.038 1.339.038 0-.019 0-.038.009-.048-.468 0-.889.02-1.348.01zM230.504 89.961a18.08 18.08 0 0 1 4.036-9.448c-75.019-61.524-100.942-2.246-4.036 9.448zM250.624 74.078a17.944 17.944 0 0 1 9.429 4.054c61.773-75.046 2.476-100.989-9.429-4.054zM233.812 102.708c-1.769-2.429-2.907-5.307-3.289-8.434-98.35 12.46-77.446 66.708 3.289 8.434zM236.299 78.639c-.354-.392-.698-.727-1.062-1.119.364.392.66.765 1.014 1.157.02-.018.039-.028.048-.038zM240.095 93.241a8.322 8.322 0 0 0 1.454 3.663c.191.268.334.564.545.812.096.105.144.258.239.354.22.229.516.354.765.555 1.157.947 2.553 1.549 4.093 1.788.392.058.746.229 1.157.229.048 0 .086.029.134.029.105 0 .182-.058.287-.058.277-.009.516-.124.784-.162a8.475 8.475 0 0 0 3.758-1.454c.277-.201.593-.344.851-.574.105-.096.249-.144.354-.239.22-.22.344-.507.535-.746.947-1.157 1.54-2.544 1.789-4.083.067-.401.239-.774.239-1.195 0-.038.029-.076.029-.115 0-.105-.057-.201-.057-.306-.01-.268-.125-.497-.153-.755a8.32 8.32 0 0 0-1.501-3.834c-.163-.229-.287-.487-.479-.698-.096-.105-.143-.249-.239-.354-.268-.277-.603-.449-.899-.698a8.435 8.435 0 0 0-4.141-1.759c-.306-.039-.574-.172-.889-.182-.096 0-.182-.058-.277-.058-.048 0-.096.029-.144.029-.363.01-.679.153-1.023.21a8.417 8.417 0 0 0-3.739 1.492c-.22.153-.459.277-.669.449-.105.096-.258.144-.354.239-.287.268-.469.612-.708.918a8.38 8.38 0 0 0-1.75 4.141c-.039.287-.163.545-.172.851 0 .105-.057.191-.057.296 0 .048.028.086.028.134 0 .393.162.718.21 1.081z"/><path d="M495.338 195.522c99.449-42.84 26.898-114.693-15.387-15.243 42.295-99.45-68.104-99.45-23.418 0-44.686-99.45-114.195-27.598-14.746 15.243-99.449-42.84-99.449 67.549 0 23.418-99.449 44.131-29.939 114.338 14.746 14.889-18.522 41.224-10.385 65.302 2.467 72.35v39.569c-5.116-6.98-11.341-9.82-17.633-10.643-11.035-1.454-27.187 6.98-45.9-5.489 1.778 47.898 43.433 61.649 56.056 53.588a79.267 79.267 0 0 0 7.478-5.393v30.055H325.125v-8.453c1.692.478 3.462.946 5.565 1.339 11.608 2.151 37.953-20.234 25.063-55.74-9.467 13.914-22.769 13.426-30.629 17.041v-14.325c5.537-7.019 7.698-20.798 0-41.319v-.66c29.252 62.635 75.888 15.73 8.846-14.028 68.371 30.342 68.371-45.555 0-16.103 68.371-29.452 18.493-78.852-10.576-10.48 29.079-68.372-46.818-68.372-16.104 0-30.725-68.372-78.508-18.972-10.137 10.48-17.451-7.516-30.428-8.147-38.967-5.451v-122.62c17.776 52.986 49.859 27.54.899-40.784-.296.21-.593.421-.899.612-2.286 1.454-4.925 2.955-7.746 3.261-.603.077-1.186.794-1.798.794h-.048c-.038 0-.067-.583-.105-.583-.832 0-1.616-.44-2.419-.545-2.543-.344-4.906-1.329-7-2.61-.823-.507-1.587-1.157-2.314-1.779-55.491 65.637-17.26 93.655 2.314 35.133v266.822H124.31v-41.329c2.4 2.151 5.518 4.58 9.477 7.104 12.623 8.062 54.277-5.689 56.055-53.588-18.714 12.47-34.865 4.035-45.9 5.489-7.143.937-14.191 4.514-19.632 13.779v-34.684c11.619-8.615 18.255-32.168 1.826-70.81 42.295 99.45 114.836 29.242 15.386-14.889 99.45 44.141 99.45-66.258 0-23.418 99.45-42.84 26.899-114.693-15.386-15.243 42.295-99.45-68.104-99.45-23.418 0-44.686-99.45-114.195-27.598-14.745 15.243-99.45-42.84-99.45 67.549 0 23.418-99.45 44.131-29.94 114.338 14.745 14.889-18.522 41.224-10.385 65.302 2.467 72.35v21.793a25.964 25.964 0 0 0-8.071-2.429c-11.035-1.454-27.186 6.98-45.9-5.489 1.692 45.575 39.436 60.187 53.971 54.554v33.259h-86.06C8.559 407.867 0 416.425 0 426.992v114.75c0 10.566 8.559 19.125 19.125 19.125h497.25c10.566 0 19.125-8.559 19.125-19.125v-114.75c0-10.566-8.559-19.125-19.125-19.125h-38.25V304.639c11.618-8.615 18.255-32.168 1.826-70.81 42.295 99.45 114.836 29.242 15.387-14.889 99.449 44.131 99.449-66.258 0-23.418zM101.2 206.796c0-7.401 6.005-13.407 13.407-13.407s13.407 6.005 13.407 13.407-6.005 13.407-13.407 13.407-13.407-5.996-13.407-13.407zm222.251 76.5a8.032 8.032 0 0 1-8.032 8.033c-4.437 0-8.032-3.596-8.032-8.033a8.031 8.031 0 1 1 16.064 0zm-65.263 14.392c8.539 2.581 21.516 1.778 38.967-5.968-67.425 29.922-21.889 77.198 8.846 12.919v.431c-9.582 23.142-6.617 37.944 0 44.389v58.408h-47.812V297.688zm229.5 129.304c10.566 0 19.125 8.559 19.125 19.125s-8.559 19.125-19.125 19.125H47.812c-10.566 0-19.125-8.559-19.125-19.125s8.559-19.125 19.125-19.125h57.375v28.688h19.125v-28.688h114.75v28.688h19.125v-28.688H306v28.688h19.125v-28.688H459v28.688h19.125v-28.688h9.563zm-19.259-206.78c-7.401 0-13.406-6.005-13.406-13.407s6.005-13.407 13.406-13.407 13.406 6.005 13.406 13.407-6.005 13.407-13.406 13.407z"/></svg>