<?xml version="1.0" encoding="iso-8859-1"?>
<!-- Generator: Adobe Illustrator 16.0.0, SVG Export Plug-In . SVG Version: 6.00 Build 0)  -->
<!DOCTYPE svg PUBLIC "-//W3C//DTD SVG 1.1//EN" "http://www.w3.org/Graphics/SVG/1.1/DTD/svg11.dtd">
<svg version="1.1" id="Capa_1" xmlns="http://www.w3.org/2000/svg" xmlns:xlink="http://www.w3.org/1999/xlink" x="0px" y="0px"
	 width="540.9px" height="540.899px" viewBox="0 0 540.9 540.899" style="enable-background:new 0 0 540.9 540.899;"
	 xml:space="preserve">
<g>
	<g>
		<path d="M316.132,48.007c-66.46,0-137.701,27.731-195.076,74.587c13.388-2.391,29.644-0.478,40.641,13.866
			c1.435,1.913,0.957,4.781-0.956,6.216c-0.956,0.478-1.913,0.956-2.869,0.956c-1.435,0-2.391-0.478-3.347-1.913
			c-16.734-21.516-47.334-5.737-48.769-4.781c-0.478,0.478-1.435,0.478-1.913,0.478C50.772,186.185,11.566,252.166,3.438,326.754
			C-17.121,514.179,51.729,491.229,286.01,492.663c194.597,0.956,208.463,4.781,248.625-148.219
			C569.539,213.438,453.354,48.007,316.132,48.007z M477.26,266.032c0.956-1.913,3.825-2.869,5.737-1.913
			c13.388,6.694,36.338,26.775,28.21,53.072c-0.479,1.912-2.391,2.868-4.304,2.868c-0.478,0-0.956,0-1.434,0
			c-2.391-0.956-3.348-3.347-2.869-5.259c8.128-26.297-23.428-42.554-23.906-43.031C477.26,270.813,476.304,267.944,477.26,266.032z
			 M463.395,298.066c-0.479,0-0.956,0.478-1.913,0.478c-1.912,0-3.347-0.956-3.824-2.868c-9.085-21.516-34.426-19.604-43.031-18.169
			c-7.65,10.997-13.388,27.731-19.604,48.769c-9.562,31.557-20.56,67.894-48.291,88.453c14.822,1.435,32.513,8.606,38.729,27.731
			c0.479,2.391-0.479,4.781-2.869,5.26c-0.478,0-0.956,0-1.434,0c-1.913,0-3.348-1.435-4.304-2.869
			c-8.128-26.297-42.553-21.994-43.987-21.516c-0.479,0-0.479,0-0.956,0c-11.953,5.26-25.819,8.606-43.031,8.606
			c-6.216,0-13.388-0.479-20.56-1.435c-24.862-3.347-44.466-8.606-60.722-15.778c-1.435-0.478-5.738-0.478-7.172,0
			c-27.253,1.913-31.078,37.294-31.078,37.772c0,2.391-1.913,3.824-4.303,3.824h-0.478c-2.391-0.478-4.303-2.391-3.825-4.781
			c1.435-13.387,10.041-38.25,32.513-44.465c-2.869-1.913-8.606-5.26-8.606-5.26c-26.775-6.693-41.119,25.818-41.119,26.297
			c-0.478,1.435-2.391,2.391-3.825,2.391c-0.478,0-0.956,0-1.913-0.479c-2.391-0.956-3.347-3.347-2.391-5.737
			c4.781-11.475,18.647-30.122,38.729-32.034c-32.035-31.557-31.078-75.065-30.122-110.447c0.478-12.909,0.478-23.906-0.478-32.99
			c-16.734-20.081-46.378-4.781-47.812-3.825c-1.913,0.956-4.781,0.479-5.738-1.912c-0.956-1.913-0.478-4.781,1.913-5.737
			c10.519-5.738,31.556-11.476,48.291-2.391c-2.869-6.694-8.128-10.519-16.256-12.431c-2.869-0.478-4.303-2.869-3.825-5.737
			c0.478-2.869,3.347-4.303,5.737-3.825c29.644,5.737,29.166,36.815,28.209,69.328c-1.434,54.984-2.869,123.834,116.185,138.656
			c83.194,10.519,99.929-46.856,115.229-97.537c11.953-40.163,23.428-78.413,66.938-68.851c2.869,0.479,4.303,3.347,3.825,5.737
			c-0.479,2.869-3.347,4.304-5.737,3.825c-10.997-2.391-19.604-0.956-26.775,3.825c15.3,0,33.947,5.26,41.597,23.906
			C466.742,294.241,465.786,297.11,463.395,298.066z"/>
	</g>
</g>
<g>
</g>
<g>
</g>
<g>
</g>
<g>
</g>
<g>
</g>
<g>
</g>
<g>
</g>
<g>
</g>
<g>
</g>
<g>
</g>
<g>
</g>
<g>
</g>
<g>
</g>
<g>
</g>
<g>
</g>
</svg>
