<svg xmlns="http://www.w3.org/2000/svg" width="540.9" height="540.899" style="enable-background:new 0 0 540.9 540.899" xml:space="preserve"><path d="M316.132 48.007c-66.46 0-137.701 27.731-195.076 74.587 13.388-2.391 29.644-.478 40.641 13.866 1.435 1.913.957 4.781-.956 6.216-.956.478-1.913.956-2.869.956-1.435 0-2.391-.478-3.347-1.913-16.734-21.516-47.334-5.737-48.769-4.781-.478.478-1.435.478-1.913.478-53.071 48.769-92.277 114.75-100.405 189.338-20.559 187.425 48.291 164.475 282.572 165.909 194.597.956 208.463 4.781 248.625-148.219 34.904-131.006-81.281-296.437-218.503-296.437zM477.26 266.032c.956-1.913 3.825-2.869 5.737-1.913 13.388 6.694 36.338 26.775 28.21 53.072-.479 1.912-2.391 2.868-4.304 2.868h-1.434c-2.391-.956-3.348-3.347-2.869-5.259 8.128-26.297-23.428-42.554-23.906-43.031-1.434-.956-2.39-3.825-1.434-5.737zm-13.865 32.034c-.479 0-.956.478-1.913.478-1.912 0-3.347-.956-3.824-2.868-9.085-21.516-34.426-19.604-43.031-18.169-7.65 10.997-13.388 27.731-19.604 48.769-9.562 31.557-20.56 67.894-48.291 88.453 14.822 1.435 32.513 8.606 38.729 27.731.479 2.391-.479 4.781-2.869 5.26h-1.434c-1.913 0-3.348-1.435-4.304-2.869-8.128-26.297-42.553-21.994-43.987-21.516h-.956c-11.953 5.26-25.819 8.606-43.031 8.606-6.216 0-13.388-.479-20.56-1.435-24.862-3.347-44.466-8.606-60.722-15.778-1.435-.478-5.738-.478-7.172 0-27.253 1.913-31.078 37.294-31.078 37.772 0 2.391-1.913 3.824-4.303 3.824h-.478c-2.391-.478-4.303-2.391-3.825-4.781 1.435-13.387 10.041-38.25 32.513-44.465-2.869-1.913-8.606-5.26-8.606-5.26-26.775-6.693-41.119 25.818-41.119 26.297-.478 1.435-2.391 2.391-3.825 2.391-.478 0-.956 0-1.913-.479-2.391-.956-3.347-3.347-2.391-5.737 4.781-11.475 18.647-30.122 38.729-32.034-32.035-31.557-31.078-75.065-30.122-110.447.478-12.909.478-23.906-.478-32.99-16.734-20.081-46.378-4.781-47.812-3.825-1.913.956-4.781.479-5.738-1.912-.956-1.913-.478-4.781 1.913-5.737 10.519-5.738 31.556-11.476 48.291-2.391-2.869-6.694-8.128-10.519-16.256-12.431-2.869-.478-4.303-2.869-3.825-5.737.478-2.869 3.347-4.303 5.737-3.825 29.644 5.737 29.166 36.815 28.209 69.328-1.434 54.984-2.869 123.834 116.185 138.656 83.194 10.519 99.929-46.856 115.229-97.537 11.953-40.163 23.428-78.413 66.938-68.851 2.869.479 4.303 3.347 3.825 5.737-.479 2.869-3.347 4.304-5.737 3.825-10.997-2.391-19.604-.956-26.775 3.825 15.3 0 33.947 5.26 41.597 23.906 1.431 2.391.475 5.26-1.916 6.216z"/></svg>