<?xml version="1.0" encoding="iso-8859-1"?>
<!-- Generator: Adobe Illustrator 16.0.0, SVG Export Plug-In . SVG Version: 6.00 Build 0)  -->
<!DOCTYPE svg PUBLIC "-//W3C//DTD SVG 1.1//EN" "http://www.w3.org/Graphics/SVG/1.1/DTD/svg11.dtd">
<svg version="1.1" id="Capa_1" xmlns="http://www.w3.org/2000/svg" xmlns:xlink="http://www.w3.org/1999/xlink" x="0px" y="0px"
	 width="568.969px" height="568.969px" viewBox="0 0 568.969 568.969" style="enable-background:new 0 0 568.969 568.969;"
	 xml:space="preserve">
<g>
	<g>
		<path d="M284.475,228.305c7.038,0,13.942,0.536,20.77,1.348l12.106-210.528C317.351,8.559,308.792,0,298.226,0h-28.688
			c-10.566,0-19.125,8.559-19.125,19.125l8.979,211.188C267.606,229.127,275.936,228.305,284.475,228.305z M286.272,21.516
			c7.918,0,14.344,6.426,14.344,14.344s-6.426,14.344-14.344,14.344s-14.344-6.426-14.344-14.344S278.354,21.516,286.272,21.516z"/>
		<path d="M284.475,528.711c69.089,0,125.288-56.199,125.288-125.288s-56.199-125.288-125.288-125.288
			s-125.288,56.199-125.288,125.288S215.395,528.711,284.475,528.711z"/>
		<path d="M284.475,568.969c91.427,0,165.556-74.119,165.556-165.546c0-84.571-63.457-154.205-145.331-164.198
			c-6.636-0.813-13.358-1.358-20.215-1.358c-8.415,0-16.61,0.832-24.681,2.037c-79.694,11.944-140.865,80.488-140.865,163.509
			C118.929,494.85,193.048,568.969,284.475,568.969z M260.941,270.762c7.66-1.358,15.501-2.19,23.543-2.19
			c6.913,0,13.665,0.688,20.301,1.693c64.738,9.839,114.55,65.713,114.55,133.158c0,74.358-60.492,134.851-134.851,134.851
			c-74.358,0-134.851-60.492-134.851-134.851C149.625,337.106,197.781,281.94,260.941,270.762z"/>
	</g>
</g>
<g>
</g>
<g>
</g>
<g>
</g>
<g>
</g>
<g>
</g>
<g>
</g>
<g>
</g>
<g>
</g>
<g>
</g>
<g>
</g>
<g>
</g>
<g>
</g>
<g>
</g>
<g>
</g>
<g>
</g>
</svg>
