<svg xmlns="http://www.w3.org/2000/svg" width="568.969" height="568.969" style="enable-background:new 0 0 568.969 568.969" xml:space="preserve"><path d="M284.475 228.305c7.038 0 13.942.536 20.77 1.348l12.106-210.528C317.351 8.559 308.792 0 298.226 0h-28.688c-10.566 0-19.125 8.559-19.125 19.125l8.979 211.188c8.214-1.186 16.544-2.008 25.083-2.008zm1.797-206.789c7.918 0 14.344 6.426 14.344 14.344s-6.426 14.344-14.344 14.344-14.344-6.426-14.344-14.344 6.426-14.344 14.344-14.344zM284.475 528.711c69.089 0 125.288-56.199 125.288-125.288s-56.199-125.288-125.288-125.288-125.288 56.199-125.288 125.288 56.208 125.288 125.288 125.288z"/><path d="M284.475 568.969c91.427 0 165.556-74.119 165.556-165.546 0-84.571-63.457-154.205-145.331-164.198-6.636-.813-13.358-1.358-20.215-1.358-8.415 0-16.61.832-24.681 2.037-79.694 11.944-140.865 80.488-140.865 163.509-.01 91.437 74.109 165.556 165.536 165.556zm-23.534-298.207c7.66-1.358 15.501-2.19 23.543-2.19 6.913 0 13.665.688 20.301 1.693 64.738 9.839 114.55 65.713 114.55 133.158 0 74.358-60.492 134.851-134.851 134.851-74.358 0-134.851-60.492-134.851-134.851-.008-66.317 48.148-121.483 111.308-132.661z"/></svg>