<svg xmlns="http://www.w3.org/2000/svg" width="382.5" height="382.5" style="enable-background:new 0 0 382.5 382.5" xml:space="preserve"><path d="M47.812 325.125h124.312V191.25H47.812v133.875zm104.394-73.315a7.966 7.966 0 1 1-7.965 7.965c-.01-4.399 3.557-7.965 7.965-7.965z"/><path d="M0 344.25v38.25h38.25v-19.125h306V382.5h38.25V0H0v344.25zm210.375-9.562v-153h143.438v153H210.375zm0-306h143.438v57.375H210.375V28.688zm-172.125 0h143.438v57.375H38.25V28.688zm0 76.5h315.562v57.375H38.25v-57.375zm0 76.5h143.438v153H38.25v-153z"/><path d="M320.344 47.812h-76.5c-2.64 0-4.781-5.441-4.781-9.562h-19.125V76.5H344.25V38.25h-19.125c0 4.122-2.142 9.562-4.781 9.562zM148.219 47.812h-76.5c-2.639 0-4.781-5.441-4.781-9.562H47.812V76.5h124.312V38.25H153c0 4.122-2.142 9.562-4.781 9.562zM219.938 325.125H344.25V191.25H219.938v133.875zm18.331-73.315a7.966 7.966 0 1 1-7.965 7.965c-.01-4.399 3.556-7.965 7.965-7.965zM234.281 124.312h-76.5c-2.639 0-4.781-5.441-4.781-9.562H47.812V153H344.25v-38.25H239.062c0 4.122-2.141 9.562-4.781 9.562z"/></svg>