<svg xmlns="http://www.w3.org/2000/svg" width="495.555" height="495.555" style="enable-background:new 0 0 495.555 495.555" xml:space="preserve"><path d="m427.783 164.441-52.929-11.819-19.526-50.585 62.807-72.904c-31.662-5.652-65.398 4.982-87.908 31.116-25.054 29.089-29.128 69.08-13.703 101.688-.287.315-.631.545-.918.87l-59.135 68.649 52.164 56.658 64.929-75.372c.277-.325.459-.698.727-1.033 34.53 10.424 73.479.469 98.532-28.611 22.511-26.134 28.037-61.066 17.758-91.542l-62.798 72.885zM106.531 405.513c-12.928 15.004-11.236 37.647 3.768 50.576l3.625 3.117c15.003 12.929 37.647 11.236 50.576-3.768l81.319-94.401-52.164-56.657-87.124 101.133z"/><path d="m302.352 295.4-52.163-56.659-68.926-74.855c-.287-.315-.65-.526-.947-.832a94.224 94.224 0 0 0 1.865-4.705 100.995 100.995 0 0 0 1.654-4.877c9.572-30.973 2.964-66.039-20.578-91.608-23.361-25.379-57.433-34.894-88.884-28.2l65.178 70.792-17.844 51.207-52.508 13.56L4.021 98.432c-9.266 30.801-2.591 65.532 20.779 90.911 23.533 25.551 57.911 35.037 89.553 28.065a99.46 99.46 0 0 0 5.03-1.243 87.887 87.887 0 0 0 4.848-1.472c.277.324.469.688.755 1.004l74.941 81.386 52.163 56.658 89.878 97.614c7.067 7.679 16.716 11.57 26.393 11.57a35.751 35.751 0 0 0 24.279-9.477l3.52-3.241c14.573-13.416 15.51-36.099 2.094-50.672L302.352 295.4z"/></svg>