<?xml version="1.0" encoding="iso-8859-1"?>
<!-- Generator: Adobe Illustrator 16.0.0, SVG Export Plug-In . SVG Version: 6.00 Build 0)  -->
<!DOCTYPE svg PUBLIC "-//W3C//DTD SVG 1.1//EN" "http://www.w3.org/Graphics/SVG/1.1/DTD/svg11.dtd">
<svg version="1.1" id="Capa_1" xmlns="http://www.w3.org/2000/svg" xmlns:xlink="http://www.w3.org/1999/xlink" x="0px" y="0px"
	 width="495.555px" height="495.555px" viewBox="0 0 495.555 495.555" style="enable-background:new 0 0 495.555 495.555;"
	 xml:space="preserve">
<g>
	<g>
		<path d="M427.783,164.441l-52.929-11.819l-19.526-50.585l62.807-72.904c-31.662-5.652-65.398,4.982-87.908,31.116
			c-25.054,29.089-29.128,69.08-13.703,101.688c-0.287,0.315-0.631,0.545-0.918,0.87l-59.135,68.649l52.164,56.658l64.929-75.372
			c0.277-0.325,0.459-0.698,0.727-1.033c34.53,10.424,73.479,0.469,98.532-28.611c22.511-26.134,28.037-61.066,17.758-91.542
			L427.783,164.441z"/>
		<path d="M106.531,405.513c-12.928,15.004-11.236,37.647,3.768,50.576l3.625,3.117c15.003,12.929,37.647,11.236,50.576-3.768
			l81.319-94.401l-52.164-56.657L106.531,405.513z"/>
		<path d="M302.352,295.4l-52.163-56.659l-68.926-74.855c-0.287-0.315-0.65-0.526-0.947-0.832c0.669-1.549,1.282-3.127,1.865-4.705
			c0.593-1.616,1.147-3.242,1.654-4.877c9.572-30.973,2.964-66.039-20.578-91.608c-23.361-25.379-57.433-34.894-88.884-28.2
			l65.178,70.792l-17.844,51.207l-52.508,13.56L4.021,98.432c-9.266,30.801-2.591,65.532,20.779,90.911
			c23.533,25.551,57.911,35.037,89.553,28.065c1.683-0.372,3.366-0.783,5.03-1.243c1.625-0.449,3.242-0.927,4.848-1.472
			c0.277,0.324,0.469,0.688,0.755,1.004l74.941,81.386l52.163,56.658l89.878,97.614c7.067,7.679,16.716,11.57,26.393,11.57
			c8.684,0,17.385-3.137,24.279-9.477l3.52-3.241c14.573-13.416,15.51-36.099,2.094-50.672L302.352,295.4z"/>
	</g>
</g>
<g>
</g>
<g>
</g>
<g>
</g>
<g>
</g>
<g>
</g>
<g>
</g>
<g>
</g>
<g>
</g>
<g>
</g>
<g>
</g>
<g>
</g>
<g>
</g>
<g>
</g>
<g>
</g>
<g>
</g>
</svg>
