<?xml version="1.0" encoding="iso-8859-1"?>
<!-- Generator: Adobe Illustrator 16.0.0, SVG Export Plug-In . SVG Version: 6.00 Build 0)  -->
<!DOCTYPE svg PUBLIC "-//W3C//DTD SVG 1.1//EN" "http://www.w3.org/Graphics/SVG/1.1/DTD/svg11.dtd">
<svg version="1.1" id="Capa_1" xmlns="http://www.w3.org/2000/svg" xmlns:xlink="http://www.w3.org/1999/xlink" x="0px" y="0px"
	 width="545.062px" height="545.062px" viewBox="0 0 545.062 545.062" style="enable-background:new 0 0 545.062 545.062;"
	 xml:space="preserve">
<g>
	<g>
		<path d="M525.938,90.844H19.125C8.559,90.844,0,99.402,0,109.969v325.125c0,10.566,8.559,19.125,19.125,19.125h506.812
			c10.566,0,19.125-8.559,19.125-19.125V109.969C545.062,99.402,536.504,90.844,525.938,90.844z M413.368,327.143
			c-5.146,0-9.333-4.188-9.333-9.333s4.188-9.333,9.333-9.333c5.145,0,9.333,4.188,9.333,9.333S418.513,327.143,413.368,327.143z
			 M95.625,138.656c0-10.566,8.559-19.125,19.125-19.125s19.125,8.559,19.125,19.125v105.188c0,7.057-3.873,13.158-9.562,16.477
			v79.148h-19.125V260.32c-5.689-3.309-9.562-9.41-9.562-16.477V138.656z M172.125,394.683c0,5.26-2.084,11.724-7.344,11.724h-9.438
			c-3.404,0-3.433-2.965-3.433-5.594c0-1.195,1.09-5.595-8.472-5.595c0,0,0,2.697,0,5.327c0,4.953-2.964,5.861-11.523,5.861h-9.562
			c-1.865,0-3.442-0.832-4.838-1.932c-16.83-0.249-59.326-6.56-59.326-64.088c14.908,26.966,29.443,34.606,37.81,36.691
			c-0.191-0.507-0.373-1.004-0.373-1.521v-27.492l38.25-0.449v18.379c9.562,0,9.562,0.268,9.562,5.049c0,2.63,0,5.049,0,5.049
			c9.562,0,8.472-3.155,8.472-4.236c0-2.629,1.301-3.7,3.433-3.7h10.968c5.259,0,5.814,2.142,5.814,7.401V394.683z M277.312,262.969
			h-9.562v76.5h0.249l9.715,38.25l-9.715,38.25h-19.421l-9.715-38.25l9.715-38.25h0.048v-76.5h-9.562
			c-5.278,0-9.562-4.284-9.562-9.562s4.284-9.562,9.562-9.562V138.656c0-10.566,8.559-19.125,19.125-19.125
			s19.125,8.559,19.125,19.125v105.188c5.278,0,9.562,4.284,9.562,9.562S282.591,262.969,277.312,262.969z M363.375,129.094
			c0-10.566,8.559-19.125,19.125-19.125s19.125,8.559,19.125,19.125v105.188c0,7.057-3.873,13.158-9.562,16.477v19.383
			c0.038,0,1.884,15.788,15.377,29.815c-6.465,2.152-11.38,7.641-12.623,14.469c-19.45-19.412-21.745-42.391-21.841-43.452
			l-0.019-20.215c-5.699-3.309-9.582-9.41-9.582-16.477V129.094z M406.482,399.234l-0.076,19.125
			c-11.724,0-42.133-8.271-42.133-46.015c0-23.763,13.445-37.657,30.485-51.762c1.023,6.875,5.719,12.518,12.059,14.879
			c-15.386,12.813-23.409,21.889-23.409,36.873C383.398,397.561,402.629,399.167,406.482,399.234z M416.418,418.359l-0.076-19.125
			c3.892-0.067,23.313-1.674,23.313-26.89c0-13.464-8.205-24.92-20.521-36.624c6.513-2.104,11.494-7.564,12.785-14.392
			c14.459,13.646,26.871,30.045,26.871,51.025C458.78,410.088,428.199,418.359,416.418,418.359z M459,234.281
			c0,7.076-3.892,13.187-9.61,16.495l-0.058,20.761c-0.162,1.109-3.49,22.462-17.853,41.186c-1.865-6.637-7.201-11.801-13.972-13.32
			c9.199-12.814,12.24-27.005,12.795-30.065v-18.589c-5.689-3.309-9.562-9.41-9.562-16.477V129.094
			c0-10.566,8.559-19.125,19.125-19.125s19.125,8.559,19.125,19.125v105.188H459z"/>
	</g>
</g>
<g>
</g>
<g>
</g>
<g>
</g>
<g>
</g>
<g>
</g>
<g>
</g>
<g>
</g>
<g>
</g>
<g>
</g>
<g>
</g>
<g>
</g>
<g>
</g>
<g>
</g>
<g>
</g>
<g>
</g>
</svg>
