<?xml version="1.0" encoding="iso-8859-1"?>
<!-- Generator: Adobe Illustrator 16.0.0, SVG Export Plug-In . SVG Version: 6.00 Build 0)  -->
<!DOCTYPE svg PUBLIC "-//W3C//DTD SVG 1.1//EN" "http://www.w3.org/Graphics/SVG/1.1/DTD/svg11.dtd">
<svg version="1.1" id="Capa_1" xmlns="http://www.w3.org/2000/svg" xmlns:xlink="http://www.w3.org/1999/xlink" x="0px" y="0px"
	 width="564.188px" height="564.188px" viewBox="0 0 564.188 564.188" style="enable-background:new 0 0 564.188 564.188;"
	 xml:space="preserve">
<g>
	<g>
		<path d="M0,454.219h105.188V272.531h363.375v181.688h95.625V90.844H0V454.219z M105.188,262.969v-19.125h363.375v19.125H105.188z
			 M105.188,224.719h363.375v9.562H105.188V224.719z"/>
		<path d="M210.375,454.219v10.356c0,4.848,3.92,8.769,8.769,8.769h1.597c4.839,0,8.759-3.921,8.759-8.769v-10.356v-9.562h-19.125
			V454.219z"/>
		<path d="M334.688,454.219v10.356c0,4.848,3.921,8.769,8.769,8.769h1.598c4.838,0,8.759-3.921,8.759-8.769v-10.356v-9.562h-19.125
			V454.219z"/>
		<path d="M363.375,358.594H196.031c-7.908,0-14.344,6.436-14.344,14.344v47.812c0,7.908,6.436,14.344,14.344,14.344h14.344H229.5
			h105.188h19.125h14.344c7.908,0,14.344-6.436,14.344-14.344v-43.031C382.5,367.152,373.941,358.594,363.375,358.594z
			 M200.019,402.419c0-7.918,6.426-14.344,14.344-14.344c7.917,0,14.344,6.426,14.344,14.344c0,7.917-6.426,14.344-14.344,14.344
			C206.445,416.763,200.019,410.346,200.019,402.419z M325.125,415.969h-86.062v-9.562h86.062V415.969z M325.125,396.844h-86.062
			v-9.562h86.062V396.844z M348.237,416.763c-7.917,0-14.344-6.427-14.344-14.344c0-7.918,6.427-14.344,14.344-14.344
			c7.918,0,14.344,6.426,14.344,14.344C362.581,410.336,356.155,416.763,348.237,416.763z"/>
		<polygon points="326.34,301.219 342.434,349.031 353.812,349.031 334.688,291.656 229.5,291.656 210.375,349.031 221.754,349.031 
			237.848,301.219 		"/>
		<polygon points="200.812,349.031 200.812,329.906 172.125,329.906 172.125,349.031 196.031,349.031 		"/>
		<polygon points="363.375,349.031 368.156,349.031 392.062,349.031 392.062,329.906 363.375,329.906 		"/>
	</g>
</g>
<g>
</g>
<g>
</g>
<g>
</g>
<g>
</g>
<g>
</g>
<g>
</g>
<g>
</g>
<g>
</g>
<g>
</g>
<g>
</g>
<g>
</g>
<g>
</g>
<g>
</g>
<g>
</g>
<g>
</g>
</svg>
