<svg xmlns="http://www.w3.org/2000/svg" width="508.199" height="508.199" style="enable-background:new 0 0 508.199 508.199" xml:space="preserve"><path d="M469.7 201.506H366.291l-38.259 19.125H37.274c-3.72 8.157-8.396 20.56-8.396 31.671 0 18.063 4.523 25.934 9.764 35.047.048.066.086.152.124.22h289.275l38.25 19.125h102.022c-8.893-10.796-14.697-29.739-14.697-51.8 0-23.18 6.407-42.936 16.084-53.388zM26.832 220.631H12.699C9.715 222.677 0 230.892 0 251.059c0 20.263 9.868 32.742 13.349 36.51h14.468c-4.495-8.252-8.492-17.892-8.492-35.267-.009-11.131 3.826-22.864 7.507-31.671z"/><path d="M485.688 203.103c-.325 0-.659.201-.994.239-3.242.392-6.531 2.706-9.562 6.608-6.665 8.568-11.953 24.614-11.953 44.944s5.288 36.376 11.953 44.943c3.031 3.901 6.32 6.216 9.562 6.607.335.048.669.249.994.249 10.653 0 22.511-21.276 22.511-51.8 0-30.523-11.857-51.79-22.511-51.79zm0 82.075c-.344 0-.659-.201-.994-.287-4.867-1.3-8.769-11.78-9.562-25.417-.096-1.663-.182-3.337-.182-5.078 0-1.74.086-3.414.182-5.078.794-13.636 4.695-24.117 9.562-25.417.335-.086.65-.287.994-.287 5.929 0 10.739 13.78 10.739 30.782.001 17.002-4.81 30.782-10.739 30.782z"/></svg>