<svg xmlns="http://www.w3.org/2000/svg" width="612" height="612" style="enable-background:new 0 0 612 612" xml:space="preserve"><path d="M530.719 215.156h-76.5c-2.64 0-4.781-5.441-4.781-9.562h-19.125v38.25h124.312v-38.25H535.5c0 4.121-2.142 9.562-4.781 9.562zM430.312 425.531h124.312V291.656H430.312v133.875zm18.332-73.315a7.966 7.966 0 1 1-7.965 7.965c-.01-4.399 3.556-7.965 7.965-7.965z"/><path d="M392.062 444.656v38.25h38.25v-19.125h124.312v19.125h38.25V167.344H392.062v277.312zm28.688-248.625h143.438v57.375H420.75v-57.375zm0 86.063h143.438v153H420.75v-153zM167.344 215.156h-76.5c-2.639 0-4.781-5.441-4.781-9.562H66.938v38.25H191.25v-38.25h-19.125c0 4.121-2.142 9.562-4.781 9.562zM66.938 425.531H191.25V291.656H66.938v133.875zm18.331-73.315a7.966 7.966 0 0 1 7.965 7.965 7.966 7.966 0 1 1-15.931.01 7.955 7.955 0 0 1 7.966-7.975z"/><path d="M28.688 444.656v38.25h38.25v-19.125H191.25v19.125h38.25V167.344H28.688v277.312zm28.687-248.625h143.438v57.375H57.375v-57.375zm0 86.063h143.438v153H57.375v-153zM0 129.094h612v28.688H0z"/></svg>