<svg xmlns="http://www.w3.org/2000/svg" width="545.062" height="545.062" style="enable-background:new 0 0 545.062 545.062" xml:space="preserve"><path d="M525.938 90.844H19.125C8.559 90.844 0 99.402 0 109.969v325.125c0 10.566 8.559 19.125 19.125 19.125h506.812c10.566 0 19.125-8.559 19.125-19.125V109.969c0-10.567-8.558-19.125-19.124-19.125zm-112.57 236.299c-5.146 0-9.333-4.188-9.333-9.333s4.188-9.333 9.333-9.333c5.145 0 9.333 4.188 9.333 9.333s-4.188 9.333-9.333 9.333zM95.625 138.656c0-10.566 8.559-19.125 19.125-19.125s19.125 8.559 19.125 19.125v105.188c0 7.057-3.873 13.158-9.562 16.477v79.148h-19.125V260.32c-5.689-3.309-9.562-9.41-9.562-16.477V138.656zm76.5 256.027c0 5.26-2.084 11.724-7.344 11.724h-9.438c-3.404 0-3.433-2.965-3.433-5.594 0-1.195 1.09-5.595-8.472-5.595v5.327c0 4.953-2.964 5.861-11.523 5.861h-9.562c-1.865 0-3.442-.832-4.838-1.932-16.83-.249-59.326-6.56-59.326-64.088 14.908 26.966 29.443 34.606 37.81 36.691-.191-.507-.373-1.004-.373-1.521v-27.492l38.25-.449v18.379c9.562 0 9.562.268 9.562 5.049v5.049c9.562 0 8.472-3.155 8.472-4.236 0-2.629 1.301-3.7 3.433-3.7h10.968c5.259 0 5.814 2.142 5.814 7.401v19.126zm105.187-131.714h-9.562v76.5h.249l9.715 38.25-9.715 38.25h-19.421l-9.715-38.25 9.715-38.25h.048v-76.5h-9.562c-5.278 0-9.562-4.284-9.562-9.562s4.284-9.562 9.562-9.562V138.656c0-10.566 8.559-19.125 19.125-19.125s19.125 8.559 19.125 19.125v105.188c5.278 0 9.562 4.284 9.562 9.562s-4.285 9.563-9.564 9.563zm86.063-133.875c0-10.566 8.559-19.125 19.125-19.125s19.125 8.559 19.125 19.125v105.188c0 7.057-3.873 13.158-9.562 16.477v19.383c.038 0 1.884 15.788 15.377 29.815-6.465 2.152-11.38 7.641-12.623 14.469-19.45-19.412-21.745-42.391-21.841-43.452l-.019-20.215c-5.699-3.309-9.582-9.41-9.582-16.477V129.094zm43.107 270.14-.076 19.125c-11.724 0-42.133-8.271-42.133-46.015 0-23.763 13.445-37.657 30.485-51.762a18.842 18.842 0 0 0 12.059 14.879c-15.386 12.813-23.409 21.889-23.409 36.873-.01 25.227 19.221 26.833 23.074 26.9zm9.936 19.125-.076-19.125c3.892-.067 23.313-1.674 23.313-26.89 0-13.464-8.205-24.92-20.521-36.624 6.513-2.104 11.494-7.564 12.785-14.392 14.459 13.646 26.871 30.045 26.871 51.025-.01 37.735-30.591 46.006-42.372 46.006zM459 234.281c0 7.076-3.892 13.187-9.61 16.495l-.058 20.761c-.162 1.109-3.49 22.462-17.853 41.186-1.865-6.637-7.201-11.801-13.972-13.32 9.199-12.814 12.24-27.005 12.795-30.065v-18.589c-5.689-3.309-9.562-9.41-9.562-16.477V129.094c0-10.566 8.559-19.125 19.125-19.125s19.125 8.559 19.125 19.125v105.188h.01z"/></svg>