<?xml version="1.0" encoding="iso-8859-1"?>
<!-- Generator: Adobe Illustrator 16.0.0, SVG Export Plug-In . SVG Version: 6.00 Build 0)  -->
<!DOCTYPE svg PUBLIC "-//W3C//DTD SVG 1.1//EN" "http://www.w3.org/Graphics/SVG/1.1/DTD/svg11.dtd">
<svg version="1.1" id="Capa_1" xmlns="http://www.w3.org/2000/svg" xmlns:xlink="http://www.w3.org/1999/xlink" x="0px" y="0px"
	 width="382.5px" height="382.5px" viewBox="0 0 382.5 382.5" style="enable-background:new 0 0 382.5 382.5;" xml:space="preserve"
	>
<g>
	<g>
		<path d="M47.812,325.125h124.312V191.25H47.812V325.125z M152.206,251.81c4.399,0,7.966,3.566,7.966,7.965
			c0,4.399-3.567,7.966-7.966,7.966c-4.398,0-7.965-3.566-7.965-7.966C144.231,255.376,147.798,251.81,152.206,251.81z"/>
		<path d="M0,344.25v19.125V382.5h38.25v-19.125h306V382.5h38.25v-19.125V344.25V0H0V344.25z M210.375,334.688v-153h143.438v153
			H210.375z M210.375,28.688h33.469h76.5h33.469v57.375H210.375V28.688z M38.25,28.688h33.469h76.5h33.469v57.375H38.25V28.688z
			 M38.25,105.188h119.531h76.5h119.531v57.375H38.25V105.188z M38.25,181.688h143.438v153H38.25V181.688z"/>
		<path d="M320.344,47.812h-76.5c-2.64,0-4.781-5.441-4.781-9.562h-19.125V76.5H344.25V38.25h-19.125
			C325.125,42.372,322.983,47.812,320.344,47.812z"/>
		<path d="M148.219,47.812h-76.5c-2.639,0-4.781-5.441-4.781-9.562H47.812V76.5h124.312V38.25H153
			C153,42.372,150.858,47.812,148.219,47.812z"/>
		<path d="M219.938,325.125H344.25V191.25H219.938V325.125z M238.269,251.81c4.399,0,7.966,3.566,7.966,7.965
			c0,4.399-3.566,7.966-7.966,7.966c-4.398,0-7.965-3.566-7.965-7.966C230.294,255.376,233.86,251.81,238.269,251.81z"/>
		<path d="M234.281,124.312h-76.5c-2.639,0-4.781-5.441-4.781-9.562H47.812V153H344.25v-38.25H239.062
			C239.062,118.872,236.921,124.312,234.281,124.312z"/>
	</g>
</g>
<g>
</g>
<g>
</g>
<g>
</g>
<g>
</g>
<g>
</g>
<g>
</g>
<g>
</g>
<g>
</g>
<g>
</g>
<g>
</g>
<g>
</g>
<g>
</g>
<g>
</g>
<g>
</g>
<g>
</g>
</svg>
