<svg xmlns="http://www.w3.org/2000/svg" width="564.188" height="564.188" style="enable-background:new 0 0 564.188 564.188" xml:space="preserve"><path d="M0 454.219h105.188V272.531h363.375v181.688h95.625V90.844H0v363.375zm105.188-191.25v-19.125h363.375v19.125H105.188zm0-38.25h363.375v9.562H105.188v-9.562z"/><path d="M210.375 454.219v10.356a8.762 8.762 0 0 0 8.769 8.769h1.597c4.839 0 8.759-3.921 8.759-8.769v-19.918h-19.125v9.562zM334.688 454.219v10.356a8.763 8.763 0 0 0 8.769 8.769h1.598c4.838 0 8.759-3.921 8.759-8.769v-19.918h-19.125v9.562zM363.375 358.594H196.031c-7.908 0-14.344 6.436-14.344 14.344v47.812c0 7.908 6.436 14.344 14.344 14.344h172.126c7.908 0 14.344-6.436 14.344-14.344v-43.031c-.001-10.567-8.56-19.125-19.126-19.125zm-163.356 43.825c0-7.918 6.426-14.344 14.344-14.344 7.917 0 14.344 6.426 14.344 14.344 0 7.917-6.426 14.344-14.344 14.344-7.918 0-14.344-6.417-14.344-14.344zm125.106 13.55h-86.062v-9.562h86.062v9.562zm0-19.125h-86.062v-9.562h86.062v9.562zm23.112 19.919c-7.917 0-14.344-6.427-14.344-14.344 0-7.918 6.427-14.344 14.344-14.344 7.918 0 14.344 6.426 14.344 14.344 0 7.917-6.426 14.344-14.344 14.344zM326.34 301.219l16.094 47.812h11.378l-19.124-57.375H229.5l-19.125 57.375h11.379l16.094-47.812zM200.812 349.031v-19.125h-28.687v19.125h23.906zM363.375 349.031H392.062v-19.125h-28.687z"/></svg>