<svg xmlns="http://www.w3.org/2000/svg" width="535.5" height="535.5" style="enable-background:new 0 0 535.5 535.5" xml:space="preserve"><path d="M241.74 338.055h39.312l-2.009-6.875 22.73 2.85-6.369-21.946 22.769 2.888-6.264-21.898 22.94 3.031-5.919-21.62 23.648 3.576-10.442-42.964 3.099-3.634c5.45 3.213 12.153 5.097 18.848 5.097 9.352 0 17.461-3.471 22.863-9.782l76.386-89.534c11.8-13.847 7.22-37.017-4.447-46.961l-68.726-58.618c-11.724-10.031-32.053-6.847-43.241 6.283l-76.376 89.534c-6.445 7.564-8.845 16.839-7.573 25.369L121.1 338.055h120.64zm50.633-191.957 76.185-89.304c-.258 8.434 10.997 24.47 28.314 39.245 18.494 15.778 37.294 24.489 44.743 21.305.02.555-.01 1.023-.114 1.291l-75.773 89.017c-.144.058-.688.22-1.636.22-2.113 0-4.006-.784-4.504-1.186l-68.324-58.283c.019-.374.173-1.206 1.109-2.305zM215.845 414.555H62.491l-7.554 9.868 72.751 62.06 27.253 23.257-6.789-25.149 23.189 2.285-6.388-21.975 22.682 2.869-6.406-21.946 22.691 2.868-6.397-21.964 22.702 2.849zM283.844 347.617H0v57.375h535.5v-57.375z"/></svg>