<?xml version="1.0" encoding="iso-8859-1"?>
<!-- Generator: Adobe Illustrator 16.0.0, SVG Export Plug-In . SVG Version: 6.00 Build 0)  -->
<!DOCTYPE svg PUBLIC "-//W3C//DTD SVG 1.1//EN" "http://www.w3.org/Graphics/SVG/1.1/DTD/svg11.dtd">
<svg version="1.1" id="Capa_1" xmlns="http://www.w3.org/2000/svg" xmlns:xlink="http://www.w3.org/1999/xlink" x="0px" y="0px"
	 width="612px" height="612px" viewBox="0 0 612 612" style="enable-background:new 0 0 612 612;" xml:space="preserve">
<g>
	<g>
		<path d="M530.719,215.156h-76.5c-2.64,0-4.781-5.441-4.781-9.562h-19.125v38.25h124.312v-38.25H535.5
			C535.5,209.715,533.358,215.156,530.719,215.156z"/>
		<path d="M430.312,425.531h124.312V291.656H430.312V425.531z M448.644,352.216c4.399,0,7.966,3.566,7.966,7.965
			c0,4.399-3.566,7.966-7.966,7.966c-4.398,0-7.965-3.566-7.965-7.966C440.669,355.782,444.235,352.216,448.644,352.216z"/>
		<path d="M392.062,444.656v19.125v19.125h38.25v-19.125h124.312v19.125h38.25v-19.125v-19.125V167.344H392.062V444.656z
			 M420.75,196.031h33.469h76.5h33.469v57.375H420.75V196.031z M420.75,282.094h143.438v153H420.75V282.094z"/>
		<path d="M167.344,215.156h-76.5c-2.639,0-4.781-5.441-4.781-9.562H66.938v38.25H191.25v-38.25h-19.125
			C172.125,209.715,169.983,215.156,167.344,215.156z"/>
		<path d="M66.938,425.531H191.25V291.656H66.938V425.531z M85.269,352.216c4.398,0,7.965,3.566,7.965,7.965
			c0,4.409-3.567,7.976-7.965,7.976c-4.399,0-7.966-3.566-7.966-7.966C77.293,355.782,80.86,352.216,85.269,352.216z"/>
		<path d="M28.688,444.656v19.125v19.125h38.25v-19.125H191.25v19.125h38.25v-19.125v-19.125V167.344H28.688V444.656z
			 M57.375,196.031h33.469h76.5h33.469v57.375H57.375V196.031z M57.375,282.094h143.438v153H57.375V282.094z"/>
		<rect y="129.094" width="612" height="28.688"/>
	</g>
</g>
<g>
</g>
<g>
</g>
<g>
</g>
<g>
</g>
<g>
</g>
<g>
</g>
<g>
</g>
<g>
</g>
<g>
</g>
<g>
</g>
<g>
</g>
<g>
</g>
<g>
</g>
<g>
</g>
<g>
</g>
</svg>
