<svg xmlns="http://www.w3.org/2000/svg" width="448.013" height="448.013" style="enable-background:new 0 0 448.013 448.013" xml:space="preserve"><path d="M224.011 448.013c45.23 0 81.894-51.227 81.894-113.994 0-4.533-.239-37.581-.612-47.144h-70.925V96.82c26.421-4.59 46.799-33.402 46.799-68.391 0-2.754-.162-28.429-.411-28.429H173.234c-.249 0-.412 25.666-.412 28.42 0 33.029 18.159 60.578 42.41 67.435v191.021H142.72c-.373 9.562-.612 42.726-.612 47.258.01 62.767 36.672 113.879 81.903 113.879zM186.774 32.159c0-2.046.125-3.471.306-3.471h79.857c.182 0 .306 1.062.306 3.108 0 28.353-18.006 52.441-40.229 52.441-22.223-.001-40.24-23.716-40.24-52.078zM226 374.133c-2.515 0-4.657-12.393-5.537-29.883-.277-5.46-.44-11.389-.44-17.633 0-7.421.229-14.363.612-20.617h10.719c.383 6.264.612 13.196.612 20.617 0 6.244-.163 12.173-.439 17.633-.87 17.49-3.012 29.883-5.527 29.883z"/></svg>