<?xml version="1.0" encoding="iso-8859-1"?>
<!-- Generator: Adobe Illustrator 16.0.0, SVG Export Plug-In . SVG Version: 6.00 Build 0)  -->
<!DOCTYPE svg PUBLIC "-//W3C//DTD SVG 1.1//EN" "http://www.w3.org/Graphics/SVG/1.1/DTD/svg11.dtd">
<svg version="1.1" id="Capa_1" xmlns="http://www.w3.org/2000/svg" xmlns:xlink="http://www.w3.org/1999/xlink" x="0px" y="0px"
	 width="448.013px" height="448.013px" viewBox="0 0 448.013 448.013" style="enable-background:new 0 0 448.013 448.013;"
	 xml:space="preserve">
<g>
	<path d="M224.011,448.013c45.23,0,81.894-51.227,81.894-113.994c0-4.533-0.239-37.581-0.612-47.144h-70.925V96.82
		c26.421-4.59,46.799-33.402,46.799-68.391c0-2.754-0.162-28.429-0.411-28.429H173.234c-0.249,0-0.412,25.666-0.412,28.42
		c0,33.029,18.159,60.578,42.41,67.435v191.021H142.72c-0.373,9.562-0.612,42.726-0.612,47.258
		C142.118,396.901,178.78,448.013,224.011,448.013z M186.774,32.159c0-2.046,0.125-3.471,0.306-3.471h79.857
		c0.182,0,0.306,1.062,0.306,3.108c0,28.353-18.006,52.441-40.229,52.441C204.791,84.236,186.774,60.521,186.774,32.159z
		 M226,374.133c-2.515,0-4.657-12.393-5.537-29.883c-0.277-5.46-0.44-11.389-0.44-17.633c0-7.421,0.229-14.363,0.612-20.617h10.719
		c0.383,6.264,0.612,13.196,0.612,20.617c0,6.244-0.163,12.173-0.439,17.633C230.657,361.74,228.515,374.133,226,374.133z"/>
</g>
<g>
</g>
<g>
</g>
<g>
</g>
<g>
</g>
<g>
</g>
<g>
</g>
<g>
</g>
<g>
</g>
<g>
</g>
<g>
</g>
<g>
</g>
<g>
</g>
<g>
</g>
<g>
</g>
<g>
</g>
</svg>
