<?xml version="1.0" encoding="iso-8859-1"?>
<!-- Generator: Adobe Illustrator 16.0.0, SVG Export Plug-In . SVG Version: 6.00 Build 0)  -->
<!DOCTYPE svg PUBLIC "-//W3C//DTD SVG 1.1//EN" "http://www.w3.org/Graphics/SVG/1.1/DTD/svg11.dtd">
<svg version="1.1" id="Capa_1" xmlns="http://www.w3.org/2000/svg" xmlns:xlink="http://www.w3.org/1999/xlink" x="0px" y="0px"
	 width="573.75px" height="573.75px" viewBox="0 0 573.75 573.75" style="enable-background:new 0 0 573.75 573.75;"
	 xml:space="preserve">
<g>
	<g>
		<path d="M541.496,170.872c24.279,93.636-2.229,195.572-2.602,197.141c0.067-0.497,0.66-7.822,0.66-7.822
			c7.784-62.902-11.188-98.379-11.188-98.379c12.805,54.42-10.824,85.45-24.681,98.379c-5.192,4.839-9.056,8.97-9.056,8.97
			c-0.401,0-0.755-6.531-1.052-8.97c-9.313-76.806,34.779-174.64,34.779-174.64c-28.21,25.073-45.298,106.669-52.814,151.565
			c8.961-75.659-5.852-110.504-5.852-110.504c5.852,63.275-8.846,115.209-15.014,133.579c-1.549,4.628-2.582,8.97-2.582,8.97
			c-0.717,0-1.357-6.34-1.97-8.97c-10.595-45.737-5.364-158.518-5.364-158.518c-10.519,26.307-16.85,80.363-20.234,119.599
			c0.02-66.517-20.837-106.402-20.837-106.402c22.004,85.068-7.334,140.798-7.334,140.798c5.861-76.261-14.669-95.328-14.669-95.328
			c15.166,31.565-19.067,93.875-19.067,93.875c-13.196-82.132,19.067-198.011,19.067-198.011
			c-19.536,27.53-31.002,96.438-37.007,146.536c-0.641-63.639-27.215-87.87-27.215-87.87c26.708,64.537-0.307,143.734-0.307,143.734
			c2.937-76.262-16.141-112.943-16.141-112.943c2.399,33.67-24.739,93.885-34.607,114.521c-2.171,4.523-3.529,8.97-3.529,8.97
			c-0.564,0-1.042-6.436-1.482-8.97c-9.859-56.648,10.28-177.585,10.28-177.585c-23.084,17.958-37.198,145.675-40.383,177.595
			c-0.459,4.6-0.688,8.97-0.688,8.97c-0.134,0-0.287-6.541-0.43-8.97c-3.041-49.581-2.706-104.595-2.706-104.595
			c-9.706,10.653-17.356,113.555-17.404,113.555l0.258-8.97c6.311-128.128-16.39-170.241-16.39-170.241
			c11.111,62.95-8.951,145.637-15.568,170.241c-1.243,4.638-2.027,8.97-2.027,8.97c-1.454,0-2.697-6.302-3.787-8.97
			c-15.405-37.771,3.787-124.781,3.787-124.781c-17.71,22.759-23.763,62.94-25.733,93.014
			c1.626-154.119-10.939-204.484-10.939-204.484c9.037,55.577-10.375,202.151-15.118,236.251c-0.277,2.009-0.249,1.798,0,0h-0.382
			c3.509-51.886-13.837-145.312-13.837-145.312c0,40.727-9.352,120.918-12.307,145.312c-0.555,4.59-0.889,8.97-0.889,8.97
			c-1.501-2.993-2.228-6.502-3.223-8.97c-22.348-66.393,3.223-177.585,3.223-177.585C63.075,228.018,59.393,332,59.039,360.181
			c-0.029,2.171-0.038,2.764,0,0c0,0,1.74,10.787-3.031,0c-16.361-35.353,3.93-145.312,3.93-145.312
			c-20.101,21.363-28.276,118.068-30.083,145.312c-0.296,4.542-0.669,8.97-0.669,8.97c-0.498,0-1.042-6.55-1.454-8.97
			c-15.96-93.588,31.336-197.246,31.336-197.246C12.145,192.273,0,369.141,0,369.141v80.68h573.75v-89.64l0,0
			C573.836,196.012,541.496,170.872,541.496,170.872z"/>
	</g>
</g>
<g>
</g>
<g>
</g>
<g>
</g>
<g>
</g>
<g>
</g>
<g>
</g>
<g>
</g>
<g>
</g>
<g>
</g>
<g>
</g>
<g>
</g>
<g>
</g>
<g>
</g>
<g>
</g>
<g>
</g>
</svg>
