<svg xmlns="http://www.w3.org/2000/svg" width="573.75" height="573.75" style="enable-background:new 0 0 573.75 573.75" xml:space="preserve"><path d="M541.496 170.872c24.279 93.636-2.229 195.572-2.602 197.141.067-.497.66-7.822.66-7.822 7.784-62.902-11.188-98.379-11.188-98.379 12.805 54.42-10.824 85.45-24.681 98.379-5.192 4.839-9.056 8.97-9.056 8.97-.401 0-.755-6.531-1.052-8.97-9.313-76.806 34.779-174.64 34.779-174.64-28.21 25.073-45.298 106.669-52.814 151.565 8.961-75.659-5.852-110.504-5.852-110.504 5.852 63.275-8.846 115.209-15.014 133.579a118.036 118.036 0 0 0-2.582 8.97c-.717 0-1.357-6.34-1.97-8.97-10.595-45.737-5.364-158.518-5.364-158.518-10.519 26.307-16.85 80.363-20.234 119.599.02-66.517-20.837-106.402-20.837-106.402 22.004 85.068-7.334 140.798-7.334 140.798 5.861-76.261-14.669-95.328-14.669-95.328 15.166 31.565-19.067 93.875-19.067 93.875-13.196-82.132 19.067-198.011 19.067-198.011-19.536 27.53-31.002 96.438-37.007 146.536-.641-63.639-27.215-87.87-27.215-87.87 26.708 64.537-.307 143.734-.307 143.734 2.937-76.262-16.141-112.943-16.141-112.943 2.399 33.67-24.739 93.885-34.607 114.521-2.171 4.523-3.529 8.97-3.529 8.97-.564 0-1.042-6.436-1.482-8.97-9.859-56.648 10.28-177.585 10.28-177.585-23.084 17.958-37.198 145.675-40.383 177.595-.459 4.6-.688 8.97-.688 8.97-.134 0-.287-6.541-.43-8.97-3.041-49.581-2.706-104.595-2.706-104.595-9.706 10.653-17.356 113.555-17.404 113.555l.258-8.97c6.311-128.128-16.39-170.241-16.39-170.241 11.111 62.95-8.951 145.637-15.568 170.241a125.612 125.612 0 0 0-2.027 8.97c-1.454 0-2.697-6.302-3.787-8.97-15.405-37.771 3.787-124.781 3.787-124.781-17.71 22.759-23.763 62.94-25.733 93.014 1.626-154.119-10.939-204.484-10.939-204.484 9.037 55.577-10.375 202.151-15.118 236.251-.277 2.009-.249 1.798 0 0h-.382c3.509-51.886-13.837-145.312-13.837-145.312 0 40.727-9.352 120.918-12.307 145.312-.555 4.59-.889 8.97-.889 8.97-1.501-2.993-2.228-6.502-3.223-8.97-22.348-66.393 3.223-177.585 3.223-177.585C63.075 228.018 59.393 332 59.039 360.181c-.029 2.171-.038 2.764 0 0 0 0 1.74 10.787-3.031 0-16.361-35.353 3.93-145.312 3.93-145.312-20.101 21.363-28.276 118.068-30.083 145.312-.296 4.542-.669 8.97-.669 8.97-.498 0-1.042-6.55-1.454-8.97-15.96-93.588 31.336-197.246 31.336-197.246C12.145 192.273 0 369.141 0 369.141v80.68h573.75v-89.64c.086-164.169-32.254-189.309-32.254-189.309z"/></svg>