<svg xmlns="http://www.w3.org/2000/svg" width="571.838" height="571.838" style="enable-background:new 0 0 571.838 571.838" xml:space="preserve"><path d="m337.557 389.433 26.297-59.287-15.778-6.693c-10.997-4.781-22.95-.957-27.253 8.605L309.826 357.4c-3.825 9.562 1.435 21.037 12.432 25.34l15.299 6.693zM308.391 274.205c-22.472-27.731-35.859-62.634-35.859-100.884 0-37.293 12.91-71.241 33.947-98.494l-47.334 24.384H64.547v151.087h194.119l49.725 23.907zM54.028 100.646 0 81.999v189.815l54.028-19.125zM306.479 538.13h86.54c8.129 0 16.257-4.781 19.604-12.91l91.8-208.939c-21.516 10.996-45.899 17.213-71.719 17.213-19.125 0-37.294-3.348-54.506-9.562l-4.781 10.518-26.297 59.287-51.638 116.186c-6.216 13.863-4.303 28.207 10.997 28.207zM405.45 236.911c1.435.478 3.347 1.434 5.26 1.913 1.912.478 3.347.956 5.259 1.434 5.26 1.435 10.997 2.391 17.213 2.391 20.56 0 38.728-9.084 51.638-22.95 1.434-1.435 2.391-2.869 3.347-4.303.956-1.435 1.912-2.869 3.347-4.303 7.172-10.997 11.475-23.906 11.475-37.772 0-38.25-31.078-69.328-69.328-69.328s-69.328 31.078-69.328 69.328c-.958 28.209 16.732 53.071 41.117 63.59zm27.253-113.794c27.731 0 49.726 22.472 49.726 49.725 0 9.562-2.869 18.169-7.172 25.819l-2.869 4.303c-.956 1.434-2.391 2.869-3.347 4.303-9.085 9.562-21.994 15.3-35.859 15.3-2.869 0-6.216-.478-9.085-.957-1.912-.478-3.347-.956-5.259-1.434-1.913-.478-3.347-.957-5.26-1.435-17.69-7.65-30.6-25.34-30.6-45.9.001-27.252 22.472-49.724 49.725-49.724z"/><path d="M323.69 258.427c13.866 18.168 32.513 32.512 53.551 41.598 1.434.955 3.347 1.434 4.781 1.912 1.434.479 3.347 1.434 5.259 1.912 14.344 4.781 29.644 7.65 45.422 7.65 32.991 0 63.112-11.475 87.019-30.6 3.348-2.869 6.694-5.738 9.562-8.606l7.65-7.65c21.516-24.384 34.903-56.418 34.903-91.8 0-76.5-62.156-139.134-139.135-139.134-44.466 0-83.672 21.038-109.49 53.55-18.647 23.428-29.644 53.072-29.644 85.584s11.476 62.156 30.122 85.584zM432.703 93.952c43.51 0 79.369 35.381 79.369 79.369 0 16.256-4.781 31.556-13.388 43.988-.956 1.434-1.912 2.869-3.347 4.303-.956 1.435-2.391 2.869-3.347 4.303-14.344 16.256-35.859 26.775-59.288 26.775-7.172 0-14.344-.956-21.037-2.869-1.913-.478-3.347-.956-5.26-1.434-1.912-.479-3.347-1.435-5.259-1.913-28.21-12.431-47.812-40.163-47.812-72.675.478-44.466 35.86-79.847 79.369-79.847z"/><path d="M420.272 203.92c1.912.478 3.347 1.435 5.259 1.435 1.913.956 3.825.956 6.216.956h1.435c8.606 0 16.256-3.347 22.472-8.606 1.435-1.434 2.869-2.869 3.825-4.303.956-1.435 1.912-2.869 2.868-4.781 2.391-4.781 4.304-10.041 4.304-15.778 0-18.647-14.822-33.469-33.469-33.469-18.647 0-33.469 14.822-33.469 33.469-.479 14.343 8.128 26.296 20.559 31.077z"/></svg>