<?xml version="1.0" encoding="iso-8859-1"?>
<!-- Generator: Adobe Illustrator 16.0.0, SVG Export Plug-In . SVG Version: 6.00 Build 0)  -->
<!DOCTYPE svg PUBLIC "-//W3C//DTD SVG 1.1//EN" "http://www.w3.org/Graphics/SVG/1.1/DTD/svg11.dtd">
<svg version="1.1" id="Capa_1" xmlns="http://www.w3.org/2000/svg" xmlns:xlink="http://www.w3.org/1999/xlink" x="0px" y="0px"
	 width="571.838px" height="571.838px" viewBox="0 0 571.838 571.838" style="enable-background:new 0 0 571.838 571.838;"
	 xml:space="preserve">
<g>
	<path d="M337.557,389.433l26.297-59.287l-15.778-6.693c-10.997-4.781-22.95-0.957-27.253,8.605l-10.997,25.342
		c-3.825,9.562,1.435,21.037,12.432,25.34L337.557,389.433z"/>
	<path d="M308.391,274.205c-22.472-27.731-35.859-62.634-35.859-100.884c0-37.293,12.91-71.241,33.947-98.494l-47.334,24.384H64.547
		v151.087h194.119L308.391,274.205z"/>
	<polygon points="54.028,100.646 0,81.999 0,271.814 54.028,252.689 	"/>
	<path d="M306.479,538.13c0,0,83.672,0,86.54,0c8.129,0,16.257-4.781,19.604-12.91l91.8-208.939
		c-21.516,10.996-45.899,17.213-71.719,17.213c-19.125,0-37.294-3.348-54.506-9.562l-4.781,10.518l-26.297,59.287l-51.638,116.186
		C289.266,523.786,291.179,538.13,306.479,538.13z"/>
	<path d="M405.45,236.911c1.435,0.478,3.347,1.434,5.26,1.913c1.912,0.478,3.347,0.956,5.259,1.434
		c5.26,1.435,10.997,2.391,17.213,2.391c20.56,0,38.728-9.084,51.638-22.95c1.434-1.435,2.391-2.869,3.347-4.303
		c0.956-1.435,1.912-2.869,3.347-4.303c7.172-10.997,11.475-23.906,11.475-37.772c0-38.25-31.078-69.328-69.328-69.328
		s-69.328,31.078-69.328,69.328C363.375,201.53,381.065,226.392,405.45,236.911z M432.703,123.117
		c27.731,0,49.726,22.472,49.726,49.725c0,9.562-2.869,18.169-7.172,25.819c-0.957,1.434-1.913,2.869-2.869,4.303
		c-0.956,1.434-2.391,2.869-3.347,4.303c-9.085,9.562-21.994,15.3-35.859,15.3c-2.869,0-6.216-0.478-9.085-0.957
		c-1.912-0.478-3.347-0.956-5.259-1.434c-1.913-0.478-3.347-0.957-5.26-1.435c-17.69-7.65-30.6-25.34-30.6-45.9
		C382.979,145.589,405.45,123.117,432.703,123.117z"/>
	<path d="M323.69,258.427c13.866,18.168,32.513,32.512,53.551,41.598c1.434,0.955,3.347,1.434,4.781,1.912
		c1.434,0.479,3.347,1.434,5.259,1.912c14.344,4.781,29.644,7.65,45.422,7.65c32.991,0,63.112-11.475,87.019-30.6
		c3.348-2.869,6.694-5.738,9.562-8.606c2.391-2.391,5.26-5.26,7.65-7.65c21.516-24.384,34.903-56.418,34.903-91.8
		c0-76.5-62.156-139.134-139.135-139.134c-44.466,0-83.672,21.038-109.49,53.55c-18.647,23.428-29.644,53.072-29.644,85.584
		S305.044,234.999,323.69,258.427z M432.703,93.952c43.51,0,79.369,35.381,79.369,79.369c0,16.256-4.781,31.556-13.388,43.988
		c-0.956,1.434-1.912,2.869-3.347,4.303c-0.956,1.435-2.391,2.869-3.347,4.303c-14.344,16.256-35.859,26.775-59.288,26.775
		c-7.172,0-14.344-0.956-21.037-2.869c-1.913-0.478-3.347-0.956-5.26-1.434c-1.912-0.479-3.347-1.435-5.259-1.913
		c-28.21-12.431-47.812-40.163-47.812-72.675C353.812,129.333,389.194,93.952,432.703,93.952z"/>
	<path d="M420.272,203.92c1.912,0.478,3.347,1.435,5.259,1.435c1.913,0.956,3.825,0.956,6.216,0.956c0.479,0,0.956,0,1.435,0
		c8.606,0,16.256-3.347,22.472-8.606c1.435-1.434,2.869-2.869,3.825-4.303c0.956-1.435,1.912-2.869,2.868-4.781
		c2.391-4.781,4.304-10.041,4.304-15.778c0-18.647-14.822-33.469-33.469-33.469c-18.647,0-33.469,14.822-33.469,33.469
		C399.234,187.186,407.841,199.139,420.272,203.92z"/>
</g>
<g>
</g>
<g>
</g>
<g>
</g>
<g>
</g>
<g>
</g>
<g>
</g>
<g>
</g>
<g>
</g>
<g>
</g>
<g>
</g>
<g>
</g>
<g>
</g>
<g>
</g>
<g>
</g>
<g>
</g>
</svg>
