<svg xmlns="http://www.w3.org/2000/svg" width="516.781" height="516.781" style="enable-background:new 0 0 516.781 516.781" xml:space="preserve"><path d="M503.466 419.041 349.031 295.206c-12.909-10.041-30.122-10.041-43.031-1.435L192.685 202.45l-12.432 15.778 113.315 91.322c-5.737 14.344-2.391 31.557 10.52 41.597l154.434 123.835c15.301 12.431 38.25 10.04 50.682-5.737 11.952-14.823 9.562-37.773-5.738-50.204zM155.869 139.815c-.956-.478-1.913-.956-2.869-.956 12.909-10.041 41.119-21.994 98.494-12.431-83.672-67.416-145.351-16.256-165.91 8.606l-18.169 21.994c-10.041 12.431-12.431 18.168-4.781 23.906 3.825 2.869 7.65 6.215 7.65 6.215-11.475 13.866-16.256 7.172-18.168 5.738-3.825-2.869-8.128-6.694-12.431-1.435l-10.997 13.866c-6.216 7.65.956 18.168 8.606 24.384l28.209 22.472c7.65 6.216 11.475 8.129 17.691 0l12.909-16.256c2.391-3.347 2.391-6.216-1.434-9.562-1.435-1.435-7.65-3.347 3.825-17.213 0 0 3.347 2.869 7.172 5.738 7.172 5.737 7.172 5.737 18.647-8.128l26.775 21.516 44.944-55.94-40.163-32.514zM55.94 319.112H5.26c-2.869 0-5.259 2.391-5.259 5.26 0 2.868 2.391 5.259 5.259 5.259h15.3v162.085h20.081V329.153h15.3c2.869 0 5.26-2.391 5.26-5.26-.001-2.868-2.391-4.781-5.261-4.781zM102.797 89.134c1.435 0 3.347-.956 4.303-1.913.478-.478 35.859-49.725 99.928-52.115 2.869 0 4.781-2.391 4.781-5.26 0-2.869-2.391-4.781-5.26-4.781-69.328 1.913-106.622 53.55-108.056 55.941-1.434 2.391-.956 5.259 1.435 7.172.478.478 1.913.956 2.869.956zM161.128 73.834c.957 1.434 2.869 2.391 4.303 2.391.957 0 1.913 0 2.391-.478.478 0 29.644-16.734 64.069-13.866 2.869.478 5.26-1.913 5.26-4.781s-1.913-5.259-4.782-5.259c-37.772-3.347-68.85 14.344-70.284 15.3-1.435.956-1.913 4.303-.957 6.693z"/></svg>