<?xml version="1.0" encoding="iso-8859-1"?>
<!-- Generator: Adobe Illustrator 16.0.0, SVG Export Plug-In . SVG Version: 6.00 Build 0)  -->
<!DOCTYPE svg PUBLIC "-//W3C//DTD SVG 1.1//EN" "http://www.w3.org/Graphics/SVG/1.1/DTD/svg11.dtd">
<svg version="1.1" id="Capa_1" xmlns="http://www.w3.org/2000/svg" xmlns:xlink="http://www.w3.org/1999/xlink" x="0px" y="0px"
	 width="516.781px" height="516.781px" viewBox="0 0 516.781 516.781" style="enable-background:new 0 0 516.781 516.781;"
	 xml:space="preserve">
<g>
	<g>
		<path d="M503.466,419.041L349.031,295.206c-12.909-10.041-30.122-10.041-43.031-1.435L192.685,202.45l-12.432,15.778
			l113.315,91.322c-5.737,14.344-2.391,31.557,10.52,41.597l154.434,123.835c15.301,12.431,38.25,10.04,50.682-5.737
			C521.156,454.422,518.766,431.472,503.466,419.041z"/>
		<path d="M155.869,139.815c-0.956-0.478-1.913-0.956-2.869-0.956c12.909-10.041,41.119-21.994,98.494-12.431
			c-83.672-67.416-145.351-16.256-165.91,8.606l-18.169,21.994c-10.041,12.431-12.431,18.168-4.781,23.906
			c3.825,2.869,7.65,6.215,7.65,6.215c-11.475,13.866-16.256,7.172-18.168,5.738c-3.825-2.869-8.128-6.694-12.431-1.435
			l-10.997,13.866c-6.216,7.65,0.956,18.168,8.606,24.384l28.209,22.472c7.65,6.216,11.475,8.129,17.691,0l12.909-16.256
			c2.391-3.347,2.391-6.216-1.434-9.562c-1.435-1.435-7.65-3.347,3.825-17.213c0,0,3.347,2.869,7.172,5.738
			c7.172,5.737,7.172,5.737,18.647-8.128l26.775,21.516l44.944-55.94L155.869,139.815z"/>
		<path d="M55.94,319.112h-15.3H20.56h-15.3c-2.869,0-5.259,2.391-5.259,5.26c0,2.868,2.391,5.259,5.259,5.259h15.3v162.085h20.081
			V329.153h15.3c2.869,0,5.26-2.391,5.26-5.26C61.2,321.025,58.81,319.112,55.94,319.112z"/>
		<path d="M102.797,89.134c1.435,0,3.347-0.956,4.303-1.913c0.478-0.478,35.859-49.725,99.928-52.115
			c2.869,0,4.781-2.391,4.781-5.26c0-2.869-2.391-4.781-5.26-4.781c-69.328,1.913-106.622,53.55-108.056,55.941
			c-1.434,2.391-0.956,5.259,1.435,7.172C100.406,88.656,101.841,89.134,102.797,89.134z"/>
		<path d="M161.128,73.834c0.957,1.434,2.869,2.391,4.303,2.391c0.957,0,1.913,0,2.391-0.478c0.478,0,29.644-16.734,64.069-13.866
			c2.869,0.478,5.26-1.913,5.26-4.781s-1.913-5.259-4.782-5.259c-37.772-3.347-68.85,14.344-70.284,15.3
			C160.65,68.097,160.172,71.444,161.128,73.834z"/>
	</g>
</g>
<g>
</g>
<g>
</g>
<g>
</g>
<g>
</g>
<g>
</g>
<g>
</g>
<g>
</g>
<g>
</g>
<g>
</g>
<g>
</g>
<g>
</g>
<g>
</g>
<g>
</g>
<g>
</g>
<g>
</g>
</svg>
