<?xml version="1.0" encoding="iso-8859-1"?>
<!-- Generator: Adobe Illustrator 16.0.0, SVG Export Plug-In . SVG Version: 6.00 Build 0)  -->
<!DOCTYPE svg PUBLIC "-//W3C//DTD SVG 1.1//EN" "http://www.w3.org/Graphics/SVG/1.1/DTD/svg11.dtd">
<svg version="1.1" id="Capa_1" xmlns="http://www.w3.org/2000/svg" xmlns:xlink="http://www.w3.org/1999/xlink" x="0px" y="0px"
	 width="363.375px" height="363.375px" viewBox="0 0 363.375 363.375" style="enable-background:new 0 0 363.375 363.375;"
	 xml:space="preserve">
<g>
	<path d="M358.594,258.188V0H4.781v363.375h267.75v-8.367v-85.661v-1.597v-9.562h9.562h74.109H358.594z M331.273,112.13
		c-1.625,2.075-4.647,2.438-6.713,0.794c-1.577-1.253-2.83-2.611-3.93-4.007c-5.977-7.574-5.595-16.888-5.27-23.399
		c0.105-2.228,0.277-5.604-0.152-6.483c-1.195,0.144-2.879,1.702-4.791,4.265c0.048,0.564,0.066,1.128,0.066,1.692
		c-0.066,9.572-6.989,18.6-11.111,23.142c-1.415,1.559-2.505,2.601-2.868,2.945c-1.606,1.501-4.007,1.702-5.853,0.507
		c-1.339-0.87-2.104-2.324-2.161-3.844c-0.02-0.564,0.038-1.138,0.229-1.702c1.645-4.858,5.766-15.998,11.522-24.624
		c-0.487-1.147-1.252-2.19-2.313-3.203c-1.53-1.463-2.582-1.932-2.927-1.817c-2.572,0.526-6.665,10.05-9.371,16.352
		c-2.027,4.714-4.389,9.773-7.019,14.621c-0.947,1.75-1.808,3.567-2.869,5.192c-4.714,7.229-10.299,9.831-15.224,9.831
		c-2.237,0-4.331-0.536-6.158-1.416c-4.925-2.381-8.884-7.832-10.519-14.879c-1.253-5.383-1.186-11.676,1.052-18.379
		c0.89-2.678,1.788-5.097,2.745-7.172c-2.458-0.698-5.336-0.851-8.387,0.373c-3.366,1.348-6.942,4.905-10.738,8.673
		c-7.727,7.698-17.337,17.261-30.992,12.068c-3.185-1.214-5.557-3.662-6.866-7.076c-0.842-2.19-1.205-4.819-1.205-7.746
		c-5.518,7.43-11.522,13.426-17.681,16.62c-0.928,0.478-1.846,1.081-2.773,1.416c-5.575,2.018-9.859,0.755-13.301-1.999
		c-3.557-2.84-6.216-7.277-8.425-11.427c-1.932,4.695-5.842,7.248-10.719,7.095c-2.993-0.134-6.101-1.339-8.903-3.232
		c-1.205,1.042-2.305,2.008-3.213,2.811c-1.482,1.301-2.764,2.41-3.997,3.462c-0.316,0.268-0.727,0.631-1.014,0.879
		c-5.298,4.409-10.547,8.205-16.39,6.483c-3.375-1.004-6.091-3.566-8.559-8.31c-1.463-2.802-2.831-6.35-4.198-10.806
		c-0.717-2.324-1.884-3.031-2.821-3.385c-7.755-2.945-26.44,7.812-34.559,12.67c-0.583,0.354-1.262,0.755-1.731,1.033
		c-3.796,2.295-4.953,2.974-6.158,3.271c-2.543,0.641-5.164-0.909-5.795-3.471c-0.612-2.438,0.765-4.906,3.108-5.689
		c0.717-0.345,2.075-1.186,3.911-2.295c16.591-10.021,33.498-18.704,44.638-14.458c4.169,1.597,7.134,4.877,8.559,9.515
		c3.586,11.628,6.072,12.67,6.34,12.757c0.612,0.191,2.477-0.44,7.545-4.667c1.386-1.157,3.031-2.601,4.81-4.169
		c0.966-0.842,1.894-1.664,2.802-2.458c-1.511-2.314-2.543-4.829-2.859-7.325c-0.832-6.521,3.069-11.771,10.452-14.038
		c14.535-4.446,21.19,8.31,26.058,17.643c5.412,10.385,7.506,12.451,11.169,11.131c9.581-3.48,21.152-20.464,30.485-38.537h-28.889
		c-2.639,0-4.781-2.142-4.781-4.781s2.142-4.762,4.781-4.762h32.723c3.567-8.434,7-15.31,8.444-18.121
		c1.166-2.247,3.882-3.203,6.177-2.189c2.314,1.014,3.434,3.662,2.562,6.034c-0.066,0.191-2.275,6.043-5.957,14.277h22.988
		c2.64,0,4.781,2.142,4.781,4.781s-2.142,4.781-4.781,4.781h-27.473c-0.373,0.755-0.718,1.492-1.109,2.266
		c-4.915,13.062-8.291,25.886-6.12,31.538c0.411,1.08,0.889,1.396,1.339,1.568c7.354,2.792,12.766-1.884,20.846-9.907
		c4.304-4.284,8.75-8.711,13.933-10.777c7.287-2.917,13.779-1.454,18.542,0.851c0.755-0.249,1.568-0.344,2.429-0.277
		c3.548,0.277,6.178,3.519,7.028,8.664c0.345,2.084-0.717,4.15-2.61,5.078c-1.73,0.851-3.796,0.574-5.24-0.698
		c-0.545,1.281-1.167,2.936-1.884,5.087c-2.094,6.283-1.635,11.762-0.096,15.721c1.138,2.917,2.85,5.03,4.647,5.9
		c3.911,1.913,7.459-2.333,9.209-5.021c0.076-0.115,0.124-0.249,0.2-0.363c3.452-5.384,6.235-11.781,8.912-18.006
		c4.906-11.408,8.779-20.425,16.247-21.946c3.806-0.774,7.65,0.65,11.437,4.255c0.822,0.784,1.568,1.606,2.219,2.477
		c2.754-2.381,5.489-3.749,8.884-3.796c3.471,0.048,5.556,1.501,6.703,2.716c3.069,3.271,2.83,8.138,2.582,13.292
		c-0.345,7.115-0.708,14.468,5.575,19.431C332.546,107.052,332.899,110.064,331.273,112.13z"/>
	<polygon points="282.094,355.008 356.203,267.75 282.094,267.75 	"/>
	<path d="M133.971,75.85c-0.822,0-1.712,0.144-2.668,0.44c-4.093,1.253-3.882,2.897-3.777,3.682
		c0.096,0.765,0.383,1.549,0.794,2.333c3.309-2.592,6.215-4.542,8.807-5.633C136.141,76.118,135.108,75.85,133.971,75.85z"/>
	<path d="M136.944,89.018c0.526,0.038,1.291,0.057,1.817-2.381c0.01-0.029,0.01-0.057,0.02-0.086
		c-0.947,0.593-2.018,1.348-3.156,2.199C136.094,88.912,136.533,88.998,136.944,89.018z"/>
</g>
<g>
</g>
<g>
</g>
<g>
</g>
<g>
</g>
<g>
</g>
<g>
</g>
<g>
</g>
<g>
</g>
<g>
</g>
<g>
</g>
<g>
</g>
<g>
</g>
<g>
</g>
<g>
</g>
<g>
</g>
</svg>
