<svg xmlns="http://www.w3.org/2000/svg" width="363.375" height="363.375" style="enable-background:new 0 0 363.375 363.375" xml:space="preserve"><path d="M358.594 258.188V0H4.781v363.375h267.75V258.188H358.594zM331.273 112.13c-1.625 2.075-4.647 2.438-6.713.794-1.577-1.253-2.83-2.611-3.93-4.007-5.977-7.574-5.595-16.888-5.27-23.399.105-2.228.277-5.604-.152-6.483-1.195.144-2.879 1.702-4.791 4.265.048.564.066 1.128.066 1.692-.066 9.572-6.989 18.6-11.111 23.142a54.8 54.8 0 0 1-2.868 2.945 4.758 4.758 0 0 1-5.853.507 4.783 4.783 0 0 1-2.161-3.844 4.74 4.74 0 0 1 .229-1.702c1.645-4.858 5.766-15.998 11.522-24.624-.487-1.147-1.252-2.19-2.313-3.203-1.53-1.463-2.582-1.932-2.927-1.817-2.572.526-6.665 10.05-9.371 16.352-2.027 4.714-4.389 9.773-7.019 14.621-.947 1.75-1.808 3.567-2.869 5.192-4.714 7.229-10.299 9.831-15.224 9.831-2.237 0-4.331-.536-6.158-1.416-4.925-2.381-8.884-7.832-10.519-14.879-1.253-5.383-1.186-11.676 1.052-18.379.89-2.678 1.788-5.097 2.745-7.172-2.458-.698-5.336-.851-8.387.373-3.366 1.348-6.942 4.905-10.738 8.673-7.727 7.698-17.337 17.261-30.992 12.068-3.185-1.214-5.557-3.662-6.866-7.076-.842-2.19-1.205-4.819-1.205-7.746-5.518 7.43-11.522 13.426-17.681 16.62-.928.478-1.846 1.081-2.773 1.416-5.575 2.018-9.859.755-13.301-1.999-3.557-2.84-6.216-7.277-8.425-11.427-1.932 4.695-5.842 7.248-10.719 7.095-2.993-.134-6.101-1.339-8.903-3.232a385.587 385.587 0 0 0-3.213 2.811 369.055 369.055 0 0 1-3.997 3.462c-.316.268-.727.631-1.014.879-5.298 4.409-10.547 8.205-16.39 6.483-3.375-1.004-6.091-3.566-8.559-8.31-1.463-2.802-2.831-6.35-4.198-10.806-.717-2.324-1.884-3.031-2.821-3.385-7.755-2.945-26.44 7.812-34.559 12.67-.583.354-1.262.755-1.731 1.033-3.796 2.295-4.953 2.974-6.158 3.271-2.543.641-5.164-.909-5.795-3.471a4.771 4.771 0 0 1 3.108-5.689c.717-.345 2.075-1.186 3.911-2.295C62.823 81.943 79.73 73.26 90.87 77.506c4.169 1.597 7.134 4.877 8.559 9.515 3.586 11.628 6.072 12.67 6.34 12.757.612.191 2.477-.44 7.545-4.667 1.386-1.157 3.031-2.601 4.81-4.169.966-.842 1.894-1.664 2.802-2.458-1.511-2.314-2.543-4.829-2.859-7.325-.832-6.521 3.069-11.771 10.452-14.038 14.535-4.446 21.19 8.31 26.058 17.643 5.412 10.385 7.506 12.451 11.169 11.131 9.581-3.48 21.152-20.464 30.485-38.537h-28.889c-2.639 0-4.781-2.142-4.781-4.781s2.142-4.762 4.781-4.762h32.723c3.567-8.434 7-15.31 8.444-18.121 1.166-2.247 3.882-3.203 6.177-2.189a4.785 4.785 0 0 1 2.562 6.034c-.066.191-2.275 6.043-5.957 14.277h22.988a4.782 4.782 0 0 1 0 9.562h-27.473c-.373.755-.718 1.492-1.109 2.266-4.915 13.062-8.291 25.886-6.12 31.538.411 1.08.889 1.396 1.339 1.568 7.354 2.792 12.766-1.884 20.846-9.907 4.304-4.284 8.75-8.711 13.933-10.777 7.287-2.917 13.779-1.454 18.542.851a6.17 6.17 0 0 1 2.429-.277c3.548.277 6.178 3.519 7.028 8.664a4.786 4.786 0 0 1-2.61 5.078 4.75 4.75 0 0 1-5.24-.698c-.545 1.281-1.167 2.936-1.884 5.087-2.094 6.283-1.635 11.762-.096 15.721 1.138 2.917 2.85 5.03 4.647 5.9 3.911 1.913 7.459-2.333 9.209-5.021.076-.115.124-.249.2-.363 3.452-5.384 6.235-11.781 8.912-18.006 4.906-11.408 8.779-20.425 16.247-21.946 3.806-.774 7.65.65 11.437 4.255a19.914 19.914 0 0 1 2.219 2.477c2.754-2.381 5.489-3.749 8.884-3.796 3.471.048 5.556 1.501 6.703 2.716 3.069 3.271 2.83 8.138 2.582 13.292-.345 7.115-.708 14.468 5.575 19.431 2.067 1.621 2.42 4.633.794 6.699z"/><path d="m282.094 355.008 74.109-87.258h-74.109zM133.971 75.85c-.822 0-1.712.144-2.668.44-4.093 1.253-3.882 2.897-3.777 3.682.096.765.383 1.549.794 2.333 3.309-2.592 6.215-4.542 8.807-5.633a6.282 6.282 0 0 0-3.156-.822zM136.944 89.018c.526.038 1.291.057 1.817-2.381.01-.029.01-.057.02-.086-.947.593-2.018 1.348-3.156 2.199.469.162.908.248 1.319.268z"/></svg>