<svg xmlns="http://www.w3.org/2000/svg" width="516.853" height="516.853" style="enable-background:new 0 0 516.853 516.853" xml:space="preserve"><path d="m174.755 250.537.956-8.606 1.913-17.212v-.479c.478-3.347 1.434-6.215 2.869-8.606 0-.478.478-.957.478-1.435-10.519-15.3-17.212-33.469-17.212-53.55 0-38.25 23.906-70.763 54.506-86.062v13.866c0 9.562 10.997 13.387 10.997 13.387h61.678s8.129-3.347 8.129-16.256V75.543c30.6 15.3 53.549 47.812 53.549 85.106 0 15.3-4.781 37.772-11.475 47.812l1.434 1.434c3.348 3.825 6.695 7.65 6.695 15.3l1.434 17.69c18.168-21.516 30.6-52.116 30.6-82.715 0-53.55-31.557-98.972-82.236-116.185V-.002h-80.326v43.509c-50.681 16.734-83.194 62.634-83.194 116.663-.002 36.339 15.299 67.895 39.205 90.367z"/><path d="M344.966 497.728c8.607 0 15.301-9.084 15.301-17.212l-20.082-254.363c0-4.303-1.434-6.215-4.303-9.084-2.869-2.869-6.693-3.347-10.996-3.347h-36.338c3.824 0 9.562 18.169 10.52 34.903 0 1.912.477 2.391.477 4.303 0 2.869-2.391 5.737-5.258 5.737-4.781.479-5.26-4.303-5.26-4.303-.479-30.6-10.52-49.725-28.688-49.725-22.95 0-27.253 48.291-27.253 48.769v-.479c-.478 2.391-2.391 3.825-4.781 3.825-2.869 0-5.259-2.391-5.259-5.26v-.478c.478-17.691 7.172-37.772 11.953-37.772h-32.513c-10.519 0-13.866 5.259-15.3 12.431l-4.303 33.469v-.479l-26.297 221.372c0 7.65 6.694 16.734 15.3 16.734h24.385v-24.862c0-2.869 2.391-5.26 5.259-5.26s5.259 2.391 5.259 5.26v25.341c0 1.912.956 5.737 1.435 7.172 1.912 5.737 8.128 12.431 14.822 12.431h70.763c6.693 0 11.475-6.693 13.865-12.431.479-1.435.479-5.737.479-7.172v-23.906c0-2.869 2.391-5.26 5.26-5.26 2.867 0 5.258 2.391 5.258 5.26v24.862h26.297v-.476z"/></svg>