<svg xmlns="http://www.w3.org/2000/svg" width="549.671" height="549.671" style="enable-background:new 0 0 549.671 549.671" xml:space="preserve"><path d="M406.029 124.943V20.712h-66.938v57.375l-67.894-47.812L3.925 223.437c-4.303 2.869-5.259 9.084-1.913 13.387 3.347 4.303 9.084 5.26 13.388 2.391L271.197 54.181l263.925 184.556c1.435.957 3.825 1.913 5.26 1.913 2.868 0 5.737-1.435 7.649-4.303 2.869-4.303 1.913-10.519-2.391-13.387l-139.611-98.017zM224.341 412.774h86.063v114.75h-86.063z"/><path d="M444.279 245.431v-55.94L272.153 70.437 100.028 189.49v17.69c-5.737 4.303-9.562 10.997-9.562 19.125v9.562c0 7.65 3.825 14.822 9.562 19.125v105.666c-5.737 4.303-9.562 10.996-9.562 19.125v9.562c0 7.649 3.825 14.821 9.562 19.125 1.913 4.781 0 10.04 0 10.04-5.737 4.304-9.562 10.997-9.562 19.125v9.562c0 7.65 3.825 14.822 9.562 19.125v10.041c-5.737 4.303-9.562 10.997-9.562 19.125v9.562c0 7.649 3.825 14.821 9.562 19.125 3.825 2.868 9.084 4.781 14.344 4.781h100.406V403.212h105.188v124.312h124.312c4.303 0 8.128-14.344 8.606-17.213 2.868-11.953 1.912-27.253-8.606-35.381 5.737-4.303 9.562-10.997 9.562-19.125v-9.562c0-7.65-3.825-14.822-9.562-19.125v-76.5c5.737-4.303 9.562-10.997 9.562-19.125v-9.562c0-7.65-3.825-14.822-9.562-19.125v-9.562c5.737-4.303 9.562-10.997 9.562-19.125v-9.562c.001-7.651-3.824-14.823-9.561-19.126zm-315.563 38.25v-9.562c0-8.128 6.216-14.344 14.344-14.344h43.031c10.519 0 19.125 8.606 19.125 19.125v4.781c0 8.128-6.216 14.344-14.344 14.344H143.06c-8.128-.001-14.344-6.216-14.344-14.344zm-28.688-47.813v-9.562c0-8.128 6.216-14.344 14.344-14.344h43.031c10.519 0 19.125 8.606 19.125 19.125v4.781c0 8.128-6.216 14.344-14.344 14.344h-47.812c-8.128 0-14.344-6.216-14.344-14.344zm0 153v-9.562c0-8.128 6.216-14.344 14.344-14.344h14.344c10.519 0 19.125 8.606 19.125 19.125v4.781c0 8.128-6.216 14.344-14.344 14.344h-19.125c-8.128 0-14.344-6.216-14.344-14.344zm0 57.375v-9.562c0-8.128 6.216-14.344 14.344-14.344h43.031c10.519 0 19.125 8.606 19.125 19.125v4.781c0 8.128-6.216 14.344-14.344 14.344h-47.812c-8.128 0-14.344-6.216-14.344-14.344zm14.344 71.719c-8.128 0-14.344-6.216-14.344-14.344v-9.562c0-8.128 6.216-14.344 14.344-14.344h14.344c10.519 0 19.125 8.606 19.125 19.125v4.781c0 8.128-6.216 14.344-14.344 14.344h-19.125zm157.781-253.406c-23.906 0-43.031-19.125-43.031-43.031s19.125-43.031 43.031-43.031c23.907 0 43.032 19.125 43.032 43.031s-19.125 43.031-43.032 43.031zm172.126 239.062c0 8.128-6.216 14.344-14.344 14.344H410.81c-8.128 0-14.344-6.216-14.344-14.344v-9.562c0-8.128 6.216-14.344 14.344-14.344h14.344c10.519 0 19.125 8.606 19.125 19.125v4.781zm0-47.812c0 8.128-6.216 14.344-14.344 14.344h-47.813c-8.128 0-14.344-6.216-14.344-14.344v-9.562c0-8.128 6.216-14.344 14.344-14.344h43.031c10.519 0 19.125 8.606 19.125 19.125v4.781zm0-124.313c0 8.128-6.216 14.344-14.344 14.344h-47.812c-8.128 0-14.344-6.216-14.344-14.344v-9.562c0-8.128 6.216-14.344 14.344-14.344h43.031c10.519 0 19.125 8.606 19.125 19.125v4.781zm0-57.375c0 8.128-6.216 14.344-14.344 14.344H410.81c-8.128 0-14.344-6.216-14.344-14.344v-9.562c0-8.128 6.216-14.344 14.344-14.344h14.344c10.519 0 19.125 8.606 19.125 19.125v4.781z"/></svg>