<?xml version="1.0" encoding="iso-8859-1"?>
<!-- Generator: Adobe Illustrator 16.0.0, SVG Export Plug-In . SVG Version: 6.00 Build 0)  -->
<!DOCTYPE svg PUBLIC "-//W3C//DTD SVG 1.1//EN" "http://www.w3.org/Graphics/SVG/1.1/DTD/svg11.dtd">
<svg version="1.1" id="Capa_1" xmlns="http://www.w3.org/2000/svg" xmlns:xlink="http://www.w3.org/1999/xlink" x="0px" y="0px"
	 width="602.438px" height="602.438px" viewBox="0 0 602.438 602.438" style="enable-background:new 0 0 602.438 602.438;"
	 xml:space="preserve">
<g>
	<g>
		<path d="M0,497.25h19.125v28.688H38.25V497.25H76.5v19.125h19.125V497.25h411.188v19.125h19.125V497.25h28.688v28.688h19.125
			V497.25h28.688V392.062H0V497.25z M401.625,411.188H573.75v66.938h-47.812h-19.125H401.625V411.188z M210.375,411.188H382.5
			v28.688H210.375V411.188z M210.375,449.438H382.5v28.688H210.375V449.438z M19.125,411.188H191.25v66.938H95.625H76.5H19.125
			V411.188z"/>
		<polygon points="267.75,344.25 267.75,363.375 248.625,363.375 248.625,382.5 353.812,382.5 353.812,363.375 334.688,363.375 
			334.688,344.25 		"/>
		<path d="M420.75,191.25H181.688v143.438H420.75V191.25z M401.625,315.562H200.812V210.375h200.812V315.562z"/>
		<path d="M516.375,76.5H86.062v66.938h430.312V76.5z M124.312,133.875c-13.206,0-23.906-10.7-23.906-23.906
			s10.7-23.906,23.906-23.906s23.906,10.7,23.906,23.906S137.519,133.875,124.312,133.875z M200.812,133.875
			c-13.206,0-23.906-10.7-23.906-23.906s10.7-23.906,23.906-23.906s23.906,10.7,23.906,23.906S214.019,133.875,200.812,133.875z
			 M258.188,118.938c-4.953,0-8.97-4.017-8.97-8.97s4.017-8.97,8.97-8.97s8.97,4.017,8.97,8.97S263.141,118.938,258.188,118.938z
			 M353.812,118.938c-4.953,0-8.97-4.017-8.97-8.97s4.017-8.97,8.97-8.97s8.97,4.017,8.97,8.97S358.766,118.938,353.812,118.938z
			 M401.625,133.875c-13.206,0-23.906-10.7-23.906-23.906s10.7-23.906,23.906-23.906s23.906,10.7,23.906,23.906
			S414.831,133.875,401.625,133.875z M478.125,133.875c-13.206,0-23.906-10.7-23.906-23.906s10.7-23.906,23.906-23.906
			s23.906,10.7,23.906,23.906S491.331,133.875,478.125,133.875z"/>
		<path d="M153,229.5H66.938v153H153V229.5z M109.969,256.992c5.938,0,10.758,4.819,10.758,10.758s-4.819,10.758-10.758,10.758
			s-10.758-4.819-10.758-10.758S104.03,256.992,109.969,256.992z M109.969,363.375c-15.845,0-28.688-12.843-28.688-28.688
			c0-15.846,12.842-28.688,28.688-28.688s28.688,12.842,28.688,28.688C138.656,350.532,125.814,363.375,109.969,363.375z"/>
		<circle cx="109.969" cy="334.688" r="10.758"/>
		<circle cx="200.812" cy="109.969" r="8.97"/>
		<circle cx="124.312" cy="109.969" r="8.97"/>
		<circle cx="401.625" cy="109.969" r="8.97"/>
		<circle cx="478.125" cy="109.969" r="8.97"/>
		<path d="M449.438,382.5H535.5v-153h-86.062V382.5z M492.469,256.992c5.938,0,10.758,4.819,10.758,10.758
			s-4.819,10.758-10.758,10.758s-10.758-4.819-10.758-10.758S486.53,256.992,492.469,256.992z M492.469,306
			c15.845,0,28.688,12.842,28.688,28.688c0,15.845-12.843,28.688-28.688,28.688s-28.688-12.843-28.688-28.688
			C463.781,318.842,476.624,306,492.469,306z"/>
		<circle cx="492.469" cy="334.688" r="10.758"/>
	</g>
</g>
<g>
</g>
<g>
</g>
<g>
</g>
<g>
</g>
<g>
</g>
<g>
</g>
<g>
</g>
<g>
</g>
<g>
</g>
<g>
</g>
<g>
</g>
<g>
</g>
<g>
</g>
<g>
</g>
<g>
</g>
</svg>
