<?xml version="1.0" encoding="iso-8859-1"?>
<!-- Generator: Adobe Illustrator 16.0.0, SVG Export Plug-In . SVG Version: 6.00 Build 0)  -->
<!DOCTYPE svg PUBLIC "-//W3C//DTD SVG 1.1//EN" "http://www.w3.org/Graphics/SVG/1.1/DTD/svg11.dtd">
<svg version="1.1" id="Capa_1" xmlns="http://www.w3.org/2000/svg" xmlns:xlink="http://www.w3.org/1999/xlink" x="0px" y="0px"
	 width="551.985px" height="551.985px" viewBox="0 0 551.985 551.985" style="enable-background:new 0 0 551.985 551.985;"
	 xml:space="preserve">
<g>
	<path d="M280.045,307.014c3.137,3.634,8.626,4.035,12.26,0.898l2.629-2.266c3.634-3.137,4.036-8.626,0.899-12.26l-43.137-50.002
		c-3.137-3.634-8.625-4.036-12.259-0.909l-2.63,2.267c-3.634,3.136-4.035,8.625-0.898,12.259L280.045,307.014z"/>
	<path d="M302.239,290.174l113.928-80.784l3.835,4.446c3.137,3.634,8.625,4.036,12.259,0.899l2.63-2.266
		c3.634-3.137,4.035-8.625,0.899-12.259l-70.381-81.587c-3.136-3.634-8.625-4.036-12.259-0.899l-2.63,2.266
		c-3.634,3.137-4.035,8.625-0.898,12.259l3.834,4.446l-96.629,100.836L302.239,290.174z"/>
	<path d="M116.478,504.26l2.008,0.038c18.226,0.793,26.421,8.826,32.388,14.697c3.978,3.911,6.215,5.957,9.648,6.244
		c7.918,0.631,12.307-3.155,18.016-8.118c7.048-6.14,15.95-13.875,33.383-12.412c1.941,0.162,3.519,0.535,5.145,0.88
		c-2.008-51.36,1.836-143.696,49.314-192.102l-35.554-38.843c0,0-142.118,72.752-153.688,253.598
		C83.296,519.626,94.609,504.26,116.478,504.26z M238.027,315.744c1.941,1.788,2.075,4.81,0.287,6.761
		c-0.153,0.162-4.39,4.935-10.729,13.77c-15.682,21.86-44.58,69.367-59.02,139.154c-1.387,6.693-2.639,13.578-3.739,20.674
		c-0.363,2.362-2.4,4.055-4.714,4.055c-0.239,0-0.488-0.02-0.736-0.058c-2.601-0.401-4.399-2.84-3.997-5.45
		c17.547-114.081,73.517-176.036,75.897-178.618C233.074,314.09,236.095,313.975,238.027,315.744z M224.372,302.558
		c2.19-1.482,5.164-0.89,6.637,1.291c1.473,2.189,0.908,5.163-1.281,6.636c-0.182,0.125-3.987,2.783-9.955,7.66
		c-23.017,18.828-79.292,72.235-96.342,153.87c-0.842,4.025-1.779,7.984-2.419,12.145c-0.363,2.361-2.4,4.054-4.714,4.054
		c-0.239,0-0.488-0.019-0.736-0.057c-2.601-0.402-4.398-2.84-3.997-5.451C129.206,368.003,223.425,303.198,224.372,302.558z"/>
	<path d="M278.84,551.957c4.725-11.896,9.161-28.879,5.729-34.54c-0.44-0.727-1.09-1.415-2.888-1.549l-0.985-0.038
		c-7.382,0-14.258,6.521-20.914,12.823c-7.611,7.21-15.721,14.621-25.455,13.722c-7.287-0.717-7.765-8.108-8.042-12.526
		c-0.393-6.302-0.88-11.848-8.76-14.354c-1.778-0.564-3.796-1.023-6.426-1.253c-13.244-1.109-19.642,4.313-26.316,10.107
		c-6.13,5.327-13.082,11.408-25.073,10.424c-7.028-0.584-11.36-4.839-15.548-8.951c-5.68-5.574-11.542-11.331-26.096-11.962
		l-1.597-0.029c-17.28,0-26.402,12.767-31.862,20.397c-2.343,3.279-3.892,5.46-5.986,6.531c-0.708,0.363-1.425,0.563-2.142,0.822
		c-1.645,0.583-3.29,0.984-4.944,0.984c-7.994,0-13.942-6.655-19.708-13.091c-5.862-6.551-11.915-13.32-19.623-13.32
		c-2.314,0-3.28,0.889-3.911,1.769c-4.093,5.575-1.769,22.195,1.511,34.062H278.84V551.957z"/>
	<polygon points="434.547,171.628 525.878,91.81 525.878,0 390.329,118.996 	"/>
</g>
<g>
</g>
<g>
</g>
<g>
</g>
<g>
</g>
<g>
</g>
<g>
</g>
<g>
</g>
<g>
</g>
<g>
</g>
<g>
</g>
<g>
</g>
<g>
</g>
<g>
</g>
<g>
</g>
<g>
</g>
</svg>
