<svg xmlns="http://www.w3.org/2000/svg" width="551.985" height="551.985" style="enable-background:new 0 0 551.985 551.985" xml:space="preserve"><path d="M280.045 307.014a8.692 8.692 0 0 0 12.26.898l2.629-2.266a8.692 8.692 0 0 0 .899-12.26l-43.137-50.002c-3.137-3.634-8.625-4.036-12.259-.909l-2.63 2.267c-3.634 3.136-4.035 8.625-.898 12.259l43.136 50.013zM302.239 290.174l113.928-80.784 3.835 4.446a8.691 8.691 0 0 0 12.259.899l2.63-2.266a8.692 8.692 0 0 0 .899-12.259l-70.381-81.587a8.691 8.691 0 0 0-12.259-.899l-2.63 2.266a8.691 8.691 0 0 0-.898 12.259l3.834 4.446-96.629 100.836 45.412 52.643zM116.478 504.26l2.008.038c18.226.793 26.421 8.826 32.388 14.697 3.978 3.911 6.215 5.957 9.648 6.244 7.918.631 12.307-3.155 18.016-8.118 7.048-6.14 15.95-13.875 33.383-12.412 1.941.162 3.519.535 5.145.88-2.008-51.36 1.836-143.696 49.314-192.102l-35.554-38.843S88.708 347.396 77.138 528.242c6.158-8.616 17.471-23.982 39.34-23.982zm121.549-188.516a4.79 4.79 0 0 1 .287 6.761c-.153.162-4.39 4.935-10.729 13.77-15.682 21.86-44.58 69.367-59.02 139.154a415.465 415.465 0 0 0-3.739 20.674 4.782 4.782 0 0 1-4.714 4.055 4.783 4.783 0 0 1-4.733-5.508c17.547-114.081 73.517-176.036 75.897-178.618a4.795 4.795 0 0 1 6.751-.288zm-13.655-13.186c2.19-1.482 5.164-.89 6.637 1.291 1.473 2.189.908 5.163-1.281 6.636-.182.125-3.987 2.783-9.955 7.66-23.017 18.828-79.292 72.235-96.342 153.87-.842 4.025-1.779 7.984-2.419 12.145a4.782 4.782 0 0 1-5.45 3.997 4.785 4.785 0 0 1-3.997-5.451c17.641-114.703 111.86-179.508 112.807-180.148z"/><path d="M278.84 551.957c4.725-11.896 9.161-28.879 5.729-34.54-.44-.727-1.09-1.415-2.888-1.549l-.985-.038c-7.382 0-14.258 6.521-20.914 12.823-7.611 7.21-15.721 14.621-25.455 13.722-7.287-.717-7.765-8.108-8.042-12.526-.393-6.302-.88-11.848-8.76-14.354-1.778-.564-3.796-1.023-6.426-1.253-13.244-1.109-19.642 4.313-26.316 10.107-6.13 5.327-13.082 11.408-25.073 10.424-7.028-.584-11.36-4.839-15.548-8.951-5.68-5.574-11.542-11.331-26.096-11.962l-1.597-.029c-17.28 0-26.402 12.767-31.862 20.397-2.343 3.279-3.892 5.46-5.986 6.531-.708.363-1.425.563-2.142.822-1.645.583-3.29.984-4.944.984-7.994 0-13.942-6.655-19.708-13.091-5.862-6.551-11.915-13.32-19.623-13.32-2.314 0-3.28.889-3.911 1.769-4.093 5.575-1.769 22.195 1.511 34.062H278.84v-.028zM434.547 171.628l91.331-79.818V0L390.329 118.996z"/></svg>