<?xml version="1.0" encoding="iso-8859-1"?>
<!-- Generator: Adobe Illustrator 16.0.0, SVG Export Plug-In . SVG Version: 6.00 Build 0)  -->
<!DOCTYPE svg PUBLIC "-//W3C//DTD SVG 1.1//EN" "http://www.w3.org/Graphics/SVG/1.1/DTD/svg11.dtd">
<svg version="1.1" id="Capa_1" xmlns="http://www.w3.org/2000/svg" xmlns:xlink="http://www.w3.org/1999/xlink" x="0px" y="0px"
	 width="583.312px" height="583.312px" viewBox="0 0 583.312 583.312" style="enable-background:new 0 0 583.312 583.312;"
	 xml:space="preserve">
<g>
	<path d="M578.531,423.141c2.64,0,4.781-2.142,4.781-4.781s-2.142-4.781-4.781-4.781h-14.344v-9.562l-9.562-14.937l-9.562,14.937
		v9.562h-19.125v-9.562l-9.562-14.937l-9.562,14.937v9.562h-19.125v-9.562l-9.562-14.937l-9.562,14.937v9.562h-19.125v-9.562
		l-9.562-14.937l-9.562,14.937v9.562h-19.125v-9.562l-9.562-14.937l-9.562,14.937v9.562h-19.125v-9.562l-9.562-14.937l-9.562,14.937
		v9.562h-19.125v-9.562l-9.562-14.937l-9.562,14.937v9.562h-19.125V205.326l-148.219-92.967L0,205.326v265.627h114.75v-76.5h66.938
		v76.5h114.75v-19.125h19.125v19.125h19.125v-19.125h19.125v19.125h19.125v-19.125h19.125v19.125h19.125v-19.125h19.125v19.125
		h19.125v-19.125h19.125v19.125h19.125v-19.125h19.125v19.125h19.125v-19.125h19.125v19.125h19.125v-19.125h14.344
		c2.64,0,4.781-2.142,4.781-4.781s-2.142-4.781-4.781-4.781h-14.344v-19.125H578.531z M95.625,442.266h-76.5v-9.562h76.5V442.266z
		 M95.625,413.578h-76.5v-38.25h76.5V413.578z M121.654,308.391h-3.318H57.375H54.42l-19.125-38.25h12.517v-38.25H76.5v38.25h19.125
		v-38.25h28.688v38.25h11.686L121.654,308.391z M178.733,308.391l-19.125-38.25h12.517v-38.25h28.688v38.25h19.125v-38.25h28.688
		v38.25h11.686l-14.344,38.25h-3.318h-60.961H178.733z M277.312,442.266h-76.5v-9.562h76.5V442.266z M277.312,413.578h-76.5v-38.25
		h76.5V413.578z M296.438,442.266v-19.125h19.125v19.125H296.438z M334.688,442.266v-19.125h19.125v19.125H334.688z
		 M372.938,442.266v-19.125h19.125v19.125H372.938z M411.188,442.266v-19.125h19.125v19.125H411.188z M449.438,442.266v-19.125
		h19.125v19.125H449.438z M487.688,442.266v-19.125h19.125v19.125H487.688z M545.062,442.266h-19.125v-19.125h19.125V442.266z"/>
	<polygon points="60.33,298.828 115.018,298.828 122.189,279.703 50.767,279.703 	"/>
	<polygon points="175.08,279.703 184.642,298.828 239.33,298.828 246.502,279.703 	"/>
</g>
<g>
</g>
<g>
</g>
<g>
</g>
<g>
</g>
<g>
</g>
<g>
</g>
<g>
</g>
<g>
</g>
<g>
</g>
<g>
</g>
<g>
</g>
<g>
</g>
<g>
</g>
<g>
</g>
<g>
</g>
</svg>
