<svg xmlns="http://www.w3.org/2000/svg" width="525.938" height="525.938" style="enable-background:new 0 0 525.938 525.938" xml:space="preserve"><path d="M459 196.046h-57.375v28.688H344.25v28.687h-57.375v28.687H229.5v28.688h-57.375v28.687H114.75v28.688H57.375v28.687H0v38.25h525.938V167.359H459zM358.594 162.578a4.782 4.782 0 0 0 4.781-4.781v-36.156l43.442-21.975a2.795 2.795 0 0 0 1.233-3.749l-1.798-3.557a2.795 2.795 0 0 0-3.748-1.234L91.063 248.688c-.076 0-.143-.048-.22-.048-1.625 0-2.993.861-3.854 2.104l-63.486 32.121a2.794 2.794 0 0 0-1.233 3.748l1.798 3.559a2.794 2.794 0 0 0 3.749 1.232l58.245-29.471v29.739a4.782 4.782 0 0 0 9.562 0v-34.578L229.5 189.372v35.362c0 2.639 2.142 4.781 4.781 4.781s4.781-2.142 4.781-4.781v-38.25c0-.631-.134-1.224-.354-1.769l115.104-58.236v31.317a4.783 4.783 0 0 0 4.782 4.782z"/></svg>