<svg xmlns="http://www.w3.org/2000/svg" width="504.832" height="504.832" style="enable-background:new 0 0 504.832 504.832" xml:space="preserve"><path d="M399.439 185 252.655 79.335 105.871 184.522v287.831h58.809V364.775h87.975v107.578h146.784V185zm-127.18 13.866h39.206v39.206h-39.206v-39.206zm0 48.769h39.206v48.769h-39.206v-48.769zm87.974 48.768h-39.206v-48.769h39.206v48.769zm0-58.809h-39.206v-39.207h39.206v39.207z"/><path d="M369.796 124.757V32.479h-58.331v49.725l-58.81-42.075L4.03 219.425c-4.303 3.347-5.259 9.084-2.391 13.866 1.913 2.869 4.781 3.825 8.128 3.825 1.913 0 3.825-.479 5.738-1.913l237.15-171.169 237.15 171.169c4.303 2.869 10.519 1.913 13.387-2.391 2.869-4.303 1.913-10.519-2.391-13.388l-131.005-94.667z"/></svg>