<svg xmlns="http://www.w3.org/2000/svg" width="545.062" height="545.062" style="enable-background:new 0 0 545.062 545.062" xml:space="preserve"><path d="M339.608 478.125h143.438V296.438H62.295v181.688h143.438v-153h133.875v152.999zm-153-28.687H81.42V325.126h105.188v124.312zm172.125-114.75v-9.562h105.188v124.312H358.734v-114.75zM339.608 487.688v57.374h153v-57.374h-9.562zM52.733 487.688v57.374h153v-57.374H62.295z"/><path d="M90.983 334.688h86.062v105.188H90.983zM368.296 334.688h86.062v105.188h-86.062zM368.296 143.438v114.75H186.608v-114.75H61.253L25.394 286.875h494.275l-42.58-143.437z"/><path d="M196.17 133.875v114.75h162.563V95.626H196.17v38.249zm28.688-9.563v-9.562h105.188V229.5H224.859V124.312zM368.296 86.062h18.072L369.155 0H185.747l-17.212 86.062H358.733z"/><path d="M320.483 143.438v-19.126H234.42v95.626h86.063zM215.295 478.125v66.937h114.751V334.688H215.295z"/></svg>