<svg xmlns="http://www.w3.org/2000/svg" width="556.059" height="556.06" style="enable-background:new 0 0 556.059 556.06" xml:space="preserve"><path d="M67.654 366.722h411.667V232.847H67.654v133.875zm35.86-62.634h35.859v35.859h-35.859v-35.859zm80.803 35.859h-35.859v-35.859h35.859v35.859zm53.55-35.859h35.859v35.859h-35.859v-35.859zm80.325 35.859h-35.859v-35.859h35.859v35.859zm44.943-35.859h35.859v35.859h-35.859v-35.859zm80.326 35.859h-35.859v-35.859h35.859v35.859zm0-44.466h-35.859v-35.859h35.859v35.859zm-80.326-35.859h35.859v35.859h-35.859v-35.859zm-44.943 35.859h-35.859v-35.859h35.859v35.859zm-80.325-35.859h35.859v35.859h-35.859v-35.859zm-53.55 35.859h-35.859v-35.859h35.859v35.859zm-80.803-35.859h35.859v35.859h-35.859v-35.859zM67.654 223.763h411.667V89.409H67.654v134.354zm35.86-62.635h35.859v35.859h-35.859v-35.859zm80.803 35.859h-35.859v-35.859h35.859v35.859zm53.55-35.859h35.859v35.859h-35.859v-35.859zm80.325 35.859h-35.859v-35.859h35.859v35.859zm44.943-35.859h35.859v35.859h-35.859v-35.859zm80.326 35.859h-35.859v-35.859h35.859v35.859zm0-44.943h-35.859v-35.859h35.859v35.859zm-80.326-35.859h35.859v35.859h-35.859v-35.859zm-44.943 35.859h-35.859v-35.859h35.859v35.859zm-80.325-35.859h35.859v35.859h-35.859v-35.859zm-53.55 35.859h-35.859v-35.859h35.859v35.859zm-80.803-35.859h35.859v35.859h-35.859v-35.859zM67.654 376.763V556.06H478.842V376.763H67.654zm71.719 107.578h-35.859v-35.859h35.859v35.859zm0-44.945h-35.859v-35.859h35.859v35.859zm44.944 44.945h-35.859v-35.859h35.859v35.859zm0-44.945h-35.859v-35.859h35.859v35.859zm89.409 44.945h-35.859v-35.859h35.859v35.859zm0-44.945h-35.859v-35.859h35.859v35.859zm44.466 44.945h-35.859v-35.859h35.859v35.859zm0-44.945h-35.859v-35.859h35.859v35.859zm44.943-35.859h80.326v98.973h-80.326v-98.973zm98.494 136.744H344.967v-13.388h17.689v-13.388h80.326v13.388h17.689v13.388h.958zM40.879 0H515.18v80.325H40.879z"/></svg>