<svg xmlns="http://www.w3.org/2000/svg" width="596.222" height="596.221" style="enable-background:new 0 0 596.222 596.221" xml:space="preserve"><path d="M416.925 302.892V74.348H0v278.269h39.685v168.778H79.37V372.699h59.766v149.175h457.087V302.892H416.925zM69.328 293.33h-10.04v-49.725h10.041v49.725zm20.56 0H79.847v-49.725h10.041v49.725zm20.559 0h-10.041v-49.725h10.041v49.725zm20.559 0h-10.041v-49.725h10.041v49.725zm20.56 0h-10.041v-49.725h10.041v49.725zm156.347 168.778H168.778v-89.409h139.135v89.409zM162.562 293.33v-49.725h10.041v49.725h-10.041zm20.56 0v-49.725h10.041v49.725h-10.041zm20.56 0v-49.725h10.041v49.725h-10.041zm20.559 0v-49.725h10.041v49.725h-10.041zm20.559 0v-49.725h10.041v49.725H244.8zm20.559 0v-49.725H275.4v49.725h-10.041zm20.56 0v-49.725h10.041v49.725h-10.041zm30.6 0h-10.04v-49.725h10.04v49.725zM59.288 233.564V124.073H357.16v109.491H59.288zm298.35 10.04v49.725h-10.041v-49.725h10.041zm-20.56 49.726h-10.04v-49.725h10.04v49.725zm208.941 218.503H337.557v-10.04h208.462v10.04zm0-21.516H337.557v-10.04h208.462v10.04zm0-21.516H337.557v-10.04h208.462v10.04zm0-21.515H337.557v-10.04h208.462v10.04zm0-21.516H337.557v-10.04h208.462v10.04zm0-21.516H337.557v-10.04h208.462v10.04zm0-21.515H337.557v-10.04h208.462v10.04z"/></svg>