<?xml version="1.0" encoding="iso-8859-1"?>
<!-- Generator: Adobe Illustrator 16.0.0, SVG Export Plug-In . SVG Version: 6.00 Build 0)  -->
<!DOCTYPE svg PUBLIC "-//W3C//DTD SVG 1.1//EN" "http://www.w3.org/Graphics/SVG/1.1/DTD/svg11.dtd">
<svg version="1.1" id="Capa_1" xmlns="http://www.w3.org/2000/svg" xmlns:xlink="http://www.w3.org/1999/xlink" x="0px" y="0px"
	 width="382.5px" height="382.5px" viewBox="0 0 382.5 382.5" style="enable-background:new 0 0 382.5 382.5;" xml:space="preserve"
	>
<g>
	<path d="M66.938,205.594h248.625v95.625H382.5V81.281H0v219.938h66.938V205.594z M66.938,196.031v-9.562h248.625v9.562H66.938z
		 M66.938,167.344h248.625v9.562H66.938V167.344z M66.938,148.219h248.625v9.562H66.938V148.219z"/>
	<polygon points="306,301.219 253.406,262.969 130.691,262.969 76.5,301.219 	"/>
	<polygon points="76.5,215.156 76.5,291.656 124.312,257.786 124.312,215.156 	"/>
	<polygon points="306,215.156 258.188,215.156 258.188,257.786 306,291.656 	"/>
	<rect x="133.875" y="215.156" width="114.75" height="38.25"/>
</g>
<g>
</g>
<g>
</g>
<g>
</g>
<g>
</g>
<g>
</g>
<g>
</g>
<g>
</g>
<g>
</g>
<g>
</g>
<g>
</g>
<g>
</g>
<g>
</g>
<g>
</g>
<g>
</g>
<g>
</g>
</svg>
