<svg xmlns="http://www.w3.org/2000/svg" width="516.375" height="516.375" style="enable-background:new 0 0 516.375 516.375" xml:space="preserve"><path d="M0 325.125h210.375V86.062H0v239.063zM19.125 114.75H191.25v66.938H19.125V114.75zm0 76.5H191.25v66.938H19.125V191.25zM28.688 430.312h114.75v-66.937h47.812v66.937h19.125v-95.624H28.688zM430.312 191.25v-28.688H219.938v28.688h191.25zM401.625 277.312v-38.25h-38.25v-28.688h38.25v-9.562H219.938v86.062h181.688v-9.562zm-38.25-28.687h28.688v9.562h-28.688v-9.562zm0 28.687v-9.562h28.688v9.562h-28.688zM401.625 296.438H219.938v133.874h28.687V325.125h239.063v105.187h28.687V296.438H411.188z"/><path d="M258.188 392.062h219.938v38.25H258.188zM258.188 334.688h219.938v19.125H258.188zM258.188 363.375h219.938V382.5H258.188zM153 372.938h28.688v57.375H153z"/></svg>