<svg xmlns="http://www.w3.org/2000/svg" width="568.969" height="568.969" style="enable-background:new 0 0 568.969 568.969" xml:space="preserve"><path d="M157.781 102.797h-33.469L0 294.047h38.25l112.359-179.775 112.36 179.775h306l-124.313-191.25z"/><path d="M62.156 294.047v172.125h47.812v-76.5h76.5v76.5h50.203l.593-172.125-87.851-143.438-87.257 143.438zm86.063-56.897v37.772h-37.772a42.782 42.782 0 0 1 37.772-37.772zm-37.772 47.334h37.772v37.771a42.78 42.78 0 0 1-37.772-37.771zm47.334 37.772v-37.771h37.772a42.781 42.781 0 0 1-37.772 37.771zm37.772-47.334h-37.772V237.15a42.782 42.782 0 0 1 37.772 37.772zM262.969 313.172h248.625v153H262.969z"/><path d="M119.531 399.234h57.375v66.938h-57.375z"/></svg>