<?xml version="1.0" encoding="iso-8859-1"?>
<!-- Generator: Adobe Illustrator 16.0.0, SVG Export Plug-In . SVG Version: 6.00 Build 0)  -->
<!DOCTYPE svg PUBLIC "-//W3C//DTD SVG 1.1//EN" "http://www.w3.org/Graphics/SVG/1.1/DTD/svg11.dtd">
<svg version="1.1" id="Capa_1" xmlns="http://www.w3.org/2000/svg" xmlns:xlink="http://www.w3.org/1999/xlink" x="0px" y="0px"
	 width="545.062px" height="545.062px" viewBox="0 0 545.062 545.062" style="enable-background:new 0 0 545.062 545.062;"
	 xml:space="preserve">
<g>
	<path d="M339.608,478.125h143.438V296.438H62.295v181.688h143.438V334.688v-9.562h133.875V478.125z M186.608,449.438h-9.562H81.42
		v-114.75v-9.562h105.188V449.438z M358.733,334.688v-9.562h105.188v124.312h-9.562h-95.625V334.688z"/>
	<polygon points="339.608,487.688 339.608,545.062 483.046,545.062 492.608,545.062 492.608,487.688 483.046,487.688 	"/>
	<polygon points="52.733,487.688 52.733,545.062 62.295,545.062 205.733,545.062 205.733,487.688 62.295,487.688 	"/>
	<rect x="90.983" y="334.688" width="86.062" height="105.188"/>
	<rect x="368.296" y="334.688" width="86.062" height="105.188"/>
	<polygon points="368.296,143.438 368.296,258.188 358.733,258.188 186.608,258.188 186.608,143.438 61.253,143.438 25.394,286.875 
		52.733,286.875 62.295,286.875 483.046,286.875 492.608,286.875 519.669,286.875 477.089,143.438 	"/>
	<path d="M196.17,133.875v9.562v105.188h162.563V143.438v-9.562v-38.25H196.17V133.875z M224.858,124.312v-9.562h105.188v19.125
		v9.562V229.5h-9.562h-95.625v-86.062v-9.562V124.312z"/>
	<polygon points="368.296,86.062 386.368,86.062 369.155,0 185.747,0 168.535,86.062 186.608,86.062 196.17,86.062 358.733,86.062 	
		"/>
	<polygon points="320.483,143.438 320.483,133.875 320.483,124.312 234.42,124.312 234.42,133.875 234.42,143.438 234.42,219.938 
		320.483,219.938 	"/>
	<polygon points="215.295,478.125 215.295,487.688 215.295,545.062 330.046,545.062 330.046,487.688 330.046,478.125 
		330.046,334.688 215.295,334.688 	"/>
</g>
<g>
</g>
<g>
</g>
<g>
</g>
<g>
</g>
<g>
</g>
<g>
</g>
<g>
</g>
<g>
</g>
<g>
</g>
<g>
</g>
<g>
</g>
<g>
</g>
<g>
</g>
<g>
</g>
<g>
</g>
</svg>
