<svg xmlns="http://www.w3.org/2000/svg" width="593.152" height="593.153" style="enable-background:new 0 0 593.152 593.153" xml:space="preserve"><path d="M176.906 392.455h57.375v162.562h153V296.83H23.906v258.188h153V392.455zm76.5 133.875v-46.282c5.116 9.247 10.873 24.327 10.873 46.282h-10.873zm47.813 0h-27.377c0-29.185-9.438-47.679-15.912-56.715 23.782-7.708 36.988-44.819 43.29-69.52V526.33zm19.125 0V404.991c6.13 24.557 18.083 57.596 39.13 64.892-5.977 8.979-14.784 27.177-14.784 56.447h-24.346zm47.812 0h-13.913c0-28.257 8.912-45.546 13.913-53.053v53.053zm0-143.438v76.5c-23.725 0-37.676-49.744-42.486-76.5h42.486zm-114.75 0h41.788c-4.915 25.159-18.618 70.485-41.788 75.897v-75.897zm-95.625 0v76.5c-23.725 0-37.676-49.744-42.486-76.5h42.486zm-114.75 0h41.788c-4.905 25.159-18.608 70.485-41.788 75.897v-75.897zm0 143.438v-46.282c5.116 9.247 10.873 24.327 10.873 46.282H43.031zm47.813 0H63.466c0-29.185-9.438-47.679-15.912-56.715 23.782-7.708 36.988-44.819 43.29-69.52V526.33zm19.125 0V404.991c6.129 24.557 18.083 57.596 39.13 64.892-5.977 8.979-14.784 27.177-14.784 56.447h-24.346zm47.812 0h-13.914c0-28.257 8.913-45.546 13.914-53.053v53.053zM361.472 239.455H52.9L0 287.267h414.372zM421.276 440.267h71.193v114.75h28.687v-114.75h71.996L507.214 38.135z"/></svg>