<svg xmlns="http://www.w3.org/2000/svg" width="592.875" height="592.875" style="enable-background:new 0 0 592.875 592.875" xml:space="preserve"><path d="M210.375 525.938h382.499V306h-382.5v219.938zm66.937-9.563v-9.562h248.625v9.562H277.312zm0-28.687h248.625v9.562H277.312v-9.562zm0-19.126h248.625v9.562H277.312v-9.562zm0-19.124h248.625V459H277.312v-9.562zm0-19.126h248.625v9.562H277.312v-9.562zm0-19.124h248.625v9.562H277.312v-9.562zm0-19.126h248.625v9.562H277.312v-9.562zM200.812 66.938H0v459h200.812v-459zM19.125 162.562h162.562v38.25H19.125v-38.25zm19.125 47.813h9.562v28.688H38.25v-28.688zm47.812 28.687H76.5v-28.688h9.562v28.688zm-19.124 0h-9.562v-28.688h9.562v28.688zM38.25 334.688c.956-20.081 17.212-35.859 37.772-35.859 20.559 0 39.206 17.69 39.206 32.99l-.478 88.932h-76.5v-86.063zm57.375-95.626v-28.688h9.562v28.688h-9.562zm19.125-28.687h9.562v28.688h-9.562v-28.688zm19.125 0h9.562v28.688h-9.562v-28.688zm19.125 0h9.562v28.688H153v-28.688zm19.125 0h9.562v28.688h-9.562v-28.688zm-153 0h9.562v28.688h-9.562v-28.688zm-4.781 234.281c0-2.869 1.913-4.781 4.781-4.781h114.75c2.869 0 4.781 1.912 4.781 4.781s-1.913 4.781-4.781 4.781H19.125c-2.869.001-4.781-1.912-4.781-4.781zm28.687 19.125c0-2.869 1.913-4.781 4.781-4.781h114.75c2.869 0 4.781 1.912 4.781 4.781s-1.913 4.781-4.781 4.781H47.812c-2.868 0-4.781-1.912-4.781-4.781zm129.094 43.031H57.375c-2.869 0-4.781-1.912-4.781-4.781s1.913-4.781 4.781-4.781h114.75c2.869 0 4.781 1.912 4.781 4.781s-1.912 4.781-4.781 4.781zm19.125-19.124H76.5c-2.869 0-4.781-1.912-4.781-4.781s1.913-4.781 4.781-4.781h114.75c2.869 0 4.781 1.912 4.781 4.781s-1.912 4.781-4.781 4.781z"/></svg>