<?xml version="1.0" encoding="iso-8859-1"?>
<!-- Generator: Adobe Illustrator 16.0.0, SVG Export Plug-In . SVG Version: 6.00 Build 0)  -->
<!DOCTYPE svg PUBLIC "-//W3C//DTD SVG 1.1//EN" "http://www.w3.org/Graphics/SVG/1.1/DTD/svg11.dtd">
<svg version="1.1" id="Capa_1" xmlns="http://www.w3.org/2000/svg" xmlns:xlink="http://www.w3.org/1999/xlink" x="0px" y="0px"
	 width="556.059px" height="556.06px" viewBox="0 0 556.059 556.06" style="enable-background:new 0 0 556.059 556.06;"
	 xml:space="preserve">
<g>
	<path d="M67.654,366.722h411.667V232.847H67.654V366.722z M103.514,304.088h35.859v35.859h-35.859V304.088z M184.317,339.947
		h-35.859v-35.859h35.859V339.947z M237.867,304.088h35.859v35.859h-35.859V304.088z M318.192,339.947h-35.859v-35.859h35.859
		V339.947z M363.135,304.088h35.859v35.859h-35.859V304.088z M443.461,339.947h-35.859v-35.859h35.859V339.947z M443.461,295.481
		h-35.859v-35.859h35.859V295.481z M363.135,259.622h35.859v35.859h-35.859V259.622z M318.192,295.481h-35.859v-35.859h35.859
		V295.481z M237.867,259.622h35.859v35.859h-35.859V259.622z M184.317,295.481h-35.859v-35.859h35.859V295.481z M103.514,259.622
		h35.859v35.859h-35.859V259.622z"/>
	<path d="M67.654,223.763h411.667V89.409H67.654V223.763z M103.514,161.128h35.859v35.859h-35.859V161.128z M184.317,196.987
		h-35.859v-35.859h35.859V196.987z M237.867,161.128h35.859v35.859h-35.859V161.128z M318.192,196.987h-35.859v-35.859h35.859
		V196.987z M363.135,161.128h35.859v35.859h-35.859V161.128z M443.461,196.987h-35.859v-35.859h35.859V196.987z M443.461,152.044
		h-35.859v-35.859h35.859V152.044z M363.135,116.185h35.859v35.859h-35.859V116.185z M318.192,152.044h-35.859v-35.859h35.859
		V152.044z M237.867,116.185h35.859v35.859h-35.859V116.185z M184.317,152.044h-35.859v-35.859h35.859V152.044z M103.514,116.185
		h35.859v35.859h-35.859V116.185z"/>
	<path d="M67.654,376.763v125.269v9.084v44.944h277.313h116.184h17.691v-44.944v-9.084V376.763H67.654z M139.373,484.341h-35.859
		v-35.859h35.859V484.341z M139.373,439.396h-35.859v-35.859h35.859V439.396z M184.317,484.341h-35.859v-35.859h35.859V484.341z
		 M184.317,439.396h-35.859v-35.859h35.859V439.396z M273.726,484.341h-35.859v-35.859h35.859V484.341z M273.726,439.396h-35.859
		v-35.859h35.859V439.396z M318.192,484.341h-35.859v-35.859h35.859V484.341z M318.192,439.396h-35.859v-35.859h35.859V439.396z
		 M363.135,403.537h80.326v98.973h-80.326V403.537z M461.629,540.281H344.967v-13.388h17.689v-13.388h80.326v13.388h17.689v13.388
		H461.629z"/>
	<rect x="40.879" width="474.301" height="80.325"/>
</g>
<g>
</g>
<g>
</g>
<g>
</g>
<g>
</g>
<g>
</g>
<g>
</g>
<g>
</g>
<g>
</g>
<g>
</g>
<g>
</g>
<g>
</g>
<g>
</g>
<g>
</g>
<g>
</g>
<g>
</g>
</svg>
