<?xml version="1.0" encoding="iso-8859-1"?>
<!-- Generator: Adobe Illustrator 16.0.0, SVG Export Plug-In . SVG Version: 6.00 Build 0)  -->
<!DOCTYPE svg PUBLIC "-//W3C//DTD SVG 1.1//EN" "http://www.w3.org/Graphics/SVG/1.1/DTD/svg11.dtd">
<svg version="1.1" id="Capa_1" xmlns="http://www.w3.org/2000/svg" xmlns:xlink="http://www.w3.org/1999/xlink" x="0px" y="0px"
	 width="583.791px" height="583.791px" viewBox="0 0 583.791 583.791" style="enable-background:new 0 0 583.791 583.791;"
	 xml:space="preserve">
<g>
	<path d="M326.798,91.322h-75.543c0,25.341-20.082,51.159-53.072,51.159v288.31c26.775,0,51.159,25.818,51.159,52.115h75.065
		c0-23.428,23.43-52.115,51.639-52.115v-288.31C352.618,142.481,326.798,117.619,326.798,91.322z M310.063,271.097l25.82,50.204
		h-96.582l25.819-50.204c-16.256-8.128-27.253-25.34-27.253-44.465c0-27.731,22.472-50.203,50.203-50.203
		c27.731,0,50.204,22.472,50.204,50.203C337.796,245.756,326.321,262.491,310.063,271.097z"/>
	<path d="M437.245,495.338h-9.562V88.931h9.562c23.906,0,43.51-20.56,43.51-44.466s-21.994-43.987-45.9-43.987
		s-45.9,19.125-45.9,43.031v6.216H186.23v-6.216C186.23,19.603,169.017,0,145.111,0s-42.075,20.559-42.075,44.465
		s20.559,44.466,44.944,44.466v405.928c-23.906,0-43.51,20.559-43.51,44.465s17.213,43.988,41.119,43.988
		s41.119-19.125,41.119-43.031v-6.215h203.203v6.215c0,23.906,21.994,43.51,45.9,43.51s44.943-20.561,44.943-44.467
		C479.798,515.418,461.63,495.338,437.245,495.338z M194.836,445.613c-2.869,0-5.737,0.477-8.606,0.955V127.659h0.478
		c2.869,0.478,5.737,0.957,8.606,0.957c7.65,0,14.822-1.913,20.56-5.738c2.391-1.434,4.781-3.347,7.172-5.259
		c8.606-7.65,13.866-18.647,13.866-31.078c0-2.869-0.478-5.259-0.957-7.65h104.71c-0.479,2.391-0.957,4.781-0.957,7.65
		c0,22.95,18.646,41.597,41.598,41.597c2.391,0,5.258-0.478,7.648-0.956v318.432c-2.391-0.479-4.781-0.957-7.648-0.957
		c-22.951,0-41.598,18.646-41.598,41.598c0,2.867,0.479,5.736,0.957,8.127H235.477c0.478-2.391,0.957-5.26,0.957-8.127
		C236.433,464.26,217.786,445.613,194.836,445.613z"/>
</g>
<g>
</g>
<g>
</g>
<g>
</g>
<g>
</g>
<g>
</g>
<g>
</g>
<g>
</g>
<g>
</g>
<g>
</g>
<g>
</g>
<g>
</g>
<g>
</g>
<g>
</g>
<g>
</g>
<g>
</g>
</svg>
