<svg xmlns="http://www.w3.org/2000/svg" width="506.812" height="506.812" style="enable-background:new 0 0 506.812 506.812" xml:space="preserve"><path d="M306 401.625v86.062h172.125V239.062H38.25v248.623h181.688V382.5H306v19.125zM76.5 286.875h47.812v47.812H76.5v-47.812zm0 57.375h47.812v47.812H76.5V344.25zm0 57.375h47.812v38.25H76.5v-38.25zm105.188 38.25h-47.812v-38.25h47.812v38.25zm0-47.813h-47.812V344.25h47.812v47.812zm0-57.374h-47.812v-47.812h47.812v47.812zm162.562 66.937h47.812v38.25H344.25v-38.25zm105.188 38.25h-47.812v-38.25h47.812v38.25zm0-47.813h-47.812V344.25h47.812v47.812zm0-57.374h-47.812v-47.812h47.812v47.812zM344.25 286.875h47.812v47.812H344.25v-47.812zm0 57.375h47.812v47.812H344.25V344.25zM506.812 19.125H0v200.812h506.812V19.125zM179.833 122.648c-3.012 4.351-8.97 5.422-13.311 2.41l-23.084-16.018v72.646H76.5V107.97l-23.715 17.107a9.575 9.575 0 0 1-5.584 1.807 9.551 9.551 0 0 1-7.765-3.968c-3.088-4.284-2.132-10.261 2.161-13.35l66.737-48.157 69.099 47.927c4.331 3.023 5.412 8.981 2.4 13.312zm286.874 0c-3.002 4.351-8.97 5.422-13.311 2.41l-23.084-16.018v72.646h-66.938V107.97l-23.715 17.107a9.574 9.574 0 0 1-5.585 1.807 9.551 9.551 0 0 1-7.765-3.968c-3.089-4.284-2.132-10.261 2.161-13.35l66.737-48.157 69.099 47.927c4.333 3.023 5.414 8.981 2.401 13.312z"/><path d="M93.617 95.625h-7.555v76.5h47.813v-76.5h-9.773zM380.492 95.625h-7.554v76.5h47.812v-76.5h-9.772z"/></svg>