<?xml version="1.0" encoding="iso-8859-1"?>
<!-- Generator: Adobe Illustrator 16.0.0, SVG Export Plug-In . SVG Version: 6.00 Build 0)  -->
<!DOCTYPE svg PUBLIC "-//W3C//DTD SVG 1.1//EN" "http://www.w3.org/Graphics/SVG/1.1/DTD/svg11.dtd">
<svg version="1.1" id="Capa_1" xmlns="http://www.w3.org/2000/svg" xmlns:xlink="http://www.w3.org/1999/xlink" x="0px" y="0px"
	 width="525.938px" height="525.938px" viewBox="0 0 525.938 525.938" style="enable-background:new 0 0 525.938 525.938;"
	 xml:space="preserve">
<g>
	<polygon points="459,196.046 401.625,196.046 401.625,224.734 344.25,224.734 344.25,253.421 286.875,253.421 286.875,282.108 
		229.5,282.108 229.5,310.796 172.125,310.796 172.125,339.483 114.75,339.483 114.75,368.171 57.375,368.171 57.375,396.858 
		0,396.858 0,435.108 57.375,435.108 66.938,435.108 114.75,435.108 124.312,435.108 172.125,435.108 181.688,435.108 
		229.5,435.108 239.062,435.108 286.875,435.108 296.438,435.108 344.25,435.108 353.812,435.108 401.625,435.108 411.188,435.108 
		459,435.108 468.562,435.108 525.938,435.108 525.938,167.359 459,167.359 	"/>
	<path d="M358.594,162.578c2.64,0,4.781-2.142,4.781-4.781v-36.156l43.442-21.975c1.377-0.698,1.922-2.372,1.233-3.749l-1.798-3.557
		c-0.698-1.377-2.371-1.922-3.748-1.234L91.063,248.688c-0.076,0-0.143-0.048-0.22-0.048c-1.625,0-2.993,0.861-3.854,2.104
		l-63.486,32.121c-1.377,0.697-1.922,2.371-1.233,3.748l1.798,3.559c0.698,1.377,2.372,1.922,3.749,1.232l58.245-29.471v29.739
		c0,2.641,2.142,4.781,4.781,4.781s4.781-2.141,4.781-4.781v-34.578L229.5,189.372v35.362c0,2.639,2.142,4.781,4.781,4.781
		s4.781-2.142,4.781-4.781v-38.25c0-0.631-0.134-1.224-0.354-1.769l115.104-58.236v31.317
		C353.812,160.436,355.954,162.578,358.594,162.578z"/>
</g>
<g>
</g>
<g>
</g>
<g>
</g>
<g>
</g>
<g>
</g>
<g>
</g>
<g>
</g>
<g>
</g>
<g>
</g>
<g>
</g>
<g>
</g>
<g>
</g>
<g>
</g>
<g>
</g>
<g>
</g>
</svg>
