<svg xmlns="http://www.w3.org/2000/svg" width="583.312" height="583.312" style="enable-background:new 0 0 583.312 583.312" xml:space="preserve"><path d="M578.531 423.141a4.782 4.782 0 0 0 0-9.562h-14.344v-9.562l-9.562-14.937-9.562 14.937v9.562h-19.125v-9.562l-9.562-14.937-9.562 14.937v9.562h-19.125v-9.562l-9.562-14.937-9.562 14.937v9.562H449.44v-9.562l-9.562-14.937-9.562 14.937v9.562h-19.125v-9.562l-9.562-14.937-9.562 14.937v9.562h-19.125v-9.562l-9.562-14.937-9.562 14.937v9.562h-19.125v-9.562l-9.562-14.937-9.562 14.937v9.562h-19.125V205.326l-148.219-92.967L0 205.326v265.627h114.75v-76.5h66.938v76.5h114.75v-19.125h19.125v19.125h19.125v-19.125h19.125v19.125h19.125v-19.125h19.125v19.125h19.125v-19.125h19.125v19.125h19.125v-19.125h19.125v19.125h19.125v-19.125h19.125v19.125h19.125v-19.125h19.125v19.125h19.125v-19.125h14.344a4.782 4.782 0 0 0 0-9.562h-14.344v-19.125h14.343zM95.625 442.266h-76.5v-9.562h76.5v9.562zm0-28.688h-76.5v-38.25h76.5v38.25zm26.029-105.187H54.42l-19.125-38.25h12.517v-38.25H76.5v38.25h19.125v-38.25h28.688v38.25h11.686l-14.345 38.25zm57.079 0-19.125-38.25h12.517v-38.25h28.688v38.25h19.125v-38.25h28.688v38.25h11.686l-14.344 38.25h-67.235zm98.579 133.875h-76.5v-9.562h76.5v9.562zm0-28.688h-76.5v-38.25h76.5v38.25zm19.126 28.688v-19.125h19.125v19.125h-19.125zm38.25 0v-19.125h19.125v19.125h-19.125zm38.25 0v-19.125h19.125v19.125h-19.125zm38.25 0v-19.125h19.125v19.125h-19.125zm38.25 0v-19.125h19.125v19.125h-19.125zm38.25 0v-19.125h19.125v19.125h-19.125zm57.374 0h-19.125v-19.125h19.125v19.125z"/><path d="M60.33 298.828h54.688l7.171-19.125H50.767zM175.08 279.703l9.562 19.125h54.688l7.172-19.125z"/></svg>