<svg xmlns="http://www.w3.org/2000/svg" width="583.791" height="583.791" style="enable-background:new 0 0 583.791 583.791" xml:space="preserve"><path d="M326.798 91.322h-75.543c0 25.341-20.082 51.159-53.072 51.159v288.31c26.775 0 51.159 25.818 51.159 52.115h75.065c0-23.428 23.43-52.115 51.639-52.115v-288.31c-23.428 0-49.248-24.862-49.248-51.159zm-16.735 179.775 25.82 50.204h-96.582l25.819-50.204c-16.256-8.128-27.253-25.34-27.253-44.465 0-27.731 22.472-50.203 50.203-50.203s50.204 22.472 50.204 50.203c-.478 19.124-11.953 35.859-28.211 44.465z"/><path d="M437.245 495.338h-9.562V88.931h9.562c23.906 0 43.51-20.56 43.51-44.466S458.761.478 434.855.478s-45.9 19.125-45.9 43.031v6.216H186.23v-6.216C186.23 19.603 169.017 0 145.111 0s-42.075 20.559-42.075 44.465 20.559 44.466 44.944 44.466v405.928c-23.906 0-43.51 20.559-43.51 44.465s17.213 43.988 41.119 43.988 41.119-19.125 41.119-43.031v-6.215h203.203v6.215c0 23.906 21.994 43.51 45.9 43.51s44.943-20.561 44.943-44.467c-.956-23.906-19.124-43.986-43.509-43.986zm-242.409-49.725c-2.869 0-5.737.477-8.606.955V127.659h.478c2.869.478 5.737.957 8.606.957 7.65 0 14.822-1.913 20.56-5.738 2.391-1.434 4.781-3.347 7.172-5.259 8.606-7.65 13.866-18.647 13.866-31.078 0-2.869-.478-5.259-.957-7.65h104.71c-.479 2.391-.957 4.781-.957 7.65 0 22.95 18.646 41.597 41.598 41.597 2.391 0 5.258-.478 7.648-.956v318.432c-2.391-.479-4.781-.957-7.648-.957-22.951 0-41.598 18.646-41.598 41.598 0 2.867.479 5.736.957 8.127H235.477c.478-2.391.957-5.26.957-8.127-.001-21.995-18.648-40.642-41.598-40.642z"/></svg>