<?xml version="1.0" encoding="iso-8859-1"?>
<!-- Generator: Adobe Illustrator 16.0.0, SVG Export Plug-In . SVG Version: 6.00 Build 0)  -->
<!DOCTYPE svg PUBLIC "-//W3C//DTD SVG 1.1//EN" "http://www.w3.org/Graphics/SVG/1.1/DTD/svg11.dtd">
<svg version="1.1" id="Capa_1" xmlns="http://www.w3.org/2000/svg" xmlns:xlink="http://www.w3.org/1999/xlink" x="0px" y="0px"
	 width="506.812px" height="506.812px" viewBox="0 0 506.812 506.812" style="enable-background:new 0 0 506.812 506.812;"
	 xml:space="preserve">
<g>
	<path d="M306,401.625v86.062h172.125V239.062H38.25v95.625v9.562v47.812v9.562v86.062h181.688V382.5H306v9.562V401.625z
		 M76.5,286.875h47.812v47.812H76.5V286.875z M76.5,344.25h47.812v47.812H76.5V344.25z M76.5,401.625h47.812v38.25H76.5V401.625z
		 M181.688,439.875h-47.812v-38.25h47.812V439.875z M181.688,392.062h-47.812V344.25h47.812V392.062z M181.688,334.688h-47.812
		v-47.812h47.812V334.688z M344.25,401.625h47.812v38.25H344.25V401.625z M449.438,439.875h-47.812v-38.25h47.812V439.875z
		 M449.438,392.062h-47.812V344.25h47.812V392.062z M449.438,334.688h-47.812v-47.812h47.812V334.688z M344.25,286.875h47.812
		v47.812H344.25V286.875z M344.25,344.25h47.812v47.812H344.25V344.25z"/>
	<path d="M506.812,19.125H0v200.812h506.812V19.125z M179.833,122.648c-3.012,4.351-8.97,5.422-13.311,2.41l-23.084-16.018v72.646
		H76.5V107.97l-23.715,17.107c-1.693,1.214-3.653,1.807-5.584,1.807c-2.974,0-5.891-1.377-7.765-3.968
		c-3.088-4.284-2.132-10.261,2.161-13.35l66.737-48.157l69.099,47.927C181.764,112.359,182.845,118.317,179.833,122.648z
		 M466.707,122.648c-3.002,4.351-8.97,5.422-13.311,2.41l-23.084-16.018v72.646h-66.938V107.97l-23.715,17.107
		c-1.692,1.214-3.653,1.807-5.585,1.807c-2.974,0-5.891-1.377-7.765-3.968c-3.089-4.284-2.132-10.261,2.161-13.35l66.737-48.157
		l69.099,47.927C468.639,112.359,469.72,118.317,466.707,122.648z"/>
	<polygon points="93.617,95.625 86.062,95.625 86.062,101.076 86.062,172.125 133.875,172.125 133.875,102.405 133.875,95.625 
		124.102,95.625 	"/>
	<polygon points="380.492,95.625 372.938,95.625 372.938,101.076 372.938,172.125 420.75,172.125 420.75,102.405 420.75,95.625 
		410.978,95.625 	"/>
</g>
<g>
</g>
<g>
</g>
<g>
</g>
<g>
</g>
<g>
</g>
<g>
</g>
<g>
</g>
<g>
</g>
<g>
</g>
<g>
</g>
<g>
</g>
<g>
</g>
<g>
</g>
<g>
</g>
<g>
</g>
</svg>
