<?xml version="1.0" encoding="iso-8859-1"?>
<!-- Generator: Adobe Illustrator 16.0.0, SVG Export Plug-In . SVG Version: 6.00 Build 0)  -->
<!DOCTYPE svg PUBLIC "-//W3C//DTD SVG 1.1//EN" "http://www.w3.org/Graphics/SVG/1.1/DTD/svg11.dtd">
<svg version="1.1" id="Capa_1" xmlns="http://www.w3.org/2000/svg" xmlns:xlink="http://www.w3.org/1999/xlink" x="0px" y="0px"
	 width="602.438px" height="602.438px" viewBox="0 0 602.438 602.438" style="enable-background:new 0 0 602.438 602.438;"
	 xml:space="preserve">
<g>
	<path d="M368.156,510.398c0-28.286,0-310.074,0-310.074s70.026-10.643,71.881,84.246c1.664,85.23,1.913,224.948,1.941,279.607
		c0,0-0.01,13.148,15.233,13.148c16.132,0.01,16.132-13.139,16.132-13.139V261.773C468.983,38.279,196.031,19.125,196.031,19.125
		v564.188c0,0,46.617,0,105.188,0C334.688,583.312,368.156,560.602,368.156,510.398z M315.792,134.544l-2.171-2.056
		c-3.232-3.069-8.338-2.936-11.408,0.296l-20.664,21.755c-4.141-5.852-6.627-12.957-6.627-20.665
		c0-19.804,16.056-35.859,35.859-35.859s35.859,16.056,35.859,35.859s-16.056,35.859-35.859,35.859
		c-5.125,0-9.983-1.119-14.392-3.05l19.689-20.731C319.148,142.72,319.015,137.614,315.792,134.544z"/>
	<path d="M148.219,602.438c10.566,0,19.125-8.559,19.125-19.125V19.125C167.344,8.559,158.785,0,148.219,0
		s-19.125,8.559-19.125,19.125v564.188C129.094,593.879,137.652,602.438,148.219,602.438z"/>
</g>
<g>
</g>
<g>
</g>
<g>
</g>
<g>
</g>
<g>
</g>
<g>
</g>
<g>
</g>
<g>
</g>
<g>
</g>
<g>
</g>
<g>
</g>
<g>
</g>
<g>
</g>
<g>
</g>
<g>
</g>
</svg>
