<svg xmlns="http://www.w3.org/2000/svg" width="602.438" height="602.438" style="enable-background:new 0 0 602.438 602.438" xml:space="preserve"><path d="M368.156 510.398V200.324s70.026-10.643 71.881 84.246c1.664 85.23 1.913 224.948 1.941 279.607 0 0-.01 13.148 15.233 13.148 16.132.01 16.132-13.139 16.132-13.139V261.773C468.983 38.279 196.031 19.125 196.031 19.125v564.188h105.188c33.469-.001 66.937-22.711 66.937-72.915zm-52.364-375.854-2.171-2.056a8.069 8.069 0 0 0-11.408.296l-20.664 21.755c-4.141-5.852-6.627-12.957-6.627-20.665 0-19.804 16.056-35.859 35.859-35.859s35.859 16.056 35.859 35.859-16.056 35.859-35.859 35.859c-5.125 0-9.983-1.119-14.392-3.05l19.689-20.731a8.076 8.076 0 0 0-.286-11.408zM148.219 602.438c10.566 0 19.125-8.559 19.125-19.125V19.125C167.344 8.559 158.785 0 148.219 0s-19.125 8.559-19.125 19.125v564.188c0 10.566 8.558 19.125 19.125 19.125z"/></svg>