<svg xmlns="http://www.w3.org/2000/svg" width="527.372" height="527.372" style="enable-background:new 0 0 527.372 527.372" xml:space="preserve"><path d="m333.015 278.269 2.391-3.825c-3.348-19.603-6.216-38.25-8.606-56.418-.956-9.084-1.913-17.69-2.869-26.775-10.519-13.388-23.906-40.163-5.737-63.112 1.435-1.913 2.869-3.825 4.303-5.26.479-22.472 2.391-40.162 3.348-49.247-10.041 1.913-28.688 5.259-43.51 5.259-34.903 0-59.766-19.603-83.672-38.728C173.32 20.081 147.502 0 108.773 0 89.648 0 79.13 7.172 73.393 12.909c14.344 4.303 40.162 20.56 42.075 83.194 2.869 73.153-4.303 147.741-10.041 213.722-3.825 42.553-7.172 79.368-7.172 108.056 0 1.435-1.913 22.473 16.734 42.554 10.519 11.475 25.819 20.081 44.466 26.297h144.394c51.638-19.604 54.984-61.2 54.984-71.719 0-6.694-2.391-25.341-3.825-30.122-10.04-5.738-58.81-52.594-21.993-106.622z"/><path d="M376.046 109.491h-2.391c-8.606 0-21.516-1.435-40.163 18.168-1.912 1.913-3.347 3.825-5.259 6.216l-1.435 1.435c-1.913 1.912-2.869 4.303-3.825 6.693-4.303 9.562-2.869 19.125.479 27.731 1.434 3.825 3.347 7.172 4.781 10.041 0-.478.478-.956.478-1.434 1.435-2.869 2.869-5.738 4.781-8.606 12.432-18.647 32.034-31.556 45.9-31.556 20.56 0 42.075 29.166 42.075 56.418 0 85.106-48.291 94.19-68.851 94.19h-3.825c-1.912 0-3.824-.478-5.259-.478-.956 0-2.391-.479-3.347-.479l-1.435 2.869c-21.038 36.815 3.347 67.894 12.431 77.456.479-.479.957-.479 1.435-.956 1.435-.956 2.869-2.391 4.781-3.347 1.435-.957 3.347-2.391 4.781-3.348 1.435-.956 2.391-1.912 3.825-2.868 37.294-26.775 87.975-61.679 87.975-152.044-.476-95.145-70.283-96.101-77.932-96.101zM287.593 496.771H153.239v14.822c.956 1.912 11.475 15.778 77.935 15.778 65.503 0 77.456-11.953 78.891-14.344V496.77H287.593z"/></svg>