<?xml version="1.0" encoding="iso-8859-1"?>
<!-- Generator: Adobe Illustrator 16.0.0, SVG Export Plug-In . SVG Version: 6.00 Build 0)  -->
<!DOCTYPE svg PUBLIC "-//W3C//DTD SVG 1.1//EN" "http://www.w3.org/Graphics/SVG/1.1/DTD/svg11.dtd">
<svg version="1.1" id="Capa_1" xmlns="http://www.w3.org/2000/svg" xmlns:xlink="http://www.w3.org/1999/xlink" x="0px" y="0px"
	 width="527.372px" height="527.372px" viewBox="0 0 527.372 527.372" style="enable-background:new 0 0 527.372 527.372;"
	 xml:space="preserve">
<g>
	<g>
		<path d="M333.015,278.269l2.391-3.825c-3.348-19.603-6.216-38.25-8.606-56.418c-0.956-9.084-1.913-17.69-2.869-26.775
			c-10.519-13.388-23.906-40.163-5.737-63.112c1.435-1.913,2.869-3.825,4.303-5.26c0.479-22.472,2.391-40.162,3.348-49.247
			c-10.041,1.913-28.688,5.259-43.51,5.259c-34.903,0-59.766-19.603-83.672-38.728C173.32,20.081,147.502,0,108.773,0
			C89.648,0,79.13,7.172,73.393,12.909c14.344,4.303,40.162,20.56,42.075,83.194c2.869,73.153-4.303,147.741-10.041,213.722
			c-3.825,42.553-7.172,79.368-7.172,108.056c0,1.435-1.913,22.473,16.734,42.554c10.519,11.475,25.819,20.081,44.466,26.297
			h144.394c51.638-19.604,54.984-61.2,54.984-71.719c0-6.694-2.391-25.341-3.825-30.122
			C344.968,379.153,296.198,332.297,333.015,278.269z"/>
		<path d="M376.046,109.491h-2.391c-8.606,0-21.516-1.435-40.163,18.168c-1.912,1.913-3.347,3.825-5.259,6.216
			c-0.479,0.478-0.957,0.956-1.435,1.435c-1.913,1.912-2.869,4.303-3.825,6.693c-4.303,9.562-2.869,19.125,0.479,27.731
			c1.434,3.825,3.347,7.172,4.781,10.041c0-0.478,0.478-0.956,0.478-1.434c1.435-2.869,2.869-5.738,4.781-8.606
			c12.432-18.647,32.034-31.556,45.9-31.556c20.56,0,42.075,29.166,42.075,56.418c0,85.106-48.291,94.19-68.851,94.19
			c-1.435,0-2.391,0-3.825,0c-1.912,0-3.824-0.478-5.259-0.478c-0.956,0-2.391-0.479-3.347-0.479
			c-0.479,0.956-0.957,1.913-1.435,2.869c-21.038,36.815,3.347,67.894,12.431,77.456c0.479-0.479,0.957-0.479,1.435-0.956
			c1.435-0.956,2.869-2.391,4.781-3.347c1.435-0.957,3.347-2.391,4.781-3.348c1.435-0.956,2.391-1.912,3.825-2.868
			c37.294-26.775,87.975-61.679,87.975-152.044C453.502,110.447,383.695,109.491,376.046,109.491z"/>
		<path d="M287.593,496.771h-49.726h-58.331h-21.516h-4.781v14.822c0.956,1.912,11.475,15.778,77.935,15.778
			c65.503,0,77.456-11.953,78.891-14.344v-16.257h-3.825H287.593z"/>
	</g>
</g>
<g>
</g>
<g>
</g>
<g>
</g>
<g>
</g>
<g>
</g>
<g>
</g>
<g>
</g>
<g>
</g>
<g>
</g>
<g>
</g>
<g>
</g>
<g>
</g>
<g>
</g>
<g>
</g>
<g>
</g>
</svg>
