<svg xmlns="http://www.w3.org/2000/svg" width="535.5" height="535.5" style="enable-background:new 0 0 535.5 535.5" xml:space="preserve"><path d="M267.353 0C214.54 0 172.13 43.882 172.13 98.016a98.435 98.435 0 0 0 48.214 84.8v304.872l47.812 47.812 47.813-47.812v-70.122l-28.621-19.125 28.027-23.906-27.922-23.504 28.506-12.633v-20.444l-28.688-10.356V288.09l28.219-14.756-28.219-15.548v-18.724l28.688-19.125v-37.122c28.688-16.955 47.41-48.54 47.41-84.8C363.37 43.882 320.167 0 267.353 0zm-4.781 28.688c13.207 0 23.906 10.7 23.906 23.906S275.778 76.5 262.572 76.5s-23.906-10.7-23.906-23.906 10.7-23.906 23.906-23.906z"/></svg>