<?xml version="1.0" encoding="iso-8859-1"?>
<!-- Generator: Adobe Illustrator 16.0.0, SVG Export Plug-In . SVG Version: 6.00 Build 0)  -->
<!DOCTYPE svg PUBLIC "-//W3C//DTD SVG 1.1//EN" "http://www.w3.org/Graphics/SVG/1.1/DTD/svg11.dtd">
<svg version="1.1" id="Capa_1" xmlns="http://www.w3.org/2000/svg" xmlns:xlink="http://www.w3.org/1999/xlink" x="0px" y="0px"
	 width="512.55px" height="512.55px" viewBox="0 0 512.55 512.55" style="enable-background:new 0 0 512.55 512.55;"
	 xml:space="preserve">
<g>
	<path d="M380.109,178.101h-88.932c-8.605,0-15.777,7.172-15.777,15.778v15.778v15.778c0,8.605,7.172,15.777,15.777,15.777h93.713
		c8.606,0,15.778-7.172,15.778-15.777v-15.778v-10.519v-5.259c0-8.606-7.172-15.778-15.778-15.778H380.109z"/>
	<path d="M10.041,355.007v84.15h31.078V408.08h428.4v31.078h31.078v-84.15H10.041z"/>
	<g>
		<path d="M470.475,73.392v50.681l-0.478-0.478v0.478c-18.647-18.169-44.466-29.644-73.153-29.644H115.228
			c-28.209,0-54.028,11.475-73.153,29.644v-0.478l-0.479,0.478V73.392H10.519v187.903c7.172-11.476,18.169-20.56,36.816-20.56
			h10.519h46.378c-3.347-4.304-5.26-10.041-5.26-15.778v-31.078c0-14.344,11.953-26.297,26.297-26.297h0.957h92.756h0.956
			c14.344,0,26.297,11.953,26.297,26.297v31.078c0,5.737-1.913,11.475-5.259,15.778h30.6c-3.347-4.304-5.26-10.041-5.26-15.778
			v-31.078c0-14.344,11.953-26.297,26.297-26.297h0.956h92.757h0.956c14.344,0,24.385,11.953,24.385,26.297v31.078
			c0,5.737-1.913,11.475-5.26,15.778h48.291h10.519c18.169,0,29.644,9.084,36.815,20.56V73.392H470.475z"/>
	</g>
	<path d="M123.834,240.257h93.712c8.606,0,15.778-7.172,15.778-15.778v-15.777v-10.519v-5.259c0-8.606-7.172-15.778-15.778-15.778
		h-5.259h-88.453c-8.606,0-15.778,7.172-15.778,15.778v15.778v15.777C108.534,233.564,115.706,240.257,123.834,240.257z"/>
	<path d="M501.553,304.327c-1.434-0.479-3.347-0.957-5.259-0.957h-3.825c-0.479,0-476.69,0-476.69,0H15.3
		c-1.434,0-3.347,0.479-4.781,0.957C4.781,306.239,0,312.455,0,319.148v10.519c0,7.172,4.303,12.432,10.519,14.822
		c1.435,0.479,3.347,0.956,5.26,0.956h480.993c0.957,0,1.913,0,2.869-0.478c0.956,0,1.435-0.479,2.391-0.479
		c5.737-1.912,10.519-8.128,10.519-14.822v-10.519C512.072,312.455,507.769,306.717,501.553,304.327z"/>
	<path d="M500.597,287.114c-2.391-13.865-10.519-36.338-35.381-36.338h-58.331H46.856c-24.863,0-32.991,22.473-35.381,36.338
		c-0.478,1.912-0.478,3.825-0.957,5.26h483.385h7.649C501.075,290.939,501.075,289.026,500.597,287.114z"/>
</g>
<g>
</g>
<g>
</g>
<g>
</g>
<g>
</g>
<g>
</g>
<g>
</g>
<g>
</g>
<g>
</g>
<g>
</g>
<g>
</g>
<g>
</g>
<g>
</g>
<g>
</g>
<g>
</g>
<g>
</g>
</svg>
