<svg xmlns="http://www.w3.org/2000/svg" width="512.55" height="512.55" style="enable-background:new 0 0 512.55 512.55" xml:space="preserve"><path d="M380.109 178.101h-88.932c-8.605 0-15.777 7.172-15.777 15.778v31.556c0 8.605 7.172 15.777 15.777 15.777h93.713c8.606 0 15.778-7.172 15.778-15.777v-31.556c0-8.606-7.172-15.778-15.778-15.778h-4.781zM10.041 355.007v84.15h31.078V408.08h428.4v31.078h31.078v-84.15H10.041z"/><path d="M470.475 73.392v50.681l-.478-.478v.478c-18.647-18.169-44.466-29.644-73.153-29.644H115.228c-28.209 0-54.028 11.475-73.153 29.644v-.478l-.479.478V73.392H10.519v187.903c7.172-11.476 18.169-20.56 36.816-20.56h56.897c-3.347-4.304-5.26-10.041-5.26-15.778v-31.078c0-14.344 11.953-26.297 26.297-26.297h94.669c14.344 0 26.297 11.953 26.297 26.297v31.078c0 5.737-1.913 11.475-5.259 15.778h30.6c-3.347-4.304-5.26-10.041-5.26-15.778v-31.078c0-14.344 11.953-26.297 26.297-26.297H387.282c14.344 0 24.385 11.953 24.385 26.297v31.078c0 5.737-1.913 11.475-5.26 15.778H465.217c18.169 0 29.644 9.084 36.815 20.56V73.392h-31.557z"/><path d="M123.834 240.257h93.712c8.606 0 15.778-7.172 15.778-15.778v-31.555c0-8.606-7.172-15.778-15.778-15.778h-93.712c-8.606 0-15.778 7.172-15.778 15.778v31.555c.478 9.085 7.65 15.778 15.778 15.778zM501.553 304.327c-1.434-.479-3.347-.957-5.259-.957H15.3c-1.434 0-3.347.479-4.781.957C4.781 306.239 0 312.455 0 319.148v10.519c0 7.172 4.303 12.432 10.519 14.822 1.435.479 3.347.956 5.26.956h480.993c.957 0 1.913 0 2.869-.478.956 0 1.435-.479 2.391-.479 5.737-1.912 10.519-8.128 10.519-14.822v-10.519a17.177 17.177 0 0 0-10.998-14.82zM500.597 287.114c-2.391-13.865-10.519-36.338-35.381-36.338H46.856c-24.863 0-32.991 22.473-35.381 36.338-.478 1.912-.478 3.825-.957 5.26h491.034c-.477-1.435-.477-3.348-.955-5.26z"/></svg>