<svg xmlns="http://www.w3.org/2000/svg" width="519.722" height="519.722" style="enable-background:new 0 0 519.722 519.722" xml:space="preserve"><path d="M128.138 519.722h264.403V35.381H128.138v484.341zM374.85 352.378H330.863V247.191h43.987v105.187zM262.013 64.547c38.25 0 68.85 48.769 68.85 108.534s-31.078 108.534-68.85 108.534c-37.772 0-68.85-48.29-68.85-108.534 0-59.766 30.6-108.534 68.85-108.534zM96.103 0l29.166 26.297h270.14L424.575 0zM401.625 519.722h26.297V9.084l-26.297 24.385zM118.097 33.469 91.8 9.084v510.638h26.297z"/><path d="M262.013 273.01c32.99 0 60.243-44.944 60.243-99.929s-26.774-99.928-60.243-99.928-60.244 44.943-60.244 99.928c0 55.463 27.253 99.929 60.244 99.929zM366.244 255.319h-26.297v13.866c1.434-.479 2.868-.956 4.303-.956 7.172 0 13.388 5.737 13.388 13.387v35.382c0 7.172-5.737 13.388-13.388 13.388-1.435 0-2.869-.479-4.303-.957v13.866h26.297v-87.976z"/><path d="M344.25 321.778a4.285 4.285 0 0 0 4.303-4.304v-35.381a4.285 4.285 0 0 0-4.303-4.303c-1.912 0-3.347.956-3.825 2.868 0 .479-.478.956-.478 1.913v35.381c0 .479 0 .956.478 1.912.478.48 1.913 1.914 3.825 1.914z"/></svg>