<?xml version="1.0" encoding="iso-8859-1"?>
<!-- Generator: Adobe Illustrator 16.0.0, SVG Export Plug-In . SVG Version: 6.00 Build 0)  -->
<!DOCTYPE svg PUBLIC "-//W3C//DTD SVG 1.1//EN" "http://www.w3.org/Graphics/SVG/1.1/DTD/svg11.dtd">
<svg version="1.1" id="Capa_1" xmlns="http://www.w3.org/2000/svg" xmlns:xlink="http://www.w3.org/1999/xlink" x="0px" y="0px"
	 width="454.219px" height="454.219px" viewBox="0 0 454.219 454.219" style="enable-background:new 0 0 454.219 454.219;"
	 xml:space="preserve">
<g>
	<g>
		<path d="M114.75,86.062c0,7.927,6.417,14.344,14.344,14.344h181.209c0.746,0.038,1.951,0.096,3.548,0.096
			c9.782,0,34.023-1.941,53.187-19.469c16.61-15.186,25.025-37.628,25.025-66.689C392.062,6.417,385.646,0,377.719,0
			s-14.344,6.417-14.344,14.344c0,20.55-5.221,35.812-15.52,45.355c-14.603,13.521-35.678,12.058-35.803,12.078l-182.959-0.058
			C121.167,71.719,114.75,78.135,114.75,86.062z"/>
		<path d="M106.976,262.969H74.702c-6.923,0-12.546,5.623-12.546,12.546v3.586c0,6.933,5.623,12.556,12.546,12.556h32.273
			c5.872,0,10.576-4.112,11.944-9.562h105.799c0,54.755,0,104.557,0,114.157c0,12.23-24.824,22.405-48.09,29.28h-37.973
			c-10.566,0-19.125,6.665-19.125,14.344s8.559,14.344,19.125,14.344h210.375c10.566,0,19.125-6.665,19.125-14.344
			s-8.559-14.344-19.125-14.344h-37.733c-23.333-6.885-48.329-17.021-48.329-28.984c0-16.964,0-166.827,0-238.766h19.125v-38.25
			h-19.125h-38.25h-19.125v38.25h19.125c0,29.864,0,73.105,0,114.75h-105.79C117.562,267.081,112.856,262.969,106.976,262.969z"/>
	</g>
</g>
<g>
</g>
<g>
</g>
<g>
</g>
<g>
</g>
<g>
</g>
<g>
</g>
<g>
</g>
<g>
</g>
<g>
</g>
<g>
</g>
<g>
</g>
<g>
</g>
<g>
</g>
<g>
</g>
<g>
</g>
</svg>
