<svg xmlns="http://www.w3.org/2000/svg" width="454.219" height="454.219" style="enable-background:new 0 0 454.219 454.219" xml:space="preserve"><path d="M114.75 86.062c0 7.927 6.417 14.344 14.344 14.344h181.209c.746.038 1.951.096 3.548.096 9.782 0 34.023-1.941 53.187-19.469 16.61-15.186 25.025-37.628 25.025-66.689C392.062 6.417 385.646 0 377.719 0s-14.344 6.417-14.344 14.344c0 20.55-5.221 35.812-15.52 45.355-14.603 13.521-35.678 12.058-35.803 12.078l-182.959-.058c-7.926 0-14.343 6.416-14.343 14.343zM106.976 262.969H74.702c-6.923 0-12.546 5.623-12.546 12.546v3.586c0 6.933 5.623 12.556 12.546 12.556h32.273c5.872 0 10.576-4.112 11.944-9.562h105.799v114.157c0 12.23-24.824 22.405-48.09 29.28h-37.973c-10.566 0-19.125 6.665-19.125 14.344s8.559 14.344 19.125 14.344H349.03c10.566 0 19.125-6.665 19.125-14.344s-8.559-14.344-19.125-14.344h-37.733c-23.333-6.885-48.329-17.021-48.329-28.984V157.782h19.125v-38.25h-76.5v38.25h19.125v114.75h-105.79c-1.366-5.451-6.072-9.563-11.952-9.563z"/></svg>