<svg xmlns="http://www.w3.org/2000/svg" width="567.372" height="567.372" style="enable-background:new 0 0 567.372 567.372" xml:space="preserve"><path d="M172.125 192.842h219.938v267.75H172.125zM555.361 431.905h-43.51c-8.376-5.604-14.602-12.173-14.602-19.422V307.592h9.562v-38.25h-38.25v38.25h9.562v104.595c0 7.421-5.861 14.076-13.761 19.718h-41.156c-6.646 0-12.021 5.728-12.021 9.562 0 3.701 5.039 9.046 11.351 9.429l-.459.134H556.487s-.248-.067-.478-.134c6.312-.373 11.36-5.728 11.36-9.429.003-3.835-5.371-9.562-12.008-9.562zM478.125 240.655H420.75c-5.278 0-9.562 4.284-9.562 9.562s4.284 9.562 9.562 9.562l56.523-.038c.259.019 1.722.144 4.064.144 9.161 0 31.872-1.808 49.812-18.227 15.577-14.248 23.476-35.496 23.476-63.16 0-5.278-4.284-9.562-9.562-9.562s-9.562 4.284-9.562 9.562c0 21.984-5.767 38.451-17.127 48.922-16.209 14.965-39.207 13.283-40.249 13.235zM144.174 431.905h-43.509c-8.377-5.604-14.602-12.173-14.602-19.422V307.592h9.562v-38.25h-38.25v38.25h9.562v104.595c0 7.421-5.862 14.076-13.76 19.718H12.011C5.374 431.905 0 437.632 0 441.467c0 3.701 5.04 9.046 11.351 9.429l-.459.134H145.302s-.249-.067-.478-.134c6.311-.373 11.36-5.728 11.36-9.429 0-3.835-5.374-9.562-12.01-9.562zM72.991 259.904c2.151 0 3.423-.114 3.509-.124h57.375c5.278 0 9.562-4.284 9.562-9.562s-4.284-9.562-9.562-9.562l-58.188.028c-.22.039-23.227 1.693-39.445-13.263-11.351-10.471-17.117-26.938-17.117-48.922 0-5.278-4.284-9.562-9.562-9.562S0 173.22 0 178.499c0 27.664 7.898 48.912 23.476 63.16 18.035 16.505 40.889 18.245 49.515 18.245zM148.219 183.28h267.75c7.918 0 14.344-6.426 14.344-14.344s-6.426-14.344-14.344-14.344h-267.75c-7.918 0-14.344 6.426-14.344 14.344s6.426 14.344 14.344 14.344zM219.938 108.376c0 20.684 28.181 37.457 62.95 37.457 34.769 0 62.949-16.772 62.949-37.457 0-.535-.095-1.061-.134-1.597H220.071c-.038.536-.133 1.053-.133 1.597z"/></svg>