<?xml version="1.0" encoding="iso-8859-1"?>
<!-- Generator: Adobe Illustrator 16.0.0, SVG Export Plug-In . SVG Version: 6.00 Build 0)  -->
<!DOCTYPE svg PUBLIC "-//W3C//DTD SVG 1.1//EN" "http://www.w3.org/Graphics/SVG/1.1/DTD/svg11.dtd">
<svg version="1.1" id="Capa_1" xmlns="http://www.w3.org/2000/svg" xmlns:xlink="http://www.w3.org/1999/xlink" x="0px" y="0px"
	 width="592.875px" height="592.875px" viewBox="0 0 592.875 592.875" style="enable-background:new 0 0 592.875 592.875;"
	 xml:space="preserve">
<g>
	<g>
		<path d="M328.605,262.299c-2.027,0-3.93,0.899-5.23,2.468c-1.167,1.405-1.692,3.117-1.521,4.934
			c0.182,1.836,1.014,3.414,2.429,4.581c1.081,0.889,2.563,1.377,4.179,1.377c2.171,0,4.16-0.852,5.346-2.286
			c1.147-1.386,1.683-3.146,1.511-4.943c-0.172-1.808-1.032-3.424-2.419-4.571C331.685,262.844,330.164,262.299,328.605,262.299z"/>
		<path d="M483.433,262.299c-2.027,0-3.931,0.899-5.231,2.468c-1.166,1.405-1.692,3.117-1.521,4.934
			c0.182,1.836,1.014,3.414,2.43,4.581c1.08,0.889,2.562,1.377,4.179,1.377c2.17,0,4.159-0.852,5.345-2.286
			c1.147-1.386,1.684-3.146,1.512-4.943c-0.173-1.808-1.033-3.424-2.42-4.571C486.512,262.844,484.991,262.299,483.433,262.299z"/>
		<path d="M573.75,225.121H19.125C8.559,225.121,0,233.679,0,244.246v47.812c0,10.566,8.559,19.125,19.125,19.125H66.01
			l54.21-65.637l6.359-7.707l7.421,6.694c1.1,0.994,2.189,2.008,3.27,3.031c0.277-0.364,0.564-0.727,0.851-1.081
			c6.522-7.889,16.821-12.604,27.55-12.604c8.3,0,16.237,2.783,22.367,7.841c15.061,12.441,17.203,34.826,4.762,49.916
			c-5.279,6.388-12.508,10.644-20.474,12.212c0.507,2.467,0.832,4.905,1.042,7.334h55.759l54.21-65.637l6.359-7.707l7.42,6.693
			c1.101,0.995,2.19,2.008,3.271,3.032c0.277-0.364,0.564-0.727,0.852-1.081c6.521-7.889,16.82-12.604,27.549-12.604
			c8.301,0,16.237,2.783,22.367,7.841c15.061,12.44,17.203,34.826,4.762,49.916c-5.278,6.388-12.508,10.644-20.473,12.211
			c0.507,2.468,0.832,4.906,1.042,7.335h47.459l54.209-65.637l6.359-7.707l7.421,6.693c1.1,0.995,2.189,2.008,3.271,3.032
			c0.277-0.364,0.563-0.727,0.851-1.081c6.521-7.889,16.82-12.603,27.55-12.603c8.3,0,16.237,2.783,22.366,7.841
			c15.062,12.44,17.203,34.826,4.763,49.916c-5.278,6.388-12.508,10.644-20.474,12.211c0.507,2.468,0.832,4.906,1.042,7.335h82.448
			c10.566,0,19.125-8.559,19.125-19.125v-47.812C592.875,233.679,584.316,225.121,573.75,225.121z"/>
		<path d="M165.479,262.299c-2.027,0-3.93,0.899-5.23,2.468c-1.167,1.405-1.693,3.117-1.521,4.934
			c0.182,1.836,1.014,3.414,2.429,4.581c1.081,0.889,2.563,1.377,4.179,1.377c2.171,0,4.16-0.852,5.346-2.286
			c1.147-1.386,1.683-3.146,1.511-4.943c-0.172-1.808-1.033-3.424-2.419-4.571C168.558,262.844,167.038,262.299,165.479,262.299z"/>
		<path d="M185.436,285.546c9.084-11.017,7.516-27.358-3.481-36.453c-4.609-3.806-10.442-5.651-16.275-5.651
			c-7.602,0-15.223,3.136-20.177,9.132c-2.831,3.433-4.581,7.468-5.374,11.724c-4.274-4.839-8.606-9.123-12.537-12.67l-49.18,59.555
			l-27.033,32.732c14.219,10.729,37.877,23.839,60.855,23.839c14.191,0,28.114-5.001,39.397-18.665
			c10.385-12.575,13.359-25.514,12.068-37.916c-0.602-5.833-2.065-11.561-4.303-17.05c1.979,0.479,3.997,0.812,6.062,0.812
			C173.215,294.956,180.492,291.523,185.436,285.546z M155.065,281.644c-3.366-2.772-5.432-6.693-5.852-11.034
			c-0.411-4.342,0.889-8.588,3.672-11.953c3.108-3.769,7.708-5.929,12.594-5.929c3.777,0,7.459,1.329,10.385,3.739
			c6.942,5.729,7.927,16.036,2.19,22.979c-3.117,3.777-7.917,5.757-12.718,5.757C161.654,285.221,157.982,284.054,155.065,281.644z"
			/>
		<path d="M348.553,285.546c9.085-11.017,7.517-27.358-3.48-36.453c-4.609-3.806-10.442-5.651-16.275-5.651
			c-7.602,0-15.224,3.136-20.177,9.132c-2.831,3.433-4.581,7.468-5.374,11.724c-4.274-4.839-8.606-9.123-12.537-12.67l-49.17,59.555
			l-27.033,32.732c14.22,10.729,37.877,23.839,60.856,23.839c14.191,0,28.114-5.001,39.397-18.665
			c10.386-12.575,13.359-25.514,12.068-37.916c-0.603-5.833-2.065-11.561-4.303-17.05c1.979,0.479,3.997,0.812,6.062,0.812
			C336.342,294.956,343.619,291.523,348.553,285.546z M318.192,281.644c-3.366-2.772-5.432-6.693-5.853-11.034
			c-0.411-4.342,0.89-8.588,3.672-11.953c3.108-3.769,7.708-5.929,12.594-5.929c3.777,0,7.459,1.329,10.385,3.739
			c6.942,5.729,7.928,16.036,2.19,22.979c-3.117,3.777-7.918,5.757-12.719,5.757C324.781,285.221,321.1,284.054,318.192,281.644z"/>
		<path d="M503.389,285.546c9.085-11.017,7.517-27.358-3.48-36.453c-4.609-3.806-10.442-5.651-16.275-5.651
			c-7.602,0-15.224,3.136-20.177,9.132c-2.83,3.433-4.58,7.468-5.374,11.724c-4.274-4.839-8.606-9.123-12.536-12.67l-49.181,59.555
			l-27.033,32.732c14.22,10.729,37.878,23.839,60.856,23.839c14.19,0,28.113-5.001,39.397-18.665
			c10.385-12.575,13.358-25.514,12.067-37.916c-0.603-5.833-2.065-11.561-4.303-17.05c1.979,0.479,3.997,0.812,6.062,0.812
			C491.168,294.956,498.445,291.523,503.389,285.546z M473.019,281.644c-3.366-2.772-5.432-6.693-5.853-11.034
			c-0.411-4.342,0.89-8.588,3.672-11.953c3.108-3.769,7.708-5.929,12.595-5.929c3.776,0,7.458,1.329,10.385,3.739
			c6.942,5.729,7.927,16.036,2.189,22.979c-3.117,3.777-7.918,5.757-12.718,5.757C479.607,285.221,475.936,284.054,473.019,281.644z
			"/>
	</g>
</g>
<g>
</g>
<g>
</g>
<g>
</g>
<g>
</g>
<g>
</g>
<g>
</g>
<g>
</g>
<g>
</g>
<g>
</g>
<g>
</g>
<g>
</g>
<g>
</g>
<g>
</g>
<g>
</g>
<g>
</g>
</svg>
