<svg xmlns="http://www.w3.org/2000/svg" width="554.625" height="554.625" style="enable-background:new 0 0 554.625 554.625" xml:space="preserve"><path d="M0 487.688v57.375h28.688v-19.125h210.375v19.125h28.688V363.375H0v124.313zm76.5-86.063h124.312v9.562H76.5v-9.562zM0 353.812h267.75V9.562H0v344.25zm219.938-205.593c0-2.639 2.142-4.781 4.781-4.781s4.781 2.142 4.781 4.781v105.188a4.782 4.782 0 0 1-9.562 0V148.219zM286.875 487.688v57.375h28.688v-19.125h210.375v19.125h28.688V372.938h-267.75v114.75zm76.5-86.063h124.312v9.562H363.375v-9.562zM315.562 219.938h153v105.188h-153z"/><path d="M286.875 353.812h267.75V191.25h-267.75v162.562zm228.305-71.718c-6.598 0-11.953-5.355-11.953-11.953s5.355-11.953 11.953-11.953 11.953 5.355 11.953 11.953-5.356 11.953-11.953 11.953zm-17.93-71.719h38.25v28.688h-38.25v-28.688zm-191.25 0h172.125v124.312H306V210.375zM286.875 172.125h267.75V9.562h-267.75v162.563zM515.18 28.688c6.598 0 11.953 5.355 11.953 11.953s-5.355 11.953-11.953 11.953-11.953-5.355-11.953-11.953 5.355-11.953 11.953-11.953zm0 38.25c6.598 0 11.953 5.355 11.953 11.953s-5.355 11.953-11.953 11.953-11.953-5.355-11.953-11.953 5.355-11.953 11.953-11.953zM306 28.688h172.125V153H306V28.688z"/><path d="M315.562 38.25h153v105.188h-153z"/></svg>