<svg xmlns="http://www.w3.org/2000/svg" width="538.368" height="538.368" style="enable-background:new 0 0 538.368 538.368" xml:space="preserve"><path d="M0 250.299c0 8.128 8.128 20.559 30.6 33.469 0-4.781-.478-9.562-.478-14.823l.478-1.912c1.913-5.26 26.775-53.072 248.625-53.072 70.763 0 196.031 13.388 231.413 48.291l1.434 1.434v1.913c0 .956 0 9.084-1.434 21.994 23.906-13.865 27.253-34.425 27.73-35.859-25.818-21.516-97.537-64.069-269.662-64.069C100.884 187.664 27.731 227.827 0 250.299z"/><path d="M263.447 86.78C7.172 86.78 0 145.589 0 146.545v90.366c33.469-24.384 109.49-59.766 268.706-59.766 162.084 0 237.15 36.815 268.706 61.2v-91.8S520.678 86.78 263.447 86.78z"/><path d="M40.162 269.902v18.647c0 2.391 0 5.259.479 8.127v3.348c4.303 65.025 34.425 151.564 238.106 151.564 74.587 0 131.962-20.08 170.69-59.287 27.253-28.209 40.162-60.721 46.378-86.062.956-2.869 1.435-5.736 1.912-8.605.479-1.435.479-2.391.957-3.825 2.391-12.431 2.868-21.516 2.868-25.341-30.6-27.731-136.266-43.987-222.328-43.987-201.29-.001-235.237 39.683-239.062 45.421z"/></svg>