<svg xmlns="http://www.w3.org/2000/svg" width="545.062" height="545.062" style="enable-background:new 0 0 545.062 545.062" xml:space="preserve"><path d="m316.069 143.438 1.607 19.124h34.013l1.607-19.124zM182.194 143.438l1.607 19.124h34.013l1.607-19.124zM183.801 411.188h34.013l1.607-19.126h-37.227zM317.676 411.188h34.013l1.607-19.126h-37.227zM100.406 516.375h66.938c8.08 0 14.344-8.998 14.344-16.734l-7.459-88.453-1.616-19.125-.469-5.575c-.019-8.022-6.053-13.55-14.363-13.55h-47.812c-8.31 0-14.344 5.527-14.344 13.148l-.507 5.977-1.606 19.125-7.468 88.854c.018 7.335 6.282 16.333 14.362 16.333zM109.969 363.375h47.812c10.566 0 19.125-8.559 19.125-19.125v-19.125c0-10.566-8.559-19.125-19.125-19.125h-47.812c-10.566 0-19.125 8.559-19.125 19.125v19.125c0 10.566 8.558 19.125 19.125 19.125zM234.281 516.375h66.938c8.08 0 14.344-8.998 14.344-16.734l-7.459-88.453-1.616-19.125-.468-5.575c-.02-8.022-6.054-13.55-14.363-13.55h-47.812c-8.31 0-14.344 5.527-14.344 13.148l-.507 5.977-1.606 19.125-7.468 88.854c.018 7.335 6.281 16.333 14.361 16.333zM243.844 363.375h47.812c10.566 0 19.125-8.559 19.125-19.125v-19.125c0-10.566-8.559-19.125-19.125-19.125h-47.812c-10.566 0-19.125 8.559-19.125 19.125v19.125c0 10.566 8.558 19.125 19.125 19.125zM368.156 516.375h66.938c8.08 0 14.344-8.998 14.344-16.734l-7.459-88.453-1.616-19.125-.468-5.575c-.02-8.022-6.054-13.55-14.363-13.55H377.72c-8.31 0-14.344 5.527-14.344 13.148l-.507 5.977-1.606 19.125-7.469 88.854c.018 7.335 6.282 16.333 14.362 16.333zM377.719 363.375h47.812c10.566 0 19.125-8.559 19.125-19.125v-19.125c0-10.566-8.559-19.125-19.125-19.125h-47.812c-10.566 0-19.125 8.559-19.125 19.125v19.125c0 10.566 8.558 19.125 19.125 19.125zM174.229 162.562l-1.616-19.125-.469-5.575c-.019-8.022-6.053-13.55-14.363-13.55h-47.812c-8.31 0-14.344 5.527-14.344 13.148l-.507 5.977-1.606 19.125-7.468 88.854c.019 7.334 6.283 16.333 14.363 16.333h66.938c8.08 0 14.344-8.999 14.344-16.734l-7.46-88.453zM109.969 114.75h47.812c10.566 0 19.125-8.559 19.125-19.125V76.5c0-10.566-8.559-19.125-19.125-19.125h-47.812c-10.566 0-19.125 8.559-19.125 19.125v19.125c0 10.566 8.558 19.125 19.125 19.125zM308.104 162.562l-1.616-19.125-.468-5.575c-.02-8.022-6.054-13.55-14.363-13.55h-47.812c-8.31 0-14.344 5.527-14.344 13.148l-.507 5.977-1.606 19.125-7.468 88.854c.019 7.334 6.283 16.333 14.363 16.333h66.938c8.08 0 14.344-8.999 14.344-16.734l-7.461-88.453zM243.844 114.75h47.812c10.566 0 19.125-8.559 19.125-19.125V76.5c0-10.566-8.559-19.125-19.125-19.125h-47.812c-10.566 0-19.125 8.559-19.125 19.125v19.125c0 10.566 8.558 19.125 19.125 19.125zM441.979 162.562l-1.616-19.125-.468-5.575c-.02-8.022-6.054-13.55-14.363-13.55H377.72c-8.31 0-14.344 5.527-14.344 13.148l-.507 5.977-1.606 19.125-7.469 88.854c.02 7.334 6.283 16.333 14.363 16.333h66.938c8.08 0 14.344-8.999 14.344-16.734l-7.46-88.453zM377.719 114.75h47.812c10.566 0 19.125-8.559 19.125-19.125V76.5c0-10.566-8.559-19.125-19.125-19.125h-47.812c-10.566 0-19.125 8.559-19.125 19.125v19.125c0 10.566 8.558 19.125 19.125 19.125z"/><path d="M52.594 411.188h31.345l1.607-19.126H52.594v-229.5h31.345l1.607-19.124H52.594V19.125h439.875v124.313h-42.525l1.607 19.124h40.918v229.5h-42.525l1.607 19.126h40.918v133.874h19.125V0H33.469v545.062h19.125z"/></svg>