<?xml version="1.0" encoding="iso-8859-1"?>
<!-- Generator: Adobe Illustrator 16.0.0, SVG Export Plug-In . SVG Version: 6.00 Build 0)  -->
<!DOCTYPE svg PUBLIC "-//W3C//DTD SVG 1.1//EN" "http://www.w3.org/Graphics/SVG/1.1/DTD/svg11.dtd">
<svg version="1.1" id="Capa_1" xmlns="http://www.w3.org/2000/svg" xmlns:xlink="http://www.w3.org/1999/xlink" x="0px" y="0px"
	 width="612px" height="612px" viewBox="0 0 612 612" style="enable-background:new 0 0 612 612;" xml:space="preserve">
<g>
	<path d="M439.875,133.875c0-10.566-8.559-19.125-19.125-19.125h-229.5c-10.566,0-19.125,8.559-19.125,19.125v162.562h267.75
		V133.875z"/>
	<path d="M497.25,315.562h-57.375h-267.75H114.75c-10.566,0-12.747,9.562-19.125,19.125L0,478.125c0,10.566,0,19.125,19.125,19.125
		h573.75C612,497.25,612,488.691,612,478.125l-95.625-143.438C508.409,323.136,507.816,315.562,497.25,315.562z M401.625,449.438
		H382.5v-47.812h19.125V449.438z M445.058,446.253c-11.666,0-21.113-9.457-21.113-21.113c0-11.657,9.457-21.114,21.113-21.114
		c11.667,0,21.114,9.457,21.114,21.114C466.172,436.796,456.715,446.253,445.058,446.253z M533.109,425.13
		c0,11.666-9.457,21.113-21.114,21.113c-11.666,0-21.113-9.457-21.113-21.113c0-11.657,9.457-21.114,21.113-21.114
		C523.652,404.016,533.109,413.473,533.109,425.13z"/>
</g>
<g>
</g>
<g>
</g>
<g>
</g>
<g>
</g>
<g>
</g>
<g>
</g>
<g>
</g>
<g>
</g>
<g>
</g>
<g>
</g>
<g>
</g>
<g>
</g>
<g>
</g>
<g>
</g>
<g>
</g>
</svg>
