<svg xmlns="http://www.w3.org/2000/svg" width="272.531" height="272.531" style="enable-background:new 0 0 272.531 272.531" xml:space="preserve"><path d="m240.275 123.385.095-.373-.2-.057-19.66-84.705h25.723c10.566 0 19.125-8.559 19.125-19.125S256.798 0 246.232 0H35.856C25.29 0 16.731 8.559 16.731 19.125S25.29 38.25 35.856 38.25h14.965L7.551 224.661c-1.797 7.717 3.003 15.425 10.729 17.213 1.09.258 2.18.383 3.251.383 6.531 0 12.431-4.476 13.961-11.103l14.898-64.193 71.528 19.154v72.072c0 7.928 6.426 14.344 14.344 14.344s14.344-6.416 14.344-14.344v-72.072l70.408-18.857 14.832 63.896c1.539 6.627 7.43 11.103 13.961 11.103 1.071 0 2.171-.125 3.251-.383 7.727-1.788 12.527-9.496 10.729-17.213l-23.512-101.276zm-31.499-8.836-58.169-15.587V38.25h40.459l17.71 76.299zM121.919 38.25v60.712l-59.451 15.922L80.265 38.25h41.654zM70.09 142.539l51.829-13.885v27.77L70.09 142.539zm80.517 13.885v-27.77l51.829 13.885-51.829 13.885z"/></svg>