<?xml version="1.0" encoding="iso-8859-1"?>
<!-- Generator: Adobe Illustrator 16.0.0, SVG Export Plug-In . SVG Version: 6.00 Build 0)  -->
<!DOCTYPE svg PUBLIC "-//W3C//DTD SVG 1.1//EN" "http://www.w3.org/Graphics/SVG/1.1/DTD/svg11.dtd">
<svg version="1.1" id="Capa_1" xmlns="http://www.w3.org/2000/svg" xmlns:xlink="http://www.w3.org/1999/xlink" x="0px" y="0px"
	 width="506.812px" height="506.812px" viewBox="0 0 506.812 506.812" style="enable-background:new 0 0 506.812 506.812;"
	 xml:space="preserve">
<g>
	<g>
		<path d="M487.688,66.144H19.125C8.559,66.144,0,74.702,0,85.269v66.938c0,10.566,8.559,19.125,19.125,19.125h28.688V98.818v-4.781
			c0-10.107,8.224-18.331,18.332-18.331h1.597c10.098,0,18.322,8.224,18.322,18.331v77.294h133.875V98.818v-4.781
			c0-10.107,8.224-18.331,18.331-18.331h1.597c10.098,0,18.322,8.224,18.322,18.331v77.294H382.5V98.818v-4.781
			c0-10.107,8.224-18.331,18.331-18.331h1.598c10.098,0,18.321,8.224,18.321,18.331v77.294h66.938
			c10.566,0,19.125-8.559,19.125-19.125V85.269C506.812,74.702,498.254,66.144,487.688,66.144z"/>
		<path d="M248.625,98.818v-4.781c0-4.838-3.93-8.769-8.769-8.769h-1.597c-0.373,0-0.698,0.172-1.062,0.21
			c-4.303,0.555-7.698,4.093-7.698,8.558v77.294v172.125h-9.562h-55.462c-0.172,2.209-0.315,4.418-0.315,6.675
			c0,42.964,32.464,77.791,72.512,77.791s72.513-34.827,72.513-77.791c0-2.257-0.144-4.466-0.315-6.675h-50.682h-9.562V171.331
			V98.818z"/>
		<path d="M76.5,98.818v-4.781c0-4.838-3.93-8.769-8.769-8.769h-1.597c-0.373,0-0.698,0.172-1.062,0.21
			c-4.303,0.555-7.698,4.093-7.698,8.558v77.294v119.244c-3.395,2.161-6.617,5.001-9.562,8.54
			c-11.532,13.865-19.125,37.466-19.125,64.26c0,42.687,19.269,77.294,43.031,77.294s43.031-34.607,43.031-77.294
			c0-33.642-11.982-62.186-28.688-72.81c-3.05-1.94-6.244-3.327-9.562-3.987V171.331V98.818z"/>
		<path d="M411.188,98.818v-4.781c0-4.838-3.93-8.769-8.769-8.769h-1.598c-0.372,0-0.697,0.172-1.061,0.21
			c-4.304,0.555-7.698,4.093-7.698,8.558v77.294v67.33c-3.318,0.507-6.512,1.587-9.562,3.089
			c-16.706,8.214-28.688,30.285-28.688,56.294c0,33.01,19.269,59.766,43.031,59.766s43.031-26.756,43.031-59.766
			c0-20.722-7.593-38.968-19.125-49.687c-2.945-2.735-6.168-4.934-9.562-6.607v-70.418V98.818z"/>
	</g>
</g>
<g>
</g>
<g>
</g>
<g>
</g>
<g>
</g>
<g>
</g>
<g>
</g>
<g>
</g>
<g>
</g>
<g>
</g>
<g>
</g>
<g>
</g>
<g>
</g>
<g>
</g>
<g>
</g>
<g>
</g>
</svg>
