<?xml version="1.0" encoding="iso-8859-1"?>
<!-- Generator: Adobe Illustrator 16.0.0, SVG Export Plug-In . SVG Version: 6.00 Build 0)  -->
<!DOCTYPE svg PUBLIC "-//W3C//DTD SVG 1.1//EN" "http://www.w3.org/Graphics/SVG/1.1/DTD/svg11.dtd">
<svg version="1.1" id="Capa_1" xmlns="http://www.w3.org/2000/svg" xmlns:xlink="http://www.w3.org/1999/xlink" x="0px" y="0px"
	 width="545.062px" height="545.062px" viewBox="0 0 545.062 545.062" style="enable-background:new 0 0 545.062 545.062;"
	 xml:space="preserve">
<g>
	<g>
		<polygon points="316.069,143.438 317.676,162.562 351.689,162.562 353.296,143.438 		"/>
		<polygon points="182.194,143.438 183.801,162.562 217.814,162.562 219.421,143.438 		"/>
		<polygon points="183.801,411.188 217.814,411.188 219.421,392.062 182.194,392.062 		"/>
		<polygon points="317.676,411.188 351.689,411.188 353.296,392.062 316.069,392.062 		"/>
		<path d="M100.406,516.375h66.938c8.08,0,14.344-8.998,14.344-16.734l-7.459-88.453l-1.616-19.125l-0.469-5.575
			c-0.019-8.022-6.053-13.55-14.363-13.55h-47.812c-8.31,0-14.344,5.527-14.344,13.148l-0.507,5.977l-1.606,19.125l-7.468,88.854
			C86.062,507.377,92.326,516.375,100.406,516.375z"/>
		<path d="M109.969,363.375h47.812c10.566,0,19.125-8.559,19.125-19.125v-19.125c0-10.566-8.559-19.125-19.125-19.125h-47.812
			c-10.566,0-19.125,8.559-19.125,19.125v19.125C90.844,354.816,99.402,363.375,109.969,363.375z"/>
		<path d="M234.281,516.375h66.938c8.08,0,14.344-8.998,14.344-16.734l-7.459-88.453l-1.616-19.125l-0.468-5.575
			c-0.02-8.022-6.054-13.55-14.363-13.55h-47.812c-8.31,0-14.344,5.527-14.344,13.148l-0.507,5.977l-1.606,19.125l-7.468,88.854
			C219.938,507.377,226.201,516.375,234.281,516.375z"/>
		<path d="M243.844,363.375h47.812c10.566,0,19.125-8.559,19.125-19.125v-19.125c0-10.566-8.559-19.125-19.125-19.125h-47.812
			c-10.566,0-19.125,8.559-19.125,19.125v19.125C224.719,354.816,233.277,363.375,243.844,363.375z"/>
		<path d="M368.156,516.375h66.938c8.08,0,14.344-8.998,14.344-16.734l-7.459-88.453l-1.616-19.125l-0.468-5.575
			c-0.02-8.022-6.054-13.55-14.363-13.55h-47.812c-8.31,0-14.344,5.527-14.344,13.148l-0.507,5.977l-1.606,19.125l-7.469,88.854
			C353.812,507.377,360.076,516.375,368.156,516.375z"/>
		<path d="M377.719,363.375h47.812c10.566,0,19.125-8.559,19.125-19.125v-19.125c0-10.566-8.559-19.125-19.125-19.125h-47.812
			c-10.566,0-19.125,8.559-19.125,19.125v19.125C358.594,354.816,367.152,363.375,377.719,363.375z"/>
		<path d="M174.229,162.562l-1.616-19.125l-0.469-5.575c-0.019-8.022-6.053-13.55-14.363-13.55h-47.812
			c-8.31,0-14.344,5.527-14.344,13.148l-0.507,5.977l-1.606,19.125l-7.468,88.854c0.019,7.334,6.283,16.333,14.363,16.333h66.938
			c8.08,0,14.344-8.999,14.344-16.734L174.229,162.562z"/>
		<path d="M109.969,114.75h47.812c10.566,0,19.125-8.559,19.125-19.125V76.5c0-10.566-8.559-19.125-19.125-19.125h-47.812
			c-10.566,0-19.125,8.559-19.125,19.125v19.125C90.844,106.191,99.402,114.75,109.969,114.75z"/>
		<path d="M308.104,162.562l-1.616-19.125l-0.468-5.575c-0.02-8.022-6.054-13.55-14.363-13.55h-47.812
			c-8.31,0-14.344,5.527-14.344,13.148l-0.507,5.977l-1.606,19.125l-7.468,88.854c0.019,7.334,6.283,16.333,14.363,16.333h66.938
			c8.08,0,14.344-8.999,14.344-16.734L308.104,162.562z"/>
		<path d="M243.844,114.75h47.812c10.566,0,19.125-8.559,19.125-19.125V76.5c0-10.566-8.559-19.125-19.125-19.125h-47.812
			c-10.566,0-19.125,8.559-19.125,19.125v19.125C224.719,106.191,233.277,114.75,243.844,114.75z"/>
		<path d="M441.979,162.562l-1.616-19.125l-0.468-5.575c-0.02-8.022-6.054-13.55-14.363-13.55h-47.812
			c-8.31,0-14.344,5.527-14.344,13.148l-0.507,5.977l-1.606,19.125l-7.469,88.854c0.02,7.334,6.283,16.333,14.363,16.333h66.938
			c8.08,0,14.344-8.999,14.344-16.734L441.979,162.562z"/>
		<path d="M377.719,114.75h47.812c10.566,0,19.125-8.559,19.125-19.125V76.5c0-10.566-8.559-19.125-19.125-19.125h-47.812
			c-10.566,0-19.125,8.559-19.125,19.125v19.125C358.594,106.191,367.152,114.75,377.719,114.75z"/>
		<polygon points="52.594,411.188 83.939,411.188 85.546,392.062 52.594,392.062 52.594,162.562 83.939,162.562 85.546,143.438 
			52.594,143.438 52.594,19.125 492.469,19.125 492.469,143.438 449.944,143.438 451.551,162.562 492.469,162.562 492.469,392.062 
			449.944,392.062 451.551,411.188 492.469,411.188 492.469,545.062 511.594,545.062 511.594,411.188 511.594,392.062 
			511.594,162.562 511.594,143.438 511.594,19.125 511.594,0 492.469,0 52.594,0 33.469,0 33.469,19.125 33.469,143.438 
			33.469,162.562 33.469,392.062 33.469,411.188 33.469,545.062 52.594,545.062 		"/>
	</g>
</g>
<g>
</g>
<g>
</g>
<g>
</g>
<g>
</g>
<g>
</g>
<g>
</g>
<g>
</g>
<g>
</g>
<g>
</g>
<g>
</g>
<g>
</g>
<g>
</g>
<g>
</g>
<g>
</g>
<g>
</g>
</svg>
