<?xml version="1.0" encoding="iso-8859-1"?>
<!-- Generator: Adobe Illustrator 16.0.0, SVG Export Plug-In . SVG Version: 6.00 Build 0)  -->
<!DOCTYPE svg PUBLIC "-//W3C//DTD SVG 1.1//EN" "http://www.w3.org/Graphics/SVG/1.1/DTD/svg11.dtd">
<svg version="1.1" id="Capa_1" xmlns="http://www.w3.org/2000/svg" xmlns:xlink="http://www.w3.org/1999/xlink" x="0px" y="0px"
	 width="496.599px" height="496.6px" viewBox="0 0 496.599 496.6" style="enable-background:new 0 0 496.599 496.6;"
	 xml:space="preserve">
<g>
	<g>
		<polygon points="283.442,496.6 283.452,496.6 283.432,496.6 		"/>
		<path d="M302.758,472.693V286.225c0,0-36.127,0-76.5,0v7.344l26.794,16.983l1.894,162.084c0,8.635,6.608,14.401,16.447,14.401
			h12.049C294.094,487.037,302.758,480.602,302.758,472.693z M277.456,463.925c-3.413,0-6.177-2.764-6.177-6.178
			s2.764-6.177,6.177-6.177c3.414,0,6.178,2.772,6.178,6.187S280.87,463.925,277.456,463.925z"/>
		<path d="M219.995,276.662h12.173h69.405h0.583h0.603v-12.861V0C281.3,4.265,194.979,36.452,193.841,276.662h24.289H219.995z"/>
	</g>
</g>
<g>
</g>
<g>
</g>
<g>
</g>
<g>
</g>
<g>
</g>
<g>
</g>
<g>
</g>
<g>
</g>
<g>
</g>
<g>
</g>
<g>
</g>
<g>
</g>
<g>
</g>
<g>
</g>
<g>
</g>
</svg>
