<?xml version="1.0" encoding="iso-8859-1"?>
<!-- Generator: Adobe Illustrator 16.0.0, SVG Export Plug-In . SVG Version: 6.00 Build 0)  -->
<!DOCTYPE svg PUBLIC "-//W3C//DTD SVG 1.1//EN" "http://www.w3.org/Graphics/SVG/1.1/DTD/svg11.dtd">
<svg version="1.1" id="Capa_1" xmlns="http://www.w3.org/2000/svg" xmlns:xlink="http://www.w3.org/1999/xlink" x="0px" y="0px"
	 width="612px" height="612px" viewBox="0 0 612 612" style="enable-background:new 0 0 612 612;" xml:space="preserve">
<g>
	<g>
		<path d="M28.688,545.062h133.875V363.375H28.688V545.062z M126.11,443.461c6.273,0,11.36,5.087,11.36,11.36
			c0,6.272-5.087,11.36-11.36,11.36s-11.36-5.097-11.36-11.37C114.75,448.548,119.837,443.461,126.11,443.461z"/>
		<path d="M191.25,602.438V573.75v-28.688V334.688H153h-19.125h-9.562H0v210.375v28.688v28.688h28.688V573.75h133.875v28.688H191.25
			z M28.688,554.625h-9.562v-9.562v-191.25h153v191.25v9.562h-9.562H28.688z"/>
		<path d="M229.5,545.062h133.875V363.375H229.5V545.062z M336.485,443.461c6.272,0,11.36,5.087,11.36,11.36
			c0,6.272-5.088,11.36-11.36,11.36c-6.273,0-11.36-5.097-11.36-11.37C325.125,448.548,330.212,443.461,336.485,443.461z"/>
		<path d="M392.062,602.438V573.75v-28.688V334.688h-114.75h-28.688H229.5h-28.688v210.375v28.688v28.688H229.5V573.75h133.875
			v28.688H392.062z M229.5,554.625h-9.562v-9.562v-191.25h153v191.25v9.562h-9.562H229.5z"/>
		<rect x="430.312" y="439.875" width="153" height="105.188"/>
		<path d="M573.75,325.125h-47.812c-5.278,0-9.562,4.284-9.562,9.562H497.25c0-5.278-4.284-9.562-9.562-9.562h-47.812
			c-5.278,0-9.562,4.284-9.562,9.562h-28.688v210.375v28.688v28.688h28.688V573.75h153v28.688H612V573.75v-28.688V334.688h-28.688
			C583.312,329.409,579.028,325.125,573.75,325.125z M548.648,368.749c0,6.273-5.087,11.36-11.36,11.36
			c-6.272,0-11.351-5.087-11.351-11.36c0-6.272,5.087-11.36,11.36-11.36C543.57,357.389,548.648,362.485,548.648,368.749z
			 M573.75,401.625c2.64,0,4.781,2.142,4.781,4.781s-2.142,4.781-4.781,4.781H439.875c-2.64,0-4.781-2.142-4.781-4.781
			s2.142-4.781,4.781-4.781H573.75z M500.836,368.749c0,6.273-5.087,11.36-11.36,11.36c-6.272,0-11.351-5.087-11.351-11.36
			c0-6.272,5.087-11.36,11.36-11.36C495.758,357.389,500.836,362.485,500.836,368.749z M441.673,357.398
			c6.272,0,11.36,5.087,11.36,11.36c0,6.272-5.088,11.36-11.36,11.36c-6.273,0-11.36-5.097-11.36-11.37
			C430.312,362.485,435.399,357.398,441.673,357.398z M592.875,554.625h-9.562h-153h-9.562v-9.562v-114.75h172.125v114.75V554.625z
			 M585.11,357.398c6.272,0,11.36,5.087,11.36,11.36c0,6.272-5.088,11.36-11.36,11.36c-6.273,0-11.36-5.097-11.36-11.37
			C573.75,362.485,578.837,357.398,585.11,357.398z"/>
		<path d="M545.062,133.875V9.562H459v124.312h-28.688l-38.25,66.938H612l-38.25-66.938H545.062z M546.86,179.297
			c-6.273,0-11.36-5.087-11.36-11.36s5.087-11.36,11.36-11.36c6.272,0,11.36,5.087,11.36,11.36
			C558.211,174.209,553.124,179.297,546.86,179.297z"/>
		<path d="M248.625,296.438h38.25c5.278,0,9.562-4.284,9.562-9.562s-4.284-9.562-9.562-9.562h-47.812
			c-5.278,0-9.562,4.284-9.562,9.562v38.25h19.125V296.438z"/>
		<path d="M153,325.125v-38.25c0-5.278-4.284-9.562-9.562-9.562H95.625c-5.278,0-9.562,4.284-9.562,9.562s4.284,9.562,9.562,9.562
			h38.25v28.688H153z"/>
		<path d="M200.812,325.125V267.75c5.278,0,9.562-4.284,9.562-9.562s-4.284-9.562-9.562-9.562V229.5
			c0-5.278-4.284-9.562-9.562-9.562s-9.562,4.284-9.562,9.562v19.125c-5.278,0-9.562,4.284-9.562,9.562s4.284,9.562,9.562,9.562
			v57.375H200.812z"/>
		<path d="M353.812,124.312H150.772c13.053-11.073,21.353-27.569,21.353-46.015c0-33.335-27.023-60.358-60.358-60.358
			S51.398,44.953,51.398,78.298c0,18.456,8.3,34.951,21.353,46.015H19.125v19.125h334.688V124.312z M71.719,78.298
			c0-22.089,17.958-40.048,40.048-40.048s40.048,17.958,40.048,40.048s-17.958,40.048-40.048,40.048S71.719,100.377,71.719,78.298z"
			/>
		<circle cx="111.767" cy="78.298" r="30.485"/>
		<path d="M205.594,114.75h133.875c2.64,0,4.781-2.142,4.781-4.781s-2.142-4.781-4.781-4.781H205.594
			c-2.639,0-4.781,2.142-4.781,4.781S202.955,114.75,205.594,114.75z"/>
		<path d="M215.156,95.625h114.75c2.64,0,4.781-2.142,4.781-4.781s-2.142-4.781-4.781-4.781h-114.75
			c-2.639,0-4.781,2.142-4.781,4.781S212.517,95.625,215.156,95.625z"/>
		<path d="M215.156,76.5h114.75c2.64,0,4.781-2.142,4.781-4.781s-2.142-4.781-4.781-4.781h-114.75c-2.639,0-4.781,2.142-4.781,4.781
			S212.517,76.5,215.156,76.5z"/>
		<path d="M240.478,57.375h59.326c9.056,0,14.783-12.833,14.783-22.089c0-6.426-2.754-16.161-7.458-16.161h-73.995
			c-4.705,0-7.459,9.744-7.459,16.161C225.694,44.542,231.422,57.375,240.478,57.375z"/>
	</g>
</g>
<g>
</g>
<g>
</g>
<g>
</g>
<g>
</g>
<g>
</g>
<g>
</g>
<g>
</g>
<g>
</g>
<g>
</g>
<g>
</g>
<g>
</g>
<g>
</g>
<g>
</g>
<g>
</g>
<g>
</g>
</svg>
