<svg xmlns="http://www.w3.org/2000/svg" width="468.563" height="468.562" style="enable-background:new 0 0 468.563 468.562" xml:space="preserve"><path d="M359.125 66.938h-14.344V27.894C344.781 5.824 326.019 0 316.093 0H193.378c-46.158 0-49.372 37.533-49.41 38.25v44.619l-33.851 12.756h201.195l47.813-28.687zM188.816 9.706a3.145 3.145 0 0 1-.058.057l-.65.029c.249-.019.46-.067.708-.086zm-6.598 58.752V38.594c0-1.186 2.496-29.032 39.847-29.032h65.341c.784 0 19.125.21 19.125 18.322v39.043H186.244l-4.026 1.531zM341.682 462.739l63.964-60.799-24.471-332.478-57.25 37.064 17.757 356.213zm5.537-257.212c2.61-1.932 5.183 4.552 5.775 14.544.593 10.069-1.052 19.947-3.69 21.984-2.649 2.046-5.26-4.59-5.824-14.774-.563-10.097 1.119-19.813 3.739-21.754zm2.869 50.356c2.648-2.085 5.278 4.6 5.89 14.984.612 10.462-1.052 20.779-3.729 22.979-2.697 2.209-5.365-4.638-5.948-15.214-.583-10.499 1.119-20.654 3.787-22.749zm2.974 52.336c2.696-2.238 5.384 4.638 6.015 15.434.641 10.882-1.042 21.669-3.768 24.03-2.744 2.372-5.47-4.676-6.072-15.683-.603-10.92 1.119-21.534 3.825-23.781zm10.652-77.313c-2.591 1.999-5.192-4.542-5.795-14.564-.603-9.945.995-19.488 3.548-21.391 2.544-1.894 5.116 4.504 5.747 14.344.641 9.916-.918 19.612-3.5 21.611zm6.713 28.371c.66 10.289-.908 20.426-3.528 22.567-2.63 2.152-5.288-4.59-5.919-14.993-.632-10.328.984-20.302 3.586-22.338 2.591-2.036 5.201 4.542 5.861 14.764zM358.484 403.7c-2.792 2.553-5.575-4.724-6.206-16.18-.622-11.36 1.119-22.472 3.873-24.892 2.744-2.409 5.488 4.686 6.148 15.912.669 11.333-1.033 22.626-3.815 25.16zm9.305-107.721c2.629-2.189 5.307 4.59 5.985 15.204.688 10.7-.898 21.286-3.557 23.591-2.678 2.314-5.384-4.628-6.044-15.453-.659-10.72.966-21.143 3.616-23.342zm5.861 93.855c-2.716 2.486-5.489-4.676-6.178-15.931-.679-11.159.966-22.07 3.653-24.433 2.678-2.352 5.402 4.639 6.11 15.674.727 11.13-.879 22.213-3.585 24.69zm14.793-13.521c-2.648 2.429-5.412-4.629-6.139-15.692-.727-10.969.822-21.679 3.442-23.982 2.61-2.295 5.326 4.59 6.082 15.443.755 10.939-.745 21.812-3.385 24.231zm-3.691-54.114c-2.611 2.257-5.308-4.59-6.016-15.224-.697-10.558.832-20.789 3.414-22.931 2.562-2.133 5.23 4.552 5.958 14.984.737 10.52-.755 20.924-3.356 23.171zm-3.547-52.068c-2.563 2.104-5.212-4.542-5.891-14.783-.67-10.156.851-19.957 3.385-21.956 2.524-1.979 5.135 4.504 5.833 14.554.718 10.146-.775 20.101-3.327 22.185zm-3.414-50.117c-2.524 1.951-5.116-4.504-5.767-14.363-.649-9.783.861-19.173 3.356-21.028 2.486-1.846 5.04 4.466 5.719 14.153.679 9.763-.794 19.297-3.308 21.238zm-3.29-48.29c-2.486 1.816-5.021-4.457-5.652-13.961-.621-9.429.871-18.427 3.328-20.148 2.448-1.711 4.953 4.418 5.604 13.761.66 9.408-.803 18.54-3.28 20.348zm-5.413-79.455c2.41-1.597 4.867 4.38 5.499 13.388.631 9.075-.813 17.834-3.252 19.517-2.447 1.683-4.934-4.417-5.546-13.579-.602-9.095.88-17.73 3.299-19.326zm-8.443 89.581c-2.544 1.855-5.097-4.504-5.681-14.152-.583-9.582.995-18.724 3.51-20.483 2.506-1.75 5.021 4.465 5.633 13.942.621 9.553-.928 18.838-3.462 20.693zm-5.039-80.679c2.467-1.625 4.934 4.417 5.518 13.569.593 9.209-.938 18.111-3.434 19.833-2.505 1.73-5.001-4.456-5.565-13.761-.564-9.237 1.003-18.005 3.481-19.641zm-9.143 91.035c-2.61 1.903-5.163-4.552-5.708-14.353-.536-9.725 1.128-19.029 3.71-20.837 2.562-1.797 5.087 4.504 5.661 14.143.564 9.706-1.071 19.154-3.663 21.047zm.89-68.181c.545 9.353-1.062 18.408-3.614 20.167-2.563 1.769-5.078-4.504-5.595-13.952-.516-9.381 1.129-18.293 3.663-19.966 2.525-1.663 5.001 4.476 5.546 13.751zM303.203 114.75H93L62.917 468.562h258.188L303.203 114.75zm-84.284 29.213c5.747 0 10.433 7.956 10.461 17.882.029 10.05-4.714 18.293-10.595 18.293s-10.566-8.243-10.461-18.293c.105-9.926 4.848-17.882 10.595-17.882zm-.182 50.051c5.929 0 10.768 8.472 10.796 19.039.028 10.71-4.868 19.498-10.939 19.498-6.072 0-10.911-8.788-10.796-19.498.105-10.576 5.001-19.039 10.939-19.039zm-.2 53.31c6.129 0 11.121 9.037 11.15 20.32.029 11.438-5.03 20.817-11.303 20.817s-11.265-9.38-11.15-20.817c.115-11.283 5.173-20.32 11.303-20.32zm-.211 56.926c6.331 0 11.494 9.658 11.532 21.727.039 12.229-5.202 22.271-11.695 22.271s-11.657-10.041-11.532-22.271c.125-12.069 5.355-21.727 11.695-21.727zm-93.224 108.085c-6.732 0-11.533-10.777-10.739-23.896.784-12.929 6.723-23.285 13.282-23.285 6.56 0 11.379 10.347 10.768 23.285-.613 13.128-6.58 23.896-13.311 23.896zm3.461-64.088c-6.493 0-11.15-10.041-10.414-22.271.727-12.068 6.455-21.727 12.785-21.727s11.016 9.658 10.442 21.727c-.573 12.23-6.32 22.271-12.813 22.271zm3.223-59.785c-6.273 0-10.796-9.38-10.107-20.817.679-11.283 6.196-20.32 12.326-20.32 6.13 0 10.663 9.037 10.136 20.32-.546 11.437-6.073 20.817-12.355 20.817zm3.022-55.921c-6.072 0-10.461-8.788-9.821-19.498.641-10.576 5.967-19.039 11.896-19.039s10.337 8.473 9.84 19.039c-.508 10.72-5.844 19.498-11.915 19.498zm2.83-52.393c-5.881 0-10.155-8.243-9.543-18.293.602-9.926 5.747-17.882 11.494-17.882s10.031 7.956 9.562 17.882c-.478 10.05-5.632 18.293-11.513 18.293zm33.87 232.187c-6.732 0-11.8-10.777-11.332-23.896.459-12.929 6.139-23.285 12.699-23.285s11.638 10.347 11.351 23.285c-.287 13.128-5.986 23.896-12.718 23.896zm1.855-64.088c-6.493 0-11.408-10.041-10.968-22.271.431-12.068 5.91-21.727 12.24-21.727s11.255 9.658 10.987 21.727c-.277 12.23-5.766 22.271-12.259 22.271zm1.721-59.785c-6.273 0-11.035-9.38-10.624-20.817.402-11.283 5.69-20.32 11.81-20.32 6.129 0 10.892 9.037 10.643 20.32-.258 11.437-5.546 20.817-11.829 20.817zm1.617-55.921c-6.072 0-10.681-8.788-10.309-19.498.373-10.576 5.489-19.039 11.418-19.039s10.557 8.473 10.318 19.039c-.239 10.72-5.355 19.498-11.427 19.498zm1.51-52.393c-5.881 0-10.356-8.243-10.002-18.293.354-9.926 5.298-17.882 11.045-17.882s10.232 7.956 10.012 17.882c-.22 10.05-5.174 18.293-11.055 18.293zm39.714 232.187c-6.732 0-12.068-10.777-11.934-23.896.134-12.929 5.556-23.285 12.116-23.285s11.905 10.347 11.934 23.285c.028 13.128-5.394 23.896-12.116 23.896zm40.659-268.372c5.747 0 10.633 7.956 10.911 17.882.277 10.05-4.256 18.293-10.137 18.293s-10.776-8.243-10.921-18.293c-.142-9.926 4.4-17.882 10.147-17.882zm1.071 50.051c5.93 0 10.979 8.472 11.274 19.039.297 10.71-4.38 19.498-10.452 19.498-6.071 0-11.13-8.788-11.283-19.498-.152-10.576 4.533-19.039 10.461-19.039zm1.148 53.31c6.129 0 11.351 9.037 11.666 20.32.315 11.438-4.504 20.817-10.787 20.817-6.272 0-11.503-9.38-11.676-20.817-.172-11.283 4.667-20.32 10.797-20.32zm1.214 56.926c6.331 0 11.743 9.658 12.078 21.727.344 12.229-4.639 22.271-11.141 22.271-6.493 0-11.905-10.041-12.087-22.271-.181-12.069 4.81-21.727 11.15-21.727zm2.315 108.085c-6.731 0-12.345-10.777-12.536-23.896-.191-12.929 4.973-23.285 11.522-23.285 6.56 0 12.163 10.347 12.526 23.285.364 13.128-4.79 23.896-11.512 23.896z"/></svg>