<?xml version="1.0" encoding="iso-8859-1"?>
<!-- Generator: Adobe Illustrator 16.0.0, SVG Export Plug-In . SVG Version: 6.00 Build 0)  -->
<!DOCTYPE svg PUBLIC "-//W3C//DTD SVG 1.1//EN" "http://www.w3.org/Graphics/SVG/1.1/DTD/svg11.dtd">
<svg version="1.1" id="Capa_1" xmlns="http://www.w3.org/2000/svg" xmlns:xlink="http://www.w3.org/1999/xlink" x="0px" y="0px"
	 width="602.438px" height="602.438px" viewBox="0 0 602.438 602.438" style="enable-background:new 0 0 602.438 602.438;"
	 xml:space="preserve">
<g>
	<g>
		<path d="M248.022,219.938h43.634v210.375c-10.566,0-19.125,8.559-19.125,19.125v133.875c0,10.566,8.559,19.125,19.125,19.125
			h19.125c10.566,0,19.125-8.559,19.125-19.125V449.438c0-10.566-8.559-19.125-19.125-19.125V219.938h44.227
			c10.566,0,32.273-46.809,32.273-57.375V19.125C387.281,8.559,378.723,0,368.156,0H234.281c-10.566,0-19.125,8.559-19.125,19.125
			v143.438C215.156,173.129,237.465,219.938,248.022,219.938z M329.906,28.688c0-5.278,4.274-9.562,9.562-9.562
			s9.562,4.284,9.562,9.562v133.875c0,5.278-4.274,9.562-9.562,9.562s-9.562-4.284-9.562-9.562V28.688z M291.656,28.688
			c0-5.278,4.274-9.562,9.562-9.562s9.562,4.284,9.562,9.562v133.875c0,5.278-4.274,9.562-9.562,9.562s-9.562-4.284-9.562-9.562
			V28.688z M253.406,28.688c0-5.278,4.274-9.562,9.562-9.562s9.562,4.284,9.562,9.562v133.875c0,5.278-4.274,9.562-9.562,9.562
			s-9.562-4.284-9.562-9.562V28.688z"/>
	</g>
</g>
<g>
</g>
<g>
</g>
<g>
</g>
<g>
</g>
<g>
</g>
<g>
</g>
<g>
</g>
<g>
</g>
<g>
</g>
<g>
</g>
<g>
</g>
<g>
</g>
<g>
</g>
<g>
</g>
<g>
</g>
</svg>
