<svg xmlns="http://www.w3.org/2000/svg" width="602.438" height="602.438" style="enable-background:new 0 0 602.438 602.438" xml:space="preserve"><path d="M248.022 219.938h43.634v210.375c-10.566 0-19.125 8.559-19.125 19.125v133.875c0 10.566 8.559 19.125 19.125 19.125h19.125c10.566 0 19.125-8.559 19.125-19.125V449.438c0-10.566-8.559-19.125-19.125-19.125V219.938h44.227c10.566 0 32.273-46.809 32.273-57.375V19.125C387.281 8.559 378.723 0 368.156 0H234.281c-10.566 0-19.125 8.559-19.125 19.125v143.438c0 10.566 22.309 57.375 32.866 57.375zm81.884-191.25c0-5.278 4.274-9.562 9.562-9.562s9.562 4.284 9.562 9.562v133.875c0 5.278-4.274 9.562-9.562 9.562s-9.562-4.284-9.562-9.562V28.688zm-38.25 0c0-5.278 4.274-9.562 9.562-9.562s9.562 4.284 9.562 9.562v133.875c0 5.278-4.274 9.562-9.562 9.562s-9.562-4.284-9.562-9.562V28.688zm-38.25 0c0-5.278 4.274-9.562 9.562-9.562s9.562 4.284 9.562 9.562v133.875c0 5.278-4.274 9.562-9.562 9.562s-9.562-4.284-9.562-9.562V28.688z"/></svg>