<svg xmlns="http://www.w3.org/2000/svg" width="612" height="612" style="enable-background:new 0 0 612 612" xml:space="preserve"><path d="M439.875 133.875c0-10.566-8.559-19.125-19.125-19.125h-229.5c-10.566 0-19.125 8.559-19.125 19.125v162.562h267.75V133.875zM497.25 315.562h-382.5c-10.566 0-12.747 9.562-19.125 19.125L0 478.125c0 10.566 0 19.125 19.125 19.125h573.75C612 497.25 612 488.691 612 478.125l-95.625-143.438c-7.966-11.551-8.559-19.125-19.125-19.125zm-95.625 133.876H382.5v-47.812h19.125v47.812zm43.433-3.185c-11.666 0-21.113-9.457-21.113-21.113 0-11.657 9.457-21.114 21.113-21.114 11.667 0 21.114 9.457 21.114 21.114 0 11.656-9.457 21.113-21.114 21.113zm88.051-21.123c0 11.666-9.457 21.113-21.114 21.113-11.666 0-21.113-9.457-21.113-21.113 0-11.657 9.457-21.114 21.113-21.114 11.657 0 21.114 9.457 21.114 21.114z"/></svg>