<svg xmlns="http://www.w3.org/2000/svg" width="506.812" height="506.812" style="enable-background:new 0 0 506.812 506.812" xml:space="preserve"><path d="M487.688 66.144H19.125C8.559 66.144 0 74.702 0 85.269v66.938c0 10.566 8.559 19.125 19.125 19.125h28.688V94.037c0-10.107 8.224-18.331 18.332-18.331h1.597c10.098 0 18.322 8.224 18.322 18.331v77.294h133.875V94.037c0-10.107 8.224-18.331 18.331-18.331h1.597c10.098 0 18.322 8.224 18.322 18.331v77.294H382.5V94.037c0-10.107 8.224-18.331 18.331-18.331h1.598c10.098 0 18.321 8.224 18.321 18.331v77.294h66.938c10.566 0 19.125-8.559 19.125-19.125V85.269c-.001-10.567-8.559-19.125-19.125-19.125z"/><path d="M248.625 98.818v-4.781c0-4.838-3.93-8.769-8.769-8.769h-1.597c-.373 0-.698.172-1.062.21-4.303.555-7.698 4.093-7.698 8.558V343.455h-65.024c-.172 2.209-.315 4.418-.315 6.675 0 42.964 32.464 77.791 72.512 77.791s72.513-34.827 72.513-77.791c0-2.257-.144-4.466-.315-6.675h-60.244V98.818zM76.5 98.818v-4.781c0-4.838-3.93-8.769-8.769-8.769h-1.597c-.373 0-.698.172-1.062.21-4.303.555-7.698 4.093-7.698 8.558v196.538c-3.395 2.161-6.617 5.001-9.562 8.54-11.532 13.865-19.125 37.466-19.125 64.26 0 42.687 19.269 77.294 43.031 77.294s43.031-34.607 43.031-77.294c0-33.642-11.982-62.186-28.688-72.81-3.05-1.94-6.244-3.327-9.562-3.987V98.818zM411.188 98.818v-4.781c0-4.838-3.93-8.769-8.769-8.769h-1.598c-.372 0-.697.172-1.061.21-4.304.555-7.698 4.093-7.698 8.558V238.66c-3.318.507-6.512 1.587-9.562 3.089-16.706 8.214-28.688 30.285-28.688 56.294 0 33.01 19.269 59.766 43.031 59.766s43.031-26.756 43.031-59.766c0-20.722-7.593-38.968-19.125-49.687a40.087 40.087 0 0 0-9.562-6.607V98.818z"/></svg>