<?xml version="1.0" encoding="iso-8859-1"?>
<!-- Generator: Adobe Illustrator 16.0.0, SVG Export Plug-In . SVG Version: 6.00 Build 0)  -->
<!DOCTYPE svg PUBLIC "-//W3C//DTD SVG 1.1//EN" "http://www.w3.org/Graphics/SVG/1.1/DTD/svg11.dtd">
<svg version="1.1" id="Capa_1" xmlns="http://www.w3.org/2000/svg" xmlns:xlink="http://www.w3.org/1999/xlink" x="0px" y="0px"
	 width="519.722px" height="519.722px" viewBox="0 0 519.722 519.722" style="enable-background:new 0 0 519.722 519.722;"
	 xml:space="preserve">
<g>
	<path d="M128.138,519.722h264.403V35.381H128.138V519.722z M374.85,352.378h-8.605h-35.382v-35.381v-34.903v-26.297v-8.606h43.987
		V352.378L374.85,352.378z M262.013,64.547c38.25,0,68.85,48.769,68.85,108.534s-31.078,108.534-68.85,108.534
		c-37.772,0-68.85-48.29-68.85-108.534C193.163,113.315,223.763,64.547,262.013,64.547z"/>
	<polygon points="96.103,0 125.269,26.297 395.409,26.297 424.575,0 	"/>
	<polygon points="401.625,519.722 427.922,519.722 427.922,9.084 401.625,33.469 	"/>
	<polygon points="118.097,33.469 91.8,9.084 91.8,519.722 118.097,519.722 	"/>
	<path d="M262.013,273.01c32.99,0,60.243-44.944,60.243-99.929s-26.774-99.928-60.243-99.928s-60.244,44.943-60.244,99.928
		C201.769,228.544,229.022,273.01,262.013,273.01z"/>
	<path d="M366.244,255.319h-26.297v13.866c1.434-0.479,2.868-0.956,4.303-0.956c7.172,0,13.388,5.737,13.388,13.387v35.382
		c0,7.172-5.737,13.388-13.388,13.388c-1.435,0-2.869-0.479-4.303-0.957v13.866h26.297V255.319z"/>
	<path d="M344.25,321.778c2.391,0,4.303-1.913,4.303-4.304v-35.381c0-2.391-1.912-4.303-4.303-4.303
		c-1.912,0-3.347,0.956-3.825,2.868c0,0.479-0.478,0.956-0.478,1.913v35.381c0,0.479,0,0.956,0.478,1.912
		C340.903,320.344,342.338,321.778,344.25,321.778z"/>
</g>
<g>
</g>
<g>
</g>
<g>
</g>
<g>
</g>
<g>
</g>
<g>
</g>
<g>
</g>
<g>
</g>
<g>
</g>
<g>
</g>
<g>
</g>
<g>
</g>
<g>
</g>
<g>
</g>
<g>
</g>
</svg>
