<svg xmlns="http://www.w3.org/2000/svg" width="496.599" height="496.6" style="enable-background:new 0 0 496.599 496.6" xml:space="preserve"><path d="M283.442 496.6h.01-.02zM302.758 472.693V286.225h-76.5v7.344l26.794 16.983 1.894 162.084c0 8.635 6.608 14.401 16.447 14.401h12.049c10.652 0 19.316-6.435 19.316-14.344zm-25.302-8.768c-3.413 0-6.177-2.764-6.177-6.178s2.764-6.177 6.177-6.177c3.414 0 6.178 2.772 6.178 6.187s-2.764 6.168-6.178 6.168zM219.995 276.662h82.764V0C281.3 4.265 194.979 36.452 193.841 276.662h26.154z"/></svg>