<?xml version="1.0" encoding="iso-8859-1"?>
<!-- Generator: Adobe Illustrator 16.0.0, SVG Export Plug-In . SVG Version: 6.00 Build 0)  -->
<!DOCTYPE svg PUBLIC "-//W3C//DTD SVG 1.1//EN" "http://www.w3.org/Graphics/SVG/1.1/DTD/svg11.dtd">
<svg version="1.1" id="Capa_1" xmlns="http://www.w3.org/2000/svg" xmlns:xlink="http://www.w3.org/1999/xlink" x="0px" y="0px"
	 width="567.372px" height="567.372px" viewBox="0 0 567.372 567.372" style="enable-background:new 0 0 567.372 567.372;"
	 xml:space="preserve">
<g>
	<g>
		<rect x="172.125" y="192.842" width="219.938" height="267.75"/>
		<path d="M555.361,431.905h-43.51c-8.376-5.604-14.602-12.173-14.602-19.422c0-15.089,0-70.351,0-104.891h9.562v-38.25h-38.25
			v38.25h9.562c0,34.339,0,89.142,0,104.595c0,7.421-5.861,14.076-13.761,19.718h-41.156c-6.646,0-12.021,5.728-12.021,9.562
			c0,3.701,5.039,9.046,11.351,9.429c-0.229,0.066-0.459,0.134-0.459,0.134h1.129h132.153h1.128c0,0-0.248-0.067-0.478-0.134
			c6.312-0.373,11.36-5.728,11.36-9.429C567.372,437.632,561.998,431.905,555.361,431.905z"/>
		<path d="M478.125,240.655H420.75c-5.278,0-9.562,4.284-9.562,9.562s4.284,9.562,9.562,9.562l56.523-0.038
			c0.259,0.019,1.722,0.144,4.064,0.144c9.161,0,31.872-1.808,49.812-18.227c15.577-14.248,23.476-35.496,23.476-63.16
			c0-5.278-4.284-9.562-9.562-9.562s-9.562,4.284-9.562,9.562c0,21.984-5.767,38.451-17.127,48.922
			C502.165,242.385,479.167,240.703,478.125,240.655z"/>
		<path d="M144.174,431.905h-43.509c-8.377-5.604-14.602-12.173-14.602-19.422c0-15.089,0-70.351,0-104.891h9.562v-38.25h-38.25
			v38.25h9.562c0,34.339,0,89.142,0,104.595c0,7.421-5.862,14.076-13.76,19.718H12.011C5.374,431.905,0,437.632,0,441.467
			c0,3.701,5.04,9.046,11.351,9.429c-0.229,0.066-0.459,0.134-0.459,0.134h1.128h132.154h1.128c0,0-0.249-0.067-0.478-0.134
			c6.311-0.373,11.36-5.728,11.36-9.429C156.184,437.632,150.81,431.905,144.174,431.905z"/>
		<path d="M72.991,259.904c2.151,0,3.423-0.114,3.509-0.124h57.375c5.278,0,9.562-4.284,9.562-9.562s-4.284-9.562-9.562-9.562
			l-58.188,0.028c-0.22,0.039-23.227,1.693-39.445-13.263c-11.351-10.471-17.117-26.938-17.117-48.922
			c0-5.278-4.284-9.562-9.562-9.562S0,173.22,0,178.499c0,27.664,7.898,48.912,23.476,63.16
			C41.511,258.164,64.365,259.904,72.991,259.904z"/>
		<path d="M148.219,183.28h267.75c7.918,0,14.344-6.426,14.344-14.344s-6.426-14.344-14.344-14.344h-267.75
			c-7.918,0-14.344,6.426-14.344,14.344S140.301,183.28,148.219,183.28z"/>
		<path d="M219.938,108.376c0,20.684,28.181,37.457,62.95,37.457c34.769,0,62.949-16.772,62.949-37.457
			c0-0.535-0.095-1.061-0.134-1.597H220.071C220.033,107.315,219.938,107.832,219.938,108.376z"/>
	</g>
</g>
<g>
</g>
<g>
</g>
<g>
</g>
<g>
</g>
<g>
</g>
<g>
</g>
<g>
</g>
<g>
</g>
<g>
</g>
<g>
</g>
<g>
</g>
<g>
</g>
<g>
</g>
<g>
</g>
<g>
</g>
</svg>
