<?xml version="1.0" encoding="iso-8859-1"?>
<!-- Generator: Adobe Illustrator 16.0.0, SVG Export Plug-In . SVG Version: 6.00 Build 0)  -->
<!DOCTYPE svg PUBLIC "-//W3C//DTD SVG 1.1//EN" "http://www.w3.org/Graphics/SVG/1.1/DTD/svg11.dtd">
<svg version="1.1" id="Capa_1" xmlns="http://www.w3.org/2000/svg" xmlns:xlink="http://www.w3.org/1999/xlink" x="0px" y="0px"
	 width="436.279px" height="436.279px" viewBox="0 0 436.279 436.279" style="enable-background:new 0 0 436.279 436.279;"
	 xml:space="preserve">
<g>
	<g>
		<path d="M55.175,417.154h68.927l12.756,19.125h172.125l12.747-19.125h59.363c7.708,0,13.952-19.125,13.952-19.125H41.233
			C41.233,398.029,47.478,417.154,55.175,417.154z"/>
		<path d="M55.175,369.342h68.927l12.756,19.125h172.125l12.747-19.125h59.363c7.708,0,13.952-19.125,13.952-19.125H41.233
			C41.233,350.217,47.478,369.342,55.175,369.342z"/>
		<path d="M55.175,321.529h68.927l12.756,19.125h172.125l12.747-19.125h59.363c7.708,0,13.952-19.125,13.952-19.125H41.233
			C41.233,302.404,47.478,321.529,55.175,321.529z"/>
		<path d="M55.175,273.717h68.927l12.756,19.125h172.125l12.747-19.125h59.363c7.708,0,13.952-19.125,13.952-19.125H267.922
			c48.568-19.517,82.897-66.966,82.897-122.515C350.819,59.134,291.685,0,218.732,0C145.79,0,86.655,59.134,86.655,132.077
			c0,55.548,34.33,102.998,82.897,122.515H41.233C41.233,254.592,47.478,273.717,55.175,273.717z M146.421,132.077
			c0-39.876,32.445-72.312,72.312-72.312c39.876,0,72.321,32.445,72.321,72.312s-32.445,72.312-72.321,72.312
			C178.866,204.389,146.421,171.943,146.421,132.077z"/>
		<path d="M281.491,132.077c0-34.607-28.152-62.749-62.759-62.749s-62.749,28.152-62.749,62.749s28.152,62.749,62.749,62.749
			C253.339,194.826,281.491,166.674,281.491,132.077z"/>
	</g>
</g>
<g>
</g>
<g>
</g>
<g>
</g>
<g>
</g>
<g>
</g>
<g>
</g>
<g>
</g>
<g>
</g>
<g>
</g>
<g>
</g>
<g>
</g>
<g>
</g>
<g>
</g>
<g>
</g>
<g>
</g>
</svg>
