<svg xmlns="http://www.w3.org/2000/svg" width="583.467" height="583.467" style="enable-background:new 0 0 583.467 583.467" xml:space="preserve"><path d="M583.312 372.021c.794-11.953-1.75-83.079-1.597-91.045.401-20.722-12.747-22.711-12.747-22.711h-4.781v-52.594c0-7.927-6.426-14.344-14.344-14.344H344.25a14.363 14.363 0 0 0-9.744 3.815l-72.025 66.67L76.5 327.593v64.547h482.906c12.747 0 23.113-8.166 23.906-20.119zM349.873 220.015H535.5v38.25H308.544l41.329-38.25zm90.002 95.625h-28.688v-28.688h28.688v28.688zm38.25 0h-28.688v-28.688h28.688v28.688zm38.346 9.562c-11.934 0-21.611-9.678-21.611-21.611s9.678-21.611 21.611-21.611 21.611 9.678 21.611 21.611-9.668 21.611-21.611 21.611zM57.375 334.765 0 344.327v47.813h57.375z"/></svg>