<?xml version="1.0" encoding="iso-8859-1"?>
<!-- Generator: Adobe Illustrator 16.0.0, SVG Export Plug-In . SVG Version: 6.00 Build 0)  -->
<!DOCTYPE svg PUBLIC "-//W3C//DTD SVG 1.1//EN" "http://www.w3.org/Graphics/SVG/1.1/DTD/svg11.dtd">
<svg version="1.1" id="Capa_1" xmlns="http://www.w3.org/2000/svg" xmlns:xlink="http://www.w3.org/1999/xlink" x="0px" y="0px"
	 width="554.625px" height="554.625px" viewBox="0 0 554.625 554.625" style="enable-background:new 0 0 554.625 554.625;"
	 xml:space="preserve">
<g>
	<g>
		<path d="M0,487.688v38.25v19.125h28.688v-19.125h210.375v19.125h28.688v-19.125v-38.25V363.375H0V487.688z M76.5,401.625h124.312
			v9.562H76.5V401.625z"/>
		<path d="M0,353.812h267.75V9.562H0V353.812z M219.938,148.219c0-2.639,2.142-4.781,4.781-4.781s4.781,2.142,4.781,4.781v105.188
			c0,2.64-2.142,4.781-4.781,4.781s-4.781-2.142-4.781-4.781V148.219z"/>
		<path d="M286.875,487.688v38.25v19.125h28.688v-19.125h210.375v19.125h28.688v-19.125v-38.25v-114.75h-267.75V487.688z
			 M363.375,401.625h124.312v9.562H363.375V401.625z"/>
		<rect x="315.562" y="219.938" width="153" height="105.188"/>
		<path d="M286.875,353.812h267.75V191.25h-267.75V353.812z M515.18,282.094c-6.598,0-11.953-5.355-11.953-11.953
			s5.355-11.953,11.953-11.953s11.953,5.355,11.953,11.953S521.777,282.094,515.18,282.094z M497.25,210.375h38.25v28.688h-38.25
			V210.375z M306,210.375h172.125v124.312H306V210.375z"/>
		<path d="M286.875,172.125h267.75V9.562h-267.75V172.125z M515.18,28.688c6.598,0,11.953,5.355,11.953,11.953
			s-5.355,11.953-11.953,11.953s-11.953-5.355-11.953-11.953S508.582,28.688,515.18,28.688z M515.18,66.938
			c6.598,0,11.953,5.355,11.953,11.953s-5.355,11.953-11.953,11.953s-11.953-5.355-11.953-11.953S508.582,66.938,515.18,66.938z
			 M306,28.688h172.125V153H306V28.688z"/>
		<rect x="315.562" y="38.25" width="153" height="105.188"/>
	</g>
</g>
<g>
</g>
<g>
</g>
<g>
</g>
<g>
</g>
<g>
</g>
<g>
</g>
<g>
</g>
<g>
</g>
<g>
</g>
<g>
</g>
<g>
</g>
<g>
</g>
<g>
</g>
<g>
</g>
<g>
</g>
</svg>
