<svg xmlns="http://www.w3.org/2000/svg" width="592.875" height="592.875" style="enable-background:new 0 0 592.875 592.875" xml:space="preserve"><path d="M328.605 262.299c-2.027 0-3.93.899-5.23 2.468a6.61 6.61 0 0 0-1.521 4.934c.182 1.836 1.014 3.414 2.429 4.581 1.081.889 2.563 1.377 4.179 1.377 2.171 0 4.16-.852 5.346-2.286a6.705 6.705 0 0 0 1.511-4.943 6.705 6.705 0 0 0-2.419-4.571 6.697 6.697 0 0 0-4.295-1.56zM483.433 262.299a6.773 6.773 0 0 0-5.231 2.468 6.614 6.614 0 0 0-1.521 4.934c.182 1.836 1.014 3.414 2.43 4.581 1.08.889 2.562 1.377 4.179 1.377 2.17 0 4.159-.852 5.345-2.286a6.706 6.706 0 0 0 1.512-4.943 6.71 6.71 0 0 0-2.42-4.571 6.696 6.696 0 0 0-4.294-1.56z"/><path d="M573.75 225.121H19.125C8.559 225.121 0 233.679 0 244.246v47.812c0 10.566 8.559 19.125 19.125 19.125H66.01l54.21-65.637 6.359-7.707 7.421 6.694c1.1.994 2.189 2.008 3.27 3.031.277-.364.564-.727.851-1.081 6.522-7.889 16.821-12.604 27.55-12.604 8.3 0 16.237 2.783 22.367 7.841 15.061 12.441 17.203 34.826 4.762 49.916a35.377 35.377 0 0 1-20.474 12.212 63.406 63.406 0 0 1 1.042 7.334h55.759l54.21-65.637 6.359-7.707 7.42 6.693c1.101.995 2.19 2.008 3.271 3.032.277-.364.564-.727.852-1.081 6.521-7.889 16.82-12.604 27.549-12.604 8.301 0 16.237 2.783 22.367 7.841 15.061 12.44 17.203 34.826 4.762 49.916a35.368 35.368 0 0 1-20.473 12.211 63.454 63.454 0 0 1 1.042 7.335h47.459l54.209-65.637 6.359-7.707 7.421 6.693c1.1.995 2.189 2.008 3.271 3.032.277-.364.563-.727.851-1.081 6.521-7.889 16.82-12.603 27.55-12.603 8.3 0 16.237 2.783 22.366 7.841 15.062 12.44 17.203 34.826 4.763 49.916a35.367 35.367 0 0 1-20.474 12.211 63.454 63.454 0 0 1 1.042 7.335h82.448c10.566 0 19.125-8.559 19.125-19.125v-47.812c-.001-10.565-8.56-19.123-19.126-19.123z"/><path d="M165.479 262.299c-2.027 0-3.93.899-5.23 2.468a6.605 6.605 0 0 0-1.521 4.934c.182 1.836 1.014 3.414 2.429 4.581 1.081.889 2.563 1.377 4.179 1.377 2.171 0 4.16-.852 5.346-2.286a6.705 6.705 0 0 0 1.511-4.943 6.71 6.71 0 0 0-2.419-4.571 6.699 6.699 0 0 0-4.295-1.56z"/><path d="M185.436 285.546c9.084-11.017 7.516-27.358-3.481-36.453-4.609-3.806-10.442-5.651-16.275-5.651-7.602 0-15.223 3.136-20.177 9.132-2.831 3.433-4.581 7.468-5.374 11.724a159.012 159.012 0 0 0-12.537-12.67l-49.18 59.555-27.033 32.732c14.219 10.729 37.877 23.839 60.855 23.839 14.191 0 28.114-5.001 39.397-18.665 10.385-12.575 13.359-25.514 12.068-37.916-.602-5.833-2.065-11.561-4.303-17.05 1.979.479 3.997.812 6.062.812 7.757.021 15.034-3.412 19.978-9.389zm-30.371-3.902c-3.366-2.772-5.432-6.693-5.852-11.034a16.23 16.23 0 0 1 3.672-11.953 16.28 16.28 0 0 1 12.594-5.929c3.777 0 7.459 1.329 10.385 3.739 6.942 5.729 7.927 16.036 2.19 22.979-3.117 3.777-7.917 5.757-12.718 5.757-3.682.018-7.354-1.149-10.271-3.559zM348.553 285.546c9.085-11.017 7.517-27.358-3.48-36.453-4.609-3.806-10.442-5.651-16.275-5.651-7.602 0-15.224 3.136-20.177 9.132-2.831 3.433-4.581 7.468-5.374 11.724a159.012 159.012 0 0 0-12.537-12.67l-49.17 59.555-27.033 32.732c14.22 10.729 37.877 23.839 60.856 23.839 14.191 0 28.114-5.001 39.397-18.665 10.386-12.575 13.359-25.514 12.068-37.916-.603-5.833-2.065-11.561-4.303-17.05 1.979.479 3.997.812 6.062.812 7.755.021 15.032-3.412 19.966-9.389zm-30.361-3.902c-3.366-2.772-5.432-6.693-5.853-11.034a16.235 16.235 0 0 1 3.672-11.953 16.28 16.28 0 0 1 12.594-5.929c3.777 0 7.459 1.329 10.385 3.739 6.942 5.729 7.928 16.036 2.19 22.979-3.117 3.777-7.918 5.757-12.719 5.757-3.68.018-7.361-1.149-10.269-3.559zM503.389 285.546c9.085-11.017 7.517-27.358-3.48-36.453-4.609-3.806-10.442-5.651-16.275-5.651-7.602 0-15.224 3.136-20.177 9.132-2.83 3.433-4.58 7.468-5.374 11.724a159.18 159.18 0 0 0-12.536-12.67l-49.181 59.555-27.033 32.732c14.22 10.729 37.878 23.839 60.856 23.839 14.19 0 28.113-5.001 39.397-18.665 10.385-12.575 13.358-25.514 12.067-37.916-.603-5.833-2.065-11.561-4.303-17.05 1.979.479 3.997.812 6.062.812 7.756.021 15.033-3.412 19.977-9.389zm-30.37-3.902c-3.366-2.772-5.432-6.693-5.853-11.034a16.235 16.235 0 0 1 3.672-11.953 16.28 16.28 0 0 1 12.595-5.929c3.776 0 7.458 1.329 10.385 3.739 6.942 5.729 7.927 16.036 2.189 22.979-3.117 3.777-7.918 5.757-12.718 5.757-3.682.018-7.353-1.149-10.27-3.559z"/></svg>