<?xml version="1.0" encoding="iso-8859-1"?>
<!-- Generator: Adobe Illustrator 16.0.0, SVG Export Plug-In . SVG Version: 6.00 Build 0)  -->
<!DOCTYPE svg PUBLIC "-//W3C//DTD SVG 1.1//EN" "http://www.w3.org/Graphics/SVG/1.1/DTD/svg11.dtd">
<svg version="1.1" id="Capa_1" xmlns="http://www.w3.org/2000/svg" xmlns:xlink="http://www.w3.org/1999/xlink" x="0px" y="0px"
	 width="272.531px" height="272.531px" viewBox="0 0 272.531 272.531" style="enable-background:new 0 0 272.531 272.531;"
	 xml:space="preserve">
<g>
	<g>
		<path d="M240.275,123.385l0.095-0.373l-0.2-0.057l-19.66-84.705h25.723c10.566,0,19.125-8.559,19.125-19.125S256.798,0,246.232,0
			H35.856C25.29,0,16.731,8.559,16.731,19.125S25.29,38.25,35.856,38.25h14.965L7.551,224.661
			c-1.797,7.717,3.003,15.425,10.729,17.213c1.09,0.258,2.18,0.383,3.251,0.383c6.531,0,12.431-4.476,13.961-11.103l14.898-64.193
			l71.528,19.154v72.072c0,7.928,6.426,14.344,14.344,14.344s14.344-6.416,14.344-14.344v-72.072l70.408-18.857l14.832,63.896
			c1.539,6.627,7.43,11.103,13.961,11.103c1.071,0,2.171-0.125,3.251-0.383c7.727-1.788,12.527-9.496,10.729-17.213L240.275,123.385
			z M208.776,114.549l-58.169-15.587V38.25h40.459L208.776,114.549z M121.919,38.25v60.712l-59.451,15.922L80.265,38.25H121.919z
			 M70.09,142.539l51.829-13.885v27.77L70.09,142.539z M150.607,156.424v-27.77l51.829,13.885L150.607,156.424z"/>
	</g>
</g>
<g>
</g>
<g>
</g>
<g>
</g>
<g>
</g>
<g>
</g>
<g>
</g>
<g>
</g>
<g>
</g>
<g>
</g>
<g>
</g>
<g>
</g>
<g>
</g>
<g>
</g>
<g>
</g>
<g>
</g>
</svg>
