<?xml version="1.0" encoding="iso-8859-1"?>
<!-- Generator: Adobe Illustrator 16.0.0, SVG Export Plug-In . SVG Version: 6.00 Build 0)  -->
<!DOCTYPE svg PUBLIC "-//W3C//DTD SVG 1.1//EN" "http://www.w3.org/Graphics/SVG/1.1/DTD/svg11.dtd">
<svg version="1.1" id="Capa_1" xmlns="http://www.w3.org/2000/svg" xmlns:xlink="http://www.w3.org/1999/xlink" x="0px" y="0px"
	 width="538.368px" height="538.368px" viewBox="0 0 538.368 538.368" style="enable-background:new 0 0 538.368 538.368;"
	 xml:space="preserve">
<g>
	<g>
		<path d="M0,250.299c0,8.128,8.128,20.559,30.6,33.469c0-4.781-0.478-9.562-0.478-14.823l0.478-1.912
			c1.913-5.26,26.775-53.072,248.625-53.072c70.763,0,196.031,13.388,231.413,48.291l1.434,1.434v1.913
			c0,0.956,0,9.084-1.434,21.994c23.906-13.865,27.253-34.425,27.73-35.859l0,0c-25.818-21.516-97.537-64.069-269.662-64.069
			C100.884,187.664,27.731,227.827,0,250.299z"/>
		<path d="M263.447,86.78C7.172,86.78,0,145.589,0,146.545v90.366c33.469-24.384,109.49-59.766,268.706-59.766
			c162.084,0,237.15,36.815,268.706,61.2v-91.8C537.412,146.545,520.678,86.78,263.447,86.78z"/>
		<path d="M40.162,269.902c0,5.737,0,11.953,0,18.647c0,2.391,0,5.259,0.479,8.127c0,0.957,0,2.391,0,3.348
			c4.303,65.025,34.425,151.564,238.106,151.564c74.587,0,131.962-20.08,170.69-59.287c27.253-28.209,40.162-60.721,46.378-86.062
			c0.956-2.869,1.435-5.736,1.912-8.605c0.479-1.435,0.479-2.391,0.957-3.825c2.391-12.431,2.868-21.516,2.868-25.341
			c-30.6-27.731-136.266-43.987-222.328-43.987C77.934,224.48,43.987,264.164,40.162,269.902z"/>
	</g>
</g>
<g>
</g>
<g>
</g>
<g>
</g>
<g>
</g>
<g>
</g>
<g>
</g>
<g>
</g>
<g>
</g>
<g>
</g>
<g>
</g>
<g>
</g>
<g>
</g>
<g>
</g>
<g>
</g>
<g>
</g>
</svg>
