<svg xmlns="http://www.w3.org/2000/svg" width="436.279" height="436.279" style="enable-background:new 0 0 436.279 436.279" xml:space="preserve"><path d="M55.175 417.154h68.927l12.756 19.125h172.125l12.747-19.125h59.363c7.708 0 13.952-19.125 13.952-19.125H41.233s6.245 19.125 13.942 19.125zM55.175 369.342h68.927l12.756 19.125h172.125l12.747-19.125h59.363c7.708 0 13.952-19.125 13.952-19.125H41.233s6.245 19.125 13.942 19.125zM55.175 321.529h68.927l12.756 19.125h172.125l12.747-19.125h59.363c7.708 0 13.952-19.125 13.952-19.125H41.233s6.245 19.125 13.942 19.125zM55.175 273.717h68.927l12.756 19.125h172.125l12.747-19.125h59.363c7.708 0 13.952-19.125 13.952-19.125H267.922c48.568-19.517 82.897-66.966 82.897-122.515C350.819 59.134 291.685 0 218.732 0 145.79 0 86.655 59.134 86.655 132.077c0 55.548 34.33 102.998 82.897 122.515H41.233s6.245 19.125 13.942 19.125zm91.246-141.64c0-39.876 32.445-72.312 72.312-72.312 39.876 0 72.321 32.445 72.321 72.312s-32.445 72.312-72.321 72.312c-39.867 0-72.312-32.446-72.312-72.312z"/><path d="M281.491 132.077c0-34.607-28.152-62.749-62.759-62.749s-62.749 28.152-62.749 62.749 28.152 62.749 62.749 62.749c34.607 0 62.759-28.152 62.759-62.749z"/></svg>