<svg xmlns="http://www.w3.org/2000/svg" width="529.881" height="529.881" style="enable-background:new 0 0 529.881 529.881" xml:space="preserve"><path d="M210.711 477.287c0-37.504-35.859-68.229-82.84-71.403l-47.87-190.829L286.906 45.387l60.425 81.358 37.677-13.416L306.546 7.682c-4.045-5.451-10.441-8.09-16.753-7.631-4.59-.239-9.285 1.1-13.12 4.246L46.37 193.157c-.344.287-.612.631-.937.937-.497.468-1.004.937-1.444 1.454-.411.478-.755 1.004-1.119 1.52-.344.498-.698.985-.985 1.501-.315.555-.564 1.147-.822 1.731-.239.545-.488 1.09-.669 1.654-.191.583-.325 1.186-.459 1.788-.134.603-.277 1.195-.354 1.807-.077.631-.086 1.262-.105 1.903-.019.583-.048 1.176-.009 1.759.048.746.191 1.492.325 2.238.076.382.076.765.172 1.147l49.448 197.112c-35.467 9.84-60.387 36.338-60.387 67.578v23.906h181.688v-23.905zM291.199 9.355c5.374 0 9.726 4.361 9.726 9.726 0 5.364-4.352 9.725-9.726 9.725s-9.725-4.36-9.725-9.725c0-5.365 4.351-9.726 9.725-9.726zm-229.5 210.71c-5.375 0-9.725-4.36-9.725-9.725s4.351-9.725 9.725-9.725 9.725 4.36 9.725 9.725-4.351 9.725-9.725 9.725zm72.512 250.05c0 6.598-5.355 11.953-11.953 11.953h-14.344c-6.598 0-11.953-5.355-11.953-11.953v-14.344c0-3.021 1.214-5.709 3.069-7.812 2.19-2.486 5.308-4.141 8.884-4.141h14.344c5.661 0 10.184 4.017 11.417 9.305.21.879.536 1.711.536 2.648v14.344zM19.251 529.881h196.442c5.164 0 9.352-4.284 9.352-9.562s-4.188-9.562-9.352-9.562H19.251c-5.164 0-9.352 4.284-9.352 9.562s4.188 9.562 9.352 9.562z"/><path d="m318.27 156.762 4.629 137.7 197.083-70.18-83.452-109.634-39.971 14.229-37.677 13.416z"/></svg>