<svg xmlns="http://www.w3.org/2000/svg" width="535.5" height="535.5" style="enable-background:new 0 0 535.5 535.5" xml:space="preserve"><path d="M210.78 41.119c0-10.519-3.825-12.909-3.825-12.909-2.391-.957-3.825-3.347-2.869-6.216.957-2.391 3.825-3.825 6.216-2.869.956.478 10.041 3.825 10.041 21.516v207.984h38.25V33.469c0-2.391-.479-4.781-.479-7.172C254.767 10.997 241.858 0 225.124 0c-19.125 0-33.469 14.344-33.469 33.469v215.156h19.125V41.119zM315.967 41.119c0-17.69 9.084-21.516 10.041-21.516 2.391-.956 5.259.478 6.215 2.869.957 2.391-.478 5.26-2.868 6.216-.479 0-3.825 2.869-3.825 12.909v207.028h19.125V38.25c0-20.081-15.778-36.815-35.859-37.772-17.213.957-31.078 15.3-31.078 32.991v215.156h38.25V41.119zM354.217 259.144c-1.435-.478-2.869-.956-4.781-.956h-162.56c-1.913 0-3.347.478-4.781.956-5.737 1.913-9.562 7.172-9.562 13.388v82.716c0 9.562.478 17.69 6.694 24.384l35.381 31.557h102.797l33.946-33.469c7.65-8.606 11.476-12.909 11.476-22.472v-82.716c.953-6.217-2.872-11.475-8.61-13.388zM316.923 420.75H205.042c-1.913 0-3.825 1.435-3.825 3.825v11.475c0 1.913 1.435 3.825 3.825 3.825h116.662c1.913 0 3.825-1.435 3.825-3.825v-6.693a8.57 8.57 0 0 0-8.606-8.607zM316.923 449.438H205.042c-1.913 0-3.825 1.435-3.825 3.825v11.475c0 1.913 1.435 3.825 3.825 3.825h116.662c1.913 0 3.825-1.435 3.825-3.825v-6.693a8.57 8.57 0 0 0-8.606-8.607zM316.923 478.125H205.042c-1.913 0-3.825 1.435-3.825 3.825v11.475c0 1.913 1.435 3.825 3.825 3.825h117.141c1.912 0 3.825-1.435 3.825-3.825v-6.693c-.478-4.782-4.303-8.607-9.085-8.607zM245.205 535.5h34.424l14.823-28.688h-64.547z"/></svg>