<svg xmlns="http://www.w3.org/2000/svg" width="452.008" height="452.008" style="enable-background:new 0 0 452.008 452.008" xml:space="preserve"><path d="M113.687 402.675c60.482 13.617 97.738 8.205 101.047 3.691-16.17-7.066-87.028-66.603-117.103-155.285-20.406-60.168 2.075-57.261 25.953 2.065 5.078 12.612 20.894 42.17 34.97 60.693 51.867 68.219 74.722 70.017 74.722 70.017 101.755-177.471-72.235-226.087-93.244-273.584C125.19 76.708 182.46 4.435 92.936 62.575c-185.025 120.143-48.205 324.58 20.751 340.1z"/><path d="M324.349 304.822c22.73-15.214 49.132-46.168 55.262-57.241 14.831-26.766 37.896-34.082 17.079 2.534-11.342 19.947-23.477 37.418-58.943 63.552-21.602 15.912-30.266 16.812-39.848 19.316 1.464 3.414 24.729 12.46 65.828 12.67 46.866.239 134.105-105.723 58.801-235.41-28.688 64.25-85.509 68.907-112.273 91.178-24.079 20.034-39.579 52.786-20.98 114.254-.002.01 12.707 4.112 35.074-10.853z"/></svg>