<svg xmlns="http://www.w3.org/2000/svg" width="474.3" height="474.3" style="enable-background:new 0 0 474.3 474.3" xml:space="preserve"><path d="M266.076 0h-52.115l-11.953 31.557h76.022zM239.779 330.385l15.78-14.344V123.834H224.48v192.207z"/><path d="M297.155 201.769v-77.935h-31.079v187.903l24.385 21.994c1.913 1.912 1.913 5.26.479 7.172-1.913 1.912-5.26 1.912-7.172.479l-18.646-16.734c-.957.956-24.863 19.125-24.863 19.125s-23.906-18.169-24.862-19.125l-18.647 16.734c-1.913 1.912-5.259 1.434-7.172-.479s-1.434-5.26.478-7.172l24.384-21.516V123.834h-31.078V198.9c-52.115 21.516-88.931 72.196-88.931 132.44 0 78.891 64.069 142.959 142.959 142.959 78.891 0 142.481-64.068 142.481-142.959-.001-57.853-33.947-106.621-82.716-129.571zM172.842 113.794h128.137c7.65.478 13.866-5.737 13.866-13.388v-3.825c0-7.65-6.216-13.866-13.866-13.866H172.842c-7.65-.478-13.866 5.737-13.866 13.388v3.825c.001 7.65 6.216 13.866 13.866 13.866zM172.842 72.197h128.137c7.65.478 13.866-5.738 13.866-13.388v-3.825c0-7.65-6.216-13.865-13.866-13.865H172.842c-7.65-.479-13.866 5.737-13.866 13.387v3.825c.001 7.65 6.216 13.866 13.866 13.866z"/></svg>