<?xml version="1.0" encoding="iso-8859-1"?>
<!-- Generator: Adobe Illustrator 16.0.0, SVG Export Plug-In . SVG Version: 6.00 Build 0)  -->
<!DOCTYPE svg PUBLIC "-//W3C//DTD SVG 1.1//EN" "http://www.w3.org/Graphics/SVG/1.1/DTD/svg11.dtd">
<svg version="1.1" id="Capa_1" xmlns="http://www.w3.org/2000/svg" xmlns:xlink="http://www.w3.org/1999/xlink" x="0px" y="0px"
	 width="592.875px" height="592.875px" viewBox="0 0 592.875 592.875" style="enable-background:new 0 0 592.875 592.875;"
	 xml:space="preserve">
<g>
	<path d="M412.144,254.362c11.953,0,39.685-3.825,39.685-36.815c0-42.075-26.775-22.95-26.775-47.334s10.041-31.556,10.041-31.556
		h4.781c2.869,0,4.781-1.913,4.781-4.781s-1.912-4.781-4.781-4.781H382.5c-2.869,0-4.781,1.913-4.781,4.781s1.912,4.781,4.781,4.781
		h4.303c0,0,11.476,6.694,11.476,31.556c0,24.863-27.253,5.259-27.253,47.334c0,32.991,27.253,36.815,39.206,36.815H412.144z"/>
	<path d="M0,406.406h592.875V262.969H0V406.406z M315.562,291.656h239.062v86.062H315.562V291.656z M38.25,291.656h239.062v86.062
		H38.25V291.656z"/>
	<rect x="19.125" y="425.531" width="47.812" height="38.25"/>
	<rect x="525.938" y="425.531" width="47.812" height="38.25"/>
</g>
<g>
</g>
<g>
</g>
<g>
</g>
<g>
</g>
<g>
</g>
<g>
</g>
<g>
</g>
<g>
</g>
<g>
</g>
<g>
</g>
<g>
</g>
<g>
</g>
<g>
</g>
<g>
</g>
<g>
</g>
</svg>
