<svg xmlns="http://www.w3.org/2000/svg" width="487.688" height="487.688" style="enable-background:new 0 0 487.688 487.688" xml:space="preserve"><path d="M224.719 277.312h38.25v162.562h-38.25zM301.22 277.312v27.626c-10.176 3.528-17.529 13.091-17.529 24.471 0 14.362 11.639 26 26.002 26 14.361 0 26-11.638 26-26 0-10.548-6.312-19.584-15.338-23.667v-28.43H301.22zM262.97 258.188h168.939L410.413 0H77.275L55.778 258.188h168.941zM119.532 468.562v9.562c0 5.269 4.284 9.562 9.562 9.562h219.938c5.277 0 9.562-4.294 9.562-9.562v-9.562c0-5.269-4.285-9.562-9.562-9.562H129.094c-5.278 0-9.562 4.294-9.562 9.562z"/></svg>