<?xml version="1.0" encoding="iso-8859-1"?>
<!-- Generator: Adobe Illustrator 16.0.0, SVG Export Plug-In . SVG Version: 6.00 Build 0)  -->
<!DOCTYPE svg PUBLIC "-//W3C//DTD SVG 1.1//EN" "http://www.w3.org/Graphics/SVG/1.1/DTD/svg11.dtd">
<svg version="1.1" id="Capa_1" xmlns="http://www.w3.org/2000/svg" xmlns:xlink="http://www.w3.org/1999/xlink" x="0px" y="0px"
	 width="467.151px" height="467.151px" viewBox="0 0 467.151 467.151" style="enable-background:new 0 0 467.151 467.151;"
	 xml:space="preserve">
<g>
	<path d="M444.731,125.788c11.953-27.731-208.463-76.5-217.069-49.247c-6.694-22.472-33.469-2.391-18.169,11.475
		c-3.825-0.479-8.128,2.869-12.432,9.562c24.863,2.391,51.16,6.693,63.113,15.3c2.869-1.435,6.216-2.391,9.562-2.391
		c9.085,0,17.691,5.737,20.082,14.344c0.478,2.391,1.912,8.606-2.391,15.3c8.605,12.91,13.387,38.25,15.3,66.459
		c3.347-1.434,7.172-1.913,10.997-0.956c10.04,2.391,16.256,11.953,13.865,21.515c-2.391,9.562-11.953,16.256-21.516,13.866
		c-0.479,0-0.956-0.479-1.435-0.479c0,3.825,0,7.65,0,11.476c0,43.031-3.347,92.277-16.734,111.881
		c0.956,1.912,1.913,3.825,1.913,5.737c47.812,9.562,93.712,12.909,100.884,2.391c4.304,17.69,35.859,2.869,18.169-13.388
		c28.209,8.606,76.979-215.155,47.334-217.068C479.634,134.873,460.509,110.488,444.731,125.788z M361.059,306.041
		c-3.347,1.913-13.865-8.605-23.428-23.906c-9.562-15.3-15.301-29.644-11.953-31.556c3.347-1.913,13.865,8.606,23.428,23.906
		S364.406,304.128,361.059,306.041z M365.84,198.463c-15.3,10.041-29.644,15.3-31.557,11.953
		c-1.912-3.347,8.606-13.866,23.906-23.428c15.301-9.562,29.645-15.3,31.557-11.953C391.659,177.904,381.14,188.423,365.84,198.463z
		 M292.209,212.329c-0.479-10.041-1.913-20.082-3.825-29.644c-1.913-10.041-4.781-19.603-8.128-29.166
		c-2.391-6.694-7.65-13.388-6.694-12.909c12.909-8.606,5.737-20.082-3.825-20.082c-6.215,0-12.909,8.606-11.953,7.172
		c1.435-10.519-28.209-17.69-65.981-20.559c-14.344-0.957-29.644-1.913-45.422-1.913c-15.778,0-31.078,0.478-45.422,1.913
		c-37.772,2.869-67.416,9.562-65.981,20.559c0.956,1.435-5.738-7.172-11.953-7.172c-9.562,0-16.734,11.475-3.825,20.082
		c0.478-0.479-4.781,5.737-6.694,12.909c-2.869,9.562-5.737,19.125-8.128,29.166c-1.913,10.041-2.869,20.082-3.825,29.644
		c-0.956,19.603-0.478,39.684,0,58.809c0.478,20.081,1.435,40.162,4.781,60.243c1.913,11.476,3.825,26.775,11.953,35.859
		c-0.478,0.479-0.956,0.479-0.956,0.956c-9.084,8.606,0.956,19.604,10.041,19.604c3.347,0,10.041-8.128,8.606-6.216
		c5.737,12.909,58.331,19.125,110.925,19.125s104.709-6.216,110.925-19.125c-0.956-1.912,5.26,6.216,8.606,6.216
		c9.084,0,19.125-10.997,10.041-19.604c-0.479-0.478-0.957-0.478-0.957-0.956c8.129-9.084,10.041-24.384,11.953-35.859
		c3.348-20.081,4.304-40.162,4.781-60.243C292.687,252.013,293.166,231.932,292.209,212.329z M186.543,205.635
		c12.909-12.91,25.341-21.038,28.209-18.169s-5.738,15.3-18.169,28.209c-12.909,12.909-25.34,21.037-28.209,18.168
		C165.505,231.454,173.634,218.545,186.543,205.635z M78.965,187.466c2.869-2.869,15.3,5.738,28.209,18.169
		c12.909,12.91,21.038,25.34,18.168,28.209c-2.869,2.868-15.3-5.737-28.209-18.168C84.702,202.767,76.574,189.857,78.965,187.466z
		 M107.174,303.65c-12.91,12.91-25.341,21.038-28.209,18.169c-2.869-2.868,5.737-15.3,18.169-28.209
		c12.909-12.909,25.34-21.038,28.209-18.169C128.69,277.832,120.083,290.741,107.174,303.65z M154.03,269.704
		c-2.391,0.956-4.781,1.435-7.172,1.435s-4.781-0.479-7.172-1.435c-6.693-2.869-10.997-9.085-10.997-16.734
		c0-6.216,3.347-11.953,8.128-15.3c2.869-1.913,6.216-3.348,10.041-3.348c3.825,0,7.172,0.957,10.041,3.348
		c4.781,3.347,8.128,8.605,8.128,15.3C165.027,260.619,160.724,266.834,154.03,269.704z M214.752,321.819
		c-2.869,2.869-15.3-5.737-28.209-18.169c-12.909-12.909-21.038-25.34-18.169-28.209c2.869-2.869,15.3,5.737,28.209,18.169
		C209.015,306.519,217.621,318.951,214.752,321.819z"/>
</g>
<g>
</g>
<g>
</g>
<g>
</g>
<g>
</g>
<g>
</g>
<g>
</g>
<g>
</g>
<g>
</g>
<g>
</g>
<g>
</g>
<g>
</g>
<g>
</g>
<g>
</g>
<g>
</g>
<g>
</g>
</svg>
