<?xml version="1.0" encoding="iso-8859-1"?>
<!-- Generator: Adobe Illustrator 16.0.0, SVG Export Plug-In . SVG Version: 6.00 Build 0)  -->
<!DOCTYPE svg PUBLIC "-//W3C//DTD SVG 1.1//EN" "http://www.w3.org/Graphics/SVG/1.1/DTD/svg11.dtd">
<svg version="1.1" id="Capa_1" xmlns="http://www.w3.org/2000/svg" xmlns:xlink="http://www.w3.org/1999/xlink" x="0px" y="0px"
	 width="550.322px" height="550.322px" viewBox="0 0 550.322 550.322" style="enable-background:new 0 0 550.322 550.322;"
	 xml:space="preserve">
<g>
	<g>
		<path d="M536.456,67.416h-22.472v26.775h22.472c7.172,0,13.866-5.738,13.866-13.866C550.322,73.631,544.585,67.416,536.456,67.416
			z"/>
		<path d="M35.859,67.416H13.866C6.694,67.416,0,73.153,0,81.281c0,7.172,5.738,13.866,13.866,13.866h22.472V67.416H35.859z"/>
		<rect x="261.535" y="67.416" width="26.775" height="26.775"/>
		<path d="M44.944,495.816c0,7.172,9.562,13.865,18.647,13.865s14.822-3.826,17.212-9.084c0.478-1.436,0.957-2.869,0.957-4.781
			c0,1.434,0.478,3.346,1.434,4.781c3.825,5.258,12.431,9.084,21.038,9.084s17.69-3.826,21.038-9.084
			c0.956-1.436,1.434-2.869,1.434-4.781c0,1.434,0.479,3.346,1.435,4.781c3.825,5.258,12.431,9.084,21.038,9.084
			c8.606,0,17.69-3.826,21.038-9.084c0.956-1.436,1.434-2.869,1.434-4.781c0,1.434,0.478,3.346,1.435,4.781
			c3.825,5.258,12.431,9.084,21.038,9.084c8.606,0,17.69-3.826,21.037-9.084c0.957-1.436,1.435-2.869,1.435-4.781
			c0,1.434,0.478,3.346,0.956,4.781c2.391,5.258,8.128,9.084,17.213,9.084c8.606,0,14.822-3.826,17.212-9.084
			c0.478-1.436,0.956-2.869,0.956-4.781v-4.781V128.138c-2.869,1.434-6.215,2.391-9.084,2.391c-0.956,0-1.434,0-2.391,0
			c-4.781-0.478-8.128-2.869-11.475-5.738c-0.479,0.479-0.957,0.957-1.435,1.435c-3.347,3.347-7.172,5.259-12.431,5.259
			c-0.957,0-1.435,0-2.391,0c-4.781-0.478-8.128-2.869-11.475-5.737c-0.478,0.478-0.956,0.956-1.435,1.434
			c-0.478,2.391-5.259,4.303-9.562,4.303c-0.956,0-1.434,0-2.391,0c-4.781-0.478-8.128-2.869-11.475-5.737
			c-0.479,0.478-0.957,0.956-1.435,1.434c-3.347,2.869-7.172,4.781-11.953,4.781c-0.956,0-1.435,0-2.391,0
			c-4.781-0.478-8.128-2.869-11.475-5.737c-0.478,0.478-0.956,0.956-1.434,1.435c-3.347,3.347-7.172,5.259-12.432,5.259
			c-0.956,0-1.434,0-2.391,0c-4.781-0.478-8.128-2.869-11.475-5.738c-0.479,0.479-0.957,0.957-1.435,1.435
			c-3.347,3.347-7.172,5.259-12.431,5.259c-0.957,0-1.435,0-2.391,0c-4.781-0.478-8.128-2.869-11.475-5.737
			c0-0.478-0.478,0-0.478,0.478c-3.347,3.347-7.172,5.259-12.431,5.259c-0.957,0-1.435,0-2.391,0
			c-4.781-0.478-8.128-2.869-11.475-5.737c-0.478,0.478-0.957,0.956-1.435,1.434c-3.347,3.347-7.172,5.26-12.431,5.26
			c-0.956,0-1.435,0-2.391,0c-2.391-0.479-4.781-0.957-6.694-2.391c0,1.912,0,1.912,0,1.912V495.816L44.944,495.816z"/>
		<path d="M297.394,495.816c0,7.172,9.562,13.865,18.169,13.865s14.822-3.826,17.213-9.084c0.478-1.436,0.956-2.869,0.956-4.781
			c0,1.434,0.479,3.346,1.435,4.781c3.825,5.258,12.431,9.084,21.037,9.084s17.69-3.826,21.038-9.084
			c0.956-1.436,1.434-2.869,1.434-4.781c0,1.434,0.479,3.346,1.435,4.781c3.825,5.258,12.432,9.084,21.038,9.084
			c8.605,0,17.69-3.826,21.037-9.084c0.956-1.436,1.435-2.869,1.435-4.781c0,1.434,0.478,3.346,1.435,4.781
			c3.825,5.258,12.431,9.084,21.037,9.084s17.69-3.826,21.038-9.084c0.956-1.436,1.434-2.869,1.434-4.781
			c0,1.434,0.479,3.346,0.957,4.781c2.391,5.258,8.128,9.084,17.212,9.084c8.606,0,14.822-3.826,17.213-9.084
			c0.478-1.436,0.956-2.869,0.956-4.781v-4.781V128.138c-2.869,1.434-6.216,2.391-9.085,2.391c-0.956,0-1.434,0-2.391,0
			c-4.781-0.478-8.128-2.869-11.475-5.738c-0.479,0.479-0.956,0.957-1.435,1.435c-3.347,3.347-7.172,5.259-12.431,5.259
			c-0.957,0-1.435,0-2.391,0c-4.781-0.478-8.129-2.869-11.476-5.737c-0.478,0.478-0.956,0.956-1.435,1.434
			c-0.478,2.391-5.259,4.303-9.562,4.303c-0.956,0-1.434,0-2.391,0c-4.781-0.478-8.128-2.869-11.475-5.737
			c-0.479,0.478-0.956,0.956-1.435,1.434c-3.347,2.869-7.172,4.781-11.953,4.781c-0.956,0-1.435,0-2.391,0
			c-4.781-0.478-8.128-2.869-11.475-5.737c-0.479,0.478-0.956,0.956-1.435,1.435c-3.347,3.347-7.172,5.259-12.432,5.259
			c-0.956,0-1.434,0-2.391,0c-4.781-0.478-8.128-2.869-11.475-5.738c-0.479,0.479-0.956,0.957-1.435,1.435
			c-3.347,3.347-7.172,5.259-12.431,5.259c-0.957,0-1.435,0-2.391,0c-4.781-0.478-8.129-2.869-11.476-5.737
			c0-0.478-0.478,0-0.478,0.478c-3.348,3.347-7.172,5.259-12.432,5.259c-0.956,0-1.435,0-2.391,0
			c-4.781-0.478-8.128-2.869-11.475-5.737c-0.479,0.478-0.957,0.956-1.435,1.434c-3.347,3.347-7.172,5.26-12.432,5.26
			c-0.956,0-1.435,0-2.391,0c-2.391-0.479-4.781-0.957-6.693-2.391c0,1.912,0,1.912,0,1.912L297.394,495.816L297.394,495.816z"/>
		<g>
			<path d="M54.506,40.641c-4.781,0-8.128,3.347-8.606,7.172v65.025c0,5.26,4.303,9.084,8.606,9.084s9.084-4.303,9.084-9.084v-63.59
				C63.113,44.944,58.81,40.641,54.506,40.641z"/>
			<path d="M81.281,40.641c-4.781,0-8.128,3.347-8.606,7.172v65.025c0,5.26,4.303,9.084,8.606,9.084
				c4.303,0,9.084-4.303,9.084-9.084v-63.59C89.888,44.944,86.062,40.641,81.281,40.641z"/>
			<path d="M108.057,40.641c-4.781,0-8.128,3.347-8.606,7.172v65.025c0,5.26,4.303,9.084,8.606,9.084
				c4.303,0,9.084-4.303,9.084-9.084v-63.59C117.141,44.944,113.316,40.641,108.057,40.641z"/>
			<path d="M135.31,40.641c-4.781,0-8.128,3.347-8.606,7.172v65.025c0,5.26,4.303,9.084,8.606,9.084
				c4.781,0,9.084-4.303,9.084-9.084v-63.59C144.394,44.944,140.091,40.641,135.31,40.641z"/>
			<path d="M162.084,40.641c-4.781,0-8.128,3.347-8.606,7.172v65.025c0,5.26,4.303,9.084,8.606,9.084
				c4.781,0,9.084-4.303,9.084-9.084v-63.59C171.169,44.944,167.344,40.641,162.084,40.641z"/>
			<path d="M189.338,40.641c-4.781,0-8.128,3.347-8.606,7.172v65.025c0,5.26,4.303,9.084,8.606,9.084
				c5.259,0,9.084-4.303,9.084-9.084v-63.59C198.422,44.944,194.597,40.641,189.338,40.641z"/>
			<path d="M216.591,40.641c-4.781,0-8.128,3.347-8.606,7.172v65.025c0,5.26,4.303,9.084,8.606,9.084
				c4.781,0,9.084-4.303,9.084-9.084v-63.59C225.675,44.944,221.372,40.641,216.591,40.641z"/>
			<path d="M243.366,40.641c-4.781,0-8.128,3.347-8.606,7.172v65.025c0,5.26,4.303,9.084,8.606,9.084
				c5.259,0,9.084-4.303,9.084-9.084v-63.59C252.45,44.944,248.625,40.641,243.366,40.641z"/>
		</g>
		<g>
			<path d="M306,40.641c-4.781,0-8.128,3.347-8.606,7.172v65.025c0,5.26,4.304,9.084,8.606,9.084c4.304,0,9.085-4.303,9.085-9.084
				v-63.59C315.085,44.944,310.781,40.641,306,40.641z"/>
			<path d="M332.775,40.641c-4.781,0-8.128,3.347-8.606,7.172v65.025c0,5.26,4.303,9.084,8.606,9.084
				c4.781,0,9.084-4.303,9.084-9.084v-63.59C341.859,44.944,338.034,40.641,332.775,40.641z"/>
			<path d="M360.028,40.641c-4.781,0-8.128,3.347-8.606,7.172v65.025c0,5.26,4.304,9.084,8.606,9.084
				c4.781,0,9.084-4.303,9.084-9.084v-63.59C369.112,44.944,364.81,40.641,360.028,40.641z"/>
			<path d="M387.281,40.641c-4.781,0-8.128,3.347-8.606,7.172v65.025c0,5.26,4.304,9.084,8.606,9.084
				c4.304,0,9.085-4.303,9.085-9.084v-63.59C395.888,44.944,392.062,40.641,387.281,40.641z"/>
			<path d="M414.057,40.641c-4.781,0-8.128,3.347-8.606,7.172v65.025c0,5.26,4.303,9.084,8.606,9.084
				c4.303,0,9.084-4.303,9.084-9.084v-63.59C423.141,44.944,419.315,40.641,414.057,40.641z"/>
			<path d="M441.31,40.641c-4.781,0-8.128,3.347-8.606,7.172v65.025c0,5.26,4.304,9.084,8.606,9.084
				c4.781,0,9.084-4.303,9.084-9.084v-63.59C450.394,44.944,446.091,40.641,441.31,40.641z"/>
			<path d="M468.085,40.641c-4.781,0-8.129,3.347-8.606,7.172v65.025c0,5.26,4.303,9.084,8.606,9.084
				c4.781,0,9.084-4.303,9.084-9.084v-63.59C477.169,44.944,473.344,40.641,468.085,40.641z"/>
			<path d="M495.338,40.641c-4.781,0-8.128,3.347-8.606,7.172v65.025c0,5.26,4.303,9.084,8.606,9.084
				c4.303,0,9.084-4.303,9.084-9.084v-63.59C504.422,44.944,500.597,40.641,495.338,40.641z"/>
		</g>
	</g>
</g>
<g>
</g>
<g>
</g>
<g>
</g>
<g>
</g>
<g>
</g>
<g>
</g>
<g>
</g>
<g>
</g>
<g>
</g>
<g>
</g>
<g>
</g>
<g>
</g>
<g>
</g>
<g>
</g>
<g>
</g>
</svg>
