<svg xmlns="http://www.w3.org/2000/svg" width="612" height="612" style="enable-background:new 0 0 612 612" xml:space="preserve"><path d="M382.5 248.625H239.062v124.312H382.5V248.625zm-29.883 77.093c-6.598 0-11.953-5.354-11.953-11.953 0-6.598 5.355-11.953 11.953-11.953s11.953 5.355 11.953 11.953c0 6.598-5.355 11.953-11.953 11.953z"/><path d="M430.312 200.812H9.562V420.75h592.875V200.812H430.312zM210.375 382.5H47.812v-57.375h162.563V382.5zm0-86.062H47.812v-57.375h162.563v57.375zM392.062 382.5H229.5V239.062h162.562V382.5zm181.688 0H411.188v-57.375H573.75V382.5zm0-86.062H411.188v-57.375H573.75v57.375zM597.656 153H14.344C6.426 153 0 159.426 0 167.344s6.426 14.344 14.344 14.344h583.312c7.918 0 14.344-6.426 14.344-14.344S605.574 153 597.656 153zM28.688 439.875H76.5V459H28.688zM535.5 439.875h47.812V459H535.5z"/></svg>