<?xml version="1.0" encoding="iso-8859-1"?>
<!-- Generator: Adobe Illustrator 16.0.0, SVG Export Plug-In . SVG Version: 6.00 Build 0)  -->
<!DOCTYPE svg PUBLIC "-//W3C//DTD SVG 1.1//EN" "http://www.w3.org/Graphics/SVG/1.1/DTD/svg11.dtd">
<svg version="1.1" id="Capa_1" xmlns="http://www.w3.org/2000/svg" xmlns:xlink="http://www.w3.org/1999/xlink" x="0px" y="0px"
	 width="554.625px" height="554.625px" viewBox="0 0 554.625 554.625" style="enable-background:new 0 0 554.625 554.625;"
	 xml:space="preserve">
<g>
	<g>
		<path d="M19.125,415.969h38.25c10.566,0,19.125-8.559,19.125-19.125h401.625c0,10.566,8.559,19.125,19.125,19.125h38.25
			c10.566,0,19.125-8.559,19.125-19.125V234.281c0-10.566-8.559-19.125-19.125-19.125h-38.25c-10.566,0-19.125,8.559-19.125,19.125
			v47.812v38.25v19.125H459H286.875H267.75H95.625H76.5v-19.125v-38.25v-47.812c0-10.566-8.559-19.125-19.125-19.125h-38.25
			C8.559,215.156,0,223.715,0,234.281v162.562C0,407.41,8.559,415.969,19.125,415.969z"/>
		<path d="M248.826,243.844c6.923,0,13.33,2.008,18.924,5.269v-91.331c0-10.566-8.559-19.125-19.125-19.125H114.75
			c-10.566,0-19.125,8.559-19.125,19.125v91.494c5.747-3.366,12.374-5.432,19.527-5.432H248.826z"/>
		<path d="M267.75,282.094c0-10.566-8.463-19.125-19.029-19.125h-0.096H115.152c-10.567,0-19.527,8.559-19.527,19.125v38.25H267.75
			V282.094z"/>
		<path d="M440.076,243.844c6.923,0,13.33,2.008,18.924,5.269v-91.331c0-10.566-8.559-19.125-19.125-19.125H306
			c-10.566,0-19.125,8.559-19.125,19.125v91.494c5.747-3.366,12.374-5.432,19.526-5.432H440.076z"/>
		<path d="M459,282.094c0-10.566-8.463-19.125-19.029-19.125h-0.096H306.401c-10.566,0-19.526,8.559-19.526,19.125v38.25H459
			V282.094z"/>
	</g>
</g>
<g>
</g>
<g>
</g>
<g>
</g>
<g>
</g>
<g>
</g>
<g>
</g>
<g>
</g>
<g>
</g>
<g>
</g>
<g>
</g>
<g>
</g>
<g>
</g>
<g>
</g>
<g>
</g>
<g>
</g>
</svg>
