<svg xmlns="http://www.w3.org/2000/svg" width="554.625" height="554.625" style="enable-background:new 0 0 554.625 554.625" xml:space="preserve"><path d="M19.125 415.969h38.25c10.566 0 19.125-8.559 19.125-19.125h401.625c0 10.566 8.559 19.125 19.125 19.125h38.25c10.566 0 19.125-8.559 19.125-19.125V234.281c0-10.566-8.559-19.125-19.125-19.125h-38.25c-10.566 0-19.125 8.559-19.125 19.125v105.187H76.5V234.281c0-10.566-8.559-19.125-19.125-19.125h-38.25C8.559 215.156 0 223.715 0 234.281v162.562c0 10.567 8.559 19.126 19.125 19.126z"/><path d="M248.826 243.844c6.923 0 13.33 2.008 18.924 5.269v-91.331c0-10.566-8.559-19.125-19.125-19.125H114.75c-10.566 0-19.125 8.559-19.125 19.125v91.494c5.747-3.366 12.374-5.432 19.527-5.432h133.674zM267.75 282.094c0-10.566-8.463-19.125-19.029-19.125H115.152c-10.567 0-19.527 8.559-19.527 19.125v38.25H267.75v-38.25zM440.076 243.844c6.923 0 13.33 2.008 18.924 5.269v-91.331c0-10.566-8.559-19.125-19.125-19.125H306c-10.566 0-19.125 8.559-19.125 19.125v91.494c5.747-3.366 12.374-5.432 19.526-5.432h133.675zM459 282.094c0-10.566-8.463-19.125-19.029-19.125h-133.57c-10.566 0-19.526 8.559-19.526 19.125v38.25H459v-38.25z"/></svg>