<svg xmlns="http://www.w3.org/2000/svg" width="525.938" height="525.938" style="enable-background:new 0 0 525.938 525.938" xml:space="preserve"><path d="M518.173 66.938H7.765C3.481 66.938 0 70.418 0 74.702v3.586c0 4.293 3.481 7.774 7.765 7.774h510.398c4.294 0 7.774-3.481 7.774-7.765v-3.586c.001-4.293-3.48-7.773-7.764-7.773zM518.173 172.125H7.765A7.77 7.77 0 0 0 0 179.89v3.586c0 4.293 3.481 7.774 7.765 7.774h510.398c4.294 0 7.774-3.481 7.774-7.765v-3.586c.001-4.293-3.48-7.774-7.764-7.774zM518.173 277.312H7.765A7.77 7.77 0 0 0 0 285.077v3.586c0 4.294 3.481 7.774 7.765 7.774h510.398c4.294 0 7.774-3.48 7.774-7.765v-3.586c.001-4.293-3.48-7.774-7.764-7.774zM518.173 382.5H7.765A7.77 7.77 0 0 0 0 390.265v3.586c0 4.294 3.481 7.774 7.765 7.774h510.398c4.294 0 7.774-3.48 7.774-7.765v-3.586c.001-4.294-3.48-7.774-7.764-7.774zM19.125 95.625H38.25v66.938H19.125zM248.625 95.625h19.125v66.938h-19.125zM258.188 306h19.125v66.938h-19.125zM57.375 200.812H76.5v66.938H57.375zM19.125 306H38.25v66.938H19.125zM57.375 411.188H76.5V459H57.375zM487.688 95.625h19.125v66.938h-19.125zM449.438 200.812h19.125v66.938h-19.125zM487.688 306h19.125v66.938h-19.125zM449.438 411.188h19.125V459h-19.125zM47.812 95.625v66.938h191.25V95.625H47.812zm163.758 47.813c-5.938 0-10.758-4.819-10.758-10.758s4.819-10.758 10.758-10.758 10.758 4.819 10.758 10.758-4.819 10.758-10.758 10.758zM286.875 306v66.938h191.25V306h-191.25zm29.883 47.812c-5.938 0-10.758-4.819-10.758-10.758s4.819-10.758 10.758-10.758 10.758 4.819 10.758 10.758-4.82 10.758-10.758 10.758z"/></svg>