<svg xmlns="http://www.w3.org/2000/svg" width="108.148" height="108.148" style="enable-background:new 0 0 108.148 108.148" xml:space="preserve"><path d="M54.95 93.055h28.875c-.089.613-.089 1.229-.177 1.75H24.413c-.089-.521-.089-1.137-.176-1.75h28.875V25.681h-2.274c.35-.524.524-1.138.524-1.75H56.7c0 .612.264 1.226.524 1.75H54.95v67.374zm4.81-65.712c-.174 0-.262 0-.438-.088v.088c2.102 9.975 8.4 28.786 26.949 33.161.438-.699 1.312-1.226 2.188-1.226h10.674V26.907c-.352.35-.961.524-1.661.524-.175 0-.263 0-.438-.087a3.35 3.35 0 0 1-2.188-1.138l-.264.263a2.76 2.76 0 0 1-.611.438c-.525.262-1.139.524-1.75.524-.176 0-.264 0-.438-.087a3.35 3.35 0 0 1-2.188-1.138l-.262.263c-.613.612-1.488.962-2.451.962-.174 0-.262 0-.439-.087a3.35 3.35 0 0 1-2.188-1.138l-.264.263c-.611.612-1.486.962-2.449.962-.176 0-.264 0-.438-.087a3.346 3.346 0 0 1-2.188-1.138l-.267.263c-.608.612-1.483.962-2.446.962-.179 0-.267 0-.438-.087a3.35 3.35 0 0 1-2.188-1.138l-.265.263c-.61.612-1.485.962-2.449.962-.176 0-.262 0-.438-.087a3.356 3.356 0 0 1-2.189-1.138l-.262.263c-.613.612-1.488.962-2.449.962-.176 0-.264 0-.438-.087a3.35 3.35 0 0 1-2.189-1.138l-.262.263c-.613.612-1.488.962-2.451.962-.162 0-.249 0-.425-.088zm32.465 40.862c-.438 0-.875-.089-1.227-.265-2.977 7.438-4.551 18.287-5.338 25.111-.088.613-.088 1.227-.176 1.75-.176 1.576-.262 2.801-.351 3.588h14.089V68.205h-6.997zm7.086-7.086H88.725a.878.878 0 0 0-.875.875c0 .264.086.522.351.698h.09c.086 0 .086.09.174.09s.265.087.351.087h10.676c.088 0 .264-.087.352-.087.35-.178.523-.438.523-.788-.181-.439-.616-.875-1.056-.875zm0 3.586H92.049c-.438.088-.699.438-.699.875 0 .088 0 .174.086.264.088.175.176.351.354.438.086 0 .086.086.174.086s.265.088.351.088h7.088s.088 0 .264-.088c.352-.176.523-.438.523-.787a.881.881 0 0 0-.879-.876zm-76.824 28.35c-.699-6.301-2.1-16.271-4.725-23.625-.175-.521-.35-1.051-.612-1.573-.35.178-.788.264-1.225.264H8.838v30.273h14.087c0-.787-.087-2.015-.262-3.589-.089-.523-.089-1.137-.176-1.75zM56.7 20.343v-5.338h-5.337v5.338H56.7zm48.823-5.338h-4.463v5.338h4.463c1.486 0 2.625-1.225 2.625-2.625 0-1.488-1.223-2.713-2.625-2.713zM0 17.63c0 1.489 1.225 2.625 2.625 2.625h4.462v-5.25H2.625C1.137 15.005 0 16.23 0 17.63zm8.574 45.239s.176.088.264.088h10.587c.087 0 .263-.088.35-.088s.087-.087.175-.087h.089c.175-.178.35-.438.35-.7a.877.877 0 0 0-.875-.875H8.926a.877.877 0 0 0-.875.875c-.001.348.262.7.523.787zm7.351 3.586c.087 0 .263 0 .35-.089.087 0 .087-.088.175-.088.176-.088.264-.264.351-.438 0-.088.087-.176.087-.264 0-.439-.262-.787-.7-.875H8.924a.877.877 0 0 0-.875.875c-.087.35.087.699.438.787.087 0 .264.088.351.088h7.088l-.001.004zm1.575-7.086h1.75c.962 0 1.75.438 2.188 1.227 5.075-1.227 9.275-3.414 12.688-6.301.524.35.875.788 1.312 1.137 0 .089.087.089.087.177.525.612 1.226 1.227 1.925 1.926 2.538 2.449 4.9 4.199 5.163 3.852.264-.352-1.574-2.537-4.111-4.988-.7-.608-1.312-1.225-1.926-1.75-.087 0-.087-.087-.175-.087l-1.312-1.05c8.486-7.7 12.075-19.162 13.475-26.162-.263.087-.524.087-.875.087-.175 0-.263 0-.438-.087a3.344 3.344 0 0 1-2.188-1.138l-.263.263c-.612.612-1.487.962-2.45.962-.175 0-.263 0-.438-.087a3.344 3.344 0 0 1-2.188-1.138l-.263.263c-.612.612-1.487.962-2.45.962-.175 0-.262 0-.438-.087a3.349 3.349 0 0 1-2.188-1.138l-.262.263c-.613.612-1.488.962-2.45.962-.175 0-.262 0-.438-.087a3.344 3.344 0 0 1-2.188-1.138l-.263.263c-.612.612-1.487.962-2.449.962-.176 0-.264 0-.438-.087a3.344 3.344 0 0 1-2.188-1.138l-.264.263c-.611.612-1.486.962-2.449.962-.176 0-.264 0-.438-.087a3.344 3.344 0 0 1-2.188-1.138l-.264.263a2.683 2.683 0 0 1-.611.438c-.525.262-1.139.524-1.75.524-.176 0-.264 0-.438-.087a3.344 3.344 0 0 1-2.188-1.138l-.263.263c-.612.612-1.487.962-2.45.962-.175 0-.263 0-.438-.087-.438-.088-.963-.175-1.312-.438v32.461H17.5v-.004zm21.018 5.838c-2.562-2.425-4.882-4.134-5.181-3.816-.299.314 1.536 2.537 4.099 4.962 2.563 2.424 4.882 4.133 5.181 3.815.299-.315-1.536-2.535-4.099-4.961zm34.407 1.125c2.562 2.424 4.884 4.133 5.183 3.815.299-.316-1.537-2.539-4.101-4.963s-4.881-4.133-5.182-3.815c-.298.316 1.536 2.541 4.1 4.963zm-.004-7.099c2.562 2.429 4.884 4.138 5.183 3.818.299-.316-1.535-2.537-4.099-4.961-2.562-2.426-4.883-4.134-5.185-3.818-.297.316 1.539 2.538 4.101 4.961zM10.588 25.768c.962 0 1.75-.788 1.75-1.75V11.505c0-.962-.788-1.75-1.75-1.75-.875 0-1.575.613-1.75 1.488v12.774c0 .963.787 1.751 1.75 1.751zm5.337 0c.962 0 1.75-.788 1.75-1.75V11.505c0-.962-.788-1.75-1.75-1.75-.875 0-1.575.613-1.75 1.488v12.774c0 .963.787 1.751 1.75 1.751zm5.25 0c.962 0 1.75-.788 1.75-1.75V11.505c.087-.962-.7-1.75-1.75-1.75-.875 0-1.575.614-1.75 1.489v12.774c0 .962.787 1.75 1.75 1.75zm5.337 0c.963 0 1.75-.788 1.75-1.75V11.505c0-.962-.787-1.75-1.75-1.75-.875 0-1.575.613-1.75 1.488v12.774c0 .963.788 1.751 1.75 1.751zm5.338 0c.962 0 1.75-.788 1.75-1.75V11.505c0-.962-.788-1.75-1.75-1.75-.875 0-1.575.613-1.75 1.488v12.774c0 .963.787 1.751 1.75 1.751zm5.338 0c.962 0 1.75-.788 1.75-1.75V11.505c0-.962-.788-1.75-1.75-1.75-.875 0-1.575.613-1.75 1.488v12.774c0 .963.787 1.751 1.75 1.751zm5.337 0c.962 0 1.75-.788 1.75-1.75V11.505c0-.962-.788-1.75-1.75-1.75-.875 0-1.575.613-1.75 1.488v12.774c0 .963.788 1.751 1.75 1.751zm5.25 0c.962 0 1.75-.788 1.75-1.75V11.505c.087-.962-.7-1.75-1.75-1.75-.875 0-1.575.613-1.75 1.488v12.774c0 .963.788 1.751 1.75 1.751zm12.425 0c.965 0 1.75-.788 1.75-1.75V11.505c.09-.962-.699-1.75-1.75-1.75-.875 0-1.574.613-1.75 1.488v12.774c0 .963.786 1.751 1.75 1.751zm5.34 0c.961 0 1.75-.788 1.75-1.75V11.505c0-.962-.789-1.75-1.75-1.75-.875 0-1.576.613-1.75 1.488v12.774c0 .963.785 1.751 1.75 1.751zm5.336 0c.963 0 1.75-.788 1.75-1.75V11.505c0-.962-.787-1.75-1.75-1.75-.875 0-1.574.613-1.75 1.488v12.774c0 .963.789 1.751 1.75 1.751zm5.336 0c.963 0 1.75-.788 1.75-1.75V11.505c0-.962-.787-1.75-1.75-1.75-.875 0-1.575.613-1.75 1.488v12.774c0 .963.789 1.751 1.75 1.751zm5.25 0c.963 0 1.75-.788 1.75-1.75V11.505c.088-.962-.702-1.75-1.75-1.75-.875 0-1.575.613-1.75 1.488v12.774c0 .963.789 1.751 1.75 1.751zm5.338 0c.962 0 1.75-.788 1.75-1.75V11.505c.085-.962-.79-1.75-1.75-1.75-.875 0-1.573.613-1.75 1.488v12.774c0 .963.789 1.751 1.75 1.751zm5.335 0c.965 0 1.75-.788 1.75-1.75V11.505c0-.962-.785-1.75-1.75-1.75-.875 0-1.574.613-1.75 1.488v12.774c0 .963.79 1.751 1.75 1.751zm5.34 0c.961 0 1.75-.788 1.75-1.75V11.505c0-.962-.789-1.75-1.75-1.75-.875 0-1.576.613-1.75 1.488v12.774c0 .963.785 1.751 1.75 1.751z"/></svg>