<svg xmlns="http://www.w3.org/2000/svg" width="363.375" height="363.375" style="enable-background:new 0 0 363.375 363.375" xml:space="preserve"><path d="M19.125 320.344h38.25c10.566 0 19.125-8.559 19.125-19.125h210.375c0 10.566 8.559 19.125 19.125 19.125h38.25c10.566 0 19.125-8.559 19.125-19.125V138.656c0-10.566-8.559-19.125-19.125-19.125H306c-10.566 0-19.125 8.559-19.125 19.125v105.187H76.5V138.656c0-10.566-8.559-19.125-19.125-19.125h-38.25C8.559 119.531 0 128.09 0 138.656v162.562c0 10.567 8.559 19.126 19.125 19.126z"/><path d="M248.826 148.219c6.923 0 13.33 2.008 18.924 5.269V62.156c0-10.566-8.559-19.125-19.125-19.125H114.75c-10.566 0-19.125 8.559-19.125 19.125v91.494c5.747-3.366 12.374-5.432 19.527-5.432h133.674zM267.75 186.469c0-10.566-8.463-19.125-19.029-19.125H115.152c-10.567 0-19.527 8.559-19.527 19.125v38.25H267.75v-38.25z"/></svg>