<svg xmlns="http://www.w3.org/2000/svg" width="430.312" height="430.312" style="enable-background:new 0 0 430.312 430.312" xml:space="preserve"><path d="M14.344 430.312h401.625V248.625H14.344v181.687zm375.328-153c3.959 0 7.172 29.166 7.172 65.14 0 35.975-3.213 65.14-7.172 65.14s-7.172-29.165-7.172-65.14c0-35.973 3.213-65.14 7.172-65.14zm-49.18 0c3.959 0 7.172 29.166 7.172 65.14 0 35.975-3.213 65.14-7.172 65.14s-7.172-29.165-7.172-65.14c0-35.973 3.213-65.14 7.172-65.14zm-49.18 0c3.958 0 7.172 29.166 7.172 65.14 0 35.975-3.214 65.14-7.172 65.14-3.959 0-7.172-29.165-7.172-65.14.001-35.973 3.214-65.14 7.172-65.14zm-51.427 3.309c.67-1.989 1.367-3.107 2.104-3.241.058-.01.096-.067.144-.067 3.959 0 7.172 29.166 7.172 65.14 0 35.975-3.213 65.14-7.172 65.14s-7.172-29.165-7.172-65.14c-.001-28.842 2.064-53.264 4.924-61.832zm-51.657 12.919c.479-3.835 1.014-7.066 1.597-9.639.956-4.179 2.008-6.589 3.137-6.589 1.1 0 2.142 2.314 3.069 6.34.583 2.524 1.128 5.728 1.616 9.534 1.521 11.943 2.486 29.567 2.486 49.275 0 35.974-3.213 65.14-7.172 65.14-3.959 0-7.172-29.166-7.172-65.14.001-19.525.947-36.987 2.439-48.921zm-44.446-16.228c3.959 0 7.172 29.166 7.172 65.14 0 35.975-3.213 65.14-7.172 65.14s-7.172-29.165-7.172-65.14c0-35.973 3.213-65.14 7.172-65.14zm-49.18 0c3.959 0 7.172 29.166 7.172 65.14 0 35.975-3.213 65.14-7.172 65.14-3.958 0-7.172-29.165-7.172-65.14 0-35.973 3.213-65.14 7.172-65.14zm-49.18 0c3.959 0 7.172 29.166 7.172 65.14 0 35.975-3.213 65.14-7.172 65.14s-7.172-29.165-7.172-65.14c0-35.973 3.213-65.14 7.172-65.14zM272.531 14.344c0-8.243-4.284-14.344-9.562-14.344h-114.75c-5.278 0-9.562 6.101-9.562 14.344s4.284 14.344 9.562 14.344h47.812v93.091c-18.245 14.717-36.261 31.968-36.261 58.389 0 25.972 17.834 39.407 36.261 50.136v8.76h32.981c-4.227-3.213-8.96-6.139-13.856-8.932V118.805c17.327-13.866 33.469-28.85 33.469-51.131 0-18.37-7.851-30.791-16.744-38.986h31.088c5.278 0 9.562-6.102 9.562-14.344zm-76.5 204.771c-14.554-9.084-26.698-20.11-26.698-38.948 0-19.708 11.8-33.296 26.698-45.967v84.915zm43.031-151.441c0 15.711-10.566 27.473-23.906 38.747V28.688h.688c10.09 5.775 23.218 17.413 23.218 38.986z"/></svg>