<svg xmlns="http://www.w3.org/2000/svg" width="110.25" height="110.25" style="enable-background:new 0 0 110.25 110.25" xml:space="preserve"><path d="M29.75 106.75h8.75v3.5h-8.75v-3.5zm42 3.5h8.75v-3.5h-8.75v3.5zM80.5 0v105H29.75V0H80.5zm-7 70H36.75v26.25H73.5V70zm0-31.5H36.75v26.25H73.5V38.5zm0-31.5H36.75v26.25H73.5V7zM42 31.5v-21h-3.5v21H42zm5.25-21h-3.5v21h3.5v-21zm12.979 19.311L51.458 10.73l-3.181 1.462 8.771 19.081 3.181-1.462zm-6.243 26.627c0 6.037 4.989 6.737 7.176 6.737h.263c2.188 0 7.263-.7 7.263-6.737 0-7.7-4.897-4.2-4.897-8.663S65.625 42 65.625 42h.875c.525 0 .875-.35.875-.875s-.35-.875-.875-.875H56c-.525 0-.875.35-.875.875s.35.875.875.875h.788s2.101 1.225 2.101 5.775c0 4.55-4.903.875-4.903 8.663z"/></svg>