<svg xmlns="http://www.w3.org/2000/svg" width="559.396" height="559.396" style="enable-background:new 0 0 559.396 559.396" xml:space="preserve"><path d="M213.951 349.021h-60.559l12.957 28.688h226.697l12.959-28.688h-58.18v-60.406c-6.75 3.93-16.494 7.812-28.688 7.812-12.717 0-22.309-3.203-28.688-6.282v58.876h-19.125v-89.094c-6.751 3.93-16.495 7.812-28.688 7.812-12.718 0-22.309-3.204-28.688-6.283v87.565zM213.951 250.585c4.408 2.745 14.2 7.593 28.688 7.593 13.636 0 23.639-5.948 28.688-9.754V145.178c-6.751 3.93-16.495 7.812-28.688 7.812-12.718 0-22.309-3.204-28.688-6.283v103.878zM213.951 135.835c4.408 2.745 14.2 7.593 28.688 7.593 13.636 0 23.639-5.948 28.688-9.754V35.859c-4.456 6.617-11.341 11.685-19.507 14.238a38.603 38.603 0 0 1-11.552 1.788c-11.255 0-21.047-5.202-26.326-13.349v97.298h.009z"/><path d="M290.45 196.777v82.496c4.408 2.744 14.201 7.593 28.688 7.593 13.637 0 23.639-5.948 28.688-9.754v-74.511c-5.469 7.306-14.793 11.857-25.359 11.857-3.873 0-7.756-.603-11.551-1.788-8.35-2.62-15.396-7.822-19.844-14.669-.249-.402-.382-.822-.622-1.224zM390.034 387.271H170.288l11.274 133.875h197.199zM354.931 559.396l8.806-28.687H191.89l8.817 28.687zM240.276 44.705c3.06 0 6.235-.469 9.4-1.463 6.072-1.903 10.997-5.47 14.43-9.782 4.466-5.613 6.359-12.518 4.312-19.039C265.617 5.489 256.446 0 245.976 0c-3.06 0-6.235.468-9.4 1.463-13.971 4.379-22.357 17.289-18.743 28.821a17.976 17.976 0 0 0 1.339 3.175c3.767 7.038 11.934 11.246 21.104 11.246z"/><path d="M313.065 205.804a31.321 31.321 0 0 0 9.4 1.463c10.48 0 19.65-5.499 22.443-14.42.66-2.104.793-4.246.697-6.388-.449-9.572-8.012-18.857-19.439-22.443a31.353 31.353 0 0 0-9.4-1.463c-10.48 0-19.65 5.499-22.443 14.42-.984 3.127-1.014 6.349-.354 9.476 1.76 8.435 8.913 16.161 19.096 19.355z"/></svg>