<svg xmlns="http://www.w3.org/2000/svg" width="564.188" height="564.188" style="enable-background:new 0 0 564.188 564.188" xml:space="preserve"><path d="M210.375 549.844c0 6.933 4.915 12.709 11.446 14.047.956.153 1.903.297 2.897.297h114.75c.994 0 1.941-.144 2.897-.297 6.531-1.338 11.446-7.124 11.446-14.047 0-7.918-6.426-14.344-14.344-14.344H224.718c-7.917 0-14.343 6.426-14.343 14.344zM332.039 114.75h-99.89L244.896 153h74.396zM204.255 105.188H359.933L394.998 0H169.189zM306 234.281a4.782 4.782 0 0 0 4.781-4.781v-28.686c0-2.639-2.142-4.781-4.781-4.781s-4.781 2.142-4.781 4.781v9.562h-9.562v-47.812h-19.125v363.375h19.125v-306h9.562v9.562a4.782 4.782 0 0 0 4.781 4.78z"/></svg>