<?xml version="1.0" encoding="iso-8859-1"?>
<!-- Generator: Adobe Illustrator 16.0.0, SVG Export Plug-In . SVG Version: 6.00 Build 0)  -->
<!DOCTYPE svg PUBLIC "-//W3C//DTD SVG 1.1//EN" "http://www.w3.org/Graphics/SVG/1.1/DTD/svg11.dtd">
<svg version="1.1" id="Capa_1" xmlns="http://www.w3.org/2000/svg" xmlns:xlink="http://www.w3.org/1999/xlink" x="0px" y="0px"
	 width="559.396px" height="559.396px" viewBox="0 0 559.396 559.396" style="enable-background:new 0 0 559.396 559.396;"
	 xml:space="preserve">
<g>
	<g>
		<path d="M213.951,349.021h-60.559l12.957,28.688h226.697l12.959-28.688h-58.18v-60.406c-6.75,3.93-16.494,7.812-28.688,7.812
			c-12.717,0-22.309-3.203-28.688-6.282v58.876h-19.125v-89.094c-6.751,3.93-16.495,7.812-28.688,7.812
			c-12.718,0-22.309-3.204-28.688-6.283V349.021z"/>
		<path d="M213.951,250.585c4.408,2.745,14.2,7.593,28.688,7.593c13.636,0,23.639-5.948,28.688-9.754V145.178
			c-6.751,3.93-16.495,7.812-28.688,7.812c-12.718,0-22.309-3.204-28.688-6.283V250.585z"/>
		<path d="M213.951,135.835c4.408,2.745,14.2,7.593,28.688,7.593c13.636,0,23.639-5.948,28.688-9.754V35.859
			c-4.456,6.617-11.341,11.685-19.507,14.238c-3.787,1.186-7.669,1.788-11.552,1.788c-11.255,0-21.047-5.202-26.326-13.349v97.298
			H213.951z"/>
		<path d="M290.45,196.777v82.496c4.408,2.744,14.201,7.593,28.688,7.593c13.637,0,23.639-5.948,28.688-9.754v-74.511
			c-5.469,7.306-14.793,11.857-25.359,11.857c-3.873,0-7.756-0.603-11.551-1.788c-8.35-2.62-15.396-7.822-19.844-14.669
			C290.823,197.599,290.69,197.179,290.45,196.777z"/>
		<polygon points="390.034,387.271 170.288,387.271 181.562,521.146 378.761,521.146 		"/>
		<polygon points="354.931,559.396 363.737,530.709 191.89,530.709 200.707,559.396 		"/>
		<path d="M240.276,44.705c3.06,0,6.235-0.469,9.4-1.463c6.072-1.903,10.997-5.47,14.43-9.782
			c4.466-5.613,6.359-12.518,4.312-19.039C265.617,5.489,256.446,0,245.976,0c-3.06,0-6.235,0.468-9.4,1.463
			c-13.971,4.379-22.357,17.289-18.743,28.821c0.354,1.119,0.794,2.171,1.339,3.175C222.939,40.497,231.106,44.705,240.276,44.705z"
			/>
		<path d="M313.065,205.804c3.156,0.995,6.34,1.463,9.4,1.463c10.48,0,19.65-5.499,22.443-14.42c0.66-2.104,0.793-4.246,0.697-6.388
			c-0.449-9.572-8.012-18.857-19.439-22.443c-3.156-0.994-6.34-1.463-9.4-1.463c-10.48,0-19.65,5.499-22.443,14.42
			c-0.984,3.127-1.014,6.349-0.354,9.476C295.729,194.884,302.882,202.61,313.065,205.804z"/>
	</g>
</g>
<g>
</g>
<g>
</g>
<g>
</g>
<g>
</g>
<g>
</g>
<g>
</g>
<g>
</g>
<g>
</g>
<g>
</g>
<g>
</g>
<g>
</g>
<g>
</g>
<g>
</g>
<g>
</g>
<g>
</g>
</svg>
