<?xml version="1.0" encoding="iso-8859-1"?>
<!-- Generator: Adobe Illustrator 16.0.0, SVG Export Plug-In . SVG Version: 6.00 Build 0)  -->
<!DOCTYPE svg PUBLIC "-//W3C//DTD SVG 1.1//EN" "http://www.w3.org/Graphics/SVG/1.1/DTD/svg11.dtd">
<svg version="1.1" id="Capa_1" xmlns="http://www.w3.org/2000/svg" xmlns:xlink="http://www.w3.org/1999/xlink" x="0px" y="0px"
	 width="525.938px" height="525.938px" viewBox="0 0 525.938 525.938" style="enable-background:new 0 0 525.938 525.938;"
	 xml:space="preserve">
<g>
	<g>
		<path d="M518.173,66.938H7.765C3.481,66.938,0,70.418,0,74.702v3.586c0,4.293,3.481,7.774,7.765,7.774h510.398
			c4.294,0,7.774-3.481,7.774-7.765v-3.586C525.938,70.418,522.457,66.938,518.173,66.938z"/>
		<path d="M518.173,172.125H7.765c-4.284,0-7.765,3.481-7.765,7.765v3.586c0,4.293,3.481,7.774,7.765,7.774h510.398
			c4.294,0,7.774-3.481,7.774-7.765v-3.586C525.938,175.606,522.457,172.125,518.173,172.125z"/>
		<path d="M518.173,277.312H7.765c-4.284,0-7.765,3.48-7.765,7.765v3.586c0,4.294,3.481,7.774,7.765,7.774h510.398
			c4.294,0,7.774-3.48,7.774-7.765v-3.586C525.938,280.793,522.457,277.312,518.173,277.312z"/>
		<path d="M518.173,382.5H7.765C3.481,382.5,0,385.98,0,390.265v3.586c0,4.294,3.481,7.774,7.765,7.774h510.398
			c4.294,0,7.774-3.48,7.774-7.765v-3.586C525.938,385.98,522.457,382.5,518.173,382.5z"/>
		<rect x="19.125" y="95.625" width="19.125" height="66.938"/>
		<rect x="248.625" y="95.625" width="19.125" height="66.938"/>
		<rect x="258.188" y="306" width="19.125" height="66.938"/>
		<rect x="57.375" y="200.812" width="19.125" height="66.938"/>
		<rect x="19.125" y="306" width="19.125" height="66.938"/>
		<rect x="57.375" y="411.188" width="19.125" height="47.812"/>
		<rect x="487.688" y="95.625" width="19.125" height="66.938"/>
		<rect x="449.438" y="200.812" width="19.125" height="66.938"/>
		<rect x="487.688" y="306" width="19.125" height="66.938"/>
		<rect x="449.438" y="411.188" width="19.125" height="47.812"/>
		<path d="M47.812,95.625v66.938h191.25V95.625H47.812z M211.57,143.438c-5.938,0-10.758-4.819-10.758-10.758
			s4.819-10.758,10.758-10.758s10.758,4.819,10.758,10.758S217.509,143.438,211.57,143.438z"/>
		<path d="M286.875,306v66.938h191.25V306H286.875z M316.758,353.812c-5.938,0-10.758-4.819-10.758-10.758
			s4.819-10.758,10.758-10.758s10.758,4.819,10.758,10.758S322.696,353.812,316.758,353.812z"/>
	</g>
</g>
<g>
</g>
<g>
</g>
<g>
</g>
<g>
</g>
<g>
</g>
<g>
</g>
<g>
</g>
<g>
</g>
<g>
</g>
<g>
</g>
<g>
</g>
<g>
</g>
<g>
</g>
<g>
</g>
<g>
</g>
</svg>
