<?xml version="1.0" encoding="iso-8859-1"?>
<!-- Generator: Adobe Illustrator 16.0.0, SVG Export Plug-In . SVG Version: 6.00 Build 0)  -->
<!DOCTYPE svg PUBLIC "-//W3C//DTD SVG 1.1//EN" "http://www.w3.org/Graphics/SVG/1.1/DTD/svg11.dtd">
<svg version="1.1" id="Capa_1" xmlns="http://www.w3.org/2000/svg" xmlns:xlink="http://www.w3.org/1999/xlink" x="0px" y="0px"
	 width="542.27px" height="542.27px" viewBox="0 0 542.27 542.27" style="enable-background:new 0 0 542.27 542.27;"
	 xml:space="preserve">
<g>
	<g>
		<path d="M425.664,256.791c-14.707,14.114-24.039,34.779-24.039,57.872c0,22.559,8.922,42.792,23.035,56.878h18.398
			c0,5.278,4.285,9.562,9.562,9.562h8.023l-7.861,41.243l-0.162,1.788c0,6.789-5.393,14.344-9.045,14.344h-163.08v-57.375h9.562
			c5.279,0,9.562-4.284,9.562-9.562h18.801c14.123-14.086,23.035-34.311,23.035-56.878c0-23.093-9.332-43.758-24.039-57.872h-36.922
			V132.479h9.562c5.279,0,9.562-4.284,9.562-9.562h38.25l19.125-38.25H184.872l19.125,38.25h38.25c0,5.278,4.284,9.562,9.562,9.562
			h9.562v124.312h-36.519c-14.708,14.114-24.04,34.779-24.04,57.872c0,22.559,8.921,42.792,23.036,56.878h18.398
			c0,5.278,4.284,9.562,9.562,9.562h9.562v57.375H101.869c-4.954,0-12.623-8.711-12.623-14.344l-8.128-43.031h8.128
			c5.278,0,9.562-4.284,9.562-9.562h18.8c14.124-14.086,23.036-34.311,23.036-56.878c0-23.093-9.333-43.758-24.04-57.872H24.04
			C9.333,270.905,0,291.57,0,314.663c0,22.559,8.921,42.792,23.036,56.878h18.398c0,5.278,4.284,9.562,9.562,9.562h10.758
			l8.386,44.045c0.66,15.96,16.62,32.455,31.729,32.455h341.707c15.787,0,27.674-16.944,28.16-32.483l8.377-44.017h10.758
			c5.279,0,9.562-4.284,9.562-9.562h18.801c14.123-14.086,23.035-34.311,23.035-56.878c0-23.093-9.332-43.758-24.039-57.872H425.664
			L425.664,256.791z"/>
	</g>
</g>
<g>
</g>
<g>
</g>
<g>
</g>
<g>
</g>
<g>
</g>
<g>
</g>
<g>
</g>
<g>
</g>
<g>
</g>
<g>
</g>
<g>
</g>
<g>
</g>
<g>
</g>
<g>
</g>
<g>
</g>
</svg>
