<?xml version="1.0" encoding="iso-8859-1"?>
<!-- Generator: Adobe Illustrator 16.0.0, SVG Export Plug-In . SVG Version: 6.00 Build 0)  -->
<!DOCTYPE svg PUBLIC "-//W3C//DTD SVG 1.1//EN" "http://www.w3.org/Graphics/SVG/1.1/DTD/svg11.dtd">
<svg version="1.1" id="Capa_1" xmlns="http://www.w3.org/2000/svg" xmlns:xlink="http://www.w3.org/1999/xlink" x="0px" y="0px"
	 width="487.688px" height="487.688px" viewBox="0 0 487.688 487.688" style="enable-background:new 0 0 487.688 487.688;"
	 xml:space="preserve">
<g>
	<g>
		<rect x="224.719" y="277.312" width="38.25" height="162.562"/>
		<path d="M301.22,277.312v27.626c-10.176,3.528-17.529,13.091-17.529,24.471c0,14.362,11.639,26,26.002,26
			c14.361,0,26-11.638,26-26c0-10.548-6.312-19.584-15.338-23.667v-28.43H301.22z"/>
		<polygon points="262.97,258.188 301.22,258.188 320.345,258.188 431.909,258.188 410.413,0 406.407,0 77.275,0 55.778,258.188 
			224.719,258.188 		"/>
		<path d="M119.532,468.562v9.562c0,5.269,4.284,9.562,9.562,9.562h219.938c5.277,0,9.562-4.294,9.562-9.562v-9.562
			c0-5.269-4.285-9.562-9.562-9.562H129.094C123.816,459,119.532,463.294,119.532,468.562z"/>
	</g>
</g>
<g>
</g>
<g>
</g>
<g>
</g>
<g>
</g>
<g>
</g>
<g>
</g>
<g>
</g>
<g>
</g>
<g>
</g>
<g>
</g>
<g>
</g>
<g>
</g>
<g>
</g>
<g>
</g>
<g>
</g>
</svg>
