<svg xmlns="http://www.w3.org/2000/svg" width="97.391" height="97.391" style="enable-background:new 0 0 97.391 97.391" xml:space="preserve"><path d="M0 7.573h17.5v8.75H0v-8.75zm0 12.25h17.5v59.501H0V19.823zm3.208 48.489a5.469 5.469 0 1 0 10.938 0 5.468 5.468 0 0 0-5.469-5.47 5.47 5.47 0 0 0-5.469 5.47zM0 89.824h17.5v-7H0v7zM21 81.6v8.225h22.75v-8.268c-.929-.664-3.815-2.232-10.5-2.232-6.337-.001-10.384 1.419-12.25 2.275zm0-50.343c1.866.854 5.913 2.276 12.25 2.276 6.643-.001 9.536-1.55 10.5-2.245v-6.215H21v6.184zm0 3.789V77.81c2.534-.948 6.592-1.985 12.25-1.985 5.105 0 8.417.854 10.5 1.767V35.268c-2.083.91-5.395 1.765-10.5 1.765-5.658-.002-9.716-1.039-12.25-1.987zM80.859 7.18l-12 2.462 1.76 8.571 12-2.462-1.76-8.571zm14.42 70.289-11.998 2.463L71.32 21.643l12-2.462 11.959 58.288zM91.116 67.08c-.607-2.957-2.972-4.971-5.275-4.498-2.307.475-3.688 3.258-3.077 6.215.606 2.957 2.969 4.973 5.274 4.498 2.308-.473 3.687-3.254 3.078-6.215zm4.868 13.813-12.002 2.464 1.408 6.854 12-2.463-1.406-6.855zM49 16.323h17.5v-8.75H49v8.75zm0 73.501h17.5v-7H49v7zm0-19.25h17.5V28.573H49v42.001zm0 8.75h17.5v-5.25H49v5.25zm0-54.251h17.5v-5.25H49v5.25z"/></svg>