<svg xmlns="http://www.w3.org/2000/svg" width="467.151" height="467.151" style="enable-background:new 0 0 467.151 467.151" xml:space="preserve"><path d="M444.731 125.788c11.953-27.731-208.463-76.5-217.069-49.247-6.694-22.472-33.469-2.391-18.169 11.475-3.825-.479-8.128 2.869-12.432 9.562 24.863 2.391 51.16 6.693 63.113 15.3 2.869-1.435 6.216-2.391 9.562-2.391 9.085 0 17.691 5.737 20.082 14.344.478 2.391 1.912 8.606-2.391 15.3 8.605 12.91 13.387 38.25 15.3 66.459 3.347-1.434 7.172-1.913 10.997-.956 10.04 2.391 16.256 11.953 13.865 21.515-2.391 9.562-11.953 16.256-21.516 13.866-.479 0-.956-.479-1.435-.479v11.476c0 43.031-3.347 92.277-16.734 111.881.956 1.912 1.913 3.825 1.913 5.737 47.812 9.562 93.712 12.909 100.884 2.391 4.304 17.69 35.859 2.869 18.169-13.388 28.209 8.606 76.979-215.155 47.334-217.068 23.43-6.692 4.305-31.077-11.473-15.777zm-83.672 180.253c-3.347 1.913-13.865-8.605-23.428-23.906-9.562-15.3-15.301-29.644-11.953-31.556 3.347-1.913 13.865 8.606 23.428 23.906s15.3 29.643 11.953 31.556zm4.781-107.578c-15.3 10.041-29.644 15.3-31.557 11.953-1.912-3.347 8.606-13.866 23.906-23.428 15.301-9.562 29.645-15.3 31.557-11.953 1.913 2.869-8.606 13.388-23.906 23.428zm-73.631 13.866c-.479-10.041-1.913-20.082-3.825-29.644-1.913-10.041-4.781-19.603-8.128-29.166-2.391-6.694-7.65-13.388-6.694-12.909 12.909-8.606 5.737-20.082-3.825-20.082-6.215 0-12.909 8.606-11.953 7.172 1.435-10.519-28.209-17.69-65.981-20.559-14.344-.957-29.644-1.913-45.422-1.913-15.778 0-31.078.478-45.422 1.913-37.772 2.869-67.416 9.562-65.981 20.559.956 1.435-5.738-7.172-11.953-7.172-9.562 0-16.734 11.475-3.825 20.082.478-.479-4.781 5.737-6.694 12.909-2.869 9.562-5.737 19.125-8.128 29.166-1.913 10.041-2.869 20.082-3.825 29.644-.956 19.603-.478 39.684 0 58.809.478 20.081 1.435 40.162 4.781 60.243 1.913 11.476 3.825 26.775 11.953 35.859-.478.479-.956.479-.956.956-9.084 8.606.956 19.604 10.041 19.604 3.347 0 10.041-8.128 8.606-6.216 5.737 12.909 58.331 19.125 110.925 19.125s104.709-6.216 110.925-19.125c-.956-1.912 5.26 6.216 8.606 6.216 9.084 0 19.125-10.997 10.041-19.604-.479-.478-.957-.478-.957-.956 8.129-9.084 10.041-24.384 11.953-35.859 3.348-20.081 4.304-40.162 4.781-60.243 1.435-19.125 1.914-39.206.957-58.809zm-105.666-6.694c12.909-12.91 25.341-21.038 28.209-18.169s-5.738 15.3-18.169 28.209c-12.909 12.909-25.34 21.037-28.209 18.168-2.869-2.389 5.26-15.298 18.169-28.208zM78.965 187.466c2.869-2.869 15.3 5.738 28.209 18.169 12.909 12.91 21.038 25.34 18.168 28.209-2.869 2.868-15.3-5.737-28.209-18.168-12.431-12.909-20.559-25.819-18.168-28.21zm28.209 116.184c-12.91 12.91-25.341 21.038-28.209 18.169-2.869-2.868 5.737-15.3 18.169-28.209 12.909-12.909 25.34-21.038 28.209-18.169 3.347 2.391-5.26 15.3-18.169 28.209zm46.856-33.946c-2.391.956-4.781 1.435-7.172 1.435s-4.781-.479-7.172-1.435c-6.693-2.869-10.997-9.085-10.997-16.734 0-6.216 3.347-11.953 8.128-15.3 2.869-1.913 6.216-3.348 10.041-3.348s7.172.957 10.041 3.348c4.781 3.347 8.128 8.605 8.128 15.3 0 7.649-4.303 13.864-10.997 16.734zm60.722 52.115c-2.869 2.869-15.3-5.737-28.209-18.169-12.909-12.909-21.038-25.34-18.169-28.209 2.869-2.869 15.3 5.737 28.209 18.169 12.432 12.909 21.038 25.341 18.169 28.209z"/></svg>