<?xml version="1.0" encoding="iso-8859-1"?>
<!-- Generator: Adobe Illustrator 16.0.0, SVG Export Plug-In . SVG Version: 6.00 Build 0)  -->
<!DOCTYPE svg PUBLIC "-//W3C//DTD SVG 1.1//EN" "http://www.w3.org/Graphics/SVG/1.1/DTD/svg11.dtd">
<svg version="1.1" id="Capa_1" xmlns="http://www.w3.org/2000/svg" xmlns:xlink="http://www.w3.org/1999/xlink" x="0px" y="0px"
	 width="497.25px" height="497.25px" viewBox="0 0 497.25 497.25" style="enable-background:new 0 0 497.25 497.25;"
	 xml:space="preserve">
<g>
	<g>
		<path d="M487.688,162.562h-57.375H66.938H9.562V382.5h57.375h363.375h57.375V162.562z M248.625,344.25H66.938H47.812V200.812
			h19.125h181.688V344.25z M449.438,344.25h-19.125H286.875v-47.812h143.438h19.125V344.25z M449.438,267.75h-19.125H286.875
			v-66.938h143.438h19.125V267.75z"/>
		<path d="M14.344,143.438h468.562c7.918,0,14.344-6.426,14.344-14.344s-6.426-14.344-14.344-14.344H14.344
			C6.426,114.75,0,121.176,0,129.094S6.426,143.438,14.344,143.438z"/>
	</g>
</g>
<g>
</g>
<g>
</g>
<g>
</g>
<g>
</g>
<g>
</g>
<g>
</g>
<g>
</g>
<g>
</g>
<g>
</g>
<g>
</g>
<g>
</g>
<g>
</g>
<g>
</g>
<g>
</g>
<g>
</g>
</svg>
