<svg xmlns="http://www.w3.org/2000/svg" width="498.433" height="498.434" style="enable-background:new 0 0 498.433 498.434" xml:space="preserve"><path d="m158.715 218.669 125.747 21.038c7.172.956 13.388-3.347 14.822-10.519l.479-3.347c.956-7.172-3.348-13.387-10.52-14.822l-125.747-21.038c-7.172-.956-13.387 3.825-14.822 10.997l-.478 3.347c-.956 6.694 3.825 12.91 10.519 14.344z"/><path d="M476.19 376.929c-49.247 30.122-95.625 47.334-138.178 55.462l13.865-116.184 5.26-45.422C389.171 93.4 424.075 76.188 427.899 74.753c.479 0 2.391-.956 3.825.957l-.478-.479 31.556-28.688c-7.172-7.65-24.862-19.125-46.378-12.431-27.253 8.128-67.416 41.119-100.406 230.457l-117.141-19.604-28.688-4.781-17.69-3.347-4.303-.956-40.163 150.131c-50.681-32.99-79.369-70.284-82.237-73.631-4.781-6.216-13.866-7.65-20.082-2.869-6.215 4.781-7.65 13.866-2.869 20.081 27.253 36.338 86.062 88.453 161.128 115.707 38.25 13.865 76.979 21.037 116.185 21.037 69.328 0 140.091-21.994 211.331-65.503 6.694-4.304 9.085-12.909 4.781-19.604-4.302-6.214-12.908-8.126-20.08-4.301zm-189.815 61.677c-50.203 1.435-94.669-10.04-131.484-26.297l31.556-120.966 115.228 19.125-15.3 128.138z"/></svg>