<?xml version="1.0" encoding="iso-8859-1"?>
<!-- Generator: Adobe Illustrator 16.0.0, SVG Export Plug-In . SVG Version: 6.00 Build 0)  -->
<!DOCTYPE svg PUBLIC "-//W3C//DTD SVG 1.1//EN" "http://www.w3.org/Graphics/SVG/1.1/DTD/svg11.dtd">
<svg version="1.1" id="Capa_1" xmlns="http://www.w3.org/2000/svg" xmlns:xlink="http://www.w3.org/1999/xlink" x="0px" y="0px"
	 width="108.148px" height="108.148px" viewBox="0 0 108.148 108.148" style="enable-background:new 0 0 108.148 108.148;"
	 xml:space="preserve">
<g>
	<path d="M54.95,93.055h28.875c-0.089,0.613-0.089,1.229-0.177,1.75H24.413c-0.089-0.521-0.089-1.137-0.176-1.75h28.875V25.681
		h-2.274c0.35-0.524,0.524-1.138,0.524-1.75H56.7c0,0.612,0.264,1.226,0.524,1.75H54.95V93.055z M59.76,27.343
		c-0.174,0-0.262,0-0.438-0.088v0.088c2.102,9.975,8.4,28.786,26.949,33.161c0.438-0.699,1.312-1.226,2.188-1.226h10.674V26.907
		c-0.352,0.35-0.961,0.524-1.661,0.524c-0.175,0-0.263,0-0.438-0.087c-0.875-0.088-1.662-0.525-2.188-1.138
		c-0.088,0.087-0.176,0.175-0.264,0.263c-0.176,0.175-0.439,0.35-0.611,0.438c-0.525,0.262-1.139,0.524-1.75,0.524
		c-0.176,0-0.264,0-0.438-0.087c-0.875-0.088-1.662-0.525-2.188-1.138c-0.088,0.087-0.174,0.175-0.262,0.263
		c-0.613,0.612-1.488,0.962-2.451,0.962c-0.174,0-0.262,0-0.439-0.087c-0.875-0.088-1.662-0.525-2.188-1.138
		c0,0-0.176,0.175-0.264,0.263c-0.611,0.612-1.486,0.962-2.449,0.962c-0.176,0-0.264,0-0.438-0.087
		c-0.875-0.088-1.664-0.525-2.188-1.138c-0.088,0.087-0.267,0.263-0.267,0.263c-0.608,0.612-1.483,0.962-2.446,0.962
		c-0.179,0-0.267,0-0.438-0.087c-0.875-0.088-1.662-0.525-2.188-1.138c-0.089,0.087-0.177,0.175-0.265,0.263
		c-0.61,0.612-1.485,0.962-2.449,0.962c-0.176,0-0.262,0-0.438-0.087c-0.875-0.088-1.662-0.525-2.189-1.138
		c-0.086,0.087-0.174,0.175-0.262,0.263c-0.613,0.612-1.488,0.962-2.449,0.962c-0.176,0-0.264,0-0.438-0.087
		c-0.875-0.088-1.664-0.525-2.189-1.138c-0.088,0.087-0.174,0.175-0.262,0.263c-0.613,0.612-1.488,0.962-2.451,0.962
		C60.023,27.431,59.936,27.431,59.76,27.343z M92.225,68.205c-0.438,0-0.875-0.089-1.227-0.265
		c-2.977,7.438-4.551,18.287-5.338,25.111c-0.088,0.613-0.088,1.227-0.176,1.75c-0.176,1.576-0.262,2.801-0.351,3.588h14.089V68.205
		h-5.25H92.225z M99.311,61.119h-5.336h-1.75H89.6h-0.875c-0.524,0-0.875,0.438-0.875,0.875c0,0.264,0.086,0.522,0.351,0.698
		c0,0,0,0,0.09,0c0.086,0,0.086,0.09,0.174,0.09s0.265,0.087,0.351,0.087h0.789h2.711h1.487h0.351h5.338
		c0.088,0,0.264-0.087,0.352-0.087c0.35-0.178,0.523-0.438,0.523-0.788C100.186,61.555,99.751,61.119,99.311,61.119z M99.311,64.705
		h-5.336h-1.399h-0.351c-0.09,0-0.09,0-0.176,0c-0.438,0.088-0.699,0.438-0.699,0.875c0,0.088,0,0.174,0.086,0.264
		c0.088,0.175,0.176,0.351,0.354,0.438c0.086,0,0.086,0.086,0.174,0.086s0.265,0.088,0.351,0.088h1.75h5.338
		c0,0,0.088,0,0.264-0.088c0.352-0.176,0.523-0.438,0.523-0.787C100.186,65.055,99.751,64.705,99.311,64.705z M22.487,93.055
		c-0.699-6.301-2.1-16.271-4.725-23.625c-0.175-0.521-0.35-1.051-0.612-1.573c-0.35,0.178-0.788,0.264-1.225,0.264H8.838v30.273
		h14.087c0-0.787-0.087-2.015-0.262-3.589C22.574,94.282,22.574,93.668,22.487,93.055z M56.7,20.343v-5.338h-5.337v5.338h0.087H56.7
		z M105.523,15.005h-4.463v5.338h4.463c1.486,0,2.625-1.225,2.625-2.625C108.148,16.23,106.925,15.005,105.523,15.005z M0,17.63
		c0,1.489,1.225,2.625,2.625,2.625h4.462v-5.25H2.625C1.137,15.005,0,16.23,0,17.63z M8.574,62.869c0,0,0.176,0.088,0.264,0.088h5.6
		h1.487h1.75h0.962h0.788c0.087,0,0.263-0.088,0.35-0.088s0.087-0.087,0.175-0.087c0,0,0,0,0.089,0c0.175-0.178,0.35-0.438,0.35-0.7
		c0-0.525-0.438-0.875-0.875-0.875h-0.875h-0.875h-1.75H8.926c-0.525,0-0.875,0.438-0.875,0.875
		C8.05,62.43,8.313,62.782,8.574,62.869z M15.925,66.455c0.087,0,0.263,0,0.35-0.089c0.087,0,0.087-0.088,0.175-0.088
		c0.176-0.088,0.264-0.264,0.351-0.438c0-0.088,0.087-0.176,0.087-0.264c0-0.439-0.262-0.787-0.7-0.875c-0.087,0-0.087,0-0.175,0
		h-0.35H8.924c-0.525,0-0.875,0.438-0.875,0.875c-0.087,0.35,0.087,0.699,0.438,0.787c0.087,0,0.264,0.088,0.351,0.088h7.088
		L15.925,66.455L15.925,66.455z M17.5,59.369h1.75c0.962,0,1.75,0.438,2.188,1.227c5.075-1.227,9.275-3.414,12.688-6.301
		c0.524,0.35,0.875,0.788,1.312,1.137c0,0.089,0.087,0.089,0.087,0.177c0.525,0.612,1.226,1.227,1.925,1.926
		c2.538,2.449,4.9,4.199,5.163,3.852c0.264-0.352-1.574-2.537-4.111-4.988c-0.7-0.608-1.312-1.225-1.926-1.75
		c-0.087,0-0.087-0.087-0.175-0.087c-0.438-0.35-0.875-0.699-1.312-1.05c8.486-7.7,12.075-19.162,13.475-26.162
		c-0.263,0.087-0.524,0.087-0.875,0.087c-0.175,0-0.263,0-0.438-0.087c-0.875-0.088-1.663-0.524-2.188-1.138
		c-0.087,0.087-0.175,0.175-0.263,0.263c-0.612,0.612-1.487,0.962-2.45,0.962c-0.175,0-0.263,0-0.438-0.087
		c-0.875-0.088-1.663-0.524-2.188-1.138c-0.088,0.087-0.175,0.175-0.263,0.263c-0.612,0.612-1.487,0.962-2.45,0.962
		c-0.175,0-0.262,0-0.438-0.087c-0.875-0.088-1.661-0.524-2.188-1.138c-0.087,0.087-0.175,0.175-0.262,0.263
		c-0.613,0.612-1.488,0.962-2.45,0.962c-0.175,0-0.262,0-0.438-0.087c-0.875-0.088-1.663-0.524-2.188-1.138
		c-0.087,0.087-0.175,0.175-0.263,0.263c-0.612,0.612-1.487,0.962-2.449,0.962c-0.176,0-0.264,0-0.438-0.087
		c-0.875-0.088-1.663-0.524-2.188-1.138c-0.087,0.087-0.176,0.175-0.264,0.263c-0.611,0.612-1.486,0.962-2.449,0.962
		c-0.176,0-0.264,0-0.438-0.087c-0.875-0.088-1.663-0.524-2.188-1.138c-0.088,0.087-0.176,0.175-0.264,0.263
		c-0.175,0.175-0.438,0.351-0.611,0.438c-0.525,0.262-1.139,0.524-1.75,0.524c-0.176,0-0.264,0-0.438-0.087
		c-0.875-0.088-1.663-0.524-2.188-1.138c-0.087,0.087-0.175,0.175-0.263,0.263c-0.612,0.612-1.487,0.962-2.45,0.962
		c-0.175,0-0.263,0-0.438-0.087c-0.438-0.088-0.963-0.175-1.312-0.438c0,0.175,0,0.35,0,0.35v32.111h7.087H17.5V59.369z
		 M38.518,65.207c-2.562-2.425-4.882-4.134-5.181-3.816c-0.299,0.314,1.536,2.537,4.099,4.962c2.563,2.424,4.882,4.133,5.181,3.815
		C42.916,69.853,41.081,67.633,38.518,65.207z M72.925,66.332c2.562,2.424,4.884,4.133,5.183,3.815
		c0.299-0.316-1.537-2.539-4.101-4.963s-4.881-4.133-5.182-3.815C68.527,61.685,70.361,63.91,72.925,66.332z M72.921,59.233
		c2.562,2.429,4.884,4.138,5.183,3.818c0.299-0.316-1.535-2.537-4.099-4.961c-2.562-2.426-4.883-4.134-5.185-3.818
		C68.523,54.588,70.359,56.81,72.921,59.233z M10.588,25.768c0.962,0,1.75-0.788,1.75-1.75V11.505c0-0.962-0.788-1.75-1.75-1.75
		c-0.875,0-1.575,0.613-1.75,1.488v12.774C8.838,24.98,9.625,25.768,10.588,25.768z M15.925,25.768c0.962,0,1.75-0.788,1.75-1.75
		V11.505c0-0.962-0.788-1.75-1.75-1.75c-0.875,0-1.575,0.613-1.75,1.488v12.774C14.175,24.98,14.962,25.768,15.925,25.768z
		 M21.175,25.768c0.962,0,1.75-0.788,1.75-1.75V11.505c0.087-0.962-0.7-1.75-1.75-1.75c-0.875,0-1.575,0.614-1.75,1.489v12.774
		C19.425,24.98,20.212,25.768,21.175,25.768z M26.512,25.768c0.963,0,1.75-0.788,1.75-1.75V11.505c0-0.962-0.787-1.75-1.75-1.75
		c-0.875,0-1.575,0.613-1.75,1.488v12.774C24.762,24.98,25.55,25.768,26.512,25.768z M31.85,25.768c0.962,0,1.75-0.788,1.75-1.75
		V11.505c0-0.962-0.788-1.75-1.75-1.75c-0.875,0-1.575,0.613-1.75,1.488v12.774C30.1,24.98,30.887,25.768,31.85,25.768z
		 M37.188,25.768c0.962,0,1.75-0.788,1.75-1.75V11.505c0-0.962-0.788-1.75-1.75-1.75c-0.875,0-1.575,0.613-1.75,1.488v12.774
		C35.438,24.98,36.225,25.768,37.188,25.768z M42.525,25.768c0.962,0,1.75-0.788,1.75-1.75V11.505c0-0.962-0.788-1.75-1.75-1.75
		c-0.875,0-1.575,0.613-1.75,1.488v12.774C40.775,24.98,41.563,25.768,42.525,25.768z M47.775,25.768c0.962,0,1.75-0.788,1.75-1.75
		V11.505c0.087-0.962-0.7-1.75-1.75-1.75c-0.875,0-1.575,0.613-1.75,1.488v12.774C46.025,24.98,46.813,25.768,47.775,25.768z
		 M60.2,25.768c0.965,0,1.75-0.788,1.75-1.75V11.505c0.09-0.962-0.699-1.75-1.75-1.75c-0.875,0-1.574,0.613-1.75,1.488v12.774
		C58.45,24.98,59.236,25.768,60.2,25.768z M65.54,25.768c0.961,0,1.75-0.788,1.75-1.75V11.505c0-0.962-0.789-1.75-1.75-1.75
		c-0.875,0-1.576,0.613-1.75,1.488v12.774C63.79,24.98,64.575,25.768,65.54,25.768z M70.876,25.768c0.963,0,1.75-0.788,1.75-1.75
		V11.505c0-0.962-0.787-1.75-1.75-1.75c-0.875,0-1.574,0.613-1.75,1.488v12.774C69.126,24.98,69.915,25.768,70.876,25.768z
		 M76.212,25.768c0.963,0,1.75-0.788,1.75-1.75V11.505c0-0.962-0.787-1.75-1.75-1.75c-0.875,0-1.575,0.613-1.75,1.488v12.774
		C74.462,24.98,75.251,25.768,76.212,25.768z M81.462,25.768c0.963,0,1.75-0.788,1.75-1.75V11.505c0.088-0.962-0.702-1.75-1.75-1.75
		c-0.875,0-1.575,0.613-1.75,1.488v12.774C79.712,24.98,80.501,25.768,81.462,25.768z M86.8,25.768c0.962,0,1.75-0.788,1.75-1.75
		V11.505c0.085-0.962-0.79-1.75-1.75-1.75c-0.875,0-1.573,0.613-1.75,1.488v12.774C85.05,24.98,85.839,25.768,86.8,25.768z
		 M92.135,25.768c0.965,0,1.75-0.788,1.75-1.75V11.505c0-0.962-0.785-1.75-1.75-1.75c-0.875,0-1.574,0.613-1.75,1.488v12.774
		C90.385,24.98,91.175,25.768,92.135,25.768z M97.475,25.768c0.961,0,1.75-0.788,1.75-1.75V11.505c0-0.962-0.789-1.75-1.75-1.75
		c-0.875,0-1.576,0.613-1.75,1.488v12.774C95.725,24.98,96.51,25.768,97.475,25.768z"/>
</g>
<g>
</g>
<g>
</g>
<g>
</g>
<g>
</g>
<g>
</g>
<g>
</g>
<g>
</g>
<g>
</g>
<g>
</g>
<g>
</g>
<g>
</g>
<g>
</g>
<g>
</g>
<g>
</g>
<g>
</g>
</svg>
