<svg xmlns="http://www.w3.org/2000/svg" width="417.54" height="417.541" style="enable-background:new 0 0 417.54 417.541" xml:space="preserve"><path d="M386.679 51.241c29.396-17.538-3.652-44.542-20.416-19.699 6.302-41.386-310.972-42.046-315.017-1.979C35.439.512 4.39 36.391 29.5 51.241c-39.426 4.303-39.331 312.12.268 315.056-21.841 13.272 4.265 43.729 21.86 18.407-12.852 41.731 296.724 43.691 313.965 5.843 11.504 22.653 49.744-7.363 21.43-24.25 40.803.889 40.689-317.8-.344-315.056zM154.358 280.235c-18.226 18.226-36.117 29.873-39.971 26.028-3.854-3.854 7.803-21.745 26.029-39.971 18.226-18.227 36.118-29.873 39.971-26.029 3.844 3.844-7.803 21.745-26.029 39.972zm26.02-98.294c-3.854 3.854-21.745-7.803-39.972-26.029-18.226-18.227-29.873-36.118-26.029-39.972 3.854-3.854 21.745 7.803 39.971 26.029 18.236 18.227 29.883 36.128 26.03 39.972zm28.4 52.623c-14.248 0-25.79-11.552-25.79-25.79 0-14.248 11.551-25.8 25.79-25.8 14.238 0 25.79 11.552 25.79 25.8s-11.542 25.79-25.79 25.79zm95.912 71.69c-3.854 3.854-21.745-7.804-39.972-26.029-18.226-18.227-29.873-36.118-26.029-39.972 3.854-3.854 21.745 7.804 39.972 26.029 18.235 18.227 29.883 36.128 26.029 39.972zm-26.019-150.332c-18.227 18.226-36.118 29.874-39.972 26.029-3.854-3.854 7.803-21.745 26.029-39.971 18.226-18.226 36.117-29.874 39.972-26.029 3.844 3.844-7.804 21.745-26.029 39.971z"/></svg>