<?xml version="1.0" encoding="iso-8859-1"?>
<!-- Generator: Adobe Illustrator 16.0.0, SVG Export Plug-In . SVG Version: 6.00 Build 0)  -->
<!DOCTYPE svg PUBLIC "-//W3C//DTD SVG 1.1//EN" "http://www.w3.org/Graphics/SVG/1.1/DTD/svg11.dtd">
<svg version="1.1" id="Capa_1" xmlns="http://www.w3.org/2000/svg" xmlns:xlink="http://www.w3.org/1999/xlink" x="0px" y="0px"
	 width="554.625px" height="554.625px" viewBox="0 0 554.625 554.625" style="enable-background:new 0 0 554.625 554.625;"
	 xml:space="preserve">
<g>
	<g>
		<polygon points="9.562,90.844 411.188,90.844 411.188,62.156 47.812,62.156 		"/>
		<polygon points="439.875,62.156 439.875,90.844 535.5,90.844 497.25,62.156 		"/>
		<polygon points="411.188,129.094 411.188,100.406 47.812,100.406 9.562,129.094 		"/>
		<polygon points="439.875,100.406 439.875,129.094 535.5,129.094 497.25,100.406 		"/>
		<polygon points="411.188,167.344 411.188,138.656 47.812,138.656 9.562,167.344 		"/>
		<polygon points="439.875,138.656 439.875,167.344 535.5,167.344 497.25,138.656 		"/>
		<polygon points="439.875,176.906 439.875,205.594 535.5,205.594 497.25,176.906 		"/>
		<polygon points="411.188,205.594 411.188,176.906 47.812,176.906 9.562,205.594 		"/>
		<polygon points="411.188,243.844 411.188,215.156 47.812,215.156 9.562,243.844 		"/>
		<polygon points="439.875,215.156 439.875,243.844 535.5,243.844 497.25,215.156 		"/>
		<polygon points="411.188,282.094 411.188,253.406 47.812,253.406 9.562,282.094 		"/>
		<polygon points="439.875,253.406 439.875,282.094 535.5,282.094 497.25,253.406 		"/>
		<polygon points="411.188,320.344 411.188,291.656 47.812,291.656 9.562,320.344 		"/>
		<polygon points="439.875,291.656 439.875,320.344 535.5,320.344 497.25,291.656 		"/>
		<polygon points="411.188,358.594 411.188,329.906 47.812,329.906 9.562,358.594 		"/>
		<polygon points="439.875,329.906 439.875,358.594 535.5,358.594 497.25,329.906 		"/>
		<polygon points="439.875,368.156 439.875,396.844 535.5,396.844 497.25,368.156 		"/>
		<polygon points="411.188,396.844 411.188,368.156 47.812,368.156 9.562,396.844 		"/>
		<polygon points="439.875,406.406 439.875,435.094 535.5,435.094 497.25,406.406 		"/>
		<polygon points="411.188,435.094 411.188,406.406 47.812,406.406 9.562,435.094 		"/>
		<path d="M403.652,473.344c1.654-3.768,4.294-6.98,7.535-9.438v-19.249H47.812l-38.25,28.688H403.652z"/>
		<path d="M439.875,444.656v19.249c3.251,2.458,5.881,5.671,7.535,9.438h88.09l-38.25-28.688H439.875z"/>
		<path d="M449.438,482.906c0,13.177-10.72,23.906-23.906,23.906s-23.906-10.729-23.906-23.906H47.812l-38.25,28.688H535.5
			l-38.25-28.688H449.438z"/>
		<polygon points="47.812,521.156 9.562,549.844 535.5,549.844 497.25,521.156 		"/>
		<path d="M430.312,459.487v-14.831v-9.562v-28.688v-9.562v-28.688v-9.562v-28.688v-9.562v-28.688v-9.562v-28.688v-9.562v-28.688
			v-9.562v-28.688v-9.562v-28.688v-9.562v-28.688v-9.562V62.156h-9.562v28.688v9.562v28.688v9.562v28.688v9.562v28.688v9.562v28.688
			v9.562v28.688v9.562v28.688v9.562v28.688v9.562v28.688v9.562v28.688v9.562v14.831c1.549-0.315,3.146-0.487,4.781-0.487
			S428.764,459.172,430.312,459.487z"/>
		<polygon points="0,52.594 411.188,52.594 420.75,52.594 430.312,52.594 439.875,52.594 554.625,52.594 554.625,4.781 0,4.781 		
			"/>
		<path d="M414.917,473.344c-2.295,2.544-3.729,5.871-3.729,9.562c0,7.908,6.436,14.344,14.344,14.344s14.344-6.436,14.344-14.344
			c0-3.691-1.435-7.019-3.729-9.562c-1.578-1.75-3.566-3.089-5.833-3.901c-1.501-0.536-3.099-0.88-4.781-0.88
			s-3.28,0.344-4.781,0.88C418.483,470.255,416.495,471.594,414.917,473.344z"/>
	</g>
</g>
<g>
</g>
<g>
</g>
<g>
</g>
<g>
</g>
<g>
</g>
<g>
</g>
<g>
</g>
<g>
</g>
<g>
</g>
<g>
</g>
<g>
</g>
<g>
</g>
<g>
</g>
<g>
</g>
<g>
</g>
</svg>
