<?xml version="1.0" encoding="iso-8859-1"?>
<!-- Generator: Adobe Illustrator 16.0.0, SVG Export Plug-In . SVG Version: 6.00 Build 0)  -->
<!DOCTYPE svg PUBLIC "-//W3C//DTD SVG 1.1//EN" "http://www.w3.org/Graphics/SVG/1.1/DTD/svg11.dtd">
<svg version="1.1" id="Capa_1" xmlns="http://www.w3.org/2000/svg" xmlns:xlink="http://www.w3.org/1999/xlink" x="0px" y="0px"
	 width="498.433px" height="498.434px" viewBox="0 0 498.433 498.434" style="enable-background:new 0 0 498.433 498.434;"
	 xml:space="preserve">
<g>
	<g>
		<path d="M158.715,218.669l125.747,21.038c7.172,0.956,13.388-3.347,14.822-10.519l0.479-3.347
			c0.956-7.172-3.348-13.387-10.52-14.822l-125.747-21.038c-7.172-0.956-13.387,3.825-14.822,10.997l-0.478,3.347
			C147.24,211.019,152.021,217.235,158.715,218.669z"/>
		<path d="M476.19,376.929c-49.247,30.122-95.625,47.334-138.178,55.462l13.865-116.184l5.26-45.422l0,0
			C389.171,93.4,424.075,76.188,427.899,74.753c0.479,0,2.391-0.956,3.825,0.957l-0.478-0.479l31.556-28.688
			c-7.172-7.65-24.862-19.125-46.378-12.431c-27.253,8.128-67.416,41.119-100.406,230.457l-117.141-19.604l-28.688-4.781
			l-17.69-3.347l-4.303-0.956l-40.163,150.131c-50.681-32.99-79.369-70.284-82.237-73.631c-4.781-6.216-13.866-7.65-20.082-2.869
			c-6.215,4.781-7.65,13.866-2.869,20.081c27.253,36.338,86.062,88.453,161.128,115.707c38.25,13.865,76.979,21.037,116.185,21.037
			c69.328,0,140.091-21.994,211.331-65.503c6.694-4.304,9.085-12.909,4.781-19.604C491.968,375.016,483.362,373.104,476.19,376.929z
			 M286.375,438.606c-50.203,1.435-94.669-10.04-131.484-26.297l31.556-120.966l115.228,19.125L286.375,438.606z"/>
	</g>
</g>
<g>
</g>
<g>
</g>
<g>
</g>
<g>
</g>
<g>
</g>
<g>
</g>
<g>
</g>
<g>
</g>
<g>
</g>
<g>
</g>
<g>
</g>
<g>
</g>
<g>
</g>
<g>
</g>
<g>
</g>
</svg>
