<svg xmlns="http://www.w3.org/2000/svg" width="592.875" height="592.875" style="enable-background:new 0 0 592.875 592.875" xml:space="preserve"><path d="M412.144 254.362c11.953 0 39.685-3.825 39.685-36.815 0-42.075-26.775-22.95-26.775-47.334s10.041-31.556 10.041-31.556h4.781c2.869 0 4.781-1.913 4.781-4.781s-1.912-4.781-4.781-4.781H382.5c-2.869 0-4.781 1.913-4.781 4.781s1.912 4.781 4.781 4.781h4.303s11.476 6.694 11.476 31.556c0 24.863-27.253 5.259-27.253 47.334 0 32.991 27.253 36.815 39.206 36.815h1.912zM0 406.406h592.875V262.969H0v143.437zm315.562-114.75h239.062v86.062H315.562v-86.062zm-277.312 0h239.062v86.062H38.25v-86.062zM19.125 425.531h47.812v38.25H19.125zM525.938 425.531h47.812v38.25h-47.812z"/></svg>