<svg xmlns="http://www.w3.org/2000/svg" width="554.625" height="554.625" style="enable-background:new 0 0 554.625 554.625" xml:space="preserve"><path d="M9.562 90.844h401.626V62.156H47.812zM439.875 62.156v28.688H535.5l-38.25-28.688zM411.188 129.094v-28.688H47.812l-38.25 28.688zM439.875 100.406v28.688H535.5l-38.25-28.688zM411.188 167.344v-28.688H47.812l-38.25 28.688zM439.875 138.656v28.688H535.5l-38.25-28.688zM439.875 176.906v28.688H535.5l-38.25-28.688zM411.188 205.594v-28.688H47.812l-38.25 28.688zM411.188 243.844v-28.688H47.812l-38.25 28.688zM439.875 215.156v28.688H535.5l-38.25-28.688zM411.188 282.094v-28.688H47.812l-38.25 28.688zM439.875 253.406v28.688H535.5l-38.25-28.688zM411.188 320.344v-28.688H47.812l-38.25 28.688zM439.875 291.656v28.688H535.5l-38.25-28.688zM411.188 358.594v-28.688H47.812l-38.25 28.688zM439.875 329.906v28.688H535.5l-38.25-28.688zM439.875 368.156v28.688H535.5l-38.25-28.688zM411.188 396.844v-28.688H47.812l-38.25 28.688zM439.875 406.406v28.688H535.5l-38.25-28.688zM411.188 435.094v-28.688H47.812l-38.25 28.688zM403.652 473.344c1.654-3.768 4.294-6.98 7.535-9.438v-19.249H47.812l-38.25 28.688h394.09zM439.875 444.656v19.249c3.251 2.458 5.881 5.671 7.535 9.438h88.09l-38.25-28.688h-57.375zM449.438 482.906c0 13.177-10.72 23.906-23.906 23.906s-23.906-10.729-23.906-23.906H47.812l-38.25 28.688H535.5l-38.25-28.688h-47.812zM47.812 521.156l-38.25 28.688H535.5l-38.25-28.688zM430.312 459.487V62.156h-9.562v397.331c1.549-.315 3.146-.487 4.781-.487s3.233.172 4.781.487zM0 52.594h554.625V4.781H0z"/><path d="M414.917 473.344c-2.295 2.544-3.729 5.871-3.729 9.562 0 7.908 6.436 14.344 14.344 14.344s14.344-6.436 14.344-14.344c0-3.691-1.435-7.019-3.729-9.562a14.334 14.334 0 0 0-5.833-3.901c-1.501-.536-3.099-.88-4.781-.88s-3.28.344-4.781.88a14.328 14.328 0 0 0-5.835 3.901z"/></svg>