<svg xmlns="http://www.w3.org/2000/svg" width="463.781" height="463.781" style="enable-background:new 0 0 463.781 463.781" xml:space="preserve"><path d="M344.25 319.388zM320.344 281.138H133.875c-8.128 0-14.344 6.215-14.344 14.344v9.562c0 8.127 6.216 14.344 14.344 14.344h191.25c8.128 0 14.344-6.217 14.344-14.344v-9.562c0-8.129-6.216-14.344-14.344-14.344h-4.781zM396.365 147.262C379.631 74.587 314.606 20.081 236.672 20.081c-79.369 0-145.35 55.94-160.65 131.006 24.384 9.084 41.597 32.99 41.597 61.2v65.981c4.303-3.824 10.041-6.693 16.256-6.693h191.25c7.65 0 14.344 3.824 18.646 9.084 0-31.078-.478-65.503-.478-68.85.001-30.122 23.429-57.853 53.072-64.547zM160.65 224.24c-6.694 6.694-12.909 11.476-13.387 10.997-.479-.479 4.303-6.694 10.997-13.388s12.91-11.475 13.388-10.997c.477.479-4.304 6.694-10.998 13.388zm-2.869-38.25c-6.694-6.694-11.475-12.909-10.997-13.387.479-.479 6.694 4.303 13.388 10.997s11.475 12.91 10.997 13.388c-.479.477-6.694-4.304-13.388-10.998zm2.869-47.812c-6.694 6.694-12.909 11.475-13.387 10.997-.479-.478 4.303-6.694 10.997-13.388s12.91-11.475 13.388-10.997c.477.479-4.304 6.694-10.998 13.388zm-2.869-38.25c-6.694-6.694-11.475-12.909-10.997-13.387.479-.479 6.694 4.303 13.388 10.997s11.475 12.91 10.997 13.388c-.479.477-6.694-4.304-13.388-10.998zm21.038 108.534c-3.347 0-5.738-2.391-5.738-5.738 0-3.347 2.391-5.737 5.738-5.737 3.347 0 5.737 2.391 5.737 5.737 0 3.348-2.39 5.738-5.737 5.738zm0-86.062c-3.347 0-5.738-2.391-5.738-5.738 0-3.347 2.391-5.737 5.738-5.737 3.347 0 5.737 2.391 5.737 5.737 0 3.347-2.39 5.738-5.737 5.738zm17.69 101.84c-6.694-6.694-11.475-12.909-10.997-13.387.478-.479 6.693 4.303 13.388 10.997 6.693 6.694 11.475 12.909 10.996 13.388-.956.478-6.693-4.304-13.387-10.998zm2.391-38.25c-6.694 6.694-12.91 11.475-13.388 10.997-.479-.478 4.303-6.694 10.997-13.388s12.91-11.475 13.387-10.997c.479.479-4.302 6.694-10.996 13.388zm-2.391-47.812c-6.694-6.694-11.475-12.909-10.997-13.387.478-.479 6.693 4.303 13.388 10.997 6.693 6.694 11.475 12.91 10.996 13.388-.956.477-6.693-4.304-13.387-10.998zm2.391-38.25c-6.694 6.694-12.91 11.475-13.388 10.997-.479-.478 4.303-6.694 10.997-13.388s12.91-11.475 13.387-10.997c.479.479-4.302 6.694-10.996 13.388zm66.938 124.312c-6.694 6.694-12.91 11.476-13.388 10.997-.956-.957 4.303-6.694 10.997-13.388 6.693-6.694 12.909-11.475 13.387-10.997.478.479-4.303 6.694-10.996 13.388zm-2.869-38.25c-6.693-6.694-11.475-12.909-10.997-13.387.479-.479 6.694 4.303 13.388 10.997s11.475 12.91 10.997 13.388c-.479.477-6.695-4.304-13.388-10.998zm2.869-47.812c-6.694 6.694-12.91 11.475-13.388 10.997-.956-.957 4.303-6.694 10.997-13.388 6.693-6.694 12.909-11.475 13.387-10.997.478.479-4.303 6.694-10.996 13.388zm-2.869-38.25c-6.693-6.694-11.475-12.909-10.997-13.387.479-.479 6.694 4.303 13.388 10.997s11.475 12.91 10.997 13.388c-.479.477-6.695-4.304-13.388-10.998zm21.037 108.534c-3.347 0-5.737-2.391-5.737-5.738 0-3.347 2.391-5.737 5.737-5.737 3.348 0 5.738 2.391 5.738 5.737 0 3.348-2.39 5.738-5.738 5.738zm0-86.062c-3.347 0-5.737-2.391-5.737-5.738 0-3.347 2.391-5.737 5.737-5.737 3.348 0 5.738 2.391 5.738 5.737 0 3.347-2.39 5.738-5.738 5.738zm17.691 101.84c-6.694-6.694-11.476-12.909-10.997-13.387.478-.479 6.693 4.303 13.388 10.997 6.693 6.694 11.475 12.909 10.996 13.388-.956.478-6.693-4.304-13.387-10.998zm2.391-38.25c-6.694 6.694-12.91 11.475-13.388 10.997-.479-.478 4.303-6.694 10.997-13.388 6.693-6.694 12.909-11.475 13.387-10.997.478.479-4.303 6.694-10.996 13.388zm-2.391-47.812c-6.694-6.694-11.476-12.909-10.997-13.387.478-.479 6.693 4.303 13.388 10.997 6.693 6.694 11.475 12.91 10.996 13.388-.956.477-6.693-4.304-13.387-10.998zm2.391-38.25c-6.694 6.694-12.91 11.475-13.388 10.997-.479-.478 4.303-6.694 10.997-13.388 6.693-6.694 12.909-11.475 13.387-10.997.478.479-4.303 6.694-10.996 13.388z"/><path d="M409.753 155.39c-3.825 0-8.128.479-11.953 1.435-24.862 5.737-44.943 29.166-44.943 55.462 0 6.216.956 116.663.956 116.663H108.056s-.478-114.75-.478-117.141c0-22.472-13.388-43.509-32.991-52.116-6.215-2.869-13.387-4.303-20.559-4.303C24.384 155.39 0 179.775 0 209.418c0 29.643 21.038 54.506 51.159 54.506h1.913v179.775h47.812v-28.688H349.51V443.7h47.812V263.925h8.605c30.122 0 57.854-24.385 57.854-54.506-.956-29.644-23.906-54.029-54.028-54.029zm-353.334 61.2c-4.303 0-8.128-3.825-8.128-8.128s3.825-8.128 8.128-8.128 8.128 3.825 8.128 8.128-3.347 8.128-8.128 8.128zm353.812 0c-4.304 0-8.128-3.825-8.128-8.128s3.824-8.128 8.128-8.128c4.303 0 8.128 3.825 8.128 8.128s-3.346 8.128-8.128 8.128z"/></svg>