<svg xmlns="http://www.w3.org/2000/svg" width="478.125" height="478.125" style="enable-background:new 0 0 478.125 478.125" xml:space="preserve"><path d="M186.469 447.496v30.629h105.188v-29.462a229.142 229.142 0 0 1-50.203 5.556c-19.355 0-37.83-2.448-54.985-6.723zM291.656 259.173v-77.485h-114.75v81.395c-49.438 15.521-83.672 48.157-83.672 85.948s34.234 70.428 83.672 85.947c3.137.985 6.302 1.932 9.562 2.783 17.021 4.408 35.544 6.895 54.984 6.895 17.643 0 34.502-2.104 50.203-5.767 3.232-.755 6.436-1.529 9.562-2.419 52.02-14.86 88.453-48.434 88.453-87.439.002-41.348-40.954-76.548-98.014-89.858zM52.594 172.125h372.937V0H52.594z"/></svg>