<?xml version="1.0" encoding="iso-8859-1"?>
<!-- Generator: Adobe Illustrator 16.0.0, SVG Export Plug-In . SVG Version: 6.00 Build 0)  -->
<!DOCTYPE svg PUBLIC "-//W3C//DTD SVG 1.1//EN" "http://www.w3.org/Graphics/SVG/1.1/DTD/svg11.dtd">
<svg version="1.1" id="Capa_1" xmlns="http://www.w3.org/2000/svg" xmlns:xlink="http://www.w3.org/1999/xlink" x="0px" y="0px"
	 width="417.54px" height="417.541px" viewBox="0 0 417.54 417.541" style="enable-background:new 0 0 417.54 417.541;"
	 xml:space="preserve">
<g>
	<g>
		<path d="M386.679,51.241c29.396-17.538-3.652-44.542-20.416-19.699c6.302-41.386-310.972-42.046-315.017-1.979
			C35.439,0.512,4.39,36.391,29.5,51.241c-39.426,4.303-39.331,312.12,0.268,315.056c-21.841,13.272,4.265,43.729,21.86,18.407
			c-12.852,41.731,296.724,43.691,313.965,5.843c11.504,22.653,49.744-7.363,21.43-24.25
			C427.826,367.186,427.712,48.497,386.679,51.241z M154.358,280.235c-18.226,18.226-36.117,29.873-39.971,26.028
			c-3.854-3.854,7.803-21.745,26.029-39.971c18.226-18.227,36.118-29.873,39.971-26.029
			C184.231,244.107,172.584,262.008,154.358,280.235z M180.378,181.941c-3.854,3.854-21.745-7.803-39.972-26.029
			c-18.226-18.227-29.873-36.118-26.029-39.972c3.854-3.854,21.745,7.803,39.971,26.029
			C172.584,160.196,184.231,178.097,180.378,181.941z M208.778,234.564c-14.248,0-25.79-11.552-25.79-25.79
			c0-14.248,11.551-25.8,25.79-25.8c14.238,0,25.79,11.552,25.79,25.8S223.026,234.564,208.778,234.564z M304.69,306.254
			c-3.854,3.854-21.745-7.804-39.972-26.029c-18.226-18.227-29.873-36.118-26.029-39.972c3.854-3.854,21.745,7.804,39.972,26.029
			C296.896,284.509,308.544,302.41,304.69,306.254z M278.671,155.922c-18.227,18.226-36.118,29.874-39.972,26.029
			c-3.854-3.854,7.803-21.745,26.029-39.971c18.226-18.226,36.117-29.874,39.972-26.029
			C308.544,119.795,296.896,137.696,278.671,155.922z"/>
	</g>
</g>
<g>
</g>
<g>
</g>
<g>
</g>
<g>
</g>
<g>
</g>
<g>
</g>
<g>
</g>
<g>
</g>
<g>
</g>
<g>
</g>
<g>
</g>
<g>
</g>
<g>
</g>
<g>
</g>
<g>
</g>
</svg>
