<svg xmlns="http://www.w3.org/2000/svg" width="550.322" height="550.322" style="enable-background:new 0 0 550.322 550.322" xml:space="preserve"><path d="M536.456 67.416h-22.472v26.775h22.472c7.172 0 13.866-5.738 13.866-13.866 0-6.694-5.737-12.909-13.866-12.909zM35.859 67.416H13.866C6.694 67.416 0 73.153 0 81.281c0 7.172 5.738 13.866 13.866 13.866h22.472V67.416h-.479zM261.535 67.416h26.775v26.775h-26.775zM44.944 495.816c0 7.172 9.562 13.865 18.647 13.865s14.822-3.826 17.212-9.084c.478-1.436.957-2.869.957-4.781 0 1.434.478 3.346 1.434 4.781 3.825 5.258 12.431 9.084 21.038 9.084s17.69-3.826 21.038-9.084c.956-1.436 1.434-2.869 1.434-4.781 0 1.434.479 3.346 1.435 4.781 3.825 5.258 12.431 9.084 21.038 9.084 8.606 0 17.69-3.826 21.038-9.084.956-1.436 1.434-2.869 1.434-4.781 0 1.434.478 3.346 1.435 4.781 3.825 5.258 12.431 9.084 21.038 9.084 8.606 0 17.69-3.826 21.037-9.084.957-1.436 1.435-2.869 1.435-4.781 0 1.434.478 3.346.956 4.781 2.391 5.258 8.128 9.084 17.213 9.084 8.606 0 14.822-3.826 17.212-9.084.478-1.436.956-2.869.956-4.781V128.138c-2.869 1.434-6.215 2.391-9.084 2.391h-2.391c-4.781-.478-8.128-2.869-11.475-5.738l-1.435 1.435c-3.347 3.347-7.172 5.259-12.431 5.259h-2.391c-4.781-.478-8.128-2.869-11.475-5.737l-1.435 1.434c-.478 2.391-5.259 4.303-9.562 4.303h-2.391c-4.781-.478-8.128-2.869-11.475-5.737l-1.435 1.434c-3.347 2.869-7.172 4.781-11.953 4.781h-2.391c-4.781-.478-8.128-2.869-11.475-5.737l-1.434 1.435c-3.347 3.347-7.172 5.259-12.432 5.259h-2.391c-4.781-.478-8.128-2.869-11.475-5.738l-1.435 1.435c-3.347 3.347-7.172 5.259-12.431 5.259h-2.391c-4.781-.478-8.128-2.869-11.475-5.737 0-.478-.478 0-.478.478-3.347 3.347-7.172 5.259-12.431 5.259h-2.391c-4.781-.478-8.128-2.869-11.475-5.737l-1.435 1.434c-3.347 3.347-7.172 5.26-12.431 5.26h-2.391c-2.391-.479-4.781-.957-6.694-2.391V495.816h.002zM297.394 495.816c0 7.172 9.562 13.865 18.169 13.865s14.822-3.826 17.213-9.084c.478-1.436.956-2.869.956-4.781 0 1.434.479 3.346 1.435 4.781 3.825 5.258 12.431 9.084 21.037 9.084s17.69-3.826 21.038-9.084c.956-1.436 1.434-2.869 1.434-4.781 0 1.434.479 3.346 1.435 4.781 3.825 5.258 12.432 9.084 21.038 9.084 8.605 0 17.69-3.826 21.037-9.084.956-1.436 1.435-2.869 1.435-4.781 0 1.434.478 3.346 1.435 4.781 3.825 5.258 12.431 9.084 21.037 9.084s17.69-3.826 21.038-9.084c.956-1.436 1.434-2.869 1.434-4.781 0 1.434.479 3.346.957 4.781 2.391 5.258 8.128 9.084 17.212 9.084 8.606 0 14.822-3.826 17.213-9.084.478-1.436.956-2.869.956-4.781V128.138c-2.869 1.434-6.216 2.391-9.085 2.391h-2.391c-4.781-.478-8.128-2.869-11.475-5.738l-1.435 1.435c-3.347 3.347-7.172 5.259-12.431 5.259h-2.391c-4.781-.478-8.129-2.869-11.476-5.737l-1.435 1.434c-.478 2.391-5.259 4.303-9.562 4.303h-2.391c-4.781-.478-8.128-2.869-11.475-5.737l-1.435 1.434c-3.347 2.869-7.172 4.781-11.953 4.781h-2.391c-4.781-.478-8.128-2.869-11.475-5.737l-1.435 1.435c-3.347 3.347-7.172 5.259-12.432 5.259h-2.391c-4.781-.478-8.128-2.869-11.475-5.738l-1.435 1.435c-3.347 3.347-7.172 5.259-12.431 5.259h-2.391c-4.781-.478-8.129-2.869-11.476-5.737 0-.478-.478 0-.478.478-3.348 3.347-7.172 5.259-12.432 5.259h-2.391c-4.781-.478-8.128-2.869-11.475-5.737l-1.435 1.434c-3.347 3.347-7.172 5.26-12.432 5.26h-2.391c-2.391-.479-4.781-.957-6.693-2.391v1.912l.485 361.462zM54.506 40.641c-4.781 0-8.128 3.347-8.606 7.172v65.025c0 5.26 4.303 9.084 8.606 9.084s9.084-4.303 9.084-9.084v-63.59c-.477-4.304-4.78-8.607-9.084-8.607zM81.281 40.641c-4.781 0-8.128 3.347-8.606 7.172v65.025c0 5.26 4.303 9.084 8.606 9.084s9.084-4.303 9.084-9.084v-63.59c-.477-4.304-4.303-8.607-9.084-8.607zM108.057 40.641c-4.781 0-8.128 3.347-8.606 7.172v65.025c0 5.26 4.303 9.084 8.606 9.084s9.084-4.303 9.084-9.084v-63.59c0-4.304-3.825-8.607-9.084-8.607zM135.31 40.641c-4.781 0-8.128 3.347-8.606 7.172v65.025c0 5.26 4.303 9.084 8.606 9.084 4.781 0 9.084-4.303 9.084-9.084v-63.59c0-4.304-4.303-8.607-9.084-8.607zM162.084 40.641c-4.781 0-8.128 3.347-8.606 7.172v65.025c0 5.26 4.303 9.084 8.606 9.084 4.781 0 9.084-4.303 9.084-9.084v-63.59c.001-4.304-3.824-8.607-9.084-8.607zM189.338 40.641c-4.781 0-8.128 3.347-8.606 7.172v65.025c0 5.26 4.303 9.084 8.606 9.084 5.259 0 9.084-4.303 9.084-9.084v-63.59c0-4.304-3.825-8.607-9.084-8.607zM216.591 40.641c-4.781 0-8.128 3.347-8.606 7.172v65.025c0 5.26 4.303 9.084 8.606 9.084 4.781 0 9.084-4.303 9.084-9.084v-63.59c0-4.304-4.303-8.607-9.084-8.607zM243.366 40.641c-4.781 0-8.128 3.347-8.606 7.172v65.025c0 5.26 4.303 9.084 8.606 9.084 5.259 0 9.084-4.303 9.084-9.084v-63.59c0-4.304-3.825-8.607-9.084-8.607zM306 40.641c-4.781 0-8.128 3.347-8.606 7.172v65.025c0 5.26 4.304 9.084 8.606 9.084 4.304 0 9.085-4.303 9.085-9.084v-63.59c0-4.304-4.304-8.607-9.085-8.607zM332.775 40.641c-4.781 0-8.128 3.347-8.606 7.172v65.025c0 5.26 4.303 9.084 8.606 9.084 4.781 0 9.084-4.303 9.084-9.084v-63.59c0-4.304-3.825-8.607-9.084-8.607zM360.028 40.641c-4.781 0-8.128 3.347-8.606 7.172v65.025c0 5.26 4.304 9.084 8.606 9.084 4.781 0 9.084-4.303 9.084-9.084v-63.59c0-4.304-4.302-8.607-9.084-8.607zM387.281 40.641c-4.781 0-8.128 3.347-8.606 7.172v65.025c0 5.26 4.304 9.084 8.606 9.084 4.304 0 9.085-4.303 9.085-9.084v-63.59c-.478-4.304-4.304-8.607-9.085-8.607zM414.057 40.641c-4.781 0-8.128 3.347-8.606 7.172v65.025c0 5.26 4.303 9.084 8.606 9.084s9.084-4.303 9.084-9.084v-63.59c0-4.304-3.826-8.607-9.084-8.607zM441.31 40.641c-4.781 0-8.128 3.347-8.606 7.172v65.025c0 5.26 4.304 9.084 8.606 9.084 4.781 0 9.084-4.303 9.084-9.084v-63.59c0-4.304-4.303-8.607-9.084-8.607zM468.085 40.641c-4.781 0-8.129 3.347-8.606 7.172v65.025c0 5.26 4.303 9.084 8.606 9.084 4.781 0 9.084-4.303 9.084-9.084v-63.59c0-4.304-3.825-8.607-9.084-8.607zM495.338 40.641c-4.781 0-8.128 3.347-8.606 7.172v65.025c0 5.26 4.303 9.084 8.606 9.084s9.084-4.303 9.084-9.084v-63.59c0-4.304-3.825-8.607-9.084-8.607z"/></svg>