<?xml version="1.0" encoding="iso-8859-1"?>
<!-- Generator: Adobe Illustrator 16.0.0, SVG Export Plug-In . SVG Version: 6.00 Build 0)  -->
<!DOCTYPE svg PUBLIC "-//W3C//DTD SVG 1.1//EN" "http://www.w3.org/Graphics/SVG/1.1/DTD/svg11.dtd">
<svg version="1.1" id="Capa_1" xmlns="http://www.w3.org/2000/svg" xmlns:xlink="http://www.w3.org/1999/xlink" x="0px" y="0px"
	 width="478.125px" height="478.125px" viewBox="0 0 478.125 478.125" style="enable-background:new 0 0 478.125 478.125;"
	 xml:space="preserve">
<g>
	<g>
		<path d="M186.469,447.496v30.629h105.188v-29.462c-15.797,3.548-32.637,5.556-50.203,5.556
			C222.099,454.219,203.624,451.771,186.469,447.496z"/>
		<path d="M291.656,259.173v-4.906v-4.876v-67.703h-114.75v71.461v4.943v4.991c-49.438,15.521-83.672,48.157-83.672,85.948
			s34.234,70.428,83.672,85.947c3.137,0.985,6.302,1.932,9.562,2.783c17.021,4.408,35.544,6.895,54.984,6.895
			c17.643,0,34.502-2.104,50.203-5.767c3.232-0.755,6.436-1.529,9.562-2.419c52.02-14.86,88.453-48.434,88.453-87.439
			C389.672,307.683,348.716,272.483,291.656,259.173z"/>
		<polygon points="52.594,172.125 176.906,172.125 291.656,172.125 425.531,172.125 425.531,0 52.594,0 		"/>
	</g>
</g>
<g>
</g>
<g>
</g>
<g>
</g>
<g>
</g>
<g>
</g>
<g>
</g>
<g>
</g>
<g>
</g>
<g>
</g>
<g>
</g>
<g>
</g>
<g>
</g>
<g>
</g>
<g>
</g>
<g>
</g>
</svg>
