<?xml version="1.0" encoding="iso-8859-1"?>
<!-- Generator: Adobe Illustrator 16.0.0, SVG Export Plug-In . SVG Version: 6.00 Build 0)  -->
<!DOCTYPE svg PUBLIC "-//W3C//DTD SVG 1.1//EN" "http://www.w3.org/Graphics/SVG/1.1/DTD/svg11.dtd">
<svg version="1.1" id="Capa_1" xmlns="http://www.w3.org/2000/svg" xmlns:xlink="http://www.w3.org/1999/xlink" x="0px" y="0px"
	 width="110.25px" height="110.25px" viewBox="0 0 110.25 110.25" style="enable-background:new 0 0 110.25 110.25;"
	 xml:space="preserve">
<g>
	<path d="M29.75,106.75h8.75v3.5h-8.75V106.75z M71.75,110.25h8.75v-3.5h-8.75V110.25z M80.5,0v105H29.75V54.25V14V0H80.5z M73.5,70
		H36.75v26.25H73.5V70z M73.5,38.5H40.25h-3.5v15.75v10.5H73.5V38.5z M73.5,7H36.75v7v19.25h3.5H73.5V7z M42,31.5v-21h-3.5V14v17.5
		h1.75H42z M47.25,10.5h-3.5v21h3.5V10.5z M60.229,29.811L51.458,10.73l-3.181,1.462l8.771,19.081L60.229,29.811z M53.986,56.438
		c0,6.037,4.989,6.737,7.176,6.737c0.078,0,0.184,0,0.263,0c2.188,0,7.263-0.7,7.263-6.737c0-7.7-4.897-4.2-4.897-8.663
		S65.625,42,65.625,42H66.5c0.525,0,0.875-0.35,0.875-0.875s-0.35-0.875-0.875-0.875H56c-0.525,0-0.875,0.35-0.875,0.875
		S55.475,42,56,42h0.788c0,0,2.101,1.225,2.101,5.775C58.889,52.325,53.986,48.65,53.986,56.438z"/>
</g>
<g>
</g>
<g>
</g>
<g>
</g>
<g>
</g>
<g>
</g>
<g>
</g>
<g>
</g>
<g>
</g>
<g>
</g>
<g>
</g>
<g>
</g>
<g>
</g>
<g>
</g>
<g>
</g>
<g>
</g>
</svg>
