<svg xmlns="http://www.w3.org/2000/svg" width="573.75" height="573.75" style="enable-background:new 0 0 573.75 573.75" xml:space="preserve"><path d="M174.994 38.728c7.65 8.128 51.16 14.822 97.06 15.778v-7.65c0-2.869.956-5.738 1.913-8.128 2.869-5.737 9.084-9.562 15.778-9.562h3.825c6.694 0 12.909 3.825 15.778 9.562 1.435 2.391 1.912 5.259 1.912 8.128v7.65c72.197 0 87.497-15.778 87.497-15.778V0H174.994v38.728z"/><path d="M301.697 54.984v-7.65c0-4.303-3.824-8.128-8.128-8.128h-4.304c-4.303.479-7.171 3.825-7.171 8.128v206.072h19.603V54.984zM272.531 262.491h-19.603v58.331h77.935v-58.331h-48.769zM330.863 330.862h-78.891L214.678 573.75h153.956L331.34 330.862z"/></svg>