<?xml version="1.0" encoding="iso-8859-1"?>
<!-- Generator: Adobe Illustrator 16.0.0, SVG Export Plug-In . SVG Version: 6.00 Build 0)  -->
<!DOCTYPE svg PUBLIC "-//W3C//DTD SVG 1.1//EN" "http://www.w3.org/Graphics/SVG/1.1/DTD/svg11.dtd">
<svg version="1.1" id="Capa_1" xmlns="http://www.w3.org/2000/svg" xmlns:xlink="http://www.w3.org/1999/xlink" x="0px" y="0px"
	 width="573.75px" height="573.75px" viewBox="0 0 573.75 573.75" style="enable-background:new 0 0 573.75 573.75;"
	 xml:space="preserve">
<g>
	<rect x="258.188" y="76.5" width="47.812" height="478.125"/>
	<polygon points="239.062,76.5 239.062,573.75 325.125,573.75 325.125,76.5 315.562,76.5 315.562,564.188 248.625,564.188 
		248.625,76.5 	"/>
	<path d="M420.75,40.755c0-10.021-5.46-21.63-15.481-21.63h-27.32c-10.021,0-18.217-2.046-18.217-9.562S351.537,0,341.516,0H232.235
		c-10.021,0-18.217,2.046-18.217,9.562s-8.195,9.562-18.216,9.562h-27.32C158.46,19.125,153,30.734,153,40.755v26.182h267.75V40.755
		z"/>
</g>
<g>
</g>
<g>
</g>
<g>
</g>
<g>
</g>
<g>
</g>
<g>
</g>
<g>
</g>
<g>
</g>
<g>
</g>
<g>
</g>
<g>
</g>
<g>
</g>
<g>
</g>
<g>
</g>
<g>
</g>
</svg>
