<svg xmlns="http://www.w3.org/2000/svg" width="479.578" height="479.578" style="enable-background:new 0 0 479.578 479.578" xml:space="preserve"><path d="M412.641 72.445H0l9.582 67.081c-4.935.382-8.855 4.389-8.855 9.419v124.312c0 5.278 4.274 9.562 9.562 9.562s9.562-4.284 9.562-9.562v-61.851l19.202 134.392c6.502 37.256 30.877 61.334 62.08 61.334h277.313c34.138 0 54.41-31.489 62.108-61.478l19.173-134.219v61.821c0 5.278 4.274 9.562 9.562 9.562s9.562-4.284 9.562-9.562V148.945c0-5.03-3.921-9.037-8.854-9.419l9.581-67.081h-66.937zm-68.305 9.563h57.279l-8.195 57.375h-57.289l8.205-57.375zm47.726 66.937-6.828 47.812h-57.289l6.828-47.812h57.289zM239.789 254.133V206.32h77.15l-6.828 47.812h-70.322zm68.955 9.562-6.827 47.812h-62.128v-47.812h68.955zm.086-66.937c4.59-5.087 7.459-11.752 7.459-19.125v-28.688h8.836l-6.828 47.812h-9.467zm9.553 66.937h57.299l-6.827 47.812h-57.299l6.827-47.812zm1.368-9.562 6.827-47.812h57.299l-6.828 47.812h-57.298zM239.789 82.008h94.898l-8.195 57.375h-10.203v-9.562c0-15.816-12.871-28.688-28.688-28.688h-47.812V82.008zm-9.562 0v19.125h-47.812c-15.816 0-28.688 12.871-28.688 28.688v9.562h-10.203l-8.195-57.375h94.898zm-78.595 181.687 6.828 47.812h-57.279l-6.828-47.812h57.279zm-58.647-9.562-6.828-47.812h57.28l6.828 47.812h-57.28zm51.906-105.188h8.836v28.688c0 7.373 2.878 14.038 7.459 19.125h-9.467l-6.828-47.813zm-2.821 47.813H84.791l-6.828-47.812h57.279l6.828 47.812zm-16.39-114.75 8.195 57.375h-57.28L68.4 82.008h57.28zM19.211 139.383l-8.195-57.375h47.727l8.195 57.375H19.211zm1.367 9.562h47.717l6.828 47.812H27.406l-6.828-47.812zm8.205 57.375H76.5l6.828 47.812H35.61l-6.827-47.812zm8.195 57.375h47.717l6.828 47.812H43.806l-6.828-47.812zm64.155 133.875c-31.939 0-48.147-27.598-52.642-53.272l-3.318-23.228H92.89l3.528 24.729c4.074 23.304 15.128 41.444 30.476 51.771h-25.761zm57.375 0c-31.939 0-48.147-27.598-52.642-53.272l-3.318-23.228h57.28l3.528 24.729c4.074 23.304 15.128 41.444 30.476 51.771h-35.324zm71.719 0h-4.781c-31.939 0-48.147-27.598-52.642-53.272l-3.318-23.228h60.741v76.5zm0-86.062h-62.108l-6.828-47.812h68.936v47.812zm0-57.375h-70.304l-6.828-47.812h77.131v47.812zm0-66.938h-47.812c-5.278 0-9.562-4.294-9.562-9.562v-47.812c0-5.269 4.284-9.562 9.562-9.562h39.464c-.249 1.023-.421 2.084-.421 3.185 0 5.794 3.653 10.7 8.769 12.632 1.492.564 3.089.908 4.781.908s3.289-.344 4.781-.908c5.116-1.941 8.769-6.847 8.769-12.632 0-1.1-.172-2.161-.421-3.185h39.465c5.278 0 9.562 4.293 9.562 9.562v47.812c0 5.269-4.284 9.562-9.562 9.562h-57.375zm9.562 210.375v-76.5h60.77l-3.241 22.711c-6.704 26-24.079 53.789-52.747 53.789h-4.782zm34.636 0c16.505-11.6 27.157-32.054 32.254-51.915l3.51-24.585h57.298l-3.241 22.711c-6.694 26-24.069 53.789-52.737 53.789h-37.084zm156.767-53.789c-6.704 26-24.079 53.789-52.747 53.789h-37.083c16.505-11.6 27.157-32.054 32.254-51.915l3.51-24.585h57.298l-3.232 22.711zm4.6-32.273h-57.299l6.827-47.812h57.299l-6.827 47.812zm8.194-57.375h-57.298l6.827-47.812h57.299l-6.828 47.812zm8.196-57.375h-57.289l6.828-47.812h57.289l-6.828 47.812zm8.185-57.375h-57.289l8.195-57.375h57.279l-8.185 57.375z"/></svg>