<svg xmlns="http://www.w3.org/2000/svg" width="551.297" height="551.297" style="enable-background:new 0 0 551.297 551.297" xml:space="preserve"><path d="M336.466 551.297h38.25V373.168l-38.25 10.91zM441.329 120.985h-80.134l-8.902 122.869c.057.698.344 11.896-6.561 19.106-3.538 3.701-8.396 5.651-14.057 5.651-3.165 0-13.903-.44-19.221-6.13-2.084-2.228-3.079-4.972-2.888-7.946l8.874-133.55H208.97c71.317 15.635 70.14 104.375 70.122 105.302v162.592l2.228.994 45.585-13.006 9.562-2.725 38.25-10.91 9.562-2.727 114.75-32.742V192.11c0-66.239-55.348-71.125-57.7-71.125z"/><path d="M201.568 129.294c-4.982-.765-9.62-1.1-13.99-1.09-1.578 0-3.088.096-4.581.201-1.73.115-3.423.287-5.039.545-9.869 1.549-17.691 5.508-23.18 12-14.095 16.648-9.667 44.103-9.62 44.38l.058 143.772 86.225 36.758 12.039 5.135 26.048 11.102V226.172c0-.153 0-.622.01-1.033.009-3.911-.287-19.068-5.317-36.462-7.152-24.671-23.82-53.425-62.653-59.383zM66.852 418.875c.096 0-32.771 52.174-.134 84.811 10.06 10.061 23.438 15.156 39.79 15.156 30.877 0 63.581-18.312 75.964-30.695 17.557-17.557 70.38-76.174 85.996-93.541l-126.856-56.59-74.76 80.859zM338.809 256.371c3.48-3.614 4.025-10.366 3.931-12.67l8.874-122.716.688-9.562 3.04-42.037 4.639.201c.143 0 13.674.536 26.048-1.157 8.405-1.147 8.979-7.746 9.008-9.056.115-.966 2.438-13.349 3.596-29.577.822-11.427-6.904-13.206-8.453-13.455L336.055 0l-7.392 111.422-.632 9.562-8.902 134.19c1.77 2.314 6.426 3.863 12.556 3.863 3.051.011 5.384-.869 7.124-2.666z"/></svg>