<svg xmlns="http://www.w3.org/2000/svg" width="602.438" height="602.438" style="enable-background:new 0 0 602.438 602.438" xml:space="preserve"><path d="M401.625 52.594H38.25C17.126 52.594 0 69.72 0 90.844v363.375c0 21.123 17.126 38.25 38.25 38.25h363.375V52.594zm-47.813 372.937h-306V100.406h306v325.125zM564.188 52.594H420.75v439.875h143.438c21.123 0 38.25-17.127 38.25-38.25V90.844c0-21.124-17.127-38.25-38.25-38.25zm-55.147 53.387c23.236 0 42.074 18.838 42.074 42.075 0 20.731-15.013 37.858-34.75 41.339-2.391.42-4.819.736-7.334.736-4.122 0-8.032-.775-11.791-1.884-17.451-5.125-30.284-21.076-30.284-40.191.01-23.237 18.848-42.075 42.085-42.075zM497.25 218.953c3.768-1.109 7.669-1.884 11.791-1.884 2.515 0 4.943.315 7.334.736 19.728 3.48 34.75 20.607 34.75 41.338s-15.013 37.858-34.75 41.339c-2.391.421-4.819.736-7.334.736-4.122 0-8.033-.774-11.791-1.884-17.451-5.126-30.284-21.076-30.284-40.191s12.833-35.065 30.284-40.19zm66.938 225.703H459v-38.25h105.187v38.25zm0-66.937H459v-38.25h105.187v38.25zM47.812 511.594h95.625v38.25H47.812zM430.312 511.594h95.625v38.25h-95.625z"/><path d="M169.39 119.531 66.938 191.135v33.039l149.729-104.643zM334.688 119.531h-75.487L66.938 253.903v152.503h267.75z"/></svg>