<?xml version="1.0" encoding="iso-8859-1"?>
<!-- Generator: Adobe Illustrator 16.0.0, SVG Export Plug-In . SVG Version: 6.00 Build 0)  -->
<!DOCTYPE svg PUBLIC "-//W3C//DTD SVG 1.1//EN" "http://www.w3.org/Graphics/SVG/1.1/DTD/svg11.dtd">
<svg version="1.1" id="Capa_1" xmlns="http://www.w3.org/2000/svg" xmlns:xlink="http://www.w3.org/1999/xlink" x="0px" y="0px"
	 width="602.438px" height="602.438px" viewBox="0 0 602.438 602.438" style="enable-background:new 0 0 602.438 602.438;"
	 xml:space="preserve">
<g>
	<path d="M401.625,52.594H38.25C17.126,52.594,0,69.72,0,90.844v363.375c0,21.123,17.126,38.25,38.25,38.25h363.375V52.594z
		 M353.812,425.531h-306V100.406h306V425.531z"/>
	<path d="M564.188,52.594H420.75v439.875h143.438c21.123,0,38.25-17.127,38.25-38.25V90.844
		C602.438,69.72,585.311,52.594,564.188,52.594z M509.041,105.981c23.236,0,42.074,18.838,42.074,42.075
		c0,20.731-15.013,37.858-34.75,41.339c-2.391,0.42-4.819,0.736-7.334,0.736c-4.122,0-8.032-0.775-11.791-1.884
		c-17.451-5.125-30.284-21.076-30.284-40.191C466.966,124.819,485.804,105.981,509.041,105.981z M497.25,218.953
		c3.768-1.109,7.669-1.884,11.791-1.884c2.515,0,4.943,0.315,7.334,0.736c19.728,3.48,34.75,20.607,34.75,41.338
		s-15.013,37.858-34.75,41.339c-2.391,0.421-4.819,0.736-7.334,0.736c-4.122,0-8.033-0.774-11.791-1.884
		c-17.451-5.126-30.284-21.076-30.284-40.191S479.799,224.078,497.25,218.953z M564.188,444.656H459v-38.25h38.25h19.125h47.812
		V444.656z M564.188,377.719h-47.812H497.25H459v-38.25h38.25h19.125h47.812V377.719z"/>
	<rect x="47.812" y="511.594" width="95.625" height="38.25"/>
	<rect x="430.312" y="511.594" width="95.625" height="38.25"/>
	<polygon points="169.39,119.531 66.938,191.135 66.938,224.174 216.667,119.531 	"/>
	<polygon points="334.688,119.531 259.201,119.531 66.938,253.903 66.938,406.406 334.688,406.406 	"/>
</g>
<g>
</g>
<g>
</g>
<g>
</g>
<g>
</g>
<g>
</g>
<g>
</g>
<g>
</g>
<g>
</g>
<g>
</g>
<g>
</g>
<g>
</g>
<g>
</g>
<g>
</g>
<g>
</g>
<g>
</g>
</svg>
