<?xml version="1.0" encoding="iso-8859-1"?>
<!-- Generator: Adobe Illustrator 16.0.0, SVG Export Plug-In . SVG Version: 6.00 Build 0)  -->
<!DOCTYPE svg PUBLIC "-//W3C//DTD SVG 1.1//EN" "http://www.w3.org/Graphics/SVG/1.1/DTD/svg11.dtd">
<svg version="1.1" id="Capa_1" xmlns="http://www.w3.org/2000/svg" xmlns:xlink="http://www.w3.org/1999/xlink" x="0px" y="0px"
	 width="497.25px" height="497.25px" viewBox="0 0 497.25 497.25" style="enable-background:new 0 0 497.25 497.25;"
	 xml:space="preserve">
<g>
	<path d="M291.656,267.75c10.566,0,19.125-8.559,19.125-19.125l19.125-229.5C329.906,8.559,321.348,0,310.781,0H186.469
		c-10.566,0-19.125,8.559-19.125,19.125l19.125,229.5c0,10.566,8.559,19.125,19.125,19.125h9.562v159.455
		c-25.771,14.276-43.576,42.84-43.815,70.045h156.979c-0.249-28.037-19.154-57.547-46.216-71.336V267.75H291.656z M272.531,112.359
		c12.546,0,22.711,10.165,22.711,22.711s-10.165,22.711-22.711,22.711s-22.711-10.165-22.711-22.711
		S259.985,112.359,272.531,112.359z M272.531,179.297c12.546,0,22.711,10.165,22.711,22.711s-10.165,22.711-22.711,22.711
		s-22.711-10.165-22.711-22.711S259.985,179.297,272.531,179.297z"/>
</g>
<g>
</g>
<g>
</g>
<g>
</g>
<g>
</g>
<g>
</g>
<g>
</g>
<g>
</g>
<g>
</g>
<g>
</g>
<g>
</g>
<g>
</g>
<g>
</g>
<g>
</g>
<g>
</g>
<g>
</g>
</svg>
