<?xml version="1.0" encoding="iso-8859-1"?>
<!-- Generator: Adobe Illustrator 16.0.0, SVG Export Plug-In . SVG Version: 6.00 Build 0)  -->
<!DOCTYPE svg PUBLIC "-//W3C//DTD SVG 1.1//EN" "http://www.w3.org/Graphics/SVG/1.1/DTD/svg11.dtd">
<svg version="1.1" id="Capa_1" xmlns="http://www.w3.org/2000/svg" xmlns:xlink="http://www.w3.org/1999/xlink" x="0px" y="0px"
	 width="583.312px" height="583.312px" viewBox="0 0 583.312 583.312" style="enable-background:new 0 0 583.312 583.312;"
	 xml:space="preserve">
<g>
	<rect x="167.344" y="554.625" width="66.938" height="28.688"/>
	<rect x="301.219" y="554.625" width="66.938" height="28.688"/>
	<path d="M387.281,525.938l-19.125-162.562c0-21.124-17.126-38.25-38.25-38.25H205.594c-21.124,0-38.25,17.126-38.25,38.25
		l-19.125,162.562c0,21.123,17.126,19.125,38.25,19.125h162.562C370.155,545.062,387.281,547.061,387.281,525.938z M271.67,437.111
		c-18.312,0-33.163-14.851-33.163-33.163c0-18.312,14.841-33.162,33.163-33.162c18.312,0,33.163,14.841,33.163,33.162
		C304.833,422.261,289.982,437.111,271.67,437.111z"/>
	<path d="M389.978,239.062h9.61h9.496h40.354c7.928,0,14.344-6.417,14.344-14.344v-95.625c0-7.927-6.416-14.344-14.344-14.344
		h-27.005h-9.495h-9.61l3.079-28.688h-267.75l19.125,178.102c0,21.124,17.126,41.836,38.25,41.836h153
		c21.124,0,38.25-20.712,38.25-41.836L389.978,239.062z M400.248,143.438h9.61h9.495h15.74v66.938h-22.931h-9.496h-9.61
		L400.248,143.438z"/>
	<path d="M138.656,66.938h267.75c10.566,0,19.125-8.559,19.125-19.125s-8.559-19.125-19.125-19.125h-79.148
		c1.635-2.821,2.648-6.062,2.648-9.562C329.906,8.559,321.348,0,310.781,0h-76.5c-10.566,0-19.125,8.559-19.125,19.125
		c0,3.5,1.014,6.742,2.649,9.562h-79.149c-10.566,0-19.125,8.559-19.125,19.125S128.09,66.938,138.656,66.938z"/>
</g>
<g>
</g>
<g>
</g>
<g>
</g>
<g>
</g>
<g>
</g>
<g>
</g>
<g>
</g>
<g>
</g>
<g>
</g>
<g>
</g>
<g>
</g>
<g>
</g>
<g>
</g>
<g>
</g>
<g>
</g>
</svg>
