<svg xmlns="http://www.w3.org/2000/svg" width="570.881" height="570.882" style="enable-background:new 0 0 570.881 570.882" xml:space="preserve"><path d="M178.102 570.403h28.209c15.3 0 28.209-12.432 28.209-28.209V448.96c0-15.301-12.431-28.21-28.209-28.21h-28.209V308.391h308.869c20.559 0 37.293-16.734 37.293-37.293V140.091c0-10.041-4.303-19.603-10.996-26.297 6.693-9.562 10.996-21.994 10.996-34.425V42.075C524.264 16.256 508.008 0 482.19 0H213.005c-38.25 0-54.028 13.388-54.028 46.378v32.991c0 8.128 2.391 16.256 6.694 23.428h-62.635c-20.559 0-37.293 16.734-37.293 37.294v131.006c0 20.559 16.734 37.293 37.293 37.293v112.36H74.827c-15.3 0-28.209 12.432-28.209 28.21v93.712c0 15.3 12.431 28.21 28.209 28.21h103.274v-.479zm-23.428-20.081c-2.869-1.435-4.781-4.304-4.781-8.128V448.96c0-3.348 1.913-6.216 4.781-8.129 2.869 1.435 4.781 4.304 4.781 8.129v93.712c0 2.869-1.913 5.737-4.781 7.65zm-28.21 0c-2.869-1.435-4.781-4.304-4.781-8.128V448.96c0-3.348 1.913-6.216 4.781-8.129 2.869 1.435 4.781 4.304 4.781 8.129v93.712c.001 2.869-1.912 5.737-4.781 7.65zm49.725 1.435c.956-2.869 1.913-6.216 1.913-9.562V448.96c0-3.348-.478-6.216-1.913-9.562h1.913c5.259 0 9.562 4.303 9.562 9.562v93.712c0 5.26-4.303 9.562-9.562 9.562h-1.913v-.477zm30.123-112.36c5.259 0 9.562 4.303 9.562 9.562v93.712c0 5.26-4.303 9.562-9.562 9.562h-1.913c.956-2.868 1.913-6.216 1.913-9.562V448.96c0-3.348-.479-6.216-1.913-9.562h1.913zM187.665 78.891V46.856c0-10.041 9.562-19.603 23.428-19.603h262.49c16.258 0 22.951 10.519 22.951 22.472v29.166c0 19.125-11.953 23.428-22.473 23.428H207.746c-10.519 0-20.081-12.909-20.081-23.428zm78.412 150.131c-16.256 0-29.166-12.909-29.166-29.166s12.91-29.166 29.166-29.166 29.166 12.909 29.166 29.166c0 15.779-13.388 29.166-29.166 29.166zm-143.916 79.369h37.294V420.75H121.684V308.391h.477zM75.305 551.757c-5.259 0-9.562-4.304-9.562-9.562V448.96c0-5.26 4.303-9.562 9.562-9.562h1.913c-.957 2.868-1.913 6.215-1.913 9.562v93.712c0 3.347.478 6.216 1.913 9.562h-1.913v-.477zm27.731 0c-5.259 0-9.562-4.304-9.562-9.562V448.96c0-5.26 4.303-9.562 9.562-9.562h1.913c-.956 2.868-1.913 6.215-1.913 9.562v93.712c0 3.347.479 6.216 1.913 9.562h-1.913v-.477z"/></svg>