<svg xmlns="http://www.w3.org/2000/svg" width="583.312" height="583.312" style="enable-background:new 0 0 583.312 583.312" xml:space="preserve"><path d="M167.344 554.625h66.938v28.688h-66.938zM301.219 554.625h66.938v28.688h-66.938zM387.281 525.938l-19.125-162.562c0-21.124-17.126-38.25-38.25-38.25H205.594c-21.124 0-38.25 17.126-38.25 38.25l-19.125 162.562c0 21.123 17.126 19.125 38.25 19.125h162.562c21.124-.001 38.25 1.998 38.25-19.125zM271.67 437.111c-18.312 0-33.163-14.851-33.163-33.163 0-18.312 14.841-33.162 33.163-33.162 18.312 0 33.163 14.841 33.163 33.162 0 18.313-14.851 33.163-33.163 33.163zM389.978 239.062h59.46c7.928 0 14.344-6.417 14.344-14.344v-95.625c0-7.927-6.416-14.344-14.344-14.344h-46.11l3.079-28.688h-267.75l19.125 178.102c0 21.124 17.126 41.836 38.25 41.836h153c21.124 0 38.25-20.712 38.25-41.836l2.696-25.101zm10.27-95.624h34.845v66.938h-42.037l7.192-66.938zM138.656 66.938h267.75c10.566 0 19.125-8.559 19.125-19.125s-8.559-19.125-19.125-19.125h-79.148c1.635-2.821 2.648-6.062 2.648-9.562C329.906 8.559 321.348 0 310.781 0h-76.5c-10.566 0-19.125 8.559-19.125 19.125 0 3.5 1.014 6.742 2.649 9.562h-79.149c-10.566 0-19.125 8.559-19.125 19.125s8.559 19.126 19.125 19.126z"/></svg>