<svg xmlns="http://www.w3.org/2000/svg" width="497.25" height="497.25" style="enable-background:new 0 0 497.25 497.25" xml:space="preserve"><path d="M291.656 267.75c10.566 0 19.125-8.559 19.125-19.125l19.125-229.5C329.906 8.559 321.348 0 310.781 0H186.469c-10.566 0-19.125 8.559-19.125 19.125l19.125 229.5c0 10.566 8.559 19.125 19.125 19.125h9.562v159.455c-25.771 14.276-43.576 42.84-43.815 70.045H328.32c-.249-28.037-19.154-57.547-46.216-71.336V267.75h9.552zm-19.125-155.391c12.546 0 22.711 10.165 22.711 22.711s-10.165 22.711-22.711 22.711-22.711-10.165-22.711-22.711 10.165-22.711 22.711-22.711zm0 66.938c12.546 0 22.711 10.165 22.711 22.711s-10.165 22.711-22.711 22.711-22.711-10.165-22.711-22.711 10.165-22.711 22.711-22.711z"/></svg>