<svg xmlns="http://www.w3.org/2000/svg" width="468.525" height="468.524" style="enable-background:new 0 0 468.525 468.524" xml:space="preserve"><path d="M161.458 468.524c22.893-50.193 38.212-141.42 38.212-245.661 0-60.349-5.145-116.309-13.904-162.505L71.112 0c-17.863 52.565-29.29 132.852-29.29 222.864 0 104.231 15.31 195.458 38.212 245.661h81.424zM227.095 389.5c0 32.475 16.142 61.181 40.898 79.024h117.811c24.757-17.844 40.898-46.55 40.898-79.024 0-24.566-9.266-46.971-24.461-64.174L259.197 317.6c-19.69 17.91-32.102 43.452-32.102 71.9z"/></svg>