<?xml version="1.0" encoding="iso-8859-1"?>
<!-- Generator: Adobe Illustrator 16.0.0, SVG Export Plug-In . SVG Version: 6.00 Build 0)  -->
<!DOCTYPE svg PUBLIC "-//W3C//DTD SVG 1.1//EN" "http://www.w3.org/Graphics/SVG/1.1/DTD/svg11.dtd">
<svg version="1.1" id="Capa_1" xmlns="http://www.w3.org/2000/svg" xmlns:xlink="http://www.w3.org/1999/xlink" x="0px" y="0px"
	 width="576.61px" height="576.609px" viewBox="0 0 576.61 576.609" style="enable-background:new 0 0 576.61 576.609;"
	 xml:space="preserve">
<g>
	<g>
		<path d="M460.17,2.065l-4.494-1.635C454.883,0.144,454.051,0,453.219,0c-3.002,0-5.719,1.894-6.742,4.714L324.891,338.102
			c-1.627-0.201-3.271-0.354-4.916-0.479c-1.654-0.124-3.328-0.191-5.001-0.229c-26.02-0.641-53.751,8.874-74.138,31.537
			l58.485,11.37l4.752,0.928l4.752,0.928l19.011,3.7l4.753,0.928l4.752,0.928l52.25,10.155c-0.115-2.113-0.287-4.16-0.555-6.13
			c-2.793-20.626-17.107-36.558-36.5-45.708c-1.434-0.68-2.889-1.339-4.379-1.941c-1.473-0.593-2.975-1.129-4.486-1.654
			L464.456,11.265C465.803,7.545,463.881,3.424,460.17,2.065z"/>
		<path d="M301.721,400.258L228.3,385.98c-26.88,43.061-36.625,96.639-60.798,123.691c-9.008,10.089-27.091,34.989-55.778,39.847
			l156.385,19.125l42.83-63.753l-18.895,66.68l41.205,5.039c0,0,48.5-95.797,55.596-159.407l-62.338-12.125L301.721,400.258z"/>
	</g>
</g>
<g>
</g>
<g>
</g>
<g>
</g>
<g>
</g>
<g>
</g>
<g>
</g>
<g>
</g>
<g>
</g>
<g>
</g>
<g>
</g>
<g>
</g>
<g>
</g>
<g>
</g>
<g>
</g>
<g>
</g>
</svg>
