<?xml version="1.0" encoding="iso-8859-1"?>
<!-- Generator: Adobe Illustrator 16.0.0, SVG Export Plug-In . SVG Version: 6.00 Build 0)  -->
<!DOCTYPE svg PUBLIC "-//W3C//DTD SVG 1.1//EN" "http://www.w3.org/Graphics/SVG/1.1/DTD/svg11.dtd">
<svg version="1.1" id="Capa_1" xmlns="http://www.w3.org/2000/svg" xmlns:xlink="http://www.w3.org/1999/xlink" x="0px" y="0px"
	 width="558.026px" height="558.026px" viewBox="0 0 558.026 558.026" style="enable-background:new 0 0 558.026 558.026;"
	 xml:space="preserve">
<g>
	<g>
		<path d="M462.936,499.766c-0.135,0.076-0.145,0.086-0.268,0.152c2.955-1.76,8.979-5.594,11.818-8.912
			c4.781-5.574,14.439-12.967,9.965-17.527c-5.861-5.977-20.723,3.184-31.873,1.596c-11.158-1.605-11.158-20.33-44.627-20.33
			s-58.17-11.158-74.109-7.572c-14.02,3.154-25.771,11.158-39.848,2.391c-1.453-0.9-2.592-1.828-3.672-2.754L92.37,514.338
			c4.733,12.824,19.526,27.455,58.981,36.424c70.122,15.941,81.683,0.793,115.152,0c33.468-0.793,89.773,8.635,107.175-0.793
			c9.562-5.184,15.941-21.516-5.182-19.527c-9.553,0.898-1.598-9.16,19.918-8.367s87.516,10.041,97.615-21.918
			C490.706,485.422,470.108,495.787,462.936,499.766z"/>
		<polygon points="180.765,396.031 89.95,0 71.313,4.274 162.348,401.262 		"/>
		<polygon points="281.545,429.605 277.987,409.121 243.237,398.182 203.476,409.477 194.258,412.086 185.049,414.697 
			166.623,419.928 157.414,422.539 148.205,425.158 126.173,431.412 81.621,474.787 85.494,496.484 91.719,494.361 233.483,446.004 
					"/>
	</g>
</g>
<g>
</g>
<g>
</g>
<g>
</g>
<g>
</g>
<g>
</g>
<g>
</g>
<g>
</g>
<g>
</g>
<g>
</g>
<g>
</g>
<g>
</g>
<g>
</g>
<g>
</g>
<g>
</g>
<g>
</g>
</svg>
