<svg xmlns="http://www.w3.org/2000/svg" width="576.61" height="576.609" style="enable-background:new 0 0 576.61 576.609" xml:space="preserve"><path d="M460.17 2.065 455.676.43a7.244 7.244 0 0 0-2.457-.43c-3.002 0-5.719 1.894-6.742 4.714L324.891 338.102a105.098 105.098 0 0 0-4.916-.479 96.285 96.285 0 0 0-5.001-.229c-26.02-.641-53.751 8.874-74.138 31.537l58.485 11.37 4.752.928 4.752.928 19.011 3.7 4.753.928 4.752.928 52.25 10.155c-.115-2.113-.287-4.16-.555-6.13-2.793-20.626-17.107-36.558-36.5-45.708a81.374 81.374 0 0 0-4.379-1.941 99.043 99.043 0 0 0-4.486-1.654l120.785-331.17c1.347-3.72-.575-7.841-4.286-9.2zM301.721 400.258 228.3 385.98c-26.88 43.061-36.625 96.639-60.798 123.691-9.008 10.089-27.091 34.989-55.778 39.847l156.385 19.125 42.83-63.753-18.895 66.68 41.205 5.039s48.5-95.797 55.596-159.407l-62.338-12.125-24.786-4.819z"/></svg>