<svg xmlns="http://www.w3.org/2000/svg" width="558.026" height="558.026" style="enable-background:new 0 0 558.026 558.026" xml:space="preserve"><path d="M462.936 499.766c-.135.076-.145.086-.268.152 2.955-1.76 8.979-5.594 11.818-8.912 4.781-5.574 14.439-12.967 9.965-17.527-5.861-5.977-20.723 3.184-31.873 1.596-11.158-1.605-11.158-20.33-44.627-20.33s-58.17-11.158-74.109-7.572c-14.02 3.154-25.771 11.158-39.848 2.391-1.453-.9-2.592-1.828-3.672-2.754L92.37 514.338c4.733 12.824 19.526 27.455 58.981 36.424 70.122 15.941 81.683.793 115.152 0 33.468-.793 89.773 8.635 107.175-.793 9.562-5.184 15.941-21.516-5.182-19.527-9.553.898-1.598-9.16 19.918-8.367s87.516 10.041 97.615-21.918c4.677-14.735-15.921-4.37-23.093-.391zM180.765 396.031 89.95 0 71.313 4.274l91.035 396.988zM281.545 429.605l-3.558-20.484-34.75-10.939-39.761 11.295-9.218 2.609-9.209 2.611-18.426 5.231-9.209 2.611-9.209 2.619-22.032 6.254-44.552 43.375 3.873 21.697 6.225-2.123 141.764-48.357z"/></svg>