<svg xmlns="http://www.w3.org/2000/svg" width="550.299" height="550.299" style="enable-background:new 0 0 550.299 550.299" xml:space="preserve"><path d="M280.66 377.348c59.287 156.825 118.574 148.697 185.99 123.356 67.415-25.341 115.706-63.112 57.853-215.634-6.693-18.168-14.821-34.425-23.428-49.725l-235.237 89.409c3.347 17.213 8.128 34.426 14.822 52.594zM118.097 223.392c44.465-29.644 45.422-67.416 46.378-100.884.957-27.253 1.435-51.159 25.341-67.416 14.822-10.041 31.078-13.388 47.334-9.562 46.855 11.475 80.803 78.891 83.672 84.15l-16.734 6.216 8.606 23.428c-40.163 28.209-59.766 85.584-48.291 156.825l109.969-41.597-4.781-13.387-2.869.956c-2.868.956-5.737 1.435-8.605 1.435-8.129 0-14.822-4.304-17.213-10.519l-16.256-44.944c-1.435-4.781-.957-9.562 1.912-14.344 2.869-4.303 7.172-7.65 12.432-9.562l1.434-.478-1.434-4.303-9.085-24.862 8.128-2.869 9.085 24.863 1.435 4.303c10.519-2.869 21.516 1.434 24.384 9.562l16.257 44.943c1.434 4.781.956 9.562-1.913 14.344-2.391 3.347-5.737 6.216-9.562 8.128l5.26 13.388 113.794-43.031c-39.685-62.156-93.713-92.278-143.438-84.628l-8.606-22.95-16.734 6.216c-1.435-2.869-37.294-76.5-89.41-89.409-18.647-4.781-36.815-.957-54.028 10.519-27.253 18.647-28.209 45.9-29.166 74.587-.956 32.513-1.912 66.459-42.553 93.712C69.807 244.908 2.391 230.086 1.913 230.086L0 238.692c1.435.478 19.604 4.303 43.031 4.303 23.428.001 52.116-3.825 75.066-19.603z"/><path d="M381.065 245.386c1.435-2.391 1.913-5.26 1.435-7.65l-16.256-44.943c-1.435-3.347-5.26-5.738-10.041-5.738-1.435 0-2.868.478-4.303.478-.479 0-.956.479-1.913.479l-6.693 2.391-1.912.956c-3.825 1.435-6.694 3.347-8.606 6.216-1.435 2.391-1.913 5.259-1.435 7.65l16.256 44.944c1.913 4.781 9.085 7.172 16.257 4.303l2.868-.956 5.738-1.913c.956-.478 1.434-.956 2.391-1.434 2.39-.958 4.781-2.871 6.214-4.783z"/></svg>