<svg xmlns="http://www.w3.org/2000/svg" width="523.496" height="523.496" style="enable-background:new 0 0 523.496 523.496" xml:space="preserve"><path d="M232.318 291.632v-34.904c0-10.997-9.084-20.081-20.082-20.081h-42.553l59.766 57.375c.956-.957 1.912-1.435 2.869-2.39zM342.286 266.29h-44.943c-8.606 0-14.822 6.694-14.822 14.822v4.781h79.848c-.001-10.519-9.086-19.603-20.083-19.603zM272.002 296.413H247.14c-1.913 0-3.347.477-4.781.955-1.913.957-3.825 1.912-5.259 3.348l5.259 5.26 10.519 10.039H422.136c0-10.996-9.085-20.08-20.082-20.08H272.002v.478zM126.174 236.647H77.405c-8.606 0-14.822 6.693-14.822 14.822v54.983h59.766c2.869 0 4.781 1.914 4.781 4.781 0 2.869-1.913 4.781-4.781 4.781H62.583v10.041h59.766c2.869 0 4.781 1.912 4.781 4.781s-1.913 4.781-4.781 4.781H62.583v10.041h59.766c2.869 0 4.781 1.912 4.781 4.781s-1.913 4.781-4.781 4.781H63.54c1.913 6.215 7.65 10.041 13.866 10.041h73.631c2.869-6.217 6.694-11.953 11.475-16.734v-32.035h46.856l-83.194-79.845z"/><path d="M438.868 334.185c28.688 0 52.115 23.428 52.594 52.115h32.034c-2.391-40.641-29.166-53.551-46.378-57.854-8.606-1.912-14.344-1.912-14.344-1.912H262.917l7.172 6.693c5.259 4.781 5.259 13.389.479 19.125l-2.391 2.391c-.957.957-1.913 1.436-2.869 1.912-1.912.957-3.825 1.914-6.694 1.914-2.391 0-4.303-.957-6.694-1.914-.956-.477-1.913-.955-2.869-1.912l-6.694-6.693-10.041-9.562-10.041-9.562-2.391-2.391H172.55v15.301c7.65-4.781 16.734-7.172 26.775-7.172 28.688 0 52.116 23.428 52.116 52.115h134.832a52.443 52.443 0 0 1 52.595-52.594z"/><path d="m140.996 236.647 81.281 78.413 1.434 1.434 8.606 8.129 1.913 1.912 8.128 7.65 13.866 13.387c1.434.957 3.347.957 4.303 0l2.391-2.391c1.435-1.434.956-3.346 0-4.303l-14.344-13.865-6.694-6.217-3.825-4.303-6.215-6.215-6.216-6.217-1.913-1.912-68.372-65.502-10.519-10.041L8.555 95.6c-.478-.479-1.434-.957-2.391-.957-.956 0-1.913.478-2.391.957L.904 97.991c-1.435 1.434-.956 3.347 0 4.303l129.572 123.834 10.52 10.519zM438.868 344.702c-22.95 0-42.075 18.648-42.075 42.076 0 22.949 18.646 42.074 42.075 42.074 23.428 0 42.074-18.646 42.074-42.074-.477-23.427-19.125-42.076-42.074-42.076zm0 61.201c-10.52 0-19.604-8.607-19.604-19.604 0-10.52 8.606-19.604 19.604-19.604 10.996 0 19.603 8.607 19.603 19.604-.478 10.997-9.084 19.604-19.603 19.604zM199.327 344.226c-22.95 0-42.075 18.646-42.075 42.074s18.647 42.074 42.075 42.074 42.075-18.646 42.075-42.074c-.478-22.949-19.125-42.074-42.075-42.074zm0 61.677c-10.519 0-19.603-8.607-19.603-19.604 0-10.52 8.606-19.604 19.603-19.604s19.603 8.607 19.603 19.604c-.478 10.997-9.084 19.604-19.603 19.604z"/></svg>