<?xml version="1.0" encoding="iso-8859-1"?>
<!-- Generator: Adobe Illustrator 16.0.0, SVG Export Plug-In . SVG Version: 6.00 Build 0)  -->
<!DOCTYPE svg PUBLIC "-//W3C//DTD SVG 1.1//EN" "http://www.w3.org/Graphics/SVG/1.1/DTD/svg11.dtd">
<svg version="1.1" id="Capa_1" xmlns="http://www.w3.org/2000/svg" xmlns:xlink="http://www.w3.org/1999/xlink" x="0px" y="0px"
	 width="523.496px" height="523.496px" viewBox="0 0 523.496 523.496" style="enable-background:new 0 0 523.496 523.496;"
	 xml:space="preserve">
<g>
	<path d="M232.318,291.632v-34.904c0-10.997-9.084-20.081-20.082-20.081h-42.553l59.766,57.375
		C230.405,293.065,231.361,292.587,232.318,291.632z"/>
	<path d="M342.286,266.29h-44.943c-8.606,0-14.822,6.694-14.822,14.822v4.781h79.848C362.368,275.374,353.283,266.29,342.286,266.29
		z"/>
	<path d="M272.002,296.413H247.14c-1.913,0-3.347,0.477-4.781,0.955c-1.913,0.957-3.825,1.912-5.259,3.348l5.259,5.26l10.519,10.039
		h19.604h0.479h10.04h77.935h0.956h9.562h50.682c0-10.996-9.085-20.08-20.082-20.08h-30.121H361.89h-79.847h-10.041V296.413z"/>
	<g>
		<path d="M126.174,236.647H77.405c-8.606,0-14.822,6.693-14.822,14.822v54.983h59.766c2.869,0,4.781,1.914,4.781,4.781
			c0,2.869-1.913,4.781-4.781,4.781H62.583v10.041h59.766c2.869,0,4.781,1.912,4.781,4.781s-1.913,4.781-4.781,4.781H62.583v10.041
			h59.766c2.869,0,4.781,1.912,4.781,4.781s-1.913,4.781-4.781,4.781H63.54c1.913,6.215,7.65,10.041,13.866,10.041h73.631
			c2.869-6.217,6.694-11.953,11.475-16.734v-22.951v-9.084h46.856L126.174,236.647z"/>
		<path d="M438.868,334.185c28.688,0,52.115,23.428,52.594,52.115h32.034c-2.391-40.641-29.166-53.551-46.378-57.854
			c-8.606-1.912-14.344-1.912-14.344-1.912h-30.122h-10.041h-55.462h-7.65h-12.432h-49.725h-20.081h-2.391h-11.953l7.172,6.693
			c5.259,4.781,5.259,13.389,0.479,19.125l-2.391,2.391c-0.957,0.957-1.913,1.436-2.869,1.912c-1.912,0.957-3.825,1.914-6.694,1.914
			c-2.391,0-4.303-0.957-6.694-1.914c-0.956-0.477-1.913-0.955-2.869-1.912l-6.694-6.693l-10.041-9.562l-10.041-9.562l-2.391-2.391
			h-47.334v15.301c7.65-4.781,16.734-7.172,26.775-7.172c28.688,0,52.116,23.428,52.116,52.115h134.832
			C386.274,357.612,409.702,334.185,438.868,334.185z"/>
	</g>
	<path d="M140.996,236.647l81.281,78.413l0,0l1.434,1.434l8.606,8.129l1.913,1.912l8.128,7.65l13.866,13.387
		c1.434,0.957,3.347,0.957,4.303,0l2.391-2.391c1.435-1.434,0.956-3.346,0-4.303l-14.344-13.865l-6.694-6.217l-3.825-4.303
		l-6.215-6.215l0,0l-6.216-6.217l-1.913-1.912l-68.372-65.502l-10.519-10.041L8.555,95.6c-0.478-0.479-1.434-0.957-2.391-0.957
		c-0.956,0-1.913,0.478-2.391,0.957l-2.869,2.391c-1.435,1.434-0.956,3.347,0,4.303l129.572,123.834L140.996,236.647z"/>
	<path d="M438.868,344.702c-22.95,0-42.075,18.648-42.075,42.076c0,22.949,18.646,42.074,42.075,42.074
		c23.428,0,42.074-18.646,42.074-42.074C480.465,363.351,461.817,344.702,438.868,344.702z M438.868,405.903
		c-10.52,0-19.604-8.607-19.604-19.604c0-10.52,8.606-19.604,19.604-19.604c10.996,0,19.603,8.607,19.603,19.604
		C457.993,397.296,449.387,405.903,438.868,405.903z"/>
	<path d="M199.327,344.226c-22.95,0-42.075,18.646-42.075,42.074s18.647,42.074,42.075,42.074s42.075-18.646,42.075-42.074
		C240.924,363.351,222.277,344.226,199.327,344.226z M199.327,405.903c-10.519,0-19.603-8.607-19.603-19.604
		c0-10.52,8.606-19.604,19.603-19.604s19.603,8.607,19.603,19.604C218.452,397.296,209.846,405.903,199.327,405.903z"/>
</g>
<g>
</g>
<g>
</g>
<g>
</g>
<g>
</g>
<g>
</g>
<g>
</g>
<g>
</g>
<g>
</g>
<g>
</g>
<g>
</g>
<g>
</g>
<g>
</g>
<g>
</g>
<g>
</g>
<g>
</g>
</svg>
