<svg xmlns="http://www.w3.org/2000/svg" width="535.5" height="535.5" style="enable-background:new 0 0 535.5 535.5" xml:space="preserve"><path d="M162.562 95.625h210.375v344.25H162.562zM382.5 449.438v5.527l153 69.777V10.758l-153 80.832v357.848zm66.938-360.774 57.375-24.882V191.47l-57.375 11.045V88.664zm0 125.239 57.375-9.658v127.688l-57.375-4.169V213.903zm0 125.241 57.375 5.556v127.688l-57.375-19.393V339.144zm-47.813-225.446 38.25-18.962v110.332l-38.25 8.568v-99.938zm0 109.93 38.25-7.525v110.333l-38.25-2.869v-99.939zm0 109.94 38.25 3.911v110.332l-38.25-14.305v-99.938zM0 524.742l153-69.777V91.59L0 10.758v513.984zM95.625 94.736l38.25 18.962v99.938l-38.25-8.568V94.736zm0 121.367 38.25 7.525v99.938l-38.25 2.869V216.103zm0 121.367 38.25-3.91v99.938l-38.25 14.306V337.47zM28.688 63.782l57.375 24.882v113.851L28.688 191.47V63.782zm0 140.454 57.375 9.658v113.851l-57.375 4.169V204.236zm0 140.463 57.375-5.556v113.852l-57.375 19.393V344.699z"/></svg>