<svg xmlns="http://www.w3.org/2000/svg" width="446.734" height="446.733" style="enable-background:new 0 0 446.734 446.733" xml:space="preserve"><path d="M36.898 418.046H199.46v28.688H36.898zM36.898 408.483H199.46v-30.465l-26.172-27.407-36.548 38.25-36.471-38.24-36.472 38.25-26.899-28.22z"/><path d="m36.898 332.939 26.899 28.219 36.472-38.25 36.481 38.26 36.538-38.25 26.172 27.406v-37.466H36.898zM71.562 217.233H36.898v86.062H199.46v-86.062h-36.653l-17.528-28.688h-23.084c-7.162-50.165-41.654-63.533-43.232-64.03-2.524-.804-5.202.908-5.986 3.433-.793 2.516.612 5.795 3.137 6.579.325.105 29.586 10.883 36.376 54.009H87.101l-15.539 28.697zM247.273 303.296v57.375h162.562V188.546H247.273zM247.273 418.046h162.562v28.688H247.273zM247.273 140.733h162.562v38.25H247.273zM247.273 370.233h162.562v38.25H247.273zM281.937 92.921h-34.664v38.25h162.562v-38.25h-36.653l-17.527-28.688h-23.084C325.408 14.068 290.917.7 289.339.203c-2.506-.812-5.202.908-5.986 3.433-.794 2.516.612 5.795 3.137 6.579.325.115 29.586 10.892 36.376 54.019h-25.389l-15.54 28.687z"/></svg>