<svg xmlns="http://www.w3.org/2000/svg" width="522.59" height="522.59" style="enable-background:new 0 0 522.59 522.59" xml:space="preserve"><path d="M393.496 218.503c0 10.519-1.434 20.56-4.303 29.644h102.318c3.348-9.562 5.26-19.125 5.26-29.644 0-49.725-40.162-89.888-89.887-89.888-17.691 0-33.947 5.259-47.812 13.866 21.037 18.168 34.424 45.421 34.424 76.022zM197.466 248.146c-2.869-9.562-4.303-19.604-4.303-29.644 0-31.557 14.822-60.244 38.25-78.413-19.603-28.688-52.116-47.334-89.409-47.334-59.766 0-108.057 48.291-108.057 108.057 0 17.212 4.303 33.469 11.475 47.812h152.044v-.478z"/><path d="M203.203 218.503c0 10.519 1.913 20.56 5.259 29.644h169.257c3.348-9.562 5.26-19.125 5.26-29.644 0-28.21-12.91-53.55-33.469-69.807-1.436-.956-2.869-2.391-4.303-3.347l-4.305-2.869c-13.865-8.606-30.121-13.866-47.812-13.866-17.689 0-34.424 5.259-48.768 14.344l-4.303 2.869c-1.435.957-2.869 1.913-4.303 3.347-19.603 15.779-32.513 41.119-32.513 69.329zM498.684 257.709H0c1.435 16.256 6.216 32.034 13.388 47.812H509.205c7.65-15.778 12.432-31.557 13.387-47.812h-23.908zM380.109 315.084H18.169c28.688 50.682 87.497 94.669 159.694 114.75h165.909c72.197-20.081 131.006-64.068 159.693-114.75H380.109z"/></svg>