<?xml version="1.0" encoding="iso-8859-1"?>
<!-- Generator: Adobe Illustrator 16.0.0, SVG Export Plug-In . SVG Version: 6.00 Build 0)  -->
<!DOCTYPE svg PUBLIC "-//W3C//DTD SVG 1.1//EN" "http://www.w3.org/Graphics/SVG/1.1/DTD/svg11.dtd">
<svg version="1.1" id="Capa_1" xmlns="http://www.w3.org/2000/svg" xmlns:xlink="http://www.w3.org/1999/xlink" x="0px" y="0px"
	 width="522.59px" height="522.59px" viewBox="0 0 522.59 522.59" style="enable-background:new 0 0 522.59 522.59;"
	 xml:space="preserve">
<g>
	<g>
		<path d="M393.496,218.503c0,10.519-1.434,20.56-4.303,29.644h102.318c3.348-9.562,5.26-19.125,5.26-29.644
			c0-49.725-40.162-89.888-89.887-89.888c-17.691,0-33.947,5.259-47.812,13.866C380.109,160.649,393.496,187.902,393.496,218.503z"
			/>
		<path d="M197.466,248.146c-2.869-9.562-4.303-19.604-4.303-29.644c0-31.557,14.822-60.244,38.25-78.413
			c-19.603-28.688-52.116-47.334-89.409-47.334c-59.766,0-108.057,48.291-108.057,108.057c0,17.212,4.303,33.469,11.475,47.812
			h152.044V248.146z"/>
		<path d="M203.203,218.503c0,10.519,1.913,20.56,5.259,29.644h29.644h5.737h5.738h61.2h5.26h5.26h56.418
			c3.348-9.562,5.26-19.125,5.26-29.644c0-28.21-12.91-53.55-33.469-69.807c-1.436-0.956-2.869-2.391-4.303-3.347
			c-1.436-0.956-2.869-1.913-4.305-2.869c-13.865-8.606-30.121-13.866-47.812-13.866c-17.689,0-34.424,5.259-48.768,14.344
			c-1.434,0.956-2.869,1.913-4.303,2.869c-1.435,0.957-2.869,1.913-4.303,3.347C216.113,164.953,203.203,190.293,203.203,218.503z"
			/>
		<path d="M498.684,257.709h-5.736h-5.738h-101.84h-5.738h-5.736h-48.291h-5.738h-5.736H244.8h-5.738h-6.215h-20.56h-5.737h-5.738
			H50.203h-6.215H38.25H0c1.435,16.256,6.216,32.034,13.388,47.812h74.109h12.431h17.212h48.291h17.213h12.909h48.291h11.475h16.255
			h43.51h16.256h11.477h14.344h11.475h16.256h43.988h16.256h11.475h52.594c7.65-15.778,12.432-31.557,13.387-47.812H498.684z"/>
		<path d="M380.109,315.084h-60.723h-52.115h-97.537h-56.418H18.169c28.688,50.682,87.497,94.669,159.694,114.75h165.909
			c72.197-20.081,131.006-64.068,159.693-114.75h-70.762H380.109z"/>
	</g>
</g>
<g>
</g>
<g>
</g>
<g>
</g>
<g>
</g>
<g>
</g>
<g>
</g>
<g>
</g>
<g>
</g>
<g>
</g>
<g>
</g>
<g>
</g>
<g>
</g>
<g>
</g>
<g>
</g>
<g>
</g>
</svg>
