<?xml version="1.0" encoding="iso-8859-1"?>
<!-- Generator: Adobe Illustrator 16.0.0, SVG Export Plug-In . SVG Version: 6.00 Build 0)  -->
<!DOCTYPE svg PUBLIC "-//W3C//DTD SVG 1.1//EN" "http://www.w3.org/Graphics/SVG/1.1/DTD/svg11.dtd">
<svg version="1.1" id="Capa_1" xmlns="http://www.w3.org/2000/svg" xmlns:xlink="http://www.w3.org/1999/xlink" x="0px" y="0px"
	 width="91.292px" height="91.292px" viewBox="0 0 91.292 91.292" style="enable-background:new 0 0 91.292 91.292;"
	 xml:space="preserve">
<g>
	<path d="M11.521,86.042h12.25v5.25h-12.25V86.042z M65.771,91.292h12.25v-5.25h-12.25V91.292z M83.271,72.042H8.021
		c-1.934,0-3.5,1.565-3.5,3.5v3.5c0,1.935,1.566,3.5,3.5,3.5h75.25c1.934,0,3.5-1.565,3.5-3.5v-3.5
		C86.771,73.609,85.205,72.042,83.271,72.042z M86.771,19.542v45.5c0,1.935-1.566,3.5-3.5,3.5H8.021c-1.934,0-3.5-1.565-3.5-3.5
		v-45.5C4.521,17.608,17.646,0,45.939,0C74.228,0,86.771,17.608,86.771,19.542z M41.271,30.042c0-1.934-1.566-3.5-3.5-3.5h-22.75
		c-1.934,0-3.5,1.566-3.5,3.5v22.75c0,1.935,1.566,3.5,3.5,3.5h22.75c1.934,0,3.5-1.565,3.5-3.5V30.042z M45.937,14.875
		c8.536,0,15.457-2.252,15.457-5.031c0-2.779-6.921-5.031-15.457-5.031c-8.537,0-15.458,2.252-15.458,5.031
		C30.479,12.624,37.4,14.875,45.937,14.875z M79.771,30.042c0-1.934-1.566-3.5-3.5-3.5h-22.75c-1.934,0-3.5,1.566-3.5,3.5v22.75
		c0,1.935,1.566,3.5,3.5,3.5h22.75c1.934,0,3.5-1.565,3.5-3.5V30.042z M54.375,29.18c-0.6,0.564,3.754,6.157,9.725,12.491
		c5.969,6.336,11.293,11.013,11.895,10.448c0.6-0.564-3.755-6.159-9.724-12.493C60.298,33.292,54.973,28.614,54.375,29.18z
		 M15.875,29.178c-0.599,0.564,3.754,6.157,9.723,12.493c5.969,6.333,11.293,11.011,11.893,10.448
		c0.6-0.564-3.753-6.159-9.722-12.493C21.798,33.291,16.475,28.613,15.875,29.178z"/>
</g>
<g>
</g>
<g>
</g>
<g>
</g>
<g>
</g>
<g>
</g>
<g>
</g>
<g>
</g>
<g>
</g>
<g>
</g>
<g>
</g>
<g>
</g>
<g>
</g>
<g>
</g>
<g>
</g>
<g>
</g>
</svg>
