<svg xmlns="http://www.w3.org/2000/svg" width="535.5" height="535.5" style="enable-background:new 0 0 535.5 535.5" xml:space="preserve"><path d="M482.906 28.688h-21.773c1.635-2.821 2.648-6.062 2.648-9.562s-1.014-6.742-2.648-9.562C457.814 3.873 451.713 0 444.656 0H320.344c-7.057 0-13.158 3.873-16.477 9.562-1.635 2.821-2.648 6.062-2.648 9.562s1.014 6.742 2.648 9.562h-72.244c1.645-2.821 2.658-6.062 2.658-9.562s-1.014-6.742-2.649-9.562C228.314 3.873 222.213 0 215.156 0H90.844c-7.057 0-13.158 3.873-16.476 9.562-1.635 2.821-2.649 6.062-2.649 9.562s1.014 6.742 2.649 9.562H52.594c-15.816 0-28.688 12.871-28.688 28.688v66.938h487.688V57.375c0-15.816-12.871-28.687-28.688-28.687zM114.75 99.211c-10.566 0-19.125-8.559-19.125-19.125s8.559-19.125 19.125-19.125 19.125 8.559 19.125 19.125-8.559 19.125-19.125 19.125zm71.719 0c-10.566 0-19.125-8.559-19.125-19.125s8.559-19.125 19.125-19.125 19.125 8.559 19.125 19.125-8.559 19.125-19.125 19.125zm81.281 0c-10.566 0-19.125-8.559-19.125-19.125s8.559-19.125 19.125-19.125 19.125 8.559 19.125 19.125-8.559 19.125-19.125 19.125zm76.5 0c-10.566 0-19.125-8.559-19.125-19.125s8.559-19.125 19.125-19.125 19.125 8.559 19.125 19.125-8.559 19.125-19.125 19.125zm76.5 0c-10.566 0-19.125-8.559-19.125-19.125s8.559-19.125 19.125-19.125 19.125 8.559 19.125 19.125-8.559 19.125-19.125 19.125zM23.906 506.812c0 15.816 12.871 28.688 28.688 28.688h430.312c15.816 0 28.688-12.871 28.688-28.688V143.438H23.906v363.374zm76.5-334.687h325.125c5.278 0 9.562 4.284 9.562 9.562s-4.284 9.562-9.562 9.562H100.406c-5.278 0-9.562-4.284-9.562-9.562s4.284-9.562 9.562-9.562zm-19.125 76.5c0-15.816 12.871-28.688 28.688-28.688h315.562c15.816 0 28.688 12.871 28.688 28.688v200.812c0 15.816-12.871 28.688-28.688 28.688H109.969c-15.816 0-28.688-12.871-28.688-28.688V248.625z"/><path d="m202.859 239.062-102.453 71.604v33.039l149.73-104.643zM425.531 459h9.563V239.062H292.67L100.406 373.435V459h9.563z"/></svg>