<svg xmlns="http://www.w3.org/2000/svg" width="556.232" height="556.231" style="enable-background:new 0 0 556.232 556.231" xml:space="preserve"><path d="M222.136 314.367h147.081c-35.343-23.38-48.405-62.348-48.405-93.731 0-20.684 2.391-51.332 4.705-80.966 1.94-24.815 3.768-48.243 3.768-61.372C329.284 47.124 316.651 0 297.613 0c-4.724 0-8.816 1.807-12.508 5.546-18.485 18.647-18.179 73.937-18.169 74.492 0 36.031 3.06 56.237 5.766 74.071 2.926 19.288 5.441 35.945 3.796 66.479-2.84 51.972-34.071 80.573-54.362 93.779zM203.164 362.18h181.688v9.562H203.164zM203.164 381.305h181.688v19.125H203.164zM203.164 333.492h181.688v19.125H203.164zM173.673 539.688c-1.721 1.233-2.639 3.634-2.171 5.709.65 2.936 4.017 5.154 9.209 6.101 6.321 1.147 14.506 2.113 23.963 2.869.144 0 .201-.02.383-.01 12.642.87 25.226-25.475 32.828-45.747 0 0-3.586 28.582-8.482 47.124 8.788.315 18.035.497 27.635.497 39.8 0 75.009-2.754 94.2-7.363 10.959-2.63 18.886-9.734 21.21-19.01 8.529-34.129 11.513-92.986 12.221-110.304H203.192c-.057 20.838-2.075 100.531-29.519 120.134z"/></svg>