<?xml version="1.0" encoding="iso-8859-1"?>
<!-- Generator: Adobe Illustrator 16.0.0, SVG Export Plug-In . SVG Version: 6.00 Build 0)  -->
<!DOCTYPE svg PUBLIC "-//W3C//DTD SVG 1.1//EN" "http://www.w3.org/Graphics/SVG/1.1/DTD/svg11.dtd">
<svg version="1.1" id="Capa_1" xmlns="http://www.w3.org/2000/svg" xmlns:xlink="http://www.w3.org/1999/xlink" x="0px" y="0px"
	 width="556.232px" height="556.231px" viewBox="0 0 556.232 556.231" style="enable-background:new 0 0 556.232 556.231;"
	 xml:space="preserve">
<g>
	<g>
		<path d="M222.136,314.367h147.081c-35.343-23.38-48.405-62.348-48.405-93.731c0-20.684,2.391-51.332,4.705-80.966
			c1.94-24.815,3.768-48.243,3.768-61.372C329.284,47.124,316.651,0,297.613,0c-4.724,0-8.816,1.807-12.508,5.546
			c-18.485,18.647-18.179,73.937-18.169,74.492c0,36.031,3.06,56.237,5.766,74.071c2.926,19.288,5.441,35.945,3.796,66.479
			C273.658,272.56,242.427,301.161,222.136,314.367z"/>
		<rect x="203.164" y="362.18" width="181.688" height="9.562"/>
		<rect x="203.164" y="381.305" width="181.688" height="19.125"/>
		<rect x="203.164" y="333.492" width="181.688" height="19.125"/>
		<path d="M173.673,539.688c-1.721,1.233-2.639,3.634-2.171,5.709c0.65,2.936,4.017,5.154,9.209,6.101
			c6.321,1.147,14.506,2.113,23.963,2.869c0.144,0,0.201-0.02,0.383-0.01c12.642,0.87,25.226-25.475,32.828-45.747
			c0,0-3.586,28.582-8.482,47.124c8.788,0.315,18.035,0.497,27.635,0.497c39.8,0,75.009-2.754,94.2-7.363
			c10.959-2.63,18.886-9.734,21.21-19.01c8.529-34.129,11.513-92.986,12.221-110.304H203.192
			C203.135,440.392,201.117,520.085,173.673,539.688z"/>
	</g>
</g>
<g>
</g>
<g>
</g>
<g>
</g>
<g>
</g>
<g>
</g>
<g>
</g>
<g>
</g>
<g>
</g>
<g>
</g>
<g>
</g>
<g>
</g>
<g>
</g>
<g>
</g>
<g>
</g>
<g>
</g>
</svg>
