<?xml version="1.0" encoding="iso-8859-1"?>
<!-- Generator: Adobe Illustrator 16.0.0, SVG Export Plug-In . SVG Version: 6.00 Build 0)  -->
<!DOCTYPE svg PUBLIC "-//W3C//DTD SVG 1.1//EN" "http://www.w3.org/Graphics/SVG/1.1/DTD/svg11.dtd">
<svg version="1.1" id="Capa_1" xmlns="http://www.w3.org/2000/svg" xmlns:xlink="http://www.w3.org/1999/xlink" x="0px" y="0px"
	 width="492.469px" height="492.469px" viewBox="0 0 492.469 492.469" style="enable-background:new 0 0 492.469 492.469;"
	 xml:space="preserve">
<g>
	<g>
		<path d="M93.234,454.219h-9.562v-42.878l185.178-72.522c3.662-1.443,6.072-4.973,6.072-8.912v-41.912
			c-2.648,0.937-5.508,1.481-8.559,1.481c-3.824,0-7.392-0.831-10.566-2.266v36.175L70.619,395.906
			c-3.663,1.435-6.072,4.973-6.072,8.903v58.972c0,5.278,4.284,9.562,9.562,9.562h19.125V454.219z"/>
		<path d="M255.797,275.687c2.926,2.907,6.952,4.236,10.566,4.236c3.299,0,6.139-0.966,8.559-2.553
			c2.792-1.836,5.021-4.523,6.512-7.938c13.904-31.948,22.176-201.749,22.176-222.815v-2.869c0-11.705,1.339-24.978-7.296-33.66
			C289.657,3.395,279.32,0,263.217,0c-12.88,0-22.873,3.653-29.682,10.863c-11.408,12.059-10.547,30.132-10.538,30.313
			c0.851,104.441,29.166,227.855,29.453,229.088C253.119,272.579,254.362,274.262,255.797,275.687z"/>
		<path d="M408.797,425.531H117.141c-7.908,0-14.344,6.436-14.344,14.344v14.344v19.125v4.781c0,7.908,6.436,14.344,14.344,14.344
			h296.438c7.908,0,14.344-6.436,14.344-14.344v-33.469C427.922,434.09,419.363,425.531,408.797,425.531z"/>
	</g>
</g>
<g>
</g>
<g>
</g>
<g>
</g>
<g>
</g>
<g>
</g>
<g>
</g>
<g>
</g>
<g>
</g>
<g>
</g>
<g>
</g>
<g>
</g>
<g>
</g>
<g>
</g>
<g>
</g>
<g>
</g>
</svg>
