<svg xmlns="http://www.w3.org/2000/svg" width="492.469" height="492.469" style="enable-background:new 0 0 492.469 492.469" xml:space="preserve"><path d="M93.234 454.219h-9.562v-42.878l185.178-72.522a9.578 9.578 0 0 0 6.072-8.912v-41.912a25.528 25.528 0 0 1-8.559 1.481c-3.824 0-7.392-.831-10.566-2.266v36.175L70.619 395.906a9.565 9.565 0 0 0-6.072 8.903v58.972c0 5.278 4.284 9.562 9.562 9.562h19.125v-19.124zM255.797 275.687c2.926 2.907 6.952 4.236 10.566 4.236 3.299 0 6.139-.966 8.559-2.553 2.792-1.836 5.021-4.523 6.512-7.938 13.904-31.948 22.176-201.749 22.176-222.815v-2.869c0-11.705 1.339-24.978-7.296-33.66C289.657 3.395 279.32 0 263.217 0c-12.88 0-22.873 3.653-29.682 10.863-11.408 12.059-10.547 30.132-10.538 30.313.851 104.441 29.166 227.855 29.453 229.088.669 2.315 1.912 3.998 3.347 5.423z"/><path d="M408.797 425.531H117.141c-7.908 0-14.344 6.436-14.344 14.344v38.25c0 7.908 6.436 14.344 14.344 14.344h296.438c7.908 0 14.344-6.436 14.344-14.344v-33.469c-.001-10.566-8.56-19.125-19.126-19.125z"/></svg>