<svg xmlns="http://www.w3.org/2000/svg" width="528.328" height="528.328" style="enable-background:new 0 0 528.328 528.328" xml:space="preserve"><ellipse cx="264.164" cy="53.072" rx="82.716" ry="53.072"/><path d="M264.164 118.097c-44.944 0-81.281 36.338-81.281 81.281 0 7.65 3.347 20.082 4.303 25.819 5.259 25.819 14.344 73.153 14.344 105.666 0 41.119-14.344 93.234-17.691 104.71h160.65c-4.304-11.476-21.994-61.679-21.994-104.231 0-30.122 9.085-71.719 15.778-98.016 2.391-9.562 7.172-27.731 7.172-33.469 0-44.944-36.338-81.76-81.281-81.76zM186.708 528.328H341.62v-82.237H186.708v6.216z"/></svg>