<svg xmlns="http://www.w3.org/2000/svg" width="526.417" height="526.416" style="enable-background:new 0 0 526.417 526.416" xml:space="preserve"><path d="M111.881 396.365c0 54.506 27.731 102.797 69.328 130.051h163.997c41.597-27.732 69.328-75.545 69.328-130.051 0-43.031-17.213-81.76-44.466-109.969v116.186c0 21.992-20.56 44.465-42.553 44.465H206.55c-21.994 0-44.944-22.473-44.944-44.465V281.615c-30.6 28.209-49.725 69.328-49.725 114.75z"/><path d="M349.509 21.038c-.956-7.65-3.347-13.388-6.693-17.213C340.904 1.434 338.035 0 335.644 0h-10.519c-4.304 0-8.606 3.825-10.997 10.041-1.912 4.781-3.347 20.081-3.347 20.081H206.55c-16.256 0-25.341 9.084-25.341 28.688v343.773c0 15.777 13.866 24.861 25.341 24.861h120.966c10.997 0 22.472-10.041 22.472-24.861V31.557c0-.479 0-7.651-.479-10.519zM320.344 298.35H290.7v-39.684h29.644v39.684zm0 39.685H290.7V308.39h29.644v29.645zm-109.012-79.369h29.644v39.684h-29.644v-39.684zm39.684-16.735V208.94h29.644v39.685h-29.644v-6.694zm29.644-62.156c0-6.216 6.693-10.997 14.344-10.997h10.519c8.128 0 14.344 4.781 14.344 10.519v.478c0 5.737-6.693 9.084-14.344 9.084h-10.519c-8.129 0-14.344-3.347-14.344-9.084zm0 78.891v39.684h-29.644v-39.684h29.644zm-69.328 49.246h29.644v29.645h-29.644v-29.645zm39.684 0h29.644v29.645h-29.644v-29.645zm58.331-59.287h-19.125V208.94h5.737c11.953 0 23.906 9.084 23.906 20.082v20.081h-10.519v-.478zM211.332 79.847c0-10.997 9.562-20.081 21.994-20.081h65.503c11.953 0 21.993 9.084 21.993 20.081v49.725c0 10.997-9.562 20.081-21.993 20.081h-65.981c-11.953 0-21.994-9.084-21.994-20.081V79.847h.478zm0 99.45c0-5.738 6.694-10.519 14.344-10.519h10.519c8.128 0 14.344 4.781 14.344 10.519v.478c0 5.737-6.693 9.084-14.344 9.084h-10.519c-8.129 0-14.344-3.347-14.344-9.562zm0 49.246c0-10.997 9.562-20.081 21.516-20.081h8.606v39.685H211.81v-19.604h-.478zm0 149.176v-29.645h29.644v49.248h-8.606c-11.476 0-21.038-8.607-21.038-19.603zm39.684-30.121h29.644v49.725h-29.644v-49.725zm69.328 30.121c0 10.996-11.953 20.082-23.906 20.082h-5.737v-50.203h29.644v30.121z"/></svg>