<svg xmlns="http://www.w3.org/2000/svg" width="573.75" height="573.75" style="enable-background:new 0 0 573.75 573.75" xml:space="preserve"><path d="m508.83 105.188 51.781-57.376H11.475l58.608 57.376zM69.701 468.562l-57.375 57.376h549.299l-54.066-57.376zM525.938 114.779v345.407l47.812 50.739V61.793zM57.375 119.493 0 63.333v447.888l57.375-57.375zM76.5 124.312v325.125h430.312V124.312H76.5zm334.688 200.813h-38.25v-47.812h38.25v47.812zM95.625 155.524v-12.087h392.063v286.875h-19.125v-153l-76.5-78.097-76.5 78.097v153h-114.75V309.72c2.697-1.836 5.03-4.103 7.172-6.55 7.009 8.022 17.193 13.196 28.688 13.196 19.488 0 35.391-14.631 37.772-33.479 2.85 1.998 6.302 3.193 10.041 3.193 9.687 0 17.528-7.851 17.528-17.528 0-6.493-3.567-12.097-8.817-15.128 2.009-4.112 3.242-8.673 3.242-13.56 0-17.165-13.914-31.078-31.078-31.078-6.751 0-12.957 2.209-18.054 5.872-6.904-25.848-30.418-44.915-58.446-44.915a60.353 60.353 0 0 0-28.927 7.344c-5.25-4.045-11.743-6.55-18.886-6.55-17.165 0-31.078 13.914-31.078 31.078 0 9.687 4.523 18.226 11.465 23.925-4.513 3.175-7.478 8.396-7.478 14.325 0 3.997 1.386 7.641 3.643 10.586-10.155 5.116-17.193 15.52-17.193 27.664 0 17.165 13.914 31.079 31.078 31.079 7.086 0 13.541-2.468 18.762-6.455 7.019 8.271 17.356 13.627 29.051 13.627.822 0 1.587-.191 2.391-.239v114.186H95.625V155.524z"/></svg>