<?xml version="1.0" encoding="iso-8859-1"?>
<!-- Generator: Adobe Illustrator 16.0.0, SVG Export Plug-In . SVG Version: 6.00 Build 0)  -->
<!DOCTYPE svg PUBLIC "-//W3C//DTD SVG 1.1//EN" "http://www.w3.org/Graphics/SVG/1.1/DTD/svg11.dtd">
<svg version="1.1" id="Capa_1" xmlns="http://www.w3.org/2000/svg" xmlns:xlink="http://www.w3.org/1999/xlink" x="0px" y="0px"
	 width="573.75px" height="573.75px" viewBox="0 0 573.75 573.75" style="enable-background:new 0 0 573.75 573.75;"
	 xml:space="preserve">
<g>
	<g>
		<polygon points="508.83,105.188 560.611,47.812 11.475,47.812 70.083,105.188 		"/>
		<polygon points="69.701,468.562 12.326,525.938 561.625,525.938 507.559,468.562 		"/>
		<polygon points="525.938,114.779 525.938,460.186 573.75,510.925 573.75,61.793 		"/>
		<polygon points="57.375,119.493 0,63.333 0,511.221 57.375,453.846 		"/>
		<path d="M76.5,124.312v13.904v296.504v14.717h12.326h400.707h17.279v-9.553V135.969v-11.657H491.57H89.62H76.5z M411.188,325.125
			h-38.25v-47.812h38.25V325.125z M95.625,155.524v-12.087h11.829h380.234v286.875h-19.125v-153l-76.5-78.097l-76.5,78.097v153
			h-114.75V309.72c2.697-1.836,5.03-4.103,7.172-6.55c7.009,8.022,17.193,13.196,28.688,13.196
			c19.488,0,35.391-14.631,37.772-33.479c2.85,1.998,6.302,3.193,10.041,3.193c9.687,0,17.528-7.851,17.528-17.528
			c0-6.493-3.567-12.097-8.817-15.128c2.009-4.112,3.242-8.673,3.242-13.56c0-17.165-13.914-31.078-31.078-31.078
			c-6.751,0-12.957,2.209-18.054,5.872c-6.904-25.848-30.418-44.915-58.446-44.915c-10.48,0-20.33,2.668-28.927,7.344
			c-5.25-4.045-11.743-6.55-18.886-6.55c-17.165,0-31.078,13.914-31.078,31.078c0,9.687,4.523,18.226,11.465,23.925
			c-4.513,3.175-7.478,8.396-7.478,14.325c0,3.997,1.386,7.641,3.643,10.586c-10.155,5.116-17.193,15.52-17.193,27.664
			c0,17.165,13.914,31.079,31.078,31.079c7.086,0,13.541-2.468,18.762-6.455c7.019,8.271,17.356,13.627,29.051,13.627
			c0.822,0,1.587-0.191,2.391-0.239v114.186H95.625V155.524z"/>
	</g>
</g>
<g>
</g>
<g>
</g>
<g>
</g>
<g>
</g>
<g>
</g>
<g>
</g>
<g>
</g>
<g>
</g>
<g>
</g>
<g>
</g>
<g>
</g>
<g>
</g>
<g>
</g>
<g>
</g>
<g>
</g>
</svg>
