<svg xmlns="http://www.w3.org/2000/svg" width="612.516" height="612.517" style="enable-background:new 0 0 612.516 612.517" xml:space="preserve"><path d="M224.977 306h153v47.812h-153zM95.883 382.347l-.622 28.841h47.832l.622-28.793-.019-.611c0-.105.287-10.146 7.487-17.557 5.489-5.661 14.325-8.903 25.991-9.936v-47.995c-25.456 1.416-45.757 9.639-60.311 24.633-19.909 20.512-20.999 45.796-20.98 51.418zM90.939 611.483l47.804 1.034L142.051 459H94.229zM473.602 262.969c0 36.825-29.491 42.257-39.054 43.031h-8.759v47.812h9.562l1.224-.028c34.101-1.75 84.839-27.378 84.839-90.815v-4.781h-47.812v4.781zM473.602 0h47.812v210.375h-47.812zM473.602 219.938h-28.687v28.687h95.625v-28.687h-19.125zM387.54 306v76.5h28.687v-95.625H387.54zM186.727 306v76.5h28.688v-95.625h-28.688zM95.051 420.75H71.977v28.688h95.625V420.75h-24.719z"/></svg>