<?xml version="1.0" encoding="iso-8859-1"?>
<!-- Generator: Adobe Illustrator 16.0.0, SVG Export Plug-In . SVG Version: 6.00 Build 0)  -->
<!DOCTYPE svg PUBLIC "-//W3C//DTD SVG 1.1//EN" "http://www.w3.org/Graphics/SVG/1.1/DTD/svg11.dtd">
<svg version="1.1" id="Capa_1" xmlns="http://www.w3.org/2000/svg" xmlns:xlink="http://www.w3.org/1999/xlink" x="0px" y="0px"
	 width="612.516px" height="612.517px" viewBox="0 0 612.516 612.517" style="enable-background:new 0 0 612.516 612.517;"
	 xml:space="preserve">
<g>
	<g>
		<rect x="224.977" y="306" width="153" height="47.812"/>
		<path d="M95.883,382.347l-0.622,28.841h47.832l0.622-28.793l-0.019-0.611c0-0.105,0.287-10.146,7.487-17.557
			c5.489-5.661,14.325-8.903,25.991-9.936v-47.995c-25.456,1.416-45.757,9.639-60.311,24.633
			C96.954,351.441,95.864,376.725,95.883,382.347z"/>
		<polygon points="90.939,611.483 138.743,612.517 142.051,459 94.229,459 		"/>
		<path d="M473.602,262.969c0,36.825-29.491,42.257-39.054,43.031h-8.759v47.812h9.562l1.224-0.028
			c34.101-1.75,84.839-27.378,84.839-90.815v-4.781h-47.812V262.969z"/>
		<rect x="473.602" width="47.812" height="210.375"/>
		<polygon points="473.602,219.938 444.915,219.938 444.915,248.625 473.602,248.625 521.415,248.625 540.54,248.625 
			540.54,219.938 521.415,219.938 		"/>
		<polygon points="387.54,306 387.54,353.812 387.54,382.5 416.227,382.5 416.227,353.812 416.227,306 416.227,286.875 
			387.54,286.875 		"/>
		<polygon points="186.727,306 186.727,353.812 186.727,382.5 215.415,382.5 215.415,353.812 215.415,306 215.415,286.875 
			186.727,286.875 		"/>
		<polygon points="95.051,420.75 71.977,420.75 71.977,449.438 94.43,449.438 142.261,449.438 167.602,449.438 167.602,420.75 
			142.883,420.75 		"/>
	</g>
</g>
<g>
</g>
<g>
</g>
<g>
</g>
<g>
</g>
<g>
</g>
<g>
</g>
<g>
</g>
<g>
</g>
<g>
</g>
<g>
</g>
<g>
</g>
<g>
</g>
<g>
</g>
<g>
</g>
<g>
</g>
</svg>
