<svg xmlns="http://www.w3.org/2000/svg" width="551.278" height="551.278" style="enable-background:new 0 0 551.278 551.278" xml:space="preserve"><path d="M367.438 421.229H184.317l23.906 130.049h135.309zM218.264 162.084c-5.259 0-9.562 63.113-9.562 140.569 0 17.69 0 34.425.478 49.725h17.691c.478-15.3.478-32.034.478-49.725-.001-77.934-4.304-140.569-9.085-140.569zM243.604 196.51c-5.26 0-9.084 53.55-8.128 119.053 0 12.909.478 24.862.957 36.338h17.69v-36.815c-.478-65.026-5.259-118.576-10.519-118.576zM184.317 233.803c-5.259 0-5.259 47.334-.478 105.188.478 4.781.956 9.084 1.434 13.387h18.647c-.478-4.781-.478-9.562-.956-14.344-5.26-57.852-13.388-104.709-18.647-104.231zM326.321 302.653c0 17.69 0 34.425.477 49.725h17.691c.479-15.3.479-32.034.479-49.725 0-77.456-4.303-140.569-9.562-140.569-4.782 0-9.085 62.635-9.085 140.569zM310.063 196.51c-5.258 0-10.039 53.072-10.518 119.053v36.815h17.689c.479-11.475.479-23.906.957-36.337.958-65.981-2.868-119.531-8.128-119.531zM369.829 338.513c4.781-57.854 4.781-104.709-.477-105.188-5.26 0-13.389 46.378-18.17 104.231-.479 4.781-.955 9.562-.955 14.344h18.646c.479-4.303.956-8.606.956-13.387zM173.798 412.622H378.436l5.26-51.638H167.583z"/><path d="M202.485 72.675c0 9.562 13.388 17.69 29.644 18.168-11.953 12.432-16.256 27.731-9.084 34.903 6.694 6.694 21.994 2.869 33.947-8.606 0 12.91 4.781 24.385 11.475 28.688-2.391 33.469-3.825 79.847-3.825 131.963 0 26.297.479 51.638.957 74.587h21.516c.479-22.949.957-47.812.957-74.587 0-53.072-1.436-100.885-3.826-134.354 4.781-5.259 8.129-14.344 8.607-25.34 12.43 11.953 27.73 16.256 34.902 9.084 6.693-6.694 2.869-21.994-8.605-33.947 17.211 0 31.078-8.128 31.078-18.168 0-9.562-13.389-17.691-29.645-18.169 11.953-12.431 16.256-27.731 9.084-34.903-6.215-6.216-21.516-2.391-33.469 9.084C296.198 13.866 288.071 0 278.03 0c-9.563 0-17.691 13.388-18.169 29.644-12.431-11.953-27.731-16.256-34.903-9.084-6.694 6.694-2.869 21.994 8.606 33.947-17.213-.001-31.079 8.128-31.079 18.168zm74.109-30.6c17.691 0 32.035 14.344 32.035 32.034 0 16.256-12.432 29.644-28.209 31.557-1.436 0-2.391.478-3.826.478-1.434 0-2.39 0-3.825-.478-15.778-1.913-28.209-15.3-28.209-31.557.001-17.69 14.344-32.034 32.034-32.034z"/><path d="M275.16 97.06h2.87c11.953-.956 21.516-10.997 21.516-22.95 0-12.909-10.52-23.428-23.428-23.428-12.91 0-23.429 10.519-23.429 23.428.478 12.431 10.04 21.994 22.471 22.95z"/></svg>