<svg xmlns="http://www.w3.org/2000/svg" width="573.453" height="573.452" style="enable-background:new 0 0 573.453 573.452" xml:space="preserve"><path d="M425.382 315.265H291.507V159.577c8.128-9.409 33.545-30.265 96.792-24.729 25.981 2.276 62.949-23.466 33-74.263-11.839-20.081-41.826-30.15-80.956-7.085-30.036 17.709-43.193 43.519-48.836 65.771V28.39c0-14.812-6.703-21.745-12.326-24.949-18.991-10.834-51.217 7.048-57.48 10.739-4.552 2.678-6.062 8.539-3.385 13.081 2.687 4.562 8.568 6.062 13.091 3.386 11.752-6.904 31.632-14.382 38.288-10.605 2.218 1.272 2.687 5.24 2.687 8.349v157.322c-6.895-19.651-20.187-40.622-45.776-55.711-39.129-23.065-69.118-12.996-80.956 7.085-29.95 50.797 7.019 76.539 33 74.263 56.753-4.963 83.041 11.332 93.731 21.535v82.38h-124.31c-10.566 0-19.125 8.559-19.125 19.125s8.559 19.125 19.125 19.125h25.799l30.332 219.938h165.029l30.333-219.938h25.817c10.566 0 19.125-8.559 19.125-19.125s-8.557-19.125-19.124-19.125z"/></svg>