<svg xmlns="http://www.w3.org/2000/svg" width="583.312" height="583.312" style="enable-background:new 0 0 583.312 583.312" xml:space="preserve"><path d="M556.786 149.529c-21.678-58.36-78.222-47.535-103.647-29.95 7.382-25.522 14.458-42.199 14.64-42.62 2.095-4.848-.144-10.471-4.982-12.565-4.829-2.094-10.48.134-12.564 4.982-1.865 4.293-42.238 99.182-31.03 190.265h19.259c-3.835-28.946-1.894-58.8 2.409-85.775 50.51 44.379 79.264-8.76 96.486-12.183 12.305-2.448 32.138 22.061 19.429-12.154zM0 517.829h583.312v47.812H0zM246.712 364.829H68.85l11.475 57.375h154.912zM258.188 307.454H57.375l9.563 47.812h181.687zM219.938 498.704l13.387-66.938H82.237l13.388 66.938zM19.125 240.516l19.125 57.375h239.061l19.125-57.375h-63.562c3.806-27.167 11.208-55.568 24.911-79.847 0 0-6.904 6.818-15.157 22.902 3.509-28.936.899-46.837-.402-53.206 8.578-23.887 19.813-47.153 34.549-67.511 0 0-53.617 41.673-76.997 177.652h-3.175a510.288 510.288 0 0 1 3.002-36.433c4.342-18.437 10.71-36.643 19.938-52.976 0 0-7.019 6.961-15.367 23.333 5.718-30.045 15.089-60.33 30.103-86.914 0 0-40.956 39.923-53.818 153H168.08a546.835 546.835 0 0 1-.287-6.35c1.989-48.893 10.854-108.486 37.801-156.213 0 0-17.997 17.585-33.88 62.357 4.982-37.37 14.984-76.691 33.88-110.169 0 0-54.497 53.12-57.5 210.375h-6.98a610.51 610.51 0 0 1-2.218-10.71c1.568-49.821 10.107-111.996 38.011-161.415 0 0-29.175 28.458-46.015 105.331-3.299-38.518-1.999-80.392 9.821-118.164 0 0-34.703 52.183-18.781 177.174-.239 2.553-.45 5.173-.65 7.793h-6.474a531.588 531.588 0 0 0-9.391-31.241c13.856-91.532.01-129.094.01-129.094 3.547 31.059 1.071 65.637-3.883 98.207C105.991 63.629 71.155 17.671 71.155 17.671 88.673 63.59 90.414 116.796 86.751 162.38c-27.645-58.465-55.635-77.504-55.635-77.504 24.681 29.959 41.473 67.368 52.9 103.638-2.63 20.435-6.024 38.327-9.037 52.001H19.125zm222.357-107.999c-.832 35.162-10.232 70.734-22.797 103.026 3.547-30.542 10.251-67.386 22.797-103.026zM430.312 498.704h9.562c41.339 0 66.938-39.703 66.938-76.5v-28.688h-153v28.688c0 39.321 37.179 76.5 76.5 76.5zM506.812 269.204h-153v114.75h153z"/></svg>