<?xml version="1.0" encoding="iso-8859-1"?>
<!-- Generator: Adobe Illustrator 16.0.0, SVG Export Plug-In . SVG Version: 6.00 Build 0)  -->
<!DOCTYPE svg PUBLIC "-//W3C//DTD SVG 1.1//EN" "http://www.w3.org/Graphics/SVG/1.1/DTD/svg11.dtd">
<svg version="1.1" id="Capa_1" xmlns="http://www.w3.org/2000/svg" xmlns:xlink="http://www.w3.org/1999/xlink" x="0px" y="0px"
	 width="460.971px" height="460.971px" viewBox="0 0 460.971 460.971" style="enable-background:new 0 0 460.971 460.971;"
	 xml:space="preserve">
<g>
	<path d="M346.152,226.316l0.078-1.033c3.939-55.787,58.396-87.822,82.025-99.163c-7.955-2.046-16.197-1.654-24.928,1.195
		c-41.578,13.512-78.682,77.896-89.908,99H346.152z"/>
	<path d="M350.094,100.913c-4.982,0.316-9.859,1.999-14.746,5.049c-33.938,21.229-53.865,99.545-58.627,120.344h24.27
		C303.352,159.455,335.291,117.026,350.094,100.913z"/>
	<path d="M38.566,216.438c10.49,1.042,20.502,4.398,30.017,9.878h35.907c-10.136-10.72-31.107-28.936-56.285-28.381
		c-16.687,0.239-32.837,8.453-48.205,24.47C10.404,218.207,23.734,214.965,38.566,216.438z"/>
	<path d="M275.715,75.783c-25.482,44.102-29.768,146.765-29.91,150.533h19.422C260.826,195.333,270.867,112.331,275.715,75.783z"/>
	<path d="M118.24,226.316h19.307c-9.343-25.867-33.22-81.587-68.506-91.532c-10.796-3.041-22.051-1.406-33.603,4.867
		c6.129,0.058,13.177,1.138,20.741,4.15C81.788,153.985,102.634,181.822,118.24,226.316z"/>
	<path d="M227.148,45.719c-8.425,41.386-10.93,123.691-11.303,180.597h20.388L227.148,45.719z"/>
	<path d="M182.701,226.316h19.995c-4.8-47.382-12.001-106.048-20.004-143.753C184.69,125.03,186.852,192.331,182.701,226.316z"/>
	<path d="M356.051,226.316h32.578c20.006-23.447,39.857-35.056,59.23-34.205c4.715,0.21,9.084,1.147,13.111,2.563
		c-13.59-13.933-27.119-20.626-41.377-20.349C385.857,175.3,360.602,218.083,356.051,226.316z"/>
	<path d="M153.144,226.316h15.549c-3.146-31.729-13.56-103.896-44.361-124.408C135.319,125.413,157.476,179.699,153.144,226.316z"/>
	<path d="M233.689,415.223c17.729-0.297,34.883-3.098,51.053-8.242C268.42,412.135,251.254,414.926,233.689,415.223z"/>
	<path d="M228.114,415.252c-17.729-0.258-35.037-3.07-51.494-8.262C192.923,412.172,210.212,414.994,228.114,415.252z"/>
	<path d="M146.966,235.879h-1.1h-5.021h-19.259h-9.084H82.056h-7.545H66.01H51.398c5.307,92.621,86.283,169.943,179.288,169.943
		c92.996,0,173.97-77.322,179.277-169.943h-16.896h-6.158h-5.996h-29.797h-5.641h-36.902h-7.852h-26.02h-7.295h-51.6h-4.752h-2.639
		h-4.753h-22.52h-4.819h-1.979h-4.8h-17.691H146.966z"/>
</g>
<g>
</g>
<g>
</g>
<g>
</g>
<g>
</g>
<g>
</g>
<g>
</g>
<g>
</g>
<g>
</g>
<g>
</g>
<g>
</g>
<g>
</g>
<g>
</g>
<g>
</g>
<g>
</g>
<g>
</g>
</svg>
