<?xml version="1.0" encoding="iso-8859-1"?>
<!-- Generator: Adobe Illustrator 16.0.0, SVG Export Plug-In . SVG Version: 6.00 Build 0)  -->
<!DOCTYPE svg PUBLIC "-//W3C//DTD SVG 1.1//EN" "http://www.w3.org/Graphics/SVG/1.1/DTD/svg11.dtd">
<svg version="1.1" id="Capa_1" xmlns="http://www.w3.org/2000/svg" xmlns:xlink="http://www.w3.org/1999/xlink" x="0px" y="0px"
	 width="573.453px" height="573.452px" viewBox="0 0 573.453 573.452" style="enable-background:new 0 0 573.453 573.452;"
	 xml:space="preserve">
<g>
	<path d="M425.382,315.265h-1.224H414.5h-9.658H291.507v-9.562v-9.562V159.577c8.128-9.409,33.545-30.265,96.792-24.729
		c25.981,2.276,62.949-23.466,33-74.263c-11.839-20.081-41.826-30.15-80.956-7.085c-30.036,17.709-43.193,43.519-48.836,65.771
		V28.39c0-14.812-6.703-21.745-12.326-24.949c-18.991-10.834-51.217,7.048-57.48,10.739c-4.552,2.678-6.062,8.539-3.385,13.081
		c2.687,4.562,8.568,6.062,13.091,3.386c11.752-6.904,31.632-14.382,38.288-10.605c2.218,1.272,2.687,5.24,2.687,8.349v157.322
		c-6.895-19.651-20.187-40.622-45.776-55.711c-39.129-23.065-69.118-12.996-80.956,7.085c-29.95,50.797,7.019,76.539,33,74.263
		c56.753-4.963,83.041,11.332,93.731,21.535v63.256v9.562v9.562H168.601h-9.658h-9.658h-1.214c-10.566,0-19.125,8.559-19.125,19.125
		s8.559,19.125,19.125,19.125h6.502h9.648h9.649l30.332,219.938h165.029l30.333-219.938h9.648h9.648h6.521
		c10.566,0,19.125-8.559,19.125-19.125S435.949,315.265,425.382,315.265z"/>
</g>
<g>
</g>
<g>
</g>
<g>
</g>
<g>
</g>
<g>
</g>
<g>
</g>
<g>
</g>
<g>
</g>
<g>
</g>
<g>
</g>
<g>
</g>
<g>
</g>
<g>
</g>
<g>
</g>
<g>
</g>
</svg>
