<svg xmlns="http://www.w3.org/2000/svg" width="460.971" height="460.971" style="enable-background:new 0 0 460.971 460.971" xml:space="preserve"><path d="m346.152 226.316.078-1.033c3.939-55.787 58.396-87.822 82.025-99.163-7.955-2.046-16.197-1.654-24.928 1.195-41.578 13.512-78.682 77.896-89.908 99h32.733zM350.094 100.913c-4.982.316-9.859 1.999-14.746 5.049-33.938 21.229-53.865 99.545-58.627 120.344h24.27c2.361-66.851 34.3-109.28 49.103-125.393zM38.566 216.438c10.49 1.042 20.502 4.398 30.017 9.878h35.907c-10.136-10.72-31.107-28.936-56.285-28.381-16.687.239-32.837 8.453-48.205 24.47 10.404-4.198 23.734-7.44 38.566-5.967zM275.715 75.783c-25.482 44.102-29.768 146.765-29.91 150.533h19.422c-4.401-30.983 5.64-113.985 10.488-150.533zM118.24 226.316h19.307c-9.343-25.867-33.22-81.587-68.506-91.532-10.796-3.041-22.051-1.406-33.603 4.867 6.129.058 13.177 1.138 20.741 4.15 25.609 10.184 46.455 38.021 62.061 82.515zM227.148 45.719c-8.425 41.386-10.93 123.691-11.303 180.597h20.388l-9.085-180.597zM182.701 226.316h19.995c-4.8-47.382-12.001-106.048-20.004-143.753 1.998 42.467 4.16 109.768.009 143.753zM356.051 226.316h32.578c20.006-23.447 39.857-35.056 59.23-34.205 4.715.21 9.084 1.147 13.111 2.563-13.59-13.933-27.119-20.626-41.377-20.349-33.736.975-58.991 43.758-63.542 51.991zM153.144 226.316h15.549c-3.146-31.729-13.56-103.896-44.361-124.408 10.987 23.505 33.144 77.791 28.812 124.408zM233.689 415.223c17.729-.297 34.883-3.098 51.053-8.242-16.322 5.154-33.488 7.945-51.053 8.242zM228.114 415.252c-17.729-.258-35.037-3.07-51.494-8.262 16.303 5.182 33.592 8.004 51.494 8.262zM146.966 235.879H51.398c5.307 92.621 86.283 169.943 179.288 169.943 92.996 0 173.97-77.322 179.277-169.943H146.966z"/></svg>