<?xml version="1.0" encoding="iso-8859-1"?>
<!-- Generator: Adobe Illustrator 16.0.0, SVG Export Plug-In . SVG Version: 6.00 Build 0)  -->
<!DOCTYPE svg PUBLIC "-//W3C//DTD SVG 1.1//EN" "http://www.w3.org/Graphics/SVG/1.1/DTD/svg11.dtd">
<svg version="1.1" id="Capa_1" xmlns="http://www.w3.org/2000/svg" xmlns:xlink="http://www.w3.org/1999/xlink" x="0px" y="0px"
	 width="551.278px" height="551.278px" viewBox="0 0 551.278 551.278" style="enable-background:new 0 0 551.278 551.278;"
	 xml:space="preserve">
<g>
	<g>
		<polygon points="367.438,421.229 359.311,421.229 347.836,421.229 340.665,421.229 330.624,421.229 311.977,421.229 
			303.37,421.229 283.766,421.229 269.423,421.229 250.298,421.229 241.692,421.229 223.045,421.229 213.004,421.229 
			205.833,421.229 194.357,421.229 184.317,421.229 208.223,551.278 343.532,551.278 		"/>
		<path d="M218.264,162.084c-5.259,0-9.562,63.113-9.562,140.569c0,17.69,0,34.425,0.478,49.725h17.691
			c0.478-15.3,0.478-32.034,0.478-49.725C227.348,224.719,223.045,162.084,218.264,162.084z"/>
		<path d="M243.604,196.51c-5.26,0-9.084,53.55-8.128,119.053c0,12.909,0.478,24.862,0.957,36.338h17.69c0-11.476,0-23.906,0-36.815
			C253.645,250.06,248.864,196.51,243.604,196.51z"/>
		<path d="M184.317,233.803c-5.259,0-5.259,47.334-0.478,105.188c0.478,4.781,0.956,9.084,1.434,13.387h18.647
			c-0.478-4.781-0.478-9.562-0.956-14.344C197.704,280.182,189.576,233.325,184.317,233.803z"/>
		<path d="M326.321,302.653c0,17.69,0,34.425,0.477,49.725h17.691c0.479-15.3,0.479-32.034,0.479-49.725
			c0-77.456-4.303-140.569-9.562-140.569C330.624,162.084,326.321,224.719,326.321,302.653z"/>
		<path d="M310.063,196.51c-5.258,0-10.039,53.072-10.518,119.053c0,12.909,0,24.862,0,36.815h17.689
			c0.479-11.475,0.479-23.906,0.957-36.337C319.149,250.06,315.323,196.51,310.063,196.51z"/>
		<path d="M369.829,338.513c4.781-57.854,4.781-104.709-0.477-105.188c-5.26,0-13.389,46.378-18.17,104.231
			c-0.479,4.781-0.955,9.562-0.955,14.344h18.646C369.352,347.597,369.829,343.294,369.829,338.513z"/>
		<polygon points="173.798,412.622 182.404,412.622 192.923,412.622 205.833,412.622 212.048,412.622 224.001,412.622 
			240.257,412.622 251.254,412.622 268.945,412.622 284.723,412.622 302.415,412.622 313.411,412.622 329.667,412.622 
			341.62,412.622 347.836,412.622 360.745,412.622 369.352,412.622 378.436,412.622 383.696,360.984 367.917,360.984 
			349.749,360.984 344.01,360.984 327.276,360.984 317.235,360.984 300.024,360.984 287.114,360.984 266.076,360.984 
			253.645,360.984 236.433,360.984 226.392,360.984 209.657,360.984 203.92,360.984 185.751,360.984 167.583,360.984 		"/>
		<path d="M202.485,72.675c0,9.562,13.388,17.69,29.644,18.168c-11.953,12.432-16.256,27.731-9.084,34.903
			c6.694,6.694,21.994,2.869,33.947-8.606c0,12.91,4.781,24.385,11.475,28.688c-2.391,33.469-3.825,79.847-3.825,131.963
			c0,26.297,0.479,51.638,0.957,74.587h21.516c0.479-22.949,0.957-47.812,0.957-74.587c0-53.072-1.436-100.885-3.826-134.354
			c4.781-5.259,8.129-14.344,8.607-25.34c12.43,11.953,27.73,16.256,34.902,9.084c6.693-6.694,2.869-21.994-8.605-33.947
			c17.211,0,31.078-8.128,31.078-18.168c0-9.562-13.389-17.691-29.645-18.169c11.953-12.431,16.256-27.731,9.084-34.903
			c-6.215-6.216-21.516-2.391-33.469,9.084C296.198,13.866,288.071,0,278.03,0c-9.563,0-17.691,13.388-18.169,29.644
			c-12.431-11.953-27.731-16.256-34.903-9.084c-6.694,6.694-2.869,21.994,8.606,33.947
			C216.351,54.506,202.485,62.635,202.485,72.675z M276.594,42.075c17.691,0,32.035,14.344,32.035,32.034
			c0,16.256-12.432,29.644-28.209,31.557c-1.436,0-2.391,0.478-3.826,0.478c-1.434,0-2.39,0-3.825-0.478
			c-15.778-1.913-28.209-15.3-28.209-31.557C244.561,56.419,258.904,42.075,276.594,42.075z"/>
		<path d="M275.16,97.06c0.479,0,0.957,0,1.434,0c0.479,0,0.957,0,1.436,0c11.953-0.956,21.516-10.997,21.516-22.95
			c0-12.909-10.52-23.428-23.428-23.428c-12.91,0-23.429,10.519-23.429,23.428C253.167,86.541,262.729,96.104,275.16,97.06z"/>
	</g>
</g>
<g>
</g>
<g>
</g>
<g>
</g>
<g>
</g>
<g>
</g>
<g>
</g>
<g>
</g>
<g>
</g>
<g>
</g>
<g>
</g>
<g>
</g>
<g>
</g>
<g>
</g>
<g>
</g>
<g>
</g>
</svg>
