<?xml version="1.0" encoding="iso-8859-1"?>
<!-- Generator: Adobe Illustrator 16.0.0, SVG Export Plug-In . SVG Version: 6.00 Build 0)  -->
<!DOCTYPE svg PUBLIC "-//W3C//DTD SVG 1.1//EN" "http://www.w3.org/Graphics/SVG/1.1/DTD/svg11.dtd">
<svg version="1.1" id="Capa_1" xmlns="http://www.w3.org/2000/svg" xmlns:xlink="http://www.w3.org/1999/xlink" x="0px" y="0px"
	 width="583.312px" height="583.312px" viewBox="0 0 583.312 583.312" style="enable-background:new 0 0 583.312 583.312;"
	 xml:space="preserve">
<g>
	<path d="M556.786,149.529c-21.678-58.36-78.222-47.535-103.647-29.95c7.382-25.522,14.458-42.199,14.64-42.62
		c2.095-4.848-0.144-10.471-4.982-12.565c-4.829-2.094-10.48,0.134-12.564,4.982c-1.865,4.293-42.238,99.182-31.03,190.265h19.259
		c-3.835-28.946-1.894-58.8,2.409-85.775c50.51,44.379,79.264-8.76,96.486-12.183C549.662,159.235,569.495,183.744,556.786,149.529z
		"/>
	<rect y="517.829" width="583.312" height="47.812"/>
	<polygon points="246.712,364.829 173.406,364.829 161.071,364.829 68.85,364.829 80.325,422.204 235.237,422.204 	"/>
	<polygon points="258.188,307.454 229.481,307.454 215.396,307.454 204.044,307.454 197.341,307.454 191.613,307.454 
		183.839,307.454 176.753,307.454 176.696,307.454 169.371,307.454 147.999,307.454 141.592,307.454 128.883,307.454 
		119.455,307.454 107.014,307.454 57.375,307.454 66.938,355.266 153.086,355.266 179.01,355.266 248.625,355.266 	"/>
	<polygon points="219.938,498.704 233.325,431.766 82.237,431.766 95.625,498.704 	"/>
	<path d="M19.125,240.516l19.125,57.375h9.562h24.843h14.009h19.45h13.196h8.013h6.407h6.952h7.325h8.54h12.096h8.128h0.373h12.096
		h1.989h1.167h4.37h11.695h6.302h1.023h13.521h48.004l19.125-57.375h-63.562c3.806-27.167,11.208-55.568,24.911-79.847
		c0,0-6.904,6.818-15.157,22.902c3.509-28.936,0.899-46.837-0.402-53.206c8.578-23.887,19.813-47.153,34.549-67.511
		c0,0-53.617,41.673-76.997,177.652h-3.175c0.545-11.666,1.511-23.916,3.002-36.433c4.342-18.437,10.71-36.643,19.938-52.976
		c0,0-7.019,6.961-15.367,23.333c5.718-30.045,15.089-60.33,30.103-86.914c0,0-40.956,39.923-53.818,153H168.08
		c-0.105-2.056-0.201-4.169-0.287-6.35c1.989-48.893,10.854-108.486,37.801-156.213c0,0-17.997,17.585-33.88,62.357
		c4.982-37.37,14.984-76.691,33.88-110.169c0,0-54.497,53.12-57.5,210.375h-6.98c-0.755-3.481-1.492-7.047-2.218-10.71
		c1.568-49.821,10.107-111.996,38.011-161.415c0,0-29.175,28.458-46.015,105.331c-3.299-38.518-1.999-80.392,9.821-118.164
		c0,0-34.703,52.183-18.781,177.174c-0.239,2.553-0.45,5.173-0.65,7.793h-6.474c-2.984-11.15-6.139-21.516-9.391-31.241
		c13.856-91.532,0.01-129.094,0.01-129.094c3.547,31.059,1.071,65.637-3.883,98.207C105.991,63.629,71.155,17.671,71.155,17.671
		c17.518,45.919,19.259,99.125,15.596,144.709c-27.645-58.465-55.635-77.504-55.635-77.504
		c24.681,29.959,41.473,67.368,52.9,103.638c-2.63,20.435-6.024,38.327-9.037,52.001H19.125z M241.482,132.517
		c-0.832,35.162-10.232,70.734-22.797,103.026C222.232,205.001,228.936,168.157,241.482,132.517z"/>
	<path d="M430.312,498.704h9.562c41.339,0,66.938-39.703,66.938-76.5v-28.688h-153v28.688
		C353.812,461.525,390.991,498.704,430.312,498.704z"/>
	<polygon points="506.812,269.204 439.971,269.204 420.578,269.204 353.812,269.204 353.812,383.954 506.812,383.954 	"/>
</g>
<g>
</g>
<g>
</g>
<g>
</g>
<g>
</g>
<g>
</g>
<g>
</g>
<g>
</g>
<g>
</g>
<g>
</g>
<g>
</g>
<g>
</g>
<g>
</g>
<g>
</g>
<g>
</g>
<g>
</g>
</svg>
