<svg xmlns="http://www.w3.org/2000/svg" width="344.25" height="344.25" style="enable-background:new 0 0 344.25 344.25" xml:space="preserve"><path d="M339.469 0H4.781v344.25h334.688V0zM169.734 304.308c-69.979 0-126.703-56.725-126.703-126.703S99.756 50.901 169.734 50.901s126.703 56.725 126.703 126.703-56.724 126.704-126.703 126.704z"/><circle cx="100.464" cy="209.725" r="19.106"/><circle cx="243.901" cy="209.725" r="19.106"/><circle cx="167.401" cy="104.537" r="19.106"/><path d="M170.327 160.746c-9.572 0-17.346 7.784-17.346 17.356s7.774 17.355 17.346 17.355 17.347-7.783 17.347-17.355-7.775-17.356-17.347-17.356zm0 25.149c-4.293 0-7.784-3.5-7.784-7.793s3.49-7.793 7.784-7.793 7.784 3.5 7.784 7.793-3.48 7.793-7.784 7.793z"/></svg>