<?xml version="1.0" encoding="iso-8859-1"?>
<!-- Generator: Adobe Illustrator 16.0.0, SVG Export Plug-In . SVG Version: 6.00 Build 0)  -->
<!DOCTYPE svg PUBLIC "-//W3C//DTD SVG 1.1//EN" "http://www.w3.org/Graphics/SVG/1.1/DTD/svg11.dtd">
<svg version="1.1" id="Capa_1" xmlns="http://www.w3.org/2000/svg" xmlns:xlink="http://www.w3.org/1999/xlink" x="0px" y="0px"
	 width="474.3px" height="474.3px" viewBox="0 0 474.3 474.3" style="enable-background:new 0 0 474.3 474.3;" xml:space="preserve"
	>
<g>
	<path d="M382.979,125.986H264.881c-9.084,0-18.168,6.215-18.168,15.3v45.422c0,9.084,9.084,18.169,18.168,18.169h123.356
		c8.606,0,14.822-7.172,15.778-15.3c0-0.956,0-48.291,0-48.291c0-9.084-6.216-15.3-15.778-15.3H382.979z"/>
	<path d="M219.459,115.945c9.084,0,17.212,4.303,22.472,11.475c5.259-6.694,13.387-11.475,22.472-11.475h123.834
		c6.216,0,13.388-0.478,15.778,2.869V56.658H78.891v62.156c3.347-3.347,10.519-2.869,16.734-2.869H219.459z"/>
	<path d="M474.3,293.33l-61.678-92.756c-4.781,8.606-13.866,14.344-24.385,14.344H264.881c-9.084,0-17.212-4.781-22.472-11.475l0,0
		c-5.737,6.694-14.344,11.475-22.472,11.475H95.625c-10.519,0-19.125-6.216-23.906-14.822l-1.435,1.912L0,293.33H474.3z"/>
	<path d="M22.472,373.176c2.869,2.869,4.303,4.781,9.084,4.781h-1.913v28.209c0,6.216,10.519,11.476,19.604,11.476
		c9.084,0,19.603-5.26,19.603-11.476v-50.681c0,0,7.65,2.391,10.519,4.781c6.694,6.693,10.041,17.212,21.516,17.212
		c16.734,0,16.734-22.472,33.469-22.472s16.734,22.472,33.469,22.472s16.734-22.472,33.469-22.472s16.734,22.472,33.469,22.472
		c16.734,0,16.734-22.472,33.469-22.472s16.734,22.472,33.469,22.472s16.734-22.472,33.946-22.472
		c16.734,0,16.734,22.472,33.947,22.472c12.431,0,15.778-12.431,23.906-18.646c2.868-1.912,5.259-3.347,9.562-3.347
		c0.478,0,0.478,0,0.478,0v50.203c0,6.216,10.52,11.475,19.604,11.475s19.604-5.259,19.604-11.475v-28.21
		c0,0,6.215-1.912,9.084-4.303c8.128-6.693,10.519-17.69,20.56-17.69V303.37H0v52.116C11.953,355.486,15.778,366.483,22.472,373.176
		z"/>
	<path d="M236.672,141.286c0-9.084-7.65-15.3-17.212-15.3H95.625c-9.084,0-16.734,6.215-16.734,15.3c0,0,0,47.334,0,48.291
		c0.956,8.128,8.128,15.3,16.734,15.3h123.834c9.084,0,16.734-9.084,16.734-18.169v-45.422H236.672z"/>
</g>
<g>
</g>
<g>
</g>
<g>
</g>
<g>
</g>
<g>
</g>
<g>
</g>
<g>
</g>
<g>
</g>
<g>
</g>
<g>
</g>
<g>
</g>
<g>
</g>
<g>
</g>
<g>
</g>
<g>
</g>
</svg>
