<?xml version="1.0" encoding="iso-8859-1"?>
<!-- Generator: Adobe Illustrator 16.0.0, SVG Export Plug-In . SVG Version: 6.00 Build 0)  -->
<!DOCTYPE svg PUBLIC "-//W3C//DTD SVG 1.1//EN" "http://www.w3.org/Graphics/SVG/1.1/DTD/svg11.dtd">
<svg version="1.1" id="Capa_1" xmlns="http://www.w3.org/2000/svg" xmlns:xlink="http://www.w3.org/1999/xlink" x="0px" y="0px"
	 width="516.375px" height="516.375px" viewBox="0 0 516.375 516.375" style="enable-background:new 0 0 516.375 516.375;"
	 xml:space="preserve">
<g>
	<path d="M0,349.031c0,10.566,8.559,19.125,19.125,19.125H497.25c10.566,0,19.125-8.559,19.125-19.125v-66.938H0V349.031z
		 M38.25,301.219h439.875c2.64,0,4.781,2.142,4.781,4.781s-2.142,4.781-4.781,4.781H38.25c-2.639,0-4.781-2.142-4.781-4.781
		S35.611,301.219,38.25,301.219z M38.25,320.344h439.875c2.64,0,4.781,2.142,4.781,4.781s-2.142,4.781-4.781,4.781H38.25
		c-2.639,0-4.781-2.142-4.781-4.781S35.611,320.344,38.25,320.344z M38.25,339.469h439.875c2.64,0,4.781,2.142,4.781,4.781
		s-2.142,4.781-4.781,4.781H38.25c-2.639,0-4.781-2.142-4.781-4.781S35.611,339.469,38.25,339.469z"/>
	<path d="M497.25,148.219H19.125C8.559,148.219,0,156.777,0,167.344v105.188h516.375V167.344
		C516.375,156.777,507.816,148.219,497.25,148.219z M478.125,186.469H38.25c-2.639,0-4.781-2.142-4.781-4.781
		s2.142-4.781,4.781-4.781h439.875c2.64,0,4.781,2.142,4.781,4.781S480.765,186.469,478.125,186.469z"/>
</g>
<g>
</g>
<g>
</g>
<g>
</g>
<g>
</g>
<g>
</g>
<g>
</g>
<g>
</g>
<g>
</g>
<g>
</g>
<g>
</g>
<g>
</g>
<g>
</g>
<g>
</g>
<g>
</g>
<g>
</g>
</svg>
