<svg xmlns="http://www.w3.org/2000/svg" width="516.375" height="516.375" style="enable-background:new 0 0 516.375 516.375" xml:space="preserve"><path d="M0 349.031c0 10.566 8.559 19.125 19.125 19.125H497.25c10.566 0 19.125-8.559 19.125-19.125v-66.938H0v66.938zm38.25-47.812h439.875a4.782 4.782 0 0 1 0 9.562H38.25c-2.639 0-4.781-2.142-4.781-4.781s2.142-4.781 4.781-4.781zm0 19.125h439.875a4.782 4.782 0 0 1 0 9.562H38.25c-2.639 0-4.781-2.142-4.781-4.781s2.142-4.781 4.781-4.781zm0 19.125h439.875a4.782 4.782 0 0 1 0 9.562H38.25c-2.639 0-4.781-2.142-4.781-4.781s2.142-4.781 4.781-4.781zM497.25 148.219H19.125C8.559 148.219 0 156.777 0 167.344v105.188h516.375V167.344c0-10.567-8.559-19.125-19.125-19.125zm-19.125 38.25H38.25c-2.639 0-4.781-2.142-4.781-4.781s2.142-4.781 4.781-4.781h439.875a4.782 4.782 0 0 1 0 9.562z"/></svg>