<svg xmlns="http://www.w3.org/2000/svg" width="497.25" height="497.25" style="enable-background:new 0 0 497.25 497.25" xml:space="preserve"><path d="M291.52 277.312c0-64.146-9.964-104.795-9.964-139.852 0-26.698 9.964-80.086 9.964-80.086 0-10.566-8.559-19.125-19.125-19.125V19.125C272.395 8.396 266.093 0 258.051 0s-14.344 8.396-14.344 19.125V38.25c-10.566 0-19.125 8.559-19.125 19.125 0 0 7.573 42.63 7.573 78.097 0 35.458-7.573 81.281-7.573 141.841l66.938-.001zM253.27 19.125c0-5.384 2.572-9.562 4.781-9.562s4.781 4.179 4.781 9.562V38.25h-9.562V19.125zM158.715 320.306c.392 5.24.775 10.624.842 11.963.076 1.329.163 2.419.191 2.419.029 0 .373 4.294.765 9.534l10.758 143.494c.392 5.24 3.05 9.534 5.9 9.534 2.85 0 5.479-4.294 5.852-9.534l10.165-143.485c.373-5.249 3.768-9.543 7.545-9.543s7.191 4.294 7.592 9.534l10.758 143.494c.392 5.24 3.05 9.534 5.9 9.534 2.85 0 5.479-4.294 5.853-9.534l10.165-143.485c.373-5.249 3.768-9.543 7.545-9.543 3.776 0 7.19 4.294 7.592 9.534l10.759 143.494c.392 5.24 3.05 9.534 5.899 9.534s5.479-4.294 5.853-9.534l10.165-143.485c.373-5.249 3.768-9.543 7.545-9.543s7.19 4.294 7.593 9.534l10.758 143.494c.392 5.24 3.05 9.534 5.899 9.534s5.479-4.294 5.853-9.534l10.165-143.485c.373-5.249.765-9.543.87-9.543s.421-4.294.679-9.553l.028-.574c.269-5.25.622-11.58.804-14.057s.287-4.504.229-4.504c-.048 0 .02-2.151.153-4.781s-4.064-4.781-9.323-4.781h-162.86c-5.259 0-9.448 2.151-9.304 4.781s.144 4.781 0 4.781.067 4.294.459 9.534l.353 4.772z"/></svg>