<?xml version="1.0" encoding="iso-8859-1"?>
<!-- Generator: Adobe Illustrator 16.0.0, SVG Export Plug-In . SVG Version: 6.00 Build 0)  -->
<!DOCTYPE svg PUBLIC "-//W3C//DTD SVG 1.1//EN" "http://www.w3.org/Graphics/SVG/1.1/DTD/svg11.dtd">
<svg version="1.1" id="Capa_1" xmlns="http://www.w3.org/2000/svg" xmlns:xlink="http://www.w3.org/1999/xlink" x="0px" y="0px"
	 width="497.25px" height="497.25px" viewBox="0 0 497.25 497.25" style="enable-background:new 0 0 497.25 497.25;"
	 xml:space="preserve">
<g>
	<path d="M291.52,277.312c0-64.146-9.964-104.795-9.964-139.852c0-26.698,9.964-80.086,9.964-80.086
		c0-10.566-8.559-19.125-19.125-19.125V19.125C272.395,8.396,266.093,0,258.051,0s-14.344,8.396-14.344,19.125V38.25
		c-10.566,0-19.125,8.559-19.125,19.125c0,0,7.573,42.63,7.573,78.097c0,35.458-7.573,81.281-7.573,141.841
		C232.155,277.312,284.749,277.312,291.52,277.312z M253.27,19.125c0-5.384,2.572-9.562,4.781-9.562s4.781,4.179,4.781,9.562V38.25
		h-9.562V19.125z"/>
	<path d="M158.715,320.306c0.392,5.24,0.775,10.624,0.842,11.963c0.076,1.329,0.163,2.419,0.191,2.419
		c0.029,0,0.373,4.294,0.765,9.534l10.758,143.494c0.392,5.24,3.05,9.534,5.9,9.534c2.85,0,5.479-4.294,5.852-9.534l10.165-143.485
		c0.373-5.249,3.768-9.543,7.545-9.543c3.777,0,7.191,4.294,7.592,9.534l10.758,143.494c0.392,5.24,3.05,9.534,5.9,9.534
		c2.85,0,5.479-4.294,5.853-9.534l10.165-143.485c0.373-5.249,3.768-9.543,7.545-9.543c3.776,0,7.19,4.294,7.592,9.534
		l10.759,143.494c0.392,5.24,3.05,9.534,5.899,9.534s5.479-4.294,5.853-9.534l10.165-143.485c0.373-5.249,3.768-9.543,7.545-9.543
		s7.19,4.294,7.593,9.534l10.758,143.494c0.392,5.24,3.05,9.534,5.899,9.534s5.479-4.294,5.853-9.534l10.165-143.485
		c0.373-5.249,0.765-9.543,0.87-9.543s0.421-4.294,0.679-9.553l0.028-0.574c0.269-5.25,0.622-11.58,0.804-14.057
		s0.287-4.504,0.229-4.504c-0.048,0,0.02-2.151,0.153-4.781s-4.064-4.781-9.323-4.781H167.207c-5.259,0-9.448,2.151-9.304,4.781
		s0.144,4.781,0,4.781s0.067,4.294,0.459,9.534L158.715,320.306z"/>
</g>
<g>
</g>
<g>
</g>
<g>
</g>
<g>
</g>
<g>
</g>
<g>
</g>
<g>
</g>
<g>
</g>
<g>
</g>
<g>
</g>
<g>
</g>
<g>
</g>
<g>
</g>
<g>
</g>
<g>
</g>
</svg>
