<?xml version="1.0" encoding="iso-8859-1"?>
<!-- Generator: Adobe Illustrator 16.0.0, SVG Export Plug-In . SVG Version: 6.00 Build 0)  -->
<!DOCTYPE svg PUBLIC "-//W3C//DTD SVG 1.1//EN" "http://www.w3.org/Graphics/SVG/1.1/DTD/svg11.dtd">
<svg version="1.1" id="Capa_1" xmlns="http://www.w3.org/2000/svg" xmlns:xlink="http://www.w3.org/1999/xlink" x="0px" y="0px"
	 width="584.746px" height="584.746px" viewBox="0 0 584.746 584.746" style="enable-background:new 0 0 584.746 584.746;"
	 xml:space="preserve">
<g>
	<g>
		<path d="M451.933,352.234l-121.864,58.207l-4.312,2.066l-4.312,2.064L123.308,4.733C121.902,1.817,119.005,0,115.763,0
			c-1.262,0-2.486,0.287-3.634,0.842l-2.161,1.042c-2.008,0.966-3.519,2.668-4.255,4.781s-0.602,4.38,0.373,6.388l198.087,409.764
			l-4.312,2.055l-4.322,2.066l-140.187,66.965c-19.087,8.855-5.393,33.469,2.381,47.812v38.25c0,2.641,2.142,4.781,4.781,4.781
			s4.781-2.141,4.781-4.781v-42.84l9.562-4.59v37.867c0,2.641,2.142,4.781,4.781,4.781s4.781-2.141,4.781-4.781v-42.457l9.562-4.59
			v37.686c0,2.641,2.142,4.781,4.781,4.781s4.781-2.141,4.781-4.781v-42.275l9.562-4.59v37.303c0,2.641,2.142,4.781,4.781,4.781
			s4.781-2.141,4.781-4.781v-41.893l9.562-4.59v36.92c0,2.641,2.142,4.781,4.781,4.781s4.781-2.141,4.781-4.781v-41.51l9.562-4.59
			v36.336c0,2.641,2.142,4.781,4.781,4.781s4.781-2.141,4.781-4.781v-40.926l9.562-4.592v36.549c0,2.639,2.142,4.781,4.782,4.781
			c2.639,0,4.781-2.143,4.781-4.781v-41.139l9.562-4.59v35.773c0,2.641,2.142,4.781,4.782,4.781c2.639,0,4.781-2.141,4.781-4.781
			v-40.373l9.562-4.59v35.994c0,2.639,2.142,4.781,4.781,4.781c2.639,0,4.781-2.143,4.781-4.781v-40.584l9.562-4.59v34.816
			c0,2.641,2.142,4.781,4.781,4.781c2.639,0,4.781-2.141,4.781-4.781v-39.406l9.562-4.59v34.434c0,2.641,2.142,4.781,4.781,4.781
			c2.639,0,4.781-2.141,4.781-4.781v-39.023l9.562-4.59v34.051c0,2.641,2.142,4.781,4.781,4.781c2.639,0,4.781-2.141,4.781-4.781
			v-38.641l9.562-4.59v33.668c0,2.641,2.142,4.781,4.781,4.781c2.639,0,4.781-2.141,4.781-4.781v-38.258l9.562-4.592v33.287
			c0,2.641,2.142,4.781,4.781,4.781c2.639,0,4.781-2.141,4.781-4.781v-37.877l9.562-4.59v32.904c0,2.641,2.142,4.781,4.781,4.781
			c2.639,0,4.781-2.141,4.781-4.781v-37.494l9.562-4.59v32.521c0,2.641,2.142,4.781,4.781,4.781c2.639,0,4.781-2.141,4.781-4.781
			v-37.111l9.562-4.59v32.139c0,2.641,2.142,4.781,4.781,4.781c2.639,0,4.781-2.141,4.781-4.781v-36.729l6.206-2.984
			C479.502,371.408,473.564,342.193,451.933,352.234z"/>
	</g>
</g>
<g>
</g>
<g>
</g>
<g>
</g>
<g>
</g>
<g>
</g>
<g>
</g>
<g>
</g>
<g>
</g>
<g>
</g>
<g>
</g>
<g>
</g>
<g>
</g>
<g>
</g>
<g>
</g>
<g>
</g>
</svg>
