<svg xmlns="http://www.w3.org/2000/svg" width="584.746" height="584.746" style="enable-background:new 0 0 584.746 584.746" xml:space="preserve"><path d="m451.933 352.234-121.864 58.207-4.312 2.066-4.312 2.064L123.308 4.733A8.32 8.32 0 0 0 115.763 0a8.295 8.295 0 0 0-3.634.842l-2.161 1.042c-2.008.966-3.519 2.668-4.255 4.781s-.602 4.38.373 6.388l198.087 409.764-4.312 2.055-4.322 2.066-140.187 66.965c-19.087 8.855-5.393 33.469 2.381 47.812v38.25a4.782 4.782 0 0 0 9.562 0v-42.84l9.562-4.59v37.867a4.782 4.782 0 0 0 9.562 0v-42.457l9.562-4.59v37.686a4.782 4.782 0 0 0 9.562 0v-42.275l9.562-4.59v37.303a4.782 4.782 0 0 0 9.562 0v-41.893l9.562-4.59v36.92a4.782 4.782 0 0 0 9.562 0v-41.51l9.562-4.59v36.336a4.782 4.782 0 0 0 9.562 0v-40.926l9.562-4.592v36.549a4.783 4.783 0 0 0 4.782 4.781 4.784 4.784 0 0 0 4.781-4.781v-41.139l9.562-4.59v35.773a4.782 4.782 0 0 0 9.563 0v-40.373l9.562-4.59v35.994a4.783 4.783 0 0 0 4.781 4.781 4.784 4.784 0 0 0 4.781-4.781v-40.584l9.562-4.59V493.9a4.782 4.782 0 0 0 9.562 0v-39.406l9.562-4.59v34.434a4.782 4.782 0 0 0 9.562 0v-39.023l9.562-4.59v34.051a4.782 4.782 0 0 0 9.562 0v-38.641l9.562-4.59v33.668a4.782 4.782 0 0 0 9.562 0v-38.258l9.562-4.592v33.287a4.782 4.782 0 0 0 9.562 0v-37.877l9.562-4.59v32.904a4.782 4.782 0 0 0 9.562 0v-37.494l9.562-4.59v32.521a4.782 4.782 0 0 0 9.562 0v-37.111l9.562-4.59v32.139a4.782 4.782 0 0 0 9.562 0v-36.729l6.206-2.984c.015-15.841-5.923-45.056-27.554-35.015z"/></svg>