<?xml version="1.0" encoding="iso-8859-1"?>
<!-- Generator: Adobe Illustrator 16.0.0, SVG Export Plug-In . SVG Version: 6.00 Build 0)  -->
<!DOCTYPE svg PUBLIC "-//W3C//DTD SVG 1.1//EN" "http://www.w3.org/Graphics/SVG/1.1/DTD/svg11.dtd">
<svg version="1.1" id="Capa_1" xmlns="http://www.w3.org/2000/svg" xmlns:xlink="http://www.w3.org/1999/xlink" x="0px" y="0px"
	 width="555.074px" height="555.074px" viewBox="0 0 555.074 555.074" style="enable-background:new 0 0 555.074 555.074;"
	 xml:space="preserve">
<g>
	<path d="M313.616,555.074L313.616,555.074L313.616,555.074z"/>
	<path d="M317.977,537.145l1.75-20.32h-85.393l1.722,19.909c0.019,5.575,2.285,8.778,4.389,8.778h73.172
		C315.72,545.512,317.977,542.309,317.977,537.145z"/>
	<path d="M147.248,62.08v48.195c35.907-16.601,92.307-30.552,130.289-30.552c37.141,0,91.915,13.426,127.898,29.644V62.08v-0.01
		c-0.01-5.288-14.984-27.836-47.812-44.284v11.351c0,5.278-4.284,9.562-9.562,9.562s-9.562-4.284-9.562-9.562V9.84
		c-5.967-2.066-12.297-3.902-19.125-5.413v24.709c0,5.278-4.284,9.562-9.562,9.562s-9.562-4.284-9.562-9.562V1.319
		c-6.092-0.708-12.45-1.157-19.125-1.319v29.137c0,5.278-4.284,9.562-9.562,9.562s-9.562-4.284-9.562-9.562V0.325
		c-6.684,0.431-13.072,1.138-19.125,2.123v26.689c0,5.278-4.284,9.562-9.562,9.562s-9.562-4.284-9.562-9.562V6.703
		c-6.837,1.903-13.253,4.074-19.125,6.521v15.912c0,5.278-4.284,9.562-9.562,9.562s-9.562-4.284-9.562-9.562v-6.312
		C159.306,38.537,147.248,57.327,147.248,62.08z"/>
	<path d="M227.716,497.699h4.963h88.683h4.973h4.6h35.123c6.11,0,12.564-8.377,12.564-16.304l0.077-1.225l33.573-259.306
		l2.726-20.923l7.621-58.895c-1.482-1.511-4.121-3.385-7.621-5.47c-2.668-1.588-5.9-3.309-9.562-5.106
		c-27.654-13.579-81.349-31.633-127.898-31.633c-47.975,0-103.457,18.981-130.289,32.541c-3.815,1.932-7.019,3.729-9.562,5.365
		c-2.257,1.454-4.122,2.802-5.23,3.92l5.23,40.526l5.556,43.031l0.344,2.659l32.857,254.524c0,7.928,6.464,16.305,12.565,16.305
		h34.119h4.59V497.699z M282.108,195.18c20.272,0,36.825,15.185,39.35,34.769c0.22,1.683,0.516,3.347,0.516,5.097
		c0,1.53-0.286,2.983-0.449,4.466c-2.247,19.88-18.924,35.391-39.407,35.391c-20.482,0-37.169-15.51-39.416-35.391
		c-0.172-1.482-0.45-2.936-0.45-4.466c0-1.74,0.296-3.414,0.517-5.097C245.292,210.365,261.835,195.18,282.108,195.18z"/>
</g>
<g>
</g>
<g>
</g>
<g>
</g>
<g>
</g>
<g>
</g>
<g>
</g>
<g>
</g>
<g>
</g>
<g>
</g>
<g>
</g>
<g>
</g>
<g>
</g>
<g>
</g>
<g>
</g>
<g>
</g>
</svg>
