<svg xmlns="http://www.w3.org/2000/svg" width="555.074" height="555.074" style="enable-background:new 0 0 555.074 555.074" xml:space="preserve"><path d="M313.616 555.074zM317.977 537.145l1.75-20.32h-85.393l1.722 19.909c.019 5.575 2.285 8.778 4.389 8.778h73.172c2.103 0 4.36-3.203 4.36-8.367zM147.248 62.08v48.195c35.907-16.601 92.307-30.552 130.289-30.552 37.141 0 91.915 13.426 127.898 29.644V62.07c-.01-5.288-14.984-27.836-47.812-44.284v11.351c0 5.278-4.284 9.562-9.562 9.562s-9.562-4.284-9.562-9.562V9.84a171.39 171.39 0 0 0-19.125-5.413v24.709c0 5.278-4.284 9.562-9.562 9.562s-9.562-4.284-9.562-9.562V1.319A209.485 209.485 0 0 0 281.125 0v29.137c0 5.278-4.284 9.562-9.562 9.562s-9.562-4.284-9.562-9.562V.325c-6.684.431-13.072 1.138-19.125 2.123v26.689c0 5.278-4.284 9.562-9.562 9.562s-9.562-4.284-9.562-9.562V6.703c-6.837 1.903-13.253 4.074-19.125 6.521v15.912c0 5.278-4.284 9.562-9.562 9.562s-9.562-4.284-9.562-9.562v-6.312c-26.197 15.713-38.255 34.503-38.255 39.256z"/><path d="M227.716 497.699H366.058c6.11 0 12.564-8.377 12.564-16.304l.077-1.225 33.573-259.306 2.726-20.923 7.621-58.895c-1.482-1.511-4.121-3.385-7.621-5.47-2.668-1.588-5.9-3.309-9.562-5.106-27.654-13.579-81.349-31.633-127.898-31.633-47.975 0-103.457 18.981-130.289 32.541-3.815 1.932-7.019 3.729-9.562 5.365-2.257 1.454-4.122 2.802-5.23 3.92l5.23 40.526 5.556 43.031.344 2.659 32.857 254.524c0 7.928 6.464 16.305 12.565 16.305h38.709v-.009zm54.392-302.519c20.272 0 36.825 15.185 39.35 34.769.22 1.683.516 3.347.516 5.097 0 1.53-.286 2.983-.449 4.466-2.247 19.88-18.924 35.391-39.407 35.391-20.482 0-37.169-15.51-39.416-35.391-.172-1.482-.45-2.936-.45-4.466 0-1.74.296-3.414.517-5.097 2.523-19.584 19.066-34.769 39.339-34.769z"/></svg>