<svg xmlns="http://www.w3.org/2000/svg" width="612" height="612" style="enable-background:new 0 0 612 612" xml:space="preserve"><path d="M162.562 583.312h95.625V612h-95.625zM353.812 583.312h95.625V612h-95.625zM162.562 191.25h286.875c21.124 0 38.25-17.126 38.25-38.25V38.25c0-21.124-17.126-38.25-38.25-38.25H162.562c-21.124 0-38.25 17.126-38.25 38.25V153c0 21.124 17.127 38.25 38.25 38.25zm0-133.875c0-5.278 4.284-9.562 9.562-9.562s9.562 4.284 9.562 9.562v66.938c0 5.278-4.284 9.562-9.562 9.562s-9.562-4.284-9.562-9.562V57.375zM162.562 564.188h286.875c21.124 0 38.25-17.127 38.25-38.25v-267.75c0-21.124-17.126-38.25-38.25-38.25H162.562c-21.124 0-38.25 17.126-38.25 38.25v267.75c0 21.123 17.127 38.25 38.25 38.25zm0-306c0-5.278 4.284-9.562 9.562-9.562s9.562 4.284 9.562 9.562v66.938c0 5.278-4.284 9.562-9.562 9.562s-9.562-4.284-9.562-9.562v-66.938z"/></svg>