<svg xmlns="http://www.w3.org/2000/svg" width="487.707" height="487.707" style="enable-background:new 0 0 487.707 487.707" xml:space="preserve"><path d="M296.457 199.627c4.006-3.012 8.941-4.877 14.344-4.877h143.438c5.402 0 10.336 1.865 14.344 4.906V156.5H296.457v43.127zM287.65 146.125c.268.086.535.163.803.239 1.281.334 2.602.574 3.986.574h177.5c2.43 0 4.82-.555 7.047-1.454 6.016-2.429 10.721-7.612 10.721-12.89v-76.5c-.307-4.332-15.836-17.126-47.812-24.882V41.75c0 5.278-4.285 9.562-9.562 9.562-5.279 0-9.562-4.284-9.562-9.562V27.569c-8.674-1.243-18.266-2.065-28.688-2.362V41.75c0 5.278-4.285 9.562-9.562 9.562-5.279 0-9.562-4.284-9.562-9.562V25.255c-10.414.401-19.957 1.367-28.688 2.716V41.75c0 5.278-4.285 9.562-9.562 9.562-5.279 0-9.562-4.284-9.562-9.562v-9.945c-31.203 7.851-47.344 20.234-47.812 24.327v76.462c-.003 6.311 4.339 11.618 10.315 13.531zM469.939 156.5h.01-.01zM291.676 462.5h181.688c7.908 0 14.344-6.436 14.344-14.344l-17.031-204.188-2.074-24.919c0-.067-.02-.125-.02-.191-.115-8.205-6.494-14.544-14.344-14.544H310.801c-7.908 0-14.344 6.436-14.344 14.344l-2.057 24.681-.152 1.874-16.936 203.347c.02 7.504 6.456 13.94 14.364 13.94zm128.672-123.596c-5.641 4.705-13.693 8.846-24.164 8.846h-23.227v28.688h-19.125v-95.625h43.652c9.543 0 17.146 3.318 22.816 8.281 5.67 4.973 8.51 13.961 8.51 24.384.001 11.37-2.82 20.722-8.462 25.426z"/><path d="M394.271 299.938h-21.314v28.688h21.314c4.59 0 8.166-1.674 10.719-3.987 2.555-2.314 3.826-6.235 3.826-11.246s-1.271-8.357-3.826-10.489c-2.552-2.134-6.129-2.966-10.719-2.966zM19.144 199.627c4.007-3.012 8.941-4.877 14.344-4.877h143.438c5.403 0 10.337 1.865 14.344 4.906V156.5H19.144v43.127zM10.337 146.125c.268.086.536.163.803.239 1.281.334 2.601.574 3.988.574h177.499c2.429 0 4.819-.555 7.047-1.454 6.015-2.429 10.72-7.612 10.72-12.89v-76.5c-.306-4.332-15.835-17.126-47.812-24.882V41.75c0 5.278-4.284 9.562-9.562 9.562s-9.562-4.284-9.562-9.562V27.569c-8.673-1.243-18.264-2.065-28.688-2.362V41.75c0 5.278-4.284 9.562-9.562 9.562s-9.562-4.284-9.562-9.562V25.255c-10.414.401-19.957 1.367-28.688 2.716V41.75c0 5.278-4.284 9.562-9.562 9.562s-9.562-4.284-9.562-9.562v-9.945C16.629 39.656.488 52.039.019 56.132v76.462c0 6.311 4.341 11.618 10.318 13.531zM192.627 156.5h.009-.009zM14.363 462.5H196.05c7.908 0 14.344-6.436 14.344-14.344l-17.031-204.188-2.075-24.919c0-.067-.019-.125-.019-.191-.115-8.205-6.493-14.544-14.344-14.544H33.488c-7.908 0-14.344 6.436-14.344 14.344l-2.056 24.681-.153 1.874L0 448.558c.019 7.506 6.455 13.942 14.363 13.942zm127.755-98.283c-6.809 5.813-16.418 8.73-28.84 8.73-12.689 0-22.663-4.131-29.931-9.859-7.268-5.728-10.901-15.338-10.901-24.9h19.221c.622 9.562 1.846 8.96 3.672 11.141 3.337 3.968 9.056 6.579 17.155 6.579 4.848 0 8.788-.211 11.81-1.253 5.738-1.999 8.606-5.575 8.606-11.017 0-3.184-1.406-5.565-4.217-7.306-2.811-1.702-7.277-3.165-13.378-4.475l-10.423-2.276c-10.251-2.267-17.299-4.724-21.133-7.372-6.493-4.447-9.744-11.39-9.744-20.847 0-8.625 3.175-15.797 9.534-21.506 6.35-5.709 15.683-8.559 27.99-8.559 10.279 0 19.048 1.253 26.297 6.637 7.248 5.383 11.063 12.44 11.417 22.003h-19.345c-.363 0-2.955-8.482-7.774-10.92-3.213-1.607-7.21-1.702-11.992-1.702-5.316 0-9.562 1.405-12.737 3.499-3.174 2.095-4.762 5.193-4.762 8.941 0 3.442 1.568 6.101 4.695 7.803 2.008 1.139 6.273 2.506 12.795 4.035l16.916 4.007c7.411 1.74 12.967 4.083 16.667 7.01 5.747 4.532 8.616 11.093 8.616 19.68-.001 8.797-3.406 16.112-10.214 21.927z"/></svg>