<svg xmlns="http://www.w3.org/2000/svg" width="535.5" height="535.5" style="enable-background:new 0 0 535.5 535.5" xml:space="preserve"><path d="M516.375 353.812h-29.634c.593-6.962.946-15.233.946-23.878V241.73c-19.766-6.034-19.813-33.201-19.813-42.878 0-4.093.028-10.5 1.138-17.155 1.779-10.71 6.426-22.061 18.522-25.714.048-.019.105-.019.153-.038V86.062c0-10.566-8.08-19.125-18.045-19.125H62.663c-9.964 0-14.851 8.559-14.851 19.125v76.5c0 10.566 4.886 19.125 14.851 19.125h300.712v148.247c0 8.645.124 16.926.431 23.878H19.125C8.559 353.812 0 362.371 0 372.938v95.625h535.5v-95.625c0-10.567-8.559-19.126-19.125-19.126zM212.766 150.236c-14.832 0-26.852-12.02-26.852-26.852 0-14.831 12.02-26.852 26.852-26.852s26.852 12.021 26.852 26.852c-.001 14.832-12.021 26.852-26.852 26.852zm86.062 0c-14.831 0-26.852-12.02-26.852-26.852 0-14.831 12.021-26.852 26.852-26.852s26.852 12.021 26.852 26.852c0 14.832-12.021 26.852-26.852 26.852z"/><path d="M481.204 198.843c0 16.677 2.983 24.289 6.483 27.789 2.965 2.964 6.292 3.002 8.529 3.002 16.964 0 30.782-13.808 30.782-30.782 0-16.973-13.809-30.782-30.782-30.782-3.069 0-6.043.603-8.529 2.964-3.825 3.615-6.483 11.419-6.483 27.809zM157.781 196.031A4.783 4.783 0 0 0 153 191.25H86.062c-2.639 0-4.781 2.142-4.781 4.781s2.142 4.781 4.781 4.781H153a4.783 4.783 0 0 0 4.781-4.781zM119.531 329.906a4.783 4.783 0 0 0 4.781-4.781v-43.911c5.556-1.979 9.562-7.229 9.562-13.464v-57.375h-28.688v57.375c0 6.234 4.007 11.484 9.562 13.464v43.911a4.785 4.785 0 0 0 4.783 4.781z"/></svg>