<?xml version="1.0" encoding="iso-8859-1"?>
<!-- Generator: Adobe Illustrator 16.0.0, SVG Export Plug-In . SVG Version: 6.00 Build 0)  -->
<!DOCTYPE svg PUBLIC "-//W3C//DTD SVG 1.1//EN" "http://www.w3.org/Graphics/SVG/1.1/DTD/svg11.dtd">
<svg version="1.1" id="Capa_1" xmlns="http://www.w3.org/2000/svg" xmlns:xlink="http://www.w3.org/1999/xlink" x="0px" y="0px"
	 width="535.5px" height="535.5px" viewBox="0 0 535.5 535.5" style="enable-background:new 0 0 535.5 535.5;" xml:space="preserve"
	>
<g>
	<path d="M516.375,353.812h-29.634c0.593-6.962,0.946-15.233,0.946-23.878V241.73c-19.766-6.034-19.813-33.201-19.813-42.878
		c0-4.093,0.028-10.5,1.138-17.155c1.779-10.71,6.426-22.061,18.522-25.714c0.048-0.019,0.105-0.019,0.153-0.038V86.062
		c0-10.566-8.08-19.125-18.045-19.125H62.663c-9.964,0-14.851,8.559-14.851,19.125v76.5c0,10.566,4.886,19.125,14.851,19.125
		h300.712v148.247c0,8.645,0.124,16.926,0.431,23.878H19.125C8.559,353.812,0,362.371,0,372.938v95.625h535.5v-95.625
		C535.5,362.371,526.941,353.812,516.375,353.812z M212.766,150.236c-14.832,0-26.852-12.02-26.852-26.852
		c0-14.831,12.02-26.852,26.852-26.852s26.852,12.021,26.852,26.852C239.617,138.216,227.597,150.236,212.766,150.236z
		 M298.828,150.236c-14.831,0-26.852-12.02-26.852-26.852c0-14.831,12.021-26.852,26.852-26.852s26.852,12.021,26.852,26.852
		C325.68,138.216,313.659,150.236,298.828,150.236z"/>
	<path d="M481.204,198.843c0,16.677,2.983,24.289,6.483,27.789c2.965,2.964,6.292,3.002,8.529,3.002
		c16.964,0,30.782-13.808,30.782-30.782c0-16.973-13.809-30.782-30.782-30.782c-3.069,0-6.043,0.603-8.529,2.964
		C483.862,174.649,481.204,182.453,481.204,198.843z"/>
	<path d="M157.781,196.031c0-2.639-2.142-4.781-4.781-4.781H86.062c-2.639,0-4.781,2.142-4.781,4.781s2.142,4.781,4.781,4.781H153
		C155.639,200.812,157.781,198.67,157.781,196.031z"/>
	<path d="M119.531,329.906c2.639,0,4.781-2.142,4.781-4.781v-43.911c5.556-1.979,9.562-7.229,9.562-13.464v-57.375h-28.688v57.375
		c0,6.234,4.007,11.484,9.562,13.464v43.911C114.75,327.765,116.892,329.906,119.531,329.906z"/>
</g>
<g>
</g>
<g>
</g>
<g>
</g>
<g>
</g>
<g>
</g>
<g>
</g>
<g>
</g>
<g>
</g>
<g>
</g>
<g>
</g>
<g>
</g>
<g>
</g>
<g>
</g>
<g>
</g>
<g>
</g>
</svg>
