<svg xmlns="http://www.w3.org/2000/svg" width="439.875" height="439.875" style="enable-background:new 0 0 439.875 439.875" xml:space="preserve"><path d="M326.865 263.236c-3.892-4.552-23.505-24.862-68.678-32.465-10.682-1.798-22.778-2.897-36.462-2.897-14.984 0-28.238 1.243-40.038 3.175-44.016 7.229-66.612 24.758-71.862 29.357L97.002 439.875h245.536l-15.673-176.639z"/><path d="m100.54 256.112 1.214-1.253c1.186-1.224 25.102-25.082 79.933-33.564 11.886-1.836 25.159-2.983 40.038-2.983 13.617 0 25.637 1.091 36.462 2.802 55.902 8.836 76.223 36.108 77.208 37.485l.755 1.052 15.988 180.225h20.799V227.951c-.02-17.939-25.092-25.274-51.647-33.029-29.127-8.511-62.003-18.178-63.103-46.005V19.125C258.188 8.559 250.327 0 241.549 0h-39.751c-8.778 0-20.11 8.559-20.11 19.125v136.266c0 20.148-27.358 28.104-56.333 36.519-28.716 8.348-58.417 16.973-58.417 36.051v211.914H87.42l13.12-183.763zm117.868-224.9c7 0 12.679 5.68 12.679 12.68 0 7.01-5.68 12.68-12.679 12.68-7.009 0-12.68-5.68-12.68-12.68s5.68-12.68 12.68-12.68z"/></svg>