<svg xmlns="http://www.w3.org/2000/svg" width="584.747" height="584.747" style="enable-background:new 0 0 584.747 584.747" xml:space="preserve"><path d="M408.558 7.172c0-3.825-1.435-7.172-5.259-7.172-2.869 0-5.26 2.869-5.26 7.172v346.641l10.041 1.913V7.172h.478zM333.971 568.013l83.672-133.397-75.067-21.515-24.862 8.605-186.469 66.938 197.466 84.628zM330.623 349.987 118.336 480.994l216.591-76.5zM423.38 425.531l31.078-50.203-35.859-7.172-10.041-1.912-10.519-2.39-10.041-1.914-42.553-8.605 3.347 50.681zM457.805 389.194l-4.303 7.65L433.42 428.4l-2.868 4.782-.956.956-1.913 3.346-64.069 102.797-27.731 44.466 128.138-136.744 2.39-2.868-4.304-62.635z"/></svg>