<svg xmlns="http://www.w3.org/2000/svg" width="512.601" height="512.601" style="enable-background:new 0 0 512.601 512.601" xml:space="preserve"><path d="m398.052 60.441-94.344 81.281c-30.801-20.722-80.106 6.875-80.106 6.875l68.764 68.764 17.815 17.815c6.904-14.296 19.508-45.192 10.854-70.523l91.704-79.005H512.6V56.96H407.413a14.324 14.324 0 0 0-9.361 3.481zM309.465 247.981 209.21 147.737c-17.604 2.142-86.416 44.982-98.819 63.457l135.52 135.52c19.002-12.642 62.272-83.318 63.554-98.733zM106.194 273.083a4.804 4.804 0 0 0 3.385-1.396l20.282-20.291a4.784 4.784 0 0 0 0-6.761 4.784 4.784 0 0 0-6.761 0l-20.282 20.291a4.784 4.784 0 0 0 0 6.761 4.768 4.768 0 0 0 3.376 1.396zM72.391 306.886a4.804 4.804 0 0 0 3.385-1.396l20.282-20.292a4.784 4.784 0 0 0 0-6.761 4.786 4.786 0 0 0-6.761 0l-20.282 20.292a4.786 4.786 0 0 0 0 6.761 4.766 4.766 0 0 0 3.376 1.396zM38.578 340.689a4.8 4.8 0 0 0 3.385-1.396l20.282-20.282c1.865-1.864 1.865-4.896 0-6.761s-4.896-1.864-6.761 0l-20.282 20.282a4.784 4.784 0 0 0 0 6.761 4.725 4.725 0 0 0 3.376 1.396zM4.774 374.502a4.804 4.804 0 0 0 3.385-1.396l20.282-20.282a4.783 4.783 0 0 0 0-6.76 4.783 4.783 0 0 0-6.76 0L1.398 366.345a4.784 4.784 0 0 0 0 6.761 4.764 4.764 0 0 0 3.376 1.396zM150.153 271.677l-20.292 20.281a4.786 4.786 0 0 0 0 6.761c.938.938 2.161 1.396 3.385 1.396s2.448-.469 3.385-1.396l20.292-20.282a4.783 4.783 0 0 0 0-6.76 4.795 4.795 0 0 0-6.77 0zM116.34 305.49l-20.282 20.282a4.784 4.784 0 0 0 0 6.761 4.762 4.762 0 0 0 3.385 1.396 4.804 4.804 0 0 0 3.385-1.396l20.282-20.282a4.784 4.784 0 0 0-6.77-6.761zM82.527 339.293l-20.282 20.282a4.784 4.784 0 0 0 0 6.761 4.762 4.762 0 0 0 3.385 1.396 4.804 4.804 0 0 0 3.385-1.396l20.282-20.282a4.784 4.784 0 0 0 0-6.761 4.795 4.795 0 0 0-6.77 0zM55.474 373.106a4.785 4.785 0 0 0-6.76 0l-20.282 20.292a4.784 4.784 0 0 0 0 6.761 4.758 4.758 0 0 0 3.385 1.396 4.804 4.804 0 0 0 3.385-1.396l20.282-20.292a4.775 4.775 0 0 0-.01-6.761zM177.195 298.729l-20.282 20.282a4.784 4.784 0 0 0 0 6.761 4.758 4.758 0 0 0 3.385 1.396 4.804 4.804 0 0 0 3.385-1.396l20.282-20.282a4.784 4.784 0 0 0-6.77-6.761zM123.1 359.576c.938.937 2.161 1.396 3.385 1.396s2.448-.469 3.385-1.396l20.282-20.292c1.865-1.864 1.865-4.896 0-6.761s-4.896-1.864-6.761 0l-20.282 20.292a4.76 4.76 0 0 0-.009 6.761zM89.288 393.388c.937.938 2.161 1.396 3.385 1.396s2.448-.469 3.385-1.396l20.282-20.291a4.784 4.784 0 0 0 0-6.761 4.784 4.784 0 0 0-6.761 0l-20.282 20.291a4.776 4.776 0 0 0-.009 6.761zM58.859 428.597a4.804 4.804 0 0 0 3.385-1.396l20.292-20.282a4.784 4.784 0 0 0 0-6.761 4.784 4.784 0 0 0-6.761 0L55.483 420.44a4.784 4.784 0 0 0 0 6.761 4.77 4.77 0 0 0 3.376 1.396zM183.956 352.815c.937.937 2.161 1.396 3.385 1.396s2.448-.469 3.385-1.396l20.282-20.292a4.784 4.784 0 0 0 0-6.761 4.786 4.786 0 0 0-6.761 0l-20.282 20.292a4.776 4.776 0 0 0-.009 6.761zM170.435 359.576l-20.282 20.281a4.784 4.784 0 0 0 0 6.761 4.758 4.758 0 0 0 3.385 1.396 4.804 4.804 0 0 0 3.385-1.396l20.282-20.281a4.784 4.784 0 0 0 0-6.761 4.793 4.793 0 0 0-6.77 0zM136.622 393.388 116.34 413.67a4.784 4.784 0 0 0 0 6.761 4.758 4.758 0 0 0 3.385 1.396 4.804 4.804 0 0 0 3.385-1.396l20.282-20.282a4.784 4.784 0 0 0 0-6.761 4.797 4.797 0 0 0-6.77 0zM102.809 427.202l-20.282 20.281a4.784 4.784 0 0 0 0 6.761 4.758 4.758 0 0 0 3.385 1.396 4.804 4.804 0 0 0 3.385-1.396l20.282-20.281a4.784 4.784 0 0 0-6.77-6.761z"/></svg>