<?xml version="1.0" encoding="iso-8859-1"?>
<!-- Generator: Adobe Illustrator 16.0.0, SVG Export Plug-In . SVG Version: 6.00 Build 0)  -->
<!DOCTYPE svg PUBLIC "-//W3C//DTD SVG 1.1//EN" "http://www.w3.org/Graphics/SVG/1.1/DTD/svg11.dtd">
<svg version="1.1" id="Capa_1" xmlns="http://www.w3.org/2000/svg" xmlns:xlink="http://www.w3.org/1999/xlink" x="0px" y="0px"
	 width="512.601px" height="512.601px" viewBox="0 0 512.601 512.601" style="enable-background:new 0 0 512.601 512.601;"
	 xml:space="preserve">
<g>
	<g>
		<path d="M398.052,60.441l-94.344,81.281c-30.801-20.722-80.106,6.875-80.106,6.875l68.764,68.764l17.815,17.815
			c6.904-14.296,19.508-45.192,10.854-70.523l91.704-79.005h99.861V56.96H407.413C403.98,56.96,400.652,58.194,398.052,60.441z"/>
		<path d="M309.465,247.981L209.21,147.737c-17.604,2.142-86.416,44.982-98.819,63.457l135.52,135.52
			C264.913,334.072,308.183,263.396,309.465,247.981z"/>
		<path d="M106.194,273.083c1.224,0,2.448-0.469,3.385-1.396l20.282-20.291c1.865-1.865,1.865-4.896,0-6.761
			c-1.864-1.865-4.896-1.865-6.761,0l-20.282,20.291c-1.865,1.865-1.865,4.896,0,6.761
			C103.746,272.614,104.97,273.083,106.194,273.083z"/>
		<path d="M72.391,306.886c1.224,0,2.448-0.469,3.385-1.396l20.282-20.292c1.865-1.864,1.865-4.896,0-6.761
			c-1.865-1.864-4.896-1.864-6.761,0l-20.282,20.292c-1.864,1.865-1.864,4.896,0,6.761
			C69.942,306.417,71.167,306.886,72.391,306.886z"/>
		<path d="M38.578,340.689c1.224,0,2.448-0.468,3.385-1.396l20.282-20.282c1.865-1.864,1.865-4.896,0-6.761s-4.896-1.864-6.761,0
			l-20.282,20.282c-1.865,1.864-1.865,4.896,0,6.761C36.129,340.23,37.354,340.689,38.578,340.689z"/>
		<path d="M4.774,374.502c1.224,0,2.448-0.469,3.385-1.396l20.282-20.282c1.865-1.864,1.865-4.896,0-6.76
			c-1.864-1.865-4.896-1.865-6.76,0L1.398,366.345c-1.865,1.865-1.865,4.896,0,6.761C2.326,374.034,3.55,374.502,4.774,374.502z"/>
		<path d="M150.153,271.677l-20.292,20.281c-1.864,1.865-1.864,4.896,0,6.761c0.938,0.938,2.161,1.396,3.385,1.396
			s2.448-0.469,3.385-1.396l20.292-20.282c1.865-1.864,1.865-4.896,0-6.76C155.058,269.812,152.018,269.812,150.153,271.677z"/>
		<path d="M116.34,305.49l-20.282,20.282c-1.865,1.864-1.865,4.896,0,6.761c0.937,0.937,2.161,1.396,3.385,1.396
			c1.224,0,2.448-0.469,3.385-1.396l20.282-20.282c1.865-1.864,1.865-4.896,0-6.761C121.245,303.625,118.205,303.616,116.34,305.49z
			"/>
		<path d="M82.527,339.293l-20.282,20.282c-1.865,1.864-1.865,4.896,0,6.761c0.937,0.937,2.161,1.396,3.385,1.396
			c1.224,0,2.448-0.469,3.385-1.396l20.282-20.282c1.865-1.865,1.865-4.896,0-6.761C87.432,337.428,84.401,337.428,82.527,339.293z"
			/>
		<path d="M55.474,373.106c-1.864-1.864-4.896-1.864-6.76,0l-20.282,20.292c-1.865,1.864-1.865,4.896,0,6.761
			c0.937,0.938,2.161,1.396,3.385,1.396c1.224,0,2.448-0.469,3.385-1.396l20.282-20.292
			C57.349,377.993,57.349,374.971,55.474,373.106z"/>
		<path d="M177.195,298.729l-20.282,20.282c-1.865,1.864-1.865,4.896,0,6.761c0.937,0.938,2.161,1.396,3.385,1.396
			c1.224,0,2.448-0.469,3.385-1.396l20.282-20.282c1.865-1.864,1.865-4.896,0-6.761C182.101,296.865,179.06,296.855,177.195,298.729
			z"/>
		<path d="M123.1,359.576c0.938,0.937,2.161,1.396,3.385,1.396s2.448-0.469,3.385-1.396l20.282-20.292
			c1.865-1.864,1.865-4.896,0-6.761s-4.896-1.864-6.761,0l-20.282,20.292C121.226,354.689,121.226,357.71,123.1,359.576z"/>
		<path d="M89.288,393.388c0.937,0.938,2.161,1.396,3.385,1.396s2.448-0.469,3.385-1.396l20.282-20.291
			c1.865-1.865,1.865-4.896,0-6.761c-1.865-1.865-4.896-1.865-6.761,0l-20.282,20.291C87.423,388.493,87.423,391.524,89.288,393.388
			z"/>
		<path d="M58.859,428.597c1.224,0,2.448-0.469,3.385-1.396l20.292-20.282c1.865-1.865,1.865-4.896,0-6.761
			c-1.865-1.865-4.896-1.865-6.761,0l-20.292,20.282c-1.865,1.864-1.865,4.896,0,6.761
			C56.412,428.128,57.635,428.597,58.859,428.597z"/>
		<path d="M183.956,352.815c0.937,0.937,2.161,1.396,3.385,1.396s2.448-0.469,3.385-1.396l20.282-20.292
			c1.865-1.864,1.865-4.896,0-6.761c-1.864-1.864-4.896-1.864-6.761,0l-20.282,20.292
			C182.091,347.928,182.091,350.95,183.956,352.815z"/>
		<path d="M170.435,359.576l-20.282,20.281c-1.865,1.865-1.865,4.896,0,6.761c0.937,0.938,2.161,1.396,3.385,1.396
			c1.224,0,2.448-0.469,3.385-1.396l20.282-20.281c1.865-1.865,1.865-4.896,0-6.761C175.34,357.71,172.299,357.71,170.435,359.576z"
			/>
		<path d="M136.622,393.388L116.34,413.67c-1.865,1.864-1.865,4.896,0,6.761c0.937,0.938,2.161,1.396,3.385,1.396
			c1.224,0,2.448-0.469,3.385-1.396l20.282-20.282c1.865-1.864,1.865-4.896,0-6.761
			C141.527,391.524,138.486,391.524,136.622,393.388z"/>
		<path d="M102.809,427.202l-20.282,20.281c-1.865,1.865-1.865,4.896,0,6.761c0.937,0.938,2.161,1.396,3.385,1.396
			c1.224,0,2.448-0.469,3.385-1.396l20.282-20.281c1.865-1.865,1.865-4.896,0-6.761
			C107.714,425.336,104.683,425.327,102.809,427.202z"/>
	</g>
</g>
<g>
</g>
<g>
</g>
<g>
</g>
<g>
</g>
<g>
</g>
<g>
</g>
<g>
</g>
<g>
</g>
<g>
</g>
<g>
</g>
<g>
</g>
<g>
</g>
<g>
</g>
<g>
</g>
<g>
</g>
</svg>
