<?xml version="1.0" encoding="iso-8859-1"?>
<!-- Generator: Adobe Illustrator 16.0.0, SVG Export Plug-In . SVG Version: 6.00 Build 0)  -->
<!DOCTYPE svg PUBLIC "-//W3C//DTD SVG 1.1//EN" "http://www.w3.org/Graphics/SVG/1.1/DTD/svg11.dtd">
<svg version="1.1" id="Capa_1" xmlns="http://www.w3.org/2000/svg" xmlns:xlink="http://www.w3.org/1999/xlink" x="0px" y="0px"
	 width="478.125px" height="478.125px" viewBox="0 0 478.125 478.125" style="enable-background:new 0 0 478.125 478.125;"
	 xml:space="preserve">
<g>
	<g>
		<polygon points="21.889,478.125 456.438,478.125 402.371,420.75 79.264,420.75 		"/>
		<polygon points="468.562,13.98 420.75,66.966 420.75,412.373 468.562,463.112 		"/>
		<polygon points="403.643,57.375 455.424,0 21.038,0 79.646,57.375 		"/>
		<polygon points="66.938,71.681 9.562,15.52 9.562,463.408 66.938,406.033 		"/>
		<polygon points="86.062,164.686 86.062,204.15 268.496,76.5 212.029,76.5 		"/>
		<polygon points="86.062,386.908 86.062,401.625 98.389,401.625 384.346,401.625 401.625,401.625 401.625,392.072 401.625,88.157 
			401.625,76.5 386.383,76.5 319.302,76.5 86.062,239.655 		"/>
	</g>
</g>
<g>
</g>
<g>
</g>
<g>
</g>
<g>
</g>
<g>
</g>
<g>
</g>
<g>
</g>
<g>
</g>
<g>
</g>
<g>
</g>
<g>
</g>
<g>
</g>
<g>
</g>
<g>
</g>
<g>
</g>
</svg>
