<svg xmlns="http://www.w3.org/2000/svg" width="439.569" height="439.568" style="enable-background:new 0 0 439.569 439.568" xml:space="preserve"><path d="M363.453 315.256h43.031c7.928 0 14.344-6.416 14.344-14.344v-95.625c0-7.927-6.416-14.344-14.344-14.344h-43.031v-9.562c0-10.566-8.559-19.125-19.125-19.125H32.754c-20.32 0-12.556 16.084-12.556 16.084l-.995 60.416v95.625c0 10.566 8.559 19.125 19.125 19.125h306c10.566 0 19.125-8.559 19.125-19.125v-19.125zm28.687-95.625v66.937h-28.688v-66.937h28.688zm-57.375 98.312c0 10.566-3.777 16.438-14.344 16.438H62.234c-10.566 0-14.344-7.363-14.344-17.93v-83.537c19.125-9.477 35.438-20.875 70.82-22.243 61.659-2.391 80.421 35.86 153.535 35.266 21.851-.191 52.957-4.197 62.52-9.668V317.943zM363.453 420.443c0-10.566-8.559-19.125-19.125-19.125h-306c-10.566 0-19.125 8.559-19.125 19.125s8.559 19.125 19.125 19.125h306c10.566 0 19.125-8.558 19.125-19.125zM308.163 114.444S270.017 0 193.719 0c-76.3 0-114.444 114.444-114.444 114.444H38.328c-10.566 0-19.125 8.559-19.125 19.125s8.559 19.125 19.125 19.125h306c10.566 0 19.125-8.559 19.125-19.125s-8.559-19.125-19.125-19.125h-36.165zM219.509 22.52c3.5-1.855 16.189 15.176 28.352 38.059 12.164 22.883 19.192 42.936 15.692 44.791S247.364 90.194 235.2 67.311c-12.163-22.884-19.191-42.936-15.691-44.791zm-25.79-5.499c3.959 0 7.172 21.009 7.172 46.914s-3.213 46.914-7.172 46.914-7.172-21.009-7.172-46.914 3.213-46.914 7.172-46.914zm-54.143 43.557c12.164-22.883 24.863-39.914 28.353-38.059 3.5 1.855-3.529 21.917-15.692 44.791-12.164 22.874-24.863 39.914-28.353 38.059-3.5-1.865 3.529-21.917 15.692-44.791zM315.64 382.193c5.278 0 9.562-4.283 9.562-9.562 0-5.277-4.284-9.562-9.562-9.562H67.016c-5.278 0-9.562 4.285-9.562 9.562 0 5.279 4.284 9.562 9.562 9.562H315.64z"/></svg>