<?xml version="1.0" encoding="iso-8859-1"?>
<!-- Generator: Adobe Illustrator 16.0.0, SVG Export Plug-In . SVG Version: 6.00 Build 0)  -->
<!DOCTYPE svg PUBLIC "-//W3C//DTD SVG 1.1//EN" "http://www.w3.org/Graphics/SVG/1.1/DTD/svg11.dtd">
<svg version="1.1" id="Capa_1" xmlns="http://www.w3.org/2000/svg" xmlns:xlink="http://www.w3.org/1999/xlink" x="0px" y="0px"
	 width="439.569px" height="439.568px" viewBox="0 0 439.569 439.568" style="enable-background:new 0 0 439.569 439.568;"
	 xml:space="preserve">
<g>
	<path d="M363.453,315.256h43.031c7.928,0,14.344-6.416,14.344-14.344v-95.625c0-7.927-6.416-14.344-14.344-14.344h-43.031v-9.562
		c0-10.566-8.559-19.125-19.125-19.125c0,0-291.254,0-311.574,0S20.198,178.34,20.198,178.34l-0.995,60.416v95.625
		c0,10.566,8.559,19.125,19.125,19.125h306c10.566,0,19.125-8.559,19.125-19.125V315.256z M392.14,219.631v66.937h-28.688v-66.937
		H392.14z M334.765,317.943c0,10.566-3.777,16.438-14.344,16.438H62.234c-10.566,0-14.344-7.363-14.344-17.93v-83.537
		c19.125-9.477,35.438-20.875,70.82-22.243c61.659-2.391,80.421,35.86,153.535,35.266c21.851-0.191,52.957-4.197,62.52-9.668v50.299
		v28.688V317.943z"/>
	<path d="M363.453,420.443c0-10.566-8.559-19.125-19.125-19.125h-306c-10.566,0-19.125,8.559-19.125,19.125
		s8.559,19.125,19.125,19.125h306C354.894,439.568,363.453,431.01,363.453,420.443z"/>
	<path d="M308.163,114.444c0,0-38.146-114.444-114.444-114.444C117.419,0,79.275,114.444,79.275,114.444H38.328
		c-10.566,0-19.125,8.559-19.125,19.125s8.559,19.125,19.125,19.125h306c10.566,0,19.125-8.559,19.125-19.125
		s-8.559-19.125-19.125-19.125H308.163z M219.509,22.52c3.5-1.855,16.189,15.176,28.352,38.059
		c12.164,22.883,19.192,42.936,15.692,44.791s-16.189-15.176-28.353-38.059C223.037,44.427,216.009,24.375,219.509,22.52z
		 M193.719,17.021c3.959,0,7.172,21.009,7.172,46.914s-3.213,46.914-7.172,46.914s-7.172-21.009-7.172-46.914
		S189.76,17.021,193.719,17.021z M139.576,60.578c12.164-22.883,24.863-39.914,28.353-38.059c3.5,1.855-3.529,21.917-15.692,44.791
		c-12.164,22.874-24.863,39.914-28.353,38.059C120.384,103.504,127.413,83.452,139.576,60.578z"/>
	<path d="M315.64,382.193c5.278,0,9.562-4.283,9.562-9.562c0-5.277-4.284-9.562-9.562-9.562H67.016
		c-5.278,0-9.562,4.285-9.562,9.562c0,5.279,4.284,9.562,9.562,9.562H315.64z"/>
</g>
<g>
</g>
<g>
</g>
<g>
</g>
<g>
</g>
<g>
</g>
<g>
</g>
<g>
</g>
<g>
</g>
<g>
</g>
<g>
</g>
<g>
</g>
<g>
</g>
<g>
</g>
<g>
</g>
<g>
</g>
</svg>
