<?xml version="1.0" encoding="iso-8859-1"?>
<!-- Generator: Adobe Illustrator 16.0.0, SVG Export Plug-In . SVG Version: 6.00 Build 0)  -->
<!DOCTYPE svg PUBLIC "-//W3C//DTD SVG 1.1//EN" "http://www.w3.org/Graphics/SVG/1.1/DTD/svg11.dtd">
<svg version="1.1" id="Capa_1" xmlns="http://www.w3.org/2000/svg" xmlns:xlink="http://www.w3.org/1999/xlink" x="0px" y="0px"
	 width="415.969px" height="415.969px" viewBox="0 0 415.969 415.969" style="enable-background:new 0 0 415.969 415.969;"
	 xml:space="preserve">
<g>
	<g>
		<path d="M207.984,0C93.12,0,0,93.12,0,207.984C0,322.85,93.12,415.969,207.984,415.969c114.865,0,207.984-93.119,207.984-207.984
			C415.969,93.12,322.85,0,207.984,0z M80.392,302.653c-17.041-24.203-27.396-56.419-28.353-85.106h89.008
			C137.805,246.234,107.636,287.669,80.392,302.653z M207.984,364.169c-30.055,0-58.054-8.549-81.826-23.295
			c11.981-16.725,26.459-50.021,85.823-50.021c57.375,0,71.336,23.075,85.823,44.715
			C272.416,353.555,241.481,364.169,207.984,364.169z M182.883,222.328c0-15.186,12.307-27.492,27.492-27.492
			c15.186,0,27.492,12.307,27.492,27.492s-12.307,27.492-27.492,27.492C195.19,249.82,182.883,237.514,182.883,222.328z
			 M337.479,299.708c-42.687-17.155-48.204-53.474-51.207-82.161h77.657C363.012,246.234,353.334,276.069,337.479,299.708z
			 M57.939,169.734c18.705-66.938,78.729-113.153,150.045-113.153c71.317,0,131.341,46.216,150.045,113.153H57.939z"/>
	</g>
</g>
<g>
</g>
<g>
</g>
<g>
</g>
<g>
</g>
<g>
</g>
<g>
</g>
<g>
</g>
<g>
</g>
<g>
</g>
<g>
</g>
<g>
</g>
<g>
</g>
<g>
</g>
<g>
</g>
<g>
</g>
</svg>
