<svg xmlns="http://www.w3.org/2000/svg" width="415.969" height="415.969" style="enable-background:new 0 0 415.969 415.969" xml:space="preserve"><path d="M207.984 0C93.12 0 0 93.12 0 207.984 0 322.85 93.12 415.969 207.984 415.969c114.865 0 207.984-93.119 207.984-207.984C415.969 93.12 322.85 0 207.984 0zM80.392 302.653c-17.041-24.203-27.396-56.419-28.353-85.106h89.008c-3.242 28.687-33.411 70.122-60.655 85.106zm127.592 61.516c-30.055 0-58.054-8.549-81.826-23.295 11.981-16.725 26.459-50.021 85.823-50.021 57.375 0 71.336 23.075 85.823 44.715-25.388 17.987-56.323 28.601-89.82 28.601zm-25.101-141.841c0-15.186 12.307-27.492 27.492-27.492 15.186 0 27.492 12.307 27.492 27.492s-12.307 27.492-27.492 27.492-27.492-12.306-27.492-27.492zm154.596 77.38c-42.687-17.155-48.204-53.474-51.207-82.161h77.657c-.917 28.687-10.595 58.522-26.45 82.161zM57.939 169.734c18.705-66.938 78.729-113.153 150.045-113.153 71.317 0 131.341 46.216 150.045 113.153H57.939z"/></svg>