<svg xmlns="http://www.w3.org/2000/svg" width="592.875" height="592.875" style="enable-background:new 0 0 592.875 592.875" xml:space="preserve"><path d="M545.062 525.938h-191.25v28.688h191.25c7.928 0 14.344-6.416 14.344-14.344s-6.416-14.344-14.344-14.344zM229.5 554.625v-28.688H57.375c-7.927 0-14.344 6.416-14.344 14.344s6.417 14.344 14.344 14.344H229.5zM545.062 478.125h-191.25v28.688h191.25c7.928 0 14.344-6.416 14.344-14.344s-6.416-14.344-14.344-14.344zM57.375 506.812H229.5v-28.688H57.375c-7.927 0-14.344 6.416-14.344 14.344s6.417 14.344 14.344 14.344zM57.375 459H229.5v-28.688H57.375c-7.927 0-14.344 6.416-14.344 14.344S49.448 459 57.375 459zM545.062 430.312h-191.25V459h191.25c7.928 0 14.344-6.416 14.344-14.344s-6.416-14.344-14.344-14.344zM57.375 411.188h28.688V382.5H57.375c-7.927 0-14.344 6.416-14.344 14.344s6.417 14.344 14.344 14.344zM353.812 382.5h38.25v28.688h-38.25zM200.812 411.188H229.5V382.5h-28.688zM545.062 382.5h-38.25v28.688h38.25c7.928 0 14.344-6.416 14.344-14.344S552.99 382.5 545.062 382.5zM545.062 334.688h-38.25v28.688h38.25c7.928 0 14.344-6.416 14.344-14.344s-6.416-14.344-14.344-14.344zM57.375 363.375h28.688v-28.688H57.375c-7.927 0-14.344 6.416-14.344 14.344s6.417 14.344 14.344 14.344zM200.812 334.688h191.25v28.688h-191.25zM545.062 286.875h-38.25v28.688h38.25c7.928 0 14.344-6.416 14.344-14.344 0-7.927-6.416-14.344-14.344-14.344zM200.812 286.875h191.25v28.688h-191.25zM57.375 315.562h28.688v-28.688H57.375c-7.927 0-14.344 6.417-14.344 14.344 0 7.928 6.417 14.344 14.344 14.344zM545.062 239.062H57.375c-7.927 0-14.344 6.417-14.344 14.344s6.417 14.344 14.344 14.344h487.688c7.928 0 14.344-6.417 14.344-14.344s-6.417-14.344-14.345-14.344zM545.062 191.25H57.375c-7.927 0-14.344 6.417-14.344 14.344s6.417 14.344 14.344 14.344h487.688c7.928 0 14.344-6.417 14.344-14.344s-6.417-14.344-14.345-14.344zM545.062 143.438H57.375c-7.927 0-14.344 6.417-14.344 14.344s6.417 14.344 14.344 14.344h487.688c7.928 0 14.344-6.417 14.344-14.344s-6.417-14.344-14.345-14.344zM239.062 430.312V554.626H344.25V392.062H239.062v38.25zm81.282 52.594c-3.682 0-6.771-1.96-8.702-4.781-1.195-1.73-2.056-3.71-2.056-5.977 0-5.938 4.819-10.758 10.758-10.758s10.758 4.819 10.758 10.758c0 2.267-.86 4.246-2.056 5.977-1.932 2.821-5.021 4.781-8.702 4.781zM191.25 363.375v-76.5H95.625v124.313h95.625V382.5zM497.25 363.375v-76.5h-95.625v124.313h95.625V382.5zM574.945 86.062h-87.258V38.25h-57.375v47.812H17.93C8.023 86.062 0 94.085 0 103.992v2.391c0 9.907 8.023 17.93 17.93 17.93h557.016c9.906 0 17.93-8.023 17.93-17.93v-2.391c-.001-9.907-8.024-17.93-17.931-17.93z"/></svg>