<?xml version="1.0" encoding="iso-8859-1"?>
<!-- Generator: Adobe Illustrator 16.0.0, SVG Export Plug-In . SVG Version: 6.00 Build 0)  -->
<!DOCTYPE svg PUBLIC "-//W3C//DTD SVG 1.1//EN" "http://www.w3.org/Graphics/SVG/1.1/DTD/svg11.dtd">
<svg version="1.1" id="Capa_1" xmlns="http://www.w3.org/2000/svg" xmlns:xlink="http://www.w3.org/1999/xlink" x="0px" y="0px"
	 width="592.875px" height="592.875px" viewBox="0 0 592.875 592.875" style="enable-background:new 0 0 592.875 592.875;"
	 xml:space="preserve">
<g>
	<path d="M545.062,525.938h-191.25v28.688h191.25c7.928,0,14.344-6.416,14.344-14.344S552.99,525.938,545.062,525.938z"/>
	<path d="M229.5,554.625v-28.688H57.375c-7.927,0-14.344,6.416-14.344,14.344s6.417,14.344,14.344,14.344H229.5z"/>
	<path d="M545.062,478.125h-191.25v28.688h191.25c7.928,0,14.344-6.416,14.344-14.344S552.99,478.125,545.062,478.125z"/>
	<path d="M57.375,506.812H229.5v-28.688H57.375c-7.927,0-14.344,6.416-14.344,14.344S49.448,506.812,57.375,506.812z"/>
	<path d="M57.375,459H229.5v-28.688H57.375c-7.927,0-14.344,6.416-14.344,14.344S49.448,459,57.375,459z"/>
	<path d="M545.062,430.312h-191.25V459h191.25c7.928,0,14.344-6.416,14.344-14.344S552.99,430.312,545.062,430.312z"/>
	<path d="M57.375,411.188h28.688V382.5H57.375c-7.927,0-14.344,6.416-14.344,14.344S49.448,411.188,57.375,411.188z"/>
	<rect x="353.812" y="382.5" width="38.25" height="28.688"/>
	<polygon points="200.812,411.188 229.5,411.188 229.5,392.062 229.5,382.5 200.812,382.5 	"/>
	<path d="M545.062,382.5h-38.25v28.688h38.25c7.928,0,14.344-6.416,14.344-14.344S552.99,382.5,545.062,382.5z"/>
	<path d="M545.062,334.688h-38.25v28.688h38.25c7.928,0,14.344-6.416,14.344-14.344S552.99,334.688,545.062,334.688z"/>
	<path d="M57.375,363.375h28.688v-28.688H57.375c-7.927,0-14.344,6.416-14.344,14.344S49.448,363.375,57.375,363.375z"/>
	<rect x="200.812" y="334.688" width="191.25" height="28.688"/>
	<path d="M545.062,286.875h-38.25v28.688h38.25c7.928,0,14.344-6.416,14.344-14.344C559.406,293.292,552.99,286.875,545.062,286.875
		z"/>
	<rect x="200.812" y="286.875" width="191.25" height="28.688"/>
	<path d="M57.375,315.562h28.688v-28.688H57.375c-7.927,0-14.344,6.417-14.344,14.344C43.031,309.146,49.448,315.562,57.375,315.562
		z"/>
	<path d="M545.062,239.062H57.375c-7.927,0-14.344,6.417-14.344,14.344s6.417,14.344,14.344,14.344h487.688
		c7.928,0,14.344-6.417,14.344-14.344S552.99,239.062,545.062,239.062z"/>
	<path d="M545.062,191.25H57.375c-7.927,0-14.344,6.417-14.344,14.344s6.417,14.344,14.344,14.344h487.688
		c7.928,0,14.344-6.417,14.344-14.344S552.99,191.25,545.062,191.25z"/>
	<path d="M545.062,143.438H57.375c-7.927,0-14.344,6.417-14.344,14.344s6.417,14.344,14.344,14.344h487.688
		c7.928,0,14.344-6.417,14.344-14.344S552.99,143.438,545.062,143.438z"/>
	<path d="M239.062,430.312V459v19.125v28.688v19.125v28.688H344.25v-28.688v-19.125v-28.688V459v-28.688v-19.125v-19.125H239.062
		v19.125V430.312z M320.344,482.906c-3.682,0-6.771-1.96-8.702-4.781c-1.195-1.73-2.056-3.71-2.056-5.977
		c0-5.938,4.819-10.758,10.758-10.758s10.758,4.819,10.758,10.758c0,2.267-0.86,4.246-2.056,5.977
		C327.114,480.946,324.025,482.906,320.344,482.906z"/>
	<polygon points="191.25,363.375 191.25,334.688 191.25,315.562 191.25,286.875 95.625,286.875 95.625,315.562 95.625,334.688 
		95.625,363.375 95.625,382.5 95.625,411.188 191.25,411.188 191.25,382.5 	"/>
	<polygon points="497.25,363.375 497.25,334.688 497.25,315.562 497.25,286.875 401.625,286.875 401.625,315.562 401.625,334.688 
		401.625,363.375 401.625,382.5 401.625,411.188 497.25,411.188 497.25,382.5 	"/>
	<path d="M574.945,86.062h-87.258V38.25h-57.375v47.812H17.93C8.023,86.062,0,94.085,0,103.992v2.391
		c0,9.907,8.023,17.93,17.93,17.93h557.016c9.906,0,17.93-8.023,17.93-17.93v-2.391C592.875,94.085,584.852,86.062,574.945,86.062z"
		/>
</g>
<g>
</g>
<g>
</g>
<g>
</g>
<g>
</g>
<g>
</g>
<g>
</g>
<g>
</g>
<g>
</g>
<g>
</g>
<g>
</g>
<g>
</g>
<g>
</g>
<g>
</g>
<g>
</g>
<g>
</g>
</svg>
