<svg xmlns="http://www.w3.org/2000/svg" width="564.188" height="564.188" style="enable-background:new 0 0 564.188 564.188" xml:space="preserve"><path d="M33.469 315.562h24.624c3.395-8.023 5.259-16.906 5.259-26.297 0-15.329-4.839-29.396-13.493-40.363-.077-.096-.163-.182-.239-.277H33.469C14.984 248.625 0 263.609 0 282.094s14.984 33.468 33.469 33.468zm.583-48.405c6.282 0 11.37 4.953 11.37 11.054 0 6.102-5.097 11.055-11.37 11.055s-11.37-4.953-11.37-11.055c-.009-6.101 5.088-11.054 11.37-11.054zM526.684 315.562h4.035c18.484 0 33.469-14.984 33.469-33.469s-14.984-33.469-33.469-33.469h-11.724c.249.354.449.736.688 1.1 7.631 11.408 12.23 24.968 12.23 39.541a69.816 69.816 0 0 1-3.424 21.563c-.524 1.617-1.165 3.176-1.805 4.734zM251.245 248.625c8.071 11.618 12.919 25.608 12.919 40.641 0 9.275-1.913 18.131-5.23 26.297h28.649c3.395-8.023 5.259-16.906 5.259-26.297 0-15.463-4.934-29.634-13.731-40.641h-27.866zM212.995 248.625c8.071 11.618 12.919 25.608 12.919 40.641 0 9.275-1.913 18.131-5.23 26.297h28.649c3.395-8.023 5.259-16.906 5.259-26.297 0-15.463-4.934-29.634-13.731-40.641h-27.866zM440.592 315.562c3.396-8.023 5.26-16.906 5.26-26.297 0-15.463-4.935-29.634-13.731-40.641h-27.875c8.07 11.618 12.919 25.608 12.919 40.641 0 9.275-1.912 18.131-5.23 26.297h28.657zM480.745 248.625c8.07 11.618 12.919 25.608 12.919 40.641 0 9.275-1.912 18.131-5.23 26.297h28.658c.086-.191.182-.383.259-.583 3.231-7.87 5.001-16.562 5.001-25.714 0-15.463-4.935-29.634-13.731-40.641h-27.876zM478.842 315.562c3.396-8.023 5.26-16.906 5.26-26.297 0-15.463-4.935-29.634-13.731-40.641h-27.875c8.07 11.618 12.919 25.608 12.919 40.641 0 9.275-1.912 18.131-5.23 26.297h28.657zM325.842 315.562c3.396-8.023 5.26-16.906 5.26-26.297 0-15.463-4.935-29.634-13.731-40.641h-27.875c8.07 11.618 12.919 25.608 12.919 40.641 0 9.275-1.912 18.131-5.23 26.297h28.657zM369.352 289.266c0-15.463-4.935-29.634-13.731-40.641h-27.875c8.07 11.618 12.919 25.608 12.919 40.641 0 9.275-1.912 18.131-5.23 26.297h28.649c3.403-8.024 5.268-16.907 5.268-26.297zM402.342 315.562c3.396-8.023 5.26-16.906 5.26-26.297 0-15.463-4.935-29.634-13.731-40.641h-27.875c8.07 11.618 12.919 25.608 12.919 40.641 0 9.275-1.912 18.131-5.23 26.297h28.657zM174.745 248.625c8.071 11.618 12.919 25.608 12.919 40.641 0 9.275-1.913 18.131-5.23 26.297h28.649c3.395-8.023 5.259-16.906 5.259-26.297 0-15.463-4.934-29.634-13.731-40.641h-27.866zM134.592 315.562c3.395-8.023 5.259-16.906 5.259-26.297 0-15.463-4.934-29.634-13.732-40.641H98.245c8.071 11.618 12.919 25.608 12.919 40.641 0 9.275-1.913 18.131-5.23 26.297h28.658zM67.684 315.562h28.649c3.395-8.023 5.259-16.906 5.259-26.297 0-15.463-4.934-29.634-13.731-40.641H59.995c8.071 11.618 12.919 25.608 12.919 40.641 0 9.276-1.913 18.131-5.23 26.297zM172.842 315.562c3.395-8.023 5.259-16.906 5.259-26.297 0-15.463-4.934-29.634-13.732-40.641h-27.875c8.071 11.618 12.919 25.608 12.919 40.641 0 9.275-1.913 18.131-5.23 26.297h28.659z"/></svg>