<?xml version="1.0" encoding="iso-8859-1"?>
<!-- Generator: Adobe Illustrator 16.0.0, SVG Export Plug-In . SVG Version: 6.00 Build 0)  -->
<!DOCTYPE svg PUBLIC "-//W3C//DTD SVG 1.1//EN" "http://www.w3.org/Graphics/SVG/1.1/DTD/svg11.dtd">
<svg version="1.1" id="Capa_1" xmlns="http://www.w3.org/2000/svg" xmlns:xlink="http://www.w3.org/1999/xlink" x="0px" y="0px"
	 width="564.188px" height="564.188px" viewBox="0 0 564.188 564.188" style="enable-background:new 0 0 564.188 564.188;"
	 xml:space="preserve">
<g>
	<path d="M33.469,315.562h19.125h5.499c3.395-8.023,5.259-16.906,5.259-26.297c0-15.329-4.839-29.396-13.493-40.363
		c-0.077-0.096-0.163-0.182-0.239-0.277H33.469C14.984,248.625,0,263.609,0,282.094S14.984,315.562,33.469,315.562z M34.052,267.157
		c6.282,0,11.37,4.953,11.37,11.054c0,6.102-5.097,11.055-11.37,11.055s-11.37-4.953-11.37-11.055
		C22.673,272.11,27.77,267.157,34.052,267.157z"/>
	<path d="M526.684,315.562h4.035c18.484,0,33.469-14.984,33.469-33.469s-14.984-33.469-33.469-33.469h-11.724
		c0.249,0.354,0.449,0.736,0.688,1.1c7.631,11.408,12.23,24.968,12.23,39.541c0,7.507-1.215,14.745-3.424,21.563
		C527.965,312.445,527.324,314.004,526.684,315.562z"/>
	<path d="M251.245,248.625c8.071,11.618,12.919,25.608,12.919,40.641c0,9.275-1.913,18.131-5.23,26.297h28.649
		c3.395-8.023,5.259-16.906,5.259-26.297c0-15.463-4.934-29.634-13.731-40.641H251.245z"/>
	<path d="M212.995,248.625c8.071,11.618,12.919,25.608,12.919,40.641c0,9.275-1.913,18.131-5.23,26.297h28.649
		c3.395-8.023,5.259-16.906,5.259-26.297c0-15.463-4.934-29.634-13.731-40.641H212.995z"/>
	<path d="M440.592,315.562c3.396-8.023,5.26-16.906,5.26-26.297c0-15.463-4.935-29.634-13.731-40.641h-27.875
		c8.07,11.618,12.919,25.608,12.919,40.641c0,9.275-1.912,18.131-5.23,26.297H440.592z"/>
	<path d="M480.745,248.625c8.07,11.618,12.919,25.608,12.919,40.641c0,9.275-1.912,18.131-5.23,26.297h23.16h5.498
		c0.086-0.191,0.182-0.383,0.259-0.583c3.231-7.87,5.001-16.562,5.001-25.714c0-15.463-4.935-29.634-13.731-40.641H480.745z"/>
	<path d="M478.842,315.562c3.396-8.023,5.26-16.906,5.26-26.297c0-15.463-4.935-29.634-13.731-40.641h-27.875
		c8.07,11.618,12.919,25.608,12.919,40.641c0,9.275-1.912,18.131-5.23,26.297H478.842z"/>
	<path d="M325.842,315.562c3.396-8.023,5.26-16.906,5.26-26.297c0-15.463-4.935-29.634-13.731-40.641h-27.875
		c8.07,11.618,12.919,25.608,12.919,40.641c0,9.275-1.912,18.131-5.23,26.297H325.842z"/>
	<path d="M369.352,289.266c0-15.463-4.935-29.634-13.731-40.641h-27.875c8.07,11.618,12.919,25.608,12.919,40.641
		c0,9.275-1.912,18.131-5.23,26.297h28.649C367.487,307.539,369.352,298.656,369.352,289.266z"/>
	<path d="M402.342,315.562c3.396-8.023,5.26-16.906,5.26-26.297c0-15.463-4.935-29.634-13.731-40.641h-27.875
		c8.07,11.618,12.919,25.608,12.919,40.641c0,9.275-1.912,18.131-5.23,26.297H402.342z"/>
	<path d="M174.745,248.625c8.071,11.618,12.919,25.608,12.919,40.641c0,9.275-1.913,18.131-5.23,26.297h28.649
		c3.395-8.023,5.259-16.906,5.259-26.297c0-15.463-4.934-29.634-13.731-40.641H174.745z"/>
	<path d="M134.592,315.562c3.395-8.023,5.259-16.906,5.259-26.297c0-15.463-4.934-29.634-13.732-40.641H98.245
		c8.071,11.618,12.919,25.608,12.919,40.641c0,9.275-1.913,18.131-5.23,26.297H134.592z"/>
	<path d="M67.684,315.562h28.649c3.395-8.023,5.259-16.906,5.259-26.297c0-15.463-4.934-29.634-13.731-40.641H59.995
		c8.071,11.618,12.919,25.608,12.919,40.641C72.914,298.541,71.001,307.396,67.684,315.562z"/>
	<path d="M172.842,315.562c3.395-8.023,5.259-16.906,5.259-26.297c0-15.463-4.934-29.634-13.732-40.641h-27.875
		c8.071,11.618,12.919,25.608,12.919,40.641c0,9.275-1.913,18.131-5.23,26.297H172.842z"/>
</g>
<g>
</g>
<g>
</g>
<g>
</g>
<g>
</g>
<g>
</g>
<g>
</g>
<g>
</g>
<g>
</g>
<g>
</g>
<g>
</g>
<g>
</g>
<g>
</g>
<g>
</g>
<g>
</g>
<g>
</g>
</svg>
