<svg xmlns="http://www.w3.org/2000/svg" width="487.688" height="487.688" style="enable-background:new 0 0 487.688 487.688" xml:space="preserve"><path d="M415.969 0H71.719C61.152 0 52.594 8.559 52.594 19.125v449.438c0 10.566 8.559 19.125 19.125 19.125h344.25c10.566 0 19.125-8.559 19.125-19.125V19.125C435.094 8.559 426.535 0 415.969 0zM248.625 462.586c-9.906 0-17.93-8.023-17.93-17.93s8.023-17.93 17.93-17.93 17.93 8.023 17.93 17.93-8.024 17.93-17.93 17.93zm148.219-51.398H100.406V47.812h296.438v363.376z"/><path d="m221.984 66.938-102.453 71.604v33.038l149.73-104.642zM377.719 66.938h-65.924L119.531 201.31v190.752h258.188z"/></svg>