<?xml version="1.0" encoding="iso-8859-1"?>
<!-- Generator: Adobe Illustrator 16.0.0, SVG Export Plug-In . SVG Version: 6.00 Build 0)  -->
<!DOCTYPE svg PUBLIC "-//W3C//DTD SVG 1.1//EN" "http://www.w3.org/Graphics/SVG/1.1/DTD/svg11.dtd">
<svg version="1.1" id="Capa_1" xmlns="http://www.w3.org/2000/svg" xmlns:xlink="http://www.w3.org/1999/xlink" x="0px" y="0px"
	 width="487.688px" height="487.688px" viewBox="0 0 487.688 487.688" style="enable-background:new 0 0 487.688 487.688;"
	 xml:space="preserve">
<g>
	<path d="M415.969,0H71.719C61.152,0,52.594,8.559,52.594,19.125v449.438c0,10.566,8.559,19.125,19.125,19.125h344.25
		c10.566,0,19.125-8.559,19.125-19.125V19.125C435.094,8.559,426.535,0,415.969,0z M248.625,462.586
		c-9.906,0-17.93-8.023-17.93-17.93s8.023-17.93,17.93-17.93s17.93,8.023,17.93,17.93S258.531,462.586,248.625,462.586z
		 M396.844,411.188H100.406V47.812h296.438V411.188z"/>
	<polygon points="221.984,66.938 119.531,138.542 119.531,171.58 269.261,66.938 	"/>
	<polygon points="377.719,66.938 311.795,66.938 119.531,201.31 119.531,392.062 377.719,392.062 	"/>
</g>
<g>
</g>
<g>
</g>
<g>
</g>
<g>
</g>
<g>
</g>
<g>
</g>
<g>
</g>
<g>
</g>
<g>
</g>
<g>
</g>
<g>
</g>
<g>
</g>
<g>
</g>
<g>
</g>
<g>
</g>
</svg>
