<?xml version="1.0" encoding="iso-8859-1"?>
<!-- Generator: Adobe Illustrator 16.0.0, SVG Export Plug-In . SVG Version: 6.00 Build 0)  -->
<!DOCTYPE svg PUBLIC "-//W3C//DTD SVG 1.1//EN" "http://www.w3.org/Graphics/SVG/1.1/DTD/svg11.dtd">
<svg version="1.1" id="Capa_1" xmlns="http://www.w3.org/2000/svg" xmlns:xlink="http://www.w3.org/1999/xlink" x="0px" y="0px"
	 width="554.625px" height="554.625px" viewBox="0 0 554.625 554.625" style="enable-background:new 0 0 554.625 554.625;"
	 xml:space="preserve">
<g>
	<path d="M181.688,420.75H38.25v57.375h143.438V420.75z M113.555,459.593c-6.598,0-11.953-5.354-11.953-11.953
		c0-6.598,5.355-11.953,11.953-11.953s11.953,5.355,11.953,11.953C125.508,454.238,120.153,459.593,113.555,459.593z"/>
	<path d="M181.688,315.562H38.25v57.375h143.438V315.562z M113.555,354.405c-6.598,0-11.953-5.354-11.953-11.953
		c0-6.598,5.355-11.953,11.953-11.953s11.953,5.355,11.953,11.953C125.508,349.051,120.153,354.405,113.555,354.405z"/>
	<path d="M219.938,277.312h-19.125H0v210.375v28.688v28.688h28.688v-28.688H191.25v28.688h28.688v-28.688v-28.688V353.812h306
		v191.25h28.688v-191.25v-19.125V306v-28.688h-28.688H219.938z M191.25,487.688H28.688v-76.5H191.25V487.688z M191.25,382.5H28.688
		V306H191.25V382.5z M525.938,334.688h-306V306h306V334.688z"/>
	<polygon points="306,219.938 306,248.625 286.875,248.625 286.875,267.75 430.312,267.75 430.312,248.625 411.188,248.625 
		411.188,219.938 	"/>
	<path d="M516.375,9.562h-306v200.812h306V9.562z M363.375,196.031c-6.598,0-11.953-5.355-11.953-11.953s5.355-11.953,11.953-11.953
		s11.953,5.355,11.953,11.953S369.973,196.031,363.375,196.031z M497.25,153H229.5V28.688h267.75V153z"/>
</g>
<g>
</g>
<g>
</g>
<g>
</g>
<g>
</g>
<g>
</g>
<g>
</g>
<g>
</g>
<g>
</g>
<g>
</g>
<g>
</g>
<g>
</g>
<g>
</g>
<g>
</g>
<g>
</g>
<g>
</g>
</svg>
