<svg xmlns="http://www.w3.org/2000/svg" width="516.375" height="516.375" style="enable-background:new 0 0 516.375 516.375" xml:space="preserve"><path d="M402.218 9.562H123.72l-16.572 124.313H418.79zM497.25 143.438H14.344C6.436 143.438 0 149.873 0 157.781v229.5c0 7.908 6.436 14.344 14.344 14.344h115.075l-5.106 9.562-50.997 95.625h379.306l-50.997-95.625-5.097-9.562h105.503c7.908 0 14.344-6.436 14.344-14.344V162.562c0-10.566-8.559-19.124-19.125-19.124zM133.875 310.781c0-8.176 6.588-14.344 15.329-14.344h230.045c11.886 0 12.813 10.978 12.813 14.344v57.375c0 2.62-.641 9.812-6.521 12.881l-14.516-27.225H154.913l-14.105 26.45c-4.227-2.496-6.933-6.886-6.933-12.106v-57.375zM436.69 497.25H89.247l45.9-86.062 5.097-9.562 5.288-9.906.077-.144 4.838-9.075 10.203-19.125h204.637L375.49 382.5l5.002 9.371.038.076 5.164 9.678 5.097 9.562 45.899 86.063zm21.516-277.312c-9.687 0-17.527-7.851-17.527-17.528 0-9.687 7.851-17.528 17.527-17.528 9.678 0 17.528 7.851 17.528 17.528s-7.85 17.528-17.528 17.528z"/><path d="M133.875 468.562h143.438v9.562H133.875zM143.438 449.438H382.5V459H143.438zM153 430.312h219.938v9.562H153zM357.494 411.188l-3.883-9.563-3.882-9.563-3.882-9.562h-49.409l-.498 9.562-.497 9.563-.498 9.563-.497 9.562h66.938z"/></svg>