<svg xmlns="http://www.w3.org/2000/svg" width="535.5" height="535.5" style="enable-background:new 0 0 535.5 535.5" xml:space="preserve"><path d="M435.094 0H100.406C89.84 0 81.281 8.559 81.281 19.125v162.562h372.938V19.125C454.219 8.559 445.66 0 435.094 0zm-19.125 133.875H119.531V38.25h296.438v95.625zM81.281 516.375c0 10.566 8.559 19.125 19.125 19.125h334.688c10.566 0 19.125-8.559 19.125-19.125V191.25H81.281v325.125zm286.875-277.313c0-10.566 8.559-19.125 19.125-19.125h28.688c10.566 0 19.125 8.559 19.125 19.125v9.562c0 10.566-8.559 19.125-19.125 19.125h-28.688c-10.566 0-19.125-8.559-19.125-19.125v-9.562zm0 76.5c0-10.566 8.559-19.125 19.125-19.125h28.688c10.566 0 19.125 8.559 19.125 19.125v9.562c0 10.566-8.559 19.125-19.125 19.125h-28.688c-10.566 0-19.125-8.559-19.125-19.125v-9.562zm0 76.5c0-10.566 8.559-19.125 19.125-19.125h28.688c10.566 0 19.125 8.559 19.125 19.125v86.062c0 10.566-8.559 19.125-19.125 19.125h-28.688c-10.566 0-19.125-8.559-19.125-19.125v-86.062zm-86.062-153c0-10.566 8.559-19.125 19.125-19.125h28.688c10.566 0 19.125 8.559 19.125 19.125v9.562c0 10.566-8.559 19.125-19.125 19.125h-28.688c-10.566 0-19.125-8.559-19.125-19.125v-9.562zm0 76.5c0-10.566 8.559-19.125 19.125-19.125h28.688c10.566 0 19.125 8.559 19.125 19.125v9.562c0 10.566-8.559 19.125-19.125 19.125h-28.688c-10.566 0-19.125-8.559-19.125-19.125v-9.562zm0 76.5c0-10.566 8.559-19.125 19.125-19.125h28.688c10.566 0 19.125 8.559 19.125 19.125v9.562c0 10.566-8.559 19.125-19.125 19.125h-28.688c-10.566 0-19.125-8.559-19.125-19.125v-9.562zm0 76.5c0-10.566 8.559-19.125 19.125-19.125h28.688c10.566 0 19.125 8.559 19.125 19.125v9.562c0 10.566-8.559 19.125-19.125 19.125h-28.688c-10.566 0-19.125-8.559-19.125-19.125v-9.562zm-86.063-229.5c0-10.566 8.559-19.125 19.125-19.125h28.688c10.566 0 19.125 8.559 19.125 19.125v9.562c0 10.566-8.559 19.125-19.125 19.125h-28.688c-10.566 0-19.125-8.559-19.125-19.125v-9.562zm0 76.5c0-10.566 8.559-19.125 19.125-19.125h28.688c10.566 0 19.125 8.559 19.125 19.125v9.562c0 10.566-8.559 19.125-19.125 19.125h-28.688c-10.566 0-19.125-8.559-19.125-19.125v-9.562zm0 76.5c0-10.566 8.559-19.125 19.125-19.125h28.688c10.566 0 19.125 8.559 19.125 19.125v9.562c0 10.566-8.559 19.125-19.125 19.125h-28.688c-10.566 0-19.125-8.559-19.125-19.125v-9.562zm0 76.5c0-10.566 8.559-19.125 19.125-19.125h28.688c10.566 0 19.125 8.559 19.125 19.125v9.562c0 10.566-8.559 19.125-19.125 19.125h-28.688c-10.566 0-19.125-8.559-19.125-19.125v-9.562zm-86.062-229.5c0-10.566 8.559-19.125 19.125-19.125h28.688c10.566 0 19.125 8.559 19.125 19.125v9.562c0 10.566-8.559 19.125-19.125 19.125h-28.688c-10.566 0-19.125-8.559-19.125-19.125v-9.562zm0 76.5c0-10.566 8.559-19.125 19.125-19.125h28.688c10.566 0 19.125 8.559 19.125 19.125v9.562c0 10.566-8.559 19.125-19.125 19.125h-28.688c-10.566 0-19.125-8.559-19.125-19.125v-9.562zm0 76.5c0-10.566 8.559-19.125 19.125-19.125h28.688c10.566 0 19.125 8.559 19.125 19.125v9.562c0 10.566-8.559 19.125-19.125 19.125h-28.688c-10.566 0-19.125-8.559-19.125-19.125v-9.562zm0 76.5c0-10.566 8.559-19.125 19.125-19.125h28.688c10.566 0 19.125 8.559 19.125 19.125v9.562c0 10.566-8.559 19.125-19.125 19.125h-28.688c-10.566 0-19.125-8.559-19.125-19.125v-9.562z"/><path d="M396.844 258.188h9.562v-9.563h9.563v-9.563h-9.563V229.5h-9.562v9.562h-9.563v9.563h9.563zM387.281 420.75h28.688v9.562h-28.688zM387.281 315.562h28.688v9.562h-28.688zM387.281 439.875h28.688v9.562h-28.688z"/></svg>