<?xml version="1.0" encoding="iso-8859-1"?>
<!-- Generator: Adobe Illustrator 16.0.0, SVG Export Plug-In . SVG Version: 6.00 Build 0)  -->
<!DOCTYPE svg PUBLIC "-//W3C//DTD SVG 1.1//EN" "http://www.w3.org/Graphics/SVG/1.1/DTD/svg11.dtd">
<svg version="1.1" id="Capa_1" xmlns="http://www.w3.org/2000/svg" xmlns:xlink="http://www.w3.org/1999/xlink" x="0px" y="0px"
	 width="535.5px" height="535.5px" viewBox="0 0 535.5 535.5" style="enable-background:new 0 0 535.5 535.5;" xml:space="preserve"
	>
<g>
	<polygon points="174.038,311.976 172.603,305.761 163.519,383.695 173.56,384.652 180.731,320.583 176.428,320.583 	"/>
	<polygon points="352.856,320.583 348.553,320.583 355.725,384.652 365.766,383.695 356.682,305.761 354.769,311.976 	"/>
	<polygon points="98.972,102.08 0,122.161 0,141.764 186.947,141.764 189.815,122.161 347.119,122.161 349.987,141.764 
		535.5,141.764 535.5,122.161 456.131,102.08 	"/>
	<polygon points="203.203,280.898 174.516,280.898 174.994,282.811 182.166,306.239 183.6,310.542 199.856,310.542 	"/>
	<polygon points="233.325,280.898 229.978,310.542 303.131,310.542 300.74,280.898 	"/>
	<polygon points="353.334,292.374 357.159,280.898 330.862,280.898 333.253,310.542 345.206,310.542 347.597,310.542 	"/>
	<path d="M213.244,182.882c0.957-7.649,7.65-11.475,14.822-11.475h79.369c8.128,0,14.344,5.26,15.3,12.432l3.347,37.293h25.341
		l-10.997-79.368l-1.435-10.041H198.422l-1.435,10.041l-12.431,79.368h24.863L213.244,182.882z"/>
	<polygon points="241.453,201.53 239.541,221.132 295.481,221.132 293.568,201.53 	"/>
	<path d="M323.213,310.542l-2.391-29.645l-0.957-10.04l-3.347-39.685l-0.956-10.041l-3.347-36.815c0-2.391-2.869-2.868-5.26-2.868
		h-78.891c-2.391,0-4.781,0.478-5.259,2.868l-3.825,36.815l-0.957,10.041l-4.303,39.685l-0.956,10.04l-2.869,29.645l-0.957,10.04
		l-11.475,110.925l10.041,0.479l11.475-111.403l0.956-10.04l3.347-29.645l0.957-10.04l4.303-39.685l0.956-10.041l3.347-29.644h4.303
		h61.2h4.304l2.391,29.644L306,231.173l3.347,39.685l0.956,10.04l2.391,29.645l0.957,10.04l10.04,112.838l10.041-0.479
		l-9.562-112.359L323.213,310.542z"/>
	<rect y="151.805" width="19.603" height="228.066"/>
	<rect x="515.896" y="151.805" width="19.604" height="228.066"/>
	<rect x="436.528" y="151.805" width="19.603" height="168.778"/>
	<rect x="89.409" y="151.805" width="19.604" height="168.778"/>
</g>
<g>
</g>
<g>
</g>
<g>
</g>
<g>
</g>
<g>
</g>
<g>
</g>
<g>
</g>
<g>
</g>
<g>
</g>
<g>
</g>
<g>
</g>
<g>
</g>
<g>
</g>
<g>
</g>
<g>
</g>
</svg>
