<svg xmlns="http://www.w3.org/2000/svg" width="535.5" height="535.5" style="enable-background:new 0 0 535.5 535.5" xml:space="preserve"><path d="M315.562 296.438c0 13.388-10.519 23.906-23.906 23.906h-47.812c-13.388 0-23.906-10.519-23.906-23.906v-14.344H0v153c0 10.519 8.606 19.125 19.125 19.125h497.25c10.519 0 19.125-8.606 19.125-19.125v-153H315.562v14.344z"/><path d="M291.656 262.969h-47.812c-6.216 0-11.475 3.825-13.388 9.562-.478 1.435-.956 2.869-.956 4.781v19.125c0 8.128 6.216 14.344 14.344 14.344h47.812c8.128 0 14.344-6.216 14.344-14.344v-14.344c0-3.347-.956-9.562-.956-9.562-1.913-5.737-7.172-9.562-13.388-9.562z"/><path d="M516.375 148.219H372.938v-38.25c0-15.778-12.909-28.688-28.688-28.688H181.688C165.909 81.281 153 94.19 153 109.969v38.25H19.125C8.606 148.219 0 156.825 0 167.344v105.188h220.416c2.391-10.997 11.953-19.125 23.428-19.125h47.812c11.475 0 21.037 8.128 23.428 19.125H535.5V167.344c0-10.519-8.606-19.125-19.125-19.125zm-162.563 0H172.125v-38.25c0-5.259 4.303-9.562 9.562-9.562H344.25c5.26 0 9.562 4.303 9.562 9.562v38.25z"/></svg>