<svg xmlns="http://www.w3.org/2000/svg" width="522.562" height="522.562" style="enable-background:new 0 0 522.562 522.562" xml:space="preserve"><path d="M381.213 219.938h-10.355c-4.523 0-8.109 4.179-8.855 9.562h-37.045l-15.769-65.427c9.754-11.063 15.348-25.302 15.348-40.593 0-29.615-21.009-54.411-48.893-60.301V0h-28.688v64.002c-26.278 7.047-45.708 31.011-45.708 59.479 0 16.266 6.33 31.25 17.107 42.496L203.017 229.5h-42.448c-.746-5.384-4.332-9.562-8.855-9.562h-10.356c-5.068 0-9.17 5.125-9.17 11.456v.994c0 6.331 4.103 16.237 9.161 16.237h10.356c3.452 0 6.426-4.619 7.985-9.562h41.013L138.91 495.376l9.17 2.696-5.394 18.341a4.774 4.774 0 0 0 3.232 5.938c.449.134.908.201 1.348.201 2.065 0 3.978-1.349 4.581-3.424l5.403-18.351 4.59 1.349 24.222-31.499 54.525-231.565H256.5v19.125c0 5.278 4.284 9.562 9.562 9.562s9.562-4.284 9.562-9.562v-19.125h11.743l54.516 231.575 24.222 31.499 4.59-1.349 5.403 18.351a4.767 4.767 0 0 0 4.58 3.423c.439 0 .898-.066 1.349-.2a4.767 4.767 0 0 0 3.231-5.938l-5.402-18.341 9.17-2.696-61.773-256.323h35.61c1.559 4.944 4.533 9.562 7.985 9.562h10.355c5.068 0 9.171-9.907 9.171-16.237v-.994c.001-6.331-4.102-11.456-9.161-11.456zM275.625 229.5v-19.125c0-5.278-4.284-9.562-9.562-9.562s-9.562 4.284-9.562 9.562V229.5h-13.655l21.143-89.801L285.12 229.5h-9.495zm24.297-103.782-35.944 10.585-35.946-10.585-6.933 28.773c-6.531-8.788-10.309-19.517-10.309-31.011 0-28.716 23.361-52.087 52.087-52.087s52.087 23.361 52.087 52.087c0 10.461-3.137 20.311-8.663 28.668l-6.379-26.43z"/></svg>