<svg xmlns="http://www.w3.org/2000/svg" width="449.438" height="449.438" style="enable-background:new 0 0 449.438 449.438" xml:space="preserve"><path d="M406.846 363.375h.249l4.093-4.781V0h-306.88c.536 1.501.88 3.098.88 4.781 0 3.691-1.435 7.019-3.729 9.562 2.295 2.543 3.729 5.872 3.729 9.562s-1.435 7.019-3.729 9.562c2.295 2.543 3.729 5.872 3.729 9.562s-1.435 7.019-3.729 9.562c2.295 2.543 3.729 5.872 3.729 9.562s-1.435 7.019-3.729 9.562c2.295 2.543 3.729 5.872 3.729 9.562s-1.435 7.019-3.729 9.562c2.295 2.543 3.729 5.872 3.729 9.562s-1.435 7.019-3.729 9.562c2.295 2.543 3.729 5.872 3.729 9.562s-1.435 7.019-3.729 9.562c2.295 2.543 3.729 5.872 3.729 9.562s-1.435 7.019-3.729 9.562c2.295 2.543 3.729 5.872 3.729 9.562s-1.435 7.019-3.729 9.562c2.295 2.543 3.729 5.872 3.729 9.562s-1.435 7.019-3.729 9.562c2.295 2.543 3.729 5.872 3.729 9.562s-1.435 7.019-3.729 9.562c2.295 2.543 3.729 5.872 3.729 9.562s-1.435 7.019-3.729 9.562c2.295 2.544 3.729 5.871 3.729 9.562s-1.435 7.019-3.729 9.562c2.295 2.544 3.729 5.871 3.729 9.562s-1.435 7.019-3.729 9.562c2.295 2.544 3.729 5.871 3.729 9.562s-1.435 7.019-3.729 9.562c2.295 2.544 3.729 5.871 3.729 9.562s-1.435 7.019-3.729 9.562c2.295 2.544 3.729 5.871 3.729 9.562s-1.435 7.019-3.729 9.562c2.295 2.544 3.729 5.871 3.729 9.562s-1.435 7.019-3.729 9.562c2.295 2.544 3.729 5.871 3.729 9.562s-1.435 7.019-3.729 9.562c2.295 2.544 3.729 5.871 3.729 9.562s-1.435 7.019-3.729 9.562c2.295 2.544 3.729 5.871 3.729 9.562s-1.435 7.019-3.729 9.562c2.295 2.544 3.729 5.871 3.729 9.562s-1.435 7.019-3.729 9.562c2.295 2.544 3.729 5.871 3.729 9.562s-1.435 7.019-3.729 9.562c2.295 2.544 3.729 5.871 3.729 9.562 0 1.683-.344 3.28-.88 4.781h229.185l1.195-1.396v-84.666h72.158zM143.438 47.812h133.875v9.562H143.438v-9.562zm0 28.688h133.875v9.562H143.438V76.5zm0 28.688h133.875v9.562H143.438v-9.562zm0 28.687h133.875v9.562H143.438v-9.562zm0 28.687h133.875v9.562H143.438v-9.562zm133.874 124.313H143.438v-9.562h133.875v9.562zM382.5 258.188H143.438v-9.562H382.5v9.562zm0-28.688H143.438v-9.562H382.5v9.562zm0-28.688H143.438v-9.562H382.5v9.562zm0-47.812h-86.062V47.812H382.5V153z"/><path d="m344.25 426.727 52.135-53.789H344.25zM43.031 9.562h47.813c1.874 0 3.452-1.109 4.236-2.678.325-.641.545-1.338.545-2.104A4.783 4.783 0 0 0 90.844 0H43.031c-2.639 0-4.781 2.142-4.781 4.781s2.142 4.781 4.781 4.781zM43.031 28.688h47.813c1.874 0 3.452-1.109 4.236-2.678.325-.641.545-1.338.545-2.104a4.783 4.783 0 0 0-4.781-4.781H43.031c-2.639 0-4.781 2.142-4.781 4.781s2.142 4.782 4.781 4.782zM43.031 47.812h47.813c1.874 0 3.452-1.109 4.236-2.678.325-.641.545-1.338.545-2.104a4.783 4.783 0 0 0-4.781-4.781H43.031c-2.639 0-4.781 2.142-4.781 4.781s2.142 4.782 4.781 4.782zM43.031 66.938h47.813c1.874 0 3.452-1.109 4.236-2.678.325-.641.545-1.338.545-2.104a4.783 4.783 0 0 0-4.781-4.781H43.031c-2.639 0-4.781 2.142-4.781 4.781s2.142 4.782 4.781 4.782zM43.031 86.062h47.813c1.874 0 3.452-1.109 4.236-2.678.325-.641.545-1.338.545-2.104a4.783 4.783 0 0 0-4.781-4.781H43.031c-2.639 0-4.781 2.142-4.781 4.781s2.142 4.782 4.781 4.782zM43.031 105.188h47.813c1.874 0 3.452-1.109 4.236-2.678.325-.641.545-1.338.545-2.104a4.783 4.783 0 0 0-4.781-4.781H43.031c-2.639 0-4.781 2.142-4.781 4.781s2.142 4.782 4.781 4.782zM43.031 124.312h47.813c1.874 0 3.452-1.109 4.236-2.678.325-.641.545-1.338.545-2.104a4.783 4.783 0 0 0-4.781-4.781H43.031c-2.639 0-4.781 2.142-4.781 4.781s2.142 4.782 4.781 4.782zM43.031 143.438h47.813c1.874 0 3.452-1.109 4.236-2.678.325-.641.545-1.338.545-2.104a4.783 4.783 0 0 0-4.781-4.781H43.031c-2.639 0-4.781 2.142-4.781 4.781s2.142 4.782 4.781 4.782zM43.031 162.562h47.813c1.874 0 3.452-1.109 4.236-2.678.325-.641.545-1.338.545-2.104a4.783 4.783 0 0 0-4.781-4.781H43.031c-2.639 0-4.781 2.142-4.781 4.781s2.142 4.782 4.781 4.782zM43.031 181.688h47.813c1.874 0 3.452-1.109 4.236-2.678.325-.641.545-1.338.545-2.104a4.783 4.783 0 0 0-4.781-4.781H43.031c-2.639 0-4.781 2.142-4.781 4.781s2.142 4.782 4.781 4.782zM43.031 200.812h47.813c1.874 0 3.452-1.109 4.236-2.678.325-.641.545-1.338.545-2.104a4.783 4.783 0 0 0-4.781-4.781H43.031c-2.639 0-4.781 2.142-4.781 4.781s2.142 4.782 4.781 4.782zM43.031 219.938h47.813c1.874 0 3.452-1.109 4.236-2.678.325-.641.545-1.338.545-2.104a4.783 4.783 0 0 0-4.781-4.781H43.031c-2.639 0-4.781 2.142-4.781 4.781s2.142 4.782 4.781 4.782zM43.031 239.062h47.813c1.874 0 3.452-1.109 4.236-2.678.325-.641.545-1.339.545-2.104a4.782 4.782 0 0 0-4.781-4.781H43.031c-2.639 0-4.781 2.142-4.781 4.781s2.142 4.782 4.781 4.782zM43.031 258.188h47.813c1.874 0 3.452-1.109 4.236-2.678.325-.641.545-1.339.545-2.104a4.782 4.782 0 0 0-4.781-4.781H43.031c-2.639 0-4.781 2.142-4.781 4.781s2.142 4.782 4.781 4.782zM43.031 277.312h47.813c1.874 0 3.452-1.109 4.236-2.678.325-.641.545-1.339.545-2.104a4.782 4.782 0 0 0-4.781-4.781H43.031c-2.639 0-4.781 2.142-4.781 4.781s2.142 4.782 4.781 4.782zM43.031 296.438h47.813c1.874 0 3.452-1.109 4.236-2.678.325-.641.545-1.339.545-2.104a4.782 4.782 0 0 0-4.781-4.781H43.031c-2.639 0-4.781 2.142-4.781 4.781s2.142 4.782 4.781 4.782zM43.031 315.562h47.813c1.874 0 3.452-1.109 4.236-2.678.325-.641.545-1.339.545-2.104a4.782 4.782 0 0 0-4.781-4.781H43.031c-2.639 0-4.781 2.142-4.781 4.781s2.142 4.782 4.781 4.782zM43.031 334.688h47.813c1.874 0 3.452-1.109 4.236-2.678.325-.641.545-1.339.545-2.104a4.782 4.782 0 0 0-4.781-4.781H43.031c-2.639 0-4.781 2.142-4.781 4.781s2.142 4.782 4.781 4.782zM43.031 353.812h47.813c1.874 0 3.452-1.109 4.236-2.678.325-.641.545-1.339.545-2.104a4.782 4.782 0 0 0-4.781-4.781H43.031c-2.639 0-4.781 2.142-4.781 4.781s2.142 4.782 4.781 4.782zM43.031 372.938h47.813c1.874 0 3.452-1.109 4.236-2.678.325-.641.545-1.339.545-2.104a4.782 4.782 0 0 0-4.781-4.781H43.031c-2.639 0-4.781 2.142-4.781 4.781s2.142 4.782 4.781 4.782zM43.031 392.062h47.813c1.874 0 3.452-1.109 4.236-2.678.325-.641.545-1.339.545-2.104a4.782 4.782 0 0 0-4.781-4.781H43.031c-2.639 0-4.781 2.142-4.781 4.781s2.142 4.782 4.781 4.782zM43.031 411.188h47.813c1.874 0 3.452-1.109 4.236-2.678.325-.641.545-1.339.545-2.104a4.782 4.782 0 0 0-4.781-4.781H43.031c-2.639 0-4.781 2.142-4.781 4.781s2.142 4.782 4.781 4.782zM43.031 430.312h47.813c1.874 0 3.452-1.109 4.236-2.678.325-.641.545-1.339.545-2.104a4.782 4.782 0 0 0-4.781-4.781H43.031c-2.639 0-4.781 2.142-4.781 4.781s2.142 4.782 4.781 4.782zM43.031 449.438h47.813c1.874 0 3.452-1.109 4.236-2.678.325-.641.545-1.339.545-2.104a4.782 4.782 0 0 0-4.781-4.781H43.031c-2.639 0-4.781 2.142-4.781 4.781s2.142 4.782 4.781 4.782z"/></svg>