<?xml version="1.0" encoding="iso-8859-1"?>
<!-- Generator: Adobe Illustrator 16.0.0, SVG Export Plug-In . SVG Version: 6.00 Build 0)  -->
<!DOCTYPE svg PUBLIC "-//W3C//DTD SVG 1.1//EN" "http://www.w3.org/Graphics/SVG/1.1/DTD/svg11.dtd">
<svg version="1.1" id="Capa_1" xmlns="http://www.w3.org/2000/svg" xmlns:xlink="http://www.w3.org/1999/xlink" x="0px" y="0px"
	 width="449.438px" height="449.438px" viewBox="0 0 449.438 449.438" style="enable-background:new 0 0 449.438 449.438;"
	 xml:space="preserve">
<g>
	<path d="M406.846,363.375h0.249l4.093-4.781V0h-306.88c0.536,1.501,0.88,3.098,0.88,4.781c0,3.691-1.435,7.019-3.729,9.562
		c2.295,2.543,3.729,5.872,3.729,9.562s-1.435,7.019-3.729,9.562c2.295,2.543,3.729,5.872,3.729,9.562s-1.435,7.019-3.729,9.562
		c2.295,2.543,3.729,5.872,3.729,9.562s-1.435,7.019-3.729,9.562c2.295,2.543,3.729,5.872,3.729,9.562s-1.435,7.019-3.729,9.562
		c2.295,2.543,3.729,5.872,3.729,9.562s-1.435,7.019-3.729,9.562c2.295,2.543,3.729,5.872,3.729,9.562s-1.435,7.019-3.729,9.562
		c2.295,2.543,3.729,5.872,3.729,9.562s-1.435,7.019-3.729,9.562c2.295,2.543,3.729,5.872,3.729,9.562s-1.435,7.019-3.729,9.562
		c2.295,2.543,3.729,5.872,3.729,9.562s-1.435,7.019-3.729,9.562c2.295,2.543,3.729,5.872,3.729,9.562s-1.435,7.019-3.729,9.562
		c2.295,2.543,3.729,5.872,3.729,9.562s-1.435,7.019-3.729,9.562c2.295,2.544,3.729,5.871,3.729,9.562s-1.435,7.019-3.729,9.562
		c2.295,2.544,3.729,5.871,3.729,9.562s-1.435,7.019-3.729,9.562c2.295,2.544,3.729,5.871,3.729,9.562s-1.435,7.019-3.729,9.562
		c2.295,2.544,3.729,5.871,3.729,9.562s-1.435,7.019-3.729,9.562c2.295,2.544,3.729,5.871,3.729,9.562s-1.435,7.019-3.729,9.562
		c2.295,2.544,3.729,5.871,3.729,9.562s-1.435,7.019-3.729,9.562c2.295,2.544,3.729,5.871,3.729,9.562s-1.435,7.019-3.729,9.562
		c2.295,2.544,3.729,5.871,3.729,9.562s-1.435,7.019-3.729,9.562c2.295,2.544,3.729,5.871,3.729,9.562s-1.435,7.019-3.729,9.562
		c2.295,2.544,3.729,5.871,3.729,9.562s-1.435,7.019-3.729,9.562c2.295,2.544,3.729,5.871,3.729,9.562s-1.435,7.019-3.729,9.562
		c2.295,2.544,3.729,5.871,3.729,9.562c0,1.683-0.344,3.28-0.88,4.781h229.185l1.195-1.396v-21.314v-56.974v-6.378h9.562h2.85
		h49.295H406.846z M143.438,47.812h133.875v9.562H143.438V47.812z M143.438,76.5h133.875v9.562H143.438V76.5z M143.438,105.188
		h133.875v9.562H143.438V105.188z M143.438,133.875h133.875v9.562H143.438V133.875z M143.438,162.562h133.875v9.562H143.438V162.562
		z M277.312,286.875H143.438v-9.562h133.875V286.875z M382.5,258.188H143.438v-9.562H382.5V258.188z M382.5,229.5H143.438v-9.562
		H382.5V229.5z M382.5,200.812H143.438v-9.562H382.5V200.812z M382.5,153h-86.062V47.812H382.5V153z"/>
	<polygon points="344.25,426.727 396.385,372.938 392.062,372.938 344.25,372.938 	"/>
	<path d="M43.031,9.562h23.906H76.5h14.344c1.874,0,3.452-1.109,4.236-2.678c0.325-0.641,0.545-1.338,0.545-2.104
		C95.625,2.142,93.483,0,90.844,0h-4.781H76.5h-9.562H43.031c-2.639,0-4.781,2.142-4.781,4.781S40.392,9.562,43.031,9.562z"/>
	<path d="M43.031,28.688h23.906H76.5h14.344c1.874,0,3.452-1.109,4.236-2.678c0.325-0.641,0.545-1.338,0.545-2.104
		c0-2.639-2.142-4.781-4.781-4.781h-4.781H76.5h-9.562H43.031c-2.639,0-4.781,2.142-4.781,4.781S40.392,28.688,43.031,28.688z"/>
	<path d="M43.031,47.812h23.906H76.5h14.344c1.874,0,3.452-1.109,4.236-2.678c0.325-0.641,0.545-1.338,0.545-2.104
		c0-2.639-2.142-4.781-4.781-4.781h-4.781H76.5h-9.562H43.031c-2.639,0-4.781,2.142-4.781,4.781S40.392,47.812,43.031,47.812z"/>
	<path d="M43.031,66.938h23.906H76.5h14.344c1.874,0,3.452-1.109,4.236-2.678c0.325-0.641,0.545-1.338,0.545-2.104
		c0-2.639-2.142-4.781-4.781-4.781h-4.781H76.5h-9.562H43.031c-2.639,0-4.781,2.142-4.781,4.781S40.392,66.938,43.031,66.938z"/>
	<path d="M43.031,86.062h23.906H76.5h14.344c1.874,0,3.452-1.109,4.236-2.678c0.325-0.641,0.545-1.338,0.545-2.104
		c0-2.639-2.142-4.781-4.781-4.781h-4.781H76.5h-9.562H43.031c-2.639,0-4.781,2.142-4.781,4.781S40.392,86.062,43.031,86.062z"/>
	<path d="M43.031,105.188h23.906H76.5h14.344c1.874,0,3.452-1.109,4.236-2.678c0.325-0.641,0.545-1.338,0.545-2.104
		c0-2.639-2.142-4.781-4.781-4.781h-4.781H76.5h-9.562H43.031c-2.639,0-4.781,2.142-4.781,4.781S40.392,105.188,43.031,105.188z"/>
	<path d="M43.031,124.312h23.906H76.5h14.344c1.874,0,3.452-1.109,4.236-2.678c0.325-0.641,0.545-1.338,0.545-2.104
		c0-2.639-2.142-4.781-4.781-4.781h-4.781H76.5h-9.562H43.031c-2.639,0-4.781,2.142-4.781,4.781S40.392,124.312,43.031,124.312z"/>
	<path d="M43.031,143.438h23.906H76.5h14.344c1.874,0,3.452-1.109,4.236-2.678c0.325-0.641,0.545-1.338,0.545-2.104
		c0-2.639-2.142-4.781-4.781-4.781h-4.781H76.5h-9.562H43.031c-2.639,0-4.781,2.142-4.781,4.781S40.392,143.438,43.031,143.438z"/>
	<path d="M43.031,162.562h23.906H76.5h14.344c1.874,0,3.452-1.109,4.236-2.678c0.325-0.641,0.545-1.338,0.545-2.104
		c0-2.639-2.142-4.781-4.781-4.781h-4.781H76.5h-9.562H43.031c-2.639,0-4.781,2.142-4.781,4.781S40.392,162.562,43.031,162.562z"/>
	<path d="M43.031,181.688h23.906H76.5h14.344c1.874,0,3.452-1.109,4.236-2.678c0.325-0.641,0.545-1.338,0.545-2.104
		c0-2.639-2.142-4.781-4.781-4.781h-4.781H76.5h-9.562H43.031c-2.639,0-4.781,2.142-4.781,4.781S40.392,181.688,43.031,181.688z"/>
	<path d="M43.031,200.812h23.906H76.5h14.344c1.874,0,3.452-1.109,4.236-2.678c0.325-0.641,0.545-1.338,0.545-2.104
		c0-2.639-2.142-4.781-4.781-4.781h-4.781H76.5h-9.562H43.031c-2.639,0-4.781,2.142-4.781,4.781S40.392,200.812,43.031,200.812z"/>
	<path d="M43.031,219.938h23.906H76.5h14.344c1.874,0,3.452-1.109,4.236-2.678c0.325-0.641,0.545-1.338,0.545-2.104
		c0-2.639-2.142-4.781-4.781-4.781h-4.781H76.5h-9.562H43.031c-2.639,0-4.781,2.142-4.781,4.781S40.392,219.938,43.031,219.938z"/>
	<path d="M43.031,239.062h23.906H76.5h14.344c1.874,0,3.452-1.109,4.236-2.678c0.325-0.641,0.545-1.339,0.545-2.104
		c0-2.64-2.142-4.781-4.781-4.781h-4.781H76.5h-9.562H43.031c-2.639,0-4.781,2.142-4.781,4.781S40.392,239.062,43.031,239.062z"/>
	<path d="M43.031,258.188h23.906H76.5h14.344c1.874,0,3.452-1.109,4.236-2.678c0.325-0.641,0.545-1.339,0.545-2.104
		c0-2.64-2.142-4.781-4.781-4.781h-4.781H76.5h-9.562H43.031c-2.639,0-4.781,2.142-4.781,4.781S40.392,258.188,43.031,258.188z"/>
	<path d="M43.031,277.312h23.906H76.5h14.344c1.874,0,3.452-1.109,4.236-2.678c0.325-0.641,0.545-1.339,0.545-2.104
		c0-2.64-2.142-4.781-4.781-4.781h-4.781H76.5h-9.562H43.031c-2.639,0-4.781,2.142-4.781,4.781S40.392,277.312,43.031,277.312z"/>
	<path d="M43.031,296.438h23.906H76.5h14.344c1.874,0,3.452-1.109,4.236-2.678c0.325-0.641,0.545-1.339,0.545-2.104
		c0-2.64-2.142-4.781-4.781-4.781h-4.781H76.5h-9.562H43.031c-2.639,0-4.781,2.142-4.781,4.781S40.392,296.438,43.031,296.438z"/>
	<path d="M43.031,315.562h23.906H76.5h14.344c1.874,0,3.452-1.109,4.236-2.678c0.325-0.641,0.545-1.339,0.545-2.104
		c0-2.64-2.142-4.781-4.781-4.781h-4.781H76.5h-9.562H43.031c-2.639,0-4.781,2.142-4.781,4.781S40.392,315.562,43.031,315.562z"/>
	<path d="M43.031,334.688h23.906H76.5h14.344c1.874,0,3.452-1.109,4.236-2.678c0.325-0.641,0.545-1.339,0.545-2.104
		c0-2.64-2.142-4.781-4.781-4.781h-4.781H76.5h-9.562H43.031c-2.639,0-4.781,2.142-4.781,4.781S40.392,334.688,43.031,334.688z"/>
	<path d="M43.031,353.812h23.906H76.5h14.344c1.874,0,3.452-1.109,4.236-2.678c0.325-0.641,0.545-1.339,0.545-2.104
		c0-2.64-2.142-4.781-4.781-4.781h-4.781H76.5h-9.562H43.031c-2.639,0-4.781,2.142-4.781,4.781S40.392,353.812,43.031,353.812z"/>
	<path d="M43.031,372.938h23.906H76.5h14.344c1.874,0,3.452-1.109,4.236-2.678c0.325-0.641,0.545-1.339,0.545-2.104
		c0-2.64-2.142-4.781-4.781-4.781h-4.781H76.5h-9.562H43.031c-2.639,0-4.781,2.142-4.781,4.781S40.392,372.938,43.031,372.938z"/>
	<path d="M43.031,392.062h23.906H76.5h14.344c1.874,0,3.452-1.109,4.236-2.678c0.325-0.641,0.545-1.339,0.545-2.104
		c0-2.64-2.142-4.781-4.781-4.781h-4.781H76.5h-9.562H43.031c-2.639,0-4.781,2.142-4.781,4.781S40.392,392.062,43.031,392.062z"/>
	<path d="M43.031,411.188h23.906H76.5h14.344c1.874,0,3.452-1.109,4.236-2.678c0.325-0.641,0.545-1.339,0.545-2.104
		c0-2.64-2.142-4.781-4.781-4.781h-4.781H76.5h-9.562H43.031c-2.639,0-4.781,2.142-4.781,4.781S40.392,411.188,43.031,411.188z"/>
	<path d="M43.031,430.312h23.906H76.5h14.344c1.874,0,3.452-1.109,4.236-2.678c0.325-0.641,0.545-1.339,0.545-2.104
		c0-2.64-2.142-4.781-4.781-4.781h-4.781H76.5h-9.562H43.031c-2.639,0-4.781,2.142-4.781,4.781S40.392,430.312,43.031,430.312z"/>
	<path d="M43.031,449.438h23.906H76.5h14.344c1.874,0,3.452-1.109,4.236-2.678c0.325-0.641,0.545-1.339,0.545-2.104
		c0-2.64-2.142-4.781-4.781-4.781h-4.781H76.5h-9.562H43.031c-2.639,0-4.781,2.142-4.781,4.781S40.392,449.438,43.031,449.438z"/>
</g>
<g>
</g>
<g>
</g>
<g>
</g>
<g>
</g>
<g>
</g>
<g>
</g>
<g>
</g>
<g>
</g>
<g>
</g>
<g>
</g>
<g>
</g>
<g>
</g>
<g>
</g>
<g>
</g>
<g>
</g>
</svg>
