<svg xmlns="http://www.w3.org/2000/svg" width="535.5" height="535.5" style="enable-background:new 0 0 535.5 535.5" xml:space="preserve"><path d="m174.038 311.976-1.435-6.215-9.084 77.934 10.041.957 7.171-64.069h-4.303zM352.856 320.583h-4.303l7.172 64.069 10.041-.957-9.084-77.934-1.913 6.215zM98.972 102.08 0 122.161v19.603h186.947l2.868-19.603h157.304l2.868 19.603H535.5v-19.603l-79.369-20.081zM203.203 280.898h-28.687l.478 1.913 7.172 23.428 1.434 4.303h16.256zM233.325 280.898l-3.347 29.644h73.153l-2.391-29.644zM353.334 292.374l3.825-11.476h-26.297l2.391 29.644h14.344z"/><path d="M213.244 182.882c.957-7.649 7.65-11.475 14.822-11.475h79.369c8.128 0 14.344 5.26 15.3 12.432l3.347 37.293h25.341l-10.997-79.368-1.435-10.041H198.422l-1.435 10.041-12.431 79.368h24.863l3.825-38.25z"/><path d="m241.453 201.53-1.912 19.602h55.94l-1.913-19.602z"/><path d="m323.213 310.542-2.391-29.645-.957-10.04-3.347-39.685-.956-10.041-3.347-36.815c0-2.391-2.869-2.868-5.26-2.868h-78.891c-2.391 0-4.781.478-5.259 2.868l-3.825 36.815-.957 10.041-4.303 39.685-.956 10.04-2.869 29.645-.957 10.04-11.475 110.925 10.041.479 11.475-111.403.956-10.04 3.347-29.645.957-10.04 4.303-39.685.956-10.041 3.347-29.644h69.807l2.391 29.644.957 10.041 3.347 39.685.956 10.04 2.391 29.645.957 10.04 10.04 112.838 10.041-.479-9.562-112.359-.957-10.041zM0 151.805h19.603v228.066H0zM515.896 151.805H535.5v228.066h-19.604zM436.528 151.805h19.603v168.778h-19.603zM89.409 151.805h19.604v168.778H89.409z"/></svg>