<svg xmlns="http://www.w3.org/2000/svg" width="441.166" height="441.166" style="enable-background:new 0 0 441.166 441.166" xml:space="preserve"><path d="M0 408.673h19.125v-19.125h9.562v19.125h9.562v-9.562h9.562v9.562h9.562v-19.125h9.562v19.125H76.5v-9.562h9.562v9.562h9.562v-19.125h9.562v19.125h9.562v-9.562h9.562v9.562h9.562v-19.125h9.562v19.125H153v-9.562h9.562v9.562h9.562v-19.125h9.562v19.125h9.562v-9.562h9.562v9.562h9.562v-19.125h9.562v19.125h9.562v-9.562h9.562v9.562h9.562v-19.125h9.562v19.125h9.562v-9.562h9.562v9.562h9.562v-19.125h9.562v19.125H306v-9.562h9.562v9.562h9.562v-19.125h9.562v19.125h9.562v-9.562h9.562v9.562h9.562v-19.125h9.562v19.125h9.562v-9.562h9.562v9.562h49.104L0 32.493v376.18zm86.062-215.205 184.365 148.267H86.062V193.468z"/></svg>