<svg xmlns="http://www.w3.org/2000/svg" width="545.062" height="545.062" style="enable-background:new 0 0 545.062 545.062" xml:space="preserve"><path d="M86.062 545.062H267.75V0H86.062v545.062zm90.844-88.453c-20.464 0-37.055-16.591-37.055-37.055s16.591-37.055 37.055-37.055 37.055 16.591 37.055 37.055-16.591 37.055-37.055 37.055zm81.282 78.891H229.5v-9.562h19.125V497.25h9.562v38.25zM219.938 9.562h38.25v38.25h-9.562V19.125h-28.688V9.562zM153 57.375h57.375c10.566 0 19.125 8.559 19.125 19.125v219.938c0 10.566-8.559 19.125-19.125 19.125H153c-10.566 0-19.125-8.559-19.125-19.125V76.5c0-10.566 8.559-19.125 19.125-19.125zM95.625 9.562h38.25v9.562h-28.688v28.688h-9.562V9.562zm0 487.688h9.562v28.688h28.688v9.562h-38.25v-38.25z"/><path d="M153 86.062h57.375v9.562H153zM153 114.75h57.375v9.562H153zM153 143.438h57.375V153H153zM153 172.125h57.375v9.562H153zM153 200.812h57.375v9.562H153zM153 229.5h57.375v9.562H153zM153 258.188h57.375v9.562H153zM153 286.875h57.375v9.562H153zM277.312 545.062H459V0H277.312v545.062zm90.844-88.453c-20.464 0-37.055-16.591-37.055-37.055s16.591-37.055 37.055-37.055 37.055 16.591 37.055 37.055-16.591 37.055-37.055 37.055zm81.282 78.891H420.75v-9.562h19.125V497.25h9.562v38.25zM411.188 9.562h38.25v38.25h-9.562V19.125h-28.688V9.562zM344.25 57.375h57.375c10.566 0 19.125 8.559 19.125 19.125v219.938c0 10.566-8.559 19.125-19.125 19.125H344.25c-10.566 0-19.125-8.559-19.125-19.125V76.5c0-10.566 8.559-19.125 19.125-19.125zM286.875 9.562h38.25v9.562h-28.688v28.688h-9.562V9.562zm0 487.688h9.562v28.688h28.688v9.562h-38.25v-38.25z"/><path d="M344.25 86.062h57.375v9.562H344.25zM344.25 114.75h57.375v9.562H344.25zM344.25 143.438h57.375V153H344.25zM344.25 172.125h57.375v9.562H344.25zM344.25 200.812h57.375v9.562H344.25zM344.25 229.5h57.375v9.562H344.25zM344.25 258.188h57.375v9.562H344.25zM344.25 286.875h57.375v9.562H344.25z"/></svg>