<?xml version="1.0" encoding="iso-8859-1"?>
<!-- Generator: Adobe Illustrator 16.0.0, SVG Export Plug-In . SVG Version: 6.00 Build 0)  -->
<!DOCTYPE svg PUBLIC "-//W3C//DTD SVG 1.1//EN" "http://www.w3.org/Graphics/SVG/1.1/DTD/svg11.dtd">
<svg version="1.1" id="Capa_1" xmlns="http://www.w3.org/2000/svg" xmlns:xlink="http://www.w3.org/1999/xlink" x="0px" y="0px"
	 width="516.375px" height="516.375px" viewBox="0 0 516.375 516.375" style="enable-background:new 0 0 516.375 516.375;"
	 xml:space="preserve">
<g>
	<polygon points="402.218,9.562 123.72,9.562 107.148,133.875 418.79,133.875 	"/>
	<path d="M497.25,143.438h-67.53h-5.46h-4.188H105.866h-4.188h-5.46H14.344C6.436,143.438,0,149.873,0,157.781v229.5
		c0,7.908,6.436,14.344,14.344,14.344h115.075l-5.106,9.562l-50.997,95.625h7.965h363.375h7.966l-50.997-95.625l-5.097-9.562
		h105.503c7.908,0,14.344-6.436,14.344-14.344V162.562C516.375,151.996,507.816,143.438,497.25,143.438z M133.875,310.781
		c0-8.176,6.588-14.344,15.329-14.344l0,0l0,0h230.045l0,0l0,0c11.886,0,12.813,10.978,12.813,14.344v57.375
		c0,2.62-0.641,9.812-6.521,12.881l-14.516-27.225H154.913l-14.105,26.45c-4.227-2.496-6.933-6.886-6.933-12.106V310.781z
		 M436.69,497.25H89.247l45.9-86.062l5.097-9.562l5.288-9.906l0.077-0.144l4.838-9.075l10.203-19.125h204.637L375.49,382.5
		l5.002,9.371l0.038,0.076l5.164,9.678l5.097,9.562L436.69,497.25z M458.206,219.938c-9.687,0-17.527-7.851-17.527-17.528
		c0-9.687,7.851-17.528,17.527-17.528c9.678,0,17.528,7.851,17.528,17.528C475.734,212.087,467.884,219.938,458.206,219.938z"/>
	<rect x="133.875" y="468.562" width="143.438" height="9.562"/>
	<rect x="143.438" y="449.438" width="239.062" height="9.562"/>
	<rect x="153" y="430.312" width="219.938" height="9.562"/>
	<polygon points="357.494,411.188 353.611,401.625 349.729,392.062 345.847,382.5 296.438,382.5 295.94,392.062 295.443,401.625 
		294.945,411.188 294.448,420.75 361.386,420.75 	"/>
</g>
<g>
</g>
<g>
</g>
<g>
</g>
<g>
</g>
<g>
</g>
<g>
</g>
<g>
</g>
<g>
</g>
<g>
</g>
<g>
</g>
<g>
</g>
<g>
</g>
<g>
</g>
<g>
</g>
<g>
</g>
</svg>
