<svg xmlns="http://www.w3.org/2000/svg" width="612" height="612" style="enable-background:new 0 0 612 612" xml:space="preserve"><path d="M76.5 406.406H148.218c6.225 0 11.484-4.007 13.464-9.562h-3.901c-13.177 0-23.906-10.729-23.906-23.906v-23.906h-76.5v23.906c0 13.177-10.729 23.906-23.906 23.906h-3.901c1.979 5.556 7.239 9.562 13.464 9.562H76.5zM337.078 463.781h-47.812c-6.598 0-11.953-7.086-11.953-14.344 0-1.635.306-3.242.803-4.781h-39.053v57.375H382.5v-57.375h-34.272c.498 1.539.804 3.146.804 4.781-.001 7.258-5.356 14.344-11.954 14.344zM337.078 358.594h-47.812c-6.598 0-11.953-7.086-11.953-14.344 0-1.635.306-3.242.803-4.781h-39.053v57.375H382.5v-57.375h-34.272c.498 1.539.804 3.146.804 4.781-.001 7.258-5.356 14.344-11.954 14.344z"/><path d="M411.188 310.781H210.375v248.625H229.5v-28.688h162.562v28.688h19.125V387.281h181.688v172.125H612V310.78H411.188zm-19.126 200.813H229.5v-76.5h162.562v76.5zm0-172.125v66.938H229.5v-76.5h162.562v9.562zm200.813 28.687H411.188v-28.688h181.688v28.688zM439.875 253.406v19.125H420.75v19.125h143.438v-19.125h-19.126v-19.125zM372.938 243.844H612V52.594H372.938v191.25zM497.25 229.5c-6.598 0-11.953-5.355-11.953-11.953s5.355-11.953 11.953-11.953 11.953 5.355 11.953 11.953-5.355 11.953-11.953 11.953zM392.062 71.719h200.812v124.312H392.062V71.719zM219.938 301.219h133.875v-229.5H219.938v229.5zm105.187-28.688c-7.258 0-13.148-5.891-13.148-13.148s5.891-13.148 13.148-13.148 13.148 5.891 13.148 13.148-5.89 13.148-13.148 13.148zm-66.937-114.75v-9.562h57.375v9.562h-57.375zm-19.126-57.375h95.625v19.125h-95.625v-19.125zM133.875 339.469v-14.343c0-13.177 10.729-23.906 23.906-23.906h4.781V133.875c0-7.908-7.047-14.344-15.711-14.344H44.399c-8.664 0-15.711 6.436-15.711 14.344v167.344h4.781c13.177 0 23.906 10.729 23.906 23.906v14.344h76.5z"/><path d="M28.688 387.281h4.781c7.908 0 14.344-6.436 14.344-14.344V325.126c0-7.908-6.436-14.344-14.344-14.344H14.345C6.436 310.781 0 317.217 0 325.125v47.812c0 7.908 6.436 14.344 14.344 14.344H28.688zM172.125 387.281h4.781c7.908 0 14.344-6.436 14.344-14.344v-43.031c0-10.566-8.559-19.125-19.125-19.125h-14.343c-7.908 0-14.344 6.436-14.344 14.344v47.812c0 7.908 6.436 14.344 14.344 14.344h14.343zM164.953 516.375c8.578 0 15.539-6.962 15.539-15.539s-6.961-15.539-15.539-15.539c-4.858 0-9.142 2.275-11.991 5.767l-38.212-7.966-9.562-1.989v-65.14H86.062v63.982l-9.562 2.611-45.192 12.325c-.077 0-.153-.019-.229-.019-2.917 0-5.613.851-7.946 2.257l-1.741.478.172.612c-3.634 2.84-6.015 7.22-6.015 12.202 0 8.577 6.961 15.539 15.539 15.539 8.539 0 15.453-6.886 15.529-15.405l29.883-8.167 5.011-1.367-5.011 4.724-19.096 18.045c-7.449 1.147-13.177 7.525-13.177 15.3 0 8.577 6.961 15.539 15.539 15.539s15.539-6.962 15.539-15.539c0-1.778-.363-3.452-.908-5.049l23.715-22.396 22.883 24.796c-.153.86-.268 1.74-.268 2.648 0 8.577 6.961 15.539 15.539 15.539s15.539-6.962 15.539-15.539-6.961-15.539-15.539-15.539c-.363 0-.698.086-1.052.105L116.07 502.91l36.882 7.679c2.85 3.501 7.134 5.786 12.001 5.786z"/></svg>