<svg xmlns="http://www.w3.org/2000/svg" width="103.906" height="103.905" style="enable-background:new 0 0 103.906 103.905" xml:space="preserve"><path d="m77.765 37.405-7.35 66.324v.176H33.49l-7.35-66.412h7.611l-2.799-21.438 7.35-.964 2.887 22.4h4.812l-1.137-14.35 7.35-.613 1.225 14.963h5.688l.178-25.812h7.438s1.926.175 3.853 1.574c1.662 1.226 2.625 3.15 2.8 5.601.264 4.462.176 10.062.176 10.325a1.952 1.952 0 0 1-1.574 1.75h-.352c-1.05-.089-1.838-.875-1.838-1.926 0-.087.176-5.774-.175-9.975-.089-1.312-.524-2.275-1.312-2.887-.522-.438-1.226-.613-1.838-.7l-.093 21.964h11.375zM30.672 14.067l7.288-.952-.238-1.822-7.288.952.238 1.822zm-.516-3.633 7.287-.952-.239-1.822-7.287.952.239 1.822zM29.64 6.78l7.35-.962-.263-1.837s-.351-4.462-4.2-3.938c-3.85.525-3.062 4.9-3.062 4.9l.175 1.837zm15.023 14.362 7.326-.588-.146-1.832-7.327.588.147 1.832zm-.328-3.669 7.328-.589-.146-1.831-7.326.588.144 1.832zm-.345-3.693 7.351-.612-.175-1.837s-.176-4.462-4.025-4.2c-4.025.351-3.325 4.726-3.325 4.726l.174 1.923zm22.488-5.862h-1.663v-5.6H61.14v5.6h-2.014v1.837h7.352V7.918z"/></svg>