<svg xmlns="http://www.w3.org/2000/svg" width="394.453" height="394.453" style="enable-background:new 0 0 394.453 394.453" xml:space="preserve"><path d="M108.324 362.18c0 13.177-4.332 24.595-11.102 32.206 11.446-.344 20.665-14.602 20.665-32.206s-9.218-31.872-20.665-32.206c6.77 7.611 11.102 19.029 11.102 32.206zM337.824 362.18c0-17.614-9.219-31.872-20.665-32.206 6.761 7.611 11.103 19.038 11.103 32.206 0 13.177-4.332 24.595-11.103 32.206 11.446-.334 20.665-14.592 20.665-32.206zM56.629 315.562h277.312V0H56.629v315.562zM75.754 28.688h239.063v114.75H75.754V28.688zm0 133.874h239.063v114.75H75.754v-114.75z"/><path d="M247.286 181.688c0 9.983-7.363 19.125-16.438 19.125h-65.742c-9.075 0-16.438-9.142-16.438-19.125 0-3.404.908-6.685 2.4-9.562H85.316v95.625h219.938v-95.625h-60.368c1.492 2.877 2.4 6.157 2.4 9.562zM247.286 47.812c0 9.983-7.363 19.125-16.438 19.125h-65.742c-9.075 0-16.438-9.142-16.438-19.125 0-3.404.908-6.684 2.4-9.562H85.316v95.625h219.938V38.25h-60.368c1.492 2.878 2.4 6.158 2.4 9.562zM77.293 394.386c.144 0 .268.067.411.067 1.769 0 3.461-.431 5.097-1.062 1.568-.603 3.051-1.501 4.466-2.61 6.799-5.355 11.504-16.084 11.504-28.602s-4.705-23.256-11.504-28.602c-1.406-1.109-2.888-2.008-4.466-2.61-1.645-.631-3.328-1.062-5.097-1.062-.144 0-.268.058-.411.067-11.446.334-20.665 14.592-20.665 32.206s9.219 31.874 20.665 32.208zM302.739 330.968c-1.646-.631-3.328-1.062-5.097-1.062-.144 0-.269.058-.412.067-11.445.334-20.664 14.592-20.664 32.206s9.219 31.872 20.664 32.206c.144 0 .269.067.412.067 1.769 0 3.461-.431 5.097-1.062 1.568-.603 3.05-1.501 4.466-2.61 6.799-5.355 11.503-16.084 11.503-28.602s-4.704-23.256-11.503-28.602c-1.416-1.107-2.897-2.006-4.466-2.608z"/></svg>