<svg xmlns="http://www.w3.org/2000/svg" width="554.625" height="554.625" style="enable-background:new 0 0 554.625 554.625" xml:space="preserve"><path d="M181.688 420.75H38.25v57.375h143.438V420.75zm-68.133 38.843c-6.598 0-11.953-5.354-11.953-11.953 0-6.598 5.355-11.953 11.953-11.953s11.953 5.355 11.953 11.953c0 6.598-5.355 11.953-11.953 11.953zM181.688 315.562H38.25v57.375h143.438v-57.375zm-68.133 38.843c-6.598 0-11.953-5.354-11.953-11.953 0-6.598 5.355-11.953 11.953-11.953s11.953 5.355 11.953 11.953c0 6.599-5.355 11.953-11.953 11.953z"/><path d="M219.938 277.312H0v267.751h28.688v-28.688H191.25v28.688h28.688V353.812h306v191.25h28.688v-267.75H219.938zM191.25 487.688H28.688v-76.5H191.25v76.5zm0-105.188H28.688V306H191.25v76.5zm334.688-47.812h-306V306h306v28.688zM306 219.938v28.687h-19.125v19.125h143.437v-19.125h-19.124v-28.687zM516.375 9.562h-306v200.812h306V9.562zm-153 186.469c-6.598 0-11.953-5.355-11.953-11.953s5.355-11.953 11.953-11.953 11.953 5.355 11.953 11.953-5.355 11.953-11.953 11.953zM497.25 153H229.5V28.688h267.75V153z"/></svg>