<?xml version="1.0" encoding="iso-8859-1"?>
<!-- Generator: Adobe Illustrator 16.0.0, SVG Export Plug-In . SVG Version: 6.00 Build 0)  -->
<!DOCTYPE svg PUBLIC "-//W3C//DTD SVG 1.1//EN" "http://www.w3.org/Graphics/SVG/1.1/DTD/svg11.dtd">
<svg version="1.1" id="Capa_1" xmlns="http://www.w3.org/2000/svg" xmlns:xlink="http://www.w3.org/1999/xlink" x="0px" y="0px"
	 width="394.453px" height="394.453px" viewBox="0 0 394.453 394.453" style="enable-background:new 0 0 394.453 394.453;"
	 xml:space="preserve">
<g>
	<path d="M108.324,362.18c0,13.177-4.332,24.595-11.102,32.206c11.446-0.344,20.665-14.602,20.665-32.206
		s-9.218-31.872-20.665-32.206C103.992,337.585,108.324,349.003,108.324,362.18z"/>
	<path d="M337.824,362.18c0-17.614-9.219-31.872-20.665-32.206c6.761,7.611,11.103,19.038,11.103,32.206
		c0,13.177-4.332,24.595-11.103,32.206C328.605,394.052,337.824,379.794,337.824,362.18z"/>
	<path d="M56.629,315.562h277.312V0H56.629V315.562z M75.754,28.688h89.352h65.742h83.969v114.75H75.754V28.688z M75.754,162.562
		h89.352h65.742h83.969v114.75H75.754V162.562z"/>
	<path d="M247.286,181.688c0,9.983-7.363,19.125-16.438,19.125h-65.742c-9.075,0-16.438-9.142-16.438-19.125
		c0-3.404,0.908-6.685,2.4-9.562H85.316v95.625h219.938v-95.625h-60.368C246.378,175.003,247.286,178.283,247.286,181.688z"/>
	<path d="M247.286,47.812c0,9.983-7.363,19.125-16.438,19.125h-65.742c-9.075,0-16.438-9.142-16.438-19.125
		c0-3.404,0.908-6.684,2.4-9.562H85.316v95.625h219.938V38.25h-60.368C246.378,41.128,247.286,44.408,247.286,47.812z"/>
	<path d="M77.293,394.386c0.144,0,0.268,0.067,0.411,0.067c1.769,0,3.461-0.431,5.097-1.062c1.568-0.603,3.051-1.501,4.466-2.61
		c6.799-5.355,11.504-16.084,11.504-28.602s-4.705-23.256-11.504-28.602c-1.406-1.109-2.888-2.008-4.466-2.61
		c-1.645-0.631-3.328-1.062-5.097-1.062c-0.144,0-0.268,0.058-0.411,0.067c-11.446,0.334-20.665,14.592-20.665,32.206
		S65.847,394.052,77.293,394.386z"/>
	<path d="M302.739,330.968c-1.646-0.631-3.328-1.062-5.097-1.062c-0.144,0-0.269,0.058-0.412,0.067
		c-11.445,0.334-20.664,14.592-20.664,32.206s9.219,31.872,20.664,32.206c0.144,0,0.269,0.067,0.412,0.067
		c1.769,0,3.461-0.431,5.097-1.062c1.568-0.603,3.05-1.501,4.466-2.61c6.799-5.355,11.503-16.084,11.503-28.602
		s-4.704-23.256-11.503-28.602C305.789,332.469,304.308,331.57,302.739,330.968z"/>
</g>
<g>
</g>
<g>
</g>
<g>
</g>
<g>
</g>
<g>
</g>
<g>
</g>
<g>
</g>
<g>
</g>
<g>
</g>
<g>
</g>
<g>
</g>
<g>
</g>
<g>
</g>
<g>
</g>
<g>
</g>
</svg>
