<svg xmlns="http://www.w3.org/2000/svg" width="401.625" height="401.625" style="enable-background:new 0 0 401.625 401.625" xml:space="preserve"><path d="M387.281 40.641c-7.918 0-14.344 6.417-14.344 14.344v114.75H28.688V54.984c0-7.927-6.426-14.344-14.344-14.344S0 47.057 0 54.984v143.437h401.625V54.984c0-7.927-6.426-14.343-14.344-14.343zM387.281 203.203c-7.918 0-14.344 6.416-14.344 14.344v114.75H28.688v-114.75c0-7.928-6.426-14.344-14.344-14.344S0 209.619 0 217.547v143.437h401.625V217.547c0-7.928-6.426-14.344-14.344-14.344z"/><path d="M363.375 322.734V236.672H38.25V322.732h325.125zm-9.563-28.687h-38.336c6.637-5.078 14.095-9.562 19.211-9.562h19.125v9.562zm-306-47.813h306v9.562h-306v-9.562zm0 19.125h306v9.562h-306v-9.562zm266.431 18.609c-.259.173-.497.345-.756.517-4.887 3.232-9.457 6.703-12.756 9.562-1.406 1.215-2.63 2.343-3.481 3.251a435.159 435.159 0 0 0-8.186-3.251c-9.323-3.605-18.599-6.837-26.928-9.562-1.243-.401-2.438-.794-3.634-1.176l55.741.659zm-266.431.516h181.085c2.802.727 15.912 4.217 32.341 9.562H47.812v-9.562zm0 28.688v-9.562h240.334a368.798 368.798 0 0 1 9.41 3.806l3.241 1.368 1.387-2.678a51.276 51.276 0 0 1 2.314-2.496h49.313v9.562H47.812zM363.375 150.609V64.547H38.25V150.609h325.125zm-315.563-38.25h19.125c5.116 0 12.575 4.484 19.211 9.562H47.812v-9.562zm306 28.688h-306v-9.562h49.314c.918.928 1.721 1.788 2.314 2.496l1.387 2.677 3.242-1.367a373.955 373.955 0 0 1 9.409-3.806h240.334v9.562zm-266.43-29.204 55.74-.659c-1.195.382-2.391.765-3.634 1.176-8.329 2.726-17.604 5.957-26.928 9.562a378.343 378.343 0 0 0-8.186 3.251c-.851-.908-2.075-2.036-3.48-3.251-3.299-2.859-7.879-6.33-12.756-9.562-.249-.172-.498-.344-.756-.517zm266.43 10.079H140.387c16.428-5.346 29.539-8.836 32.34-9.562h181.085v9.562zm0-19.125h-306v-9.562h306v9.562zm0-19.125h-306V74.11h306v9.562z"/></svg>