<?xml version="1.0" encoding="iso-8859-1"?>
<!-- Generator: Adobe Illustrator 16.0.0, SVG Export Plug-In . SVG Version: 6.00 Build 0)  -->
<!DOCTYPE svg PUBLIC "-//W3C//DTD SVG 1.1//EN" "http://www.w3.org/Graphics/SVG/1.1/DTD/svg11.dtd">
<svg version="1.1" id="Capa_1" xmlns="http://www.w3.org/2000/svg" xmlns:xlink="http://www.w3.org/1999/xlink" x="0px" y="0px"
	 width="535.5px" height="535.5px" viewBox="0 0 535.5 535.5" style="enable-background:new 0 0 535.5 535.5;" xml:space="preserve"
	>
<g>
	<path d="M315.562,296.438c0,13.388-10.519,23.906-23.906,23.906h-4.781h-43.031c-13.388,0-23.906-10.519-23.906-23.906v-14.344H0
		v153c0,10.519,8.606,19.125,19.125,19.125h497.25c10.519,0,19.125-8.606,19.125-19.125v-153H315.562V296.438z"/>
	<path d="M291.656,262.969h-4.781h-43.031c-6.216,0-11.475,3.825-13.388,9.562c-0.478,1.435-0.956,2.869-0.956,4.781v4.781v14.344
		c0,8.128,6.216,14.344,14.344,14.344h47.812c8.128,0,14.344-6.216,14.344-14.344v-14.344c0-3.347-0.956-9.562-0.956-9.562
		C303.131,266.794,297.872,262.969,291.656,262.969z"/>
	<path d="M516.375,148.219H372.938v-38.25c0-15.778-12.909-28.688-28.688-28.688H181.688C165.909,81.281,153,94.19,153,109.969
		v38.25H19.125C8.606,148.219,0,156.825,0,167.344v105.188h220.416c2.391-10.997,11.953-19.125,23.428-19.125h47.812
		c11.475,0,21.037,8.128,23.428,19.125H535.5V167.344C535.5,156.825,526.894,148.219,516.375,148.219z M353.812,148.219H172.125
		v-38.25c0-5.259,4.303-9.562,9.562-9.562H344.25c5.26,0,9.562,4.303,9.562,9.562V148.219z"/>
</g>
<g>
</g>
<g>
</g>
<g>
</g>
<g>
</g>
<g>
</g>
<g>
</g>
<g>
</g>
<g>
</g>
<g>
</g>
<g>
</g>
<g>
</g>
<g>
</g>
<g>
</g>
<g>
</g>
<g>
</g>
</svg>
