<?xml version="1.0" encoding="iso-8859-1"?>
<!-- Generator: Adobe Illustrator 16.0.0, SVG Export Plug-In . SVG Version: 6.00 Build 0)  -->
<!DOCTYPE svg PUBLIC "-//W3C//DTD SVG 1.1//EN" "http://www.w3.org/Graphics/SVG/1.1/DTD/svg11.dtd">
<svg version="1.1" id="Capa_1" xmlns="http://www.w3.org/2000/svg" xmlns:xlink="http://www.w3.org/1999/xlink" x="0px" y="0px"
	 width="401.625px" height="401.625px" viewBox="0 0 401.625 401.625" style="enable-background:new 0 0 401.625 401.625;"
	 xml:space="preserve">
<g>
	<path d="M387.281,40.641c-7.918,0-14.344,6.417-14.344,14.344v114.75H28.688V54.984c0-7.927-6.426-14.344-14.344-14.344
		S0,47.057,0,54.984v114.75v9.562v19.125h401.625v-19.125v-9.562V54.984C401.625,47.057,395.199,40.641,387.281,40.641z"/>
	<path d="M387.281,203.203c-7.918,0-14.344,6.416-14.344,14.344v114.75H28.688v-114.75c0-7.928-6.426-14.344-14.344-14.344
		S0,209.619,0,217.547v114.75v9.562v19.125h401.625v-19.125v-9.562v-114.75C401.625,209.619,395.199,203.203,387.281,203.203z"/>
	<path d="M363.375,322.734v-8.367v-69.328v-8.367h-10.461H52.594H38.25v8.367v10.758v9.562v9.562v9.562v9.562v9.562v10.758v8.367
		h14.344h300.32H363.375z M353.812,294.047h-38.336c6.637-5.078,14.095-9.562,19.211-9.562h19.125V294.047z M47.812,246.234h306
		v9.562h-306V246.234z M47.812,265.359h306v9.562h-19.125H47.812V265.359z M314.243,283.968c-0.259,0.173-0.497,0.345-0.756,0.517
		c-4.887,3.232-9.457,6.703-12.756,9.562c-1.406,1.215-2.63,2.343-3.481,3.251c-2.716-1.118-5.45-2.189-8.186-3.251
		c-9.323-3.605-18.599-6.837-26.928-9.562c-1.243-0.401-2.438-0.794-3.634-1.176L314.243,283.968z M47.812,284.484h181.085
		c2.802,0.727,15.912,4.217,32.341,9.562H47.812V284.484z M47.812,313.172v-9.562h240.334c3.156,1.233,6.312,2.496,9.41,3.806
		l3.241,1.368l1.387-2.678c0.603-0.708,1.405-1.568,2.314-2.496h49.313v9.562H47.812z"/>
	<path d="M363.375,150.609v-8.367v-10.758v-9.562v-9.562v-9.562v-9.562v-9.562V72.914v-8.367H357.8H48.711H38.25v8.367v69.328v8.367
		h10.461H357.8H363.375z M47.812,112.359h19.125c5.116,0,12.575,4.484,19.211,9.562H47.812V112.359z M353.812,141.047h-306v-9.562
		h49.314c0.918,0.928,1.721,1.788,2.314,2.496l1.387,2.677l3.242-1.367c3.098-1.31,6.254-2.572,9.409-3.806h240.334V141.047z
		 M87.382,111.843l55.74-0.659c-1.195,0.382-2.391,0.765-3.634,1.176c-8.329,2.726-17.604,5.957-26.928,9.562
		c-2.735,1.052-5.47,2.133-8.186,3.251c-0.851-0.908-2.075-2.036-3.48-3.251c-3.299-2.859-7.879-6.33-12.756-9.562
		C87.889,112.188,87.64,112.016,87.382,111.843z M353.812,121.922H140.387c16.428-5.346,29.539-8.836,32.34-9.562h181.085V121.922z
		 M353.812,102.797H66.938H47.812v-9.562h306V102.797z M353.812,83.672h-306v-9.562h306V83.672z"/>
</g>
<g>
</g>
<g>
</g>
<g>
</g>
<g>
</g>
<g>
</g>
<g>
</g>
<g>
</g>
<g>
</g>
<g>
</g>
<g>
</g>
<g>
</g>
<g>
</g>
<g>
</g>
<g>
</g>
<g>
</g>
</svg>
