<?xml version="1.0" encoding="iso-8859-1"?>
<!-- Generator: Adobe Illustrator 16.0.0, SVG Export Plug-In . SVG Version: 6.00 Build 0)  -->
<!DOCTYPE svg PUBLIC "-//W3C//DTD SVG 1.1//EN" "http://www.w3.org/Graphics/SVG/1.1/DTD/svg11.dtd">
<svg version="1.1" id="Capa_1" xmlns="http://www.w3.org/2000/svg" xmlns:xlink="http://www.w3.org/1999/xlink" x="0px" y="0px"
	 width="535.5px" height="535.5px" viewBox="0 0 535.5 535.5" style="enable-background:new 0 0 535.5 535.5;" xml:space="preserve"
	>
<g>
	<path d="M435.094,0H100.406C89.84,0,81.281,8.559,81.281,19.125v162.562h372.938V19.125C454.219,8.559,445.66,0,435.094,0z
		 M415.969,133.875H119.531V38.25h296.438V133.875z"/>
	<path d="M81.281,516.375c0,10.566,8.559,19.125,19.125,19.125h334.688c10.566,0,19.125-8.559,19.125-19.125V191.25H81.281V516.375z
		 M368.156,239.062c0-10.566,8.559-19.125,19.125-19.125h28.688c10.566,0,19.125,8.559,19.125,19.125v9.562
		c0,10.566-8.559,19.125-19.125,19.125h-28.688c-10.566,0-19.125-8.559-19.125-19.125V239.062z M368.156,315.562
		c0-10.566,8.559-19.125,19.125-19.125h28.688c10.566,0,19.125,8.559,19.125,19.125v9.562c0,10.566-8.559,19.125-19.125,19.125
		h-28.688c-10.566,0-19.125-8.559-19.125-19.125V315.562z M368.156,392.062c0-10.566,8.559-19.125,19.125-19.125h28.688
		c10.566,0,19.125,8.559,19.125,19.125v86.062c0,10.566-8.559,19.125-19.125,19.125h-28.688c-10.566,0-19.125-8.559-19.125-19.125
		V392.062z M282.094,239.062c0-10.566,8.559-19.125,19.125-19.125h28.688c10.566,0,19.125,8.559,19.125,19.125v9.562
		c0,10.566-8.559,19.125-19.125,19.125h-28.688c-10.566,0-19.125-8.559-19.125-19.125V239.062z M282.094,315.562
		c0-10.566,8.559-19.125,19.125-19.125h28.688c10.566,0,19.125,8.559,19.125,19.125v9.562c0,10.566-8.559,19.125-19.125,19.125
		h-28.688c-10.566,0-19.125-8.559-19.125-19.125V315.562z M282.094,392.062c0-10.566,8.559-19.125,19.125-19.125h28.688
		c10.566,0,19.125,8.559,19.125,19.125v9.562c0,10.566-8.559,19.125-19.125,19.125h-28.688c-10.566,0-19.125-8.559-19.125-19.125
		V392.062z M282.094,468.562c0-10.566,8.559-19.125,19.125-19.125h28.688c10.566,0,19.125,8.559,19.125,19.125v9.562
		c0,10.566-8.559,19.125-19.125,19.125h-28.688c-10.566,0-19.125-8.559-19.125-19.125V468.562z M196.031,239.062
		c0-10.566,8.559-19.125,19.125-19.125h28.688c10.566,0,19.125,8.559,19.125,19.125v9.562c0,10.566-8.559,19.125-19.125,19.125
		h-28.688c-10.566,0-19.125-8.559-19.125-19.125V239.062z M196.031,315.562c0-10.566,8.559-19.125,19.125-19.125h28.688
		c10.566,0,19.125,8.559,19.125,19.125v9.562c0,10.566-8.559,19.125-19.125,19.125h-28.688c-10.566,0-19.125-8.559-19.125-19.125
		V315.562z M196.031,392.062c0-10.566,8.559-19.125,19.125-19.125h28.688c10.566,0,19.125,8.559,19.125,19.125v9.562
		c0,10.566-8.559,19.125-19.125,19.125h-28.688c-10.566,0-19.125-8.559-19.125-19.125V392.062z M196.031,468.562
		c0-10.566,8.559-19.125,19.125-19.125h28.688c10.566,0,19.125,8.559,19.125,19.125v9.562c0,10.566-8.559,19.125-19.125,19.125
		h-28.688c-10.566,0-19.125-8.559-19.125-19.125V468.562z M109.969,239.062c0-10.566,8.559-19.125,19.125-19.125h28.688
		c10.566,0,19.125,8.559,19.125,19.125v9.562c0,10.566-8.559,19.125-19.125,19.125h-28.688c-10.566,0-19.125-8.559-19.125-19.125
		V239.062z M109.969,315.562c0-10.566,8.559-19.125,19.125-19.125h28.688c10.566,0,19.125,8.559,19.125,19.125v9.562
		c0,10.566-8.559,19.125-19.125,19.125h-28.688c-10.566,0-19.125-8.559-19.125-19.125V315.562z M109.969,392.062
		c0-10.566,8.559-19.125,19.125-19.125h28.688c10.566,0,19.125,8.559,19.125,19.125v9.562c0,10.566-8.559,19.125-19.125,19.125
		h-28.688c-10.566,0-19.125-8.559-19.125-19.125V392.062z M109.969,468.562c0-10.566,8.559-19.125,19.125-19.125h28.688
		c10.566,0,19.125,8.559,19.125,19.125v9.562c0,10.566-8.559,19.125-19.125,19.125h-28.688c-10.566,0-19.125-8.559-19.125-19.125
		V468.562z"/>
	<polygon points="396.844,258.188 406.406,258.188 406.406,248.625 415.969,248.625 415.969,239.062 406.406,239.062 406.406,229.5 
		396.844,229.5 396.844,239.062 387.281,239.062 387.281,248.625 396.844,248.625 	"/>
	<rect x="387.281" y="420.75" width="28.688" height="9.562"/>
	<rect x="387.281" y="315.562" width="28.688" height="9.562"/>
	<rect x="387.281" y="439.875" width="28.688" height="9.562"/>
</g>
<g>
</g>
<g>
</g>
<g>
</g>
<g>
</g>
<g>
</g>
<g>
</g>
<g>
</g>
<g>
</g>
<g>
</g>
<g>
</g>
<g>
</g>
<g>
</g>
<g>
</g>
<g>
</g>
<g>
</g>
</svg>
