<?xml version="1.0" encoding="iso-8859-1"?>
<!-- Generator: Adobe Illustrator 16.0.0, SVG Export Plug-In . SVG Version: 6.00 Build 0)  -->
<!DOCTYPE svg PUBLIC "-//W3C//DTD SVG 1.1//EN" "http://www.w3.org/Graphics/SVG/1.1/DTD/svg11.dtd">
<svg version="1.1" id="Capa_1" xmlns="http://www.w3.org/2000/svg" xmlns:xlink="http://www.w3.org/1999/xlink" x="0px" y="0px"
	 width="522.562px" height="522.562px" viewBox="0 0 522.562 522.562" style="enable-background:new 0 0 522.562 522.562;"
	 xml:space="preserve">
<g>
	<path d="M381.213,219.938h-10.355c-4.523,0-8.109,4.179-8.855,9.562h-37.045l-15.769-65.427
		c9.754-11.063,15.348-25.302,15.348-40.593c0-29.615-21.009-54.411-48.893-60.301V0h-28.688v64.002
		c-26.278,7.047-45.708,31.011-45.708,59.479c0,16.266,6.33,31.25,17.107,42.496L203.017,229.5h-42.448
		c-0.746-5.384-4.332-9.562-8.855-9.562h-10.356c-5.068,0-9.17,5.125-9.17,11.456v0.994c0,6.331,4.103,16.237,9.161,16.237h10.356
		c3.452,0,6.426-4.619,7.985-9.562h41.013L138.91,495.376l9.17,2.696l-5.394,18.341c-0.746,2.544,0.698,5.192,3.232,5.938
		c0.449,0.134,0.908,0.201,1.348,0.201c2.065,0,3.978-1.349,4.581-3.424l5.403-18.351l4.59,1.349l24.222-31.499l54.525-231.565
		H256.5v19.125c0,5.278,4.284,9.562,9.562,9.562s9.562-4.284,9.562-9.562v-19.125h11.743l54.516,231.575l24.222,31.499l4.59-1.349
		l5.403,18.351c0.611,2.084,2.515,3.423,4.58,3.423c0.439,0,0.898-0.066,1.349-0.2c2.533-0.746,3.987-3.395,3.231-5.938
		l-5.402-18.341l9.17-2.696l-61.773-256.323h35.61c1.559,4.944,4.533,9.562,7.985,9.562h10.355c5.068,0,9.171-9.907,9.171-16.237
		v-0.994C390.375,225.063,386.272,219.938,381.213,219.938z M275.625,229.5v-19.125c0-5.278-4.284-9.562-9.562-9.562
		s-9.562,4.284-9.562,9.562V229.5h-13.655l21.143-89.801L285.12,229.5H275.625z M299.922,125.718l-35.944,10.585l-35.946-10.585
		l-6.933,28.773c-6.531-8.788-10.309-19.517-10.309-31.011c0-28.716,23.361-52.087,52.087-52.087s52.087,23.361,52.087,52.087
		c0,10.461-3.137,20.311-8.663,28.668L299.922,125.718z"/>
</g>
<g>
</g>
<g>
</g>
<g>
</g>
<g>
</g>
<g>
</g>
<g>
</g>
<g>
</g>
<g>
</g>
<g>
</g>
<g>
</g>
<g>
</g>
<g>
</g>
<g>
</g>
<g>
</g>
<g>
</g>
</svg>
