<svg xmlns="http://www.w3.org/2000/svg" width="573.75" height="573.75" style="enable-background:new 0 0 573.75 573.75" xml:space="preserve"><path d="M486.406 129.094H111.441L0 444.656h573.75l-87.344-315.562zm-342.988 28.687h315.534l55.453 239.062H63.82l79.598-239.062z"/><path d="M457.872 364.59c-5.719 4.36-11.131 8.118-21.487 8.118-10.337 0-15.521-3.758-21.238-8.109-6.13-4.666-13.206-9.964-26.604-9.964-13.387 0-20.387 5.298-26.517 9.964-5.718 4.352-10.681 8.109-21.019 8.109-10.327 0-15.271-3.758-20.979-8.109-6.12-4.666-13.062-9.964-26.44-9.964-13.388 0-20.33 5.298-26.459 9.964-5.718 4.352-10.643 8.109-20.98 8.109s-15.262-3.758-20.971-8.109c-6.12-4.666-13.072-9.964-26.44-9.964-13.378 0-20.32 5.298-26.44 9.964-5.708 4.352-10.643 8.109-20.97 8.109-10.328 0-15.816-3.758-21.525-8.109-6.129-4.666-7.879-9.954-27.004-9.954v9.036c9.562 0 15.816 3.759 21.525 8.109 6.12 4.666 13.349 9.964 26.717 9.964 13.369 0 20.464-5.298 26.584-9.964 5.708-4.351 10.71-8.109 21.047-8.109s15.3 3.759 21.009 8.109c6.12 4.666 13.082 9.964 26.459 9.964s20.33-5.298 26.45-9.964c5.718-4.351 10.652-8.109 20.989-8.109 10.328 0 15.262 3.759 20.971 8.109 6.12 4.666 13.062 9.964 26.44 9.964 13.388 0 20.34-5.298 26.459-9.964 5.719-4.351 10.653-8.109 20.98-8.109 10.347 0 15.29 3.759 21.009 8.119 6.13 4.656 13.082 9.954 26.469 9.954 13.388 0 21.296-5.298 27.436-9.964 5.718-4.351 12.393-8.118 21.955-8.118v-9.037c-19.126.01-21.287 5.298-27.426 9.955zM165.871 327.535c12.47 0 18.896-5.355 24.557-10.089 5.135-4.284 9.572-7.984 18.771-7.984s13.636 3.7 18.771 7.984c5.661 4.733 12.087 10.089 24.556 10.089 12.47 0 18.896-5.355 24.557-10.089 5.135-4.284 9.572-7.984 18.762-7.984s13.636 3.71 18.771 7.984c5.661 4.733 12.087 10.089 24.547 10.089 12.479 0 18.905-5.355 24.575-10.089 5.145-4.284 9.582-7.984 18.79-7.984 9.209 0 13.646 3.7 18.791 7.984 5.67 4.733 12.105 10.089 24.595 10.089 12.479 0 17.355-5.355 23.026-10.079 5.125-4.284 7.669-7.994 17.231-7.994v-9.037c-9.562 0-17.365 5.355-23.036 10.089-5.145 4.284-7.822 7.984-17.03 7.984-9.209 0-13.761-3.71-18.905-7.994-5.671-4.724-12.164-10.079-24.633-10.079-12.479 0-18.925 5.355-24.604 10.089-5.145 4.284-9.601 7.984-18.8 7.984-9.189 0-13.627-3.7-18.762-7.984-5.661-4.733-12.097-10.089-24.557-10.089s-18.886 5.355-24.547 10.089c-5.135 4.284-9.582 7.984-18.771 7.984s-13.646-3.7-18.781-7.984c-5.661-4.733-12.106-10.089-24.576-10.089-12.469 0-18.924 5.355-24.595 10.089-5.135 4.284-9.648 7.984-18.838 7.984s-13.799-3.7-18.934-7.984c-5.661-4.733-15.3-10.089-24.863-10.089v9.037c9.562 0 13.942 3.7 19.077 7.984 5.653 4.734 12.386 10.089 24.855 10.089zM176.954 273.325c11.561 0 17.442-5.432 22.644-10.232 4.743-4.38 8.501-7.832 16.514-7.832 8.033 0 11.781 3.462 16.524 7.841 5.192 4.8 11.083 10.232 22.644 10.232 11.552 0 17.433-5.432 22.635-10.232 4.743-4.379 8.501-7.841 16.515-7.841 8.022 0 11.771 3.462 16.514 7.841 5.193 4.8 11.083 10.232 22.635 10.232 11.57 0 17.461-5.432 22.663-10.232 4.743-4.379 8.511-7.841 16.534-7.841 8.042 0 11.79 3.462 16.543 7.841 5.202 4.8 11.102 10.232 22.673 10.232 11.58 0 15.386-5.432 20.597-10.232 4.753-4.379 14.469-7.841 14.469-7.841v-9.037c-9.562 0-15.387 5.432-20.588 10.232-4.753 4.38-6.475 7.841-14.525 7.841-8.043 0-11.763-3.461-16.515-7.841-5.202-4.8-11.083-10.232-22.653-10.232-11.571 0-17.452 5.432-22.654 10.232-4.743 4.38-8.501 7.841-16.533 7.841-8.023 0-11.762-3.461-16.505-7.832-5.192-4.8-11.073-10.232-22.635-10.232-11.561 0-17.432 5.441-22.634 10.232-4.743 4.379-8.472 7.832-16.495 7.832s-11.733-3.461-16.486-7.832c-5.192-4.8-11.016-10.232-22.577-10.232s-17.298 5.432-22.5 10.232c-4.743 4.379-8.214 7.832-16.237 7.832s-10.71-3.461-15.453-7.832c-5.202-4.819-11.456-10.251-21.019-10.251v9.037c9.562 0 10.146 3.461 14.889 7.832 5.2 4.801 9.455 10.242 21.016 10.242zM165.613 199.694c4.562 4.628 10.997 10.375 21.812 10.375 10.815 0 16.314-5.756 20.885-10.385 4.246-4.293 7.506-7.688 14.544-7.688s10.347 3.395 14.592 7.698c4.562 4.628 10.232 10.375 21.038 10.375 10.815 0 16.486-5.756 21.047-10.385 4.246-4.293 7.593-7.688 14.621-7.688 7.038 0 10.395 3.395 14.64 7.698 4.562 4.628 10.251 10.375 21.057 10.375 10.815 0 16.495-5.756 21.066-10.385 4.246-4.293 7.603-7.688 14.641-7.688 7.057 0 10.423 3.395 14.668 7.698 4.581 4.628 10.271 10.375 21.096 10.375 10.824 0 16.715-5.756 21.286-10.375 4.265-4.293 5.316-7.688 14.879-7.688v-9.037c-9.562 0-16.725 5.757-21.296 10.375-4.255 4.293-7.994 7.698-15.042 7.698-7.057 0-10.327-3.395-14.582-7.698-4.581-4.628-10.223-10.375-21.057-10.375-10.806 0-16.467 5.757-21.038 10.375-4.255 4.293-7.593 7.698-14.64 7.698-7.048 0-10.395-3.395-14.631-7.698-4.562-4.628-10.251-10.375-21.066-10.375-10.806 0-16.495 5.757-21.057 10.375-4.246 4.293-7.612 7.698-14.659 7.698s-10.433-3.395-14.669-7.698c-4.561-4.628-10.328-10.375-21.133-10.375-10.806 0-16.629 5.757-21.2 10.375-4.255 4.293-7.889 7.698-14.927 7.698s-10.193-3.395-14.439-7.698c-4.571-4.628-11.876-10.375-21.439-10.375v9.037c9.562-.001 10.757 3.394 15.003 7.688z"/></svg>