<svg xmlns="http://www.w3.org/2000/svg" width="561.318" height="561.318" style="enable-background:new 0 0 561.318 561.318" xml:space="preserve"><path d="M337.078 381.783c.479 7.172 6.215 13.387 13.865 13.387s13.865-6.215 13.865-13.865-6.215-13.865-13.865-13.865c-3.824 0-7.65 1.434-10.041 4.303-23.428-25.818-34.902-51.16-34.424-75.543 0-5.26.955-10.52 2.391-14.822h3.824c2.869 0 4.781-1.913 4.781-4.782s-1.912-4.781-4.781-4.781h-.955c3.824-9.084 8.605-15.778 11.475-19.125H311.26c-3.348 4.781-7.172 10.997-10.041 19.125h-40.641c-2.869-8.128-6.694-14.344-10.041-19.125h-11.953c2.869 3.347 7.65 10.041 11.475 19.125h-4.781c-2.869 0-4.781 1.912-4.781 4.781s1.913 4.782 4.781 4.782h8.128c.957 4.781 1.913 9.562 2.391 14.822.478 24.861-11.953 51.158-36.815 77.934-1.913-3.824-6.694-6.693-11.475-6.693-7.65 0-13.866 6.215-13.866 13.865s6.216 13.865 13.866 13.865c5.259 0 10.041-3.346 12.431-7.65 0 0 .478 0 .478-.477 30.6-30.602 45.9-61.68 45.422-90.844 0-5.26-.956-10.041-1.912-14.344h35.381c-.957 4.303-1.912 9.084-1.912 14.344-1.436 27.73 12.429 56.417 39.683 85.583zM51.638 338.752h41.119v-.479c2.869 12.91 9.562 29.166 24.384 43.988.478 7.172 6.216 12.908 13.866 12.908s13.866-6.215 13.866-13.865-6.216-13.865-13.866-13.865c-3.825 0-7.65 1.912-10.041 4.781-17.691-20.082-20.56-41.119-20.56-52.594h-9.562c0 2.869 0 6.215.478 9.562H53.55c.478-3.348.478-6.693.478-9.562h-9.562c0 11.475-2.869 32.033-20.56 52.594-2.391-2.869-6.215-4.781-10.041-4.781C6.216 367.439 0 373.654 0 381.305s6.216 13.865 13.866 13.865c7.172 0 12.909-5.736 13.866-12.908 14.343-14.823 21.037-30.602 23.906-43.51zM136.266 292.373v-1.434l1.435-8.607c5.259-37.293 1.913-56.896-10.997-59.765-2.391-.478-4.303-.478-6.694 0 .479-2.868.957-6.216.957-9.084 0-26.297-21.038-47.334-47.334-47.334s-47.334 21.038-47.334 47.334c0 3.347.478 6.216.957 9.084-1.913-.478-4.303-.478-6.694 0-12.91 2.869-16.256 22.472-10.997 59.765L11 290.939v1.434c-2.869 1.436-4.781 4.781-4.781 8.129 0 5.26 4.303 9.562 9.562 9.562h115.228c5.259 0 9.562-4.303 9.562-9.562.476-3.348-1.437-6.217-4.305-8.129zm-93.235-1.434H21.038c-.478-3.348-.956-6.693-1.435-9.562-6.215-44.944 2.391-48.769 3.347-49.248 3.825-.956 10.041 4.781 10.519 6.694.957.956 1.435 2.391 2.391 3.347 4.781 14.821 6.694 28.688 7.172 39.207l-.001 9.562zm85.107-9.562c-.478 2.869-.957 6.215-1.435 9.562h-22.472v-9.562c.478-10.519 1.913-24.385 7.172-39.207.956-.956 1.434-2.391 2.391-3.347.956-1.913 6.694-7.65 10.519-6.694 1.434.479 10.519 4.304 3.825 49.248zM468.084 338.752h41.119v-.479c2.869 12.91 9.562 29.166 24.385 43.988.479 7.172 6.215 12.908 13.865 12.908s13.865-6.215 13.865-13.865-6.215-13.865-13.865-13.865c-3.824 0-7.65 1.912-10.041 4.781-17.689-20.082-20.559-41.119-20.559-52.594h-9.562c0 2.869 0 6.215.479 9.562h-37.773c.479-3.348.479-6.693.479-9.562h-9.562c0 11.475-2.869 32.033-20.559 52.594-2.391-2.869-6.217-4.781-10.041-4.781-7.65 0-13.865 6.215-13.865 13.865s6.215 13.865 13.865 13.865c7.172 0 12.91-5.736 13.865-12.908 14.342-14.822 21.036-30.601 23.905-43.509zM552.713 292.373v-1.434l1.434-8.607c5.26-37.293 1.912-56.896-10.996-59.765-2.391-.478-4.303-.478-6.693 0 .477-2.868.955-6.216.955-9.084 0-26.297-21.037-47.334-47.334-47.334s-47.334 21.038-47.334 47.334c0 3.347.479 6.216.955 9.084-1.912-.478-4.303-.478-6.693 0-12.908 2.869-16.256 22.472-10.996 59.765l1.434 8.607v1.434c-2.869 1.436-4.781 4.781-4.781 8.129 0 5.26 4.303 9.562 9.562 9.562h114.749c5.26 0 9.562-4.303 9.562-9.562.957-3.348-.955-6.217-3.824-8.129zm-93.234-1.434h-22.473c-.479-3.348-.955-6.693-1.434-9.562-6.217-44.944 2.391-48.769 3.346-49.248 3.826-.956 10.041 4.781 10.52 6.694.957.956 1.434 2.391 2.391 3.347 4.781 14.821 6.693 28.688 7.172 39.207.478 3.824.478 6.693.478 9.562zm85.105-9.562c-.479 2.869-.955 6.215-1.434 9.562h-22.473v-9.562c.479-10.519 1.912-24.385 7.172-39.207.957-.956 1.436-2.391 2.391-3.347.957-1.913 6.693-7.65 10.52-6.694 1.433.479 10.517 4.304 3.824 49.248zM378.676 224.001H178.819c-5.259 0-9.562 4.303-9.562 9.562s4.303 9.562 9.562 9.562h199.857c5.258 0 9.562-4.303 9.562-9.562s-4.304-9.562-9.562-9.562z"/></svg>