<?xml version="1.0" encoding="iso-8859-1"?>
<!-- Generator: Adobe Illustrator 16.0.0, SVG Export Plug-In . SVG Version: 6.00 Build 0)  -->
<!DOCTYPE svg PUBLIC "-//W3C//DTD SVG 1.1//EN" "http://www.w3.org/Graphics/SVG/1.1/DTD/svg11.dtd">
<svg version="1.1" id="Capa_1" xmlns="http://www.w3.org/2000/svg" xmlns:xlink="http://www.w3.org/1999/xlink" x="0px" y="0px"
	 width="561.318px" height="561.318px" viewBox="0 0 561.318 561.318" style="enable-background:new 0 0 561.318 561.318;"
	 xml:space="preserve">
<g>
	<path d="M337.078,381.783c0.479,7.172,6.215,13.387,13.865,13.387s13.865-6.215,13.865-13.865s-6.215-13.865-13.865-13.865
		c-3.824,0-7.65,1.434-10.041,4.303c-23.428-25.818-34.902-51.16-34.424-75.543c0-5.26,0.955-10.52,2.391-14.822h3.824
		c2.869,0,4.781-1.913,4.781-4.782s-1.912-4.781-4.781-4.781h-0.955c3.824-9.084,8.605-15.778,11.475-19.125H311.26
		c-3.348,4.781-7.172,10.997-10.041,19.125h-40.641c-2.869-8.128-6.694-14.344-10.041-19.125h-11.953
		c2.869,3.347,7.65,10.041,11.475,19.125h-4.781c-2.869,0-4.781,1.912-4.781,4.781s1.913,4.782,4.781,4.782h8.128
		c0.957,4.781,1.913,9.562,2.391,14.822c0.478,24.861-11.953,51.158-36.815,77.934c-1.913-3.824-6.694-6.693-11.475-6.693
		c-7.65,0-13.866,6.215-13.866,13.865s6.216,13.865,13.866,13.865c5.259,0,10.041-3.346,12.431-7.65c0,0,0.478,0,0.478-0.477
		c30.6-30.602,45.9-61.68,45.422-90.844c0-5.26-0.956-10.041-1.912-14.344h35.381c-0.957,4.303-1.912,9.084-1.912,14.344
		C295.959,323.93,309.824,352.617,337.078,381.783z"/>
	<path d="M51.638,338.752h41.119v-0.479c2.869,12.91,9.562,29.166,24.384,43.988c0.478,7.172,6.216,12.908,13.866,12.908
		s13.866-6.215,13.866-13.865s-6.216-13.865-13.866-13.865c-3.825,0-7.65,1.912-10.041,4.781
		c-17.691-20.082-20.56-41.119-20.56-52.594h-9.562c0,2.869,0,6.215,0.478,9.562H53.55c0.478-3.348,0.478-6.693,0.478-9.562h-9.562
		c0,11.475-2.869,32.033-20.56,52.594c-2.391-2.869-6.215-4.781-10.041-4.781C6.216,367.439,0,373.654,0,381.305
		s6.216,13.865,13.866,13.865c7.172,0,12.909-5.736,13.866-12.908C42.075,367.439,48.769,351.66,51.638,338.752z"/>
	<path d="M136.266,292.373c0-0.479,0-0.955,0-1.434c0.478-2.869,0.957-5.738,1.435-8.607c5.259-37.293,1.913-56.896-10.997-59.765
		c-2.391-0.478-4.303-0.478-6.694,0c0.479-2.868,0.957-6.216,0.957-9.084c0-26.297-21.038-47.334-47.334-47.334
		s-47.334,21.038-47.334,47.334c0,3.347,0.478,6.216,0.957,9.084c-1.913-0.478-4.303-0.478-6.694,0
		c-12.91,2.869-16.256,22.472-10.997,59.765c0.478,2.869,0.957,5.738,1.435,8.607c0,0.479,0,0.955,0,1.434
		c-2.869,1.436-4.781,4.781-4.781,8.129c0,5.26,4.303,9.562,9.562,9.562h27.253h9.562h21.038h20.56h9.562h27.253
		c5.259,0,9.562-4.303,9.562-9.562C141.047,297.154,139.134,294.285,136.266,292.373z M43.031,290.939H21.038
		c-0.478-3.348-0.956-6.693-1.435-9.562c-6.215-44.944,2.391-48.769,3.347-49.248c3.825-0.956,10.041,4.781,10.519,6.694l0,0
		c0.957,0.956,1.435,2.391,2.391,3.347c4.781,14.821,6.694,28.688,7.172,39.207C43.031,285.201,43.031,288.07,43.031,290.939z
		 M128.138,281.377c-0.478,2.869-0.957,6.215-1.435,9.562h-22.472c0-2.869,0-5.738,0-9.562c0.478-10.519,1.913-24.385,7.172-39.207
		c0.956-0.956,1.434-2.391,2.391-3.347l0,0c0.956-1.913,6.694-7.65,10.519-6.694C125.747,232.608,134.832,236.433,128.138,281.377z"
		/>
	<path d="M468.084,338.752h41.119v-0.479c2.869,12.91,9.562,29.166,24.385,43.988c0.479,7.172,6.215,12.908,13.865,12.908
		s13.865-6.215,13.865-13.865s-6.215-13.865-13.865-13.865c-3.824,0-7.65,1.912-10.041,4.781
		c-17.689-20.082-20.559-41.119-20.559-52.594h-9.562c0,2.869,0,6.215,0.479,9.562h-37.773c0.479-3.348,0.479-6.693,0.479-9.562
		h-9.562c0,11.475-2.869,32.033-20.559,52.594c-2.391-2.869-6.217-4.781-10.041-4.781c-7.65,0-13.865,6.215-13.865,13.865
		s6.215,13.865,13.865,13.865c7.172,0,12.91-5.736,13.865-12.908C458.521,367.439,465.215,351.66,468.084,338.752z"/>
	<path d="M552.713,292.373c0-0.479,0-0.955,0-1.434c0.479-2.869,0.955-5.738,1.434-8.607c5.26-37.293,1.912-56.896-10.996-59.765
		c-2.391-0.478-4.303-0.478-6.693,0c0.477-2.868,0.955-6.216,0.955-9.084c0-26.297-21.037-47.334-47.334-47.334
		s-47.334,21.038-47.334,47.334c0,3.347,0.479,6.216,0.955,9.084c-1.912-0.478-4.303-0.478-6.693,0
		c-12.908,2.869-16.256,22.472-10.996,59.765c0.479,2.869,0.955,5.738,1.434,8.607c0,0.479,0,0.955,0,1.434
		c-2.869,1.436-4.781,4.781-4.781,8.129c0,5.26,4.303,9.562,9.562,9.562h27.254h9.562H489.6h20.561h9.562h27.252
		c5.26,0,9.562-4.303,9.562-9.562C557.494,297.154,555.582,294.285,552.713,292.373z M459.479,290.939h-22.473
		c-0.479-3.348-0.955-6.693-1.434-9.562c-6.217-44.944,2.391-48.769,3.346-49.248c3.826-0.956,10.041,4.781,10.52,6.694l0,0
		c0.957,0.956,1.434,2.391,2.391,3.347c4.781,14.821,6.693,28.688,7.172,39.207C459.479,285.201,459.479,288.07,459.479,290.939z
		 M544.584,281.377c-0.479,2.869-0.955,6.215-1.434,9.562h-22.473c0-2.869,0-5.738,0-9.562c0.479-10.519,1.912-24.385,7.172-39.207
		c0.957-0.956,1.436-2.391,2.391-3.347l0,0c0.957-1.913,6.693-7.65,10.52-6.694C542.193,232.608,551.277,236.433,544.584,281.377z"
		/>
	<path d="M378.676,224.001h-99.929h-99.928c-5.259,0-9.562,4.303-9.562,9.562s4.303,9.562,9.562,9.562h56.897h7.172h35.859h35.859
		h7.172h56.898c5.258,0,9.562-4.303,9.562-9.562S383.934,224.001,378.676,224.001z"/>
</g>
<g>
</g>
<g>
</g>
<g>
</g>
<g>
</g>
<g>
</g>
<g>
</g>
<g>
</g>
<g>
</g>
<g>
</g>
<g>
</g>
<g>
</g>
<g>
</g>
<g>
</g>
<g>
</g>
<g>
</g>
</svg>
