<?xml version="1.0" encoding="iso-8859-1"?>
<!-- Generator: Adobe Illustrator 16.0.0, SVG Export Plug-In . SVG Version: 6.00 Build 0)  -->
<!DOCTYPE svg PUBLIC "-//W3C//DTD SVG 1.1//EN" "http://www.w3.org/Graphics/SVG/1.1/DTD/svg11.dtd">
<svg version="1.1" id="Capa_1" xmlns="http://www.w3.org/2000/svg" xmlns:xlink="http://www.w3.org/1999/xlink" x="0px" y="0px"
	 width="480.039px" height="480.038px" viewBox="0 0 480.039 480.038" style="enable-background:new 0 0 480.039 480.038;"
	 xml:space="preserve">
<g>
	<g>
		<path d="M370.068,313.65c15.301,0,25.82-14.822,25.82-36.338v-67.416h10.518v-73.153l20.561-20.56h-20.561V43.51h-15.777
			C388.238,10.519,374.849,0.957,372.937,0l-5.736,7.65c0,0,10.996,3.825,12.908,35.859H364.81v10.519v62.156H344.25l20.561,20.56
			v72.675h10.518v67.416c0,8.605-2.869,15.777-5.26,15.777H250.537v-82.715h10.52v-73.153l20.559-20.56h-20.559V43.51H244.8
			C242.41,10.519,229.021,0.957,227.109,0l-5.738,7.65c0,0,10.997,3.825,12.91,35.859h-15.3v10.519v62.156h-20.559l20.559,20.56
			v72.675H229.5v83.193H120.487c-5.737,0-15.778-10.04-15.778-15.777v-66.938h10.519v-73.153l20.559-20.56h-20.559V43.51H99.45
			C97.059,10.519,83.672,0.957,81.759,0l-5.738,7.65c0,0,10.997,3.825,12.91,35.859h-15.3v10.519v62.156H53.072l20.559,20.56v72.675
			H84.15v67.416c0,17.212,19.125,36.337,36.337,36.337H229.5v124.791h-41.597c-5.737,0-10.519,4.781-10.519,10.519
			S182.166,459,187.903,459h-20.559c-5.738,0-10.519,4.781-10.519,10.519c0,5.738,4.781,10.52,10.519,10.52h145.349
			c5.738,0,10.52-4.781,10.52-10.52c0-5.737-4.781-10.519-10.52-10.519h-20.559c5.738,0,10.52-4.781,10.52-10.519
			s-4.781-10.519-10.52-10.519h-41.598V313.65H370.068z M375.328,54.028h5.26h10.52h5.258v62.156h-20.559V54.028H375.328z
			 M84.15,116.185V54.028h5.259h10.519h5.26v62.156H84.15z M229.5,116.185V54.028h5.259h10.519h5.259v62.156H229.5z"/>
	</g>
</g>
<g>
</g>
<g>
</g>
<g>
</g>
<g>
</g>
<g>
</g>
<g>
</g>
<g>
</g>
<g>
</g>
<g>
</g>
<g>
</g>
<g>
</g>
<g>
</g>
<g>
</g>
<g>
</g>
<g>
</g>
</svg>
