<svg xmlns="http://www.w3.org/2000/svg" width="480.039" height="480.038" style="enable-background:new 0 0 480.039 480.038" xml:space="preserve"><path d="M370.068 313.65c15.301 0 25.82-14.822 25.82-36.338v-67.416h10.518v-73.153l20.561-20.56h-20.561V43.51h-15.777C388.238 10.519 374.849.957 372.937 0l-5.736 7.65s10.996 3.825 12.908 35.859H364.81v72.675h-20.56l20.561 20.56v72.675h10.518v67.416c0 8.605-2.869 15.777-5.26 15.777H250.537v-82.715h10.52v-73.153l20.559-20.56h-20.559V43.51H244.8C242.41 10.519 229.021.957 227.109 0l-5.738 7.65s10.997 3.825 12.91 35.859h-15.3v72.675h-20.559l20.559 20.56v72.675H229.5v83.193H120.487c-5.737 0-15.778-10.04-15.778-15.777v-66.938h10.519v-73.153l20.559-20.56h-20.559V43.51H99.45C97.059 10.519 83.672.957 81.759 0l-5.738 7.65s10.997 3.825 12.91 35.859h-15.3v72.675H53.072l20.559 20.56v72.675H84.15v67.416c0 17.212 19.125 36.337 36.337 36.337H229.5v124.791h-41.597c-5.737 0-10.519 4.781-10.519 10.519S182.166 459 187.903 459h-20.559c-5.738 0-10.519 4.781-10.519 10.519s4.781 10.52 10.519 10.52h145.349c5.738 0 10.52-4.781 10.52-10.52 0-5.737-4.781-10.519-10.52-10.519h-20.559c5.738 0 10.52-4.781 10.52-10.519s-4.781-10.519-10.52-10.519h-41.598V313.65h119.532zm5.26-259.622h21.038v62.156h-20.559V54.028h-.479zM84.15 116.185V54.028h21.038v62.156H84.15zm145.35 0V54.028h21.037v62.156H229.5z"/></svg>