<?xml version="1.0" encoding="iso-8859-1"?>
<!-- Generator: Adobe Illustrator 16.0.0, SVG Export Plug-In . SVG Version: 6.00 Build 0)  -->
<!DOCTYPE svg PUBLIC "-//W3C//DTD SVG 1.1//EN" "http://www.w3.org/Graphics/SVG/1.1/DTD/svg11.dtd">
<svg version="1.1" id="Capa_1" xmlns="http://www.w3.org/2000/svg" xmlns:xlink="http://www.w3.org/1999/xlink" x="0px" y="0px"
	 width="575.012px" height="575.012px" viewBox="0 0 575.012 575.012" style="enable-background:new 0 0 575.012 575.012;"
	 xml:space="preserve">
<g>
	<g>
		<polygon points="283.738,16.304 283.738,16.313 283.738,16.313 		"/>
		<path d="M360.238,338.016c-2.668-1.09-5.891-1.703-9.562-1.922V16.313C350.676,7.774,337.001,0,321.988,0
			s-28.688,7.774-28.688,16.313v23.199h28.688v200.812h-9.562h-19.125v96.027c-3.558,0.439-6.78,1.328-9.562,2.629
			c-5.785,2.707-9.562,7.258-9.562,14.057v200.498c0,11.867,11.274,21.477,25.178,21.477h48.453
			c13.904,0,21.994-9.609,21.994-21.477V353.037C369.801,345.379,366.377,340.521,360.238,338.016z M295.672,507.482
			c4.552,5.785,15.052,10.154,26.316,10.154l0,0C310.724,517.637,300.224,513.268,295.672,507.482z"/>
		<polygon points="283.738,230.762 293.301,230.762 312.426,230.762 312.426,49.075 293.301,49.075 283.738,49.075 210.241,49.075 
			225.331,63.418 205.211,82.543 225.331,101.668 205.211,120.793 225.331,139.918 205.211,159.043 225.331,178.168 
			205.211,197.293 225.331,216.418 210.241,230.762 		"/>
	</g>
</g>
<g>
</g>
<g>
</g>
<g>
</g>
<g>
</g>
<g>
</g>
<g>
</g>
<g>
</g>
<g>
</g>
<g>
</g>
<g>
</g>
<g>
</g>
<g>
</g>
<g>
</g>
<g>
</g>
<g>
</g>
</svg>
