<svg xmlns="http://www.w3.org/2000/svg" width="497.25" height="497.25" style="enable-background:new 0 0 497.25 497.25" xml:space="preserve"><path d="M265.359 143.438v124.37c.248 0 .479-.058.736-.058h12.326c2.143 0 4.15.239 6.072.612V19.125C284.494 8.568 275.926 0 265.369 0s-19.125 8.568-19.125 19.125v105.188c-.01 10.557 8.559 19.125 19.115 19.125zM207.984 38.25h28.688c2.639 0 4.781-2.142 4.781-4.781s-2.142-4.781-4.781-4.781h-28.688c-2.639 0-4.781 2.142-4.781 4.781s2.142 4.781 4.781 4.781zM207.984 19.125h28.688c2.639 0 4.781-2.142 4.781-4.781s-2.142-4.781-4.781-4.781h-28.688c-2.639 0-4.781 2.142-4.781 4.781s2.142 4.781 4.781 4.781zM207.984 57.375h28.688c2.639 0 4.781-2.142 4.781-4.781s-2.142-4.781-4.781-4.781h-28.688c-2.639 0-4.781 2.142-4.781 4.781s2.142 4.781 4.781 4.781zM207.984 76.5h28.688c2.639 0 4.781-2.142 4.781-4.781s-2.142-4.781-4.781-4.781h-28.688c-2.639 0-4.781 2.142-4.781 4.781s2.142 4.781 4.781 4.781zM207.984 95.625h28.688c2.639 0 4.781-2.142 4.781-4.781s-2.142-4.781-4.781-4.781h-28.688c-2.639 0-4.781 2.142-4.781 4.781s2.142 4.781 4.781 4.781zM207.984 114.75h28.688c2.639 0 4.781-2.142 4.781-4.781s-2.142-4.781-4.781-4.781h-28.688c-2.639 0-4.781 2.142-4.781 4.781s2.142 4.781 4.781 4.781zM207.984 133.875h28.688c2.639 0 4.781-2.142 4.781-4.781s-2.142-4.781-4.781-4.781h-28.688c-2.639 0-4.781 2.142-4.781 4.781s2.142 4.781 4.781 4.781zM266.096 497.25h12.326c9.782 0 15.625-5.364 15.625-14.344v-191.25c0-6.923-3.5-11.656-9.562-13.483-1.807-.545-3.825-.86-6.072-.86h-12.316c-.248 0-.488.048-.736.058-10.605.286-19.125 6.56-19.125 14.286v191.25c-.002 7.907 8.91 14.343 19.86 14.343z"/></svg>