<?xml version="1.0" encoding="iso-8859-1"?>
<!-- Generator: Adobe Illustrator 16.0.0, SVG Export Plug-In . SVG Version: 6.00 Build 0)  -->
<!DOCTYPE svg PUBLIC "-//W3C//DTD SVG 1.1//EN" "http://www.w3.org/Graphics/SVG/1.1/DTD/svg11.dtd">
<svg version="1.1" id="Capa_1" xmlns="http://www.w3.org/2000/svg" xmlns:xlink="http://www.w3.org/1999/xlink" x="0px" y="0px"
	 width="497.25px" height="497.25px" viewBox="0 0 497.25 497.25" style="enable-background:new 0 0 497.25 497.25;"
	 xml:space="preserve">
<g>
	<g>
		<path d="M265.359,143.438v124.37c0.248,0,0.479-0.058,0.736-0.058h12.326c2.143,0,4.15,0.239,6.072,0.612v-144.05v-76.5V19.125
			C284.494,8.568,275.926,0,265.369,0s-19.125,8.568-19.125,19.125v105.188C246.234,134.87,254.803,143.438,265.359,143.438z"/>
		<path d="M207.984,38.25h28.688c2.639,0,4.781-2.142,4.781-4.781s-2.142-4.781-4.781-4.781h-28.688
			c-2.639,0-4.781,2.142-4.781,4.781S205.345,38.25,207.984,38.25z"/>
		<path d="M207.984,19.125h28.688c2.639,0,4.781-2.142,4.781-4.781s-2.142-4.781-4.781-4.781h-28.688
			c-2.639,0-4.781,2.142-4.781,4.781S205.345,19.125,207.984,19.125z"/>
		<path d="M207.984,57.375h28.688c2.639,0,4.781-2.142,4.781-4.781s-2.142-4.781-4.781-4.781h-28.688
			c-2.639,0-4.781,2.142-4.781,4.781S205.345,57.375,207.984,57.375z"/>
		<path d="M207.984,76.5h28.688c2.639,0,4.781-2.142,4.781-4.781s-2.142-4.781-4.781-4.781h-28.688
			c-2.639,0-4.781,2.142-4.781,4.781S205.345,76.5,207.984,76.5z"/>
		<path d="M207.984,95.625h28.688c2.639,0,4.781-2.142,4.781-4.781s-2.142-4.781-4.781-4.781h-28.688
			c-2.639,0-4.781,2.142-4.781,4.781S205.345,95.625,207.984,95.625z"/>
		<path d="M207.984,114.75h28.688c2.639,0,4.781-2.142,4.781-4.781s-2.142-4.781-4.781-4.781h-28.688
			c-2.639,0-4.781,2.142-4.781,4.781S205.345,114.75,207.984,114.75z"/>
		<path d="M207.984,133.875h28.688c2.639,0,4.781-2.142,4.781-4.781s-2.142-4.781-4.781-4.781h-28.688
			c-2.639,0-4.781,2.142-4.781,4.781S205.345,133.875,207.984,133.875z"/>
		<path d="M266.096,497.25h12.326c9.782,0,15.625-5.364,15.625-14.344v-191.25c0-6.923-3.5-11.656-9.562-13.483
			c-1.807-0.545-3.825-0.86-6.072-0.86l0,0l0,0h-12.316l0,0l0,0c-0.248,0-0.488,0.048-0.736,0.058
			c-10.605,0.286-19.125,6.56-19.125,14.286v191.25C246.234,490.814,255.146,497.25,266.096,497.25z"/>
	</g>
</g>
<g>
</g>
<g>
</g>
<g>
</g>
<g>
</g>
<g>
</g>
<g>
</g>
<g>
</g>
<g>
</g>
<g>
</g>
<g>
</g>
<g>
</g>
<g>
</g>
<g>
</g>
<g>
</g>
<g>
</g>
</svg>
