<svg xmlns="http://www.w3.org/2000/svg" width="575.012" height="575.012" style="enable-background:new 0 0 575.012 575.012" xml:space="preserve"><path d="M283.738 16.304v.009zM360.238 338.016c-2.668-1.09-5.891-1.703-9.562-1.922V16.313C350.676 7.774 337.001 0 321.988 0S293.3 7.774 293.3 16.313v23.199h28.688v200.812H293.301v96.027c-3.558.439-6.78 1.328-9.562 2.629-5.785 2.707-9.562 7.258-9.562 14.057v200.498c0 11.867 11.274 21.477 25.178 21.477h48.453c13.904 0 21.994-9.609 21.994-21.477V353.037c-.001-7.658-3.425-12.516-9.564-15.021zm-64.566 169.466c4.552 5.785 15.052 10.154 26.316 10.154-11.264.001-21.764-4.368-26.316-10.154z"/><path d="M283.738 230.762H312.426V49.075H210.241l15.09 14.343-20.12 19.125 20.12 19.125-20.12 19.125 20.12 19.125-20.12 19.125 20.12 19.125-20.12 19.125 20.12 19.125-15.09 14.344z"/></svg>