<svg xmlns="http://www.w3.org/2000/svg" width="554.625" height="554.625" style="enable-background:new 0 0 554.625 554.625" xml:space="preserve"><path d="M189.644 243.844h-17.519v9.562h-76.5v-9.562H85.192L7.325 310.781h134.764zM114.75 320.344H0v47.812h19.125v-19.125h95.625v19.125h28.688v-47.812h-9.563zM229.5 291.656V320.344h19.125v-9.563H306v9.563h19.125v-38.25H229.5zM86.062 234.281h9.629c.363-14.832 13.713-28.688 27.865-28.688h21.735c15.128 0 26.431 15.013 26.766 28.688h19.192v-47.812H86.062v47.812z"/><path d="M162.562 234.903c0-.01 0-.01 0 0 0-.21-.058-.411-.067-.622-.344-9.744-8.664-19.125-17.193-19.125h-21.745c-8.903 0-17.92 9.553-18.303 19.125-.009.21-.067.411-.067.612v8.951h57.375v-8.941zM153 317.886v40.708l38.25-66.938V255.835l-10.538 17.088zM466.841 243.844H459v9.562h-76.5v-9.562h-20.119l47.554 66.937h134.784zM430.312 320.344h-19.124v47.812h19.124v-19.125H535.5v19.125h19.125v-47.812H535.5zM468.562 234.281v-47.812h-114.75v47.812h28.735c.258-14.21 9.237-28.688 24.193-28.688h21.735c14.611 0 29.997 14.631 30.438 28.688h9.649z"/><path d="M428.486 215.156H406.75c-8.873 0-14.4 9.811-14.63 19.125-.02.201-.058.411-.058.612v8.951h57.375v-8.941c0-.201-.076-.411-.086-.612-.497-8.913-11.484-19.135-20.865-19.135zM353.812 291.656l47.813 66.938v-40.708l-47.813-62.051zM236.271 243.844l-19.021 28.687h119.57l-21.736-28.687z"/></svg>