<svg xmlns="http://www.w3.org/2000/svg" width="612" height="612" style="enable-background:new 0 0 612 612" xml:space="preserve"><path d="M81.033 320.344H57.375v75.658c0 5.738 4.667 10.404 10.414 10.404h75.649V385.33c-31.815-7.028-56.629-32.732-62.405-64.986zM143.438 226.669v-21.076H67.789c-5.747 0-10.414 4.667-10.414 10.404v75.659h23.658c5.776-32.254 30.59-57.958 62.405-64.987zM247.774 205.594h-75.649v19.986c34.817 4.81 62.615 31.7 68.773 66.077h17.289v-75.659c.001-5.738-4.666-10.404-10.413-10.404zM172.125 386.421v19.985h75.649c5.747 0 10.414-4.666 10.414-10.404v-75.658h-17.289c-6.159 34.377-33.957 61.266-68.774 66.077zM439.875 226.669v-21.076h-75.648c-5.748 0-10.414 4.667-10.414 10.404v75.659h23.657c5.776-32.254 30.591-57.958 62.405-64.987zM377.47 320.344h-23.657v75.658c0 5.737 4.666 10.404 10.414 10.404h75.648V385.33c-31.814-7.028-56.629-32.732-62.405-64.986zM544.211 205.594h-75.648v19.986c34.817 4.81 62.615 31.7 68.773 66.077h17.289v-75.659c0-5.738-4.666-10.404-10.414-10.404zM468.562 386.421v19.985h75.648c5.748 0 10.414-4.666 10.414-10.404v-75.658h-17.289c-6.157 34.377-33.955 61.266-68.773 66.077z"/><path d="M592.875 129.094H19.125C8.559 129.094 0 137.652 0 148.219v315.562c0 10.566 8.559 19.125 19.125 19.125h573.75c10.566 0 19.125-8.559 19.125-19.125V148.219c0-10.567-8.559-19.125-19.125-19.125zm-315.563 191.25v75.658c0 16.285-13.253 29.529-29.539 29.529h-75.649c0 7.928-6.426 14.344-14.344 14.344s-14.344-6.416-14.344-14.344H67.789c-16.285 0-29.539-13.244-29.539-29.529v-75.658c-7.918 0-14.344-6.416-14.344-14.344 0-7.927 6.426-14.344 14.344-14.344v-75.659c0-16.285 13.253-29.529 29.539-29.529h75.649c0-7.927 6.426-14.344 14.344-14.344s14.344 6.417 14.344 14.344h75.649c16.285 0 29.539 13.244 29.539 29.529v75.659c7.918 0 14.344 6.417 14.344 14.344-.002 7.928-6.428 14.344-14.346 14.344zm296.438 0v75.658c0 16.285-13.254 29.529-29.539 29.529h-75.648c0 7.928-6.426 14.344-14.344 14.344s-14.344-6.416-14.344-14.344h-75.648c-16.285 0-29.539-13.244-29.539-29.529v-75.658c-7.918 0-14.344-6.416-14.344-14.344 0-7.927 6.426-14.344 14.344-14.344v-75.659c0-16.285 13.254-29.529 29.539-29.529h75.648c0-7.927 6.426-14.344 14.344-14.344s14.344 6.417 14.344 14.344h75.648c16.285 0 29.539 13.244 29.539 29.529v75.659c7.918 0 14.344 6.417 14.344 14.344 0 7.928-6.426 14.344-14.344 14.344z"/><path d="M172.125 367.095c24.26-4.428 43.605-22.94 49.256-46.751h-11.006c-7.918 0-14.344-6.416-14.344-14.344 0-7.927 6.426-14.344 14.344-14.344h11.006c-5.651-23.811-25.006-42.333-49.256-46.751v8.501c0 7.927-6.426 14.344-14.344 14.344s-14.344-6.417-14.344-14.344v-7c-21.238 6.264-37.743 23.572-42.888 45.25h14.2c7.918 0 14.344 6.417 14.344 14.344 0 7.928-6.426 14.344-14.344 14.344h-14.2c5.154 21.688 21.649 38.996 42.888 45.25v-7c0-7.928 6.426-14.344 14.344-14.344s14.344 6.416 14.344 14.344v8.501zM468.562 367.095c24.26-4.428 43.605-22.94 49.257-46.751h-11.007c-7.918 0-14.344-6.416-14.344-14.344 0-7.927 6.426-14.344 14.344-14.344h11.007c-5.651-23.811-25.007-42.333-49.257-46.751v8.501c0 7.927-6.426 14.344-14.344 14.344s-14.344-6.417-14.344-14.344v-7c-21.238 6.264-37.743 23.572-42.888 45.25h14.2c7.918 0 14.344 6.417 14.344 14.344 0 7.928-6.426 14.344-14.344 14.344h-14.2c5.154 21.688 21.649 38.996 42.888 45.25v-7c0-7.928 6.426-14.344 14.344-14.344s14.344 6.416 14.344 14.344v8.501z"/></svg>