<?xml version="1.0" encoding="iso-8859-1"?>
<!-- Generator: Adobe Illustrator 16.0.0, SVG Export Plug-In . SVG Version: 6.00 Build 0)  -->
<!DOCTYPE svg PUBLIC "-//W3C//DTD SVG 1.1//EN" "http://www.w3.org/Graphics/SVG/1.1/DTD/svg11.dtd">
<svg version="1.1" id="Capa_1" xmlns="http://www.w3.org/2000/svg" xmlns:xlink="http://www.w3.org/1999/xlink" x="0px" y="0px"
	 width="612px" height="612px" viewBox="0 0 612 612" style="enable-background:new 0 0 612 612;" xml:space="preserve">
<g>
	<path d="M81.033,320.344H57.375v75.658c0,5.738,4.667,10.404,10.414,10.404h75.649V385.33
		C111.623,378.302,86.809,352.598,81.033,320.344z"/>
	<path d="M143.438,226.669v-21.076H67.789c-5.747,0-10.414,4.667-10.414,10.404v75.659h23.658
		C86.809,259.402,111.623,233.698,143.438,226.669z"/>
	<path d="M247.774,205.594h-75.649v19.986c34.817,4.81,62.615,31.7,68.773,66.077h17.289v-75.659
		C258.188,210.26,253.521,205.594,247.774,205.594z"/>
	<path d="M172.125,386.421v19.985h75.649c5.747,0,10.414-4.666,10.414-10.404v-75.658h-17.289
		C234.74,354.721,206.942,381.61,172.125,386.421z"/>
	<path d="M439.875,226.669v-21.076h-75.648c-5.748,0-10.414,4.667-10.414,10.404v75.659h23.657
		C383.246,259.402,408.061,233.698,439.875,226.669z"/>
	<path d="M377.47,320.344h-23.657v75.658c0,5.737,4.666,10.404,10.414,10.404h75.648V385.33
		C408.061,378.302,383.246,352.598,377.47,320.344z"/>
	<path d="M544.211,205.594h-75.648v19.986c34.817,4.81,62.615,31.7,68.773,66.077h17.289v-75.659
		C554.625,210.26,549.959,205.594,544.211,205.594z"/>
	<path d="M468.562,386.421v19.985h75.648c5.748,0,10.414-4.666,10.414-10.404v-75.658h-17.289
		C531.178,354.721,503.38,381.61,468.562,386.421z"/>
	<path d="M592.875,129.094H19.125C8.559,129.094,0,137.652,0,148.219v315.562c0,10.566,8.559,19.125,19.125,19.125h573.75
		c10.566,0,19.125-8.559,19.125-19.125V148.219C612,137.652,603.441,129.094,592.875,129.094z M277.312,320.344v75.658
		c0,16.285-13.253,29.529-29.539,29.529h-75.649c0,7.928-6.426,14.344-14.344,14.344s-14.344-6.416-14.344-14.344H67.789
		c-16.285,0-29.539-13.244-29.539-29.529v-75.658c-7.918,0-14.344-6.416-14.344-14.344c0-7.927,6.426-14.344,14.344-14.344v-75.659
		c0-16.285,13.253-29.529,29.539-29.529h75.649c0-7.927,6.426-14.344,14.344-14.344s14.344,6.417,14.344,14.344h75.649
		c16.285,0,29.539,13.244,29.539,29.529v75.659c7.918,0,14.344,6.417,14.344,14.344C291.656,313.928,285.23,320.344,277.312,320.344
		z M573.75,320.344v75.658c0,16.285-13.254,29.529-29.539,29.529h-75.648c0,7.928-6.426,14.344-14.344,14.344
		s-14.344-6.416-14.344-14.344h-75.648c-16.285,0-29.539-13.244-29.539-29.529v-75.658c-7.918,0-14.344-6.416-14.344-14.344
		c0-7.927,6.426-14.344,14.344-14.344v-75.659c0-16.285,13.254-29.529,29.539-29.529h75.648c0-7.927,6.426-14.344,14.344-14.344
		s14.344,6.417,14.344,14.344h75.648c16.285,0,29.539,13.244,29.539,29.529v75.659c7.918,0,14.344,6.417,14.344,14.344
		C588.094,313.928,581.668,320.344,573.75,320.344z"/>
	<path d="M172.125,367.095c24.26-4.428,43.605-22.94,49.256-46.751h-11.006c-7.918,0-14.344-6.416-14.344-14.344
		c0-7.927,6.426-14.344,14.344-14.344h11.006c-5.651-23.811-25.006-42.333-49.256-46.751v8.501c0,7.927-6.426,14.344-14.344,14.344
		s-14.344-6.417-14.344-14.344v-7c-21.238,6.264-37.743,23.572-42.888,45.25h14.2c7.918,0,14.344,6.417,14.344,14.344
		c0,7.928-6.426,14.344-14.344,14.344h-14.2c5.154,21.688,21.649,38.996,42.888,45.25v-7c0-7.928,6.426-14.344,14.344-14.344
		s14.344,6.416,14.344,14.344V367.095z"/>
	<path d="M468.562,367.095c24.26-4.428,43.605-22.94,49.257-46.751h-11.007c-7.918,0-14.344-6.416-14.344-14.344
		c0-7.927,6.426-14.344,14.344-14.344h11.007c-5.651-23.811-25.007-42.333-49.257-46.751v8.501c0,7.927-6.426,14.344-14.344,14.344
		s-14.344-6.417-14.344-14.344v-7c-21.238,6.264-37.743,23.572-42.888,45.25h14.2c7.918,0,14.344,6.417,14.344,14.344
		c0,7.928-6.426,14.344-14.344,14.344h-14.2c5.154,21.688,21.649,38.996,42.888,45.25v-7c0-7.928,6.426-14.344,14.344-14.344
		s14.344,6.416,14.344,14.344V367.095z"/>
</g>
<g>
</g>
<g>
</g>
<g>
</g>
<g>
</g>
<g>
</g>
<g>
</g>
<g>
</g>
<g>
</g>
<g>
</g>
<g>
</g>
<g>
</g>
<g>
</g>
<g>
</g>
<g>
</g>
<g>
</g>
</svg>
