<?xml version="1.0" encoding="iso-8859-1"?>
<!-- Generator: Adobe Illustrator 16.0.0, SVG Export Plug-In . SVG Version: 6.00 Build 0)  -->
<!DOCTYPE svg PUBLIC "-//W3C//DTD SVG 1.1//EN" "http://www.w3.org/Graphics/SVG/1.1/DTD/svg11.dtd">
<svg version="1.1" id="Capa_1" xmlns="http://www.w3.org/2000/svg" xmlns:xlink="http://www.w3.org/1999/xlink" x="0px" y="0px"
	 width="554.625px" height="554.625px" viewBox="0 0 554.625 554.625" style="enable-background:new 0 0 554.625 554.625;"
	 xml:space="preserve">
<g>
	<polygon points="189.644,243.844 172.125,243.844 172.125,253.406 162.562,253.406 95.625,253.406 95.625,243.844 85.192,243.844 
		7.325,310.781 142.089,310.781 	"/>
	<polygon points="114.75,320.344 19.125,320.344 0,320.344 0,349.031 0,368.156 19.125,368.156 19.125,349.031 114.75,349.031 
		114.75,368.156 143.438,368.156 143.438,320.344 133.875,320.344 	"/>
	<polygon points="229.5,291.656 229.5,310.781 229.5,320.344 248.625,320.344 248.625,310.781 306,310.781 306,320.344 
		325.125,320.344 325.125,310.781 325.125,291.656 325.125,282.094 229.5,282.094 	"/>
	<path d="M86.062,234.281h9.629c0.363-14.832,13.713-28.688,27.865-28.688h21.735c15.128,0,26.431,15.013,26.766,28.688h19.192
		v-47.812H86.062V234.281z"/>
	<path d="M162.562,234.903C162.562,234.893,162.562,234.893,162.562,234.903c0-0.21-0.058-0.411-0.067-0.622
		c-0.344-9.744-8.664-19.125-17.193-19.125c0,0,0,0-0.01,0l0,0h-21.735c-8.903,0-17.92,9.553-18.303,19.125
		c-0.009,0.21-0.067,0.411-0.067,0.612v8.951h57.375V234.903z"/>
	<polygon points="153,317.886 153,358.594 191.25,291.656 191.25,258.102 191.25,255.835 180.712,272.923 	"/>
	<polygon points="466.841,243.844 459,243.844 459,253.406 449.438,253.406 382.5,253.406 382.5,243.844 362.381,243.844 
		409.935,310.781 544.719,310.781 	"/>
	<polygon points="430.312,320.344 420.75,320.344 411.188,320.344 411.188,368.156 430.312,368.156 430.312,349.031 535.5,349.031 
		535.5,368.156 554.625,368.156 554.625,349.031 554.625,320.344 535.5,320.344 	"/>
	<path d="M468.562,234.281v-47.812h-114.75v47.812h28.735c0.258-14.21,9.237-28.688,24.193-28.688h21.735
		c14.611,0,29.997,14.631,30.438,28.688H468.562z"/>
	<path d="M428.486,215.156H406.75l0,0l0,0c-8.873,0-14.4,9.811-14.63,19.125c-0.02,0.201-0.058,0.411-0.058,0.612v8.951h57.375
		v-8.941l0,0c0-0.201-0.076-0.411-0.086-0.612C448.854,225.378,437.867,215.156,428.486,215.156z"/>
	<polygon points="353.812,291.656 401.625,358.594 401.625,317.886 353.812,255.835 	"/>
	<polygon points="236.271,243.844 217.25,272.531 336.82,272.531 315.084,243.844 	"/>
</g>
<g>
</g>
<g>
</g>
<g>
</g>
<g>
</g>
<g>
</g>
<g>
</g>
<g>
</g>
<g>
</g>
<g>
</g>
<g>
</g>
<g>
</g>
<g>
</g>
<g>
</g>
<g>
</g>
<g>
</g>
</svg>
