<svg xmlns="http://www.w3.org/2000/svg" width="538.422" height="538.422" style="enable-background:new 0 0 538.422 538.422" xml:space="preserve"><path d="M215.783 60.622a4.766 4.766 0 0 0-2.486 4.188v15.204c.201-.009.392-.057.593-.057 3.185 0 6.206.66 8.97 1.836v-8.252l268.161 171.235-26.364 214.488h-69.815c-5.202 0-9.419 4.217-9.419 9.409v.297c0 5.202 4.217 9.419 9.409 9.419h134.172c5.202 0 9.419-4.217 9.419-9.409v-.297c0-5.202-4.217-9.419-9.409-9.419h-54.727L500.88 242.95a4.766 4.766 0 0 0-2.171-4.609L220.65 60.784a4.773 4.773 0 0 0-4.867-.162z"/><path d="M165.484 248.888h95.625c10.566 0 23.304-8.367 19.125-19.125l-57.069-105.991c-2.84 1.262-5.967 1.999-9.266 1.999-3.682 0-7.105-.956-10.194-2.496l-57.346 106.488c-4.484 10.461 8.559 19.125 19.125 19.125zM316.094 248.888h95.434c10.566 0 20.12-12.947 10.558-20.722l-187.56-115.525c-1.119 2.353-2.572 4.514-4.379 6.34l59.651 110.782c4.78 9.563 15.729 19.125 26.296 19.125zM11.48 248.888h102.3c10.567 0 18.265-8.348 23.007-19.125l59.689-112.188c-1.492-1.759-2.792-3.672-3.701-5.814L2.922 229.763c-6.273 5.68-1.999 19.125 8.558 19.125zM208.209 114.889c1.731.823 3.644 1.32 5.68 1.32 1.664 0 3.242-.344 4.714-.899a13.377 13.377 0 0 0 6.617-5.47c.44-.708.813-1.454 1.109-2.247.564-1.473.908-3.06.908-4.733 0-3.902-1.711-7.373-4.379-9.821-2.372-2.171-5.508-3.528-8.97-3.528-.201 0-.392.047-.593.057-7.076.315-12.747 6.129-12.747 13.282 0 1.3.249 2.524.593 3.71.143.478.258.975.449 1.434 1.264 3.051 3.655 5.489 6.619 6.895z"/></svg>