<svg xmlns="http://www.w3.org/2000/svg" width="517.008" height="517.008" style="enable-background:new 0 0 517.008 517.008" xml:space="preserve"><path d="M459.439 32.653c-39.713-22.921-94.458-23.887-142.844-2.515-44.772 19.785-77.046 63.38-96.123 96.142-8.587-2.094-17.777 1.989-21.764 10.299-3.815 7.946-1.587 17.165 4.762 22.673-1.74 3.873-2.802 6.474-3.203 7.487l-92.661 203.528c-9.343-4.304-20.474-.469-25.083 8.816-4.695 9.457-.841 20.933 8.616 25.637l.631.316-20.845 45.814h-51.8C8.568 450.85 0 459.418 0 469.975S8.568 489.1 19.125 489.1h95.625c10.557 0 19.125-8.568 19.125-19.125s-8.568-19.125-19.125-19.125h-1.798l13.263-29.137c1.75.507 3.519.851 5.288.851 7.028 0 13.799-3.892 17.146-10.614 4.38-8.816 1.262-19.307-6.828-24.509l96.018-210.9c2.591 1.195 5.297 1.789 7.984 1.789 7.124 0 13.961-3.997 17.251-10.854 4.379-9.113.822-19.919-7.842-24.834 16.361-27.569 42.554-62.367 76.835-77.514 36.854-16.285 79.35-16.036 108.257.65 21.258 12.269 33.469 31.786 36.318 58.025 5.336 49.142.812 82.094-13.406 97.958-1.311 1.463-2.754 2.716-4.227 3.901v42.811c11.781-3.978 23.093-10.47 32.694-21.17 22.108-24.624 29.614-66.374 22.969-127.622-4.111-37.953-23.734-68.859-55.233-87.028z"/><path d="M404.972 355.225c12.479 0 24.279 2.84 34.903 7.793v-151.23c0-10.566 1.004-9.562-9.562-9.562h-37.456c-10.566 0-117.141 8.769-145.293 147.931L229.5 465.193c0 10.566 8.559 23.906 19.125 23.906h90.758c-10.921-14.066-17.49-31.661-17.49-50.796 0-45.814 37.275-83.078 83.079-83.078z"/><path d="M449.438 392.441a64.81 64.81 0 0 0-9.562-7.649c-10.05-6.579-22.032-10.442-34.903-10.442-35.267 0-63.954 28.688-63.954 63.954 0 20.712 9.945 39.11 25.265 50.796a63.863 63.863 0 0 0 17.767 9.562c6.569 2.285 13.589 3.586 20.923 3.586 7.335 0 14.354-1.301 20.923-3.586a63.96 63.96 0 0 0 18.561-10.155c5.202-4.093 9.783-8.941 13.503-14.43 6.923-10.223 10.978-22.539 10.978-35.783 0-12.526-3.672-24.184-9.916-34.052-2.749-4.304-5.942-8.271-9.585-11.801zm-44.466 13.781c17.71 0 32.073 14.362 32.073 32.072s-14.363 32.073-32.073 32.073-32.072-14.363-32.072-32.073 14.353-32.072 32.072-32.072z"/></svg>