<svg xmlns="http://www.w3.org/2000/svg" width="527.534" height="527.534" style="enable-background:new 0 0 527.534 527.534" xml:space="preserve"><path d="M140.803 364.255c1.368 3.72 2.228 7.688 2.228 11.876 0 1.1-.22 2.133-.325 3.204l110.456 62.137h87.105v57.375H187.268V441.473h7.401l-66.182-37.236c-2.496 1.788-5.23 3.203-8.157 4.284v119.015h286.875V346.918c-37.256 35.812-87.803 57.9-143.438 57.9-46.005 0-88.548-15.089-122.964-40.563z"/><path d="M263.768 0C154.793 0 66.139 88.654 66.139 197.628c0 47.334 16.763 90.815 44.628 124.887 3.022 3.7 6.283 7.181 9.562 10.652 36.051 38.135 86.942 62.089 143.438 62.089 56.495 0 107.387-23.954 143.438-62.089 3.279-3.472 6.541-6.952 9.562-10.652 27.855-34.071 44.627-77.552 44.627-124.887C461.395 88.654 372.743 0 263.768 0zM235.08 208.462V184.001l23.906-13.55 23.907 13.55v27.253l-23.907 13.55-23.906-13.55v-2.792z"/><path d="M273.331 205.68v-16.104l-14.345-8.128-14.343 8.128v16.104l14.343 8.128zM135.621 397.283l78.546 44.188h19.488l-93.177-52.422c-1.214 2.994-2.897 5.72-4.857 8.234zM211.662 451.034H196.83v38.25h133.876v-38.25h-109.3zM123.543 395.974a25.27 25.27 0 0 0 3.653-3.434 25.018 25.018 0 0 0 4.8-8.271 24.665 24.665 0 0 0 1.138-4.848c.144-1.091.334-2.171.334-3.3 0-.727-.153-1.405-.21-2.122-.736-8.578-5.738-15.864-12.929-19.805a24.82 24.82 0 0 0-9.562-2.926c-.803-.076-1.568-.239-2.391-.239-4.016 0-7.755 1.033-11.121 2.716-.411.201-.803.421-1.195.65-7.583 4.322-12.766 12.384-12.766 21.726 0 .277.077.536.086.804.02.688.125 1.357.201 2.027 1.434 12.479 11.943 22.242 24.805 22.242.822 0 1.587-.162 2.391-.239 2.869-.277 5.604-.976 8.118-2.142.498-.229.966-.526 1.444-.784a24.01 24.01 0 0 0 3.204-2.055z"/></svg>