<svg xmlns="http://www.w3.org/2000/svg" width="535.5" height="535.5" style="enable-background:new 0 0 535.5 535.5" xml:space="preserve"><path d="M261.591 505.856H157.359V535.5h119.054v-29.644h-10.041zM226.688 59.288h10.041v119.053h-10.041zM282.15 108.056c-10.519 7.65-17.213 20.082-18.169 33.469v.957c-.956 18.646-2.869 30.6-9.084 35.859h22.95c4.304-11.475 5.26-24.863 5.738-34.903v-.956c.956-12.432 10.519-21.516 19.603-21.516-1.435-6.694-2.868-12.91-4.781-18.169-4.782-.956-10.519.956-16.257 5.259zM239.119 188.381h-81.76v19.603h19.604v49.726h-10.041v10.041H97.594c-51.637 0-58.331 28.209-59.287 37.294v32.035H28.266v19.604h59.288V337.08H77.513v-12.909s0-16.734 19.603-16.734h69.328v10.04h10.041l10.041 10.041v168.3h69.328V327.037l10.04-10.04V208.462h10.041v-19.603H239.12v-.478z"/><path d="M441.366 317.953c-6.216-5.26-13.388-10.997-21.038-17.69l-2.391-1.913c-54.984-48.769-54.984-48.769-78.891-158.259l-4.781-21.516c-12.909-60.244-33.946-97.538-62.634-111.881C262.547 1.913 247.725 0 240.553 0c-19.603 0-32.034 10.041-32.034 26.775 0 12.431 10.041 22.472 22.472 22.472s22.472-10.041 22.472-22.472c0-1.434 0-2.869-.479-4.303 2.869.479 6.216 1.435 9.562 3.347 15.778 7.65 37.294 31.078 51.638 97.538l4.781 21.516c24.385 114.271 24.862 116.184 85.584 169.256l2.391 1.913c7.65 6.693 14.822 12.909 21.516 18.168 29.166 23.906 44.944 37.294 58.332 84.629 1.434 4.781 5.737 7.649 10.04 7.649.956 0 1.913 0 2.869-.478 5.737-1.435 8.606-7.172 7.172-12.91-15.778-54.028-35.382-70.285-65.503-95.147z"/></svg>