<?xml version="1.0" encoding="iso-8859-1"?>
<!-- Generator: Adobe Illustrator 16.0.0, SVG Export Plug-In . SVG Version: 6.00 Build 0)  -->
<!DOCTYPE svg PUBLIC "-//W3C//DTD SVG 1.1//EN" "http://www.w3.org/Graphics/SVG/1.1/DTD/svg11.dtd">
<svg version="1.1" id="Capa_1" xmlns="http://www.w3.org/2000/svg" xmlns:xlink="http://www.w3.org/1999/xlink" x="0px" y="0px"
	 width="527.534px" height="527.534px" viewBox="0 0 527.534 527.534" style="enable-background:new 0 0 527.534 527.534;"
	 xml:space="preserve">
<g>
	<g>
		<path d="M140.803,364.255c1.368,3.72,2.228,7.688,2.228,11.876c0,1.1-0.22,2.133-0.325,3.204l110.456,62.137h87.105v57.375h-9.562
			H187.268v-47.812v-9.562h7.401l-66.182-37.236c-2.496,1.788-5.23,3.203-8.157,4.284v119.015h286.875V346.918
			c-37.256,35.812-87.803,57.9-143.438,57.9C217.762,404.818,175.219,389.729,140.803,364.255z"/>
		<path d="M263.768,0C154.793,0,66.139,88.654,66.139,197.628c0,47.334,16.763,90.815,44.628,124.887
			c3.022,3.7,6.283,7.181,9.562,10.652c36.051,38.135,86.942,62.089,143.438,62.089c56.495,0,107.387-23.954,143.438-62.089
			c3.279-3.472,6.541-6.952,9.562-10.652c27.855-34.071,44.627-77.552,44.627-124.887C461.395,88.654,372.743,0,263.768,0z
			 M235.08,208.462v-21.678v-2.783l23.906-13.55l23.907,13.55v27.253l-23.907,13.55l-23.906-13.55V208.462z"/>
		<polygon points="273.331,205.68 273.331,189.576 258.986,181.448 244.643,189.576 244.643,205.68 258.986,213.808 		"/>
		<path d="M135.621,397.283l78.546,44.188h19.488l-93.177-52.422C139.264,392.043,137.581,394.769,135.621,397.283z"/>
		<polygon points="211.662,451.034 196.83,451.034 196.83,489.284 330.706,489.284 330.706,451.034 261.128,451.034 255.64,451.034 
			250.15,451.034 231.16,451.034 221.406,451.034 		"/>
		<path d="M123.543,395.974c1.339-1.023,2.544-2.171,3.653-3.434c2.104-2.409,3.729-5.192,4.8-8.271
			c0.536-1.559,0.918-3.165,1.138-4.848c0.144-1.091,0.334-2.171,0.334-3.3c0-0.727-0.153-1.405-0.21-2.122
			c-0.736-8.578-5.738-15.864-12.929-19.805c-2.897-1.587-6.12-2.591-9.562-2.926c-0.803-0.076-1.568-0.239-2.391-0.239
			c-4.016,0-7.755,1.033-11.121,2.716c-0.411,0.201-0.803,0.421-1.195,0.65c-7.583,4.322-12.766,12.384-12.766,21.726
			c0,0.277,0.077,0.536,0.086,0.804c0.02,0.688,0.125,1.357,0.201,2.027c1.434,12.479,11.943,22.242,24.805,22.242
			c0.822,0,1.587-0.162,2.391-0.239c2.869-0.277,5.604-0.976,8.118-2.142c0.498-0.229,0.966-0.526,1.444-0.784
			C121.458,397.427,122.529,396.748,123.543,395.974z"/>
	</g>
</g>
<g>
</g>
<g>
</g>
<g>
</g>
<g>
</g>
<g>
</g>
<g>
</g>
<g>
</g>
<g>
</g>
<g>
</g>
<g>
</g>
<g>
</g>
<g>
</g>
<g>
</g>
<g>
</g>
<g>
</g>
</svg>
