<svg xmlns="http://www.w3.org/2000/svg" width="545.062" height="545.062" style="enable-background:new 0 0 545.062 545.062" xml:space="preserve"><path d="M487.688 105.188c10.165 0 19.556 3.242 27.311 8.673l-17.633-79.35C493.253 13.167 477.981 0 457.508 0H95.921C77.609 0 61.716 14.181 57.26 34.492l-16.4 73.812c5.173-1.922 10.691-3.117 16.515-3.117h430.313zm-56.18-80.086c15.186 0 27.492 12.307 27.492 27.492s-12.307 27.492-27.492 27.492-27.492-12.307-27.492-27.492 12.306-27.492 27.492-27.492zm-86.063 0c15.186 0 27.492 12.307 27.492 27.492s-12.307 27.492-27.492 27.492-27.492-12.307-27.492-27.492 12.307-27.492 27.492-27.492zm-106.383 3.586h47.812v19.125h-47.812V28.688zm0 38.25h47.812v19.125h-47.812V66.938zM57.375 545.062h430.312c15.816 0 28.688-12.871 28.688-28.688V153c0-3.806-.784-7.43-2.133-10.758-.354-.88-.841-1.692-1.281-2.524a28.64 28.64 0 0 0-3.93-5.699 28.03 28.03 0 0 0-2.812-2.735 61.92 61.92 0 0 1-1.215 6.349c-1.062 4.38-2.601 8.606-4.6 12.518-.439.87-.879 1.74-1.367 2.572-6.627 11.332-17.385 19.402-31.929 19.402H97.079c-12.431 0-24.968-6.474-34.291-16.027a61.254 61.254 0 0 1-2.008-2.18c-4.007-4.533-7.268-9.658-9.524-15.051-1.75-4.169-2.878-8.492-3.251-12.852-2.305.803-4.514 1.788-6.502 3.117-1.731 1.157-3.299 2.505-4.743 3.997-.803.832-1.501 1.75-2.199 2.668-3.634 4.81-5.872 10.729-5.872 17.203v363.375c-.001 15.816 12.87 28.687 28.686 28.687zm216.753-332.296c81.731 0 148.219 66.488 148.219 148.219S355.86 509.204 274.128 509.204c-81.73 0-148.218-66.488-148.218-148.219s66.487-148.219 148.218-148.219z"/><path d="M97.079 153H467.11c1.807 0 3.471-.296 5.029-.822 10.223-3.433 15.062-17.117 15.463-27.865H67.129C68.171 138.025 83.471 153 97.079 153zM274.128 480.516c65.915 0 119.531-53.617 119.531-119.531s-53.616-119.531-119.531-119.531c-65.914 0-119.531 53.617-119.531 119.531s53.617 119.531 119.531 119.531zm57.768-182.682c8.032 0 14.544 6.512 14.544 14.544 0 8.033-6.512 14.545-14.544 14.545-8.033 0-14.545-6.512-14.545-14.545.009-8.032 6.511-14.544 14.545-14.544zm-47.813-28.688c8.032 0 14.544 6.512 14.544 14.544 0 8.033-6.512 14.545-14.544 14.545-8.033 0-14.545-6.512-14.545-14.545.01-8.032 6.512-14.544 14.545-14.544zm-97.92 78.193c9.993-7.421 28.754-18.207 53.464-17.968 18.112.172 27.072 6.636 36.147 13.349-.115-.841-.259-1.673-.259-2.543 0-10.51 8.521-19.029 19.029-19.029 10.51 0 19.029 8.52 19.029 19.029 0 7.009-3.825 13.062-9.467 16.361 3.797.727 7.994 1.195 12.833 1.281 25.676.449 37.274-12.719 42.419-22.864a89.009 89.009 0 0 1 3.893 26.039c0 49.218-39.896 89.112-89.113 89.112-49.218 0-89.113-39.895-89.113-89.112-.019-4.667.449-9.199 1.138-13.655z"/></svg>