<?xml version="1.0" encoding="iso-8859-1"?>
<!-- Generator: Adobe Illustrator 16.0.0, SVG Export Plug-In . SVG Version: 6.00 Build 0)  -->
<!DOCTYPE svg PUBLIC "-//W3C//DTD SVG 1.1//EN" "http://www.w3.org/Graphics/SVG/1.1/DTD/svg11.dtd">
<svg version="1.1" id="Capa_1" xmlns="http://www.w3.org/2000/svg" xmlns:xlink="http://www.w3.org/1999/xlink" x="0px" y="0px"
	 width="545.062px" height="545.062px" viewBox="0 0 545.062 545.062" style="enable-background:new 0 0 545.062 545.062;"
	 xml:space="preserve">
<g>
	<path d="M487.688,105.188c10.165,0,19.556,3.242,27.311,8.673l-17.633-79.35C493.253,13.167,477.981,0,457.508,0H95.921
		C77.609,0,61.716,14.181,57.26,34.492l-16.4,73.812c5.173-1.922,10.691-3.117,16.515-3.117H487.688z M431.508,25.102
		c15.186,0,27.492,12.307,27.492,27.492s-12.307,27.492-27.492,27.492s-27.492-12.307-27.492-27.492S416.322,25.102,431.508,25.102z
		 M345.445,25.102c15.186,0,27.492,12.307,27.492,27.492s-12.307,27.492-27.492,27.492s-27.492-12.307-27.492-27.492
		S330.26,25.102,345.445,25.102z M239.062,28.688h47.812v19.125h-47.812V28.688z M239.062,66.938h47.812v19.125h-47.812V66.938z"/>
	<path d="M57.375,545.062h430.312c15.816,0,28.688-12.871,28.688-28.688V153c0-3.806-0.784-7.43-2.133-10.758
		c-0.354-0.88-0.841-1.692-1.281-2.524c-1.09-2.065-2.391-3.969-3.93-5.699c-0.87-0.985-1.817-1.884-2.812-2.735
		c-0.287,2.142-0.708,4.255-1.215,6.349c-1.062,4.38-2.601,8.606-4.6,12.518c-0.439,0.87-0.879,1.74-1.367,2.572
		c-6.627,11.332-17.385,19.402-31.929,19.402H97.079c-12.431,0-24.968-6.474-34.291-16.027c-0.689-0.708-1.349-1.434-2.008-2.18
		c-4.007-4.533-7.268-9.658-9.524-15.051c-1.75-4.169-2.878-8.492-3.251-12.852c-2.305,0.803-4.514,1.788-6.502,3.117
		c-1.731,1.157-3.299,2.505-4.743,3.997c-0.803,0.832-1.501,1.75-2.199,2.668c-3.634,4.81-5.872,10.729-5.872,17.203v363.375
		C28.688,532.191,41.559,545.062,57.375,545.062z M274.128,212.766c81.731,0,148.219,66.488,148.219,148.219
		s-66.487,148.219-148.219,148.219c-81.73,0-148.218-66.488-148.218-148.219S192.397,212.766,274.128,212.766z"/>
	<path d="M97.079,153h366.703h3.328c1.807,0,3.471-0.296,5.029-0.822c10.223-3.433,15.062-17.117,15.463-27.865H67.129
		C68.171,138.025,83.471,153,97.079,153z"/>
	<path d="M274.128,480.516c65.915,0,119.531-53.617,119.531-119.531s-53.616-119.531-119.531-119.531
		c-65.914,0-119.531,53.617-119.531,119.531S208.214,480.516,274.128,480.516z M331.896,297.834c8.032,0,14.544,6.512,14.544,14.544
		c0,8.033-6.512,14.545-14.544,14.545c-8.033,0-14.545-6.512-14.545-14.545C317.36,304.346,323.862,297.834,331.896,297.834z
		 M284.083,269.146c8.032,0,14.544,6.512,14.544,14.544c0,8.033-6.512,14.545-14.544,14.545c-8.033,0-14.545-6.512-14.545-14.545
		C269.548,275.658,276.05,269.146,284.083,269.146z M186.163,347.339c9.993-7.421,28.754-18.207,53.464-17.968
		c18.112,0.172,27.072,6.636,36.147,13.349c-0.115-0.841-0.259-1.673-0.259-2.543c0-10.51,8.521-19.029,19.029-19.029
		c10.51,0,19.029,8.52,19.029,19.029c0,7.009-3.825,13.062-9.467,16.361c3.797,0.727,7.994,1.195,12.833,1.281
		c25.676,0.449,37.274-12.719,42.419-22.864c2.516,8.243,3.893,16.974,3.893,26.039c0,49.218-39.896,89.112-89.113,89.112
		c-49.218,0-89.113-39.895-89.113-89.112C185.006,356.327,185.474,351.795,186.163,347.339z"/>
</g>
<g>
</g>
<g>
</g>
<g>
</g>
<g>
</g>
<g>
</g>
<g>
</g>
<g>
</g>
<g>
</g>
<g>
</g>
<g>
</g>
<g>
</g>
<g>
</g>
<g>
</g>
<g>
</g>
<g>
</g>
</svg>
