<svg xmlns="http://www.w3.org/2000/svg" width="388.482" height="388.482" style="enable-background:new 0 0 388.482 388.482" xml:space="preserve"><path d="M3.495 159.639c3.998 6.062 12.154 7.727 18.217 3.729l10.825-7.153 3.987-2.639 3.988-2.63L140.985 298.19l-.344 7.975-.344 7.832-1.147 26.526c0 10.566 8.559 19.125 19.125 19.125h143.437c10.566 0 19.125-8.559 19.125-19.125l-3.242-74.549c50.777-55.521 87.307-142.367 63.381-200.125-9.887-23.877-29.107-37.016-54.113-37.016-25.533 0-44.303 8.07-55.807 23.982-10.443 14.449-12.68 32.78-12.002 48.645h-91.216c-10.566 0-19.125 8.559-19.125 19.125l-4.944 113.804-.344 7.975-.344 7.976-78.613-115.2 3.987-2.639 3.137-2.065c.306-.201.459-.517.746-.736 5.335-4.179 6.789-11.724 2.983-17.48l-1.321-2c-3.997-6.062-12.154-7.727-18.216-3.729L5.905 139.424c-6.063 3.998-7.727 12.154-3.729 18.217l1.319 1.998zm283.079-95.654c7.707-10.633 21.268-16.026 40.287-16.026 17.26 0 29.52 8.481 36.451 25.207 15.367 37.093 1.072 105.35-46.922 165.04l-5.117-117.619c0-10.566-8.559-19.125-19.125-19.125H278.14c-.679-12.671.823-26.967 8.434-37.477z"/></svg>