<svg xmlns="http://www.w3.org/2000/svg" width="592.875" height="592.875" style="enable-background:new 0 0 592.875 592.875" xml:space="preserve"><path d="M277.312 196.031H306v47.812h-28.688zM258.188 253.406v19.125h66.937v-19.125H267.75zM420.75 377.719h-76.5v-38.25h9.562v-19.125h-19.124v-38.25h-86.063v38.25H229.5v19.125h9.562v38.25h-76.5v9.562H153v57.375h9.562v9.563h76.5v9.562H344.25v-9.562h76.5v-9.563h19.125v-57.375H420.75zM124.312 396.844H0v38.25h143.438v-38.25h-9.563zM449.438 396.844v38.25h143.437v-38.25H459zM267.75 165.431v21.038h47.812v-21.515h4.781c31.557-.956 62.156-3.347 91.8-7.172 0 0 11.476-1.435 18.647-2.391v-12.91c0-7.172-5.738-13.388-13.388-13.388h-31.078c-7.172 0-13.388 9.562-13.388 9.562h-9.562s-5.737-9.562-13.388-9.562h-31.078c-7.172 0-13.388 9.562-13.388 9.562h-9.562s-5.738-9.562-13.388-9.562h-31.078c-7.172 0-13.388 9.562-13.388 9.562h-9.562s-5.737-9.562-13.387-9.562h-31.078c-7.172 0-13.388 5.737-13.388 13.388v16.734c10.997 1.434 44.944 5.259 90.844 6.215h6.217zM162.562 142.481z"/></svg>