<?xml version="1.0" encoding="iso-8859-1"?>
<!-- Generator: Adobe Illustrator 16.0.0, SVG Export Plug-In . SVG Version: 6.00 Build 0)  -->
<!DOCTYPE svg PUBLIC "-//W3C//DTD SVG 1.1//EN" "http://www.w3.org/Graphics/SVG/1.1/DTD/svg11.dtd">
<svg version="1.1" id="Capa_1" xmlns="http://www.w3.org/2000/svg" xmlns:xlink="http://www.w3.org/1999/xlink" x="0px" y="0px"
	 width="388.482px" height="388.482px" viewBox="0 0 388.482 388.482" style="enable-background:new 0 0 388.482 388.482;"
	 xml:space="preserve">
<g>
	<path d="M3.495,159.639c3.998,6.062,12.154,7.727,18.217,3.729l10.825-7.153l3.987-2.639l3.988-2.63L140.985,298.19l-0.344,7.975
		l-0.344,7.832l-1.147,26.526c0,10.566,8.559,19.125,19.125,19.125h143.437c10.566,0,19.125-8.559,19.125-19.125l-3.242-74.549
		c50.777-55.521,87.307-142.367,63.381-200.125c-9.887-23.877-29.107-37.016-54.113-37.016c-25.533,0-44.303,8.07-55.807,23.982
		c-10.443,14.449-12.68,32.78-12.002,48.645h-91.216c-10.566,0-19.125,8.559-19.125,19.125l-4.944,113.804l-0.344,7.975
		l-0.344,7.976l-78.613-115.2l3.987-2.639l3.137-2.065c0.306-0.201,0.459-0.517,0.746-0.736c5.335-4.179,6.789-11.724,2.983-17.48
		L74,110.22c-3.997-6.062-12.154-7.727-18.216-3.729L5.905,139.424c-6.063,3.998-7.727,12.154-3.729,18.217L3.495,159.639z
		 M286.574,63.985c7.707-10.633,21.268-16.026,40.287-16.026c17.26,0,29.52,8.481,36.451,25.207
		c15.367,37.093,1.072,105.35-46.922,165.04l-5.117-117.619c0-10.566-8.559-19.125-19.125-19.125h-14.008
		C277.461,88.791,278.963,74.495,286.574,63.985z"/>
</g>
<g>
</g>
<g>
</g>
<g>
</g>
<g>
</g>
<g>
</g>
<g>
</g>
<g>
</g>
<g>
</g>
<g>
</g>
<g>
</g>
<g>
</g>
<g>
</g>
<g>
</g>
<g>
</g>
<g>
</g>
</svg>
