<svg xmlns="http://www.w3.org/2000/svg" width="578.129" height="578.129" style="enable-background:new 0 0 578.129 578.129" xml:space="preserve"><path d="m453.632 234.78 9.639 5.432-43.71 65.187H302.019v-.593a8.971 8.971 0 0 0-8.97-8.97h-1.195c-4.943 0-8.96 4.017-8.96 8.97v.593H151.84l-42.515-65.923 8.338-4.695-11.216-19.899-37.982 21.4 11.217 19.9 12.958-7.297 45.967 71.259a9.51 9.51 0 0 0 8.022 4.38H270.94a7.175 7.175 0 0 0-7.172 7.172v4.781a7.175 7.175 0 0 0 7.172 7.172h11.953v47.812H134.675c-7.918 0-14.344 6.426-14.344 14.344s6.426 14.344 14.344 14.344h315.562c7.918 0 14.344-6.426 14.344-14.344s-6.426-14.344-14.344-14.344H302.019v-47.812h11.953a7.175 7.175 0 0 0 7.172-7.172v-4.781a7.175 7.175 0 0 0-7.172-7.172h110.695a9.573 9.573 0 0 0 7.946-4.236l47.373-70.667 11.638 6.561 11.207-19.9-37.982-21.4-11.217 19.898zM72.366 217.625a4.77 4.77 0 0 0-1.157-6.655c-.995-.698-24.614-17.107-46.417-11.437-10.538 2.744-18.723 10.05-24.317 21.716a4.776 4.776 0 0 0 4.303 6.847 4.76 4.76 0 0 0 4.312-2.715c4.322-8.999 10.404-14.583 18.083-16.592 17.471-4.57 38.326 9.85 38.537 9.993 2.162 1.51 5.136 1.004 6.656-1.157zM7.513 187.407c25.427-17.624 70.332 17.777 70.791 18.13a4.727 4.727 0 0 0 2.984 1.042 4.763 4.763 0 0 0 3.739-1.797c1.645-2.057 1.31-5.068-.746-6.723-2.065-1.645-50.958-40.239-82.218-18.523a4.777 4.777 0 0 0-1.195 6.656c1.51 2.171 4.474 2.726 6.645 1.215zM92.036 204.094c.144.009.277.019.411.019a4.782 4.782 0 0 0 4.762-4.37c.526-6.062 2.419-36.576-12.173-41.511-2.486-.841-5.221.498-6.062 2.993a4.79 4.79 0 0 0 2.993 6.062c4.829 1.635 6.895 17.978 5.718 31.633a4.774 4.774 0 0 0 4.351 5.174zM500.067 219.413a4.778 4.778 0 0 0-1.147 6.656c1.53 2.151 4.494 2.677 6.655 1.156 1.091-.765 27.043-18.57 46.589-.401a4.77 4.77 0 0 0 6.751-.249 4.786 4.786 0 0 0-.248-6.76c-20.196-18.781-47.153-8.473-58.6-.402zM489.645 209.564a4.782 4.782 0 0 0 .497 6.741 4.763 4.763 0 0 0 3.127 1.167 4.796 4.796 0 0 0 3.624-1.654c.44-.526 45.346-51.973 73.708-32.006a4.754 4.754 0 0 0 6.655-1.157c1.521-2.161 1.004-5.145-1.157-6.656-35.381-24.929-84.379 31.174-86.454 33.565zM472.747 213.465c.459.144.938.2 1.396.2a4.8 4.8 0 0 0 4.58-3.385c2.448-8.062 11.829-29.912 25.532-34.195a4.77 4.77 0 0 0 3.137-5.986c-.794-2.524-3.481-3.949-5.986-3.137-21.296 6.656-31.413 39.159-31.843 40.536a4.787 4.787 0 0 0 3.184 5.967z"/></svg>