<?xml version="1.0" encoding="iso-8859-1"?>
<!-- Generator: Adobe Illustrator 16.0.0, SVG Export Plug-In . SVG Version: 6.00 Build 0)  -->
<!DOCTYPE svg PUBLIC "-//W3C//DTD SVG 1.1//EN" "http://www.w3.org/Graphics/SVG/1.1/DTD/svg11.dtd">
<svg version="1.1" id="Capa_1" xmlns="http://www.w3.org/2000/svg" xmlns:xlink="http://www.w3.org/1999/xlink" x="0px" y="0px"
	 width="592.875px" height="592.875px" viewBox="0 0 592.875 592.875" style="enable-background:new 0 0 592.875 592.875;"
	 xml:space="preserve">
<g>
	<g>
		<rect x="277.312" y="196.031" width="28.688" height="47.812"/>
		<polygon points="258.188,253.406 258.188,272.531 325.125,272.531 325.125,253.406 315.562,253.406 306,253.406 267.75,253.406 		
			"/>
		<polygon points="420.75,377.719 344.25,377.719 344.25,349.031 344.25,339.469 353.812,339.469 353.812,320.344 334.688,320.344 
			334.688,282.094 325.125,282.094 248.625,282.094 248.625,320.344 239.062,320.344 229.5,320.344 229.5,339.469 239.062,339.469 
			239.062,377.719 229.5,377.719 162.562,377.719 162.562,387.281 153,387.281 153,444.656 162.562,444.656 162.562,454.219 
			239.062,454.219 239.062,463.781 344.25,463.781 344.25,454.219 420.75,454.219 420.75,444.656 439.875,444.656 439.875,396.844 
			439.875,387.281 420.75,387.281 		"/>
		<polygon points="124.312,396.844 0,396.844 0,435.094 124.312,435.094 133.875,435.094 143.438,435.094 143.438,396.844 
			133.875,396.844 		"/>
		<polygon points="449.438,396.844 449.438,435.094 459,435.094 592.875,435.094 592.875,396.844 459,396.844 		"/>
		<path d="M267.75,165.431v21.038h47.812v-16.734v-4.781h4.781c31.557-0.956,62.156-3.347,91.8-7.172c0,0,11.476-1.435,18.647-2.391
			v-10.519v-1.435v-0.956c0-7.172-5.738-13.388-13.388-13.388h-31.078c-7.172,0-13.388,9.562-13.388,9.562h-9.562
			c0,0-5.737-9.562-13.388-9.562h-31.078c-7.172,0-13.388,9.562-13.388,9.562h-9.562c0,0-5.738-9.562-13.388-9.562h-31.078
			c-7.172,0-13.388,9.562-13.388,9.562h-9.562c0,0-5.737-9.562-13.387-9.562h-31.078c-7.172,0-13.388,5.737-13.388,13.388v16.734
			c10.997,1.434,44.944,5.259,90.844,6.215H267.75z"/>
		<path d="M162.562,142.481L162.562,142.481L162.562,142.481z"/>
	</g>
</g>
<g>
</g>
<g>
</g>
<g>
</g>
<g>
</g>
<g>
</g>
<g>
</g>
<g>
</g>
<g>
</g>
<g>
</g>
<g>
</g>
<g>
</g>
<g>
</g>
<g>
</g>
<g>
</g>
<g>
</g>
</svg>
