<?xml version="1.0" encoding="iso-8859-1"?>
<!-- Generator: Adobe Illustrator 16.0.0, SVG Export Plug-In . SVG Version: 6.00 Build 0)  -->
<!DOCTYPE svg PUBLIC "-//W3C//DTD SVG 1.1//EN" "http://www.w3.org/Graphics/SVG/1.1/DTD/svg11.dtd">
<svg version="1.1" id="Capa_1" xmlns="http://www.w3.org/2000/svg" xmlns:xlink="http://www.w3.org/1999/xlink" x="0px" y="0px"
	 width="578.129px" height="578.129px" viewBox="0 0 578.129 578.129" style="enable-background:new 0 0 578.129 578.129;"
	 xml:space="preserve">
<g>
	<path d="M453.632,234.78l9.639,5.432l-43.71,65.187H302.019v-0.593c0-4.953-4.017-8.97-8.97-8.97h-1.195
		c-4.943,0-8.96,4.017-8.96,8.97v0.593H151.84l-42.515-65.923l8.338-4.695l-11.216-19.899l-37.982,21.4l11.217,19.9l12.958-7.297
		l45.967,71.259c1.75,2.735,4.771,4.38,8.022,4.38H270.94c-3.959,0-7.172,3.213-7.172,7.172v4.781c0,3.959,3.213,7.172,7.172,7.172
		h11.953v47.812H134.675c-7.918,0-14.344,6.426-14.344,14.344s6.426,14.344,14.344,14.344h315.562
		c7.918,0,14.344-6.426,14.344-14.344s-6.426-14.344-14.344-14.344H302.019v-47.812h11.953c3.959,0,7.172-3.213,7.172-7.172v-4.781
		c0-3.959-3.213-7.172-7.172-7.172h110.695c3.185,0,6.168-1.587,7.946-4.236l47.373-70.667l11.638,6.561l11.207-19.9l-37.982-21.4
		L453.632,234.78z"/>
	<path d="M72.366,217.625c1.521-2.161,1.004-5.135-1.157-6.655c-0.995-0.698-24.614-17.107-46.417-11.437
		c-10.538,2.744-18.723,10.05-24.317,21.716c-1.147,2.382-0.144,5.231,2.238,6.379c0.669,0.325,1.377,0.468,2.065,0.468
		c1.788,0,3.49-0.994,4.312-2.715c4.322-8.999,10.404-14.583,18.083-16.592c17.471-4.57,38.326,9.85,38.537,9.993
		C67.872,220.292,70.846,219.786,72.366,217.625z"/>
	<path d="M7.513,187.407c25.427-17.624,70.332,17.777,70.791,18.13c0.88,0.708,1.932,1.042,2.984,1.042
		c1.405,0,2.792-0.611,3.739-1.797c1.645-2.057,1.31-5.068-0.746-6.723c-2.065-1.645-50.958-40.239-82.218-18.523
		c-2.17,1.511-2.706,4.485-1.195,6.656C2.378,188.363,5.342,188.918,7.513,187.407z"/>
	<path d="M92.036,204.094c0.144,0.009,0.277,0.019,0.411,0.019c2.458,0,4.542-1.874,4.762-4.37
		c0.526-6.062,2.419-36.576-12.173-41.511c-2.486-0.841-5.221,0.498-6.062,2.993c-0.841,2.505,0.498,5.211,2.993,6.062
		c4.829,1.635,6.895,17.978,5.718,31.633C87.456,201.55,89.397,203.865,92.036,204.094z"/>
	<path d="M500.067,219.413c-2.151,1.521-2.668,4.495-1.147,6.656c1.53,2.151,4.494,2.677,6.655,1.156
		c1.091-0.765,27.043-18.57,46.589-0.401c0.918,0.852,2.085,1.281,3.251,1.281c1.281,0,2.562-0.517,3.5-1.53
		c1.798-1.931,1.684-4.963-0.248-6.76C538.471,201.034,511.514,211.342,500.067,219.413z"/>
	<path d="M489.645,209.564c-1.722,1.998-1.502,5.011,0.497,6.741c0.908,0.784,2.018,1.167,3.127,1.167
		c1.339,0,2.678-0.564,3.624-1.654c0.44-0.526,45.346-51.973,73.708-32.006c2.151,1.53,5.145,1.013,6.655-1.157
		c1.521-2.161,1.004-5.145-1.157-6.656C540.718,151.07,491.72,207.173,489.645,209.564z"/>
	<path d="M472.747,213.465c0.459,0.144,0.938,0.2,1.396,0.2c2.047,0,3.949-1.329,4.58-3.385
		c2.448-8.062,11.829-29.912,25.532-34.195c2.524-0.784,3.931-3.471,3.137-5.986c-0.794-2.524-3.481-3.949-5.986-3.137
		c-21.296,6.656-31.413,39.159-31.843,40.536C468.798,210.023,470.223,212.7,472.747,213.465z"/>
</g>
<g>
</g>
<g>
</g>
<g>
</g>
<g>
</g>
<g>
</g>
<g>
</g>
<g>
</g>
<g>
</g>
<g>
</g>
<g>
</g>
<g>
</g>
<g>
</g>
<g>
</g>
<g>
</g>
<g>
</g>
</svg>
