<svg xmlns="http://www.w3.org/2000/svg" width="586.898" height="586.898" style="enable-background:new 0 0 586.898 586.898" xml:space="preserve"><path d="M362.758 233.086h35.688c8.09 0 14.669-5.451 14.669-12.154l.105-.985 38.795-185.522c-.277-6.502-6.751-11.714-14.659-11.714h-70.858C391.963 47.803 408.2 85.259 408.2 127.105c-.001 40.64-15.425 76.127-45.442 105.981zM184.465 233.086h34.865c-29.998-29.787-45.422-65.073-45.422-105.388 0-42.094 16.285-79.79 41.836-104.987h-70.188c-7.908 0-14.373 5.211-14.659 11.714l38.9 186.507c-.001 6.703 6.578 12.154 14.668 12.154zM184.465 242.648h-.009.009zM355.759 411.896a198.37 198.37 0 0 1-64.7 10.844c-24.576 0-47.984-4.428-69.271-12.364l-24.012 165.058c.048 6.016 6.483 11.466 14.392 11.466h153c7.908 0 14.344-5.45 14.344-12.154l-23.753-162.85z"/><path d="M111.762 280.898h13.043c4.867 50.471 39.77 93.636 89.323 115.965 1.625.736 3.328 1.367 4.982 2.056 1.358.564 2.706 1.147 4.083 1.683 20.76 8.014 43.682 12.585 67.846 12.585 22.405 0 43.768-3.873 63.313-10.815 1.396-.497 2.735-1.071 4.112-1.598 1.683-.641 3.318-1.357 4.963-2.046 51.905-21.697 88.845-65.848 93.855-117.829h17.854c7.928 0 14.344-6.417 14.344-14.344s-6.416-14.344-14.344-14.344H111.762c-7.927 0-14.344 6.417-14.344 14.344s6.416 14.343 14.344 14.343zM233.177 233.086c3.634 3.242 7.306 6.464 11.341 9.562h93.09c4.026-3.089 7.698-6.321 11.332-9.562 32.886-29.405 49.696-64.948 49.696-105.981 0-43.222-18.389-81.415-46.368-104.394-4.39-3.605-9.037-6.751-13.856-9.562C324.097 4.81 308.07 0 291.059 0c-16.964 0-32.962 4.81-47.239 13.148-4.819 2.812-9.467 5.958-13.847 9.562-28.056 23.074-46.493 61.506-46.493 104.987 0 40.679 16.812 76.032 49.697 105.389z"/></svg>