<svg xmlns="http://www.w3.org/2000/svg" width="498.252" height="498.252" style="enable-background:new 0 0 498.252 498.252" xml:space="preserve"><path d="m352.629 248.539-1.778-139.221-283.968 85.078 75.056 117.265z"/><path d="M85.205 413.625c30.591-9.161 49.629-38.479 46.961-69.089l126.694-37.963 29.117 44.073a9.567 9.567 0 0 0 7.976 4.294c.918 0 1.836.096 2.744-.173l41.989-12.354c4.073-1.214 6.847-4.532 6.818-8.778l-.393-53.492 33.536-10.051.2-129.83 27.961-8.377c4.227 4.743 11.991 6.388 19.881 4.026l54.965-16.467c10.117-3.031 16.543-11.427 14.066-19.689l-2.237-7.478c-2.477-8.262-12.689-12.508-22.807-9.477l-54.965 16.467c-7.603 2.276-12.986 8.014-14.144 14.22l-41.826 12.527-.201 129.83-233.811 70.046c-12.479-31.671-47.325-49.047-80.516-39.102-35.018 10.49-54.908 47.392-44.408 82.41 10.48 35.037 47.382 54.927 82.4 44.427zm242.83-127.764.297 39.848-28.314 8.481-22.022-33.325 50.039-15.004zM55.207 313.526a38.478 38.478 0 0 1 11.006-1.616c14.87 0 28.372 8.845 34.607 22.061l-4.676 1.396-4.638 1.387c-4.934-9.189-14.63-15.29-25.293-15.29a28.91 28.91 0 0 0-8.262 1.214c-15.186 4.553-23.839 20.598-19.297 35.783 4.428 14.736 20.894 23.734 35.792 19.288 10.48-3.137 17.719-11.81 19.785-21.851l5.192-1.559 4.857-1.454c-1.1 15.425-11.427 29.329-27.09 34.023a38.529 38.529 0 0 1-11.006 1.616c-16.782 0-31.862-11.235-36.682-27.32-6.062-20.225 5.471-41.616 25.705-47.678z"/></svg>