<?xml version="1.0" encoding="iso-8859-1"?>
<!-- Generator: Adobe Illustrator 16.0.0, SVG Export Plug-In . SVG Version: 6.00 Build 0)  -->
<!DOCTYPE svg PUBLIC "-//W3C//DTD SVG 1.1//EN" "http://www.w3.org/Graphics/SVG/1.1/DTD/svg11.dtd">
<svg version="1.1" id="Capa_1" xmlns="http://www.w3.org/2000/svg" xmlns:xlink="http://www.w3.org/1999/xlink" x="0px" y="0px"
	 width="498.252px" height="498.252px" viewBox="0 0 498.252 498.252" style="enable-background:new 0 0 498.252 498.252;"
	 xml:space="preserve">
<g>
	<polygon points="352.629,248.539 350.851,109.318 66.883,194.396 141.939,311.661 	"/>
	<path d="M85.205,413.625c30.591-9.161,49.629-38.479,46.961-69.089l126.694-37.963l29.117,44.073
		c1.798,2.726,4.829,4.294,7.976,4.294c0.918,0,1.836,0.096,2.744-0.173l41.989-12.354c4.073-1.214,6.847-4.532,6.818-8.778
		l-0.393-53.492l33.536-10.051l0.2-129.83l27.961-8.377c4.227,4.743,11.991,6.388,19.881,4.026l54.965-16.467
		c10.117-3.031,16.543-11.427,14.066-19.689l-2.237-7.478c-2.477-8.262-12.689-12.508-22.807-9.477l-54.965,16.467
		c-7.603,2.276-12.986,8.014-14.144,14.22l-41.826,12.527l-0.201,129.83L127.729,325.89c-12.479-31.671-47.325-49.047-80.516-39.102
		c-35.018,10.49-54.908,47.392-44.408,82.41C13.285,404.235,50.187,424.125,85.205,413.625z M328.035,285.861l0.297,39.848
		l-28.314,8.481l-22.022-33.325L328.035,285.861z M55.207,313.526c3.586-1.071,7.296-1.616,11.006-1.616
		c14.87,0,28.372,8.845,34.607,22.061l-4.676,1.396l-4.638,1.387c-4.934-9.189-14.63-15.29-25.293-15.29
		c-2.792,0-5.565,0.411-8.262,1.214c-15.186,4.553-23.839,20.598-19.297,35.783c4.428,14.736,20.894,23.734,35.792,19.288
		c10.48-3.137,17.719-11.81,19.785-21.851l5.192-1.559l4.857-1.454c-1.1,15.425-11.427,29.329-27.09,34.023
		c-3.596,1.071-7.296,1.616-11.006,1.616c-16.782,0-31.862-11.235-36.682-27.32C23.44,340.979,34.973,319.588,55.207,313.526z"/>
</g>
<g>
</g>
<g>
</g>
<g>
</g>
<g>
</g>
<g>
</g>
<g>
</g>
<g>
</g>
<g>
</g>
<g>
</g>
<g>
</g>
<g>
</g>
<g>
</g>
<g>
</g>
<g>
</g>
<g>
</g>
</svg>
