<svg xmlns="http://www.w3.org/2000/svg" width="382.5" height="382.5" style="enable-background:new 0 0 382.5 382.5" xml:space="preserve"><path d="M346.708 0H33.421c-9.888 0-14.296 9.792-14.296 17.452v6.933c0 7.66 4.408 13.866 14.296 13.866h14.392V382.499h286.875V38.25h12.021c9.887 0 16.667-6.206 16.667-13.866v-6.933C363.375 9.792 356.595 0 346.708 0zm-24.72 38.25-2.84 2.84-2.85-2.84h5.69zm-27.051 0h7.841l9.601 9.601-13.521 13.521-13.521-13.521 9.6-9.601zM143.342 189.854l13.521-13.521 13.521 13.521-13.521 13.521-13.521-13.521zm6.761 20.282-13.521 13.521-13.521-13.521 13.521-13.521 13.521 13.521zm27.043-13.522 13.521 13.521-13.521 13.521-13.521-13.521 13.521-13.521zm6.76-6.76 13.521-13.521 13.521 13.521-13.521 13.521-13.521-13.521zm33.813 6.76 13.521 13.521-13.521 13.521-13.521-13.521 13.521-13.521zm6.76-6.76L238 176.333l13.521 13.521L238 203.375l-13.521-13.521zm0-40.574L238 135.759l13.521 13.521L238 162.801l-13.521-13.521zm6.761 20.282-13.521 13.521-13.521-13.521 13.521-13.521 13.521 13.521zm-33.812-6.76-13.521-13.521 13.521-13.521 13.521 13.521-13.521 13.521zm-6.761 6.76-13.521 13.521-13.521-13.521 13.521-13.521 13.521 13.521zm-33.804-6.76-13.521-13.521 13.521-13.521 13.521 13.521-13.521 13.521zm-6.76 6.76-13.521 13.521-13.521-13.521 13.521-13.521 13.521 13.521zm-33.813-6.76-13.521-13.521 13.521-13.521 13.521 13.521-13.521 13.521zm13.53 27.052-13.521 13.521-13.521-13.521 13.521-13.521 13.521 13.521zm-.009 40.564-13.521 13.521-13.521-13.521 13.521-13.521 13.521 13.521zm6.761 6.761 13.521 13.521-13.521 13.521L123.05 250.7l13.522-13.521zm6.77-6.761 13.521-13.521 13.521 13.521-13.521 13.521-13.521-13.521zm33.804 6.761 13.521 13.521-13.521 13.521-13.522-13.521 13.522-13.521zm6.76-6.761 13.521-13.521 13.521 13.521-13.521 13.521-13.521-13.521zm33.813 6.761L231.24 250.7l-13.521 13.521-13.522-13.521 13.522-13.521zm6.76-6.761L238 216.897l13.521 13.521L238 243.939l-13.521-13.521zm33.804 6.761 13.521 13.521-13.521 13.521-13.521-13.521 13.521-13.521zm-13.521-27.043 13.521-13.521 13.521 13.521-13.521 13.521-13.521-13.521zm0-40.574 13.521-13.521 13.521 13.521-13.521 13.521-13.521-13.521zm0-40.564 13.521-13.521 13.521 13.521-13.521 13.521-13.521-13.521zm-6.761-6.761-13.521-13.521 13.521-13.521 13.521 13.521-13.521 13.521zm-6.761 6.761-13.521 13.521-13.521-13.521 13.521-13.521 13.521 13.521zm-33.812-6.77-13.521-13.521 13.521-13.521 13.521 13.521-13.521 13.521zm-6.761 6.77-13.521 13.521-13.521-13.521 13.521-13.521 13.521 13.521zm-33.804-6.77-13.521-13.521 13.521-13.521 13.521 13.521-13.521 13.521zm-6.76 6.77-13.521 13.521-13.521-13.521 13.521-13.521 13.521 13.521zm-33.813-6.761-13.521-13.521 13.521-13.521 13.521 13.521-13.521 13.521zm-6.761 6.761L96.007 142.52l-13.521-13.521 13.521-13.521 13.522 13.52zm0 40.564-13.521 13.521-13.521-13.521 13.521-13.521 13.521 13.521zm0 40.574-13.521 13.521-13.521-13.521 13.521-13.521 13.521 13.521zm0 40.564-13.521 13.521L82.486 250.7l13.521-13.521 13.522 13.521zm0 40.573-13.521 13.521-13.521-13.521 13.521-13.521 13.521 13.521zm-6.761-20.281 13.521-13.521 13.521 13.521-13.521 13.521-13.521-13.521zm33.804 6.76 13.521 13.521-13.521 13.521-13.521-13.521 13.521-13.521zm6.77-6.76 13.521-13.521 13.521 13.521-13.521 13.521-13.521-13.521zm33.804 6.76 13.521 13.521-13.521 13.521-13.521-13.521 13.521-13.521zm6.76-6.76 13.521-13.521 13.521 13.521-13.521 13.521-13.521-13.521zm33.813 6.76 13.521 13.521-13.521 13.521-13.521-13.521 13.521-13.521zm6.76-6.76L238 257.471l13.521 13.521L238 284.513l-13.521-13.521zm33.814 6.76 13.521 13.521-13.521 13.521-13.521-13.521 13.521-13.521zm6.761-6.76 13.521-13.521 13.521 13.521-13.521 13.521-13.521-13.521zm0-40.574 13.521-13.521 13.521 13.521-13.521 13.521-13.521-13.521zm-.01-40.564 13.521-13.521 13.521 13.521-13.521 13.521-13.521-13.521zm0-40.574 13.521-13.521 13.521 13.521-13.521 13.521-13.521-13.521zm.01-40.573 13.521-13.521 13.521 13.521-13.521 13.521-13.521-13.521zm-.01-40.564 13.531-13.531 13.521 13.521-13.53 13.531-13.522-13.521zm6.77 20.281-13.521 13.521-13.521-13.521 13.521-13.521 13.521 13.521zm-33.813-6.76L224.48 68.143l13.521-13.521 13.521 13.521-13.521 13.521zm-6.761 6.76-13.521 13.521-13.521-13.521 13.521-13.521 13.521 13.521zm-33.812-6.76-13.521-13.521 13.521-13.521 13.521 13.521-13.521 13.521zm-6.761 6.76-13.521 13.521-13.521-13.521 13.521-13.521 13.521 13.521zm-33.804-6.76-13.521-13.521 13.521-13.521 13.521 13.521-13.521 13.521zm-6.76 6.76-13.521 13.521-13.522-13.521 13.521-13.521 13.522 13.521zm-33.813-6.76-13.521-13.521 13.521-13.521 13.521 13.521-13.521 13.521zm-6.761 6.76-13.521 13.521-13.522-13.521 13.521-13.521 13.522 13.521zm-33.813-6.76L62.194 68.143l13.521-13.521 13.521 13.521-13.52 13.521zm13.531 27.043-13.521 13.521-13.521-13.521 13.521-13.521 13.521 13.521zm0 40.573-13.521 13.521-13.522-13.521 13.521-13.521 13.522 13.521zm0 40.574-13.521 13.521-13.521-13.521 13.521-13.521 13.521 13.521zm0 40.564-13.521 13.521-13.521-13.521 13.521-13.521 13.521 13.521zm0 40.574-13.521 13.521-13.521-13.521 13.521-13.521 13.521 13.521zm0 40.564-13.521 13.521-13.521-13.521 13.521-13.521 13.521 13.521zm6.76 6.77 13.521 13.521-13.521 13.521-13.521-13.521 13.521-13.521zm6.761-6.77 13.521-13.521 13.521 13.521-13.521 13.521-13.521-13.521zm33.813 6.77 13.521 13.521-13.521 13.521-13.521-13.521 13.521-13.521zm6.761-6.761 13.521-13.521 13.521 13.521-13.521 13.521-13.521-13.521zm33.804 6.761 13.521 13.521-13.521 13.521-13.521-13.521 13.521-13.521zm6.76-6.761 13.521-13.521 13.521 13.521-13.521 13.521-13.521-13.521zm33.813 6.761 13.521 13.521-13.521 13.521-13.521-13.521 13.521-13.521zm6.76-6.761L238 298.044l13.521 13.521L238 325.086l-13.521-13.521zm33.804 6.761 13.521 13.521-13.521 13.521-13.521-13.521 13.521-13.521zm6.761-6.761 13.521-13.521 13.521 13.521-13.521 13.521-13.521-13.521zm33.812 6.761 13.521 13.521-13.521 13.521-13.521-13.521 13.521-13.521zm-13.52-27.053 13.521-13.521 13.521 13.521-13.521 13.521-13.521-13.521zm0-40.573 13.521-13.521 13.521 13.521-13.521 13.521-13.521-13.521zm0-40.564 13.521-13.521 13.521 13.521-13.521 13.521-13.521-13.521zm0-40.574 13.521-13.521 13.521 13.521-13.521 13.521-13.521-13.521zm0-40.564 13.521-13.521 13.521 13.521-13.521 13.521-13.521-13.521zm0-40.574 13.53-13.531 13.521 13.521-13.531 13.531-13.52-13.521zm-3.921-50.174-2.84 2.84-2.841-2.84h5.681zm-27.053 0h7.842l9.601 9.601-13.531 13.531-13.522-13.522 9.61-9.61zm-13.521 0-2.84 2.84-2.85-2.84h5.69zm-27.042 0h7.841l9.601 9.601-13.521 13.521-13.521-13.521 9.6-9.601zm-13.522 0-2.841 2.84-2.85-2.84h5.691zm-27.052 0h7.841l9.601 9.601-13.521 13.521-13.521-13.521 9.6-9.601zm-13.522 0-2.84 2.84-2.85-2.84h5.69zm-27.052 0h7.841l9.601 9.601-13.521 13.521-13.522-13.521 9.601-9.601zm-13.522 0-2.84 2.84-2.84-2.84h5.68zm-27.042 0h7.841l9.601 9.601-13.522 13.521-13.521-13.521 9.601-9.601zm-13.522 0-2.84 2.84-2.85-2.84h5.69zm-21.19 0h1.979l9.601 9.601-11.58 11.59V38.25zm0 38.594 11.58 11.58-11.58 11.581V76.844zm0 40.564 11.58 11.581-11.58 11.589v-23.17zm0 40.574 11.58 11.581-11.58 11.59v-23.171zm0 40.564 11.58 11.58-11.58 11.59v-23.17zm0 40.574 11.58 11.58-11.58 11.59v-23.17zm0 40.573 11.58 11.58-11.58 11.59v-23.17zm0 40.565 11.58 11.58-11.58 11.59v-23.17zm11.064 52.68H57.375v-12.106l11.59 11.58-.526.526zm-6.245-20.808 13.521-13.521 13.521 13.521-13.521 13.521-13.521-13.521zm46.819 20.808h-26.01l-.516-.517L96.008 358.9l13.521 13.521-.516.517zm-6.245-20.808 13.521-13.521 13.521 13.521-13.521 13.521-13.521-13.521zm46.809 20.808h-26.01l-.516-.517 13.521-13.521 13.521 13.521-.516.517zm-6.235-20.808 13.521-13.521 13.521 13.521-13.521 13.521-13.521-13.521zm46.808 20.808h-26.01l-.526-.517 13.521-13.521 13.521 13.521-.506.517zm-6.244-20.808 13.521-13.521 13.521 13.521-13.521 13.521-13.521-13.521zm46.818 20.808h-26.01l-.525-.526 13.521-13.521 13.521 13.521-.507.526zm-6.245-20.808L238 338.609l13.521 13.521L238 365.651l-13.521-13.521zm46.809 20.808h-26.01l-.517-.517 13.521-13.521 13.521 13.521-.515.517zm-6.244-20.808 13.521-13.521 13.521 13.521-13.521 13.521-13.521-13.521zm46.817 20.808h-26l-.517-.517 13.521-13.521 13.521 13.521-.525.517zm13.264-13.264-5.986 5.986-13.521-13.521 13.521-13.521 5.986 5.968v15.088zm0-40.573-5.977 5.977-13.521-13.521 13.521-13.521 5.977 5.986v15.079zm0-40.565-5.977 5.977-13.521-13.521 13.521-13.521 5.977 5.977v15.088zm0-40.573-5.986 5.977-13.521-13.521 13.521-13.521 5.986 5.986v15.079zm0-40.574-5.986 5.986-13.521-13.521 13.521-13.521 5.986 5.977v15.079zm0-40.564-5.977 5.977-13.521-13.521 13.521-13.521 5.977 5.977v15.088zm0-40.574-5.986 5.986-13.521-13.521 13.531-13.531 5.977 5.977v15.089zm0-40.573-5.977 5.977-13.521-13.521 13.521-13.521 5.977 5.986v15.079z"/></svg>