<svg xmlns="http://www.w3.org/2000/svg" width="506.822" height="506.822" style="enable-background:new 0 0 506.822 506.822" xml:space="preserve"><path d="M151.001.01c-14.86 26.278-23.706 58.408-23.706 93.234 0 78.862 44.924 144.27 104.011 157.562v200.038c0 17.346-13.626 24.451-22.797 27.291h-10.672c-7.918 0-14.344 6.426-14.344 14.344s6.426 14.344 14.344 14.344h105.188c7.918 0 14.344-6.426 14.344-14.344s-6.426-14.344-14.344-14.344h-9.688c-10.48-3.117-23.781-10.375-23.781-27.291V251.953c62.002-10.089 109.969-77.217 109.969-158.719 0-34.826-8.846-66.957-23.705-93.234H151v.01zm118.557 230.561a105.584 105.584 0 0 1-16.735 1.329c-7.736 0-14.851-.87-21.516-2.314-79.895-17.395-86.062-130.232-86.062-130.232 9.562-9.477 23.342-20.875 50.787-22.242 47.841-2.391 58.245 35.859 114.97 35.267 16.955-.191 44.619-4.198 44.619-9.668-.001 0-2.143 114.368-86.063 127.86z"/></svg>