<?xml version="1.0" encoding="iso-8859-1"?>
<!-- Generator: Adobe Illustrator 16.0.0, SVG Export Plug-In . SVG Version: 6.00 Build 0)  -->
<!DOCTYPE svg PUBLIC "-//W3C//DTD SVG 1.1//EN" "http://www.w3.org/Graphics/SVG/1.1/DTD/svg11.dtd">
<svg version="1.1" id="Capa_1" xmlns="http://www.w3.org/2000/svg" xmlns:xlink="http://www.w3.org/1999/xlink" x="0px" y="0px"
	 width="506.822px" height="506.822px" viewBox="0 0 506.822 506.822" style="enable-background:new 0 0 506.822 506.822;"
	 xml:space="preserve">
<g>
	<path d="M151.001,0.01c-14.86,26.278-23.706,58.408-23.706,93.234c0,78.862,44.924,144.27,104.011,157.562
		c0,77.647,0,183.771,0,200.038c0,17.346-13.626,24.451-22.797,27.291h-10.672c-7.918,0-14.344,6.426-14.344,14.344
		s6.426,14.344,14.344,14.344h44.322h14.745h46.121c7.918,0,14.344-6.426,14.344-14.344s-6.426-14.344-14.344-14.344h-9.688
		c-10.48-3.117-23.781-10.375-23.781-27.291c0-17.261,0-121.75,0-198.891c62.002-10.089,109.969-77.217,109.969-158.719
		c0-34.826-8.846-66.957-23.705-93.234h-204.82V0.01z M269.558,230.571c-5.26,0.841-10.816,1.329-16.735,1.329
		c-7.736,0-14.851-0.87-21.516-2.314c-79.895-17.395-86.062-130.232-86.062-130.232c9.562-9.477,23.342-20.875,50.787-22.242
		c47.841-2.391,58.245,35.859,114.97,35.267c16.955-0.191,44.619-4.198,44.619-9.668
		C355.62,102.711,353.478,217.079,269.558,230.571z"/>
</g>
<g>
</g>
<g>
</g>
<g>
</g>
<g>
</g>
<g>
</g>
<g>
</g>
<g>
</g>
<g>
</g>
<g>
</g>
<g>
</g>
<g>
</g>
<g>
</g>
<g>
</g>
<g>
</g>
<g>
</g>
</svg>
