<?xml version="1.0" encoding="iso-8859-1"?>
<!-- Generator: Adobe Illustrator 16.0.0, SVG Export Plug-In . SVG Version: 6.00 Build 0)  -->
<!DOCTYPE svg PUBLIC "-//W3C//DTD SVG 1.1//EN" "http://www.w3.org/Graphics/SVG/1.1/DTD/svg11.dtd">
<svg version="1.1" id="Capa_1" xmlns="http://www.w3.org/2000/svg" xmlns:xlink="http://www.w3.org/1999/xlink" x="0px" y="0px"
	 width="537.891px" height="537.891px" viewBox="0 0 537.891 537.891" style="enable-background:new 0 0 537.891 537.891;"
	 xml:space="preserve">
<g>
	<g>
		<path d="M0,332.058L0,332.058C0.478,332.058,0.478,332.058,0,332.058C0,331.58,0,332.058,0,332.058z"/>
		<path d="M255.319,180.97c-1.913,40.163-35.381,72.197-75.544,72.197c-42.075,0-76.978-31.078-76.978-72.675H84.15
			c0.479,50.203,39.207,88.932,88.932,91.8v69.328c-6.216,35.859-37.294,63.112-74.588,63.112
			c-41.119,0-74.587-32.034-76.021-72.196H1.435c0.478,52.594,43.509,91.8,96.103,91.8c37.294,0,69.328-21.037,85.584-52.115
			c15.778,31.078,48.291,52.115,86.541,52.115c37.294,0,69.328-21.037,85.583-52.115c15.779,31.078,48.291,52.115,86.541,52.115
			c53.072,0,96.104-43.031,96.104-95.625h-20.082c0,41.597-33.945,76.021-76.021,76.021c-41.119,0-75.064-32.512-76.021-73.152
			c0-0.957,0-59.766,0-59.766c46.379-6.694,82.238-46.379,82.238-94.669l0,0h-20.082c0,41.597-33.947,76.5-76.021,76.5
			c-41.119,0-75.066-32.513-76.021-73.153c0-0.956,0-2.869,0-2.869h-20.082L255.319,180.97z M269.663,404.732
			c-41.119,0-75.065-32.512-76.022-73.152c0-0.957,0-59.766,0-59.766c31.078-4.781,57.375-23.906,71.241-51.16
			c14.822,29.645,44.943,49.726,80.326,51.638v60.244C343.293,372.698,310.303,404.732,269.663,404.732z"/>
		<path d="M96.103,388.477c33.947,0,61.678-27.731,61.678-61.678c0-33.947-27.731-61.679-61.678-61.679
			c-33.947,0-61.678,27.731-61.678,61.679C34.903,361.224,62.156,388.477,96.103,388.477z M96.103,301.458
			c13.866,0,25.341,11.475,25.341,25.341c0,13.865-10.997,25.818-25.341,25.818s-25.34-11.475-25.34-25.341
			C70.763,313.411,82.238,301.458,96.103,301.458z"/>
		<circle cx="96.103" cy="327.276" r="15.3"/>
		<path d="M268.228,265.599c-33.947,0-61.678,27.731-61.678,61.678c0,33.947,27.731,61.679,61.678,61.679
			c33.948,0,61.678-27.731,61.678-61.679C329.906,292.852,302.176,265.599,268.228,265.599z M268.228,352.617
			c-13.865,0-25.34-11.475-25.34-25.341c0-13.865,11.475-25.341,25.34-25.341c13.866,0,25.34,11.476,25.34,25.341
			C293.568,341.143,282.094,352.617,268.228,352.617z"/>
		<circle cx="268.228" cy="327.276" r="15.3"/>
		<path d="M378.197,327.276c0,33.947,27.73,61.679,61.678,61.679s61.678-27.731,61.678-61.679c0-33.946-27.73-61.678-61.678-61.678
			S378.197,292.852,378.197,327.276z M465.693,327.276c0,13.866-11.475,25.341-25.34,25.341s-25.342-11.475-25.342-25.341
			c0-13.865,11.477-25.341,25.342-25.341C454.219,301.458,465.693,312.933,465.693,327.276z"/>
		<circle cx="439.875" cy="327.276" r="15.3"/>
		<path d="M349.988,114.033c-33.947,0-61.68,27.731-61.68,61.678s27.732,61.678,61.68,61.678c33.945,0,61.678-27.731,61.678-61.678
			C411.666,141.286,383.934,114.033,349.988,114.033z M349.988,201.052c-13.867,0-25.342-11.475-25.342-25.341
			s11.475-25.341,25.342-25.341c13.865,0,25.34,11.475,25.34,25.341S363.854,201.052,349.988,201.052z"/>
		<circle cx="349.988" cy="175.233" r="15.3"/>
		<path d="M116.663,175.233c0,33.947,27.731,61.678,61.678,61.678s61.678-27.731,61.678-61.678s-27.731-61.678-61.678-61.678
			S116.663,141.286,116.663,175.233z M203.681,175.233c0,13.866-11.475,25.34-25.34,25.34S153,189.099,153,175.233
			s11.475-25.341,25.341-25.341S203.681,161.367,203.681,175.233z"/>
		<circle cx="177.863" cy="175.233" r="15.3"/>
	</g>
</g>
<g>
</g>
<g>
</g>
<g>
</g>
<g>
</g>
<g>
</g>
<g>
</g>
<g>
</g>
<g>
</g>
<g>
</g>
<g>
</g>
<g>
</g>
<g>
</g>
<g>
</g>
<g>
</g>
<g>
</g>
</svg>
