<svg xmlns="http://www.w3.org/2000/svg" width="537.891" height="537.891" style="enable-background:new 0 0 537.891 537.891" xml:space="preserve"><path d="M0 332.058c.478 0 .478 0 0 0 0-.478 0 0 0 0zM255.319 180.97c-1.913 40.163-35.381 72.197-75.544 72.197-42.075 0-76.978-31.078-76.978-72.675H84.15c.479 50.203 39.207 88.932 88.932 91.8v69.328c-6.216 35.859-37.294 63.112-74.588 63.112-41.119 0-74.587-32.034-76.021-72.196H1.435c.478 52.594 43.509 91.8 96.103 91.8 37.294 0 69.328-21.037 85.584-52.115 15.778 31.078 48.291 52.115 86.541 52.115 37.294 0 69.328-21.037 85.583-52.115 15.779 31.078 48.291 52.115 86.541 52.115 53.072 0 96.104-43.031 96.104-95.625h-20.082c0 41.597-33.945 76.021-76.021 76.021-41.119 0-75.064-32.512-76.021-73.152v-59.766c46.379-6.694 82.238-46.379 82.238-94.669h-20.082c0 41.597-33.947 76.5-76.021 76.5-41.119 0-75.066-32.513-76.021-73.153v-2.869h-20.082l-.48 3.347zm14.344 223.762c-41.119 0-75.065-32.512-76.022-73.152v-59.766c31.078-4.781 57.375-23.906 71.241-51.16 14.822 29.645 44.943 49.726 80.326 51.638v60.244c-1.915 40.162-34.905 72.196-75.545 72.196z"/><path d="M96.103 388.477c33.947 0 61.678-27.731 61.678-61.678 0-33.947-27.731-61.679-61.678-61.679-33.947 0-61.678 27.731-61.678 61.679.478 34.425 27.731 61.678 61.678 61.678zm0-87.019c13.866 0 25.341 11.475 25.341 25.341 0 13.865-10.997 25.818-25.341 25.818s-25.34-11.475-25.34-25.341c0-13.865 11.475-25.818 25.34-25.818z"/><circle cx="96.103" cy="327.276" r="15.3"/><path d="M268.228 265.599c-33.947 0-61.678 27.731-61.678 61.678 0 33.947 27.731 61.679 61.678 61.679 33.948 0 61.678-27.731 61.678-61.679 0-34.425-27.73-61.678-61.678-61.678zm0 87.018c-13.865 0-25.34-11.475-25.34-25.341 0-13.865 11.475-25.341 25.34-25.341 13.866 0 25.34 11.476 25.34 25.341 0 13.867-11.474 25.341-25.34 25.341z"/><circle cx="268.228" cy="327.276" r="15.3"/><path d="M378.197 327.276c0 33.947 27.73 61.679 61.678 61.679s61.678-27.731 61.678-61.679c0-33.946-27.73-61.678-61.678-61.678s-61.678 27.254-61.678 61.678zm87.496 0c0 13.866-11.475 25.341-25.34 25.341s-25.342-11.475-25.342-25.341c0-13.865 11.477-25.341 25.342-25.341 13.866-.477 25.34 10.998 25.34 25.341z"/><circle cx="439.875" cy="327.276" r="15.3"/><path d="M349.988 114.033c-33.947 0-61.68 27.731-61.68 61.678s27.732 61.678 61.68 61.678c33.945 0 61.678-27.731 61.678-61.678 0-34.425-27.732-61.678-61.678-61.678zm0 87.019c-13.867 0-25.342-11.475-25.342-25.341s11.475-25.341 25.342-25.341c13.865 0 25.34 11.475 25.34 25.341s-11.474 25.341-25.34 25.341z"/><circle cx="349.988" cy="175.233" r="15.3"/><path d="M116.663 175.233c0 33.947 27.731 61.678 61.678 61.678s61.678-27.731 61.678-61.678-27.731-61.678-61.678-61.678-61.678 27.731-61.678 61.678zm87.018 0c0 13.866-11.475 25.34-25.34 25.34S153 189.099 153 175.233s11.475-25.341 25.341-25.341 25.34 11.475 25.34 25.341z"/><circle cx="177.863" cy="175.233" r="15.3"/></svg>