<?xml version="1.0" encoding="iso-8859-1"?>
<!-- Generator: Adobe Illustrator 16.0.0, SVG Export Plug-In . SVG Version: 6.00 Build 0)  -->
<!DOCTYPE svg PUBLIC "-//W3C//DTD SVG 1.1//EN" "http://www.w3.org/Graphics/SVG/1.1/DTD/svg11.dtd">
<svg version="1.1" id="Capa_1" xmlns="http://www.w3.org/2000/svg" xmlns:xlink="http://www.w3.org/1999/xlink" x="0px" y="0px"
	 width="573.75px" height="573.75px" viewBox="0 0 573.75 573.75" style="enable-background:new 0 0 573.75 573.75;"
	 xml:space="preserve">
<g>
	<rect x="19.125" y="235.391" width="47.812" height="133.875"/>
	<rect x="19.125" y="426.641" width="47.812" height="38.25"/>
	<polygon points="66.938,136.753 43.031,108.859 19.125,136.753 19.125,178.016 66.938,178.016 	"/>
	<rect x="143.438" y="426.641" width="47.812" height="38.25"/>
	<polygon points="191.25,136.753 167.344,108.859 143.438,136.753 143.438,178.016 191.25,178.016 	"/>
	<rect x="143.438" y="235.391" width="47.812" height="133.875"/>
	<rect x="267.75" y="235.391" width="47.812" height="133.875"/>
	<rect x="267.75" y="426.641" width="47.812" height="38.25"/>
	<polygon points="315.562,136.753 291.656,108.859 267.75,136.753 267.75,178.016 315.562,178.016 	"/>
	<rect x="392.062" y="426.641" width="47.812" height="38.25"/>
	<rect x="392.062" y="235.391" width="47.812" height="133.875"/>
	<polygon points="439.875,136.753 415.969,108.859 392.062,136.753 392.062,178.016 439.875,178.016 	"/>
	<rect x="516.375" y="235.391" width="47.812" height="133.875"/>
	<rect x="516.375" y="426.641" width="47.812" height="38.25"/>
	<polygon points="564.188,136.753 540.281,108.859 516.375,136.753 516.375,178.016 564.188,178.016 	"/>
	<polygon points="516.375,187.578 506.812,187.578 449.438,187.578 439.875,187.578 392.062,187.578 382.5,187.578 325.125,187.578 
		315.562,187.578 267.75,187.578 258.188,187.578 200.812,187.578 191.25,187.578 143.438,187.578 133.875,187.578 76.5,187.578 
		66.938,187.578 19.125,187.578 9.562,187.578 0,187.578 0,225.828 9.562,225.828 19.125,225.828 66.938,225.828 76.5,225.828 
		133.875,225.828 143.438,225.828 191.25,225.828 200.812,225.828 258.188,225.828 267.75,225.828 315.562,225.828 325.125,225.828 
		382.5,225.828 392.062,225.828 439.875,225.828 449.438,225.828 506.812,225.828 516.375,225.828 564.188,225.828 573.75,225.828 
		573.75,187.578 564.188,187.578 	"/>
	<polygon points="516.375,378.828 506.812,378.828 449.438,378.828 439.875,378.828 392.062,378.828 382.5,378.828 325.125,378.828 
		315.562,378.828 267.75,378.828 258.188,378.828 200.812,378.828 191.25,378.828 143.438,378.828 133.875,378.828 76.5,378.828 
		66.938,378.828 19.125,378.828 9.562,378.828 0,378.828 0,417.078 9.562,417.078 19.125,417.078 66.938,417.078 76.5,417.078 
		133.875,417.078 143.438,417.078 191.25,417.078 200.812,417.078 258.188,417.078 267.75,417.078 315.562,417.078 325.125,417.078 
		382.5,417.078 392.062,417.078 439.875,417.078 449.438,417.078 506.812,417.078 516.375,417.078 564.188,417.078 573.75,417.078 
		573.75,378.828 564.188,378.828 	"/>
</g>
<g>
</g>
<g>
</g>
<g>
</g>
<g>
</g>
<g>
</g>
<g>
</g>
<g>
</g>
<g>
</g>
<g>
</g>
<g>
</g>
<g>
</g>
<g>
</g>
<g>
</g>
<g>
</g>
<g>
</g>
</svg>
