<svg xmlns="http://www.w3.org/2000/svg" width="573.75" height="573.75" style="enable-background:new 0 0 573.75 573.75" xml:space="preserve"><path d="M19.125 235.391h47.812v133.875H19.125zM19.125 426.641h47.812v38.25H19.125zM66.938 136.753l-23.907-27.894-23.906 27.894v41.263h47.813zM143.438 426.641h47.812v38.25h-47.812zM191.25 136.753l-23.906-27.894-23.906 27.894v41.263h47.812zM143.438 235.391h47.812v133.875h-47.812zM267.75 235.391h47.812v133.875H267.75zM267.75 426.641h47.812v38.25H267.75zM315.562 136.753l-23.906-27.894-23.906 27.894v41.263h47.812zM392.062 426.641h47.812v38.25h-47.812zM392.062 235.391h47.812v133.875h-47.812zM439.875 136.753l-23.906-27.894-23.907 27.894v41.263h47.813zM516.375 235.391h47.812v133.875h-47.812zM516.375 426.641h47.812v38.25h-47.812zM564.188 136.753l-23.907-27.894-23.906 27.894v41.263h47.813zM516.375 187.578H0v38.25h573.75v-38.25h-9.562zM516.375 378.828H0v38.25h573.75v-38.25h-9.562z"/></svg>