<?xml version="1.0" encoding="iso-8859-1"?>
<!-- Generator: Adobe Illustrator 16.0.0, SVG Export Plug-In . SVG Version: 6.00 Build 0)  -->
<!DOCTYPE svg PUBLIC "-//W3C//DTD SVG 1.1//EN" "http://www.w3.org/Graphics/SVG/1.1/DTD/svg11.dtd">
<svg version="1.1" id="Capa_1" xmlns="http://www.w3.org/2000/svg" xmlns:xlink="http://www.w3.org/1999/xlink" x="0px" y="0px"
	 width="524.398px" height="524.398px" viewBox="0 0 524.398 524.398" style="enable-background:new 0 0 524.398 524.398;"
	 xml:space="preserve">
<g>
	<g>
		<path d="M524.398,214.387c-16.381-27.674-46.455-46.292-80.947-46.292c-38.394,0-71.355,23.017-85.985,55.979
			c-0.431-0.01-0.832-0.125-1.263-0.125H35.859C16.056,223.949,0,240.005,0,259.809v4.781c0,19.804,16.056,35.859,35.859,35.859
			h320.344c0.431,0,0.832-0.115,1.253-0.124c14.64,32.962,47.602,55.979,85.985,55.979c34.492,0,64.566-18.618,80.947-46.292
			h-96.218l-25.59-47.812l25.59-47.812H524.398z"/>
	</g>
</g>
<g>
</g>
<g>
</g>
<g>
</g>
<g>
</g>
<g>
</g>
<g>
</g>
<g>
</g>
<g>
</g>
<g>
</g>
<g>
</g>
<g>
</g>
<g>
</g>
<g>
</g>
<g>
</g>
<g>
</g>
</svg>
