<svg xmlns="http://www.w3.org/2000/svg" width="524.398" height="524.398" style="enable-background:new 0 0 524.398 524.398" xml:space="preserve"><path d="M524.398 214.387c-16.381-27.674-46.455-46.292-80.947-46.292-38.394 0-71.355 23.017-85.985 55.979-.431-.01-.832-.125-1.263-.125H35.859C16.056 223.949 0 240.005 0 259.809v4.781c0 19.804 16.056 35.859 35.859 35.859h320.344c.431 0 .832-.115 1.253-.124 14.64 32.962 47.602 55.979 85.985 55.979 34.492 0 64.566-18.618 80.947-46.292H428.17L402.58 262.2l25.59-47.812h96.228z"/></svg>