<?xml version="1.0" encoding="iso-8859-1"?>
<!-- Generator: Adobe Illustrator 16.0.0, SVG Export Plug-In . SVG Version: 6.00 Build 0)  -->
<!DOCTYPE svg PUBLIC "-//W3C//DTD SVG 1.1//EN" "http://www.w3.org/Graphics/SVG/1.1/DTD/svg11.dtd">
<svg version="1.1" id="Capa_1" xmlns="http://www.w3.org/2000/svg" xmlns:xlink="http://www.w3.org/1999/xlink" x="0px" y="0px"
	 width="574.171px" height="574.171px" viewBox="0 0 574.171 574.171" style="enable-background:new 0 0 574.171 574.171;"
	 xml:space="preserve">
<g>
	<polygon points="368.357,440.296 205.795,440.296 224.92,574.171 349.232,574.171 	"/>
	<path d="M182.759,276.873c-15.291,39.972,88.08,39.972,70.36,0c4.266,9.63,11.571,12.575,19.613,11.342v113.832h-87.66
		l11.16,28.688H377.92l13.55-28.688h-90.05V286.885c10.566,3.528,20.311,1.654,24.776-10.013c-15.29,39.972,88.08,39.972,70.361,0
		c17.719,39.972,87.41-34.463,47.439-50.662c39.971,16.199,39.971-87.171,0-70.36c35.285-14.841-14.88-73.067-39.312-59.01
		c-3.825-13.283-12.364-22.539-25.608-18.169c-0.144-0.038-0.277-0.086-0.421-0.125c36.29-18.12-31.575-87.965-49.027-48.567
		c17.72-39.972-85.651-39.972-70.36,0c-14.946-39.072-89.065,29.338-55.052,48.128c-0.249,0.058-0.507,0.105-0.746,0.162
		c-13.406-3.681-21.773,6.934-25.102,21.152c-21.773-22.348-85.192,40.88-48.194,56.438c-39.972-16.812-39.972,86.56,0,70.36
		C90.184,242.41,167.468,316.844,182.759,276.873z"/>
</g>
<g>
</g>
<g>
</g>
<g>
</g>
<g>
</g>
<g>
</g>
<g>
</g>
<g>
</g>
<g>
</g>
<g>
</g>
<g>
</g>
<g>
</g>
<g>
</g>
<g>
</g>
<g>
</g>
<g>
</g>
</svg>
