<svg xmlns="http://www.w3.org/2000/svg" width="372.938" height="372.938" style="enable-background:new 0 0 372.938 372.938" xml:space="preserve"><path d="M191.728 133.875c15.778 0 28.688-12.909 28.688-28.688S207.506 76.5 191.728 76.5s-28.688 12.909-28.688 28.688 12.91 28.687 28.688 28.687zm0-38.25c5.26 0 9.562 4.303 9.562 9.562s-4.303 9.562-9.562 9.562c-5.259 0-9.562-4.303-9.562-9.562s4.303-9.562 9.562-9.562z"/><path d="M191.728 158.26c29.166 0 53.072-23.907 53.072-53.072s-23.906-53.072-53.072-53.072c-29.166 0-53.072 23.906-53.072 53.072s23.906 53.072 53.072 53.072zm0-87.019c18.647 0 33.947 15.3 33.947 33.947s-15.3 33.947-33.947 33.947c-18.646 0-33.947-15.3-33.947-33.947s15.301-33.947 33.947-33.947z"/><path d="M191.728 184.557c43.51 0 79.369-35.382 79.369-79.369s-35.382-79.369-79.369-79.369-78.891 35.859-78.891 79.369 35.382 79.369 78.891 79.369zm0-139.613c32.991 0 60.244 26.775 60.244 60.244s-26.775 60.244-60.244 60.244-59.766-27.253-59.766-60.244 26.776-60.244 59.766-60.244z"/><path d="M191.728 210.375c57.854 0 105.188-47.334 105.188-105.188C296.916 47.334 249.582 0 191.728 0 133.875 0 86.541 47.334 86.541 105.188l-.956 191.25h19.125v-132.44c19.124 27.731 51.159 46.377 87.018 46.377zm0-191.25c47.335 0 86.062 38.728 86.062 86.062s-38.728 86.062-86.062 86.062c-47.334 0-86.062-38.728-86.062-86.062s38.728-86.062 86.062-86.062zM76.022 306h38.25v9.562h-38.25zM76.022 368.156c0 2.869 1.913 4.781 4.781 4.781h28.688c2.869 0 4.781-1.912 4.781-4.781s-1.913-4.781-4.781-4.781h-4.781l5.259-38.25H80.325l5.259 38.25h-4.781c-2.868 0-4.781 1.912-4.781 4.781z"/></svg>