<svg xmlns="http://www.w3.org/2000/svg" width="583.312" height="583.312" style="enable-background:new 0 0 583.312 583.312" xml:space="preserve"><path d="m192.216 545.062 25.503 38.25h157.437l25.503-38.25 6.368-9.562h-221.18zM430.312 38.25c-15.845 0-28.688 12.842-28.688 28.688V153c0 26.622-23.782 28.688-31.078 28.688h-35.859V37.055C334.688 16.591 318.097 0 297.633 0h-2.391c-20.464 0-37.055 16.591-37.055 37.055v202.008h-45.422c-25.016 0-30.715-15.797-31.078-28.688v-86.062c0-15.845-12.842-28.688-28.688-28.688s-28.688 12.842-28.688 28.688v86.062c0 34.597 23.562 86.062 88.453 86.062h45.422v105.188h76.5V239.062h35.859C435.438 239.062 459 187.597 459 153V66.938c0-15.846-12.843-28.688-28.688-28.688zM431.508 411.188h-270.14a8.37 8.37 0 0 0-8.367 8.367v2.391a8.37 8.37 0 0 0 8.367 8.367h20.32v95.625h229.5v-95.625h20.32a8.37 8.37 0 0 0 8.367-8.367v-2.391a8.37 8.37 0 0 0-8.367-8.367z"/></svg>