<svg xmlns="http://www.w3.org/2000/svg" width="573.75" height="573.75" style="enable-background:new 0 0 573.75 573.75" xml:space="preserve"><path d="m344.25 573.75 19.125-133.875H200.812l19.126 133.875zM296.438 315.084c82.658-4.972 148.219-73.382 148.219-157.303C444.656 70.638 374.018 0 286.875 0c-87.143 0-157.781 70.638-157.781 157.781 0 80.65 60.55 147.052 138.656 156.51v87.334h-87.66l11.16 28.688h181.688l13.55-28.688h-90.05v-86.541zm-9.563.478h-17.193l.048-.966 3.873-75.534.201-3.854-70.6-77.428 71.776 54.411 4.073-79.464-50.748-49.056 51.513 34.052 3.471-67.779 3.586 72.446 2.668 53.904 96.944-35.248-95.615 61.965 1.778 36.051 3.759 76.5h-9.534z"/></svg>