<?xml version="1.0" encoding="iso-8859-1"?>
<!-- Generator: Adobe Illustrator 16.0.0, SVG Export Plug-In . SVG Version: 6.00 Build 0)  -->
<!DOCTYPE svg PUBLIC "-//W3C//DTD SVG 1.1//EN" "http://www.w3.org/Graphics/SVG/1.1/DTD/svg11.dtd">
<svg version="1.1" id="Capa_1" xmlns="http://www.w3.org/2000/svg" xmlns:xlink="http://www.w3.org/1999/xlink" x="0px" y="0px"
	 width="508.397px" height="508.396px" viewBox="0 0 508.397 508.396" style="enable-background:new 0 0 508.397 508.396;"
	 xml:space="preserve">
<g>
	<path d="M428.958,267.075H142.552L16.241,143.632c-3.777-3.682-9.821-3.615-13.521,0.163c-3.691,3.777-3.614,9.83,0.163,13.521
		L134.75,286.2h12.087l-47.898,73.908c-1.435,2.209-0.803,5.174,1.405,6.608c0.804,0.516,1.702,0.765,2.592,0.765
		c1.568,0,3.098-0.765,4.016-2.189l32.685-50.404h257.203c0.172,0,0.325-0.076,0.487-0.096l25.532,50.089
		c0.852,1.645,2.524,2.601,4.265,2.601c0.727,0,1.473-0.172,2.171-0.526c2.353-1.195,3.29-4.083,2.085-6.436L393.492,286.2h28.602
		l70.657,58.369c1.788,1.473,3.939,2.19,6.082,2.19c2.754,0,5.488-1.186,7.372-3.472c3.366-4.073,2.792-10.098-1.281-13.454
		L428.958,267.075z M392.506,305.325H145.833l12.393-19.125h224.527L392.506,305.325z"/>
</g>
<g>
</g>
<g>
</g>
<g>
</g>
<g>
</g>
<g>
</g>
<g>
</g>
<g>
</g>
<g>
</g>
<g>
</g>
<g>
</g>
<g>
</g>
<g>
</g>
<g>
</g>
<g>
</g>
<g>
</g>
</svg>
