<svg xmlns="http://www.w3.org/2000/svg" width="542.193" height="542.193" style="enable-background:new 0 0 542.193 542.193" xml:space="preserve"><path d="M354.29 447.047c-.479-5.26-.479-10.041-.479-15.777V150.132c0-43.509-14.344-71.241-43.031-83.672-6.693 6.694-15.777 10.997-25.34 10.997h-38.728c-8.128 0-16.256-3.347-22.472-8.606-6.694 3.347-12.432 7.65-17.691 12.909-19.603 21.038-18.647 48.769-18.647 49.247v296.437c0 66.459-17.69 99.928-29.166 114.75 26.775-4.303 87.975-23.428 87.975-113.793 0-80.326.478-209.419.478-209.419s-.956-13.866 4.781-21.038c3.825-4.781 9.562-7.172 16.734-7.172s12.91 2.391 16.734 7.172c5.26 7.172 4.781 21.994 4.781 21.994s.481 139.134.481 208.462c0 45.422 17.689 78.412 53.072 98.494 14.82 8.127 29.164 12.43 39.684 14.82-10.996-13.865-26.297-42.553-29.166-93.711v-.956z"/><path d="M228.543 59.766c1.913 1.913 3.825 3.347 6.216 4.781 3.825 1.913 7.65 3.347 11.953 3.347h38.728c5.26 0 10.52-1.913 14.822-5.26.955-.956 1.912-1.434 2.869-2.391 1.912-1.434 3.346-3.347 4.781-5.259 4.303-5.737 6.693-13.387 6.693-21.038C314.606 15.3 301.218 0 285.44 0h-38.728c-15.778 0-29.166 15.778-29.166 33.947 0 9.084 3.347 17.691 8.606 23.906.957.479 1.435 1.435 2.391 1.913z"/></svg>