<svg xmlns="http://www.w3.org/2000/svg" width="556.888" height="556.889" style="enable-background:new 0 0 556.888 556.889" xml:space="preserve"><path d="m222.427 289.256 17.633 77.246-22.845 44.818c-7.182-.152-14.152 3.691-17.557 10.549L149.293 524.98c-4.705 9.457-.851 20.943 8.606 25.646l8.559 4.256c9.458 4.705 20.942.852 25.646-8.605l50.356-103.104c2.878-5.785 2.524-12.307-.325-17.586l25.273-49.59.22-.078 11.035-21.82 23.419 6.178.144-.115 33.908 9.246c.354 7.842 5.47 14.994 13.407 17.434l109.911 32.951c10.098 3.107 20.799-2.553 23.906-12.65L486.17 398c3.107-10.098-2.554-20.797-12.651-23.906l-109.911-32.951c-5.346-1.645-10.825-.775-15.291 1.846l-42.065-11.477-45.833-56.781-51.762-222.683L156.379 0l46.435 203.385L69.867 38.68l8.97 72.685 143.59 177.891zm-6.235-39.665c-2.075-4.8.134-10.366 4.935-12.441s10.366.134 12.441 4.934c2.075 4.8-.134 10.366-4.935 12.441s-10.366-.134-12.441-4.934z"/></svg>