<?xml version="1.0" encoding="iso-8859-1"?>
<!-- Generator: Adobe Illustrator 16.0.0, SVG Export Plug-In . SVG Version: 6.00 Build 0)  -->
<!DOCTYPE svg PUBLIC "-//W3C//DTD SVG 1.1//EN" "http://www.w3.org/Graphics/SVG/1.1/DTD/svg11.dtd">
<svg version="1.1" id="Capa_1" xmlns="http://www.w3.org/2000/svg" xmlns:xlink="http://www.w3.org/1999/xlink" x="0px" y="0px"
	 width="583.312px" height="583.312px" viewBox="0 0 583.312 583.312" style="enable-background:new 0 0 583.312 583.312;"
	 xml:space="preserve">
<g>
	<polygon points="192.216,545.062 217.719,583.312 375.156,583.312 400.659,545.062 407.027,535.5 185.847,535.5 	"/>
	<path d="M430.312,38.25c-15.845,0-28.688,12.842-28.688,28.688V153c0,26.622-23.782,28.688-31.078,28.688h-35.859V37.055
		C334.688,16.591,318.097,0,297.633,0h-2.391c-20.464,0-37.055,16.591-37.055,37.055v202.008h-45.422
		c-25.016,0-30.715-15.797-31.078-28.688v-86.062c0-15.845-12.842-28.688-28.688-28.688s-28.688,12.842-28.688,28.688v86.062
		c0,34.597,23.562,86.062,88.453,86.062h45.422v105.188h76.5V239.062h35.859C435.438,239.062,459,187.597,459,153V66.938
		C459,51.092,446.157,38.25,430.312,38.25z"/>
	<path d="M431.508,411.188H420.75h-9.562h-76.5h-76.5h-76.5h-9.562h-10.758c-4.619,0-8.367,3.748-8.367,8.367v2.391
		c0,4.619,3.749,8.367,8.367,8.367h10.758h9.562v95.625h229.5v-95.625h9.562h10.758c4.619,0,8.367-3.748,8.367-8.367v-2.391
		C439.875,414.936,436.127,411.188,431.508,411.188z"/>
</g>
<g>
</g>
<g>
</g>
<g>
</g>
<g>
</g>
<g>
</g>
<g>
</g>
<g>
</g>
<g>
</g>
<g>
</g>
<g>
</g>
<g>
</g>
<g>
</g>
<g>
</g>
<g>
</g>
<g>
</g>
</svg>
