<svg xmlns="http://www.w3.org/2000/svg" width="574.171" height="574.171" style="enable-background:new 0 0 574.171 574.171" xml:space="preserve"><path d="M368.357 440.296H205.795l19.125 133.875h124.312zM182.759 276.873c-15.291 39.972 88.08 39.972 70.36 0 4.266 9.63 11.571 12.575 19.613 11.342v113.832h-87.66l11.16 28.688H377.92l13.55-28.688h-90.05V286.885c10.566 3.528 20.311 1.654 24.776-10.013-15.29 39.972 88.08 39.972 70.361 0 17.719 39.972 87.41-34.463 47.439-50.662 39.971 16.199 39.971-87.171 0-70.36 35.285-14.841-14.88-73.067-39.312-59.01-3.825-13.283-12.364-22.539-25.608-18.169-.144-.038-.277-.086-.421-.125 36.29-18.12-31.575-87.965-49.027-48.567 17.72-39.972-85.651-39.972-70.36 0-14.946-39.072-89.065 29.338-55.052 48.128-.249.058-.507.105-.746.162-13.406-3.681-21.773 6.934-25.102 21.152-21.773-22.348-85.192 40.88-48.194 56.438-39.972-16.812-39.972 86.56 0 70.36-39.99 16.191 37.294 90.625 52.585 50.654z"/></svg>