<?xml version="1.0" encoding="iso-8859-1"?>
<!-- Generator: Adobe Illustrator 16.0.0, SVG Export Plug-In . SVG Version: 6.00 Build 0)  -->
<!DOCTYPE svg PUBLIC "-//W3C//DTD SVG 1.1//EN" "http://www.w3.org/Graphics/SVG/1.1/DTD/svg11.dtd">
<svg version="1.1" id="Capa_1" xmlns="http://www.w3.org/2000/svg" xmlns:xlink="http://www.w3.org/1999/xlink" x="0px" y="0px"
	 width="546.211px" height="546.211px" viewBox="0 0 546.211 546.211" style="enable-background:new 0 0 546.211 546.211;"
	 xml:space="preserve">
<g>
	<path d="M113.526,360.163h328.951v52.02H113.526V360.163z M529.074,420.75H17.136C7.65,420.75,0,428.4,0,437.886
		s7.65,17.136,17.136,17.136h10.098v60.589h493.272v-60.589h8.568c9.486,0,17.137-7.649,17.137-17.136
		S538.561,420.75,529.074,420.75z M148.41,279.684c0,12.853,10.404,23.868,23.868,23.868c8.568,0,15.912-4.284,20.196-11.628
		c8.568,16.218,16.218,36.72,16.218,58.752h155.753c0-24.479,5.814-44.37,12.547-59.67c4.283,7.038,11.934,11.934,20.502,11.934
		c12.852,0,23.867-10.403,23.867-23.867c0-12.546-9.484-22.95-22.031-23.562h-1.836c-1.836,0-3.979,0-5.814,0
		c-5.201,0-10.404,0-15.912,0c-7.955,0-15.605,0-23.561,0c-9.486,0-19.279,0-28.766,0c-10.402,0-21.113,0-31.518,0
		c-10.709,0-21.419,0-32.129,0c-10.098,0-20.196,0-30.294,0c-8.568,0-17.442,0-26.01,0c-6.426,0-13.158,0-19.584,0
		c-4.896,0-9.792-0.612-14.688,0.306c-6.12,0.918-11.322,3.978-15.3,8.568C150.552,268.668,148.41,274.176,148.41,279.684z
		 M329.562,93.636c-1.836,0.612-3.672,0.918-6.121,0.918c-1.836,0-3.977,0-5.812-0.612c-8.568-1.53-15.912-7.038-21.115-12.852
		c-0.611,0.612-0.918,0.918-0.918,1.53c-5.201,6.732-13.77,10.404-24.48,11.628c-1.53,0-2.753,0-4.284,0
		c-13.464,0-22.338-5.814-27.846-12.546c-2.754,2.754-6.732,5.202-10.098,7.65c7.65,15.3,13.77,34.272,13.77,54.468h78.336
		C320.994,124.236,324.973,107.712,329.562,93.636z M183.294,175.95c0,12.852,10.404,23.868,23.868,23.868
		c8.568,0,15.912-4.284,20.196-11.628c8.568,16.218,16.218,36.72,16.218,58.752h78.029c0-24.48,5.814-44.37,12.547-59.67
		c4.283,7.038,11.934,11.934,20.502,11.934c12.852,0,23.867-10.404,23.867-23.868c0-12.546-9.486-22.95-22.031-23.562h-1.836
		c-3.061,0-6.426,0-9.486,0c-7.955,0-15.912,0-23.867,0c-10.711,0-21.42,0-32.131,0c-11.322,0-22.338,0-33.66,0
		c-9.486,0-19.278,0-28.764,0c-5.814,0-11.628,0-17.442,0c-6.426,0-13.158,1.53-18.054,6.12
		C186.048,162.486,183.294,169.218,183.294,175.95z M410.041,41.922c0,0-39.781-11.322-130.662-11.322
		c-90.883,0-115.669,10.404-115.669,10.404c-17.136,9.486-40.086,40.086-18.972,42.228c0.612,0,1.53,0,1.836,0
		c21.114,0,52.02-26.928,52.02-26.928s-9.486,24.786,3.366,29.682c1.836,0.612,3.672,0.918,6.12,0.918
		c5.814,0,11.628-2.448,16.83-5.202c7.038-4.284,12.852-10.098,15.912-15.3c0,0,4.284,19.278,26.316,19.278c0.918,0,2.448,0,3.366,0
		c25.398-1.836,22.951-22.95,22.951-22.95s11.627,20.502,25.703,23.562c1.529,0.612,2.754,0.612,3.672,0.612
		c11.016,0,14.383-10.098,14.383-24.48c0,0,0,4.284,2.447,9.18c2.754,6.12,8.568,13.77,22.031,13.77c1.531,0,3.367,0,4.896-0.612
		c13.465-1.53,9.18-21.114,4.285-28.764c0,0,22.338,29.07,39.779,29.07c4.283,0,8.568-1.836,11.934-6.12
		C437.273,60.282,410.041,41.922,410.041,41.922z M93.024,130.662c3.366,2.754,9.18,1.53,12.546-2.754
		c3.366-4.284,3.672-18.054,3.672-18.054s-13.464,4.284-16.83,8.568C89.658,122.4,89.658,128.214,93.024,130.662z M94.86,70.686
		c-4.896,1.836-7.65,6.732-6.12,11.016c1.53,4.284,6.732,5.814,11.934,4.284c4.896-1.836,12.852-13.464,12.852-13.464
		S100.062,68.85,94.86,70.686z M62.424,136.17c3.366-4.284,3.672-18.054,3.672-18.054s-13.464,4.284-16.83,8.568
		c-3.366,4.284-2.754,10.098,0.612,12.546C53.244,141.984,59.058,140.454,62.424,136.17z M472.158,81.396
		c-4.283-2.754-18.055-3.366-18.055-3.366s4.896,13.464,9.18,16.218c4.285,2.754,10.1,2.754,12.547-0.918
		C477.973,89.352,476.441,84.15,472.158,81.396z M444.312,131.886c3.672-1.836,5.201-7.038,3.365-11.934
		s-14.381-11.934-14.381-11.934s-2.449,13.77,0,18.666C435.438,131.581,440.641,133.722,444.312,131.886z M476.441,152.388
		c2.449,4.896,7.039,7.038,11.629,5.202c4.283-1.836,5.201-7.038,3.365-11.934s-14.381-11.934-14.381-11.934
		S473.994,147.798,476.441,152.388z"/>
</g>
<g>
</g>
<g>
</g>
<g>
</g>
<g>
</g>
<g>
</g>
<g>
</g>
<g>
</g>
<g>
</g>
<g>
</g>
<g>
</g>
<g>
</g>
<g>
</g>
<g>
</g>
<g>
</g>
<g>
</g>
</svg>
