<svg xmlns="http://www.w3.org/2000/svg" width="451.982" height="451.981" style="enable-background:new 0 0 451.982 451.981" xml:space="preserve"><path d="M225.981 451.981c75.084-26.689 92.756-98.169 93.196-165.106H132.804c.43 66.937 20.235 137.002 93.177 165.106zM256.265 277.312c0-64.146-9.963-104.795-9.963-139.852 0-26.698 9.963-80.086 9.963-80.086 0-10.566-8.559-19.125-19.125-19.125V19.125C237.14 8.396 230.839 0 222.797 0s-14.344 8.396-14.344 19.125V38.25c-10.566 0-19.125 8.559-19.125 19.125 0 0 7.573 42.63 7.573 78.097 0 35.458-7.573 81.281-7.573 141.841l66.937-.001zM218.016 19.125c0-5.384 2.572-9.562 4.781-9.562s4.781 4.179 4.781 9.562V38.25h-9.562V19.125z"/></svg>