<?xml version="1.0" encoding="iso-8859-1"?>
<!-- Generator: Adobe Illustrator 16.0.0, SVG Export Plug-In . SVG Version: 6.00 Build 0)  -->
<!DOCTYPE svg PUBLIC "-//W3C//DTD SVG 1.1//EN" "http://www.w3.org/Graphics/SVG/1.1/DTD/svg11.dtd">
<svg version="1.1" id="Capa_1" xmlns="http://www.w3.org/2000/svg" xmlns:xlink="http://www.w3.org/1999/xlink" x="0px" y="0px"
	 width="451.982px" height="451.981px" viewBox="0 0 451.982 451.981" style="enable-background:new 0 0 451.982 451.981;"
	 xml:space="preserve">
<g>
	<path d="M225.981,451.981c75.084-26.689,92.756-98.169,93.196-165.106H132.804C133.234,353.812,153.039,423.877,225.981,451.981z"
		/>
	<path d="M256.265,277.312c0-64.146-9.963-104.795-9.963-139.852c0-26.698,9.963-80.086,9.963-80.086
		c0-10.566-8.559-19.125-19.125-19.125V19.125C237.14,8.396,230.839,0,222.797,0c-8.042,0-14.344,8.396-14.344,19.125V38.25
		c-10.566,0-19.125,8.559-19.125,19.125c0,0,7.573,42.63,7.573,78.097c0,35.458-7.573,81.281-7.573,141.841
		C196.901,277.312,249.496,277.312,256.265,277.312z M218.016,19.125c0-5.384,2.572-9.562,4.781-9.562s4.781,4.179,4.781,9.562
		V38.25h-9.562V19.125z"/>
</g>
<g>
</g>
<g>
</g>
<g>
</g>
<g>
</g>
<g>
</g>
<g>
</g>
<g>
</g>
<g>
</g>
<g>
</g>
<g>
</g>
<g>
</g>
<g>
</g>
<g>
</g>
<g>
</g>
<g>
</g>
</svg>
