<svg xmlns="http://www.w3.org/2000/svg" width="508.397" height="508.396" style="enable-background:new 0 0 508.397 508.396" xml:space="preserve"><path d="M428.958 267.075H142.552L16.241 143.632c-3.777-3.682-9.821-3.615-13.521.163-3.691 3.777-3.614 9.83.163 13.521L134.75 286.2h12.087l-47.898 73.908a4.783 4.783 0 0 0 1.405 6.608 4.785 4.785 0 0 0 2.592.765 4.758 4.758 0 0 0 4.016-2.189l32.685-50.404H396.84c.172 0 .325-.076.487-.096l25.532 50.089a4.804 4.804 0 0 0 4.265 2.601c.727 0 1.473-.172 2.171-.526a4.779 4.779 0 0 0 2.085-6.436l-37.888-74.32h28.602l70.657 58.369a9.527 9.527 0 0 0 6.082 2.19 9.53 9.53 0 0 0 7.372-3.472c3.366-4.073 2.792-10.098-1.281-13.454l-75.966-62.758zm-36.452 38.25H145.833l12.393-19.125h224.527l9.753 19.125z"/></svg>