<svg xmlns="http://www.w3.org/2000/svg" width="546.211" height="546.211" style="enable-background:new 0 0 546.211 546.211" xml:space="preserve"><path d="M113.526 360.163h328.951v52.02H113.526v-52.02zm415.548 60.587H17.136C7.65 420.75 0 428.4 0 437.886s7.65 17.136 17.136 17.136h10.098v60.589h493.272v-60.589h8.568c9.486 0 17.137-7.649 17.137-17.136s-7.65-17.136-17.137-17.136zM148.41 279.684c0 12.853 10.404 23.868 23.868 23.868 8.568 0 15.912-4.284 20.196-11.628 8.568 16.218 16.218 36.72 16.218 58.752h155.753c0-24.479 5.814-44.37 12.547-59.67 4.283 7.038 11.934 11.934 20.502 11.934 12.852 0 23.867-10.403 23.867-23.867 0-12.546-9.484-22.95-22.031-23.562H183.906c-4.896 0-9.792-.612-14.688.306-6.12.918-11.322 3.978-15.3 8.568-3.366 4.283-5.508 9.791-5.508 15.299zM329.562 93.636c-1.836.612-3.672.918-6.121.918-1.836 0-3.977 0-5.812-.612-8.568-1.53-15.912-7.038-21.115-12.852-.611.612-.918.918-.918 1.53-5.201 6.732-13.77 10.404-24.48 11.628h-4.284c-13.464 0-22.338-5.814-27.846-12.546-2.754 2.754-6.732 5.202-10.098 7.65 7.65 15.3 13.77 34.272 13.77 54.468h78.336c0-19.584 3.979-36.108 8.568-50.184zM183.294 175.95c0 12.852 10.404 23.868 23.868 23.868 8.568 0 15.912-4.284 20.196-11.628 8.568 16.218 16.218 36.72 16.218 58.752h78.029c0-24.48 5.814-44.37 12.547-59.67 4.283 7.038 11.934 11.934 20.502 11.934 12.852 0 23.867-10.404 23.867-23.868 0-12.546-9.486-22.95-22.031-23.562H209.304c-6.426 0-13.158 1.53-18.054 6.12-5.202 4.59-7.956 11.322-7.956 18.054zM410.041 41.922S370.26 30.6 279.379 30.6c-90.883 0-115.669 10.404-115.669 10.404-17.136 9.486-40.086 40.086-18.972 42.228h1.836c21.114 0 52.02-26.928 52.02-26.928s-9.486 24.786 3.366 29.682c1.836.612 3.672.918 6.12.918 5.814 0 11.628-2.448 16.83-5.202 7.038-4.284 12.852-10.098 15.912-15.3 0 0 4.284 19.278 26.316 19.278h3.366c25.398-1.836 22.951-22.95 22.951-22.95s11.627 20.502 25.703 23.562c1.529.612 2.754.612 3.672.612 11.016 0 14.383-10.098 14.383-24.48 0 0 0 4.284 2.447 9.18 2.754 6.12 8.568 13.77 22.031 13.77 1.531 0 3.367 0 4.896-.612 13.465-1.53 9.18-21.114 4.285-28.764 0 0 22.338 29.07 39.779 29.07 4.283 0 8.568-1.836 11.934-6.12 14.688-18.666-12.544-37.026-12.544-37.026zm-317.017 88.74c3.366 2.754 9.18 1.53 12.546-2.754 3.366-4.284 3.672-18.054 3.672-18.054s-13.464 4.284-16.83 8.568c-2.754 3.978-2.754 9.792.612 12.24zm1.836-59.976c-4.896 1.836-7.65 6.732-6.12 11.016 1.53 4.284 6.732 5.814 11.934 4.284 4.896-1.836 12.852-13.464 12.852-13.464s-13.464-3.672-18.666-1.836zM62.424 136.17c3.366-4.284 3.672-18.054 3.672-18.054s-13.464 4.284-16.83 8.568c-3.366 4.284-2.754 10.098.612 12.546 3.366 2.754 9.18 1.224 12.546-3.06zm409.734-54.774c-4.283-2.754-18.055-3.366-18.055-3.366s4.896 13.464 9.18 16.218c4.285 2.754 10.1 2.754 12.547-.918 2.143-3.978.611-9.18-3.672-11.934zm-27.846 50.49c3.672-1.836 5.201-7.038 3.365-11.934s-14.381-11.934-14.381-11.934-2.449 13.77 0 18.666c2.142 4.897 7.345 7.038 11.016 5.202zm32.129 20.502c2.449 4.896 7.039 7.038 11.629 5.202 4.283-1.836 5.201-7.038 3.365-11.934s-14.381-11.934-14.381-11.934-3.06 14.076-.613 18.666z"/></svg>