<?xml version="1.0" encoding="iso-8859-1"?>
<!-- Generator: Adobe Illustrator 16.0.0, SVG Export Plug-In . SVG Version: 6.00 Build 0)  -->
<!DOCTYPE svg PUBLIC "-//W3C//DTD SVG 1.1//EN" "http://www.w3.org/Graphics/SVG/1.1/DTD/svg11.dtd">
<svg version="1.1" id="Capa_1" xmlns="http://www.w3.org/2000/svg" xmlns:xlink="http://www.w3.org/1999/xlink" x="0px" y="0px"
	 width="556.888px" height="556.889px" viewBox="0 0 556.888 556.889" style="enable-background:new 0 0 556.888 556.889;"
	 xml:space="preserve">
<g>
	<path d="M222.427,289.256l17.633,77.246l-22.845,44.818c-7.182-0.152-14.152,3.691-17.557,10.549L149.293,524.98
		c-4.705,9.457-0.851,20.943,8.606,25.646l8.559,4.256c9.458,4.705,20.942,0.852,25.646-8.605l50.356-103.104
		c2.878-5.785,2.524-12.307-0.325-17.586l25.273-49.59l0.22-0.078l11.035-21.82l23.419,6.178l0.144-0.115l33.908,9.246
		c0.354,7.842,5.47,14.994,13.407,17.434l109.911,32.951c10.098,3.107,20.799-2.553,23.906-12.65L486.17,398
		c3.107-10.098-2.554-20.797-12.651-23.906l-109.911-32.951c-5.346-1.645-10.825-0.775-15.291,1.846l-42.065-11.477l-45.833-56.781
		L208.657,52.048L156.379,0l46.435,203.385L69.867,38.68l8.97,72.685L222.427,289.256z M216.192,249.591
		c-2.075-4.8,0.134-10.366,4.935-12.441s10.366,0.134,12.441,4.934c2.075,4.8-0.134,10.366-4.935,12.441
		S218.267,254.391,216.192,249.591z"/>
</g>
<g>
</g>
<g>
</g>
<g>
</g>
<g>
</g>
<g>
</g>
<g>
</g>
<g>
</g>
<g>
</g>
<g>
</g>
<g>
</g>
<g>
</g>
<g>
</g>
<g>
</g>
<g>
</g>
<g>
</g>
</svg>
