<svg xmlns="http://www.w3.org/2000/svg" width="525.938" height="525.937" style="enable-background:new 0 0 525.938 525.937" xml:space="preserve"><path d="m116.05 450.795 8.721-36.462-52.316-60.96L0 343.81v124.313l104.709.277zM66.412 298.388l-16.773-25.704-31.528 3.596L0 293.607v38.25l47.631 4.781zM87.879 345.302l45.279 64.25 59.373-8.96 11.408-79.493-71.785-40.038-46.962 20.311-22.806 35.266zM248.214 468.123l-54.344-58.781-53.664 10.232-21.468 48.549zM52.326 195.591 38.91 226.669l23.476 32.876 15.434 27.483 46.951-18.523 22.147-28.085-28.18-39.455zM46.961 258.943l-23.485-39.445L0 215.912v65.149l17.442-17.337z"/><path d="m42.266 180.655 68.42 5.967 26.163-63.945-68.42-31.078-44.953 28.688L0 104.748v95.032l23.476 4.781zM221.716 314.53l10.394 25.694 74.464-22.118-48.97-66.938-97.949-9.858-22.806 28.391zM328.042 468.123l50.978-50.796-72.446-87.861-95.262 25.102-7.373 48.415L261.63 468.4zM345.818 468.123h94.057v-11.361l-6.359-29.873-41.912-6.579zM334.075 349.787l51.657-41.244-43.605-35.859-35.553 18.083 14.755 23.763-4.026 10.155zM458.188 349.787l-65.246-31.681-47.124 38.25 42.601 49.754 44.944 8.826 27.501-8.826z"/><path d="m525.938 324.685-57.022 25.102 6.034 70.523-34.549 7.172 14.257 41.52 71.28-.879zM525.938 257.748l-72.456-19.125-50.135 36.452-5.537 36.165 63.054 26.297 65.074-26.297zM356.213 212.326l-71.108 54.391 6.379 17.327 54.669-25.704 10.06 7.775 29.519 20.913 7.21-27.483 42.429-27.502zM525.938 171.685l-107.33-23.61-32.876 61.86 67.081 16.142 73.125 22.404zM360.238 153.755l-61.047-27.492-45.613 21.812 4.026 50.203 45.614-13.445 71.106 19.728z"/><path d="m258.188 238.623 16.81 16.734 61.066-50.796-30.551-8.97-47.325 16.735zM248.214 180.655l-111.365 28.984 20.129 19.421 84.523 9.563zM133.158 198.278l111.03-32.866-13.416-57.681-71.117-10.748-34.884 90.844zM19.918 107.138l44.543-28.391 21.382 5.766 10.758-27.578H0l.918 38.843z"/><path d="M193.201 56.935h-83.854L93.244 91.599l39.914 15.539 18.455-25.101 48.301 9.562zM214.668 95.185h26.164l7.382 36.452 52.326-24.499 45.278 28.095 19.116-78.298H203.939zM371.646 147.626l7.374 36.605 34.214-48.998z"/><path d="m430.007 135.233 25.828 9.562 5.699-87.86H379.02s-18.953 75.305-18.953 78.298l64.566-15.539 5.374 15.539zM525.938 56.935h-46.961l-7.373 90.691 54.334 9.123z"/></svg>