<?xml version="1.0" encoding="UTF-8" standalone="no"?>
<svg width="32px" height="32px" viewBox="0 0 32 32" version="1.1" xmlns="http://www.w3.org/2000/svg" xmlns:xlink="http://www.w3.org/1999/xlink" xmlns:sketch="http://www.bohemiancoding.com/sketch/ns">
    <!-- Generator: Sketch 3.3.2 (12043) - http://www.bohemiancoding.com/sketch -->
    <title>electric range</title>
    <desc>Created with Sketch.</desc>
    <defs></defs>
    <g id="flatten" stroke="none" stroke-width="1" fill="none" fill-rule="evenodd" sketch:type="MSPage">
        <g id="z-copy" sketch:type="MSArtboardGroup" transform="translate(-4.000000, -228.000000)" fill="#000000">
            <g id="electric-range" sketch:type="MSLayerGroup" transform="translate(4.000000, 228.000000)">
                <path d="M8.99466504,11.9861328 C12.3054271,11.9861328 14.9893301,9.30294559 14.9893301,5.99306641 C14.9893301,2.68318723 12.3054271,0 8.99466504,0 C5.68390296,0 3,2.68318723 3,5.99306641 C3,9.30294559 5.68390296,11.9861328 8.99466504,11.9861328 L8.99466504,11.9861328 Z M14.9893301,19.9722656 C14.9893301,16.6623864 12.3054271,13.9791992 8.99466504,13.9791992 C5.68390296,13.9791992 3,16.6623864 3,19.9722656 C3,23.2821448 5.68390296,25.965332 8.99466504,25.965332 C12.3054271,25.965332 14.9893301,23.2821448 14.9893301,19.9722656 L14.9893301,19.9722656 Z M23.005335,11.9861328 C26.316097,11.9861328 29,9.30294559 29,5.99306641 C29,2.68318723 26.316097,0 23.005335,0 C19.6945729,0 17.0106699,2.68318723 17.0106699,5.99306641 C17.0106699,9.30294559 19.6945729,11.9861328 23.005335,11.9861328 L23.005335,11.9861328 Z M22.9775932,25.965332 C26.2883553,25.965332 28.9722582,23.2821448 28.9722582,19.9722656 C28.9722582,16.6623864 26.2883553,13.9791992 22.9775932,13.9791992 C19.6668311,13.9791992 16.9829281,16.6623864 16.9829281,19.9722656 C16.9829281,23.2821448 19.6668311,25.965332 22.9775932,25.965332 L22.9775932,25.965332 Z M22.9775932,23.965332 C20.7716952,23.965332 18.9834616,22.1775753 18.9834616,19.9722656 C18.9834616,17.7669559 20.7716952,15.9791992 22.9775932,15.9791992 C25.1834911,15.9791992 26.9717247,17.7669559 26.9717247,19.9722656 C26.9717247,22.1775753 25.1834911,23.965332 22.9775932,23.965332 L22.9775932,23.965332 Z M23.005335,9.98613281 C20.799437,9.98613281 19.0112034,8.19837609 19.0112034,5.99306641 C19.0112034,3.78775673 20.799437,2 23.005335,2 C25.2112329,2 26.9994665,3.78775673 26.9994665,5.99306641 C26.9994665,8.19837609 25.2112329,9.98613281 23.005335,9.98613281 L23.005335,9.98613281 Z M8.99466504,23.965332 C6.7887671,23.965332 5.0005335,22.1775753 5.0005335,19.9722656 C5.0005335,17.7669559 6.7887671,15.9791992 8.99466504,15.9791992 C11.200563,15.9791992 12.9887966,17.7669559 12.9887966,19.9722656 C12.9887966,22.1775753 11.200563,23.965332 8.99466504,23.965332 L8.99466504,23.965332 Z M8.99466504,9.98613281 C6.7887671,9.98613281 5.0005335,8.19837609 5.0005335,5.99306641 C5.0005335,3.78775673 6.7887671,2 8.99466504,2 C11.200563,2 12.9887966,3.78775673 12.9887966,5.99306641 C12.9887966,8.19837609 11.200563,9.98613281 8.99466504,9.98613281 L8.99466504,9.98613281 Z M21.0048015,31 C21.5572335,31 22.0050682,30.5522847 22.0050682,30 C22.0050682,29.4477153 21.5572335,29 21.0048015,29 C20.4523694,29 20.0045347,29.4477153 20.0045347,30 C20.0045347,30.5522847 20.4523694,31 21.0048015,31 L21.0048015,31 Z M25.0058685,31 C25.5583005,31 26.0061352,30.5522847 26.0061352,30 C26.0061352,29.4477153 25.5583005,29 25.0058685,29 C24.4534364,29 24.0056017,29.4477153 24.0056017,30 C24.0056017,30.5522847 24.4534364,31 25.0058685,31 L25.0058685,31 Z M11.002134,31 C11.5545661,31 12.0024007,30.5522847 12.0024007,30 C12.0024007,29.4477153 11.5545661,29 11.002134,29 C10.4497019,29 10.0018672,29.4477153 10.0018672,30 C10.0018672,30.5522847 10.4497019,31 11.002134,31 L11.002134,31 Z M7.00106699,31 C7.55349906,31 8.00133374,30.5522847 8.00133374,30 C8.00133374,29.4477153 7.55349906,29 7.00106699,29 C6.44863492,29 6.00080024,29.4477153 6.00080024,30 C6.00080024,30.5522847 6.44863492,31 7.00106699,31 L7.00106699,31 Z M16.0034677,32 C14.8986036,32 14.0029342,31.1045695 14.0029342,30 C14.0029342,28.8954305 14.8986036,28 16.0034677,28 C17.1083319,28 18.0040012,28.8954305 18.0040012,30 C18.0040012,31.1045695 17.1083319,32 16.0034677,32 L16.0034677,32 Z M16.0034677,31 C16.5558998,31 17.0037345,30.5522847 17.0037345,30 C17.0037345,29.4477153 16.5558998,29 16.0034677,29 C15.4510357,29 15.003201,29.4477153 15.003201,30 C15.003201,30.5522847 15.4510357,31 16.0034677,31 L16.0034677,31 Z" id="Path" sketch:type="MSShapeGroup"></path>
            </g>
        </g>
    </g>
</svg>