<?xml version="1.0" encoding="UTF-8" standalone="no"?>
<svg width="32px" height="32px" viewBox="0 0 32 32" version="1.1" xmlns="http://www.w3.org/2000/svg" xmlns:xlink="http://www.w3.org/1999/xlink" xmlns:sketch="http://www.bohemiancoding.com/sketch/ns">
    <!-- Generator: Sketch 3.3.2 (12043) - http://www.bohemiancoding.com/sketch -->
    <title>tv</title>
    <desc>Created with Sketch.</desc>
    <defs></defs>
    <g id="flatten" stroke="none" stroke-width="1" fill="none" fill-rule="evenodd" sketch:type="MSPage">
        <g id="z-copy" sketch:type="MSArtboardGroup" transform="translate(-100.000000, -68.000000)" fill="#000000">
            <g id="tv" sketch:type="MSLayerGroup" transform="translate(100.000000, 68.000000)">
                <path d="M22.2592476,25 C22.7310354,25.3457279 22.9798417,25.9999998 22.9798417,25.9999998 L18.5,25.9999998 L9.0201583,25.9999998 C9.0201583,25.9999998 9.26896457,25.3457279 9.74075244,25 L22.2592476,25 L22.2592476,25 L22.2592476,25 Z M24.7186422,24.9999995 C25.3190107,26.4267177 24.974539,28 23.5312361,28 L18,27.9999999 L8.46876392,28 C7.02546098,28 6.68098927,26.4267177 7.28135775,24.9999995 L2.99610022,25 C1.34139976,25 0,23.6544098 0,21.991212 L0,7.00878799 C0,5.34708027 1.33425951,4 2.99610022,4 L29.0038998,4 C30.6586002,4 32,5.34559019 32,7.00878799 L32,21.991212 C32,23.6529197 30.6657405,25 29.0038998,25 L24.718639,25 L24.7186422,24.9999995 L24.7186422,24.9999995 Z M2,7.00878799 L2,21.991212 C2,22.5510607 2.44719913,23 2.99610022,23 L29.0038998,23 C29.5560669,23 30,22.5534518 30,21.991212 L30,7.00878799 C30,6.44893928 29.5528009,6 29.0038998,6 L2.99610022,6 C2.44393314,6 2,6.44654819 2,7.00878799 L2,7.00878799 Z M3,8.99188419 C3,7.89179693 3.89497885,7 4.99700466,7 L27.0029953,7 C28.1059106,7 29,7.89339733 29,8.99188419 L29,20.0081158 C29,21.1082031 28.1050211,22 27.0029953,22 L4.99700466,22 C3.89408944,22 3,21.1066027 3,20.0081158 L3,8.99188419 L3,8.99188419 Z M4,8.99188419 L4,20.0081158 C4,20.5544196 4.44647802,21 4.99700466,21 L27.0029953,21 C27.5536861,21 28,20.5549674 28,20.0081158 L28,8.99188419 C28,8.44558037 27.553522,8 27.0029953,8 L4.99700466,8 C4.44631387,8 4,8.44503258 4,8.99188419 L4,8.99188419 Z" sketch:type="MSShapeGroup"></path>
            </g>
        </g>
    </g>
</svg>