<?xml version="1.0" encoding="UTF-8" standalone="no"?>
<svg width="32px" height="32px" viewBox="0 0 32 32" version="1.1" xmlns="http://www.w3.org/2000/svg" xmlns:xlink="http://www.w3.org/1999/xlink" xmlns:sketch="http://www.bohemiancoding.com/sketch/ns">
    <!-- Generator: Sketch 3.3.2 (12043) - http://www.bohemiancoding.com/sketch -->
    <title>vacuum cleaning robot</title>
    <desc>Created with Sketch.</desc>
    <defs></defs>
    <g id="flatten" stroke="none" stroke-width="1" fill="none" fill-rule="evenodd" sketch:type="MSPage">
        <g id="z-copy" sketch:type="MSArtboardGroup" transform="translate(-36.000000, -36.000000)">
            <g id="drop" sketch:type="MSLayerGroup" transform="translate(36.000000, 4.000000)"></g>
            <g id="vacuum-cleaning-robot" sketch:type="MSLayerGroup" transform="translate(36.000000, 36.000000)" fill="#000000">
                <path d="M19.708042,29.5036708 C18.5270373,29.8272287 17.2836951,30 16,30 C14.7163047,30 13.4729623,29.8272287 12.2919574,29.5036707 C12.1000797,29.031145 12,28.5234083 12,28 C12,25.790861 13.790861,24 16,24 C18.209139,24 20,25.790861 20,28 C20,28.5233925 19.8999286,29.0311204 19.708042,29.5036708 Z M20.8720143,29.1289726 C26.2020457,27.150293 30,22.0186764 30,16 C30,8.2680135 23.7319865,2 16,2 C8.2680135,2 2,8.2680135 2,16 C2,22.0186764 5.7979543,27.150293 11.1279857,29.1289726 C11.0442514,28.7661629 11,28.3882492 11,28 C11,25.2385763 13.2385763,23 16,23 C18.7614237,23 21,25.2385763 21,28 C21,28.3882492 20.9557486,28.7661629 20.8720143,29.1289726 Z M16,32 C7.163444,32 0,24.836556 0,16 C0,7.163444 7.163444,0 16,0 C24.836556,0 32,7.163444 32,16 C32,24.836556 24.836556,32 16,32 Z M16,7 C20.9705627,7 25,11.0294373 25,16 C25,16 25,17 26,17 C27,17 27,16 27,16 C27,9.92486775 22.0751322,5 16,5 C9.92486775,5 5,9.92486775 5,16 C5,16 5,17 6,17 C7,17 7,16 7,16 C7,11.0294373 11.0294373,7 16,7 Z M16,28 C15.4477153,28 15,27.5522847 15,27 C15,26.4477153 15.4477153,26 16,26 C16.5522847,26 17,26.4477153 17,27 C17,27.5522847 16.5522847,28 16,28 Z M16,21 C13.2385763,21 11,18.7614237 11,16 C11,13.2385763 13.2385763,11 16,11 C18.7614237,11 21,13.2385763 21,16 C21,18.7614237 18.7614237,21 16,21 Z M16,20 C18.209139,20 20,18.209139 20,16 C20,13.790861 18.209139,12 16,12 C13.790861,12 12,13.790861 12,16 C12,18.209139 13.790861,20 16,20 Z M16,18 C14.8954305,18 14,17.1045695 14,16 C14,14.8954305 14.8954305,14 16,14 C17.1045695,14 18,14.8954305 18,16 C18,17.1045695 17.1045695,18 16,18 Z M16,17 C16.5522847,17 17,16.5522847 17,16 C17,15.4477153 16.5522847,15 16,15 C15.4477153,15 15,15.4477153 15,16 C15,16.5522847 15.4477153,17 16,17 Z" id="Path" sketch:type="MSShapeGroup"></path>
            </g>
            <g id="ventilation" sketch:type="MSLayerGroup" transform="translate(67.000000, 36.000000)" fill="#000000">
                <path d="M20.9881633,10.264629 C21.3704288,9.66889948 21.9396851,8.84118091 22.8320503,7.5547002 C25.4619531,3.60984596 23.4564831,0 18,0 C11.7369498,0 7.90963487,5.64927585 11.165156,11.9225134 L11.165156,11.9225134 C10.5715677,11.5404387 9.7497917,10.9751512 8.48363238,10.0968819 C4.53877815,7.46697907 0.928932188,9.47244905 0.928932188,14.9289322 C0.928932188,21.236909 6.6595464,25.0740808 12.9865392,21.6926228 C12.6042104,22.2913983 12.0291993,23.1277577 11.1152885,24.4452998 C8.48538567,28.390154 10.4908556,32 15.9473388,32 C22.2136651,32 26.0417073,26.3448124 22.7770681,20.0676416 C23.3696218,20.4495868 24.1885643,21.0129791 25.4452998,21.8847115 C29.390154,24.5146143 33,22.5091444 33,17.0526612 C33,10.7598988 27.2969961,6.92603696 20.9881633,10.264629 L20.9881633,10.264629 Z M20.5812382,12.8663947 C26.1011743,8.92358315 31,11.8052453 31,17.0526612 C31,20.9295114 29.1553005,21.9543445 26.5547002,20.2206109 C24.0296962,18.4589042 23.0952891,17.8359661 22.1491685,17.4575179 C21.8802057,17.3499327 21.611863,17.2645302 21.3381108,17.2004324 C21.4436279,16.8182727 21.5,16.4157196 21.5,16 C21.5,14.6733875 20.5812382,12.8663947 20.5812382,12.8663947 Z M18.4048566,10.8508315 C18.7833049,9.90471093 19.406243,8.97030377 21.1679497,6.4452998 C22.9016832,3.84469949 21.8768502,2 18,2 C12.7525841,2 9.87092193,6.89882565 13.8137335,12.4187618 C13.8137335,12.4187618 15.7042296,11.5 17,11.5 C17.3978066,11.5 17.783557,11.5516187 18.1509186,11.6485236 C18.2146555,11.3793998 18.299023,11.1154157 18.4048566,10.8508315 Z M11.7797637,14.5240755 C10.8336431,14.1456273 9.89923596,13.5226892 7.37423199,11.7609825 C4.77363168,10.0272489 2.92893219,11.052082 2.92893219,14.9289322 C2.92893219,20.1763481 7.82775784,23.0580103 13.347694,19.1151987 C13.347694,19.1151987 12.5,17.3025191 12.5,16 C12.5,15.5835037 12.5565829,15.1802231 12.6624811,14.7974258 C12.3638106,14.7317723 12.0721536,14.6410315 11.7797637,14.5240755 Z M15.5424821,21.1491685 C15.1640339,22.0952891 14.5410958,23.0296962 12.7793891,25.5547002 C11.0456555,28.1553005 12.0704886,30 15.9473388,30 C21.1947547,30 24.0764169,25.1011743 20.1336053,19.5812382 C20.1336053,19.5812382 18.3025191,20.5 17,20.5 C16.5842804,20.5 16.1817273,20.4436279 15.7995676,20.3381108 C15.7354698,20.611863 15.6500673,20.8802057 15.5424821,21.1491685 Z M17,19.5 C15.0670034,19.5 13.5,17.9329966 13.5,16 C13.5,14.0670034 15.0670034,12.5 17,12.5 C18.9329966,12.5 20.5,14.0670034 20.5,16 C20.5,17.9329966 18.9329966,19.5 17,19.5 Z" sketch:type="MSShapeGroup"></path>
            </g>
        </g>
    </g>
</svg>