<?xml version="1.0" encoding="iso-8859-1"?>
<!-- Generator: Adobe Illustrator 16.0.0, SVG Export Plug-In . SVG Version: 6.00 Build 0)  -->
<!DOCTYPE svg PUBLIC "-//W3C//DTD SVG 1.1//EN" "http://www.w3.org/Graphics/SVG/1.1/DTD/svg11.dtd">
<svg version="1.1" id="Capa_1" xmlns="http://www.w3.org/2000/svg" xmlns:xlink="http://www.w3.org/1999/xlink" x="0px" y="0px"
	 width="547.453px" height="547.453px" viewBox="0 0 547.453 547.453" style="enable-background:new 0 0 547.453 547.453;"
	 xml:space="preserve">
<g>
	<g>
		<path d="M282.572,42.075l-120.966,73.631v401.625h-20.081v30.122h281.138v-30.122h-20.082V115.706L282.572,42.075z
			 M266.793,95.625h30.123v30.122h-30.123V95.625z M284.963,145.828c40.162,0,72.675,32.513,72.675,72.675
			s-32.513,72.675-72.675,72.675c-40.163,0-72.676-32.513-72.676-72.675S244.8,145.828,284.963,145.828z M362.897,497.25H201.769
			V326.56h70.284v109.013c-9.562,4.303-15.778,13.387-15.778,24.384c0,14.822,11.953,26.775,26.775,26.775
			c14.822,0,26.775-11.953,26.775-26.775c0-11.953-7.65-21.516-18.169-25.341V326.56h70.284L362.897,497.25L362.897,497.25z"/>
		<path d="M92.756,125.747c1.913,2.868,5.259,4.781,8.606,4.781c1.913,0,3.825-0.479,5.259-1.435L282.094,21.993l158.737,97.06
			c4.781,2.869,10.997,1.435,13.866-3.347c2.868-4.781,1.435-10.997-3.347-13.865L287.354,1.435c-3.348-1.913-7.172-1.913-10.52,0
			L96.103,111.881C91.322,114.75,89.887,120.966,92.756,125.747z"/>
		<path d="M280.659,215.634l-17.212,16.257c-1.913,1.912-1.913,5.259,0,7.172c0.956,0.956,2.391,1.435,3.825,1.435
			c1.435,0,2.391-0.479,3.347-1.435l20.559-19.604l0.479-0.478c0-0.479,0.479-0.479,0.479-0.957c0-0.478,0-0.478,0.478-0.956
			c0-0.478,0-0.478,0-0.956s0-0.479,0-0.956c0-0.479,0-0.479,0-0.956c0-0.479-0.478-0.479-0.478-0.957c0-0.478,0-0.478-0.479-0.956
			l-40.641-47.812c-1.912-1.912-4.781-2.391-7.172-0.478c-1.912,1.912-2.391,4.781-0.478,7.172L280.659,215.634z"/>
	</g>
</g>
<g>
</g>
<g>
</g>
<g>
</g>
<g>
</g>
<g>
</g>
<g>
</g>
<g>
</g>
<g>
</g>
<g>
</g>
<g>
</g>
<g>
</g>
<g>
</g>
<g>
</g>
<g>
</g>
<g>
</g>
</svg>
