<?xml version="1.0" encoding="iso-8859-1"?>
<!-- Generator: Adobe Illustrator 16.0.0, SVG Export Plug-In . SVG Version: 6.00 Build 0)  -->
<!DOCTYPE svg PUBLIC "-//W3C//DTD SVG 1.1//EN" "http://www.w3.org/Graphics/SVG/1.1/DTD/svg11.dtd">
<svg version="1.1" id="Capa_1" xmlns="http://www.w3.org/2000/svg" xmlns:xlink="http://www.w3.org/1999/xlink" x="0px" y="0px"
	 width="583.312px" height="583.312px" viewBox="0 0 583.312 583.312" style="enable-background:new 0 0 583.312 583.312;"
	 xml:space="preserve">
<g>
	<path d="M86.062,297.604c-28.362,0-51.427,23.074-51.427,51.427s23.065,51.427,51.427,51.427s51.427-23.074,51.427-51.427
		S114.425,297.604,86.062,297.604z M86.062,372.938c-13.206,0-23.906-10.7-23.906-23.906s10.7-23.906,23.906-23.906
		s23.906,10.7,23.906,23.906S99.269,372.938,86.062,372.938z"/>
	<path d="M172.125,420.75V162.562c0-10.566-8.559-19.125-19.125-19.125H19.125C8.559,143.438,0,151.996,0,162.562V420.75
		c0,10.566,8.559,19.125,19.125,19.125H153C163.566,439.875,172.125,431.316,172.125,420.75z M86.062,191.25
		c13.206,0,23.906,10.7,23.906,23.906s-10.7,23.906-23.906,23.906s-23.906-10.7-23.906-23.906S72.856,191.25,86.062,191.25z
		 M86.062,410.757c-34.033,0-61.726-27.692-61.726-61.726s27.693-61.726,61.726-61.726s61.726,27.692,61.726,61.726
		S120.095,410.757,86.062,410.757z"/>
	<path d="M392.062,392.062v-28.688H191.25v28.688c0,10.566,8.559,19.125,19.125,19.125h162.562
		C383.504,411.188,392.062,402.629,392.062,392.062z"/>
	<path d="M392.062,286.875c0-10.566-8.559-19.125-19.125-19.125H210.375c-10.566,0-19.125,8.559-19.125,19.125v66.938h200.812
		V286.875z M306,334.688h-95.625v-47.812H306V334.688z M344.25,334.688c-13.206,0-23.906-10.7-23.906-23.906
		s10.7-23.906,23.906-23.906s23.906,10.7,23.906,23.906S357.456,334.688,344.25,334.688z"/>
	<path d="M497.25,297.604c-28.362,0-51.427,23.074-51.427,51.427s23.074,51.427,51.427,51.427s51.427-23.074,51.427-51.427
		S525.612,297.604,497.25,297.604z M497.25,372.938c-13.206,0-23.906-10.7-23.906-23.906s10.7-23.906,23.906-23.906
		s23.906,10.7,23.906,23.906S510.456,372.938,497.25,372.938z"/>
	<path d="M564.188,143.438H430.312c-10.566,0-19.125,8.559-19.125,19.125V420.75c0,10.566,8.559,19.125,19.125,19.125h133.875
		c10.566,0,19.125-8.559,19.125-19.125V162.562C583.312,151.996,574.754,143.438,564.188,143.438z M497.25,191.25
		c13.206,0,23.906,10.7,23.906,23.906s-10.7,23.906-23.906,23.906s-23.906-10.7-23.906-23.906S484.044,191.25,497.25,191.25z
		 M497.25,410.757c-34.033,0-61.726-27.692-61.726-61.726s27.692-61.726,61.726-61.726s61.726,27.692,61.726,61.726
		S531.283,410.757,497.25,410.757z"/>
	<rect x="210.375" y="420.75" width="38.25" height="19.125"/>
	<rect x="334.688" y="420.75" width="38.25" height="19.125"/>
</g>
<g>
</g>
<g>
</g>
<g>
</g>
<g>
</g>
<g>
</g>
<g>
</g>
<g>
</g>
<g>
</g>
<g>
</g>
<g>
</g>
<g>
</g>
<g>
</g>
<g>
</g>
<g>
</g>
<g>
</g>
</svg>
