<?xml version="1.0" encoding="iso-8859-1"?>
<!-- Generator: Adobe Illustrator 16.0.0, SVG Export Plug-In . SVG Version: 6.00 Build 0)  -->
<!DOCTYPE svg PUBLIC "-//W3C//DTD SVG 1.1//EN" "http://www.w3.org/Graphics/SVG/1.1/DTD/svg11.dtd">
<svg version="1.1" id="Capa_1" xmlns="http://www.w3.org/2000/svg" xmlns:xlink="http://www.w3.org/1999/xlink" x="0px" y="0px"
	 width="439.875px" height="439.875px" viewBox="0 0 439.875 439.875" style="enable-background:new 0 0 439.875 439.875;"
	 xml:space="preserve">
<g>
	<g>
		<polygon points="363.375,325.125 363.375,334.688 363.375,372.938 392.062,372.938 392.062,334.688 392.062,325.125 392.062,306 
			363.375,306 		"/>
		<path d="M430.312,28.688c-5.288,0-9.562,4.284-9.562,9.562v14.344c0,7.946-2.61,14.344-4.781,14.344h-14.344h-27.406
			c-2.199,2.486-4.265,5.604-6.005,9.562c-1.205,2.754-2.219,5.958-3.022,9.562c-1.108,4.963-1.816,10.691-1.816,17.528v192.847
			h28.688V86.062h9.562h14.344c14.296,0,23.906-13.455,23.906-33.469V38.25C439.875,32.972,435.601,28.688,430.312,28.688z"/>
		<path d="M19.125,52.594V38.25c0-5.278-4.274-9.562-9.562-9.562S0,32.972,0,38.25v14.344c0,15.95,17.519,33.469,33.469,33.469
			h14.43c0.335-5.623,1.865-12.632,5.279-19.125H33.469C28.238,66.938,19.125,57.824,19.125,52.594z"/>
		<path d="M371.943,57.375c-69.328,0-261.449,0-285.881,0c-10.614,0-17.298,4.227-21.506,9.562
			c-5.279,6.694-6.665,15.07-7.029,19.125c-0.124,1.3-0.153,2.209-0.153,2.4v246.225h28.688h9.562h258.188c0-3.06,0-6.244,0-9.562
			c0-6.005,0-12.412,0-19.125c0-3.127,0-6.312,0-9.562c0-76.548,0-184.174,0-192.847v-0.01c0-6.608,0.65-12.383,1.73-17.528
			c0.736-3.519,1.722-6.665,2.85-9.562c1.416-3.624,3.07-6.799,4.925-9.562C365.938,63.036,368.873,59.842,371.943,57.375z"/>
		<path d="M392.062,57.317v0.058c2.993,0,4.781,0,4.781,0S394.96,57.193,392.062,57.317z"/>
		<path d="M86.062,344.25H57.375v19.125v9.562v38.25h296.438V382.5v-9.562c0,0,0-3.528,0-9.562c0-4.829,0-11.322,0-19.125H95.625
			H86.062z"/>
	</g>
</g>
<g>
</g>
<g>
</g>
<g>
</g>
<g>
</g>
<g>
</g>
<g>
</g>
<g>
</g>
<g>
</g>
<g>
</g>
<g>
</g>
<g>
</g>
<g>
</g>
<g>
</g>
<g>
</g>
<g>
</g>
</svg>
