<?xml version="1.0" encoding="iso-8859-1"?>
<!-- Generator: Adobe Illustrator 16.0.0, SVG Export Plug-In . SVG Version: 6.00 Build 0)  -->
<!DOCTYPE svg PUBLIC "-//W3C//DTD SVG 1.1//EN" "http://www.w3.org/Graphics/SVG/1.1/DTD/svg11.dtd">
<svg version="1.1" id="Capa_1" xmlns="http://www.w3.org/2000/svg" xmlns:xlink="http://www.w3.org/1999/xlink" x="0px" y="0px"
	 width="535.5px" height="535.5px" viewBox="0 0 535.5 535.5" style="enable-background:new 0 0 535.5 535.5;" xml:space="preserve"
	>
<g>
	<g>
		<path d="M473.344,101.788c-3.48,3.175-8.539,5.192-14.344,5.192s-10.863-2.018-14.344-5.192c-3.48,3.175-8.539,5.192-14.344,5.192
			s-10.863-2.018-14.344-5.192c-3.48,3.175-8.539,5.192-14.344,5.192s-10.863-2.018-14.344-5.192
			c-3.48,3.175-8.539,5.192-14.344,5.192s-10.863-2.018-14.344-5.192c-3.48,3.175-8.539,5.192-14.344,5.192
			s-10.863-2.018-14.344-5.192c-3.48,3.175-8.539,5.192-14.344,5.192s-10.863-2.018-14.344-5.192
			c-3.48,3.175-8.539,5.192-14.344,5.192s-10.863-2.018-14.344-5.192c-3.48,3.175-8.539,5.192-14.344,5.192
			s-10.863-2.018-14.344-5.192c-3.481,3.175-8.539,5.192-14.344,5.192s-10.863-2.018-14.344-5.192
			c-3.481,3.175-8.539,5.192-14.344,5.192s-10.863-2.018-14.344-5.192c-3.481,3.175-8.539,5.192-14.344,5.192
			s-10.863-2.018-14.344-5.192c-3.481,3.175-8.539,5.192-14.344,5.192s-10.863-2.018-14.344-5.192
			c-3.481,3.175-8.539,5.192-14.344,5.192s-10.863-2.018-14.344-5.192c-3.481,3.175-8.539,5.192-14.344,5.192
			s-10.863-2.018-14.344-5.192c-3.481,3.175-8.539,5.192-14.344,5.192c-3.528,0-6.751-0.784-9.562-2.075v394.138H497.25V104.905
			c-2.812,1.291-6.034,2.075-9.562,2.075C481.883,106.98,476.824,104.963,473.344,101.788z M100.999,438.082
			c-8.252,0-14.937-6.693-14.937-14.937c0-8.253,6.694-14.937,14.937-14.937c8.243,0,14.937,6.693,14.937,14.937
			C115.945,431.389,109.251,438.082,100.999,438.082z M100.999,313.77c-8.252,0-14.937-6.693-14.937-14.937
			c0-8.253,6.694-14.937,14.937-14.937c8.243,0,14.937,6.693,14.937,14.937C115.945,307.076,109.251,313.77,100.999,313.77z
			 M100.999,189.457c-8.252,0-14.937-6.694-14.937-14.937c0-8.252,6.694-14.937,14.937-14.937c8.243,0,14.937,6.693,14.937,14.937
			C115.945,182.763,109.251,189.457,100.999,189.457z M139.249,380.707c-8.252,0-14.937-6.693-14.937-14.937
			c0-8.253,6.694-14.937,14.937-14.937c8.243,0,14.937,6.693,14.937,14.937C154.195,374.014,147.501,380.707,139.249,380.707z
			 M139.249,256.395c-8.252,0-14.937-6.694-14.937-14.937c0-8.252,6.694-14.937,14.937-14.937c8.243,0,14.937,6.693,14.937,14.937
			C154.195,249.701,147.501,256.395,139.249,256.395z M187.062,438.082c-8.252,0-14.937-6.693-14.937-14.937
			c0-8.253,6.694-14.937,14.937-14.937c8.243,0,14.937,6.693,14.937,14.937C202.008,431.389,195.314,438.082,187.062,438.082z
			 M187.062,313.77c-8.252,0-14.937-6.693-14.937-14.937c0-8.253,6.694-14.937,14.937-14.937c8.243,0,14.937,6.693,14.937,14.937
			C202.008,307.076,195.314,313.77,187.062,313.77z M187.062,189.457c-8.252,0-14.937-6.694-14.937-14.937
			c0-8.252,6.694-14.937,14.937-14.937c8.243,0,14.937,6.693,14.937,14.937C202.008,182.763,195.314,189.457,187.062,189.457z
			 M225.312,380.707c-8.252,0-14.937-6.693-14.937-14.937c0-8.253,6.694-14.937,14.937-14.937c8.243,0,14.937,6.693,14.937,14.937
			C240.258,374.014,233.564,380.707,225.312,380.707z M225.312,256.395c-8.252,0-14.937-6.694-14.937-14.937
			c0-8.252,6.694-14.937,14.937-14.937c8.243,0,14.937,6.693,14.937,14.937C240.258,249.701,233.564,256.395,225.312,256.395z
			 M273.124,438.082c-8.252,0-14.937-6.693-14.937-14.937c0-8.253,6.693-14.937,14.937-14.937s14.937,6.693,14.937,14.937
			C288.07,431.389,281.377,438.082,273.124,438.082z M273.124,313.77c-8.252,0-14.937-6.693-14.937-14.937
			c0-8.253,6.693-14.937,14.937-14.937s14.937,6.693,14.937,14.937C288.07,307.076,281.377,313.77,273.124,313.77z M273.124,189.457
			c-8.252,0-14.937-6.694-14.937-14.937c0-8.252,6.693-14.937,14.937-14.937s14.937,6.693,14.937,14.937
			C288.07,182.763,281.377,189.457,273.124,189.457z M311.374,380.707c-8.252,0-14.937-6.693-14.937-14.937
			c0-8.253,6.693-14.937,14.937-14.937s14.937,6.693,14.937,14.937C326.32,374.014,319.627,380.707,311.374,380.707z
			 M311.374,256.395c-8.252,0-14.937-6.694-14.937-14.937c0-8.252,6.693-14.937,14.937-14.937s14.937,6.693,14.937,14.937
			C326.32,249.701,319.627,256.395,311.374,256.395z M359.187,438.082c-8.252,0-14.937-6.693-14.937-14.937
			c0-8.253,6.693-14.937,14.937-14.937s14.937,6.693,14.937,14.937C374.133,431.389,367.439,438.082,359.187,438.082z
			 M359.187,313.77c-8.252,0-14.937-6.693-14.937-14.937c0-8.253,6.693-14.937,14.937-14.937s14.937,6.693,14.937,14.937
			C374.133,307.076,367.439,313.77,359.187,313.77z M359.187,189.457c-8.252,0-14.937-6.694-14.937-14.937
			c0-8.252,6.693-14.937,14.937-14.937s14.937,6.693,14.937,14.937C374.133,182.763,367.439,189.457,359.187,189.457z
			 M397.437,380.707c-8.252,0-14.937-6.693-14.937-14.937c0-8.253,6.693-14.937,14.937-14.937s14.937,6.693,14.937,14.937
			C412.383,374.014,405.689,380.707,397.437,380.707z M397.437,256.395c-8.252,0-14.937-6.694-14.937-14.937
			c0-8.252,6.693-14.937,14.937-14.937s14.937,6.693,14.937,14.937C412.383,249.701,405.689,256.395,397.437,256.395z
			 M445.249,438.082c-8.252,0-14.937-6.693-14.937-14.937c0-8.253,6.693-14.937,14.937-14.937s14.937,6.693,14.937,14.937
			C460.195,431.389,453.502,438.082,445.249,438.082z M445.249,313.77c-8.252,0-14.937-6.693-14.937-14.937
			c0-8.253,6.693-14.937,14.937-14.937s14.937,6.693,14.937,14.937C460.195,307.076,453.502,313.77,445.249,313.77z
			 M445.249,189.457c-8.252,0-14.937-6.694-14.937-14.937c0-8.252,6.693-14.937,14.937-14.937s14.937,6.693,14.937,14.937
			C460.195,182.763,453.502,189.457,445.249,189.457z"/>
		<path d="M38.25,49.605H14.344C6.426,49.605,0,56.031,0,63.949s6.426,14.344,14.344,14.344H38.25V49.605z"/>
		<path d="M521.156,49.605h-14.344v28.688h14.344c7.918,0,14.344-6.426,14.344-14.344S529.074,49.605,521.156,49.605z"/>
		<path d="M315.562,97.418c5.633,0,9.562-3.06,9.562-5.795v-3.768v-9.562V49.605v-7.354c0-2.745-3.93-5.795-9.562-5.795
			S306,39.517,306,42.252v7.354v28.688v9.562v3.768C306,94.358,309.93,97.418,315.562,97.418z"/>
		<path d="M286.875,97.418c5.633,0,9.562-3.06,9.562-5.795v-3.768v-9.562V49.605v-7.354c0-2.745-3.93-5.795-9.562-5.795
			s-9.562,3.06-9.562,5.795v7.354v28.688v9.562v3.768C277.312,94.358,281.242,97.418,286.875,97.418z"/>
		<path d="M344.25,97.418c5.633,0,9.562-3.06,9.562-5.795v-3.768v-9.562V49.605v-7.354c0-2.745-3.93-5.795-9.562-5.795
			s-9.562,3.06-9.562,5.795v7.354v28.688v9.562v3.768C334.688,94.358,338.617,97.418,344.25,97.418z"/>
		<polygon points="325.125,42.252 325.125,42.252 325.125,42.242 		"/>
		<polygon points="325.125,91.642 325.125,91.623 325.125,91.623 		"/>
		<path d="M372.938,97.418c5.633,0,9.562-3.06,9.562-5.795v-3.768v-9.562V49.605v-7.354c0-2.745-3.93-5.795-9.562-5.795
			s-9.562,3.06-9.562,5.795v7.354v28.688v9.562v3.768C363.375,94.358,367.305,97.418,372.938,97.418z"/>
		<polygon points="353.812,42.252 353.812,42.252 353.812,42.242 		"/>
		<polygon points="353.812,91.642 353.812,91.623 353.812,91.623 		"/>
		<path d="M401.625,97.418c5.633,0,9.562-3.06,9.562-5.795v-3.768v-9.562V49.605v-7.354c0-2.745-3.93-5.795-9.562-5.795
			s-9.562,3.06-9.562,5.795v7.354v28.688v9.562v3.768C392.062,94.358,395.992,97.418,401.625,97.418z"/>
		<polygon points="382.5,42.252 382.5,42.252 382.5,42.242 		"/>
		<polygon points="382.5,91.642 382.5,91.623 382.5,91.623 		"/>
		<path d="M430.312,97.418c5.633,0,9.562-3.06,9.562-5.795v-3.768v-9.562V49.605v-7.354c0-2.745-3.93-5.795-9.562-5.795
			s-9.562,3.06-9.562,5.795v7.354v28.688v9.562v3.768C420.75,94.358,424.68,97.418,430.312,97.418z"/>
		<polygon points="411.188,42.252 411.188,42.252 411.188,42.242 		"/>
		<polygon points="411.188,91.642 411.188,91.623 411.188,91.623 		"/>
		<path d="M459,97.418c5.633,0,9.562-3.06,9.562-5.795v-3.768v-9.562V49.605v-7.354c0-2.745-3.93-5.795-9.562-5.795
			s-9.562,3.06-9.562,5.795v7.354v28.688v9.562v3.768C449.438,94.358,453.367,97.418,459,97.418z"/>
		<polygon points="439.875,42.252 439.875,42.252 439.875,42.242 		"/>
		<polygon points="439.875,91.642 439.875,91.623 439.875,91.623 		"/>
		<path d="M487.688,36.457c-5.633,0-9.562,3.06-9.562,5.795v7.354v28.688v9.562v3.768c0,2.735,3.93,5.795,9.562,5.795
			s9.562-3.06,9.562-5.795v-3.768v-9.562V49.605v-7.354C497.25,39.517,493.32,36.457,487.688,36.457z"/>
		<polygon points="468.562,42.252 468.562,42.252 468.562,42.242 		"/>
		<polygon points="468.562,91.642 468.562,91.623 468.562,91.623 		"/>
		<path d="M86.062,97.418c5.632,0,9.562-3.06,9.562-5.795v-3.768v-9.562V49.605v-7.354c0-2.745-3.93-5.795-9.562-5.795
			s-9.562,3.06-9.562,5.795v7.354v28.688v9.562v3.768C76.5,94.358,80.43,97.418,86.062,97.418z"/>
		<polygon points="38.25,42.252 38.25,42.252 38.25,42.242 		"/>
		<path d="M57.375,97.418c5.632,0,9.562-3.06,9.562-5.795v-3.768v-9.562V49.605v-7.354c0-2.745-3.93-5.795-9.562-5.795
			s-9.562,3.06-9.562,5.795v7.354v28.688v9.562v3.768C47.812,94.358,51.743,97.418,57.375,97.418z"/>
		<path d="M38.25,91.623v0.019V91.623z"/>
		<path d="M114.75,97.418c5.632,0,9.562-3.06,9.562-5.795v-3.768v-9.562V49.605v-7.354c0-2.745-3.93-5.795-9.562-5.795
			s-9.562,3.06-9.562,5.795v7.354v28.688v9.562v3.768C105.188,94.358,109.118,97.418,114.75,97.418z"/>
		<polygon points="95.625,42.252 95.625,42.252 95.625,42.242 		"/>
		<polygon points="95.625,91.642 95.625,91.623 95.625,91.623 		"/>
		<path d="M143.438,97.418c5.632,0,9.562-3.06,9.562-5.795v-3.768v-9.562V49.605v-7.354c0-2.745-3.93-5.795-9.562-5.795
			s-9.562,3.06-9.562,5.795v7.354v28.688v9.562v3.768C133.875,94.358,137.805,97.418,143.438,97.418z"/>
		<polygon points="124.312,42.252 124.312,42.252 124.312,42.242 		"/>
		<polygon points="124.312,91.642 124.312,91.623 124.312,91.623 		"/>
		<path d="M172.125,97.418c5.632,0,9.562-3.06,9.562-5.795v-3.768v-9.562V49.605v-7.354c0-2.745-3.93-5.795-9.562-5.795
			s-9.562,3.06-9.562,5.795v7.354v28.688v9.562v3.768C162.562,94.358,166.493,97.418,172.125,97.418z"/>
		<polygon points="153,42.252 153,42.252 153,42.242 		"/>
		<polygon points="153,91.642 153,91.623 153,91.623 		"/>
		<path d="M200.812,97.418c5.632,0,9.562-3.06,9.562-5.795v-3.768v-9.562V49.605v-7.354c0-2.745-3.93-5.795-9.562-5.795
			s-9.562,3.06-9.562,5.795v7.354v28.688v9.562v3.768C191.25,94.358,195.18,97.418,200.812,97.418z"/>
		<polygon points="181.688,42.252 181.688,42.252 181.688,42.242 		"/>
		<polygon points="181.688,91.642 181.688,91.623 181.688,91.623 		"/>
		<path d="M229.5,97.418c5.632,0,9.562-3.06,9.562-5.795v-3.768v-9.562V49.605v-7.354c0-2.745-3.93-5.795-9.562-5.795
			s-9.562,3.06-9.562,5.795v7.354v28.688v9.562v3.768C219.938,94.358,223.868,97.418,229.5,97.418z"/>
		<polygon points="210.375,42.252 210.375,42.252 210.375,42.242 		"/>
		<polygon points="210.375,91.642 210.375,91.623 210.375,91.623 		"/>
		<path d="M258.188,97.418c5.633,0,9.562-3.06,9.562-5.795v-3.768v-9.562V49.605v-7.354c0-2.745-3.93-5.795-9.562-5.795
			s-9.562,3.06-9.562,5.795v7.354v28.688v9.562v3.768C248.625,94.358,252.555,97.418,258.188,97.418z"/>
		<polygon points="239.062,42.252 239.062,42.252 239.062,42.242 		"/>
		<polygon points="239.062,91.642 239.062,91.623 239.062,91.623 		"/>
	</g>
</g>
<g>
</g>
<g>
</g>
<g>
</g>
<g>
</g>
<g>
</g>
<g>
</g>
<g>
</g>
<g>
</g>
<g>
</g>
<g>
</g>
<g>
</g>
<g>
</g>
<g>
</g>
<g>
</g>
<g>
</g>
</svg>
