<?xml version="1.0" encoding="iso-8859-1"?>
<!-- Generator: Adobe Illustrator 16.0.0, SVG Export Plug-In . SVG Version: 6.00 Build 0)  -->
<!DOCTYPE svg PUBLIC "-//W3C//DTD SVG 1.1//EN" "http://www.w3.org/Graphics/SVG/1.1/DTD/svg11.dtd">
<svg version="1.1" id="Capa_1" xmlns="http://www.w3.org/2000/svg" xmlns:xlink="http://www.w3.org/1999/xlink" x="0px" y="0px"
	 width="545.062px" height="545.062px" viewBox="0 0 545.062 545.062" style="enable-background:new 0 0 545.062 545.062;"
	 xml:space="preserve">
<g>
	<g>
		<path d="M37.294,294.047H15.3l0,0c-2.391,0-3.825,0.479-4.303,0.479l17.212,77.456c0.478,0,0.956,0,2.391,0h2.391h8.128
			c-9.084-10.997-15.3-22.472-15.3-39.206C25.341,318.432,29.644,305.044,37.294,294.047z"/>
		<path d="M130.05,371.981L130.05,371.981l16.734-77.456c-0.479,0-1.435-0.479-4.303-0.479h-21.994
			c7.172,10.519,11.475,23.906,11.475,38.729c0,16.734-6.215,28.688-14.822,39.206h11.475
			C129.572,371.981,129.572,371.981,130.05,371.981z"/>
		<path d="M106.622,371.981c10.519-11.476,17.69-22.472,17.69-39.206c0-15.301-5.259-28.688-13.866-38.729
			c-2.869-3.347-6.693-6.693-10.041-8.606c-6.694-3.825-13.387-6.216-21.038-6.216c-7.65,0-14.822,2.391-21.037,6.216
			c-3.347,2.391-6.694,5.26-10.041,8.606c-8.606,10.041-13.865,23.428-13.865,38.729c0,16.734,6.693,27.253,17.69,39.206H106.622z"
			/>
		<path d="M479.082,384.412c-6.695,1.913-14.344,2.869-21.994,2.869c-6.693,0-13.389-0.956-20.082-2.391l-16.734,130.528
			c0,1.912,1.912,3.347,4.303,3.347h67.416c2.391,0,3.826-1.912,3.826-3.825L479.082,384.412
			C479.082,384.891,479.082,384.891,479.082,384.412z"/>
		<path d="M491.99,527.85L491.99,527.85L491.99,527.85z"/>
		<path d="M540.281,311.26h-9.562h-24.863v-17.213h4.781c2.391,0,3.826-1.912,3.826-3.825v-0.478c0-2.391-1.912-3.825-3.826-3.825
			h-6.693h-1.434h-2.391h-1.436h-6.693c-2.391,0-3.824,1.912-3.824,3.825v0.478c0,2.391,1.912,3.825,3.824,3.825h4.781v17.213
			h-22.949l-4.781-23.429c-0.957-4.781-1.912-10.519-7.172-10.519v-13.866c0-2.391-1.912-4.303-4.303-4.303
			s-4.305,1.913-4.305,4.303v13.866c-5.258,0-7.648,4.303-9.084,10.519l-4.781,23.429h-28.688v-17.213h4.781
			c2.391,0,3.826-1.912,3.826-3.825v-0.478c0-2.391-1.914-3.825-3.826-3.825h-7.65h-2.391h-7.648c-2.391,0-3.826,1.912-3.826,3.825
			v0.478c0,2.391,1.912,3.825,3.826,3.825h4.303v17.213h-18.646h-7.172c-2.391,0-4.305,1.912-4.305,4.303s1.914,4.303,4.305,4.303
			h3.346h4.303l0,0h4.305c1.434,24.863,19.602,46.379,44.943,54.984c7.172,2.391,15.777,3.825,24.385,3.825
			c9.084,0,17.689-1.912,25.34-4.303c24.863-8.606,42.553-29.644,43.51-54.507h4.303l0,0h4.303h5.738
			c2.391,0,4.303-1.912,4.303-4.303S542.672,311.26,540.281,311.26z"/>
		<path d="M79.369,447.525c-10.041,0-19.603-1.913-28.209-4.781l-10.519,71.719c0,1.434,2.391,4.781,3.825,4.781h66.938
			c1.913,0,3.825-2.869,3.825-5.26L104.709,443.7C97.06,446.091,88.453,447.525,79.369,447.525z"/>
		<path d="M153.478,389.193h3.825h2.391c2.391,0,4.303-1.912,4.303-4.303s-1.913-4.303-4.303-4.303h-1.435h-4.303l0,0h-4.303
			h-21.516h-2.391h-15.778h-2.391H97.538H58.81H48.769h-1.435H32.513l0,0h-2.391c0,0-0.478,0-0.957,0H8.128H3.825l0,0
			c-2.391,0-3.347,1.434-3.825,3.347c0,0.478,0,0.478,0,0.956c0,0.956,0.478,1.435,0.957,2.391c0,1.435,1.434,2.391,2.869,2.391
			h0.956h4.781c3.825,17.69,16.734,32.513,34.425,41.119c1.434,0.956,2.869,1.434,4.303,2.391c1.435,0.478,2.391,0.956,3.825,1.434
			c8.128,2.869,17.212,4.781,26.775,4.781c8.606,0,17.212-1.434,24.863-3.824c1.434-0.479,2.391-0.957,3.825-1.435
			c1.913-0.479,2.869-1.435,4.303-1.913c18.647-8.605,32.513-23.906,36.337-42.553C148.219,389.193,153.478,389.193,153.478,389.193
			z"/>
		<path d="M257.231,87.975l30.122,30.122c3.824-3.825,11.953-16.256,13.387-20.559l-22.949-22.95
			C274.443,75.544,261.056,84.15,257.231,87.975z"/>
		<path d="M257.709,105.666c0.478,0,1.435,0,1.913-0.956l2.869-2.869c0.478-0.479,0.478-0.479,0.478-0.957
			c0.478-0.956,0.478-1.913-0.478-2.391c-0.956-0.956-1.913-0.956-2.391-0.478c-0.478,0-0.478,0-0.956,0.478l-2.869,2.869
			c-0.956,0.957-0.956,2.391,0,2.869C256.753,105.666,257.231,105.666,257.709,105.666z"/>
		<path d="M248.147,115.228c0.478,0,1.435,0,1.913-0.956l2.869-2.869c0.956-0.957,0.956-2.391,0-2.869
			c-0.956-0.956-2.391-0.956-2.869,0l-2.869,2.869c-0.957,0.956-0.957,2.391,0,2.869
			C247.191,115.228,247.669,115.228,248.147,115.228z"/>
		<path d="M243.366,117.619c-0.956-0.956-2.391-0.956-2.869,0l-3.347,3.347c-0.956,0.956-0.956,2.391,0,2.869
			c0.479,0.478,0.957,0.956,1.913,0.956c0.957,0,1.435,0,1.913-0.956l2.869-2.869C244.322,120.487,244.322,118.575,243.366,117.619z
			"/>
		<path d="M262.491,111.403c0.478,0.478,0.956,0.956,1.913,0.956c0.956,0,1.434,0,1.913-0.956l2.869-2.869c0,0,0-0.478,0.478-0.956
			c0.478-0.956,0.478-1.913-0.478-2.391c-0.957-0.956-1.913-0.956-2.391-0.478c-0.478,0-0.478,0-0.957,0.478l-3.347,2.869
			C261.535,109.013,261.535,110.925,262.491,111.403z"/>
		<path d="M256.275,114.75l-3.347,2.869c-0.956,0.957-0.956,2.391,0,2.869c0.478,0.479,0.956,0.957,1.913,0.957
			c0.956,0,1.434,0,1.913-0.957l2.869-2.869c0.956-0.956,0.956-2.391,0-2.869C258.666,113.794,256.753,113.794,256.275,114.75z"/>
		<path d="M249.582,124.312c-0.957-0.956-2.391-0.956-2.869,0l-3.347,2.869c-0.956,0.957-0.956,2.391,0,2.869
			c0.478,0.479,0.956,0.957,1.913,0.957c0.956,0,1.434,0,1.913-0.957l2.869-2.869C250.538,126.225,250.538,124.791,249.582,124.312z
			"/>
		<path d="M273.009,111.403c-0.478,0-0.478,0-0.956,0.478l-2.869,2.869c-0.957,0.956-0.957,2.391,0,2.869
			c0.478,0.478,0.956,0.957,1.913,0.957c0.956,0,1.434,0,1.912-0.957l2.87-2.869c0.477-0.478,0.477-0.478,0.477-0.956
			c0.479-0.957,0.479-1.913-0.477-2.391C274.922,110.925,273.965,110.925,273.009,111.403z"/>
		<path d="M262.491,120.966l-2.869,3.347c-0.957,0.956-0.957,2.391,0,2.869c0.478,0.478,0.956,0.957,1.913,0.957
			c0.956,0,1.434,0,1.912-0.957l2.869-2.869c0.956-0.956,0.956-2.391,0-2.869C264.881,120.487,263.447,120.487,262.491,120.966z"/>
		<path d="M252.928,130.528l-2.869,3.347c-0.957,0.956-0.957,2.391,0,2.869c0.478,0.478,0.956,0.957,1.913,0.957
			c0.956,0,1.434,0,1.912-0.957l2.869-2.869c0.956-0.956,0.956-2.391,0-2.869C255.319,129.572,253.884,129.572,252.928,130.528z"/>
		<path d="M393.02,82.237v4.303v116.663c0,11.953,9.562,21.516,21.516,21.516h82.236h4.303c11.953,0,21.516-9.562,21.516-21.516
			V82.237c0-11.953-9.562-21.516-21.516-21.516h-86.062C402.582,60.722,393.02,70.284,393.02,82.237z M501.553,69.328
			c7.172,0,12.91,5.737,12.91,12.909v4.303v116.663c0,7.172-5.738,12.909-12.91,12.909h-86.541c-7.172,0-12.908-5.737-12.908-12.909
			V82.237c0-7.172,5.736-12.909,12.908-12.909h82.238H501.553z"/>
		<path d="M176.906,467.128v69.328h155.869h8.605h8.607h8.605V8.606H176.906V467.128L176.906,467.128z M185.513,17.212h164.476
			v449.916h-8.607V65.025c0-2.391-1.912-4.303-4.303-4.303h-21.037c-1.436,0-2.391,0.479-2.869,1.435l-13.387,12.431
			c-4.305-2.869-10.041-1.434-13.389,0l15.779,15.778c0.955-2.391,1.434-4.781,1.912-6.694l14.344-13.388h15.299v397.8H185.513
			V17.212z"/>
		<path d="M213.722,233.803h-4.303c-8.128,0-15.3,6.694-15.3,15.3v38.728c0,8.128,6.694,15.3,15.3,15.3h4.303
			c8.128,0,15.3-6.693,15.3-15.3v-39.206C229.022,240.497,221.85,233.803,213.722,233.803z M220.416,287.831
			c0,3.347-2.869,6.694-6.693,6.694h-4.303c-3.347,0-6.694-2.869-6.694-6.694v-39.206c0-3.347,2.869-6.694,6.694-6.694h4.303
			c3.347,0,6.693,2.869,6.693,6.694V287.831z"/>
		<rect x="3.825" y="181.688" width="147.262" height="25.819"/>
		<rect x="3.825" y="69.328" width="147.262" height="25.819"/>
		<polygon points="65.025,60.722 73.153,8.606 38.728,8.606 43.509,60.722 		"/>
		<path d="M107.578,173.081v-34.425h-68.85v34.425H107.578z M55.941,155.869h34.425v8.606H55.941V155.869z"/>
		<rect x="29.644" y="120.966" width="86.541" height="8.606"/>
	</g>
</g>
<g>
</g>
<g>
</g>
<g>
</g>
<g>
</g>
<g>
</g>
<g>
</g>
<g>
</g>
<g>
</g>
<g>
</g>
<g>
</g>
<g>
</g>
<g>
</g>
<g>
</g>
<g>
</g>
<g>
</g>
</svg>
