<?xml version="1.0" encoding="iso-8859-1"?>
<!-- Generator: Adobe Illustrator 16.0.0, SVG Export Plug-In . SVG Version: 6.00 Build 0)  -->
<!DOCTYPE svg PUBLIC "-//W3C//DTD SVG 1.1//EN" "http://www.w3.org/Graphics/SVG/1.1/DTD/svg11.dtd">
<svg version="1.1" id="Capa_1" xmlns="http://www.w3.org/2000/svg" xmlns:xlink="http://www.w3.org/1999/xlink" x="0px" y="0px"
	 width="568.969px" height="568.969px" viewBox="0 0 568.969 568.969" style="enable-background:new 0 0 568.969 568.969;"
	 xml:space="preserve">
<g>
	<g>
		<path d="M380.109,557.016l-38.25-294.525c0-1.913-0.479-3.347-0.956-4.781c-17.213,5.259-35.382,8.128-54.028,8.128
			c-17.212,0-33.947-2.391-49.725-6.694c-0.478,0.957-0.478,2.391-0.478,3.347l-38.25,295.003c0,7.172,6.694,11.475,14.344,11.475
			h153C373.894,568.969,380.109,564.666,380.109,557.016z"/>
		<path d="M115.228,109.969h4.781h1.913h2.869c-1.434,0,3.825,32.034,4.781,34.903c2.869,10.997,7.172,21.516,12.91,31.078
			c10.997,19.603,26.775,35.859,45.422,48.291c47.812,32.034,107.1,40.641,161.128,19.603c16.256-6.216,31.557-14.822,45.422-25.341
			C428.4,192.685,448.481,153,448.959,109.969h4.781h4.781h7.65c5.26,0,9.562-4.303,9.562-9.562s-4.303-9.562-9.562-9.562h-71.719
			V62.156h10.041c5.259,0,9.084,0.478,9.084-4.781v-0.956c0-5.26-4.303-13.866-9.084-13.866h-39.207
			c-5.259,0-9.084,8.606-9.084,13.866v0.956c0,5.259,4.303,4.781,9.084,4.781h10.041v28.688h-52.594l-6.693-47.334
			c0-9.562-4.781-18.168-8.129-21.038v24.863c0,10.519-8.605,19.603-19.125,19.603c-0.956,0-1.434,0-2.391,0
			c-9.084-1.913-16.256-9.562-16.256-19.125V23.906c-5.259,4.781-8.606,10.041-8.606,18.647l-10.041,48.291h-57.853V62.156h10.041
			c5.259,0,9.084,0.478,9.084-4.781v-0.956c0-5.26-4.303-13.866-9.084-13.866h-39.206c-5.259,0-9.084,8.606-9.084,13.866v0.956
			c0,5.259,4.303,4.781,9.084,4.781h10.041v28.688h-71.719c-5.259,0-9.562,4.303-9.562,9.562s4.303,9.562,9.562,9.562H115.228z"/>
		<path d="M289.266,57.375c5.26,0,9.562-4.303,9.562-9.562V20.56v-9.562c0-7.172-4.781-10.997-9.562-10.997
			c-6.216,0-9.562,5.737-9.562,10.519v8.606v28.688C279.703,53.072,284.006,57.375,289.266,57.375z"/>
	</g>
</g>
<g>
</g>
<g>
</g>
<g>
</g>
<g>
</g>
<g>
</g>
<g>
</g>
<g>
</g>
<g>
</g>
<g>
</g>
<g>
</g>
<g>
</g>
<g>
</g>
<g>
</g>
<g>
</g>
<g>
</g>
</svg>
