<?xml version="1.0" encoding="iso-8859-1"?>
<!-- Generator: Adobe Illustrator 16.0.0, SVG Export Plug-In . SVG Version: 6.00 Build 0)  -->
<!DOCTYPE svg PUBLIC "-//W3C//DTD SVG 1.1//EN" "http://www.w3.org/Graphics/SVG/1.1/DTD/svg11.dtd">
<svg version="1.1" id="Capa_1" xmlns="http://www.w3.org/2000/svg" xmlns:xlink="http://www.w3.org/1999/xlink" x="0px" y="0px"
	 width="525.938px" height="525.938px" viewBox="0 0 525.938 525.938" style="enable-background:new 0 0 525.938 525.938;"
	 xml:space="preserve">
<g>
	<g>
		<polygon points="286.875,0 191.25,0 191.25,9.562 262.969,19.125 191.25,19.125 191.25,28.688 287.917,28.688 288.262,38.25 
			191.25,38.25 191.25,47.812 288.615,47.812 288.96,57.375 191.25,57.375 191.25,66.938 289.304,66.938 289.657,76.5 191.25,76.5 
			191.25,86.062 290.002,86.062 290.355,95.625 191.25,95.625 191.25,105.188 290.7,105.188 291.044,114.75 191.25,114.75 
			191.25,124.312 291.398,124.312 291.742,133.875 191.25,133.875 191.25,143.438 292.087,143.438 292.44,153 191.25,153 
			191.25,162.562 292.784,162.562 293.129,172.125 191.25,172.125 191.25,181.688 293.482,181.688 293.827,191.25 191.25,191.25 
			191.25,200.812 294.181,200.812 294.525,210.375 191.25,210.375 191.25,219.938 294.869,219.938 295.223,229.5 191.25,229.5 
			191.25,239.062 262.969,239.062 191.25,248.625 191.25,258.188 296.266,258.188 306,525.938 334.688,525.938 334.688,258.188 
			334.688,258.188 334.688,229.5 334.688,229.5 334.688,28.688 334.688,28.688 334.688,0 334.688,0 		"/>
	</g>
</g>
<g>
</g>
<g>
</g>
<g>
</g>
<g>
</g>
<g>
</g>
<g>
</g>
<g>
</g>
<g>
</g>
<g>
</g>
<g>
</g>
<g>
</g>
<g>
</g>
<g>
</g>
<g>
</g>
<g>
</g>
</svg>
