<?xml version="1.0" encoding="iso-8859-1"?>
<!-- Generator: Adobe Illustrator 16.0.0, SVG Export Plug-In . SVG Version: 6.00 Build 0)  -->
<!DOCTYPE svg PUBLIC "-//W3C//DTD SVG 1.1//EN" "http://www.w3.org/Graphics/SVG/1.1/DTD/svg11.dtd">
<svg version="1.1" id="Capa_1" xmlns="http://www.w3.org/2000/svg" xmlns:xlink="http://www.w3.org/1999/xlink" x="0px" y="0px"
	 width="545.062px" height="545.062px" viewBox="0 0 545.062 545.062" style="enable-background:new 0 0 545.062 545.062;"
	 xml:space="preserve">
<g>
	<g>
		<path d="M545.062,328.31v-41.435H0v41.435c0,16.725,18.341,35.065,35.066,35.065h484.502
			C536.284,363.375,545.062,345.034,545.062,328.31z"/>
		<path d="M535.969,267.75l-99.957-86.062H120.86L17.394,267.75H535.969z M384.508,187.004c2.334,0.067,9.85,6.713,19.632,18.207
			c15.577,18.293,32.217,43.079,26.249,42.458c-5.871-0.622-26.622-25.36-38.364-43.099
			C384.594,193.344,382.185,186.928,384.508,187.004z M272.254,203.299c1.014-10.251,3.376-15.147,5.585-13.904
			c2.228,1.252,4.656,8.95,5.747,20.579c1.73,18.522-0.277,41.281-5.623,37.819C272.693,244.379,270.667,219.498,272.254,203.299z
			 M153.755,205.202c9.783-11.484,17.299-18.13,19.632-18.207c2.324-0.067-0.086,6.34-7.516,17.566
			c-11.743,17.729-32.493,42.477-38.365,43.098C121.54,248.281,138.178,223.495,153.755,205.202z"/>
	</g>
</g>
<g>
</g>
<g>
</g>
<g>
</g>
<g>
</g>
<g>
</g>
<g>
</g>
<g>
</g>
<g>
</g>
<g>
</g>
<g>
</g>
<g>
</g>
<g>
</g>
<g>
</g>
<g>
</g>
<g>
</g>
</svg>
