<?xml version="1.0" encoding="iso-8859-1"?>
<!-- Generator: Adobe Illustrator 16.0.0, SVG Export Plug-In . SVG Version: 6.00 Build 0)  -->
<!DOCTYPE svg PUBLIC "-//W3C//DTD SVG 1.1//EN" "http://www.w3.org/Graphics/SVG/1.1/DTD/svg11.dtd">
<svg version="1.1" id="Capa_1" xmlns="http://www.w3.org/2000/svg" xmlns:xlink="http://www.w3.org/1999/xlink" x="0px" y="0px"
	 width="439.875px" height="439.875px" viewBox="0 0 439.875 439.875" style="enable-background:new 0 0 439.875 439.875;"
	 xml:space="preserve">
<g>
	<g>
		<rect x="162.558" y="86.062" width="114.75" height="28.688"/>
		<path d="M191.245,76.5h66.938V5.527c-8.453,6.665-20.368,13.598-33.469,13.598c-14.315,0-25.962-6.904-33.469-12.89V76.5z
			 M224.714,28.688c8.233,0,14.937,6.703,14.937,14.937s-6.703,14.937-14.937,14.937s-14.937-6.703-14.937-14.937
			S216.48,28.688,224.714,28.688z"/>
		<path d="M249.51,0h-50.672c6.302,4.686,15.338,9.562,25.876,9.562C233.894,9.562,242.615,4.982,249.51,0z"/>
		<circle cx="224.714" cy="43.624" r="5.374"/>
		<path d="M387.859,124.312L387.859,124.312H277.308h-114.75H51.25h-0.009c-18.312,0-32.111,13.474-32.111,31.346v252.881
			c-0.01,17.862,13.798,31.336,32.111,31.336h336.61c18.445,0,32.895-13.761,32.895-31.327v-0.009V155.658
			C420.745,138.083,406.306,124.312,387.859,124.312z"/>
	</g>
</g>
<g>
</g>
<g>
</g>
<g>
</g>
<g>
</g>
<g>
</g>
<g>
</g>
<g>
</g>
<g>
</g>
<g>
</g>
<g>
</g>
<g>
</g>
<g>
</g>
<g>
</g>
<g>
</g>
<g>
</g>
</svg>
