<?xml version="1.0" encoding="iso-8859-1"?>
<!-- Generator: Adobe Illustrator 16.0.0, SVG Export Plug-In . SVG Version: 6.00 Build 0)  -->
<!DOCTYPE svg PUBLIC "-//W3C//DTD SVG 1.1//EN" "http://www.w3.org/Graphics/SVG/1.1/DTD/svg11.dtd">
<svg version="1.1" id="Capa_1" xmlns="http://www.w3.org/2000/svg" xmlns:xlink="http://www.w3.org/1999/xlink" x="0px" y="0px"
	 width="516.375px" height="516.375px" viewBox="0 0 516.375 516.375" style="enable-background:new 0 0 516.375 516.375;"
	 xml:space="preserve">
<g>
	<path d="M497.25,186.469H196.987c18.169,16.256,29.166,39.685,29.166,65.503c0,7.65-0.957,14.344-2.869,20.56H497.25
		c10.519,0,19.125-8.606,19.125-19.125v-47.812C516.375,195.075,507.769,186.469,497.25,186.469z M275.878,246.234
		c-7.649,0-13.865-6.216-13.865-13.866s6.216-13.866,13.865-13.866c7.65,0,13.866,6.216,13.866,13.866
		C289.266,240.497,283.528,246.234,275.878,246.234z M448.003,246.234c-7.649,0-13.865-6.216-13.865-13.866
		s6.216-13.866,13.865-13.866c7.65,0,13.866,6.216,13.866,13.866C461.391,240.497,455.653,246.234,448.003,246.234z"/>
	<path d="M67.416,186.469H19.125C8.606,186.469,0,195.075,0,205.594v47.812c0,10.519,8.606,19.125,19.125,19.125h21.994
		c-1.913-6.216-2.869-12.909-2.869-20.56C38.25,226.153,49.725,202.725,67.416,186.469z"/>
	<path d="M186.469,367.678l1.913,0.479c11.953,0,21.994-10.519,21.994-23.906v-51.638v-5.737c0-0.479,0-0.479,0-0.956
		c0-2.391-0.478-4.304-0.956-6.216c1.434-1.912,2.869-4.303,3.825-7.172c2.391-5.737,3.825-12.432,3.825-20.56
		c0-26.775-13.866-50.681-34.903-65.503c-6.694-4.781-10.041-8.606-19.603-10.997c-1.435,0-2.391,0-3.347,0
		c0-1.912,0-3.347-0.479-4.781c-0.478-1.912-0.956-3.825-1.434-5.259c-4.303-10.519-13.866-17.212-24.863-17.212
		c-10.997,0-20.559,6.694-24.862,16.256c-0.956,1.913-1.435,3.347-1.435,5.259c-0.956,1.913-0.956,3.825-0.956,5.737l0,0l0,0
		c-8.128,2.869-15.778,6.216-22.472,10.997c-21.038,14.822-34.903,38.25-34.903,65.503c0,8.128,1.435,14.822,3.825,20.56
		c1.434,3.825,3.825,7.172,6.215,10.041c0,1.434-0.478,2.868-0.478,4.303v1.912v6.216v49.247c0,13.865,8.606,23.906,20.081,23.906
		l1.913-0.479c0,0,21.516-8.605,54.506-8.605C166.388,359.55,186.469,367.678,186.469,367.678z M115.228,172.603
		c0.478-1.913,0.957-3.347,1.435-5.259c0.956-1.913,2.391-3.825,4.303-5.259c2.869-2.869,7.172-4.303,11.475-4.303
		c4.303,0,8.128,1.435,11.475,4.303c1.913,1.434,3.347,3.347,4.303,5.259c0.956,1.435,1.435,3.347,1.435,5.259
		c0,0.957,0.478,1.913,0.478,2.869c0,3.825-0.478,5.26-7.172,5.26c-1.435,0-2.869,0-4.781,0s-3.825,0-5.738,0
		c-1.912,0-3.825,0-5.737,0c-1.435,0-3.347,0-4.781,0c-6.694,0-7.172-0.957-7.172-5.26
		C114.75,174.516,114.75,173.56,115.228,172.603z M76.978,358.594c-6.694-0.479-10.041-7.65-10.041-14.344v-43.031v-5.26v-5.737
		c15.3,9.562,38.728,10.997,65.503,10.997c27.731,0,52.116-1.435,67.416-12.432c0.478,0,0.478-0.478,0.956-0.956v5.737v5.738v44.943
		c0,7.65-5.259,13.865-11.475,14.344c-4.781-1.912-24.384-8.606-55.462-8.606S81.759,356.682,76.978,358.594z"/>
</g>
<g>
</g>
<g>
</g>
<g>
</g>
<g>
</g>
<g>
</g>
<g>
</g>
<g>
</g>
<g>
</g>
<g>
</g>
<g>
</g>
<g>
</g>
<g>
</g>
<g>
</g>
<g>
</g>
<g>
</g>
</svg>
