<?xml version="1.0" encoding="iso-8859-1"?>
<!-- Generator: Adobe Illustrator 16.0.0, SVG Export Plug-In . SVG Version: 6.00 Build 0)  -->
<!DOCTYPE svg PUBLIC "-//W3C//DTD SVG 1.1//EN" "http://www.w3.org/Graphics/SVG/1.1/DTD/svg11.dtd">
<svg version="1.1" id="Capa_1" xmlns="http://www.w3.org/2000/svg" xmlns:xlink="http://www.w3.org/1999/xlink" x="0px" y="0px"
	 width="440.481px" height="440.481px" viewBox="0 0 440.481 440.481" style="enable-background:new 0 0 440.481 440.481;"
	 xml:space="preserve">
<g>
	<path d="M185.664,43.132C163.756,6.612,118.373-7.664,79.884,8.869L77.56,4.471c-2.161-4.093-7.21-5.661-11.322-3.5
		c-4.093,2.161-5.661,7.229-3.49,11.322l2.467,4.676C30.14,41.066,18.292,87.941,38.401,126.067L185.664,43.132z"/>
	<path d="M378.33,19.235l3.662-6.933c2.171-4.093,0.594-9.161-3.49-11.322c-4.083-2.17-9.151-0.593-11.321,3.5l-3.185,6.024
		C324.808-8.41,277.378,5.542,254.83,43.151l147.254,82.936C421.6,89.089,410.996,43.906,378.33,19.235z"/>
	<path d="M222.681,241.592c2.018,0,4.055-0.631,5.775-1.951l44.925-34.176c4.198-3.194,5.011-9.199,1.816-13.397
		c-3.203-4.198-9.208-5.02-13.396-1.816l-34.349,26.125v-89.534c0-2.639-2.142-4.781-4.781-4.781c-2.64,0-4.782,2.142-4.782,4.781
		v96.811l-1.004,0.766c-4.198,3.193-5.011,9.199-1.817,13.396C216.943,240.291,219.793,241.592,222.681,241.592z"/>
	<path d="M189.202,21.654h19.125v42.438C120.85,70.251,51.741,142.983,51.741,232.029c0,59.135,30.514,111.068,76.596,141.143
		c-0.947,0.985-1.817,2.046-2.534,3.28l-21.019,36.175c-4.81,8.271-1.999,18.886,6.273,23.695l3.098,1.798
		c8.281,4.811,18.886,1.999,23.696-6.272l21.019-36.175c1.119-1.923,1.778-3.979,2.104-6.044
		c18.475,6.952,38.403,10.939,59.307,10.939c19.25,0,37.667-3.385,54.889-9.323c0.393,1.521,0.908,3.012,1.73,4.437l21.019,36.176
		c4.811,8.28,15.415,11.082,23.696,6.272l3.098-1.798c8.271-4.81,11.083-15.415,6.273-23.695l-21.019-36.176
		c-0.277-0.487-0.65-0.889-0.966-1.329c47.851-29.739,79.809-82.62,79.809-143.093c0-93.082-75.457-168.539-168.54-168.539
		c-0.803,0-1.587,0.105-2.391,0.124v-41.97h19.125c5.288,0,9.562-4.284,9.562-9.562s-4.274-9.562-9.562-9.562h-47.813
		c-5.288,0-9.562,4.284-9.562,9.562S183.914,21.654,189.202,21.654z M220.28,96.959c74.597,0,135.071,60.473,135.071,135.07
		c0,74.597-60.474,135.07-135.071,135.07S85.21,306.626,85.21,232.029C85.21,157.432,145.683,96.959,220.28,96.959z"/>
	<rect x="103.14" y="232.029" width="28.688" height="9.562"/>
	<rect x="303.953" y="232.029" width="28.688" height="9.562"/>
	<rect x="217.89" y="318.092" width="9.563" height="28.688"/>
</g>
<g>
</g>
<g>
</g>
<g>
</g>
<g>
</g>
<g>
</g>
<g>
</g>
<g>
</g>
<g>
</g>
<g>
</g>
<g>
</g>
<g>
</g>
<g>
</g>
<g>
</g>
<g>
</g>
<g>
</g>
</svg>
