<?xml version="1.0" encoding="iso-8859-1"?>
<!-- Generator: Adobe Illustrator 16.0.0, SVG Export Plug-In . SVG Version: 6.00 Build 0)  -->
<!DOCTYPE svg PUBLIC "-//W3C//DTD SVG 1.1//EN" "http://www.w3.org/Graphics/SVG/1.1/DTD/svg11.dtd">
<svg version="1.1" id="Capa_1" xmlns="http://www.w3.org/2000/svg" xmlns:xlink="http://www.w3.org/1999/xlink" x="0px" y="0px"
	 width="581.4px" height="581.401px" viewBox="0 0 581.4 581.401" style="enable-background:new 0 0 581.4 581.401;"
	 xml:space="preserve">
<g>
	<path d="M118.575,74.349l39.207,4.781h167.344v39.207H147.741v-30.6L0,70.045v450.872l147.741-34.903V127.899h29.644v40.162
		c-5.737,1.913-10.041,7.65-10.041,13.866v187.425c0,8.128,6.694,14.821,14.822,14.821s14.822-6.693,14.822-14.821V182.405
		c0-6.215-4.303-11.953-10.041-13.865v-40.163h39.206v40.163c-5.737,1.912-10.041,7.65-10.041,13.865v216.591
		c0,8.128,6.694,14.822,14.822,14.822c8.128,0,14.822-6.694,14.822-14.822V182.405c0-6.215-4.303-11.953-10.041-13.865v-40.163
		h39.207v40.163c-5.738,1.912-10.041,7.65-10.041,13.865v216.591c0,8.128,6.693,14.822,14.822,14.822s14.822-6.694,14.822-14.822
		V182.405c0-6.215-4.303-11.953-10.041-13.865v-40.163h39.207v364.332H156.347l-39.206,10.519v58.331h29.644v-29.644h177.384v29.644
		h29.645v-29.644h177.385v29.644h29.643V49.008H118.575V74.349z M354.77,78.652h167.344V492.23H354.77V78.652z"/>
	<path d="M364.809,482.667h147.742V88.692H364.809V482.667z M393.02,261.774c6.693,0,12.43,5.737,12.43,12.431
		s-5.736,12.431-12.43,12.431c-6.695,0-12.432-5.737-12.432-12.431C380.588,267.033,386.324,261.774,393.02,261.774z"/>
	<polygon points="118.575,39.446 561.797,39.446 581.4,19.842 98.494,19.842 	"/>
</g>
<g>
</g>
<g>
</g>
<g>
</g>
<g>
</g>
<g>
</g>
<g>
</g>
<g>
</g>
<g>
</g>
<g>
</g>
<g>
</g>
<g>
</g>
<g>
</g>
<g>
</g>
<g>
</g>
<g>
</g>
</svg>
