<?xml version="1.0" encoding="iso-8859-1"?>
<!-- Generator: Adobe Illustrator 16.0.0, SVG Export Plug-In . SVG Version: 6.00 Build 0)  -->
<!DOCTYPE svg PUBLIC "-//W3C//DTD SVG 1.1//EN" "http://www.w3.org/Graphics/SVG/1.1/DTD/svg11.dtd">
<svg version="1.1" id="Capa_1" xmlns="http://www.w3.org/2000/svg" xmlns:xlink="http://www.w3.org/1999/xlink" x="0px" y="0px"
	 width="468.562px" height="468.562px" viewBox="0 0 468.562 468.562" style="enable-background:new 0 0 468.562 468.562;"
	 xml:space="preserve">
<g>
	<path d="M401.625,86.062H66.938v57.375h334.688V86.062z M228.305,124.905c-6.598,0-11.953-5.355-11.953-11.953
		s5.355-11.953,11.953-11.953s11.953,5.355,11.953,11.953S234.902,124.905,228.305,124.905z"/>
	<path d="M210.375,191.25H66.938V382.5h143.438V191.25z M180.492,306.593c-6.598,0-11.953-5.354-11.953-11.953
		c0-6.598,5.355-11.953,11.953-11.953s11.953,5.355,11.953,11.953C192.445,301.238,187.09,306.593,180.492,306.593z"/>
	<path d="M401.625,191.25H258.188V382.5h143.438V191.25z M285.68,306.593c-6.598,0-11.953-5.354-11.953-11.953
		c0-6.598,5.355-11.953,11.953-11.953s11.953,5.355,11.953,11.953C297.633,301.238,292.277,306.593,285.68,306.593z"/>
	<path d="M449.438,449.438V420.75v-28.688V47.812H19.125v344.25v28.688v28.688h28.688V420.75h172.125v28.688h28.688V420.75H420.75
		v28.688H449.438z M219.938,392.062H57.375V181.688h162.562V392.062z M411.188,392.062H248.625V181.688h162.562V392.062z
		 M411.188,153H57.375V76.5h353.812V153z"/>
	<polygon points="449.438,38.25 468.562,19.125 0,19.125 19.125,38.25 	"/>
</g>
<g>
</g>
<g>
</g>
<g>
</g>
<g>
</g>
<g>
</g>
<g>
</g>
<g>
</g>
<g>
</g>
<g>
</g>
<g>
</g>
<g>
</g>
<g>
</g>
<g>
</g>
<g>
</g>
<g>
</g>
</svg>
