<?xml version="1.0" encoding="iso-8859-1"?>
<!-- Generator: Adobe Illustrator 16.0.0, SVG Export Plug-In . SVG Version: 6.00 Build 0)  -->
<!DOCTYPE svg PUBLIC "-//W3C//DTD SVG 1.1//EN" "http://www.w3.org/Graphics/SVG/1.1/DTD/svg11.dtd">
<svg version="1.1" id="Capa_1" xmlns="http://www.w3.org/2000/svg" xmlns:xlink="http://www.w3.org/1999/xlink" x="0px" y="0px"
	 width="489.312px" height="489.312px" viewBox="0 0 489.312 489.312" style="enable-background:new 0 0 489.312 489.312;"
	 xml:space="preserve">
<g>
	<g>
		<polygon points="19.125,115.562 66.938,115.562 76.5,115.562 124.312,115.562 124.312,77.312 19.125,77.312 		"/>
		<polygon points="133.875,115.562 181.688,115.562 191.25,115.562 239.063,115.562 239.063,77.312 133.875,77.312 		"/>
		<polygon points="248.625,115.562 296.438,115.562 306,115.562 353.812,115.562 353.812,77.312 248.625,77.312 		"/>
		<polygon points="468.562,77.312 363.375,77.312 363.375,115.562 411.188,115.562 420.75,115.562 468.562,115.562 		"/>
		<rect x="19.125" y="125.125" width="47.812" height="38.25"/>
		<polygon points="124.312,125.125 76.5,125.125 76.5,163.375 124.312,163.375 133.875,163.375 181.688,163.375 181.688,125.125 
			133.875,125.125 		"/>
		<polygon points="239.063,125.125 191.25,125.125 191.25,163.375 239.063,163.375 248.625,163.375 296.438,163.375 
			296.438,125.125 248.625,125.125 		"/>
		<polygon points="363.375,163.375 411.188,163.375 411.188,125.125 363.375,125.125 353.812,125.125 306,125.125 306,163.375 
			353.812,163.375 		"/>
		<rect x="420.75" y="125.125" width="47.812" height="38.25"/>
		<polygon points="19.125,211.188 66.938,211.188 76.5,211.188 124.312,211.188 124.312,172.938 76.5,172.938 66.938,172.938 
			19.125,172.938 		"/>
		<polygon points="191.25,211.188 239.063,211.188 239.063,172.938 191.25,172.938 181.688,172.938 133.875,172.938 
			133.875,211.188 181.688,211.188 		"/>
		<polygon points="296.438,172.938 248.625,172.938 248.625,211.188 296.438,211.188 306,211.188 353.812,211.188 353.812,172.938 
			306,172.938 		"/>
		<polygon points="468.562,172.938 420.75,172.938 411.188,172.938 363.375,172.938 363.375,211.188 411.188,211.188 
			420.75,211.188 468.562,211.188 		"/>
		<rect x="19.125" y="220.75" width="47.812" height="38.25"/>
		<polygon points="124.312,220.75 76.5,220.75 76.5,259 124.312,259 133.875,259 181.688,259 181.688,220.75 133.875,220.75 		"/>
		<polygon points="248.625,259 296.438,259 296.438,220.75 248.625,220.75 239.063,220.75 191.25,220.75 191.25,259 239.063,259 		
			"/>
		<polygon points="411.188,259 411.188,220.75 363.375,220.75 353.812,220.75 306,220.75 306,259 353.812,259 363.375,259 		"/>
		<rect x="420.75" y="220.75" width="47.812" height="38.25"/>
		<path d="M76.5,306.812h47.812v-38.25H76.5h-9.562H19.125v38.25h16.467c7.019-6.34,15.137-11.351,24.624-14.344l9.285-2.936
			l-3.356,9.142c-0.048,0.134-1.119,3.099-2.668,8.138h3.461H76.5L76.5,306.812z"/>
		<path d="M239.063,268.562h-13.971c2.104,1.023,7.478,4.064,13.971,10.175V268.562z"/>
		<path d="M228.439,306.812c-1.636-12.393-4.743-23.505-10.098-31.633l-4.38-6.617H191.25h-9.562h-47.812v38.25h20.091
			c6.034-4.322,12.747-8.271,20.234-11.704l17.796-8.138l-12.039,15.424c-0.058,0.076-1.291,1.683-3.137,4.408h4.867h9.562h37.189
			V306.812z"/>
		<path d="M350.389,306.812c-0.086-0.172-0.133-0.354-0.219-0.535l-6.512-12.661l10.154,4.877v-29.931H306h-9.562h-47.812v20.933
			c3.605,4.752,7.201,10.461,10.586,17.317h37.227H306H350.389z"/>
		<path d="M468.562,268.562H420.75h-9.562h-47.812v36.089c0.736,0.641,1.502,1.367,2.305,2.161h45.508h9.562h47.812V268.562z"/>
		<path d="M19.125,327.113c2.295-3.776,4.791-7.362,7.488-10.738h-7.488V327.113z"/>
		<path d="M66.938,351.804v-35.429h-6.206c-2.687,9.993-5.728,23.457-7.621,38.25h12.335
			C65.934,353.679,66.421,352.741,66.938,351.804z"/>
		<path d="M142.462,316.375h-8.587h-9.562h-11.724l-2.189,5.298c-0.115,0.287-6.206,15.194-10.567,32.952h15.271
			C121.167,341.486,129.945,328.099,142.462,316.375z"/>
		<path d="M181.688,316.375h-10.853c-5.623,9.716-12.192,23.515-14.927,38.25h25.78V316.375z"/>
		<path d="M101.965,316.375H76.5v20.664C83.452,328.051,91.886,320.659,101.965,316.375z"/>
		<path d="M229.423,316.375h-37.848v6.598l7.822,13.359c0.363,0.65,4.188,7.525,9.142,18.283h20.425
			C229.93,342.003,230.303,328.787,229.423,316.375z"/>
		<path d="M296.438,316.375h-33c4.16,10.471,7.611,23.112,9.791,38.25h23.209V316.375z"/>
		<path d="M353.852,316.375h-0.039H306v38.25h0.545c3.777-3.72,7.697-7.21,11.752-10.213l13.924-10.337l-6.656,16.018
			c-0.037,0.086-0.727,1.788-1.674,4.542h27.713C355.496,341.993,357.045,328.749,353.852,316.375z"/>
		<path d="M403.021,341.84l5.479-3.768l1.818,6.397c0.018,0.066,0.334,1.186,0.859,3.089v-31.184h-37.695
			c5.67,8.415,14.697,29.586,16.793,49.906C390.266,366.281,395.352,346.555,403.021,341.84z"/>
		<path d="M464.756,316.375H420.75v38.25h19.307C446.826,340.979,455.061,327.324,464.756,316.375z"/>
		<path d="M101.965,409.208c0,0,0-26.699,9.151-45.021H97.738C90.844,392.674,101.889,409.035,101.965,409.208z"/>
		<path d="M51.552,390.427c2.266-7.975,5.326-17.107,9.314-26.239h-8.788C51.332,372.774,51.054,381.639,51.552,390.427z"/>
		<path d="M228.132,364.188h-15.357c3.768,8.846,7.774,19.249,11.265,30.504C225.465,386.19,226.985,375.605,228.132,364.188z"/>
		<path d="M155.228,376.667c1.501,9.734,8.53,24.575,18.886,33.239l2.687-7.469c3.069-8.339,7.009-21.085,10.117-38.25h-5.231
			h-26.976C154.473,368.348,154.597,372.535,155.228,376.667z"/>
		<path d="M322.143,409.906l4.494-7.469c6.453-8.95,15.318-22.73,21.582-38.25h-27.264
			C317.992,375.242,313.766,391.077,322.143,409.906z"/>
		<path d="M297.613,364.188h-1.176h-22.061c0.908,9.123,1.463,18.896,1.33,29.739C281.225,385.244,288.816,374.362,297.613,364.188z
			"/>
		<path d="M415.566,364.188c2.297,9.075,5.021,20.396,7.449,32.044c3.004-8.932,7.211-20.244,12.527-32.044H420.75H415.566z"/>
		<polygon points="0,67.75 9.562,67.75 124.312,67.75 133.875,67.75 239.063,67.75 248.625,67.75 353.812,67.75 363.375,67.75 
			478.125,67.75 487.688,67.75 487.688,19.938 0,19.938 		"/>
		<path d="M468.562,326.559c-6.664,8.311-12.574,18.073-17.738,28.066c-1.645,3.185-3.213,6.368-4.695,9.562
			c-6.656,14.296-11.732,28.219-15.031,38.25c-1.273,3.883-2.248,7.066-2.994,9.562c-0.947,3.213-1.502,5.26-1.539,5.394
			l-5.652,21.716l-3.691-22.137c-0.277-1.636-0.582-3.318-0.889-4.982c-0.574-3.175-1.176-6.358-1.816-9.562
			c-2.82-14.037-6.168-27.874-8.826-38.25c-0.803-3.137-1.568-6.072-2.199-8.463c-1.32,2.295-2.592,5.184-3.826,8.463
			c-3.557,9.448-18.656,73.517-18.656,73.517s0.154-62.864-1.213-73.526c-0.441-3.423-1.023-6.521-1.637-9.562
			c-3.223-15.988-8.539-26.976-13.559-34.09c1.664,11.341,0.229,22.979-2.869,34.09c-0.908,3.242-1.961,6.427-3.127,9.562
			c-1.443,3.902-3.07,7.679-4.781,11.352c-4.838,10.355-10.434,19.584-15.414,26.898c-2.545,3.739-4.887,6.962-6.877,9.562
			c-3.193,4.17-5.469,6.838-5.908,7.345l-3.309,3.786l-3.615-3.5c-2.344-2.266-4.094-4.886-5.604-7.631
			c-1.645-2.992-2.84-6.196-3.662-9.562c-3.08-12.632-1.109-27.119,1.635-38.25c0.057-0.248,0.115-0.525,0.172-0.765
			c-0.238,0.249-0.479,0.517-0.717,0.765c-12.01,12.537-22.309,27.741-28.812,38.25c-2.477,3.997-4.418,7.345-5.67,9.562
			c-1.053,1.865-1.635,2.955-1.664,3.022l-10.566,20.023l1.568-22.577c0.01-0.162,0.01-0.306,0.02-0.469
			c0.219-3.289,0.344-6.426,0.469-9.562c0.555-14.209,0.143-26.956-1.062-38.25c-0.354-3.309-0.783-6.483-1.252-9.562
			c-2.4-15.52-6.254-28.085-10.691-38.25c-1.367-3.127-2.773-6.043-4.227-8.73c-0.152-0.286-0.316-0.555-0.469-0.832
			c-2.993-5.412-6.082-9.926-9.093-13.664c-1.664-2.065-3.3-3.949-4.858-5.556c1.76,5.967,3.003,12.45,3.845,19.22
			c0.392,3.137,0.688,6.331,0.918,9.562c0.87,12.565,0.545,25.704-0.363,38.25c-0.239,3.242-0.498,6.427-0.804,9.562
			c-1.463,15.032-3.586,28.593-5.354,38.25c-0.708,3.873-1.349,7.096-1.855,9.562c-0.593,2.879-1.014,4.763-1.129,5.27
			l-4.781,20.837l-4.552-20.895c-0.383-1.75-0.832-3.471-1.253-5.212c-0.793-3.223-1.635-6.416-2.543-9.562
			c-4.169-14.372-9.371-27.683-14.019-38.25c-1.463-3.337-2.888-6.474-4.179-9.199c-0.469,3.262-1.014,6.188-1.54,9.199
			c-2.869,16.419-6.455,29.271-9.572,38.25c-1.377,3.969-2.601,7.067-3.653,9.562c-1.625,3.863-2.792,6.168-2.955,6.465
			l-2.524,4.686l-4.389-3.013c-3.682-2.524-6.98-5.249-9.955-8.138c-3.088-2.992-5.785-6.187-8.109-9.562
			c-5.011-7.276-8.271-15.396-9.648-24.346c-0.717-4.647-0.774-9.285-0.555-13.904c0.153-3.223,0.478-6.406,1.004-9.562
			c2.381-14.468,8.071-27.903,13.626-38.25c0.574-1.07,1.157-2.218,1.731-3.223c-1.53,1.033-2.831,2.162-4.246,3.232
			c-14.698,11.141-24.824,24.69-31.7,38.25c-0.478,0.938-0.909,1.865-1.348,2.802c-1.081,2.267-2.094,4.514-3.003,6.761
			c-5.996,14.727-8.616,28.554-9.715,38.25c-0.45,3.979-0.679,7.239-0.765,9.562c-0.096,2.429-0.077,3.931-0.077,4.035l0.239,7.325
			l-6.799-2.726c-4.514-1.816-8.157-4.762-11.026-8.625c-1.405-1.894-2.687-3.93-3.681-6.302c-0.421-1.004-0.603-2.189-0.947-3.261
			c-3.452-10.882-2.831-24.748-0.45-38.25c0.574-3.242,1.205-6.436,1.932-9.562c2.171-9.409,4.848-18.14,7.096-24.681
			c-8.3,5.947-15.08,14.717-20.617,24.403c-0.047,0.096-0.095,0.191-0.153,0.277c-1.769,3.117-3.395,6.32-4.905,9.562
			c-6.417,13.751-10.605,27.999-13.082,38.25c-0.938,3.873-1.626,7.114-2.113,9.562c-0.574,2.926-0.88,4.791-0.899,4.905
			l-3.462,22.94l-5.891-22.443c-0.468-1.778-0.841-3.595-1.224-5.402c-0.669-3.155-1.253-6.34-1.683-9.562
			c-1.721-12.737-1.692-25.8-0.679-38.25c0.258-3.232,0.574-6.436,0.947-9.562c1.779-14.641,4.695-27.941,7.411-38.25
			c0.937-3.586,1.846-6.789,2.677-9.562c0.134-0.431,0.268-0.928,0.392-1.339c-0.727,0.383-1.348,0.918-2.046,1.339
			c-4.465,2.648-8.558,5.843-12.25,9.562c-8.664,8.711-15.3,19.985-20.416,32.293c-0.822,1.979-1.654,3.939-2.4,5.957
			c-1.157,3.155-2.247,6.34-3.232,9.562c-1.52,4.982-2.792,9.993-3.93,14.975C0,408.615,0,450.25,0,450.25v19.125h473.047
			l-4.484-28.688c0,0-2.553-17.786-2.371-28.688c0.057-3.117,0.201-6.302,0.459-9.562c0.41-5.221,1.07-10.576,1.902-15.998
			c1.148-7.421,2.602-14.898,4.275-22.252c0.736-3.232,1.5-6.416,2.295-9.562c0.975-3.844,1.969-7.621,2.982-11.265
			c4.045-14.468,8.271-27.101,11.207-35.4c-3.92,2.181-7.621,5.135-11.207,8.435C474.807,319.444,471.584,322.791,468.562,326.559z"
			/>
	</g>
</g>
<g>
</g>
<g>
</g>
<g>
</g>
<g>
</g>
<g>
</g>
<g>
</g>
<g>
</g>
<g>
</g>
<g>
</g>
<g>
</g>
<g>
</g>
<g>
</g>
<g>
</g>
<g>
</g>
<g>
</g>
</svg>
