<?xml version="1.0" encoding="iso-8859-1"?>
<!-- Generator: Adobe Illustrator 16.0.0, SVG Export Plug-In . SVG Version: 6.00 Build 0)  -->
<!DOCTYPE svg PUBLIC "-//W3C//DTD SVG 1.1//EN" "http://www.w3.org/Graphics/SVG/1.1/DTD/svg11.dtd">
<svg version="1.1" id="Capa_1" xmlns="http://www.w3.org/2000/svg" xmlns:xlink="http://www.w3.org/1999/xlink" x="0px" y="0px"
	 width="516.375px" height="516.375px" viewBox="0 0 516.375 516.375" style="enable-background:new 0 0 516.375 516.375;"
	 xml:space="preserve">
<g>
	<path d="M449.438,93.234H162.562v-38.25c0-2.639-2.142-4.781-4.781-4.781S153,52.345,153,54.984v38.25H66.938v-38.25
		c0-2.639-2.142-4.781-4.781-4.781s-4.781,2.142-4.781,4.781v40.899c-5.689,3.309-9.562,9.409-9.562,16.476v19.125h9.562v9.562
		h-9.562v19.125c0,7.057,3.873,13.158,9.562,16.476v186.995c-5.689,3.309-9.562,9.41-9.562,16.477v19.125h9.562v9.562h-9.562v19.125
		c0,7.057,3.873,13.158,9.562,16.476v50.452c0,2.64,2.142,4.781,4.781,4.781s4.781-2.142,4.781-4.781v-28.688H153v28.688
		c0,2.64,2.142,4.781,4.781,4.781s4.781-2.142,4.781-4.781v-47.812h286.875c10.566,0,19.125-8.559,19.125-19.125v-19.125h-306
		v-9.562h306v-19.125c0-10.566-8.559-19.125-19.125-19.125H162.562V179.297h286.875c10.566,0,19.125-8.559,19.125-19.125v-19.125
		h-306v-9.562h306v-19.125C468.562,101.793,460.004,93.234,449.438,93.234z M153,456.609H66.938v-9.562H153V456.609z M153,408.797
		H66.938v-9.562H153V408.797z M153,360.984H66.938v-9.562H153V360.984z M153,341.859H66.938v-28.688H153V341.859z M153,303.609
		H66.938v-28.688H153V303.609z M153,265.359H66.938v-28.688H153V265.359z M153,227.109H66.938v-28.688H153V227.109z M153,188.859
		H66.938v-9.562H153V188.859z M153,141.047H66.938v-9.562H153V141.047z"/>
	<path d="M21.516,16.734h-4.781C7.497,16.734,0,24.231,0,33.469v444.656c0,9.237,7.497,16.734,16.734,16.734h4.781
		c9.237,0,16.734-7.497,16.734-16.734v-69.328v-9.562V141.047v-9.562V33.469C38.25,24.231,30.753,16.734,21.516,16.734z"/>
	<path d="M499.641,16.734h-4.781c-9.237,0-16.734,7.497-16.734,16.734v98.016v9.562v258.188v9.562v69.328
		c0,9.237,7.497,16.734,16.734,16.734h4.781c9.237,0,16.734-7.497,16.734-16.734V33.469
		C516.375,24.231,508.878,16.734,499.641,16.734z"/>
	<path d="M459,70.581c0-14.459-11.724-25.159-26.182-25.159h-39.273c-14.459,0-30.17,10.7-30.17,25.159v13.091H459V70.581z"/>
	<path d="M393.545,313.172c-14.459,0-30.17,10.7-30.17,25.159v13.091H459v-13.091c0-14.459-11.724-25.159-26.182-25.159H393.545z"/>
</g>
<g>
</g>
<g>
</g>
<g>
</g>
<g>
</g>
<g>
</g>
<g>
</g>
<g>
</g>
<g>
</g>
<g>
</g>
<g>
</g>
<g>
</g>
<g>
</g>
<g>
</g>
<g>
</g>
<g>
</g>
</svg>
