<?xml version="1.0" encoding="iso-8859-1"?>
<!-- Generator: Adobe Illustrator 16.0.0, SVG Export Plug-In . SVG Version: 6.00 Build 0)  -->
<!DOCTYPE svg PUBLIC "-//W3C//DTD SVG 1.1//EN" "http://www.w3.org/Graphics/SVG/1.1/DTD/svg11.dtd">
<svg version="1.1" id="Capa_1" xmlns="http://www.w3.org/2000/svg" xmlns:xlink="http://www.w3.org/1999/xlink" x="0px" y="0px"
	 width="401.625px" height="401.625px" viewBox="0 0 401.625 401.625" style="enable-background:new 0 0 401.625 401.625;"
	 xml:space="preserve">
<g>
	<g>
		<polygon points="362.12,38.25 377.43,0 18.607,0 33.917,38.25 		"/>
		<polygon points="33.917,363.375 18.607,401.625 377.43,401.625 362.12,363.375 		"/>
		<path d="M366.701,344.25c7.812-24.107,54.152-179.564-11.169-286.875H39.664c-8.635,18.771-57.815,137.317-0.928,286.875H366.701z
			 M132.745,153.794c1.405,0,2.735,0.277,4.102,0.411c14.727-15.386,35.41-25.025,58.332-25.025c7.917,0,15.557,1.195,22.796,3.328
			c6.226-15.511,21.362-26.527,39.082-26.527c23.256,0,42.161,18.915,42.161,42.161c0,17.719-11.007,32.847-26.526,39.082
			c2.132,7.239,3.327,14.879,3.327,22.797c0,44.57-36.271,80.831-80.84,80.831c-35.668,0-65.962-23.256-76.663-55.376
			c-16.237-5.871-27.932-21.286-27.932-39.522C90.584,172.718,109.489,153.794,132.745,153.794z"/>
		<path d="M174.906,195.964c0,23.247-18.915,42.161-42.161,42.161c-1.09,0-2.123-0.238-3.194-0.325
			c10.853,25.542,36.184,43.49,65.627,43.49c39.301,0,71.278-31.967,71.278-71.269c0-7.076-1.07-13.904-3.002-20.359
			c-2.104,0.325-4.208,0.65-6.407,0.65c-23.256,0-42.161-18.915-42.161-42.161c0-2.19,0.325-4.293,0.65-6.397
			c-6.455-1.932-13.282-3.002-20.358-3.002c-18.102,0-34.607,6.847-47.191,18.006C163.699,162.897,174.906,178.102,174.906,195.964z
			"/>
		<path d="M257.057,180.75c0.994,0,1.932-0.201,2.897-0.296c1.692-0.153,3.347-0.373,4.953-0.775
			c1.568-0.392,3.117-0.822,4.59-1.425c11.819-4.905,20.158-16.543,20.158-30.112c0-17.978-14.621-32.598-32.599-32.598
			c-13.569,0-25.207,8.338-30.112,20.157c-0.612,1.473-1.033,3.022-1.425,4.59c-0.401,1.606-0.622,3.261-0.774,4.953
			c-0.086,0.966-0.297,1.903-0.297,2.897C224.458,166.129,239.08,180.75,257.057,180.75z"/>
		<path d="M115.571,223.552c1.683,1.052,3.461,1.971,5.336,2.706c1.73,0.68,3.509,1.272,5.364,1.655
			c2.094,0.42,4.255,0.649,6.474,0.649c17.978,0,32.599-14.621,32.599-32.598c0-15.291-10.624-28.066-24.853-31.566
			c-1.769-0.43-3.596-0.669-5.46-0.803c-0.774-0.057-1.511-0.229-2.295-0.229c-1.281,0-2.496,0.229-3.739,0.373
			c-16.199,1.874-28.869,15.529-28.869,32.226C100.146,207.621,106.343,217.786,115.571,223.552z"/>
	</g>
</g>
<g>
</g>
<g>
</g>
<g>
</g>
<g>
</g>
<g>
</g>
<g>
</g>
<g>
</g>
<g>
</g>
<g>
</g>
<g>
</g>
<g>
</g>
<g>
</g>
<g>
</g>
<g>
</g>
<g>
</g>
</svg>
