<?xml version="1.0" encoding="iso-8859-1"?>
<!-- Generator: Adobe Illustrator 16.0.0, SVG Export Plug-In . SVG Version: 6.00 Build 0)  -->
<!DOCTYPE svg PUBLIC "-//W3C//DTD SVG 1.1//EN" "http://www.w3.org/Graphics/SVG/1.1/DTD/svg11.dtd">
<svg version="1.1" id="Capa_1" xmlns="http://www.w3.org/2000/svg" xmlns:xlink="http://www.w3.org/1999/xlink" x="0px" y="0px"
	 width="479.914px" height="479.913px" viewBox="0 0 479.914 479.913" style="enable-background:new 0 0 479.914 479.913;"
	 xml:space="preserve">
<g>
	<g>
		<polygon points="129.988,479.913 349.925,479.913 355.72,432.101 124.193,432.101 		"/>
		<polygon points="123.036,422.538 356.877,422.538 381.223,221.726 98.69,221.726 		"/>
		<path d="M375.62,126.101h-3.586c-6.923,0-12.546,3.749-12.546,8.367v29.883H120.425v-29.883c0-4.619-5.623-8.367-12.556-8.367
			h-3.586c-6.923,0-12.546,3.749-12.546,8.367v29.883v1.195c0,0.287,0.201,0.526,0.239,0.794l5.556,45.823H382.38l5.556-45.823
			c0.038-0.268,0.239-0.507,0.239-0.794v-1.195v-29.883C388.175,129.849,382.552,126.101,375.62,126.101z"/>
		<path d="M238.761,9.553c60.655,0,112.78,41.147,126.771,100.072l9.304-2.2C359.832,44.169,303.873,0,238.771,0
			c-65.035,0-120.966,44.121-136.046,107.291l9.304,2.219C126.058,50.662,178.173,9.553,238.761,9.553z"/>
	</g>
</g>
<g>
</g>
<g>
</g>
<g>
</g>
<g>
</g>
<g>
</g>
<g>
</g>
<g>
</g>
<g>
</g>
<g>
</g>
<g>
</g>
<g>
</g>
<g>
</g>
<g>
</g>
<g>
</g>
<g>
</g>
</svg>
