<?xml version="1.0" encoding="iso-8859-1"?>
<!-- Generator: Adobe Illustrator 16.0.0, SVG Export Plug-In . SVG Version: 6.00 Build 0)  -->
<!DOCTYPE svg PUBLIC "-//W3C//DTD SVG 1.1//EN" "http://www.w3.org/Graphics/SVG/1.1/DTD/svg11.dtd">
<svg version="1.1" id="Capa_1" xmlns="http://www.w3.org/2000/svg" xmlns:xlink="http://www.w3.org/1999/xlink" x="0px" y="0px"
	 width="548.506px" height="548.506px" viewBox="0 0 548.506 548.506" style="enable-background:new 0 0 548.506 548.506;"
	 xml:space="preserve">
<g>
	<g>
		<path d="M524.149,325.887c-26.297-1.912-109.491-11.475-111.882-11.475c0.479,0-0.956,0-3.347,0
			c-4.303,0-13.388,0.956-28.688,8.606c-5.259,2.868-20.56,10.04-41.118,20.559c0.478,0,0.956,0,1.434,0
			c6.694,0,13.866,1.435,17.691,6.216l42.074-21.516l108.057,10.041l-283.05,196.987L50.327,509.009l227.588-117.141
			c0,0,0.478-13.865,7.172-19.125C190.896,420.556,59.411,488.928,32.158,503.271c-11.475,5.737-10.041,15.778,0,17.69
			c14.822,2.869,181.209,26.775,185.034,27.253c13.866,1.913,23.428-6.216,23.906-6.693l285.919-199.378
			c4.781-3.348,6.216-4.781,6.216-9.562C534.189,328.756,529.887,326.365,524.149,325.887z"/>
		<path d="M363.021,401.909c0,1.434-0.957,3.347-2.391,3.824l-54.507,34.426c-1.912,0.956-3.825,0.956-4.781,0.478
			c-0.956-0.478-21.993-6.693-21.993-6.693c-2.391-0.956-3.348-4.304-3.348-6.216l1.913-25.341L79.971,504.228l143.438,21.516
			l260.101-180.731l-80.325-7.172l-40.162,21.038V401.909z"/>
		<path d="M291.303,358.878l4.303,5.259c4.781-2.391,10.519-5.259,16.256-8.606l-3.824-5.259l-5.738-7.172L31.68,3.631
			c-3.347-4.304-8.606-4.781-12.91-1.435s-4.781,8.606-1.434,12.909l268.707,336.601L291.303,358.878z"/>
		<path d="M336.246,353.618c-1.912,0.956-35.381,19.125-36.815,19.604c-8.606,4.781-10.519,15.3-10.997,19.125
			c-0.479,3.824-3.347,33.946-3.347,33.946l13.865,4.304c0,0,0-40.641,0-41.598c0-0.956,0.956-10.04,5.26-12.431
			c3.347-1.913,40.162-21.038,40.641-21.516C344.374,353.618,342.939,350.749,336.246,353.618z"/>
		<path d="M352.024,359.834c-1.913,0.956-39.206,20.56-41.597,22.472s-2.391,5.737-2.391,6.693v39.685l45.899-29.165v-36.338
			c0-1.435,0-2.869-0.478-3.347C353.459,359.355,352.98,359.355,352.024,359.834z"/>
	</g>
</g>
<g>
</g>
<g>
</g>
<g>
</g>
<g>
</g>
<g>
</g>
<g>
</g>
<g>
</g>
<g>
</g>
<g>
</g>
<g>
</g>
<g>
</g>
<g>
</g>
<g>
</g>
<g>
</g>
<g>
</g>
</svg>
