<?xml version="1.0" encoding="iso-8859-1"?>
<!-- Generator: Adobe Illustrator 16.0.0, SVG Export Plug-In . SVG Version: 6.00 Build 0)  -->
<!DOCTYPE svg PUBLIC "-//W3C//DTD SVG 1.1//EN" "http://www.w3.org/Graphics/SVG/1.1/DTD/svg11.dtd">
<svg version="1.1" id="Capa_1" xmlns="http://www.w3.org/2000/svg" xmlns:xlink="http://www.w3.org/1999/xlink" x="0px" y="0px"
	 width="487.209px" height="487.209px" viewBox="0 0 487.209 487.209" style="enable-background:new 0 0 487.209 487.209;"
	 xml:space="preserve">
<g>
	<g>
		<path d="M394.453,487.209v-153c0-0.955,0-1.912,0-2.869H93.712c0,0.957,0,1.914,0,2.869v153h20.56v-134.83
			c0-2.869,2.391-5.26,5.259-5.26s5.259,2.391,5.259,5.26v134.83h20.56v-134.83c0-2.869,2.391-5.26,5.259-5.26
			s5.259,2.391,5.259,5.26v134.83h20.56v-134.83c0-2.869,2.391-5.26,5.259-5.26s5.259,2.391,5.259,5.26v134.83h20.56v-134.83
			c0-2.869,2.391-5.26,5.259-5.26s5.259,2.391,5.259,5.26v134.83h20.559v-134.83c0-2.869,2.391-5.26,5.26-5.26s5.26,2.391,5.26,5.26
			v134.83h20.559v-134.83c0-2.869,2.391-5.26,5.26-5.26s5.26,2.391,5.26,5.26v134.83h20.559v-134.83c0-2.869,2.391-5.26,5.26-5.26
			s5.26,2.391,5.26,5.26v134.83h20.559v-134.83c0-2.869,2.391-5.26,5.26-5.26s5.26,2.391,5.26,5.26v134.83h20.559v-134.83
			c0-2.869,2.391-5.26,5.26-5.26s5.26,2.391,5.26,5.26v134.83H394.453z"/>
		<path d="M79.369,321.301h10.519h297.394l0,0H397.8h11.953v-74.109l0,0c0-19.604-27.253-27.254-55.94-35.86
			c-31.557-9.084-67.416-19.603-68.372-49.725v-7.172v-7.65V20.559C285.44,9.084,276.834,0,267.271,0h-43.031
			c-9.562,0-21.994,9.084-21.994,20.559v131.484v4.303V168.3c0,21.994-29.644,30.6-61.2,39.685
			c-31.078,9.084-63.591,18.647-63.591,39.207v74.109H79.369L79.369,321.301z M242.409,33.469c7.65,0,13.866,6.215,13.866,13.866
			c0,7.65-6.216,13.865-13.866,13.865c-7.65,0-13.865-6.215-13.865-13.865C228.544,39.684,234.759,33.469,242.409,33.469z"/>
	</g>
</g>
<g>
</g>
<g>
</g>
<g>
</g>
<g>
</g>
<g>
</g>
<g>
</g>
<g>
</g>
<g>
</g>
<g>
</g>
<g>
</g>
<g>
</g>
<g>
</g>
<g>
</g>
<g>
</g>
<g>
</g>
</svg>
