<?xml version="1.0" encoding="iso-8859-1"?>
<!-- Generator: Adobe Illustrator 16.0.0, SVG Export Plug-In . SVG Version: 6.00 Build 0)  -->
<!DOCTYPE svg PUBLIC "-//W3C//DTD SVG 1.1//EN" "http://www.w3.org/Graphics/SVG/1.1/DTD/svg11.dtd">
<svg version="1.1" id="Capa_1" xmlns="http://www.w3.org/2000/svg" xmlns:xlink="http://www.w3.org/1999/xlink" x="0px" y="0px"
	 width="428.066px" height="428.065px" viewBox="0 0 428.066 428.065" style="enable-background:new 0 0 428.066 428.065;"
	 xml:space="preserve">
<g>
	<path d="M161.441,296.447c-0.803,3.107-1.626,6.272-2.448,9.477c14.458,3.452,33.268,6.569,54.306,6.569
		c17.403,0,36.298-2.181,55.405-8.014c-0.822-3.175-1.626-6.282-2.42-9.343C226.313,307.263,186.83,302.376,161.441,296.447z"/>
	<path d="M167.37,237.867l3.385-0.096c2.582-0.066,5.021,0.593,7.315,0.593l7.516,0.698c0.029,0,0.067,0,0.096,0
		c14.631,0,19.555-0.717,22.137-20.607c2.62-20.244-6.598-22.529-19.364-25.216c-1.96-0.421-3.892-0.995-5.728-1.463l-4.447-1.243
		l0.985-4.542c6.082-27.703,28.486-116.787,30.591-125.145L208.737,0h-38.805c-8.816,42.668-79.885,386.287-84.848,407.496
		c-1.501,6.436-0.736,11.801,2.209,15.529c2.544,3.204,6.723,5.03,11.456,5.03c8.377,0,19.804-5.795,24.432-22.156
		c2.505-8.864,9.926-37.743,17.786-68.334c2.955-11.484,5.929-23.055,8.759-34.042c0.823-3.203,1.635-6.35,2.438-9.438
		c6.732-26.029,12.307-47.21,14.162-53.005L167.37,237.867z"/>
	<path d="M258.146,0h-39.847l1.119,60.712c2.046,7.889,25.293,97.432,31.394,125.24l0.994,4.504l-4.456,1.157
		c-1.941,0.507-4.035,0.937-6.177,1.377c-13.13,2.678-23.505,5.47-20.904,25.484c2.554,19.871,7.497,20.588,22.118,20.588
		c0.028,0,0.067,0,0.096,0l7.517-0.698c2.295,0,4.733-0.315,7.314-0.258l3.386-0.077l1.032,3.146
		c1.798,5.623,7.115,25.762,13.589,50.768c0.803,3.098,1.625,6.272,2.457,9.505c3.003,11.608,6.168,23.935,9.314,36.165
		c7.86,30.581,15.29,59.45,17.786,68.306c4.628,16.361,16.056,22.146,24.432,22.146c4.733,0,8.913-1.836,11.456-5.04
		c2.955-3.729,3.72-9.094,2.209-15.539C338.032,386.296,266.963,42.668,258.146,0z"/>
</g>
<g>
</g>
<g>
</g>
<g>
</g>
<g>
</g>
<g>
</g>
<g>
</g>
<g>
</g>
<g>
</g>
<g>
</g>
<g>
</g>
<g>
</g>
<g>
</g>
<g>
</g>
<g>
</g>
<g>
</g>
</svg>
