<?xml version="1.0" encoding="iso-8859-1"?>
<!-- Generator: Adobe Illustrator 16.0.0, SVG Export Plug-In . SVG Version: 6.00 Build 0)  -->
<!DOCTYPE svg PUBLIC "-//W3C//DTD SVG 1.1//EN" "http://www.w3.org/Graphics/SVG/1.1/DTD/svg11.dtd">
<svg version="1.1" id="Capa_1" xmlns="http://www.w3.org/2000/svg" xmlns:xlink="http://www.w3.org/1999/xlink" x="0px" y="0px"
	 width="606.616px" height="606.616px" viewBox="0 0 606.616 606.616" style="enable-background:new 0 0 606.616 606.616;"
	 xml:space="preserve">
<g>
	<g>
		<path d="M417.479,80.124c-16.485,0-29.845,13.359-29.845,29.845c0,0.421,0.105,0.803,0.125,1.214l-57.949,31.241V77.169
			c10.327-7.86,17.107-20.158,17.107-34.138C346.918,19.269,327.649,0,303.887,0s-43.031,19.269-43.031,43.031
			c0,15.74,8.539,29.357,21.143,36.863v65.331l-63.141-34.042c0.019-0.411,0.124-0.803,0.124-1.214
			c0-16.486-13.358-29.845-29.844-29.845s-29.845,13.359-29.845,29.845s13.359,29.845,29.845,29.845
			c5.422,0,10.433-1.559,14.812-4.074l78.049,42.075v69.921l-40.44-21.803c0.019-0.411,0.125-0.803,0.125-1.214
			c0-16.486-13.359-29.845-29.845-29.845s-29.844,13.359-29.844,29.845s13.358,29.845,29.844,29.845
			c5.422,0,10.433-1.559,14.812-4.074l55.348,29.835v215.758l-86.043,86.044c-5.604,5.594-5.604,14.688,0,20.282
			c2.802,2.802,6.474,4.197,10.146,4.197s7.344-1.396,10.146-4.197l75.314-75.314v46.655c0,7.928,6.417,14.344,14.344,14.344
			c7.928,0,14.344-6.416,14.344-14.344v-47.812h2.199l76.481,76.48c2.802,2.803,6.474,4.198,10.146,4.198s7.344-1.396,10.146-4.198
			c5.604-5.594,5.604-14.688,0-20.281l-88.224-88.224c-0.344-0.345-0.803-0.479-1.176-0.784V279.455l53.731-28.965
			c4.38,2.524,9.391,4.074,14.812,4.074c16.485,0,29.845-13.359,29.845-29.845s-13.359-29.845-29.845-29.845
			c-16.486,0-29.845,13.359-29.845,29.845c0,0.421,0.105,0.803,0.124,1.214l-38.833,20.932v-71.853l72.856-39.273
			c4.38,2.524,9.391,4.074,14.812,4.074c16.485,0,29.845-13.359,29.845-29.845S433.956,80.124,417.479,80.124z"/>
	</g>
</g>
<g>
</g>
<g>
</g>
<g>
</g>
<g>
</g>
<g>
</g>
<g>
</g>
<g>
</g>
<g>
</g>
<g>
</g>
<g>
</g>
<g>
</g>
<g>
</g>
<g>
</g>
<g>
</g>
<g>
</g>
</svg>
