<?xml version="1.0" encoding="iso-8859-1"?>
<!-- Generator: Adobe Illustrator 16.0.0, SVG Export Plug-In . SVG Version: 6.00 Build 0)  -->
<!DOCTYPE svg PUBLIC "-//W3C//DTD SVG 1.1//EN" "http://www.w3.org/Graphics/SVG/1.1/DTD/svg11.dtd">
<svg version="1.1" id="Capa_1" xmlns="http://www.w3.org/2000/svg" xmlns:xlink="http://www.w3.org/1999/xlink" x="0px" y="0px"
	 width="499.24px" height="499.239px" viewBox="0 0 499.24 499.239" style="enable-background:new 0 0 499.24 499.239;"
	 xml:space="preserve">
<g>
	<g>
		<path d="M436.083,0H63.146C52.58,0,44.021,8.559,44.021,19.125v28.688c0,10.566,8.559,19.125,19.125,19.125h181.688v24.365
			c0,4.38,2.983,8.195,7.229,9.275c18.628,4.714,39.646,15.482,40.009,23.419c0.077,1.54-0.994,15.673-59.995,36.576
			c-4.103,1.454-6.703,5.489-6.34,9.821c0.373,4.332,3.615,7.87,7.908,8.606c27.09,4.667,57.967,16.505,58.723,25.34
			c0.048,0.564,0.479,13.914-60.311,35.602c-4.179,1.491-6.78,5.651-6.292,10.06c0.487,4.408,3.939,7.898,8.348,8.435
			c29.175,3.566,62.759,14.993,64.327,25.694c0.411,2.858-0.86,18.57-66.985,47.372c-3.777,1.645-6.082,5.537-5.699,9.64
			c0.373,4.111,3.337,7.516,7.363,8.443c34.224,7.966,66.736,22.988,66.908,30.925c0,0.096-1.108,10.366-48.166,23.39
			c-4.16,1.148-7.028,4.916-7.028,9.219v17.193l9.161,68.927l9.964-68.927v-9.983c38.432-11.446,55.52-23.964,55.176-40.21
			c-0.411-19.909-30.523-33.861-56.305-42.171c39.752-20.11,57.185-38.326,54.535-56.571c-2.734-18.743-27.023-29.567-48.645-35.544
			c30.658-14.124,44.026-27.846,42.716-43.127c-1.521-17.652-24.068-28.802-44.743-35.362c30.974-14.152,45.24-28.477,44.495-44.255
			c-1.033-21.879-31.729-34.176-47.22-39.015V66.938h172.125c10.566,0,19.125-8.559,19.125-19.125V19.125
			C455.208,8.559,446.65,0,436.083,0z"/>
	</g>
</g>
<g>
</g>
<g>
</g>
<g>
</g>
<g>
</g>
<g>
</g>
<g>
</g>
<g>
</g>
<g>
</g>
<g>
</g>
<g>
</g>
<g>
</g>
<g>
</g>
<g>
</g>
<g>
</g>
<g>
</g>
</svg>
