<?xml version="1.0" encoding="iso-8859-1"?>
<!-- Generator: Adobe Illustrator 16.0.0, SVG Export Plug-In . SVG Version: 6.00 Build 0)  -->
<!DOCTYPE svg PUBLIC "-//W3C//DTD SVG 1.1//EN" "http://www.w3.org/Graphics/SVG/1.1/DTD/svg11.dtd">
<svg version="1.1" id="Capa_1" xmlns="http://www.w3.org/2000/svg" xmlns:xlink="http://www.w3.org/1999/xlink" x="0px" y="0px"
	 width="501.4px" height="501.4px" viewBox="0 0 501.4 501.4" style="enable-background:new 0 0 501.4 501.4;" xml:space="preserve"
	>
<g>
	<g>
		<path d="M346.7,0h-192v394.7h192V0z M336.101,220c0,8.101-6.601,14.7-14.7,14.7h-5.3h-40c-7.5,0-13.601-5.6-14.5-12.9
			c-0.101-0.6-0.2-1.199-0.2-1.8v-2.7c0-8.1,6.6-14.7,14.7-14.7h45.3c8.1,0,14.7,6.6,14.7,14.7V220z"/>
		<path d="M321.4,213.3h-5.3h-40c-2.2,0-4,1.8-4,4v2.7c0,2.2,1.8,4,4,4h45.3c1.7,0,3.2-1.1,3.7-2.7c0.1-0.399,0.3-0.899,0.3-1.3
			v-2.7C325.4,215.1,323.601,213.3,321.4,213.3z"/>
		<polygon points="378.7,416 122.7,416 101.3,437.4 400.101,437.4 		"/>
		<polygon points="400.101,448 101.3,448 80,469.4 421.4,469.4 		"/>
		<polygon points="80,480 58.7,501.4 442.7,501.4 421.4,480 		"/>
	</g>
</g>
<g>
</g>
<g>
</g>
<g>
</g>
<g>
</g>
<g>
</g>
<g>
</g>
<g>
</g>
<g>
</g>
<g>
</g>
<g>
</g>
<g>
</g>
<g>
</g>
<g>
</g>
<g>
</g>
<g>
</g>
</svg>
