<?xml version="1.0" encoding="iso-8859-1"?>
<!-- Generator: Adobe Illustrator 16.0.0, SVG Export Plug-In . SVG Version: 6.00 Build 0)  -->
<!DOCTYPE svg PUBLIC "-//W3C//DTD SVG 1.1//EN" "http://www.w3.org/Graphics/SVG/1.1/DTD/svg11.dtd">
<svg version="1.1" id="Capa_1" xmlns="http://www.w3.org/2000/svg" xmlns:xlink="http://www.w3.org/1999/xlink" x="0px" y="0px"
	 width="545.062px" height="545.062px" viewBox="0 0 545.062 545.062" style="enable-background:new 0 0 545.062 545.062;"
	 xml:space="preserve">
<g>
	<g>
		<path d="M100.406,545.062h344.25V0h-344.25V545.062z M167.344,304.25v-4.781v-20.396v-4.781c0-14.153,11.513-25.666,25.666-25.666
			H342.5c14.143,0,25.656,11.513,25.656,25.656v25.178c0,14.152-11.514,25.666-25.666,25.666h-4.781h-144.7h-4.781
			C176.687,325.125,167.344,315.782,167.344,304.25z M185.102,495.51c-5.049,0-9.132-4.093-9.132-9.133
			c0-5.039,4.093-9.132,9.132-9.132c5.039,0,9.132,4.093,9.132,9.132C194.233,491.417,190.15,495.51,185.102,495.51z
			 M185.102,464.192c-5.049,0-9.132-4.093-9.132-9.132c0-5.04,4.093-9.133,9.132-9.133c5.039,0,9.132,4.093,9.132,9.133
			C194.233,460.1,190.15,464.192,185.102,464.192z M185.102,432.875c-5.049,0-9.132-4.093-9.132-9.132
			c0-5.04,4.093-9.132,9.132-9.132c5.039,0,9.132,4.092,9.132,9.132C194.233,428.782,190.15,432.875,185.102,432.875z
			 M185.102,401.567c-5.049,0-9.132-4.093-9.132-9.132c0-5.04,4.093-9.133,9.132-9.133c5.039,0,9.132,4.093,9.132,9.133
			C194.233,397.475,190.15,401.567,185.102,401.567z M185.102,370.25c-5.049,0-9.132-4.093-9.132-9.132s4.093-9.132,9.132-9.132
			c5.039,0,9.132,4.093,9.132,9.132S190.15,370.25,185.102,370.25z M216.418,495.51c-5.049,0-9.132-4.093-9.132-9.133
			c0-5.039,4.093-9.132,9.132-9.132s9.132,4.093,9.132,9.132C225.551,491.417,221.458,495.51,216.418,495.51z M216.418,464.192
			c-5.049,0-9.132-4.093-9.132-9.132c0-5.04,4.093-9.133,9.132-9.133s9.132,4.093,9.132,9.133
			C225.551,460.1,221.458,464.192,216.418,464.192z M216.418,432.875c-5.049,0-9.132-4.093-9.132-9.132
			c0-5.04,4.093-9.132,9.132-9.132s9.132,4.092,9.132,9.132C225.551,428.782,221.458,432.875,216.418,432.875z M216.418,401.567
			c-5.049,0-9.132-4.093-9.132-9.132c0-5.04,4.093-9.133,9.132-9.133s9.132,4.093,9.132,9.133
			C225.551,397.475,221.458,401.567,216.418,401.567z M216.418,370.25c-5.049,0-9.132-4.093-9.132-9.132s4.093-9.132,9.132-9.132
			s9.132,4.093,9.132,9.132S221.458,370.25,216.418,370.25z M247.736,495.51c-5.049,0-9.132-4.093-9.132-9.133
			c0-5.039,4.093-9.132,9.132-9.132c5.039,0,9.132,4.093,9.132,9.132C256.868,491.417,252.775,495.51,247.736,495.51z
			 M247.736,464.192c-5.049,0-9.132-4.093-9.132-9.132c0-5.04,4.093-9.133,9.132-9.133c5.039,0,9.132,4.093,9.132,9.133
			C256.868,460.1,252.775,464.192,247.736,464.192z M247.736,432.875c-5.049,0-9.132-4.093-9.132-9.132
			c0-5.04,4.093-9.132,9.132-9.132c5.039,0,9.132,4.092,9.132,9.132C256.868,428.782,252.775,432.875,247.736,432.875z
			 M247.736,401.567c-5.049,0-9.132-4.093-9.132-9.132c0-5.04,4.093-9.133,9.132-9.133c5.039,0,9.132,4.093,9.132,9.133
			C256.868,397.475,252.775,401.567,247.736,401.567z M247.736,370.25c-5.049,0-9.132-4.093-9.132-9.132s4.093-9.132,9.132-9.132
			c5.039,0,9.132,4.093,9.132,9.132S252.775,370.25,247.736,370.25z M279.053,495.51c-5.049,0-9.132-4.093-9.132-9.133
			c0-5.039,4.093-9.132,9.132-9.132c5.04,0,9.133,4.093,9.133,9.132C288.186,491.417,284.093,495.51,279.053,495.51z
			 M279.053,464.192c-5.049,0-9.132-4.093-9.132-9.132c0-5.04,4.093-9.133,9.132-9.133c5.04,0,9.133,4.093,9.133,9.133
			C288.186,460.1,284.093,464.192,279.053,464.192z M279.053,432.875c-5.049,0-9.132-4.093-9.132-9.132
			c0-5.04,4.093-9.132,9.132-9.132c5.04,0,9.133,4.092,9.133,9.132C288.186,428.782,284.093,432.875,279.053,432.875z
			 M279.053,401.567c-5.049,0-9.132-4.093-9.132-9.132c0-5.04,4.093-9.133,9.132-9.133c5.04,0,9.133,4.093,9.133,9.133
			C288.186,397.475,284.093,401.567,279.053,401.567z M279.053,370.25c-5.049,0-9.132-4.093-9.132-9.132s4.093-9.132,9.132-9.132
			c5.04,0,9.133,4.093,9.133,9.132S284.093,370.25,279.053,370.25z M400.831,423.743c0,21.104-17.174,38.269-38.278,38.269
			s-38.27-17.164-38.27-38.269s17.165-38.27,38.27-38.27S400.831,402.639,400.831,423.743z M196.911,39.598l1.386-1.348h146.708
			l1.396,1.348c21.64,20.961,33.555,48.769,33.555,78.298c0,59.747-48.577,108.353-108.295,108.353s-108.295-48.596-108.295-108.333
			C163.356,88.367,175.271,60.56,196.911,39.598z"/>
		<path d="M271.651,216.686c54.439,0,98.733-44.312,98.733-98.79c0-26.297-10.386-51.102-29.281-70.083H202.199
			c-18.896,18.981-29.281,43.796-29.281,70.103C172.918,172.374,217.212,216.686,271.651,216.686z M274.271,75.362
			c27.578,0,50.002,22.434,50.002,50.012s-22.434,50.012-50.002,50.012s-50.012-22.434-50.012-50.012
			C224.25,97.805,246.693,75.362,274.271,75.362z"/>
		<path d="M333.846,423.743c0,15.826,12.881,28.706,28.707,28.706c15.835,0,28.716-12.88,28.716-28.706
			s-12.881-28.707-28.716-28.707C346.727,395.046,333.846,407.917,333.846,423.743z"/>
		<path d="M274.271,165.833c22.3,0,40.439-18.14,40.439-40.45c0-11.704-5.077-22.185-13.053-29.577
			c-2.161-2.754-5.087-4.829-8.472-5.958c-5.671-3.031-12.049-4.915-18.915-4.915c-22.309,0-40.449,18.15-40.449,40.449
			C233.822,147.683,251.962,165.833,274.271,165.833z M279.254,107.884c-0.038-0.344-0.201-0.641-0.201-0.995
			c0-1.367,0.393-2.61,0.976-3.749c1.396-2.773,4.198-4.733,7.507-4.733c4.676,0,8.491,3.806,8.491,8.482
			c0,2.314-0.946,4.418-2.458,5.948c-1.128,1.147-2.639,1.817-4.265,2.18c-0.583,0.125-1.138,0.354-1.769,0.354
			C283.203,115.381,279.761,112.082,279.254,107.884z M270.007,102.759c-0.315,1.329-0.526,2.706-0.526,4.131
			c0,0.306,0.076,0.593,0.096,0.899c0.086,1.645,0.401,3.213,0.889,4.705c-5.575,1.654-9.687,6.771-9.687,12.881
			c0,7.43,6.053,13.483,13.483,13.483c7.431,0,13.483-6.053,13.483-13.483c0-0.153-0.038-0.306-0.048-0.459
			c1.636-0.019,3.194-0.306,4.705-0.736c1.635-0.459,3.175-1.119,4.58-1.989c0.144,1.052,0.325,2.094,0.325,3.185
			c0,12.708-10.337,23.045-23.046,23.045c-12.708,0-23.045-10.337-23.045-23.045C251.216,114.128,259.335,104.767,270.007,102.759z"
			/>
	</g>
</g>
<g>
</g>
<g>
</g>
<g>
</g>
<g>
</g>
<g>
</g>
<g>
</g>
<g>
</g>
<g>
</g>
<g>
</g>
<g>
</g>
<g>
</g>
<g>
</g>
<g>
</g>
<g>
</g>
<g>
</g>
</svg>
