<?xml version="1.0" encoding="iso-8859-1"?>
<!-- Generator: Adobe Illustrator 16.0.0, SVG Export Plug-In . SVG Version: 6.00 Build 0)  -->
<!DOCTYPE svg PUBLIC "-//W3C//DTD SVG 1.1//EN" "http://www.w3.org/Graphics/SVG/1.1/DTD/svg11.dtd">
<svg version="1.1" id="Capa_1" xmlns="http://www.w3.org/2000/svg" xmlns:xlink="http://www.w3.org/1999/xlink" x="0px" y="0px"
	 width="420.75px" height="420.75px" viewBox="0 0 420.75 420.75" style="enable-background:new 0 0 420.75 420.75;"
	 xml:space="preserve">
<g>
	<path d="M59.766,0h-4.781c-6.598,0-11.953,5.355-11.953,11.953v396.844c0,6.598,5.355,11.953,11.953,11.953h4.781
		c6.598,0,11.953-5.355,11.953-11.953V11.953C71.719,5.355,66.364,0,59.766,0z"/>
	<path d="M98.016,0h-4.781c-6.598,0-11.953,5.355-11.953,11.953v329.906c0,6.598,5.355,11.953,11.953,11.953h4.781
		c6.598,0,11.953-5.355,11.953-11.953V11.953C109.969,5.355,104.614,0,98.016,0z"/>
	<path d="M136.266,0h-4.781c-6.598,0-11.953,5.355-11.953,11.953v329.906c0,6.598,5.355,11.953,11.953,11.953h4.781
		c6.598,0,11.953-5.355,11.953-11.953V11.953C148.219,5.355,142.864,0,136.266,0z"/>
	<path d="M174.516,0h-4.781c-6.598,0-11.953,5.355-11.953,11.953v329.906c0,6.598,5.355,11.953,11.953,11.953h4.781
		c6.598,0,11.953-5.355,11.953-11.953V11.953C186.469,5.355,181.114,0,174.516,0z"/>
	<path d="M212.766,0h-4.781c-6.598,0-11.953,5.355-11.953,11.953v329.906c0,6.598,5.355,11.953,11.953,11.953h4.781
		c6.598,0,11.953-5.355,11.953-11.953V11.953C224.719,5.355,219.363,0,212.766,0z"/>
	<path d="M251.016,0h-4.781c-6.598,0-11.953,5.355-11.953,11.953v329.906c0,6.598,5.355,11.953,11.953,11.953h4.781
		c6.598,0,11.953-5.355,11.953-11.953V11.953C262.969,5.355,257.613,0,251.016,0z"/>
	<path d="M289.266,0h-4.781c-6.598,0-11.953,5.355-11.953,11.953v329.906c0,6.598,5.355,11.953,11.953,11.953h4.781
		c6.598,0,11.953-5.355,11.953-11.953V11.953C301.219,5.355,295.863,0,289.266,0z"/>
	<path d="M327.516,0h-4.781c-6.598,0-11.953,5.355-11.953,11.953v329.906c0,6.598,5.355,11.953,11.953,11.953h4.781
		c6.598,0,11.953-5.355,11.953-11.953V11.953C339.469,5.355,334.113,0,327.516,0z"/>
	<path d="M365.766,0h-4.781c-6.598,0-11.953,5.355-11.953,11.953v396.844c0,6.598,5.355,11.953,11.953,11.953h4.781
		c6.598,0,11.953-5.355,11.953-11.953V11.953C377.719,5.355,372.363,0,365.766,0z"/>
</g>
<g>
</g>
<g>
</g>
<g>
</g>
<g>
</g>
<g>
</g>
<g>
</g>
<g>
</g>
<g>
</g>
<g>
</g>
<g>
</g>
<g>
</g>
<g>
</g>
<g>
</g>
<g>
</g>
<g>
</g>
</svg>
