<?xml version="1.0" encoding="iso-8859-1"?>
<!-- Generator: Adobe Illustrator 16.0.0, SVG Export Plug-In . SVG Version: 6.00 Build 0)  -->
<!DOCTYPE svg PUBLIC "-//W3C//DTD SVG 1.1//EN" "http://www.w3.org/Graphics/SVG/1.1/DTD/svg11.dtd">
<svg version="1.1" id="Capa_1" xmlns="http://www.w3.org/2000/svg" xmlns:xlink="http://www.w3.org/1999/xlink" x="0px" y="0px"
	 width="482.906px" height="482.906px" viewBox="0 0 482.906 482.906" style="enable-background:new 0 0 482.906 482.906;"
	 xml:space="preserve">
<g>
	<path d="M241.453,0C144.566,0,65.742,78.824,65.742,175.711c0,84.169,59.517,154.635,138.656,171.704
		c3.146,0.679,6.359,1.138,9.562,1.645v47.784h57.375v-48.156c3.213-0.555,6.407-1.167,9.562-1.894
		c77.925-17.969,136.266-87.774,136.266-171.083C417.164,78.824,338.341,0,241.453,0z M280.898,336.935
		c-3.165,0.774-6.33,1.501-9.562,2.095c-9.716,1.769-19.67,2.84-29.883,2.84c-9.381,0-18.532-0.966-27.492-2.467
		c-3.213-0.536-6.407-1.119-9.562-1.846c-73.813-16.907-129.094-82.975-129.094-161.836c0-91.628,74.53-166.158,166.148-166.158
		s166.148,74.53,166.148,166.148C407.602,253.712,353.507,319.148,280.898,336.935z"/>
	<path d="M227.023,152.445c4.207-2.62,9.122-4.198,14.43-4.198c2.209,0,4.332,0.334,6.388,0.822l54.688-116.108
		c-8.884-3.596-17.768-5.317-26.899-5.317c-27.77,0-53.35,16.218-65.169,41.32c-8.186,17.394-9.113,36.93-2.61,55.022
		C211.848,135.118,218.551,144.671,227.023,152.445z"/>
	<path d="M282.725,172.986c-4.733,0-9.381,0.497-13.933,1.396c0.02,0.449,0.134,0.87,0.134,1.329c0,7.201-2.84,13.703-7.392,18.599
		l57.413,112.885c15.377-8.912,26.747-22.95,32.273-39.933c5.958-18.284,4.438-37.782-4.274-54.918
		C334.592,188.065,309.987,172.986,282.725,172.986z"/>
	<path d="M216.973,187.913l-128.31,13.541c5.919,35.065,35.591,60.436,70.877,60.444c0.01,0,0.01,0,0.01,0
		c2.534,0,5.068-0.134,7.641-0.401c33.115-3.5,58.637-29.061,63.542-60.502C224.719,198.441,219.89,193.736,216.973,187.913z"/>
	<path d="M257.365,167.659c-1.186-2.333-2.859-4.36-4.896-5.967c-1.262-0.995-2.61-1.875-4.102-2.505
		c-1.482-0.622-3.089-0.966-4.733-1.176c-0.718-0.086-1.425-0.22-2.171-0.22c-2.171,0-4.217,0.449-6.14,1.147
		c-1.778,0.65-3.404,1.578-4.867,2.735c-1.291,1.014-2.448,2.17-3.413,3.5c-2.171,2.965-3.491,6.579-3.491,10.528
		c0,0.641,0.124,1.253,0.191,1.884c0.172,1.635,0.517,3.213,1.1,4.686c0.66,1.654,1.578,3.155,2.678,4.523
		c1.157,1.454,2.477,2.764,4.026,3.796c1.434,0.956,3.04,1.645,4.724,2.151c1.473,0.45,3.012,0.746,4.628,0.803
		c0.191,0.01,0.373,0.058,0.574,0.058c2.888,0,5.584-0.756,8.004-1.97c1.453-0.736,2.792-1.635,3.978-2.715
		c1.291-1.176,2.4-2.525,3.309-4.036c1.405-2.333,2.276-5.011,2.486-7.879c0.028-0.44,0.134-0.861,0.134-1.31
		c0-1.243-0.124-2.448-0.373-3.615C258.675,170.519,258.072,169.056,257.365,167.659z"/>
	<path d="M381.305,406.406H280.898h-9.562h-66.938H103.992c-7.908,0-14.344,6.436-14.344,14.344v62.156h306V420.75
		C395.648,412.842,389.213,406.406,381.305,406.406z M376.523,444.656h-9.562h-19.125h-9.562h-19.125h-9.562h-19.125h-9.562h-28.688
		v-19.125v-9.562h124.312V444.656z"/>
	<rect x="347.836" y="425.531" width="19.125" height="9.562"/>
	<rect x="261.773" y="425.531" width="19.125" height="9.562"/>
	<rect x="319.148" y="425.531" width="19.125" height="9.562"/>
	<rect x="290.461" y="425.531" width="19.125" height="9.562"/>
</g>
<g>
</g>
<g>
</g>
<g>
</g>
<g>
</g>
<g>
</g>
<g>
</g>
<g>
</g>
<g>
</g>
<g>
</g>
<g>
</g>
<g>
</g>
<g>
</g>
<g>
</g>
<g>
</g>
<g>
</g>
</svg>
