<?xml version="1.0" encoding="iso-8859-1"?>
<!-- Generator: Adobe Illustrator 16.0.0, SVG Export Plug-In . SVG Version: 6.00 Build 0)  -->
<!DOCTYPE svg PUBLIC "-//W3C//DTD SVG 1.1//EN" "http://www.w3.org/Graphics/SVG/1.1/DTD/svg11.dtd">
<svg version="1.1" id="Capa_1" xmlns="http://www.w3.org/2000/svg" xmlns:xlink="http://www.w3.org/1999/xlink" x="0px" y="0px"
	 width="557.857px" height="557.857px" viewBox="0 0 557.857 557.857" style="enable-background:new 0 0 557.857 557.857;"
	 xml:space="preserve">
<g>
	<path d="M244.134,557.857c28.716,0,43.615-35.458,43.615-47.21V340.435c0-11.752-7.908-24.872-18.264-24.872h-0.861H222.59
		c-0.593,0-1.186,0.182-1.779,0.268c-9.754,1.377-19.125,13.521-19.125,24.604v170.213
		C201.687,522.399,216.001,557.857,244.134,557.857z M258.89,344.288c0.057,0,0.114-0.038,0.172-0.038
		c5.278,0,9.562,4.284,9.562,9.562v38.25c0,5.278-4.284,9.562-9.562,9.562s-9.562-4.284-9.562-9.562v-38.25
		c0-2.295,0.918-4.312,2.257-5.957C253.477,345.751,255.973,344.336,258.89,344.288z"/>
	<path d="M312.392,261.056l15.645,54.755c1.798,6.302,7.545,10.403,13.779,10.403c1.31,0,2.63-0.182,3.949-0.555
		c7.611-2.18,12.029-10.117,9.85-17.729l-15.539-54.392c-5.088-19.766-19.737-25.092-29.529-24.04h-41.922V38.25
		c0-6.321-2.496-12.03-6.502-16.304L257.034,0h-21.276l-3.309,17.834c-6.942,4.179-11.638,11.714-11.638,20.416v258.359
		c0.822-0.076,1.635-0.172,2.458-0.172h45.355v-38.25h42.792C311.675,258.751,312.028,259.66,312.392,261.056z"/>
</g>
<g>
</g>
<g>
</g>
<g>
</g>
<g>
</g>
<g>
</g>
<g>
</g>
<g>
</g>
<g>
</g>
<g>
</g>
<g>
</g>
<g>
</g>
<g>
</g>
<g>
</g>
<g>
</g>
<g>
</g>
</svg>
