<?xml version="1.0" encoding="iso-8859-1"?>
<!-- Generator: Adobe Illustrator 16.0.0, SVG Export Plug-In . SVG Version: 6.00 Build 0)  -->
<!DOCTYPE svg PUBLIC "-//W3C//DTD SVG 1.1//EN" "http://www.w3.org/Graphics/SVG/1.1/DTD/svg11.dtd">
<svg version="1.1" id="Capa_1" xmlns="http://www.w3.org/2000/svg" xmlns:xlink="http://www.w3.org/1999/xlink" x="0px" y="0px"
	 width="508.199px" height="508.199px" viewBox="0 0 508.199 508.199" style="enable-background:new 0 0 508.199 508.199;"
	 xml:space="preserve">
<g>
	<g>
		<path d="M469.7,201.506H366.291l-38.259,19.125h-1.129H37.274c-3.72,8.157-8.396,20.56-8.396,31.671
			c0,18.063,4.523,25.934,9.764,35.047c0.048,0.066,0.086,0.152,0.124,0.22h289.275l38.25,19.125h102.022
			c-8.893-10.796-14.697-29.739-14.697-51.8C453.616,231.714,460.023,211.958,469.7,201.506z"/>
		<path d="M26.832,220.631H12.699C9.715,222.677,0,230.892,0,251.059c0,20.263,9.868,32.742,13.349,36.51h14.468
			c-4.495-8.252-8.492-17.892-8.492-35.267C19.316,241.171,23.151,229.438,26.832,220.631z"/>
		<path d="M485.688,203.103c-0.325,0-0.659,0.201-0.994,0.239c-3.242,0.392-6.531,2.706-9.562,6.608
			c-6.665,8.568-11.953,24.614-11.953,44.944s5.288,36.376,11.953,44.943c3.031,3.901,6.32,6.216,9.562,6.607
			c0.335,0.048,0.669,0.249,0.994,0.249c10.653,0,22.511-21.276,22.511-51.8C508.199,224.37,496.342,203.103,485.688,203.103z
			 M485.688,285.178c-0.344,0-0.659-0.201-0.994-0.287c-4.867-1.3-8.769-11.78-9.562-25.417c-0.096-1.663-0.182-3.337-0.182-5.078
			c0-1.74,0.086-3.414,0.182-5.078c0.794-13.636,4.695-24.117,9.562-25.417c0.335-0.086,0.65-0.287,0.994-0.287
			c5.929,0,10.739,13.78,10.739,30.782C496.428,271.398,491.617,285.178,485.688,285.178z"/>
	</g>
</g>
<g>
</g>
<g>
</g>
<g>
</g>
<g>
</g>
<g>
</g>
<g>
</g>
<g>
</g>
<g>
</g>
<g>
</g>
<g>
</g>
<g>
</g>
<g>
</g>
<g>
</g>
<g>
</g>
<g>
</g>
</svg>
