<?xml version="1.0" encoding="iso-8859-1"?>
<!-- Generator: Adobe Illustrator 16.0.0, SVG Export Plug-In . SVG Version: 6.00 Build 0)  -->
<!DOCTYPE svg PUBLIC "-//W3C//DTD SVG 1.1//EN" "http://www.w3.org/Graphics/SVG/1.1/DTD/svg11.dtd">
<svg version="1.1" id="Capa_1" xmlns="http://www.w3.org/2000/svg" xmlns:xlink="http://www.w3.org/1999/xlink" x="0px" y="0px"
	 width="535.5px" height="535.5px" viewBox="0 0 535.5 535.5" style="enable-background:new 0 0 535.5 535.5;" xml:space="preserve"
	>
<g>
	<g>
		<path d="M241.74,338.055h12.565h26.747l-2.009-6.875l22.73,2.85l-6.369-21.946l22.769,2.888l-6.264-21.898l22.94,3.031
			l-5.919-21.62l23.648,3.576l-10.442-42.964l3.099-3.634c5.45,3.213,12.153,5.097,18.848,5.097c9.352,0,17.461-3.471,22.863-9.782
			l76.386-89.534c11.8-13.847,7.22-37.017-4.447-46.961l-68.726-58.618c-11.724-10.031-32.053-6.847-43.241,6.283l-76.376,89.534
			c-6.445,7.564-8.845,16.839-7.573,25.369L121.1,338.055H241.74z M292.373,146.098l76.185-89.304
			c-0.258,8.434,10.997,24.47,28.314,39.245c18.494,15.778,37.294,24.489,44.743,21.305c0.02,0.555-0.01,1.023-0.114,1.291
			l-75.773,89.017c-0.144,0.058-0.688,0.22-1.636,0.22c-2.113,0-4.006-0.784-4.504-1.186l-68.324-58.283
			C291.283,148.029,291.437,147.197,292.373,146.098z"/>
		<polygon points="215.845,414.555 189.051,414.555 176.476,414.555 62.491,414.555 54.937,424.423 127.688,486.483 154.941,509.74 
			148.152,484.591 171.341,486.876 164.953,464.901 187.635,467.77 181.229,445.824 203.92,448.692 197.523,426.728 
			220.225,429.577 		"/>
		<polygon points="283.844,347.617 246.148,347.617 233.583,347.617 113.774,347.617 0,347.617 0,404.992 69.816,404.992 
			184.633,404.992 197.208,404.992 234.922,404.992 535.5,404.992 535.5,347.617 		"/>
	</g>
</g>
<g>
</g>
<g>
</g>
<g>
</g>
<g>
</g>
<g>
</g>
<g>
</g>
<g>
</g>
<g>
</g>
<g>
</g>
<g>
</g>
<g>
</g>
<g>
</g>
<g>
</g>
<g>
</g>
<g>
</g>
</svg>
