<?xml version="1.0" encoding="iso-8859-1"?>
<!-- Generator: Adobe Illustrator 16.0.0, SVG Export Plug-In . SVG Version: 6.00 Build 0)  -->
<!DOCTYPE svg PUBLIC "-//W3C//DTD SVG 1.1//EN" "http://www.w3.org/Graphics/SVG/1.1/DTD/svg11.dtd">
<svg version="1.1" id="Capa_1" xmlns="http://www.w3.org/2000/svg" xmlns:xlink="http://www.w3.org/1999/xlink" x="0px" y="0px"
	 width="516.853px" height="516.853px" viewBox="0 0 516.853 516.853" style="enable-background:new 0 0 516.853 516.853;"
	 xml:space="preserve">
<g>
	<g>
		<path d="M174.755,250.537l0.956-8.606l0,0l1.913-17.212v-0.479c0.478-3.347,1.434-6.215,2.869-8.606
			c0-0.478,0.478-0.957,0.478-1.435c-10.519-15.3-17.212-33.469-17.212-53.55c0-38.25,23.906-70.763,54.506-86.062
			c0,6.694,0,11.953,0,13.866c0,9.562,10.997,13.387,10.997,13.387h61.678c0,0,8.129-3.347,8.129-16.256c0-1.912,0-5.737,0-10.041
			c30.6,15.3,53.549,47.812,53.549,85.106c0,15.3-4.781,37.772-11.475,47.812c0.479,0.478,0.957,0.956,1.434,1.434
			c3.348,3.825,6.695,7.65,6.695,15.3l1.434,17.69c18.168-21.516,30.6-52.116,30.6-82.715c0-53.55-31.557-98.972-82.236-116.185
			c0-23.906,0-43.987,0-43.987h-80.326c0,0,0,19.603,0,43.509c-50.681,16.734-83.194,62.634-83.194,116.663
			C135.548,196.509,150.849,228.065,174.755,250.537z"/>
		<path d="M344.966,497.728c8.607,0,15.301-9.084,15.301-17.212l-20.082-254.363c0-4.303-1.434-6.215-4.303-9.084
			c-2.869-2.869-6.693-3.347-10.996-3.347h-36.338c3.824,0,9.562,18.169,10.52,34.903c0,1.912,0.477,2.391,0.477,4.303
			c0,2.869-2.391,5.737-5.258,5.737c-4.781,0.479-5.26-4.303-5.26-4.303l0,0c-0.479-30.6-10.52-49.725-28.688-49.725
			c-22.95,0-27.253,48.291-27.253,48.769v-0.479c-0.478,2.391-2.391,3.825-4.781,3.825c-2.869,0-5.259-2.391-5.259-5.26
			c0-0.956,0,0.479,0-0.478c0.478-17.691,7.172-37.772,11.953-37.772h-32.513c-10.519,0-13.866,5.259-15.3,12.431l-4.303,33.469
			v-0.479l-26.297,221.372c0,7.65,6.694,16.734,15.3,16.734h24.385v-24.862c0-2.869,2.391-5.26,5.259-5.26s5.259,2.391,5.259,5.26
			v20.081v5.26c0,1.912,0.956,5.737,1.435,7.172c1.912,5.737,8.128,12.431,14.822,12.431h70.763c6.693,0,11.475-6.693,13.865-12.431
			c0.479-1.435,0.479-5.737,0.479-7.172v-3.825v-20.081c0-2.869,2.391-5.26,5.26-5.26c2.867,0,5.258,2.391,5.258,5.26v24.862h26.297
			V497.728z"/>
	</g>
</g>
<g>
</g>
<g>
</g>
<g>
</g>
<g>
</g>
<g>
</g>
<g>
</g>
<g>
</g>
<g>
</g>
<g>
</g>
<g>
</g>
<g>
</g>
<g>
</g>
<g>
</g>
<g>
</g>
<g>
</g>
</svg>
