<?xml version="1.0" encoding="iso-8859-1"?>
<!-- Generator: Adobe Illustrator 16.0.0, SVG Export Plug-In . SVG Version: 6.00 Build 0)  -->
<!DOCTYPE svg PUBLIC "-//W3C//DTD SVG 1.1//EN" "http://www.w3.org/Graphics/SVG/1.1/DTD/svg11.dtd">
<svg version="1.1" id="Capa_1" xmlns="http://www.w3.org/2000/svg" xmlns:xlink="http://www.w3.org/1999/xlink" x="0px" y="0px"
	 width="549.671px" height="549.671px" viewBox="0 0 549.671 549.671" style="enable-background:new 0 0 549.671 549.671;"
	 xml:space="preserve">
<g>
	<path d="M406.029,124.943V20.712h-66.938v57.375l-67.894-47.812L3.925,223.437c-4.303,2.869-5.259,9.084-1.913,13.387
		c3.347,4.303,9.084,5.26,13.388,2.391L271.197,54.181l263.925,184.556c1.435,0.957,3.825,1.913,5.26,1.913
		c2.868,0,5.737-1.435,7.649-4.303c2.869-4.303,1.913-10.519-2.391-13.387L406.029,124.943z"/>
	<rect x="224.341" y="412.774" width="86.063" height="114.75"/>
	<path d="M444.279,245.431v-55.94L272.153,70.437L100.028,189.49v17.69c-5.737,4.303-9.562,10.997-9.562,19.125v4.781v4.781
		c0,7.65,3.825,14.822,9.562,19.125c0,5.737,0,105.666,0,105.666c-5.737,4.303-9.562,10.996-9.562,19.125v4.781v4.781
		c0,7.649,3.825,14.821,9.562,19.125c1.913,4.781,0,10.04,0,10.04c-5.737,4.304-9.562,10.997-9.562,19.125v4.781v4.781
		c0,7.65,3.825,14.822,9.562,19.125c0,4.781,0,10.041,0,10.041c-5.737,4.303-9.562,10.997-9.562,19.125v4.781v4.781
		c0,7.649,3.825,14.821,9.562,19.125c3.825,2.868,9.084,4.781,14.344,4.781h14.344h4.781h81.281V403.212h105.188v124.312
		c0,0,123.356,0,124.312,0c4.303,0,8.128-14.344,8.606-17.213c2.868-11.953,1.912-27.253-8.606-35.381
		c5.737-4.303,9.562-10.997,9.562-19.125v-9.562c0-7.65-3.825-14.822-9.562-19.125v-76.5c5.737-4.303,9.562-10.997,9.562-19.125
		v-9.562c0-7.65-3.825-14.822-9.562-19.125v-9.562c5.737-4.303,9.562-10.997,9.562-19.125v-9.562
		C453.841,256.906,450.016,249.734,444.279,245.431z M128.716,283.681v-9.562c0-8.128,6.216-14.344,14.344-14.344h14.344h4.781
		h23.906c10.519,0,19.125,8.606,19.125,19.125v4.781c0,8.128-6.216,14.344-14.344,14.344H143.06
		C134.932,298.024,128.716,291.809,128.716,283.681z M100.028,235.868v-9.562c0-8.128,6.216-14.344,14.344-14.344h43.031
		c10.519,0,19.125,8.606,19.125,19.125v4.781c0,8.128-6.216,14.344-14.344,14.344H143.06h-28.688
		C106.244,250.212,100.028,243.996,100.028,235.868z M100.028,388.868v-9.562c0-8.128,6.216-14.344,14.344-14.344h14.344
		c10.519,0,19.125,8.606,19.125,19.125v4.781c0,8.128-6.216,14.344-14.344,14.344h-19.125
		C106.244,403.212,100.028,396.996,100.028,388.868z M100.028,446.243v-9.562c0-8.128,6.216-14.344,14.344-14.344h43.031
		c10.519,0,19.125,8.606,19.125,19.125v4.781c0,8.128-6.216,14.344-14.344,14.344h-47.812
		C106.244,460.587,100.028,454.371,100.028,446.243z M114.372,517.962c-8.128,0-14.344-6.216-14.344-14.344v-9.562
		c0-8.128,6.216-14.344,14.344-14.344h14.344c10.519,0,19.125,8.606,19.125,19.125v4.781c0,8.128-6.216,14.344-14.344,14.344
		H114.372z M272.153,264.556c-23.906,0-43.031-19.125-43.031-43.031s19.125-43.031,43.031-43.031
		c23.907,0,43.032,19.125,43.032,43.031S296.06,264.556,272.153,264.556z M444.279,503.618c0,8.128-6.216,14.344-14.344,14.344
		H410.81c-8.128,0-14.344-6.216-14.344-14.344v-9.562c0-8.128,6.216-14.344,14.344-14.344h14.344
		c10.519,0,19.125,8.606,19.125,19.125V503.618z M444.279,455.806c0,8.128-6.216,14.344-14.344,14.344H410.81h-28.688
		c-8.128,0-14.344-6.216-14.344-14.344v-9.562c0-8.128,6.216-14.344,14.344-14.344h43.031c10.519,0,19.125,8.606,19.125,19.125
		V455.806z M444.279,331.493c0,8.128-6.216,14.344-14.344,14.344h-47.812c-8.128,0-14.344-6.216-14.344-14.344v-9.562
		c0-8.128,6.216-14.344,14.344-14.344h43.031c10.519,0,19.125,8.606,19.125,19.125V331.493z M444.279,274.118
		c0,8.128-6.216,14.344-14.344,14.344H410.81c-8.128,0-14.344-6.216-14.344-14.344v-9.562c0-8.128,6.216-14.344,14.344-14.344
		h14.344c10.519,0,19.125,8.606,19.125,19.125V274.118z"/>
</g>
<g>
</g>
<g>
</g>
<g>
</g>
<g>
</g>
<g>
</g>
<g>
</g>
<g>
</g>
<g>
</g>
<g>
</g>
<g>
</g>
<g>
</g>
<g>
</g>
<g>
</g>
<g>
</g>
<g>
</g>
</svg>
