<?xml version="1.0" encoding="iso-8859-1"?>
<!-- Generator: Adobe Illustrator 16.0.0, SVG Export Plug-In . SVG Version: 6.00 Build 0)  -->
<!DOCTYPE svg PUBLIC "-//W3C//DTD SVG 1.1//EN" "http://www.w3.org/Graphics/SVG/1.1/DTD/svg11.dtd">
<svg version="1.1" id="Capa_1" xmlns="http://www.w3.org/2000/svg" xmlns:xlink="http://www.w3.org/1999/xlink" x="0px" y="0px"
	 width="568.969px" height="568.969px" viewBox="0 0 568.969 568.969" style="enable-background:new 0 0 568.969 568.969;"
	 xml:space="preserve">
<g>
	<polygon points="157.781,102.797 143.438,102.797 124.312,102.797 0,294.047 38.25,294.047 150.609,114.272 262.969,294.047 
		568.969,294.047 444.656,102.797 	"/>
	<path d="M62.156,294.047v172.125h47.812v-66.938v-9.562h76.5v76.5h50.203l0.593-172.125l-87.851-143.438L62.156,294.047z
		 M148.219,237.15v37.772h-37.772C112.685,255.032,128.329,239.388,148.219,237.15z M110.447,284.484h37.772v37.771
		C128.329,320.019,112.685,304.374,110.447,284.484z M157.781,322.256v-37.771h37.772
		C193.315,304.374,177.671,320.019,157.781,322.256z M195.553,274.922h-37.772V237.15
		C177.671,239.388,193.315,255.032,195.553,274.922z"/>
	<rect x="262.969" y="313.172" width="248.625" height="153"/>
	<rect x="119.531" y="399.234" width="57.375" height="66.938"/>
</g>
<g>
</g>
<g>
</g>
<g>
</g>
<g>
</g>
<g>
</g>
<g>
</g>
<g>
</g>
<g>
</g>
<g>
</g>
<g>
</g>
<g>
</g>
<g>
</g>
<g>
</g>
<g>
</g>
<g>
</g>
</svg>
