<?xml version="1.0" encoding="iso-8859-1"?>
<!-- Generator: Adobe Illustrator 16.0.0, SVG Export Plug-In . SVG Version: 6.00 Build 0)  -->
<!DOCTYPE svg PUBLIC "-//W3C//DTD SVG 1.1//EN" "http://www.w3.org/Graphics/SVG/1.1/DTD/svg11.dtd">
<svg version="1.1" id="Capa_1" xmlns="http://www.w3.org/2000/svg" xmlns:xlink="http://www.w3.org/1999/xlink" x="0px" y="0px"
	 width="592.875px" height="592.875px" viewBox="0 0 592.875 592.875" style="enable-background:new 0 0 592.875 592.875;"
	 xml:space="preserve">
<g>
	<path d="M210.375,525.938h57.375h9.562h248.625h9.562h57.375V306h-382.5V525.938z M277.312,516.375v-9.562h248.625v9.562H277.312z
		 M277.312,487.688h248.625v9.562H277.312V487.688z M277.312,468.562h248.625v9.562H277.312V468.562z M277.312,449.438h248.625V459
		H277.312V449.438z M277.312,430.312h248.625v9.562H277.312V430.312z M277.312,411.188h248.625v9.562H277.312V411.188z
		 M277.312,392.062h248.625v9.562H277.312V392.062z"/>
	<path d="M200.812,66.938H0v459h200.812V66.938z M19.125,162.562h162.562v38.25H19.125V162.562z M38.25,210.375h9.562v28.688H38.25
		V210.375z M86.062,239.062H76.5v-28.688h9.562V239.062z M66.938,239.062h-9.562v-28.688h9.562V239.062z M38.25,334.688
		L38.25,334.688c0.956-20.081,17.212-35.859,37.772-35.859c20.559,0,39.206,17.69,39.206,32.99l-0.478,88.932h-76.5V334.688z
		 M95.625,239.062v-28.688h9.562v28.688H95.625z M114.75,210.375h9.562v28.688h-9.562V210.375z M133.875,210.375h9.562v28.688
		h-9.562V210.375z M153,210.375h9.562v28.688H153V210.375z M172.125,210.375h9.562v28.688h-9.562V210.375z M19.125,210.375h9.562
		v28.688h-9.562V210.375z M14.344,444.656c0-2.869,1.913-4.781,4.781-4.781h114.75c2.869,0,4.781,1.912,4.781,4.781
		s-1.913,4.781-4.781,4.781H19.125C16.256,449.438,14.344,447.525,14.344,444.656z M43.031,463.781c0-2.869,1.913-4.781,4.781-4.781
		h114.75c2.869,0,4.781,1.912,4.781,4.781s-1.913,4.781-4.781,4.781H47.812C44.944,468.562,43.031,466.65,43.031,463.781z
		 M172.125,506.812H57.375c-2.869,0-4.781-1.912-4.781-4.781s1.913-4.781,4.781-4.781h114.75c2.869,0,4.781,1.912,4.781,4.781
		S174.994,506.812,172.125,506.812z M191.25,487.688H76.5c-2.869,0-4.781-1.912-4.781-4.781s1.913-4.781,4.781-4.781h114.75
		c2.869,0,4.781,1.912,4.781,4.781S194.119,487.688,191.25,487.688z"/>
</g>
<g>
</g>
<g>
</g>
<g>
</g>
<g>
</g>
<g>
</g>
<g>
</g>
<g>
</g>
<g>
</g>
<g>
</g>
<g>
</g>
<g>
</g>
<g>
</g>
<g>
</g>
<g>
</g>
<g>
</g>
</svg>
