<?xml version="1.0" encoding="iso-8859-1"?>
<!-- Generator: Adobe Illustrator 16.0.0, SVG Export Plug-In . SVG Version: 6.00 Build 0)  -->
<!DOCTYPE svg PUBLIC "-//W3C//DTD SVG 1.1//EN" "http://www.w3.org/Graphics/SVG/1.1/DTD/svg11.dtd">
<svg version="1.1" id="Capa_1" xmlns="http://www.w3.org/2000/svg" xmlns:xlink="http://www.w3.org/1999/xlink" x="0px" y="0px"
	 width="516.375px" height="516.375px" viewBox="0 0 516.375 516.375" style="enable-background:new 0 0 516.375 516.375;"
	 xml:space="preserve">
<g>
	<path d="M0,325.125h19.125h191.25v-28.688v-9.562v-86.062v-9.562v-28.688V153V86.062H0V325.125z M19.125,114.75H191.25v66.938
		H19.125V114.75z M19.125,191.25H191.25v66.938H19.125V191.25z"/>
	<polygon points="28.688,430.312 143.438,430.312 143.438,372.938 143.438,363.375 191.25,363.375 191.25,430.312 210.375,430.312 
		210.375,334.688 28.688,334.688 	"/>
	<polygon points="430.312,191.25 430.312,162.562 219.938,162.562 219.938,191.25 411.188,191.25 	"/>
	<path d="M401.625,277.312v-38.25h-38.25v-28.688h38.25v-9.562H219.938v86.062h181.688V277.312z M363.375,248.625h28.688v9.562
		h-28.688V248.625z M363.375,277.312v-9.562h28.688v9.562H363.375z"/>
	<polygon points="401.625,296.438 219.938,296.438 219.938,325.125 219.938,334.688 219.938,430.312 248.625,430.312 
		248.625,392.062 248.625,382.5 248.625,363.375 248.625,353.812 248.625,334.688 248.625,325.125 487.688,325.125 487.688,353.812 
		487.688,363.375 487.688,382.5 487.688,392.062 487.688,430.312 516.375,430.312 516.375,296.438 411.188,296.438 	"/>
	<rect x="258.188" y="392.062" width="219.938" height="38.25"/>
	<rect x="258.188" y="334.688" width="219.938" height="19.125"/>
	<rect x="258.188" y="363.375" width="219.938" height="19.125"/>
	<rect x="153" y="372.938" width="28.688" height="57.375"/>
</g>
<g>
</g>
<g>
</g>
<g>
</g>
<g>
</g>
<g>
</g>
<g>
</g>
<g>
</g>
<g>
</g>
<g>
</g>
<g>
</g>
<g>
</g>
<g>
</g>
<g>
</g>
<g>
</g>
<g>
</g>
</svg>
