<?xml version="1.0" encoding="iso-8859-1"?>
<!-- Generator: Adobe Illustrator 16.0.0, SVG Export Plug-In . SVG Version: 6.00 Build 0)  -->
<!DOCTYPE svg PUBLIC "-//W3C//DTD SVG 1.1//EN" "http://www.w3.org/Graphics/SVG/1.1/DTD/svg11.dtd">
<svg version="1.1" id="Capa_1" xmlns="http://www.w3.org/2000/svg" xmlns:xlink="http://www.w3.org/1999/xlink" x="0px" y="0px"
	 width="407.209px" height="407.209px" viewBox="0 0 407.209 407.209" style="enable-background:new 0 0 407.209 407.209;"
	 xml:space="preserve">
<g>
	<path d="M53.789,406.97h105.188v-76.5h86.062v76.5h95.625V167.908H53.789V406.97z M302.414,196.595v66.938h-28.688v-66.938H302.414
		z M225.914,196.595h28.688v66.938h-28.688V196.595z M168.539,196.595v66.938h-28.688v-66.938H168.539z M92.039,196.595h28.688
		v66.938H92.039V196.595z"/>
	<polygon points="321.539,79.722 321.539,5.345 264.164,5.345 264.164,35.17 	"/>
	<polygon points="264.164,47.267 203.604,0.239 0,158.345 53.789,158.345 340.664,158.345 407.209,158.345 321.539,91.819 	"/>
</g>
<g>
</g>
<g>
</g>
<g>
</g>
<g>
</g>
<g>
</g>
<g>
</g>
<g>
</g>
<g>
</g>
<g>
</g>
<g>
</g>
<g>
</g>
<g>
</g>
<g>
</g>
<g>
</g>
<g>
</g>
</svg>
