<?xml version="1.0" encoding="iso-8859-1"?>
<!-- Generator: Adobe Illustrator 16.0.0, SVG Export Plug-In . SVG Version: 6.00 Build 0)  -->
<!DOCTYPE svg PUBLIC "-//W3C//DTD SVG 1.1//EN" "http://www.w3.org/Graphics/SVG/1.1/DTD/svg11.dtd">
<svg version="1.1" id="Capa_1" xmlns="http://www.w3.org/2000/svg" xmlns:xlink="http://www.w3.org/1999/xlink" x="0px" y="0px"
	 width="583.467px" height="583.467px" viewBox="0 0 583.467 583.467" style="enable-background:new 0 0 583.467 583.467;"
	 xml:space="preserve">
<g>
	<path d="M583.312,372.021c0.794-11.953-1.75-83.079-1.597-91.045c0.401-20.722-12.747-22.711-12.747-22.711h-4.781v-52.594
		c0-7.927-6.426-14.344-14.344-14.344H344.25c-3.614,0-7.096,1.367-9.744,3.815l-72.025,66.67L76.5,327.593v64.547
		c0,0,470.159,0,482.906,0S582.519,383.974,583.312,372.021z M349.873,220.015H535.5v38.25H308.544L349.873,220.015z
		 M439.875,315.64h-28.688v-28.688h28.688V315.64z M478.125,315.64h-28.688v-28.688h28.688V315.64z M516.471,325.202
		c-11.934,0-21.611-9.678-21.611-21.611s9.678-21.611,21.611-21.611s21.611,9.678,21.611,21.611S528.414,325.202,516.471,325.202z"
		/>
	<polygon points="57.375,334.765 0,344.327 0,392.14 57.375,392.14 	"/>
</g>
<g>
</g>
<g>
</g>
<g>
</g>
<g>
</g>
<g>
</g>
<g>
</g>
<g>
</g>
<g>
</g>
<g>
</g>
<g>
</g>
<g>
</g>
<g>
</g>
<g>
</g>
<g>
</g>
<g>
</g>
</svg>
