<?xml version="1.0" encoding="iso-8859-1"?>
<!-- Generator: Adobe Illustrator 16.0.0, SVG Export Plug-In . SVG Version: 6.00 Build 0)  -->
<!DOCTYPE svg PUBLIC "-//W3C//DTD SVG 1.1//EN" "http://www.w3.org/Graphics/SVG/1.1/DTD/svg11.dtd">
<svg version="1.1" id="Capa_1" xmlns="http://www.w3.org/2000/svg" xmlns:xlink="http://www.w3.org/1999/xlink" x="0px" y="0px"
	 width="529.881px" height="529.881px" viewBox="0 0 529.881 529.881" style="enable-background:new 0 0 529.881 529.881;"
	 xml:space="preserve">
<g>
	<path d="M210.711,477.287c0-37.504-35.859-68.229-82.84-71.403l-47.87-190.829L286.906,45.387l60.425,81.358l37.677-13.416
		L306.546,7.682c-4.045-5.451-10.441-8.09-16.753-7.631c-4.59-0.239-9.285,1.1-13.12,4.246L46.37,193.157
		c-0.344,0.287-0.612,0.631-0.937,0.937c-0.497,0.468-1.004,0.937-1.444,1.454c-0.411,0.478-0.755,1.004-1.119,1.52
		c-0.344,0.498-0.698,0.985-0.985,1.501c-0.315,0.555-0.564,1.147-0.822,1.731c-0.239,0.545-0.488,1.09-0.669,1.654
		c-0.191,0.583-0.325,1.186-0.459,1.788c-0.134,0.603-0.277,1.195-0.354,1.807c-0.077,0.631-0.086,1.262-0.105,1.903
		c-0.019,0.583-0.048,1.176-0.009,1.759c0.048,0.746,0.191,1.492,0.325,2.238c0.076,0.382,0.076,0.765,0.172,1.147l49.448,197.112
		c-35.467,9.84-60.387,36.338-60.387,67.578v23.906h181.688V477.287z M291.199,9.355c5.374,0,9.726,4.361,9.726,9.726
		c0,5.364-4.352,9.725-9.726,9.725s-9.725-4.36-9.725-9.725C281.474,13.716,285.825,9.355,291.199,9.355z M61.699,220.065
		c-5.375,0-9.725-4.36-9.725-9.725s4.351-9.725,9.725-9.725c5.374,0,9.725,4.36,9.725,9.725S67.073,220.065,61.699,220.065z
		 M134.211,470.115c0,6.598-5.355,11.953-11.953,11.953h-14.344c-6.598,0-11.953-5.355-11.953-11.953v-14.344
		c0-3.021,1.214-5.709,3.069-7.812c2.19-2.486,5.308-4.141,8.884-4.141h14.344c5.661,0,10.184,4.017,11.417,9.305
		c0.21,0.879,0.536,1.711,0.536,2.648V470.115z"/>
	<path d="M19.251,529.881h196.442c5.164,0,9.352-4.284,9.352-9.562s-4.188-9.562-9.352-9.562H19.251
		c-5.164,0-9.352,4.284-9.352,9.562S14.087,529.881,19.251,529.881z"/>
	<polygon points="318.27,156.762 322.899,294.462 519.982,224.282 436.53,114.648 396.559,128.877 358.882,142.293 	"/>
</g>
<g>
</g>
<g>
</g>
<g>
</g>
<g>
</g>
<g>
</g>
<g>
</g>
<g>
</g>
<g>
</g>
<g>
</g>
<g>
</g>
<g>
</g>
<g>
</g>
<g>
</g>
<g>
</g>
<g>
</g>
</svg>
