<?xml version="1.0" encoding="iso-8859-1"?>
<!-- Generator: Adobe Illustrator 16.0.0, SVG Export Plug-In . SVG Version: 6.00 Build 0)  -->
<!DOCTYPE svg PUBLIC "-//W3C//DTD SVG 1.1//EN" "http://www.w3.org/Graphics/SVG/1.1/DTD/svg11.dtd">
<svg version="1.1" id="Capa_1" xmlns="http://www.w3.org/2000/svg" xmlns:xlink="http://www.w3.org/1999/xlink" x="0px" y="0px"
	 width="535.5px" height="535.5px" viewBox="0 0 535.5 535.5" style="enable-background:new 0 0 535.5 535.5;" xml:space="preserve"
	>
<g>
	<g>
		<path d="M210.78,41.119c0-10.519-3.825-12.909-3.825-12.909c-2.391-0.957-3.825-3.347-2.869-6.216
			c0.957-2.391,3.825-3.825,6.216-2.869c0.956,0.478,10.041,3.825,10.041,21.516v207.984h38.25V33.469
			c0-2.391-0.479-4.781-0.479-7.172C254.767,10.997,241.858,0,225.124,0c-19.125,0-33.469,14.344-33.469,33.469v215.156h19.125
			V41.119z"/>
		<path d="M315.967,41.119c0-17.69,9.084-21.516,10.041-21.516c2.391-0.956,5.259,0.478,6.215,2.869
			c0.957,2.391-0.478,5.26-2.868,6.216c-0.479,0-3.825,2.869-3.825,12.909v207.028h19.125V38.25
			c0-20.081-15.778-36.815-35.859-37.772c-17.213,0.957-31.078,15.3-31.078,32.991v215.156h38.25V41.119z"/>
		<path d="M354.217,259.144c-1.435-0.478-2.869-0.956-4.781-0.956h-4.781H325.53h-9.562h-38.25h-9.562h-9.562h-38.25h-9.562h-19.125
			h-4.781c-1.913,0-3.347,0.478-4.781,0.956c-5.737,1.913-9.562,7.172-9.562,13.388v82.716c0,9.562,0.478,17.69,6.694,24.384
			l35.381,31.557h102.797l33.946-33.469c7.65-8.606,11.476-12.909,11.476-22.472v-82.716
			C363.78,266.315,359.955,261.057,354.217,259.144z"/>
		<path d="M316.923,420.75H213.17h-1.913h-6.215c-1.913,0-3.825,1.435-3.825,3.825v11.475c0,1.913,1.435,3.825,3.825,3.825h116.662
			c1.913,0,3.825-1.435,3.825-3.825v-6.693C325.53,424.575,321.705,420.75,316.923,420.75z"/>
		<path d="M316.923,449.438H205.042c-1.913,0-3.825,1.435-3.825,3.825v11.475c0,1.913,1.435,3.825,3.825,3.825h116.662
			c1.913,0,3.825-1.435,3.825-3.825v-6.693C325.53,453.263,321.705,449.438,316.923,449.438z"/>
		<path d="M316.923,478.125H205.042c-1.913,0-3.825,1.435-3.825,3.825v11.475c0,1.913,1.435,3.825,3.825,3.825h9.084h96.581h11.476
			c1.912,0,3.825-1.435,3.825-3.825v-6.693C325.53,481.95,321.705,478.125,316.923,478.125z"/>
		<polygon points="245.205,535.5 279.629,535.5 294.452,506.812 229.905,506.812 		"/>
	</g>
</g>
<g>
</g>
<g>
</g>
<g>
</g>
<g>
</g>
<g>
</g>
<g>
</g>
<g>
</g>
<g>
</g>
<g>
</g>
<g>
</g>
<g>
</g>
<g>
</g>
<g>
</g>
<g>
</g>
<g>
</g>
</svg>
