<?xml version="1.0" encoding="iso-8859-1"?>
<!-- Generator: Adobe Illustrator 16.0.0, SVG Export Plug-In . SVG Version: 6.00 Build 0)  -->
<!DOCTYPE svg PUBLIC "-//W3C//DTD SVG 1.1//EN" "http://www.w3.org/Graphics/SVG/1.1/DTD/svg11.dtd">
<svg version="1.1" id="Capa_1" xmlns="http://www.w3.org/2000/svg" xmlns:xlink="http://www.w3.org/1999/xlink" x="0px" y="0px"
	 width="452.008px" height="452.008px" viewBox="0 0 452.008 452.008" style="enable-background:new 0 0 452.008 452.008;"
	 xml:space="preserve">
<g>
	<path d="M113.687,402.675c60.482,13.617,97.738,8.205,101.047,3.691c-16.17-7.066-87.028-66.603-117.103-155.285
		c-20.406-60.168,2.075-57.261,25.953,2.065c5.078,12.612,20.894,42.17,34.97,60.693c51.867,68.219,74.722,70.017,74.722,70.017
		c101.755-177.471-72.235-226.087-93.244-273.584C125.19,76.708,182.46,4.435,92.936,62.575
		C-92.089,182.718,44.731,387.155,113.687,402.675z"/>
	<path d="M324.349,304.822c22.73-15.214,49.132-46.168,55.262-57.241c14.831-26.766,37.896-34.082,17.079,2.534
		c-11.342,19.947-23.477,37.418-58.943,63.552c-21.602,15.912-30.266,16.812-39.848,19.316c1.464,3.414,24.729,12.46,65.828,12.67
		c46.866,0.239,134.105-105.723,58.801-235.41c-28.688,64.25-85.509,68.907-112.273,91.178
		c-24.079,20.034-39.579,52.786-20.98,114.254C289.273,315.685,301.982,319.787,324.349,304.822z"/>
</g>
<g>
</g>
<g>
</g>
<g>
</g>
<g>
</g>
<g>
</g>
<g>
</g>
<g>
</g>
<g>
</g>
<g>
</g>
<g>
</g>
<g>
</g>
<g>
</g>
<g>
</g>
<g>
</g>
<g>
</g>
</svg>
