<?xml version="1.0" encoding="iso-8859-1"?>
<!-- Generator: Adobe Illustrator 16.0.0, SVG Export Plug-In . SVG Version: 6.00 Build 0)  -->
<!DOCTYPE svg PUBLIC "-//W3C//DTD SVG 1.1//EN" "http://www.w3.org/Graphics/SVG/1.1/DTD/svg11.dtd">
<svg version="1.1" id="Capa_1" xmlns="http://www.w3.org/2000/svg" xmlns:xlink="http://www.w3.org/1999/xlink" x="0px" y="0px"
	 width="564.188px" height="564.188px" viewBox="0 0 564.188 564.188" style="enable-background:new 0 0 564.188 564.188;"
	 xml:space="preserve">
<g>
	<g>
		<path d="M210.375,549.844c0,6.933,4.915,12.709,11.446,14.047c0.956,0.153,1.903,0.297,2.897,0.297h114.75
			c0.994,0,1.941-0.144,2.897-0.297c6.531-1.338,11.446-7.124,11.446-14.047c0-7.918-6.426-14.344-14.344-14.344h-38.25h-9.562
			h-19.125h-9.562h-38.25C216.801,535.5,210.375,541.926,210.375,549.844z"/>
		<polygon points="332.039,114.75 232.149,114.75 244.896,153 262.969,153 272.531,153 291.656,153 301.219,153 319.292,153 		"/>
		<polygon points="204.255,105.188 218.886,105.188 222.328,105.188 228.955,105.188 335.232,105.188 341.859,105.188 
			345.302,105.188 359.933,105.188 394.998,0 169.189,0 		"/>
		<path d="M306,234.281c2.64,0,4.781-2.142,4.781-4.781v-9.562v-9.562v-9.562c0-2.639-2.142-4.781-4.781-4.781
			s-4.781,2.142-4.781,4.781v9.562h-9.562v-47.812h-19.125v363.375h19.125v-306h9.562v9.562
			C301.219,232.139,303.36,234.281,306,234.281z"/>
	</g>
</g>
<g>
</g>
<g>
</g>
<g>
</g>
<g>
</g>
<g>
</g>
<g>
</g>
<g>
</g>
<g>
</g>
<g>
</g>
<g>
</g>
<g>
</g>
<g>
</g>
<g>
</g>
<g>
</g>
<g>
</g>
</svg>
