<?xml version="1.0" encoding="iso-8859-1"?>
<!-- Generator: Adobe Illustrator 16.0.0, SVG Export Plug-In . SVG Version: 6.00 Build 0)  -->
<!DOCTYPE svg PUBLIC "-//W3C//DTD SVG 1.1//EN" "http://www.w3.org/Graphics/SVG/1.1/DTD/svg11.dtd">
<svg version="1.1" id="Capa_1" xmlns="http://www.w3.org/2000/svg" xmlns:xlink="http://www.w3.org/1999/xlink" x="0px" y="0px"
	 width="612px" height="612px" viewBox="0 0 612 612" style="enable-background:new 0 0 612 612;" xml:space="preserve">
<g>
	<g>
		<path d="M382.5,248.625H239.062v124.312H382.5V248.625z M352.617,325.718c-6.598,0-11.953-5.354-11.953-11.953
			c0-6.598,5.355-11.953,11.953-11.953s11.953,5.355,11.953,11.953C364.57,320.363,359.215,325.718,352.617,325.718z"/>
		<path d="M430.312,200.812H66.938H9.562V420.75h57.375h363.375h57.375h114.75V200.812h-114.75H430.312z M210.375,382.5H66.938
			H47.812v-57.375h19.125h143.438V382.5z M210.375,296.438H66.938H47.812v-57.375h19.125h143.438V296.438z M392.062,382.5H229.5
			V239.062h162.562V382.5z M573.75,382.5h-86.062h-57.375h-19.125v-57.375h19.125h57.375h86.062V382.5z M573.75,296.438h-86.062
			h-57.375h-19.125v-57.375h19.125h57.375h86.062V296.438z"/>
		<path d="M597.656,153H14.344C6.426,153,0,159.426,0,167.344s6.426,14.344,14.344,14.344h583.312
			c7.918,0,14.344-6.426,14.344-14.344S605.574,153,597.656,153z"/>
		<rect x="28.688" y="439.875" width="47.812" height="19.125"/>
		<rect x="535.5" y="439.875" width="47.812" height="19.125"/>
	</g>
</g>
<g>
</g>
<g>
</g>
<g>
</g>
<g>
</g>
<g>
</g>
<g>
</g>
<g>
</g>
<g>
</g>
<g>
</g>
<g>
</g>
<g>
</g>
<g>
</g>
<g>
</g>
<g>
</g>
<g>
</g>
</svg>
