<?xml version="1.0" encoding="iso-8859-1"?>
<!-- Generator: Adobe Illustrator 16.0.0, SVG Export Plug-In . SVG Version: 6.00 Build 0)  -->
<!DOCTYPE svg PUBLIC "-//W3C//DTD SVG 1.1//EN" "http://www.w3.org/Graphics/SVG/1.1/DTD/svg11.dtd">
<svg version="1.1" id="Capa_1" xmlns="http://www.w3.org/2000/svg" xmlns:xlink="http://www.w3.org/1999/xlink" x="0px" y="0px"
	 width="573.75px" height="573.75px" viewBox="0 0 573.75 573.75" style="enable-background:new 0 0 573.75 573.75;"
	 xml:space="preserve">
<g>
	<g>
		<path d="M174.994,38.728c7.65,8.128,51.16,14.822,97.06,15.778v-2.869v-4.781c0-2.869,0.956-5.738,1.913-8.128
			c2.869-5.737,9.084-9.562,15.778-9.562h3.825c6.694,0,12.909,3.825,15.778,9.562c1.435,2.391,1.912,5.259,1.912,8.128v7.65
			c72.197,0,87.497-15.778,87.497-15.778V0H174.994V38.728z"/>
		<path d="M301.697,54.984v-2.869v-4.781c0-4.303-3.824-8.128-8.128-8.128h-3.347c-0.479,0-0.479,0-0.957,0
			c-4.303,0.479-7.171,3.825-7.171,8.128v8.128v197.944h19.603V54.984L301.697,54.984z"/>
		<polygon points="272.531,262.491 252.928,262.491 252.928,320.822 330.863,320.822 330.863,262.491 311.259,262.491 
			301.697,262.491 282.094,262.491 		"/>
		<polygon points="330.863,330.862 251.972,330.862 214.678,573.75 368.634,573.75 331.34,330.862 		"/>
	</g>
</g>
<g>
</g>
<g>
</g>
<g>
</g>
<g>
</g>
<g>
</g>
<g>
</g>
<g>
</g>
<g>
</g>
<g>
</g>
<g>
</g>
<g>
</g>
<g>
</g>
<g>
</g>
<g>
</g>
<g>
</g>
</svg>
