<?xml version="1.0" encoding="iso-8859-1"?>
<!-- Generator: Adobe Illustrator 16.0.0, SVG Export Plug-In . SVG Version: 6.00 Build 0)  -->
<!DOCTYPE svg PUBLIC "-//W3C//DTD SVG 1.1//EN" "http://www.w3.org/Graphics/SVG/1.1/DTD/svg11.dtd">
<svg version="1.1" id="Capa_1" xmlns="http://www.w3.org/2000/svg" xmlns:xlink="http://www.w3.org/1999/xlink" x="0px" y="0px"
	 width="570.881px" height="570.882px" viewBox="0 0 570.881 570.882" style="enable-background:new 0 0 570.881 570.882;"
	 xml:space="preserve">
<g>
	<path d="M178.102,570.403h28.209c15.3,0,28.209-12.432,28.209-28.209V448.96c0-15.301-12.431-28.21-28.209-28.21h-28.209V308.391
		h308.869c20.559,0,37.293-16.734,37.293-37.293V140.091c0-10.041-4.303-19.603-10.996-26.297
		c6.693-9.562,10.996-21.994,10.996-34.425V42.075C524.264,16.256,508.008,0,482.19,0H213.005c-38.25,0-54.028,13.388-54.028,46.378
		v32.991c0,8.128,2.391,16.256,6.694,23.428h-62.635c-20.559,0-37.293,16.734-37.293,37.294v131.006
		c0,20.559,16.734,37.293,37.293,37.293V420.75H74.827c-15.3,0-28.209,12.432-28.209,28.21v93.712c0,15.3,12.431,28.21,28.209,28.21
		h28.209h18.647h9.562h18.647h9.562h18.647V570.403z M154.674,550.322c-2.869-1.435-4.781-4.304-4.781-8.128V448.96
		c0-3.348,1.913-6.216,4.781-8.129c2.869,1.435,4.781,4.304,4.781,8.129v93.712C159.455,545.541,157.542,548.409,154.674,550.322z
		 M126.464,550.322c-2.869-1.435-4.781-4.304-4.781-8.128V448.96c0-3.348,1.913-6.216,4.781-8.129
		c2.869,1.435,4.781,4.304,4.781,8.129v93.712C131.246,545.541,129.333,548.409,126.464,550.322z M176.189,551.757
		c0.956-2.869,1.913-6.216,1.913-9.562V448.96c0-3.348-0.478-6.216-1.913-9.562h1.913c5.259,0,9.562,4.303,9.562,9.562v93.712
		c0,5.26-4.303,9.562-9.562,9.562h-1.913V551.757z M206.312,439.397c5.259,0,9.562,4.303,9.562,9.562v93.712
		c0,5.26-4.303,9.562-9.562,9.562h-1.913c0.956-2.868,1.913-6.216,1.913-9.562V448.96c0-3.348-0.479-6.216-1.913-9.562H206.312z
		 M187.665,78.891V46.856c0-10.041,9.562-19.603,23.428-19.603h262.49c16.258,0,22.951,10.519,22.951,22.472v29.166
		c0,19.125-11.953,23.428-22.473,23.428H207.746C197.227,102.319,187.665,89.41,187.665,78.891z M266.077,229.022
		c-16.256,0-29.166-12.909-29.166-29.166s12.91-29.166,29.166-29.166c16.256,0,29.166,12.909,29.166,29.166
		C295.243,215.635,281.855,229.022,266.077,229.022z M122.161,308.391h37.294V420.75h-9.562h-18.647h-9.562V308.391H122.161z
		 M75.305,551.757c-5.259,0-9.562-4.304-9.562-9.562V448.96c0-5.26,4.303-9.562,9.562-9.562h1.913
		c-0.957,2.868-1.913,6.215-1.913,9.562v93.712c0,3.347,0.478,6.216,1.913,9.562h-1.913V551.757z M103.036,551.757
		c-5.259,0-9.562-4.304-9.562-9.562V448.96c0-5.26,4.303-9.562,9.562-9.562h1.913c-0.956,2.868-1.913,6.215-1.913,9.562v93.712
		c0,3.347,0.479,6.216,1.913,9.562h-1.913V551.757z"/>
</g>
<g>
</g>
<g>
</g>
<g>
</g>
<g>
</g>
<g>
</g>
<g>
</g>
<g>
</g>
<g>
</g>
<g>
</g>
<g>
</g>
<g>
</g>
<g>
</g>
<g>
</g>
<g>
</g>
<g>
</g>
</svg>
