<?xml version="1.0" encoding="iso-8859-1"?>
<!-- Generator: Adobe Illustrator 16.0.0, SVG Export Plug-In . SVG Version: 6.00 Build 0)  -->
<!DOCTYPE svg PUBLIC "-//W3C//DTD SVG 1.1//EN" "http://www.w3.org/Graphics/SVG/1.1/DTD/svg11.dtd">
<svg version="1.1" id="Capa_1" xmlns="http://www.w3.org/2000/svg" xmlns:xlink="http://www.w3.org/1999/xlink" x="0px" y="0px"
	 width="550.299px" height="550.299px" viewBox="0 0 550.299 550.299" style="enable-background:new 0 0 550.299 550.299;"
	 xml:space="preserve">
<g>
	<path d="M280.66,377.348c59.287,156.825,118.574,148.697,185.99,123.356c67.415-25.341,115.706-63.112,57.853-215.634
		c-6.693-18.168-14.821-34.425-23.428-49.725l-235.237,89.409C269.185,341.967,273.966,359.18,280.66,377.348z"/>
	<path d="M118.097,223.392c44.465-29.644,45.422-67.416,46.378-100.884c0.957-27.253,1.435-51.159,25.341-67.416
		c14.822-10.041,31.078-13.388,47.334-9.562c46.855,11.475,80.803,78.891,83.672,84.15l-16.734,6.216l8.606,23.428
		c-40.163,28.209-59.766,85.584-48.291,156.825l109.969-41.597l-4.781-13.387l-2.869,0.956c-2.868,0.956-5.737,1.435-8.605,1.435
		c-8.129,0-14.822-4.304-17.213-10.519l-16.256-44.944c-1.435-4.781-0.957-9.562,1.912-14.344c2.869-4.303,7.172-7.65,12.432-9.562
		l1.434-0.478l-1.434-4.303l-9.085-24.862l8.128-2.869l9.085,24.863l1.435,4.303c10.519-2.869,21.516,1.434,24.384,9.562
		l16.257,44.943c1.434,4.781,0.956,9.562-1.913,14.344c-2.391,3.347-5.737,6.216-9.562,8.128l5.26,13.388l113.794-43.031
		c-39.685-62.156-93.713-92.278-143.438-84.628l-8.606-22.95l-16.734,6.216c-1.435-2.869-37.294-76.5-89.41-89.409
		c-18.647-4.781-36.815-0.957-54.028,10.519c-27.253,18.647-28.209,45.9-29.166,74.587c-0.956,32.513-1.912,66.459-42.553,93.712
		C69.807,244.908,2.391,230.086,1.913,230.086L0,238.692c1.435,0.478,19.604,4.303,43.031,4.303
		C66.459,242.996,95.147,239.17,118.097,223.392z"/>
	<path d="M381.065,245.386c1.435-2.391,1.913-5.26,1.435-7.65l-16.256-44.943c-1.435-3.347-5.26-5.738-10.041-5.738
		c-1.435,0-2.868,0.478-4.303,0.478c-0.479,0-0.956,0.479-1.913,0.479l-6.693,2.391l-1.912,0.956
		c-3.825,1.435-6.694,3.347-8.606,6.216c-1.435,2.391-1.913,5.259-1.435,7.65l16.256,44.944c1.913,4.781,9.085,7.172,16.257,4.303
		l2.868-0.956l5.738-1.913c0.956-0.478,1.434-0.956,2.391-1.434C377.241,249.211,379.632,247.298,381.065,245.386z"/>
</g>
<g>
</g>
<g>
</g>
<g>
</g>
<g>
</g>
<g>
</g>
<g>
</g>
<g>
</g>
<g>
</g>
<g>
</g>
<g>
</g>
<g>
</g>
<g>
</g>
<g>
</g>
<g>
</g>
<g>
</g>
</svg>
