<?xml version="1.0" encoding="iso-8859-1"?>
<!-- Generator: Adobe Illustrator 16.0.0, SVG Export Plug-In . SVG Version: 6.00 Build 0)  -->
<!DOCTYPE svg PUBLIC "-//W3C//DTD SVG 1.1//EN" "http://www.w3.org/Graphics/SVG/1.1/DTD/svg11.dtd">
<svg version="1.1" id="Capa_1" xmlns="http://www.w3.org/2000/svg" xmlns:xlink="http://www.w3.org/1999/xlink" x="0px" y="0px"
	 width="446.734px" height="446.733px" viewBox="0 0 446.734 446.733" style="enable-background:new 0 0 446.734 446.733;"
	 xml:space="preserve">
<g>
	<g>
		<rect x="36.898" y="418.046" width="162.562" height="28.688"/>
		<polygon points="36.898,408.483 199.46,408.483 199.46,378.018 173.288,350.611 136.74,388.861 100.269,350.621 63.797,388.871 
			36.898,360.651 		"/>
		<polygon points="36.898,332.939 63.797,361.158 100.269,322.908 136.75,361.168 173.288,322.918 199.46,350.324 199.46,312.858 
			36.898,312.858 		"/>
		<path d="M71.562,217.233H36.898v86.062H199.46v-86.062h-36.653l-17.528-28.688h-23.084c-7.162-50.165-41.654-63.533-43.232-64.03
			c-2.524-0.804-5.202,0.908-5.986,3.433c-0.793,2.516,0.612,5.795,3.137,6.579c0.325,0.105,29.586,10.883,36.376,54.009H87.101
			L71.562,217.233z"/>
		<polygon points="247.273,303.296 247.273,312.858 247.273,360.671 409.835,360.671 409.835,188.546 247.273,188.546 		"/>
		<rect x="247.273" y="418.046" width="162.562" height="28.688"/>
		<rect x="247.273" y="140.733" width="162.562" height="38.25"/>
		<rect x="247.273" y="370.233" width="162.562" height="38.25"/>
		<path d="M281.937,92.921h-34.664v38.25h162.562v-38.25h-36.653l-17.527-28.688h-23.084c-7.163-50.165-41.654-63.533-43.232-64.03
			c-2.506-0.812-5.202,0.908-5.986,3.433c-0.794,2.516,0.612,5.795,3.137,6.579c0.325,0.115,29.586,10.892,36.376,54.019h-25.389
			L281.937,92.921z"/>
	</g>
</g>
<g>
</g>
<g>
</g>
<g>
</g>
<g>
</g>
<g>
</g>
<g>
</g>
<g>
</g>
<g>
</g>
<g>
</g>
<g>
</g>
<g>
</g>
<g>
</g>
<g>
</g>
<g>
</g>
<g>
</g>
</svg>
