<?xml version="1.0" encoding="iso-8859-1"?>
<!-- Generator: Adobe Illustrator 16.0.0, SVG Export Plug-In . SVG Version: 6.00 Build 0)  -->
<!DOCTYPE svg PUBLIC "-//W3C//DTD SVG 1.1//EN" "http://www.w3.org/Graphics/SVG/1.1/DTD/svg11.dtd">
<svg version="1.1" id="Capa_1" xmlns="http://www.w3.org/2000/svg" xmlns:xlink="http://www.w3.org/1999/xlink" x="0px" y="0px"
	 width="528.328px" height="528.328px" viewBox="0 0 528.328 528.328" style="enable-background:new 0 0 528.328 528.328;"
	 xml:space="preserve">
<g>
	<g>
		<ellipse cx="264.164" cy="53.072" rx="82.716" ry="53.072"/>
		<path d="M264.164,118.097c-44.944,0-81.281,36.338-81.281,81.281c0,7.65,3.347,20.082,4.303,25.819
			c5.259,25.819,14.344,73.153,14.344,105.666c0,41.119-14.344,93.234-17.691,104.71h160.65
			c-4.304-11.476-21.994-61.679-21.994-104.231c0-30.122,9.085-71.719,15.778-98.016c2.391-9.562,7.172-27.731,7.172-33.469
			C345.445,154.913,309.107,118.097,264.164,118.097z"/>
		<polygon points="186.708,528.328 341.62,528.328 341.62,452.307 341.62,446.091 186.708,446.091 186.708,452.307 		"/>
	</g>
</g>
<g>
</g>
<g>
</g>
<g>
</g>
<g>
</g>
<g>
</g>
<g>
</g>
<g>
</g>
<g>
</g>
<g>
</g>
<g>
</g>
<g>
</g>
<g>
</g>
<g>
</g>
<g>
</g>
<g>
</g>
</svg>
