<?xml version="1.0" encoding="iso-8859-1"?>
<!-- Generator: Adobe Illustrator 16.0.0, SVG Export Plug-In . SVG Version: 6.00 Build 0)  -->
<!DOCTYPE svg PUBLIC "-//W3C//DTD SVG 1.1//EN" "http://www.w3.org/Graphics/SVG/1.1/DTD/svg11.dtd">
<svg version="1.1" id="Capa_1" xmlns="http://www.w3.org/2000/svg" xmlns:xlink="http://www.w3.org/1999/xlink" x="0px" y="0px"
	 width="344.25px" height="344.25px" viewBox="0 0 344.25 344.25" style="enable-background:new 0 0 344.25 344.25;"
	 xml:space="preserve">
<g>
	<path d="M339.469,0H4.781v344.25h334.688V0z M169.734,304.308c-69.979,0-126.703-56.725-126.703-126.703
		S99.756,50.901,169.734,50.901s126.703,56.725,126.703,126.703S239.713,304.308,169.734,304.308z"/>
	<circle cx="100.464" cy="209.725" r="19.106"/>
	<circle cx="243.901" cy="209.725" r="19.106"/>
	<circle cx="167.401" cy="104.537" r="19.106"/>
	<path d="M170.327,160.746c-9.572,0-17.346,7.784-17.346,17.356s7.774,17.355,17.346,17.355c9.572,0,17.347-7.783,17.347-17.355
		S179.899,160.746,170.327,160.746z M170.327,185.895c-4.293,0-7.784-3.5-7.784-7.793s3.49-7.793,7.784-7.793
		c4.294,0,7.784,3.5,7.784,7.793S174.631,185.895,170.327,185.895z"/>
</g>
<g>
</g>
<g>
</g>
<g>
</g>
<g>
</g>
<g>
</g>
<g>
</g>
<g>
</g>
<g>
</g>
<g>
</g>
<g>
</g>
<g>
</g>
<g>
</g>
<g>
</g>
<g>
</g>
<g>
</g>
</svg>
