<?xml version="1.0" encoding="iso-8859-1"?>
<!-- Generator: Adobe Illustrator 16.0.0, SVG Export Plug-In . SVG Version: 6.00 Build 0)  -->
<!DOCTYPE svg PUBLIC "-//W3C//DTD SVG 1.1//EN" "http://www.w3.org/Graphics/SVG/1.1/DTD/svg11.dtd">
<svg version="1.1" id="Capa_1" xmlns="http://www.w3.org/2000/svg" xmlns:xlink="http://www.w3.org/1999/xlink" x="0px" y="0px"
	 width="487.707px" height="487.707px" viewBox="0 0 487.707 487.707" style="enable-background:new 0 0 487.707 487.707;"
	 xml:space="preserve">
<g>
	<path d="M296.457,199.627c4.006-3.012,8.941-4.877,14.344-4.877h143.438c5.402,0,10.336,1.865,14.344,4.906V156.5H296.457V199.627z
		"/>
	<path d="M287.65,146.125c0.268,0.086,0.535,0.163,0.803,0.239c1.281,0.334,2.602,0.574,3.986,0.574h4.945h169.906h0.641h2.008
		c2.43,0,4.82-0.555,7.047-1.454c6.016-2.429,10.721-7.612,10.721-12.89v-76.5c-0.307-4.332-15.836-17.126-47.812-24.882V41.75
		c0,5.278-4.285,9.562-9.562,9.562c-5.279,0-9.562-4.284-9.562-9.562V27.569c-8.674-1.243-18.266-2.065-28.688-2.362V41.75
		c0,5.278-4.285,9.562-9.562,9.562c-5.279,0-9.562-4.284-9.562-9.562V25.255c-10.414,0.401-19.957,1.367-28.688,2.716V41.75
		c0,5.278-4.285,9.562-9.562,9.562c-5.279,0-9.562-4.284-9.562-9.562v-9.945c-31.203,7.851-47.344,20.234-47.812,24.327v76.462
		C277.332,138.905,281.674,144.212,287.65,146.125z"/>
	<path d="M469.939,156.5h0.01H469.939z"/>
	<path d="M291.676,462.5h181.688c7.908,0,14.344-6.436,14.344-14.344l-17.031-204.188l-2.074-24.919c0-0.067-0.02-0.125-0.02-0.191
		c-0.115-8.205-6.494-14.544-14.344-14.544H310.801c-7.908,0-14.344,6.436-14.344,14.344l-2.057,24.681l-0.152,1.874
		l-16.936,203.347C277.332,456.064,283.768,462.5,291.676,462.5z M420.348,338.904c-5.641,4.705-13.693,8.846-24.164,8.846h-23.227
		v28.688h-19.125v-95.625h43.652c9.543,0,17.146,3.318,22.816,8.281c5.67,4.973,8.51,13.961,8.51,24.384
		C428.811,324.848,425.99,334.2,420.348,338.904z"/>
	<path d="M394.271,299.938h-21.314v28.688h21.314c4.59,0,8.166-1.674,10.719-3.987c2.555-2.314,3.826-6.235,3.826-11.246
		s-1.271-8.357-3.826-10.489C402.438,300.77,398.861,299.938,394.271,299.938z"/>
	<path d="M19.144,199.627c4.007-3.012,8.941-4.877,14.344-4.877h143.438c5.403,0,10.337,1.865,14.344,4.906V156.5H19.144V199.627z"
		/>
	<path d="M10.337,146.125c0.268,0.086,0.536,0.163,0.803,0.239c1.281,0.334,2.601,0.574,3.988,0.574h4.944h169.906h0.641h2.008
		c2.429,0,4.819-0.555,7.047-1.454c6.015-2.429,10.72-7.612,10.72-12.89v-76.5c-0.306-4.332-15.835-17.126-47.812-24.882V41.75
		c0,5.278-4.284,9.562-9.562,9.562s-9.562-4.284-9.562-9.562V27.569c-8.673-1.243-18.264-2.065-28.688-2.362V41.75
		c0,5.278-4.284,9.562-9.562,9.562s-9.562-4.284-9.562-9.562V25.255c-10.414,0.401-19.957,1.367-28.688,2.716V41.75
		c0,5.278-4.284,9.562-9.562,9.562s-9.562-4.284-9.562-9.562v-9.945C16.629,39.656,0.488,52.039,0.019,56.132v76.462
		C0.019,138.905,4.36,144.212,10.337,146.125z"/>
	<path d="M192.627,156.5h0.009H192.627z"/>
	<path d="M14.363,462.5H196.05c7.908,0,14.344-6.436,14.344-14.344l-17.031-204.188l-2.075-24.919c0-0.067-0.019-0.125-0.019-0.191
		c-0.115-8.205-6.493-14.544-14.344-14.544H33.488c-7.908,0-14.344,6.436-14.344,14.344l-2.056,24.681l-0.153,1.874L0,448.558
		C0.019,456.064,6.455,462.5,14.363,462.5z M142.118,364.217c-6.809,5.813-16.418,8.73-28.84,8.73
		c-12.689,0-22.663-4.131-29.931-9.859c-7.268-5.728-10.901-15.338-10.901-24.9h19.221c0.622,9.562,1.846,8.96,3.672,11.141
		c3.337,3.968,9.056,6.579,17.155,6.579c4.848,0,8.788-0.211,11.81-1.253c5.738-1.999,8.606-5.575,8.606-11.017
		c0-3.184-1.406-5.565-4.217-7.306c-2.811-1.702-7.277-3.165-13.378-4.475l-10.423-2.276c-10.251-2.267-17.299-4.724-21.133-7.372
		c-6.493-4.447-9.744-11.39-9.744-20.847c0-8.625,3.175-15.797,9.534-21.506c6.35-5.709,15.683-8.559,27.99-8.559
		c10.279,0,19.048,1.253,26.297,6.637c7.248,5.383,11.063,12.44,11.417,22.003h-19.345c-0.363,0-2.955-8.482-7.774-10.92
		c-3.213-1.607-7.21-1.702-11.992-1.702c-5.316,0-9.562,1.405-12.737,3.499c-3.174,2.095-4.762,5.193-4.762,8.941
		c0,3.442,1.568,6.101,4.695,7.803c2.008,1.139,6.273,2.506,12.795,4.035l16.916,4.007c7.411,1.74,12.967,4.083,16.667,7.01
		c5.747,4.532,8.616,11.093,8.616,19.68C152.331,351.087,148.926,358.402,142.118,364.217z"/>
</g>
<g>
</g>
<g>
</g>
<g>
</g>
<g>
</g>
<g>
</g>
<g>
</g>
<g>
</g>
<g>
</g>
<g>
</g>
<g>
</g>
<g>
</g>
<g>
</g>
<g>
</g>
<g>
</g>
<g>
</g>
</svg>
