<?xml version="1.0" encoding="iso-8859-1"?>
<!-- Generator: Adobe Illustrator 16.0.0, SVG Export Plug-In . SVG Version: 6.00 Build 0)  -->
<!DOCTYPE svg PUBLIC "-//W3C//DTD SVG 1.1//EN" "http://www.w3.org/Graphics/SVG/1.1/DTD/svg11.dtd">
<svg version="1.1" id="Capa_1" xmlns="http://www.w3.org/2000/svg" xmlns:xlink="http://www.w3.org/1999/xlink" x="0px" y="0px"
	 width="439.875px" height="439.875px" viewBox="0 0 439.875 439.875" style="enable-background:new 0 0 439.875 439.875;"
	 xml:space="preserve">
<g>
	<g>
		<path d="M326.865,263.236c-3.892-4.552-23.505-24.862-68.678-32.465c-10.682-1.798-22.778-2.897-36.462-2.897
			c-14.984,0-28.238,1.243-40.038,3.175c-44.016,7.229-66.612,24.758-71.862,29.357L97.002,439.875h245.536L326.865,263.236z"/>
		<path d="M100.54,256.112l1.214-1.253c1.186-1.224,25.102-25.082,79.933-33.564c11.886-1.836,25.159-2.983,40.038-2.983
			c13.617,0,25.637,1.091,36.462,2.802c55.902,8.836,76.223,36.108,77.208,37.485l0.755,1.052l15.988,180.225h20.799V227.97
			c0-0.009,0-0.009,0-0.019c-0.02-17.939-25.092-25.274-51.647-33.029c-29.127-8.511-62.003-18.178-63.103-46.005v-6.569v-7.058
			V19.125C258.188,8.559,250.327,0,241.549,0h-39.751c-8.778,0-20.11,8.559-20.11,19.125v121.014v4.054v11.198
			c0,20.148-27.358,28.104-56.333,36.519c-28.716,8.348-58.417,16.973-58.417,36.051v211.914H87.42L100.54,256.112z M218.408,31.212
			c7,0,12.679,5.68,12.679,12.68c0,7.01-5.68,12.68-12.679,12.68c-7.009,0-12.68-5.68-12.68-12.68
			C205.728,36.892,211.408,31.212,218.408,31.212z"/>
	</g>
</g>
<g>
</g>
<g>
</g>
<g>
</g>
<g>
</g>
<g>
</g>
<g>
</g>
<g>
</g>
<g>
</g>
<g>
</g>
<g>
</g>
<g>
</g>
<g>
</g>
<g>
</g>
<g>
</g>
<g>
</g>
</svg>
