<?xml version="1.0" encoding="iso-8859-1"?>
<!-- Generator: Adobe Illustrator 16.0.0, SVG Export Plug-In . SVG Version: 6.00 Build 0)  -->
<!DOCTYPE svg PUBLIC "-//W3C//DTD SVG 1.1//EN" "http://www.w3.org/Graphics/SVG/1.1/DTD/svg11.dtd">
<svg version="1.1" id="Capa_1" xmlns="http://www.w3.org/2000/svg" xmlns:xlink="http://www.w3.org/1999/xlink" x="0px" y="0px"
	 width="535.51px" height="535.51px" viewBox="0 0 535.51 535.51" style="enable-background:new 0 0 535.51 535.51;"
	 xml:space="preserve">
<g>
	<path d="M111.719,464.499c3.156-4.839,7.727-17.012,10.155-27.033s-1.233-24.729-8.128-32.666l-27.875-32.082
		c-6.895-7.937-21.076-15.549-31.508-16.906l-35.4-4.619C8.53,349.825,0,357.322,0,367.84v86.062
		c0,10.519,8.606,19.145,19.125,19.173l67.731,0.182C97.375,473.286,108.563,469.346,111.719,464.499z"/>
	<path d="M19.029,338.646l10.146,1.004c10.471,1.042,22.864-5.823,27.54-15.242l1.989-3.997c4.686-9.419,4.695-22.912,0.029-29.979
		c-4.667-7.067-15.664-12.039-24.442-11.055c-8.778,0.985-20.081,5.689-25.121,10.462C4.122,294.611,0,307.119,0,317.637
		S8.568,337.614,19.029,338.646z"/>
	<path d="M76.041,345.875c7.095,2.381,17.901,11.341,24.002,19.899l23.619,33.105c6.11,8.567,19.623,14.296,30.026,12.747
		l22.262-3.318c10.404-1.55,20.148-11.342,21.668-21.745l6.043-41.636c1.511-10.413-4.791-23.084-14-28.161l-39.149-21.583
		c-9.208-5.077-24.662-5.852-34.339-1.711l-12.355,5.278c-9.667,4.131-22.299,14.717-28.056,23.523l-2.132,3.261
		C67.855,334.343,68.946,343.495,76.041,345.875z"/>
	<path d="M139.307,473.028h92.794c10.519,0,13.244-6.282,6.062-13.961l-28.859-30.849c-7.191-7.679-21.525-12.374-31.862-10.424
		l-16.725,3.146c-10.337,1.95-22.309,11.398-26.603,20.999l-6.101,13.637C123.691,465.167,128.788,473.028,139.307,473.028z"/>
	<path d="M101.114,204.35l-29.089-2.324c-10.48-0.841-22.118,5.47-25.857,14.009c-3.739,8.549-1.75,22.51,4.417,31.04l1.358,1.874
		c6.158,8.521,14.717,21.688,19.01,29.242c4.294,7.563,15.826,10.624,25.627,6.799l11.886-4.638
		c9.802-3.825,22.864-13.264,29.022-20.99c6.158-7.727,6.158-21.019,0-29.548l-6.11-8.443
		C125.221,212.851,111.594,205.192,101.114,204.35z"/>
	<path d="M8.826,277.293c4.858-4.763,15.549-9.745,23.763-11.055c8.214-1.319,10.5-9.763,5.068-18.771l-4.026-6.685
		c-5.432-9.008-15.214-17.193-21.755-18.178C5.345,221.62,0,229.423,0,239.942v26.89C0,277.35,3.968,282.065,8.826,277.293z"/>
	<path d="M11.886,207.076c6.531,1.319,16.161-2.983,21.391-9.562c5.231-6.579,18.083-11.217,28.563-10.309l31.145,2.687
		c10.48,0.909,22.348-6.311,26.374-16.026l11.848-28.611c4.026-9.715-0.536-21.19-10.136-25.503l-34.358-15.415
		c-9.601-4.303-24.729-3.242-33.622,2.372l-13.139,8.281c-8.893,5.613-21.525,6.703-28.056,2.429C5.345,113.153,0,118.259,0,128.778
		v56.782C0,196.069,5.345,205.756,11.886,207.076z"/>
	<path d="M180.626,248.108c-10.471-1.042-24.222,4.494-30.571,12.297c-6.35,7.803-3.911,18.178,5.413,23.046l51.981,27.129
		c9.324,4.867,19.326,14.63,22.214,21.697c2.888,7.066,13.521,10.423,23.61,7.468l38.661-11.341
		c10.089-2.965,13.225-12.298,6.971-20.751l-26.804-36.194c-6.263-8.453-19.947-16.218-30.408-17.26L180.626,248.108z"/>
	<path d="M283.92,473.229l28.965-0.125c10.519-0.048,25.255-6.12,32.752-13.492l24.346-23.964
		c7.497-7.382,8.119-20.023,1.377-28.104l-48.816-58.493c-6.741-8.081-20.588-12.518-30.763-9.869l-59.393,15.463
		c-10.184,2.648-19.823,13.32-21.42,23.725l-1.635,10.604c-1.606,10.395,2.812,25.322,9.821,33.173l32.924,36.882
		C259.067,466.889,273.401,473.267,283.92,473.229z"/>
	<path d="M419.966,428.869l-4.724-0.728c-10.395-1.606-24.892,3.261-32.207,10.815l-19.718,20.349
		c-7.315,7.545-4.704,13.723,5.814,13.723h57.146c10.519,0,19.125-2.553,19.125-5.68s-1.473-12.403-3.271-20.617
		S430.36,430.475,419.966,428.869z"/>
	<path d="M329.639,342.136c4.666,6.904,15.242,7.22,23.505,0.708l22.252-17.548c8.262-6.512,8.338-17.27,0.172-23.906
		l-14.449-11.742c-8.166-6.637-22.529-8.195-31.929-3.472l-1.808,0.909c-9.4,4.724-13.731,13.933-9.62,20.463
		c4.112,6.531,6.551,14.162,5.432,16.955C322.065,327.305,324.972,335.242,329.639,342.136z"/>
	<path d="M411.896,414.649l7.937,1.539c10.327,1.999,25.034,1.654,32.694-0.774c7.659-2.429,13.502-13.005,12.995-23.514
		l-0.87-18.111c-0.507-10.51-8.683-22.826-18.169-27.378l-31.547-15.128c-9.485-4.552-23.953-2.888-32.168,3.691l-17.853,14.324
		c-8.205,6.579-9.286,18.466-2.391,26.422l18.063,20.836C387.482,404.503,401.577,412.65,411.896,414.649z"/>
	<path d="M516.365,337.221l-23.438,9.85c-9.648,4.197-17.193,16.198-16.285,26.679l2.61,32.417
		c0.909,10.48-6.416,20.665-16.036,22.645c-9.619,1.97-14.659,11.714-11.207,21.649l1.874,5.384
		c3.452,9.936,14.88,17.958,25.398,17.834l35.486-0.411c10.528-0.134,20.731-8.846,20.731-19.364V348.715
		C535.5,338.197,526.014,333.023,516.365,337.221z"/>
	<path d="M515.399,257.824l-37.112-9.477c-10.174-2.658-25.895,0.191-34.435,6.331l-19.89,14.143
		c-8.539,6.139-16.896,19.297-18.437,29.232c-1.539,9.936,5.106,21.354,14.831,25.369l28.411,11.724
		c9.725,4.007,25.675,4.093,35.448,0.191l31.929-12.115c9.764-3.893,19.354-15.683,19.354-26.202v-15.242
		C535.5,271.259,525.574,260.482,515.399,257.824z"/>
	<path d="M424.546,247.267c8.855-5.67,7.746-12.364-2.467-14.879l-42.974-10.576c-10.213-2.515-25.437,0.622-33.832,6.961
		L303.819,260.1c-8.396,6.34-13.808,15.434-12.029,20.196c1.77,4.763,11.035,5.04,20.569,0.612l20.646-9.591
		c9.543-4.428,19.641-6.312,22.434-4.17c2.792,2.143,11.81,8.587,20.033,14.344s16.581,4.274,18.59-3.289
		c2.008-7.564,10.9-18.389,19.756-24.06L424.546,247.267z"/>
	<path d="M515.218,172.526l-72.054-15.482c-10.279-2.237-23.16,3.519-28.142,12.785l-15.349,28.171
		c-4.981,9.266-0.783,18.829,9.448,21.267l30.581,7.296c10.231,2.429,26.842,6.914,36.911,9.964l38.996,11.322
		c10.06,3.041,19.89-3.069,19.89-13.588v-38.546C535.5,185.197,525.498,174.764,515.218,172.526z"/>
	<path d="M373.693,191.049l-3.921-13.971c-2.84-10.127-13.034-21.917-22.645-26.192l-26.842-11.943
		c-9.61-4.274-25.254-4.103-34.769,0.392l-11.59,5.47c-9.515,4.494-16.601,16.744-15.75,27.234l0.976,12.078
		c0.851,10.48,9.812,16.658,19.909,13.712l9.447-2.754c10.099-2.945,26.66-3.07,36.807-0.296l35.085,9.61
		C370.566,207.19,376.543,201.175,373.693,191.049z"/>
	<path d="M290.786,206.779l-11.991,4.169c-9.936,3.452-18.064,12.202-18.064,19.431s3.892,16.916,8.654,21.516
		c4.763,4.6,15.31,2.907,23.447-3.758l32.379-26.546c8.138-6.674,7.784-14.143-0.784-16.61
		C315.859,202.514,300.722,203.327,290.786,206.779z"/>
	<path d="M232.694,190.322l-75.668,19.459c-10.184,2.62-13.942,9.132-8.338,14.478c5.604,5.346,18.733,10.672,29.194,11.838
		l47.535,5.317c10.452,1.167,20.004-6.426,21.229-16.868l2.343-19.986C250.222,194.099,242.888,187.702,232.694,190.322z"/>
	<path d="M237.953,131.254c-2.41-10.241-12.9-19.89-23.294-21.439l-34.138-5.106c-10.404-1.559-22.032,5.192-25.848,14.994
		l-21.449,55.195c-3.806,9.801-5.02,20.177-2.687,23.055c2.333,2.878,12.508,2.811,22.596-0.144l75.659-22.127
		c10.098-2.955,16.38-13.751,13.971-23.983L237.953,131.254z"/>
	<path d="M10.547,106.363c5.288,3.127,16.897,1.09,25.79-4.513l12.718-8.014c8.903-5.604,21.057-8.893,27.004-7.306
		s13.273-3.318,16.266-10.911c2.993-7.583-3.156-13.789-13.675-13.789H19.125c-10.519,0-18.915,8.606-18.666,19.116l0.019,0.612
		C0.727,92.086,5.259,103.246,10.547,106.363z"/>
	<path d="M112.226,103.37l4.695,1.808c9.82,3.777,22.051,1.214,27.186-5.68c5.135-6.904,17.786-10.901,28.104-8.884l11.351,2.219
		c10.328,2.018,17.241-4.131,15.377-13.665c-1.865-9.534-12.001-17.327-22.52-17.327h-46.617c-10.519,0-22.787,7.784-27.263,17.308
		l-0.019,0.048C98.035,88.711,102.405,99.593,112.226,103.37z"/>
	<path d="M225.532,61.84c-10.519,0-16.773,8.281-13.904,18.398l0.412,1.453c2.878,10.117,11.188,18.398,18.475,18.398
		s14.917,8.205,16.974,18.226c2.056,10.021,11.542,14.612,21.095,10.194l18.245-8.444c9.544-4.418,24.69-3.538,33.66,1.96
		l13.215,8.099c8.97,5.499,18.37,1.635,20.895-8.568l10.175-41.157c2.524-10.203-4.017-18.561-14.535-18.561H225.532z"/>
	<path d="M399.903,145.541l-5.402,1.597c-10.089,2.974-16.667,13.646-14.611,23.706s8.702,11.274,14.773,2.687l12.556-17.767
		C413.281,147.167,409.992,142.567,399.903,145.541z"/>
	<path d="M411.178,129.017c10.232-2.429,19.833-0.928,21.324,3.347c1.492,4.274,8.597,9.917,15.788,12.546
		c7.191,2.63,13.636-3.806,14.324-14.306l3.261-49.687c0.688-10.49-7.354-19.077-17.872-19.077h-45.259
		c-10.52,0-21.248,8.338-23.85,18.532c0,0-14.458,56.772-14.458,59.756L411.178,129.017z"/>
	<path d="M513.19,61.84h-9.275c-10.519,0-19.833,8.578-20.693,19.058l-4.332,52.575c-0.86,10.48,6.924,20.464,17.299,22.185
		l18.857,2.859c10.375,1.721,20.464-5.479,20.464-15.998V80.965C535.5,70.447,523.709,61.84,513.19,61.84z"/>
</g>
<g>
</g>
<g>
</g>
<g>
</g>
<g>
</g>
<g>
</g>
<g>
</g>
<g>
</g>
<g>
</g>
<g>
</g>
<g>
</g>
<g>
</g>
<g>
</g>
<g>
</g>
<g>
</g>
<g>
</g>
</svg>
