<?xml version="1.0" encoding="iso-8859-1"?>
<!-- Generator: Adobe Illustrator 16.0.0, SVG Export Plug-In . SVG Version: 6.00 Build 0)  -->
<!DOCTYPE svg PUBLIC "-//W3C//DTD SVG 1.1//EN" "http://www.w3.org/Graphics/SVG/1.1/DTD/svg11.dtd">
<svg version="1.1" id="Capa_1" xmlns="http://www.w3.org/2000/svg" xmlns:xlink="http://www.w3.org/1999/xlink" x="0px" y="0px"
	 width="103.906px" height="103.905px" viewBox="0 0 103.906 103.905" style="enable-background:new 0 0 103.906 103.905;"
	 xml:space="preserve">
<g>
	<path d="M77.765,37.405l-7.35,66.324v0.176H33.49l-7.35-66.412h7.611l-2.799-21.438l7.35-0.964l2.887,22.4h4.812l-1.137-14.35
		l7.35-0.613l1.225,14.963h5.688l0.178-25.812h7.438c0,0,1.926,0.175,3.853,1.574c1.662,1.226,2.625,3.15,2.8,5.601
		c0.264,4.462,0.176,10.062,0.176,10.325c-0.088,0.875-0.699,1.574-1.574,1.75c-0.088,0-0.264,0-0.352,0
		c-1.05-0.089-1.838-0.875-1.838-1.926c0-0.087,0.176-5.774-0.175-9.975c-0.089-1.312-0.524-2.275-1.312-2.887
		c-0.522-0.438-1.226-0.613-1.838-0.7L66.39,37.405H77.765z M30.672,14.067l7.288-0.952l-0.238-1.822l-7.288,0.952L30.672,14.067z
		 M30.156,10.434l7.287-0.952L37.204,7.66l-7.287,0.952L30.156,10.434z M29.64,6.78l7.35-0.962l-0.263-1.837
		c0,0-0.351-4.462-4.2-3.938c-3.85,0.525-3.062,4.9-3.062,4.9L29.64,6.78z M44.663,21.142l7.326-0.588l-0.146-1.832l-7.327,0.588
		L44.663,21.142z M44.335,17.473l7.328-0.589l-0.146-1.831l-7.326,0.588L44.335,17.473z M43.99,13.78l7.351-0.612l-0.175-1.837
		c0,0-0.176-4.462-4.025-4.2c-4.025,0.351-3.325,4.726-3.325,4.726L43.99,13.78z M66.478,7.918h-1.663v-5.6H61.14v5.6h-2.014v1.837
		h7.352V7.918z"/>
</g>
<g>
</g>
<g>
</g>
<g>
</g>
<g>
</g>
<g>
</g>
<g>
</g>
<g>
</g>
<g>
</g>
<g>
</g>
<g>
</g>
<g>
</g>
<g>
</g>
<g>
</g>
<g>
</g>
<g>
</g>
</svg>
