<?xml version="1.0" encoding="iso-8859-1"?>
<!-- Generator: Adobe Illustrator 16.0.0, SVG Export Plug-In . SVG Version: 6.00 Build 0)  -->
<!DOCTYPE svg PUBLIC "-//W3C//DTD SVG 1.1//EN" "http://www.w3.org/Graphics/SVG/1.1/DTD/svg11.dtd">
<svg version="1.1" id="Capa_1" xmlns="http://www.w3.org/2000/svg" xmlns:xlink="http://www.w3.org/1999/xlink" x="0px" y="0px"
	 width="612px" height="612px" viewBox="0 0 612 612" style="enable-background:new 0 0 612 612;" xml:space="preserve">
<g>
	<path d="M76.5,406.406h9.562h19.125h9.562h33.469c6.225,0,11.484-4.007,13.464-9.562h-3.901c-13.177,0-23.906-10.729-23.906-23.906
		v-23.906h-76.5v23.906c0,13.177-10.729,23.906-23.906,23.906h-3.901c1.979,5.556,7.239,9.562,13.464,9.562H76.5z"/>
	<path d="M337.078,463.781h-47.812c-6.598,0-11.953-7.086-11.953-14.344c0-1.635,0.306-3.242,0.803-4.781h-39.053v57.375H382.5
		v-57.375h-34.272c0.498,1.539,0.804,3.146,0.804,4.781C349.031,456.695,343.676,463.781,337.078,463.781z"/>
	<path d="M337.078,358.594h-47.812c-6.598,0-11.953-7.086-11.953-14.344c0-1.635,0.306-3.242,0.803-4.781h-39.053v57.375H382.5
		v-57.375h-34.272c0.498,1.539,0.804,3.146,0.804,4.781C349.031,351.508,343.676,358.594,337.078,358.594z"/>
	<path d="M411.188,310.781h-19.125H210.375v200.812v19.125v28.688H229.5v-28.688h162.562v28.688h19.125v-28.688v-19.125V387.281
		h181.688v172.125H612V387.281v-19.125v-28.688v-28.688h-19.125H411.188z M392.062,511.594H229.5v-76.5h59.766h47.812h54.984
		V511.594z M392.062,339.469v28.688v19.125v19.125H229.5v-76.5h59.766h47.812h54.984V339.469z M592.875,368.156H411.188v-28.688
		h181.688V368.156z"/>
	<polygon points="439.875,253.406 439.875,272.531 420.75,272.531 420.75,291.656 564.188,291.656 564.188,272.531 545.062,272.531 
		545.062,253.406 	"/>
	<path d="M372.938,243.844H612V52.594H372.938V243.844z M497.25,229.5c-6.598,0-11.953-5.355-11.953-11.953
		s5.355-11.953,11.953-11.953s11.953,5.355,11.953,11.953S503.848,229.5,497.25,229.5z M392.062,71.719h200.812v124.312H392.062
		V71.719z"/>
	<path d="M219.938,301.219h133.875v-229.5H219.938V301.219z M325.125,272.531c-7.258,0-13.148-5.891-13.148-13.148
		s5.891-13.148,13.148-13.148s13.148,5.891,13.148,13.148S332.383,272.531,325.125,272.531z M258.188,157.781v-9.562h57.375v9.562
		H258.188z M239.062,100.406h95.625v19.125h-95.625V100.406z"/>
	<path d="M133.875,339.469v-9.562v-4.781c0-13.177,10.729-23.906,23.906-23.906h4.781V133.875c0-7.908-7.047-14.344-15.711-14.344
		H44.399c-8.664,0-15.711,6.436-15.711,14.344v167.344h4.781c13.177,0,23.906,10.729,23.906,23.906v14.344H133.875z"/>
	<path d="M28.688,387.281h4.781c7.908,0,14.344-6.436,14.344-14.344v-23.906v-9.562v-9.562v-4.781
		c0-7.908-6.436-14.344-14.344-14.344h-4.781h-9.562h-4.781C6.436,310.781,0,317.217,0,325.125v47.812
		c0,7.908,6.436,14.344,14.344,14.344h4.781H28.688z"/>
	<path d="M172.125,387.281h4.781c7.908,0,14.344-6.436,14.344-14.344v-43.031c0-10.566-8.559-19.125-19.125-19.125h-9.562h-4.781
		c-7.908,0-14.344,6.436-14.344,14.344v14.344v9.562v23.906c0,7.908,6.436,14.344,14.344,14.344h4.781H172.125z"/>
	<path d="M164.953,516.375c8.578,0,15.539-6.962,15.539-15.539s-6.961-15.539-15.539-15.539c-4.858,0-9.142,2.275-11.991,5.767
		l-38.212-7.966l-9.562-1.989v-65.14H86.062v63.982l-9.562,2.611l-45.192,12.325c-0.077,0-0.153-0.019-0.229-0.019
		c-2.917,0-5.613,0.851-7.946,2.257l-1.741,0.478l0.172,0.612c-3.634,2.84-6.015,7.22-6.015,12.202
		c0,8.577,6.961,15.539,15.539,15.539c8.539,0,15.453-6.886,15.529-15.405l29.883-8.167l5.011-1.367l-5.011,4.724l-19.096,18.045
		c-7.449,1.147-13.177,7.525-13.177,15.3c0,8.577,6.961,15.539,15.539,15.539s15.539-6.962,15.539-15.539
		c0-1.778-0.363-3.452-0.908-5.049l23.715-22.396l22.883,24.796c-0.153,0.86-0.268,1.74-0.268,2.648
		c0,8.577,6.961,15.539,15.539,15.539s15.539-6.962,15.539-15.539s-6.961-15.539-15.539-15.539c-0.363,0-0.698,0.086-1.052,0.105
		l-19.144-20.741l36.882,7.679C155.802,514.09,160.086,516.375,164.953,516.375z"/>
</g>
<g>
</g>
<g>
</g>
<g>
</g>
<g>
</g>
<g>
</g>
<g>
</g>
<g>
</g>
<g>
</g>
<g>
</g>
<g>
</g>
<g>
</g>
<g>
</g>
<g>
</g>
<g>
</g>
<g>
</g>
</svg>
