<?xml version="1.0" encoding="iso-8859-1"?>
<!-- Generator: Adobe Illustrator 16.0.0, SVG Export Plug-In . SVG Version: 6.00 Build 0)  -->
<!DOCTYPE svg PUBLIC "-//W3C//DTD SVG 1.1//EN" "http://www.w3.org/Graphics/SVG/1.1/DTD/svg11.dtd">
<svg version="1.1" id="Capa_1" xmlns="http://www.w3.org/2000/svg" xmlns:xlink="http://www.w3.org/1999/xlink" x="0px" y="0px"
	 width="538.422px" height="538.422px" viewBox="0 0 538.422 538.422" style="enable-background:new 0 0 538.422 538.422;"
	 xml:space="preserve">
<g>
	<path d="M215.783,60.622c-1.53,0.832-2.486,2.438-2.486,4.188v15.204c0.201-0.009,0.392-0.057,0.593-0.057
		c3.185,0,6.206,0.66,8.97,1.836v-8.252l268.161,171.235l-26.364,214.488h-69.815c-5.202,0-9.419,4.217-9.419,9.409v0.297
		c0,5.202,4.217,9.419,9.409,9.419h134.172c5.202,0,9.419-4.217,9.419-9.409v-0.297c0-5.202-4.217-9.419-9.409-9.419h-54.727
		L500.88,242.95c0.22-1.826-0.612-3.624-2.171-4.609L220.65,60.784C219.188,59.847,217.323,59.78,215.783,60.622z"/>
	<path d="M165.484,248.888h95.625c10.566,0,23.304-8.367,19.125-19.125l-57.069-105.991c-2.84,1.262-5.967,1.999-9.266,1.999
		c-3.682,0-7.105-0.956-10.194-2.496l-57.346,106.488C141.875,240.224,154.918,248.888,165.484,248.888z"/>
	<path d="M316.094,248.888h95.434c10.566,0,20.12-12.947,10.558-20.722l-187.56-115.525c-1.119,2.353-2.572,4.514-4.379,6.34
		l59.651,110.782C294.578,239.326,305.527,248.888,316.094,248.888z"/>
	<path d="M11.48,248.888H113.78c10.567,0,18.265-8.348,23.007-19.125l59.689-112.188c-1.492-1.759-2.792-3.672-3.701-5.814
		L2.922,229.763C-3.351,235.443,0.923,248.888,11.48,248.888z"/>
	<path d="M208.209,114.889c1.731,0.823,3.644,1.32,5.68,1.32c1.664,0,3.242-0.344,4.714-0.899c2.764-1.052,5.078-2.983,6.617-5.47
		c0.44-0.708,0.813-1.454,1.109-2.247c0.564-1.473,0.908-3.06,0.908-4.733c0-3.902-1.711-7.373-4.379-9.821
		c-2.372-2.171-5.508-3.528-8.97-3.528c-0.201,0-0.392,0.047-0.593,0.057c-7.076,0.315-12.747,6.129-12.747,13.282
		c0,1.3,0.249,2.524,0.593,3.71c0.143,0.478,0.258,0.975,0.449,1.434C202.854,111.045,205.245,113.483,208.209,114.889z"/>
</g>
<g>
</g>
<g>
</g>
<g>
</g>
<g>
</g>
<g>
</g>
<g>
</g>
<g>
</g>
<g>
</g>
<g>
</g>
<g>
</g>
<g>
</g>
<g>
</g>
<g>
</g>
<g>
</g>
<g>
</g>
</svg>
