<?xml version="1.0" encoding="iso-8859-1"?>
<!-- Generator: Adobe Illustrator 16.0.0, SVG Export Plug-In . SVG Version: 6.00 Build 0)  -->
<!DOCTYPE svg PUBLIC "-//W3C//DTD SVG 1.1//EN" "http://www.w3.org/Graphics/SVG/1.1/DTD/svg11.dtd">
<svg version="1.1" id="Capa_1" xmlns="http://www.w3.org/2000/svg" xmlns:xlink="http://www.w3.org/1999/xlink" x="0px" y="0px"
	 width="535.5px" height="535.5px" viewBox="0 0 535.5 535.5" style="enable-background:new 0 0 535.5 535.5;" xml:space="preserve"
	>
<g>
	<polygon points="261.591,505.856 191.785,505.856 176.963,505.856 157.359,505.856 157.359,535.5 276.413,535.5 276.413,505.856 
		266.372,505.856 	"/>
	<rect x="226.688" y="59.288" width="10.041" height="119.053"/>
	<path d="M282.15,108.056c-10.519,7.65-17.213,20.082-18.169,33.469v0.957c-0.956,18.646-2.869,30.6-9.084,35.859h22.95
		c4.304-11.475,5.26-24.863,5.738-34.903v-0.956c0.956-12.432,10.519-21.516,19.603-21.516c-1.435-6.694-2.868-12.91-4.781-18.169
		C293.625,101.841,287.888,103.753,282.15,108.056z"/>
	<path d="M239.119,188.381h-2.391h-10.041h-69.328v19.603h19.604v39.685v10.041h-10.041v10.041H97.594
		c-51.637,0-58.331,28.209-59.287,37.294c0,0.956,0,1.435,0,2.391v19.603v10.041H28.266v19.604h59.288v-19.604H77.513v-12.909
		c0,0,0-16.734,19.603-16.734h69.328v10.04h10.041l10.041,10.041v1.912v166.388h69.328V327.037l10.04-10.04V208.462h10.041v-19.603
		h-3.825h-32.99V188.381z"/>
	<path d="M441.366,317.953c-6.216-5.26-13.388-10.997-21.038-17.69l-2.391-1.913c-54.984-48.769-54.984-48.769-78.891-158.259
		l-4.781-21.516c-12.909-60.244-33.946-97.538-62.634-111.881C262.547,1.913,247.725,0,240.553,0
		c-19.603,0-32.034,10.041-32.034,26.775c0,12.431,10.041,22.472,22.472,22.472s22.472-10.041,22.472-22.472
		c0-1.434,0-2.869-0.479-4.303c2.869,0.479,6.216,1.435,9.562,3.347c15.778,7.65,37.294,31.078,51.638,97.538l4.781,21.516
		c24.385,114.271,24.862,116.184,85.584,169.256l2.391,1.913c7.65,6.693,14.822,12.909,21.516,18.168
		c29.166,23.906,44.944,37.294,58.332,84.629c1.434,4.781,5.737,7.649,10.04,7.649c0.956,0,1.913,0,2.869-0.478
		c5.737-1.435,8.606-7.172,7.172-12.91C491.091,359.072,471.487,342.815,441.366,317.953z"/>
</g>
<g>
</g>
<g>
</g>
<g>
</g>
<g>
</g>
<g>
</g>
<g>
</g>
<g>
</g>
<g>
</g>
<g>
</g>
<g>
</g>
<g>
</g>
<g>
</g>
<g>
</g>
<g>
</g>
<g>
</g>
</svg>
