<?xml version="1.0" encoding="iso-8859-1"?>
<!-- Generator: Adobe Illustrator 16.0.0, SVG Export Plug-In . SVG Version: 6.00 Build 0)  -->
<!DOCTYPE svg PUBLIC "-//W3C//DTD SVG 1.1//EN" "http://www.w3.org/Graphics/SVG/1.1/DTD/svg11.dtd">
<svg version="1.1" id="Capa_1" xmlns="http://www.w3.org/2000/svg" xmlns:xlink="http://www.w3.org/1999/xlink" x="0px" y="0px"
	 width="586.898px" height="586.898px" viewBox="0 0 586.898 586.898" style="enable-background:new 0 0 586.898 586.898;"
	 xml:space="preserve">
<g>
	<g>
		<path d="M362.758,233.086h35.688c8.09,0,14.669-5.451,14.669-12.154l0.105-0.985l38.795-185.522
			c-0.277-6.502-6.751-11.714-14.659-11.714h-70.858c25.465,25.092,41.702,62.548,41.702,104.394
			C408.199,167.745,392.775,203.232,362.758,233.086z"/>
		<path d="M184.465,233.086h34.865c-29.998-29.787-45.422-65.073-45.422-105.388c0-42.094,16.285-79.79,41.836-104.987h-70.188l0,0
			c-7.908,0-14.373,5.211-14.659,11.714l38.9,186.507C169.796,227.635,176.375,233.086,184.465,233.086z"/>
		<path d="M184.465,242.648h-0.009H184.465z"/>
		<path d="M355.759,411.896c-20.062,6.913-41.846,10.844-64.7,10.844c-24.576,0-47.984-4.428-69.271-12.364l-24.012,165.058
			c0.048,6.016,6.483,11.466,14.392,11.466h153c7.908,0,14.344-5.45,14.344-12.154L355.759,411.896z"/>
		<path d="M111.762,280.898h3.423h4.638h4.982c4.867,50.471,39.77,93.636,89.323,115.965c1.625,0.736,3.328,1.367,4.982,2.056
			c1.358,0.564,2.706,1.147,4.083,1.683c20.76,8.014,43.682,12.585,67.846,12.585c22.405,0,43.768-3.873,63.313-10.815
			c1.396-0.497,2.735-1.071,4.112-1.598c1.683-0.641,3.318-1.357,4.963-2.046c51.905-21.697,88.845-65.848,93.855-117.829h5.021
			h4.609h8.224c7.928,0,14.344-6.417,14.344-14.344s-6.416-14.344-14.344-14.344H340.831h-1.606h-96.323h-1.606H111.762
			c-7.927,0-14.344,6.417-14.344,14.344S103.834,280.898,111.762,280.898z"/>
		<path d="M233.177,233.086c3.634,3.242,7.306,6.464,11.341,9.562h93.09c4.026-3.089,7.698-6.321,11.332-9.562
			c32.886-29.405,49.696-64.948,49.696-105.981c0-43.222-18.389-81.415-46.368-104.394c-4.39-3.605-9.037-6.751-13.856-9.562
			C324.097,4.81,308.07,0,291.059,0c-16.964,0-32.962,4.81-47.239,13.148c-4.819,2.812-9.467,5.958-13.847,9.562
			c-28.056,23.074-46.493,61.506-46.493,104.987C183.48,168.376,200.292,203.729,233.177,233.086z"/>
	</g>
</g>
<g>
</g>
<g>
</g>
<g>
</g>
<g>
</g>
<g>
</g>
<g>
</g>
<g>
</g>
<g>
</g>
<g>
</g>
<g>
</g>
<g>
</g>
<g>
</g>
<g>
</g>
<g>
</g>
<g>
</g>
</svg>
