<?xml version="1.0" encoding="iso-8859-1"?>
<!-- Generator: Adobe Illustrator 16.0.0, SVG Export Plug-In . SVG Version: 6.00 Build 0)  -->
<!DOCTYPE svg PUBLIC "-//W3C//DTD SVG 1.1//EN" "http://www.w3.org/Graphics/SVG/1.1/DTD/svg11.dtd">
<svg version="1.1" id="Capa_1" xmlns="http://www.w3.org/2000/svg" xmlns:xlink="http://www.w3.org/1999/xlink" x="0px" y="0px"
	 width="525.938px" height="525.937px" viewBox="0 0 525.938 525.937" style="enable-background:new 0 0 525.938 525.937;"
	 xml:space="preserve">
<g>
	<polygon points="116.05,450.795 124.771,414.333 72.455,353.373 0,343.81 0,468.123 104.709,468.4 	"/>
	<polygon points="66.412,298.388 49.639,272.684 18.111,276.28 0,293.607 0,331.857 47.631,336.638 	"/>
	<polygon points="87.879,345.302 133.158,409.552 192.531,400.592 203.939,321.099 132.154,281.061 85.192,301.372 62.386,336.638 	
		"/>
	<polygon points="248.214,468.123 193.87,409.342 140.206,419.574 118.738,468.123 	"/>
	<polygon points="52.326,195.591 38.91,226.669 62.386,259.545 77.82,287.028 124.771,268.505 146.918,240.42 118.738,200.965 	"/>
	<polygon points="46.961,258.943 23.476,219.498 0,215.912 0,281.061 17.442,263.724 	"/>
	<polygon points="42.266,180.655 110.686,186.622 136.849,122.677 68.429,91.599 23.476,120.287 0,104.748 0,199.78 23.476,204.561 
			"/>
	<polygon points="221.716,314.53 232.11,340.224 306.574,318.106 257.604,251.168 159.655,241.31 136.849,269.701 	"/>
	<polygon points="328.042,468.123 379.02,417.327 306.574,329.466 211.312,354.568 203.939,402.983 261.63,468.4 	"/>
	<polygon points="345.818,468.123 439.875,468.123 439.875,456.762 433.516,426.889 391.604,420.31 	"/>
	<polygon points="334.075,349.787 385.732,308.543 342.127,272.684 306.574,290.767 321.329,314.53 317.303,324.685 	"/>
	<polygon points="458.188,349.787 392.942,318.106 345.818,356.356 388.419,406.11 433.363,414.936 460.864,406.11 	"/>
	<polygon points="525.938,324.685 468.916,349.787 474.95,420.31 440.401,427.482 454.658,469.002 525.938,468.123 	"/>
	<polygon points="525.938,257.748 453.482,238.623 403.347,275.075 397.81,311.24 460.864,337.537 525.938,311.24 	"/>
	<polygon points="356.213,212.326 285.105,266.717 291.484,284.044 346.153,258.34 356.213,266.115 385.732,287.028 
		392.942,259.545 435.371,232.043 	"/>
	<polygon points="525.938,171.685 418.608,148.075 385.732,209.935 452.813,226.077 525.938,248.481 	"/>
	<polygon points="360.238,153.755 299.191,126.263 253.578,148.075 257.604,198.278 303.218,184.833 374.324,204.561 	"/>
	<polygon points="258.188,238.623 274.998,255.357 336.064,204.561 305.513,195.591 258.188,212.326 	"/>
	<polygon points="248.214,180.655 136.849,209.639 156.978,229.06 241.501,238.623 	"/>
	<polygon points="133.158,198.278 244.188,165.412 230.772,107.731 159.655,96.983 124.771,187.827 	"/>
	<polygon points="19.918,107.138 64.461,78.747 85.843,84.513 96.601,56.935 0,56.935 0.918,95.778 	"/>
	<polygon points="193.201,56.935 109.347,56.935 93.244,91.599 133.158,107.138 151.613,82.037 199.914,91.599 	"/>
	<polygon points="214.668,95.185 240.832,95.185 248.214,131.637 300.54,107.138 345.818,135.233 364.934,56.935 203.939,56.935 	
		"/>
	<polygon points="371.646,147.626 379.02,184.231 413.234,135.233 	"/>
	<path d="M430.007,135.233l25.828,9.562l5.699-87.86H379.02c0,0-18.953,75.305-18.953,78.298l64.566-15.539L430.007,135.233z"/>
	<polygon points="525.938,56.935 478.977,56.935 471.604,147.626 525.938,156.749 	"/>
</g>
<g>
</g>
<g>
</g>
<g>
</g>
<g>
</g>
<g>
</g>
<g>
</g>
<g>
</g>
<g>
</g>
<g>
</g>
<g>
</g>
<g>
</g>
<g>
</g>
<g>
</g>
<g>
</g>
<g>
</g>
</svg>
