<?xml version="1.0" encoding="iso-8859-1"?>
<!-- Generator: Adobe Illustrator 16.0.0, SVG Export Plug-In . SVG Version: 6.00 Build 0)  -->
<!DOCTYPE svg PUBLIC "-//W3C//DTD SVG 1.1//EN" "http://www.w3.org/Graphics/SVG/1.1/DTD/svg11.dtd">
<svg version="1.1" id="Capa_1" xmlns="http://www.w3.org/2000/svg" xmlns:xlink="http://www.w3.org/1999/xlink" x="0px" y="0px"
	 width="372.938px" height="372.938px" viewBox="0 0 372.938 372.938" style="enable-background:new 0 0 372.938 372.938;"
	 xml:space="preserve">
<g>
	<path d="M191.728,133.875c15.778,0,28.688-12.909,28.688-28.688S207.506,76.5,191.728,76.5s-28.688,12.909-28.688,28.688
		S175.95,133.875,191.728,133.875z M191.728,95.625c5.26,0,9.562,4.303,9.562,9.562s-4.303,9.562-9.562,9.562
		c-5.259,0-9.562-4.303-9.562-9.562S186.469,95.625,191.728,95.625z"/>
	<path d="M191.728,158.26c29.166,0,53.072-23.907,53.072-53.072s-23.906-53.072-53.072-53.072
		c-29.166,0-53.072,23.906-53.072,53.072S162.562,158.26,191.728,158.26z M191.728,71.241c18.647,0,33.947,15.3,33.947,33.947
		s-15.3,33.947-33.947,33.947c-18.646,0-33.947-15.3-33.947-33.947S173.082,71.241,191.728,71.241z"/>
	<path d="M191.728,184.557c43.51,0,79.369-35.382,79.369-79.369s-35.382-79.369-79.369-79.369s-78.891,35.859-78.891,79.369
		S148.219,184.557,191.728,184.557z M191.728,44.944c32.991,0,60.244,26.775,60.244,60.244s-26.775,60.244-60.244,60.244
		s-59.766-27.253-59.766-60.244S158.738,44.944,191.728,44.944z"/>
	<path d="M191.728,210.375c57.854,0,105.188-47.334,105.188-105.188C296.916,47.334,249.582,0,191.728,0
		C133.875,0,86.541,47.334,86.541,105.188l-0.956,191.25h19.125v-132.44C123.834,191.729,155.869,210.375,191.728,210.375z
		 M191.728,19.125c47.335,0,86.062,38.728,86.062,86.062s-38.728,86.062-86.062,86.062c-47.334,0-86.062-38.728-86.062-86.062
		S144.394,19.125,191.728,19.125z"/>
	<rect x="76.022" y="306" width="38.25" height="9.562"/>
	<path d="M76.022,368.156c0,2.869,1.913,4.781,4.781,4.781h28.688c2.869,0,4.781-1.912,4.781-4.781s-1.913-4.781-4.781-4.781h-4.781
		l5.259-38.25H80.325l5.259,38.25h-4.781C77.935,363.375,76.022,365.287,76.022,368.156z"/>
</g>
<g>
</g>
<g>
</g>
<g>
</g>
<g>
</g>
<g>
</g>
<g>
</g>
<g>
</g>
<g>
</g>
<g>
</g>
<g>
</g>
<g>
</g>
<g>
</g>
<g>
</g>
<g>
</g>
<g>
</g>
</svg>
