<?xml version="1.0" encoding="iso-8859-1"?>
<!-- Generator: Adobe Illustrator 16.0.0, SVG Export Plug-In . SVG Version: 6.00 Build 0)  -->
<!DOCTYPE svg PUBLIC "-//W3C//DTD SVG 1.1//EN" "http://www.w3.org/Graphics/SVG/1.1/DTD/svg11.dtd">
<svg version="1.1" id="Capa_1" xmlns="http://www.w3.org/2000/svg" xmlns:xlink="http://www.w3.org/1999/xlink" x="0px" y="0px"
	 width="542.193px" height="542.193px" viewBox="0 0 542.193 542.193" style="enable-background:new 0 0 542.193 542.193;"
	 xml:space="preserve">
<g>
	<path d="M354.29,447.047c-0.479-5.26-0.479-10.041-0.479-15.777l0,0l0,0c0-20.082,0-255.797,0-281.138l0,0
		c0-43.509-14.344-71.241-43.031-83.672c-6.693,6.694-15.777,10.997-25.34,10.997h-38.728c-8.128,0-16.256-3.347-22.472-8.606
		c-6.694,3.347-12.432,7.65-17.691,12.909c-19.603,21.038-18.647,48.769-18.647,49.247v296.437c0,66.459-17.69,99.928-29.166,114.75
		c26.775-4.303,87.975-23.428,87.975-113.793c0-80.326,0.478-209.419,0.478-209.419s-0.956-13.866,4.781-21.038
		c3.825-4.781,9.562-7.172,16.734-7.172s12.91,2.391,16.734,7.172c5.26,7.172,4.781,21.994,4.781,21.994S290.7,359.072,290.7,428.4
		c0,45.422,17.689,78.412,53.072,98.494c14.82,8.127,29.164,12.43,39.684,14.82c-10.996-13.865-26.297-42.553-29.166-93.711
		C354.29,447.525,354.29,447.047,354.29,447.047z"/>
	<path d="M228.543,59.766c1.913,1.913,3.825,3.347,6.216,4.781c3.825,1.913,7.65,3.347,11.953,3.347h38.728
		c5.26,0,10.52-1.913,14.822-5.26c0.955-0.956,1.912-1.434,2.869-2.391c1.912-1.434,3.346-3.347,4.781-5.259
		c4.303-5.737,6.693-13.387,6.693-21.038C314.606,15.3,301.218,0,285.44,0h-38.728c-15.778,0-29.166,15.778-29.166,33.947
		c0,9.084,3.347,17.691,8.606,23.906C227.109,58.332,227.587,59.288,228.543,59.766z"/>
</g>
<g>
</g>
<g>
</g>
<g>
</g>
<g>
</g>
<g>
</g>
<g>
</g>
<g>
</g>
<g>
</g>
<g>
</g>
<g>
</g>
<g>
</g>
<g>
</g>
<g>
</g>
<g>
</g>
<g>
</g>
</svg>
