<svg xmlns="http://www.w3.org/2000/svg" width="600" height="600" xml:space="preserve"><path fill="#293C54" d="M560.092 75.67H39.909c-9.957 0-18.028 8.102-18.028 18.095v82.829H578.12V93.766c-.001-9.994-8.071-18.096-18.028-18.096z"/><path fill="#CDCECD" d="M21.881 176.594H578.12V524.33H21.881z"/><g fill="#C13531"><path d="M170.443 229.498h65.325v58.921h-65.325zM267.336 229.498h65.327v58.921h-65.327zM364.231 229.498h65.324v58.921h-65.324zM461.123 229.498h65.322v58.921h-65.322zM73.55 321.001h65.325v58.927H73.55zM170.445 321.001h65.325v58.927h-65.325zM267.338 321.001h65.325v58.927h-65.325zM364.231 321.001h65.326v58.927h-65.326zM461.125 321.001h65.324v58.927h-65.324zM73.552 412.502h65.325v58.926H73.552zM170.447 412.502h65.325v58.926h-65.325zM267.341 412.502h65.324v58.926h-65.324zM364.235 412.502h65.324v58.926h-65.324z"/></g></svg>