<svg xmlns="http://www.w3.org/2000/svg" width="600" height="600" xml:space="preserve"><path fill="#CECECE" d="M20.911 258.82h558.173v83.545H20.911z"/><path fill="#293C54" d="M111.123 258.819h374.479v83.544H111.123z"/><path fill="#C23531" d="M133.018 349.399c0 .895-.807 1.615-1.806 1.615H91.055c-1.009 0-1.826-.721-1.826-1.615v-97.613c0-.896.817-1.615 1.826-1.615h40.157c.999 0 1.806.719 1.806 1.615v97.613zM510.757 349.399c0 .895-.809 1.615-1.807 1.615h-40.155c-1.01 0-1.817-.721-1.817-1.615v-97.613c0-.896.808-1.615 1.817-1.615h40.155c.998 0 1.807.719 1.807 1.615v97.613z"/></svg>