<svg xmlns="http://www.w3.org/2000/svg" width="600" height="600" xml:space="preserve"><path opacity=".2" fill="#C13531" d="M556.85 364.333c0 74.905-60.805 135.62-135.754 135.62-75.006 0-135.742-60.715-135.742-135.62 0-74.929 60.734-135.653 135.742-135.653 74.949 0 135.754 60.724 135.754 135.653z"/><path opacity=".4" fill="#C13531" d="M520.922 364.329c0 55.081-44.713 99.723-99.824 99.723-55.151 0-99.813-44.642-99.813-99.723 0-55.096 44.662-99.748 99.813-99.748 55.111 0 99.824 44.651 99.824 99.748z"/><path opacity=".55" fill="#C13531" d="M484.952 364.324c0 35.23-28.601 63.788-63.854 63.788-35.277 0-63.847-28.558-63.847-63.788 0-35.242 28.569-63.804 63.847-63.804 35.254.001 63.854 28.56 63.854 63.804z"/><path fill="#293C54" d="M451.855 363.32c0 16.969-13.774 30.726-30.755 30.726-16.991 0-30.751-13.755-30.751-30.726 0-16.974 13.76-30.731 30.751-30.731 16.981-.002 30.755 13.758 30.755 30.731z"/><path opacity=".2" fill="#C13531" d="M502.501 177.139c0 48.713-39.543 88.197-88.284 88.197-48.779 0-88.281-39.484-88.281-88.197 0-48.731 39.502-88.22 88.281-88.22 48.739 0 88.284 39.489 88.284 88.22z"/><path opacity=".4" fill="#C13531" d="M479.135 177.138c0 35.82-29.078 64.851-64.92 64.851-35.869 0-64.914-29.032-64.914-64.851 0-35.833 29.045-64.871 64.914-64.871 35.843-.001 64.92 29.037 64.92 64.871z"/><path opacity=".55" fill="#C13531" d="M455.74 177.132c0 22.914-18.599 41.484-41.523 41.484-22.94 0-41.521-18.57-41.521-41.484 0-22.918 18.582-41.492 41.521-41.492 22.925 0 41.523 18.574 41.523 41.492z"/><path fill="#293C54" d="M434.219 177.132c0 11.033-8.959 19.979-20.002 19.979-11.051 0-19.998-8.946-19.998-19.979 0-11.041 8.947-19.988 19.998-19.988 11.04-.001 20.002 8.947 20.002 19.988z"/><path opacity=".2" fill="#C13531" d="M177.369 401.452c0 47.887-38.873 86.7-86.784 86.7-47.949 0-86.78-38.813-86.78-86.7 0-47.901 38.831-86.721 86.78-86.721 47.911 0 86.784 38.82 86.784 86.721z"/><path opacity=".4" fill="#C13531" d="M154.401 401.451c0 35.21-28.586 63.751-63.816 63.751-35.258 0-63.811-28.541-63.811-63.751 0-35.224 28.553-63.77 63.811-63.77 35.231.001 63.816 28.547 63.816 63.77z"/><path opacity=".55" fill="#C13531" d="M131.406 401.447c0 22.523-18.284 40.777-40.82 40.777-22.552 0-40.815-18.254-40.815-40.777 0-22.531 18.264-40.787 40.815-40.787 22.536 0 40.82 18.256 40.82 40.787z"/><path fill="#293C54" d="M110.248 401.447c0 10.844-8.807 19.639-19.661 19.639-10.863 0-19.66-8.795-19.66-19.639 0-10.855 8.797-19.649 19.66-19.649 10.854 0 19.661 8.794 19.661 19.649z"/><path opacity=".2" fill="#C13531" d="M293.769 485.385c0 31.293-25.402 56.656-56.714 56.656-31.334 0-56.708-25.363-56.708-56.656 0-31.303 25.374-56.671 56.708-56.671 31.311 0 56.714 25.368 56.714 56.671z"/><path opacity=".4" fill="#C13531" d="M278.759 485.383c0 23.011-18.68 41.662-41.704 41.662-23.041 0-41.699-18.65-41.699-41.662 0-23.017 18.658-41.671 41.699-41.671 23.024-.001 41.704 18.654 41.704 41.671z"/><path opacity=".55" fill="#C13531" d="M263.728 485.381c0 14.719-11.945 26.649-26.673 26.649-14.736 0-26.672-11.931-26.672-26.649 0-14.722 11.936-26.654 26.672-26.654 14.729 0 26.673 11.932 26.673 26.654z"/><path fill="#293C54" d="M249.906 485.381c0 7.087-5.758 12.834-12.85 12.834-7.099 0-12.847-5.747-12.847-12.834 0-7.094 5.749-12.841 12.847-12.841 7.092 0 12.85 5.747 12.85 12.841z"/><path opacity=".2" fill="#C13531" d="M596.195 101.311c0 31.293-25.403 56.656-56.714 56.656-31.335 0-56.708-25.363-56.708-56.656 0-31.304 25.373-56.671 56.708-56.671 31.311 0 56.714 25.367 56.714 56.671z"/><path opacity=".4" fill="#C13531" d="M581.186 101.309c0 23.01-18.68 41.662-41.704 41.662-23.042 0-41.7-18.651-41.7-41.662 0-23.017 18.658-41.671 41.7-41.671 23.024-.001 41.704 18.654 41.704 41.671z"/><path opacity=".55" fill="#C13531" d="M566.153 101.306c0 14.718-11.944 26.649-26.672 26.649-14.737 0-26.673-11.931-26.673-26.649 0-14.722 11.936-26.655 26.673-26.655 14.73 0 26.672 11.933 26.672 26.655z"/><path fill="#293C54" d="M552.332 101.306c0 7.087-5.758 12.834-12.85 12.834-7.099 0-12.847-5.747-12.847-12.834 0-7.093 5.748-12.84 12.847-12.84 7.092 0 12.85 5.747 12.85 12.84z"/></svg>