<svg xmlns="http://www.w3.org/2000/svg" width="600" height="600" xml:space="preserve"><path opacity=".5" fill="#CECECE" d="M83.504 362.661h447.31v145.92H83.504zM83.504 68.739h446.025v145.914H83.504z"/><path fill="#C23531" d="M235.682 68.739h4.175v448.147h-4.175zM383.522 68.739h4.171v448.185h-4.171z"/><path fill="#293C54" d="M21.722 508.581h509.773v8.343H21.722zM531.495 512.752v-34.246l23.732 17.125 23.722 17.121-23.722 17.125-23.732 17.115z"/><path fill="#C23531" d="M83.504 360.573h447.31v4.174H83.504zM83.504 212.545h446.025v4.171H83.504z"/><path fill="#293C54" d="M83.504 68.739h8.336v509.954h-8.336zM87.673 68.739H53.427l17.13-23.727 17.116-23.727 17.128 23.727 17.12 23.727z"/></svg>