<svg xmlns="http://www.w3.org/2000/svg" width="600" height="600" xml:space="preserve"><path fill="#CDCECD" d="M596.762 409.176c-18.291 123.622-90.432 62.955-165.688 64.391-56.816 1.082-136.723 20.07-186.868 39.789-67.564 26.582-145.549 54.075-192.684 18.899-47.153-35.199-77.88-110.403-19.786-186.437 58.092-76.005 82.109-70.346 80.252-125.901-1.84-55.562-14.764-134.736 66.691-158.399 95.654-27.794 134.709 122.839 203.461 115.016 203.799-23.167 228.698 137.401 214.622 232.642z"/><path fill="#C13531" d="M185.56 118.166c-40.578 7.465-12.549 94.996-31.76 158.246-23.473 77.214-94.615 108.272-93.865 157.956 1.373 89.891 134.211 68.15 161.834 23.896 30.465-48.717 4.24-100.027 14.426-144.896 10.189-44.862 52.025-75.1 44.91-116.199-7.533-43.645-44.316-88.397-95.545-79.003z"/><path fill="#293C54" d="M430.916 230.427c122.926-9.415 175.064 215.912 56.416 186.993-94-22.879-154.617 50.549-183.902 6.617-23.526-35.242-22.129-72.92-16.991-96.802 10.865-50.84 55.409-90.024 144.477-96.808z"/></svg>