<svg xmlns="http://www.w3.org/2000/svg" width="600" height="600" xml:space="preserve"><path fill="none" stroke="#293C54" stroke-width="10" stroke-miterlimit="10" d="M64.807 376.145h222.878"/><path fill="none" stroke="#C23531" stroke-width="10" stroke-miterlimit="10" d="M64.06 207.519h222.878"/><path fill="#FFF" stroke="#C23531" stroke-width="10" stroke-miterlimit="10" d="M223.426 207.513c0 26.448-21.457 47.929-47.919 47.929-26.47 0-47.935-21.48-47.935-47.929 0-26.451 21.464-47.916 47.935-47.916 26.462 0 47.919 21.465 47.919 47.916z"/><path fill="#FFF" stroke="#293C54" stroke-width="10" stroke-miterlimit="10" d="M175.501 421.211H123.46l26.02-45.066 26.021-45.07 26.019 45.07 26.019 45.066z"/><g fill="#C23531"><path d="M418.094 185.051v42.854h-5.733v-1.72h-29.62v1.72h-5.447v-42.854h40.8zm-35.354 5.112v16.005c3.439-.669 7.022-1.673 10.271-2.962-1.242-.908-2.389-1.816-3.393-2.771a28.455 28.455 0 0 1-2.914 2.15c-.86-.908-2.676-2.58-3.727-3.345 3.869-2.197 7.74-5.542 10.08-9.077H382.74zm29.62 31.006v-14.523c-.956 1.099-2.007 2.628-2.532 3.631-4.156-.86-8.217-2.293-11.896-4.204-1.242.669-2.531 1.242-3.822 1.815 3.775.812 8.266 2.197 10.941 3.392l-2.293 3.488c-2.819-1.29-7.883-3.01-11.896-3.87l1.768-2.437a61.798 61.798 0 0 1-7.835 2.437c-.382-1.099-1.242-2.724-2.054-3.87v14.142h22.598c-4.778-1.72-12.518-3.439-18.824-4.156l2.58-3.679c6.449.669 14.523 2.389 19.396 4.061l-2.341 3.774h6.21zm-19.11-23.171a20.663 20.663 0 0 0 4.443 3.01c1.815-.859 3.344-1.911 4.729-3.01h-9.172zm19.11-7.835h-18.585l4.061 1.433a30.939 30.939 0 0 1-1.576 2.198h10.415l.812-.191 3.2 1.911c-1.91 2.962-4.729 5.542-7.979 7.787 3.01 1.146 6.355 2.007 9.651 2.628v-15.766zM435.248 184.765c-.812 2.866-1.768 5.78-2.914 8.647v34.35h-5.256v-23.84c-.669 1.004-1.338 2.007-2.007 2.867-.382-1.386-1.624-4.683-2.483-6.163 3.2-4.3 5.971-10.846 7.596-17.343l5.064 1.482zm.478.669h16.243v5.303h-7.453c-.334 1.815-.668 3.535-1.099 5.255h4.108l.956-.143 3.249.764c-1.338 15.098-5.59 25.369-13.187 31.149-.765-1.337-2.293-3.296-3.487-4.348 2.962-1.958 5.351-5.063 7.262-8.981-1.242-1.194-2.771-2.532-3.918-3.535l3.01-3.87c.86.621 1.863 1.481 2.867 2.294.812-2.484 1.434-5.304 1.91-8.17h-4.203c-1.386 4.252-3.154 8.026-5.208 10.893-.86-.907-2.962-2.771-4.108-3.631 3.201-4.204 5.303-10.702 6.497-17.677h-3.439v-5.303zm22.597 30.241h-5.017v-27.423h5.017v27.423zm7.835-32.01v37.266c0 3.152-.573 4.586-2.389 5.446-1.768.955-4.635 1.099-8.6 1.099-.191-1.529-1.051-3.966-1.768-5.542 2.771.144 5.542.096 6.449.096.812-.048 1.1-.287 1.1-1.099v-37.266h5.208zM515.227 202.011v6.163h-43.953v-6.163h43.953z"/></g><g fill="#293C54"><path d="M418.094 356.262v42.854h-5.733v-1.72h-29.62v1.72h-5.447v-42.854h40.8zm-35.354 5.112v16.005c3.439-.669 7.022-1.673 10.271-2.962-1.242-.908-2.389-1.816-3.393-2.771a28.455 28.455 0 0 1-2.914 2.15c-.86-.908-2.676-2.58-3.727-3.345 3.869-2.197 7.74-5.542 10.08-9.077H382.74zm29.62 31.006v-14.523c-.956 1.099-2.007 2.628-2.532 3.631-4.156-.86-8.217-2.293-11.896-4.204-1.242.669-2.531 1.242-3.822 1.815 3.775.812 8.266 2.197 10.941 3.392l-2.293 3.488c-2.819-1.29-7.883-3.01-11.896-3.87l1.768-2.437a61.798 61.798 0 0 1-7.835 2.437c-.382-1.099-1.242-2.724-2.054-3.87v14.142h22.598c-4.778-1.72-12.518-3.439-18.824-4.156l2.58-3.679c6.449.669 14.523 2.389 19.396 4.061l-2.341 3.774h6.21zm-19.11-23.171a20.663 20.663 0 0 0 4.443 3.01c1.815-.859 3.344-1.911 4.729-3.01h-9.172zm19.11-7.835h-18.585l4.061 1.433a30.939 30.939 0 0 1-1.576 2.198h10.415l.812-.191 3.2 1.911c-1.91 2.962-4.729 5.542-7.979 7.787 3.01 1.146 6.355 2.007 9.651 2.628v-15.766zM435.248 355.976c-.812 2.866-1.768 5.78-2.914 8.647v34.35h-5.256v-23.84c-.669 1.004-1.338 2.007-2.007 2.867-.382-1.386-1.624-4.683-2.483-6.163 3.2-4.3 5.971-10.846 7.596-17.343l5.064 1.482zm.478.669h16.243v5.303h-7.453c-.334 1.815-.668 3.535-1.099 5.255h4.108l.956-.143 3.249.764c-1.338 15.098-5.59 25.369-13.187 31.149-.765-1.337-2.293-3.296-3.487-4.348 2.962-1.958 5.351-5.063 7.262-8.981-1.242-1.194-2.771-2.532-3.918-3.535l3.01-3.87c.86.621 1.863 1.481 2.867 2.294.812-2.484 1.434-5.304 1.91-8.17h-4.203c-1.386 4.252-3.154 8.026-5.208 10.893-.86-.907-2.962-2.771-4.108-3.631 3.201-4.204 5.303-10.702 6.497-17.677h-3.439v-5.303zm22.597 30.241h-5.017v-27.423h5.017v27.423zm7.835-32.01v37.266c0 3.152-.573 4.586-2.389 5.446-1.768.955-4.635 1.099-8.6 1.099-.191-1.529-1.051-3.966-1.768-5.542 2.771.144 5.542.096 6.449.096.812-.048 1.1-.287 1.1-1.099v-37.266h5.208zM514.414 388.558v6.546H471.99v-6.546h42.424zm-3.965-27.567v6.259h-34.494v-6.259h34.494z"/></g></svg>