<svg xmlns="http://www.w3.org/2000/svg" width="600" height="600" xml:space="preserve"><path fill="#C13531" d="M10.57 459.24c-2.211 0-4.466-.686-6.386-2.122-4.607-3.594-5.567-10.194-1.981-14.884l150.523-197.91 145.317 91.23 144.009-162.988 151.907 71.574c5.281 2.487 7.512 8.824 5.022 14.111-2.451 5.311-8.758 7.592-14.064 5.066L447.366 198.47 301.989 363l-144.085-90.434L19.032 455.073c-2.133 2.735-5.295 4.167-8.462 4.167z"/><path fill="#293C54" d="M588.417 600H0V10.622C0 4.73 4.746 0 10.57 0c5.845 0 10.597 4.73 10.597 10.621V578.84h567.25c5.827 0 10.565 4.751 10.565 10.598 0 5.833-4.738 10.562-10.565 10.562z"/></svg>