<svg xmlns="http://www.w3.org/2000/svg" width="600" height="600" xml:space="preserve"><path fill="#293C54" d="M124.263 435.037c0 34.291-27.819 62.09-62.144 62.09S-.022 469.328-.022 435.037c0-34.289 27.815-62.075 62.141-62.075 34.324 0 62.144 27.786 62.144 62.075z"/><path fill="#C13531" d="M280.971 521.801c0 21.254-17.244 38.482-38.504 38.482-21.273 0-38.514-17.229-38.514-38.482 0-21.24 17.24-38.473 38.514-38.473 21.26 0 38.504 17.233 38.504 38.473z"/><path fill="#293C54" d="M544.068 400.352c0 55.905-45.382 101.219-101.32 101.219-55.98 0-101.312-45.313-101.312-101.219 0-55.924 45.332-101.246 101.312-101.246 55.939 0 101.32 45.322 101.32 101.246z"/><path fill="#C13531" d="M490.626 151.934c0 32.732-26.534 59.243-59.282 59.243-32.744 0-59.279-26.511-59.279-59.243 0-32.702 26.535-59.226 59.279-59.226 32.748 0 59.282 26.524 59.282 59.226zM599.979 78.651c0 21.259-17.244 38.49-38.518 38.49-21.251 0-38.506-17.23-38.506-38.49 0-21.235 17.255-38.456 38.506-38.456 21.273 0 38.518 17.221 38.518 38.456z"/></svg>