<svg xmlns="http://www.w3.org/2000/svg" width="600" height="600" xml:space="preserve"><path fill="none" stroke="#2E4454" stroke-width="10" stroke-miterlimit="10" d="M31.3 346.2h538.2M36.3 343.6v22.6M168.4 343.6v22.6M300.4 343.6v22.6M432.5 343.6v22.6M564.6 343.6v22.6"/><path opacity=".4" fill="none" stroke="#2E4454" stroke-width="10" stroke-miterlimit="10" d="M36.3 344.4v-19.7M168.4 344.4v-19.7M300.4 344.4v-19.7M432.5 344.4v-19.7M564.6 344.4v-19.7"/><path opacity=".6" fill="#AF352F" d="M128.5 290.4c0 20.9-17 37.7-37.7 37.7-20.9 0-37.7-17-37.7-37.7 0-20.9 17-37.7 37.7-37.7 20.8-.1 37.7 16.8 37.7 37.7zM218.4 231.8c32.4 0 58.6 26.2 58.6 58.6 0 32.4-26.2 58.6-58.6 58.6-32.4 0-58.6-26.2-58.6-58.6 0-32.3 26.2-58.6 58.6-58.6z"/><path opacity=".6" fill="#AF352F" d="M307.1 290.4c0 17-13.7 30.7-30.7 30.7s-30.7-13.7-30.7-30.7 13.7-30.7 30.7-30.7c16.9-.1 30.7 13.8 30.7 30.7z"/><circle opacity=".6" fill="#AF352F" cx="497.3" cy="290.4" r="38.9"/><circle opacity=".6" fill="#AF352F" cx="389.7" cy="290.4" r="22.8"/><path opacity=".4" fill="none" stroke="#2E4454" stroke-width="10" stroke-miterlimit="10" d="M36.3 302.2v-19.8M168.4 302.2v-19.8M300.4 302.2v-19.8M432.5 302.2v-19.8M564.6 302.2v-19.8M36.3 259.9v-19.7M168.4 259.9v-19.7M300.4 259.9v-19.7M432.5 259.9v-19.7M564.6 259.9v-19.7"/></svg>