<svg xmlns="http://www.w3.org/2000/svg" width="600" height="600" xml:space="preserve"><path fill="#B73630" d="M23.18 166.08h556.088v151.297H23.18z"/><path fill="#CDCECD" d="M91.97 349.43h418.508v79.84H91.97z"/><g fill="#293C54"><path d="M164.03 242.68c0-21.384 12.542-34.376 29.323-34.376 8.03 0 14.346 3.97 18.135 8.211l-4.511 5.413c-3.428-3.699-7.85-6.315-13.534-6.315-12.542 0-20.842 10.285-20.842 26.797 0 16.691 7.939 27.157 20.571 27.157 6.315 0 11.098-2.797 15.338-7.398l4.602 5.233c-5.233 6.045-11.729 9.474-20.3 9.474-16.421-.001-28.782-12.723-28.782-34.196zM225.385 209.567h8.391v27.699h30.857v-27.699h8.301v66.135h-8.301v-31.218h-30.857v31.218h-8.391v-66.135zM321.389 255.491h-24.18l-6.406 20.211h-8.481l22.466-66.135h9.293l22.467 66.135h-8.842l-6.317-20.211zm-2.075-6.676-3.158-10.105c-2.437-7.489-4.512-14.707-6.678-22.376h-.36c-2.075 7.76-4.24 14.887-6.587 22.376l-3.248 10.105h20.031zM382.203 275.702l-16.06-28.06h-11.909v28.06h-8.392v-66.135h20.752c13.443 0 23.098 4.781 23.098 18.586 0 10.286-5.955 16.421-14.978 18.587l16.963 28.962h-9.474zm-27.969-34.827h11.098c10.375 0 16.06-4.15 16.06-12.722 0-8.752-5.685-11.819-16.06-11.819h-11.098v24.541zM415.59 216.604h-20.03v-7.037h48.45v7.037h-20.03v59.098h-8.391v-59.098z"/></g></svg>