<svg xmlns="http://www.w3.org/2000/svg" width="600" height="600" xml:space="preserve"><g fill="none" stroke="#293C54" stroke-width="10" stroke-miterlimit="10"><path d="m42.4 412.8-14.9 7.4 54.7 27.3 53.1-27.3-14.5-7.4-38.6 19.8z"/><path d="m120.8 397.8-14.5 7.5-24.1 12.4-24.8-12.4-15-7.5-14.9 7.5 14.9 7.5 39.8 19.8 38.6-19.8 14.5-7.5z"/><path d="m120.8 382.9-14.5 7.5-14.5 7.4-9.6 5-9.8-5-15-7.4-15-7.5-14.9 7.5 14.9 7.4 15 7.5 24.8 12.4 24.1-12.4 14.5-7.5 14.5-7.4z"/><path d="m82.2 348-54.7 27.3 14.9 7.5 15 7.5 15 7.4 9.8 4.9 9.6-4.9 14.5-7.4 14.5-7.5 14.5-7.5z"/></g><g fill="none" stroke="#C13531" stroke-width="10" stroke-miterlimit="10"><path d="M188.3 347.8h40.9v40.9h-40.9zM246.9 347.8h40.9v40.9h-40.9zM188.3 406.8h40.9v40.9h-40.9zM246.9 406.8h40.9v40.9h-40.9z"/></g><g fill="none" stroke="#293C54" stroke-width="10" stroke-miterlimit="10"><path d="M501.7 206.2h27.8M501.7 206.2h27.8M551.9 228.2h-50.2M490.9 178.8v100.5l71 .1v-77.6l-22.7-23z"/><path d="M539.2 179.1V202h22.7M551.9 250.1h-50.2"/></g><g fill="none" stroke="#C13531" stroke-width="10" stroke-miterlimit="10"><path d="M80.6 258v-81M36.5 218.2l44.2 40.5 45.6-39.6"/><path d="M36.4 255.3v25.9h88.4v-25.9"/></g><g fill="none" stroke="#C13531" stroke-width="10" stroke-miterlimit="10"><path d="M480.2 391.4H493l16.6-39.6 13.3 68.3 17.5-35.3 5.4 22.9h26.7M480.2 443.7h92.3"/></g><g fill="none" stroke="#293C54" stroke-width="10" stroke-miterlimit="10"><path d="M268.6 209.2h17.7v-18.4"/><path d="M187.9 230.2c-.8-25.9 18.8-48.2 44.4-51.1 24.7-2.8 45.5 12.3 53 32.3M207.5 249.1h-17.7v18.4"/><path d="M288.2 228c.8 25.9-18.8 48.2-44.4 51.1-24.7 2.8-45.5-12.3-53-32.3"/></g><g fill="none" stroke="#293C54" stroke-width="10" stroke-miterlimit="10"><path d="M341 383h18v45.6h-18zM373.8 366.3h18v62.3h-18zM406.7 347.8h18v80.8h-18zM334.7 447.7H431"/></g><g fill="none" stroke="#C13531" stroke-width="10" stroke-miterlimit="10"><path d="M330.7 201.2h48.4M354.9 225.4V177M388.4 201.2h46.5v80h-80v-46.5"/></g></svg>