<svg viewBox="0 0 64 64" xmlns="http://www.w3.org/2000/svg"><defs><linearGradient id="a" x1="3" x2="61" gradientUnits="userSpaceOnUse"><stop stop-color="#fff" stop-opacity="0" offset="0"/><stop offset=".2"/><stop offset=".8"/><stop stop-color="#fff" stop-opacity="0" offset="1"/></linearGradient></defs><path d="M3 46h58v1H3z" fill="url(#a)"/><path d="M12.5 59.5V14.31L32 4.56l19.5 9.75V59.5z" fill="#f0f0f0"/><path d="m32 5.12 19 9.5V59H13V14.62l19-9.5M32 4 12 14v46h40V14L32 4z" fill="#c8c8c8"/><path d="M12.5 33.5h39v13h-39z" fill="#f0f0f0"/><path d="M51 34v12H13V34h38m1-1H12v14h40V33z" fill="#c8c8c8"/><path d="M12.5 20.5h39v13h-39z" fill="#f0f0f0"/><path d="M51 21v12H13V21h38m1-1H12v14h40V20z" fill="#c8c8c8"/><path d="M17.43 23.43h5.13v6.13h-5.13z" fill="#f0f0f0"/><path d="M22.13 23.87v5.27h-4.27v-5.27h4.27M23 23h-6v7h6v-7z" fill="#c8c8c8"/><path d="M22.43 23.43h5.13v6.13h-5.13z" fill="#f0f0f0"/><path d="M27.13 23.87v5.27h-4.27v-5.27h4.27M28 23h-6v7h6v-7z" fill="#c8c8c8"/><path d="M40.5 36.5h6v10h-6z" fill="#f0f0f0"/><path d="M46 37v9h-5v-9h5m1-1h-7v11h7V36z" fill="#c8c8c8"/><path d="M31.43 23.43h5.13v6.13h-5.13z" fill="#f0f0f0"/><path d="M36.13 23.87v5.27h-4.27v-5.27h4.27M37 23h-6v7h6v-7z" fill="#c8c8c8"/><path d="M17.43 36.43h5.13v6.13h-5.13z" fill="#f0f0f0"/><path d="M22.13 36.87v5.27h-4.27v-5.27h4.27M23 36h-6v7h6v-7z" fill="#c8c8c8"/><path d="M22.43 36.43h5.13v6.13h-5.13z" fill="#f0f0f0"/><path d="M27.13 36.87v5.27h-4.27v-5.27h4.27M28 36h-6v7h6v-7z" fill="#c8c8c8"/><path d="M31.43 36.43h5.13v6.13h-5.13z" fill="#f0f0f0"/><path d="M36.13 36.87v5.27h-4.27v-5.27h4.27M37 36h-6v7h6v-7z" fill="#c8c8c8"/><path d="M40.47 23.47h6.06v6.06h-6.06z" fill="#f0f0f0"/><g fill="#c8c8c8"><path d="M46.06 23.94v5.13h-5.13v-5.13h5.13M47 23h-7v7h7v-7zM44 41h1v1h-1z"/></g><path d="M12.5 20.5v-6.19L32 4.56l19.5 9.75v6.19z" fill="#ffccd3"/><path d="m32 5.12 19 9.5V20H13v-5.38l19-9.5M32 4 12 14v7h40v-7L32 4z" fill="#f66"/><path d="m58 17.5-26-13-26 13" fill="none" stroke="#2e7de5" stroke-miterlimit="10" stroke-width="1.5"/><path d="M25.5 12.5h5v5h-5z" fill="#ffccd3"/><path d="M30 13v4h-4v-4h4m1-1h-6v6h6v-6z" fill="#f66"/><path d="M33.5 12.5h5v5h-5z" fill="#ffccd3"/><path d="M38 13v4h-4v-4h4m1-1h-6v6h6v-6z" fill="#f66"/></svg>