<svg viewBox="0 0 64 64" xmlns="http://www.w3.org/2000/svg"><path d="M32 17.5c-4.7 0-8.5-3.8-8.5-8.5S27.3.5 32 .5s8.5 3.8 8.5 8.5-3.8 8.5-8.5 8.5" fill="#ba7750"/><path d="M32 1c4.4 0 8 3.6 8 8s-3.6 8-8 8-8-3.6-8-8 3.6-8 8-8m0-1c-5 0-9 4-9 9s4 9 9 9 9-4 9-9-4-9-9-9z" fill="#a35c3d"/><path d="M27.6 63.5c-.7 0-1.3-.3-1.8-.7l-8.5-8.5c-2.1-2.1-2.1-5.6 0-7.8l5.3-5.3 5.7 5.7-5.3 5.3 6.7 6.7c.5.5.7 1.1.7 1.8s-.3 1.3-.7 1.8l-.4.4c-.4.3-1 .6-1.7.6" fill="#ba7750"/><path d="m22.7 41.9 4.9 4.9-4.6 4.7-.7.7.7.7 6.4 6.4c.8.8.8 2 0 2.8l-.4.3c-.4.4-.9.6-1.4.6s-1-.2-1.4-.6L19.8 56l-2.1-2.1c-1.9-1.9-1.9-5.1 0-7.1l5-4.9m0-1.4L17 46.2c-2.3 2.3-2.3 6.1 0 8.5l2.1 2.1 6.4 6.4c.6.6 1.4.9 2.1.9s1.5-.3 2.1-.9l.4-.4c1.2-1.2 1.2-3.1 0-4.2l-6.4-6.4 5.3-5.3-6.3-6.4z" fill="#a35c3d"/><path d="M36.4 63.5c-.7 0-1.3-.3-1.8-.7l-.4-.4c-.5-.5-.7-1.1-.7-1.8s.3-1.3.7-1.8l6.7-6.7-5.3-5.3 5.7-5.7 5.3 5.3c2.1 2.1 2.1 5.6 0 7.8l-8.5 8.5c-.4.5-1.1.8-1.7.8" fill="#ba7750"/><path d="m41.3 41.9 4.9 4.9c1.9 1.9 1.9 5.1 0 7.1l-8.5 8.5c-.4.4-.9.6-1.4.6s-1-.2-1.4-.6l-.4-.4c-.8-.8-.8-2 0-2.8l7.1-7.1-5.2-5.2 4.9-5m0-1.4L35 46.9l5.3 5.3-6.4 6.4c-1.2 1.2-1.2 3.1 0 4.2l.4.4c.6.6 1.4.9 2.1.9s1.5-.3 2.1-.9l8.5-8.5c2.3-2.3 2.3-6.1 0-8.5l-5.7-5.7z" fill="#a35c3d"/><path d="M51.2 38c-.7 0-1.3-.3-1.8-.7l-9-9v8h-17v-8l-9 9c-.5.5-1.1.7-1.8.7s-1.3-.3-1.8-.7c-1-1-1-2.6 0-3.5L23.7 21c.5-.5 1.1-.7 1.8-.7H38.4c.7 0 1.4.3 1.8.7L53 33.7c1 1 1 2.6 0 3.5-.5.5-1.1.8-1.8.8" fill="#ba7750"/><path d="M38.3 20.8h.2c.5 0 1 .2 1.4.6l12.7 12.7c.8.8.8 2 0 2.8-.4.4-.9.6-1.4.6s-1-.2-1.4-.6l-8.1-8.1-1.7-1.7v8.7H24v-8.7l-1.7 1.7-8.1 8.1c-.4.4-.9.6-1.4.6s-1-.2-1.4-.6c-.8-.8-.8-2 0-2.8l12.7-12.7c.4-.4.9-.6 1.4-.6H38.3m0-1H25.5c-.8 0-1.5.3-2.1.9L10.6 33.4c-1.2 1.2-1.2 3.1 0 4.2.6.6 1.4.9 2.1.9s1.5-.3 2.1-.9l8.1-8.1v7.3h18v-7.3l8.1 8.1c.6.6 1.4.9 2.1.9s1.5-.3 2.1-.9c1.2-1.2 1.2-3.1 0-4.2L40.6 20.6c-.6-.6-1.4-.9-2.1-.9 0 .1-.1.1-.2.1z" fill="#a35c3d"/><path d="m23 36.8-.3 3.7 6.3 6.4h6l6.3-6.4-.3-3.7z" fill="#fff" stroke="#e8e8e8" stroke-linecap="round" stroke-linejoin="round" stroke-miterlimit="10"/></svg>