<svg viewBox="0 0 64 64" xmlns="http://www.w3.org/2000/svg"><path d="M57 39.5c-.3 0-.5-.2-.5-.5V25c0-.3.2-.5.5-.5h5c.8 0 1.5.7 1.5 1.5v12c0 .8-.7 1.5-1.5 1.5h-5" fill="#bebec8"/><path d="M62 25c.6 0 1 .4 1 1v12c0 .6-.4 1-1 1h-5V25h5m0-1h-5c-.6 0-1 .4-1 1v14c0 .6.4 1 1 1h5c1.1 0 2-.9 2-2V26c0-1.1-.9-2-2-2z" fill="#34383f"/><path d="M3 46.5C1.6 46.5.5 45.4.5 44V20c0-1.4 1.1-2.5 2.5-2.5h51c1.4 0 2.5 1.1 2.5 2.5v24c0 1.4-1.1 2.5-2.5 2.5H3" fill="#f0f0f0"/><path d="M54 18c1.1 0 2 .9 2 2v24c0 1.1-.9 2-2 2H3c-1.1 0-2-.9-2-2V20c0-1.1.9-2 2-2h51m0-1H3c-1.7 0-3 1.3-3 3v24c0 1.7 1.3 3 3 3h51c1.7 0 3-1.3 3-3V20c0-1.7-1.3-3-3-3z" fill="#34383f"/><path d="M20 46H3c-1.1 0-2-.9-2-2V20c0-1.1.9-2 2-2h17v28" fill="#ffd200"/><path d="M19 18h1v28h-1z" fill="#e5b900"/></svg>