<svg viewBox="0 0 64 64" xmlns="http://www.w3.org/2000/svg"><defs><linearGradient id="a" x1="19.71" x2="11.144" y1="25.856" y2="34.421" gradientUnits="userSpaceOnUse"><stop stop-color="#fff" offset="0"/><stop stop-color="#c8c8c8" offset="1"/></linearGradient><linearGradient id="d" x1="-14.724" x2="-7.34" gradientTransform="matrix(1.2374 .212 -.1689 .9856 37.772 29.098)" gradientUnits="userSpaceOnUse"><stop stop-color="#a10012" offset="0"/><stop stop-color="#7c0009" offset="1"/></linearGradient><linearGradient id="c" x1="18" x2="58" gradientUnits="userSpaceOnUse"><stop stop-color="#880012" offset="0"/><stop stop-color="#7c000d" offset=".195"/><stop stop-color="#630004" offset=".696"/><stop stop-color="#5a0000" offset="1"/></linearGradient><linearGradient id="b" x2="0" y1="24.75" y2="46" gradientUnits="userSpaceOnUse"><stop stop-color="#e9002d" offset="0"/><stop stop-color="#b2001e" offset=".336"/><stop stop-color="#890012" offset=".63"/><stop stop-color="#6f000c" offset=".861"/><stop stop-color="#660009" offset="1"/></linearGradient></defs><path d="M58.5 25.5h5v24h-5z" fill="#845340"/><path d="M63 26v23h-4V26h4m1-1h-6v25h6V25z" fill="#663629"/><path d="M20.75 36.92c-.5 0-.98-.11-1.43-.33L7.94 30.97A3.221 3.221 0 0 1 6.3 29.1c-.28-.82-.22-1.71.16-2.48l.71-1.45a3.277 3.277 0 0 1 4.36-1.48l11.38 5.61c.78.38 1.36 1.05 1.64 1.87.28.83.22 1.71-.16 2.48l-.71 1.45a3.286 3.286 0 0 1-2.93 1.82" fill="url(#a)"/><path d="M10.1 23.11v.5c.46 0 .9.1 1.32.31l11.39 5.61c.72.35 1.25.97 1.51 1.73s.21 1.57-.15 2.29L23.46 35a3.016 3.016 0 0 1-2.7 1.67c-.46 0-.9-.1-1.32-.31L8.05 30.75a3.01 3.01 0 0 1-1.37-4.02l.71-1.45c.5-1.02 1.56-1.67 2.7-1.67v-.5m.01 0c-1.29 0-2.54.72-3.15 1.95l-.71 1.45a3.519 3.519 0 0 0 1.59 4.69l11.39 5.61c.49.24 1.02.36 1.54.36 1.29 0 2.54-.72 3.15-1.95l.71-1.45c.85-1.73.13-3.84-1.59-4.69l-11.39-5.61c-.5-.24-1.02-.36-1.54-.36" fill="#bebebe"/><path d="M5.5 32.5h53v10h-53z" fill="#845340"/><path d="M58 33v9H6v-9h52m1-1H5v11h54V32z" fill="#663629"/><path d="M54.25 31H40.5s-7.6-.1-12.5-2.5-10-3.75-10-3.75v17.5c0 2.07 1.68 3.75 3.75 3.75H53c2.76 0 5-2.24 5-5v-6.25c0-2.07-1.68-3.75-3.75-3.75" fill="url(#b)"/><path d="M19 26.08c1.79.55 5.24 1.69 8.56 3.32C32.6 31.86 40.17 32 40.5 32h13.75c1.52 0 2.75 1.23 2.75 2.75V41c0 2.21-1.79 4-4 4H21.75C20.23 45 19 43.77 19 42.25V26.08m-1-1.33v17.5c0 2.07 1.68 3.75 3.75 3.75H53c2.76 0 5-2.24 5-5v-6.25c0-2.07-1.68-3.75-3.75-3.75H40.5s-7.6-.1-12.5-2.5-10-3.75-10-3.75z" fill="url(#c)"/><path d="m27.79 32.78-9.14-1.57.21-1.21L28 31.57z" fill="url(#d)" opacity=".6"/><path d="M.5 14.5h5v35h-5z" fill="#845340"/><path d="M5 15v34H1V15h4m1-1H0v36h6V14z" fill="#663629"/></svg>