<svg viewBox="0 0 64 64" xmlns="http://www.w3.org/2000/svg"><path d="M15.5 15.5h33v33h-33z" fill="#f0f0f0"/><path d="M48 16v32H16V16h32m1-1H15v34h34V15z" fill="#646464"/><path d="M19.5 19.5h25v25h-25z" fill="#d9f1ff"/><path d="M44 20v24H20V20h24m1-1H19v26h26V19z" fill="#7aadcc"/><path d="M10.5 53.5v-43h43v43h-43m4-4h35v-35h-35v35" fill="#ececed"/><path d="M53 11v42H11V11h42M14 50h36V14H14v36m40-40H10v44h44V10zM15 49V15h34v34H15" fill="#9b9c9e"/><path d="M14.5 14.5h35v29h-35z" fill="#c8c8c8"/><path d="M49 15v28H15V15h34m1-1H14v30h36V14z" fill="#646464"/><path d="M15 15h34v1H15zM15 19h34v1H15zM15 23h34v1H15zM15 27h34v1H15zM15 31h34v1H15zM15 35h34v1H15zM15 39h34v1H15z" opacity=".25"/><path d="M14 14h36v4H14z" fill="#282828"/></svg>