<svg viewBox="0 0 64 64" xmlns="http://www.w3.org/2000/svg"><path d="M43 40.5c-.8 0-1.5-.7-1.5-1.5v-3.5h3V39c0 .8-.7 1.5-1.5 1.5" fill="#f4d0b1"/><path d="M44 36v3c0 .6-.4 1-1 1s-1-.4-1-1v-3h2m1-1h-4v4c0 1.1.9 2 2 2s2-.9 2-2v-4z" fill="#e5b795"/><path d="M27.5 64c-1.9 0-3.5-1.6-3.5-3.5V59h7v1.5c0 1.9-1.5 3.5-3.5 3.5M36.5 64c-1.9 0-3.5-1.6-3.5-3.5V59h7v1.5c0 1.9-1.5 3.5-3.5 3.5"/><path d="M21 40.5c-.8 0-1.5-.7-1.5-1.5v-3.5h3V39c0 .8-.6 1.5-1.5 1.5" fill="#f4d0b1"/><path d="M22 36v3c0 .6-.4 1-1 1s-1-.4-1-1v-3h2m1-1h-4v4c0 1.1.9 2 2 2s2-.9 2-2v-4z" fill="#e5b795"/><path d="M35.8 17h-7.5c-5.1 0-9.2 4.1-9.2 9.2v.6c0 .1-.1.3-.1.4V37h4v-9.2c0-1.2.4-2.2 1-3.1V37h16V24.6c.5.7.9 1.6 1 2.5V37h4V26.1c0-5-4.1-9.1-9.2-9.1" fill="#000c51"/><ellipse cx="32" cy="17" rx="3.5" ry="2" fill="#fff"/><path d="M32 16.5c-4.1 0-7.5-3.4-7.5-7.5s3.4-7.5 7.5-7.5 7.5 3.4 7.5 7.5-3.3 7.5-7.5 7.5" fill="#f4d0b1"/><path d="M32 2c3.9 0 7 3.1 7 7s-3.1 7-7 7-7-3.1-7-7 3.2-7 7-7m0-1c-4.4 0-8 3.6-8 8s3.6 8 8 8 8-3.6 8-8-3.6-8-8-8z" fill="#e5b795"/><path d="M25.9 11.3c-.3-.3-.5-.8-.5-1.4l.1-2.7-1 2.4V9c0-4.1 3.4-7.5 7.5-7.5 3.4 0 6.2 2.2 7.2 5.3-.5-1.2-1.4-2.6-1.7-2.9-.9-.8-1.6-1.2-2.2-1.3l-1.1-.1.6.9c.1.2-.1 1-1.8 2.3-.7.5-1.5 1-2.3 1.5-2.1 1.4-4.1 2.7-4.8 4.1" fill="#e67831"/><path d="M32 2c.5 0 .9 0 1.4.1l.9 1.4c0 .2-.2.8-1.6 1.8-.7.5-1.4 1-2.3 1.5-1.8 1.2-3.5 2.3-4.4 3.5V10l.2-4.8C27.4 3.3 29.6 2 32 2m0-1c-4.4 0-8 3.6-8 8 0 1 .2 1.9.5 2.8.1-1.1.4-1.9.4-1.9-.1 1.6 1.3 2.3 1.3 2.3 0-2 4.4-4.2 7-6.1s1.9-3 1.9-3c.7.1 1.7.9 1.9 1.1s1.4 1.9 1.8 3.1c.2.7.6 3 .5 4.7.4-.9.6-2 .6-3.1C40 4.6 36.4 1 32 1z" fill="#dd6022"/><g fill="#fff"><path d="M28.63 16.18h3.07v1.5h-4zM32.358 18.698H36.4v1.5h-4z"/></g><path d="M24 37v22h7V44c0-.6.5-1 1-1s1 .4 1 1v15h7V37H24" fill="#527ecc"/></svg>