<svg viewBox="0 0 64 64" xmlns="http://www.w3.org/2000/svg"><path d="M2.5 3.5h59v57h-59z" fill="#fff"/><path d="M61 4v56H3V4h58m1-1H2v58h60V3z" fill="#7f7f7f"/><path d="M2.5 3.5h59v13h-59z" fill="#dc0000"/><path d="M61 4v12H3V4h58m1-1H2v14h60V3z" fill="#900"/><g fill="#c8c8c8"><path d="M37 20h6v6h-6zM45 20h6v6h-6zM53 20h6v6h-6zM5 28h6v6H5zM13 28h6v6h-6zM21 28h6v6h-6zM29 28h6v6h-6zM37 28h6v6h-6zM45 28h6v6h-6zM53 28h6v6h-6zM5 36h6v6H5zM13 36h6v6h-6zM21 36h6v6h-6zM29 36h6v6h-6zM37 36h6v6h-6zM45 36h6v6h-6zM53 36h6v6h-6zM5 44h6v6H5zM13 44h6v6h-6zM21 44h6v6h-6zM29 44h6v6h-6zM37 44h6v6h-6zM45 44h6v6h-6zM53 44h6v6h-6zM5 52h6v6H5zM13 52h6v6h-6zM21 52h6v6h-6zM29 52h6v6h-6zM37 52h6v6h-6zM45 52h6v6h-6z"/></g><path d="M3 17h58v1H3z" fill="#e6e6e6"/></svg>