<svg viewBox="0 0 64 64" xmlns="http://www.w3.org/2000/svg"><path d="M15.5 15.5h33v33h-33z" fill="#f0f0f0"/><path d="M48 16v32H16V16h32m1-1H15v34h34V15z" fill="#646464"/><path d="M19.5 19.5h25v25h-25z" fill="#d9f1ff"/><path d="M44 20v24H20V20h24m1-1H19v26h26V19z" fill="#7aadcc"/><path d="M10.5 53.5v-43h43v43h-43m4-4h35v-35h-35v35" fill="#ececed"/><path d="M53 11v42H11V11h42M14 50h36V14H14v36m40-40H10v44h44V10zM15 49V15h34v34H15" fill="#9b9c9e"/><g fill="#646464"><path d="M46 36.5v-5c0-.27.22-.5.5-.5.27 0 .5.23.5.5v5c0 .28-.23.5-.5.5-.28 0-.5-.22-.5-.5"/><circle cx="46.5" cy="31.5" r="1"/></g></svg>