<svg viewBox="0 0 64 64" xmlns="http://www.w3.org/2000/svg" xmlns:xlink="http://www.w3.org/1999/xlink"><defs><linearGradient id="b" x1="42.448" x2="63.47" y1="39.796" y2="36.089" gradientUnits="userSpaceOnUse" xlink:href="#a"/><linearGradient id="a" x1="20.398" x2="36.836" y1="38.889" y2="35.991" gradientUnits="userSpaceOnUse"><stop stop-color="#f0f0f0" offset="0"/><stop stop-color="#c8c8c8" offset="1"/></linearGradient><linearGradient id="d" x2="0" y1="57.663" y2="47.838" gradientUnits="userSpaceOnUse" xlink:href="#a"/><linearGradient id="c" x1="26.716" x2="29.706" y1="50.094" y2="41.88" gradientUnits="userSpaceOnUse" xlink:href="#a"/></defs><path d="M17.5 44.61V9.41L63.5.6v55.76z" fill="#fafafa"/><path d="M63 1.21v54.5L18 44.22V9.83l45-8.62M64 0 17 9v36l47 12V0z" fill="#aaa"/><path d="M23.5 56.48V18.44l10-1.37v39.41z" fill="url(#a)"/><path d="M33 17.65v38.34h-9V18.87l9-1.22m1-1.15L23 18v38.98h11V16.5z" fill="#aaa"/><path d="m.5 4.66 17 4.72v35.24l-17 4.72z" fill="#fafafa"/><path d="m1 5.32 16 4.44v34.48L1 48.68V5.32M0 4v46l18-5V9L0 4z" fill="#aaa"/><path d="M45.5 57.1V15.44l14-1.87v47.04z" fill="url(#b)"/><path d="M59 14.14v45.83l-13-3.26V15.88l13-1.74M60 13l-15 2v42.49l15 3.76V13z" fill="#aaa"/><path d="m20.27 47.75 13.23-4.49v8.24z" fill="url(#c)"/><path d="M33 43.96v6.88l-11.04-3.13L33 43.96m1-1.4-15.41 5.23L34 52.16v-9.6z" fill="#aaa"/><path d="m41.22 53.19 18.28-5.35v9.82z" fill="url(#d)"/><path d="M59 48.51v8.52l-15.85-3.88L59 48.51m1-1.34-20.71 6.07L60 58.3V47.17z" fill="#aaa"/><path d="M.5 63.5V50.37l16.51-4.85L63.5 57.39v6.11z" fill="#996d4d"/><path d="M17.02 46.04 63 57.78V63H1V50.75l16.02-4.71M17 45 0 50v14h64v-7L17 45z" fill="#663629"/><g fill="none" stroke="#663629" stroke-miterlimit="10"><path d="M64 61.25 14.67 46.3M60 64 10.71 47.55M46.08 64 6.65 48.75M35.17 64.33 2.08 50M21.42 64 0 53.17M8.58 64 0 58.58M2.5 60.16l5.55-2.92M14.67 60.59l5.62-2.7M9.59 53.17l4.51-1.54M29.51 61.88l5.28-2.25M20.68 54.18l5.36-1.78M44.38 63.34l5.91-2.58M19.3 50.42l4.59-1.33M40.5 57.49l5.58-1.9M31.01 51.25 34.79 50M55.95 58.81l4.63-2.27"/></g></svg>