<svg viewBox="0 0 64 64" xmlns="http://www.w3.org/2000/svg"><path d="M47.5 58.5v-51h-31v51h-4v-55h39v55z" fill="#ececed"/><path d="M51 4v54h-3V7H16v51h-3V4h38m1-1H12v56h5V8h30v51h5V3z" fill="#9b9c9e"/><path d="M17.5 58.61V8.39l15-3.75v57.72z" fill="#f0f0f0"/><g fill="#646464"><path d="M32 5.28v56.44l-14-3.5V8.78l14-3.5M33 4 17 8v51l16 4V4z"/><circle cx="29" cy="37" r="1"/><path d="m26.05 31.84 3.99.33c.27.02.48.27.46.54a.51.51 0 0 1-.54.46l-3.99-.33a.51.51 0 0 1-.46-.54.49.49 0 0 1 .54-.46"/></g></svg>