<svg viewBox="0 0 64 64" xmlns="http://www.w3.org/2000/svg" xmlns:xlink="http://www.w3.org/1999/xlink"><defs><linearGradient id="d" x2="0" y1="73.362" y2="70.362" gradientTransform="matrix(1.9999 0 0 1.2424 -47.993 955.22)" gradientUnits="userSpaceOnUse"><stop stop-color="#fff" offset="0"/><stop stop-color="#ccc" offset="1"/></linearGradient><linearGradient id="c" x2="0" y1="73.362" y2="70.362" gradientTransform="matrix(1.9999 0 0 2.0001 -47.871 861.63)" gradientUnits="userSpaceOnUse"><stop stop-color="#fff" offset="0"/><stop stop-color="#cdcdcd" offset="1"/></linearGradient></defs><path d="M12.253 6.09h39.685v51.689H12.253z" fill="#fff"/><g fill="#d3d3d3" transform="translate(0 -988.36)"><path id="b" d="M34 996.36h4v4h-4z"/><path d="M40 996.36h4v4h-4z"/><path id="a" d="M46 996.36h4v4h-4z"/></g><path d="M38 6h8v8h-8z" fill="#ffa5a5"/><path d="M40 8h4v4h-4z" fill="#ff0505"/><g fill="#b8b8b8" transform="translate(0 -988.36)"><use xlink:href="#a"/><use xlink:href="#b"/></g><path d="M12 1002.4h40v6H12z" fill="url(#c)" transform="translate(0 -988.36)"/><path d="M12 1042.4h40v4H12z" fill="url(#d)" transform="translate(0 -988.36)"/><path d="M10 4v56h44V4zm2 2h40v52H12z" fill="#969696"/><path d="M47.38 35.24c0 8.552-6.932 15.485-15.484 15.485S16.412 43.792 16.412 35.24s6.932-15.485 15.484-15.485S47.38 26.688 47.38 35.24z" fill="none" stroke="#4c4c4c" stroke-width="2.212"/><path d="M15 32.04h6v6h-6z" fill="#939393"/><path d="m17 10 2.672-2.36.89 2.36z" fill="#4f4f4f"/></svg>