<svg viewBox="0 0 64 64" xmlns="http://www.w3.org/2000/svg" xmlns:xlink="http://www.w3.org/1999/xlink"><defs><linearGradient id="d" x2="0" y1="73.362" y2="70.362" gradientTransform="matrix(1.9999 0 0 1.2424 -47.993 955.22)" gradientUnits="userSpaceOnUse"><stop stop-color="#fff" offset="0"/><stop stop-color="#ccc" offset="1"/></linearGradient><linearGradient id="c" x2="0" y1="73.362" y2="70.362" gradientTransform="matrix(1.9999 0 0 2.0001 -47.871 861.63)" gradientUnits="userSpaceOnUse"><stop stop-color="#fff" offset="0"/><stop stop-color="#cdcdcd" offset="1"/></linearGradient></defs><path d="M12.253 6.09h39.685v51.689H12.253z" fill="#fff"/><g fill="#d3d3d3" transform="translate(0 -988.36)"><path d="M34 996.36h4v4h-4z"/><path id="a" d="M40 996.36h4v4h-4z"/><path id="b" d="M46 996.36h4v4h-4z"/></g><path d="M32 6h8v8h-8z" fill="#a5ffa8"/><path d="M34 8h4v4h-4z" fill="#00c808"/><g fill="#a1a1a1" transform="translate(0 -988.36)"><use xlink:href="#a"/><use xlink:href="#b"/></g><path d="M31.457 40.417a3.253 3.253 0 0 1-1.768-.922 3.245 3.245 0 0 1-.967-2.3c0-.845.5-2.22 1.794-4.936.407-.852.733-1.502 1.098-2.182.4-.747.39-.733.435-.686.097.102.944 1.743 1.48 2.868 1.294 2.716 1.794 4.091 1.794 4.935 0 1.26-.755 2.428-1.92 2.97a3.441 3.441 0 0 1-1.946.253z" fill="#018aca"/><path d="M32.498 38.717a1.91 1.91 0 0 0 1.3-1.192c.08-.233.12-.483.106-.686-.04-.592-.544-1.856-1.492-3.736-.27-.534-.362-.702-.388-.702s-.12.168-.388.702c-.791 1.57-1.264 2.687-1.446 3.419-.063.252-.059.595.01.848.133.488.463.918.898 1.167.41.235.93.302 1.4.18z" fill="#006694"/><path d="M12 1002.4h40v6H12z" fill="url(#c)" transform="translate(0 -988.36)"/><path d="M12 1042.4h40v4H12z" fill="url(#d)" transform="translate(0 -988.36)"/><path d="M10 4v56h44V4zm2 2h40v52H12z" fill="#969696"/><path d="M47.38 35.24c0 8.552-6.932 15.485-15.484 15.485S16.412 43.792 16.412 35.24s6.932-15.485 15.484-15.485S47.38 26.688 47.38 35.24z" fill="none" stroke="#4c4c4c" stroke-width="2.212"/><path d="M15 32.04h6v6h-6z" fill="#939393"/><path d="m17 10 2.672-2.36.89 2.36z" fill="#4f4f4f"/></svg>