<svg viewBox="0 0 64 64" xmlns="http://www.w3.org/2000/svg" xmlns:xlink="http://www.w3.org/1999/xlink"><defs><radialGradient id="g" cx="41.416" cy="62.398" r="7" gradientTransform="matrix(1.2082 0 0 2.031 -9.465 896.95)" gradientUnits="userSpaceOnUse"><stop stop-color="#919191" offset="0"/><stop stop-color="#fff" offset="1"/></radialGradient><radialGradient id="f" cx="39" cy="62.362" r="7" gradientTransform="matrix(2.0624 0 0 2.0626 -48.537 894.98)" gradientUnits="userSpaceOnUse"><stop stop-color="#919191" offset="0"/><stop stop-color="#e4e4e4" offset="1"/></radialGradient><linearGradient id="b" x2="0" y1="73.362" y2="70.362" gradientTransform="matrix(1.9999 0 0 1.2424 -47.993 955.22)" gradientUnits="userSpaceOnUse"><stop stop-color="#fff" offset="0"/><stop stop-color="#ccc" offset="1"/></linearGradient><linearGradient id="a" x2="0" y1="73.362" y2="70.362" gradientTransform="matrix(1.9999 0 0 2.0001 -47.871 861.63)" gradientUnits="userSpaceOnUse"><stop stop-color="#fff" offset="0"/><stop stop-color="#cdcdcd" offset="1"/></linearGradient></defs><path d="M12.253 6.09h39.685v51.689H12.253z" fill="#fff"/><g fill="#d3d3d3" transform="translate(0 -988.36)"><path id="e" d="M34 996.36h4v4h-4z"/><path id="c" d="M40 996.36h4v4h-4z"/><path id="d" d="M46 996.36h4v4h-4z"/></g><path d="M12 1002.4h40v6H12z" fill="url(#a)" transform="translate(0 -988.36)"/><path d="M12 1042.4h40v4H12z" fill="url(#b)" transform="translate(0 -988.36)"/><path d="M10 4v56h44V4zm2 2h40v52H12z" fill="#969696"/><path d="M47.38 35.24c0 8.552-6.932 15.485-15.484 15.485S16.412 43.792 16.412 35.24s6.932-15.485 15.484-15.485S47.38 26.688 47.38 35.24z" fill="none" stroke="#4c4c4c" stroke-width="2.212"/><path d="M15 32.04h6v6h-6z" fill="#939393"/><path d="m17 10 2.672-2.36.89 2.36z" fill="#4f4f4f"/><path d="M15 32.04h7v6h-7z" fill="#fff"/><g fill="#b8b8b8" transform="translate(0 -988.36)"><use xlink:href="#c"/><use xlink:href="#d"/><use xlink:href="#e"/></g><path d="M46.333 1023.6c0 7.974-6.463 14.438-14.437 14.438-7.973 0-14.437-6.464-14.437-14.438s6.464-14.438 14.437-14.438c7.973 0 14.437 6.465 14.437 14.438" fill="url(#f)" transform="translate(0 -988.36)"/><path d="M47.38 35.24c0 8.552-6.932 15.485-15.484 15.485S16.412 43.792 16.412 35.24s6.932-15.485 15.484-15.485S47.38 26.688 47.38 35.24z" fill="none" stroke="#9f9f9f" stroke-width="2.212"/><path d="M46.112 1023.6c0 7.852-3.787 14.217-8.457 14.217s-8.458-6.365-8.458-14.217 3.787-14.217 8.458-14.217 8.457 6.365 8.457 14.217" fill="url(#g)" transform="translate(0 -988.36)"/><path transform="matrix(1.2882 0 0 2.0262 -11.99 -91.11)" d="M46 62.362a7 7 0 1 1-14 0 7 7 0 0 1 14 0z" fill="none" stroke="#4b4b4b" stroke-width="1.383"/><path d="M29 32.04h3v6h-3z" fill="#939393"/></svg>