<svg viewBox="0 0 64 64" xmlns="http://www.w3.org/2000/svg"><path d="M6.93 58.5a2.502 2.502 0 0 1-2.17-3.75l25.07-43.43c.45-.78 1.26-1.25 2.17-1.25s1.71.47 2.17 1.25l25.07 43.43c.45.78.45 1.72 0 2.5s-1.26 1.25-2.17 1.25H6.93" fill="#fcd703"/><path d="M32 11.57c.22 0 .61.06.87.5L57.94 55.5c.25.44.11.81 0 1-.11.19-.36.5-.87.5H6.93c-.5 0-.76-.31-.87-.5a.965.965 0 0 1 0-1l25.07-43.43c.26-.43.65-.5.87-.5m0-3c-1.35 0-2.69.67-3.46 2L3.46 54c-1.54 2.67.38 6 3.46 6h50.14c3.08 0 5-3.33 3.46-6L35.46 10.57a3.96 3.96 0 0 0-3.46-2z"/><path d="m37.03 32.59-7.97 4.6 5.23-13.62h-4.74l-4.97 18.57 8-4.62-1.83 10.68-1.45-2.08 1.31 7.45 4.64-6.63-2.34 1.59z"/></svg>