<svg viewBox="0 0 64 64" xmlns="http://www.w3.org/2000/svg"><path d="M6.93 59.5c-1.26 0-2.4-.65-3.03-1.75s-.63-2.41 0-3.5l25.07-43.43c.63-1.1 1.77-1.75 3.03-1.75s2.4.65 3.03 1.75L60.1 54.25c.63 1.1.63 2.41 0 3.5s-1.77 1.75-3.03 1.75H6.93" fill="orange"/><path d="M32 9.57c1.08 0 2.06.56 2.6 1.5L59.67 54.5c.54.94.54 2.06 0 3s-1.51 1.5-2.6 1.5H6.93c-1.08 0-2.06-.56-2.6-1.5a2.98 2.98 0 0 1 0-3L29.4 11.07c.54-.93 1.52-1.5 2.6-1.5m0-1c-1.35 0-2.69.67-3.46 2L3.46 54c-1.54 2.67.38 6 3.46 6h50.14c3.08 0 5-3.33 3.46-6L35.46 10.57a3.96 3.96 0 0 0-3.46-2z" fill="#e58200"/><path d="m30.16 44.5-1.5-12.76-.01-8.24h6.66v8.18L33.76 44.5z" fill="#fff"/><path d="M34.81 24v7.68L33.32 44H30.6l-1.45-12.32V24h5.66m1-1h-7.66v8.74l.01.06 1.45 12.32.1.88h4.49l.11-.88L35.8 31.8l.01-.06V23z" fill="#e58200"/><path d="M28.5 46.5h7v7h-7z" fill="#fff"/><path d="M35 47v6h-6v-6h6m1-1h-8v8h8v-8z" fill="#e58200"/></svg>