<svg viewBox="0 0 64 64" xmlns="http://www.w3.org/2000/svg" xmlns:xlink="http://www.w3.org/1999/xlink"><defs><linearGradient id="a" x1="27.5" x2="36.5" gradientUnits="userSpaceOnUse"><stop stop-color="#82828c" offset="0"/><stop stop-color="#ccd3e7" offset=".5"/><stop stop-color="#82828c" offset="1"/></linearGradient><linearGradient id="b" x1="30.5" x2="33.5" gradientUnits="userSpaceOnUse" xlink:href="#a"/><radialGradient id="c" cx="32" cy="32" r="4.924" gradientTransform="matrix(1 0 0 .5 0 16)" gradientUnits="userSpaceOnUse"><stop stop-color="#ccd3e7" offset="0"/><stop stop-color="#82828c" offset="1"/></radialGradient></defs><path d="M29 30.5c-.1 0-.2 0-.3-.1-.1-.1-.2-.2-.2-.4l-.5-7c0-.2.1-.5.4-.5l7-2h.1c.1 0 .2 0 .3.1.1.1.2.3.2.4l-.5 8c0 .2-.2.4-.4.5l-6.1 1c.1 0 0 0 0 0" fill="#f0f0f0"/><path d="m35.5 21-.5 8-6 1-.5-7 7-2m0-1h-.3l-7 2c-.5.1-.8.6-.7 1l.5 7c0 .3.2.5.4.7.2.1.4.2.6.2h.2l6-1c.5-.1.8-.5.8-.9l.5-8c0-.3-.1-.6-.4-.8-.2-.1-.4-.2-.6-.2z" fill="#b4b4b4"/><path d="M22 31h20v2H22z" fill="#666e7f"/><path d="M29 18.5c-.2 0-.5-.2-.5-.4l-1-6c0-.1 0-.3.1-.4.1-.1.2-.2.4-.2h8c.1 0 .3.1.4.2.1.1.1.3.1.4l-1 6c0 .2-.2.4-.5.4h-6" fill="url(#a)"/><path d="m36 12-1 6h-6l-1-6h8m0-1h-8c-.3 0-.6.1-.8.4-.2.2-.2.5-.2.8l1 6c.1.5.5.8 1 .8h6c.5 0 .9-.4 1-.8l1-6c0-.3 0-.6-.2-.8s-.5-.4-.8-.4z" fill="#666e7f"/><path d="M30.5 18.5h3v11h-3z" fill="url(#b)"/><path d="M33 19v10h-2V19h2m1-1h-4v12h4V18z" fill="#666e7f"/><path d="M32 34.5c-3.8 0-6.5-1.3-6.5-2.5s2.7-2.5 6.5-2.5 6.5 1.3 6.5 2.5-2.7 2.5-6.5 2.5" fill="url(#c)"/><g fill="#666e7f"><path d="M32 30c3.7 0 6 1.3 6 2s-2.3 2-6 2-6-1.3-6-2 2.3-2 6-2m0-1c-3.9 0-7 1.3-7 3s3.1 3 7 3 7-1.3 7-3-3.1-3-7-3z"/><path d="M31 33v1c0 .6.4 1 1 1s1-.4 1-1v-1c0-.6-.4-1-1-1s-1 .4-1 1"/></g><path d="M36 47.5h-.1l-8-2c-.2-.1-.4-.3-.4-.5l1-11c0-.1.1-.3.2-.4.1-.1.2-.1.3-.1h.1l6 1c.2 0 .4.2.4.5l1 12c0 .2-.1.3-.2.4-.1.1-.2.1-.3.1" fill="#f0f0f0"/><path d="m29 34 6 1 1 12-8-2 1-11m0-1c-.2 0-.4.1-.6.2-.2.2-.4.4-.4.7l-1 11c0 .5.3.9.8 1.1l8 2h.2c.2 0 .5-.1.6-.2.2-.2.4-.5.3-.8l-1-12c0-.5-.4-.8-.8-.9l-6-1c0-.1 0-.1-.1-.1z" fill="#b4b4b4"/><path d="M1 34.5c-.3 0-.5-.2-.5-.5v-4c0-.3.2-.5.5-.5h21c.3 0 .5.2.5.5v4c0 .3-.2.5-.5.5H1" fill="#f0f0f0"/><path d="M22 30v4H1v-4h21m0-1H1c-.6 0-1 .4-1 1v4c0 .6.4 1 1 1h21c.6 0 1-.4 1-1v-4c0-.6-.4-1-1-1z" fill="#b4b4b4"/><path d="M42 34.5c-.3 0-.5-.2-.5-.5v-4c0-.3.2-.5.5-.5h21c.3 0 .5.2.5.5v4c0 .3-.2.5-.5.5H42" fill="#f0f0f0"/><path d="M63 30v4H42v-4h21m0-1H42c-.6 0-1 .4-1 1v4c0 .6.4 1 1 1h21c.6 0 1-.4 1-1v-4c0-.6-.4-1-1-1z" fill="#b4b4b4"/></svg>