<svg viewBox="0 0 64 64" xmlns="http://www.w3.org/2000/svg"><defs><radialGradient id="a" cx="32" cy="31" r="24.5" gradientUnits="userSpaceOnUse"><stop stop-color="#b4b4b4" offset="0"/><stop stop-color="#999" offset="1"/></radialGradient></defs><path d="M16 61.5c-.3 0-.5-.2-.5-.5v-2c0-.3.2-.5.5-.5h4c.3 0 .5.2.5.5v2c0 .3-.2.5-.5.5h-4" fill="#f0f0f0"/><path d="M20 59v2h-4v-2h4m0-1h-4c-.6 0-1 .4-1 1v2c0 .6.4 1 1 1h4c.6 0 1-.4 1-1v-2c0-.6-.4-1-1-1z" fill="#b4b4b4"/><path d="M44 61.5c-.3 0-.5-.2-.5-.5v-2c0-.3.2-.5.5-.5h4c.3 0 .5.2.5.5v2c0 .3-.2.5-.5.5h-4" fill="#f0f0f0"/><path d="M48 59v2h-4v-2h4m0-1h-4c-.6 0-1 .4-1 1v2c0 .6.4 1 1 1h4c.6 0 1-.4 1-1v-2c0-.6-.4-1-1-1z" fill="#b4b4b4"/><path d="M15 58.5C9.2 58.5 4.5 53.8 4.5 48V14C4.5 8.2 9.2 3.5 15 3.5h34c5.8 0 10.5 4.7 10.5 10.5v34c0 5.8-4.7 10.5-10.5 10.5H15z" fill="#f0f0f0"/><path d="M49 4c5.5 0 10 4.5 10 10v34c0 5.5-4.5 10-10 10H15C9.5 58 5 53.5 5 48V14C5 8.5 9.5 4 15 4h34m0-1H15C8.9 3 4 7.9 4 14v34c0 6.1 4.9 11 11 11h34c6.1 0 11-4.9 11-11V14c0-6.1-4.9-11-11-11z" fill="#b4b4b4"/><path d="M16 55.5c-4.7 0-8.5-3.8-8.5-8.5V15c0-4.7 3.8-8.5 8.5-8.5h32c4.7 0 8.5 3.8 8.5 8.5v32c0 4.7-3.8 8.5-8.5 8.5H16" fill="url(#a)"/><path d="M48 7c4.4 0 8 3.6 8 8v32c0 4.4-3.6 8-8 8H16c-4.4 0-8-3.6-8-8V15c0-4.4 3.6-8 8-8h32m0-1H16c-5 0-9 4-9 9v32c0 5 4 9 9 9h32c5 0 9-4 9-9V15c0-5-4-9-9-9z" fill="#b4b4b4"/><g fill="#f0f0f0" stroke="#7f7f7f" stroke-linecap="round" stroke-linejoin="round" stroke-miterlimit="10"><path d="M28.8 24.7s4-.4 5.5-5.1.6-6.5.6-6.5-.7-2 .5-3.6c1.3-1.6 3.2-1.2 3.2-1.2s3.6.7 5.7 5-.3 7.5-.3 7.5-2.9 4.6-8 6.4c-5 1.8-7.2-2.5-7.2-2.5zM38.7 34.1s-3 2.7-1.5 7.4 3.4 5.6 3.4 5.6 1.8 1.2 1.7 3.2-1.9 2.9-1.9 2.9-3.3 1.6-7.6-.7-4.2-6.3-4.2-6.3-.3-5.4 2.7-9.9 7.4-2.2 7.4-2.2z"/><path d="M31.3 38.2s-3.5-2-7.5.9-4.3 4.9-4.3 4.9-.5 2-2.5 2.5-3.3-.9-3.3-.9-2.5-2.6-1.7-7.4 4.7-5.9 4.7-5.9 5.1-2 10.2-.5c5.2 1.6 4.4 6.4 4.4 6.4z"/><path d="M25.1 32.3s.9-3.9-3.2-6.8S16 23 16 23s-2.1.1-3.2-1.6-.2-3.4-.2-3.4 1.8-3.3 6.5-3.9c4.8-.7 7.1 2.6 7.1 2.6s3.4 4.2 3.6 9.6-4.7 6-4.7 6zM37.2 25.7s1.6 3.7 6.6 3.7 6.3-1.5 6.3-1.5 1.7-1.3 3.6-.6 2.2 2.6 2.2 2.6.5 3.7-3 7-7.3 2.1-7.3 2.1-5.2-1.4-8.5-5.6c-3.4-4.2.1-7.7.1-7.7z"/><circle cx="32.2" cy="31" r="7.3"/></g><g opacity=".75"><path d="M41 55.5c-.3 0-.5-.2-.5-.5v-5.5h-17V55c0 .3-.2.5-.5.5h-1c-.3 0-.5-.2-.5-.5v-5.5h-13c-.2 0-.4-.2-.5-.4l-.2-1c0-.1 0-.3.1-.4s.2-.2.4-.2h13.2v-5H8c-.3 0-.5-.2-.5-.5v-1c0-.3.2-.5.5-.5h13.5v-5H8c-.3 0-.5-.2-.5-.5v-1c0-.3.2-.5.5-.5h13.5v-5H8c-.3 0-.5-.2-.5-.5v-1c0-.3.2-.5.5-.5h13.5v-5H8c-.3 0-.5-.2-.5-.5v-1c0-.3.2-.5.5-.5h13.5v-5H8.2c-.2 0-.3-.1-.4-.2s-.1-.3 0-.4l.2-1c.1-.2.3-.4.5-.4h13V7c0-.3.2-.5.5-.5h1c.3 0 .5.2.5.5v5.5h17V7c0-.3.2-.5.5-.5h1c.3 0 .5.2.5.5v5.5h13c.2 0 .4.2.5.4l.2 1c0 .1 0 .3-.1.4s-.2.2-.4.2H42.5v5H56c.3 0 .5.2.5.5v1c0 .3-.2.5-.5.5H42.5v5H56c.3 0 .5.2.5.5v1c0 .3-.2.5-.5.5H42.5v5H56c.3 0 .5.2.5.5v1c0 .3-.2.5-.5.5H42.5v5H56c.3 0 .5.2.5.5v1c0 .3-.2.5-.5.5H42.5v5h13.2c.2 0 .3.1.4.2s.1.3.1.4l-.2 1c-.1.2-.3.4-.5.4h-13V55c0 .3-.2.5-.5.5h-1m-.5-8v-5h-17v5h17m0-7v-5h-17v5h17m0-7v-5h-17v5h17m0-7v-5h-17v5h17m0-7v-5h-17v5h17" fill="#f0f0f0"/><path d="M42 7v6h13.5l.2 1H42v6h14v1H42v6h14v1H42v6h14v1H42v6h14v1H42v6h13.8l-.2 1H42v6h-1v-6H23v6h-1v-6H8.5l-.2-1H22v-6H8v-1h14v-6H8v-1h14v-6H8v-1h14v-6H8v-1h14v-6H8.2l.2-1H22V7h1v6h18V7h1M23 20h18v-6H23v6m0 7h18v-6H23v6m0 7h18v-6H23v6m0 7h18v-6H23v6m0 7h18v-6H23v6M42 6h-1c-.6 0-1 .4-1 1v5H24V7c0-.6-.4-1-1-1h-1c-.6 0-1 .4-1 1v5H8.5c-.5 0-.9.3-1 .8l-.2 1c-.1.3 0 .6.2.9.2.2.4.3.7.3H21v4H8c-.6 0-1 .4-1 1v1c0 .6.4 1 1 1h13v4H8c-.6 0-1 .4-1 1v1c0 .6.4 1 1 1h13v4H8c-.6 0-1 .4-1 1v1c0 .6.4 1 1 1h13v4H8c-.6 0-1 .4-1 1v1c0 .6.4 1 1 1h13v4H8.2c-.3 0-.6.1-.8.4-.2.2-.3.6-.2.9l.2 1c.2.4.6.7 1.1.7H21v5c0 .6.4 1 1 1h1c.6 0 1-.4 1-1v-5h16v5c0 .6.4 1 1 1h1c.6 0 1-.4 1-1v-5h12.5c.5 0 .9-.3 1-.8l.2-1c.1-.3 0-.6-.2-.9-.2-.2-.5-.4-.8-.4H43v-4h13c.6 0 1-.4 1-1v-1c0-.6-.4-1-1-1H43v-4h13c.6 0 1-.4 1-1v-1c0-.6-.4-1-1-1H43v-4h13c.6 0 1-.4 1-1v-1c0-.6-.4-1-1-1H43v-4h13c.6 0 1-.4 1-1v-1c0-.6-.4-1-1-1H43v-4h12.8c.3 0 .6-.1.8-.4.2-.2.3-.6.2-.9l-.2-1c-.1-.4-.5-.8-1-.8H43V7c0-.6-.4-1-1-1zm-18 9h16v4H24v-4m0 7h16v4H24v-4m0 7h16v4H24v-4m0 7h16v4H24v-4m0 7h16v4H24v-4" fill="#b4b4b4"/></g></svg>