<svg viewBox="0 0 64 64" xmlns="http://www.w3.org/2000/svg"><path d="M25.5 9.5h7v13h-7z" fill="#8b96ac"/><path d="M32 10v12h-6V10h6m1-1h-8v14h8V9z" fill="#676b72"/><path d="M46.5 39.5V36a2.5 2.5 0 0 0-2.5-2.5H8.5v-11h15V18c0-.83.67-1.5 1.5-1.5h8c.83 0 1.5.67 1.5 1.5v4.5H46c6.34 0 11.5 5.16 11.5 11.5v5.5h-11" fill="#8b96ac"/><path d="M33 17c.55 0 1 .45 1 1v5h12c6.07 0 11 4.93 11 11v5H47v-3c0-1.65-1.35-3-3-3H9V23h15v-5c0-.55.45-1 1-1h8m0-1h-8c-1.1 0-2 .9-2 2v4H8v12h36c1.1 0 2 .9 2 2v4h12v-6c0-6.63-5.37-12-12-12H35v-4c0-1.1-.9-2-2-2z" fill="#676b72"/><path d="M51.55 59.5c0-.01-.1-.02-.19-.03-.15-.02-.3-.03-.4-.07l-.05-.02-.05-.01c-2.29-.41-4.25-2.72-4.36-5.17v-.75c.07-.4.16-.9.35-1.36.18-.34.37-.72.6-1.08l.74-1.03c1.58-1.94 2.85-3.85 3.85-5.8 1.03 2.43 2.61 4.51 3.89 6.05.15.23.34.49.55.75.24.38.53.85.75 1.35.12.33.22.75.27 1.22v.62c-.02.1-.03.19-.03.27 0 .03 0 .07-.01.1l-.03.06v.05c-.25 2.24-2.14 4.31-4.29 4.7l-.05.01-.05.02c-.1.04-.25.06-.4.07l-.23.03h-.86z" fill="#1e82ff"/><path d="M52 45.31c1.03 2.08 2.38 3.84 3.5 5.21.17.26.35.5.54.74.25.4.51.82.71 1.25.11.31.19.66.24 1.05v.57c-.02.12-.03.22-.03.3l-.02.04-.02.14c-.23 2.04-1.93 3.91-3.89 4.26l-.12.03-.08.03c-.04.02-.18.03-.27.04-.07.01-.14.02-.21.02h-.76c-.07-.01-.14-.02-.21-.02-.09-.01-.22-.02-.27-.04l-.1-.04-.1-.02c-2.08-.37-3.85-2.47-3.94-4.65v-.7c.07-.41.15-.84.3-1.21.2-.39.37-.71.56-1.01l.72-1A32.46 32.46 0 0 0 52 45.31m.06-2.31c-1.11 2.41-2.59 4.63-4.28 6.69l-.75 1.05c-.24.37-.44.77-.64 1.16-.2.49-.3 1.03-.38 1.54v.78c.12 2.64 2.2 5.18 4.77 5.64.24.1.53.1.78.14h.91c.25-.04.53-.04.78-.14 2.38-.43 4.43-2.67 4.7-5.13.06-.15.02-.34.07-.48v-.75c-.06-.46-.16-.93-.31-1.36-.23-.52-.52-.99-.82-1.46-.2-.24-.38-.5-.55-.75-1.58-1.91-3.03-3.95-3.95-6.25l-.33-.68z" fill="#1271d8"/><path d="M41 13.5c-1.41 0-2.71-.66-3.58-1.8l-.15-.2H31.5v-5h5.77l.15-.2c.87-1.15 2.17-1.8 3.58-1.8 2.48 0 4.5 2.02 4.5 4.5s-2.02 4.5-4.5 4.5" fill="#8b96ac"/><path d="M41 5c2.21 0 4 1.79 4 4s-1.79 4-4 4a3.96 3.96 0 0 1-3.18-1.6l-.3-.4H32V7h5.52l.3-.4A3.96 3.96 0 0 1 41 5m0-1c-1.63 0-3.06.79-3.98 2H31v6h6.02c.91 1.21 2.35 2 3.98 2 2.76 0 5-2.24 5-5s-2.24-5-5-5z" fill="#676b72"/><path d="M19 13.5c-2.48 0-4.5-2.02-4.5-4.5s2.02-4.5 4.5-4.5c1.41 0 2.71.66 3.58 1.8l.15.2h3.77v5h-3.77l-.15.2c-.87 1.14-2.17 1.8-3.58 1.8" fill="#8b96ac"/><path d="M19 5c1.25 0 2.41.58 3.18 1.6l.3.4H26v4h-3.52l-.3.4A3.96 3.96 0 0 1 19 13c-2.21 0-4-1.79-4-4s1.79-4 4-4m0-1c-2.76 0-5 2.24-5 5s2.24 5 5 5c1.63 0 3.06-.79 3.98-2H27V6h-4.02c-.92-1.21-2.35-2-3.98-2z" fill="#676b72"/><path d="M29 13.5c-2.48 0-4.5-2.02-4.5-4.5s2.02-4.5 4.5-4.5 4.5 2.02 4.5 4.5-2.02 4.5-4.5 4.5" fill="#8b96ac"/><path d="M29 5c2.21 0 4 1.79 4 4s-1.79 4-4 4-4-1.79-4-4 1.79-4 4-4m0-1c-2.76 0-5 2.24-5 5s2.24 5 5 5 5-2.24 5-5-2.24-5-5-5z" fill="#676b72"/><path d="M23 22c3.32 2 8.68 2 12 0" fill="none" stroke="#676b72" stroke-miterlimit="10"/><path d="M4.5 38.5v-21H7c.83 0 1.5.67 1.5 1.5v18c0 .83-.67 1.5-1.5 1.5H4.5" fill="#8b96ac"/><path d="M7 18c.55 0 1 .45 1 1v18c0 .55-.45 1-1 1H5V18h2m0-1H4v22h3c1.1 0 2-.9 2-2V19c0-1.1-.9-2-2-2z" fill="#676b72"/></svg>