<svg viewBox="0 0 64 64" xmlns="http://www.w3.org/2000/svg"><path d="M54 40C50.61 9.51 32.95 1.84 28.24.32c-.56-.18-1.1.27-1.06.85C27.94 13.19 22 20 22 20s-7.83 9.75-10 13-5.42 15.67 3 26c7.2 8.84 15.26 2.55 17.43.55.33-.3.82-.27 1.14.04C37.19 63.15 41.36 64.07 45 61c11.41-9.61 9-21 9-21" fill="#f01428"/><path d="M33 59s-5.88 5.33-10 0-2-14-2-14 3.21-7.46 10-15c0 0 2.67-2.92 3-5 0 0 9.08 4.83 10 17s-9 19-9 19l-2-2" fill="#ff8200"/><path d="M33 59s6.79-1.96 8-14c0 0 .88-3.88-6-10l-8 9s-3 3.04-3 8 3 7 3 7 2.67 3.33 6 0" fill="#ffc800"/></svg>