<svg viewBox="0 0 64 64" xmlns="http://www.w3.org/2000/svg"><path d="M47.5 58.5v-51h-31v51h-4v-55h39v55z" fill="#ececed"/><path d="M51 4v54h-3V7H16v51h-3V4h38m1-1H12v56h5V8h30v51h5V3z" fill="#9b9c9e"/><path d="M17.5 8.5h29v50h-29z" fill="#646464"/><path d="M46 9v49H18V9h28m1-1H17v51h30V8z" fill="#282828"/><ellipse cx="43.5" cy="34" rx=".5" ry="1" fill="#dcdcf0"/><path d="M36 13v41h-8V13h8m1-1H27v43h10V12z" fill="#282828"/><path d="M28.5 13.5h7v40h-7z" fill="#d9f1ff"/><path d="M35 14v39h-6V14h6m1-1h-8v41h8V13z" fill="#7aadcc"/><path d="M40.5 15.5h2v36h-2z" fill="#dcdcf0"/><path d="M42 16v35h-1V16h1m1-1h-3v37h3V15z" fill="#595959"/></svg>