<svg viewBox="0 0 64 64" xmlns="http://www.w3.org/2000/svg"><path d="M.5 59.5V14.3L20 4.6l19.5 9.7v45.2z" fill="#f0f0f0"/><path d="m20 5.1 19 9.5V59H1V14.6l19-9.5M20 4 0 14v46h40V14L20 4z" fill="#c8c8c8"/><path d="M.5 33.5h39v13H.5z" fill="#f0f0f0"/><path d="M39 34v12H1V34h38m1-1H0v14h40V33z" fill="#c8c8c8"/><path d="M.5 20.5h39v13H.5z" fill="#f0f0f0"/><path d="M39 21v12H1V21h38m1-1H0v14h40V20z" fill="#c8c8c8"/><path d="M39.5 46.5V28.6l21 3.8v14.1z" fill="#ffccd3"/><path d="m40 29.2 20 3.6V46H40V29.2M39 28v19h22V32l-22-4z" fill="#f66"/><path d="M5.4 23.4h5.1v6.1H5.4z" fill="#f0f0f0"/><path d="M10.1 23.9v5.3H5.9v-5.3h4.2m.9-.9H5v7h6v-7z" fill="#c8c8c8"/><path d="M10.4 23.4h5.1v6.1h-5.1z" fill="#f0f0f0"/><path d="M15.1 23.9v5.3h-4.3v-5.3h4.3m.9-.9h-6v7h6v-7z" fill="#c8c8c8"/><path d="M28.5 36.5h6v10h-6z" fill="#f0f0f0"/><path d="M34 37v9h-5v-9h5m1-1h-7v11h7V36z" fill="#c8c8c8"/><path d="M19.4 23.4h5.1v6.1h-5.1z" fill="#f0f0f0"/><path d="M24.1 23.9v5.3h-4.3v-5.3h4.3m.9-.9h-6v7h6v-7z" fill="#c8c8c8"/><path d="M5.4 36.4h5.1v6.1H5.4z" fill="#f0f0f0"/><path d="M10.1 36.9v5.3H5.9v-5.3h4.2m.9-.9H5v7h6v-7z" fill="#c8c8c8"/><path d="M10.4 36.4h5.1v6.1h-5.1z" fill="#f0f0f0"/><path d="M15.1 36.9v5.3h-4.3v-5.3h4.3m.9-.9h-6v7h6v-7z" fill="#c8c8c8"/><path d="M19.4 36.4h5.1v6.1h-5.1z" fill="#f0f0f0"/><path d="M24.1 36.9v5.3h-4.3v-5.3h4.3m.9-.9h-6v7h6v-7z" fill="#c8c8c8"/><path d="M28.5 23.5h6.1v6.1h-6.1z" fill="#f0f0f0"/><g fill="#c8c8c8"><path d="M34.1 23.9V29H29v-5.1h5.1m.9-.9h-7v7h7v-7zM32 41h1v1h-1z"/></g><path d="M.5 20.5v-6.2L20 4.6l19.5 9.7v6.2z" fill="#f0f0f0"/><path d="m20 5.1 19 9.5V20H1v-5.4l19-9.5M20 4 0 14v7h40v-7L20 4z" fill="#c8c8c8"/><path d="m46 17.5-26-13-26 13" fill="none" stroke="#2e7de5" stroke-miterlimit="10" stroke-width="1.5"/><path d="M13.5 12.5h5v5h-5z" fill="#f0f0f0"/><path d="M18 13v4h-4v-4h4m1-1h-6v6h6v-6z" fill="#c8c8c8"/><path d="M21.5 12.5h5v5h-5z" fill="#f0f0f0"/><path d="M26 13v4h-4v-4h4m1-1h-6v6h6v-6z" fill="#c8c8c8"/><path d="M42.5 36.5h15v10h-15z" fill="#ffccd3"/><path d="M57 37v9H43v-9h14m1-1H42v11h16V36z" fill="#f66"/><path d="m39 28 25 4.5" fill="none" stroke="#2e7de5" stroke-miterlimit="10" stroke-width="1.5"/></svg>