<svg viewBox="0 0 64 64" xmlns="http://www.w3.org/2000/svg" xmlns:xlink="http://www.w3.org/1999/xlink"><defs><linearGradient id="c" x1="30" x2="34" gradientUnits="userSpaceOnUse"><stop stop-color="#c7a23d" offset="0"/><stop stop-color="#e6cead" offset=".5"/><stop stop-color="#c7a23d" offset="1"/></linearGradient><linearGradient id="b" x1="16.5" x2="47.5" gradientUnits="userSpaceOnUse"><stop stop-color="#dd2a42" offset="0"/><stop stop-color="#dc6478" offset=".5"/><stop stop-color="#dd2a42" offset="1"/></linearGradient><linearGradient id="a" x1="23.5" x2="40.5" gradientUnits="userSpaceOnUse"><stop stop-color="#82828c" offset="0"/><stop stop-color="#ccd3e7" offset=".5"/><stop stop-color="#82828c" offset="1"/></linearGradient><linearGradient id="d" x1="16.5" x2="47.5" gradientUnits="userSpaceOnUse" xlink:href="#a"/></defs><path d="M16.5 54.5V25c0-4.1 3.4-7.5 7.5-7.5h16c4.1 0 7.5 3.4 7.5 7.5v29.5h-31z" fill="url(#b)"/><path d="M40 18c3.9 0 7 3.1 7 7v29H17V25c0-3.9 3.1-7 7-7h16m0-1H24c-4.4 0-8 3.6-8 8v30h32V25c0-4.4-3.6-8-8-8z" fill="#b2243b"/><path d="M23.5 16.5v-6c1.1-.2 2-1.2 2-2.5s-.9-2.2-2-2.5v-1h17v1c-1.1.2-2 1.2-2 2.5s.9 2.2 2 2.5v6h-17m4-2h9v-8h-9v8" fill="url(#a)"/><path d="M40 5v.2c-1.2.4-2 1.5-2 2.8s.8 2.4 2 2.8V16H24v-5.2c1.2-.4 2-1.5 2-2.8s-.8-2.4-2-2.8V5h16M27 15h10V6H27v9M41 4H23v2c1.1 0 2 .9 2 2s-.9 2-2 2v7h18v-7c-1.1 0-2-.9-2-2s.9-2 2-2V4zM28 14V7h8v7h-8" fill="#6a6a72"/><path d="M30 9v1h1v4h2v-4h1V9z" fill="url(#c)"/><path d="M16.5 60.5v-4h4v-1h4v1h15v-1h4v1h4v4z" fill="url(#d)"/><path d="M43 56v1h4v3H17v-3h4v-1h3v1h16v-1h3m1-1h-5v1H25v-1h-5v1h-4v5h32v-5h-4v-1z" fill="#6a6a72"/><path d="M47 35v2H17v-2h30m1-1H16v4h32v-4z" fill="#b2243b"/></svg>