<svg viewBox="0 0 64 64" xmlns="http://www.w3.org/2000/svg"><path d="M27.5 63.5c-1.7 0-3-1.3-3-3v-20c0-1.7 1.3-3 3-3s3 1.3 3 3v20c0 1.7-1.3 3-3 3" fill="#ba7750"/><path d="M27.5 38c1.4 0 2.5 1.1 2.5 2.5v20c0 1.4-1.1 2.5-2.5 2.5S25 61.9 25 60.5v-20c0-1.4 1.1-2.5 2.5-2.5m0-1c-1.9 0-3.5 1.6-3.5 3.5v20c0 1.9 1.6 3.5 3.5 3.5s3.5-1.6 3.5-3.5v-20c0-1.9-1.5-3.5-3.5-3.5z" fill="#a35c3d"/><path d="M36.5 63.5c-1.7 0-3-1.3-3-3v-20c0-1.7 1.3-3 3-3s3 1.3 3 3v20c0 1.7-1.3 3-3 3" fill="#ba7750"/><path d="M36.5 38c1.4 0 2.5 1.1 2.5 2.5v20c0 1.4-1.1 2.5-2.5 2.5S34 61.9 34 60.5v-20c0-1.4 1.1-2.5 2.5-2.5m0-1c-1.9 0-3.5 1.6-3.5 3.5v20c0 1.9 1.6 3.5 3.5 3.5s3.5-1.6 3.5-3.5v-20c0-1.9-1.5-3.5-3.5-3.5z" fill="#a35c3d"/><path d="M43 40.5c-.8 0-1.5-.7-1.5-1.5V27.5h3V39c0 .8-.7 1.5-1.5 1.5" fill="#ba7750"/><path d="M44 28v11c0 .6-.4 1-1 1s-1-.4-1-1V28h2m1-1h-4v12c0 1.1.9 2 2 2s2-.9 2-2V27z" fill="#a35c3d"/><path d="M30 60v.5c0 1.4-1.1 2.5-2.5 2.5S25 61.9 25 60.5V60h5m1-1h-7v1.5c0 1.9 1.6 3.5 3.5 3.5s3.5-1.6 3.5-3.5V59zM39 60v.5c0 1.4-1.1 2.5-2.5 2.5S34 61.9 34 60.5V60h5m1-1h-7v1.5c0 1.9 1.6 3.5 3.5 3.5s3.5-1.6 3.5-3.5V59z"/><path d="M21 40.5c-.8 0-1.5-.7-1.5-1.5V27.5h3V39c0 .8-.6 1.5-1.5 1.5" fill="#ba7750"/><path d="M22 28v11c0 .6-.4 1-1 1s-1-.4-1-1V28h2m1-1h-4v12c0 1.1.9 2 2 2s2-.9 2-2V27z" fill="#a35c3d"/><path d="M24.5 22.5h15v18h-15z" fill="#ba7750"/><path d="M39 23v17H25V23h14m1-1H24v19h16V22z" fill="#a35c3d"/><path d="M35.8 17h-7.5c-5.1 0-9.2 4.1-9.2 9.2v.6c0 .1-.1.3-.1.4V30h4v1.6-3.8c0-1.2.4-2.2 1-3.1V36h16V24.6c.5.7.9 1.6 1 2.5V30h4v-3.9c0-5-4.1-9.1-9.2-9.1" fill="#da4168"/><path d="M41.1 16.5c-.8 0-1.4-.2-1.7-.5-.1-.1-.1-.2-.1-.3.2-1.4-.9-4.7-1.2-5.3L37.9 8l1.8.4c0 .6-.1 1.6-.1 2.6-.1 1.4 1.3 3.3 2.3 4.6l.4.5.1.1s-.1.1-.5.2c-.2.1-.4.1-.8.1" fill="#472e18"/><path d="m38.5 8.6.7.1c0 .6-.1 1.4-.1 2.2-.1 1.6 1.3 3.5 2.4 4.9l.1.1h-.5c-.7 0-1.1-.1-1.3-.2.2-1.5-.9-4.6-1.2-5.5l-.1-1.6m-1.1-1.2.3 3.1s1.4 3.7 1.2 5.2c-.2 1 1.2 1.3 2.3 1.3.4 0 .7 0 .9-.1.7-.2 1.1-.6.7-1.2-.9-1.3-2.6-3.3-2.6-4.8s.1-3 .1-3l-2.9-.5z" fill="#382211"/><path d="M32 16.8c-4.1 0-7.5-3.4-7.5-7.5s3.4-7.5 7.5-7.5 7.5 3.4 7.5 7.5-3.3 7.5-7.5 7.5" fill="#ba7750"/><path d="M32 2.3c3.9 0 7 3.1 7 7s-3.1 7-7 7-7-3.1-7-7 3.2-7 7-7m0-1c-4.4 0-8 3.6-8 8s3.6 8 8 8 8-3.6 8-8-3.6-8-8-8z" fill="#a35c3d"/><path d="M22 16.4h-.2c0-.2.2-.6 1-1.6.5-.6 1-1.7 1.8-3.4l.1-.2-.1-.2c-.4-.9-1.1-3.2.4-6.2C26.8 1.1 30.9.6 30.9.6s1-.1 2.2-.1c.7 0 1.3 0 1.8.1.8.1 1.9.5 2.3 1 .1.2.1.4.1.6l-.1.3.2.2c.7.6 1.3 1.5 1.9 2.7.4.9.5 2.1.5 3.1-.3-2.4-1.2-4.2-2.6-5.3l-.4-.3-.3.3c-.3.3-.6.6-1.1.9l-.3.2.1.3s.1 1.5-4.1 4.2c-.1.1-2.3 1.5-2.6 1.8 0 0-.1.1-.2.1-.5.3-1.5.8-2 1.8-.1-.4-.3-.8-.4-1.2l-.5-2-.4 2.1c-.2 1.1-.2 2.5-.3 3.5v1c-.3.2-1.8.5-2.7.5" fill="#472e18"/><path d="M33.1 1c.7 0 1.2 0 1.7.1 1 .2 1.8.5 2 .8v.2l-.1.3-.5.5c-.3.3-.6.6-1 .9l-.5.4.1.5c0 .2-.4 1.5-3.8 3.8-.2.2-2.3 1.5-2.6 1.8 0 0-.1 0-.1.1-.3.2-1 .6-1.6 1.2 0-.1 0-.2-.1-.3l-1.1-4.1-.6 3c-.3-1.1-.5-2.9.6-5.2 1.7-3.5 5.4-3.9 5.6-3.9-.1 0 .9-.1 2-.1m-8.8 12.1v2.4c-.4.1-1 .3-1.6.3.1-.2.3-.5.5-.8.3-.3.7-1 1.1-1.9M33.1 0c-1.2 0-2.3.1-2.3.1s-4.3.4-6.3 4.4c-1.6 3.2-.8 5.7-.4 6.7-.6 1.3-1.2 2.6-1.7 3.3-1.2 1.6-1.3 2.2-.8 2.4h.4c1 0 3-.4 3.2-.8.2-.4-.1-2.8.3-4.6.4 1.5 1.1 2.7 1.1 2.7-.3-2 2-2.9 2.3-3.1.3-.2 2.6-1.8 2.6-1.8 4.6-3.1 4.3-4.8 4.3-4.8.5-.3.8-.7 1.1-1 1 .9 2.1 2.5 2.4 5.5 0 0 .7.5.8 1.1 0 0 .5-3-.4-4.8-.7-1.4-1.3-2.3-2.1-2.9.3-1.4-1.6-2-2.8-2.2-.5-.2-1.1-.2-1.7-.2z" fill="#382211"/><path d="M40 37H24l-4 10h24z" fill="#b6384d"/></svg>