<svg viewBox="0 0 64 64" xmlns="http://www.w3.org/2000/svg"><path d="M3 24.5c-.21 0-.39-.13-.47-.32s-.03-.41.13-.55l14-13c.04-.04.1-.08.15-.1l15-6c.06-.02.13-.03.19-.03s.13.01.19.04l15 6c.06.02.11.06.15.1l14 13c.15.14.2.36.13.55s-.26.31-.47.31H3" fill="#d9f1ff"/><path d="m32 5 15 6 14 13H3l14-13 15-6m0-1c-.13 0-.25.02-.37.07l-15 6c-.11.05-.22.11-.31.2l-14 13c-.3.28-.4.72-.25 1.1s.52.63.93.63h58c.41 0 .78-.25.93-.63s.05-.82-.25-1.1l-14-13c-.09-.08-.19-.15-.31-.2l-15-6A.937.937 0 0 0 32 4z" fill="#7aadcc"/><path d="m17 24.5-.5-.5V11l.5-.5h30l.5.5v13l-.5.5z" fill="#d9f1ff"/><path d="M47 11v13H17V11h30m0-1H17l-1 1v13l1 1h30l1-1V11l-1-1z" fill="#7aadcc"/><path d="M2.5 24.5h15v35h-15z" fill="#d9f1ff"/><path d="M17 25v34H3V25h14m1-1H2v36h16V24z" fill="#7aadcc"/><path d="M46.5 24.5h15v35h-15z" fill="#d9f1ff"/><path d="M61 25v34H47V25h14m1-1H46v36h16V24z" fill="#7aadcc"/><path d="M16.5 24.5h31v35h-31z" fill="#d9f1ff"/><path d="M47 25v34H17V25h30m1-1H16v36h32V24z" fill="#7aadcc"/><path d="M25.5 36.5h13v23h-13z" fill="#c99a61"/><path d="M38 37v22H26V37h12m1-1H25v24h14V36z" fill="#664b3d"/><g fill="#734a00"><path d="M35 47h2v1h-2zM36 49h1v1h-1z"/></g></svg>