<svg viewBox="0 0 64 64" xmlns="http://www.w3.org/2000/svg"><path d="M32 52.5c-1.52 0-3.03-.24-4.48-.71-3.68-1.2-6.68-3.76-8.44-7.21s-2.07-7.38-.87-11.06c1.95-6 7.49-10.02 13.79-10.02 1.52 0 3.03.24 4.48.71 3.68 1.2 6.68 3.76 8.44 7.21s2.07 7.38.87 11.06C43.84 48.48 38.3 52.5 32 52.5" fill="#f0f0f0"/><path d="M32 23v1c1.46 0 2.92.23 4.33.69 7.34 2.39 11.37 10.3 8.99 17.64a13.989 13.989 0 0 1-17.65 8.98c-7.34-2.39-11.37-10.3-8.99-17.64C20.57 27.89 25.92 24 32 24v-1m0 0c-6.32 0-12.2 4.03-14.26 10.37-2.56 7.88 1.75 16.34 9.63 18.9 1.54.5 3.1.73 4.63.73 6.32 0 12.2-4.03 14.26-10.37 2.56-7.88-1.75-16.34-9.63-18.9-1.54-.5-3.1-.73-4.63-.73" fill="#b4b4b4"/><path d="M4.03 37h10.03a18 18 0 0 1 2.83-8.75l-8.11-5.89A27.762 27.762 0 0 0 4.03 37" fill="#2e7de5"/><g fill="#c4cacc"><path d="M38.5 21.23c2.93 1.14 5.49 3.01 7.45 5.4l8.1-5.88a28.035 28.035 0 0 0-12.44-9.06l-3.11 9.54M47.12 28.25c1.65 2.55 2.65 5.53 2.83 8.75h10.03a27.85 27.85 0 0 0-4.75-14.64l-8.11 5.89M18.05 26.63c1.95-2.39 4.52-4.26 7.45-5.4l-3.1-9.54a28.035 28.035 0 0 0-12.44 9.06l8.09 5.88M27.4 20.62c1.47-.39 3.01-.62 4.6-.62s3.13.23 4.6.62l3.1-9.54a27.975 27.975 0 0 0-15.4 0l3.1 9.54"/></g><g opacity=".6"><g fill="#1a171b"><path d="m20.86 36.95-2.81-.15-.05.93 2.8.15c0-.31.03-.62.06-.93M28.54 48.65c-.15-.05-.29-.11-.44-.17l-.87 2.69.89.29.87-2.69c-.15-.04-.3-.07-.45-.12M20.96 39.87l-2.75.59.19.91 2.76-.59c-.08-.3-.15-.6-.2-.91M23.38 45.13l-2.09 1.89.62.69L24 45.83c-.22-.22-.42-.46-.62-.7M25.51 47.13l-1.53 2.35.79.52 1.53-2.36c-.27-.16-.53-.33-.79-.51M21.83 42.66l-2.51 1.28.42.83 2.51-1.28c-.15-.27-.29-.55-.42-.83M30.13 26.96l-.59-2.75-.91.19.59 2.76c.3-.08.6-.15.91-.2M33.05 26.86l.15-2.81-.93-.05-.15 2.8c.31 0 .62.03.93.06M27.34 27.83l-1.28-2.51-.83.42 1.28 2.51c.27-.15.55-.29.83-.42M24.87 29.38l-1.89-2.09-.69.62L24.17 30c.22-.22.46-.42.7-.62M22.87 31.51l-2.35-1.53-.52.79 2.36 1.53c.16-.27.33-.53.51-.79"/></g><path d="M29.06 37.04c.1-.32.27-.61.4-.92L19 32.72l-.62 1.9 10.46 3.4c.08-.32.12-.65.22-.98"/><g fill="#1a171b"><path d="m40.62 30.87 2.09-1.89-.62-.69L40 30.17c.22.22.42.46.62.7M43.14 39.05l2.81.15.05-.93-2.8-.15c0 .31-.03.62-.06.93M43.04 36.13l2.75-.59-.19-.91-2.76.59c.08.3.15.6.2.91M42.17 33.34l2.51-1.28-.42-.83-2.51 1.28c.15.27.29.55.42.83M38.49 28.87l1.53-2.35-.79-.52-1.53 2.36c.27.16.53.33.79.51M35.01 27.23c.15.04.3.07.45.12s.29.11.44.17l.87-2.69-.89-.29-.87 2.69M39.13 46.62l1.89 2.09.69-.62L39.83 46c-.22.22-.46.42-.7.62M33.87 49.04l.59 2.75.91-.19-.59-2.76c-.3.08-.6.15-.91.2M42.65 41.46c-.05.15-.11.29-.17.44l2.69.87.29-.89-2.69-.87c-.04.15-.07.3-.12.45M36.66 48.17l1.28 2.51.83-.42-1.28-2.51c-.27.15-.55.29-.83.42M41.13 44.49l2.35 1.53.52-.79-2.36-1.53c-.16.27-.33.53-.51.79M30.95 49.14l-.15 2.81.93.05.15-2.8c-.31 0-.62-.03-.93-.06"/></g></g></svg>