<svg viewBox="0 0 64 64" xmlns="http://www.w3.org/2000/svg"><path d="M32.01 52.5c-4.63 0-9.02-2.23-11.74-5.98-4.7-6.47-3.26-15.55 3.21-20.25 2.49-1.81 5.44-2.77 8.51-2.77 4.63 0 9.02 2.23 11.74 5.98 4.7 6.47 3.26 15.55-3.21 20.25a14.38 14.38 0 0 1-8.51 2.77" fill="#f0f0f0"/><path d="M31.99 24c4.47 0 8.71 2.16 11.34 5.77 2.2 3.03 3.09 6.73 2.5 10.42-.58 3.69-2.57 6.94-5.6 9.14A13.896 13.896 0 0 1 32.01 52c-4.47 0-8.71-2.16-11.34-5.77-2.2-3.03-3.09-6.73-2.5-10.42.58-3.69 2.57-6.94 5.6-9.14 2.41-1.75 5.25-2.67 8.22-2.67m0-1c-3.06 0-6.14.93-8.8 2.87-6.7 4.87-8.19 14.25-3.32 20.95C22.8 50.86 27.37 53 32.01 53c3.06 0 6.14-.93 8.8-2.87 6.7-4.87 8.19-14.25 3.32-20.95C41.2 25.14 36.63 23 31.99 23z" fill="#b4b4b4"/><path d="M4.03 37h10.03a18 18 0 0 1 2.83-8.75l-8.11-5.89A27.762 27.762 0 0 0 4.03 37" fill="#2e7de5"/><g fill="#c4cacc"><path d="M38.5 21.23c2.93 1.14 5.49 3.01 7.45 5.4l8.1-5.88a28.035 28.035 0 0 0-12.44-9.06l-3.11 9.54M47.12 28.25c1.65 2.55 2.65 5.53 2.83 8.75h10.03a27.85 27.85 0 0 0-4.75-14.64l-8.11 5.89"/></g><path d="M18.05 26.63c1.95-2.39 4.52-4.26 7.45-5.4l-3.1-9.54a28.035 28.035 0 0 0-12.44 9.06l8.09 5.88" fill="#00c83c"/><path d="M27.4 20.62c1.47-.39 3.01-.62 4.6-.62s3.13.23 4.6.62l3.1-9.54a27.975 27.975 0 0 0-15.4 0l3.1 9.54" fill="#c4cacc"/><g opacity=".6"><g fill="#1a171b"><path d="m23.6 30.6-2.19-1.77-.59.73L23 31.33c.19-.26.39-.5.6-.73M22.94 44.58c-.09-.13-.17-.26-.26-.39l-2.28 1.66.55.76 2.28-1.66c-.09-.13-.2-.24-.29-.37M21.97 33.02l-2.57-1.14-.38.85 2.58 1.15c.11-.29.23-.58.37-.86M20.83 38.7l-2.8.3.1.93 2.8-.29c-.05-.32-.08-.63-.1-.94M21.38 41.58l-2.62 1.01.33.87 2.63-1.01c-.12-.29-.24-.58-.34-.87M21.03 35.79l-2.79-.44-.15.92 2.79.44c.04-.31.09-.61.15-.92M36.98 27.97l1.14-2.57-.85-.38-1.15 2.58c.29.11.58.23.86.37M39.4 29.6l1.77-2.19-.73-.59L38.67 29c.26.19.5.39.73.6M34.21 27.03l.44-2.79-.92-.15-.44 2.79c.31.04.61.09.92.15M31.3 26.83l-.3-2.8-.93.1.29 2.8c.32-.05.63-.08.94-.1M28.42 27.38l-1.01-2.62-.87.33 1.01 2.63c.29-.12.58-.24.87-.34"/></g><path d="M30.18 35.5c.27-.2.58-.34.86-.51l-6.47-8.9-1.62 1.18 6.47 8.9c.26-.23.49-.47.76-.67"/><g fill="#1a171b"><path d="m43.17 37.3 2.8-.29-.1-.93-2.8.29c.05.31.08.62.1.93M40.4 45.4l2.19 1.77.59-.73L41 44.67c-.19.26-.39.5-.6.73M42.03 42.98l2.57 1.14.38-.85-2.58-1.15c-.11.29-.23.58-.37.86M42.97 40.21l2.79.44.15-.92-2.79-.44c-.04.31-.09.61-.15.92M42.62 34.42l2.62-1.01-.33-.87-2.63 1.01c.12.29.24.58.34.87M40.77 31.05c.1.12.2.24.29.36s.17.26.26.39l2.28-1.66-.55-.76-2.28 1.67M32.7 49.17l.29 2.8.93-.1-.29-2.8c-.31.05-.62.08-.93.1M27.02 48.03l-1.14 2.57.85.38 1.15-2.58c-.29-.11-.58-.23-.86-.37M38.58 47.06c-.13.09-.26.17-.39.26l1.66 2.28.76-.55-1.66-2.28c-.13.09-.24.2-.37.29M29.79 48.97l-.44 2.79.92.15.44-2.79c-.31-.04-.61-.09-.92-.15M35.58 48.62l1.01 2.62.87-.33-1.01-2.63c-.29.12-.58.24-.87.34M24.6 46.4l-1.77 2.19.73.59L25.33 47c-.26-.19-.5-.39-.73-.6"/></g></g></svg>