<svg viewBox="0 0 64 64" xmlns="http://www.w3.org/2000/svg"><path d="M32 52.5c-8 0-14.5-6.5-14.5-14.5S24 23.5 32 23.5 46.5 30 46.5 38 40 52.5 32 52.5z" fill="#f0f0f0"/><path d="M32 24c7.72 0 14 6.28 14 14s-6.28 14-14 14-14-6.28-14-14 6.28-14 14-14m0-1c-8.28 0-15 6.72-15 15s6.72 15 15 15 15-6.72 15-15-6.72-15-15-15z" fill="#b4b4b4"/><path d="M4.03 37h10.03a18 18 0 0 1 2.83-8.75l-8.11-5.89A27.762 27.762 0 0 0 4.03 37" fill="#2e7de5"/><g fill="#c4cacc"><path d="M38.5 21.23c2.93 1.14 5.49 3.01 7.45 5.4l8.1-5.88a28.035 28.035 0 0 0-12.44-9.06l-3.11 9.54M47.12 28.25c1.65 2.55 2.65 5.53 2.83 8.75h10.03a27.85 27.85 0 0 0-4.75-14.64l-8.11 5.89"/></g><path d="M18.05 26.63c1.95-2.39 4.52-4.26 7.45-5.4l-3.1-9.54a28.035 28.035 0 0 0-12.44 9.06l8.09 5.88" fill="#00c83c"/><path d="M27.4 20.62c1.47-.39 3.01-.62 4.6-.62s3.13.23 4.6.62l3.1-9.54a27.975 27.975 0 0 0-15.4 0l3.1 9.54" fill="#ffd200"/><g opacity=".6"><g fill="#1a171b"><path d="m29.56 27.08-.73-2.72-.9.24.73 2.71c.29-.09.59-.17.9-.23M20.8 38c0-.16.02-.31.02-.47H18v.93h2.82c0-.15-.02-.3-.02-.46M26.81 28.08l-1.41-2.44-.81.47L26 28.55c.27-.17.53-.33.81-.47M22.55 32.01l-2.44-1.41-.47.81 2.44 1.41c.14-.29.3-.55.47-.81M21.31 34.65l-2.71-.73-.24.9 2.72.73c.06-.3.14-.6.23-.9M24.43 29.77l-2-2-.66.66 2 2c.21-.23.43-.45.66-.66M41.92 32.81l2.44-1.41-.47-.81L41.45 32c.17.27.33.53.47.81M42.92 35.56l2.72-.73-.24-.9-2.71.73c.09.29.17.59.23.9M40.23 30.43l2-2-.66-.66-2 2c.23.21.45.43.66.66M37.99 28.55l1.41-2.44-.81-.47-1.41 2.44c.29.14.55.3.81.47M35.35 27.31l.73-2.71-.9-.24-.73 2.72c.3.06.6.14.9.23"/></g><path d="M32 34.91c.34 0 .67.07 1 .09V24h-2v11c.33-.03.66-.09 1-.09"/><g fill="#1a171b"><path d="m41.45 43.99 2.44 1.41.47-.81-2.44-1.41c-.14.29-.3.55-.47.81M34.44 48.92l.73 2.72.9-.24-.73-2.71c-.29.09-.59.17-.9.23M37.19 47.92l1.41 2.44.81-.47L38 47.45c-.27.17-.53.33-.81.47M39.57 46.23l2 2 .66-.66-2-2c-.21.23-.43.45-.66.66M42.69 41.35l2.71.73.24-.9-2.72-.73c-.06.3-.14.6-.23.9M43.18 37.53c.01.16.02.31.02.47s-.02.31-.02.47H46v-.93h-2.82zM26.01 47.45l-1.41 2.44.81.47 1.41-2.44c-.29-.14-.55-.3-.81-.47M22.08 43.19l-2.44 1.41.47.81L22.55 44c-.17-.27-.33-.53-.47-.81M32 49.2c-.16 0-.31-.02-.47-.02V52h.93v-2.82c-.15 0-.3.02-.46.02M23.77 45.57l-2 2 .66.66 2-2c-.23-.21-.45-.43-.66-.66M28.65 48.69l-.73 2.71.9.24.73-2.72c-.3-.06-.6-.14-.9-.23M21.08 40.44l-2.72.73.24.9 2.71-.73c-.09-.29-.17-.59-.23-.9"/></g></g></svg>