<svg viewBox="0 0 64 64" xmlns="http://www.w3.org/2000/svg"><path d="M32 52.5c-6.3 0-11.84-4.03-13.79-10.02-1.2-3.68-.89-7.61.87-11.06s4.76-6.01 8.44-7.21c1.46-.47 2.97-.71 4.48-.71 6.3 0 11.84 4.03 13.79 10.02 1.2 3.68.89 7.61-.87 11.06s-4.76 6.01-8.44 7.21c-1.46.47-2.97.71-4.48.71" fill="#f0f0f0"/><path d="M32 24c6.08 0 11.43 3.89 13.31 9.68 1.16 3.56.86 7.35-.84 10.68s-4.59 5.8-8.15 6.96c-1.4.45-2.86.68-4.32.68-6.08 0-11.43-3.89-13.31-9.68-1.16-3.56-.86-7.35.84-10.68s4.59-5.8 8.15-6.96c1.4-.45 2.86-.68 4.32-.68m0-1c-1.54 0-3.1.24-4.64.74-7.88 2.56-12.19 11.02-9.63 18.9C19.79 48.97 25.67 53 32 53c1.54 0 3.1-.24 4.64-.74 7.88-2.56 12.19-11.02 9.63-18.9C44.21 27.03 38.33 23 32 23z" fill="#b4b4b4"/><path d="M4.03 37h10.03a18 18 0 0 1 2.83-8.75l-8.11-5.89A27.762 27.762 0 0 0 4.03 37" fill="#2e7de5"/><path d="M38.5 21.23c2.93 1.14 5.49 3.01 7.45 5.4l8.1-5.88a28.035 28.035 0 0 0-12.44-9.06l-3.11 9.54" fill="#ff6400"/><path d="M47.12 28.25c1.65 2.55 2.65 5.53 2.83 8.75h10.03a27.85 27.85 0 0 0-4.75-14.64l-8.11 5.89" fill="#f00014"/><path d="M18.05 26.63c1.95-2.39 4.52-4.26 7.45-5.4l-3.1-9.54a28.035 28.035 0 0 0-12.44 9.06l8.09 5.88" fill="#00c83c"/><path d="M27.4 20.62c1.47-.39 3.01-.62 4.6-.62s3.13.23 4.6.62l3.1-9.54a27.975 27.975 0 0 0-15.4 0l3.1 9.54" fill="#ffd200"/><g opacity=".6"><g fill="#1a171b"><path d="M41.63 32.3 44 30.77l-.51-.78-2.35 1.53c.17.25.34.51.49.78M28.54 27.35c.15-.05.3-.08.45-.12l-.87-2.69-.89.29.87 2.69c.15-.06.29-.12.44-.17M39.83 30l1.88-2.09-.69-.62-1.89 2.09c.24.2.48.4.7.62M34.78 27.16l.59-2.76-.91-.19-.59 2.75c.31.05.61.12.91.2M31.88 26.8l-.15-2.8-.93.05.15 2.81c.31-.03.62-.06.93-.06M37.49 28.25l1.28-2.51-.83-.42-1.28 2.51c.28.13.56.27.83.42M40 45.83l2.09 1.88.62-.69-2.09-1.89c-.2.24-.4.48-.62.7M37.7 47.63 39.23 50l.78-.51-1.53-2.35c-.25.17-.51.34-.78.49M41.75 43.49l2.51 1.28.42-.83-2.51-1.28c-.13.28-.27.56-.42.83M42.84 40.78l2.76.59.19-.91-2.75-.59c-.05.31-.12.61-.2.91M43.2 37.88l2.8-.15-.05-.93-2.81.15c.03.31.06.62.06.93"/></g><path d="M34.94 37.04c.1.32.14.65.22.98l10.46-3.4-.62-1.9-10.46 3.4c.13.31.3.6.4.92"/><g fill="#1a171b"><path d="m29.22 48.84-.59 2.76.91.19.59-2.75c-.31-.05-.61-.12-.91-.2M22.37 43.7 20 45.23l.51.78 2.35-1.53c-.17-.25-.34-.51-.49-.78M24.17 46l-1.88 2.09.69.62 1.89-2.09c-.24-.2-.48-.4-.7-.62M26.51 47.75l-1.28 2.51.83.42 1.28-2.51c-.28-.13-.56-.27-.83-.42M32.12 49.2l.15 2.8.93-.05-.15-2.81c-.31.03-.62.06-.93.06M35.9 48.49c-.15.05-.29.12-.44.17s-.3.08-.45.12l.87 2.69.89-.29-.87-2.69M21.16 35.22l-2.76-.59-.19.91 2.75.59c.05-.31.12-.61.2-.91M24 30.17l-2.09-1.88-.62.69 2.09 1.89c.2-.24.4-.48.62-.7M21.35 41.46c-.05-.15-.08-.3-.12-.45l-2.69.87.29.89 2.69-.87c-.06-.15-.12-.29-.17-.44M22.25 32.51l-2.51-1.28-.42.83 2.51 1.28c.13-.28.27-.56.42-.83M20.8 38.12l-2.8.15.05.93 2.81-.15c-.03-.31-.06-.62-.06-.93M26.3 28.37 24.77 26l-.78.51 1.53 2.35c.25-.17.51-.34.78-.49"/></g></g></svg>