<svg viewBox="0 0 64 64" xmlns="http://www.w3.org/2000/svg"><path d="M31.99 52.5c-3.07 0-6.02-.96-8.51-2.77-6.47-4.7-7.91-13.79-3.21-20.25 2.72-3.74 7.11-5.98 11.74-5.98 3.07 0 6.02.96 8.51 2.77 6.47 4.7 7.91 13.79 3.21 20.25a14.538 14.538 0 0 1-11.74 5.98" fill="#f0f0f0"/><path d="M32.01 24c2.97 0 5.81.92 8.22 2.67 3.03 2.2 5.01 5.44 5.6 9.14s-.3 7.39-2.5 10.42A14.078 14.078 0 0 1 31.99 52c-2.97 0-5.81-.92-8.22-2.67-3.03-2.2-5.01-5.44-5.6-9.14s.3-7.39 2.5-10.42C23.3 26.16 27.54 24 32.01 24m0-1c-4.64 0-9.21 2.14-12.15 6.18-4.87 6.7-3.38 16.08 3.32 20.95 2.66 1.93 5.75 2.87 8.8 2.87 4.64 0 9.21-2.14 12.15-6.18 4.87-6.7 3.38-16.08-3.32-20.95a14.873 14.873 0 0 0-8.8-2.87z" fill="#b4b4b4"/><path d="M4.03 37h10.03a18 18 0 0 1 2.83-8.75l-8.11-5.89A27.762 27.762 0 0 0 4.03 37" fill="#2e7de5"/><path d="M38.5 21.23c2.93 1.14 5.49 3.01 7.45 5.4l8.1-5.88a28.035 28.035 0 0 0-12.44-9.06l-3.11 9.54" fill="#ff6400"/><path d="M47.12 28.25c1.65 2.55 2.65 5.53 2.83 8.75h10.03a27.85 27.85 0 0 0-4.75-14.64l-8.11 5.89" fill="#c4cacc"/><path d="M18.05 26.63c1.95-2.39 4.52-4.26 7.45-5.4l-3.1-9.54a28.035 28.035 0 0 0-12.44 9.06l8.09 5.88" fill="#00c83c"/><path d="M27.4 20.62c1.47-.39 3.01-.62 4.6-.62s3.13.23 4.6.62l3.1-9.54a27.975 27.975 0 0 0-15.4 0l3.1 9.54" fill="#ffd200"/><g opacity=".6"><g fill="#1a171b"><path d="m36.44 27.73 1.01-2.63-.87-.33-1.01 2.62c.3.09.59.21.87.34M22.94 31.42c.09-.13.2-.24.29-.36l-2.28-1.66-.55.76 2.28 1.66c.09-.14.17-.28.26-.4M33.63 26.92l.29-2.8-.92-.09-.29 2.8c.3.02.61.05.92.09M27.88 27.6l-1.15-2.58-.85.38 1.14 2.57c.28-.14.57-.26.86-.37M25.32 29.01l-1.77-2.18-.73.59 1.77 2.19c.24-.22.48-.42.73-.6M30.71 26.89l-.44-2.79-.92.15.44 2.79c.31-.07.61-.12.92-.15M43.08 39.63l2.8.29.1-.93-2.8-.29c-.03.31-.06.62-.1.93M42.27 42.44l2.63 1.01.33-.87-2.62-1.01c-.09.3-.21.59-.34.87M43.11 36.71l2.79-.44-.15-.92-2.79.44c.07.31.12.61.15.92M42.4 33.88l2.58-1.15-.38-.85-2.57 1.14c.14.28.26.57.37.86M40.99 31.32l2.18-1.77-.59-.73-2.18 1.78c.21.23.41.47.59.72"/></g><path d="M33.82 35.5c.27.2.5.45.76.66l6.47-8.9-1.62-1.18-6.47 8.9c.28.18.58.32.86.52"/><g fill="#1a171b"><path d="m36.12 48.4 1.15 2.58.85-.38-1.14-2.57c-.28.14-.57.26-.86.37M27.56 48.27l-1.01 2.63.87.33 1.01-2.62c-.3-.09-.59-.21-.87-.34M30.37 49.08l-.29 2.8.93.1.29-2.8c-.31-.03-.62-.06-.93-.1M33.29 49.11l.44 2.79.92-.15-.44-2.79c-.31.07-.61.12-.92.15M38.68 46.99l1.77 2.18.73-.59-1.78-2.18c-.23.21-.47.41-.72.59M41.32 44.19c-.09.13-.16.26-.26.39s-.2.24-.29.36l2.28 1.66.55-.76-2.28-1.65M21.6 42.12l-2.58 1.15.38.85 2.57-1.14c-.14-.28-.26-.57-.37-.86M20.92 36.37l-2.8-.29-.09.92 2.8.29c.02-.3.05-.61.09-.92M25.42 47.06c-.13-.09-.24-.2-.36-.29l-1.66 2.28.76.55 1.66-2.28c-.14-.09-.28-.17-.4-.26M20.89 39.29l-2.79.44.15.92 2.79-.44c-.07-.31-.12-.61-.15-.92M23.01 44.68l-2.18 1.77.59.73 2.19-1.77c-.22-.24-.42-.48-.6-.73M21.73 33.56l-2.63-1.01-.33.87 2.62 1.01c.09-.3.21-.59.34-.87"/></g></g></svg>