<svg viewBox="0 0 64 64" xmlns="http://www.w3.org/2000/svg"><path d="M24 52.5C11 52.5.5 42 .5 29S11 5.5 24 5.5 47.5 16 47.5 29 37 52.5 24 52.5z" fill="#f0f0f0"/><path d="M24 6c12.7 0 23 10.3 23 23S36.7 52 24 52 1 41.7 1 29 11.3 6 24 6m0-1C10.7 5 0 15.7 0 29s10.7 24 24 24 24-10.7 24-24S37.3 5 24 5z" fill="#b4b4b4"/><path d="M51.1 58.5c-.1 0-.3 0-.4-.1-.3 0-.7-.1-.9-.2h-.1c-4.8-.9-8.9-5.7-9.1-10.8v-1.5c.1-.9.3-1.9.7-2.9.4-.8.8-1.6 1.2-2.2l1.5-2.1c3.4-4.2 6.1-8.3 8.1-12.5l.2.4c2 5.1 5.3 9.4 8 12.6.3.5.7 1 1.1 1.5.5.8 1.1 1.8 1.6 2.8.3.7.5 1.6.6 2.6v1.4c0 .2-.1.3-.1.5v.5c-.5 4.7-4.5 9-9 9.8h-.1c-.3.1-.6.1-.9.2-.2 0-.3 0-.5.1h-1.9z" fill="#1e82ff"/><path d="M52.1 27.4c2.1 4.9 5.2 9 7.7 12.1.3.5.7 1 1.1 1.5.5.8 1.1 1.8 1.5 2.7.3.7.4 1.5.6 2.4v1.3c0 .2-.1.4-.1.5v.2l-.1.1v.1c-.5 4.5-4.3 8.6-8.6 9.4H54c-.2.1-.5.1-.8.1-.2 0-.3 0-.5.1H51c-.1 0-.3 0-.5-.1-.3 0-.6-.1-.8-.1h-.2c-4.6-.8-8.5-5.4-8.7-10.3V46c.1-.9.3-1.9.7-2.8.4-.8.8-1.5 1.2-2.2l1.5-2.1c3.3-3.8 5.9-7.6 7.9-11.5m0-2.4c-2.2 4.8-5.2 9.3-8.6 13.4L42 40.5c-.5.7-.9 1.5-1.3 2.3-.4 1-.6 2.1-.8 3.1v1.6c.2 5.3 4.4 10.4 9.5 11.3.5.2 1.1.2 1.6.3h1.8c.5-.1 1.1-.1 1.6-.3 4.8-.9 8.9-5.3 9.4-10.3.1-.3 0-.7.1-1V46c-.1-.9-.3-1.9-.6-2.7-.5-1-1-2-1.6-2.9-.4-.5-.8-1-1.1-1.5-3.2-3.8-6.1-7.9-7.9-12.5l-.6-1.4z" fill="#1271d8"/><path d="m38.4 16.7-2.8 2.8c2.1 2.6 3.4 5.9 3.4 9.5 0 4.1-1.7 7.9-4.4 10.6l2.8 2.8C40.9 39 43 34.2 43 29c0-4.7-1.7-9-4.6-12.3" fill="#2e7de5"/><path d="m12.4 19.5-2.8-2.8C6.7 20 5 24.3 5 29c0 5.2 2.1 10 5.6 13.4l2.8-2.8C10.7 36.9 9 33.1 9 29c0-3.6 1.3-6.9 3.4-9.5z" fill="#f00014"/><path d="M24 10c-4.7 0-9 1.7-12.3 4.6l2.8 2.8c2.6-2.1 5.9-3.4 9.5-3.4s6.9 1.3 9.5 3.4l2.8-2.8C33 11.7 28.7 10 24 10" fill="#00c83c"/><g fill="#1a171b" opacity=".6"><path d="m14.4 31.6-2.9.9.3 1 2.9-.9c-.2-.4-.3-.7-.3-1M16.6 35.7l-2.1 2.1.7.7 2.1-2.1-.7-.7M19.9 19.9l-1.4-2.7-.9.5 1.4 2.7c.3-.2.6-.4.9-.5M16.2 22.7 13.8 21l-.6.8 2.4 1.8.6-.9M14.2 26.9l-3-.5-.2 1 3 .5c.1-.3.1-.6.2-1M32.4 23.5l2.4-1.8-.6-.7-2.4 1.8c.2.2.4.5.6.7M24 19h.5v-3h-1v3h.5M29 20.3l1.4-2.7-.9-.5-1.4 2.7c.3.2.6.4.9.5M33.9 27.9l3-.5-.2-1-3 .5c.2.4.2.7.2 1M33.6 31.6c-.1.3-.2.6-.3 1l2.9.9.3-1-2.9-.9M30.7 36.4l2.1 2.1.7-.7-2.1-2.1-.7.7"/></g><g fill="#1a171b"><path d="M24 28.9c.2 0 1.8.5 1.9.6L27 16.4l-5 12.1c.2 0 1.9.3 2 .4"/><circle cx="24" cy="29" r="2"/></g><path d="M22.7 40.8c.4.4.6.8.6 1.3s-.2 1-.6 1.3c-.4.4-.8.6-1.3.6s-1-.2-1.3-.6c-.4-.4-.6-.8-.6-1.3s.2-1 .6-1.3c.4-.4.8-.6 1.3-.6.4 0 .9.2 1.3.6m-.6 2.1c.2-.2.3-.5.3-.8 0-.3-.1-.6-.3-.8-.2-.2-.5-.3-.8-.3-.3 0-.6.1-.8.3-.2.2-.3.5-.3.8 0 .3.1.6.3.8.2.2.5.3.8.3.3 0 .6-.1.8-.3m3.8-2.9h.6l-4.4 8h-.6l4.4-8m2.1 4.5c.4.4.6.8.6 1.3s-.2 1-.6 1.3c-.4.4-.8.6-1.3.6s-1-.2-1.3-.6c-.4-.4-.6-.8-.6-1.3s.2-1 .6-1.3c.4-.4.8-.6 1.3-.6.5.1 1 .3 1.3.6m-.5 2.2c.2-.2.3-.5.3-.8s-.1-.6-.3-.8-.5-.3-.8-.3c-.3 0-.6.1-.8.3s-.3.5-.3.8.1.6.3.8.5.3.8.3c.3 0 .6-.1.8-.3" fill="#1a171b" opacity=".6"/></svg>