<svg viewBox="0 0 64 64" xmlns="http://www.w3.org/2000/svg"><path d="M32 61.5C15.7 61.5 2.5 48.3 2.5 32S15.7 2.5 32 2.5 61.5 15.7 61.5 32 48.3 61.5 32 61.5z" fill="#f0f0f0"/><path d="M32 3c16 0 29 13 29 29S48 61 32 61 3 48 3 32 16 3 32 3m0-1C15.4 2 2 15.4 2 32s13.4 30 30 30 30-13.4 30-30S48.6 2 32 2z" fill="#b4b4b4"/><path d="m50.1 16.6-3.5 3.5c2.6 3.2 4.2 7.4 4.2 11.9 0 5.2-2.1 9.9-5.5 13.3l3.5 3.5c4.3-4.3 7-10.2 7-16.8-.1-5.9-2.2-11.3-5.7-15.4" fill="#2e7de5"/><path d="M17.5 20.1 14 16.6c-3.5 4.1-5.7 9.5-5.7 15.4 0 6.6 2.7 12.5 7 16.8l3.5-3.5c-3.4-3.4-5.5-8.1-5.5-13.3-.1-4.5 1.5-8.6 4.2-11.9" fill="#f00014"/><path d="M32 8.2c-5.9 0-11.3 2.2-15.4 5.7l3.5 3.5c3.2-2.6 7.4-4.2 11.9-4.2s8.6 1.6 11.9 4.2l3.5-3.5c-4.1-3.5-9.5-5.7-15.4-5.7" fill="#00c83c"/><g fill="#1a171b" opacity=".6"><path d="m19.9 35.3-3.6 1.2.4 1.2 3.6-1.2c-.1-.4-.2-.8-.4-1.2M22.7 40.4 20.1 43l.9.9 2.7-2.7c-.4-.2-.7-.5-1-.8M26.9 20.6l-1.7-3.4-1.1.6 1.7 3.4c.3-.2.7-.4 1.1-.6M22.3 24.2 19.2 22l-.7 1 3.1 2.2c.2-.4.4-.7.7-1M19.8 29.4l-3.8-.6-.2 1.2 3.7.6.3-1.2M42.5 25.2l3.1-2.2-.7-1-3.1 2.2c.2.3.4.6.7 1M32 19.5h.6v-3.8h-1.2v3.8h.6M38.2 21.2l1.7-3.4-1.1-.6-1.7 3.4c.4.2.8.4 1.1.6M44.4 30.7l3.7-.6-.1-1.3-3.7.6c0 .4.1.8.1 1.3M44.1 35.3c-.1.4-.2.8-.4 1.2l3.6 1.2.4-1.2-3.6-1.2M40.4 41.3l2.7 2.7.9-.9-2.7-2.7-.9.9"/></g><g fill="#1a171b"><path d="M32 10.7 29.5 32c.2 0 2.3-.1 2.5-.1.2 0 2.3.1 2.5.1L32 10.7"/><circle cx="32" cy="32" r="2.5"/></g><path d="M30.3 46.7c.5.5.7 1 .7 1.7s-.2 1.2-.7 1.7c-.5.5-1 .7-1.7.7s-1.2-.2-1.7-.7-.7-1-.7-1.7.2-1.2.7-1.7c.5-.5 1-.7 1.7-.7s1.3.2 1.7.7m-.7 2.7c.3-.3.4-.6.4-1s-.1-.7-.4-1c-.3-.3-.6-.4-1-.4s-.7.1-1 .4c-.3.3-.4.6-.4 1s.1.7.4 1c.3.3.6.4 1 .4s.8-.1 1-.4m4.8-3.6h.8l-5.5 10h-.8l5.5-10m2.6 5.6c.5.5.7 1 .7 1.7s-.2 1.2-.7 1.7c-.5.5-1 .7-1.7.7s-1.2-.2-1.7-.7c-.5-.5-.7-1-.7-1.7s.2-1.2.7-1.7c.5-.5 1-.7 1.7-.7s1.3.3 1.7.7m-.7 2.7c.3-.3.4-.6.4-1s-.1-.7-.4-1-.6-.4-1-.4-.7.1-1 .4c-.3.3-.4.6-.4 1s.1.7.4 1c.3.3.6.4 1 .4s.8-.1 1-.4" fill="#1a171b" opacity=".6"/></svg>