<svg viewBox="0 0 64 64" xmlns="http://www.w3.org/2000/svg"><path d="M.5 49.5v-7h.2l.05-.44C2.71 26.35 16.15 14.5 32 14.5s29.29 11.85 31.25 27.56l.05.44h.2v7H.5m31.5-28c-12.01 0-22.17 8.59-24.16 20.42l-.1.58h48.51l-.1-.58C54.17 30.09 44.01 21.5 32 21.5" fill="#e6f3ff"/><path d="M32 15c15.6 0 28.82 11.66 30.75 27.12l.11.88H63v6H1v-6h.14l.11-.88C3.18 26.66 16.4 15 32 15M7.16 43h49.68l-.2-1.17C54.62 29.76 44.26 21 32 21S9.38 29.76 7.35 41.83L7.16 43M32 14C15.68 14 2.23 26.22.26 42H0v8h64v-8h-.26C61.77 26.22 48.32 14 32 14zM8.34 42C10.24 30.65 20.11 22 32 22s21.76 8.65 23.66 20H8.34z" fill="#c0e4ff"/><g fill="none" stroke="#1a171b" stroke-miterlimit="10" stroke-width=".5"><path d="M28.5 47v2M20.5 47v2M51.5 47v2M43.5 47v2M59.5 47v2M4.5 47v2M12.5 47v2M35.5 47v2" opacity=".4"/></g><path d="m26.57 15.47 1.04 5.85m-6.26-4.46 2.05 5.58m-6.94-3.31 3 5.15m-7.42-2.07 3.86 4.55m-7.68-.75 4.6 3.82m-7.69.58 5.19 2.97m-7.48 1.9 5.64 2.03m-7.03 3.16 5.91 1.03m55.09-1.03-5.91 1.03m4.51-6.22-5.64 2.03m3.36-6.9-5.19 2.97m2.09-7.37-4.6 3.82m.78-7.62L48 26.76m-.57-7.63-3 5.15m-1.89-7.42-2.05 5.58m-3.17-6.97-1.04 5.85M31.95 15v5.94" fill="none" stroke="#000" stroke-miterlimit="10" stroke-width=".5" opacity=".4"/><path d="M32 44.5c.55 0 1 .45 1 1s-.45 1-1 1-1-.45-1-1 .45-1 1-1m0-.5c-.83 0-1.5.67-1.5 1.5S31.17 47 32 47s1.5-.67 1.5-1.5S32.83 44 32 44z" fill="#1a171b" opacity=".6"/><g fill="none" stroke="#1a171b" stroke-miterlimit="10" stroke-width=".5"><path d="M3 45.5h26M35 45.5h26" opacity=".15"/></g></svg>