<svg viewBox="0 0 64 64" xmlns="http://www.w3.org/2000/svg"><path d="M2.5 43.5v-23h35.29L49.29 32l-11.5 11.5H2.5m39.5-15c-1.93 0-3.5 1.57-3.5 3.5s1.57 3.5 3.5 3.5 3.5-1.57 3.5-3.5-1.57-3.5-3.5-3.5" fill="#1e82ff"/><path d="m37.59 21 11 11-11 11H3V21h34.59M42 36c2.21 0 4-1.79 4-4s-1.79-4-4-4-4 1.79-4 4 1.79 4 4 4m-4-16H2v24h36l12-12-12-12zm4 15c-1.66 0-3-1.34-3-3s1.34-3 3-3 3 1.34 3 3-1.34 3-3 3" fill="#1271d8"/><path d="M44.45 38.55C46.29 40.66 48.98 42 52 42c5.52 0 10-4.48 10-10s-4.48-10-10-10-10 4.48-10 10c0 .68.07 1.34.2 1.98" fill="none" stroke="#b4b4b4" stroke-linecap="round" stroke-linejoin="round" stroke-miterlimit="10" stroke-width="2"/><path d="M5.5 23.5h29v17h-29z" fill="#ececed"/><path d="M34 24v16H6V24h28m1-1H5v18h30V23z" fill="#9b9c9e"/><g fill="#646464"><path d="M9 28h22v2H9zM9 34h16v2H9z"/></g></svg>