<svg viewBox="0 0 64 64" xmlns="http://www.w3.org/2000/svg"><path d="m10.92 3.96-.12.21c.15.18.29.36.45.53.52.54 1.07 1.06 1.58 1.61 4.16 4.42 7.03 9.63 9.18 15.24 3.27 8.53 4.82 17.43 5.5 26.49.29 3.86.32 7.75.47 11.62 0 .12.04.24.05.35h8.09v-.48c-.04-4.99-.35-9.95-1.08-14.89-.79-5.34-2.02-10.56-3.89-15.63-2.51-6.81-5.98-13.05-10.97-18.37-2.14-2.28-4.49-4.3-7.23-5.81-.64-.35-1.35-.58-2.03-.87M40.9 60.02h8.38v-.87c.07-4.45.44-8.88 1.31-13.25 1.1-5.53 2.84-10.83 5.61-15.75 1.07-1.9 2.3-3.71 3.44-5.58.18-.31.25-.69.37-1.03-.38.07-.79.07-1.13.23-1.75.84-3.2 2.09-4.56 3.43-5.04 4.94-8.61 10.8-10.88 17.47-1.2 3.53-1.95 7.15-2.28 10.86-.15 1.47-.18 2.96-.26 4.49m-15.61.02c-.06-1.2-.1-2.33-.18-3.47-.25-3.72-1.04-7.34-2.27-10.85-2.27-6.46-5.91-12.04-10.77-16.84-1.82-1.8-3.78-3.44-6.02-4.71-.61-.35-1.23-.71-2.05-.62 1.16 1.87 2.73 3.43 3.89 5.27 1.17 1.86 2.38 3.71 3.38 5.67.99 1.96 1.85 4 2.57 6.08.72 2.07 1.3 4.21 1.75 6.36.46 2.15.77 4.34 1 6.53.23 2.18.28 4.38.41 6.58h8.29m13.29-18.95c.03-.14.06-.32.09-.49.6-3.8 1.44-7.53 2.72-11.17 2.14-6.08 5.23-11.53 10.22-15.76.1-.08.15-.21.23-.32l-.09-.15c-.56.16-1.13.26-1.66.47-2.88 1.12-5.18 3.05-7.21 5.31-2.44 2.72-4.19 5.88-5.74 9.17-.77 1.64-1.22 3.23-.34 4.96.02.03.01.07.02.11.59 2.63 1.18 5.25 1.76 7.87"/><g stroke-miterlimit="10" stroke-width=".25"><g stroke="#2aaa00"><path d="M10.92 3.96c.68.29 1.39.52 2.03.88 2.75 1.52 5.1 3.54 7.23 5.81 4.99 5.32 8.46 11.57 10.97 18.37 1.87 5.07 3.1 10.29 3.89 15.63.73 4.94 1.04 9.9 1.08 14.89v.48h-8.09c-.02-.1-.05-.22-.05-.35-.15-3.88-.18-7.76-.47-11.62-.68-9.06-2.23-17.97-5.5-26.49-2.16-5.62-5.02-10.83-9.18-15.24-.52-.55-1.06-1.07-1.58-1.61-.16-.17-.3-.35-.45-.53a.94.94 0 0 1 .12-.22z" fill="#16bf2e"/><path d="M40.9 60.02c.08-1.53.11-3.02.24-4.49.34-3.71 1.08-7.33 2.28-10.86C45.69 38 49.26 32.14 54.3 27.2c1.37-1.34 2.81-2.6 4.56-3.43.34-.16.75-.16 1.13-.23-.12.35-.18.73-.37 1.03-1.13 1.87-2.37 3.68-3.44 5.58-2.77 4.93-4.51 10.23-5.61 15.75-.87 4.37-1.24 8.8-1.31 13.25v.87H40.9z" fill="#00a532"/><path d="M25.29 60.04h-8.28c-.13-2.2-.18-4.4-.41-6.58-.23-2.19-.54-4.38-1-6.53s-1.03-4.29-1.75-6.36-1.57-4.12-2.57-6.08c-.99-1.96-2.2-3.81-3.38-5.67-1.16-1.85-2.73-3.4-3.89-5.27.82-.09 1.44.27 2.05.62 2.24 1.27 4.2 2.91 6.02 4.71 4.86 4.8 8.5 10.39 10.77 16.84 1.24 3.52 2.02 7.13 2.27 10.85.06 1.14.1 2.28.17 3.47z" fill="#083"/></g><path d="M38.58 41.09c-.59-2.62-1.17-5.24-1.76-7.87-.01-.04-.01-.08-.02-.11-.88-1.72-.42-3.32.34-4.96 1.55-3.29 3.3-6.44 5.74-9.17 2.03-2.27 4.33-4.2 7.21-5.31.53-.21 1.11-.32 1.66-.47l.09.15c-.08.11-.13.24-.23.32-4.99 4.23-8.08 9.68-10.22 15.76-1.28 3.63-2.12 7.37-2.72 11.17-.03.18-.06.35-.09.49z" fill="#063" stroke="#009949"/></g></svg>