<svg viewBox="0 0 64 64" xmlns="http://www.w3.org/2000/svg"><g fill="#797878"><path d="M37.25 50h-10.5c-.55 0-1-.45-1-1s.45-1 1-1h10.5c.55 0 1 .45 1 1s-.45 1-1 1M37.25 53h-10.5c-.55 0-1-.45-1-1s.45-1 1-1h10.5c.55 0 1 .45 1 1s-.45 1-1 1M37.07 56H26.93c-.65 0-1.18-.53-1.18-1.18 0-.45.37-.82.82-.82h10.85c.45 0 .82.37.82.82.01.65-.52 1.18-1.17 1.18M32 60c2.21 0 4-1.34 4-3h-8c0 1.66 1.79 3 4 3"/></g><path d="M48 20.58C48 11.97 40.84 5 32 5s-16 6.97-16 15.58c0 2.73.72 5.29 1.98 7.51.77 1.49 1.32 2.56 1.67 3.23.72 1.4 1.14 2.21 1.66 3.42.22.51.55 1.28.86 2.16 1.23 3.49 1.7 6.82 1.7 6.82s.23 1.74 1.16 2.59a2.604 2.604 0 0 0 1.76.69H37.2c.24 0 .66-.04 1.11-.25.13-.06.39-.2.65-.44.93-.85 1.16-2.59 1.16-2.59s.47-3.33 1.7-6.82c.31-.88.64-1.65.86-2.16.52-1.21.94-2.02 1.66-3.42.35-.68.9-1.74 1.67-3.23A15.12 15.12 0 0 0 48 20.58" fill="#ffc84d"/></svg>