<svg viewBox="0 0 64 64" xmlns="http://www.w3.org/2000/svg" xmlns:xlink="http://www.w3.org/1999/xlink"><defs><clipPath id="b"><use xlink:href="#a"/></clipPath><path id="a" d="M29.3 17.3S32 25.2 32 28c0-2.7 2.7-10.7 2.7-10.7h-5.4"/></defs><path d="M43 40.5c-.8 0-1.5-.7-1.5-1.5v-3.5h3V39c0 .8-.7 1.5-1.5 1.5" fill="#a55d2b"/><path d="M44 36v3c0 .6-.4 1-1 1s-1-.4-1-1v-3h2m1-1h-4v4c0 1.1.9 2 2 2s2-.9 2-2v-4z" fill="#89471b"/><path d="M21 40.5c-.8 0-1.5-.7-1.5-1.5v-3.5h3V39c0 .8-.6 1.5-1.5 1.5" fill="#a55d2b"/><path d="M22 36v3c0 .6-.4 1-1 1s-1-.4-1-1v-3h2m1-1h-4v4c0 1.1.9 2 2 2s2-.9 2-2v-4z" fill="#89471b"/><path d="M35.8 17h-7.5c-5.1 0-9.2 4.1-9.2 9.2v.6c0 .1-.1.3-.1.4V37h4v-9.2c0-1.2.4-2.2 1-3.1V37h16V24.6c.5.7.9 1.6 1 2.5V37h4V26.1c0-5-4.1-9.1-9.2-9.1" fill="#00783c"/><path d="M27.5 64c-1.9 0-3.5-1.6-3.5-3.5V59h7v1.5c0 1.9-1.5 3.5-3.5 3.5M36.5 64c-1.9 0-3.5-1.6-3.5-3.5V59h7v1.5c0 1.9-1.5 3.5-3.5 3.5"/><ellipse cx="32" cy="17" rx="3.5" ry="2" fill="#fff"/><path d="M24 37v22h7V42c0-.6.5-1 1-1s1 .4 1 1v17h7V37H24" fill="#505050"/><path d="M31 20h1v17h-1zM32.5 34c-.3 0-.5.2-.5.5s.2.5.5.5.5-.2.5-.5-.2-.5-.5-.5M32.5 32c-.3 0-.5.2-.5.5s.2.5.5.5.5-.2.5-.5-.2-.5-.5-.5M32.5 30c-.3 0-.5.2-.5.5s.2.5.5.5.5-.2.5-.5-.2-.5-.5-.5M32.5 28c-.3 0-.5.2-.5.5s.2.5.5.5.5-.2.5-.5-.2-.5-.5-.5" opacity=".2"/><path d="M29.3 17.3S32 25.2 32 28c0-2.7 2.7-10.7 2.7-10.7h-5.4" clip-path="url(#b)" fill="#fff"/><path d="m30 17 1.5 2-1.5 3 2 6 2-6-1.5-3 1.5-2z" clip-path="url(#b)" fill="#e70003"/><g fill="#fff"><path d="M32.646 17.127H36.1v1.5h-3.3zM28.16 15.963h2.94v1.5h-3.3z"/></g><path d="M32 16.5c-4.1 0-7.5-3.4-7.5-7.5s3.4-7.5 7.5-7.5 7.5 3.4 7.5 7.5-3.4 7.5-7.5 7.5" fill="#a55d2b"/><path d="M32 2c3.9 0 7 3.1 7 7s-3.1 7-7 7-7-3.1-7-7 3.1-7 7-7m0-1c-4.4 0-8 3.6-8 8s3.6 8 8 8 8-3.6 8-8-3.6-8-8-8z" fill="#89471b"/><path d="M24.5 8.8c.1-4.1 3.4-7.3 7.5-7.3s7.4 3.2 7.5 7.3c-1-1-1.8-2.2-2.2-3.5l-.1-.3h-.4c-.6 0-1.1.1-1.6.1-.8 0-1.5-.1-2.2-.2l-2.7-.4 2.4 1.3c.3.2.6.4.9.5h-1.4c-2 0-3.7-.3-5.3-.9l-.5-.2-.2.5c-.4 1.3-1 2.3-1.7 3.1" fill="#1c1914"/><path d="M32 2c2.1 0 4 .9 5.3 2.4l-.6.1c-.5 0-1.1.1-1.6.1-.7 0-1.5-.1-2.1-.2l-5.4-.8 4 2.3c-1.7 0-3.3-.3-4.6-.8l-.7-.2C27.7 3.1 29.7 2 32 2m5.7 2.9c.5.7.9 1.4 1.1 2.2-.4-.6-.7-1.3-1-2l-.1-.2M32 1c-4.4 0-8 3.6-8 8 0 .3 0 .6.1.9C25 9.2 26 8 26.7 6c1.4.5 3.2.9 5.4.9 1 0 2.2-.1 3.4-.2 0 0-1.3-.4-2.7-1.2.7.1 1.5.2 2.3.2.5 0 1.1 0 1.7-.1.5 1.4 1.5 2.9 3.2 4.3V9c0-4.4-3.6-8-8-8z" fill="#0a0907"/></svg>