<svg viewBox="0 0 64 64" xmlns="http://www.w3.org/2000/svg"><defs><linearGradient id="b" x1="20" x2="44" gradientUnits="userSpaceOnUse"><stop stop-color="#82828c" offset="0"/><stop stop-color="#ccd3e7" offset=".5"/><stop stop-color="#82828c" offset="1"/></linearGradient><linearGradient id="a" x1="25.5" x2="38.5" gradientUnits="userSpaceOnUse"><stop stop-color="#282828" offset="0"/><stop stop-color="#505050" offset=".5"/><stop stop-color="#282828" offset="1"/></linearGradient><linearGradient id="c" x2="0" y1="35" y2="57" gradientUnits="userSpaceOnUse"><stop stop-color="#64646e" offset="0"/><stop stop-color="#82828c" stop-opacity="0" offset="1"/></linearGradient></defs><path d="M32 44.5c-3.6 0-6.5-2.9-6.5-6.5V16c0-3.6 2.9-6.5 6.5-6.5s6.5 2.9 6.5 6.5v22c0 3.6-2.9 6.5-6.5 6.5" fill="url(#a)"/><path d="M32 10c3.3 0 6 2.7 6 6v22c0 3.3-2.7 6-6 6s-6-2.7-6-6V16c0-3.3 2.7-6 6-6m0-1c-3.9 0-7 3.2-7 7v22c0 3.8 3.1 7 7 7 3.8 0 7-3.2 7-7V16c0-3.8-3.2-7-7-7z" fill="#1a171b"/><g fill="url(#b)"><path d="M20 57h24v2H20zM41 35v3c0 5-4 9-9 9s-9-4-9-9v-3h-3v3c0 5.9 4.3 10.9 10 11.8V57h4v-7.2c5.7-1 10-5.9 10-11.8v-3h-3"/></g><path d="M43 36v2c0 5.4-3.9 9.9-9.2 10.8l-.8.2v7h-2v-7l-.8-.1c-5.3-1-9.2-5.5-9.2-10.9v-2h1v2c0 5.5 4.5 10 10 10s10-4.5 10-10v-2h1m1-1h-3v3c0 5-4 9-9 9s-9-4-9-9v-3h-3v3c0 5.9 4.3 10.9 10 11.8V57h4v-7.2c5.7-1 10-5.9 10-11.8v-3z" fill="url(#c)"/><g fill="none" stroke="#1a171b" stroke-miterlimit="10"><path d="M25 15.5h14M25 19.5h14M25 23.5h14"/></g></svg>