<svg viewBox="0 0 64 64" xmlns="http://www.w3.org/2000/svg"><path d="M35.3 61.5c-11.4 0-21.9-6.7-26.8-17-3.3-7.1-3.7-15.2-1-22.6S15.7 8.6 22.8 5.3c2.2-1 4.5-1.8 6.9-2.2-10.5 5-13.6 20.6-7 34.8C27.9 49 37.6 56.4 47 56.4c2.4 0 4.7-.5 6.8-1.5-1.9 1.5-3.9 2.8-6.1 3.8-3.9 1.9-8.1 2.8-12.4 2.8" fill="#efe8da"/><path d="M26.6 4.3c-8.4 6.4-10.4 20.6-4.3 33.7 5.2 11.2 15.2 18.8 24.8 18.8 1.3 0 2.6-.1 3.8-.4-1.1.7-2.2 1.3-3.3 1.8-3.9 1.8-8 2.7-12.2 2.7C24.1 61 13.8 54.4 9 44.3 2.3 29.8 8.5 12.5 23 5.7c1.2-.5 2.4-1 3.6-1.4M35.3 2c-4.3 0-8.6.9-12.7 2.8-15 7-21.5 24.9-14.5 39.9C13.2 55.6 24 62 35.3 62c4.2 0 8.6-.9 12.7-2.8 4.3-2 7.9-4.9 10.7-8.4-1.4 1.5-3.1 2.8-5 3.7-2.1 1-4.4 1.5-6.7 1.5-9 0-18.7-7-23.9-18.2C16.6 23.6 19.6 8.3 30 3.4c1.9-.9 3.9-1.4 6-1.4h-.7z" fill="#dbd4c8"/></svg>