<svg viewBox="0 0 64 64" xmlns="http://www.w3.org/2000/svg"><path d="m30.59 20.69 2.12 2.12c.39.39.39 1.02 0 1.41l-8.49 8.49a.996.996 0 0 1-1.41 0l-2.12-2.12L3.72 47.56l12.73 12.73 43.84-43.84L47.56 3.72 30.59 20.69M19.23 50.34a4.008 4.008 0 0 1-5.66 0c-1.56-1.56-1.56-4.09 0-5.66s4.09-1.56 5.66 0a4.008 4.008 0 0 1 0 5.66" fill="#fcd703"/><path d="M60.28 16.44c.78-.78.78-2.05 0-2.83l-9.9-9.9c-.78-.78-2.05-.78-2.83 0l12.73 12.73M16.44 60.28c-.78.78-2.05.78-2.83 0l-9.9-9.9c-.78-.78-.78-2.05 0-2.83l12.73 12.73"/><circle cx="16.4" cy="47.51" r="4" fill="#fff"/><path d="M16.44 43.56a3.998 3.998 0 0 1 2.83 6.83c-.78.78-1.8 1.17-2.83 1.17a3.998 3.998 0 0 1-2.83-6.83c.79-.78 1.81-1.17 2.83-1.17m0-1c-1.34 0-2.59.52-3.54 1.46s-1.46 2.2-1.46 3.54c0 1.34.52 2.59 1.46 3.54.94.94 2.2 1.46 3.54 1.46 1.34 0 2.59-.52 3.54-1.46.94-.94 1.46-2.2 1.46-3.54 0-1.34-.52-2.59-1.46-3.54s-2.2-1.46-3.54-1.46z"/><path d="M12.908 45.44h4.532v8h-2z" fill="#c4e500"/><path d="M14.321 45.438h1.56v2h-1z" fill="#f1ff33"/><path d="M12.59 46.53c-.35 1.33-.02 2.81 1.02 3.85s2.52 1.37 3.85 1.02l-4.87-4.87M15.42 43.71l4.87 4.87c.35-1.33.02-2.81-1.02-3.85a3.948 3.948 0 0 0-3.85-1.02M30.59 20.69l2.12 2.12c.39.39.39 1.02 0 1.41l-8.49 8.49a.996.996 0 0 1-1.41 0l-2.12-2.12-.71.71 2.12 2.12c.78.78 2.05.78 2.83 0l8.49-8.49c.78-.78.78-2.05 0-2.83l-2.12-2.12-.71.71"/><path d="M22.808 32.703H28.2v14h-3z" fill="#c4e500"/><path d="M25.636 28.469h1.704v4h-2z" fill="#f1ff33"/><path d="M14.322 48.267h1.558v2h-1zM24.929 26.343h2.06v1h-2zM21.398 29.88h1.912v3h-1zM29.176 22.099h1.914v3h-1zM12.197 47.555h2.063v1h-2zM15.739 51.091h2.06v1h-2z" opacity=".2"/></svg>