<svg viewBox="0 0 64 64" xmlns="http://www.w3.org/2000/svg"><path d="M4.5 8.5h13v43h-13z" fill="#ff4545"/><path d="M17 9v42H5V9h12m1-1H4v44h14V8z" fill="#d82b2b"/><path d="M20.5 8.5h13v43h-13z" fill="#70ce2e"/><path d="M33 9v42H21V9h12m1-1H20v44h14V8z" fill="#62b224"/><path d="m34.8 11.8 12.3-4.3L61.4 48l-12.3 4.3-14.3-40.5" fill="#1e82ff"/><path d="m46.8 8.1 14 39.6-11.3 4-14-39.6 11.3-4m.6-1.3-13.2 4.7L48.8 53 62 48.3 47.4 6.8z" fill="#1271d8"/><g fill="#828b7d"><circle cx="11" cy="44" r="3"/><circle cx="27" cy="44" r="3"/><circle cx="52.7" cy="43.1" r="3"/></g><circle cx="11" cy="44" r="2"/><circle cx="27" cy="44" r="2"/><circle cx="52.7" cy="43.1" r="2"/><g fill="#e7f4f5"><path d="M6 14h10v16H6zM22 14h10v16H22zM52.8 28.3l-9.4 3.3L38 16.5l9.4-3.3 5.4 15.1"/></g><g fill="#c8c8c8"><path d="M7 21h8v1H7zM7 24h8v1H7zM7 27h8v1H7zM23 21h8v1h-8zM23 24h8v1h-8zM23 27h8v1h-8zM41.4 22.7l7.5-2.7.3.9-7.5 2.7-.3-.9M42.3 25.5l7.5-2.7.3.9-7.5 2.7-.3-.9M43.4 28.4l7.5-2.7.3.9-7.5 2.7-.3-.9"/></g><path d="M8 16h6v3H8z" fill="#fadc00"/><path d="M24 16h6v3h-6z" fill="#ff845c"/><path d="m40.6 17.7 5.7-2 1 2.8-5.7 2-1-2.8" fill="#5fbc15"/></svg>