<svg viewBox="0 0 64 64" xmlns="http://www.w3.org/2000/svg" xmlns:xlink="http://www.w3.org/1999/xlink"><defs><radialGradient id="c" cx="35" cy="33" r="5.831" gradientTransform="matrix(1 0 0 .25 0 24.75)" gradientUnits="userSpaceOnUse" xlink:href="#b"/><radialGradient id="d" cx="25" cy="40.08" r="5.831" gradientTransform="matrix(1 0 0 .25 0 30.06)" gradientUnits="userSpaceOnUse" xlink:href="#b"/><radialGradient id="b" cx="19" cy="28" r="5.831" gradientTransform="matrix(1 0 0 .25 0 21)" gradientUnits="userSpaceOnUse"><stop stop-color="#f0f0f0" offset="0"/><stop stop-color="#a0a0a0" offset="1"/></radialGradient><clipPath id="e"><use xlink:href="#a"/></clipPath><ellipse id="a" cx="25" cy="40" rx="8" ry="2"/></defs><path d="M7 20.5a.499.499 0 0 1-.35-.85l4-4a.51.51 0 0 1 .35-.15h26a.499.499 0 0 1 .35.85l-4 4a.51.51 0 0 1-.35.15H7" fill="#315c99"/><path d="m37 16-4 4H7l4-4h26m0-1H11c-.27 0-.52.11-.71.29l-4 4c-.29.29-.37.72-.22 1.09.16.38.53.62.93.62h26c.27 0 .52-.11.71-.29l4-4c.29-.29.37-.72.22-1.09-.16-.38-.53-.62-.93-.62z" fill="#172982"/><path d="M27 7.5a.499.499 0 0 1-.35-.85l4-4c.09-.1.22-.15.35-.15h26a.499.499 0 0 1 .35.85l-4 4a.47.47 0 0 1-.35.15H27" fill="#ffd773"/><path d="m57 3-4 4H27l4-4h26m0-1H31c-.27 0-.52.11-.71.29l-4 4c-.29.29-.37.72-.22 1.09.16.38.53.62.93.62h26c.27 0 .52-.11.71-.29l4-4c.29-.29.37-.72.22-1.09C57.77 2.24 57.4 2 57 2z" fill="#e5b12e"/><path d="M53 45.5a.5.5 0 0 1-.5-.5V7c0-.13.05-.26.15-.35l4-4a.485.485 0 0 1 .54-.11c.19.08.31.26.31.46v39c0 .16-.07.31-.2.4l-4 3c-.09.07-.19.1-.3.1" fill="#efbd50"/><path d="M57 3v39l-4 3V7l4-4m0-1c-.26 0-.52.1-.71.29l-4 4c-.18.19-.29.44-.29.71v38c0 .38.21.73.55.89.14.08.3.11.45.11.21 0 .42-.07.6-.2l4-3c.25-.19.4-.49.4-.8V3c0-.4-.24-.77-.62-.92A.838.838 0 0 0 57 2z" fill="#e5b12e"/><path d="M6.5 19.5h23v21h-23z" fill="#294a84"/><path d="M29 20v20H7V20h22m1-1H6v22h24V19z" fill="#172982"/><path d="M8 21h20v18H8z" fill="#6690cc"/><path d="M26.5 6.5h27v39h-27z" fill="#ffd45c"/><path d="M53 7v38H27V7h26m1-1H26v40h28V6z" fill="#e5b12e"/><path d="M29 9h22v34H29z" fill="#ffe3a6"/><path d="M27 28v19h-.01c0 .02.01.03.01.05 0 1.1-3.58 2-8 2s-8-.9-8-2c0-.02.01-.03.01-.05H11V28h16m0-1H11c-.55 0-1 .45-1 1v19.04c0 2.86 7.5 3 9 3s9-.14 9-3V28c0-.55-.45-1-1-1z" fill="#666"/><g fill="#66ccca"><ellipse cx="19" cy="47" rx="8" ry="2"/><path d="M11 28h16v19H11z"/></g><g fill="#fcb11a"><ellipse cx="19" cy="37" rx="8" ry="2"/><path d="M11 28h16v9H11z"/></g><path d="M19.5 42h-1a2.5 2.5 0 0 1-2.5-2.5v-1c0-1.37 1.12-2.5 2.5-2.5h1a2.5 2.5 0 0 1 2.5 2.5v1a2.5 2.5 0 0 1-2.5 2.5" fill="#e54545"/><ellipse cx="19" cy="28" rx="8" ry="2" fill="url(#b)"/><g fill="#666"><path d="M19 26c4.42 0 8 .9 8 2s-3.58 2-8 2-8-.9-8-2 3.58-2 8-2m0-1c-1.5 0-9 .14-9 3s7.5 3 9 3 9-.14 9-3-7.5-3-9-3zM43 32.95v19h-.01c0 .02.01.03.01.05 0 1.1-3.58 2-8 2s-8-.9-8-2c0-.02.01-.03.01-.05H27v-19h16m0-1H27c-.55 0-1 .45-1 1v19.04c0 2.86 7.5 3 9 3s9-.14 9-3V32.95c0-.55-.45-1-1-1z"/></g><g fill="#0056bc"><ellipse cx="35" cy="52" rx="8" ry="2"/><path d="M27 33h16v19H27z"/></g><g fill="#2fa528"><ellipse cx="35" cy="42.08" rx="8" ry="2"/><path d="M27 33h16v9H27z"/></g><path d="M35.5 47h-1c-1.37 0-2.5-1.12-2.5-2.5v-1c0-1.37 1.12-2.5 2.5-2.5h1c1.37 0 2.5 1.12 2.5 2.5v1a2.5 2.5 0 0 1-2.5 2.5" fill="#ff80e7"/><ellipse cx="35" cy="33" rx="8" ry="2" fill="url(#c)"/><g fill="#666"><path d="M35 31c4.42 0 8 .9 8 2s-3.58 2-8 2-8-.9-8-2 3.58-2 8-2m0-1c-1.5 0-9 .14-9 3s7.5 3 9 3 9-.14 9-3-7.5-3-9-3zM33 39.95v19h-.01c0 .02.01.03.01.05 0 1.1-3.58 2-8 2s-8-.9-8-2c0-.02.01-.03.01-.05H17v-19h16m0-1H17c-.55 0-1 .45-1 1v19.04c0 2.86 7.5 3 9 3s9-.14 9-3V39.95c0-.55-.45-1-1-1z"/></g><g fill="#f5f5f5"><ellipse cx="25" cy="59" rx="8" ry="2"/><path d="M17 40h16v19H17z"/></g><g fill="#c80028"><ellipse cx="25" cy="49" rx="8" ry="2"/><path d="M17 40h16v9H17z"/></g><path d="M25.5 54h-1a2.5 2.5 0 0 1-2.5-2.5v-1c0-1.37 1.12-2.5 2.5-2.5h1a2.5 2.5 0 0 1 2.5 2.5v1a2.5 2.5 0 0 1-2.5 2.5" fill="#ffd35c"/><ellipse cx="25" cy="40.08" rx="8" ry="2" fill="url(#d)"/><path d="M25 38c4.42 0 8 .9 8 2s-3.58 2-8 2-8-.9-8-2 3.58-2 8-2m0-1c-1.5 0-9 .14-9 3s7.5 3 9 3 9-.14 9-3-7.5-3-9-3z" fill="#666"/><g fill="#a0a0a0"><path d="M17 38h16v4H17z" clip-path="url(#e)"/><ellipse cx="25" cy="40" rx="5.83" ry="1.46" clip-path="url(#e)"/></g><ellipse cx="25" cy="40" rx="5.76" ry="1.44" clip-path="url(#e)" fill="#a1a1a1"/><ellipse cx="25" cy="40" rx="5.69" ry="1.42" clip-path="url(#e)" fill="#a2a2a2"/><ellipse cx="25" cy="40" rx="5.61" ry="1.4" clip-path="url(#e)" fill="#a3a3a3"/><ellipse cx="25" cy="40" rx="5.54" ry="1.38" clip-path="url(#e)" fill="#a4a4a4"/><ellipse cx="25" cy="40" rx="5.47" ry="1.37" clip-path="url(#e)" fill="#a5a5a5"/><ellipse cx="25" cy="40" rx="5.39" ry="1.35" clip-path="url(#e)" fill="#a6a6a6"/><ellipse cx="25" cy="40" rx="5.32" ry="1.33" clip-path="url(#e)" fill="#a7a7a7"/><ellipse cx="25" cy="40" rx="5.25" ry="1.31" clip-path="url(#e)" fill="#a8a8a8"/><ellipse cx="25" cy="40" rx="5.17" ry="1.29" clip-path="url(#e)" fill="#a9a9a9"/><ellipse cx="25" cy="40" rx="5.1" ry="1.28" clip-path="url(#e)" fill="#aaa"/><ellipse cx="25" cy="40" rx="5.03" ry="1.26" clip-path="url(#e)" fill="#ababab"/><ellipse cx="25" cy="40" rx="4.96" ry="1.24" clip-path="url(#e)" fill="#acacac"/><ellipse cx="25" cy="40" rx="4.88" ry="1.22" clip-path="url(#e)" fill="#adadad"/><ellipse cx="25" cy="40" rx="4.81" ry="1.2" clip-path="url(#e)" fill="#aeaeae"/><ellipse cx="25" cy="40" rx="4.74" ry="1.18" clip-path="url(#e)" fill="#afafaf"/><ellipse cx="25" cy="40" rx="4.66" ry="1.17" clip-path="url(#e)" fill="#b0b0b0"/><ellipse cx="25" cy="40" rx="4.59" ry="1.15" clip-path="url(#e)" fill="#b1b1b1"/><ellipse cx="25" cy="40" rx="4.52" ry="1.13" clip-path="url(#e)" fill="#b2b2b2"/><ellipse cx="25" cy="40" rx="4.45" ry="1.11" clip-path="url(#e)" fill="#b3b3b3"/><ellipse cx="25" cy="40" rx="4.37" ry="1.09" clip-path="url(#e)" fill="#b4b4b4"/><ellipse cx="25" cy="40" rx="4.3" ry="1.08" clip-path="url(#e)" fill="#b5b5b5"/><ellipse cx="25" cy="40" rx="4.23" ry="1.06" clip-path="url(#e)" fill="#b6b6b6"/><ellipse cx="25" cy="40" rx="4.15" ry="1.04" clip-path="url(#e)" fill="#b7b7b7"/><ellipse cx="25" cy="40" rx="4.08" ry="1.02" clip-path="url(#e)" fill="#b8b8b8"/><ellipse cx="25" cy="40" rx="4.01" ry="1" clip-path="url(#e)" fill="#b9b9b9"/><ellipse cx="25" cy="40" rx="3.94" ry=".98" clip-path="url(#e)" fill="#bababa"/><ellipse cx="25" cy="40" rx="3.86" ry=".97" clip-path="url(#e)" fill="#bbb"/><ellipse cx="25" cy="40" rx="3.79" ry=".95" clip-path="url(#e)" fill="#bcbcbc"/><ellipse cx="25" cy="40" rx="3.72" ry=".93" clip-path="url(#e)" fill="#bdbdbd"/><ellipse cx="25" cy="40" rx="3.64" ry=".91" clip-path="url(#e)" fill="#bebebe"/><ellipse cx="25" cy="40" rx="3.57" ry=".89" clip-path="url(#e)" fill="#bfbfbf"/><ellipse cx="25" cy="40" rx="3.5" ry=".87" clip-path="url(#e)" fill="silver"/><ellipse cx="25" cy="40" rx="3.43" ry=".86" clip-path="url(#e)" fill="#c1c1c1"/><ellipse cx="25" cy="40" rx="3.35" ry=".84" clip-path="url(#e)" fill="#c2c2c2"/><ellipse cx="25" cy="40" rx="3.28" ry=".82" clip-path="url(#e)" fill="#c3c3c3"/><ellipse cx="25" cy="40" rx="3.21" ry=".8" clip-path="url(#e)" fill="#c4c4c4"/><ellipse cx="25" cy="40" rx="3.13" ry=".78" clip-path="url(#e)" fill="#c5c5c5"/><ellipse cx="25" cy="40" rx="3.06" ry=".77" clip-path="url(#e)" fill="#c6c6c6"/><ellipse cx="25" cy="40" rx="2.99" ry=".75" clip-path="url(#e)" fill="#c7c7c7"/><ellipse cx="25" cy="40" rx="2.92" ry=".73" clip-path="url(#e)" fill="#c8c8c8"/><ellipse cx="25" cy="40" rx="2.84" ry=".71" clip-path="url(#e)" fill="#c9c9c9"/><ellipse cx="25" cy="40" rx="2.77" ry=".69" clip-path="url(#e)" fill="#cacaca"/><ellipse cx="25" cy="40" rx="2.7" ry=".67" clip-path="url(#e)" fill="#cbcbcb"/><ellipse cx="25" cy="40" rx="2.62" ry=".66" clip-path="url(#e)" fill="#ccc"/><ellipse cx="25" cy="40" rx="2.55" ry=".64" clip-path="url(#e)" fill="#cdcdcd"/><ellipse cx="25" cy="40" rx="2.48" ry=".62" clip-path="url(#e)" fill="#cecece"/><ellipse cx="25" cy="40" rx="2.41" ry=".6" clip-path="url(#e)" fill="#cfcfcf"/><ellipse cx="25" cy="40" rx="2.33" ry=".58" clip-path="url(#e)" fill="#d0d0d0"/><ellipse cx="25" cy="40" rx="2.26" ry=".56" clip-path="url(#e)" fill="#d2d2d2"/><ellipse cx="25" cy="40" rx="2.19" ry=".55" clip-path="url(#e)" fill="#d3d3d3"/><ellipse cx="25" cy="40" rx="2.11" ry=".53" clip-path="url(#e)" fill="#d4d4d4"/><ellipse cx="25" cy="40" rx="2.04" ry=".51" clip-path="url(#e)" fill="#d5d5d5"/><ellipse cx="25" cy="40" rx="1.97" ry=".49" clip-path="url(#e)" fill="#d6d6d6"/><ellipse cx="25" cy="40" rx="1.9" ry=".47" clip-path="url(#e)" fill="#d7d7d7"/><ellipse cx="25" cy="40" rx="1.82" ry=".46" clip-path="url(#e)" fill="#d8d8d8"/><ellipse cx="25" cy="40" rx="1.75" ry=".44" clip-path="url(#e)" fill="#d9d9d9"/><ellipse cx="25" cy="40" rx="1.68" ry=".42" clip-path="url(#e)" fill="#dadada"/><ellipse cx="25" cy="40" rx="1.6" ry=".4" clip-path="url(#e)" fill="#dbdbdb"/><ellipse cx="25" cy="40" rx="1.53" ry=".38" clip-path="url(#e)" fill="#dcdcdc"/><ellipse cx="25" cy="40" rx="1.46" ry=".36" clip-path="url(#e)" fill="#ddd"/><ellipse cx="25" cy="40" rx="1.38" ry=".35" clip-path="url(#e)" fill="#dedede"/><ellipse cx="25" cy="40" rx="1.31" ry=".33" clip-path="url(#e)" fill="#dfdfdf"/><ellipse cx="25" cy="40" rx="1.24" ry=".31" clip-path="url(#e)" fill="#e0e0e0"/><ellipse cx="25" cy="40" rx="1.17" ry=".29" clip-path="url(#e)" fill="#e1e1e1"/><ellipse cx="25" cy="40" rx="1.09" ry=".27" clip-path="url(#e)" fill="#e2e2e2"/><ellipse cx="25" cy="40" rx="1.02" ry=".26" clip-path="url(#e)" fill="#e3e3e3"/><ellipse cx="25" cy="40" rx=".95" ry=".24" clip-path="url(#e)" fill="#e4e4e4"/><ellipse cx="25" cy="40" rx=".87" ry=".22" clip-path="url(#e)" fill="#e5e5e5"/><ellipse cx="25" cy="40" rx=".8" ry=".2" clip-path="url(#e)" fill="#e6e6e6"/><ellipse cx="25" cy="40" rx=".73" ry=".18" clip-path="url(#e)" fill="#e7e7e7"/><ellipse cx="25" cy="40" rx=".66" ry=".16" clip-path="url(#e)" fill="#e8e8e8"/><ellipse cx="25" cy="40" rx=".58" ry=".15" clip-path="url(#e)" fill="#e9e9e9"/><ellipse cx="25" cy="40" rx=".51" ry=".13" clip-path="url(#e)" fill="#eaeaea"/><ellipse cx="25" cy="40" rx=".44" ry=".11" clip-path="url(#e)" fill="#ebebeb"/><ellipse cx="25" cy="40" rx=".36" ry=".09" clip-path="url(#e)" fill="#ececec"/><ellipse cx="25" cy="40" rx=".29" ry=".07" clip-path="url(#e)" fill="#ededed"/><ellipse cx="25" cy="40" rx=".22" ry=".05" clip-path="url(#e)" fill="#eee"/><ellipse cx="25" cy="40" rx=".15" ry=".04" clip-path="url(#e)" fill="#efefef"/><ellipse cx="25" cy="40" rx=".07" ry=".02" clip-path="url(#e)" fill="#f0f0f0"/></svg>