<svg viewBox="0 0 64 64" xmlns="http://www.w3.org/2000/svg" xmlns:xlink="http://www.w3.org/1999/xlink"><defs><clipPath id="b"><use xlink:href="#a"/></clipPath><path id="a" d="M38.7 24.9S42 34.7 42 38c0-3.4 3.3-13.1 3.3-13.1h-6.6"/></defs><path d="M28.5 53.5c-1.1 0-2-.9-2-2V47h4v4.5c0 1.1-.9 2-2 2" fill="#f4d0b1"/><path d="M30 47.5v4c0 .9-.7 1.5-1.5 1.5s-1.5-.7-1.5-1.5v-4h3m1-1h-5v5c0 1.4 1.1 2.5 2.5 2.5s2.5-1.1 2.5-2.5v-5z" fill="#e5b795"/><path d="M55.5 53.5c-1.1 0-2-.9-2-2V47h4v4.5c0 1.1-.9 2-2 2" fill="#f4d0b1"/><path d="M57 47.5v4c0 .9-.7 1.5-1.5 1.5s-1.5-.7-1.5-1.5v-4h3m1-1h-5v5c0 1.4 1.1 2.5 2.5 2.5s2.5-1.1 2.5-2.5v-5z" fill="#e5b795"/><path d="M46.7 24h-9.3c-6.3 0-11.3 5.2-11.3 11.5v.8c0 .2-.1.4-.1.6V49h4.9V37.5c0-1.5.5-2.8 1.3-3.9V49h19.7V33.5c.6.9 1.1 2 1.2 3.2V49H58V35.6C58 29.2 52.9 24 46.7 24" fill="#00783c"/><ellipse cx="42" cy="24.4" rx="4.3" ry="2.5" fill="#fff"/><path d="M41 30h1v19h-1zM42.5 39c-.3 0-.5.2-.5.5s.2.5.5.5.5-.2.5-.5-.2-.5-.5-.5M42.5 42c-.3 0-.5.2-.5.5s.2.5.5.5.5-.2.5-.5-.2-.5-.5-.5M42.5 45c-.3 0-.5.2-.5.5s.2.5.5.5.5-.2.5-.5-.2-.5-.5-.5" opacity=".2"/><path d="M38.7 24.9S42 34.7 42 38c0-3.4 3.3-13.1 3.3-13.1h-6.6" clip-path="url(#b)" fill="#fff"/><path d="m39.5 24.4 1.9 2.5-1.9 3.7L42 38l2.4-7.4-1.8-3.7 1.8-2.5z" clip-path="url(#b)" fill="#e70003"/><g fill="#fff"><path d="M42.803 24.564H47.1v1.8H43zM37.343 23.171H41v1.8h-4.1z"/></g><path d="M42 23.5c-5.2 0-9.5-4.3-9.5-9.5s4.3-9.5 9.5-9.5 9.5 4.3 9.5 9.5-4.3 9.5-9.5 9.5" fill="#f4d0b1"/><path d="M42 5c5 0 9 4 9 9s-4 9-9 9-9-4-9-9 4-9 9-9m0-1c-5.5 0-10 4.5-10 10s4.5 10 10 10 10-4.5 10-10S47.5 4 42 4z" fill="#e5b795"/><path d="M32.5 14c0-5.2 4.3-9.5 9.5-9.5s9.5 4.3 9.5 9.5c-1.4-1.3-2.4-2.8-3-4.6l-.1-.4H48c-.7.1-1.4.1-2 .1-1 0-1.9-.1-2.8-.2l-2.7-.4 2.4 1.3c.6.3 1.1.6 1.6.8-.8.1-1.5.1-2.3.1-2.5 0-4.7-.4-6.6-1.1l-.5-.2-.2.5c-.6 1.7-1.4 3-2.4 4v.1" fill="#e67831"/><path d="M42 5c4.5 0 8.3 3.3 8.9 7.7-.9-1-1.5-2.2-1.9-3.4l-.3-.7-.8.1c-.7.1-1.4.1-2 .1-.9 0-1.9-.1-2.7-.2l-5.4-.8 4.7 2.6h-.4c-2.4 0-4.6-.4-6.4-1l-.9-.4-.3.9c-.4 1-.8 1.9-1.3 2.6C33.8 8.3 37.5 5 42 5m0-1c-5.5 0-10 4.5-10 10 0 .4 0 .8.1 1.2 1.1-.9 2.4-2.4 3.3-4.9 1.8.7 4 1.1 6.8 1.1 1.3 0 2.7-.1 4.2-.3 0 0-1.6-.6-3.3-1.5.9.1 1.8.2 2.9.2.7 0 1.4 0 2.1-.1.7 1.9 1.9 3.8 3.9 5.5 0-.4.1-.7.1-1.1C52 8.5 47.5 4 42 4z" fill="#dd6022"/><path d="M22 32.9c-4.9 0-9.5-1.7-12.8-4.8 2.5-1 4.1-2.8 4.3-4.9h16.9c.2 2.1 1.9 3.9 4.3 4.9-3.2 3-7.8 4.8-12.7 4.8" fill="#e67831"/><path d="M30 23.7c.4 1.9 1.8 3.5 3.8 4.5-3.1 2.7-7.4 4.2-11.9 4.2s-8.7-1.5-11.9-4.2c2.1-1 3.5-2.7 3.8-4.5H30m1-1H13.1c0 2.3-2 4.3-4.8 5.2 3.3 3.4 8.2 5.5 13.7 5.5s10.4-2.1 13.7-5.5C32.9 27 31 25 31 22.7z" fill="#dd6022"/><path d="M35.5 59.5c-1.1 0-2-.9-2-2V42.8c-.2-1.3-.6-2.4-1.2-3.3L32 39l-10 8-9.9-8-.3.4c-.8 1.2-1.3 2.6-1.3 4.2v13.9c0 1.1-.9 2-2 2s-2-.9-2-2V42.2c4.4-.2 5.6-3.6 6.6-6.6.9-2.5 1.7-4.7 4.2-4.7h9.3c2.6 0 3.3 2.2 4.2 4.7 1.1 3 2.2 6.3 6.6 6.6v15.3c.1 1.1-.8 2-1.9 2" fill="#f4d0b1"/><path d="M26.7 31.4c2.1 0 2.8 1.6 3.8 4.4.3.9.7 1.9 1.2 2.9l-.4.3-9.3 7.4-9.2-7.4-.4-.3c.5-.9.8-1.9 1.2-2.9 1-2.8 1.7-4.4 3.8-4.4h9.3m-16.4 10c-.2.7-.3 1.4-.3 2.2v13.9c0 .8-.7 1.5-1.5 1.5S7 58.3 7 57.5V42.7c1.4-.2 2.4-.6 3.3-1.3m23.5 0c.8.6 1.9 1.1 3.2 1.2v14.9c0 .8-.7 1.5-1.5 1.5s-1.5-.7-1.5-1.5v-15c-.1-.3-.1-.7-.2-1.1m-7.1-11h-9.3c-6.3 0-3.1 11.3-11.4 11.3v15.8C6 58.9 7.1 60 8.5 60s2.5-1.1 2.5-2.5V43.6c0-1.4.4-2.8 1.2-3.9l9.8 7.9 9.9-7.9c.6.9 1 1.9 1.1 3v14.8c0 1.4 1.2 2.5 2.5 2.5 1.4 0 2.5-1.1 2.5-2.5V41.7c-8.2 0-5.1-11.3-11.3-11.3z" fill="#e5b795"/><g fill="#bd0926"><path d="M33.1 56H22V41.5c3.9-3.9 5.3-7.2 5.9-9.4.1-.3.1-.6.2-.8 0-.3.1-.5.1-.8 6.1 0 9.8 9.3 9.8 11.2l-4.9 1.9c0-1.4-.5-2.8-1.2-3.9l-2.4 7.9 2.5 3.7 1.1 4.7M10.9 56H22V41.5c-3.9-3.9-5.3-7.2-5.9-9.4-.1-.3-.1-.6-.2-.8 0-.3-.1-.5-.1-.8-6.1 0-9.8 9.3-9.8 11.2l4.9 1.9c0-1.4.5-2.8 1.2-3.9l2.4 7.9-2.5 3.7-1.1 4.7"/></g><path d="M22 29.5c-5.2 0-9.5-4.3-9.5-9.5s4.3-9.5 9.5-9.5 9.5 4.3 9.5 9.5-4.3 9.5-9.5 9.5" fill="#f4d0b1"/><path d="M22 11c5 0 9 4 9 9s-4 9-9 9-9-4-9-9 4-9 9-9m0-1c-5.5 0-10 4.5-10 10s4.5 10 10 10 10-4.5 10-10-4.5-10-10-10z" fill="#e5b795"/><path d="M12.7 21.9c-.1-.6-.2-1.3-.2-1.9 0-5.2 4.3-9.5 9.5-9.5s9.5 4.3 9.5 9.5v.7-.1l-.1-.1c-1.1-1.2-2.1-2.8-2.9-4.8l-.2-.4-.4.1c-.7.2-1.6.3-2.5.3-1.5 0-3.2-.3-5-.9l-3-1 2.6 1.9c1.2.9 2.3 1.4 3.3 1.7h-1c-2.3 0-4.5-.5-6.5-1.5l-.5-.2-.2.5c-.7 2.1-1.5 4-2.4 5.7" fill="#e67831"/><path d="M22 11c4.7 0 8.6 3.6 9 8.2-.8-1-1.4-2.3-2.1-3.8l-.3-.8-.9.3c-.7.2-1.5.3-2.3.3-1.4 0-3-.3-4.8-.9l-4.1-1.4C18 11.7 19.9 11 22 11m-6.1 2.4 3.7 2.7c.4.3.8.6 1.2.8-1.7-.2-3.3-.6-4.9-1.4L15 15l-.4 1.1c-.5 1.4-1 2.8-1.6 4.1V20c0-2.6 1.1-5 2.9-6.6M22 10c-5.5 0-10 4.5-10 10 0 1.1.2 2.2.5 3.3.1-.2.2-.3.3-.5 1.2-2.1 2-4.3 2.7-6.4 1.8.9 4.1 1.5 6.7 1.5 1.3 0 2.7-.2 4.1-.5h-.1c-.5 0-3.2-.1-6.1-2.2 1.6.5 3.4.9 5.1.9.9 0 1.8-.1 2.6-.4.8 1.9 1.8 3.6 3 5 .2.8.3 1.5.5 2.2.5-.9.7-1.9.7-2.9 0-5.5-4.5-10-10-10z" fill="#dd6022"/><path d="M18.3 30.4s0 6.2 3.7 6.2 3.7-6.2 3.7-6.2" fill="none" stroke="#e5ae00" stroke-miterlimit="10"/><path d="M30.6 50.1H13.4l1.2-2.4h14.8z" fill="#660619"/></svg>