<svg viewBox="0 0 64 64" xmlns="http://www.w3.org/2000/svg" xmlns:xlink="http://www.w3.org/1999/xlink"><defs><clipPath id="b"><use xlink:href="#a"/></clipPath><path id="a" d="M38.7 23.9S42 33.7 42 37c0-3.4 3.3-13.1 3.3-13.1h-6.6"/></defs><path d="M28.5 52.5c-1.1 0-2-.9-2-2V46h4v4.5c0 1.1-.9 2-2 2" fill="#f4d0b1"/><path d="M30 46.5v4c0 .9-.7 1.5-1.5 1.5s-1.5-.7-1.5-1.5v-4h3m1-1h-5v5c0 1.4 1.1 2.5 2.5 2.5s2.5-1.1 2.5-2.5v-5z" fill="#e5b795"/><path d="M55.5 52.5c-1.1 0-2-.9-2-2V46h4v4.5c0 1.1-.9 2-2 2" fill="#f4d0b1"/><path d="M57 46.5v4c0 .9-.7 1.5-1.5 1.5s-1.5-.7-1.5-1.5v-4h3m1-1h-5v5c0 1.4 1.1 2.5 2.5 2.5s2.5-1.1 2.5-2.5v-5z" fill="#e5b795"/><path d="M46.7 23h-9.3c-6.3 0-11.3 5.2-11.3 11.5v.8c0 .2-.1.4-.1.6V48h4.9V36.5c0-1.5.5-2.8 1.3-3.9V48h19.7V32.5c.6.9 1.1 2 1.2 3.2V48H58V34.6C58 28.2 52.9 23 46.7 23" fill="#00783c"/><ellipse cx="42" cy="23.4" rx="4.3" ry="2.5" fill="#fff"/><path d="M41 29h1v19h-1zM42.5 38c-.3 0-.5.2-.5.5s.2.5.5.5.5-.2.5-.5-.2-.5-.5-.5M42.5 41c-.3 0-.5.2-.5.5s.2.5.5.5.5-.2.5-.5-.2-.5-.5-.5M42.5 44c-.3 0-.5.2-.5.5s.2.5.5.5.5-.2.5-.5-.2-.5-.5-.5" opacity=".2"/><path d="M38.7 23.9S42 33.7 42 37c0-3.4 3.3-13.1 3.3-13.1h-6.6" clip-path="url(#b)" fill="#fff"/><path d="m39.5 23.4 1.9 2.5-1.9 3.7L42 37l2.4-7.4-1.8-3.7 1.8-2.5z" clip-path="url(#b)" fill="#e70003"/><g fill="#fff"><path d="M42.803 23.564H47.1v1.8H43zM37.343 22.171H41v1.8h-4.1z"/></g><path d="M42 22.5c-5.2 0-9.5-4.3-9.5-9.5s4.3-9.5 9.5-9.5 9.5 4.3 9.5 9.5-4.3 9.5-9.5 9.5" fill="#f4d0b1"/><path d="M42 4c5 0 9 4 9 9s-4 9-9 9-9-4-9-9 4-9 9-9m0-1c-5.5 0-10 4.5-10 10s4.5 10 10 10 10-4.5 10-10S47.5 3 42 3z" fill="#e5b795"/><path d="M32.5 13c0-5.2 4.3-9.5 9.5-9.5s9.5 4.3 9.5 9.5c-1.4-1.3-2.4-2.8-3-4.6l-.1-.4H48c-.7.1-1.4.1-2 .1-1 0-1.9-.1-2.8-.2l-2.7-.4 2.4 1.3c.6.3 1.1.6 1.6.8-.8.1-1.5.1-2.3.1-2.5 0-4.7-.4-6.6-1.1l-.5-.2-.2.5c-.6 1.7-1.4 3-2.4 4v.1" fill="#e67831"/><path d="M42 4c4.5 0 8.3 3.3 8.9 7.7-.9-1-1.5-2.2-1.9-3.4l-.3-.7-.8.1c-.7.1-1.4.1-2 .1-.9 0-1.9-.1-2.7-.2l-5.4-.8 4.7 2.6h-.4c-2.4 0-4.6-.4-6.4-1l-.9-.4-.3.9c-.4 1-.8 1.9-1.3 2.6C33.8 7.3 37.5 4 42 4m0-1c-5.5 0-10 4.5-10 10 0 .4 0 .8.1 1.2 1.1-.9 2.4-2.4 3.3-4.9 1.8.7 4 1.1 6.8 1.1 1.3 0 2.7-.1 4.2-.3 0 0-1.6-.6-3.3-1.5.9.1 1.8.2 2.9.2.7 0 1.4 0 2.1-.1.7 1.9 1.9 3.8 3.9 5.5 0-.4.1-.7.1-1.1C52 7.5 47.5 3 42 3z" fill="#dd6022"/><path d="M31 21.7H13.2c0 2.3-2 4.3-4.8 5.2 3.3 3.4 8.2 5.5 13.7 5.5s10.4-2.1 13.7-5.5C32.9 26 31 24 31 21.7"/><path d="M35.5 58.5c-1.1 0-2-.9-2-2V41.8c-.2-1.3-.6-2.4-1.2-3.3L32 38l-10 8-9.9-8-.3.4c-.8 1.2-1.3 2.6-1.3 4.2v13.9c0 1.1-.9 2-2 2s-2-.9-2-2V41.2c4.4-.2 5.6-3.6 6.6-6.6.9-2.5 1.7-4.7 4.2-4.7h9.3c2.6 0 3.3 2.2 4.2 4.7 1.1 3 2.2 6.3 6.6 6.6v15.3c.1 1.1-.8 2-1.9 2" fill="#3c201d"/><path d="M26.7 30.4c2.1 0 2.8 1.6 3.8 4.4.3.9.7 1.9 1.2 2.9l-.4.3-9.3 7.4-9.2-7.4-.4-.3c.5-.9.8-1.9 1.2-2.9 1-2.8 1.7-4.4 3.8-4.4h9.3m-16.4 10c-.2.7-.3 1.4-.3 2.2v13.9c0 .8-.7 1.5-1.5 1.5S7 57.3 7 56.5V41.7c1.4-.2 2.4-.6 3.3-1.3m23.5 0c.8.6 1.9 1.1 3.2 1.2v14.9c0 .8-.7 1.5-1.5 1.5s-1.5-.7-1.5-1.5v-15c-.1-.3-.1-.7-.2-1.1m-7.1-11h-9.3c-6.3 0-3.1 11.3-11.4 11.3v15.8C6 57.9 7.1 59 8.5 59s2.5-1.1 2.5-2.5V42.6c0-1.4.4-2.8 1.2-3.9l9.8 7.9 9.9-7.9c.6.9 1 1.9 1.1 3v14.8c0 1.4 1.2 2.5 2.5 2.5 1.4 0 2.5-1.1 2.5-2.5V40.7c-8.2 0-5.1-11.3-11.3-11.3z" fill="#1e0e0e"/><g fill="#bd0926"><path d="M33.1 55H22V40.5c3.9-3.9 5.3-7.2 5.9-9.4.1-.3.1-.6.2-.8 0-.3.1-.5.1-.8 6.1 0 9.8 9.3 9.8 11.2l-4.9 1.9c0-1.4-.5-2.8-1.2-3.9l-2.4 7.9 2.5 3.7 1.1 4.7M10.9 55H22V40.5c-3.9-3.9-5.3-7.2-5.9-9.4-.1-.3-.1-.6-.2-.8 0-.3-.1-.5-.1-.8-6.1 0-9.8 9.3-9.8 11.2l4.9 1.9c0-1.4.5-2.8 1.2-3.9l2.4 7.9-2.5 3.7-1.1 4.7"/></g><path d="M22 28.5c-5.2 0-9.5-4.3-9.5-9.5s4.3-9.5 9.5-9.5 9.5 4.3 9.5 9.5-4.3 9.5-9.5 9.5" fill="#3c201d"/><path d="M22 10c5 0 9 4 9 9s-4 9-9 9-9-4-9-9 4-9 9-9m0-1c-5.5 0-10 4.5-10 10s4.5 10 10 10 10-4.5 10-10S27.5 9 22 9z" fill="#1e0e0e"/><path d="M22 9c-5.5 0-10 4.5-10 10 0 1.1.2 2.2.5 3.3.1-.2.2-.3.3-.5 1.2-2.1 2-4.3 2.7-6.4 2.8 1.3 6.4 2.1 10.9 1 0 0-3 .1-6.2-2.2 2.4.8 5.3 1.3 7.7.6.8 1.9 1.8 3.6 3 5 .2.8.3 1.5.5 2.2.4-1 .6-2 .6-3 0-5.5-4.5-10-10-10"/><path d="M18.3 29.4s0 6.2 3.7 6.2 3.7-6.2 3.7-6.2" fill="none" stroke="#e5ae00" stroke-miterlimit="10"/><path d="M30.6 49.1H13.4l1.2-2.4h14.8z" fill="#660619"/></svg>