<svg viewBox="0 0 64 64" xmlns="http://www.w3.org/2000/svg"><path d="m53.5 10.21.02-.02C50.32 8.32 42.34 7 33 7s-17.32 1.32-20.51 3.19l.02.02h-.03L33 33.5l20.53-23.29h-.03z" fill="#e5395e" opacity=".9"/><g fill="none" stroke="#cec6c6" stroke-miterlimit="10"><ellipse cx="33" cy="8.5" rx="22" ry="5" opacity=".9"/><path d="m11 8.5 22 25 22-25" opacity=".9"/><path d="M35 31v29h-4V31" opacity=".8"/></g><path d="M19 8.5C19 3.81 15.19 0 10.5 0S2 3.81 2 8.5 5.81 17 10.5 17c2.35 0 4.47-.95 6.01-2.49L10.5 8.5H19z" fill="#f7ad39"/><path d="M10.5 16.5c-4.41 0-8-3.59-8-8s3.59-8 8-8 8 3.59 8 8V9h-6.79l4.8 4.8-.35.35a7.917 7.917 0 0 1-5.66 2.35" fill="#f7ce52"/><path d="M10.5 1C14.64 1 18 4.36 18 8.5h-7.5l5.3 5.3a7.467 7.467 0 0 1-5.3 2.2C6.36 16 3 12.64 3 8.5S6.36 1 10.5 1m0-1C5.81 0 2 3.81 2 8.5S5.81 17 10.5 17c2.27 0 4.4-.88 6.01-2.49l.71-.71-4.31-4.31H19v-1C19 3.81 15.19 0 10.5 0z" fill="#f7ad39"/><g fill="none" stroke="#fff" stroke-miterlimit="10" stroke-width=".5"><path d="m8 2 2 5M15 4l-3 3M4 8l5 .5M10 10l-4 4M11 10l2 5" opacity=".6"/></g><path d="M35 57.25c7.13.31 10.31 2.16 10.31 2.85 0 .87-4.19 2.9-12.31 2.9s-12.31-2.03-12.31-2.9c0-.69 3.18-2.54 10.31-2.85V60h4v-2.75m-1-1.03V59h-2v-2.78c-6.88.15-12.31 1.83-12.31 3.88 0 2.15 5.96 3.9 13.31 3.9s13.31-1.75 13.31-3.9c0-2.05-5.43-3.73-12.31-3.88z" fill="#cec6c6" opacity=".8"/><path d="M35 57.24c6.18.21 9.61 1.34 10.25 1.99-.74.77-5.15 2.02-12.25 2.02S21.49 60 20.75 59.23c.63-.65 4.07-1.78 10.25-1.99V60h4v-2.76m-1-1.03V59h-2v-2.79c-6.88.12-12.31 1.42-12.31 3.01 0 1.67 5.96 3.02 13.31 3.02s13.31-1.35 13.31-3.02c0-1.59-5.43-2.89-12.31-3.01z" fill="#cec6c6" opacity=".8"/></svg>