<svg viewBox="0 0 64 64" xmlns="http://www.w3.org/2000/svg"><path d="M35.18 30.5 48.45 7.52c7.71 5.19 12.54 13.72 13 22.98H35.18z" fill="#ff9100"/><path d="M48.61 8.24A29.015 29.015 0 0 1 60.92 30H36.05L48.61 8.24m-.33-1.43L34.32 31h27.66c-.34-10.15-5.71-19.02-13.7-24.19z" fill="#e57200"/><path d="M2.55 30.5c.78-15.74 13.62-28 29.45-28 5.01 0 9.95 1.28 14.31 3.71L32.29 30.5H2.55z" fill="#00b450"/><path d="M32 3c4.75 0 9.44 1.17 13.62 3.4L32 30H3.08c.49-7.15 3.57-13.8 8.74-18.82C17.26 5.9 24.42 3 32 3m0-1C15.77 2 2.55 14.9 2.03 31h30.55L47 6.02A29.898 29.898 0 0 0 32 2z" fill="#008c39"/><path d="M32 61.5c-16.1 0-29.23-12.96-29.5-29h59c-.27 16.04-13.4 29-29.5 29" fill="#1e82ff"/><path d="M60.98 33C60.45 48.53 47.66 61 32 61S3.55 48.53 3.02 33h57.96M62 32H2c0 16.57 13.43 30 30 30s30-13.43 30-30z" fill="#1271d8"/></svg>