<svg viewBox="0 0 64 64" xmlns="http://www.w3.org/2000/svg"><path d="M32 59.5C16.8 59.5 4.5 47.2 4.5 32S16.8 4.5 32 4.5 59.5 16.8 59.5 32 47.2 59.5 32 59.5z" fill="#f5f5f5"/><path d="M32 5c14.9 0 27 12.1 27 27S46.9 59 32 59 5 46.9 5 32 17.1 5 32 5m0-1C16.6 4 4 16.6 4 32s12.6 28 28 28 28-12.6 28-28S47.4 4 32 4z" fill="#c8c8c8"/><g fill="#dcdcdc"><path d="m43.1 14.9-.9.5-3.5 1.9-.9.5.5.9 5.1 9.7.5.9.9-.5 3.5-1.9.9-.5-.5-.9-5.1-9.7-.5-.9M20.9 14.9l-.5.9-5.1 9.7-.5.9.9.5 3.5 1.9.9.5.5-.9 5.1-9.7.5-.9-.9-.5-3.5-1.9-.9-.5M35 37h-6v14h6V37"/></g><g fill="#212121"><path d="m21.3 16.2 3.5 1.9-5.1 9.7-3.5-1.9 5.1-9.7M42.7 16.2l5.1 9.7-3.5 1.9-5.1-9.7 3.5-1.9M34 38v12h-4V38h4"/></g></svg>