<svg viewBox="0 0 64 64" xmlns="http://www.w3.org/2000/svg"><path d="m15.9 53.5-.1-.1c-7.1-5-11.3-13-11.3-21.4s4.2-16.4 11.3-21.4l.1-.1H48l.1.1c7.1 5 11.3 13 11.3 21.4s-4.2 16.4-11.3 21.4l-.1.1H15.9" fill="#f5f5f5"/><path d="M47.9 11C54.6 15.7 59 23.4 59 32s-4.4 16.3-11.1 21H16.1C9.4 48.3 5 40.6 5 32s4.4-16.3 11.1-21h31.8m.3-1H15.8l-.3.2C8.3 15.3 4 23.4 4 32s4.3 16.7 11.5 21.8l.3.2h32.4l.3-.2C55.7 48.7 60 40.6 60 32s-4.3-16.7-11.5-21.8l-.3-.2z" fill="#c8c8c8"/><path d="M19.5 19.5h4v14h-4z" fill="#212121"/><path d="M23 20v13h-3V20h3m1-1h-5v15h5V19z" fill="#dcdcdc"/><path d="M39.5 21.5h4v11h-4z" fill="#212121"/><path d="M43 22v10h-3V22h3m1-1h-5v12h5V21z" fill="#dcdcdc"/><path d="M26.5 49.5v-5c0-2.8 2.2-5 5-5s5 2.2 5 5v5h-10" fill="#212121"/><path d="M31.5 40c2.5 0 4.5 2 4.5 4.5V49h-9v-4.5c0-2.5 2-4.5 4.5-4.5m0-1c-3 0-5.5 2.5-5.5 5.5V50h11v-5.5c0-3-2.5-5.5-5.5-5.5z" fill="#dcdcdc"/></svg>