<svg viewBox="0 0 64 64" xmlns="http://www.w3.org/2000/svg"><path d="M32 61.5C15.7 61.5 2.5 48.3 2.5 32S15.7 2.5 32 2.5 61.5 15.7 61.5 32 48.3 61.5 32 61.5z" fill="#f0f0f0"/><path d="M32 3c16 0 29 13 29 29S48 61 32 61 3 48 3 32 16 3 32 3m0-1C15.4 2 2 15.4 2 32s13.4 30 30 30 30-13.4 30-30S48.6 2 32 2z" fill="#b4b4b4"/><g fill="#1a171b"><path d="m11 28.7 20.6 5.8c0-.2.2-2.3.3-2.5s.4-2.2.5-2.4L11 28.7"/><circle transform="rotate(-80.996 32.002 32)" cx="32" cy="32" r="2.5"/></g><g fill="none" stroke="#1a171b" stroke-miterlimit="10" stroke-width="2"><path d="M47.6 47.6c4-4 6.4-9.5 6.4-15.6 0-12.2-9.8-22-22-22s-22 9.8-22 22c0 6.1 2.5 11.6 6.4 15.6M54 32h3M7 32h3M47.5 16.5l2.2-2.2M14.3 49.7l2.2-2.2M32 10V7M16.5 16.5l-2.2-2.2M49.7 49.7l-2.2-2.2" opacity=".6"/></g><path d="M29.1 48.8h1.3v.8c.2-.4.5-.6.8-.8.3-.2.7-.2 1.1-.2.5 0 .9.1 1.3.3.4.2.7.4.9.7.2.3.4.7.5 1 .1.4.2.8.2 1.3 0 .4-.1.8-.2 1.2-.1.4-.3.7-.5 1-.2.3-.5.5-.8.7-.3.2-.7.3-1.2.3-.2 0-.4 0-.6-.1-.2 0-.4-.1-.6-.2-.2-.1-.4-.2-.5-.3-.2-.1-.3-.3-.4-.4v3.1H29v-8.4zm4.8 3.1c0-.3 0-.6-.1-.8-.1-.3-.2-.5-.3-.7s-.3-.4-.5-.5c-.2-.1-.5-.2-.7-.2-.6 0-1 .2-1.3.6-.3.4-.4.9-.4 1.6 0 .3 0 .6.1.9.1.3.2.5.3.7l.5.5c.2.1.5.2.7.2.3 0 .6-.1.8-.2.2-.1.4-.3.5-.5.1-.2.2-.4.3-.7s.1-.6.1-.9" fill="#1a171b" opacity=".6"/></svg>