<svg viewBox="0 0 64 64" xmlns="http://www.w3.org/2000/svg"><defs><linearGradient id="a" x1="3" x2="61" gradientUnits="userSpaceOnUse"><stop stop-color="#fff" stop-opacity="0" offset="0"/><stop offset=".2"/><stop offset=".8"/><stop stop-color="#fff" stop-opacity="0" offset="1"/></linearGradient></defs><path d="M3 46h58v1H3z" fill="url(#a)"/><path d="M12.5 59.5V14.3L32 4.6l19.5 9.7v45.2z" fill="#c8ffc8"/><path d="m32 5.1 19 9.5V59H13V14.6l19-9.5M32 4 12 14v46h40V14L32 4z" fill="#52cc78"/><path d="M12.5 33.5h39v13h-39z" fill="#c8ffc8"/><path d="M51 34v12H13V34h38m1-1H12v14h40V33z" fill="#52cc78"/><path d="M12.5 20.5h39v13h-39z" fill="#c8ffc8"/><path d="M51 21v12H13V21h38m1-1H12v14h40V20z" fill="#52cc78"/><path d="M17.5 23.5h5v6h-5z" fill="#c8ffc8"/><path d="M22 24v5h-4v-5h4m1-1h-6v7h6v-7z" fill="#52cc78"/><path d="M22.5 23.5h5v6h-5z" fill="#c8ffc8"/><path d="M27 24v5h-4v-5h4m1-1h-6v7h6v-7z" fill="#52cc78"/><path d="M40.5 36.5h6v10h-6z" fill="#c8ffc8"/><path d="M46 37v9h-5v-9h5m1-1h-7v11h7V36z" fill="#52cc78"/><path d="M31.5 23.5h5v6h-5z" fill="#c8ffc8"/><path d="M36 24v5h-4v-5h4m1-1h-6v7h6v-7z" fill="#52cc78"/><path d="M17.5 36.5h5v6h-5z" fill="#c8ffc8"/><path d="M22 37v5h-4v-5h4m1-1h-6v7h6v-7z" fill="#52cc78"/><path d="M22.5 36.5h5v6h-5z" fill="#c8ffc8"/><path d="M27 37v5h-4v-5h4m1-1h-6v7h6v-7z" fill="#52cc78"/><path d="M31.5 36.5h5v6h-5z" fill="#c8ffc8"/><path d="M36 37v5h-4v-5h4m1-1h-6v7h6v-7z" fill="#52cc78"/><path d="M40.5 23.5h6v6h-6z" fill="#c8ffc8"/><path d="M46 24v5h-5v-5h5m1-1h-7v7h7v-7z" fill="#52cc78"/><g fill="#c8ffc8"><path d="M44 41h1v1h-1z" stroke="#52cc78" stroke-miterlimit="10"/><path d="M12.5 20.5v-6.2L32 4.6l19.5 9.7v6.2z"/></g><path d="m32 5.1 19 9.5V20H13v-5.4l19-9.5M32 4 12 14v7h40v-7L32 4z" fill="#52cc78"/><path d="m58 17.5-26-13-26 13" fill="none" stroke="#2e7de5" stroke-miterlimit="10" stroke-width="1.5"/><path d="M25.5 12.5h5v5h-5z" fill="#c8ffc8"/><path d="M30 13v4h-4v-4h4m1-1h-6v6h6v-6z" fill="#52cc78"/><path d="M33.5 12.5h5v5h-5z" fill="#c8ffc8"/><path d="M38 13v4h-4v-4h4m1-1h-6v6h6v-6z" fill="#52cc78"/></svg>