<svg viewBox="0 0 64 64" xmlns="http://www.w3.org/2000/svg"><defs><linearGradient id="a" x1="3" x2="61" gradientUnits="userSpaceOnUse"><stop stop-color="#1d1a1e" offset="0"/><stop stop-color="#444145" offset=".03"/><stop stop-color="#242424" offset=".068"/><stop offset=".232"/><stop stop-color="#282629" offset=".416"/><stop stop-color="#38373a" offset="1"/></linearGradient></defs><g stroke="#000" stroke-miterlimit="10" stroke-width=".5"><path d="m5.24 29.78-.19 3.41.01.15.52 5.6s-.09 1.81 2.94 1.81h44.97s3.66.12 4.31-.84.94-4.59.94-4.59v-5.16l-53.5-.38z" fill="#212121"/><path d="m3.49 23.28-.42 8.67s-.59 1.97 1.77 2.59 30.59 3.93 41.15 3.84 13.67-2.86 13.67-2.86 1.5-.65 1.33-4.38l-.51-8.54s-6.78-1.99-18.78-1.54-38.21 2.22-38.21 2.22z" fill="url(#a)"/></g><path d="M29 41h8v2h-8zM51 41h2v1h-2z"/><circle cx="56" cy="35.08" r="1"/><path d="M47 36.88a6.88 6.88 0 1 1 0-13.76 6.88 6.88 0 0 1 0 13.76" fill="#222"/><path d="M47 23.25c3.72 0 6.75 3.03 6.75 6.75s-3.03 6.75-6.75 6.75-6.75-3.03-6.75-6.75 3.03-6.75 6.75-6.75m0-.25c-3.87 0-7 3.13-7 7s3.13 7 7 7 7-3.13 7-7-3.13-7-7-7z"/><path d="M47 34.87c-2.69 0-4.88-2.19-4.88-4.87s2.19-4.87 4.88-4.87 4.88 2.19 4.88 4.87-2.19 4.87-4.88 4.87" fill="#dadada"/><path d="M47 25.25c2.62 0 4.75 2.13 4.75 4.75s-2.13 4.75-4.75 4.75-4.75-2.13-4.75-4.75 2.13-4.75 4.75-4.75m0-.25c-2.76 0-5 2.24-5 5s2.24 5 5 5 5-2.24 5-5-2.24-5-5-5z" fill="#6d6d6d"/><path d="M47 32.88a2.88 2.88 0 1 1 .001-5.761A2.88 2.88 0 0 1 47 32.88" fill="#797689"/><path d="M47 27.25c1.52 0 2.75 1.23 2.75 2.75s-1.23 2.75-2.75 2.75-2.75-1.23-2.75-2.75 1.23-2.75 2.75-2.75m0-.25c-1.66 0-3 1.34-3 3s1.34 3 3 3 3-1.34 3-3-1.34-3-3-3z"/><circle cx="47" cy="30" r="1.75" fill="#4f3542"/><circle cx="47" cy="30" r="1.05"/><g fill="#c8c8c8"><path d="M13.7 28.01c-.52 0-.89.38-.89.93V29c0 .55.38.91.97.91.13 0 .45 0 .75-.23v-.41c-.25.19-.41.21-.62.21-.31 0-.51-.12-.55-.4h1.2v-.09c.02-.63-.38-.98-.86-.98m-.32.73c.03-.16.15-.28.31-.28s.28.12.31.28h-.62M15.79 28.02c-.22 0-.39.09-.56.29v-.24h-.54v1.79h.54v-1.12c.14-.23.24-.3.38-.3.15 0 .27.1.27.36v1.06h.54v-1.15c0-.53-.36-.69-.63-.69M12.45 28.88c.15-.08.24-.22.24-.4 0-.26-.18-.37-.35-.43-.1-.03-.18-.03-.29-.03H11v1.85h1.09c.15 0 .3-.01.45-.12.16-.12.2-.29.2-.42 0-.17-.08-.28-.16-.35-.03-.05-.08-.07-.13-.1m-.93-.42h.41c.09 0 .22.02.22.14 0 .14-.13.14-.22.14h-.41v-.28m.45 1h-.45v-.37h.45c.11 0 .22.05.22.19s-.11.18-.22.18M17.95 29.82c.32-.12.54-.43.54-.86 0-.71-.55-.96-.98-.96-.52 0-.99.33-.99.95 0 .57.42.95.99.95.08.1.54.49 1.24.27l.08-.59c-.34.28-.81.26-.88.24m-.17-.45a.36.36 0 0 1-.29.13.4.4 0 0 1-.33-.18.605.605 0 0 1-.09-.33c0-.16.05-.3.14-.4.08-.09.16-.13.28-.13.08 0 .16.02.22.07.12.1.19.27.19.46.01.14-.04.29-.12.38"/></g><path d="M47 29h1v1h-1z" fill="#fff"/></svg>