<svg viewBox="0 0 64 64" xmlns="http://www.w3.org/2000/svg" xmlns:xlink="http://www.w3.org/1999/xlink"><defs><linearGradient id="e" x1="29" x2="58" gradientUnits="userSpaceOnUse"><stop stop-color="#82828c" stop-opacity="0" offset="0"/><stop stop-color="#666e7f" offset=".25"/><stop stop-color="#666e7f" offset="1"/></linearGradient><linearGradient id="b" x1="18.462" x2="8.183" y1="60.884" y2="53.687" gradientUnits="userSpaceOnUse" xlink:href="#a"/><linearGradient id="a" x2="0" y1="27.5" y2="3.5" gradientUnits="userSpaceOnUse"><stop stop-color="#82828c" offset="0"/><stop stop-color="#ccd3e7" offset=".5"/><stop stop-color="#82828c" offset="1"/></linearGradient><linearGradient id="d" x2="0" y1="63.5" y2="61.5" gradientUnits="userSpaceOnUse" xlink:href="#a"/><linearGradient id="c" x1="45.817" x2="35.538" y1="53.687" y2="60.884" gradientUnits="userSpaceOnUse" xlink:href="#a"/><linearGradient id="i" x2="0" y1="25" y2="6" gradientUnits="userSpaceOnUse" xlink:href="#a"/><radialGradient id="f" cx="27" cy="32" r="26.5" gradientUnits="userSpaceOnUse"><stop stop-color="#82828c" offset=".296"/><stop stop-color="#ccd3e7" offset=".65"/><stop stop-color="#82828c" offset="1"/></radialGradient><radialGradient id="g" cx="27" cy="32" r="23.5" gradientUnits="userSpaceOnUse"><stop stop-color="#82828c" offset=".5"/><stop stop-color="#ccd3e7" offset=".79"/><stop stop-color="#82828c" offset="1"/></radialGradient><radialGradient id="h" cx="27" cy="32" r="10.5" gradientUnits="userSpaceOnUse"><stop offset=".55"/><stop stop-color="#1a1a1a" offset="1"/></radialGradient></defs><path d="m6.68 62.5 3.65-11.88 12.77 3.64-7.32 8.24z" fill="url(#b)"/><path d="m10.67 51.23 11.53 3.29L15.55 62h-8.2l3.32-10.77M10 50 6 63h10l8-9-14-4z" fill="#666e7f"/><path d="m38.22 62.5-7.32-8.24 12.77-3.64 3.65 11.88z" fill="url(#c)"/><path d="M43.33 51.23 46.65 62h-8.2l-6.64-7.48 11.52-3.29M44 50l-14 4 8 9h10l-4-13z" fill="#666e7f"/><path d="M1.5 61.5h17v2h-17z" fill="url(#d)"/><path d="M18 62v1H2v-1h16m1-1H1v3h18v-3z" fill="#666e7f"/><path d="M35.5 61.5h17v2h-17z" fill="url(#d)"/><path d="M52 62v1H36v-1h16m1-1H35v3h18v-3z" fill="#666e7f"/><path d="M57 6v19H30V6h27m1-1H29v21h29V5z" fill="url(#e)"/><path d="M27 58.5C12.39 58.5.5 46.61.5 32S12.39 5.5 27 5.5 53.5 17.39 53.5 32 41.61 58.5 27 58.5z" fill="url(#f)"/><path d="M27 6c14.34 0 26 11.66 26 26S41.34 58 27 58 1 46.34 1 32 12.66 6 27 6m0-1C12.09 5 0 17.09 0 32s12.09 27 27 27 27-12.09 27-27S41.91 5 27 5z" fill="#666e7f"/><path d="M27 55.5C14.04 55.5 3.5 44.96 3.5 32S14.04 8.5 27 8.5 50.5 19.04 50.5 32 39.96 55.5 27 55.5z" fill="url(#g)"/><path d="M27 9c12.68 0 23 10.32 23 23S39.68 55 27 55 4 44.68 4 32 14.32 9 27 9m0-1C13.75 8 3 18.75 3 32s10.75 24 24 24 24-10.75 24-24S40.25 8 27 8z" fill="#666e7f"/><path d="M27 42.5c-5.79 0-10.5-4.71-10.5-10.5S21.21 21.5 27 21.5 37.5 26.21 37.5 32 32.79 42.5 27 42.5z" fill="url(#h)"/><path d="M27 22c5.51 0 10 4.49 10 10s-4.49 10-10 10-10-4.49-10-10 4.49-10 10-10m0-1c-6.08 0-11 4.92-11 11s4.92 11 11 11 11-4.92 11-11-4.92-11-11-11z" fill="#191919"/><circle cx="27" cy="32" r="2.5" fill="#d8bb41" stroke="#484e59" stroke-miterlimit="10"/><path d="M57.5 3.5h6v24h-6z" fill="url(#a)"/><path d="M63 4v23h-5V4h5m1-1h-7v25h7V3z" fill="#666e7f"/><path d="M27 6c10.85 0 19.98 8.04 22.76 19H57V6H27z" fill="url(#i)"/></svg>