<svg viewBox="0 0 64 64" xmlns="http://www.w3.org/2000/svg" xmlns:xlink="http://www.w3.org/1999/xlink"><defs><linearGradient id="b" x2="0" y1="10.5" y2="53.5" gradientUnits="userSpaceOnUse"><stop stop-color="#fafafa" offset="0"/><stop stop-color="#dcdcdc" offset="1"/></linearGradient><linearGradient id="a" x1="14.5" x2="18.5" gradientUnits="userSpaceOnUse"><stop stop-color="#dcdcdc" offset="0"/><stop stop-color="#fafafa" offset="1"/></linearGradient><linearGradient id="c" x1="22.5" x2="26.5" gradientUnits="userSpaceOnUse" xlink:href="#a"/><linearGradient id="d" x1="30.5" x2="34.5" gradientUnits="userSpaceOnUse" xlink:href="#a"/><linearGradient id="e" x1="38.5" x2="42.5" gradientUnits="userSpaceOnUse" xlink:href="#a"/><linearGradient id="f" x1="46.5" x2="50.5" gradientUnits="userSpaceOnUse" xlink:href="#a"/><linearGradient id="g" x1="54.5" x2="58.5" gradientUnits="userSpaceOnUse" xlink:href="#a"/></defs><g fill="#505050"><path d="M6 13h6v3H6zM6 49h6v3H6z"/></g><path d="M12 53.5c-.83 0-1.5-.67-1.5-1.5V12c0-.83.67-1.5 1.5-1.5h49c.83 0 1.5.67 1.5 1.5v40c0 .83-.67 1.5-1.5 1.5H12" fill="url(#b)"/><path d="M61 11c.55 0 1 .45 1 1v40c0 .55-.45 1-1 1H12c-.55 0-1-.45-1-1V12c0-.55.45-1 1-1h49m0-1H12c-1.1 0-2 .9-2 2v40c0 1.1.9 2 2 2h49c1.1 0 2-.9 2-2V12c0-1.1-.9-2-2-2z" fill="#a0a0a0"/><path d="M15 51.5c-.28 0-.5-.22-.5-.5V13c0-.28.22-.5.5-.5h3c.28 0 .5.22.5.5v38c0 .28-.22.5-.5.5h-3" fill="url(#a)"/><path d="M18 13v38h-3V13h3m0-1h-3c-.55 0-1 .45-1 1v38c0 .55.45 1 1 1h3c.55 0 1-.45 1-1V13c0-.55-.45-1-1-1z" fill="#b4b4b4"/><path d="M23 51.5c-.28 0-.5-.22-.5-.5V13c0-.28.22-.5.5-.5h3c.28 0 .5.22.5.5v38c0 .28-.22.5-.5.5h-3" fill="url(#c)"/><path d="M26 13v38h-3V13h3m0-1h-3c-.55 0-1 .45-1 1v38c0 .55.45 1 1 1h3c.55 0 1-.45 1-1V13c0-.55-.45-1-1-1z" fill="#b4b4b4"/><path d="M31 51.5c-.28 0-.5-.22-.5-.5V13c0-.28.22-.5.5-.5h3c.28 0 .5.22.5.5v38c0 .28-.22.5-.5.5h-3" fill="url(#d)"/><path d="M34 13v38h-3V13h3m0-1h-3c-.55 0-1 .45-1 1v38c0 .55.45 1 1 1h3c.55 0 1-.45 1-1V13c0-.55-.45-1-1-1z" fill="#b4b4b4"/><path d="M39 51.5c-.28 0-.5-.22-.5-.5V13c0-.28.22-.5.5-.5h3c.28 0 .5.22.5.5v38c0 .28-.22.5-.5.5h-3" fill="url(#e)"/><path d="M42 13v38h-3V13h3m0-1h-3c-.55 0-1 .45-1 1v38c0 .55.45 1 1 1h3c.55 0 1-.45 1-1V13c0-.55-.45-1-1-1z" fill="#b4b4b4"/><path d="M47 51.5c-.28 0-.5-.22-.5-.5V13c0-.28.22-.5.5-.5h3c.28 0 .5.22.5.5v38c0 .28-.22.5-.5.5h-3" fill="url(#f)"/><path d="M50 13v38h-3V13h3m0-1h-3c-.55 0-1 .45-1 1v38c0 .55.45 1 1 1h3c.55 0 1-.45 1-1V13c0-.55-.45-1-1-1z" fill="#b4b4b4"/><path d="M55 51.5c-.28 0-.5-.22-.5-.5V13c0-.28.22-.5.5-.5h3c.28 0 .5.22.5.5v38c0 .28-.22.5-.5.5h-3" fill="url(#g)"/><path d="M58 13v38h-3V13h3m0-1h-3c-.55 0-1 .45-1 1v38c0 .55.45 1 1 1h3c.55 0 1-.45 1-1V13c0-.55-.45-1-1-1z" fill="#b4b4b4"/><path d="M2 17.5C.97 17.5.5 15.96.5 14.53c0-1.46.47-3.03 1.5-3.03h6.5v6H2" fill="#fff"/><g fill="#a0a0a0"><path d="M8 12v5H2c-.55 0-1-1.09-1-2.47S1.45 12 2 12h6m1-1H2c-1.38 0-2 1.77-2 3.53C0 16.61.8 18 2 18h7v-7z"/><circle cx="6.5" cy="50.5" r="2.5"/></g><circle cx="6.5" cy="50.5" r="1.5" fill="#505050"/><g fill="#c8c8c8"><path d="M2 13h6v1H2zM2 15h6v1H2z"/></g></svg>