<svg viewBox="0 0 64 64" xmlns="http://www.w3.org/2000/svg"><path d="M38.5 26.5h-.2c-.2 0-.3 0-.4-.1h-.1c-2.3-.4-4.2-2.7-4.4-5.2v-.8c.1-.4.2-.9.3-1.4.2-.3.4-.7.6-1.1l.7-1c1.6-1.9 2.9-3.8 3.8-5.8 1 2.4 2.6 4.5 3.9 6.1.1.2.3.5.6.8.2.4.5.9.8 1.3.1.3.2.8.3 1.2v1.2c-.3 2.2-2.1 4.3-4.3 4.7H40c-.1 0-.2.1-.4.1h-1.1" fill="#1e82ff"/><path d="M39 12.3c1 2.1 2.4 3.8 3.5 5.2.2.3.4.5.5.7.3.4.5.8.7 1.3.1.3.2.7.2 1V21.5c-.2 2-1.9 3.9-3.9 4.3h-2.2c-2.1-.4-3.8-2.5-3.9-4.7v-.7l.3-1.2c.2-.4.4-.7.6-1l.7-1c1.4-1.6 2.6-3.2 3.5-4.9m.1-2.3c-1.1 2.4-2.6 4.6-4.3 6.7l-.8 1-.6 1.2c-.2.5-.3 1-.4 1.5v.8c.1 2.6 2.2 5.2 4.8 5.6.2.2.5.2.7.2h.9c.2 0 .5 0 .8-.1 2.4-.4 4.4-2.7 4.7-5.1.1-.1 0-.3.1-.5v-.8c-.1-.5-.2-.9-.3-1.4-.2-.5-.5-1-.8-1.5-.2-.2-.4-.5-.6-.8-1.6-1.9-3-4-3.9-6.3l-.3-.5z" fill="#1271d8"/><path d="M20.5 40h-.2c-.2 0-.3 0-.4-.1h-.1c-2.3-.4-4.2-2.7-4.4-5.2v-.8c.1-.4.2-.9.3-1.4.2-.3.4-.7.6-1.1l.7-1c1.6-1.9 2.9-3.8 3.8-5.8 1 2.4 2.6 4.5 3.9 6.1.1.2.3.5.6.8.2.4.5.9.8 1.3.1.3.2.8.3 1.2v1.2c-.3 2.2-2.1 4.3-4.3 4.7H22c-.1 0-.2.1-.4.1h-1.1" fill="#1e82ff"/><path d="M21 25.8c1 2.1 2.4 3.8 3.5 5.2.2.3.4.5.5.7.3.4.5.8.7 1.3.1.3.2.7.2 1V35c-.2 2-1.9 3.9-3.9 4.3h-2.2c-2.1-.4-3.8-2.5-3.9-4.7V34l.3-1.2c.2-.4.4-.7.6-1l.7-1c1.4-1.7 2.6-3.3 3.5-5m.1-2.3c-1.1 2.4-2.6 4.6-4.3 6.7l-.8 1-.6 1.2c-.2.5-.3 1-.4 1.5v.8c.1 2.6 2.2 5.2 4.8 5.6.2.1.5.1.8.1h.9c.2 0 .5 0 .8-.1 2.4-.4 4.4-2.7 4.7-5.1.1-.1 0-.3.1-.5V34c-.1-.5-.2-.9-.3-1.4-.2-.5-.5-1-.8-1.5-.2-.2-.4-.5-.6-.8-1.6-1.9-3-4-3.9-6.3l-.4-.5z" fill="#1271d8"/><path d="M38.5 53.5h-.2c-.2 0-.3 0-.4-.1h-.1c-2.3-.4-4.2-2.7-4.4-5.2v-.8c.1-.4.2-.9.3-1.4.2-.3.4-.7.6-1.1l.7-1c1.6-1.9 2.9-3.8 3.8-5.8 1 2.4 2.6 4.5 3.9 6.1.1.2.3.5.6.8.2.4.5.9.8 1.3.1.3.2.8.3 1.2v1.2c-.3 2.2-2.1 4.3-4.3 4.7H40c-.1 0-.2.1-.4.1h-1.1" fill="#1e82ff"/><path d="M39 39.3c1 2.1 2.4 3.8 3.5 5.2.2.3.4.5.5.7.3.4.5.8.7 1.3.1.3.2.7.2 1V48.5c-.2 2-1.9 3.9-3.9 4.3h-2.2c-2.1-.4-3.8-2.5-3.9-4.7v-.7l.3-1.2c.2-.4.4-.7.6-1l.7-1c1.4-1.6 2.6-3.2 3.5-4.9m.1-2.3c-1.1 2.4-2.6 4.6-4.3 6.7l-.8 1-.6 1.2c-.2.5-.3 1-.4 1.5v.8c.1 2.6 2.2 5.2 4.8 5.6.2.2.5.2.7.2h.9c.2 0 .5 0 .8-.1 2.4-.4 4.4-2.7 4.7-5.1.1-.1 0-.3.1-.5v-.8c-.1-.5-.2-.9-.3-1.4-.2-.5-.5-1-.8-1.5-.2-.2-.4-.5-.6-.8-1.6-1.9-3-4-3.9-6.3l-.3-.5z" fill="#1271d8"/></svg>