<svg viewBox="0 0 64 64" xmlns="http://www.w3.org/2000/svg"><path d="M3.5 21.5h57v19h-57z" fill="#e7ebf4"/><path d="M60 22v18H4V22h56m1-1H3v20h58V21z" fill="#c4c6cc"/><path d="M10 25h42v5H10zM7 41h6v1H7zM51 41h6v1h-6z"/><circle cx="7.5" cy="26.5" r="1.5" fill="#b6c7d1"/><circle cx="9" cy="37" r="1"/><path d="M53.5 30.88c-1.86 0-3.38-1.51-3.38-3.38s1.51-3.38 3.38-3.38 3.38 1.51 3.38 3.38-1.52 3.38-3.38 3.38" fill="#b6c7d1"/><path d="M53.5 24.25c1.79 0 3.25 1.46 3.25 3.25s-1.46 3.25-3.25 3.25-3.25-1.46-3.25-3.25 1.46-3.25 3.25-3.25m0-.25c-1.93 0-3.5 1.57-3.5 3.5s1.57 3.5 3.5 3.5 3.5-1.57 3.5-3.5-1.57-3.5-3.5-3.5z" fill="#889499"/><path d="M6 32h52v1H6z" fill="#3c3c3c"/><path d="M6 33h52v1H6z" fill="#fff"/><path d="M47 36h11v2H47z" fill="#899ba7"/></svg>