<svg viewBox="0 0 64 64" xmlns="http://www.w3.org/2000/svg"><g opacity=".5"><path d="M31.7 62.4C16.32 50.85 7.5 33.21 7.5 14c0-.25.01-.5.02-.75.01-.17.02-.91.02-.91l.39-.08C16.67 10.47 24.66 6.89 31.7 1.6l.3-.23.3.23c7.04 5.29 15.03 8.87 23.76 10.65l.39.08s.02.74.02.91c.01.25.02.5.02.75 0 19.21-8.82 36.85-24.2 48.4l-.29.23-.3-.22" fill="#fff"/><path d="M32 2c6.96 5.23 15.12 8.94 23.96 10.74.01.42.04.84.04 1.26 0 19.63-9.43 37.05-24 48C17.43 51.05 8 33.63 8 14c0-.42.03-.84.04-1.26C16.88 10.94 25.04 7.23 32 2m0-1.25-.6.45C24.42 6.44 16.5 9.99 7.84 11.76l-.78.16-.02.8c0 .17-.01.33-.02.5-.01.26-.02.52-.02.78 0 19.37 8.89 37.15 24.4 48.8l.6.45.6-.45C48.11 51.15 57 33.36 57 14c0-.26-.01-.52-.02-.78-.01-.17-.01-.33-.02-.5l-.02-.8-.78-.16C47.5 9.99 39.58 6.44 32.6 1.2L32 .75z" fill="#c8c8c8"/></g><path d="M32 58.37C18.59 48.15 10.9 32.66 10.9 15.8c0-.22.01-.43.02-.64v-.08c7.72-1.63 14.81-4.81 21.08-9.45 6.27 4.64 13.36 7.82 21.08 9.45v.08c.01.21.02.43.02.64 0 16.86-7.69 32.35-21.1 42.57" fill="#00c864"/><path d="M32 6.24c6.15 4.49 13.07 7.6 20.59 9.24 0 .11.01.21.01.32 0 16.57-7.5 31.82-20.6 41.94C18.9 47.62 11.4 32.37 11.4 15.8c0-.11 0-.21.01-.32 7.52-1.64 14.44-4.74 20.59-9.24M32 5c-6.27 4.71-13.61 8.04-21.57 9.67-.01.38-.03.75-.03 1.13 0 17.67 8.48 33.35 21.6 43.2 13.12-9.85 21.6-25.53 21.6-43.2 0-.38-.03-.75-.03-1.13C45.61 13.04 38.27 9.71 32 5z" fill="#009949"/></svg>