<svg viewBox="0 0 64 64" xmlns="http://www.w3.org/2000/svg" xmlns:xlink="http://www.w3.org/1999/xlink"><defs><linearGradient id="a" x2="0" y1="36" y2="46" gradientUnits="userSpaceOnUse"><stop stop-color="#c80000" offset="0"/><stop stop-color="#a60000" offset=".1"/><stop stop-color="#950000" offset=".582"/><stop stop-color="#8c0000" offset="1"/></linearGradient><linearGradient id="b" x2="0" y1="20.54" y2="42.54" gradientUnits="userSpaceOnUse"><stop stop-color="#c80000" offset="0"/><stop stop-color="#a60000" offset=".266"/><stop stop-color="#950000" offset=".659"/><stop stop-color="#8c0000" offset="1"/></linearGradient><linearGradient id="d" x1="9.5" x2="1.5" gradientUnits="userSpaceOnUse" xlink:href="#a"/><linearGradient id="c" x1="54.5" x2="62.5" gradientUnits="userSpaceOnUse" xlink:href="#a"/></defs><path d="M15 42.54c-3.58 0-6.5-2.92-6.5-6.5v-9c0-3.58 2.92-6.5 6.5-6.5h34c3.58 0 6.5 2.92 6.5 6.5v9c0 3.58-2.92 6.5-6.5 6.5H15" fill="url(#b)"/><path d="M49 21.04c3.31 0 6 2.69 6 6v9c0 3.31-2.69 6-6 6H15c-3.31 0-6-2.69-6-6v-9c0-3.31 2.69-6 6-6h34m0-1H15c-3.85 0-7 3.15-7 7v9c0 3.85 3.15 7 7 7h34c3.85 0 7-3.15 7-7v-9c0-3.85-3.15-7-7-7z" fill="#8c0000"/><path d="M7 36h50v10H7z" fill="url(#a)"/><path d="M54.5 46.5v-16h.06l-.01-.56-.02-.16c-.01-.09-.03-.19-.03-.28 0-2.21 1.79-4 4-4s4 1.79 4 4c0 2.03-1.53 3.73-3.56 3.95l-.44.05v13h-4" fill="url(#c)"/><path d="M58.5 26c1.93 0 3.5 1.57 3.5 3.5 0 1.77-1.34 3.26-3.11 3.46l-.89.1V46h-3V31h.17l-.12-1.11-.02-.17a.78.78 0 0 1-.03-.22c0-1.93 1.57-3.5 3.5-3.5m0-1c-2.49 0-4.5 2.01-4.5 4.5 0 .17.03.33.05.5H54v17h5V33.95c2.25-.25 4-2.14 4-4.45 0-2.49-2.01-4.5-4.5-4.5z" fill="#8c0000"/><path d="M5.5 46.5v-13l-.44-.05A3.976 3.976 0 0 1 1.5 29.5c0-2.21 1.79-4 4-4s4 1.79 4 4c0 .1-.01.19-.03.28l-.08.72h.11v16h-4" fill="url(#d)"/><path d="M5.5 26C7.43 26 9 27.57 9 29.5c0 .08-.01.15-.02.22l-.02.17L8.83 31H9v15H6V33.06l-.89-.1A3.493 3.493 0 0 1 2 29.5C2 27.57 3.57 26 5.5 26m0-1C3.01 25 1 27.01 1 29.5c0 2.31 1.75 4.2 4 4.45V47h5V30h-.05c.02-.17.05-.33.05-.5 0-2.49-2.01-4.5-4.5-4.5z" fill="#8c0000"/><path d="M13 46h4v1h-4zM47 46h4v1h-4z"/><g fill="#845340" stroke="#663629" stroke-miterlimit="10"><circle cx="5.5" cy="29.5" r="2.04"/><circle cx="58.5" cy="29.5" r="2.04"/></g></svg>