<svg viewBox="0 0 64 64" xmlns="http://www.w3.org/2000/svg"><path d="M30.5 25.5h3v9h-3z" fill="#ececed"/><path d="M33 26v8h-2v-8h2m1-1h-4v10h4V25z" fill="#9b9c9e"/><path d="M14 56.5a2.5 2.5 0 0 1-2.5-2.5V34a2.5 2.5 0 0 1 2.5-2.5h36a2.5 2.5 0 0 1 2.5 2.5v20a2.5 2.5 0 0 1-2.5 2.5H14" fill="#36aeff"/><path d="M50 32c1.1 0 2 .9 2 2v20c0 1.1-.9 2-2 2H14c-1.1 0-2-.9-2-2V34c0-1.1.9-2 2-2h36m0-1H14c-1.65 0-3 1.35-3 3v20c0 1.65 1.35 3 3 3h36c1.65 0 3-1.35 3-3V34c0-1.65-1.35-3-3-3z" fill="#2b8ed8"/><path d="M21.5 11.5h21v15h-21z" fill="#646464"/><path d="M42 12v14H22V12h20m1-1H21v16h22V11z" fill="#282828"/><path d="M24.5 14.5h15v9h-15z" fill="#ececed"/><path d="M39 15v8H25v-8h14m1-1H24v10h16V14z" fill="#9b9c9e"/><g fill="none" stroke="#c56c33" stroke-miterlimit="10" stroke-width="3"><path d="M24.5 11c0-1.93-1.57-3.5-3.5-3.5H7M39.5 11c0-1.93 1.57-3.5 3.5-3.5h15"/></g><g fill="#646464"><path d="M26 16h9v1h-9zM26 18h5v1h-5zM26 20h7v1h-7z"/></g></svg>