<svg viewBox="0 0 64 64" xmlns="http://www.w3.org/2000/svg"><defs><radialGradient id="a" cx="16.333" cy="15.167" r="43.668" gradientUnits="userSpaceOnUse"><stop stop-color="#6c9ac2" offset="0"/><stop stop-color="#005096" offset="1"/></radialGradient></defs><path d="M2.5 2.5h59v59h-59z" fill="#ececed"/><path d="M61 3v58H3V3h58m1-1H2v60h60V2z" fill="#9b9c9e"/><path d="M5 5h54v54H5z" fill="url(#a)"/><g fill="#ececed"><path d="M15 3h1v58h-1z"/><path d="M7 3h1v58H7zM12 3h1v58h-1zM18 3h1v58h-1zM23 3h1v58h-1zM29 3h1v58h-1zM34 3h1v58h-1zM40 3h1v58h-1zM45 3h1v58h-1zM51 3h1v58h-1zM56 3h1v58h-1z" opacity=".25"/><path d="M26 3h1v58h-1zM48 3h1v58h-1zM37 3h1v58h-1z"/><path d="M3 48h58v1H3zM3 37h58v1H3zM3 26h58v1H3zM3 15h58v1H3z"/><path d="M15.5 13.378H17v3h-3zM26.5 13.378H28v3h-3zM37.5 13.378H39v3h-3zM48.5 13.378H50v3h-3zM15.5 24.378H17v3h-3zM26.5 24.378H28v3h-3zM37.5 24.378H39v3h-3zM48.5 24.378H50v3h-3zM15.5 35.378H17v3h-3zM26.5 35.378H28v3h-3zM35.378 37.5H39v3h-3zM46.378 37.5H50v3h-3zM15.5 46.378H17v3h-3zM26.5 46.378H28v3h-3zM37.5 46.378H39v3h-3zM48.5 46.378H50v3h-3z"/></g></svg>