<svg viewBox="0 0 64 64" xmlns="http://www.w3.org/2000/svg"><path d="M27.92 51.29c-.43 0-.79-.15-1.11-.47L15.82 39.5H7.08c-.43 0-.79-.15-1.11-.47s-.47-.68-.47-1.11V26.08c0-.43.15-.79.47-1.11s.68-.47 1.11-.47h8.74l10.99-11.33c.31-.31.68-.47 1.11-.47s.79.15 1.11.47.47.68.47 1.11V49.7c0 .43-.15.79-.47 1.11-.32.33-.68.48-1.11.48z" fill="#dcdcdc"/><path d="M27.92 13.21c.3 0 .53.1.76.33.22.22.32.45.32.75v35.42c0 .3-.1.53-.33.76s-.46.33-.76.33-.53-.1-.75-.31L16.33 39.3l-.29-.3H7.08c-.3 0-.53-.1-.76-.33a.992.992 0 0 1-.32-.75V26.08c0-.3.1-.53.33-.76.22-.22.45-.32.75-.32h8.95l.29-.3 10.83-11.16c.23-.23.47-.33.77-.33m0-1c-.56 0-1.05.21-1.46.62L15.61 24H7.08c-.56 0-1.05.21-1.46.62s-.62.9-.62 1.46v11.83c0 .56.21 1.05.62 1.46.41.42.9.63 1.46.63h8.53l10.84 11.17c.41.41.9.62 1.46.62s1.05-.21 1.46-.62.63-.9.63-1.46V14.29c0-.56-.21-1.05-.62-1.46-.41-.42-.9-.62-1.46-.62z" fill="#aaa"/><path d="M37.18 39.26c-.43 0-.79-.15-1.11-.46-.31-.3-.46-.67-.46-1.11 0-.34.09-.61.27-.83.22-.27.5-.51.82-.7.38-.23.76-.49 1.13-.77.43-.31.79-.76 1.09-1.32.29-.57.44-1.26.44-2.08s-.15-1.51-.44-2.08c-.29-.56-.66-1.01-1.09-1.32-.38-.28-.76-.53-1.13-.77-.32-.2-.59-.43-.82-.7-.18-.22-.27-.49-.27-.83 0-.45.15-.81.46-1.11.32-.31.68-.46 1.11-.46.24 0 .44.04.58.11 1.45.56 2.59 1.51 3.44 2.83.86 1.33 1.3 2.79 1.3 4.32s-.44 2.98-1.29 4.31c-.85 1.32-2 2.27-3.41 2.83-.18.11-.38.14-.62.14z" fill="#1e82ff"/><path d="M37.18 25.24c.22 0 .33.04.36.06l.04.02.04.02c1.32.51 2.35 1.36 3.16 2.62C41.6 29.22 42 30.54 42 32s-.4 2.77-1.21 4.03c-.81 1.25-1.85 2.11-3.17 2.64l-.04.02-.04.02c-.03.02-.14.06-.36.06-.3 0-.53-.1-.76-.31-.22-.21-.31-.44-.31-.76 0-.29.09-.43.16-.51.19-.23.42-.43.69-.6.39-.24.78-.5 1.17-.79.49-.36.9-.86 1.23-1.49.33-.64.5-1.41.5-2.31 0-.89-.17-1.67-.5-2.31-.33-.63-.74-1.13-1.23-1.49-.39-.28-.78-.55-1.17-.79a2.69 2.69 0 0 1-.69-.6c-.07-.08-.16-.22-.16-.51 0-.31.1-.55.31-.76.22-.21.46-.3.76-.3m0-1c-.56 0-1.05.2-1.46.6s-.61.89-.61 1.47c0 .45.13.84.39 1.15s.57.58.94.81.73.47 1.1.74.68.65.94 1.15.39 1.11.39 1.84-.13 1.35-.39 1.84c-.26.5-.57.88-.94 1.15s-.73.52-1.1.74c-.37.23-.68.5-.94.81s-.39.7-.39 1.15c0 .58.2 1.07.61 1.47s.89.6 1.46.6c.32 0 .59-.05.81-.16 1.51-.6 2.72-1.61 3.64-3.02C42.54 35.16 43 33.64 43 32s-.46-3.17-1.37-4.59c-.92-1.42-2.13-2.43-3.64-3.01-.22-.11-.49-.16-.81-.16z" fill="#1271d8"/><path d="M40.16 46.9c-.45 0-.82-.15-1.13-.47-.32-.31-.47-.68-.47-1.1 0-.65.31-1.12.99-1.46 1.24-.64 2.07-1.12 2.53-1.47 1.65-1.2 2.96-2.74 3.88-4.56.93-1.82 1.4-3.79 1.4-5.84s-.47-4.02-1.4-5.84-2.23-3.35-3.89-4.56c-.45-.34-1.28-.82-2.52-1.46-.68-.35-.99-.81-.99-1.46 0-.43.15-.79.47-1.1.31-.32.68-.47 1.1-.47.22 0 .44.04.66.13 2.9 1.22 5.27 3.21 7.04 5.91s2.67 5.68 2.67 8.86-.9 6.17-2.67 8.86c-1.77 2.7-4.14 4.68-7.06 5.91-.2.07-.41.12-.61.12z" fill="#1e82ff"/><path d="M40.13 17.6c.16 0 .32.03.45.08 2.82 1.19 5.12 3.11 6.83 5.72C49.13 26.02 50 28.91 50 32s-.87 5.98-2.59 8.59c-1.71 2.61-4.01 4.54-6.8 5.71-.16.06-.32.1-.45.1-.32 0-.56-.1-.78-.32s-.32-.45-.32-.75c0-.34.09-.7.72-1.02 1.27-.66 2.12-1.15 2.59-1.5 1.72-1.25 3.08-2.85 4.04-4.74s1.45-3.93 1.45-6.07-.49-4.17-1.45-6.07a13.24 13.24 0 0 0-4.03-4.73c-.48-.36-1.33-.85-2.6-1.51-.63-.32-.72-.68-.72-1.02 0-.3.1-.53.32-.75s.46-.32.75-.32m0-1c-.56 0-1.05.2-1.46.61s-.61.89-.61 1.46c0 .84.42 1.48 1.26 1.91 1.21.63 2.03 1.1 2.46 1.42a12.25 12.25 0 0 1 3.74 4.38c.89 1.76 1.34 3.63 1.34 5.61s-.45 3.85-1.34 5.61-2.14 3.22-3.74 4.38c-.43.32-1.25.8-2.46 1.42-.84.43-1.26 1.07-1.26 1.91 0 .56.2 1.05.61 1.46s.91.61 1.49.61c.26 0 .53-.05.81-.16 3.02-1.27 5.45-3.3 7.28-6.1C50.08 38.35 51 35.3 51 32s-.92-6.35-2.75-9.14-4.26-4.83-7.28-6.1c-.28-.1-.56-.16-.84-.16z" fill="#1271d8"/><path d="M43.12 54.5c-.43 0-.79-.15-1.1-.47s-.47-.68-.47-1.1c0-.59.33-1.08 1.02-1.48.13-.08.36-.18.67-.31.36-.15.62-.27.78-.37 1-.54 1.91-1.11 2.7-1.68 2.71-2 4.85-4.53 6.36-7.52 1.52-2.99 2.29-6.21 2.29-9.57s-.77-6.58-2.29-9.57-3.66-5.52-6.36-7.52c-.79-.57-1.7-1.14-2.71-1.69-.15-.09-.41-.21-.77-.36-.31-.13-.53-.23-.67-.31-.68-.4-1.01-.88-1.01-1.47 0-.43.15-.79.47-1.1s.68-.47 1.1-.47c.22 0 .44.04.66.13 4.42 1.91 8.02 4.93 10.7 8.98 2.67 4.05 4.03 8.55 4.03 13.39s-1.35 9.34-4.03 13.39c-2.67 4.05-6.28 7.07-10.71 8.99-.22.07-.45.11-.66.11z" fill="#1e82ff"/><path d="M43.12 10c.16 0 .32.03.45.08 4.35 1.87 7.88 4.84 10.5 8.8C56.67 22.85 58 27.26 58 32s-1.33 9.15-3.94 13.12c-2.62 3.97-6.15 6.93-10.46 8.79-.17.06-.32.1-.48.1-.3 0-.53-.1-.75-.32s-.32-.45-.32-.75c0-.28.09-.64.76-1.04.06-.04.23-.12.62-.29.38-.16.65-.29.82-.38 1.02-.56 1.95-1.13 2.77-1.72a21.75 21.75 0 0 0 6.51-7.69c1.55-3.06 2.34-6.36 2.34-9.8s-.79-6.74-2.34-9.8-3.74-5.65-6.52-7.7a27.58 27.58 0 0 0-2.74-1.71c-.19-.11-.46-.24-.84-.39-.39-.16-.55-.25-.61-.28-.68-.4-.77-.77-.77-1.05 0-.3.1-.53.32-.75.22-.24.45-.34.75-.34m0-1c-.56 0-1.05.2-1.46.61s-.61.89-.61 1.46c0 .78.42 1.41 1.26 1.91.15.09.39.2.73.34.33.14.58.25.73.34.99.54 1.88 1.09 2.65 1.65 2.65 1.96 4.72 4.41 6.21 7.34s2.23 6.05 2.23 9.35-.74 6.42-2.23 9.35-3.56 5.38-6.21 7.34c-.78.56-1.66 1.11-2.65 1.65-.15.09-.39.2-.73.34-.33.14-.58.25-.73.34-.84.5-1.26 1.13-1.26 1.91 0 .56.2 1.05.61 1.46s.9.61 1.46.61c.28 0 .56-.05.84-.16 4.55-1.96 8.2-5.02 10.93-9.17C57.63 41.52 59 36.96 59 32s-1.37-9.52-4.11-13.67-6.38-7.21-10.93-9.17c-.28-.11-.56-.16-.84-.16z" fill="#1271d8"/></svg>