<svg viewBox="0 0 64 64" xmlns="http://www.w3.org/2000/svg"><defs><radialGradient id="a" cx="33" cy="30" r="25" gradientUnits="userSpaceOnUse"><stop stop-color="#f8f5e5" stop-opacity="0" offset=".8"/><stop stop-color="#ffde52" stop-opacity=".2" offset=".8"/><stop stop-color="#ffde52" stop-opacity="0" offset="1"/></radialGradient></defs><circle cx="33" cy="30" r="25" fill="url(#a)"/><circle cx="33" cy="30" r="18" fill="#ffde52"/><g fill="#d9f1ff" stroke="#7aadcc" stroke-linejoin="bevel" stroke-miterlimit="10"><path d="M25.98 44.7c.01-.07.02-.13.02-.2 0-2.49-4.03-4.5-9-4.5s-9 2.01-9 4.5c0 .4.11.78.31 1.15C5.74 46.51 4 48.14 4 50c0 2.76 3.81 5 8.5 5 3.09 0 5.78-.97 7.27-2.42.83.27 1.75.42 2.73.42 3.59 0 6.5-2.01 6.5-4.5 0-1.6-1.21-3-3.02-3.8z"/><path d="M59 44.5c0-3.04-2.46-5.5-5.5-5.5-.71 0-1.39.14-2.02.39C50.11 37.94 47.94 37 45.5 37c-.75 0-1.47.09-2.15.25C41.98 35.88 39.87 35 37.5 35c-3.27 0-6.04 1.67-7.07 4-4.11.03-7.43 2.7-7.43 6s3.32 5.97 7.43 6c1.03 2.33 3.8 4 7.07 4 1.69 0 3.25-.45 4.5-1.21 1.25.76 2.81 1.21 4.5 1.21 3.72 0 6.81-2.17 7.39-5.02 2.86-.2 5.11-2.57 5.11-5.48z"/></g></svg>