<svg viewBox="0 0 64 64" xml:space="preserve" xmlns="http://www.w3.org/2000/svg"><path d="M32 59.5C17.939 59.5 6.5 48.061 6.5 34a25.439 25.439 0 0 1 15-23.242v8.013A18.483 18.483 0 0 0 13.5 34c0 10.201 8.299 18.5 18.5 18.5S50.5 44.201 50.5 34a18.48 18.48 0 0 0-8-15.229v-8.013A25.439 25.439 0 0 1 57.5 34c0 14.061-11.439 25.5-25.5 25.5z" fill="#00C864"/><path d="M43 11.546A24.939 24.939 0 0 1 57 34c0 13.785-11.215 25-25 25S7 47.785 7 34a24.939 24.939 0 0 1 14-22.454v6.965a18.98 18.98 0 0 0-8 15.49c0 10.477 8.523 19 19 19s19-8.523 19-19a18.98 18.98 0 0 0-8-15.49v-6.965m-1-1.55v9.039c4.823 3.229 8 8.725 8 14.965 0 9.941-8.059 18-18 18s-18-8.059-18-18c0-6.24 3.177-11.736 8-14.965V9.996C12.605 13.914 6 23.185 6 34c0 14.359 11.641 26 26 26s26-11.641 26-26c0-10.815-6.605-20.086-16-24.004z" fill="#009949"/><path fill="#00C864" d="M28.5 4.5h7v23h-7z"/><path d="M35 5v22h-6V5h6m1-1h-8v24h8V4z" fill="#009949"/></svg>