<svg viewBox="0 0 64 64" xmlns="http://www.w3.org/2000/svg" xmlns:xlink="http://www.w3.org/1999/xlink"><defs><linearGradient id="a" x1="31" x2="33" gradientUnits="userSpaceOnUse"><stop stop-color="#82828c" offset="0"/><stop stop-color="#ccd3e7" offset=".5"/><stop stop-color="#82828c" offset="1"/></linearGradient><linearGradient id="b" x1="24" x2="40" gradientUnits="userSpaceOnUse" xlink:href="#a"/></defs><path d="M20.92 50.47v-1H7.37v1.51h11.44c.68-.23 1.41-.39 2.11-.51" fill="#f9aa43"/><path d="M17.5 40.5h29v2h-29z" fill="#fff"/><path d="M46 41v1H18v-1h28m1-1H17v3h30v-3z" fill="#ccc"/><g fill="url(#a)"><path d="M31 43h2v16h-2zM33 40h-2V4.84c0-.55.45-1 1-1s1 .45 1 1V40"/></g><path d="M24 59h16v1H24z" fill="url(#b)"/><path d="M1 19.42a.5.5 0 0 1-.19-.96l31-12.92c.06-.03.12-.04.19-.04s.13.01.19.04l31 13c.22.09.34.33.3.56s-.25.4-.49.4l-62-.08" fill="#ffd45a"/><g fill="#f9aa43"><path d="m32 6 31 13-62-.08L32 6m0-1c-.13 0-.26.03-.38.08L.62 18c-.44.18-.69.65-.6 1.12.09.47.5.8.98.8L63 20c.48 0 .89-.34.98-.8a.998.998 0 0 0-.59-1.12l-31-13C32.26 5.03 32.13 5 32 5zM2.69 31.5s.97.06 5.87 18.92v1.49l-4.14-7.73c0-.01-2.1-7.35-1.73-12.68"/></g><g fill="none" stroke="#663014" stroke-linecap="round" stroke-linejoin="round" stroke-miterlimit="10"><path d="M3.66 47.03s12.85-6.4 18.12 3.29c-3.58.28-6.07 1.79-10.16 4.94S1.5 59.5 1.5 59.5"/><path d="M2.39 31.88s.42 25.93 19.39 27.62"/></g><g fill="#f9aa43"><path d="M43.08 50.47v-1h13.55v1.51H45.19c-.68-.23-1.41-.39-2.11-.51"/><path d="M61.31 31.5s-.97.06-5.87 18.92v1.49l4.14-7.73c0-.01 2.1-7.35 1.73-12.68"/></g><g fill="none" stroke="#663014" stroke-linecap="round" stroke-linejoin="round" stroke-miterlimit="10"><path d="M60.34 47.03s-12.85-6.4-18.12 3.29c3.58.28 6.07 1.79 10.16 4.94S62.5 59.5 62.5 59.5"/><path d="M61.61 31.88s-.42 25.93-19.39 27.62"/></g><g fill="#f9aa43"><path d="m32 5 6 14h12zM14 19h12l6-14z" opacity=".5"/></g></svg>