<svg viewBox="0 0 64 64" xmlns="http://www.w3.org/2000/svg"><path d="M9.4.4h45.2v63.2H9.4z" fill="#fafafa"/><path d="M54.2.8v62.5H9.8V.8h44.4M55 0H9v64h46V0z" fill="#828282"/><path d="M15 13h34v1H15z" fill="#505050"/><path d="M15 6h30v3H15z" fill="#787878"/><g fill="#505050"><path d="M15 15h33v1H15zM15 17h34v1H15zM15 19h32v1H15zM15 21h26v1H15zM15 25h31v1H15zM15 27h10v1H15zM15 31h33v1H15zM15 33h30v1H15zM15 35h34v1H15zM15 37h32v1H15zM15 39h30v1H15zM15 41h28v1H15zM15 45h30v1H15zM15 47h32v1H15zM15 49h20v1H15zM15 53h30v1H15zM15 55h33v1H15zM15 57h8v1h-8z"/></g></svg>