<svg clip-rule="evenodd" fill-rule="evenodd" stroke-linejoin="round" stroke-miterlimit="2" viewBox="0 0 64 64" xml:space="preserve" xmlns="http://www.w3.org/2000/svg"><path d="M32 61.5C15.73 61.5 2.5 48.27 2.5 32S15.73 2.5 32 2.5 61.5 15.73 61.5 32 48.27 61.5 32 61.5z" fill="#00c864" fill-rule="nonzero"/><path d="M32 3c15.99 0 29 13.01 29 29S47.99 61 32 61 3 47.99 3 32 16.01 3 32 3m0-1C15.43 2 2 15.43 2 32s13.43 30 30 30 30-13.43 30-30S48.57 2 32 2z" fill="#009949" fill-rule="nonzero"/><path d="M32 54.5C19.59 54.5 9.5 44.41 9.5 32S19.59 9.5 32 9.5 54.5 19.59 54.5 32 44.41 54.5 32 54.5z" fill="#fff" fill-rule="nonzero"/><path d="M32 10c12.15 0 22 9.85 22 22s-9.85 22-22 22-22-9.85-22-22 9.85-22 22-22m0-1C19.32 9 9 19.32 9 32s10.32 23 23 23 23-10.32 23-23S44.68 9 32 9z" fill="#009949" fill-rule="nonzero"/><g fill="#1a171b" fill-rule="nonzero"><path d="M31 13h2v24h-2z"/><path d="M27 31h20v2H27z"/></g><path d="m23.89 15.95-1.52-2.63-1.73 1 1.52 2.63c.55-.37 1.13-.7 1.73-1M14.91 26.38l-2.93-.79-.52 1.93 2.92.78c.14-.64.32-1.29.53-1.92M28.31 14.38l-.78-2.92-1.93.52.79 2.93c.62-.21 1.27-.39 1.92-.53M20.01 18.6l-2.16-2.16-1.41 1.41 2.16 2.16c.44-.49.92-.97 1.41-1.41M16.94 22.15l-2.63-1.52-1 1.73 2.63 1.52c.31-.59.64-1.17 1-1.73M49.62 28.31l2.92-.78-.52-1.93-2.93.79c.21.62.39 1.27.53 1.92M48.05 23.89l2.63-1.52-1-1.73-2.63 1.52c.37.55.7 1.13 1 1.73M45.4 20.01l2.16-2.16-1.41-1.41-2.16 2.16c.49.44.97.92 1.41 1.41" fill-opacity=".15" fill-rule="nonzero"/><path d="M32 14c.34 0 .67.03 1 .05V11h-2v3.05c.33-.02.66-.05 1-.05M14 32c0-.34.03-.67.05-1H11v2h3.05c-.02-.33-.05-.66-.05-1" fill-rule="nonzero"/><path d="m37.62 14.91.79-2.93-1.93-.52-.78 2.92c.64.14 1.29.32 1.92.53M41.85 16.94l1.52-2.63-1.73-1-1.52 2.63c.59.31 1.17.64 1.73 1" fill-opacity=".15" fill-rule="nonzero"/><path d="M32 50c-.34 0-.67-.03-1-.05V53h2v-3.05c-.33.02-.66.05-1 .05" fill-rule="nonzero"/><path d="m47.06 41.85 2.63 1.52 1-1.73-2.63-1.52c-.31.59-.64 1.17-1 1.73M43.99 45.4l2.16 2.16 1.41-1.41-2.16-2.16c-.44.49-.92.97-1.41 1.41M49.09 37.62l2.93.79.52-1.93-2.92-.78c-.14.64-.32 1.29-.53 1.92" fill-opacity=".15" fill-rule="nonzero"/><path d="M49.95 31c.02.33.05.66.05 1s-.03.67-.05 1H53v-2h-3.05" fill-rule="nonzero"/><path d="m40.11 48.05 1.52 2.63 1.73-1-1.52-2.63c-.55.37-1.13.7-1.73 1M26.38 49.09l-.79 2.93 1.93.52.78-2.92c-.64-.14-1.29-.32-1.92-.53M15.95 40.11l-2.63 1.52 1 1.73 2.63-1.52c-.37-.55-.7-1.13-1-1.73M18.6 43.99l-2.16 2.16 1.41 1.41 2.16-2.16c-.49-.44-.97-.92-1.41-1.41M35.69 49.62l.78 2.92 1.93-.52-.79-2.93c-.62.21-1.27.39-1.92.53M14.38 35.69l-2.92.78.52 1.93 2.93-.79c-.21-.62-.39-1.27-.53-1.92M22.15 47.06l-1.52 2.63 1.73 1 1.52-2.63c-.59-.31-1.17-.64-1.73-1" fill-opacity=".15" fill-rule="nonzero"/><path d="m32.097 31.478 14.688 14.689-.707.707-17.5-17.5 3.519 2.104z" fill="#c80000" fill-rule="nonzero"/><circle cx="32" cy="32" r="1.5" fill="#ececed"/><path d="M32 31c.55 0 1 .45 1 1s-.45 1-1 1-1-.45-1-1 .45-1 1-1m0-1c-1.1 0-2 .9-2 2s.9 2 2 2 2-.9 2-2-.9-2-2-2z" fill="#c80000" fill-rule="nonzero"/></svg>