<svg viewBox="0 0 64 64" xmlns="http://www.w3.org/2000/svg"><defs><linearGradient id="c" x2="0" y1="8" y2="16" gradientUnits="userSpaceOnUse"><stop stop-color="#dcdcdc" offset="0"/><stop stop-color="#646464" offset="1"/></linearGradient><linearGradient id="a" x1="1.251" x2="23.55" gradientUnits="userSpaceOnUse"><stop stop-color="#fafafa" offset="0"/><stop stop-color="#dcdcdc" offset="1"/></linearGradient><linearGradient id="b" x1="18.375" x2="61.625" gradientUnits="userSpaceOnUse"><stop stop-color="#dcdcdc" offset="0"/><stop stop-color="#fafafa" offset=".5"/><stop stop-color="#dcdcdc" offset="1"/></linearGradient></defs><path d="M6.49 58.78c-.83 0-1.49-.09-1.87-.15l.71-3.1-2.67-2.27 2.83-4.33-3.5-3 3.43-5.01-3.52-2.76 2.81-4.79-3.46-3.79 4.05-4.71-3.24-4.82c8.25-1.32 16.5-10.41 17.61-11.67h3.87c.02 3.31.05 27.87-4.4 40-3.31 9.05-9.35 10.4-12.65 10.4" fill="url(#a)"/><path d="M23.17 8.75c.02 4.45-.09 27.8-4.37 39.49C15.56 57.08 9.69 58.4 6.49 58.4c-.57 0-1.05-.04-1.41-.09l.57-2.48.1-.45-.35-.3-2.25-1.91 2.47-3.78.36-.55-.5-.43-2.98-2.54 3.04-4.44.4-.58-.55-.43-2.99-2.35 2.5-4.27.28-.48-.38-.41-3.05-3.34 3.65-4.25.37-.43-.32-.47-2.76-4.11c7.95-1.61 15.7-9.93 17.15-11.56h3.33m.75-.75H19.5S10.25 18.75 1.41 19.75l3.42 5.08-4.08 4.75 3.5 3.83-2.83 4.83L4.92 41 1.5 46 5 49l-2.83 4.33 2.75 2.33-.75 3.25s.91.24 2.32.24c3.38 0 9.61-1.37 13.01-10.66C24.33 35.33 23.92 8 23.92 8z" fill="#828282"/><path d="M40 60.62c-11.92 0-21.62-4.77-21.62-10.62V12.38h43.25V50c-.01 5.86-9.71 10.62-21.63 10.62z" fill="url(#b)"/><path d="M61.25 12.75V50c0 5.56-9.73 10.25-21.25 10.25S18.75 55.56 18.75 50V12.75h42.5M62 12H18v38c0 6.08 9.85 11 22 11s22-4.92 22-11V12z" fill="#828282"/><path d="M40 22.62c-11.92 0-21.62-4.77-21.62-10.62S28.08 1.38 40 1.38 61.62 6.14 61.62 12 51.92 22.62 40 22.62z" fill="#fafafa"/><path d="M40 1.75c11.52 0 21.25 4.69 21.25 10.25S51.52 22.25 40 22.25 18.75 17.56 18.75 12 28.48 1.75 40 1.75M40 1C27.85 1 18 5.92 18 12s9.85 11 22 11 22-4.92 22-11S52.15 1 40 1z" fill="#828282"/><g stroke-miterlimit="10"><ellipse cx="40" cy="12" rx="8" ry="4" fill="url(#c)" stroke="#828282" stroke-width=".75"/><g fill="none" stroke="#aaa"><path d="M31 22v.5"/><path d="M31 24.45v34.08" stroke-dasharray="0.9737 1.9474"/><path d="M31 59.5v.5M58 18v.5"/><path d="M58 20.45v34.08" stroke-dasharray="0.9737 1.9474"/><path d="M58 55.5v.5"/></g></g></svg>