<svg viewBox="0 0 64 64" xmlns="http://www.w3.org/2000/svg" xmlns:xlink="http://www.w3.org/1999/xlink"><defs><linearGradient id="a" x1="54.364" x2="9.636" y1="9.636" y2="54.364" gradientUnits="userSpaceOnUse"><stop stop-color="#f8f5e5" offset="0"/><stop stop-color="#cac7b9" offset="1"/></linearGradient><linearGradient id="b" x2="0" y1="15" y2="49" gradientUnits="userSpaceOnUse"><stop stop-color="#4e493f" offset="0"/><stop stop-color="#3b3732" offset=".768"/></linearGradient><linearGradient id="c" x1="49.752" x2="14.748" y1="42.038" y2="21.828" gradientUnits="userSpaceOnUse" xlink:href="#a"/></defs><path d="M48 57H16a9 9 0 0 1-9-9V16a9 9 0 0 1 9-9h32a9 9 0 0 1 9 9v32a9 9 0 0 1-9 9z" fill="url(#a)" stroke="#7c715e" stroke-miterlimit="10" stroke-width=".25"/><path d="M44 49H20c-2.76 0-5-2.24-5-5V20c0-2.76 2.24-5 5-5h24c2.76 0 5 2.24 5 5v24c0 2.76-2.24 5-5 5" fill="url(#b)"/><path d="M44 47H20c-2.76 0-5-2.24-5-5l1-21c0-2.76 2.24-5 5-5h22c2.76 0 5 2.24 5 5l1 21c0 2.76-2.24 5-5 5z" fill="url(#c)" stroke="#7c715e" stroke-miterlimit="10" stroke-width=".25"/></svg>