<svg viewBox="0 0 64 64" xmlns="http://www.w3.org/2000/svg"><path d="M32 25s-.37-2.34 1.8-4.19c2.05-1.74 1.15-4 0-5.15s-4.1-.99-4.76 1.92" fill="none" stroke="#b4b4b4" stroke-linecap="round" stroke-linejoin="round" stroke-miterlimit="10" stroke-width="1.5"/><path d="M23.57 31.64s-1.56 1.78-11.78 5.77-9.74 7.2-9.74 7.2-.53 3.5 2.24 1.48S28.82 31.01 32 31.01v-5.99h-2.47s-1.8-.38-2.78 2.63-3.18 3.99-3.18 3.99M40.43 31.64s1.56 1.78 11.78 5.77 9.74 7.2 9.74 7.2.53 3.5-2.24 1.48S35.18 31.01 32 31.01v-5.99h2.47s1.8-.38 2.78 2.63 3.18 3.99 3.18 3.99"/></svg>