<svg viewBox="0 0 64 64" xmlns="http://www.w3.org/2000/svg" xmlns:xlink="http://www.w3.org/1999/xlink"><defs><linearGradient id="e" x2="0" y1="73.362" y2="70.362" gradientTransform="matrix(1.9999 0 0 2.0001 -47.871 861.63)" gradientUnits="userSpaceOnUse"><stop stop-color="#fff" offset="0"/><stop stop-color="#cdcdcd" offset="1"/></linearGradient><linearGradient id="h" x2="0" y1="48.362" y2="51.362" gradientTransform="matrix(1.9999 0 0 1.3169 -47.993 934.7)" gradientUnits="userSpaceOnUse"><stop stop-color="#a6a6a6" offset="0"/><stop stop-color="#828282" stop-opacity="0" offset="1"/></linearGradient><linearGradient id="f" x2="0" y1="73.362" y2="70.362" gradientTransform="matrix(1.9999 0 0 1.2424 -47.993 955.22)" gradientUnits="userSpaceOnUse"><stop stop-color="#fff" offset="0"/><stop stop-color="#ccc" offset="1"/></linearGradient><radialGradient id="a" cx="39" cy="62.362" r="7" gradientTransform="matrix(1.9999 0 0 2.0001 -46.099 898.88)" gradientUnits="userSpaceOnUse"><stop stop-color="#919191" offset="0"/><stop stop-color="#e4e4e4" offset="1"/></radialGradient><path id="g" d="M46 62.362a7 7 0 1 1-14 0 7 7 0 0 1 14 0" fill="none"/></defs><g transform="translate(0 -988.36)"><path d="M12.253 994.45h39.685v51.689H12.253z" fill="#fff"/><path id="b" d="M45.896 1023.6c0 7.732-6.268 14-13.999 14-7.732 0-13.999-6.268-13.999-14s6.268-14.001 13.999-14.001c7.732 0 13.999 6.269 13.999 14.001" fill="url(#a)"/><g fill="#d3d3d3"><path id="d" d="M34 996.36h4v4h-4z"/><path d="M40 996.36h4v4h-4z"/><path id="c" d="M46 996.36h4v4h-4z"/></g><use xlink:href="#b"/><path d="M38 994.36h8v8h-8z" fill="#ffa5a5"/><path d="M40 996.36h4v4h-4z" fill="#ff0505"/><g fill="#b8b8b8"><use xlink:href="#c"/><use xlink:href="#d"/></g><path d="M36.002 1026.4c0 6 3.12 6.95-4.61 6.95s-13.116-3.238-13.116-10.97c5.556.475 4.965 3.445 10.017 3.133 2.375-.054 7.709-7.113 7.709.887z" fill="#bd0000"/><path d="M38.572 1028c0 7.732 1.056 9.58-6.676 9.58s-13.115-3.237-13.115-10.97c5.556.476 7.988 5.468 11.479 4.977 2.464-.098 8.312-11.32 8.312-3.587z" fill="#006f79"/><path d="M45.896 1023.6c2.643 7.266-6.268 14-13.999 14-7.732 0 6.056 2.318 6.056-5.414 0-7.732-5.416-.237-3.95-7.829 1.292-6.692 10-5.964 11.893-.757z" fill="#eb9d00"/><path d="M22 994.36h2v8h-2z" fill="#c4c4c4"/><path d="M12 1002.4h40v6H12z" fill="url(#e)"/><path d="M12 1042.4h40v4H12z" fill="url(#f)"/><use transform="matrix(1.9999 0 0 2.0001 -46.099 898.88)" stroke="silver" xlink:href="#g"/><path d="M14 998.36h6v4h-6z" fill="url(#h)"/><path d="M10 992.36v56h44v-56zm2 2h40v52H12z" fill="#969696"/><g transform="matrix(1.9999 0 0 2.0001 -46.099 898.88)"><use stroke="silver" xlink:href="#g"/><use stroke="#4c4c4c" xlink:href="#g"/></g><path d="M17 1020.4h5v6h-5z" fill="#939393"/></g></svg>