<svg viewBox="0 0 64 64" xmlns="http://www.w3.org/2000/svg" xmlns:xlink="http://www.w3.org/1999/xlink"><defs><linearGradient id="c" x2="0" y1="73.362" y2="70.362" gradientTransform="matrix(1.9999 0 0 2.0001 -47.871 861.63)" gradientUnits="userSpaceOnUse"><stop stop-color="#fff" offset="0"/><stop stop-color="#cdcdcd" offset="1"/></linearGradient><linearGradient id="f" x2="0" y1="48.362" y2="51.362" gradientTransform="matrix(1.9999 0 0 1.3169 -47.993 934.7)" gradientUnits="userSpaceOnUse"><stop stop-color="#a6a6a6" offset="0"/><stop stop-color="#828282" stop-opacity="0" offset="1"/></linearGradient><linearGradient id="d" x2="0" y1="73.362" y2="70.362" gradientTransform="matrix(1.9999 0 0 1.2424 -47.993 955.22)" gradientUnits="userSpaceOnUse"><stop stop-color="#fff" offset="0"/><stop stop-color="#ccc" offset="1"/></linearGradient><radialGradient id="a" cx="39" cy="62.362" r="7" gradientTransform="matrix(1.9999 0 0 2.0001 -46.099 898.88)" gradientUnits="userSpaceOnUse"><stop stop-color="#919191" offset="0"/><stop stop-color="#e4e4e4" offset="1"/></radialGradient><path id="e" d="M46 62.362a7 7 0 1 1-14 0 7 7 0 0 1 14 0" fill="none"/></defs><g transform="translate(0 -988.36)"><path d="M12.253 994.45h39.685v51.689H12.253z" fill="#fff"/><path id="b" d="M45.896 1023.6c0 7.732-6.268 14-13.999 14-7.732 0-13.999-6.268-13.999-14s6.268-14.001 13.999-14.001c7.732 0 13.999 6.269 13.999 14.001" fill="url(#a)"/><g fill="#d3d3d3"><path d="M34 996.36h4v4h-4zM40 996.36h4v4h-4zM46 996.36h4v4h-4z"/></g><use xlink:href="#b"/><path d="M22 994.36h2v8h-2z" fill="#c4c4c4"/><path d="M12 1002.4h40v6H12z" fill="url(#c)"/><path d="M12 1042.4h40v4H12z" fill="url(#d)"/><use transform="matrix(1.9999 0 0 2.0001 -46.099 898.88)" stroke="silver" xlink:href="#e"/><path d="M14 998.36h6v4h-6z" fill="url(#f)"/><path d="M10 992.36v56h44v-56zm2 2h40v52H12z" fill="#969696"/><g transform="matrix(1.9999 0 0 2.0001 -46.099 898.88)"><use stroke="silver" xlink:href="#e"/><use stroke="#4c4c4c" xlink:href="#e"/></g><path d="M17 1020.4h5v6h-5z" fill="#939393"/></g></svg>