<svg viewBox="0 0 64 64" xmlns="http://www.w3.org/2000/svg"><path d="M47 53h6v1h-6z" fill="#cacacc"/><path d="M10.5 4.5h43v54h-43z" fill="#fafafa"/><path d="M53 5v53H11V5h42m1-1H10v55h44V4z" fill="#666"/><g fill="#b2b2b2"><path d="M53 14.12H11v.76h42v-.76"/><path d="M23 5h-1v10h1V5"/></g><circle cx="44.5" cy="9.5" r="2" fill="#fff"/><path d="M44.5 8c.83 0 1.5.67 1.5 1.5s-.67 1.5-1.5 1.5-1.5-.67-1.5-1.5.67-1.5 1.5-1.5m0-1a2.5 2.5 0 0 0 0 5 2.5 2.5 0 0 0 0-5z" fill="#666"/><path d="M25 7h11v4H25z"/><g fill="#999"><path d="M48 7h4v1h-4zM48 9h4v1h-4zM48 11h4v1h-4zM37 7h4v1h-4zM37 9h4v1h-4zM37 11h4v1h-4z"/></g><path d="M32 46.5c-8 0-14.5-6.5-14.5-14.5S24 17.5 32 17.5 46.5 24 46.5 32 40 46.5 32 46.5z" fill="#acacb7"/><path d="M32 18c7.73 0 14 6.27 14 14s-6.27 14-14 14-14-6.27-14-14 6.27-14 14-14m0-1c-8.27 0-15 6.73-15 15s6.73 15 15 15 15-6.73 15-15-6.73-15-15-15z" fill="#646464"/><circle cx="32" cy="32" r="11" fill="#494949"/><circle cx="32" cy="32" r="9" fill="#e1f5ff"/><path d="M13 59h4v2h-4zM47 59h4v2h-4z"/><text transform="translate(27 9)" fill="#fff" font-family="'MyriadPro-Regular'" font-size=".92"><tspan x="0" y="0">W</tspan> <tspan x=".75" y="0">aschen</tspan></text><g fill="#b2b2b2"><path d="M22 49v6h-8v-6h8m0-1h-8c-.55 0-1 .45-1 1v6c0 .55.45 1 1 1h8c.55 0 1-.45 1-1v-6c0-.55-.45-1-1-1zM20 7v1h-7V7h7m0-1h-7c-.55 0-1 .45-1 1v1c0 .55.45 1 1 1h7c.55 0 1-.45 1-1V7c0-.55-.45-1-1-1z"/><path d="M20 51c-.55 0-1 .45-1 1s.45 1 1 1 1-.45 1-1-.45-1-1-1"/></g></svg>