<svg viewBox="0 0 64 64" xmlns="http://www.w3.org/2000/svg"><path d="M10.5 53.5v-43h43v43h-43m4-4h35v-35h-35v35" fill="#ececed"/><path d="M53 11v42H11V11h42M14 50h36V14H14v36m40-40H10v44h44V10zM15 49V15h34v34H15" fill="#9b9c9e"/><path d="m15.47 48.5-1.94-31h36.94l-1.94 31z" fill="#f0f0f0"/><path d="m49.94 18-1.88 30H15.94l-1.88-30h35.88M51 17H13l2 32h34l2-32z" fill="#646464"/><path d="m19.48 44.5-.96-23h26.96l-.96 23z" fill="#d9f1ff"/><path d="m44.96 22-.92 22H19.96l-.92-22h25.92M46 21H18l1 24h26l1-24z" fill="#7aadcc"/><g fill="#646464"><path d="m46.78 32.48.22-5c.01-.27.25-.49.52-.48.27.01.49.25.48.52l-.22 5c-.01.27-.25.49-.52.48a.509.509 0 0 1-.48-.52"/><circle cx="47.5" cy="32.5" r="1"/></g></svg>