<svg viewBox="0 0 64 64" xmlns="http://www.w3.org/2000/svg"><path d="M32 18.9c-3.9 0-7.5-1.4-10.2-3.8 1.9-.8 3.2-2.3 3.4-3.9h13.5c.2 1.7 1.5 3.1 3.4 3.9-2.5 2.4-6.2 3.8-10.1 3.8" fill="#61452d"/><path d="M38.4 11.7c.3 1.4 1.4 2.7 2.9 3.5-2.5 2-5.8 3.1-9.3 3.1s-6.8-1.1-9.3-3.1c1.5-.8 2.6-2.1 2.9-3.5h12.8m.9-1H24.8c0 1.9-1.6 3.5-3.9 4.2 2.7 2.7 6.6 4.5 11.1 4.5s8.5-1.7 11.1-4.5c-2.2-.7-3.8-2.3-3.8-4.2z" fill="#513624"/><path d="M27.5 63.5c-1.7 0-3-1.3-3-3v-20c0-1.7 1.3-3 3-3s3 1.3 3 3v20c0 1.7-1.3 3-3 3" fill="#d29e7c"/><path d="M27.5 38c1.4 0 2.5 1.1 2.5 2.5v20c0 1.4-1.1 2.5-2.5 2.5S25 61.9 25 60.5v-20c0-1.4 1.1-2.5 2.5-2.5m0-1c-1.9 0-3.5 1.6-3.5 3.5v20c0 1.9 1.6 3.5 3.5 3.5s3.5-1.6 3.5-3.5v-20c0-1.9-1.5-3.5-3.5-3.5z" fill="#c18a6b"/><path d="M36.5 63.5c-1.7 0-3-1.3-3-3v-20c0-1.7 1.3-3 3-3s3 1.3 3 3v20c0 1.7-1.3 3-3 3" fill="#d29e7c"/><path d="M36.5 38c1.4 0 2.5 1.1 2.5 2.5v20c0 1.4-1.1 2.5-2.5 2.5S34 61.9 34 60.5v-20c0-1.4 1.1-2.5 2.5-2.5m0-1c-1.9 0-3.5 1.6-3.5 3.5v20c0 1.9 1.6 3.5 3.5 3.5s3.5-1.6 3.5-3.5v-20c0-1.9-1.5-3.5-3.5-3.5z" fill="#c18a6b"/><path d="M43 40.5c-.8 0-1.5-.7-1.5-1.5V27c-.1-1-.5-1.9-1-2.7l-.3-.4-8.2 6.5-8.1-6.5-.3.4c-.7 1-1.1 2.2-1.1 3.4V39c0 .8-.7 1.5-1.5 1.5s-1.5-.7-1.5-1.5V26.6c3.5-.2 4.5-3.1 5.3-5.4.8-2.3 1.4-3.8 3.3-3.8h7.5c1.9 0 2.5 1.4 3.3 3.8.8 2.3 1.8 5.1 5.3 5.4V39c.3.8-.4 1.5-1.2 1.5" fill="#d29e7c"/><path d="M35.8 18c1.5 0 2 1.1 2.9 3.4.2.7.5 1.5.9 2.2l-.2.1-7.4 6-7.3-5.9-.2-.1c.4-.8.6-1.5.9-2.2.8-2.4 1.4-3.4 2.9-3.4h7.5m6.1 8.3c.6.4 1.3.6 2.1.7V39c0 .6-.4 1-1 1s-1-.4-1-1V26.9c-.1-.2-.1-.3-.1-.5m-19.7 0c-.1.4-.1.9-.1 1.3V39c0 .6-.4 1-1 1s-1-.4-1-1V27.2c.8-.2 1.5-.4 2.1-.8M35.8 17h-7.5c-5.1 0-2.5 9.2-9.2 9.2V39c0 1.1.9 2 2 2s2-.9 2-2V27.7c0-1.2.4-2.2 1-3.1l8 6.4 8-6.4c.5.7.8 1.5.9 2.4v12c0 1.1.9 2 2 2s2-.9 2-2V26.2c-6.7 0-4.1-9.2-9.2-9.2z" fill="#c18a6b"/><g fill="#bd0926"><path d="M41 38h-9V26c3.1-3.1 4.3-5.8 4.8-7.6.1-.2.1-.4.1-.7 0-.2.1-.4.1-.6 5 0 7.9 7.6 7.9 9.1L41 27.7c0-1.2-.4-2.2-1-3.1L38 31l2 3 1 4M23 38h9V26c-3.1-3.1-4.3-5.8-4.8-7.6-.1-.2-.1-.4-.1-.7 0-.2-.1-.4-.1-.6-5 0-7.9 7.6-7.9 9.1l3.9 1.5c0-1.2.4-2.2 1-3.1l2 6.4-2 3-1 4"/></g><g fill="#660619"><path d="M30 60v.5c0 1.4-1.1 2.5-2.5 2.5S25 61.9 25 60.5V60h5m1-1h-7v1.5c0 1.9 1.6 3.5 3.5 3.5s3.5-1.6 3.5-3.5V59zM39 60v.5c0 1.4-1.1 2.5-2.5 2.5S34 61.9 34 60.5V60h5m1-1h-7v1.5c0 1.9 1.6 3.5 3.5 3.5s3.5-1.6 3.5-3.5V59z"/></g><path d="M32 16.8c-4.1 0-7.5-3.4-7.5-7.5s3.4-7.5 7.5-7.5 7.5 3.4 7.5 7.5-3.3 7.5-7.5 7.5" fill="#d29e7c"/><path d="M32 2.3c3.9 0 7 3.1 7 7s-3.1 7-7 7-7-3.1-7-7 3.2-7 7-7m0-1c-4.4 0-8 3.6-8 8s3.6 8 8 8 8-3.6 8-8-3.6-8-8-8z" fill="#c18a6b"/><path d="M24.6 10.5c-.1-.4-.1-.8-.1-1.2 0-4.1 3.4-7.5 7.5-7.5s7.5 3.4 7.5 7.5v.2c-.8-.9-1.6-2.2-2.3-3.8l-.2-.4-.4.1c-.6.2-1.2.3-1.9.3-1.2 0-2.5-.2-3.9-.7l-3-1 2.6 1.9c.8.6 1.5.9 2.2 1.2h-.3c-1.8 0-3.6-.4-5.2-1.2l-.5-.2-.2.5c-.5 1.6-1.1 3-1.8 4.3" fill="#61452d"/><path d="M32 2.3c2.1 0 4 1 5.3 2.5l-.8.2c-.5.2-1.1.2-1.8.2-1.1 0-2.4-.2-3.8-.7l-3-1c1.2-.7 2.6-1.2 4.1-1.2m-4.8 1.9L30 6.3c.1 0 .1.1.2.1-1-.2-2-.5-2.9-.9l-.9-.4c.3-.3.5-.6.8-.9m10.2.6c.7.9 1.2 1.9 1.5 3-.4-.7-.8-1.4-1.1-2.3l-.4-.7m-11.3.8-.2.5c-.3.8-.5 1.5-.8 2.2.1-1 .5-1.9 1-2.7M32 1.3c-4.4 0-8 3.6-8 8 0 .9.2 1.8.4 2.6.1-.1.2-.3.2-.4.9-1.7 1.6-3.5 2.2-5.1 1.5.7 3.3 1.2 5.4 1.2 1 0 2.1-.1 3.3-.4h-.1c-.4 0-2.6-.1-4.9-1.7 1.3.4 2.7.7 4.1.7.7 0 1.4-.1 2.1-.3.6 1.5 1.4 2.9 2.4 4 .1.6.3 1.2.4 1.7.2-.8.4-1.6.4-2.4.1-4.3-3.5-7.9-7.9-7.9z" fill="#513624"/><path d="M37 52v-7l1-4v11h2v-5l1-9H23l1 9v5z" fill="#bd0926"/><path d="M29 17s0 5 3 5 3-5 3-5" fill="none" stroke="#ffbc00" stroke-miterlimit="10"/><path d="M39 33H25l1-2h12z" fill="#660619"/></svg>