<?xml version="1.0" encoding="iso-8859-1"?>
<!-- Generator: Adobe Illustrator 18.0.0, SVG Export Plug-In . SVG Version: 6.00 Build 0)  -->
<!DOCTYPE svg PUBLIC "-//W3C//DTD SVG 1.1//EN" "http://www.w3.org/Graphics/SVG/1.1/DTD/svg11.dtd">
<svg version="1.1" id="Capa_1" xmlns="http://www.w3.org/2000/svg" xmlns:xlink="http://www.w3.org/1999/xlink" x="0px" y="0px"
	 viewBox="0 0 60 60" style="enable-background:new 0 0 60 60;" xml:space="preserve">
<g>
	<path d="M59,10.5H1c-0.553,0-1,0.447-1,1v24c0,0.553,0.447,1,1,1h3h52h3c0.553,0,1-0.447,1-1v-24C60,10.947,59.553,10.5,59,10.5z
		 M5,34.5v-4h50v4H5z M58,34.5h-1v-5c0-0.553-0.447-1-1-1H4c-0.553,0-1,0.447-1,1v5H2v-22h56V34.5z"/>
	<path d="M32,31.5h-4c-0.553,0-1,0.447-1,1s0.447,1,1,1h4c0.553,0,1-0.447,1-1S32.553,31.5,32,31.5z"/>
	<circle cx="36" cy="16.5" r="1"/>
	<circle cx="39" cy="16.5" r="1"/>
	<circle cx="42" cy="16.5" r="1"/>
	<circle cx="45" cy="16.5" r="1"/>
	<circle cx="48" cy="16.5" r="1"/>
	<circle cx="51" cy="16.5" r="1"/>
	<circle cx="54" cy="16.5" r="1"/>
	<circle cx="36" cy="20.5" r="1"/>
	<circle cx="39" cy="20.5" r="1"/>
	<circle cx="42" cy="20.5" r="1"/>
	<circle cx="45" cy="20.5" r="1"/>
	<circle cx="48" cy="20.5" r="1"/>
	<circle cx="51" cy="20.5" r="1"/>
	<circle cx="54" cy="20.5" r="1"/>
	<circle cx="36" cy="24.5" r="1"/>
	<circle cx="39" cy="24.5" r="1"/>
	<circle cx="42" cy="24.5" r="1"/>
	<circle cx="45" cy="24.5" r="1"/>
	<circle cx="48" cy="24.5" r="1"/>
	<circle cx="51" cy="24.5" r="1"/>
	<circle cx="54" cy="24.5" r="1"/>
	<circle cx="6" cy="16.5" r="1"/>
	<circle cx="9" cy="16.5" r="1"/>
	<circle cx="12" cy="16.5" r="1"/>
	<circle cx="15" cy="16.5" r="1"/>
	<circle cx="18" cy="16.5" r="1"/>
	<circle cx="21" cy="16.5" r="1"/>
	<circle cx="24" cy="16.5" r="1"/>
	<circle cx="6" cy="20.5" r="1"/>
	<circle cx="9" cy="20.5" r="1"/>
	<circle cx="12" cy="20.5" r="1"/>
	<circle cx="15" cy="20.5" r="1"/>
	<circle cx="18" cy="20.5" r="1"/>
	<circle cx="21" cy="20.5" r="1"/>
	<circle cx="24" cy="20.5" r="1"/>
	<circle cx="6" cy="24.5" r="1"/>
	<circle cx="9" cy="24.5" r="1"/>
	<circle cx="12" cy="24.5" r="1"/>
	<circle cx="15" cy="24.5" r="1"/>
	<circle cx="18" cy="24.5" r="1"/>
	<circle cx="21" cy="24.5" r="1"/>
	<circle cx="24" cy="24.5" r="1"/>
	<path d="M8,39.5c-0.553,0-1,0.447-1,1v2c0,0.553,0.447,1,1,1s1-0.447,1-1v-2C9,39.947,8.553,39.5,8,39.5z"/>
	<path d="M8,45.5c-0.553,0-1,0.447-1,1v2c0,0.553,0.447,1,1,1s1-0.447,1-1v-2C9,45.947,8.553,45.5,8,45.5z"/>
	<path d="M12,39.5c-0.553,0-1,0.447-1,1v2c0,0.553,0.447,1,1,1s1-0.447,1-1v-2C13,39.947,12.553,39.5,12,39.5z"/>
	<path d="M12,45.5c-0.553,0-1,0.447-1,1v2c0,0.553,0.447,1,1,1s1-0.447,1-1v-2C13,45.947,12.553,45.5,12,45.5z"/>
	<path d="M16,39.5c-0.553,0-1,0.447-1,1v2c0,0.553,0.447,1,1,1s1-0.447,1-1v-2C17,39.947,16.553,39.5,16,39.5z"/>
	<path d="M16,45.5c-0.553,0-1,0.447-1,1v2c0,0.553,0.447,1,1,1s1-0.447,1-1v-2C17,45.947,16.553,45.5,16,45.5z"/>
	<path d="M44,39.5c-0.553,0-1,0.447-1,1v2c0,0.553,0.447,1,1,1s1-0.447,1-1v-2C45,39.947,44.553,39.5,44,39.5z"/>
	<path d="M44,45.5c-0.553,0-1,0.447-1,1v2c0,0.553,0.447,1,1,1s1-0.447,1-1v-2C45,45.947,44.553,45.5,44,45.5z"/>
	<path d="M48,39.5c-0.553,0-1,0.447-1,1v2c0,0.553,0.447,1,1,1s1-0.447,1-1v-2C49,39.947,48.553,39.5,48,39.5z"/>
	<path d="M48,45.5c-0.553,0-1,0.447-1,1v2c0,0.553,0.447,1,1,1s1-0.447,1-1v-2C49,45.947,48.553,45.5,48,45.5z"/>
	<path d="M52,39.5c-0.553,0-1,0.447-1,1v2c0,0.553,0.447,1,1,1s1-0.447,1-1v-2C53,39.947,52.553,39.5,52,39.5z"/>
	<path d="M52,45.5c-0.553,0-1,0.447-1,1v2c0,0.553,0.447,1,1,1s1-0.447,1-1v-2C53,45.947,52.553,45.5,52,45.5z"/>
</g>
<g>
</g>
<g>
</g>
<g>
</g>
<g>
</g>
<g>
</g>
<g>
</g>
<g>
</g>
<g>
</g>
<g>
</g>
<g>
</g>
<g>
</g>
<g>
</g>
<g>
</g>
<g>
</g>
<g>
</g>
</svg>
