<?xml version="1.0" encoding="iso-8859-1"?>
<!-- Generator: Adobe Illustrator 18.0.0, SVG Export Plug-In . SVG Version: 6.00 Build 0)  -->
<!DOCTYPE svg PUBLIC "-//W3C//DTD SVG 1.1//EN" "http://www.w3.org/Graphics/SVG/1.1/DTD/svg11.dtd">
<svg version="1.1" id="Capa_1" xmlns="http://www.w3.org/2000/svg" xmlns:xlink="http://www.w3.org/1999/xlink" x="0px" y="0px"
	 viewBox="0 0 60 60" style="enable-background:new 0 0 60 60;" xml:space="preserve">
<g>
	<path d="M25,13.5c-11.028,0-20,8.972-20,20s8.972,20,20,20s20-8.972,20-20S36.028,13.5,25,13.5z M43,33.5
		c0,2.958-0.73,5.744-2,8.208V25.292C42.27,27.756,43,30.542,43,33.5z M21,15.964c0.973-0.222,1.975-0.356,3-0.413v35.898
		c-1.025-0.057-2.027-0.191-3-0.413V15.964z M19,50.45c-1.048-0.372-2.051-0.834-3-1.385V17.936c0.949-0.551,1.952-1.013,3-1.385
		V50.45z M26,15.551c1.025,0.057,2.027,0.191,3,0.413v35.073c-0.973,0.222-1.975,0.356-3,0.413V15.551z M31,16.55
		c1.048,0.372,2.051,0.834,3,1.385v31.129c-0.949,0.551-1.952,1.013-3,1.385V16.55z M9,25.292v16.417c-1.27-2.465-2-5.25-2-8.208
		S7.73,27.756,9,25.292z M11,44.789V22.211c0.881-1.091,1.892-2.068,3-2.927v28.432C12.892,46.856,11.881,45.879,11,44.789z
		 M36,47.716V19.284c1.108,0.859,2.119,1.837,3,2.927v22.577C38.119,45.879,37.108,46.856,36,47.716z"/>
	<path d="M42,54.5h14v-6H42V54.5z M44,50.5h10v2H44V50.5z"/>
	<path d="M51,7.5h8c0.552,0,1-0.447,1-1s-0.448-1-1-1h-8c-1.858,0-3.411,1.28-3.858,3H45.09c0.478-2.833,2.942-5,5.91-5h7
		c0.552,0,1-0.447,1-1s-0.448-1-1-1h-7c-4.072,0-7.436,3.06-7.931,7H0v50h60v-50H49.278C49.625,7.905,50.263,7.5,51,7.5z M58,56.5H2
		v-46h56V56.5z"/>
</g>
<g>
</g>
<g>
</g>
<g>
</g>
<g>
</g>
<g>
</g>
<g>
</g>
<g>
</g>
<g>
</g>
<g>
</g>
<g>
</g>
<g>
</g>
<g>
</g>
<g>
</g>
<g>
</g>
<g>
</g>
</svg>
