<?xml version="1.0" encoding="iso-8859-1"?>
<!-- Generator: Adobe Illustrator 18.0.0, SVG Export Plug-In . SVG Version: 6.00 Build 0)  -->
<!DOCTYPE svg PUBLIC "-//W3C//DTD SVG 1.1//EN" "http://www.w3.org/Graphics/SVG/1.1/DTD/svg11.dtd">
<svg version="1.1" id="Capa_1" xmlns="http://www.w3.org/2000/svg" xmlns:xlink="http://www.w3.org/1999/xlink" x="0px" y="0px"
	 viewBox="0 0 60.01 60.01" style="enable-background:new 0 0 60.01 60.01;" xml:space="preserve">
<g>
	<path d="M59.933,31.19c-0.339-2.696-1.958-5.037-4.211-6.392c0.176-0.118,0.348-0.245,0.509-0.386
		c1.13-0.982,1.777-2.403,1.777-3.899v-4.457c0-0.336-0.012-0.669-0.033-1c-0.294-4.304-2.6-8.109-6.326-10.44
		c-3.847-2.406-8.645-2.831-12.831-1.135l-0.178,0.072c-5.567,2.261-11.697,2.261-17.267-0.001L21.2,3.48
		c-4.187-1.695-8.983-1.271-12.831,1.135c-3.727,2.331-6.032,6.136-6.326,10.442c-0.021,0.33-0.033,0.663-0.033,0.999v4.455
		c0,1.478,0.607,2.829,1.71,3.806c0.191,0.169,0.397,0.317,0.608,0.455c-2.274,1.351-3.91,3.705-4.251,6.418
		c-0.318,2.527,0.361,4.956,1.914,6.839c1.286,1.56,3.042,2.577,5.015,2.923v9.177c0,2.219,1.836,4.097,4.116,4.372
		c0.43,1.836,2.108,3.055,4.384,3.055c2.253,0,3.916-1.196,4.367-3h20.266c0.451,1.804,2.114,3,4.367,3
		c2.277,0,3.955-1.219,4.385-3.056c2.279-0.275,4.115-2.153,4.115-4.372v-9.177c1.973-0.346,3.729-1.363,5.014-2.922
		C59.572,36.146,60.251,33.718,59.933,31.19z M7.688,23.621c-0.974,0.115-1.935-0.174-2.643-0.801
		c-0.668-0.592-1.036-1.412-1.036-2.309v-4.455c0-0.291,0.01-0.58,0.029-0.865c0.249-3.657,2.214-6.894,5.391-8.881
		c3.304-2.066,7.423-2.433,11.018-0.978l0.179,0.072c6.051,2.459,12.716,2.459,18.765,0.001l0.179-0.073
		c3.598-1.455,7.715-1.09,11.021,0.977c3.177,1.987,5.142,5.224,5.391,8.879c0.02,0.286,0.029,0.575,0.029,0.866v4.457
		c0,0.917-0.397,1.788-1.089,2.39c-0.683,0.592-1.584,0.858-2.469,0.736l-0.194-0.024c-2.496-0.286-4.998,0.506-6.858,2.168
		c-1.67,1.491-2.701,3.563-2.896,5.774H17.506c-0.194-2.211-1.226-4.283-2.896-5.774c-1.859-1.661-4.357-2.452-6.858-2.168
		c-0.012,0.001-0.023,0.004-0.035,0.006C7.708,23.621,7.698,23.62,7.688,23.621z M16.939,33.556h26.132
		c1.618,0,2.935,1.316,2.935,2.934v2.966c0,0.607-0.494,1.101-1.101,1.101H15.106c-0.606,0-1.101-0.494-1.101-1.101V36.49
		C14.005,34.872,15.322,33.556,16.939,33.556z M15.505,55.556c-0.88,0-1.805-0.279-2.242-1h4.484
		C17.31,55.277,16.385,55.556,15.505,55.556z M44.505,55.556c-0.88,0-1.805-0.279-2.242-1h4.484
		C46.31,55.277,45.385,55.556,44.505,55.556z M56.476,36.757c-1.131,1.372-2.742,2.192-4.537,2.311l-0.934,0.062v10.999
		c0,1.271-1.276,2.427-2.678,2.427h-8.322h-20h-8.323c-1.401,0-2.677-1.157-2.677-2.427V39.13l-0.934-0.062
		c-1.795-0.119-3.407-0.939-4.538-2.312c-1.199-1.453-1.722-3.341-1.473-5.316c0.383-3.038,2.871-5.493,5.916-5.838
		c0.261-0.03,0.519-0.043,0.776-0.044c0.029,0,0.056,0.003,0.085,0.003c0.371,0.003,0.736,0.037,1.094,0.099
		c0.037,0.006,0.075,0.009,0.112,0.016c0.357,0.067,0.704,0.168,1.043,0.291c0.059,0.021,0.118,0.043,0.176,0.066
		c0.33,0.131,0.651,0.287,0.959,0.471c0.049,0.029,0.096,0.063,0.145,0.093c0.317,0.2,0.624,0.421,0.911,0.677
		c1.3,1.161,2.09,2.778,2.232,4.518c-2.021,0.617-3.505,2.477-3.505,4.698v2.966c0,1.709,1.391,3.101,3.101,3.101h29.799
		c1.71,0,3.101-1.391,3.101-3.101V36.49c0-2.221-1.485-4.081-3.507-4.698c0.006-0.072,0.005-0.145,0.013-0.216
		c0.184-1.648,0.971-3.185,2.22-4.301c1.451-1.296,3.32-1.885,5.28-1.674c0.007,0.001,0.015,0.001,0.022,0.001
		c3.045,0.345,5.533,2.8,5.916,5.838C58.198,33.415,57.675,35.304,56.476,36.757z"/>
	<path d="M48.323,28.874c-0.391,0.39-0.391,1.023,0,1.414s1.023,0.391,1.414,0c0.973-0.975,2.56-0.976,3.536,0
		c0.975,0.975,0.975,2.561,0,3.536c-0.391,0.391-0.391,1.023,0,1.414c0.195,0.195,0.451,0.293,0.707,0.293s0.512-0.098,0.707-0.293
		c1.755-1.754,1.755-4.61,0-6.364C52.933,27.12,50.077,27.119,48.323,28.874z"/>
	<path d="M11.712,28.874c-1.756-1.755-4.612-1.754-6.364,0c-1.755,1.754-1.755,4.61,0,6.364c0.195,0.195,0.451,0.293,0.707,0.293
		s0.512-0.098,0.707-0.293c0.391-0.391,0.391-1.023,0-1.414c-0.473-0.473-0.732-1.1-0.732-1.768s0.26-1.295,0.732-1.768
		c0.976-0.976,2.563-0.975,3.536,0c0.391,0.391,1.023,0.391,1.414,0C12.103,29.897,12.103,29.264,11.712,28.874z"/>
	<path d="M35.302,22.263c0.195,0.195,0.451,0.293,0.707,0.293s0.512-0.098,0.707-0.293l1.293-1.293l1.293,1.293
		c0.195,0.195,0.451,0.293,0.707,0.293s0.512-0.098,0.707-0.293c0.391-0.391,0.391-1.023,0-1.414l-1.293-1.293l1.293-1.293
		c0.391-0.391,0.391-1.023,0-1.414s-1.023-0.391-1.414,0l-1.293,1.293l-1.293-1.293c-0.391-0.391-1.023-0.391-1.414,0
		s-0.391,1.023,0,1.414l1.293,1.293l-1.293,1.293C34.912,21.24,34.912,21.872,35.302,22.263z"/>
	<path d="M19.302,22.263c0.195,0.195,0.451,0.293,0.707,0.293s0.512-0.098,0.707-0.293l1.293-1.293l1.293,1.293
		c0.195,0.195,0.451,0.293,0.707,0.293s0.512-0.098,0.707-0.293c0.391-0.391,0.391-1.023,0-1.414l-1.293-1.293l1.293-1.293
		c0.391-0.391,0.391-1.023,0-1.414s-1.023-0.391-1.414,0l-1.293,1.293l-1.293-1.293c-0.391-0.391-1.023-0.391-1.414,0
		s-0.391,1.023,0,1.414l1.293,1.293l-1.293,1.293C18.912,21.24,18.912,21.872,19.302,22.263z"/>
</g>
<g>
</g>
<g>
</g>
<g>
</g>
<g>
</g>
<g>
</g>
<g>
</g>
<g>
</g>
<g>
</g>
<g>
</g>
<g>
</g>
<g>
</g>
<g>
</g>
<g>
</g>
<g>
</g>
<g>
</g>
</svg>
