<?xml version="1.0" encoding="iso-8859-1"?>
<!-- Generator: Adobe Illustrator 18.0.0, SVG Export Plug-In . SVG Version: 6.00 Build 0)  -->
<!DOCTYPE svg PUBLIC "-//W3C//DTD SVG 1.1//EN" "http://www.w3.org/Graphics/SVG/1.1/DTD/svg11.dtd">
<svg version="1.1" id="Capa_1" xmlns="http://www.w3.org/2000/svg" xmlns:xlink="http://www.w3.org/1999/xlink" x="0px" y="0px"
	 viewBox="0 0 60 60" style="enable-background:new 0 0 60 60;" xml:space="preserve">
<path d="M58.05,34H57V20.623C57,19.177,55.823,18,54.377,18H23.594c-0.705,0-1.389,0.289-1.875,0.793
	c-0.487,0.503-0.742,1.165-0.719,1.83V34h-1c-1.084,0-2,0.879-2,1.92V53v2v2.411c-2.928-1.19-5-4.061-5-7.411v-1h-1V16h10V0H0v16h6
	v6c0,0.553,0.447,1,1,1s1-0.447,1-1v-6h2v33H9v1c0,4.411-3.589,8-8,8c-0.553,0-1,0.447-1,1s0.447,1,1,1h17h3h3v-5h30v5h6v-5v-2
	V35.92C60,34.861,59.125,34,58.05,34z M2,2h18v12H2V2z M22.999,20.589c-0.006-0.194,0.082-0.328,0.157-0.406
	C23.271,20.064,23.426,20,23.594,20h30.783C54.721,20,55,20.279,55,20.623V34h-2.11C51.83,34,51,34.844,51,35.92V39H27v-3
	c0-1.065-0.935-2-2-2h-2L22.999,20.589z M27,41h24v4H27V41z M6.994,58c2.18-1.638,3.671-4.144,3.956-7h0.1
	c0.285,2.856,1.776,5.362,3.956,7H6.994z M22,58h-1c-0.339,0-0.672-0.028-1-0.069V55h2V58z M58,58h-2v-3h2V58z M54,53H24h-4V36h1
	l4,0.048V39v8h28v-8v-3h4h1v17H54z"/>
<g>
</g>
<g>
</g>
<g>
</g>
<g>
</g>
<g>
</g>
<g>
</g>
<g>
</g>
<g>
</g>
<g>
</g>
<g>
</g>
<g>
</g>
<g>
</g>
<g>
</g>
<g>
</g>
<g>
</g>
</svg>
