<?xml version="1.0" encoding="iso-8859-1"?>
<!-- Generator: Adobe Illustrator 18.0.0, SVG Export Plug-In . SVG Version: 6.00 Build 0)  -->
<!DOCTYPE svg PUBLIC "-//W3C//DTD SVG 1.1//EN" "http://www.w3.org/Graphics/SVG/1.1/DTD/svg11.dtd">
<svg version="1.1" id="Capa_1" xmlns="http://www.w3.org/2000/svg" xmlns:xlink="http://www.w3.org/1999/xlink" x="0px" y="0px"
	 viewBox="0 0 60 60" style="enable-background:new 0 0 60 60;" xml:space="preserve">
<g>
	<path d="M59,58H49v-2.223c1.63-0.409,3.063-1.384,4.077-2.777H57c0.553,0,1-0.447,1-1V5c0-0.553-0.447-1-1-1V3h2
		c0.553,0,1-0.447,1-1s-0.447-1-1-1h-2c0-0.553-0.447-1-1-1s-1,0.447-1,1h-1c0-0.553-0.447-1-1-1s-1,0.447-1,1h-1
		c0-0.553-0.447-1-1-1s-1,0.447-1,1h-1c0-0.553-0.447-1-1-1s-1,0.447-1,1h-1c0-0.553-0.447-1-1-1s-1,0.447-1,1h-1
		c0-0.553-0.447-1-1-1s-1,0.447-1,1h-2c-0.553,0-1,0.447-1,1s0.447,1,1,1h2v1c-0.553,0-1,0.447-1,1v27H8v-4.586L12.414,23H13
		c0.553,0,1-0.447,1-1s-0.447-1-1-1h-1c-0.266,0-0.52,0.105-0.707,0.293L6.586,26H4v-3h2c0.553,0,1-0.447,1-1s-0.447-1-1-1H3
		c-0.553,0-1,0.447-1,1v5v5.184C0.839,32.598,0,33.698,0,35c0,1.378,0.939,2.53,2.207,2.88l3.551,12.787
		c0.709,2.551,2.755,4.454,5.242,5.087V58H1c-0.553,0-1,0.447-1,1s0.447,1,1,1h11h3h30h3h11c0.553,0,1-0.447,1-1S59.553,58,59,58z
		 M55,3v1h-1V3H55z M52,3v1h-1V3H52z M49,3v1h-1V3H49z M46,3v1h-1V3H46z M42,3h1v1h-1V3z M41,26v-6v-6V8V6h15v45h-1.649H54h-6h-6h-1
		v-1v-6v-6v-2v-4V26z M6,32H4v-4h2V32z M3,34h4h32v2H3c-0.552,0-1-0.448-1-1S2.448,34,3,34z M7.686,50.132L4.315,38H39v14v1h1
		h10.307c-0.882,0.643-1.951,1-3.081,1H43H17h-4.226C10.411,54,8.318,52.409,7.686,50.132z M42.382,56l1,2H16.618l1-2H42.382z
		 M13,58v-2h2.382l-1,2H13z M45.618,58l-1-2H47v2H45.618z"/>
	<circle cx="42" cy="8" r="1"/>
	<circle cx="42" cy="14" r="1"/>
	<circle cx="45" cy="11" r="1"/>
	<circle cx="45" cy="17" r="1"/>
	<circle cx="48" cy="8" r="1"/>
	<circle cx="54" cy="8" r="1"/>
	<circle cx="48" cy="14" r="1"/>
	<circle cx="54" cy="14" r="1"/>
	<circle cx="51" cy="11" r="1"/>
	<circle cx="51" cy="17" r="1"/>
	<circle cx="42" cy="20" r="1"/>
	<circle cx="42" cy="26" r="1"/>
	<circle cx="45" cy="23" r="1"/>
	<circle cx="45" cy="29" r="1"/>
	<circle cx="48" cy="20" r="1"/>
	<circle cx="54" cy="20" r="1"/>
	<circle cx="48" cy="26" r="1"/>
	<circle cx="54" cy="26" r="1"/>
	<circle cx="51" cy="23" r="1"/>
	<circle cx="51" cy="29" r="1"/>
	<circle cx="42" cy="32" r="1"/>
	<circle cx="42" cy="38" r="1"/>
	<circle cx="45" cy="35" r="1"/>
	<circle cx="45" cy="41" r="1"/>
	<circle cx="48" cy="32" r="1"/>
	<circle cx="54" cy="32" r="1"/>
	<circle cx="48" cy="38" r="1"/>
	<circle cx="54" cy="38" r="1"/>
	<circle cx="51" cy="35" r="1"/>
	<circle cx="51" cy="41" r="1"/>
	<circle cx="42" cy="44" r="1"/>
	<circle cx="42" cy="50" r="1"/>
	<circle cx="45" cy="47" r="1"/>
	<circle cx="48" cy="44" r="1"/>
	<circle cx="54" cy="44" r="1"/>
	<circle cx="48" cy="50" r="1"/>
	<circle cx="54" cy="50" r="1"/>
	<circle cx="51" cy="47" r="1"/>
</g>
<g>
</g>
<g>
</g>
<g>
</g>
<g>
</g>
<g>
</g>
<g>
</g>
<g>
</g>
<g>
</g>
<g>
</g>
<g>
</g>
<g>
</g>
<g>
</g>
<g>
</g>
<g>
</g>
<g>
</g>
</svg>
