<?xml version="1.0" encoding="iso-8859-1"?>
<!-- Generator: Adobe Illustrator 18.0.0, SVG Export Plug-In . SVG Version: 6.00 Build 0)  -->
<!DOCTYPE svg PUBLIC "-//W3C//DTD SVG 1.1//EN" "http://www.w3.org/Graphics/SVG/1.1/DTD/svg11.dtd">
<svg version="1.1" id="Capa_1" xmlns="http://www.w3.org/2000/svg" xmlns:xlink="http://www.w3.org/1999/xlink" x="0px" y="0px"
	 viewBox="0 0 60 60" style="enable-background:new 0 0 60 60;" xml:space="preserve">
<g>
	<path d="M59,57.999H49v-2.246c2.487-0.633,4.533-2.536,5.241-5.087l3.552-12.787c1.268-0.35,2.207-1.502,2.207-2.88
		c0-1.654-1.346-3-3-3V2.416c0-0.979-0.585-1.855-1.49-2.23c-0.905-0.373-1.938-0.169-2.631,0.523l-2.59,2.59
		c-2.258-1.722-5.495-1.575-7.558,0.487c-0.391,0.391-0.391,1.023,0,1.414l7.071,7.071c0.188,0.188,0.442,0.293,0.707,0.293
		s0.52-0.105,0.707-0.293c2.062-2.063,2.209-5.3,0.486-7.558l2.59-2.59c0.17-0.17,0.357-0.128,0.452-0.09
		C54.84,2.073,55,2.175,55,2.416v29.583H24v-2H11v2H3c-1.654,0-3,1.346-3,3c0,1.378,0.939,2.53,2.207,2.88l3.552,12.787
		C6.467,53.217,8.513,55.12,11,55.753v2.246H1c-0.552,0-1,0.447-1,1s0.448,1,1,1h11h3h30h3h11c0.552,0,1-0.447,1-1
		S59.552,57.999,59,57.999z M50.414,10.054l-5.467-5.466c1.437-0.818,3.3-0.612,4.524,0.611l0.331,0.331
		C51.025,6.755,51.229,8.618,50.414,10.054z M57,33.999c0.551,0,1,0.448,1,1s-0.449,1-1,1H24v-2H57z M22,31.999v4v2v5h-9v-5v-2v-4
		H22z M13,44.999h9v2h-9V44.999z M3,33.999h8v2H3c-0.551,0-1-0.448-1-1S2.449,33.999,3,33.999z M7.686,50.131l-3.37-12.132H11v5v6
		h13v-6v-5h31.685l-3.37,12.132c-0.633,2.277-2.726,3.868-5.089,3.868H43H17h-4.226C10.411,53.999,8.318,52.408,7.686,50.131z
		 M42.382,55.999l1,2H16.618l1-2H42.382z M13,57.999v-2h2.382l-1,2H13z M45.618,57.999l-1-2H47v2H45.618z"/>
	<path d="M47,13.999c0.552,0,1-0.447,1-1v-1c0-0.553-0.448-1-1-1s-1,0.447-1,1v1C46,13.551,46.448,13.999,47,13.999z"/>
	<path d="M46,20.999c0,0.553,0.448,1,1,1s1-0.447,1-1v-1c0-0.553-0.448-1-1-1s-1,0.447-1,1V20.999z"/>
	<path d="M46,24.999c0,0.553,0.448,1,1,1s1-0.447,1-1v-1c0-0.553-0.448-1-1-1s-1,0.447-1,1V24.999z"/>
	<path d="M46,28.999c0,0.553,0.448,1,1,1s1-0.447,1-1v-1c0-0.553-0.448-1-1-1s-1,0.447-1,1V28.999z"/>
	<path d="M46,16.999c0,0.553,0.448,1,1,1s1-0.447,1-1v-1c0-0.553-0.448-1-1-1s-1,0.447-1,1V16.999z"/>
	<path d="M37.464,12.534c0.256,0,0.512-0.098,0.707-0.293l0.707-0.707c0.391-0.391,0.391-1.023,0-1.414s-1.023-0.391-1.414,0
		l-0.707,0.707c-0.391,0.391-0.391,1.023,0,1.414C36.953,12.436,37.208,12.534,37.464,12.534z"/>
	<path d="M34.636,15.363c0.256,0,0.512-0.098,0.707-0.293l0.707-0.707c0.391-0.391,0.391-1.023,0-1.414s-1.023-0.391-1.414,0
		l-0.707,0.707c-0.391,0.391-0.391,1.023,0,1.414C34.125,15.265,34.38,15.363,34.636,15.363z"/>
	<path d="M31.808,18.191c0.256,0,0.512-0.098,0.707-0.293l0.707-0.707c0.391-0.391,0.391-1.023,0-1.414s-1.023-0.391-1.414,0
		l-0.707,0.707c-0.391,0.391-0.391,1.023,0,1.414C31.296,18.093,31.552,18.191,31.808,18.191z"/>
	<path d="M40.293,9.706c0.256,0,0.512-0.098,0.707-0.293l0.707-0.707c0.391-0.391,0.391-1.023,0-1.414s-1.023-0.391-1.414,0
		l-0.707,0.707c-0.391,0.391-0.391,1.023,0,1.414C39.781,9.608,40.037,9.706,40.293,9.706z"/>
	<path d="M26.151,23.848c0.256,0,0.512-0.098,0.707-0.293l0.707-0.707c0.391-0.391,0.391-1.023,0-1.414s-1.023-0.391-1.414,0
		l-0.707,0.707c-0.391,0.391-0.391,1.023,0,1.414C25.639,23.751,25.895,23.848,26.151,23.848z"/>
	<path d="M20.494,29.505c0.256,0,0.512-0.098,0.707-0.293l0.707-0.707c0.391-0.391,0.391-1.023,0-1.414s-1.023-0.391-1.414,0
		l-0.707,0.707c-0.391,0.391-0.391,1.023,0,1.414C19.982,29.407,20.238,29.505,20.494,29.505z"/>
	<path d="M28.979,21.019c0.256,0,0.512-0.098,0.707-0.293l0.708-0.707c0.391-0.39,0.391-1.023,0-1.414
		c-0.391-0.391-1.024-0.391-1.415,0l-0.708,0.707c-0.391,0.39-0.391,1.023,0,1.414C28.467,20.922,28.723,21.019,28.979,21.019z"/>
	<path d="M23.322,26.676c0.256,0,0.512-0.098,0.707-0.293l0.707-0.707c0.391-0.391,0.391-1.023,0-1.414s-1.023-0.391-1.414,0
		l-0.707,0.707c-0.391,0.391-0.391,1.023,0,1.414C22.811,26.579,23.066,26.676,23.322,26.676z"/>
	<path d="M39.144,19.74c0.154,0.086,0.32,0.126,0.484,0.126c0.352,0,0.692-0.186,0.875-0.515l0.485-0.874
		c0.269-0.482,0.094-1.092-0.389-1.359c-0.483-0.27-1.091-0.094-1.359,0.389l-0.485,0.874C38.487,18.863,38.661,19.472,39.144,19.74
		z"/>
	<path d="M41.184,14.009l-0.486,0.874c-0.269,0.483-0.095,1.092,0.388,1.36c0.154,0.086,0.32,0.126,0.485,0.126
		c0.352,0,0.692-0.186,0.875-0.514l0.486-0.874c0.269-0.483,0.095-1.092-0.388-1.36C42.061,13.351,41.451,13.527,41.184,14.009z"/>
	<path d="M43.028,12.747c0.154,0.086,0.32,0.126,0.485,0.126c0.352,0,0.692-0.186,0.875-0.514l0.486-0.874
		c0.269-0.483,0.095-1.092-0.388-1.36c-0.483-0.27-1.092-0.094-1.36,0.388l-0.486,0.874C42.372,11.87,42.545,12.478,43.028,12.747z"
		/>
	<path d="M36.618,26.344l0.485-0.874c0.269-0.482,0.094-1.092-0.389-1.359c-0.484-0.27-1.092-0.094-1.359,0.389l-0.485,0.874
		c-0.269,0.482-0.094,1.092,0.389,1.359c0.154,0.086,0.32,0.126,0.484,0.126C36.095,26.859,36.436,26.674,36.618,26.344z"/>
	<path d="M38.561,22.849l0.486-0.874c0.269-0.483,0.095-1.092-0.388-1.36c-0.482-0.271-1.092-0.095-1.36,0.388l-0.486,0.874
		c-0.269,0.483-0.095,1.092,0.388,1.36c0.154,0.086,0.32,0.126,0.485,0.126C38.037,23.363,38.378,23.177,38.561,22.849z"/>
	<path d="M34.773,27.608c-0.483-0.27-1.092-0.094-1.36,0.389l-0.287,0.517c-0.269,0.482-0.095,1.091,0.388,1.359
		c0.154,0.086,0.321,0.126,0.485,0.126c0.352,0,0.692-0.186,0.875-0.515l0.287-0.517C35.43,28.485,35.256,27.877,34.773,27.608z"/>
</g>
<g>
</g>
<g>
</g>
<g>
</g>
<g>
</g>
<g>
</g>
<g>
</g>
<g>
</g>
<g>
</g>
<g>
</g>
<g>
</g>
<g>
</g>
<g>
</g>
<g>
</g>
<g>
</g>
<g>
</g>
</svg>
