<?xml version="1.0" encoding="iso-8859-1"?>
<!-- Generator: Adobe Illustrator 18.0.0, SVG Export Plug-In . SVG Version: 6.00 Build 0)  -->
<!DOCTYPE svg PUBLIC "-//W3C//DTD SVG 1.1//EN" "http://www.w3.org/Graphics/SVG/1.1/DTD/svg11.dtd">
<svg version="1.1" id="Capa_1" xmlns="http://www.w3.org/2000/svg" xmlns:xlink="http://www.w3.org/1999/xlink" x="0px" y="0px"
	 viewBox="0 0 60 60" style="enable-background:new 0 0 60 60;" xml:space="preserve">
<g>
	<path d="M60,34.682c0-0.078-0.017-0.15-0.023-0.226c0.025-0.151,0.026-0.305-0.007-0.454l-2.788-22.623l-0.031-0.151
		C56.361,8.443,53.876,6.5,51.107,6.5H8.893c-2.769,0-5.254,1.943-6.044,4.727L0.03,34.001c-0.033,0.149-0.031,0.303-0.007,0.454
		C0.017,34.531,0,34.604,0,34.682v5.637c0,0.846,0.337,1.611,0.878,2.182C0.337,43.071,0,43.836,0,44.682v2.637
		c0,1.336,0.83,2.478,2,2.948V53.5h9v-3h38v3h9v-3.233c1.17-0.471,2-1.613,2-2.948v-2.637c0-0.846-0.337-1.611-0.878-2.182
		C59.663,41.929,60,41.164,60,40.318V34.682z M9.78,22.958l4.857-4.856c0.801-0.802,2.104-0.802,2.905,0l4.857,4.856
		c0.692,0.691,0.788,1.744,0.281,2.542H9.499C8.992,24.702,9.088,23.649,9.78,22.958z M9,27.5h14.595h11.81h15.012H51
		c2.415,0,4.435,1.721,4.899,4H4.101C4.565,29.221,6.585,27.5,9,27.5z M36.602,22.958l4.857-4.856c0.8-0.802,2.104-0.802,2.905,0
		l4.857,4.856c0.692,0.691,0.788,1.744,0.281,2.542H36.32C35.813,24.702,35.91,23.649,36.602,22.958z M2,40.318v-5.637
		c0-0.092,0.032-0.173,0.052-0.259c0.023-0.097,0.049-0.193,0.094-0.279c0.021-0.04,0.05-0.074,0.075-0.111
		c0.053-0.08,0.109-0.158,0.179-0.222c0.044-0.04,0.097-0.067,0.147-0.099c0.067-0.045,0.13-0.094,0.205-0.124
		c0.134-0.053,0.277-0.087,0.43-0.087H4h6h6h6h6h6h6h6h6h4.818c0.152,0,0.296,0.034,0.43,0.087c0.067,0.027,0.124,0.073,0.185,0.112
		C57.177,33.88,57,34.163,57,34.5c0,0.552,0.448,1,1,1v4c-0.552,0-1,0.448-1,1c0,0.337,0.178,0.621,0.433,0.802
		c-0.182,0.115-0.385,0.198-0.615,0.198H52h-6h-6h-6h-6h-6h-6h-6H4H3.182C2.53,41.5,2,40.97,2,40.318z M4.793,11.703
		C5.354,9.843,7.066,8.5,8.893,8.5h42.215c1.826,0,3.539,1.343,4.1,3.203l2.223,18.035c-0.993-2.301-3.185-3.966-5.785-4.205
		c0.403-1.374,0.075-2.903-1.01-3.989l-4.857-4.856c-1.581-1.58-4.153-1.581-5.733,0l-4.857,4.856
		c-1.077,1.077-1.408,2.591-1.019,3.956h-9.336c0.388-1.365,0.058-2.879-1.019-3.956l-4.857-4.856c-1.581-1.58-4.153-1.581-5.733,0
		l-4.857,4.856c-1.128,1.127-1.445,2.735-0.966,4.148c-2.174,0.511-3.961,2.033-4.829,4.046L4.793,11.703z M9,51.5H4v-1h5V51.5z
		 M56,51.5h-5v-1h5V51.5z M58,47.318c0,0.651-0.53,1.182-1.182,1.182H49H11H3.182C2.53,48.5,2,47.97,2,47.318v-2.637
		C2,44.03,2.53,43.5,3.182,43.5h53.637C57.47,43.5,58,44.03,58,44.682V47.318z"/>
	<circle cx="7" cy="37.5" r="1"/>
	<circle cx="4" cy="34.5" r="1"/>
	<circle cx="10" cy="34.5" r="1"/>
	<circle cx="4" cy="40.5" r="1"/>
	<circle cx="10" cy="40.5" r="1"/>
	<circle cx="13" cy="37.5" r="1"/>
	<circle cx="19" cy="37.5" r="1"/>
	<circle cx="16" cy="34.5" r="1"/>
	<circle cx="22" cy="34.5" r="1"/>
	<circle cx="16" cy="40.5" r="1"/>
	<circle cx="22" cy="40.5" r="1"/>
	<circle cx="25" cy="37.5" r="1"/>
	<circle cx="31" cy="37.5" r="1"/>
	<circle cx="28" cy="34.5" r="1"/>
	<circle cx="34" cy="34.5" r="1"/>
	<circle cx="28" cy="40.5" r="1"/>
	<circle cx="34" cy="40.5" r="1"/>
	<circle cx="37" cy="37.5" r="1"/>
	<circle cx="43" cy="37.5" r="1"/>
	<circle cx="40" cy="34.5" r="1"/>
	<circle cx="46" cy="34.5" r="1"/>
	<circle cx="40" cy="40.5" r="1"/>
	<circle cx="46" cy="40.5" r="1"/>
	<circle cx="49" cy="37.5" r="1"/>
	<circle cx="55" cy="37.5" r="1"/>
	<circle cx="52" cy="34.5" r="1"/>
	<circle cx="52" cy="40.5" r="1"/>
</g>
<g>
</g>
<g>
</g>
<g>
</g>
<g>
</g>
<g>
</g>
<g>
</g>
<g>
</g>
<g>
</g>
<g>
</g>
<g>
</g>
<g>
</g>
<g>
</g>
<g>
</g>
<g>
</g>
<g>
</g>
</svg>
