<?xml version="1.0" encoding="iso-8859-1"?>
<!-- Generator: Adobe Illustrator 18.0.0, SVG Export Plug-In . SVG Version: 6.00 Build 0)  -->
<!DOCTYPE svg PUBLIC "-//W3C//DTD SVG 1.1//EN" "http://www.w3.org/Graphics/SVG/1.1/DTD/svg11.dtd">
<svg version="1.1" id="Capa_1" xmlns="http://www.w3.org/2000/svg" xmlns:xlink="http://www.w3.org/1999/xlink" x="0px" y="0px"
	 viewBox="0 0 60 60" style="enable-background:new 0 0 60 60;" xml:space="preserve">
<g>
	<circle cx="20" cy="42" r="1"/>
	<circle cx="26" cy="42" r="1"/>
	<circle cx="32" cy="42" r="1"/>
	<circle cx="38" cy="42" r="1"/>
	<circle cx="44" cy="42" r="1"/>
	<path d="M60,38V28h-3v-0.856C57,24.858,55.142,23,52.856,23H7.144C4.859,23,3,24.858,3,27.144V28H0v10h3v5H2c-0.552,0-1,0.447-1,1
		s0.448,1,1,1H0v15h11v-3h38v3h11V45h-2c0.553,0,1-0.447,1-1s-0.447-1-1-1h-1v-5H60z M58,30v6h-1h-3v-6h3H58z M2,30h1h3v6H3H2V30z
		 M9,58H2V47h1h3v10h3V58z M11,55H8v-8h1h42h1v8h-3H11z M14.18,39c-0.309-0.558-0.222-1.261,0.255-1.73l3.992-3.936
		c0.592-0.584,1.555-0.584,2.146,0l3.993,3.936c0.477,0.471,0.563,1.173,0.254,1.73H16H14.18z M13.003,42.017
		C13.013,42.561,13.454,43,14,43c0.552,0,1-0.448,1-1c0-0.324-0.164-0.598-0.403-0.781C15.044,41.087,15.511,41,16,41h4h5.315h0.427
		H26h6h1.258H38h6c2.415,0,4.435,1.721,4.899,4H48c0-0.552-0.448-1-1-1s-1,0.448-1,1h-4c0-0.552-0.448-1-1-1s-1,0.448-1,1h-4
		c0-0.552-0.448-1-1-1s-1,0.448-1,1h-4c0-0.552-0.448-1-1-1s-1,0.448-1,1h-4c0-0.552-0.448-1-1-1s-1,0.448-1,1h-4
		c0-0.552-0.448-1-1-1s-1,0.448-1,1h-4c0-0.413-0.251-0.767-0.608-0.92C11.737,43.255,12.299,42.549,13.003,42.017z M34.435,37.27
		l3.992-3.936c0.592-0.584,1.555-0.584,2.146,0l3.993,3.936c0.477,0.471,0.563,1.173,0.254,1.73H44h-9.82
		C33.871,38.442,33.958,37.739,34.435,37.27z M58,58h-7v-1h3V47h3h1V58z M55,43h-1c-0.553,0-1,0.447-1,1s0.447,1,1,1h-2h-1.08
		c-0.352-2.443-1.964-4.484-4.16-5.431c0.501-1.25,0.236-2.713-0.79-3.724l-3.992-3.936c-1.366-1.348-3.589-1.349-4.955,0
		l-3.992,3.936c-0.874,0.861-1.19,2.048-0.958,3.154h-5.146c0.232-1.106-0.083-2.294-0.957-3.154l-3.992-3.936
		c-1.366-1.348-3.589-1.349-4.955,0l-3.992,3.936c-1.142,1.125-1.332,2.805-0.583,4.133C10.662,41.037,9.388,42.862,9.08,45H8H6
		c0.552,0,1-0.447,1-1s-0.448-1-1-1H5v-5h3V28H5v-0.856C5,25.962,5.961,25,7.144,25h45.713C54.038,25,55,25.962,55,27.144V28h-3v10
		h3V43z"/>
	<path d="M48,4H12v13h36V4z M46,15H14V6h32V15z"/>
	<path d="M52,0H8v21h44V0z M50,19H10V2h40V19z"/>
	<path d="M18,13c0.256,0,0.512-0.098,0.707-0.293L21,10.414l2.293,2.293C23.488,12.902,23.744,13,24,13s0.512-0.098,0.707-0.293
		L27,10.414l2.293,2.293C29.488,12.902,29.744,13,30,13s0.512-0.098,0.707-0.293L33,10.414l2.293,2.293
		C35.488,12.902,35.744,13,36,13s0.512-0.098,0.707-0.293L39,10.414l2.293,2.293C41.488,12.902,41.744,13,42,13
		s0.512-0.098,0.707-0.293c0.391-0.391,0.391-1.023,0-1.414l-3-3c-0.391-0.391-1.023-0.391-1.414,0L36,10.586l-2.293-2.293
		c-0.391-0.391-1.023-0.391-1.414,0L30,10.586l-2.293-2.293c-0.391-0.391-1.023-0.391-1.414,0L24,10.586l-2.293-2.293
		c-0.391-0.391-1.023-0.391-1.414,0l-3,3c-0.391,0.391-0.391,1.023,0,1.414C17.488,12.902,17.744,13,18,13z"/>
</g>
<g>
</g>
<g>
</g>
<g>
</g>
<g>
</g>
<g>
</g>
<g>
</g>
<g>
</g>
<g>
</g>
<g>
</g>
<g>
</g>
<g>
</g>
<g>
</g>
<g>
</g>
<g>
</g>
<g>
</g>
</svg>
