<?xml version="1.0" encoding="iso-8859-1"?>
<!-- Generator: Adobe Illustrator 18.0.0, SVG Export Plug-In . SVG Version: 6.00 Build 0)  -->
<!DOCTYPE svg PUBLIC "-//W3C//DTD SVG 1.1//EN" "http://www.w3.org/Graphics/SVG/1.1/DTD/svg11.dtd">
<svg version="1.1" id="Capa_1" xmlns="http://www.w3.org/2000/svg" xmlns:xlink="http://www.w3.org/1999/xlink" x="0px" y="0px"
	 viewBox="0 0 60 60" style="enable-background:new 0 0 60 60;" xml:space="preserve">
<g>
	<circle cx="6" cy="13.5" r="1"/>
	<circle cx="9" cy="10.5" r="1"/>
	<circle cx="3" cy="16.5" r="1"/>
	<circle cx="9" cy="16.5" r="1"/>
	<circle cx="12" cy="13.5" r="1"/>
	<circle cx="18" cy="13.5" r="1"/>
	<circle cx="15" cy="10.5" r="1"/>
	<circle cx="21" cy="10.5" r="1"/>
	<circle cx="24" cy="13.5" r="1"/>
	<circle cx="30" cy="13.5" r="1"/>
	<circle cx="27" cy="10.5" r="1"/>
	<circle cx="33" cy="10.5" r="1"/>
	<circle cx="27" cy="16.5" r="1"/>
	<circle cx="33" cy="16.5" r="1"/>
	<circle cx="36" cy="13.5" r="1"/>
	<circle cx="42" cy="13.5" r="1"/>
	<circle cx="39" cy="10.5" r="1"/>
	<circle cx="45" cy="10.5" r="1"/>
	<circle cx="48" cy="13.5" r="1"/>
	<circle cx="54" cy="13.5" r="1"/>
	<circle cx="6" cy="19.5" r="1"/>
	<circle cx="30" cy="19.5" r="1"/>
	<circle cx="54" cy="19.5" r="1"/>
	<circle cx="51" cy="10.5" r="1"/>
	<circle cx="51" cy="16.5" r="1"/>
	<circle cx="57" cy="16.5" r="1"/>
	<circle cx="3" cy="22.5" r="1"/>
	<circle cx="27" cy="22.5" r="1"/>
	<circle cx="33" cy="22.5" r="1"/>
	<circle cx="57" cy="22.5" r="1"/>
	<path d="M52.896,7.5H7.104C3.187,7.5,0,10.688,0,14.604v19.077v5.637c0,0.846,0.337,1.611,0.878,2.182
		C0.337,42.071,0,42.836,0,43.682v2.637c0,1.336,0.83,2.478,2,2.948V52.5h9v-3h38v3h9v-3.233c1.17-0.471,2-1.613,2-2.948v-2.637
		c0-0.846-0.337-1.611-0.878-2.182C59.663,40.929,60,40.164,60,39.318v-5.637V14.604C60,10.688,56.813,7.5,52.896,7.5z M2,28.5v-6
		v-6v-1.896C2,11.79,4.29,9.5,7.104,9.5H9h6h6h6h6h6h6h6h1.896C55.71,9.5,58,11.79,58,14.604V16.5v6v6v2.228
		c-0.015-0.006-0.032-0.008-0.047-0.014c-0.057-0.502-0.169-0.987-0.326-1.452C57.849,29.078,58,28.811,58,28.5c0-0.552-0.448-1-1-1
		c-0.081,0-0.154,0.028-0.229,0.046c-1.148-1.671-3.001-2.818-5.126-3.014c0.403-1.374,0.075-2.903-1.01-3.989l-4.857-4.856
		c-1.581-1.58-4.152-1.581-5.733,0L39.8,15.931C39.619,15.677,39.336,15.5,39,15.5c-0.552,0-1,0.448-1,1
		c0,0.336,0.177,0.619,0.431,0.8L36.8,18.931C36.619,18.677,36.336,18.5,36,18.5c-0.552,0-1,0.448-1,1
		c0,0.336,0.177,0.619,0.431,0.8l-0.244,0.244c-1.077,1.077-1.408,2.591-1.019,3.956h-9.336c0.388-1.365,0.058-2.879-1.019-3.956
		l-0.103-0.103C23.803,20.47,23.897,20.5,24,20.5c0.552,0,1-0.448,1-1s-0.448-1-1-1s-1,0.448-1,1c0,0.103,0.03,0.197,0.059,0.29
		l-2.349-2.349C20.803,17.47,20.897,17.5,21,17.5c0.552,0,1-0.448,1-1s-0.448-1-1-1s-1,0.448-1,1c0,0.103,0.03,0.197,0.059,0.291
		l-1.103-1.103c-1.581-1.58-4.152-1.581-5.733,0l-4.857,4.856c-1.128,1.127-1.445,2.735-0.966,4.148
		c-1.72,0.405-3.198,1.44-4.17,2.854C3.154,27.528,3.081,27.5,3,27.5C2.448,27.5,2,27.948,2,28.5c0,0.311,0.151,0.578,0.374,0.761
		c-0.157,0.465-0.27,0.95-0.326,1.452C2.032,30.719,2.015,30.721,2,30.728V28.5z M9.78,21.958l4.857-4.856
		c0.801-0.802,2.104-0.802,2.905,0l4.857,4.856c0.692,0.691,0.788,1.744,0.281,2.542H9.499C8.992,23.702,9.088,22.649,9.78,21.958z
		 M9,26.5h14.595h11.81h15.012H51c2.415,0,4.435,1.721,4.899,4H4.101C4.565,28.221,6.585,26.5,9,26.5z M36.602,21.958l4.857-4.856
		c0.8-0.802,2.104-0.802,2.905,0l4.857,4.856c0.692,0.691,0.788,1.744,0.281,2.542H36.32C35.813,23.702,35.91,22.649,36.602,21.958z
		 M9,50.5H4v-1h5V50.5z M56,50.5h-5v-1h5V50.5z M58,46.318c0,0.651-0.53,1.182-1.182,1.182H49H11H3.182C2.53,47.5,2,46.97,2,46.318
		v-2.637C2,43.03,2.53,42.5,3.182,42.5h53.637C57.47,42.5,58,43.03,58,43.682V46.318z M58,39.318c0,0.651-0.53,1.182-1.182,1.182
		H3.182C2.53,40.5,2,39.97,2,39.318v-5.637C2,33.03,2.53,32.5,3.182,32.5h53.637C57.47,32.5,58,33.03,58,33.682V39.318z"/>
</g>
<g>
</g>
<g>
</g>
<g>
</g>
<g>
</g>
<g>
</g>
<g>
</g>
<g>
</g>
<g>
</g>
<g>
</g>
<g>
</g>
<g>
</g>
<g>
</g>
<g>
</g>
<g>
</g>
<g>
</g>
</svg>
