<?xml version="1.0" encoding="iso-8859-1"?>
<!-- Generator: Adobe Illustrator 18.0.0, SVG Export Plug-In . SVG Version: 6.00 Build 0)  -->
<!DOCTYPE svg PUBLIC "-//W3C//DTD SVG 1.1//EN" "http://www.w3.org/Graphics/SVG/1.1/DTD/svg11.dtd">
<svg version="1.1" id="Capa_1" xmlns="http://www.w3.org/2000/svg" xmlns:xlink="http://www.w3.org/1999/xlink" x="0px" y="0px"
	 viewBox="0 0 60 60" style="enable-background:new 0 0 60 60;" xml:space="preserve">
<g>
	<path d="M58.5,54h-2.45c-0.744-10.782-2.447-20.928-4.958-29.419c2.471-3.738,6.915-6.718,6.961-6.748
		c0.367-0.244,0.532-0.7,0.404-1.122C58.33,16.289,57.941,16,57.5,16h-9.456c-0.359-0.842-0.729-1.642-1.105-2.422
		c-0.002-0.004-0.002-0.008-0.004-0.011c-0.026-0.055-0.054-0.105-0.08-0.159c-0.225-0.463-0.451-0.92-0.682-1.361
		c-0.104-0.199-0.21-0.388-0.314-0.582c-0.163-0.301-0.325-0.606-0.49-0.895c-3.317-5.839-7.094-9.335-11.103-10.292
		c-0.02-0.005-0.04-0.012-0.06-0.016c-0.319-0.074-0.639-0.13-0.96-0.172c-0.052-0.007-0.103-0.019-0.155-0.025
		C32.729,0.024,32.365,0,32,0c-0.373,0-0.743,0.025-1.113,0.068c-0.074,0.009-0.147,0.025-0.221,0.036
		C30.36,0.146,30.054,0.2,29.749,0.272c-0.052,0.013-0.105,0.029-0.157,0.042c-0.339,0.086-0.676,0.189-1.011,0.311
		c-0.012,0.004-0.023,0.009-0.035,0.013c-4.215,1.548-8.14,5.932-11.497,12.928c-0.017,0.036-0.024,0.074-0.037,0.111
		c-0.511,1.068-1.01,2.182-1.49,3.366C15.161,17.015,14.827,17,14.5,17c-7.72,0-14,6.28-14,14c0,5.578,3.364,10.639,8.451,12.84
		C8.514,47.159,8.187,50.571,7.949,54H5.5c-0.553,0-1,0.447-1,1v4c0,0.553,0.447,1,1,1h53c0.553,0,1-0.447,1-1v-4
		C59.5,54.447,59.053,54,58.5,54z M20.299,11.656c0.2-0.353,0.402-0.694,0.605-1.029c0.038-0.062,0.075-0.125,0.112-0.187
		c2.612-4.242,5.492-6.972,8.42-7.988c0.072-0.025,0.144-0.05,0.217-0.073c0.189-0.06,0.379-0.111,0.569-0.157
		c0.152-0.036,0.305-0.066,0.458-0.092c0.136-0.024,0.272-0.051,0.409-0.068C31.393,2.025,31.696,2,32,2
		c0.297,0,0.593,0.023,0.889,0.058c0.134,0.016,0.267,0.043,0.401,0.067c0.152,0.026,0.304,0.053,0.455,0.089
		c0.184,0.044,0.368,0.095,0.551,0.153c0.085,0.026,0.171,0.054,0.256,0.083c0.231,0.08,0.462,0.166,0.693,0.268
		c0.004,0.001,0.007,0.003,0.011,0.005C38.486,4.152,41.639,7.672,44.416,13H19.568C19.809,12.536,20.054,12.092,20.299,11.656z
		 M10.389,42.261C5.67,40.537,2.5,36.012,2.5,31c0-6.617,5.383-12,12-12c0.461,0,0.951,0.035,1.543,0.111
		c0.447,0.051,0.89-0.2,1.058-0.627c0.482-1.228,0.981-2.385,1.492-3.484h26.81c0.357,0.766,0.71,1.552,1.053,2.382
		C46.609,17.756,46.975,18,47.379,18h7.147c-1.688,1.402-3.893,3.499-5.375,5.904c-0.149,0.243-0.188,0.539-0.106,0.813
		c2.53,8.405,4.258,18.51,5.009,29.283H9.941c0.253-3.607,0.62-7.189,1.096-10.664C11.101,42.87,10.831,42.422,10.389,42.261z
		 M57.5,58h-51v-2h2.372h46.251H57.5V58z"/>
	<path d="M27.5,52c2.757,0,5-2.243,5-5V23c0-2.757-2.243-5-5-5s-5,2.243-5,5v24C22.5,49.757,24.743,52,27.5,52z M24.5,23
		c0-1.654,1.346-3,3-3s3,1.346,3,3v1h-2c-0.553,0-1,0.447-1,1s0.447,1,1,1h2v2h-2c-0.553,0-1,0.447-1,1s0.447,1,1,1h2v2h-2
		c-0.553,0-1,0.447-1,1s0.447,1,1,1h2v2h-2c-0.553,0-1,0.447-1,1s0.447,1,1,1h2v2h-2c-0.553,0-1,0.447-1,1s0.447,1,1,1h2v2h-2
		c-0.553,0-1,0.447-1,1s0.447,1,1,1h2v1c0,1.654-1.346,3-3,3s-3-1.346-3-3V23z"/>
	<path d="M11.645,39.293c1.029-6.226,2.397-11.934,4.068-16.964c0.1-0.3,0.015-0.631-0.165-0.89
		c-0.181-0.259-0.509-0.419-0.824-0.43C14.649,21.005,14.575,21,14.5,21c-5.514,0-10,4.486-10,10c0,3.839,2.249,7.386,5.73,9.033
		c0.136,0.064,0.281,0.097,0.428,0.097c0.159,0,0.318-0.038,0.464-0.114C11.4,39.87,11.594,39.603,11.645,39.293z M9.914,37.543
		C7.806,36.061,6.5,33.615,6.5,31c0-4.005,2.957-7.331,6.864-7.907C11.988,27.478,10.831,32.325,9.914,37.543z"/>
</g>
<g>
</g>
<g>
</g>
<g>
</g>
<g>
</g>
<g>
</g>
<g>
</g>
<g>
</g>
<g>
</g>
<g>
</g>
<g>
</g>
<g>
</g>
<g>
</g>
<g>
</g>
<g>
</g>
<g>
</g>
</svg>
