<?xml version="1.0" encoding="iso-8859-1"?>
<!-- Generator: Adobe Illustrator 18.0.0, SVG Export Plug-In . SVG Version: 6.00 Build 0)  -->
<!DOCTYPE svg PUBLIC "-//W3C//DTD SVG 1.1//EN" "http://www.w3.org/Graphics/SVG/1.1/DTD/svg11.dtd">
<svg version="1.1" id="Capa_1" xmlns="http://www.w3.org/2000/svg" xmlns:xlink="http://www.w3.org/1999/xlink" x="0px" y="0px"
	 viewBox="0 0 60 60" style="enable-background:new 0 0 60 60;" xml:space="preserve">
<g>
	<path d="M19,56h14V43v-2v-9v-2v-2V17v-2V3H19h-2H3v12v2v2v9v2v11v2v13h14H19z M31,54H19V43h3h3h2h1h2h1V54z M28,41h-1v-7h1V41z
		 M25,41h-1v-7h1V41z M30,41v-7h1v7H30z M31,32h-1h-2h-1h-2h-3v9h-3V30h12V32z M31,28H19V17h12V28z M19,5h12v10H19V5z M5,5h12v10H5
		V5z M5,17h12v11h-3v-9h-3H9H8H6H5V17z M9,28H8v-7h1V28z M12,28h-1v-7h1V28z M5,21h1v7H5V21z M5,30h1h2h1h2h3h3v11H5V30z M5,54V43
		h12v11H5z"/>
	<path d="M27,44h-4c-0.552,0-1,0.447-1,1s0.448,1,1,1h4c0.552,0,1-0.447,1-1S27.552,44,27,44z"/>
	<path d="M13,44H9c-0.552,0-1,0.447-1,1s0.448,1,1,1h4c0.552,0,1-0.447,1-1S13.552,44,13,44z"/>
	<path d="M60,45h-5.727c0.024-0.081,0.055-0.158,0.072-0.242c0.192-0.968-0.124-1.944-0.845-2.612
		c-0.805-0.744-1.319-1.548-1.529-2.389L51.781,39H50v-3v-0.142c1.72-0.447,3-1.999,3-3.858v-5h-3h-2h-3v5
		c0,1.859,1.28,3.411,3,3.858V36v3h-1.381l-0.189,0.758c-0.21,0.84-0.724,1.644-1.529,2.388c-0.721,0.668-1.038,1.645-0.845,2.611
		c0.017,0.084,0.048,0.162,0.072,0.243H38v8h3.484l-2.403,5.606c-0.218,0.507,0.018,1.095,0.525,1.313
		C39.734,59.975,39.868,60,40,60c0.388,0,0.757-0.227,0.919-0.606L43.659,53h10.682l2.74,6.394C57.243,59.773,57.612,60,58,60
		c0.131,0,0.265-0.025,0.394-0.081c0.507-0.218,0.743-0.806,0.525-1.313L56.516,53H60V45z M50,29h1v3c0,0.739-0.403,1.386-1,1.731
		V29z M47,32v-3h1v4.731C47.403,33.386,47,32.739,47,32z M46.017,44.367c-0.081-0.403,0.142-0.661,0.242-0.753
		c0.866-0.801,1.491-1.678,1.866-2.614h2.151c0.375,0.937,1,1.813,1.866,2.614c0.1,0.092,0.322,0.35,0.242,0.754
		C52.312,44.729,51.941,45,51.521,45h-4.642C46.459,45,46.088,44.729,46.017,44.367z M58,51h-3c-0.004,0-0.007,0-0.011,0H43.012
		c-0.005,0-0.01,0-0.015,0H40v-4h6.879h4.642H58V51z"/>
	<path d="M0,59h2c0,0.553,0.448,1,1,1s1-0.447,1-1h28c0,0.553,0.448,1,1,1s1-0.447,1-1h2V0H0V59z M2,2h32v55H2V2z"/>
</g>
<g>
</g>
<g>
</g>
<g>
</g>
<g>
</g>
<g>
</g>
<g>
</g>
<g>
</g>
<g>
</g>
<g>
</g>
<g>
</g>
<g>
</g>
<g>
</g>
<g>
</g>
<g>
</g>
<g>
</g>
</svg>
