<?xml version="1.0" encoding="iso-8859-1"?>
<!-- Generator: Adobe Illustrator 18.0.0, SVG Export Plug-In . SVG Version: 6.00 Build 0)  -->
<!DOCTYPE svg PUBLIC "-//W3C//DTD SVG 1.1//EN" "http://www.w3.org/Graphics/SVG/1.1/DTD/svg11.dtd">
<svg version="1.1" id="Capa_1" xmlns="http://www.w3.org/2000/svg" xmlns:xlink="http://www.w3.org/1999/xlink" x="0px" y="0px"
	 viewBox="0 0 60 60" style="enable-background:new 0 0 60 60;" xml:space="preserve">
<path d="M60,37.5c0-5.514-4.486-10-10-10h-8v-4H28v4h-4.936c1.19-1.794,1.936-4.651,1.936-8c0-2.335-0.389-4.598-1.096-6.37
	l-0.251-0.63h-2.552c0.465-2.279,2.484-4,4.899-4c0.553,0,1-0.447,1-1s-0.447-1-1-1c-1.958,0-3.728,0.81-5,2.111V5.5
	c0-0.553-0.447-1-1-1s-1,0.447-1,1v3.111C17.728,7.31,15.958,6.5,14,6.5c-0.553,0-1,0.447-1,1s0.447,1,1,1
	c2.414,0,4.434,1.721,4.899,4h-2.552l-0.251,0.63C15.389,14.902,15,17.165,15,19.5c0,3.349,0.745,6.206,1.936,8H10
	c-5.514,0-10,4.486-10,10s4.486,10,10,10h2.196l-4.044,6.47c-0.293,0.469-0.15,1.086,0.317,1.378
	C8.635,55.451,8.818,55.5,8.999,55.5c0.333,0,0.659-0.166,0.849-0.47l4.706-7.53H16h4h2h2h2h4h17.446l4.706,7.53
	c0.189,0.304,0.516,0.47,0.849,0.47c0.181,0,0.364-0.049,0.529-0.152c0.468-0.292,0.61-0.909,0.317-1.378l-4.044-6.47H50
	C55.514,47.5,60,43.014,60,37.5z M30,25.5h10v2H30V25.5z M17,19.5c0-1.813,0.256-3.562,0.726-5h4.549
	c0.47,1.438,0.726,3.187,0.726,5c0,4.884-1.776,8-3,8S17,24.384,17,19.5z M10,45.5c-4.411,0-8-3.589-8-8s3.589-8,8-8h18h14h8
	c4.411,0,8,3.589,8,8s-3.589,8-8,8h-6v-5h-2v-4h-2v-4H30v-1h-6v3h-2v-2h-6v13H10z M30,42.5h12v2H30V42.5z M30,38.5h10v2H30V38.5z
	 M30,34.5h8v2h-8V34.5z M18,45.5v-11h2v11H18z M22,45.5v-9h2v9H22z M26,34.5v-1h2v3v2v2v2v3h-2V34.5z"/>
<g>
</g>
<g>
</g>
<g>
</g>
<g>
</g>
<g>
</g>
<g>
</g>
<g>
</g>
<g>
</g>
<g>
</g>
<g>
</g>
<g>
</g>
<g>
</g>
<g>
</g>
<g>
</g>
<g>
</g>
</svg>
