<?xml version="1.0" encoding="iso-8859-1"?>
<!-- Generator: Adobe Illustrator 18.0.0, SVG Export Plug-In . SVG Version: 6.00 Build 0)  -->
<!DOCTYPE svg PUBLIC "-//W3C//DTD SVG 1.1//EN" "http://www.w3.org/Graphics/SVG/1.1/DTD/svg11.dtd">
<svg version="1.1" id="Capa_1" xmlns="http://www.w3.org/2000/svg" xmlns:xlink="http://www.w3.org/1999/xlink" x="0px" y="0px"
	 viewBox="0 0 59 59" style="enable-background:new 0 0 59 59;" xml:space="preserve">
<g>
	<path d="M59,26h-6v-0.911C53.331,24.655,55.115,24,56,24h1c0.553,0,1-0.447,1-1s-0.447-1-1-1h-1H42h-1c-0.553,0-1,0.447-1,1
		s0.447,1,1,1h1c0.885,0,2.669,0.655,3,1.089V26h-5h-2h-6v-2h2v-6h-2v-4H18v6h2v2h-2v4h-4.936C14.255,24.206,15,21.349,15,18
		c0-2.335-0.389-4.598-1.096-6.37L13.653,11h-2.552C11.566,8.721,13.586,7,16,7c0.553,0,1-0.447,1-1s-0.447-1-1-1
		c-1.958,0-3.728,0.81-5,2.111V4c0-0.553-0.447-1-1-1S9,3.447,9,4v3.111C7.728,5.81,5.958,5,4,5C3.447,5,3,5.447,3,6s0.447,1,1,1
		c2.414,0,4.434,1.721,4.899,4H6.347l-0.251,0.63C5.389,13.402,5,15.665,5,18c0,3.349,0.745,6.206,1.936,8H0v22h1.557h0.806
		c-0.208,0.727-0.262,1.451-0.116,2.178c0.279,1.431-0.147,2.646-1.427,4.068l-0.077,0.086c-0.264,0.294-0.33,0.715-0.169,1.075
		C0.734,55.768,1.093,56,1.487,56h0.659c1.566,0,3.011-0.647,4.179-1.874c1.173-1.23,1.948-2.984,1.887-4.266
		C8.179,49.187,8.306,48.575,8.586,48H10h3h2h1h2h1h2h5h3h2h1h2h1h2h1h2h10.414c0.28,0.575,0.407,1.187,0.374,1.861
		c-0.062,1.28,0.714,3.034,1.887,4.265C53.843,55.353,55.287,56,56.854,56h0.659c0.395,0,0.753-0.232,0.913-0.593
		c0.161-0.36,0.095-0.781-0.169-1.075l-0.078-0.087c-1.278-1.421-1.705-2.637-1.433-4.034c0.002-0.009,0.02-0.096,0.021-0.104
		c0.137-0.683,0.08-1.389-0.127-2.106H59V26z M46.67,24h4.66C51.123,24.298,51,24.631,51,25v1h-4v-1
		C47,24.631,46.877,24.298,46.67,24z M40,28h5h8h4v8H40v-6V28z M20,16h10v2H20V16z M22,20h10v2H22V20z M20,24h10v2h-9h-1V24z M7,18
		c0-1.813,0.256-3.562,0.726-5h4.549C12.744,14.438,13,16.187,13,18c0,4.884-1.776,8-3,8S7,22.884,7,18z M2,46V28h16h1v9h-1h-2h-1
		h-2h-3v1H5.307l-3,8H2z M7.557,40l-2.25,6H4.443l2.25-6H7.557z M6.214,49.957c0.026,0.532-0.381,1.787-1.336,2.79
		c-0.295,0.309-0.697,0.649-1.206,0.897c0.63-1.246,0.797-2.523,0.521-3.933C4.087,49.185,4.179,48.621,4.473,48h1.969
		C6.257,48.623,6.181,49.277,6.214,49.957z M8,46H7.443L10,39.182V46H8z M12,46v-7h1v7H12z M15,46v-7h1v7H15z M19,46h-1v-7h1V46z
		 M21,46v-9v-9h11h6v2h-1h-2h-1h-2h-1h-2h-3v16H21z M28,46V32h1v14H28z M31,46V32h1v14H31z M34,46V32h1v14H34z M38,46h-1V32h1V46z
		 M54.79,49.795c-0.264,1.353-0.095,2.609,0.534,3.849c-0.507-0.249-0.908-0.589-1.202-0.896c-0.955-1.003-1.362-2.258-1.336-2.789
		c0.033-0.681-0.043-1.335-0.228-1.958h1.969C54.82,48.624,54.909,49.201,54.79,49.795z M55.121,46H51H40v-8h17v8H55.121z"/>
	<rect x="43" y="31" width="11" height="2"/>
	<rect x="43" y="41" width="11" height="2"/>
</g>
<g>
</g>
<g>
</g>
<g>
</g>
<g>
</g>
<g>
</g>
<g>
</g>
<g>
</g>
<g>
</g>
<g>
</g>
<g>
</g>
<g>
</g>
<g>
</g>
<g>
</g>
<g>
</g>
<g>
</g>
</svg>
