<?xml version="1.0" encoding="iso-8859-1"?>
<!-- Generator: Adobe Illustrator 18.0.0, SVG Export Plug-In . SVG Version: 6.00 Build 0)  -->
<!DOCTYPE svg PUBLIC "-//W3C//DTD SVG 1.1//EN" "http://www.w3.org/Graphics/SVG/1.1/DTD/svg11.dtd">
<svg version="1.1" id="Capa_1" xmlns="http://www.w3.org/2000/svg" xmlns:xlink="http://www.w3.org/1999/xlink" x="0px" y="0px"
	 viewBox="0 0 58.692 58.692" style="enable-background:new 0 0 58.692 58.692;" xml:space="preserve">
<g>
	<path d="M44.346,36.692h-2V18.456l-3-6l-1,2V7.5l-3-7.5l-3,7.5v4.956l-1-2l-3,6v3l-1-2l-1,2v-7.764l-3-10.64l-2.961,10.365
		l-0.004,3.106l-1.034-2.068l-3,6v18.236h-2v8h2.61l3.615,14h17.549l3.615-14h2.61V36.692z M39.346,16.929l1,2v17.764h-2V18.929
		L39.346,16.929z M34.346,7.885l1-2.5l1,2.5v10.571v18.236h-2V16.456V7.885z M30.346,16.929l1-2l1,2v19.764h-2V23.456V16.929z
		 M27.346,21.929l1,2v12.764h-2V23.929L27.346,21.929z M22.346,11.832l1-3.5l1,3.5v11.624v13.236h-2V18.456V11.832z M18.346,18.929
		l1-2l1,2v17.764h-2V18.929z M36.572,56.692H22.121l-3.099-12H39.67L36.572,56.692z M42.346,42.692h-0.094H16.44h-0.094v-4h4h2h2h2
		h2h2h2h2h2h2h4V42.692z"/>
	<path d="M24.346,47.692h6c0.552,0,1-0.447,1-1s-0.448-1-1-1h-6c-0.552,0-1,0.447-1,1S23.794,47.692,24.346,47.692z"/>
	<path d="M33.346,47.692c0.26,0,0.52-0.11,0.71-0.29c0.19-0.19,0.29-0.45,0.29-0.71s-0.11-0.521-0.29-0.71
		c-0.38-0.37-1.05-0.36-1.42,0c-0.18,0.189-0.29,0.45-0.29,0.71s0.11,0.52,0.29,0.71C32.826,47.582,33.086,47.692,33.346,47.692z"/>
	<path d="M29.346,48.692h-2c-0.552,0-1,0.447-1,1s0.448,1,1,1h2c0.552,0,1-0.447,1-1S29.898,48.692,29.346,48.692z"/>
	<path d="M24.346,50.692c0.26,0,0.52-0.11,0.7-0.29c0.19-0.19,0.3-0.44,0.3-0.71c0-0.26-0.11-0.521-0.29-0.71
		c-0.37-0.37-1.05-0.37-1.42,0c-0.18,0.189-0.29,0.45-0.29,0.71c0,0.27,0.11,0.52,0.29,0.71
		C23.826,50.582,24.086,50.692,24.346,50.692z"/>
</g>
<g>
</g>
<g>
</g>
<g>
</g>
<g>
</g>
<g>
</g>
<g>
</g>
<g>
</g>
<g>
</g>
<g>
</g>
<g>
</g>
<g>
</g>
<g>
</g>
<g>
</g>
<g>
</g>
<g>
</g>
</svg>
