<?xml version="1.0" encoding="iso-8859-1"?>
<!-- Generator: Adobe Illustrator 18.0.0, SVG Export Plug-In . SVG Version: 6.00 Build 0)  -->
<!DOCTYPE svg PUBLIC "-//W3C//DTD SVG 1.1//EN" "http://www.w3.org/Graphics/SVG/1.1/DTD/svg11.dtd">
<svg version="1.1" id="Capa_1" xmlns="http://www.w3.org/2000/svg" xmlns:xlink="http://www.w3.org/1999/xlink" x="0px" y="0px"
	 viewBox="0 0 60 60" style="enable-background:new 0 0 60 60;" xml:space="preserve">
<g>
	<path d="M42.83,22.14l-0.73-0.156c-8.028-1.72-16.17-1.721-24.198,0L17.17,22.14h-0.001C15.912,22.41,15,23.538,15,24.823v1.432
		c0,0.833,0.371,1.61,1.019,2.134c0.647,0.524,1.482,0.723,2.302,0.55c7.75-1.66,15.608-1.66,23.36,0
		C41.873,28.98,42.066,29,42.259,29c0.622,0,1.228-0.211,1.723-0.611C44.629,27.865,45,27.088,45,26.255v-1.432
		C45,23.538,44.088,22.41,42.83,22.14z M43,26.255c0,0.309-0.173,0.495-0.276,0.579c-0.103,0.083-0.317,0.215-0.624,0.149
		c-4.015-0.86-8.057-1.291-12.1-1.291c-4.042,0-8.085,0.431-12.099,1.291c-0.306,0.065-0.521-0.066-0.625-0.149
		C17.173,26.75,17,26.563,17,26.255v-1.432c0-0.349,0.248-0.655,0.589-0.729l0.731-0.156c7.75-1.66,15.61-1.66,23.36,0l0.73,0.156
		C42.752,24.168,43,24.475,43,24.823V26.255z"/>
	<path d="M54.343,12c-3.937,0-7.636-1.847-10.149-5.067C40.755,2.526,35.582,0,30,0S19.245,2.526,15.807,6.933
		C13.293,10.153,9.594,12,5.657,12C4.192,12,3,13.192,3,14.657V15c0,0.536,0.219,1.059,0.601,1.435C3.979,16.808,4.452,17,5,17
		c0,6.805,3.608,12.769,9,16.125V59c0,0.553,0.447,1,1,1s1-0.447,1-1V42h2v15c0,0.553,0.447,1,1,1s1-0.447,1-1V42h20v15
		c0,0.553,0.447,1,1,1s1-0.447,1-1V42h2v17c0,0.553,0.447,1,1,1s1-0.447,1-1V33.124c5.389-3.356,8.991-9.32,8.975-16.124
		c0.563,0.002,1.048-0.199,1.431-0.577C56.789,16.044,57,15.539,57,15v-0.343C57,13.192,55.808,12,54.343,12z M16,40v-5.79
		c0.649,0.303,1.314,0.575,2,0.804V40H16z M20,40v-4.432C21.291,35.846,22.627,36,24,36h12c1.373,0,2.709-0.154,4-0.432V40H20z
		 M44,40h-2v-4.986c0.686-0.229,1.351-0.501,2-0.804V40z M55,15c-0.009,0-0.017,0-0.025,0c-0.517,0-1.005,0.201-1.377,0.568
		C53.218,15.943,53,16.465,53,17c0,6.217-3.365,11.65-8.359,14.614c-0.08,0.031-0.146,0.081-0.214,0.13
		C41.939,33.172,39.067,34,36,34H24c-3.067,0-5.939-0.828-8.426-2.255c-0.068-0.049-0.135-0.1-0.215-0.131
		C10.365,28.65,7,23.217,7,17c0-0.541-0.212-1.048-0.598-1.428C6.026,15.202,5.532,15,5.03,15C5.021,15,5.01,15,5,15v-0.343
		C5,14.295,5.295,14,5.657,14c4.557,0,8.831-2.128,11.726-5.837C20.439,4.246,25.038,2,30,2s9.561,2.246,12.617,6.163
		C45.512,11.872,49.786,14,54.343,14C54.705,14,55,14.295,55,14.657V15z"/>
</g>
<g>
</g>
<g>
</g>
<g>
</g>
<g>
</g>
<g>
</g>
<g>
</g>
<g>
</g>
<g>
</g>
<g>
</g>
<g>
</g>
<g>
</g>
<g>
</g>
<g>
</g>
<g>
</g>
<g>
</g>
</svg>
