<?xml version="1.0" encoding="iso-8859-1"?>
<!-- Generator: Adobe Illustrator 18.0.0, SVG Export Plug-In . SVG Version: 6.00 Build 0)  -->
<!DOCTYPE svg PUBLIC "-//W3C//DTD SVG 1.1//EN" "http://www.w3.org/Graphics/SVG/1.1/DTD/svg11.dtd">
<svg version="1.1" id="Capa_1" xmlns="http://www.w3.org/2000/svg" xmlns:xlink="http://www.w3.org/1999/xlink" x="0px" y="0px"
	 viewBox="0 0 60 60" style="enable-background:new 0 0 60 60;" xml:space="preserve">
<g>
	<path d="M42.83,22.14l-0.73-0.156c-8.028-1.72-16.17-1.721-24.198,0L17.17,22.14h-0.001C15.912,22.41,15,23.538,15,24.823v1.432
		c0,0.833,0.371,1.61,1.019,2.134c0.647,0.524,1.483,0.723,2.302,0.55c7.75-1.66,15.608-1.66,23.36,0
		C41.873,28.98,42.066,29,42.259,29c0.622,0,1.228-0.211,1.723-0.611C44.629,27.865,45,27.088,45,26.255v-1.432
		C45,23.538,44.088,22.41,42.83,22.14z M43,26.255c0,0.309-0.173,0.495-0.276,0.579c-0.103,0.083-0.317,0.215-0.624,0.149
		c-4.015-0.86-8.057-1.291-12.1-1.291c-4.042,0-8.085,0.431-12.099,1.291c-0.305,0.065-0.521-0.066-0.625-0.149
		C17.173,26.75,17,26.563,17,26.255v-1.432c0-0.349,0.248-0.655,0.589-0.729l0.731-0.156c7.75-1.66,15.61-1.66,23.36,0l0.73,0.156
		C42.752,24.168,43,24.475,43,24.823V26.255z"/>
	<path d="M54.343,12c-3.937,0-7.636-1.847-10.149-5.067C40.755,2.526,35.582,0,30,0S19.245,2.526,15.807,6.933
		C13.293,10.153,9.594,12,5.657,12C4.192,12,3,13.192,3,14.657V15c0,0.536,0.219,1.059,0.601,1.435C3.979,16.808,4.451,17,5,17
		c0,10.477,8.523,19,19,19h2v11h1v2h-2v1c0,4.411-3.589,8-8,8h-4c-0.553,0-1,0.447-1,1s0.447,1,1,1h4h26h4c0.553,0,1-0.447,1-1
		s-0.447-1-1-1h-4c-4.411,0-8-3.589-8-8v-1h-2v-2h1V36h2c10.477,0,19-8.523,18.975-19c0.569,0.002,1.048-0.199,1.431-0.577
		C56.789,16.044,57,15.539,57,15v-0.343C57,13.192,55.808,12,54.343,12z M33.05,51c0.285,2.856,1.776,5.362,3.956,7H22.994
		c2.18-1.638,3.671-4.144,3.956-7H27h6H33.05z M31,49h-2v-2h2V49z M32,45h-4v-9h4V45z M55,15c-0.505,0.028-1.024,0.195-1.402,0.568
		C53.218,15.943,53,16.465,53,17c0,9.374-7.626,17-17,17h-2h-8h-2c-9.374,0-17-7.626-17-17c0-0.541-0.212-1.048-0.598-1.428
		C6.026,15.202,5.532,15,5.03,15C5.021,15,5.01,15,5,15v-0.343C5,14.295,5.295,14,5.657,14c4.557,0,8.831-2.128,11.726-5.837
		C20.439,4.246,25.038,2,30,2s9.561,2.246,12.617,6.163C45.512,11.872,49.786,14,54.343,14C54.705,14,55,14.295,55,14.657V15z"/>
</g>
<g>
</g>
<g>
</g>
<g>
</g>
<g>
</g>
<g>
</g>
<g>
</g>
<g>
</g>
<g>
</g>
<g>
</g>
<g>
</g>
<g>
</g>
<g>
</g>
<g>
</g>
<g>
</g>
<g>
</g>
</svg>
