<?xml version="1.0" encoding="iso-8859-1"?>
<!-- Generator: Adobe Illustrator 18.0.0, SVG Export Plug-In . SVG Version: 6.00 Build 0)  -->
<!DOCTYPE svg PUBLIC "-//W3C//DTD SVG 1.1//EN" "http://www.w3.org/Graphics/SVG/1.1/DTD/svg11.dtd">
<svg version="1.1" id="Capa_1" xmlns="http://www.w3.org/2000/svg" xmlns:xlink="http://www.w3.org/1999/xlink" x="0px" y="0px"
	 viewBox="0 0 60 60" style="enable-background:new 0 0 60 60;" xml:space="preserve">
<g>
	<path d="M54.343,12c-3.937,0-7.636-1.847-10.149-5.067C40.755,2.526,35.582,0,30,0S19.245,2.526,15.807,6.933
		C13.293,10.153,9.594,12,5.657,12C4.192,12,3,13.192,3,14.657V15c0,0.536,0.219,1.059,0.601,1.435C3.979,16.808,4.45,17,5,17
		c0,7.637,4.54,14.219,11.054,17.235l-2.545,22.71c-0.187,0.719-0.042,1.466,0.403,2.066C14.378,59.64,15.094,60,15.876,60h0.98
		c1.085,0,2.024-0.697,2.34-1.735l1.313-11.623L30,41.153l9.481,5.483l1.286,11.45l0.037,0.179C41.119,59.303,42.059,60,43.144,60
		h0.98c0.782,0,1.498-0.36,1.964-0.988c0.445-0.601,0.59-1.348,0.403-2.066l-2.545-22.71C50.459,31.219,54.993,24.637,54.975,17
		c0.576,0.002,1.048-0.199,1.431-0.577C56.789,16.044,57,15.539,57,15v-0.343C57,13.192,55.808,12,54.343,12z M16.856,58h-0.98
		c-0.195,0-0.308-0.112-0.357-0.18s-0.125-0.207-0.068-0.394l2.528-22.411c0.035,0.012,0.073,0.019,0.109,0.03
		c0.503,0.165,1.018,0.303,1.539,0.426c0.044,0.01,0.086,0.026,0.13,0.036l-2.498,22.237C17.186,57.897,17.028,58,16.856,58z
		 M20.789,44.17l0.885-7.832l6.329,3.66L20.789,44.17z M25.084,36h9.833L30,38.843L25.084,36z M31.997,39.998l6.327-3.659
		l0.879,7.827L31.997,39.998z M42.021,35.016l2.491,22.232l0.037,0.179c0.057,0.187-0.019,0.326-0.068,0.394S44.319,58,44.124,58
		h-0.98c-0.172,0-0.329-0.103-0.402-0.255l-2.498-22.237c0.045-0.01,0.087-0.026,0.131-0.036c0.52-0.123,1.035-0.26,1.537-0.425
		C41.948,35.034,41.986,35.027,42.021,35.016z M55,15c-0.527,0.028-1.023,0.195-1.402,0.568C53.218,15.943,53,16.465,53,17
		c0,7.027-4.286,13.072-10.381,15.658l-0.02,0.008c-0.124,0.053-0.256,0.09-0.382,0.14c-0.458,0.179-0.922,0.349-1.405,0.489
		c-0.039,0.012-0.079,0.019-0.119,0.031c-0.555,0.157-1.124,0.291-1.706,0.394C38.015,33.894,37.021,34,36,34H24
		c-1.021,0-2.015-0.106-2.987-0.279c-0.583-0.104-1.151-0.238-1.706-0.394c-0.039-0.011-0.08-0.019-0.119-0.031
		c-0.483-0.14-0.948-0.31-1.405-0.489c-0.126-0.05-0.257-0.087-0.382-0.14l-0.02-0.008C11.286,30.072,7,24.027,7,17
		c0-0.541-0.212-1.048-0.598-1.428C6.026,15.202,5.532,15,5.03,15C5.021,15,5.01,15,5,15v-0.343C5,14.295,5.295,14,5.657,14
		c4.557,0,8.831-2.128,11.726-5.837C20.439,4.246,25.038,2,30,2s9.561,2.246,12.617,6.163C45.512,11.872,49.786,14,54.343,14
		C54.705,14,55,14.295,55,14.657V15z"/>
	<path d="M43.83,22.14l-0.73-0.156c-8.027-1.72-16.169-1.721-24.198,0L18.17,22.14h-0.001C16.912,22.41,16,23.538,16,24.823v1.432
		c0,0.833,0.371,1.61,1.019,2.134c0.648,0.524,1.481,0.723,2.302,0.55c7.75-1.66,15.608-1.66,23.36,0
		C42.873,28.98,43.066,29,43.259,29c0.622,0,1.228-0.211,1.723-0.611C45.629,27.865,46,27.088,46,26.255v-1.432
		C46,23.538,45.088,22.41,43.83,22.14z M44,26.255c0,0.309-0.173,0.495-0.276,0.579c-0.103,0.083-0.317,0.215-0.624,0.149
		c-4.015-0.86-8.057-1.291-12.1-1.291c-4.042,0-8.085,0.431-12.099,1.291c-0.306,0.065-0.521-0.066-0.625-0.149
		C18.173,26.75,18,26.563,18,26.255v-1.432c0-0.349,0.248-0.655,0.589-0.729l0.731-0.156c7.75-1.66,15.61-1.66,23.36,0l0.73,0.156
		C43.752,24.168,44,24.475,44,24.823V26.255z"/>
</g>
<g>
</g>
<g>
</g>
<g>
</g>
<g>
</g>
<g>
</g>
<g>
</g>
<g>
</g>
<g>
</g>
<g>
</g>
<g>
</g>
<g>
</g>
<g>
</g>
<g>
</g>
<g>
</g>
<g>
</g>
</svg>
