<?xml version="1.0" encoding="iso-8859-1"?>
<!-- Generator: Adobe Illustrator 18.0.0, SVG Export Plug-In . SVG Version: 6.00 Build 0)  -->
<!DOCTYPE svg PUBLIC "-//W3C//DTD SVG 1.1//EN" "http://www.w3.org/Graphics/SVG/1.1/DTD/svg11.dtd">
<svg version="1.1" id="Capa_1" xmlns="http://www.w3.org/2000/svg" xmlns:xlink="http://www.w3.org/1999/xlink" x="0px" y="0px"
	 viewBox="0 0 60 60" style="enable-background:new 0 0 60 60;" xml:space="preserve">
<g>
	<path d="M57,45v-2v-8v-2v-8v-2v-8v-2V3H31v10v2v8v2v8v2v8v2v10h26V45z M33,5h22v8H33V5z M33,15h22v8H33V15z M33,25h22v8H33V25z
		 M33,35h22v8H33V35z M55,53H33v-8h22V53z"/>
	<path d="M46,28h-4c-0.553,0-1,0.447-1,1s0.447,1,1,1h4c0.553,0,1-0.447,1-1S46.553,28,46,28z"/>
	<path d="M46,18h-4c-0.553,0-1,0.447-1,1s0.447,1,1,1h4c0.553,0,1-0.447,1-1S46.553,18,46,18z"/>
	<path d="M46,8h-4c-0.553,0-1,0.447-1,1s0.447,1,1,1h4c0.553,0,1-0.447,1-1S46.553,8,46,8z"/>
	<path d="M46,38h-4c-0.553,0-1,0.447-1,1s0.447,1,1,1h4c0.553,0,1-0.447,1-1S46.553,38,46,38z"/>
	<path d="M42,50h4c0.553,0,1-0.447,1-1s-0.447-1-1-1h-4c-0.553,0-1,0.447-1,1S41.447,50,42,50z"/>
	<path d="M0,0v60h5v-2h50v2h5V0H0z M58,58h-1v-2H3v2H2V2h56V58z"/>
	<path d="M30,38v-2V22v-2V3H3v17v2v14v2v17h27V38z M5,5h23v15H5V5z M5,22h23v14H5V22z M28,53H5V38h23V53z"/>
</g>
<g>
</g>
<g>
</g>
<g>
</g>
<g>
</g>
<g>
</g>
<g>
</g>
<g>
</g>
<g>
</g>
<g>
</g>
<g>
</g>
<g>
</g>
<g>
</g>
<g>
</g>
<g>
</g>
<g>
</g>
</svg>
