<?xml version="1.0" encoding="iso-8859-1"?>
<!-- Generator: Adobe Illustrator 18.0.0, SVG Export Plug-In . SVG Version: 6.00 Build 0)  -->
<!DOCTYPE svg PUBLIC "-//W3C//DTD SVG 1.1//EN" "http://www.w3.org/Graphics/SVG/1.1/DTD/svg11.dtd">
<svg version="1.1" id="Capa_1" xmlns="http://www.w3.org/2000/svg" xmlns:xlink="http://www.w3.org/1999/xlink" x="0px" y="0px"
	 viewBox="0 0 57 57" style="enable-background:new 0 0 57 57;" xml:space="preserve">
<g>
	<path d="M38.124,3.008c-0.544-0.068-1.048,0.319-1.116,0.868l-1,8c-0.068,0.548,0.32,1.048,0.868,1.116
		C36.918,12.997,36.96,13,37.001,13c0.497,0,0.928-0.37,0.991-0.876l1-8C39.061,3.576,38.672,3.076,38.124,3.008z"/>
	<path d="M41,3c-0.552,0-1,0.447-1,1v8c0,0.553,0.448,1,1,1s1-0.447,1-1V4C42,3.447,41.552,3,41,3z"/>
	<path d="M45.992,11.876l-1-8c-0.068-0.549-0.576-0.937-1.116-0.868c-0.548,0.068-0.937,0.568-0.868,1.116l1,8
		C44.071,12.63,44.502,13,44.999,13c0.042,0,0.083-0.003,0.125-0.008C45.672,12.924,46.061,12.424,45.992,11.876z"/>
	<path d="M47.658,22c0.344-0.722,0.435-1.545,0.24-2.35c-0.323-1.333-1.492-2.349-2.897-2.594V16h6.237L47.809,0H34.191l-3.428,16
		H37v1.057c-1.406,0.245-2.574,1.261-2.897,2.594c-0.195,0.805-0.105,1.628,0.24,2.35H0v10v2v8v2v10h3v3h9v-3h33v3h9v-3h3V44v-2v-8
		v-2V22H47.658z M33.237,14l2.572-12h10.383l2.572,12H45h-8H33.237z M36.321,21.423c-0.291-0.37-0.388-0.832-0.275-1.302
		C36.204,19.472,36.881,19,37.656,19h0.25C38.509,19,39,18.51,39,17.906V16h4v1.906C43,18.51,43.491,19,44.094,19h0.25
		c0.775,0,1.452,0.472,1.61,1.121c0.113,0.47,0.016,0.932-0.275,1.302C45.391,21.789,44.96,22,44.5,22h-7
		C37.04,22,36.609,21.789,36.321,21.423z M10,55H5v-1h5V55z M52,55h-5v-1h5V55z M55,52h-1h-9H12H3H2v-8h53V52z M55,42H2v-8h53V42z
		 M2,32v-8h35.5h7H55v8H2z"/>
	<path d="M6,49h8c0.552,0,1-0.447,1-1s-0.448-1-1-1H6c-0.552,0-1,0.447-1,1S5.448,49,6,49z"/>
	<path d="M43,49h8c0.552,0,1-0.447,1-1s-0.448-1-1-1h-8c-0.552,0-1,0.447-1,1S42.448,49,43,49z"/>
	<path d="M6,39h8c0.552,0,1-0.447,1-1s-0.448-1-1-1H6c-0.552,0-1,0.447-1,1S5.448,39,6,39z"/>
	<path d="M43,39h8c0.552,0,1-0.447,1-1s-0.448-1-1-1h-8c-0.552,0-1,0.447-1,1S42.448,39,43,39z"/>
	<path d="M14,27H6c-0.552,0-1,0.447-1,1s0.448,1,1,1h8c0.552,0,1-0.447,1-1S14.552,27,14,27z"/>
	<path d="M51,27h-8c-0.552,0-1,0.447-1,1s0.448,1,1,1h8c0.552,0,1-0.447,1-1S51.552,27,51,27z"/>
</g>
<g>
</g>
<g>
</g>
<g>
</g>
<g>
</g>
<g>
</g>
<g>
</g>
<g>
</g>
<g>
</g>
<g>
</g>
<g>
</g>
<g>
</g>
<g>
</g>
<g>
</g>
<g>
</g>
<g>
</g>
</svg>
