<?xml version="1.0" encoding="iso-8859-1"?>
<!-- Generator: Adobe Illustrator 18.0.0, SVG Export Plug-In . SVG Version: 6.00 Build 0)  -->
<!DOCTYPE svg PUBLIC "-//W3C//DTD SVG 1.1//EN" "http://www.w3.org/Graphics/SVG/1.1/DTD/svg11.dtd">
<svg version="1.1" id="Capa_1" xmlns="http://www.w3.org/2000/svg" xmlns:xlink="http://www.w3.org/1999/xlink" x="0px" y="0px"
	 viewBox="0 0 60 60" style="enable-background:new 0 0 60 60;" xml:space="preserve">
<g>
	<path d="M0,0v60h5v-2h50v2h5V0H0z M58,58h-1v-2H3v2H2V2h56V58z"/>
	<path d="M31,8h-2c-0.553,0-1,0.447-1,1s0.447,1,1,1h2c0.553,0,1-0.447,1-1S31.553,8,31,8z"/>
	<path d="M11,8H9C8.447,8,8,8.447,8,9s0.447,1,1,1h2c0.553,0,1-0.447,1-1S11.553,8,11,8z"/>
	<path d="M51,8h-2c-0.553,0-1,0.447-1,1s0.447,1,1,1h2c0.553,0,1-0.447,1-1S51.553,8,51,8z"/>
	<path d="M31,18h-2c-0.553,0-1,0.447-1,1s0.447,1,1,1h2c0.553,0,1-0.447,1-1S31.553,18,31,18z"/>
	<path d="M11,18H9c-0.553,0-1,0.447-1,1s0.447,1,1,1h2c0.553,0,1-0.447,1-1S11.553,18,11,18z"/>
	<path d="M49,20h2c0.553,0,1-0.447,1-1s-0.447-1-1-1h-2c-0.553,0-1,0.447-1,1S48.447,20,49,20z"/>
	<path d="M31,28h-2c-0.553,0-1,0.447-1,1s0.447,1,1,1h2c0.553,0,1-0.447,1-1S31.553,28,31,28z"/>
	<path d="M11,28H9c-0.553,0-1,0.447-1,1s0.447,1,1,1h2c0.553,0,1-0.447,1-1S11.553,28,11,28z"/>
	<path d="M49,30h2c0.553,0,1-0.447,1-1s-0.447-1-1-1h-2c-0.553,0-1,0.447-1,1S48.447,30,49,30z"/>
	<path d="M31,38h-2c-0.553,0-1,0.447-1,1s0.447,1,1,1h2c0.553,0,1-0.447,1-1S31.553,38,31,38z"/>
	<path d="M11,38H9c-0.553,0-1,0.447-1,1s0.447,1,1,1h2c0.553,0,1-0.447,1-1S11.553,38,11,38z"/>
	<path d="M49,40h2c0.553,0,1-0.447,1-1s-0.447-1-1-1h-2c-0.553,0-1,0.447-1,1S48.447,40,49,40z"/>
	<path d="M17,55h26h2h12V45v-2v-8v-2v-8v-2v-8v-2V3H45h-2H17h-2H3v10v2v8v2v8v2v8v2v10h12H17z M43,53H17v-8h26V53z M17,35h26v8H17
		V35z M17,25h26v8H17V25z M17,15h26v8H17V15z M55,53H45v-8h10V53z M55,43H45v-8h10V43z M55,33H45v-8h10V33z M55,23H45v-8h10V23z
		 M45,5h10v8H45V5z M17,5h26v8H17V5z M5,5h10v8H5V5z M5,15h10v8H5V15z M5,25h10v8H5V25z M5,35h10v8H5V35z M5,53v-8h10v8H5z"/>
	<path d="M29,50h2c0.553,0,1-0.447,1-1s-0.447-1-1-1h-2c-0.553,0-1,0.447-1,1S28.447,50,29,50z"/>
	<path d="M11,48H9c-0.553,0-1,0.447-1,1s0.447,1,1,1h2c0.553,0,1-0.447,1-1S11.553,48,11,48z"/>
	<path d="M49,50h2c0.553,0,1-0.447,1-1s-0.447-1-1-1h-2c-0.553,0-1,0.447-1,1S48.447,50,49,50z"/>
</g>
<g>
</g>
<g>
</g>
<g>
</g>
<g>
</g>
<g>
</g>
<g>
</g>
<g>
</g>
<g>
</g>
<g>
</g>
<g>
</g>
<g>
</g>
<g>
</g>
<g>
</g>
<g>
</g>
<g>
</g>
</svg>
