<?xml version="1.0" encoding="iso-8859-1"?>
<!-- Generator: Adobe Illustrator 18.0.0, SVG Export Plug-In . SVG Version: 6.00 Build 0)  -->
<!DOCTYPE svg PUBLIC "-//W3C//DTD SVG 1.1//EN" "http://www.w3.org/Graphics/SVG/1.1/DTD/svg11.dtd">
<svg version="1.1" id="Capa_1" xmlns="http://www.w3.org/2000/svg" xmlns:xlink="http://www.w3.org/1999/xlink" x="0px" y="0px"
	 viewBox="0 0 60 60" style="enable-background:new 0 0 60 60;" xml:space="preserve">
<g>
	<path d="M48.687,0H11.313C8.384,0,6,2.384,6,5.313V56h2v4h4.618l2-4h32.764l2,4H54v-4v-2V5.313C54,2.384,51.617,0,48.687,0z
		 M11.382,58H10v-2h2.382L11.382,58z M52,58h-1.382l-1-2H52V58z M46.382,54H15.618H8V5.313C8,3.486,9.486,2,11.313,2h37.374
		C50.514,2,52,3.486,52,5.313V54H46.382z"/>
	<path d="M25,32c0.552,0,1-0.447,1-1v-5c0-0.553-0.448-1-1-1s-1,0.447-1,1v5C24,31.553,24.448,32,25,32z"/>
	<path d="M47.549,3H31h-2H12.451C10.548,3,9,4.548,9,6.451V53h20h2h20V6.451C51,4.548,49.452,3,47.549,3z M29,51H11V6.451
		C11,5.651,11.651,5,12.451,5H29V51z M49,51H31V5h16.549C48.349,5,49,5.651,49,6.451V51z"/>
	<path d="M35,25c-0.552,0-1,0.447-1,1v5c0,0.553,0.448,1,1,1s1-0.447,1-1v-5C36,25.447,35.552,25,35,25z"/>
</g>
<g>
</g>
<g>
</g>
<g>
</g>
<g>
</g>
<g>
</g>
<g>
</g>
<g>
</g>
<g>
</g>
<g>
</g>
<g>
</g>
<g>
</g>
<g>
</g>
<g>
</g>
<g>
</g>
<g>
</g>
</svg>
