<?xml version="1.0" encoding="iso-8859-1"?>
<!-- Generator: Adobe Illustrator 18.0.0, SVG Export Plug-In . SVG Version: 6.00 Build 0)  -->
<!DOCTYPE svg PUBLIC "-//W3C//DTD SVG 1.1//EN" "http://www.w3.org/Graphics/SVG/1.1/DTD/svg11.dtd">
<svg version="1.1" id="Capa_1" xmlns="http://www.w3.org/2000/svg" xmlns:xlink="http://www.w3.org/1999/xlink" x="0px" y="0px"
	 viewBox="0 0 60 60" style="enable-background:new 0 0 60 60;" xml:space="preserve">
<g>
	<path d="M17.5,21h24V4h-24V21z M19.5,6h20v13h-20V6z"/>
	<path d="M55.5,44c0.552,0,1-0.447,1-1V21.028c1.25-1.66,2-3.716,2-5.948V5.247C58.5,2.354,56.146,0,53.253,0H6.747
		C3.854,0,1.5,2.354,1.5,5.247v9.832c0,3.25,1.578,6.131,4,7.941v29.018c-2.235,0.198-4,2.059-4,4.345V60h57v-3.616
		c0-2.417-1.967-4.384-4.384-4.384H53.5V23.682c0.348-0.2,0.68-0.422,1-0.661V43C54.5,43.553,54.948,44,55.5,44z M54.116,54
		c1.314,0,2.384,1.069,2.384,2.384V58h-53v-1.616C3.5,55.069,4.569,54,5.884,54h20.137h6.958H53.5H54.116z M22.5,48.479V41h14v7.479
		C36.5,50.42,34.92,52,32.979,52h-6.958C24.08,52,22.5,50.42,22.5,48.479z M51.5,52H37.228c0.794-0.957,1.272-2.184,1.272-3.521V39
		h-16h-2h-3c-2.757,0-5,2.243-5,5s2.243,5,5,5h3.026c0.107,1.134,0.556,2.169,1.246,3H7.5V24.191
		c0.008,0.003,0.017,0.006,0.025,0.009c0.236,0.101,0.479,0.187,0.724,0.27c0.069,0.023,0.135,0.053,0.204,0.075
		c0.295,0.093,0.597,0.17,0.904,0.235c0.02,0.004,0.039,0.011,0.058,0.015C10.063,24.929,10.734,25,11.421,25H21.5v7
		c0,2.206,1.794,4,4,4h1v1c0,0.553,0.448,1,1,1s1-0.447,1-1v-1h2v1c0,0.553,0.448,1,1,1s1-0.447,1-1v-1h1
		c1.858,0,3.411-1.28,3.858-3H44.5c1.654,0,3-1.346,3-3s-1.346-3-3-3h-7v-2h11.079c0.452,0,0.893-0.041,1.329-0.1
		c0.102-0.014,0.203-0.03,0.304-0.047c0.439-0.073,0.871-0.165,1.289-0.294V52z M17.5,47c-1.654,0-3-1.346-3-3s1.346-3,3-3h3v6H17.5
		z M33.807,31c-0.169,0-0.307-0.138-0.307-0.307v-1.387c0-0.169,0.138-0.307,0.307-0.307H37.5h7c0.551,0,1,0.448,1,1s-0.449,1-1,1
		h-7H33.807z M35.5,27h-1.693c-1.272,0-2.307,1.035-2.307,2.307v1.387c0,1.271,1.035,2.307,2.307,2.307h1.425
		c-0.346,0.598-0.993,1-1.731,1h-8c-1.103,0-2-0.897-2-2v-7h12V27z M52.352,22.042l-0.014,0.007
		c-0.103,0.056-0.213,0.102-0.319,0.154c-0.243,0.117-0.49,0.221-0.739,0.313c-0.036,0.013-0.072,0.027-0.108,0.04
		c-0.23,0.081-0.463,0.147-0.698,0.206c-0.057,0.014-0.112,0.031-0.169,0.044c-0.221,0.05-0.444,0.086-0.668,0.116
		c-0.066,0.009-0.13,0.023-0.196,0.03C49.157,22.982,48.869,23,48.579,23H37.5h-16H11.421c-0.349,0-0.694-0.031-1.036-0.076
		c-0.088-0.011-0.175-0.026-0.262-0.04c-0.302-0.05-0.601-0.115-0.894-0.199c-0.038-0.011-0.078-0.018-0.116-0.03
		c-0.325-0.099-0.642-0.224-0.953-0.365c-0.074-0.033-0.146-0.07-0.218-0.105c-0.278-0.136-0.55-0.287-0.812-0.457
		C4.95,20.315,3.5,17.865,3.5,15.079V5.247C3.5,3.457,4.957,2,6.747,2h46.506C55.043,2,56.5,3.457,56.5,5.247v9.832
		C56.5,18.081,54.821,20.699,52.352,22.042z"/>
	<path d="M48.5,3c-2.757,0-5,2.243-5,5s2.243,5,5,5s5-2.243,5-5S51.257,3,48.5,3z M48.5,11c-1.654,0-3-1.346-3-3s1.346-3,3-3
		s3,1.346,3,3S50.154,11,48.5,11z"/>
	<path d="M48.5,14c-2.206,0-4,1.794-4,4s1.794,4,4,4s4-1.794,4-4S50.706,14,48.5,14z M48.5,20c-1.103,0-2-0.897-2-2s0.897-2,2-2
		s2,0.897,2,2S49.603,20,48.5,20z"/>
	<path d="M7.5,11h8V4h-8V11z M9.5,6h4v3h-4V6z"/>
	<path d="M7.5,21h8v-7h-8V21z M9.5,16h4v3h-4V16z"/>
	<path d="M21.5,11c0.256,0,0.512-0.098,0.707-0.293l2-2c0.391-0.391,0.391-1.023,0-1.414s-1.023-0.391-1.414,0l-2,2
		c-0.391,0.391-0.391,1.023,0,1.414C20.988,10.902,21.244,11,21.5,11z"/>
	<path d="M27.793,7.293l-7,7c-0.391,0.391-0.391,1.023,0,1.414C20.988,15.902,21.244,16,21.5,16s0.512-0.098,0.707-0.293l7-7
		c0.391-0.391,0.391-1.023,0-1.414S28.184,6.902,27.793,7.293z"/>
</g>
<g>
</g>
<g>
</g>
<g>
</g>
<g>
</g>
<g>
</g>
<g>
</g>
<g>
</g>
<g>
</g>
<g>
</g>
<g>
</g>
<g>
</g>
<g>
</g>
<g>
</g>
<g>
</g>
<g>
</g>
</svg>
