<?xml version="1.0" encoding="iso-8859-1"?>
<!-- Generator: Adobe Illustrator 18.0.0, SVG Export Plug-In . SVG Version: 6.00 Build 0)  -->
<!DOCTYPE svg PUBLIC "-//W3C//DTD SVG 1.1//EN" "http://www.w3.org/Graphics/SVG/1.1/DTD/svg11.dtd">
<svg version="1.1" id="Capa_1" xmlns="http://www.w3.org/2000/svg" xmlns:xlink="http://www.w3.org/1999/xlink" x="0px" y="0px"
	 viewBox="0 0 60 60" style="enable-background:new 0 0 60 60;" xml:space="preserve">
<g>
	<path d="M51,21C51,9.421,41.579,0,30,0S9,9.421,9,21c0,10.558,7.841,19.297,18,20.76V44h-1c-0.553,0-1,0.447-1,1v6
		c0,0.553,0.447,1,1,1h1v3h-5c-0.553,0-1,0.447-1,1v2h-2c-0.553,0-1,0.447-1,1s0.447,1,1,1h3h16h3c0.553,0,1-0.447,1-1s-0.447-1-1-1
		h-2v-2c0-0.553-0.447-1-1-1h-5v-3h1c0.553,0,1-0.447,1-1v-6c0-0.553-0.447-1-1-1h-1v-2.24C43.159,40.297,51,31.558,51,21z M11,21
		c0-10.477,8.523-19,19-19s19,8.523,19,19s-8.523,19-19,19S11,31.477,11,21z M37,58H23v-1h5h4h5V58z M31,55h-2v-3h2V55z M33,50h-1
		h-4h-1v-4h1h4h1V50z M31,42v2h-2v-2H31z"/>
	<path d="M23.594,27.619c0.867-0.119,1.821-0.249,2.609-0.748c0.913,0.592,1.968,0.981,3.106,1.093
		c0.196,4.401,1.434,7.415,3.627,8.711c0.638,0.376,1.509,0.696,2.642,0.696c1.136,0,2.534-0.322,4.222-1.23
		c5.135-3.332,8.2-8.966,8.201-15.072c0-0.419-0.261-0.793-0.653-0.938c-0.394-0.142-0.835-0.029-1.107,0.289
		c-2.99,3.501-4.596,4.223-5.354,4.208c-0.663-0.011-1.159-0.57-1.898-1.491c-0.551-0.687-1.159-1.442-2-1.858
		C36.99,21.186,37,21.094,37,21c0-1.09-0.258-2.118-0.704-3.039c3.594-2.413,5.499-4.999,5.48-7.518
		c-0.012-1.475-0.693-3.633-3.879-5.543c-0.024-0.015-0.049-0.027-0.073-0.04c-4.132-2.03-8.816-2.414-13.194-1.074
		c-1.347,0.411-2.686,1.012-3.979,1.785c-0.359,0.216-0.547,0.632-0.469,1.044c0.077,0.412,0.403,0.731,0.817,0.801
		c4.534,0.761,5.96,1.736,6.357,2.422c0.332,0.573,0.108,1.287-0.3,2.394c-0.31,0.839-0.647,1.764-0.556,2.716
		c-0.82,0.476-1.532,1.113-2.098,1.868c-3.855-2.079-7.062-2.564-9.294-1.358c-1.303,0.705-2.894,2.327-3.079,6.143
		c0.201,6.106,3.451,11.642,8.692,14.805c0.159,0.096,0.338,0.144,0.517,0.144c0.223,0,0.443-0.074,0.625-0.22
		c0.327-0.262,0.456-0.7,0.323-1.098c-1.459-4.362-1.266-6.079-0.848-6.752C21.689,27.915,22.424,27.777,23.594,27.619z
		 M40.854,26.627c0.018,0.001,0.034,0.001,0.052,0.001c1.386,0,2.93-0.861,4.845-2.735c-0.768,4.305-3.269,8.125-6.968,10.529
		c-1.369,0.735-3.316,1.426-4.83,0.531c-1.559-0.92-2.491-3.396-2.658-7.016c0.817-0.152,1.608-0.451,2.325-0.882
		c1.393-0.837,2.435-2.116,2.977-3.619c0.276,0.261,0.55,0.602,0.831,0.952C38.218,25.375,39.202,26.602,40.854,26.627z
		 M28.544,14.131c0.081-0.372,0.232-0.783,0.389-1.207c0.438-1.186,0.982-2.661,0.153-4.09c-0.702-1.211-2.243-2.104-4.872-2.79
		c0.333-0.128,0.667-0.243,1-0.346c3.877-1.185,8.026-0.852,11.69,0.938c1.312,0.793,2.858,2.094,2.872,3.822
		c0.014,1.796-1.605,3.855-4.582,5.851c-0.047-0.052-0.099-0.097-0.147-0.147c-0.07-0.073-0.141-0.144-0.214-0.214
		c-0.081-0.077-0.164-0.153-0.249-0.226c-0.099-0.086-0.2-0.168-0.304-0.249c-0.063-0.049-0.126-0.097-0.191-0.143
		c-0.134-0.097-0.272-0.189-0.413-0.276c-0.039-0.024-0.078-0.048-0.118-0.072c-0.168-0.1-0.339-0.191-0.516-0.277
		c-0.019-0.009-0.038-0.019-0.057-0.028c-0.192-0.091-0.388-0.173-0.589-0.247c-0.009-0.003-0.018-0.007-0.026-0.01
		c-0.205-0.074-0.414-0.138-0.627-0.193c-0.009-0.002-0.018-0.005-0.027-0.007c-0.209-0.053-0.421-0.096-0.636-0.13
		c-0.016-0.002-0.031-0.005-0.047-0.007c-0.211-0.031-0.425-0.053-0.642-0.065c-0.007,0-0.015-0.002-0.022-0.002
		c-0.102-0.007-0.203-0.013-0.279-0.015c-0.005,0-0.017,0-0.03,0c0,0-0.001,0-0.001,0C30.039,14.003,30.02,14,30,14
		c-0.049,0-0.097,0.006-0.146,0.007C29.414,14.007,28.97,14.05,28.544,14.131z M29.86,16.014c0.05-0.001,0.091-0.012,0.142-0.012
		c0.005,0,0.011,0,0.017,0c0.296,0.001,0.583,0.037,0.865,0.087c0.108,0.02,0.213,0.047,0.319,0.073
		c0.189,0.047,0.374,0.104,0.554,0.173c0.118,0.044,0.233,0.092,0.347,0.145c0.19,0.089,0.374,0.188,0.55,0.299
		c0.071,0.044,0.143,0.088,0.212,0.135c0.218,0.154,0.425,0.323,0.616,0.508c0.038,0.036,0.073,0.075,0.11,0.113
		C34.459,18.436,35,19.654,35,21c0,2.757-2.243,5-5,5c-1.357,0-2.585-0.547-3.487-1.428c-0.021-0.021-0.044-0.039-0.065-0.061
		c-0.198-0.201-0.376-0.421-0.539-0.652c-0.029-0.041-0.058-0.082-0.085-0.123c-0.152-0.232-0.286-0.477-0.398-0.733
		c-0.019-0.043-0.039-0.094-0.058-0.142c-0.105-0.261-0.193-0.532-0.253-0.813c-0.008-0.04-0.014-0.083-0.021-0.123
		C25.037,21.624,25,21.317,25,21c0-0.306,0.037-0.602,0.09-0.893c0.012-0.066,0.023-0.133,0.038-0.199
		c0.063-0.281,0.146-0.555,0.254-0.817c0.015-0.037,0.035-0.072,0.051-0.108C26.192,17.271,27.883,16.07,29.86,16.014z
		 M19.641,27.422c-0.738,1.187-0.805,2.961-0.18,5.596c-3.3-2.886-5.285-6.999-5.434-11.401c0.076-1.547,0.491-3.566,2.032-4.399
		c0.519-0.28,1.144-0.419,1.861-0.419c1.488,0,3.374,0.596,5.526,1.758l-0.005,0.012c-0.008,0.021-0.013,0.042-0.02,0.063
		c-0.055,0.152-0.107,0.306-0.151,0.463c-0.002,0.008-0.006,0.017-0.008,0.025c-0.024,0.086-0.046,0.173-0.065,0.255
		c-0.003,0.011-0.005,0.023-0.007,0.033c-0.037,0.158-0.067,0.318-0.093,0.48c-0.007,0.043-0.014,0.077-0.021,0.125l-0.024,0.169
		c0,0,0,0.005,0,0.007C23.02,20.454,23,20.725,23,21c0,0.257,0.016,0.51,0.043,0.76c0.007,0.063,0.016,0.126,0.034,0.234
		c0.005,0.032,0.012,0.063,0.016,0.094c0.021,0.132,0.04,0.265,0.068,0.394c0.001,0.005,0.001,0.01,0.002,0.014
		c0.016,0.069,0.033,0.138,0.066,0.261c0.006,0.022,0.013,0.042,0.018,0.064c0.033,0.121,0.065,0.242,0.104,0.361
		c0.002,0.007,0.004,0.015,0.006,0.022c0.026,0.082,0.057,0.161,0.098,0.27c0.008,0.021,0.018,0.043,0.026,0.064
		c0.04,0.103,0.081,0.205,0.126,0.306c0.009,0.021,0.016,0.04,0.025,0.061l0.114,0.236c0.01,0.021,0.023,0.041,0.033,0.061
		c0.048,0.094,0.099,0.185,0.152,0.276c0.015,0.026,0.027,0.052,0.042,0.078l0.127,0.208c0.01,0.015,0.023,0.032,0.033,0.047
		c0.062,0.096,0.129,0.188,0.196,0.28c0.029,0.04,0.049,0.072,0.081,0.116l0.104,0.139c0.019,0.022,0.036,0.045,0.055,0.067
		c-0.366,0.104-0.801,0.163-1.249,0.224C22.071,25.808,20.513,26.02,19.641,27.422z"/>
</g>
<g>
</g>
<g>
</g>
<g>
</g>
<g>
</g>
<g>
</g>
<g>
</g>
<g>
</g>
<g>
</g>
<g>
</g>
<g>
</g>
<g>
</g>
<g>
</g>
<g>
</g>
<g>
</g>
<g>
</g>
</svg>
