<?xml version="1.0" encoding="iso-8859-1"?>
<!-- Generator: Adobe Illustrator 18.0.0, SVG Export Plug-In . SVG Version: 6.00 Build 0)  -->
<!DOCTYPE svg PUBLIC "-//W3C//DTD SVG 1.1//EN" "http://www.w3.org/Graphics/SVG/1.1/DTD/svg11.dtd">
<svg version="1.1" id="Capa_1" xmlns="http://www.w3.org/2000/svg" xmlns:xlink="http://www.w3.org/1999/xlink" x="0px" y="0px"
	 viewBox="0 0 60 60" style="enable-background:new 0 0 60 60;" xml:space="preserve">
<g>
	<path d="M60,26c0-1.474-0.81-2.75-2-3.444V16.71c0-3.149-2.562-5.71-5.711-5.71H7.711C4.562,11,2,13.562,2,16.71v5.846
		C0.81,23.25,0,24.526,0,26v20h1v3h6v-3h1h44h1v3h6v-3h1V26z M8,33v-3h44v3H8z M54,35v-2v-5v-2c0-1.103,0.897-2,2-2
		c0.112,0,0.221,0.015,0.328,0.033c0.109,0.021,0.221,0.052,0.338,0.093l0.157,0.056C57.515,24.497,58,25.191,58,26v18h-4V35z
		 M4,16.71C4,14.665,5.665,13,7.711,13h44.578C54.335,13,56,14.665,56,16.71V22c-2.206,0-4,1.794-4,4v2H8v-2c0-2.206-1.794-4-4-4
		V16.71z M2,26c0-0.809,0.485-1.503,1.177-1.818l0.157-0.056c0.117-0.042,0.23-0.072,0.338-0.093C3.779,24.015,3.888,24,4,24
		c1.103,0,2,0.897,2,2v2v5v2v9H2V26z M5,47H3v-1h2V47z M47,44c0-0.552-0.448-1-1-1s-1,0.448-1,1h-4c0-0.552-0.448-1-1-1
		s-1,0.448-1,1h-4c0-0.552-0.448-1-1-1s-1,0.448-1,1h-4c0-0.552-0.448-1-1-1s-1,0.448-1,1h-4c0-0.552-0.448-1-1-1s-1,0.448-1,1h-4
		c0-0.552-0.448-1-1-1s-1,0.448-1,1h-4c0-0.552-0.448-1-1-1s-1,0.448-1,1H8v-9h4c0,0.552,0.448,1,1,1s1-0.448,1-1h4
		c0,0.552,0.448,1,1,1s1-0.448,1-1h4c0,0.552,0.448,1,1,1s1-0.448,1-1h4c0,0.552,0.448,1,1,1s1-0.448,1-1h4c0,0.552,0.448,1,1,1
		s1-0.448,1-1h4c0,0.552,0.448,1,1,1s1-0.448,1-1h4c0,0.552,0.448,1,1,1s1-0.448,1-1h2v2c-0.552,0-1,0.448-1,1c0,0.552,0.448,1,1,1
		v4c-0.552,0-1,0.448-1,1H47z M57,47h-2v-1h2V47z"/>
	<circle cx="10" cy="38" r="1"/>
	<circle cx="13" cy="41" r="1"/>
	<circle cx="19" cy="41" r="1"/>
	<circle cx="16" cy="38" r="1"/>
	<circle cx="22" cy="38" r="1"/>
	<circle cx="25" cy="41" r="1"/>
	<circle cx="31" cy="41" r="1"/>
	<circle cx="28" cy="38" r="1"/>
	<circle cx="34" cy="38" r="1"/>
	<circle cx="37" cy="41" r="1"/>
	<circle cx="43" cy="41" r="1"/>
	<circle cx="40" cy="38" r="1"/>
	<circle cx="46" cy="38" r="1"/>
	<circle cx="49" cy="41" r="1"/>
	<circle cx="12" cy="19" r="1"/>
	<circle cx="18" cy="19" r="1"/>
	<circle cx="24" cy="19" r="1"/>
	<circle cx="30" cy="19" r="1"/>
	<circle cx="36" cy="19" r="1"/>
	<circle cx="42" cy="19" r="1"/>
	<circle cx="48" cy="19" r="1"/>
	<circle cx="15" cy="23" r="1"/>
	<circle cx="21" cy="23" r="1"/>
	<circle cx="27" cy="23" r="1"/>
	<circle cx="33" cy="23" r="1"/>
	<circle cx="39" cy="23" r="1"/>
	<circle cx="45" cy="23" r="1"/>
</g>
<g>
</g>
<g>
</g>
<g>
</g>
<g>
</g>
<g>
</g>
<g>
</g>
<g>
</g>
<g>
</g>
<g>
</g>
<g>
</g>
<g>
</g>
<g>
</g>
<g>
</g>
<g>
</g>
<g>
</g>
</svg>
