<?xml version="1.0" encoding="iso-8859-1"?>
<!-- Generator: Adobe Illustrator 18.0.0, SVG Export Plug-In . SVG Version: 6.00 Build 0)  -->
<!DOCTYPE svg PUBLIC "-//W3C//DTD SVG 1.1//EN" "http://www.w3.org/Graphics/SVG/1.1/DTD/svg11.dtd">
<svg version="1.1" id="Capa_1" xmlns="http://www.w3.org/2000/svg" xmlns:xlink="http://www.w3.org/1999/xlink" x="0px" y="0px"
	 viewBox="0 0 60 60" style="enable-background:new 0 0 60 60;" xml:space="preserve">
<g>
	<path d="M60,33.959v-7.965c0-6.181-6.035-9.227-9.227-9.974c-3.25-0.761-6.934-1.624-10.276-3.369
		c-6.756-3.527-14.238-3.527-20.994,0c-3.343,1.745-7.026,2.607-10.276,3.369C6.035,16.767,0,19.813,0,25.994l0,0.999c0,0,0,0,0,0
		s0,0.001,0,0.001l0.001,6.937c0,0.023,0,0.045,0,0.068l0.001,4.061c0.223,3.336,2.66,6.046,5.815,6.75L5.02,48.798
		c-0.059,0.294,0.018,0.599,0.207,0.83C5.417,49.86,5.7,49.994,6,49.994h2c0.266,0,0.52-0.105,0.707-0.293l4.707-4.707h33.172
		l4.707,4.707c0.188,0.188,0.441,0.293,0.707,0.293h2c0.3,0,0.583-0.134,0.773-0.366c0.189-0.231,0.266-0.536,0.207-0.83
		l-0.798-3.988c3.155-0.705,5.593-3.422,5.817-6.816v-4.015C60,33.972,60,33.965,60,33.959z M46.5,35.761
		c-0.151,0.242-0.29,0.486-0.405,0.731c-0.01,0.021-0.013,0.039-0.023,0.06c-0.068,0.149-0.129,0.297-0.172,0.441H14.102
		c-0.051-0.164-0.116-0.331-0.196-0.501c-0.115-0.244-0.253-0.487-0.404-0.728c-0.016-0.025-0.034-0.05-0.051-0.075
		c-0.15-0.234-0.317-0.466-0.497-0.695h34.092c-0.182,0.232-0.351,0.466-0.502,0.703C46.529,35.719,46.513,35.74,46.5,35.761z
		 M3.644,31.994c1.735,0,4.086,1.052,5.917,2.468l0.358,0.299c0.753,0.63,1.368,1.292,1.793,1.922
		c0.013,0.019,0.027,0.039,0.04,0.058c0.129,0.196,0.24,0.389,0.329,0.577c0.004,0.008,0.01,0.017,0.014,0.025
		c0.014,0.029,0.02,0.049,0.031,0.075c0.099,0.235,0.105,0.354,0.102,0.388c-0.885,0.824-7.689-0.711-9.554-2.171
		c-0.479-0.375-0.744-1.193-0.658-2.036c0.07-0.692,0.374-1.251,0.791-1.458c0.135-0.067,0.263-0.107,0.448-0.127
		C3.381,32,3.51,31.994,3.644,31.994z M47.774,37.829l-0.002-0.009c-0.001-0.011-0.012-0.091,0.047-0.266
		c0.021-0.06,0.048-0.129,0.086-0.211c0.092-0.196,0.209-0.398,0.345-0.604c0.011-0.018,0.025-0.036,0.036-0.053
		c0.425-0.63,1.041-1.294,1.795-1.924l0.327-0.274C52.247,33.061,54.625,32,56.406,32c0.139,0,0.274,0.007,0.406,0.02
		c0.118,0.013,0.246,0.053,0.381,0.12c0.417,0.208,0.721,0.767,0.791,1.459c0.086,0.843-0.179,1.661-0.658,2.036
		C55.452,37.102,48.586,38.648,47.774,37.829z M2,25.994c0-2.073,1.5-6.266,7.031-7.846c0.077,0.476,0.471,0.846,0.969,0.846
		c0.552,0,1-0.448,1-1c0-0.114-0.03-0.22-0.065-0.322c2.31-0.551,4.779-1.203,7.205-2.197c0.171,0.305,0.485,0.519,0.86,0.519
		c0.552,0,1-0.448,1-1c0-0.117-0.03-0.225-0.066-0.329c0.165-0.082,0.331-0.155,0.495-0.241c2.152-1.123,4.369-1.852,6.619-2.196
		c0.108,0.436,0.483,0.766,0.953,0.766c0.541,0,0.976-0.432,0.994-0.968c0.335-0.017,0.67-0.032,1.006-0.032
		c1.022,0,2.039,0.09,3.05,0.25c0.113,0.428,0.486,0.75,0.95,0.75c0.325,0,0.6-0.165,0.782-0.405
		c1.622,0.406,3.223,1.017,4.789,1.835c0.882,0.46,1.779,0.861,2.68,1.216c0.183,0.212,0.446,0.354,0.748,0.354
		c0.048,0,0.09-0.021,0.136-0.027c2.456,0.887,4.92,1.471,7.182,2.001c0.25,0.059,0.481,0.13,0.716,0.198
		c0.084,0.467,0.474,0.828,0.965,0.828c0.246,0,0.463-0.099,0.638-0.246c0.833,0.373,1.555,0.807,2.164,1.286
		C54.348,20.128,54,20.512,54,20.994c0,0.552,0.448,1,1,1c0.502,0,0.901-0.377,0.972-0.86c0.613,0.692,1.055,1.417,1.372,2.118
		C57.137,23.436,57,23.696,57,23.994c0,0.515,0.395,0.924,0.895,0.979C57.965,25.347,58,25.694,58,25.994l0,3l0,0
		c-0.552,0-1,0.448-1,1c0,0.014,0.008,0.026,0.008,0.041c-0.022-0.003-0.04-0.01-0.062-0.012c-2.11-0.217-4.87,0.82-7.139,2.413
		c-0.181-0.26-0.467-0.442-0.807-0.442c-0.552,0-1,0.448-1,1h-4c0-0.552-0.448-1-1-1s-1,0.448-1,1h-4c0-0.552-0.448-1-1-1
		s-1,0.448-1,1h-4c0-0.552-0.448-1-1-1s-1,0.448-1,1h-4c0-0.552-0.448-1-1-1s-1,0.448-1,1h-4c0-0.552-0.448-1-1-1s-1,0.448-1,1h-4
		c0-0.552-0.448-1-1-1s-1,0.448-1,1h-1.068c-1.771-1.407-3.965-2.483-5.962-2.849C4.978,30.094,5,30.047,5,29.994
		c0-0.552-0.448-1-1-1s-1,0.448-1,1c0,0.013,0.007,0.023,0.007,0.036c-0.012,0.001-0.025,0-0.037,0.001
		C2.646,30.067,2.32,30.167,2,30.316V25.994z M7.586,47.994H7.22l0.6-3h2.767L7.586,47.994z M52.414,47.994l-3-3h2.767l0.6,3H52.414
		z M52.567,42.994H47H13H7.433c-2.858,0-5.245-2.226-5.433-5v-0.425c1.785,1.011,5.971,2.438,8.933,2.438
		c1.07,0,1.98-0.187,2.558-0.646c0.101-0.08,0.23-0.203,0.353-0.367h32.314c0.123,0.164,0.252,0.286,0.353,0.367
		c0.577,0.46,1.487,0.646,2.558,0.646c2.963,0,7.151-1.428,8.935-2.439v0.359C57.813,40.768,55.426,42.994,52.567,42.994z"/>
	<circle cx="16" cy="17.994" r="1"/>
	<circle cx="22" cy="17.994" r="1"/>
	<circle cx="25" cy="14.994" r="1"/>
	<circle cx="31" cy="14.994" r="1"/>
	<circle cx="28" cy="17.994" r="1"/>
	<circle cx="34" cy="17.994" r="1"/>
	<circle cx="37" cy="14.994" r="1"/>
	<circle cx="40" cy="17.994" r="1"/>
	<circle cx="46" cy="17.994" r="1"/>
	<circle cx="7" cy="20.994" r="1"/>
	<circle cx="7" cy="26.994" r="1"/>
	<circle cx="4" cy="23.994" r="1"/>
	<circle cx="10" cy="23.994" r="1"/>
	<circle cx="10" cy="29.994" r="1"/>
	<circle cx="13" cy="20.994" r="1"/>
	<circle cx="19" cy="20.994" r="1"/>
	<circle cx="13" cy="26.994" r="1"/>
	<circle cx="19" cy="26.994" r="1"/>
	<circle cx="16" cy="23.994" r="1"/>
	<circle cx="22" cy="23.994" r="1"/>
	<circle cx="16" cy="29.994" r="1"/>
	<circle cx="22" cy="29.994" r="1"/>
	<circle cx="25" cy="20.994" r="1"/>
	<circle cx="31" cy="20.994" r="1"/>
	<circle cx="25" cy="26.994" r="1"/>
	<circle cx="31" cy="26.994" r="1"/>
	<circle cx="28" cy="23.994" r="1"/>
	<circle cx="34" cy="23.994" r="1"/>
	<circle cx="28" cy="29.994" r="1"/>
	<circle cx="34" cy="29.994" r="1"/>
	<circle cx="37" cy="20.994" r="1"/>
	<circle cx="43" cy="20.994" r="1"/>
	<circle cx="37" cy="26.994" r="1"/>
	<circle cx="43" cy="26.994" r="1"/>
	<circle cx="40" cy="23.994" r="1"/>
	<circle cx="46" cy="23.994" r="1"/>
	<circle cx="40" cy="29.994" r="1"/>
	<circle cx="46" cy="29.994" r="1"/>
	<circle cx="49" cy="20.994" r="1"/>
	<circle cx="49" cy="26.994" r="1"/>
	<circle cx="55" cy="26.994" r="1"/>
	<circle cx="52" cy="23.994" r="1"/>
	<circle cx="52" cy="29.994" r="1"/>
</g>
<g>
</g>
<g>
</g>
<g>
</g>
<g>
</g>
<g>
</g>
<g>
</g>
<g>
</g>
<g>
</g>
<g>
</g>
<g>
</g>
<g>
</g>
<g>
</g>
<g>
</g>
<g>
</g>
<g>
</g>
</svg>
