<?xml version="1.0" encoding="iso-8859-1"?>
<!-- Generator: Adobe Illustrator 18.0.0, SVG Export Plug-In . SVG Version: 6.00 Build 0)  -->
<!DOCTYPE svg PUBLIC "-//W3C//DTD SVG 1.1//EN" "http://www.w3.org/Graphics/SVG/1.1/DTD/svg11.dtd">
<svg version="1.1" id="Capa_1" xmlns="http://www.w3.org/2000/svg" xmlns:xlink="http://www.w3.org/1999/xlink" x="0px" y="0px"
	 viewBox="0 0 60 60" style="enable-background:new 0 0 60 60;" xml:space="preserve">
<path d="M60,35.568c0-0.426-0.114-0.821-0.298-1.175c-0.431-1.505-1.338-2.826-2.576-3.784c0.651-0.835,0.973-2.003,0.848-3.23
	c-0.143-1.391-0.85-2.53-1.893-3.048c-0.223-0.111-0.461-0.185-0.712-0.243c-2.36-3.726-6.457-6.04-10.838-6.086
	c-2.093-4.744-7.785-8-14.136-8c-6.35,0-12.043,3.257-14.137,8c-4.345,0.047-8.411,2.322-10.779,5.993
	c-0.172,0.003-0.346,0.004-0.511,0.021c-0.354,0.039-0.707,0.146-1.051,0.316c-1.043,0.518-1.75,1.657-1.893,3.048
	c-0.125,1.227,0.197,2.395,0.848,3.23c-1.237,0.958-2.145,2.28-2.576,3.784C0.114,34.747,0,35.142,0,35.568
	c0,3.608,2.585,6.621,6,7.291V46c0,0.552,0.447,1,1,1h1v3h4.535l2-3h31.93l2,3H53v-3c0.553,0,1-0.448,1-1v-3.142
	C57.415,42.189,60,39.176,60,35.568z M52.567,35H7.433c-1.496,0-2.892-0.6-3.931-1.69C3.41,33.213,3.3,33.137,3.18,33.084
	c0.383-0.478,0.85-0.893,1.382-1.223c1.02,0.497,2.579,1.071,4.221,1.499c0.008,0.002,0.016,0.004,0.024,0.006
	c0.198,0.052,0.397,0.1,0.597,0.147c0.058,0.014,0.117,0.027,0.175,0.041c0.17,0.038,0.339,0.074,0.509,0.108
	c0.077,0.016,0.154,0.031,0.231,0.046c0.164,0.031,0.327,0.06,0.489,0.086c0.073,0.012,0.145,0.023,0.217,0.034
	c0.173,0.026,0.344,0.049,0.514,0.07c0.053,0.006,0.105,0.012,0.157,0.018c0.187,0.02,0.371,0.036,0.552,0.049
	c0.031,0.002,0.061,0.004,0.091,0.005c0.197,0.012,0.39,0.018,0.578,0.018c0.005,0,0.01,0,0.015,0c0.005,0,0.01-0.001,0.016-0.001
	c0.255,0,0.499-0.012,0.732-0.035c0.012-0.001,0.024-0.002,0.036-0.003c0.238-0.025,0.465-0.06,0.675-0.111
	c0.002-0.001,0.005-0.001,0.007-0.001c0.204-0.05,0.397-0.11,0.569-0.188c0.003-0.001,0.005-0.004,0.009-0.005
	c0.191-0.084,0.365-0.183,0.515-0.302c0.096-0.077,0.219-0.19,0.337-0.343h28.346c0.118,0.153,0.241,0.266,0.337,0.343
	c0.15,0.12,0.324,0.219,0.516,0.303c0.003,0.001,0.005,0.003,0.008,0.005c0.353,0.16,0.784,0.253,1.26,0.302
	c0.003,0,0.007,0.001,0.01,0.001c0.431,0.043,0.901,0.047,1.399,0.016c0.005,0,0.009-0.001,0.013-0.001
	c0.208-0.013,0.419-0.032,0.635-0.056c0.02-0.002,0.04-0.004,0.06-0.007c0.203-0.024,0.408-0.051,0.616-0.083
	c0.033-0.005,0.067-0.01,0.1-0.016c0.203-0.033,0.407-0.068,0.612-0.108c0.031-0.006,0.062-0.012,0.093-0.018
	c0.216-0.043,0.432-0.089,0.648-0.138c0.009-0.002,0.018-0.004,0.028-0.006c1.895-0.436,3.764-1.105,4.93-1.674
	c0.532,0.33,0.999,0.745,1.382,1.223c-0.12,0.053-0.23,0.129-0.322,0.226C55.459,34.4,54.063,35,52.567,35z M55.326,29.617
	c-0.095,0.075-0.212,0.149-0.331,0.224c-0.012,0.006-0.026,0.009-0.038,0.016c-1.286,0.736-3.355,1.403-5.211,1.8
	c-0.054,0.011-0.107,0.023-0.161,0.034c-0.146,0.03-0.288,0.057-0.43,0.084c-0.122,0.023-0.244,0.045-0.363,0.065
	c-0.095,0.016-0.189,0.031-0.282,0.045c-0.142,0.022-0.281,0.041-0.416,0.058c-0.08,0.01-0.16,0.02-0.237,0.029
	c-0.125,0.014-0.245,0.024-0.363,0.034c-0.085,0.007-0.172,0.014-0.252,0.018c-0.09,0.005-0.172,0.006-0.256,0.008
	c-0.095,0.002-0.192,0.005-0.279,0.002c-0.05-0.001-0.092-0.006-0.139-0.008c-0.103-0.006-0.206-0.012-0.293-0.026
	c-0.01-0.002-0.017-0.004-0.027-0.006c-0.221-0.037-0.386-0.099-0.474-0.191c-0.001-0.006-0.005-0.01-0.006-0.016
	c-0.002-0.042,0.004-0.179,0.137-0.461c0.863-1.836,3.387-3.773,5.773-4.732l0.001,0c0.189-0.076,0.377-0.143,0.564-0.206
	c0.068-0.023,0.135-0.044,0.202-0.065c0.12-0.038,0.239-0.072,0.358-0.104c0.114-0.03,0.227-0.058,0.339-0.082
	c0.076-0.017,0.151-0.032,0.226-0.046c0.13-0.024,0.259-0.045,0.385-0.06c0.066-0.008,0.132-0.015,0.197-0.021
	c0.113-0.01,0.223-0.016,0.331-0.019c0.122-0.002,0.243-0.004,0.358,0.004c0.057,0.003,0.116,0.003,0.172,0.008
	c0.12,0.014,0.249,0.054,0.383,0.121c0.417,0.207,0.721,0.766,0.791,1.459C56.07,28.423,55.806,29.242,55.326,29.617z M16.396,20
	c1.654,0,3,1.346,3,3c0,0.552,0.447,1,1,1s1-0.448,1-1c0-2.083-1.282-3.869-3.097-4.619C20.227,14.58,25.024,12,30.396,12
	c5.372,0,10.169,2.58,12.096,6.381c-1.815,0.751-3.096,2.536-3.096,4.619c0,0.552,0.447,1,1,1s1-0.448,1-1c0-1.654,1.346-3,3-3
	c3.328,0,6.478,1.548,8.556,4.128c-2.748,0.525-5.903,2.422-7.752,4.66c-0.051,0.061-0.1,0.122-0.149,0.184
	c-0.088,0.112-0.174,0.224-0.255,0.337c-0.078,0.108-0.149,0.216-0.22,0.325c-0.053,0.081-0.108,0.161-0.157,0.243
	c-0.119,0.198-0.229,0.398-0.323,0.598c-0.084,0.179-0.151,0.354-0.203,0.525H16.108c-0.05-0.164-0.116-0.333-0.195-0.505
	c-0.003-0.007-0.004-0.013-0.008-0.02c-0.089-0.19-0.194-0.38-0.308-0.57c-0.054-0.092-0.114-0.182-0.173-0.273
	c-0.053-0.081-0.107-0.162-0.165-0.243c-1.301-1.858-3.565-3.552-5.893-4.53c-0.167-0.071-0.334-0.14-0.501-0.204
	c-0.044-0.016-0.087-0.031-0.13-0.047c-0.341-0.125-0.681-0.238-1.017-0.328C9.793,21.609,13.002,20,16.396,20z M4.016,27.581
	c0.07-0.693,0.374-1.252,0.791-1.459c0.134-0.066,0.263-0.107,0.448-0.127c0.125-0.013,0.255-0.019,0.388-0.019
	c0.101,0,0.208,0.011,0.312,0.018c0.003,0,0.005,0.001,0.007,0.001c0.359,0.024,0.737,0.088,1.127,0.184
	c0.002,0,0.003,0.001,0.005,0.001c0.185,0.046,0.372,0.101,0.56,0.161c0.02,0.006,0.04,0.013,0.06,0.019
	c0.172,0.056,0.345,0.119,0.519,0.186c0.038,0.015,0.075,0.03,0.113,0.045c0.161,0.064,0.322,0.133,0.483,0.206
	c0.047,0.021,0.094,0.043,0.141,0.065c0.156,0.073,0.311,0.149,0.466,0.229c0.048,0.025,0.096,0.051,0.144,0.076
	c0.156,0.083,0.311,0.169,0.465,0.258c0.042,0.024,0.083,0.049,0.124,0.074c0.16,0.095,0.319,0.193,0.475,0.295
	c0.031,0.02,0.06,0.04,0.091,0.06c0.165,0.109,0.329,0.221,0.488,0.337c0.018,0.013,0.035,0.026,0.052,0.039
	c0.168,0.123,0.334,0.249,0.494,0.378c0.009,0.007,0.017,0.014,0.025,0.021c0.166,0.135,0.327,0.272,0.482,0.411
	c0.004,0.004,0.008,0.008,0.013,0.012c0.157,0.141,0.307,0.285,0.451,0.43c0.008,0.008,0.015,0.016,0.022,0.024
	c0.138,0.141,0.271,0.284,0.395,0.427c0.018,0.021,0.033,0.042,0.051,0.062c0.111,0.131,0.218,0.262,0.316,0.394
	c0.041,0.056,0.076,0.112,0.115,0.168c0.069,0.099,0.139,0.197,0.2,0.296c0.096,0.157,0.182,0.314,0.256,0.471
	c0.123,0.263,0.136,0.399,0.135,0.451c-0.087,0.086-0.24,0.147-0.44,0.187c-0.022,0.004-0.04,0.011-0.064,0.015
	c-0.08,0.013-0.175,0.02-0.268,0.027c-0.057,0.004-0.11,0.01-0.172,0.012c-0.078,0.003-0.166,0.001-0.251,0
	c-0.095-0.001-0.189-0.002-0.292-0.008c-0.07-0.003-0.145-0.009-0.219-0.015c-0.13-0.01-0.263-0.021-0.403-0.036
	c-0.066-0.007-0.133-0.015-0.201-0.023c-0.148-0.018-0.3-0.039-0.455-0.062c-0.082-0.012-0.164-0.025-0.247-0.039
	c-0.129-0.021-0.261-0.045-0.393-0.069c-0.134-0.025-0.268-0.05-0.405-0.078c-0.058-0.012-0.117-0.025-0.176-0.037
	c-1.856-0.394-3.919-1.06-5.202-1.794c-0.012-0.007-0.026-0.009-0.038-0.016c-0.12-0.075-0.236-0.149-0.331-0.224
	C4.194,29.242,3.93,28.423,4.016,27.581z M11.465,48H10v-1h2.132L11.465,48z M15.868,45H8v-2h44v2h-6.868H15.868z M51,48h-1.465
	l-0.667-1H51V48z M52.567,41H7.433C4.437,41,2,38.563,2,35.568c0-0.106,0.034-0.202,0.085-0.287
	c0.074-0.123,0.184-0.212,0.311-0.254c0.103,0.095,0.213,0.181,0.32,0.27c0.072,0.06,0.14,0.124,0.214,0.181
	c0.024,0.018,0.049,0.033,0.073,0.051C4.277,36.483,5.811,37,7.433,37h45.135c1.616,0,3.144-0.514,4.415-1.461
	c0.029-0.021,0.059-0.039,0.087-0.061c0.074-0.057,0.142-0.121,0.214-0.181c0.107-0.089,0.217-0.174,0.32-0.27
	c0.127,0.042,0.237,0.13,0.311,0.254C57.966,35.366,58,35.462,58,35.568C58,38.563,55.562,41,52.567,41z"/>
<g>
</g>
<g>
</g>
<g>
</g>
<g>
</g>
<g>
</g>
<g>
</g>
<g>
</g>
<g>
</g>
<g>
</g>
<g>
</g>
<g>
</g>
<g>
</g>
<g>
</g>
<g>
</g>
<g>
</g>
</svg>
