<?xml version="1.0" encoding="iso-8859-1"?>
<!-- Generator: Adobe Illustrator 18.0.0, SVG Export Plug-In . SVG Version: 6.00 Build 0)  -->
<!DOCTYPE svg PUBLIC "-//W3C//DTD SVG 1.1//EN" "http://www.w3.org/Graphics/SVG/1.1/DTD/svg11.dtd">
<svg version="1.1" id="Capa_1" xmlns="http://www.w3.org/2000/svg" xmlns:xlink="http://www.w3.org/1999/xlink" x="0px" y="0px"
	 viewBox="0 0 60 60" style="enable-background:new 0 0 60 60;" xml:space="preserve">
<g>
	<path d="M30,19c0.553,0,1-0.448,1-1v-1c0-0.552-0.447-1-1-1s-1,0.448-1,1v1C29,18.552,29.447,19,30,19z"/>
	<path d="M30,27c0.553,0,1-0.448,1-1v-1c0-0.552-0.447-1-1-1s-1,0.448-1,1v1C29,26.552,29.447,27,30,27z"/>
	<path d="M30,23c0.553,0,1-0.448,1-1v-1c0-0.552-0.447-1-1-1s-1,0.448-1,1v1C29,22.552,29.447,23,30,23z"/>
	<circle cx="9" cy="37" r="1"/>
	<circle cx="9" cy="43" r="1"/>
	<circle cx="12" cy="40" r="1"/>
	<circle cx="18" cy="40" r="1"/>
	<circle cx="15" cy="37" r="1"/>
	<circle cx="21" cy="37" r="1"/>
	<circle cx="15" cy="43" r="1"/>
	<circle cx="21" cy="43" r="1"/>
	<circle cx="24" cy="40" r="1"/>
	<circle cx="30" cy="40" r="1"/>
	<circle cx="27" cy="37" r="1"/>
	<circle cx="33" cy="37" r="1"/>
	<circle cx="27" cy="43" r="1"/>
	<circle cx="33" cy="43" r="1"/>
	<circle cx="36" cy="40" r="1"/>
	<circle cx="42" cy="40" r="1"/>
	<circle cx="39" cy="37" r="1"/>
	<circle cx="45" cy="37" r="1"/>
	<circle cx="39" cy="43" r="1"/>
	<circle cx="45" cy="43" r="1"/>
	<circle cx="48" cy="40" r="1"/>
	<circle cx="51" cy="37" r="1"/>
	<circle cx="51" cy="43" r="1"/>
	<path d="M60,26c0-1.474-0.81-2.75-2-3.444v-2.634C58,15.002,53.998,11,49.078,11h-14.25c-1.773,0-3.456,0.585-4.828,1.665
		C28.628,11.585,26.945,11,25.172,11h-14.25C6.002,11,2,15.002,2,19.922v2.634C0.81,23.25,0,24.526,0,26v20h1v3h6v-3h1h44h1v3h6v-3
		h1V26z M8,30h17.172c1.557,0,3.021,0.606,4.121,1.707L30,32.415l0.707-0.708C31.808,30.606,33.271,30,34.828,30H52v3H8V30z M54,35
		v-2v-5v-1.7c0-0.915,0.482-1.742,1.229-2.108c0.203-0.1,0.401-0.153,0.602-0.174c0.043-0.004,0.085-0.012,0.13-0.013
		c0.07-0.002,0.141,0.006,0.212,0.014c0.046,0.004,0.093,0.007,0.138,0.014c0.115,0.021,0.232,0.051,0.354,0.094l0.158,0.056
		C57.515,24.497,58,25.191,58,26v18h-4V35z M4,19.922C4,16.105,7.105,13,10.922,13h14.25c1.557,0,3.021,0.606,4.121,1.707L30,15.415
		l0.707-0.708C31.808,13.606,33.271,13,34.828,13h14.25C52.895,13,56,16.105,56,19.922V22c-2.206,0-4,1.794-4,4v0.3V28H34.828
		c-1.773,0-3.456,0.585-4.828,1.665C28.628,28.585,26.945,28,25.172,28H8v-1.7V26c0-2.206-1.794-4-4-4V19.922z M2,26
		c0-0.809,0.485-1.503,1.177-1.818l0.158-0.056c0.122-0.044,0.239-0.073,0.353-0.094c0.046-0.007,0.093-0.01,0.139-0.014
		c0.071-0.007,0.142-0.015,0.211-0.014c0.044,0.001,0.085,0.009,0.128,0.013c0.201,0.022,0.4,0.075,0.604,0.175
		C5.518,24.558,6,25.385,6,26.3V28v5v2v9H2V26z M5,47H3v-1h2V47z M52,37v6v1h-1h-6h-6h-6h-6h-6h-6H9H8v-1v-6v-2h44V37z M57,47h-2v-1
		h2V47z"/>
</g>
<g>
</g>
<g>
</g>
<g>
</g>
<g>
</g>
<g>
</g>
<g>
</g>
<g>
</g>
<g>
</g>
<g>
</g>
<g>
</g>
<g>
</g>
<g>
</g>
<g>
</g>
<g>
</g>
<g>
</g>
</svg>
