<?xml version="1.0" encoding="iso-8859-1"?>
<!-- Generator: Adobe Illustrator 18.0.0, SVG Export Plug-In . SVG Version: 6.00 Build 0)  -->
<!DOCTYPE svg PUBLIC "-//W3C//DTD SVG 1.1//EN" "http://www.w3.org/Graphics/SVG/1.1/DTD/svg11.dtd">
<svg version="1.1" id="Capa_1" xmlns="http://www.w3.org/2000/svg" xmlns:xlink="http://www.w3.org/1999/xlink" x="0px" y="0px"
	 viewBox="0 0 60 60" style="enable-background:new 0 0 60 60;" xml:space="preserve">
<g>
	<circle cx="25" cy="19.5" r="1"/>
	<circle cx="27" cy="22.5" r="1"/>
	<circle cx="31" cy="22.5" r="1"/>
	<circle cx="29" cy="19.5" r="1"/>
	<circle cx="33" cy="19.5" r="1"/>
	<path d="M57.556,20.681c-0.049-0.033-0.094-0.07-0.149-0.094L51,17.739v-5.305c0-1.618-1.316-2.934-2.934-2.934H11.934
		C10.316,9.5,9,10.816,9,12.434v5.305l-6.406,2.847c-0.05,0.022-0.09,0.059-0.135,0.09C1.039,21.123,0,22.435,0,24v10.772
		c0,5.599,4.313,10.203,9.79,10.68l-0.77,3.851c-0.059,0.294,0.017,0.599,0.207,0.83C9.417,50.366,9.7,50.5,10,50.5h2
		c0.265,0,0.52-0.105,0.707-0.293l4.707-4.707h27.172l4.707,4.707C49.48,50.395,49.735,50.5,50,50.5h2
		c0.3,0,0.583-0.134,0.773-0.366c0.19-0.231,0.266-0.536,0.207-0.83l-0.841-4.205C56.665,43.841,60,39.693,60,34.772V24
		C60,22.441,58.968,21.132,57.556,20.681z M10.728,38.5C8.672,38.5,7,36.828,7,34.772v-0.134c0.156-0.16,0.308-0.324,0.477-0.467
		c0.009-0.007,0.016-0.016,0.025-0.023c0.242-0.204,0.5-0.386,0.767-0.554c0.049-0.031,0.098-0.061,0.148-0.09
		c0.563-0.336,1.171-0.597,1.817-0.766c0.014-0.004,0.027-0.007,0.041-0.011c0.27-0.069,0.539-0.121,0.806-0.158
		c0.027-0.004,0.054-0.009,0.081-0.012C11.445,32.52,11.725,32.5,12,32.5h14.75c1.24,0,2.25,1.009,2.25,2.25v3.75H10.728z M31,34.75
		c0-1.24,1.009-2.25,2.25-2.25H48c0.275,0,0.555,0.02,0.838,0.056c0.028,0.003,0.055,0.009,0.082,0.013
		c0.266,0.037,0.535,0.089,0.804,0.158c0.014,0.004,0.029,0.007,0.043,0.011c0.643,0.169,1.25,0.429,1.811,0.763
		c0.053,0.031,0.105,0.063,0.157,0.096c0.264,0.167,0.52,0.347,0.759,0.548c0.014,0.012,0.027,0.026,0.041,0.038
		c0.164,0.14,0.313,0.299,0.464,0.454v0.135c0,2.056-1.672,3.728-3.728,3.728H31V34.75z M51,19.927l3.211,1.427
		c-0.029,0.025-0.051,0.058-0.079,0.084c-0.102,0.095-0.194,0.198-0.284,0.304c-0.063,0.073-0.127,0.144-0.183,0.222
		c-0.085,0.118-0.156,0.246-0.226,0.374c-0.043,0.08-0.092,0.155-0.129,0.238c-0.067,0.15-0.115,0.309-0.16,0.469
		c-0.021,0.072-0.05,0.14-0.066,0.214C53.031,23.499,53,23.746,53,24v8.026c-0.056-0.038-0.119-0.066-0.176-0.102
		c-0.207-0.132-0.418-0.254-0.634-0.369c-0.087-0.046-0.173-0.093-0.262-0.136c-0.278-0.136-0.562-0.256-0.852-0.362
		c-0.026-0.009-0.05-0.023-0.076-0.032L51,19.927z M11,12.434c0-0.515,0.419-0.934,0.934-0.934h36.132
		c0.515,0,0.934,0.419,0.934,0.934v18.124c-0.331-0.037-0.664-0.058-1-0.058H33.25c-0.311,0-0.612,0.038-0.904,0.102
		c-0.097,0.021-0.186,0.059-0.28,0.087c-0.19,0.056-0.379,0.113-0.557,0.194c-0.104,0.047-0.198,0.107-0.298,0.162
		c-0.156,0.086-0.309,0.174-0.452,0.278c-0.096,0.07-0.183,0.148-0.273,0.225c-0.129,0.112-0.253,0.227-0.369,0.353
		c-0.037,0.041-0.083,0.072-0.119,0.114c-0.035-0.042-0.082-0.073-0.119-0.114c-0.115-0.126-0.239-0.242-0.369-0.353
		c-0.09-0.078-0.177-0.155-0.273-0.225c-0.143-0.104-0.296-0.192-0.452-0.278c-0.099-0.055-0.194-0.115-0.298-0.162
		c-0.178-0.081-0.367-0.138-0.557-0.194c-0.094-0.028-0.183-0.066-0.28-0.087c-0.292-0.064-0.593-0.102-0.904-0.102H12
		c-0.336,0-0.669,0.021-1,0.058V18.389V12.434z M9,19.927v11.098c-0.02,0.007-0.038,0.017-0.057,0.024
		c-0.298,0.108-0.589,0.232-0.874,0.371c-0.086,0.042-0.169,0.087-0.253,0.131c-0.221,0.117-0.437,0.242-0.648,0.377
		C7.114,31.963,7.054,31.99,7,32.026V24c0-0.253-0.03-0.499-0.082-0.738c-0.017-0.08-0.049-0.152-0.072-0.23
		c-0.045-0.155-0.09-0.308-0.155-0.453c-0.039-0.086-0.089-0.164-0.134-0.247c-0.069-0.126-0.138-0.25-0.221-0.366
		c-0.058-0.081-0.124-0.153-0.188-0.228C6.06,21.634,5.97,21.533,5.87,21.441c-0.029-0.027-0.051-0.06-0.081-0.086L9,19.927z
		 M11.586,48.5H11.22l0.6-3h2.766L11.586,48.5z M50.18,45.5l0.6,3h-0.366l-3-3h1.858H50.18z M58,34.772
		c0,4.813-3.916,8.728-8.728,8.728H45H17h-6h-0.272C5.916,43.5,2,39.584,2,34.772V24c0-0.827,0.673-1.5,1.5-1.5S5,23.173,5,24
		v10.221v0.551c0,3.159,2.569,5.728,5.728,5.728H30h19.272c3.159,0,5.728-2.569,5.728-5.728v-0.551L55,24c0-0.827,0.673-1.5,1.5-1.5
		c0.827,0,1.5,0.673,1.5,1.5V34.772z"/>
</g>
<g>
</g>
<g>
</g>
<g>
</g>
<g>
</g>
<g>
</g>
<g>
</g>
<g>
</g>
<g>
</g>
<g>
</g>
<g>
</g>
<g>
</g>
<g>
</g>
<g>
</g>
<g>
</g>
<g>
</g>
</svg>
