<?xml version="1.0" encoding="iso-8859-1"?>
<!-- Generator: Adobe Illustrator 18.0.0, SVG Export Plug-In . SVG Version: 6.00 Build 0)  -->
<!DOCTYPE svg PUBLIC "-//W3C//DTD SVG 1.1//EN" "http://www.w3.org/Graphics/SVG/1.1/DTD/svg11.dtd">
<svg version="1.1" id="Capa_1" xmlns="http://www.w3.org/2000/svg" xmlns:xlink="http://www.w3.org/1999/xlink" x="0px" y="0px"
	 viewBox="0 0 60 60" style="enable-background:new 0 0 60 60;" xml:space="preserve">
<g>
	<path d="M55,21.09v-5.018C55,13.827,53.173,12,50.928,12H9.072C6.827,12,5,13.827,5,16.072v5.018C2.167,21.569,0,24.033,0,27
		c0,2.968,2.166,5.439,5,5.917V48h7v-2h36v2h7V32.917c2.834-0.478,5-2.949,5-5.917C60,24.033,57.833,21.569,55,21.09z M7,20v-3.928
		c0-0.478,0.169-0.913,0.442-1.264C7.604,14.92,7.789,15,8,15c0.55,0,0.994-0.444,0.998-0.993C9.023,14.007,9.047,14,9.072,14H13
		c0,0.552,0.448,1,1,1s1-0.448,1-1h4c0,0.552,0.448,1,1,1s1-0.448,1-1h4c0,0.552,0.448,1,1,1s1-0.448,1-1h4c0,0.552,0.448,1,1,1
		s1-0.448,1-1h4c0,0.552,0.448,1,1,1s1-0.448,1-1h4c0,0.552,0.448,1,1,1s1-0.448,1-1h4c0,0.552,0.448,1,1,1
		c0.55,0,0.994-0.444,0.999-0.993c1.085,0.037,1.957,0.909,1.994,1.994C52.444,16.006,52,16.45,52,17c0,0.552,0.448,1,1,1v3.083
		c-0.022,0.004-0.041,0.013-0.063,0.016c-0.307,0.055-0.606,0.134-0.895,0.235c-0.05,0.017-0.098,0.036-0.147,0.054
		c-0.288,0.109-0.567,0.236-0.833,0.386c-0.035,0.02-0.069,0.042-0.104,0.063c-0.274,0.162-0.538,0.341-0.782,0.543
		c-0.004,0.004-0.008,0.008-0.013,0.011c-0.244,0.203-0.468,0.429-0.677,0.668c-0.022,0.025-0.046,0.049-0.068,0.075
		c-0.197,0.233-0.373,0.484-0.533,0.745c-0.026,0.043-0.053,0.086-0.079,0.13c-0.151,0.261-0.282,0.533-0.392,0.817
		c-0.019,0.049-0.036,0.098-0.054,0.147c-0.105,0.291-0.191,0.59-0.25,0.9c-0.008,0.039-0.011,0.08-0.018,0.119
		C48.036,26.321,48,26.656,48,27v2v1h-1h-6h-6h-6h-6h-6h-5v-3c0-0.344-0.036-0.679-0.091-1.007c-0.007-0.04-0.011-0.08-0.018-0.12
		c-0.059-0.309-0.145-0.609-0.25-0.899c-0.018-0.05-0.035-0.099-0.055-0.149c-0.111-0.283-0.242-0.556-0.392-0.817
		c-0.008-0.014-0.013-0.03-0.021-0.044C11.639,23.881,12,23.491,12,23c0-0.552-0.448-1-1-1c-0.415,0-0.77,0.252-0.922,0.612
		c-0.08-0.074-0.158-0.15-0.242-0.22c-0.004-0.004-0.008-0.008-0.013-0.011C9.58,22.178,9.316,22,9.042,21.837
		c-0.035-0.021-0.069-0.043-0.104-0.063c-0.265-0.15-0.544-0.277-0.833-0.385c-0.049-0.018-0.098-0.037-0.147-0.054
		c-0.289-0.1-0.588-0.179-0.895-0.235C7.041,21.096,7.022,21.087,7,21.083V20z M48,35H12v-3h36V35z M7,46V32v-1v-4
		c0-0.552-0.448-1-1-1s-1,0.448-1,1v3.858c-1.72-0.447-3-2-3-3.858c0-2.206,1.794-4,4-4s4,1.794,4,4v3v5v2v9H7z M12,44v-7h36v7H12z
		 M55,30.858V27c0-0.552-0.448-1-1-1s-1,0.448-1,1v4v1v14h-3v-9v-2v-5v-3c0-2.206,1.794-4,4-4s4,1.794,4,4
		C58,28.858,56.72,30.411,55,30.858z"/>
	<circle cx="11" cy="17" r="1"/>
	<circle cx="17" cy="17" r="1"/>
	<circle cx="23" cy="17" r="1"/>
	<circle cx="29" cy="17" r="1"/>
	<circle cx="35" cy="17" r="1"/>
	<circle cx="41" cy="17" r="1"/>
	<circle cx="47" cy="17" r="1"/>
	<circle cx="8" cy="20" r="1"/>
	<circle cx="14" cy="20" r="1"/>
	<circle cx="20" cy="20" r="1"/>
	<circle cx="14" cy="26" r="1"/>
	<circle cx="20" cy="26" r="1"/>
	<circle cx="17" cy="23" r="1"/>
	<circle cx="23" cy="23" r="1"/>
	<circle cx="17" cy="29" r="1"/>
	<circle cx="23" cy="29" r="1"/>
	<circle cx="26" cy="20" r="1"/>
	<circle cx="32" cy="20" r="1"/>
	<circle cx="26" cy="26" r="1"/>
	<circle cx="32" cy="26" r="1"/>
	<circle cx="29" cy="23" r="1"/>
	<circle cx="35" cy="23" r="1"/>
	<circle cx="29" cy="29" r="1"/>
	<circle cx="35" cy="29" r="1"/>
	<circle cx="38" cy="20" r="1"/>
	<circle cx="44" cy="20" r="1"/>
	<circle cx="38" cy="26" r="1"/>
	<circle cx="44" cy="26" r="1"/>
	<circle cx="41" cy="23" r="1"/>
	<circle cx="47" cy="23" r="1"/>
	<circle cx="41" cy="29" r="1"/>
	<circle cx="47" cy="29" r="1"/>
	<circle cx="50" cy="20" r="1"/>
</g>
<g>
</g>
<g>
</g>
<g>
</g>
<g>
</g>
<g>
</g>
<g>
</g>
<g>
</g>
<g>
</g>
<g>
</g>
<g>
</g>
<g>
</g>
<g>
</g>
<g>
</g>
<g>
</g>
<g>
</g>
</svg>
