<?xml version="1.0" encoding="iso-8859-1"?>
<!-- Generator: Adobe Illustrator 18.0.0, SVG Export Plug-In . SVG Version: 6.00 Build 0)  -->
<!DOCTYPE svg PUBLIC "-//W3C//DTD SVG 1.1//EN" "http://www.w3.org/Graphics/SVG/1.1/DTD/svg11.dtd">
<svg version="1.1" id="Capa_1" xmlns="http://www.w3.org/2000/svg" xmlns:xlink="http://www.w3.org/1999/xlink" x="0px" y="0px"
	 viewBox="0 0 60 60" style="enable-background:new 0 0 60 60;" xml:space="preserve">
<g>
	<path d="M59,25v-9h-3h-2h-3v9h-6.791l-0.295-2H49v-5v-2V0H11v16v2v5h4.931l-0.304,2H0v10h1v25h5V39c0-2.206,1.794-4,4-4h4.109
		l-0.042,0.276c-0.217,1.171,0.096,2.367,0.858,3.283c0.762,0.915,1.881,1.44,3.072,1.44H27v3h2v2h-2v1.204l-12.225,2.821
		c-0.03,0.007-0.051,0.027-0.079,0.036c-0.065,0.021-0.123,0.049-0.182,0.082c-0.056,0.032-0.108,0.064-0.156,0.105
		c-0.048,0.041-0.088,0.087-0.128,0.137c-0.041,0.051-0.077,0.101-0.107,0.159c-0.029,0.055-0.048,0.111-0.066,0.172
		c-0.02,0.066-0.034,0.13-0.04,0.2C14.014,49.945,14,49.97,14,50v1.051c-2.244,0.252-4,2.139-4,4.449c0,2.481,2.019,4.5,4.5,4.5
		s4.5-2.019,4.5-4.5c0-1.953-1.258-3.602-3-4.224v-0.481l11-2.538v0.329l-2.422,2.422C24.551,51.007,24.527,51,24.5,51
		c-2.481,0-4.5,2.019-4.5,4.5s2.019,4.5,4.5,4.5s4.5-2.019,4.5-4.5c0-1.648-0.9-3.077-2.225-3.861L28.414,50h3.172l1.639,1.639
		C31.9,52.423,31,53.852,31,55.5c0,2.481,2.019,4.5,4.5,4.5s4.5-2.019,4.5-4.5S37.981,51,35.5,51c-0.027,0-0.051,0.007-0.078,0.008
		L33,48.586v-0.329l11,2.538v0.481c-1.742,0.621-3,2.271-3,4.224c0,2.481,2.019,4.5,4.5,4.5s4.5-2.019,4.5-4.5
		c0-2.31-1.756-4.197-4-4.449V50c0-0.03-0.014-0.055-0.017-0.084c-0.006-0.07-0.02-0.134-0.04-0.2
		c-0.018-0.06-0.037-0.117-0.066-0.172c-0.03-0.058-0.066-0.108-0.107-0.159c-0.04-0.05-0.079-0.095-0.128-0.137
		c-0.048-0.041-0.1-0.073-0.156-0.105c-0.058-0.033-0.117-0.061-0.182-0.082c-0.028-0.009-0.05-0.029-0.079-0.036L33,46.204V45h-2
		v-2h2v-3h8.792c1.191,0,2.311-0.525,3.072-1.44c0.762-0.916,1.075-2.112,0.864-3.247L45.682,35H50c2.206,0,4,1.794,4,4v21h5V35h1
		V25H59z M17,55.5c0,1.379-1.122,2.5-2.5,2.5S12,56.879,12,55.5s1.122-2.5,2.5-2.5S17,54.121,17,55.5z M24.5,58
		c-1.378,0-2.5-1.121-2.5-2.5s1.122-2.5,2.5-2.5s2.5,1.121,2.5,2.5S25.878,58,24.5,58z M38,55.5c0,1.379-1.122,2.5-2.5,2.5
		S33,56.879,33,55.5s1.122-2.5,2.5-2.5S38,54.121,38,55.5z M48,55.5c0,1.379-1.122,2.5-2.5,2.5S43,56.879,43,55.5s1.122-2.5,2.5-2.5
		S48,54.121,48,55.5z M29,47h2v1h-2V47z M56,18h1v7h-1V18z M53,18h1v7h-1V18z M47,21h-3.38l-0.441-3H47V21z M13,2h34v14h-4.117
		l-0.992-6.73c-0.039-0.209-0.099-0.413-0.171-0.612c-0.022-0.061-0.047-0.119-0.071-0.178c-0.058-0.141-0.124-0.278-0.198-0.412
		c-0.03-0.054-0.058-0.109-0.091-0.162c-0.108-0.176-0.225-0.346-0.36-0.504c-0.005-0.006-0.011-0.01-0.016-0.015
		c-0.167-0.193-0.355-0.365-0.555-0.522c-0.068-0.053-0.14-0.098-0.211-0.147c-0.147-0.101-0.299-0.193-0.459-0.275
		c-0.083-0.042-0.165-0.081-0.25-0.117c-0.168-0.071-0.342-0.127-0.52-0.175c-0.079-0.021-0.154-0.047-0.234-0.063
		C38.498,6.034,38.233,6,37.961,6H21.946c-0.272,0-0.536,0.034-0.794,0.086c-0.082,0.016-0.159,0.043-0.239,0.065
		c-0.175,0.047-0.345,0.102-0.51,0.172c-0.091,0.038-0.178,0.08-0.265,0.125c-0.148,0.076-0.288,0.161-0.425,0.255
		c-0.084,0.057-0.169,0.111-0.249,0.174c-0.148,0.118-0.283,0.251-0.413,0.389c-0.046,0.048-0.101,0.085-0.144,0.136
		c-0.145,0.17-0.269,0.355-0.383,0.546c-0.014,0.024-0.027,0.049-0.041,0.074c-0.093,0.163-0.174,0.333-0.243,0.51
		c-0.017,0.042-0.034,0.084-0.05,0.127c-0.074,0.207-0.137,0.42-0.178,0.643L16.994,16H13V2z M13,18h3.69l-0.456,3H13V18z M10,33
		c-3.309,0-6,2.691-6,6v19H3V33H2v-6h13.324l-0.911,6H10z M31,41h-2v-1h2V41z M43.756,35.64c0.108,0.585-0.048,1.183-0.428,1.641
		c-0.381,0.457-0.94,0.72-1.535,0.72H33h-6h-9.002c-0.595,0-1.154-0.263-1.535-0.72c-0.38-0.458-0.537-1.056-0.423-1.672
		l0.594-3.912L17.65,25h0l0.304-2h0.001l0.964-6.354l1.065-7.013c0.028-0.154,0.081-0.3,0.143-0.442
		c0.016-0.036,0.033-0.071,0.05-0.105c0.068-0.133,0.147-0.261,0.244-0.376c0.007-0.009,0.015-0.017,0.023-0.026
		c0.082-0.093,0.172-0.176,0.267-0.252c0.035-0.028,0.074-0.052,0.111-0.077c0.072-0.049,0.146-0.094,0.223-0.133
		C21.087,8.2,21.13,8.18,21.174,8.162c0.083-0.035,0.169-0.063,0.256-0.086c0.04-0.011,0.079-0.024,0.12-0.033
		C21.68,8.017,21.812,8,21.946,8h16.015c0.135,0,0.268,0.017,0.397,0.043c0.039,0.008,0.076,0.021,0.114,0.031
		c0.091,0.024,0.181,0.053,0.268,0.09c0.038,0.016,0.075,0.033,0.111,0.052c0.092,0.046,0.181,0.099,0.266,0.159
		c0.021,0.015,0.043,0.028,0.064,0.044C39.289,8.502,39.39,8.595,39.48,8.7c0.108,0.126,0.197,0.267,0.269,0.411
		c0.007,0.014,0.014,0.029,0.021,0.043c0.069,0.146,0.121,0.295,0.148,0.442L40.862,16h0l1.031,7h0l0.295,2h-0.001l1.474,10h0
		L43.756,35.64z M58,33h-1v25h-1V39c0-3.309-2.691-6-6-6h-4.612l-0.221-1.499L44.504,27H51h3h2h2V33z"/>
	<path d="M12,29H5c-0.552,0-1,0.447-1,1s0.448,1,1,1h7c0.552,0,1-0.447,1-1S12.552,29,12,29z"/>
	<path d="M55,29h-7c-0.553,0-1,0.447-1,1s0.447,1,1,1h7c0.553,0,1-0.447,1-1S55.553,29,55,29z"/>
</g>
<g>
</g>
<g>
</g>
<g>
</g>
<g>
</g>
<g>
</g>
<g>
</g>
<g>
</g>
<g>
</g>
<g>
</g>
<g>
</g>
<g>
</g>
<g>
</g>
<g>
</g>
<g>
</g>
<g>
</g>
</svg>
