<?xml version="1.0" encoding="iso-8859-1"?>
<!-- Generator: Adobe Illustrator 18.0.0, SVG Export Plug-In . SVG Version: 6.00 Build 0)  -->
<!DOCTYPE svg PUBLIC "-//W3C//DTD SVG 1.1//EN" "http://www.w3.org/Graphics/SVG/1.1/DTD/svg11.dtd">
<svg version="1.1" id="Capa_1" xmlns="http://www.w3.org/2000/svg" xmlns:xlink="http://www.w3.org/1999/xlink" x="0px" y="0px"
	 viewBox="0 0 60 60" style="enable-background:new 0 0 60 60;" xml:space="preserve">
<g>
	<path d="M12,22H8c-0.553,0-1,0.447-1,1s0.447,1,1,1h4c0.553,0,1-0.447,1-1S12.553,22,12,22z"/>
	<path d="M12,30H8c-0.553,0-1,0.447-1,1s0.447,1,1,1h4c0.553,0,1-0.447,1-1S12.553,30,12,30z"/>
	<path d="M48,24h4c0.553,0,1-0.447,1-1s-0.447-1-1-1h-4c-0.553,0-1,0.447-1,1S47.447,24,48,24z"/>
	<path d="M48,32h4c0.553,0,1-0.447,1-1s-0.447-1-1-1h-4c-0.553,0-1,0.447-1,1S47.447,32,48,32z"/>
	<path d="M51.463,10.078c0.125,0.052,0.255,0.076,0.383,0.076c0.392,0,0.765-0.232,0.924-0.617c0.205-0.495-0.017-1.061-0.496-1.286
		c1.283-0.55,1.477-1.368,1.477-1.811c0-0.447-0.197-1.279-1.521-1.828c-0.508-0.209-1.096,0.031-1.307,0.541
		c-0.205,0.495,0.017,1.061,0.497,1.287c-1.284,0.549-1.478,1.367-1.478,1.81C49.941,8.697,50.139,9.529,51.463,10.078z"/>
	<path d="M56.92,50.414l-0.003,0.002c-0.029-0.045-0.063-0.087-0.1-0.126c-0.249-0.268-1.46-1.824-0.828-6.146
		c0.486-3.321-0.158-6.231-1.246-8.145H59v-8v-2v-6c0.553,0,1-0.447,1-1s-0.447-1-1-1h-3c1.654,0,3-1.346,3-3s-1.346-3-3-3h-1v-1h-7
		v7h-7v-2c0-0.553-0.447-1-1-1V5c0-0.553-0.447-1-1-1H21c-0.553,0-1,0.447-1,1v10c-0.553,0-1,0.447-1,1v2h-6v-1v-2v-3H2v3v2v1H1
		c-0.553,0-1,0.447-1,1s0.447,1,1,1v6v2v8h4.256c-1.087,1.914-1.731,4.824-1.246,8.145c0.631,4.318-0.58,5.877-0.829,6.146
		c-0.036,0.039-0.069,0.081-0.099,0.126L3.08,50.414l-2.891,4c-0.22,0.305-0.251,0.707-0.08,1.041S0.624,56,1,56h1
		c1.639,0,3.117-0.671,4.395-1.992c2.634-2.729,3.693-7.515,3.604-10.043c-0.195-5.569,2.315-7.538,2.989-7.965H19v-5h22v5h6.01
		c0.691,0.439,3.185,2.413,2.991,7.965c-0.089,2.528,0.971,7.314,3.604,10.043C54.883,55.329,56.361,56,58,56h1
		c0.376,0,0.72-0.211,0.891-0.545s0.14-0.736-0.08-1.041L56.92,50.414z M56,14c0.552,0,1,0.448,1,1s-0.448,1-1,1h-1v-2H56z M50,13h3
		v5h-3V13z M48,20h7h2v6H43v-4v-2H48z M20,20h20h1v2H19v-2H20z M22,6h16v9H22V6z M21,17h18v1H21V17z M4,14h7v1H4V14z M4,17h7v1H4V17
		z M3,20h10h4v2v4H3V20z M8.001,44.035c0.076,2.196-0.938,6.401-3.046,8.583c-0.582,0.604-1.212,1.011-1.881,1.219l1.603-2.218
		c0.656-0.727,2.025-2.886,1.313-7.764C5.431,40.029,6.605,37.087,7.72,36h2.416C8.996,37.49,7.859,40.002,8.001,44.035z M17,34
		h-4.274H7.352H3v-6h14v3V34z M19,29v-1v-2v-2h22v2v2v1H19z M43,31v-3h14v6h-4.352h-5.374H43V31z M55.045,52.618
		c-2.107-2.182-3.122-6.387-3.046-8.583c0.142-4.033-0.995-6.545-2.135-8.035h2.416c1.115,1.087,2.289,4.029,1.73,7.855
		c-0.711,4.863,0.646,7.022,1.313,7.764l1.603,2.218C56.257,53.629,55.627,53.222,55.045,52.618z"/>
</g>
<g>
</g>
<g>
</g>
<g>
</g>
<g>
</g>
<g>
</g>
<g>
</g>
<g>
</g>
<g>
</g>
<g>
</g>
<g>
</g>
<g>
</g>
<g>
</g>
<g>
</g>
<g>
</g>
<g>
</g>
</svg>
