<?xml version="1.0" encoding="iso-8859-1"?>
<!-- Generator: Adobe Illustrator 18.0.0, SVG Export Plug-In . SVG Version: 6.00 Build 0)  -->
<!DOCTYPE svg PUBLIC "-//W3C//DTD SVG 1.1//EN" "http://www.w3.org/Graphics/SVG/1.1/DTD/svg11.dtd">
<svg version="1.1" id="Capa_1" xmlns="http://www.w3.org/2000/svg" xmlns:xlink="http://www.w3.org/1999/xlink" x="0px" y="0px"
	 viewBox="0 0 59 59" style="enable-background:new 0 0 59 59;" xml:space="preserve">
<g>
	<path d="M56.5,0h-54c-0.553,0-1,0.447-1,1v10v47c0,0.553,0.447,1,1,1h54c0.553,0,1-0.447,1-1V11V1C57.5,0.447,57.053,0,56.5,0z
		 M3.5,2h52v8h-52V2z M3.5,57V12h52v45H3.5z"/>
	<path d="M10.5,3h-4c-0.553,0-1,0.447-1,1v4c0,0.553,0.447,1,1,1h4c0.553,0,1-0.447,1-1V4C11.5,3.447,11.053,3,10.5,3z M9.5,7h-2V5
		h2V7z"/>
	<path d="M17.5,3h-4c-0.553,0-1,0.447-1,1v4c0,0.553,0.447,1,1,1h4c0.553,0,1-0.447,1-1V4C18.5,3.447,18.053,3,17.5,3z M16.5,7h-2V5
		h2V7z"/>
	<path d="M53.5,3h-24c-0.553,0-1,0.447-1,1v4c0,0.553,0.447,1,1,1h24c0.553,0,1-0.447,1-1V4C54.5,3.447,54.053,3,53.5,3z M52.5,7
		h-22V5h22V7z"/>
	<path d="M51.5,17h-44c-0.553,0-1,0.447-1,1v20.102v4.659V53c0,0.553,0.447,1,1,1h11.918h4.365h4.635h4.365h4.635h4.365h4.635h4.365
		H51.5c0.553,0,1-0.447,1-1V18C52.5,17.447,52.053,17,51.5,17z M50.5,19v13h-2v-4c0-1.859-1.279-3.411-3-3.858V22h1
		c0.553,0,1-0.447,1-1s-0.447-1-1-1h-4c-0.553,0-1,0.447-1,1s0.447,1,1,1h1v2.142c-1.721,0.447-3,1.999-3,3.858v4h-2v-4
		c0-1.859-1.279-3.411-3-3.858V22h1c0.553,0,1-0.447,1-1s-0.447-1-1-1h-4c-0.553,0-1,0.447-1,1s0.447,1,1,1h1v2.142
		c-1.721,0.447-3,1.999-3,3.858v4h-2v-4c0-1.859-1.279-3.411-3-3.858V22h1c0.553,0,1-0.447,1-1s-0.447-1-1-1h-4
		c-0.553,0-1,0.447-1,1s0.447,1,1,1h1v2.142c-1.721,0.447-3,1.999-3,3.858v4h-2v-4c0-1.859-1.279-3.411-3-3.858V22h1
		c0.553,0,1-0.447,1-1s-0.447-1-1-1h-4c-0.553,0-1,0.447-1,1s0.447,1,1,1h1v2.142c-1.721,0.447-3,1.999-3,3.858v4h-2V19H50.5z
		 M44.5,26c1.103,0,2,0.897,2,2v4h-4v-4C42.5,26.897,43.397,26,44.5,26z M34.5,26c1.103,0,2,0.897,2,2v4h-4v-4
		C32.5,26.897,33.397,26,34.5,26z M24.5,26c1.103,0,2,0.897,2,2v4h-4v-4C22.5,26.897,23.397,26,24.5,26z M14.5,26
		c1.103,0,2,0.897,2,2v4h-4v-4C12.5,26.897,13.397,26,14.5,26z M16.682,38.831c0.124,0.051,0.244,0.11,0.365,0.165
		c0.182,0.083,0.364,0.168,0.541,0.261c0.102,0.053,0.202,0.109,0.302,0.165c0.225,0.127,0.446,0.26,0.661,0.402
		c0.043,0.028,0.087,0.055,0.13,0.084c0.758,0.517,1.441,1.132,2.047,1.817c0.189,0.213,0.368,0.433,0.538,0.658
		c0.036,0.047,0.071,0.094,0.106,0.142c0.163,0.223,0.317,0.451,0.462,0.684c0.036,0.059,0.072,0.118,0.108,0.177
		c0.135,0.227,0.263,0.457,0.381,0.692c0.037,0.074,0.073,0.15,0.109,0.225c0.107,0.226,0.208,0.453,0.3,0.685
		c0.038,0.096,0.071,0.193,0.106,0.29c0.079,0.218,0.154,0.437,0.219,0.659c0.037,0.126,0.066,0.254,0.098,0.382
		c0.05,0.199,0.101,0.397,0.14,0.599c0.001,0.003,0.001,0.006,0.002,0.009c0.034,0.176,0.056,0.355,0.082,0.533
		c0.018,0.127,0.039,0.253,0.053,0.381c0.005,0.048,0.012,0.095,0.016,0.143C23.479,48.32,23.5,48.657,23.5,49
		c0,0.443-0.04,0.891-0.099,1.339c-0.012,0.089-0.022,0.179-0.036,0.268c-0.069,0.433-0.163,0.867-0.287,1.301
		c-0.009,0.031-0.02,0.061-0.029,0.092h-2.088c0.344-0.962,0.539-1.974,0.539-3c0-4.963-4.037-9-9-9c-1.413,0-2.767,0.328-4,0.945
		v-2.183C9.784,38.256,11.127,38,12.5,38C13.981,38,15.392,38.298,16.682,38.831z M19.75,38.215
		c-0.025-0.017-0.047-0.038-0.073-0.055C20.282,38.054,20.891,38,21.5,38c1.481,0,2.892,0.298,4.182,0.831
		c0.124,0.051,0.244,0.11,0.365,0.165c0.182,0.083,0.364,0.168,0.541,0.261c0.102,0.053,0.202,0.109,0.302,0.165
		c0.225,0.127,0.446,0.26,0.661,0.402c0.043,0.028,0.087,0.055,0.13,0.084c0.758,0.517,1.441,1.132,2.047,1.817
		c0.189,0.213,0.368,0.433,0.538,0.658c0.036,0.047,0.071,0.094,0.106,0.142c0.163,0.223,0.317,0.451,0.462,0.684
		c0.036,0.059,0.072,0.118,0.108,0.177c0.135,0.227,0.263,0.457,0.381,0.692c0.037,0.074,0.073,0.15,0.109,0.225
		c0.107,0.226,0.208,0.453,0.3,0.685c0.038,0.096,0.071,0.193,0.106,0.29c0.079,0.218,0.154,0.437,0.219,0.659
		c0.037,0.126,0.066,0.254,0.098,0.382c0.05,0.199,0.101,0.397,0.14,0.599c0.001,0.003,0.001,0.006,0.002,0.009
		c0.034,0.176,0.056,0.355,0.082,0.533c0.018,0.127,0.039,0.253,0.053,0.381c0.005,0.048,0.012,0.095,0.016,0.143
		C32.479,48.32,32.5,48.657,32.5,49c0,0.443-0.04,0.891-0.099,1.339c-0.012,0.089-0.022,0.179-0.036,0.268
		c-0.069,0.433-0.163,0.867-0.287,1.301c-0.009,0.031-0.02,0.061-0.029,0.092h-2.088c0.344-0.962,0.539-1.974,0.539-3
		c0-4.833-3.831-8.776-8.614-8.98c-0.025-0.026-0.052-0.049-0.077-0.075c-0.131-0.135-0.268-0.262-0.405-0.391
		c-0.198-0.186-0.393-0.375-0.603-0.549C20.464,38.725,20.114,38.46,19.75,38.215z M28.75,38.215
		c-0.025-0.017-0.047-0.038-0.073-0.055C29.282,38.054,29.891,38,30.5,38c1.481,0,2.892,0.298,4.182,0.831
		c0.124,0.051,0.244,0.11,0.365,0.165c0.182,0.083,0.364,0.168,0.541,0.261c0.102,0.053,0.202,0.109,0.302,0.165
		c0.225,0.127,0.446,0.26,0.661,0.402c0.043,0.028,0.087,0.055,0.13,0.084c0.758,0.517,1.441,1.132,2.047,1.817
		c0.189,0.213,0.368,0.433,0.538,0.658c0.036,0.047,0.071,0.094,0.106,0.142c0.163,0.223,0.317,0.451,0.462,0.684
		c0.036,0.059,0.072,0.118,0.108,0.177c0.135,0.227,0.263,0.457,0.381,0.692c0.037,0.074,0.073,0.15,0.109,0.225
		c0.107,0.226,0.208,0.453,0.3,0.685c0.038,0.096,0.071,0.193,0.106,0.29c0.079,0.218,0.154,0.437,0.219,0.659
		c0.037,0.126,0.066,0.254,0.098,0.382c0.05,0.199,0.101,0.397,0.14,0.599c0.001,0.003,0.001,0.006,0.002,0.009
		c0.034,0.176,0.056,0.355,0.082,0.533c0.018,0.127,0.039,0.253,0.053,0.381c0.005,0.048,0.012,0.095,0.016,0.143
		C41.479,48.32,41.5,48.657,41.5,49c0,0.443-0.04,0.891-0.099,1.339c-0.012,0.089-0.022,0.179-0.036,0.268
		c-0.069,0.433-0.163,0.867-0.287,1.301c-0.009,0.031-0.02,0.061-0.029,0.092h-2.088c0.344-0.962,0.539-1.974,0.539-3
		c0-4.833-3.831-8.776-8.614-8.98c-0.025-0.026-0.052-0.049-0.077-0.075c-0.131-0.135-0.268-0.262-0.405-0.391
		c-0.198-0.186-0.393-0.375-0.603-0.549C29.464,38.725,29.114,38.46,28.75,38.215z M8.5,52v-8.74c1.177-0.826,2.551-1.26,4-1.26
		c3.859,0,7,3.141,7,7c0,1.038-0.234,2.064-0.683,3H8.5z M25.128,52c0.018-0.073,0.024-0.147,0.041-0.221
		c0.081-0.354,0.147-0.708,0.197-1.062c0.018-0.125,0.036-0.251,0.05-0.376C25.466,49.893,25.5,49.446,25.5,49
		c0-0.39-0.024-0.777-0.059-1.163c-0.01-0.111-0.021-0.222-0.034-0.333l-0.001-0.007c-0.008-0.067-0.012-0.135-0.021-0.203
		c-0.033-0.25-0.077-0.498-0.125-0.745c-0.024-0.124-0.05-0.246-0.077-0.368c-0.012-0.054-0.027-0.109-0.039-0.163
		c-0.033-0.139-0.064-0.279-0.101-0.416c-0.022-0.081-0.047-0.16-0.071-0.24c-0.046-0.158-0.096-0.315-0.148-0.471
		c-0.039-0.115-0.078-0.229-0.12-0.343c-0.061-0.168-0.122-0.336-0.19-0.501c-0.067-0.161-0.144-0.315-0.216-0.473
		c-0.073-0.158-0.143-0.317-0.222-0.472c-0.12-0.236-0.25-0.464-0.384-0.691c-0.014-0.024-0.026-0.049-0.04-0.073
		C26.462,43.248,28.5,45.891,28.5,49c0,1.038-0.234,2.064-0.683,3H25.128z M34.128,52c0.018-0.073,0.024-0.147,0.041-0.221
		c0.081-0.354,0.147-0.708,0.197-1.062c0.018-0.125,0.036-0.251,0.05-0.376C34.466,49.893,34.5,49.446,34.5,49
		c0-0.39-0.024-0.777-0.059-1.163c-0.01-0.111-0.021-0.222-0.034-0.333l-0.001-0.007c-0.008-0.067-0.012-0.135-0.021-0.203
		c-0.033-0.25-0.077-0.498-0.125-0.745c-0.024-0.124-0.05-0.246-0.077-0.368c-0.012-0.054-0.027-0.109-0.039-0.163
		c-0.033-0.139-0.064-0.279-0.101-0.416c-0.022-0.081-0.047-0.16-0.071-0.24c-0.046-0.158-0.096-0.315-0.148-0.471
		c-0.039-0.115-0.078-0.229-0.12-0.343c-0.061-0.168-0.122-0.336-0.19-0.501c-0.067-0.161-0.144-0.315-0.216-0.473
		c-0.073-0.158-0.143-0.317-0.222-0.472c-0.12-0.236-0.25-0.464-0.384-0.691c-0.014-0.024-0.026-0.049-0.04-0.073
		C35.462,43.248,37.5,45.891,37.5,49c0,1.038-0.234,2.064-0.683,3H34.128z M43.128,52c0.018-0.073,0.024-0.147,0.041-0.221
		c0.081-0.354,0.147-0.708,0.197-1.062c0.018-0.125,0.036-0.251,0.05-0.376C43.466,49.893,43.5,49.446,43.5,49
		c0-0.39-0.024-0.777-0.059-1.163c-0.01-0.111-0.021-0.222-0.034-0.333l-0.001-0.007c-0.008-0.067-0.012-0.135-0.021-0.203
		c-0.033-0.25-0.077-0.498-0.125-0.745c-0.024-0.124-0.05-0.246-0.077-0.368c-0.012-0.054-0.027-0.109-0.039-0.163
		c-0.033-0.139-0.064-0.279-0.101-0.416c-0.022-0.081-0.047-0.16-0.071-0.24c-0.046-0.158-0.096-0.315-0.148-0.471
		c-0.039-0.115-0.078-0.229-0.12-0.343c-0.061-0.168-0.122-0.336-0.19-0.501c-0.067-0.161-0.144-0.315-0.216-0.473
		c-0.073-0.158-0.143-0.317-0.222-0.472c-0.12-0.236-0.25-0.464-0.384-0.691c-0.014-0.024-0.026-0.049-0.04-0.073
		C44.462,43.248,46.5,45.891,46.5,49c0,1.038-0.234,2.064-0.683,3H43.128z M50.058,52h-2.097c0.344-0.962,0.539-1.974,0.539-3
		c0-4.833-3.831-8.776-8.614-8.98c-0.025-0.026-0.052-0.049-0.077-0.075c-0.131-0.135-0.268-0.262-0.405-0.391
		c-0.198-0.186-0.393-0.375-0.603-0.549c-0.337-0.28-0.687-0.545-1.051-0.79c-0.025-0.017-0.047-0.038-0.073-0.055
		C38.282,38.054,38.891,38,39.5,38c6.065,0,11,4.935,11,11C50.5,49.99,50.352,50.996,50.058,52z M39.5,36
		c-1.507,0-3.008,0.288-4.469,0.831C33.617,36.303,32.095,36,30.5,36c-1.507,0-3.008,0.288-4.469,0.831
		C24.617,36.303,23.095,36,21.5,36c-1.507,0-3.008,0.288-4.469,0.831C15.617,36.303,14.095,36,12.5,36c-1.367,0-2.706,0.219-4,0.643
		V34h3h6h4h6h4h6h4h6h3v8.104C48.197,38.445,44.133,36,39.5,36z"/>
</g>
<g>
</g>
<g>
</g>
<g>
</g>
<g>
</g>
<g>
</g>
<g>
</g>
<g>
</g>
<g>
</g>
<g>
</g>
<g>
</g>
<g>
</g>
<g>
</g>
<g>
</g>
<g>
</g>
<g>
</g>
</svg>
