<?xml version="1.0" encoding="iso-8859-1"?>
<!-- Generator: Adobe Illustrator 18.0.0, SVG Export Plug-In . SVG Version: 6.00 Build 0)  -->
<!DOCTYPE svg PUBLIC "-//W3C//DTD SVG 1.1//EN" "http://www.w3.org/Graphics/SVG/1.1/DTD/svg11.dtd">
<svg version="1.1" id="Capa_1" xmlns="http://www.w3.org/2000/svg" xmlns:xlink="http://www.w3.org/1999/xlink" x="0px" y="0px"
	 viewBox="0 0 60 60" style="enable-background:new 0 0 60 60;" xml:space="preserve">
<g>
	<path d="M10,7v32h24V7H10z M21,9v8h-9V9H21z M32,27h-9v-8h9V27z M21,27h-9v-8h9V27z M12,29h9v8h-9V29z M23,37v-8h9v8H23z M32,17h-9
		V9h9V17z"/>
	<path d="M10,56h24V41H10V56z M12,43h20v11H12V43z"/>
	<path d="M56,52v-1h1v-5h-5v-6.295c0.056-0.026,0.11-0.047,0.166-0.075c1.611-0.832,2.746-2.109,3.195-3.597
		c0.309-1.019,0.241-2.208-0.18-3.181c-0.212-0.492-0.196-1.021,0.04-1.347c0.34-0.468,0.641-1.031,0.896-1.676
		c0.452-1.14,0.585-2.124,0.408-3.01c-0.103-0.511-0.339-1.01-0.665-1.403c-0.185-0.225-0.267-0.572-0.204-0.865
		c0.174-0.81,0.063-1.681-0.306-2.391c-0.585-1.13-1.762-1.921-3.146-2.118c-1.165-0.169-2.174,0.134-2.791,0.777l-0.525,0.452
		c-0.924,0.492-1.614,1.457-1.817,2.555c-0.11,0.597-0.075,1.229,0.103,1.829c0.097,0.328,0.02,0.726-0.208,1.062
		c-1.047,1.549-1.259,3.708-0.528,5.373c0.111,0.252,0.249,0.489,0.41,0.708c0.232,0.311,0.314,0.724,0.22,1.104
		c-0.052,0.206-0.087,0.415-0.106,0.626c-0.082,0.895,0.103,1.766,0.25,2.464c0.155,0.735,0.39,1.847,1.215,2.556
		c0.44,0.378,0.979,0.574,1.575,0.607V46h-5v5h1v1h-5V0H3v52H0v8h3h2h1h32h1h2h5h2h6h2h4v-8H56z M49.167,36.579
		c-0.133-0.626-0.27-1.274-0.215-1.868c0.01-0.108,0.027-0.218,0.055-0.325c0.237-0.956,0.029-1.995-0.556-2.78
		c-0.07-0.096-0.135-0.206-0.184-0.319c-0.459-1.044-0.313-2.461,0.354-3.447c0.568-0.84,0.738-1.844,0.469-2.75
		c-0.087-0.295-0.105-0.614-0.053-0.899c0.096-0.519,0.425-0.979,0.838-1.175l0.91-0.742C50.998,22.052,51.335,22,51.604,22
		c0.129,0,0.242,0.013,0.319,0.023c0.746,0.105,1.363,0.501,1.652,1.058c0.153,0.296,0.201,0.698,0.126,1.052
		c-0.192,0.898,0.038,1.854,0.617,2.557c0.118,0.144,0.208,0.335,0.246,0.524c0.099,0.495-0.001,1.109-0.307,1.88
		c-0.193,0.489-0.414,0.905-0.655,1.237c-0.652,0.899-0.751,2.17-0.257,3.314c0.235,0.545,0.274,1.237,0.102,1.81
		c-0.394,1.301-1.547,2.061-2.199,2.397c-0.129,0.067-0.267,0.129-0.407,0.179c-0.095,0.016-0.188,0.034-0.272,0.074
		c-0.332,0.082-0.648,0.09-0.842-0.076C49.417,37.764,49.267,37.051,49.167,36.579z M47,48h8v1h-8V48z M3,58H2v-4h1V58z M8,58V5h28
		v53H8z M39,58h-1V3H6v55H5v-6V2h34v50V58z M46,58h-5v-4h5V58z M54,58h-6v-6v-1h6v1V58z M58,58h-2v-4h2V58z"/>
</g>
<g>
</g>
<g>
</g>
<g>
</g>
<g>
</g>
<g>
</g>
<g>
</g>
<g>
</g>
<g>
</g>
<g>
</g>
<g>
</g>
<g>
</g>
<g>
</g>
<g>
</g>
<g>
</g>
<g>
</g>
</svg>
