<?xml version="1.0" encoding="iso-8859-1"?>
<!-- Generator: Adobe Illustrator 18.0.0, SVG Export Plug-In . SVG Version: 6.00 Build 0)  -->
<!DOCTYPE svg PUBLIC "-//W3C//DTD SVG 1.1//EN" "http://www.w3.org/Graphics/SVG/1.1/DTD/svg11.dtd">
<svg version="1.1" id="Capa_1" xmlns="http://www.w3.org/2000/svg" xmlns:xlink="http://www.w3.org/1999/xlink" x="0px" y="0px"
	 viewBox="0 0 60 60" style="enable-background:new 0 0 60 60;" xml:space="preserve">
<g>
	<path d="M44,4h-5H21h-5v27h28V4z M37,6v1H23V6H37z M23,24h14v1H23V24z M23,22v-1h14v1H23z M23,19v-1h14v1H23z M23,16v-1h14v1H23z
		 M23,13v-1h14v1H23z M23,10V9h14v1H23z M42,29H18V6h3v1h-1c-0.552,0-1,0.447-1,1s0.448,1,1,1h1v1h-1c-0.552,0-1,0.447-1,1
		s0.448,1,1,1h1v1h-1c-0.552,0-1,0.447-1,1s0.448,1,1,1h1v1h-1c-0.552,0-1,0.447-1,1s0.448,1,1,1h1v1h-1c-0.552,0-1,0.447-1,1
		s0.448,1,1,1h1v1h-1c-0.552,0-1,0.447-1,1s0.448,1,1,1h1v1h-1c-0.552,0-1,0.447-1,1s0.448,1,1,1h1h18h1c0.552,0,1-0.447,1-1
		s-0.448-1-1-1h-1v-1h1c0.552,0,1-0.447,1-1s-0.448-1-1-1h-1v-1h1c0.552,0,1-0.447,1-1s-0.448-1-1-1h-1v-1h1c0.552,0,1-0.447,1-1
		s-0.448-1-1-1h-1v-1h1c0.552,0,1-0.447,1-1s-0.448-1-1-1h-1v-1h1c0.552,0,1-0.447,1-1s-0.448-1-1-1h-1V9h1c0.552,0,1-0.447,1-1
		s-0.448-1-1-1h-1V6h3V29z"/>
	<path d="M44,35H16v21h28V35z M42,54H18V37h24V54z"/>
	<path d="M52,53V0h-4h-2H14h-2H8v7v2v1v2v36v2v1v2H0v7h8h2h2h2h32h2h2h2h8v-7H52z M8,58H2v-3h6V58z M10,2h2v5h-2V2z M10,9h2h1v1h-1
		h-2V9z M10,12h2v36h-2V12z M10,50h2h1v1h-1h-2V50z M12,58h-2v-5h2V58z M46,58H14v-5h1v-5h-1V12h1V7h-1V2h32V58z M50,58h-2V2h2v51
		V58z M58,58h-6v-3h6V58z"/>
	<path d="M21,45c0.256,0,0.512-0.098,0.707-0.293l4-4c0.391-0.391,0.391-1.023,0-1.414s-1.023-0.391-1.414,0l-4,4
		c-0.391,0.391-0.391,1.023,0,1.414C20.488,44.902,20.744,45,21,45z"/>
	<path d="M21,50c0.256,0,0.512-0.098,0.707-0.293l2-2c0.391-0.391,0.391-1.023,0-1.414s-1.023-0.391-1.414,0l-2,2
		c-0.391,0.391-0.391,1.023,0,1.414C20.488,49.902,20.744,50,21,50z"/>
	<path d="M24.29,44.29C24.11,44.479,24,44.74,24,45s0.11,0.52,0.29,0.71C24.48,45.89,24.74,46,25,46c0.26,0,0.52-0.101,0.71-0.29
		C25.89,45.52,26,45.26,26,45s-0.11-0.521-0.29-0.71C25.33,43.92,24.66,43.92,24.29,44.29z"/>
	<path d="M26.293,43.707C26.488,43.902,26.744,44,27,44s0.512-0.098,0.707-0.293l3-3c0.391-0.391,0.391-1.023,0-1.414
		s-1.023-0.391-1.414,0l-3,3C25.902,42.684,25.902,43.316,26.293,43.707z"/>
	<path d="M40,32c-0.552,0-1,0.447-1,1s0.448,1,1,1h4c0.552,0,1-0.447,1-1s-0.448-1-1-1H40z"/>
</g>
<g>
</g>
<g>
</g>
<g>
</g>
<g>
</g>
<g>
</g>
<g>
</g>
<g>
</g>
<g>
</g>
<g>
</g>
<g>
</g>
<g>
</g>
<g>
</g>
<g>
</g>
<g>
</g>
<g>
</g>
</svg>
