<?xml version="1.0" encoding="iso-8859-1"?>
<!-- Generator: Adobe Illustrator 18.0.0, SVG Export Plug-In . SVG Version: 6.00 Build 0)  -->
<!DOCTYPE svg PUBLIC "-//W3C//DTD SVG 1.1//EN" "http://www.w3.org/Graphics/SVG/1.1/DTD/svg11.dtd">
<svg version="1.1" id="Capa_1" xmlns="http://www.w3.org/2000/svg" xmlns:xlink="http://www.w3.org/1999/xlink" x="0px" y="0px"
	 viewBox="0 0 60 60" style="enable-background:new 0 0 60 60;" xml:space="preserve">
<g>
	<path d="M0,0v60h5v-3h50v3h5V0H0z M58,58h-1v-3H3v3H2V2h56V58z"/>
	<path d="M18,54h11h2h11h2h13v-8v-2v-6v-2V13v-2V3H44h-2H31h-2H18h-2H3v8v2v23v2v6v2v8h13H18z M44,5h11v6H44V5z M44,13h11v23H44V13z
		 M44,38h11v6H44V38z M44,46h11v6H44V46z M31,5h11v6H31V5z M31,13h11v23H31V13z M31,38h11v6H31V38z M31,46h11v6H31V46z M18,5h11v6
		H18V5z M18,13h11v23H18V13z M18,38h11v6H18V38z M18,46h11v6H18V46z M5,5h11v6H5V5z M5,13h11v23H5V13z M5,38h11v6H5V38z M5,46h11v6
		H5V46z"/>
	<path d="M14,21c-0.552,0-1,0.447-1,1v4c0,0.553,0.448,1,1,1s1-0.447,1-1v-4C15,21.447,14.552,21,14,21z"/>
	<path d="M20,21c-0.552,0-1,0.447-1,1v4c0,0.553,0.448,1,1,1s1-0.447,1-1v-4C21,21.447,20.552,21,20,21z"/>
	<path d="M40,21c-0.552,0-1,0.447-1,1v4c0,0.553,0.448,1,1,1s1-0.447,1-1v-4C41,21.447,40.552,21,40,21z"/>
	<path d="M46,21c-0.552,0-1,0.447-1,1v4c0,0.553,0.448,1,1,1s1-0.447,1-1v-4C47,21.447,46.552,21,46,21z"/>
	<path d="M12,40H9c-0.552,0-1,0.447-1,1s0.448,1,1,1h3c0.552,0,1-0.447,1-1S12.552,40,12,40z"/>
	<path d="M12,48H9c-0.552,0-1,0.447-1,1s0.448,1,1,1h3c0.552,0,1-0.447,1-1S12.552,48,12,48z"/>
	<path d="M25,40h-3c-0.552,0-1,0.447-1,1s0.448,1,1,1h3c0.552,0,1-0.447,1-1S25.552,40,25,40z"/>
	<path d="M25,48h-3c-0.552,0-1,0.447-1,1s0.448,1,1,1h3c0.552,0,1-0.447,1-1S25.552,48,25,48z"/>
	<path d="M38,40h-3c-0.552,0-1,0.447-1,1s0.448,1,1,1h3c0.552,0,1-0.447,1-1S38.552,40,38,40z"/>
	<path d="M38,48h-3c-0.552,0-1,0.447-1,1s0.448,1,1,1h3c0.552,0,1-0.447,1-1S38.552,48,38,48z"/>
	<path d="M51,40h-3c-0.552,0-1,0.447-1,1s0.448,1,1,1h3c0.552,0,1-0.447,1-1S51.552,40,51,40z"/>
	<path d="M51,48h-3c-0.552,0-1,0.447-1,1s0.448,1,1,1h3c0.552,0,1-0.447,1-1S51.552,48,51,48z"/>
</g>
<g>
</g>
<g>
</g>
<g>
</g>
<g>
</g>
<g>
</g>
<g>
</g>
<g>
</g>
<g>
</g>
<g>
</g>
<g>
</g>
<g>
</g>
<g>
</g>
<g>
</g>
<g>
</g>
<g>
</g>
</svg>
