<?xml version="1.0" encoding="iso-8859-1"?>
<!-- Generator: Adobe Illustrator 18.0.0, SVG Export Plug-In . SVG Version: 6.00 Build 0)  -->
<!DOCTYPE svg PUBLIC "-//W3C//DTD SVG 1.1//EN" "http://www.w3.org/Graphics/SVG/1.1/DTD/svg11.dtd">
<svg version="1.1" id="Capa_1" xmlns="http://www.w3.org/2000/svg" xmlns:xlink="http://www.w3.org/1999/xlink" x="0px" y="0px"
	 viewBox="0 0 60 60" style="enable-background:new 0 0 60 60;" xml:space="preserve">
<g>
	<path d="M18,31h-4c-0.552,0-1,0.447-1,1s0.448,1,1,1h4c0.552,0,1-0.447,1-1S18.552,31,18,31z"/>
	<path d="M46,31h-4c-0.552,0-1,0.447-1,1s0.448,1,1,1h4c0.552,0,1-0.447,1-1S46.552,31,46,31z"/>
	<path d="M59,28h-9V6c0-0.379-0.214-0.725-0.553-0.895l-10-5c-0.012-0.006-0.025-0.008-0.037-0.013
		c-0.022-0.01-0.044-0.015-0.067-0.023c-0.1-0.037-0.202-0.058-0.306-0.062C39.024,0.007,39.013,0,39,0H21
		c-0.013,0-0.024,0.007-0.037,0.008c-0.104,0.004-0.206,0.025-0.306,0.062c-0.023,0.008-0.045,0.014-0.067,0.023
		c-0.012,0.005-0.025,0.007-0.037,0.013l-10,5C10.214,5.275,10,5.621,10,6v22H1c-0.552,0-1,0.447-1,1s0.448,1,1,1v6h2v24h5V36h21h2
		h21v24h5V36h2v-6c0.553,0,1-0.447,1-1S59.553,28,59,28z M48,28h-8V2.618l8,4V28z M38,28h-7h-2h-7V2h16V28z M12,6.618l8-4V28h-8
		V6.618z M6,58H5V36h1V58z M29,34H8H3v-4h8h10h8V34z M55,58h-1V36h1V58z M57,34h-5H31v-4h8h10h8V34z"/>
</g>
<g>
</g>
<g>
</g>
<g>
</g>
<g>
</g>
<g>
</g>
<g>
</g>
<g>
</g>
<g>
</g>
<g>
</g>
<g>
</g>
<g>
</g>
<g>
</g>
<g>
</g>
<g>
</g>
<g>
</g>
</svg>
