<?xml version="1.0" encoding="iso-8859-1"?>
<!-- Generator: Adobe Illustrator 18.0.0, SVG Export Plug-In . SVG Version: 6.00 Build 0)  -->
<!DOCTYPE svg PUBLIC "-//W3C//DTD SVG 1.1//EN" "http://www.w3.org/Graphics/SVG/1.1/DTD/svg11.dtd">
<svg version="1.1" id="Capa_1" xmlns="http://www.w3.org/2000/svg" xmlns:xlink="http://www.w3.org/1999/xlink" x="0px" y="0px"
	 viewBox="0 0 60 60" style="enable-background:new 0 0 60 60;" xml:space="preserve">
<g>
	<path d="M55,46v-2v-6v-2v-6V19h5v-7h-6V2h-4V0h-6v3h-2.84c-0.434,0-0.838,0.215-1.081,0.578l-5.6,8.4
		c-0.005,0.007-0.006,0.015-0.01,0.021H30v-0.911C30.331,10.655,32.115,10,33,10V8H19v2c0.885,0,2.669,0.655,3,1.089V12h-9v-0.911
		C13.331,10.655,15.115,10,16,10V8H2v2c0.885,0,2.669,0.655,3,1.089V12H0v7h5v11v6v2v6v2v6v2H0v6h14h2h14.392h0.067H43h2h14v-6h-4
		v-2V46z M53,46h-4v-2h4V46z M49,48h4v2h-4V48z M49,40h4v2h-4V40z M53,38h-4v-2h4V38z M49,32h4v2h-4V32z M52,4v8h-2V4H52z M46,2h2
		v10h-2V2z M44,12h-3.131L44,7.302V12z M41.535,5h1.597l-4.666,7h-1.597L41.535,5z M23.669,10h4.661C28.123,10.298,28,10.631,28,11
		v1h-4v-1C24,10.631,23.877,10.298,23.669,10z M6.669,10h4.661C11.123,10.298,11,10.631,11,11v1H7v-1
		C7,10.631,6.877,10.298,6.669,10z M7,19h5c0.552,0,1-0.447,1-1s-0.448-1-1-1H7H6H2v-3h3h8h9h8h5.559h3.281H44h4h2h4h4v3h-4h-1h-5
		c-0.552,0-1,0.447-1,1s0.448,1,1,1h5v11h-4v-3H11v3H7V19z M11,34H7v-2h4V34z M7,36h4v2H7V36z M11,42H7v-2h4V42z M7,44h4v2H7V44z
		 M11,50H7v-2h4V50z M7,52h4v2H7V52z M14,58H2v-2h3h6h3V58z M23.997,55.074c-1.948-2.221-2.577-5.287-1.792-8.046
		c0.86,2.026,1.848,3.437,1.904,3.517c0.275,0.389,0.772,0.474,1.209,0.279c0.436-0.193,0.662-0.725,0.558-1.189
		c-0.894-4.021,0.24-8.321,3.033-11.502l1.457-1.66c1.73,2.975,2.607,5.992,2.607,8.979c0,0.484,0.347,0.898,0.823,0.984
		c0.48,0.084,0.946-0.183,1.114-0.637c0.027-0.073,0.515-1.399,0.899-3.341l0.948,1.079c0,0.001,0,0.001,0,0.001
		c2.97,3.383,3.009,8.378,0.092,11.618c-1.641,1.821-4.016,2.842-6.443,2.843C27.951,57.984,25.616,56.918,23.997,55.074z M43,54v4
		h-6.347c0.607-0.437,1.172-0.94,1.681-1.505c3.596-3.993,3.563-10.131-0.075-14.275L35.9,39.532
		c-0.262-0.299-0.674-0.414-1.052-0.295c-0.378,0.119-0.65,0.45-0.693,0.845c-0.001,0.009-0.002,0.019-0.003,0.027
		c-0.564-1.837-1.418-3.663-2.558-5.466c-0.028-0.045-0.06-0.086-0.094-0.126l-0.289-0.329c-0.38-0.432-1.124-0.432-1.503,0
		l-2.303,2.624c-2.116,2.41-3.402,5.383-3.74,8.455c-0.138-0.388-0.264-0.791-0.372-1.204c-0.101-0.387-0.421-0.676-0.816-0.736
		c-0.396-0.061-0.788,0.12-1,0.458c-2.463,3.935-2.046,9.119,1.016,12.608c0.534,0.608,1.135,1.142,1.782,1.606H16v-4h-3v-2v-6v-2
		v-6v-2v-6v-1h34v1v6v2v6v2v6v2H43z M57,56v2H45v-2h4h6H57z M53,54h-4v-2h4V54z"/>
	<path d="M26,22.414l4,4l4-4l4,4L43.414,21L38,15.586l-4,4l-4-4l-4,4l-4-4L16.586,21L22,26.414L26,22.414z M38,18.414L40.586,21
		L38,23.586L35.414,21L38,18.414z M30,18.414L32.586,21L30,23.586L27.414,21L30,18.414z M22,18.414L24.586,21L22,23.586L19.414,21
		L22,18.414z"/>
</g>
<g>
</g>
<g>
</g>
<g>
</g>
<g>
</g>
<g>
</g>
<g>
</g>
<g>
</g>
<g>
</g>
<g>
</g>
<g>
</g>
<g>
</g>
<g>
</g>
<g>
</g>
<g>
</g>
<g>
</g>
</svg>
