<?xml version="1.0" encoding="iso-8859-1"?>
<!-- Generator: Adobe Illustrator 18.0.0, SVG Export Plug-In . SVG Version: 6.00 Build 0)  -->
<!DOCTYPE svg PUBLIC "-//W3C//DTD SVG 1.1//EN" "http://www.w3.org/Graphics/SVG/1.1/DTD/svg11.dtd">
<svg version="1.1" id="Capa_1" xmlns="http://www.w3.org/2000/svg" xmlns:xlink="http://www.w3.org/1999/xlink" x="0px" y="0px"
	 viewBox="0 0 60 60" style="enable-background:new 0 0 60 60;" xml:space="preserve">
<g>
	<path d="M8,31c-0.552,0-1,0.447-1,1v21c0,0.553,0.448,1,1,1s1-0.447,1-1V32C9,31.447,8.552,31,8,31z"/>
	<path d="M52,54c0.552,0,1-0.447,1-1V32c0-0.553-0.448-1-1-1s-1,0.447-1,1v21C51,53.553,51.448,54,52,54z"/>
	<path d="M59,23h-1h-8.42l-8-14H41V6h-1V3h-1V0H21v3h-1v3h-1v3h-0.58l-8,14H2H1c-0.552,0-1,0.447-1,1s0.448,1,1,1h1v5h2v25H2v5h56
		v-5h-2V30h2v-5h1c0.552,0,1-0.447,1-1S59.552,23,59,23z M23,2h14v1H23V2z M22,5h16v1H22V5z M21,8h18v1H21V8z M19.58,11h20.84
		l6.857,12H12.723L19.58,11z M6,30h4v25H6V30z M48,55h-5h-2c-1.302,0-2.402-0.839-2.816-2H41v-6h-4.084
		c1.726-2.992,1.398-6.907-0.981-9.668l-1.726-2.003c-0.261-0.303-0.677-0.422-1.055-0.303c-0.141,0.044-0.268,0.117-0.373,0.213
		c-0.411-1.184-0.979-2.359-1.7-3.521c-0.027-0.044-0.058-0.086-0.092-0.126l-0.211-0.245C30.587,31.127,30.311,31,30.02,31h0
		c-0.291,0-0.567,0.127-0.757,0.348l-1.685,1.956c-1.324,1.535-2.213,3.372-2.616,5.3c-0.145-0.284-0.418-0.487-0.742-0.536
		c-0.395-0.056-0.791,0.122-1.002,0.465c-1.622,2.638-1.612,5.879-0.091,8.468H18v6h3.816c-0.414,1.161-1.514,2-2.816,2h-2h-5V30h36
		V55z M26.929,42.969c-0.638-2.923,0.171-6.048,2.164-8.36l0.81-0.939c1.121,2.069,1.688,4.162,1.688,6.233
		c0,0.485,0.348,0.9,0.826,0.984c0.481,0.09,0.948-0.186,1.113-0.642c0.018-0.049,0.296-0.821,0.557-1.994l0.333,0.386
		c2.093,2.429,2.123,6.013,0.069,8.336c-0.071,0.08-0.149,0.152-0.224,0.228l-0.087,0.085c-0.286,0.28-0.593,0.524-0.913,0.735
		c-0.013,0.008-0.025,0.017-0.038,0.025c-0.306,0.198-0.626,0.363-0.954,0.499c-0.04,0.017-0.081,0.032-0.121,0.047
		c-0.317,0.123-0.64,0.22-0.969,0.287c-0.047,0.009-0.094,0.015-0.141,0.023c-0.331,0.059-0.665,0.095-1,0.096
		c-0.007,0-0.014,0.001-0.021,0.001c-0.005,0-0.009,0-0.014,0c-0.332-0.001-0.664-0.038-0.992-0.095
		c-0.06-0.01-0.121-0.018-0.181-0.031c-0.316-0.065-0.627-0.158-0.931-0.276c-0.055-0.021-0.11-0.043-0.164-0.066
		c-0.314-0.132-0.621-0.289-0.914-0.479c-0.024-0.015-0.047-0.032-0.071-0.048c-0.313-0.208-0.613-0.446-0.893-0.72l-0.044-0.043
		c-0.108-0.107-0.216-0.214-0.317-0.33c-1.191-1.383-1.68-3.223-1.427-4.979c0.536,1.118,1.042,1.854,1.077,1.905
		c0.272,0.391,0.773,0.494,1.211,0.303C26.798,43.951,27.031,43.435,26.929,42.969z M30.358,51c0.082-0.004,0.162-0.025,0.244-0.031
		c0.284-0.021,0.565-0.057,0.844-0.108c0.117-0.022,0.233-0.04,0.349-0.067c0.333-0.077,0.659-0.18,0.979-0.299
		c0.099-0.037,0.196-0.074,0.294-0.115c0.365-0.153,0.72-0.329,1.06-0.535c0.024-0.015,0.046-0.031,0.07-0.046
		c0.379-0.235,0.74-0.501,1.077-0.798H39v2H30.358z M24.766,49c0.013,0.012,0.029,0.02,0.042,0.031
		c0.325,0.283,0.668,0.542,1.031,0.767c0.022,0.014,0.042,0.03,0.064,0.043c0.329,0.2,0.674,0.368,1.027,0.518
		c0.113,0.048,0.226,0.094,0.34,0.137c0.331,0.123,0.668,0.232,1.013,0.31c0.118,0.027,0.237,0.039,0.356,0.061
		c0.256,0.046,0.514,0.079,0.775,0.099c0.088,0.007,0.175,0.03,0.263,0.034H20v-2H24.766z M36.101,53
		c0.152,0.743,0.482,1.416,0.924,2H22.974c0.442-0.584,0.773-1.257,0.924-2H36.101z M56,58H4v-1h6h2h5h2h22h2h5h2h6V58z M54,55h-4
		V30h4V55z M56,28h-6h-2H12h-2H4v-3h5.277h41.446H56V28z"/>
</g>
<g>
</g>
<g>
</g>
<g>
</g>
<g>
</g>
<g>
</g>
<g>
</g>
<g>
</g>
<g>
</g>
<g>
</g>
<g>
</g>
<g>
</g>
<g>
</g>
<g>
</g>
<g>
</g>
<g>
</g>
</svg>
