<?xml version="1.0" encoding="iso-8859-1"?>
<!-- Generator: Adobe Illustrator 18.0.0, SVG Export Plug-In . SVG Version: 6.00 Build 0)  -->
<!DOCTYPE svg PUBLIC "-//W3C//DTD SVG 1.1//EN" "http://www.w3.org/Graphics/SVG/1.1/DTD/svg11.dtd">
<svg version="1.1" id="Capa_1" xmlns="http://www.w3.org/2000/svg" xmlns:xlink="http://www.w3.org/1999/xlink" x="0px" y="0px"
	 viewBox="0 0 60 60" style="enable-background:new 0 0 60 60;" xml:space="preserve">
<path d="M60,18h-4V6H46v12h-1v-8H31v8h-1V8H18v10h-3.727c0.024-0.081,0.055-0.158,0.072-0.242c0.192-0.968-0.124-1.944-0.845-2.612
	c-0.805-0.744-1.319-1.548-1.529-2.389L11.781,12H10V9V8.858C11.72,8.411,13,6.859,13,5V0h-3H8H5v5c0,1.859,1.28,3.411,3,3.858V9v3
	H6.619L6.43,12.758c-0.21,0.84-0.724,1.644-1.529,2.388c-0.721,0.668-1.038,1.645-0.845,2.611C4.072,17.841,4.103,17.919,4.127,18H0
	v7h2v35h18h20h18V25h2V18z M10,2h1v3c0,0.739-0.403,1.386-1,1.731V2z M7,5V2h1v4.731C7.403,6.386,7,5.739,7,5z M48,8h6v10h-6V8z
	 M33,12h10v6H33V12z M20,10h8v8h-8V10z M6.017,17.367c-0.081-0.403,0.142-0.661,0.242-0.753C7.125,15.813,7.75,14.937,8.125,14
	h2.151c0.375,0.937,1,1.813,1.866,2.614c0.1,0.092,0.322,0.35,0.242,0.754C12.312,17.729,11.941,18,11.521,18H6.879
	C6.459,18,6.088,17.729,6.017,17.367z M22,58v-2h16v2H22z M26.929,45.969c-0.638-2.923,0.171-6.048,2.164-8.36l0.81-0.939
	c1.121,2.069,1.688,4.162,1.688,6.233c0,0.485,0.348,0.9,0.826,0.984c0.479,0.088,0.947-0.187,1.113-0.642
	c0.018-0.049,0.296-0.821,0.557-1.994l0.333,0.386c2.093,2.429,2.123,6.013,0.069,8.336c-0.065,0.073-0.136,0.138-0.204,0.208
	l-0.107,0.105c-0.87,0.853-1.924,1.385-3.025,1.602c-0.02,0.004-0.04,0.006-0.06,0.009c-0.337,0.063-0.678,0.095-1.02,0.098
	c-0.025,0-0.05,0.004-0.075,0.004c-0.33-0.001-0.658-0.038-0.984-0.094c-0.061-0.01-0.122-0.019-0.182-0.031
	c-0.315-0.065-0.626-0.158-0.93-0.275c-0.056-0.021-0.111-0.044-0.166-0.067c-0.313-0.132-0.62-0.289-0.912-0.478
	c-0.025-0.016-0.048-0.033-0.073-0.049c-0.313-0.208-0.613-0.445-0.892-0.719l-0.044-0.043c-0.108-0.107-0.216-0.214-0.317-0.33
	c-1.191-1.383-1.68-3.223-1.427-4.979c0.536,1.118,1.042,1.854,1.077,1.905c0.272,0.391,0.773,0.494,1.211,0.303
	C26.798,46.951,27.031,46.435,26.929,45.969z M36,54h-5.642c0.082-0.004,0.162-0.025,0.244-0.031
	c0.284-0.021,0.565-0.057,0.844-0.108c0.117-0.022,0.233-0.04,0.349-0.067c0.333-0.077,0.659-0.18,0.979-0.299
	c0.099-0.037,0.196-0.074,0.294-0.115c0.365-0.153,0.72-0.329,1.06-0.535c0.024-0.015,0.046-0.031,0.07-0.046
	c0.379-0.235,0.74-0.501,1.077-0.798H36V54z M24,52h0.766c0.013,0.012,0.029,0.02,0.042,0.031c0.325,0.283,0.668,0.542,1.031,0.767
	c0.022,0.014,0.042,0.03,0.064,0.043c0.329,0.2,0.674,0.368,1.027,0.518c0.113,0.048,0.226,0.094,0.34,0.137
	c0.331,0.123,0.668,0.232,1.013,0.31c0.118,0.027,0.237,0.039,0.356,0.061c0.256,0.046,0.514,0.079,0.775,0.099
	c0.088,0.007,0.175,0.03,0.263,0.034H24V52z M49,58h-9v-4h-2v-4h-1.084c1.726-2.992,1.398-6.907-0.981-9.668l-1.726-2.003
	c-0.26-0.303-0.677-0.421-1.055-0.303c-0.141,0.044-0.268,0.117-0.373,0.213c-0.411-1.184-0.979-2.359-1.7-3.521
	c-0.027-0.044-0.058-0.086-0.092-0.126l-0.211-0.245C30.587,34.127,30.311,34,30.02,34h0c-0.291,0-0.567,0.127-0.757,0.348
	l-1.685,1.956c-1.324,1.535-2.213,3.372-2.616,5.3c-0.145-0.284-0.418-0.487-0.742-0.536c-0.396-0.058-0.792,0.123-1.002,0.465
	c-1.622,2.638-1.612,5.879-0.091,8.468H22v4h-2v4h-9V37.535l3-2V33h32v2.535l3,2V58z M56,58h-5V36.465l-3-2V31H12v3.465l-3,2V58H4
	V25h1v2c0,0.553,0.448,1,1,1s1-0.447,1-1v-2h1v2c0,0.553,0.448,1,1,1s1-0.447,1-1v-2h1v2c0,0.553,0.448,1,1,1s1-0.447,1-1v-2h1v2
	c0,0.553,0.448,1,1,1s1-0.447,1-1v-2h1v2c0,0.553,0.448,1,1,1s1-0.447,1-1v-2h1v2c0,0.553,0.448,1,1,1s1-0.447,1-1v-2h1v2
	c0,0.553,0.448,1,1,1s1-0.447,1-1v-2h1v2c0,0.553,0.448,1,1,1s1-0.447,1-1v-2h1v2c0,0.553,0.448,1,1,1s1-0.447,1-1v-2h1v2
	c0,0.553,0.448,1,1,1s1-0.447,1-1v-2h1v2c0,0.553,0.448,1,1,1s1-0.447,1-1v-2h1v2c0,0.553,0.448,1,1,1s1-0.447,1-1v-2h1v2
	c0,0.553,0.448,1,1,1s1-0.447,1-1v-2h1v2c0,0.553,0.448,1,1,1s1-0.447,1-1v-2h1v2c0,0.553,0.448,1,1,1s1-0.447,1-1v-2h1v2
	c0,0.553,0.448,1,1,1s1-0.447,1-1v-2h1v2c0,0.553,0.448,1,1,1s1-0.447,1-1v-2h1V58z M58,23H2v-3h4.879h4.642H18h12h1h14h1h10h2V23z"
	/>
<g>
</g>
<g>
</g>
<g>
</g>
<g>
</g>
<g>
</g>
<g>
</g>
<g>
</g>
<g>
</g>
<g>
</g>
<g>
</g>
<g>
</g>
<g>
</g>
<g>
</g>
<g>
</g>
<g>
</g>
</svg>
