<?xml version="1.0" encoding="iso-8859-1"?>
<!-- Generator: Adobe Illustrator 18.0.0, SVG Export Plug-In . SVG Version: 6.00 Build 0)  -->
<!DOCTYPE svg PUBLIC "-//W3C//DTD SVG 1.1//EN" "http://www.w3.org/Graphics/SVG/1.1/DTD/svg11.dtd">
<svg version="1.1" id="Capa_1" xmlns="http://www.w3.org/2000/svg" xmlns:xlink="http://www.w3.org/1999/xlink" x="0px" y="0px"
	 viewBox="0 0 55 55" style="enable-background:new 0 0 55 55;" xml:space="preserve">
<g>
	<path d="M21.5,44h6c0.552,0,1-0.447,1-1s-0.448-1-1-1h-6c-0.552,0-1,0.447-1,1S20.948,44,21.5,44z"/>
	<path d="M30.5,44c0.26,0,0.52-0.11,0.71-0.29c0.18-0.19,0.29-0.45,0.29-0.71c0-0.271-0.11-0.53-0.29-0.71
		c-0.37-0.36-1.04-0.37-1.42,0c-0.18,0.189-0.29,0.439-0.29,0.71c0,0.26,0.11,0.52,0.29,0.71C29.98,43.89,30.24,44,30.5,44z"/>
	<path d="M26.5,45h-2c-0.552,0-1,0.447-1,1s0.448,1,1,1h2c0.552,0,1-0.447,1-1S27.052,45,26.5,45z"/>
	<path d="M21.5,47c0.26,0,0.52-0.11,0.71-0.29c0.18-0.19,0.29-0.45,0.29-0.71s-0.11-0.521-0.29-0.71c-0.37-0.37-1.04-0.37-1.42,0
		c-0.18,0.189-0.29,0.45-0.29,0.71c0,0.27,0.11,0.52,0.29,0.71C20.98,46.89,21.24,47,21.5,47z"/>
	<circle cx="19.5" cy="16" r="1"/>
	<circle cx="31.5" cy="9" r="1"/>
	<circle cx="32.5" cy="22" r="1"/>
	<path d="M47.5,18c-2.43,0-4.697,0.682-6.645,1.847c-0.232-0.359-0.519-0.683-0.855-0.953c0.134-1.195-0.272-2.395-1.136-3.258
		c-0.229-0.229-0.484-0.421-0.754-0.584c0.678-0.83,1.009-1.883,0.89-2.947c0.939-0.751,1.5-1.885,1.5-3.106S39.94,6.645,39,5.894
		c0.134-1.195-0.272-2.394-1.136-3.257C37,1.772,35.803,1.366,34.607,1.499C33.856,0.56,32.722,0,31.5,0s-2.356,0.56-3.107,1.499
		C27.201,1.367,26,1.772,25.136,2.637C24.272,3.5,23.866,4.698,24,5.894c-0.797,0.637-1.297,1.555-1.437,2.563
		C21.811,7.546,20.701,7,19.5,7c-1.222,0-2.356,0.56-3.107,1.499C15.198,8.369,14,8.772,13.136,9.637
		C12.272,10.5,11.866,11.698,12,12.894c-0.939,0.751-1.5,1.885-1.5,3.106c0,0.504,0.117,0.985,0.295,1.439
		C9.741,17.163,8.64,17,7.5,17h-1v1c0,6.831,5.299,12.436,12,12.949V33h-7v8h2.61l3.615,14h17.549l3.615-14h2.61v-8h-5v-1.051
		c6.701-0.514,12-6.119,12-12.949v-1H47.5z M39.214,20.992c-0.148,0.123-0.284,0.258-0.426,0.387
		c-0.112,0.102-0.228,0.201-0.336,0.306c-0.137,0.133-0.267,0.272-0.398,0.411c-0.132,0.14-0.262,0.281-0.388,0.426
		c-0.113,0.131-0.224,0.262-0.331,0.397c-0.147,0.184-0.286,0.373-0.423,0.565c-0.078,0.109-0.16,0.215-0.234,0.327
		c-0.199,0.298-0.384,0.604-0.557,0.917c-0.061,0.109-0.114,0.223-0.172,0.334c-0.116,0.225-0.228,0.453-0.331,0.686
		c-0.06,0.135-0.117,0.272-0.173,0.41c-0.092,0.229-0.176,0.461-0.255,0.696c-0.044,0.131-0.092,0.26-0.132,0.392
		c-0.006,0.021-0.015,0.041-0.021,0.062l-0.39-0.121l-0.387,0.736C33.911,28.587,33.236,29,32.5,29s-1.411-0.413-1.76-1.078
		l-0.387-0.737l-0.795,0.247c-0.719,0.224-1.487,0.038-2.007-0.482s-0.705-1.289-0.482-2.007l0.247-0.795l-0.737-0.387
		c-0.055-0.029-0.097-0.072-0.148-0.105c-0.104-0.28-0.326-0.493-0.608-0.59C25.619,22.751,25.5,22.386,25.5,22
		c0-0.181,0.026-0.359,0.074-0.529c0.014-0.052,0.043-0.097,0.062-0.147c0.042-0.113,0.083-0.226,0.145-0.33
		c0.051-0.085,0.121-0.159,0.185-0.236c0.046-0.055,0.084-0.116,0.136-0.167c0.093-0.09,0.204-0.165,0.315-0.239
		c0.045-0.03,0.083-0.066,0.13-0.093l0.119-0.068l0.648-0.34l-0.247-0.795c-0.053-0.171-0.08-0.345-0.088-0.518
		c-0.002-0.049,0.007-0.095,0.008-0.143c0.003-0.118,0.012-0.236,0.036-0.351c0.01-0.052,0.026-0.103,0.041-0.154
		c0.033-0.113,0.075-0.223,0.128-0.328c0.02-0.04,0.038-0.082,0.061-0.12c0.083-0.14,0.178-0.275,0.297-0.393
		c0.032-0.032,0.072-0.051,0.106-0.08c0.099-0.086,0.199-0.173,0.32-0.24l0.024-0.013c0.264-0.144,0.559-0.212,0.861-0.225
		l0.065-0.001c0.088-0.002,0.164,0.005,0.242,0.011c0.13,0.014,0.26,0.026,0.388,0.066l0.795,0.247l0.387-0.737
		C31.089,15.413,31.764,15,32.5,15c0.181,0,0.358,0.026,0.528,0.074c0.054,0.015,0.101,0.045,0.153,0.065
		c0.11,0.041,0.221,0.081,0.322,0.141c0.086,0.052,0.161,0.121,0.239,0.186c0.054,0.045,0.113,0.083,0.163,0.133
		c0.09,0.093,0.165,0.202,0.238,0.313c0.03,0.046,0.068,0.084,0.094,0.133l0.068,0.117l0.343,0.653l0.795-0.247
		c0.719-0.224,1.487-0.038,2.007,0.482s0.705,1.289,0.482,2.007l-0.247,0.794l0.736,0.388
		C38.755,20.415,39.027,20.677,39.214,20.992z M30.5,33v-2.568c0.314,0.185,0.645,0.336,1,0.428V33H30.5z M26.5,33v-4.347
		c0.586,0.462,1.271,0.764,2,0.846V33H26.5z M23.5,33v-9.515c0.1-0.011,0.2-0.018,0.298-0.037c0.168,0.424,0.4,0.814,0.702,1.158V33
		H23.5z M25.579,7.239l0.737-0.387l-0.247-0.795c-0.223-0.718-0.039-1.486,0.482-2.007c0.375-0.375,0.877-0.575,1.397-0.575
		c0.203,0,0.408,0.03,0.609,0.093l0.795,0.247l0.387-0.737C30.089,2.413,30.764,2,31.5,2s1.411,0.413,1.76,1.078l0.387,0.737
		l0.795-0.247c0.718-0.223,1.487-0.039,2.007,0.482c0.521,0.521,0.705,1.289,0.482,2.007l-0.247,0.795l0.737,0.387
		C38.087,7.59,38.5,8.264,38.5,9s-0.413,1.41-1.079,1.761l-0.737,0.387l0.247,0.795c0.223,0.718,0.039,1.486-0.482,2.008
		c-0.244,0.244-0.551,0.414-0.892,0.498c-0.009-0.01-0.02-0.018-0.029-0.028c-0.561-0.664-1.313-1.13-2.154-1.32
		C33.089,13.034,32.797,13,32.5,13c-0.301,0-0.595,0.035-0.881,0.101c-0.096,0.022-0.184,0.066-0.278,0.095
		c-0.185,0.057-0.371,0.11-0.544,0.192c-0.106,0.05-0.2,0.122-0.301,0.182c-0.148,0.088-0.3,0.169-0.436,0.275
		c-0.099,0.077-0.182,0.173-0.273,0.26c-0.107,0.101-0.223,0.19-0.318,0.303l-0.117-0.223l-0.794,0.247
		c-0.293,0.091-0.593,0.098-0.884,0.057l-0.061-0.01c-0.419-0.071-0.77-0.247-1.046-0.517c-0.005-0.005-0.012-0.008-0.017-0.013h0
		c-0.521-0.521-0.705-1.289-0.482-2.007l0.247-0.795l-0.737-0.387c-0.154-0.081-0.29-0.183-0.415-0.295
		c-0.042-0.038-0.077-0.083-0.116-0.124c-0.073-0.078-0.142-0.159-0.202-0.248c-0.04-0.06-0.075-0.124-0.109-0.188
		c-0.04-0.076-0.074-0.155-0.104-0.236c-0.029-0.08-0.056-0.16-0.074-0.244C24.528,9.287,24.5,9.146,24.5,9
		C24.5,8.264,24.913,7.59,25.579,7.239z M14.108,18.813l0.208-0.665l-0.737-0.388C12.913,17.41,12.5,16.736,12.5,16
		s0.413-1.41,1.079-1.761l0.737-0.387l-0.247-0.795c-0.223-0.718-0.039-1.486,0.482-2.007c0.521-0.521,1.289-0.706,2.007-0.482
		l0.795,0.247l0.387-0.737C18.089,9.413,18.764,9,19.5,9s1.411,0.413,1.76,1.078l0.388,0.737l0.795-0.247
		c0.113-0.035,0.231-0.06,0.354-0.071c0.019,0.048,0.046,0.092,0.067,0.139c0.027,0.059,0.054,0.116,0.083,0.173
		c0.114,0.223,0.246,0.435,0.4,0.632c0.023,0.03,0.049,0.057,0.073,0.085c0.174,0.21,0.364,0.408,0.58,0.581
		c-0.033,0.299-0.033,0.597,0,0.891c0.025,0.224,0.086,0.44,0.148,0.655c0.182,0.634,0.505,1.227,0.989,1.71
		c0.223,0.223,0.468,0.413,0.73,0.574c-0.086,0.106-0.159,0.22-0.234,0.334c-0.023,0.034-0.049,0.066-0.071,0.101
		c-0.128,0.211-0.231,0.435-0.318,0.666c-0.029,0.075-0.053,0.15-0.077,0.228c-0.067,0.215-0.119,0.434-0.149,0.659
		c-0.003,0.021-0.011,0.04-0.014,0.061l-0.316,0.169l0.245,0.787c0.001,0.004,0.002,0.007,0.003,0.011
		c-0.191,0.16-0.365,0.337-0.522,0.527c-0.081,0.098-0.143,0.208-0.214,0.313c-0.082,0.12-0.164,0.239-0.232,0.367
		c-0.058,0.111-0.104,0.225-0.151,0.341c-0.059,0.143-0.112,0.286-0.154,0.435c-0.03,0.109-0.057,0.217-0.078,0.328
		c-0.013,0.067-0.037,0.13-0.047,0.198c-0.355,0.089-0.737,0.081-1.094-0.031l-0.795-0.247l-0.387,0.737
		C20.911,22.587,20.236,23,19.5,23s-1.411-0.413-1.76-1.078l-0.398-0.758l-0.234,0.08c-0.057-0.063-0.127-0.113-0.186-0.175
		c-0.373-0.394-0.763-0.771-1.183-1.116c-0.053-0.043-0.111-0.081-0.165-0.123c-0.423-0.336-0.869-0.641-1.332-0.924
		C14.195,18.878,14.156,18.841,14.108,18.813z M8.55,19.05c1.303,0.124,2.54,0.476,3.671,1.016l0.087,0.045
		c0.101,0.049,0.197,0.106,0.296,0.158c0.274,0.144,0.54,0.3,0.798,0.464c0.07,0.044,0.139,0.089,0.208,0.135
		c0.213,0.142,0.419,0.294,0.62,0.45c0.09,0.07,0.183,0.137,0.271,0.21c0.18,0.148,0.352,0.308,0.522,0.467
		c0.148,0.139,0.292,0.281,0.432,0.427c0.164,0.171,0.326,0.344,0.479,0.527c1.389,1.658,2.3,3.73,2.516,6.001
		C13.221,28.453,9.047,24.279,8.55,19.05z M20.5,31v-1v-5.139c0.355-0.093,0.686-0.244,1-0.429V33h-1V31z M33.726,53H19.274
		l-3.099-12h20.648L33.726,53z M39.5,39h-0.094H13.594H13.5v-4h26V39z M33.5,33v-2.139c0.367-0.096,0.708-0.254,1.03-0.448
		C34.521,30.609,34.5,30.802,34.5,31v1v1H33.5z M36.55,29.95c0.047-0.498,0.138-0.983,0.25-1.459
		c0.051-0.217,0.105-0.434,0.169-0.646c0.033-0.108,0.07-0.215,0.105-0.322c0.067-0.202,0.138-0.402,0.217-0.599
		c0.043-0.107,0.09-0.213,0.136-0.319c0.085-0.194,0.174-0.385,0.27-0.573c0.051-0.099,0.103-0.197,0.157-0.295
		c0.105-0.192,0.216-0.381,0.332-0.567c0.053-0.084,0.107-0.168,0.162-0.251c0.132-0.198,0.27-0.391,0.415-0.58
		c0.048-0.063,0.096-0.125,0.145-0.187c0.168-0.209,0.343-0.413,0.526-0.61c0.033-0.035,0.065-0.072,0.098-0.106
		c0.217-0.228,0.443-0.448,0.68-0.657c0.003-0.003,0.006-0.005,0.009-0.008c0.251-0.222,0.514-0.434,0.787-0.634l0.247-0.181
		c1.505-1.042,3.278-1.722,5.195-1.905C45.953,25.279,41.779,29.453,36.55,29.95z"/>
</g>
<g>
</g>
<g>
</g>
<g>
</g>
<g>
</g>
<g>
</g>
<g>
</g>
<g>
</g>
<g>
</g>
<g>
</g>
<g>
</g>
<g>
</g>
<g>
</g>
<g>
</g>
<g>
</g>
<g>
</g>
</svg>
