<?xml version="1.0" encoding="iso-8859-1"?>
<!-- Generator: Adobe Illustrator 18.0.0, SVG Export Plug-In . SVG Version: 6.00 Build 0)  -->
<!DOCTYPE svg PUBLIC "-//W3C//DTD SVG 1.1//EN" "http://www.w3.org/Graphics/SVG/1.1/DTD/svg11.dtd">
<svg version="1.1" id="Capa_1" xmlns="http://www.w3.org/2000/svg" xmlns:xlink="http://www.w3.org/1999/xlink" x="0px" y="0px"
	 viewBox="0 0 60 60" style="enable-background:new 0 0 60 60;" xml:space="preserve">
<path d="M51,23v-2h2c0.553,0,1-0.447,1-1s-0.447-1-1-1h-2.527C50.799,18.428,51,17.776,51,17.072V8V6h2c0.553,0,1-0.447,1-1
	s-0.447-1-1-1h-3h-0.031c-0.159-2.229-2.004-4-4.273-4H14.304c-2.269,0-4.114,1.771-4.273,4H10H7C6.447,4,6,4.447,6,5s0.447,1,1,1h2
	v2v9.072C9,17.776,9.201,18.428,9.527,19H7c-0.553,0-1,0.447-1,1s0.447,1,1,1h2v2v7.072C9,30.776,9.201,31.428,9.527,32H7
	c-0.553,0-1,0.447-1,1s0.447,1,1,1h2v2v6.072c0,1.845,1.283,3.385,3,3.805v5.792V59c0,0.553,0.447,1,1,1h34c0.553,0,1-0.447,1-1
	v-7.33v-5.792c1.717-0.42,3-1.96,3-3.805V36v-2h2c0.553,0,1-0.447,1-1s-0.447-1-1-1h-2.527C50.799,31.428,51,30.776,51,30.072V23z
	 M47.072,32H12.928C11.865,32,11,31.135,11,30.072V24h38v6.072C49,31.135,48.135,32,47.072,32z M11,17.072V9h38v8.072
	C49,18.135,48.135,19,47.072,19H12.928C11.865,19,11,18.135,11,17.072z M14.304,2h31.393c1.167,0,2.135,0.873,2.284,2H12.02
	C12.169,2.873,13.137,2,14.304,2z M49,6v1H11V6H49z M12.928,21h34.145H49v1H11v-1H12.928z M46,50.271
	c-3.728-1.206-8.158-1.957-12.93-2.188C32.22,47.415,31.162,47,30,47s-2.22,0.415-3.07,1.083c-4.772,0.231-9.202,0.981-12.93,2.188
	V46h32V50.271z M27.064,51.387c0.004-0.018,0.012-0.034,0.016-0.052c0.134-0.582,0.44-1.113,0.9-1.535
	c0.003-0.003,0.005-0.007,0.008-0.01C28.522,49.304,29.224,49,30,49c0.462,0,0.894,0.114,1.285,0.301l-1.992,1.992
	c-0.391,0.391-0.391,1.023,0,1.414C29.488,52.902,29.744,53,30,53s0.512-0.098,0.707-0.293l1.99-1.99
	c0.096,0.198,0.173,0.404,0.223,0.619c0.004,0.017,0.012,0.033,0.016,0.051C32.978,51.586,33,51.791,33,52c0,1.654-1.346,3-3,3
	s-3-1.346-3-3C27,51.791,27.022,51.586,27.064,51.387z M46,58H14v-5.626c3.254-1.125,7.132-1.874,11.35-2.194
	c-0.037,0.093-0.053,0.192-0.084,0.286c-0.062,0.191-0.13,0.379-0.169,0.58C25.034,51.358,25,51.678,25,52c0,2.757,2.243,5,5,5
	s5-2.243,5-5c0-0.322-0.034-0.642-0.096-0.955c-0.039-0.2-0.107-0.388-0.169-0.58c-0.031-0.094-0.047-0.194-0.084-0.286
	c4.218,0.32,8.096,1.069,11.35,2.194V58z M47.072,44H47H13h-0.072C11.865,44,11,43.135,11,42.072V37h38v5.072
	C49,43.135,48.135,44,47.072,44z M49,35H11v-1h1.928h34.145H49V35z"/>
<g>
</g>
<g>
</g>
<g>
</g>
<g>
</g>
<g>
</g>
<g>
</g>
<g>
</g>
<g>
</g>
<g>
</g>
<g>
</g>
<g>
</g>
<g>
</g>
<g>
</g>
<g>
</g>
<g>
</g>
</svg>
