<?xml version="1.0" encoding="iso-8859-1"?>
<!-- Generator: Adobe Illustrator 18.0.0, SVG Export Plug-In . SVG Version: 6.00 Build 0)  -->
<!DOCTYPE svg PUBLIC "-//W3C//DTD SVG 1.1//EN" "http://www.w3.org/Graphics/SVG/1.1/DTD/svg11.dtd">
<svg version="1.1" id="Capa_1" xmlns="http://www.w3.org/2000/svg" xmlns:xlink="http://www.w3.org/1999/xlink" x="0px" y="0px"
	 viewBox="0 0 60 60" style="enable-background:new 0 0 60 60;" xml:space="preserve">
<g>
	<path d="M43,7h-2c-0.552,0-1,0.447-1,1s0.448,1,1,1h2c0.552,0,1-0.447,1-1S43.552,7,43,7z"/>
	<path d="M14,22h-3v14h12V22h-3H14z M18,24v3h-2v-3H18z M21,24v10h-8V24h1v5h6v-5H21z"/>
	<path d="M26,20c-0.552,0-1,0.447-1,1v16c0,0.553,0.448,1,1,1s1-0.447,1-1V21C27,20.447,26.552,20,26,20z"/>
	<path d="M34,20c-0.552,0-1,0.447-1,1v16c0,0.553,0.448,1,1,1s1-0.447,1-1V21C35,20.447,34.552,20,34,20z"/>
	<path d="M21,45c0,0.553,0.448,1,1,1h16c0.552,0,1-0.447,1-1s-0.448-1-1-1H22C21.448,44,21,44.447,21,45z"/>
	<path d="M51.83,0H8.17C6.974,0,6,0.974,6,2.17V40v2v15.07C6,58.686,7.314,60,8.93,60H51.07c1.615,0,2.93-1.314,2.93-2.93V42v-2
		V2.17C54,0.974,53.026,0,51.83,0z M8,2.17C8,2.076,8.076,2,8.17,2H29v38H8V2.17z M52,57.07c0,0.513-0.417,0.93-0.93,0.93H8.93
		C8.417,58,8,57.583,8,57.07V42h44V57.07z M31,40V2h20.83C51.924,2,52,2.076,52,2.17V40H31z"/>
</g>
<g>
</g>
<g>
</g>
<g>
</g>
<g>
</g>
<g>
</g>
<g>
</g>
<g>
</g>
<g>
</g>
<g>
</g>
<g>
</g>
<g>
</g>
<g>
</g>
<g>
</g>
<g>
</g>
<g>
</g>
</svg>
