<?xml version="1.0" encoding="iso-8859-1"?>
<!-- Generator: Adobe Illustrator 18.0.0, SVG Export Plug-In . SVG Version: 6.00 Build 0)  -->
<!DOCTYPE svg PUBLIC "-//W3C//DTD SVG 1.1//EN" "http://www.w3.org/Graphics/SVG/1.1/DTD/svg11.dtd">
<svg version="1.1" id="Capa_1" xmlns="http://www.w3.org/2000/svg" xmlns:xlink="http://www.w3.org/1999/xlink" x="0px" y="0px"
	 viewBox="0 0 60 60" style="enable-background:new 0 0 60 60;" xml:space="preserve">
<g>
	<path d="M41,9h2c0.553,0,1-0.447,1-1s-0.447-1-1-1h-2c-0.553,0-1,0.447-1,1S40.447,9,41,9z"/>
	<path d="M33,39h17V22H33V39z M35,24h13v13H35V24z"/>
	<path d="M49.403,0H10.561C8.046,0,6,2.046,6,4.561v52.51C6,58.686,7.314,60,8.93,60H51.07c1.615,0,2.93-1.314,2.93-2.93V4.54
		C53.949,2.037,51.887,0,49.403,0z M8,57.07V4.561C8,3.148,9.148,2,10.561,2H29v56H8.93C8.417,58,8,57.583,8,57.07z M52,57.07
		c0,0.513-0.417,0.93-0.93,0.93H31V2h18.403C50.807,2,51.972,3.158,52,4.561V57.07z"/>
	<path d="M46,26h-9c-0.553,0-1,0.447-1,1s0.447,1,1,1h9c0.553,0,1-0.447,1-1S46.553,26,46,26z"/>
	<path d="M10,22v5v2v5v5h17v-5v-5v-2v-5H10z M25,37H12v-1h13V37z M25,34H12v-5h1v4h5v-4h1v4h5v-4h1V34z M15,29h1v2h-1V29z M21,29h1
		v2h-1V29z M24,27h-5h-1h-5h-1v-3h13v3H24z"/>
</g>
<g>
</g>
<g>
</g>
<g>
</g>
<g>
</g>
<g>
</g>
<g>
</g>
<g>
</g>
<g>
</g>
<g>
</g>
<g>
</g>
<g>
</g>
<g>
</g>
<g>
</g>
<g>
</g>
<g>
</g>
</svg>
