<?xml version="1.0" encoding="iso-8859-1"?>
<!-- Generator: Adobe Illustrator 18.0.0, SVG Export Plug-In . SVG Version: 6.00 Build 0)  -->
<!DOCTYPE svg PUBLIC "-//W3C//DTD SVG 1.1//EN" "http://www.w3.org/Graphics/SVG/1.1/DTD/svg11.dtd">
<svg version="1.1" id="Capa_1" xmlns="http://www.w3.org/2000/svg" xmlns:xlink="http://www.w3.org/1999/xlink" x="0px" y="0px"
	 viewBox="0 0 60 60" style="enable-background:new 0 0 60 60;" xml:space="preserve">
<path d="M59.6,23.086l-3.979-2.984L34.414,3.985c-2.599-1.977-6.229-1.975-8.828,0L4.379,20.102L0.4,23.086
	c-0.442,0.331-0.531,0.958-0.2,1.399c0.196,0.263,0.497,0.4,0.801,0.4c0.208,0,0.419-0.065,0.599-0.2l2.4-1.8v3.212
	c-0.22,0.121-0.42,0.264-0.587,0.438l-0.525,0.453c-0.924,0.492-1.615,1.457-1.817,2.553C0.96,30.14,0.995,30.773,1.173,31.37
	c0.097,0.329,0.02,0.727-0.208,1.063c-1.047,1.549-1.259,3.707-0.527,5.374c0.111,0.251,0.248,0.487,0.409,0.705
	c0.231,0.312,0.313,0.725,0.219,1.107c-0.051,0.205-0.086,0.416-0.105,0.623c-0.082,0.895,0.102,1.765,0.25,2.464
	c0.155,0.735,0.39,1.846,1.215,2.555c0.44,0.379,0.979,0.576,1.576,0.609v3.015H1.349c-0.379,0-0.738,0.165-0.985,0.452
	c-0.248,0.287-0.357,0.667-0.3,1.042l1.076,7.117h5.698H8.86H12h37h4.153c1.57,0,2.847-1.277,2.847-2.847V22.886l2.4,1.8
	c0.18,0.135,0.391,0.2,0.599,0.2c0.304,0,0.604-0.138,0.801-0.4C60.131,24.044,60.042,23.417,59.6,23.086z M3.167,42.295
	c-0.132-0.627-0.269-1.275-0.214-1.872c0.01-0.107,0.028-0.217,0.054-0.322c0.237-0.955,0.03-1.995-0.554-2.779
	c-0.071-0.096-0.136-0.208-0.186-0.32c-0.458-1.043-0.312-2.461,0.354-3.447c0.567-0.84,0.738-1.843,0.468-2.752
	c-0.086-0.293-0.105-0.611-0.052-0.897c0.096-0.519,0.425-0.979,0.838-1.175l0.909-0.741c0.13-0.135,0.308-0.203,0.487-0.238
	c0.08-0.016,0.164-0.027,0.253-0.03c0.016-0.001,0.033-0.002,0.048-0.003c0.112-0.001,0.23,0.005,0.351,0.022
	c0.746,0.105,1.364,0.501,1.652,1.056c0.153,0.297,0.202,0.7,0.126,1.053c-0.035,0.165-0.041,0.333-0.049,0.5
	c-0.033,0.742,0.193,1.482,0.665,2.055c0.119,0.146,0.209,0.337,0.247,0.528c0.05,0.247,0.049,0.523-0.001,0.835
	c-0.051,0.312-0.152,0.658-0.305,1.044c-0.192,0.487-0.413,0.903-0.655,1.236c-0.654,0.9-0.752,2.171-0.257,3.315
	C7.581,39.906,7.62,40.6,7.447,41.17c-0.394,1.302-1.547,2.061-2.2,2.397c-0.156,0.08-0.324,0.147-0.493,0.203
	c-0.398,0.13-0.798,0.17-1.026-0.024C3.416,43.478,3.266,42.766,3.167,42.295z M7.14,55.497H2.86l-0.698-4.611H4h3.837L7.14,55.497z
	 M14,55.497v-3h33v3H14z M47,42.497v3H14v-3H47z M14,40.497v-3h33v3H14z M47,35.497H14v-3h33V35.497z M14,47.497h33v3H14V47.497z
	 M47,30.497H14v-3h33V30.497z M53.153,55.497H49v-30H12v30H9.163l0.775-5.124C9.994,50,9.885,49.622,9.639,49.336
	c-0.247-0.286-0.604-0.45-0.982-0.45H6v-3.459c0.056-0.026,0.111-0.054,0.166-0.082c1.611-0.832,2.746-2.108,3.196-3.595
	c0.309-1.019,0.241-2.208-0.18-3.182c-0.157-0.363-0.188-0.746-0.099-1.053c0.031-0.109,0.076-0.209,0.138-0.294
	c0.341-0.469,0.643-1.033,0.897-1.677c0.38-0.959,0.521-1.803,0.455-2.574c-0.012-0.146-0.019-0.294-0.047-0.434
	c-0.104-0.518-0.333-1.003-0.665-1.406c-0.185-0.224-0.267-0.571-0.204-0.864c0.173-0.809,0.062-1.68-0.306-2.392
	c-0.586-1.128-1.762-1.92-3.146-2.116c-0.055-0.008-0.11-0.014-0.165-0.02L28.174,8.917c1.074-0.816,2.576-0.817,3.652,0L54,25.769
	v28.881C54,55.117,53.62,55.497,53.153,55.497z M54,23.258L33.036,7.325c-1.788-1.359-4.285-1.359-6.072,0L6,23.258v-1.872l3.6-2.7
	c0.046-0.035,0.072-0.083,0.111-0.124L26.796,5.576c1.887-1.434,4.521-1.434,6.408,0l12.974,9.861
	c0.061,0.091,0.129,0.179,0.222,0.249l7.6,5.7V23.258z"/>
<g>
</g>
<g>
</g>
<g>
</g>
<g>
</g>
<g>
</g>
<g>
</g>
<g>
</g>
<g>
</g>
<g>
</g>
<g>
</g>
<g>
</g>
<g>
</g>
<g>
</g>
<g>
</g>
<g>
</g>
</svg>
