<?xml version="1.0" encoding="iso-8859-1"?>
<!-- Generator: Adobe Illustrator 18.0.0, SVG Export Plug-In . SVG Version: 6.00 Build 0)  -->
<!DOCTYPE svg PUBLIC "-//W3C//DTD SVG 1.1//EN" "http://www.w3.org/Graphics/SVG/1.1/DTD/svg11.dtd">
<svg version="1.1" id="Capa_1" xmlns="http://www.w3.org/2000/svg" xmlns:xlink="http://www.w3.org/1999/xlink" x="0px" y="0px"
	 viewBox="0 0 60 60" style="enable-background:new 0 0 60 60;" xml:space="preserve">
<path d="M59,58H29c-5.514,0-10-4.486-10-10V23.949C26.253,23.433,32,17.382,32,10c0-0.553-0.447-1-1-1s-1,0.447-1,1
	c0,6.28-4.85,11.438-11,11.949v-2c5.046-0.503,9-4.773,9-9.949c0-0.553-0.447-1-1-1s-1,0.447-1,1c0,4.072-3.06,7.436-7,7.931V9.899
	C21.279,9.434,23,7.414,23,5c0-2.757-2.243-5-5-5s-5,2.243-5,5c0,2.414,1.721,4.434,4,4.899v8.032c-3.94-0.495-7-3.859-7-7.931
	c0-0.553-0.447-1-1-1s-1,0.447-1,1c0,5.176,3.954,9.446,9,9.949v2C10.85,21.438,6,16.28,6,10c0-0.553-0.447-1-1-1s-1,0.447-1,1
	c0,7.382,5.747,13.433,13,13.949V48c0,5.514-4.486,10-10,10H1c-0.553,0-1,0.447-1,1s0.447,1,1,1h58c0.553,0,1-0.447,1-1
	S59.553,58,59,58z M15,5c0-1.654,1.346-3,3-3s3,1.346,3,3s-1.346,3-3,3S15,6.654,15,5z M17,54.619V58h-3.381
	C14.959,57.11,16.11,55.959,17,54.619z M19,58v-3.381c0.89,1.34,2.041,2.491,3.381,3.381H19z"/>
<g>
</g>
<g>
</g>
<g>
</g>
<g>
</g>
<g>
</g>
<g>
</g>
<g>
</g>
<g>
</g>
<g>
</g>
<g>
</g>
<g>
</g>
<g>
</g>
<g>
</g>
<g>
</g>
<g>
</g>
</svg>
