<?xml version="1.0" encoding="iso-8859-1"?>
<!-- Generator: Adobe Illustrator 18.0.0, SVG Export Plug-In . SVG Version: 6.00 Build 0)  -->
<!DOCTYPE svg PUBLIC "-//W3C//DTD SVG 1.1//EN" "http://www.w3.org/Graphics/SVG/1.1/DTD/svg11.dtd">
<svg version="1.1" id="Capa_1" xmlns="http://www.w3.org/2000/svg" xmlns:xlink="http://www.w3.org/1999/xlink" x="0px" y="0px"
	 viewBox="0 0 60 60" style="enable-background:new 0 0 60 60;" xml:space="preserve">
<g>
	<path d="M60,4.5H0v48h3v3h6v-3h42v3h6v-3h3V4.5z M7,53.5H5v-1h2V53.5z M55,53.5h-2v-1h2V53.5z M58,50.5h-1h-6H9H3H2v-44h56V50.5z"
		/>
	<path d="M52.5,46.5c2.481,0,4.5-2.019,4.5-4.5c0-1.26-0.524-2.397-1.361-3.215c-0.006-0.006-0.008-0.015-0.015-0.021
		c-0.014-0.014-0.033-0.018-0.048-0.03c-0.806-0.76-1.884-1.234-3.076-1.234c-2.481,0-4.5,2.019-4.5,4.5S50.019,46.5,52.5,46.5z
		 M52.5,39.5c0.308,0,0.6,0.063,0.873,0.166l-1.095,1.142c-0.383,0.399-0.369,1.032,0.029,1.414C52.502,42.407,52.751,42.5,53,42.5
		c0.263,0,0.525-0.104,0.722-0.308l1.09-1.137C54.932,41.347,55,41.666,55,42c0,1.379-1.121,2.5-2.5,2.5S50,43.379,50,42
		S51.121,39.5,52.5,39.5z"/>
	<path d="M47,48.5v-40H4v40H47z M27,27.5v-17h9v17H27z M36,29.5v17h-9v-17H36z M25,27.5H15v-17h10V27.5z M25,29.5v17H15v-17H25z
		 M38,46.5v-17h7v1.586l-3,3l-1.294-1.294c-0.391-0.391-1.023-0.391-1.414,0s-0.391,1.023,0,1.414L42,36.914l3-3v1.172l-3,3
		l-1.294-1.294c-0.391-0.391-1.023-0.391-1.414,0s-0.391,1.023,0,1.414L42,40.914l3-3v1.172l-3,3l-1.294-1.294
		c-0.391-0.391-1.023-0.391-1.414,0s-0.391,1.023,0,1.414L42,44.914l3-3V46.5H38z M45,12.086l-3,3l-1.294-1.294
		c-0.391-0.391-1.023-0.391-1.414,0s-0.391,1.023,0,1.414L42,17.914l3-3v1.172l-3,3l-1.294-1.294c-0.391-0.391-1.023-0.391-1.414,0
		s-0.391,1.023,0,1.414L42,21.914l3-3v1.172l-3,3l-1.294-1.294c-0.391-0.391-1.023-0.391-1.414,0s-0.391,1.023,0,1.414L42,25.914
		l3-3V27.5h-7v-17h7V12.086z M13,10.5v17H6v-1.586l3-3l1.294,1.294c0.391,0.391,1.023,0.391,1.414,0s0.391-1.023,0-1.414L9,20.086
		l-3,3v-1.172l3-3l1.294,1.294c0.391,0.391,1.023,0.391,1.414,0s0.391-1.023,0-1.414L9,16.086l-3,3v-1.172l3-3l1.294,1.294
		c0.391,0.391,1.023,0.391,1.414,0s0.391-1.023,0-1.414L9,12.086l-3,3V10.5H13z M6,44.914l3-3l1.294,1.294
		c0.391,0.391,1.023,0.391,1.414,0s0.391-1.023,0-1.414L9,39.086l-3,3v-1.172l3-3l1.294,1.294c0.391,0.391,1.023,0.391,1.414,0
		s0.391-1.023,0-1.414L9,35.086l-3,3v-1.172l3-3l1.294,1.294c0.391,0.391,1.023,0.391,1.414,0s0.391-1.023,0-1.414L9,31.086l-3,3
		V29.5h7v17H6V44.914z"/>
	<path d="M18,21.914l3-3l1.294,1.294c0.391,0.391,1.023,0.391,1.414,0s0.391-1.023,0-1.414L21,16.086l-3,3l-0.294-0.294
		c-0.391-0.391-1.023-0.391-1.414,0s-0.391,1.023,0,1.414L18,21.914z"/>
	<path d="M30,21.914l3-3l0.294,0.294c0.391,0.391,1.023,0.391,1.414,0s0.391-1.023,0-1.414L33,16.086l-3,3l-0.292-0.292
		c-0.391-0.391-1.023-0.391-1.414,0s-0.391,1.023,0,1.414L30,21.914z"/>
	<path d="M21,20.086l-3,3l-0.294-0.294c-0.391-0.391-1.023-0.391-1.414,0s-0.391,1.023,0,1.414L18,25.914l3-3l1.294,1.294
		c0.391,0.391,1.023,0.391,1.414,0s0.391-1.023,0-1.414L21,20.086z"/>
	<path d="M33,20.086l-3,3l-0.292-0.292c-0.391-0.391-1.023-0.391-1.414,0s-0.391,1.023,0,1.414L30,25.914l3-3l0.294,0.294
		c0.391,0.391,1.023,0.391,1.414,0s0.391-1.023,0-1.414L33,20.086z"/>
	<path d="M18,17.914l3-3l1.294,1.294c0.391,0.391,1.023,0.391,1.414,0s0.391-1.023,0-1.414L21,12.086l-3,3l-0.294-0.294
		c-0.391-0.391-1.023-0.391-1.414,0s-0.391,1.023,0,1.414L18,17.914z"/>
	<path d="M30,17.914l3-3l0.292,0.292c0.391,0.391,1.023,0.391,1.414,0s0.391-1.023,0-1.414L33,12.086l-3,3l-0.292-0.292
		c-0.391-0.391-1.023-0.391-1.414,0s-0.391,1.023,0,1.414L30,17.914z"/>
	<path d="M18,40.914l3-3l1.294,1.294c0.391,0.391,1.023,0.391,1.414,0s0.391-1.023,0-1.414L21,35.086l-3,3l-0.294-0.294
		c-0.391-0.391-1.023-0.391-1.414,0s-0.391,1.023,0,1.414L18,40.914z"/>
	<path d="M30,40.914l3-3l0.294,0.294c0.391,0.391,1.023,0.391,1.414,0s0.391-1.023,0-1.414L33,35.086l-3,3l-0.292-0.292
		c-0.391-0.391-1.023-0.391-1.414,0s-0.391,1.023,0,1.414L30,40.914z"/>
	<path d="M21,39.086l-3,3l-0.294-0.294c-0.391-0.391-1.023-0.391-1.414,0s-0.391,1.023,0,1.414L18,44.914l3-3l1.294,1.294
		c0.391,0.391,1.023,0.391,1.414,0s0.391-1.023,0-1.414L21,39.086z"/>
	<path d="M33,39.086l-3,3l-0.292-0.292c-0.391-0.391-1.023-0.391-1.414,0s-0.391,1.023,0,1.414L30,44.914l3-3l0.294,0.294
		c0.391,0.391,1.023,0.391,1.414,0s0.391-1.023,0-1.414L33,39.086z"/>
	<path d="M18,36.914l3-3l1.294,1.294c0.391,0.391,1.023,0.391,1.414,0s0.391-1.023,0-1.414L21,31.086l-3,3l-0.294-0.294
		c-0.391-0.391-1.023-0.391-1.414,0s-0.391,1.023,0,1.414L18,36.914z"/>
	<path d="M30,36.914l3-3l0.292,0.292c0.391,0.391,1.023,0.391,1.414,0s0.391-1.023,0-1.414L33,31.086l-3,3l-0.292-0.292
		c-0.391-0.391-1.023-0.391-1.414,0s-0.391,1.023,0,1.414L30,36.914z"/>
	<path d="M56,8.5h-7v6h7V8.5z M54,12.5h-3v-2h3V12.5z"/>
	<path d="M56,15.5h-7v6h7V15.5z M54,19.5h-3v-2h3V19.5z"/>
</g>
<g>
</g>
<g>
</g>
<g>
</g>
<g>
</g>
<g>
</g>
<g>
</g>
<g>
</g>
<g>
</g>
<g>
</g>
<g>
</g>
<g>
</g>
<g>
</g>
<g>
</g>
<g>
</g>
<g>
</g>
</svg>
