<?xml version="1.0" encoding="iso-8859-1"?>
<!-- Generator: Adobe Illustrator 18.0.0, SVG Export Plug-In . SVG Version: 6.00 Build 0)  -->
<!DOCTYPE svg PUBLIC "-//W3C//DTD SVG 1.1//EN" "http://www.w3.org/Graphics/SVG/1.1/DTD/svg11.dtd">
<svg version="1.1" id="Capa_1" xmlns="http://www.w3.org/2000/svg" xmlns:xlink="http://www.w3.org/1999/xlink" x="0px" y="0px"
	 viewBox="0 0 60 60" style="enable-background:new 0 0 60 60;" xml:space="preserve">
<g>
	<path d="M59,42h-0.78l0.462-2.309c0.892-4.456,0.371-8.998-1.504-13.138c-0.178-0.393-0.583-0.629-1.019-0.581
		c-0.774,0.088-1.741,0.041-3-0.915c-1.326-1.009-2.065-2.446-1.979-3.844c0.128-2.048,1.626-3.747,3.644-4.131
		c0.527-0.101,0.881-0.6,0.802-1.131l-0.465-3.101c-0.04-0.263-0.183-0.5-0.397-0.657c-0.215-0.158-0.482-0.226-0.746-0.183
		L40,14.203V13c0-0.553-0.447-1-1-1h-5c-0.553,0-1,0.447-1,1v2.829c-2.049,0.704-4.074,1.614-6,2.736v-0.424
		C27,16.96,26.04,16,24.859,16H22.14C20.96,16,20,16.96,20,18.141V24c0,0.052,0.022,0.097,0.03,0.147
		c-2.815,3.079-4.957,6.841-5.928,11.292c-3.554,1.122-6.4,2.12-9.152,5.794l-0.536,0.832c-1.564,0.38-2.772,2.171-3.463,3.208
		l-0.782,1.173c-0.204,0.307-0.224,0.701-0.05,1.026S0.631,48,1,48h58c0.553,0,1-0.447,1-1v-4C60,42.448,59.553,42,59,42z M35,14h3
		v0.522c-0.277,0.049-0.557,0.113-0.837,0.171c-0.206,0.042-0.411,0.079-0.617,0.126c-0.304,0.069-0.61,0.152-0.915,0.231
		c-0.21,0.054-0.42,0.101-0.631,0.159V14z M22,18.141C22,18.064,22.063,18,22.14,18h2.719C24.936,18,25,18.064,25,18.141v1.668
		c-1.055,0.725-2.059,1.514-3,2.36V18.141z M15.114,37.217l0.187-0.059c0.375-0.118,0.646-0.443,0.692-0.833
		c0.011-0.085,0.015-0.162,0.014-0.23c2.012-9.702,10.038-15.958,18.331-18.596c0.71-0.227,1.416-0.422,2.117-0.595
		c0.102-0.025,0.204-0.054,0.306-0.077c0.739-0.175,1.473-0.323,2.193-0.436l0.2-0.031h0l14.178-2.216l0.184,1.226
		c-2.434,0.851-4.166,3.085-4.331,5.72c-0.129,2.066,0.904,4.146,2.764,5.561c1.185,0.9,2.369,1.338,3.676,1.35
		c1.48,3.587,1.86,7.479,1.097,11.3L56.181,42H6.879C9.215,39.073,11.59,38.326,15.114,37.217z M58,46H2.874
		c0.913-1.311,1.615-1.982,2.102-2.003C4.984,43.997,4.992,44,5,44h0.196H57h1V46z"/>
	<path d="M49.152,26.725c-1.394-1.683-2.091-3.728-1.964-5.758c0.024-0.387,0.074-0.771,0.148-1.14l0.281-1.405
		c0.064-0.32-0.032-0.652-0.259-0.889c-0.226-0.235-0.548-0.347-0.876-0.296l-7.22,1.128c-6.454,1.008-13.51,5.976-16.154,11.35
		l-1.557,1.584c-0.297,0.302-0.371,0.757-0.187,1.138C21.534,32.784,21.886,33,22.265,33c0.036,0,0.072-0.002,0.108-0.006l27.472-3
		c0.366-0.04,0.68-0.277,0.818-0.618c0.138-0.341,0.078-0.73-0.156-1.014L49.152,26.725z M33.172,29.803V27h9v1.82l-6.916,0.755
		L33.172,29.803z M44.172,28.602V26c0-0.553-0.447-1-1-1h-11c-0.553,0-1,0.447-1,1v4.021l-6.323,0.691
		c2.298-4.811,8.898-9.461,14.724-10.37l5.804-0.907c-0.092,0.457-0.153,0.93-0.184,1.406c-0.158,2.541,0.7,5.084,2.419,7.159
		l0.172,0.207L44.172,28.602z"/>
</g>
<g>
</g>
<g>
</g>
<g>
</g>
<g>
</g>
<g>
</g>
<g>
</g>
<g>
</g>
<g>
</g>
<g>
</g>
<g>
</g>
<g>
</g>
<g>
</g>
<g>
</g>
<g>
</g>
<g>
</g>
</svg>
