<?xml version="1.0" encoding="iso-8859-1"?>
<!-- Generator: Adobe Illustrator 18.0.0, SVG Export Plug-In . SVG Version: 6.00 Build 0)  -->
<!DOCTYPE svg PUBLIC "-//W3C//DTD SVG 1.1//EN" "http://www.w3.org/Graphics/SVG/1.1/DTD/svg11.dtd">
<svg version="1.1" id="Capa_1" xmlns="http://www.w3.org/2000/svg" xmlns:xlink="http://www.w3.org/1999/xlink" x="0px" y="0px"
	 viewBox="0 0 59 59" style="enable-background:new 0 0 59 59;" xml:space="preserve">
<g>
	<path d="M49.488,0.848C49.413,0.36,48.993,0,48.5,0h-38c-0.493,0-0.913,0.36-0.988,0.848l-4,26
		c-0.045,0.289,0.039,0.582,0.229,0.804C5.931,27.873,6.208,28,6.5,28h6.314C10.672,31.251,9.5,35.085,9.5,39
		c0,11.028,8.972,20,20,20s20-8.972,20-20c0-3.915-1.172-7.749-3.314-11H52.5c0.292,0,0.569-0.127,0.759-0.349
		c0.19-0.222,0.274-0.515,0.229-0.804L49.488,0.848z M47.5,39c0,9.925-8.075,18-18,18s-18-8.075-18-18c0-3.974,1.331-7.861,3.757-11
		H35.5v3c0,0.553,0.447,1,1,1h2v9c0,0.553,0.447,1,1,1s1-0.447,1-1v-9h2c0.553,0,1-0.447,1-1v-3h0.243
		C46.169,31.139,47.5,35.026,47.5,39z M37.5,30v-2h4v2H37.5z M44.226,26H42.5h-6H14.774H7.666l3.692-24h36.283l3.692,24H44.226z"/>
	<path d="M29.5,53c-7.72,0-14-6.28-14-14c0-2.664,0.745-5.244,2.154-7.464c0.297-0.466,0.158-1.084-0.308-1.38
		c-0.465-0.298-1.084-0.158-1.38,0.308C14.353,33.004,13.5,35.956,13.5,39c0,8.822,7.178,16,16,16c0.553,0,1-0.447,1-1
		S30.053,53,29.5,53z"/>
</g>
<g>
</g>
<g>
</g>
<g>
</g>
<g>
</g>
<g>
</g>
<g>
</g>
<g>
</g>
<g>
</g>
<g>
</g>
<g>
</g>
<g>
</g>
<g>
</g>
<g>
</g>
<g>
</g>
<g>
</g>
</svg>
