<?xml version="1.0" encoding="iso-8859-1"?>
<!-- Generator: Adobe Illustrator 18.0.0, SVG Export Plug-In . SVG Version: 6.00 Build 0)  -->
<!DOCTYPE svg PUBLIC "-//W3C//DTD SVG 1.1//EN" "http://www.w3.org/Graphics/SVG/1.1/DTD/svg11.dtd">
<svg version="1.1" id="Capa_1" xmlns="http://www.w3.org/2000/svg" xmlns:xlink="http://www.w3.org/1999/xlink" x="0px" y="0px"
	 viewBox="0 0 55 55" style="enable-background:new 0 0 55 55;" xml:space="preserve">
<path d="M49,0.5v8.09c-2.507,0.423-4.486,2.403-4.91,4.91H36c-7.382,0-13.433,5.747-13.949,13H19c-10.477,0-19,8.523-19,19v1h9
	h5.059c0.5,4.493,4.317,8,8.941,8s8.442-3.507,8.941-8H37h9v-1c0-10.477-8.523-19-19-19h-2.949c0.511-6.15,5.67-11,11.949-11h8.09
	c0.423,2.507,2.403,4.486,4.91,4.91v8.09h6v-28H49z M2.029,44.5c0.442-7.573,5.869-13.813,13.035-15.521
	C11.406,31.507,9,35.726,9,40.5v4H2.029z M23,52.5c-3.521,0-6.442-2.612-6.929-6h13.857C29.442,49.888,26.521,52.5,23,52.5z
	 M32,44.5H14h-3v-4c0-6.617,5.383-12,12-12s12,5.383,12,12v4H32z M43.971,44.5H37v-4c0-4.774-2.406-8.993-6.064-11.521
	C38.101,30.687,43.529,36.927,43.971,44.5z M46,14.5c0-1.86,1.277-3.429,3-3.873v7.746C47.277,17.929,46,16.36,46,14.5z M53,26.5h-2
	v-6v-12v-6h2V26.5z"/>
<g>
</g>
<g>
</g>
<g>
</g>
<g>
</g>
<g>
</g>
<g>
</g>
<g>
</g>
<g>
</g>
<g>
</g>
<g>
</g>
<g>
</g>
<g>
</g>
<g>
</g>
<g>
</g>
<g>
</g>
</svg>
