<?xml version="1.0" encoding="iso-8859-1"?>
<!-- Generator: Adobe Illustrator 18.0.0, SVG Export Plug-In . SVG Version: 6.00 Build 0)  -->
<!DOCTYPE svg PUBLIC "-//W3C//DTD SVG 1.1//EN" "http://www.w3.org/Graphics/SVG/1.1/DTD/svg11.dtd">
<svg version="1.1" id="Capa_1" xmlns="http://www.w3.org/2000/svg" xmlns:xlink="http://www.w3.org/1999/xlink" x="0px" y="0px"
	 viewBox="0 0 60 60" style="enable-background:new 0 0 60 60;" xml:space="preserve">
<path d="M38,54h-1c-1.281,0-2.69-2.012-2.953-5.005C35.679,48.969,37,47.638,37,46c0-1.497-1.106-2.731-2.541-2.954l1.686-4.216
	L33.08,35h17.413l-1.474-3.578C45.025,21.724,43,11.488,43,1V0H17v1c0,10.485-2.024,20.718-6.017,30.414L9.507,35h17.413
	l-3.064,3.83l1.686,4.216C24.105,43.269,23,44.503,23,46c0,1.638,1.321,2.969,2.953,2.995C25.69,51.988,24.281,54,23,54h-1
	c-2.757,0-5,2.243-5,5v1h26v-1C43,56.243,40.757,54,38,54z M47.17,32.184L47.506,33h-9.628c-0.524-4.052-2.717-21.499-2.869-30.999
	l5.997,0C41.131,12.402,43.202,22.551,47.17,32.184z M12.833,32.176C16.798,22.545,18.869,12.397,18.994,2l5.997,0
	c-0.153,9.5-2.345,26.947-2.87,31h-9.629L12.833,32.176z M24.139,33c0.583-4.529,2.704-21.586,2.853-31l6.017,0
	c0.149,9.415,2.27,26.471,2.853,30.999H31.48h-2.961H24.139z M29.48,35h1.039l3.335,4.17L32.323,43h-4.646l-1.532-3.83L29.48,35z
	 M25,46c0-0.552,0.449-1,1-1h0.323h7.354H34c0.551,0,1,0.448,1,1s-0.449,1-1,1h-8C25.448,47,25,46.552,25,46z M27.963,49h4.074
	c0.149,1.999,0.742,3.75,1.622,5h-7.318C27.22,52.75,27.813,50.999,27.963,49z M19.171,58c0.413-1.164,1.525-2,2.829-2h1h14h1
	c1.304,0,2.416,0.836,2.829,2H19.171z"/>
<g>
</g>
<g>
</g>
<g>
</g>
<g>
</g>
<g>
</g>
<g>
</g>
<g>
</g>
<g>
</g>
<g>
</g>
<g>
</g>
<g>
</g>
<g>
</g>
<g>
</g>
<g>
</g>
<g>
</g>
</svg>
