<?xml version="1.0" encoding="iso-8859-1"?>
<!-- Generator: Adobe Illustrator 18.0.0, SVG Export Plug-In . SVG Version: 6.00 Build 0)  -->
<!DOCTYPE svg PUBLIC "-//W3C//DTD SVG 1.1//EN" "http://www.w3.org/Graphics/SVG/1.1/DTD/svg11.dtd">
<svg version="1.1" id="Capa_1" xmlns="http://www.w3.org/2000/svg" xmlns:xlink="http://www.w3.org/1999/xlink" x="0px" y="0px"
	 viewBox="0 0 60 60" style="enable-background:new 0 0 60 60;" xml:space="preserve">
<path d="M44.973,38.271l11.297-11.298C58.348,26.831,60,25.114,60,23s-1.652-3.831-3.731-3.973L44,6.758V4c0-0.553-0.447-1-1-1h-3
	h-4H1C0.447,3,0,3.447,0,4v11c0,0.553,0.447,1,1,1h3h36h3c0.481,0,0.864-0.346,0.959-0.798L51.757,23L40.731,34.027
	C38.652,34.169,37,35.886,37,38c0,1.006,0.385,1.915,1,2.618V52H12c-0.553,0-1,0.447-1,1v3c0,0.553,0.447,1,1,1h44
	c0.553,0,1-0.447,1-1v-3c0-0.553-0.447-1-1-1H43V41.444C44.115,40.794,44.88,39.629,44.973,38.271z M58,23c0,1.103-0.897,2-2,2
	c-0.021,0-0.041-0.006-0.062-0.006c-0.014-0.001-0.027-0.008-0.042-0.008c-1.02-0.053-1.829-0.862-1.882-1.882
	c-0.001-0.014-0.007-0.027-0.008-0.042C54.006,23.041,54,23.021,54,23c0-0.021,0.005-0.04,0.006-0.06
	c0.001-0.015,0.008-0.028,0.009-0.042c0.053-1.021,0.862-1.83,1.882-1.883c0.014-0.001,0.027-0.007,0.042-0.008
	C55.959,21.006,55.979,21,56,21C57.103,21,58,21.897,58,23z M39,5v1h-2V5H39z M5,14v-2h34v2H5z M42,14h-1v-3c0-0.553-0.447-1-1-1H4
	c-0.553,0-1,0.447-1,1v3H2V5h33v2c0,0.553,0.447,1,1,1h4c0.553,0,1-0.447,1-1V5h1v2.473v5.355V14z M44,9.586l9.975,9.975
	c-0.015,0.009-0.026,0.023-0.041,0.032c-0.55,0.335-1.009,0.794-1.343,1.344c-0.008,0.014-0.022,0.025-0.03,0.039L44,12.414V9.586z
	 M52.561,25.025c0.009,0.015,0.023,0.026,0.032,0.041c0.334,0.549,0.792,1.007,1.341,1.341c0.015,0.009,0.026,0.023,0.041,0.032
	l-9.535,9.536c-0.008-0.014-0.022-0.025-0.03-0.039c-0.334-0.55-0.793-1.01-1.343-1.344c-0.015-0.009-0.026-0.023-0.041-0.032
	L52.561,25.025z M41,36c0.021,0,0.041,0.006,0.062,0.006c0.014,0.001,0.027,0.008,0.042,0.008c1.02,0.053,1.829,0.862,1.882,1.883
	c0.001,0.015,0.007,0.028,0.009,0.042C42.995,37.96,43,37.979,43,38c0,0.854-0.541,1.579-1.295,1.865
	c-0.013,0.004-0.026,0.004-0.039,0.009c-0.172,0.062-0.335,0.09-0.495,0.109c-0.044,0.004-0.086,0.012-0.131,0.013
	c-0.09,0.004-0.174-0.01-0.26-0.018c-0.136-0.015-0.266-0.043-0.392-0.084c-0.079-0.027-0.159-0.051-0.233-0.089
	c-0.04-0.019-0.078-0.042-0.116-0.063c-0.128-0.076-0.253-0.16-0.369-0.264c-0.006-0.005-0.013-0.007-0.019-0.012
	C39.253,39.1,39,38.581,39,38C39,36.897,39.897,36,41,36z M55,55H13v-1h26h3h13V55z M41,52h-1V41.87
	c0.035,0.009,0.071,0.013,0.106,0.021c0.065,0.015,0.13,0.027,0.195,0.038C40.531,41.971,40.764,42,41,42V52z"/>
<g>
</g>
<g>
</g>
<g>
</g>
<g>
</g>
<g>
</g>
<g>
</g>
<g>
</g>
<g>
</g>
<g>
</g>
<g>
</g>
<g>
</g>
<g>
</g>
<g>
</g>
<g>
</g>
<g>
</g>
</svg>
