<?xml version="1.0" encoding="iso-8859-1"?>
<!-- Generator: Adobe Illustrator 18.0.0, SVG Export Plug-In . SVG Version: 6.00 Build 0)  -->
<!DOCTYPE svg PUBLIC "-//W3C//DTD SVG 1.1//EN" "http://www.w3.org/Graphics/SVG/1.1/DTD/svg11.dtd">
<svg version="1.1" id="Capa_1" xmlns="http://www.w3.org/2000/svg" xmlns:xlink="http://www.w3.org/1999/xlink" x="0px" y="0px"
	 viewBox="0 0 60 60" style="enable-background:new 0 0 60 60;" xml:space="preserve">
<path d="M59.482,32.624L40,21.909V19.5c0-0.553-0.448-1-1-1h-2v-2h1c0.552,0,1-0.447,1-1v-3c0-0.553-0.448-1-1-1h-5v-3
	c0-0.553-0.448-1-1-1h-1v-5c0-0.553-0.448-1-1-1s-1,0.447-1,1v5h-1c-0.552,0-1,0.447-1,1v3h-5c-0.552,0-1,0.447-1,1v3
	c0,0.553,0.448,1,1,1h1v2h-2c-0.552,0-1,0.447-1,1v2.409L0.518,32.624c-0.4,0.22-0.6,0.683-0.487,1.125
	C0.145,34.191,0.544,34.5,1,34.5h18.82l-1.669,10.013c-0.582,3.49,0.396,7.04,2.684,9.739c2.287,2.7,5.627,4.248,9.166,4.248
	s6.879-1.548,9.166-4.248c2.287-2.699,3.265-6.249,2.684-9.739L40.181,34.5H59c0.456,0,0.855-0.31,0.969-0.751
	C60.082,33.307,59.882,32.844,59.482,32.624z M29,9.5h2v2h-2V9.5z M23,13.5h5h4h5v1h-1H24h-1V13.5z M25,16.5h10v2H25V16.5z M22,20.5
	h2h12h2v1H22V20.5z M39.877,44.841c0.485,2.909-0.331,5.868-2.237,8.118C35.734,55.21,32.949,56.5,30,56.5s-5.733-1.29-7.64-3.541
	c-1.906-2.25-2.722-5.209-2.237-8.118L21.847,34.5h3.337C25.072,34.814,25,35.148,25,35.5c0,1.654,1.346,3,3,3h1v2h-1
	c-1.654,0-3,1.346-3,3s1.346,3,3,3h1v3c0,0.553,0.448,1,1,1s1-0.447,1-1v-3h1c0.551,0,1,0.448,1,1s-0.449,1-1,1
	c-0.552,0-1,0.447-1,1s0.448,1,1,1c1.654,0,3-1.346,3-3s-1.346-3-3-3h-1v-2h1c1.654,0,3-1.346,3-3s-1.346-3-3-3h-1v-2h1h6.153
	L39.877,44.841z M28,34.5h1v2h-1c-0.551,0-1-0.448-1-1S27.449,34.5,28,34.5z M31,38.5h1c0.551,0,1,0.448,1,1s-0.449,1-1,1h-1V38.5z
	 M29,42.5v2h-1c-0.551,0-1-0.448-1-1s0.449-1,1-1H29z M39,32.5h-7h-4h-7H4.893l16.364-9h17.486l16.363,9H39z"/>
<g>
</g>
<g>
</g>
<g>
</g>
<g>
</g>
<g>
</g>
<g>
</g>
<g>
</g>
<g>
</g>
<g>
</g>
<g>
</g>
<g>
</g>
<g>
</g>
<g>
</g>
<g>
</g>
<g>
</g>
</svg>
