<?xml version="1.0" encoding="iso-8859-1"?>
<!-- Generator: Adobe Illustrator 18.0.0, SVG Export Plug-In . SVG Version: 6.00 Build 0)  -->
<!DOCTYPE svg PUBLIC "-//W3C//DTD SVG 1.1//EN" "http://www.w3.org/Graphics/SVG/1.1/DTD/svg11.dtd">
<svg version="1.1" id="Capa_1" xmlns="http://www.w3.org/2000/svg" xmlns:xlink="http://www.w3.org/1999/xlink" x="0px" y="0px"
	 viewBox="0 0 60.002 60.002" style="enable-background:new 0 0 60.002 60.002;" xml:space="preserve">
<path d="M43.669,5.224c-4.401-3.94-10.081-5.748-16.008-5.092C18.24,1.177,10.655,8.777,9.626,18.205
	c-0.699,6.407,1.553,12.626,6.179,17.062c2.984,2.861,4.696,6.799,4.696,10.803v1.933v2v2v4h2.5l3,4h7l3-4h2.5v-4v-2v-2v-1
	c0-4.218,1.862-8.29,5.108-11.173c4.38-3.889,6.892-9.476,6.892-15.327C50.501,14.679,48.011,9.109,43.669,5.224z M32.001,58.002h-5
	l-1.5-2h8L32.001,58.002z M36.501,54.002h-14v-2h14V54.002z M36.501,50.002h-14v-2h14V50.002z M29.501,28.002c-0.552,0-1,0.447-1,1
	v2.816c-1.161-0.414-2-1.514-2-2.816c0-1.654,1.346-3,3-3s3,1.346,3,3c0,1.302-0.839,2.402-2,2.816v-2.816
	C30.501,28.449,30.053,28.002,29.501,28.002z M42.281,34.333c-3.417,3.034-5.479,7.242-5.75,11.669h-6.031V33.901
	c2.279-0.465,4-2.484,4-4.899c0-2.757-2.243-5-5-5s-5,2.243-5,5c0,2.415,1.721,4.434,4,4.899v12.101h-6
	c-0.019-4.522-1.953-8.958-5.312-12.179c-4.174-4.003-6.206-9.616-5.575-15.401C12.542,9.918,19.384,3.063,27.882,2.12
	c5.35-0.592,10.481,1.038,14.453,4.593c3.918,3.508,6.166,8.534,6.166,13.789C48.501,25.783,46.234,30.824,42.281,34.333z"/>
<g>
</g>
<g>
</g>
<g>
</g>
<g>
</g>
<g>
</g>
<g>
</g>
<g>
</g>
<g>
</g>
<g>
</g>
<g>
</g>
<g>
</g>
<g>
</g>
<g>
</g>
<g>
</g>
<g>
</g>
</svg>
