<?xml version="1.0" encoding="iso-8859-1"?>
<!-- Generator: Adobe Illustrator 18.0.0, SVG Export Plug-In . SVG Version: 6.00 Build 0)  -->
<!DOCTYPE svg PUBLIC "-//W3C//DTD SVG 1.1//EN" "http://www.w3.org/Graphics/SVG/1.1/DTD/svg11.dtd">
<svg version="1.1" id="Capa_1" xmlns="http://www.w3.org/2000/svg" xmlns:xlink="http://www.w3.org/1999/xlink" x="0px" y="0px"
	 viewBox="0 0 59 59" style="enable-background:new 0 0 59 59;" xml:space="preserve">
<g>
	<path d="M46.5,0h-4h-26h-4c-0.553,0-1,0.447-1,1s0.447,1,1,1h3v3c0,0.553,0.447,1,1,1h2v15h-1c-0.553,0-1,0.447-1,1v4v1.809
		c-1.842,1.064-3,3.036-3,5.191c0,3.309,2.691,6,6,6s6-2.691,6-6c0-2.155-1.158-4.127-3-5.191V26v-4c0-0.553-0.447-1-1-1h-1V6h8v35
		h-1c-0.553,0-1,0.447-1,1v4v1.809c-1.842,1.064-3,3.036-3,5.191c0,3.309,2.691,6,6,6s6-2.691,6-6c0-2.155-1.158-4.127-3-5.191V46
		v-4c0-0.553-0.447-1-1-1h-1V6h8v25h-1c-0.553,0-1,0.447-1,1v4v1.809c-1.842,1.064-3,3.036-3,5.191c0,3.309,2.691,6,6,6s6-2.691,6-6
		c0-2.155-1.158-4.127-3-5.191V36v-4c0-0.553-0.447-1-1-1h-1V6h2c0.553,0,1-0.447,1-1V2h3c0.553,0,1-0.447,1-1S47.053,0,46.5,0z
		 M18.5,23h2v2h-2V23z M23.5,33c0,2.206-1.794,4-4,4s-4-1.794-4-4c0-1.586,0.942-3.023,2.401-3.662
		c0.363-0.159,0.599-0.519,0.599-0.916V27h2v1.422c0,0.397,0.235,0.757,0.599,0.916C22.558,29.977,23.5,31.414,23.5,33z M28.5,43h2
		v2h-2V43z M33.5,53c0,2.206-1.794,4-4,4s-4-1.794-4-4c0-1.586,0.942-3.023,2.401-3.662c0.363-0.159,0.599-0.519,0.599-0.916V47h2
		v1.422c0,0.397,0.235,0.757,0.599,0.916C32.558,49.977,33.5,51.414,33.5,53z M38.5,33h2v2h-2V33z M43.5,43c0,2.206-1.794,4-4,4
		s-4-1.794-4-4c0-1.586,0.942-3.023,2.401-3.662c0.363-0.159,0.599-0.519,0.599-0.916V37h2v1.422c0,0.397,0.235,0.757,0.599,0.916
		C42.558,39.977,43.5,41.414,43.5,43z M41.5,4h-24V2h24V4z"/>
	<path d="M20.5,32v-2c0-0.553-0.447-1-1-1s-1,0.447-1,1v2c-0.553,0-1,0.447-1,1s0.447,1,1,1h2c0.553,0,1-0.447,1-1
		S21.053,32,20.5,32z"/>
	<path d="M40.5,42v-2c0-0.553-0.447-1-1-1s-1,0.447-1,1v2c-0.553,0-1,0.447-1,1s0.447,1,1,1h2c0.553,0,1-0.447,1-1
		S41.053,42,40.5,42z"/>
	<path d="M30.5,52v-2c0-0.553-0.447-1-1-1s-1,0.447-1,1v2c-0.553,0-1,0.447-1,1s0.447,1,1,1h2c0.553,0,1-0.447,1-1
		S31.053,52,30.5,52z"/>
</g>
<g>
</g>
<g>
</g>
<g>
</g>
<g>
</g>
<g>
</g>
<g>
</g>
<g>
</g>
<g>
</g>
<g>
</g>
<g>
</g>
<g>
</g>
<g>
</g>
<g>
</g>
<g>
</g>
<g>
</g>
</svg>
