<?xml version="1.0" encoding="iso-8859-1"?>
<!-- Generator: Adobe Illustrator 18.0.0, SVG Export Plug-In . SVG Version: 6.00 Build 0)  -->
<!DOCTYPE svg PUBLIC "-//W3C//DTD SVG 1.1//EN" "http://www.w3.org/Graphics/SVG/1.1/DTD/svg11.dtd">
<svg version="1.1" id="Capa_1" xmlns="http://www.w3.org/2000/svg" xmlns:xlink="http://www.w3.org/1999/xlink" x="0px" y="0px"
	 viewBox="0 0 59.997 59.997" style="enable-background:new 0 0 59.997 59.997;" xml:space="preserve">
<path d="M42.999,38.044V6.997c0-2.009-0.868-3.925-2.381-5.256c-1.511-1.329-3.528-1.938-5.535-1.686
	c-2.158,0.277-3.985,1.572-5.059,3.386c-0.373-0.631-0.844-1.206-1.406-1.7c-1.511-1.329-3.529-1.938-5.535-1.686
	c-3.469,0.445-6.084,3.519-6.084,7.15v30.838c-1.137,0.219-2,1.219-2,2.419v2.425c0,3.542,2.606,6.479,6,7.014v1.095v2v3h2.5l3,4h7
	l3-4h2.5v-3v-2v-1.095c3.394-0.535,6-3.472,6-7.014v-2.425C44.999,39.263,44.136,38.263,42.999,38.044z M35.336,2.04
	c1.455-0.192,2.865,0.239,3.96,1.202c1.082,0.952,1.702,2.32,1.702,3.755v31h-4v-31c0-0.553-0.447-1-1-1s-1,0.447-1,1v31h-4V7.206
	C30.999,4.578,32.864,2.357,35.336,2.04z M18.999,7.206c0-2.628,1.865-4.85,4.338-5.166c1.457-0.192,2.865,0.239,3.96,1.202
	c1.082,0.952,1.702,2.32,1.702,3.755v0.209v30.791h-4v-31c0-0.553-0.447-1-1-1s-1,0.447-1,1v31h-4V7.206z M32.499,57.997h-5l-1.5-2
	h8L32.499,57.997z M36.999,53.997h-14v-1h14V53.997z M22.999,50.997v-1h14v1H22.999z M42.999,42.888
	c0,2.817-2.292,5.109-5.109,5.109H22.108c-2.817,0-5.109-2.292-5.109-5.109v-2.425c0-0.257,0.209-0.466,0.466-0.466h11.534h2h11.534
	c0.257,0,0.466,0.209,0.466,0.466V42.888z"/>
<g>
</g>
<g>
</g>
<g>
</g>
<g>
</g>
<g>
</g>
<g>
</g>
<g>
</g>
<g>
</g>
<g>
</g>
<g>
</g>
<g>
</g>
<g>
</g>
<g>
</g>
<g>
</g>
<g>
</g>
</svg>
