<?xml version="1.0" encoding="iso-8859-1"?>
<!-- Generator: Adobe Illustrator 18.0.0, SVG Export Plug-In . SVG Version: 6.00 Build 0)  -->
<!DOCTYPE svg PUBLIC "-//W3C//DTD SVG 1.1//EN" "http://www.w3.org/Graphics/SVG/1.1/DTD/svg11.dtd">
<svg version="1.1" id="Capa_1" xmlns="http://www.w3.org/2000/svg" xmlns:xlink="http://www.w3.org/1999/xlink" x="0px" y="0px"
	 viewBox="0 0 57 57" style="enable-background:new 0 0 57 57;" xml:space="preserve">
<g>
	<circle cx="20.5" cy="16" r="1"/>
	<circle cx="20.5" cy="13" r="1"/>
	<circle cx="20.5" cy="10" r="1"/>
	<circle cx="20.5" cy="7" r="1"/>
	<circle cx="20.5" cy="19" r="1"/>
	<circle cx="20.5" cy="22" r="1"/>
	<circle cx="20.5" cy="25" r="1"/>
	<circle cx="20.5" cy="28" r="1"/>
	<circle cx="20.5" cy="31" r="1"/>
	<circle cx="20.5" cy="34" r="1"/>
	<circle cx="28.5" cy="16" r="1"/>
	<circle cx="28.5" cy="13" r="1"/>
	<circle cx="28.5" cy="10" r="1"/>
	<circle cx="28.5" cy="7" r="1"/>
	<circle cx="28.5" cy="19" r="1"/>
	<circle cx="28.5" cy="22" r="1"/>
	<circle cx="28.5" cy="25" r="1"/>
	<circle cx="28.5" cy="28" r="1"/>
	<circle cx="28.5" cy="31" r="1"/>
	<circle cx="28.5" cy="34" r="1"/>
	<circle cx="36.5" cy="16" r="1"/>
	<circle cx="36.5" cy="13" r="1"/>
	<circle cx="36.5" cy="10" r="1"/>
	<circle cx="36.5" cy="7" r="1"/>
	<circle cx="36.5" cy="19" r="1"/>
	<circle cx="36.5" cy="22" r="1"/>
	<circle cx="36.5" cy="25" r="1"/>
	<circle cx="36.5" cy="28" r="1"/>
	<circle cx="36.5" cy="31" r="1"/>
	<circle cx="36.5" cy="34" r="1"/>
	<path d="M41.5,35.047V2h-2V1c0-0.553-0.447-1-1-1s-1,0.447-1,1v1h-2V1c0-0.553-0.447-1-1-1s-1,0.447-1,1v1h-2V1
		c0-0.553-0.447-1-1-1s-1,0.447-1,1v1h-2V1c0-0.553-0.447-1-1-1s-1,0.447-1,1v1h-2V1c0-0.553-0.447-1-1-1s-1,0.447-1,1v1h-2V1
		c0-0.553-0.447-1-1-1s-1,0.447-1,1v1h-2v33.047c-1.137,0.219-2,1.219-2,2.419v2.425c0,3.542,2.606,6.479,6,7.014V48v2v3H22l3,4h7
		l3-4h2.5v-3v-2v-1.095c3.394-0.535,6-3.472,6-7.014v-2.425C43.5,36.266,42.637,35.266,41.5,35.047z M33.5,4h6v31h-3h-3V4z M25.5,4
		h6v31h-3h-3V4z M17.5,4h6v31h-3h-3V4z M31,55h-5l-1.5-2h8L31,55z M35.5,51h-14v-1h14V51z M21.5,48v-1h14v1H21.5z M41.5,39.891
		c0,2.817-2.292,5.109-5.109,5.109H20.609c-2.817,0-5.109-2.292-5.109-5.109v-2.425c0-0.257,0.209-0.466,0.466-0.466H23.5h2h6h2
		h7.534c0.257,0,0.466,0.209,0.466,0.466V39.891z"/>
</g>
<g>
</g>
<g>
</g>
<g>
</g>
<g>
</g>
<g>
</g>
<g>
</g>
<g>
</g>
<g>
</g>
<g>
</g>
<g>
</g>
<g>
</g>
<g>
</g>
<g>
</g>
<g>
</g>
<g>
</g>
</svg>
