<?xml version="1.0" encoding="iso-8859-1"?>
<!-- Generator: Adobe Illustrator 18.0.0, SVG Export Plug-In . SVG Version: 6.00 Build 0)  -->
<!DOCTYPE svg PUBLIC "-//W3C//DTD SVG 1.1//EN" "http://www.w3.org/Graphics/SVG/1.1/DTD/svg11.dtd">
<svg version="1.1" id="Capa_1" xmlns="http://www.w3.org/2000/svg" xmlns:xlink="http://www.w3.org/1999/xlink" x="0px" y="0px"
	 viewBox="0 0 60.002 60.002" style="enable-background:new 0 0 60.002 60.002;" xml:space="preserve">
<g>
	<path d="M43.669,5.224c-4.401-3.94-10.081-5.748-16.008-5.092C18.24,1.177,10.655,8.777,9.626,18.205
		c-0.699,6.407,1.553,12.626,6.179,17.062c2.984,2.861,4.696,6.799,4.696,10.803v1.933v2v2v4h2.5l3,4h7l3-4h2.5v-4v-2v-2v-1
		c0-4.218,1.862-8.29,5.108-11.173c4.38-3.889,6.892-9.476,6.892-15.327C50.501,14.679,48.011,9.109,43.669,5.224z M32.001,58.002
		h-5l-1.5-2h8L32.001,58.002z M36.501,54.002h-14v-2h14V54.002z M36.501,50.002h-14v-2h4h6h4V50.002z M28.501,39.002h2v7h-2V39.002z
		 M42.281,34.333c-3.417,3.034-5.479,7.242-5.75,11.669h-4.031v-8c0-7.383,1.57-10,6-10c0.552,0,1-0.447,1-1s-0.448-1-1-1
		c-7.37,0-7.949,6.871-7.995,11h-2.011c-0.046-4.129-0.625-11-7.995-11c-0.552,0-1,0.447-1,1s0.448,1,1,1c4.43,0,6,2.617,6,10v8h-4
		c-0.019-4.522-1.953-8.958-5.312-12.179c-4.174-4.003-6.206-9.616-5.575-15.401C12.542,9.918,19.384,3.063,27.882,2.12
		c5.351-0.592,10.481,1.038,14.453,4.593c3.918,3.508,6.166,8.534,6.166,13.789C48.501,25.783,46.234,30.824,42.281,34.333z"/>
	<path d="M42.029,21.152c-0.468-0.29-1.085-0.148-1.377,0.321c-0.613,0.985-1.376,1.528-2.151,1.528s-1.538-0.543-2.151-1.528
		c-0.005-0.008-0.014-0.012-0.019-0.021c-0.037-0.056-0.091-0.099-0.14-0.148c-0.047-0.046-0.087-0.097-0.141-0.133
		c-0.009-0.006-0.013-0.015-0.022-0.02c-0.044-0.027-0.094-0.032-0.14-0.052c-0.066-0.028-0.128-0.06-0.198-0.073
		c-0.063-0.012-0.125-0.007-0.188-0.007c-0.065,0-0.128-0.006-0.193,0.007c-0.071,0.014-0.134,0.046-0.201,0.075
		c-0.045,0.02-0.093,0.024-0.136,0.051c-0.008,0.005-0.012,0.014-0.02,0.019c-0.056,0.037-0.099,0.09-0.147,0.138
		c-0.047,0.047-0.099,0.088-0.134,0.143c-0.005,0.008-0.014,0.012-0.02,0.021c-0.613,0.985-1.376,1.528-2.151,1.528
		s-1.538-0.543-2.151-1.528c-0.005-0.008-0.014-0.012-0.019-0.021c-0.037-0.056-0.091-0.099-0.14-0.148
		c-0.047-0.046-0.087-0.097-0.141-0.133c-0.009-0.006-0.013-0.015-0.022-0.02c-0.044-0.027-0.094-0.032-0.14-0.052
		c-0.066-0.028-0.128-0.06-0.198-0.073c-0.063-0.012-0.125-0.007-0.188-0.007c-0.065,0-0.128-0.006-0.193,0.007
		c-0.071,0.014-0.134,0.046-0.201,0.075c-0.045,0.02-0.093,0.024-0.136,0.051c-0.008,0.005-0.012,0.014-0.02,0.019
		c-0.056,0.037-0.099,0.09-0.147,0.138c-0.047,0.047-0.099,0.088-0.134,0.143c-0.005,0.008-0.014,0.012-0.02,0.021
		c-0.613,0.985-1.376,1.528-2.151,1.528s-1.538-0.543-2.151-1.528c-0.005-0.008-0.014-0.012-0.019-0.021
		c-0.037-0.056-0.091-0.099-0.14-0.148c-0.047-0.046-0.087-0.097-0.141-0.133c-0.009-0.006-0.013-0.015-0.022-0.02
		c-0.044-0.027-0.094-0.032-0.14-0.052c-0.066-0.028-0.128-0.06-0.198-0.073c-0.063-0.012-0.125-0.007-0.188-0.007
		c-0.065,0-0.128-0.006-0.193,0.007c-0.071,0.014-0.134,0.046-0.201,0.075c-0.045,0.02-0.093,0.024-0.136,0.051
		c-0.008,0.005-0.012,0.014-0.02,0.019c-0.056,0.037-0.099,0.09-0.147,0.138c-0.047,0.047-0.099,0.088-0.134,0.143
		c-0.005,0.008-0.014,0.012-0.02,0.021c-0.613,0.985-1.376,1.528-2.151,1.528s-1.538-0.543-2.151-1.528
		c-0.292-0.469-0.909-0.612-1.377-0.321c-0.469,0.292-0.613,0.908-0.321,1.378c0.991,1.594,2.358,2.472,3.849,2.472
		c1.102,0,2.135-0.482,3-1.376c0.865,0.894,1.898,1.376,3,1.376s2.135-0.482,3-1.376c0.865,0.894,1.898,1.376,3,1.376
		s2.135-0.482,3-1.376c0.865,0.894,1.898,1.376,3,1.376c1.491,0,2.858-0.878,3.849-2.472C42.641,22.061,42.498,21.444,42.029,21.152
		z"/>
</g>
<g>
</g>
<g>
</g>
<g>
</g>
<g>
</g>
<g>
</g>
<g>
</g>
<g>
</g>
<g>
</g>
<g>
</g>
<g>
</g>
<g>
</g>
<g>
</g>
<g>
</g>
<g>
</g>
<g>
</g>
</svg>
