<?xml version="1.0" encoding="iso-8859-1"?>
<!-- Generator: Adobe Illustrator 18.0.0, SVG Export Plug-In . SVG Version: 6.00 Build 0)  -->
<!DOCTYPE svg PUBLIC "-//W3C//DTD SVG 1.1//EN" "http://www.w3.org/Graphics/SVG/1.1/DTD/svg11.dtd">
<svg version="1.1" id="Capa_1" xmlns="http://www.w3.org/2000/svg" xmlns:xlink="http://www.w3.org/1999/xlink" x="0px" y="0px"
	 viewBox="0 0 60 60" style="enable-background:new 0 0 60 60;" xml:space="preserve">
<g>
	<path d="M48,0H14v22h34V0z M46,20H16V2h30V20z"/>
	<path d="M45,19V3H17v16H45z M34.4,17c-1.544-1.461-3.506-2.734-5.53-3.807c3.368-0.825,9.372-2.119,14.13-2.193V17H34.4z M43,5
		v4.005c-6.557,0.131-15.042,2.332-16.911,2.839C23.064,10.5,20.287,9.622,19,9.244V5H43z M19,11.337
		c2.501,0.775,8.217,2.744,12.26,5.663H19V11.337z"/>
	<path d="M60,40.074c0-3.309-2.691-6-6-6H32c-5.071,0-6.07-1.193-7.885-3.361c-0.216-0.257-0.439-0.524-0.679-0.801
		c-4.938-5.694-13.357-6.545-18.766-1.899c-0.233,0.199-0.452,0.406-0.659,0.617C2.069,30.603,1,33.352,1,36.37v4.32
		C0.369,41.64,0,42.777,0,44c0,1.04,0.281,2.042,0.803,2.946C0.299,47.672,0,48.551,0,49.5c0,2.31,1.756,4.197,4,4.449V59
		c0,0.553,0.447,1,1,1h2c0.43,0,0.812-0.274,0.948-0.683L9.728,54H51.28l1.772,5.316C53.187,59.725,53.569,60,54,60h2
		c0.553,0,1-0.447,1-1v-5.276c1.72-0.613,2.96-2.229,2.992-4.149H60V40.074z M3,36.37c0-2.454,0.889-4.764,2.437-6.338
		c0.168-0.17,0.346-0.338,0.535-0.501c4.577-3.935,11.733-3.175,15.952,1.691c0.231,0.267,0.448,0.525,0.657,0.774
		c1.907,2.278,3.413,4.077,9.418,4.077h22c2.206,0,4,1.794,4,4v5.688C57.284,45.282,56.425,45,55.5,45H11.907
		c0.002-0.01,0.001-0.021,0.003-0.031C11.964,44.648,12,44.326,12,44c0-3.309-2.691-6-6-6c-0.244,0-0.483,0.019-0.72,0.047
		c-0.073,0.009-0.144,0.022-0.216,0.033c-0.17,0.027-0.337,0.06-0.501,0.101c-0.072,0.018-0.144,0.035-0.215,0.055
		c-0.21,0.06-0.415,0.129-0.615,0.211c-0.014,0.006-0.029,0.01-0.043,0.016c-0.228,0.096-0.447,0.208-0.66,0.33
		C3.02,38.799,3.009,38.803,3,38.809V36.37z M2.802,41.625c0.18-0.242,0.386-0.454,0.605-0.646c0.034-0.029,0.069-0.057,0.104-0.086
		c0.185-0.151,0.384-0.278,0.59-0.392c0.065-0.035,0.128-0.074,0.195-0.106c0.194-0.093,0.398-0.163,0.605-0.223
		c0.076-0.022,0.148-0.053,0.226-0.07C5.41,40.039,5.702,40,6,40c2.206,0,4,1.794,4,4c0,0.336-0.049,0.67-0.138,1H4.5
		c-0.786,0-1.515,0.22-2.158,0.576C2.12,45.078,2,44.546,2,44c0-0.8,0.241-1.542,0.647-2.167L2.802,41.625z M6.28,58H6v-3.926h1.594
		L6.28,58z M55,58h-0.279l-1.333-4H55V58z M55.5,52H52H4.5C3.121,52,2,50.879,2,49.5c0-0.499,0.15-0.962,0.403-1.352l0.135-0.138
		l0.252-0.244c0.008-0.006,0.015-0.012,0.022-0.018l0.105-0.084l-0.002-0.002c0.068-0.056,0.134-0.116,0.206-0.165
		c0.031-0.021,0.064-0.036,0.098-0.053l0.1-0.053l-0.002-0.003c0.077-0.042,0.152-0.088,0.232-0.122
		c0.051-0.02,0.106-0.034,0.16-0.049l0.1-0.028l-0.001-0.004c0.067-0.02,0.132-0.046,0.2-0.06c0.164-0.033,0.329-0.051,0.493-0.051
		h6.681H55.5c1.366,0,2.476,1.101,2.496,2.463C57.976,50.899,56.866,52,55.5,52z"/>
</g>
<g>
</g>
<g>
</g>
<g>
</g>
<g>
</g>
<g>
</g>
<g>
</g>
<g>
</g>
<g>
</g>
<g>
</g>
<g>
</g>
<g>
</g>
<g>
</g>
<g>
</g>
<g>
</g>
<g>
</g>
</svg>
