<?xml version="1.0" encoding="iso-8859-1"?>
<!-- Generator: Adobe Illustrator 18.0.0, SVG Export Plug-In . SVG Version: 6.00 Build 0)  -->
<!DOCTYPE svg PUBLIC "-//W3C//DTD SVG 1.1//EN" "http://www.w3.org/Graphics/SVG/1.1/DTD/svg11.dtd">
<svg version="1.1" id="Capa_1" xmlns="http://www.w3.org/2000/svg" xmlns:xlink="http://www.w3.org/1999/xlink" x="0px" y="0px"
	 viewBox="0 0 60 60" style="enable-background:new 0 0 60 60;" xml:space="preserve">
<g>
	<path d="M25,43.5H1c-0.553,0-1,0.447-1,1V49c0,5.238,4.262,9.5,9.5,9.5h7c5.238,0,9.5-4.262,9.5-9.5v-4.5
		C26,43.947,25.553,43.5,25,43.5z M24,49c0,4.136-3.364,7.5-7.5,7.5h-7C5.364,56.5,2,53.136,2,49v-3.5h22V49z"/>
	<path d="M52.379,16.5H36.621c-3.992,0-7.272,3.088-7.59,7H25V11.261l16.036-4.45c1.167-0.324,1.981-1.396,1.981-2.606
		c0-1.491-1.214-2.704-2.705-2.704H7.982c-0.553,0-1,0.447-1,1v3.982C6.982,9.249,9.233,11.5,12,11.5h3v12h-3v-1v-2
		c0-0.553-0.447-1-1-1s-1,0.447-1,1v1H8c-0.553,0-1,0.447-1,1v11c0,0.553,0.447,1,1,1h2v1c0,0.553,0.447,1,1,1s1-0.447,1-1v-2v-1h17
		v25c0,0.553,0.447,1,1,1h29c0.553,0,1-0.447,1-1v-9v-20v-4.379C60,19.919,56.581,16.5,52.379,16.5z M8.982,6.482V3.5h31.33
		c0.389,0,0.705,0.315,0.705,0.704c0,0.315-0.212,0.595-0.517,0.679L23.864,9.5H16h-4C10.336,9.5,8.982,8.146,8.982,6.482z M9,23.5
		h1v1v7v1H9V23.5z M12,30.5v-5h4c0.553,0,1-0.447,1-1v-13h6v13c0,0.553,0.447,1,1,1h5v5H12z M31,56.5v-25v-7v-0.379
		c0-3.1,2.521-5.621,5.621-5.621h15.758c3.1,0,5.621,2.521,5.621,5.621V27.5h-5c-0.553,0-1,0.447-1,1v20c0,0.553,0.447,1,1,1h5v7H31
		z M58,47.5h-4v-18h4V47.5z"/>
	<path d="M37,36.5c-2.206,0-4,1.794-4,4s1.794,4,4,4s4-1.794,4-4S39.206,36.5,37,36.5z M37,42.5c-1.103,0-2-0.897-2-2s0.897-2,2-2
		s2,0.897,2,2S38.103,42.5,37,42.5z"/>
	<path d="M37,45.5c-2.206,0-4,1.794-4,4s1.794,4,4,4s4-1.794,4-4S39.206,45.5,37,45.5z M37,51.5c-1.103,0-2-0.897-2-2s0.897-2,2-2
		s2,0.897,2,2S38.103,51.5,37,51.5z"/>
</g>
<g>
</g>
<g>
</g>
<g>
</g>
<g>
</g>
<g>
</g>
<g>
</g>
<g>
</g>
<g>
</g>
<g>
</g>
<g>
</g>
<g>
</g>
<g>
</g>
<g>
</g>
<g>
</g>
<g>
</g>
</svg>
