<?xml version="1.0" encoding="iso-8859-1"?>
<!-- Generator: Adobe Illustrator 18.0.0, SVG Export Plug-In . SVG Version: 6.00 Build 0)  -->
<!DOCTYPE svg PUBLIC "-//W3C//DTD SVG 1.1//EN" "http://www.w3.org/Graphics/SVG/1.1/DTD/svg11.dtd">
<svg version="1.1" id="Capa_1" xmlns="http://www.w3.org/2000/svg" xmlns:xlink="http://www.w3.org/1999/xlink" x="0px" y="0px"
	 viewBox="0 0 60 60" style="enable-background:new 0 0 60 60;" xml:space="preserve">
<g>
	<path d="M0,8v3v35v3h2v3h8v-3h32h8v3h8v-3h2v-8V8H0z M2,10h40v1H2V10z M42,21h-0.478C39.58,21,38,22.58,38,24.521v8.957
		C38,35.42,39.58,37,41.522,37H42v4v3H2V13h40V21z M42,35h-0.478C40.683,35,40,34.317,40,33.479v-8.957
		C40,23.683,40.683,23,41.522,23H42V35z M8,50H4v-1h4V50z M10,47H2v-1h40v1H10z M56,50h-4v-1h4V50z M58,47h-8h-6v-1v-3h14V47z
		 M44,41v-4V21V11v-1h14v31H44z"/>
	<path d="M9.73,40h22.54c2.608,0,4.73-2.122,4.73-4.73V21.73c0-2.608-2.122-4.73-4.73-4.73H9.73C7.122,17,5,19.122,5,21.73V35.27
		C5,37.878,7.122,40,9.73,40z M7,21.73C7,20.225,8.225,19,9.73,19h22.54c1.505,0,2.73,1.225,2.73,2.73V35.27
		c0,1.506-1.225,2.73-2.73,2.73H9.73C8.225,38,7,36.775,7,35.27V21.73z"/>
	<path d="M45,11v10h12V11H45z M55,19h-8v-6h8V19z"/>
	<path d="M45,28h5v-5h-5V28z M47,25h1v1h-1V25z"/>
	<path d="M52,28h5v-5h-5V28z M54,25h1v1h-1V25z"/>
	<path d="M45,34h5v-5h-5V34z M47,31h1v1h-1V31z"/>
	<path d="M52,34h5v-5h-5V34z M54,31h1v1h-1V31z"/>
	<path d="M45,40h5v-5h-5V40z M47,37h1v1h-1V37z"/>
	<path d="M52,40h5v-5h-5V40z M54,37h1v1h-1V37z"/>
	<circle cx="9" cy="21" r="1"/>
	<circle cx="15" cy="21" r="1"/>
	<circle cx="9" cy="27" r="1"/>
	<circle cx="15" cy="27" r="1"/>
	<circle cx="12" cy="24" r="1"/>
	<circle cx="18" cy="24" r="1"/>
	<circle cx="12" cy="30" r="1"/>
	<circle cx="18" cy="30" r="1"/>
	<circle cx="21" cy="21" r="1"/>
	<circle cx="21" cy="27" r="1"/>
	<circle cx="9" cy="33" r="1"/>
	<circle cx="15" cy="33" r="1"/>
	<circle cx="12" cy="36" r="1"/>
	<circle cx="18" cy="36" r="1"/>
	<circle cx="21" cy="33" r="1"/>
	<circle cx="27" cy="21" r="1"/>
	<circle cx="27" cy="27" r="1"/>
	<circle cx="24" cy="24" r="1"/>
	<circle cx="30" cy="24" r="1"/>
	<circle cx="24" cy="30" r="1"/>
	<circle cx="30" cy="30" r="1"/>
	<circle cx="33" cy="21" r="1"/>
	<circle cx="33" cy="27" r="1"/>
	<circle cx="27" cy="33" r="1"/>
	<circle cx="24" cy="36" r="1"/>
	<circle cx="30" cy="36" r="1"/>
	<circle cx="33" cy="33" r="1"/>
</g>
<g>
</g>
<g>
</g>
<g>
</g>
<g>
</g>
<g>
</g>
<g>
</g>
<g>
</g>
<g>
</g>
<g>
</g>
<g>
</g>
<g>
</g>
<g>
</g>
<g>
</g>
<g>
</g>
<g>
</g>
</svg>
