<?xml version="1.0" encoding="iso-8859-1"?>
<!-- Generator: Adobe Illustrator 18.0.0, SVG Export Plug-In . SVG Version: 6.00 Build 0)  -->
<!DOCTYPE svg PUBLIC "-//W3C//DTD SVG 1.1//EN" "http://www.w3.org/Graphics/SVG/1.1/DTD/svg11.dtd">
<svg version="1.1" id="Capa_1" xmlns="http://www.w3.org/2000/svg" xmlns:xlink="http://www.w3.org/1999/xlink" x="0px" y="0px"
	 viewBox="0 0 60 60" style="enable-background:new 0 0 60 60;" xml:space="preserve">
<g>
	<path d="M44,8h-2h-5H0v41h2v3h8v-3h27h5h2h6v3h8v-3h2v-8V22V8H44z M58,10v10H44V10H58z M8,50H4v-1h4V50z M10,47H2V10h35v37H10z
		 M39,47V10h3v12v19v6H39z M56,50h-4v-1h4V50z M58,47h-8h-6v-4h14V47z M58,41H44V22h14V41z"/>
	<circle cx="4" cy="12" r="1"/>
	<circle cx="10" cy="12" r="1"/>
	<circle cx="4" cy="18" r="1"/>
	<circle cx="10" cy="18" r="1"/>
	<circle cx="7" cy="15" r="1"/>
	<circle cx="13" cy="15" r="1"/>
	<circle cx="7" cy="21" r="1"/>
	<circle cx="13" cy="21" r="1"/>
	<circle cx="16" cy="12" r="1"/>
	<circle cx="16" cy="18" r="1"/>
	<circle cx="4" cy="24" r="1"/>
	<circle cx="10" cy="24" r="1"/>
	<circle cx="7" cy="27" r="1"/>
	<circle cx="13" cy="27" r="1"/>
	<circle cx="16" cy="24" r="1"/>
	<circle cx="22" cy="12" r="1"/>
	<circle cx="22" cy="18" r="1"/>
	<circle cx="19" cy="15" r="1"/>
	<circle cx="25" cy="15" r="1"/>
	<circle cx="19" cy="21" r="1"/>
	<circle cx="25" cy="21" r="1"/>
	<circle cx="28" cy="12" r="1"/>
	<circle cx="28" cy="18" r="1"/>
	<circle cx="22" cy="24" r="1"/>
	<circle cx="19" cy="27" r="1"/>
	<circle cx="25" cy="27" r="1"/>
	<circle cx="28" cy="24" r="1"/>
	<circle cx="31" cy="15" r="1"/>
	<circle cx="31" cy="21" r="1"/>
	<circle cx="34" cy="12" r="1"/>
	<circle cx="34" cy="18" r="1"/>
	<circle cx="31" cy="27" r="1"/>
	<circle cx="34" cy="24" r="1"/>
	<circle cx="4" cy="30" r="1"/>
	<circle cx="10" cy="30" r="1"/>
	<circle cx="4" cy="36" r="1"/>
	<circle cx="10" cy="36" r="1"/>
	<circle cx="7" cy="33" r="1"/>
	<circle cx="13" cy="33" r="1"/>
	<circle cx="7" cy="39" r="1"/>
	<circle cx="13" cy="39" r="1"/>
	<circle cx="16" cy="30" r="1"/>
	<circle cx="16" cy="36" r="1"/>
	<circle cx="4" cy="42" r="1"/>
	<circle cx="10" cy="42" r="1"/>
	<circle cx="7" cy="45" r="1"/>
	<circle cx="13" cy="45" r="1"/>
	<circle cx="16" cy="42" r="1"/>
	<circle cx="22" cy="30" r="1"/>
	<circle cx="22" cy="36" r="1"/>
	<circle cx="19" cy="33" r="1"/>
	<circle cx="25" cy="33" r="1"/>
	<circle cx="19" cy="39" r="1"/>
	<circle cx="25" cy="39" r="1"/>
	<circle cx="28" cy="30" r="1"/>
	<circle cx="28" cy="36" r="1"/>
	<circle cx="22" cy="42" r="1"/>
	<circle cx="19" cy="45" r="1"/>
	<circle cx="25" cy="45" r="1"/>
	<circle cx="28" cy="42" r="1"/>
	<circle cx="31" cy="33" r="1"/>
	<circle cx="31" cy="39" r="1"/>
	<circle cx="34" cy="30" r="1"/>
	<circle cx="34" cy="36" r="1"/>
	<circle cx="31" cy="45" r="1"/>
	<circle cx="34" cy="42" r="1"/>
	<path d="M46.757,37.242C47.891,38.376,49.397,39,51,39s3.109-0.624,4.243-1.758C56.376,36.109,57,34.603,57,33
		s-0.624-3.109-1.757-4.242C54.109,27.624,52.603,27,51,27s-3.109,0.624-4.243,1.758C45.624,29.891,45,31.397,45,33
		S45.624,36.109,46.757,37.242z M48.171,30.172C48.927,29.416,49.932,29,51,29c0.725,0,1.413,0.206,2.021,0.565l-0.607,0.607
		c-0.391,0.391-0.391,1.023,0,1.414c0.195,0.195,0.451,0.293,0.707,0.293s0.512-0.098,0.707-0.293l0.607-0.607
		C54.794,31.587,55,32.275,55,33c0,1.068-0.416,2.072-1.171,2.828c-1.512,1.512-4.146,1.512-5.657,0C47.416,35.072,47,34.068,47,33
		S47.416,30.928,48.171,30.172z"/>
	<path d="M46,14h10c0.552,0,1-0.447,1-1s-0.448-1-1-1H46c-0.552,0-1,0.447-1,1S45.448,14,46,14z"/>
	<path d="M46,18h10c0.552,0,1-0.447,1-1s-0.448-1-1-1H46c-0.552,0-1,0.447-1,1S45.448,18,46,18z"/>
</g>
<g>
</g>
<g>
</g>
<g>
</g>
<g>
</g>
<g>
</g>
<g>
</g>
<g>
</g>
<g>
</g>
<g>
</g>
<g>
</g>
<g>
</g>
<g>
</g>
<g>
</g>
<g>
</g>
<g>
</g>
</svg>
