<?xml version="1.0" encoding="iso-8859-1"?>
<!-- Generator: Adobe Illustrator 18.0.0, SVG Export Plug-In . SVG Version: 6.00 Build 0)  -->
<!DOCTYPE svg PUBLIC "-//W3C//DTD SVG 1.1//EN" "http://www.w3.org/Graphics/SVG/1.1/DTD/svg11.dtd">
<svg version="1.1" id="Capa_1" xmlns="http://www.w3.org/2000/svg" xmlns:xlink="http://www.w3.org/1999/xlink" x="0px" y="0px"
	 viewBox="0 0 60 60" style="enable-background:new 0 0 60 60;" xml:space="preserve">
<g>
	<path d="M14,22c-2.206,0-4,1.794-4,4s1.794,4,4,4s4-1.794,4-4S16.206,22,14,22z M14,28c-1.103,0-2-0.897-2-2s0.897-2,2-2
		s2,0.897,2,2S15.103,28,14,28z"/>
	<path d="M23,20c0-0.775-0.016-1.537-0.047-2.286c-0.226-5.836-1.316-10.137-2.855-13.039l-0.568-1.119l-0.054,0.051
		C17.889,1.167,15.942,0,14,0c-1.941,0-3.888,1.166-5.473,3.609L8.471,3.557L7.875,4.731c-1.524,2.905-2.601,7.198-2.827,13.014
		C5.016,18.5,5,19.27,5,20.053c0,0.291,0.015,0.595,0.038,0.914c0.023,0.375,0.062,0.749,0.114,1.12l0.133,1.119l0.059-0.03
		c0.452,2.116,1.349,4.152,2.677,6l0.333,0.465C10.085,32.048,11,34.89,11,37.856V39v8.884c-2.781,1.711-4.935,5.831-5.693,10.971
		L5.138,60H8v-1c0-1.103,0.897-2,2-2c0.898,0,1.691,0.604,1.929,1.467C12.181,59.384,12.96,60,13.87,60h0.261
		c0.909,0,1.689-0.616,1.94-1.532C16.309,57.604,17.102,57,18,57c1.103,0,2,0.897,2,2v1h2.862l-0.169-1.146
		c-0.758-5.14-2.912-9.26-5.693-10.971V39v-1.144c0-2.967,0.915-5.809,2.646-8.217l0.333-0.463c1.325-1.844,2.221-3.876,2.674-6.002
		l0.062,0.032l0.17-1.426c0.004-0.034,0.005-0.063,0.009-0.096c0.026-0.232,0.05-0.464,0.065-0.697C22.984,20.653,23,20.328,23,20z
		 M20.964,18.121c0.008,0.222,0.008,0.451,0.013,0.675c0.009,0.383,0.02,0.765,0.021,1.156C18.5,18.165,17,15.423,17,12.5
		c0-1.983,0.679-3.886,1.935-5.484C20.061,9.844,20.798,13.693,20.964,18.121z M7.024,18.697c0.005-0.199,0.004-0.403,0.011-0.601
		C7.2,13.683,7.937,9.84,9.063,7.013C10.32,8.612,11,10.516,11,12.5c0,2.923-1.5,5.665-3.999,7.452
		C7.001,19.528,7.013,19.113,7.024,18.697z M15.564,49.374c1.757,0.85,3.302,3.097,4.288,6.081C19.298,55.164,18.668,55,18,55
		c-1.795,0-3.381,1.208-3.87,3l-0.273-0.063C13.381,56.208,11.795,55,10,55c-0.668,0-1.298,0.164-1.852,0.455
		c0.985-2.984,2.53-5.231,4.288-6.081L13,49.101V39h2v10.101L15.564,49.374z M18.354,28.01l-0.333,0.463
		c-1.81,2.518-2.838,5.45-3,8.527h-2.045c-0.161-3.077-1.19-6.01-2.999-8.526l-0.333-0.465c-1.277-1.776-2.107-3.744-2.455-5.802
		C10.79,20.105,13,16.446,13,12.5c0-2.754-1.067-5.366-3.001-7.449C11.119,3.114,12.488,2,14,2c1.511,0,2.88,1.113,4,3.052
		c-1.934,2.083-3,4.695-3,7.448c0,3.948,2.211,7.607,5.814,9.708C20.467,24.253,19.636,26.228,18.354,28.01z"/>
	<path d="M54,12h-2H32h-2c-0.552,0-1,0.447-1,1s0.448,1,1,1h2v41.624C32,58.037,33.963,60,36.376,60h11.248
		C50.037,60,52,58.037,52,55.624V14h2c0.552,0,1-0.447,1-1S54.552,12,54,12z M50,35h-2c-0.552,0-1,0.447-1,1s0.448,1,1,1h2v2h-2
		c-0.552,0-1,0.447-1,1s0.448,1,1,1h2v2h-2c-0.552,0-1,0.447-1,1s0.448,1,1,1h2v2h-2c-0.552,0-1,0.447-1,1s0.448,1,1,1h2v2h-2
		c-0.552,0-1,0.447-1,1s0.448,1,1,1h2v2.624C50,56.935,48.934,58,47.624,58H36.376C35.066,58,34,56.935,34,55.624V53h2
		c0.552,0,1-0.447,1-1s-0.448-1-1-1h-2v-2h2c0.552,0,1-0.447,1-1s-0.448-1-1-1h-2v-2h2c0.552,0,1-0.447,1-1s-0.448-1-1-1h-2v-2h2
		c0.552,0,1-0.447,1-1s-0.448-1-1-1h-2v-2h2c0.552,0,1-0.447,1-1s-0.448-1-1-1h-2V14h16V35z"/>
</g>
<g>
</g>
<g>
</g>
<g>
</g>
<g>
</g>
<g>
</g>
<g>
</g>
<g>
</g>
<g>
</g>
<g>
</g>
<g>
</g>
<g>
</g>
<g>
</g>
<g>
</g>
<g>
</g>
<g>
</g>
</svg>
