<?xml version="1.0" encoding="iso-8859-1"?>
<!-- Generator: Adobe Illustrator 18.0.0, SVG Export Plug-In . SVG Version: 6.00 Build 0)  -->
<!DOCTYPE svg PUBLIC "-//W3C//DTD SVG 1.1//EN" "http://www.w3.org/Graphics/SVG/1.1/DTD/svg11.dtd">
<svg version="1.1" id="Capa_1" xmlns="http://www.w3.org/2000/svg" xmlns:xlink="http://www.w3.org/1999/xlink" x="0px" y="0px"
	 viewBox="0 0 60 60" style="enable-background:new 0 0 60 60;" xml:space="preserve">
<g>
	<path d="M54,19c0.553,0,1-0.447,1-1V4.006C55,1.797,53.203,0,50.994,0H9.005C6.797,0,5,1.797,5,4.006V59c0,0.553,0.448,1,1,1h45.5
		c1.93,0,3.5-1.57,3.5-3.5S53.43,53,51.5,53h-9.291C48.013,50.009,52,43.967,52,37v-1c0-0.553-0.447-1-1-1h-7.821
		c1.126-3.423,0.264-7.214-2.351-9.828L35,19.344V19H54z M51.5,55c0.827,0,1.5,0.673,1.5,1.5S52.327,58,51.5,58H7V4.006
		C7,2.899,7.899,2,9.005,2h41.989C52.101,2,53,2.899,53,4.006V17H16.722C13.567,17,11,19.567,11,22.723v26.555
		C11,52.433,13.567,55,16.722,55H51.5z M36.793,34.793c-0.075,0.075-0.154,0.143-0.236,0.207H35v-7.586l1.793,1.793
		C38.333,30.747,38.333,33.253,36.793,34.793z M31.443,35c-0.082-0.064-0.161-0.132-0.236-0.207c-1.54-1.54-1.54-4.046,0-5.586
		L33,27.414V35H31.443z M25.791,53h-9.069C14.67,53,13,51.33,13,49.277V22.723C13,20.67,14.67,19,16.722,19H33v0.344l-5.828,5.828
		c-2.615,2.614-3.477,6.405-2.351,9.828H17c-0.552,0-1,0.447-1,1v1C16,43.967,19.987,50.009,25.791,53z M28.586,26.586L33,22.172V24
		v0.586l-3.207,3.207c-1.952,1.952-2.24,4.928-0.905,7.207h-1.932C25.731,32.133,26.353,28.818,28.586,26.586z M34,53
		c-8.822,0-16-7.178-16-16h8.324h4.789h5.775h4.789H50C50,45.822,42.822,53,34,53z M39.414,26.586
		c2.233,2.232,2.854,5.547,1.63,8.414h-1.932c1.335-2.279,1.047-5.255-0.905-7.207L35,24.586V24v-1.828L39.414,26.586z"/>
	<path d="M44.5,16c3.584,0,6.5-2.916,6.5-6.5c0-1.79-0.727-3.412-1.901-4.589c-0.002-0.002-0.002-0.004-0.004-0.006
		s-0.004-0.002-0.006-0.004C47.912,3.727,46.29,3,44.5,3C40.916,3,38,5.916,38,9.5S40.916,16,44.5,16z M44.5,5
		c0.879,0,1.693,0.263,2.386,0.7l-2.593,2.593c-0.391,0.391-0.391,1.023,0,1.414C44.488,9.902,44.744,10,45,10
		s0.512-0.098,0.707-0.293L48.3,7.114C48.737,7.807,49,8.622,49,9.5c0,2.481-2.019,4.5-4.5,4.5S40,11.981,40,9.5S42.019,5,44.5,5z"
		/>
	<path d="M15,11h4c0.552,0,1-0.447,1-1V6c0-0.553-0.448-1-1-1h-4c-0.552,0-1,0.447-1,1v4C14,10.553,14.448,11,15,11z M16,7h2v2h-2V7
		z"/>
	<path d="M23,11h4c0.552,0,1-0.447,1-1V6c0-0.553-0.448-1-1-1h-4c-0.552,0-1,0.447-1,1v4C22,10.553,22.448,11,23,11z M24,7h2v2h-2V7
		z"/>
	<path d="M15,15h4c0.552,0,1-0.447,1-1s-0.448-1-1-1h-4c-0.552,0-1,0.447-1,1S14.448,15,15,15z"/>
	<path d="M23,15h4c0.552,0,1-0.447,1-1s-0.448-1-1-1h-4c-0.552,0-1,0.447-1,1S22.448,15,23,15z"/>
</g>
<g>
</g>
<g>
</g>
<g>
</g>
<g>
</g>
<g>
</g>
<g>
</g>
<g>
</g>
<g>
</g>
<g>
</g>
<g>
</g>
<g>
</g>
<g>
</g>
<g>
</g>
<g>
</g>
<g>
</g>
</svg>
