<?xml version="1.0" encoding="iso-8859-1"?>
<!-- Generator: Adobe Illustrator 18.0.0, SVG Export Plug-In . SVG Version: 6.00 Build 0)  -->
<!DOCTYPE svg PUBLIC "-//W3C//DTD SVG 1.1//EN" "http://www.w3.org/Graphics/SVG/1.1/DTD/svg11.dtd">
<svg version="1.1" id="Capa_1" xmlns="http://www.w3.org/2000/svg" xmlns:xlink="http://www.w3.org/1999/xlink" x="0px" y="0px"
	 viewBox="0 0 60 60" style="enable-background:new 0 0 60 60;" xml:space="preserve">
<g>
	<path d="M57,40V24V9c1.654,0,3-1.346,3-3s-1.346-3-3-3H3C1.346,3,0,4.346,0,6s1.346,3,3,3v15v16c0,0.553,0.447,1,1,1h3.835
		c-1.287,1.731-2.426,4.168-1.813,6.995c0.654,3.015-0.284,4.079-0.479,4.263c-0.017,0.015-0.031,0.029-0.046,0.045l-3.18,2.966
		c-0.301,0.28-0.399,0.716-0.249,1.098C2.22,56.749,2.589,57,3,57h1.108C10.092,57,13,53.985,13,47.783
		c0-4.65,2.923-6.536,3.073-6.631L16.302,41h27.395l0.254,0.169C44.077,41.247,47,43.133,47,47.783C47,53.985,49.908,57,55.892,57
		H57c0.411,0,0.78-0.251,0.931-0.634c0.15-0.382,0.052-0.817-0.249-1.098l-3.18-2.966c-0.015-0.016-0.029-0.03-0.046-0.045
		c-0.194-0.184-1.133-1.248-0.479-4.263c0.613-2.828-0.526-5.264-1.813-6.995H56C56.553,41,57,40.553,57,40z M2,6
		c0-0.552,0.448-1,1-1h54c0.552,0,1,0.448,1,1s-0.448,1-1,1h-1H4H3C2.448,7,2,6.552,2,6z M55,9v14H5V9H55z M11,47.783
		c0,4.492-1.626,6.697-5.374,7.135l1.26-1.175c0.019-0.017,0.035-0.033,0.052-0.051c0.609-0.587,1.865-2.316,1.04-6.121
		C7.369,44.769,9.148,42.344,10.455,41h2.852C12.213,42.306,11,44.495,11,47.783z M52.022,47.571
		c-0.822,3.79,0.421,5.521,1.039,6.119c0.017,0.019,0.034,0.036,0.053,0.053l1.26,1.175C50.626,54.48,49,52.275,49,47.783
		c0-3.29-1.214-5.48-2.305-6.783h2.85C50.852,42.344,52.631,44.769,52.022,47.571z M55,39h-5.042H44H16h-5.958H5V25h50V39z"/>
	<path d="M7.2,19.03C8.118,18.839,9,19.573,9,20.5c0,0.1-0.01,0.201-0.03,0.3c-0.061,0.294,0.015,0.6,0.205,0.832
		C9.364,21.865,9.648,22,9.949,22h40.102c0.301,0,0.585-0.135,0.774-0.368c0.19-0.232,0.266-0.538,0.205-0.832
		C51.01,20.701,51,20.6,51,20.5c0-0.927,0.879-1.662,1.8-1.47c0.295,0.063,0.601-0.015,0.832-0.205
		C53.865,18.636,54,18.352,54,18.051v-4.102c0-0.301-0.135-0.585-0.368-0.774c-0.232-0.19-0.538-0.267-0.832-0.205
		c-0.92,0.19-1.8-0.543-1.8-1.47c0-0.1,0.01-0.201,0.03-0.3c0.061-0.294-0.015-0.6-0.205-0.832C50.636,10.135,50.352,10,50.051,10
		H9.949c-0.301,0-0.585,0.135-0.774,0.368c-0.19,0.232-0.266,0.538-0.205,0.832C8.99,11.299,9,11.4,9,11.5
		c0,0.927-0.883,1.659-1.8,1.47c-0.293-0.06-0.6,0.015-0.832,0.205C6.135,13.364,6,13.648,6,13.949v4.102
		c0,0.301,0.135,0.585,0.368,0.774C6.6,19.015,6.903,19.091,7.2,19.03z M8,14.965c1.53-0.221,2.744-1.435,2.965-2.965h38.07
		c0.221,1.53,1.435,2.744,2.965,2.965v2.07c-1.53,0.221-2.744,1.435-2.965,2.965h-38.07C10.744,18.47,9.53,17.256,8,17.035V14.965z"
		/>
	<path d="M7.2,35.03C8.118,34.839,9,35.573,9,36.5c0,0.1-0.01,0.201-0.03,0.3c-0.061,0.294,0.015,0.6,0.205,0.832
		C9.364,37.865,9.648,38,9.949,38h40.102c0.301,0,0.585-0.135,0.774-0.368c0.19-0.232,0.266-0.538,0.205-0.832
		C51.01,36.701,51,36.6,51,36.5c0-0.927,0.879-1.662,1.8-1.47c0.295,0.062,0.601-0.015,0.832-0.205
		C53.865,34.636,54,34.352,54,34.051v-4.102c0-0.301-0.135-0.585-0.368-0.774c-0.232-0.19-0.538-0.267-0.832-0.205
		c-0.92,0.19-1.8-0.543-1.8-1.47c0-0.1,0.01-0.201,0.03-0.3c0.061-0.294-0.015-0.6-0.205-0.832C50.636,26.135,50.352,26,50.051,26
		H9.949c-0.301,0-0.585,0.135-0.774,0.368c-0.19,0.232-0.266,0.538-0.205,0.832C8.99,27.299,9,27.4,9,27.5
		c0,0.927-0.883,1.659-1.8,1.47c-0.293-0.061-0.6,0.016-0.832,0.205C6.135,29.364,6,29.648,6,29.949v4.102
		c0,0.301,0.135,0.585,0.368,0.774C6.6,35.015,6.903,35.091,7.2,35.03z M8,30.965c1.53-0.221,2.744-1.435,2.965-2.965h38.07
		c0.221,1.53,1.435,2.744,2.965,2.965v2.07c-1.53,0.221-2.744,1.435-2.965,2.965h-38.07C10.744,34.47,9.53,33.256,8,33.035V30.965z"
		/>
	<path d="M27,34h6c1.654,0,3-1.346,3-3c0-0.553-0.447-1-1-1s-1,0.447-1,1c0,0.552-0.448,1-1,1h-6c-0.552,0-1-0.448-1-1
		c0-0.553-0.447-1-1-1s-1,0.447-1,1C24,32.654,25.346,34,27,34z"/>
	<path d="M27,18h6c1.654,0,3-1.346,3-3c0-0.553-0.447-1-1-1s-1,0.447-1,1c0,0.552-0.448,1-1,1h-6c-0.552,0-1-0.448-1-1
		c0-0.553-0.447-1-1-1s-1,0.447-1,1C24,16.654,25.346,18,27,18z"/>
</g>
<g>
</g>
<g>
</g>
<g>
</g>
<g>
</g>
<g>
</g>
<g>
</g>
<g>
</g>
<g>
</g>
<g>
</g>
<g>
</g>
<g>
</g>
<g>
</g>
<g>
</g>
<g>
</g>
<g>
</g>
</svg>
