<?xml version="1.0" encoding="iso-8859-1"?>
<!-- Generator: Adobe Illustrator 18.0.0, SVG Export Plug-In . SVG Version: 6.00 Build 0)  -->
<!DOCTYPE svg PUBLIC "-//W3C//DTD SVG 1.1//EN" "http://www.w3.org/Graphics/SVG/1.1/DTD/svg11.dtd">
<svg version="1.1" id="Capa_1" xmlns="http://www.w3.org/2000/svg" xmlns:xlink="http://www.w3.org/1999/xlink" x="0px" y="0px"
	 viewBox="0 0 59 59" style="enable-background:new 0 0 59 59;" xml:space="preserve">
<g>
	<path d="M48.5,22.5h-38C6.916,22.5,4,25.416,4,29s2.916,6.5,6.5,6.5h38c3.584,0,6.5-2.916,6.5-6.5S52.084,22.5,48.5,22.5z
		 M48.5,33.5h-38C8.019,33.5,6,31.481,6,29s2.019-4.5,4.5-4.5h38c2.481,0,4.5,2.019,4.5,4.5S50.981,33.5,48.5,33.5z"/>
	<path d="M59,29c0-5.79-4.71-10.5-10.5-10.5H36c0-0.256-0.098-0.512-0.293-0.707l-1.621-1.621C35.847,14.899,37,12.834,37,10.5
		c0-0.771-0.13-1.512-0.362-2.206C38.008,7.819,39,6.529,39,5c0-1.93-1.57-3.5-3.5-3.5c-1.529,0-2.819,0.992-3.294,2.362
		C31.512,3.63,30.771,3.5,30,3.5s-1.512,0.13-2.206,0.362C27.319,2.492,26.029,1.5,24.5,1.5C22.57,1.5,21,3.07,21,5
		c0,1.529,0.992,2.819,2.362,3.294C23.13,8.988,23,9.729,23,10.5c0,2.334,1.153,4.399,2.914,5.672l-1.621,1.621
		C24.098,17.988,24,18.244,24,18.5H10.5C4.71,18.5,0,23.21,0,29c0,5.613,4.43,10.197,9.975,10.473l-2.96,16.854
		c-0.051,0.291,0.029,0.59,0.219,0.815C7.424,57.369,7.705,57.5,8,57.5h2.513c0.459,0,0.859-0.313,0.97-0.758L15.793,39.5h27.413
		l4.311,17.242c0.111,0.445,0.511,0.758,0.97,0.758H51c0.295,0,0.576-0.131,0.766-0.357c0.19-0.226,0.271-0.524,0.219-0.815
		l-2.96-16.854C54.57,39.197,59,34.613,59,29z M35.5,3.5C36.327,3.5,37,4.173,37,5c0,0.752-0.558,1.37-1.28,1.478
		c-0.465-0.659-1.039-1.233-1.697-1.698C34.13,4.058,34.748,3.5,35.5,3.5z M23,5c0-0.827,0.673-1.5,1.5-1.5
		c0.752,0,1.37,0.558,1.478,1.28c-0.659,0.465-1.233,1.039-1.697,1.698C23.558,6.37,23,5.752,23,5z M25,10.5c0-2.757,2.243-5,5-5
		s5,2.243,5,5s-2.243,5-5,5S25,13.257,25,10.5z M27.707,17.207c0.024-0.024,0.033-0.055,0.054-0.081
		C28.465,17.365,29.216,17.5,30,17.5s1.535-0.135,2.239-0.374c0.021,0.026,0.03,0.057,0.054,0.081l1.293,1.293h-7.172L27.707,17.207
		z M9.732,55.5H9.191l2.811-16h1.73L9.732,55.5z M49.268,55.5l-4-16h1.73l2.811,16H49.268z M48.5,37.5h-0.662h-3.851H15.013h-3.851
		H10.5C5.813,37.5,2,33.687,2,29s3.813-8.5,8.5-8.5h38c4.687,0,8.5,3.813,8.5,8.5S53.187,37.5,48.5,37.5z"/>
	<path d="M29.294,11.208l1.999,1.999C31.488,13.402,31.744,13.5,32,13.5s0.512-0.098,0.707-0.293c0.391-0.391,0.391-1.023,0-1.414
		L31,10.086V7.5c0-0.553-0.448-1-1-1s-1,0.447-1,1v3c0,0.13,0.027,0.26,0.077,0.382C29.128,11.005,29.201,11.115,29.294,11.208z"/>
	<circle cx="21.5" cy="29" r="1.5"/>
	<circle cx="38.5" cy="29" r="1.5"/>
</g>
<g>
</g>
<g>
</g>
<g>
</g>
<g>
</g>
<g>
</g>
<g>
</g>
<g>
</g>
<g>
</g>
<g>
</g>
<g>
</g>
<g>
</g>
<g>
</g>
<g>
</g>
<g>
</g>
<g>
</g>
</svg>
