<?xml version="1.0" encoding="iso-8859-1"?>
<!-- Generator: Adobe Illustrator 18.0.0, SVG Export Plug-In . SVG Version: 6.00 Build 0)  -->
<!DOCTYPE svg PUBLIC "-//W3C//DTD SVG 1.1//EN" "http://www.w3.org/Graphics/SVG/1.1/DTD/svg11.dtd">
<svg version="1.1" id="Capa_1" xmlns="http://www.w3.org/2000/svg" xmlns:xlink="http://www.w3.org/1999/xlink" x="0px" y="0px"
	 viewBox="0 0 60 60" style="enable-background:new 0 0 60 60;" xml:space="preserve">
<g>
	<path d="M58.718,27.878C58.899,26.773,59,25.646,59,24.5c0-8.875-5.615-16.662-14-20.961V3.526l-0.563-0.273
		c-0.115-0.056-0.234-0.103-0.349-0.157c-0.297-0.14-0.598-0.274-0.901-0.405c-0.183-0.079-0.364-0.162-0.55-0.238
		c-0.491-0.202-0.99-0.391-1.496-0.569c-0.116-0.041-0.235-0.078-0.352-0.117c-0.435-0.148-0.874-0.287-1.319-0.417
		c-0.123-0.036-0.247-0.072-0.371-0.106C38.59,1.1,38.076,0.968,37.556,0.849c-0.036-0.008-0.071-0.018-0.107-0.026
		c-0.592-0.133-1.191-0.251-1.796-0.352c-0.021-0.004-0.043-0.006-0.064-0.01c-0.539-0.089-1.084-0.164-1.633-0.227
		c-0.136-0.016-0.272-0.03-0.408-0.044c-0.449-0.047-0.902-0.084-1.358-0.113c-0.148-0.009-0.296-0.021-0.445-0.029
		C31.167,0.019,30.586,0,30,0s-1.167,0.019-1.745,0.048c-0.149,0.008-0.297,0.019-0.445,0.029c-0.456,0.029-0.908,0.066-1.358,0.113
		c-0.136,0.014-0.272,0.028-0.408,0.044c-0.549,0.064-1.094,0.138-1.633,0.227c-0.021,0.004-0.043,0.006-0.064,0.01
		c-0.606,0.102-1.205,0.219-1.796,0.352c-0.036,0.008-0.071,0.018-0.107,0.026C21.923,0.968,21.409,1.1,20.9,1.242
		c-0.124,0.035-0.247,0.07-0.371,0.106c-0.444,0.13-0.884,0.269-1.318,0.417c-0.118,0.04-0.236,0.077-0.353,0.118
		c-0.506,0.178-1.004,0.368-1.495,0.569c-0.185,0.076-0.366,0.159-0.55,0.238c-0.303,0.131-0.604,0.265-0.901,0.405
		c-0.115,0.054-0.235,0.101-0.349,0.157L15,3.526v0.013C6.615,7.838,1,15.625,1,24.5c0,1.146,0.101,2.273,0.282,3.378
		c0,0.004,0.001,0.008,0.002,0.012c1.821,11.059,12.406,19.779,25.621,20.969c-0.342,1.66-1.642,3.014-3.351,3.364L11,54.795v0.816
		c0,1.292,0.565,2.513,1.552,3.349c0.986,0.836,2.284,1.194,3.6,0.972c9.188-1.931,18.508-1.931,27.739,0.008
		C44.132,59.98,44.374,60,44.614,60c1.031,0,2.034-0.363,2.834-1.04C48.434,58.124,49,56.903,49,55.611v-0.816l-12.555-2.572
		c-1.708-0.35-3.008-1.704-3.35-3.364c13.215-1.19,23.8-9.911,25.621-20.969C58.716,27.885,58.717,27.882,58.718,27.878z M57,24.5
		c0,0.913-0.073,1.811-0.201,2.696c-1.636,1.235-3.376,2.345-5.204,3.327C50.539,27.297,47.484,25,44,25h-6.798
		C41.845,22.447,45,17.51,45,11.848V5.802C52.23,9.843,57,16.716,57,24.5z M45.128,33.335c-1.561,0.534-3.161,0.982-4.789,1.346
		c-0.072,0.016-0.144,0.032-0.217,0.047c-0.783,0.171-1.572,0.325-2.366,0.456c-0.014,0.002-0.028,0.005-0.042,0.007
		c-0.806,0.133-1.617,0.242-2.432,0.333c-0.121,0.013-0.243,0.023-0.365,0.036c-0.656,0.068-1.316,0.121-1.977,0.162
		c-0.199,0.012-0.398,0.025-0.597,0.035c-0.779,0.038-1.561,0.064-2.344,0.064s-1.565-0.025-2.344-0.064
		c-0.198-0.01-0.396-0.023-0.593-0.035c-0.662-0.041-1.322-0.093-1.979-0.162c-0.12-0.012-0.242-0.022-0.362-0.035
		c-0.818-0.091-1.632-0.201-2.44-0.334c-0.003,0-0.005-0.001-0.008-0.001c-0.809-0.133-1.613-0.29-2.41-0.465
		c-0.06-0.013-0.12-0.026-0.179-0.039c-3.297-0.737-6.481-1.824-9.469-3.248C10.909,28.864,13.281,27,16,27h28
		c2.719,0,5.091,1.864,5.786,4.438c-1.502,0.716-3.054,1.348-4.646,1.892C45.136,33.332,45.132,33.334,45.128,33.335z M17,4.787
		c0.012-0.006,0.024-0.012,0.037-0.018c0.471-0.216,0.95-0.419,1.435-0.61c0.053-0.021,0.107-0.04,0.16-0.06
		c0.434-0.168,0.873-0.327,1.316-0.475c0.083-0.028,0.167-0.055,0.251-0.083c0.458-0.149,0.921-0.289,1.388-0.417
		c0.035-0.01,0.07-0.02,0.106-0.03c1.042-0.281,2.105-0.509,3.181-0.682c0.067-0.011,0.135-0.02,0.203-0.03
		c0.444-0.069,0.891-0.127,1.34-0.178c0.127-0.014,0.254-0.028,0.381-0.04c0.404-0.04,0.81-0.071,1.217-0.096
		c0.135-0.008,0.269-0.019,0.405-0.026C28.944,2.016,29.471,2,30,2s1.056,0.016,1.582,0.042c0.136,0.007,0.27,0.018,0.405,0.026
		c0.407,0.025,0.812,0.056,1.217,0.096c0.127,0.013,0.254,0.026,0.381,0.04c0.449,0.05,0.896,0.109,1.34,0.178
		c0.067,0.01,0.135,0.019,0.203,0.03c1.076,0.174,2.139,0.401,3.181,0.682c0.035,0.01,0.07,0.02,0.106,0.03
		c0.467,0.128,0.929,0.268,1.388,0.417c0.084,0.027,0.167,0.055,0.251,0.083c0.443,0.148,0.882,0.307,1.316,0.475
		c0.053,0.021,0.107,0.039,0.16,0.06c0.485,0.191,0.964,0.395,1.435,0.61C42.975,4.775,42.987,4.781,43,4.787v7.061
		c0,7.168-5.832,13-13,13s-13-5.832-13-13V4.787z M15,5.802v6.046C15,17.51,18.155,22.447,22.798,25H16
		c-3.484,0-6.539,2.297-7.595,5.523c-1.828-0.982-3.568-2.092-5.204-3.327C3.073,26.311,3,25.413,3,24.5
		C3,16.716,7.769,9.843,15,5.802z M31.08,49c0.412,2.549,2.374,4.652,4.964,5.182l10.822,2.217
		c-0.139,0.397-0.382,0.755-0.711,1.034c-0.537,0.455-1.247,0.648-1.895,0.542c-4.737-0.996-9.505-1.493-14.27-1.493
		c-4.754,0-9.505,0.496-14.21,1.485c-0.697,0.115-1.4-0.08-1.937-0.534c-0.329-0.279-0.572-0.636-0.711-1.034l10.821-2.217
		c2.591-0.53,4.553-2.633,4.965-5.182H31.08z M30,47C17.435,47,6.847,39.811,3.849,30.109c1.34,0.9,2.733,1.732,4.18,2.482v0.001
		l0.647,0.322c0.012,0.006,0.024,0.011,0.036,0.017c1.588,0.788,3.23,1.486,4.921,2.089c0.033,0.012,0.066,0.023,0.099,0.034
		c1.682,0.596,3.409,1.101,5.172,1.507c0.04,0.009,0.08,0.017,0.12,0.026c0.812,0.185,1.63,0.348,2.456,0.492
		c0.094,0.016,0.188,0.035,0.283,0.05c0.861,0.145,1.727,0.27,2.6,0.369c0.068,0.008,0.135,0.013,0.203,0.02
		c0.762,0.083,1.528,0.146,2.297,0.195c0.205,0.013,0.41,0.026,0.615,0.036c0.838,0.042,1.678,0.071,2.523,0.071
		s1.685-0.029,2.523-0.071c0.206-0.01,0.41-0.023,0.616-0.036c0.769-0.048,1.535-0.111,2.297-0.195
		c0.068-0.007,0.136-0.012,0.203-0.02c0.873-0.099,1.739-0.224,2.6-0.369c0.095-0.016,0.188-0.034,0.283-0.05
		c0.825-0.144,1.644-0.307,2.456-0.492c0.04-0.009,0.08-0.017,0.12-0.026c1.763-0.406,3.489-0.911,5.171-1.507
		c0.033-0.012,0.067-0.023,0.1-0.035c1.69-0.603,3.333-1.301,4.92-2.089c0.012-0.006,0.024-0.011,0.036-0.017l0.036-0.019
		c1.664-0.83,3.265-1.76,4.792-2.786C53.152,39.811,42.565,47,30,47z"/>
	<circle cx="24" cy="10" r="1"/>
	<circle cx="30" cy="10" r="1"/>
	<circle cx="24" cy="16" r="1"/>
	<circle cx="30" cy="16" r="1"/>
	<circle cx="27" cy="13" r="1"/>
	<circle cx="33" cy="13" r="1"/>
	<circle cx="27" cy="7.152" r="1"/>
	<circle cx="33" cy="7.152" r="1"/>
	<circle cx="36" cy="10" r="1"/>
	<circle cx="36" cy="16" r="1"/>
</g>
<g>
</g>
<g>
</g>
<g>
</g>
<g>
</g>
<g>
</g>
<g>
</g>
<g>
</g>
<g>
</g>
<g>
</g>
<g>
</g>
<g>
</g>
<g>
</g>
<g>
</g>
<g>
</g>
<g>
</g>
</svg>
