<?xml version="1.0" encoding="iso-8859-1"?>
<!-- Generator: Adobe Illustrator 18.0.0, SVG Export Plug-In . SVG Version: 6.00 Build 0)  -->
<!DOCTYPE svg PUBLIC "-//W3C//DTD SVG 1.1//EN" "http://www.w3.org/Graphics/SVG/1.1/DTD/svg11.dtd">
<svg version="1.1" id="Capa_1" xmlns="http://www.w3.org/2000/svg" xmlns:xlink="http://www.w3.org/1999/xlink" x="0px" y="0px"
	 viewBox="0 0 60 60" style="enable-background:new 0 0 60 60;" xml:space="preserve">
<g>
	<path d="M21.293,12.707C21.488,12.903,21.744,13,22,13s0.512-0.098,0.707-0.293c0.391-0.391,0.391-1.023,0-1.414L21.414,10
		l1.293-1.293c0.391-0.391,0.391-1.023,0-1.414s-1.023-0.391-1.414,0L20,8.586l-1.293-1.293c-0.391-0.391-1.023-0.391-1.414,0
		s-0.391,1.023,0,1.414L18.586,10l-1.293,1.293c-0.391,0.391-0.391,1.023,0,1.414C17.488,12.903,17.744,13,18,13
		s0.512-0.098,0.707-0.293L20,11.414L21.293,12.707z"/>
	<path d="M37.293,12.707C37.488,12.903,37.744,13,38,13s0.512-0.098,0.707-0.293L40,11.414l1.293,1.293
		C41.488,12.903,41.744,13,42,13s0.512-0.098,0.707-0.293c0.391-0.391,0.391-1.023,0-1.414L41.414,10l1.293-1.293
		c0.391-0.391,0.391-1.023,0-1.414s-1.023-0.391-1.414,0L40,8.586l-1.293-1.293c-0.391-0.391-1.023-0.391-1.414,0
		s-0.391,1.023,0,1.414L38.586,10l-1.293,1.293C36.902,11.684,36.902,12.317,37.293,12.707z"/>
	<path d="M15.293,29.707C15.488,29.903,15.744,30,16,30s0.512-0.098,0.707-0.293L18,28.414l1.293,1.293
		C19.488,29.903,19.744,30,20,30s0.512-0.098,0.707-0.293c0.391-0.391,0.391-1.023,0-1.414L19.414,27l1.293-1.293
		c0.391-0.391,0.391-1.023,0-1.414s-1.023-0.391-1.414,0L18,25.586l-1.293-1.293c-0.391-0.391-1.023-0.391-1.414,0
		s-0.391,1.023,0,1.414L16.586,27l-1.293,1.293C14.902,28.684,14.902,29.317,15.293,29.707z"/>
	<path d="M39.293,29.707C39.488,29.903,39.744,30,40,30s0.512-0.098,0.707-0.293L42,28.414l1.293,1.293
		C43.488,29.903,43.744,30,44,30s0.512-0.098,0.707-0.293c0.391-0.391,0.391-1.023,0-1.414L43.414,27l1.293-1.293
		c0.391-0.391,0.391-1.023,0-1.414s-1.023-0.391-1.414,0L42,25.586l-1.293-1.293c-0.391-0.391-1.023-0.391-1.414,0
		s-0.391,1.023,0,1.414L40.586,27l-1.293,1.293C38.902,28.684,38.902,29.317,39.293,29.707z"/>
	<path d="M56.5,23h-0.975c-1.297,0-2.518,0.33-3.584,0.91C51.663,22.262,50.236,21,48.511,21H41v-2h3.914
		C48.821,19,52,15.821,52,11.914V5.72C52,2.566,49.435,0,46.28,0H13.72C10.565,0,8,2.566,8,5.72v6.194C8,15.821,11.179,19,15.086,19
		H19v2h-7.511c-1.725,0-3.152,1.262-3.431,2.91C6.992,23.33,5.771,23,4.475,23H3.5C1.57,23,0,24.571,0,26.5S1.57,30,3.5,30h1.21
		C4.87,30,5,30.13,5,30.29V34l0.018,0.336C5.015,34.395,5,34.451,5,34.511v2.794C5,43.754,10.246,49,16.695,49H27v2.518l-16,3.277
		v0.816c0,1.292,0.565,2.513,1.552,3.349c0.986,0.836,2.283,1.194,3.6,0.972L30,57.022l13.891,2.917
		C44.132,59.98,44.374,60,44.614,60c1.031,0,2.034-0.363,2.834-1.04C48.435,58.124,49,56.904,49,55.611v-0.816l-16-3.277V49h10.305
		C49.754,49,55,43.754,55,37.305V35v-0.489V30.29c0-0.16,0.13-0.29,0.29-0.29h1.21c1.93,0,3.5-1.57,3.5-3.5S58.43,23,56.5,23z
		 M10,11.914V5.72C10,3.669,11.669,2,13.72,2H46.28C48.331,2,50,3.669,50,5.72v6.194C50,14.719,47.719,17,44.914,17H15.086
		C12.281,17,10,14.719,10,11.914z M21,19h18v2H21V19z M10,24.49c0-0.821,0.668-1.49,1.489-1.49h37.021C49.332,23,50,23.669,50,24.49
		v0.933c-0.049,0.053-0.091,0.11-0.139,0.164c-0.074,0.085-0.148,0.17-0.218,0.259c-0.089,0.11-0.172,0.224-0.253,0.339
		c-0.051,0.072-0.103,0.144-0.152,0.218c-0.091,0.138-0.175,0.279-0.257,0.422c-0.034,0.059-0.068,0.118-0.101,0.178
		c-0.086,0.16-0.163,0.324-0.236,0.49c-0.023,0.051-0.047,0.102-0.069,0.154c-0.072,0.174-0.136,0.352-0.195,0.531
		c-0.017,0.051-0.036,0.101-0.052,0.153c-0.054,0.179-0.099,0.36-0.14,0.543c-0.013,0.058-0.029,0.114-0.041,0.172
		c-0.036,0.184-0.062,0.37-0.085,0.557c-0.007,0.06-0.019,0.118-0.025,0.177C48.014,30.026,48,30.275,48,30.526V31H12v-0.475
		c0-0.251-0.014-0.5-0.038-0.746c-0.006-0.06-0.018-0.118-0.025-0.177c-0.023-0.187-0.049-0.374-0.085-0.557
		c-0.012-0.058-0.028-0.115-0.041-0.172c-0.041-0.183-0.086-0.365-0.14-0.543c-0.016-0.052-0.035-0.101-0.052-0.153
		c-0.059-0.179-0.122-0.357-0.195-0.531c-0.022-0.052-0.046-0.102-0.069-0.154c-0.073-0.166-0.151-0.329-0.236-0.49
		c-0.032-0.06-0.067-0.118-0.101-0.178c-0.081-0.143-0.166-0.284-0.257-0.422c-0.049-0.074-0.101-0.146-0.152-0.218
		c-0.082-0.115-0.165-0.228-0.253-0.339c-0.07-0.088-0.144-0.174-0.218-0.259c-0.047-0.054-0.09-0.111-0.139-0.164V24.49z M50,33
		h0.426c-0.789,1.214-4.224,5-7.121,5H16.695c-2.897,0-6.332-3.786-7.121-5H10h2h36H50z M4.71,28H3.5C2.673,28,2,27.327,2,26.5
		S2.673,25,3.5,25h0.975c1.491,0,2.843,0.596,3.838,1.559c0.263,0.254,0.496,0.531,0.7,0.823c0.008,0.011,0.017,0.021,0.025,0.033
		c0.199,0.29,0.367,0.598,0.506,0.917c0.008,0.019,0.018,0.037,0.026,0.056c0.137,0.325,0.243,0.664,0.315,1.012
		c0.002,0.011,0.004,0.023,0.007,0.034C9.962,29.79,10,30.155,10,30.526V31H8.511c-0.259,0-0.509,0.032-0.752,0.086
		c-0.064,0.014-0.122,0.04-0.185,0.058c-0.178,0.05-0.352,0.106-0.518,0.182C7.038,31.334,7.018,31.336,7,31.345V30.29
		C7,29.028,5.973,28,4.71,28z M46.866,56.4c-0.139,0.397-0.382,0.755-0.711,1.034c-0.536,0.455-1.248,0.648-1.895,0.542L30,54.978
		l-14.219,2.989c-0.697,0.115-1.401-0.08-1.937-0.534c-0.329-0.279-0.572-0.636-0.711-1.034L29,53.15V49h2v4.149L46.866,56.4z
		 M53,37.305C53,42.651,48.65,47,43.305,47H33h-6H16.695C11.35,47,7,42.651,7,37.305v-2.794c0-0.102,0.011-0.202,0.03-0.298
		l0.002-0.01c0.033-0.161,0.097-0.308,0.177-0.445c0.01-0.017,0.018-0.036,0.029-0.053c0.081-0.127,0.181-0.238,0.295-0.335
		c0.004-0.004,0.009-0.007,0.013-0.011C8.138,35.109,12.788,40,16.695,40h26.609c3.907,0,8.558-4.891,9.15-6.641
		c0.004,0.004,0.009,0.007,0.013,0.011c0.113,0.097,0.214,0.208,0.295,0.335c0.011,0.017,0.019,0.036,0.029,0.053
		c0.079,0.137,0.144,0.284,0.177,0.445l0.002,0.006C52.989,34.307,53,34.408,53,34.511V37.305z M56.5,28h-1.21
		C54.027,28,53,29.028,53,30.29v1.055c-0.018-0.008-0.038-0.011-0.056-0.02c-0.165-0.076-0.34-0.132-0.518-0.182
		c-0.063-0.018-0.121-0.044-0.185-0.058C51.998,31.033,51.748,31,51.489,31H50v-0.475c0-0.371,0.038-0.736,0.109-1.091
		c0.002-0.011,0.004-0.023,0.007-0.034c0.072-0.348,0.178-0.686,0.315-1.012c0.008-0.019,0.018-0.037,0.026-0.056
		c0.139-0.32,0.307-0.627,0.506-0.917c0.008-0.011,0.017-0.022,0.025-0.033c0.204-0.292,0.437-0.569,0.7-0.823
		C52.682,25.596,54.035,25,55.525,25H56.5c0.827,0,1.5,0.673,1.5,1.5S57.327,28,56.5,28z"/>
</g>
<g>
</g>
<g>
</g>
<g>
</g>
<g>
</g>
<g>
</g>
<g>
</g>
<g>
</g>
<g>
</g>
<g>
</g>
<g>
</g>
<g>
</g>
<g>
</g>
<g>
</g>
<g>
</g>
<g>
</g>
</svg>
