<?xml version="1.0" encoding="iso-8859-1"?>
<!-- Generator: Adobe Illustrator 18.0.0, SVG Export Plug-In . SVG Version: 6.00 Build 0)  -->
<!DOCTYPE svg PUBLIC "-//W3C//DTD SVG 1.1//EN" "http://www.w3.org/Graphics/SVG/1.1/DTD/svg11.dtd">
<svg version="1.1" id="Capa_1" xmlns="http://www.w3.org/2000/svg" xmlns:xlink="http://www.w3.org/1999/xlink" x="0px" y="0px"
	 viewBox="0 0 60 60" style="enable-background:new 0 0 60 60;" xml:space="preserve">
<g>
	<path d="M46,51.051V50c0-0.03-0.014-0.055-0.017-0.084c-0.006-0.069-0.02-0.133-0.04-0.198c-0.018-0.061-0.038-0.119-0.067-0.174
		c-0.029-0.057-0.065-0.106-0.105-0.156c-0.04-0.051-0.081-0.098-0.13-0.14c-0.047-0.04-0.098-0.072-0.153-0.103
		c-0.059-0.034-0.118-0.062-0.184-0.084c-0.028-0.009-0.05-0.029-0.079-0.036L33,46.204V45h-2v-2h2v-3h1v-2.586l3.292,3.292
		c0.092,0.093,0.203,0.166,0.326,0.217C37.74,40.973,37.87,41,38,41h3c0.553,0,1-0.448,1-1s-0.447-1-1-1h-2.586l-2-2H46v-1.992
		C46,32.798,44.202,31,41.992,31H33v-1h10V9.576C44.763,8.802,46,7.045,46,5c0-2.757-2.243-5-5-5H19c-2.757,0-5,2.243-5,5
		c0,2.045,1.237,3.802,3,4.576V30h10v1h-8.992C15.798,31,14,32.798,14,35.008V37h12v3h1v3h2v2h-2v1.204l-12.225,2.821
		c-0.029,0.007-0.051,0.027-0.079,0.036c-0.066,0.021-0.125,0.05-0.184,0.084c-0.055,0.031-0.106,0.063-0.153,0.103
		c-0.049,0.042-0.09,0.089-0.13,0.14c-0.04,0.05-0.075,0.099-0.105,0.156c-0.029,0.056-0.048,0.113-0.067,0.174
		c-0.02,0.065-0.034,0.129-0.04,0.198C14.014,49.945,14,49.97,14,50v1.051c-2.244,0.252-4,2.139-4,4.449c0,2.481,2.019,4.5,4.5,4.5
		s4.5-2.019,4.5-4.5c0-1.953-1.258-3.602-3-4.224v-0.481l11-2.538v0.329l-2.422,2.422C24.551,51.007,24.527,51,24.5,51
		c-2.481,0-4.5,2.019-4.5,4.5s2.019,4.5,4.5,4.5s4.5-2.019,4.5-4.5c0-1.648-0.9-3.077-2.225-3.861L28.414,50h3.172l1.639,1.639
		C31.9,52.423,31,53.852,31,55.5c0,2.481,2.019,4.5,4.5,4.5s4.5-2.019,4.5-4.5S37.981,51,35.5,51c-0.027,0-0.051,0.007-0.078,0.008
		L33,48.586v-0.329l11,2.538v0.481c-1.742,0.621-3,2.271-3,4.224c0,2.481,2.019,4.5,4.5,4.5s4.5-2.019,4.5-4.5
		C50,53.19,48.244,51.303,46,51.051z M16,5c0-1.654,1.346-3,3-3h22c1.654,0,3,1.346,3,3s-1.346,3-3,3H19C17.346,8,16,6.654,16,5z
		 M25,28c0-0.552-0.447-1-1-1s-1,0.448-1,1h-4v-2c0.553,0,1-0.448,1-1s-0.447-1-1-1v-2c0.553,0,1-0.448,1-1s-0.447-1-1-1v-2
		c0.553,0,1-0.448,1-1s-0.447-1-1-1v-2c0.553,0,1-0.448,1-1s-0.447-1-1-1v-2h4c0,0.552,0.447,1,1,1s1-0.448,1-1h4
		c0,0.552,0.447,1,1,1s1-0.448,1-1h4c0,0.552,0.447,1,1,1s1-0.448,1-1h4v2c-0.553,0-1,0.448-1,1s0.447,1,1,1v2c-0.553,0-1,0.448-1,1
		s0.447,1,1,1v2c-0.553,0-1,0.448-1,1s0.447,1,1,1v2c-0.553,0-1,0.448-1,1s0.447,1,1,1v2h-4c0-0.552-0.447-1-1-1s-1,0.448-1,1h-2h-2
		c0-0.552-0.447-1-1-1s-1,0.448-1,1h-2H25z M29,30h2v1h-2V30z M16,35c0.004-1.104,0.903-2,2.008-2H27h6h8.992
		c1.104,0,2.004,0.896,2.008,2H34h-8H16z M32,37v1h-4v-1H32z M31,40v1h-2v-1H31z M17,55.5c0,1.378-1.121,2.5-2.5,2.5
		S12,56.878,12,55.5s1.121-2.5,2.5-2.5S17,54.122,17,55.5z M24.5,58c-1.379,0-2.5-1.122-2.5-2.5s1.121-2.5,2.5-2.5
		s2.5,1.122,2.5,2.5S25.879,58,24.5,58z M38,55.5c0,1.378-1.121,2.5-2.5,2.5S33,56.878,33,55.5s1.121-2.5,2.5-2.5S38,54.122,38,55.5
		z M29,47h2v1h-2V47z M45.5,58c-1.379,0-2.5-1.122-2.5-2.5s1.121-2.5,2.5-2.5s2.5,1.122,2.5,2.5S46.879,58,45.5,58z"/>
	<path d="M29,16c-0.553,0-1,0.448-1,1s0.447,1,1,1h2c0.553,0,1-0.448,1-1s-0.447-1-1-1v-1.5c0-0.186-0.065-0.351-0.153-0.5H31
		c0.553,0,1-0.448,1-1s-0.447-1-1-1h-2c-0.553,0-1,0.448-1,1s0.447,1,1,1h0.153C29.065,14.149,29,14.314,29,14.5V16z"/>
	<path d="M25,22c0.553,0,1-0.448,1-1s-0.447-1-1-1h-2c-0.553,0-1,0.448-1,1s0.447,1,1,1v1.5c0,0.186,0.065,0.351,0.153,0.5H23
		c-0.553,0-1,0.448-1,1s0.447,1,1,1h2c0.553,0,1-0.448,1-1s-0.447-1-1-1h-0.153C24.935,23.851,25,23.686,25,23.5V22z"/>
	<path d="M35,16c-0.553,0-1,0.448-1,1s0.447,1,1,1h2c0.553,0,1-0.448,1-1s-0.447-1-1-1v-1.5c0-0.186-0.065-0.351-0.153-0.5H37
		c0.553,0,1-0.448,1-1s-0.447-1-1-1h-2c-0.553,0-1,0.448-1,1s0.447,1,1,1h0.153C35.065,14.149,35,14.314,35,14.5V16z"/>
	<path d="M26,13c0-0.552-0.447-1-1-1h-2c-0.553,0-1,0.448-1,1s0.447,1,1,1h0.153C23.065,14.149,23,14.314,23,14.5V16
		c-0.553,0-1,0.448-1,1s0.447,1,1,1h2c0.553,0,1-0.448,1-1s-0.447-1-1-1v-1.5c0-0.186-0.065-0.351-0.153-0.5H25
		C25.553,14,26,13.552,26,13z"/>
	<path d="M34,25c0,0.552,0.447,1,1,1h2c0.553,0,1-0.448,1-1s-0.447-1-1-1h-0.153C36.935,23.851,37,23.686,37,23.5V22
		c0.553,0,1-0.448,1-1s-0.447-1-1-1h-2c-0.553,0-1,0.448-1,1s0.447,1,1,1v1.5c0,0.186,0.065,0.351,0.153,0.5H35
		C34.447,24,34,24.448,34,25z"/>
	<path d="M31,26c0.553,0,1-0.448,1-1s-0.447-1-1-1h-0.153C30.935,23.851,31,23.686,31,23.5V22c0.553,0,1-0.448,1-1s-0.447-1-1-1h-2
		c-0.553,0-1,0.448-1,1s0.447,1,1,1v1.5c0,0.186,0.065,0.351,0.153,0.5H29c-0.553,0-1,0.448-1,1s0.447,1,1,1H31z"/>
</g>
<g>
</g>
<g>
</g>
<g>
</g>
<g>
</g>
<g>
</g>
<g>
</g>
<g>
</g>
<g>
</g>
<g>
</g>
<g>
</g>
<g>
</g>
<g>
</g>
<g>
</g>
<g>
</g>
<g>
</g>
</svg>
