<?xml version="1.0" encoding="iso-8859-1"?>
<!-- Generator: Adobe Illustrator 18.0.0, SVG Export Plug-In . SVG Version: 6.00 Build 0)  -->
<!DOCTYPE svg PUBLIC "-//W3C//DTD SVG 1.1//EN" "http://www.w3.org/Graphics/SVG/1.1/DTD/svg11.dtd">
<svg version="1.1" id="Capa_1" xmlns="http://www.w3.org/2000/svg" xmlns:xlink="http://www.w3.org/1999/xlink" x="0px" y="0px"
	 viewBox="0 0 56 56" style="enable-background:new 0 0 56 56;" xml:space="preserve">
<g>
	<circle cx="46" cy="19" r="1"/>
	<circle cx="46" cy="27" r="1"/>
	<circle cx="46" cy="35" r="1"/>
	<circle cx="37" cy="19" r="1"/>
	<circle cx="37" cy="27" r="1"/>
	<circle cx="37" cy="35" r="1"/>
	<circle cx="28" cy="19" r="1"/>
	<circle cx="28" cy="27" r="1"/>
	<circle cx="28" cy="35" r="1"/>
	<circle cx="19" cy="19" r="1"/>
	<circle cx="19" cy="27" r="1"/>
	<circle cx="19" cy="35" r="1"/>
	<circle cx="10" cy="19" r="1"/>
	<circle cx="10" cy="27" r="1"/>
	<circle cx="10" cy="35" r="1"/>
	<circle cx="46" cy="43" r="1"/>
	<circle cx="37" cy="43" r="1"/>
	<circle cx="28" cy="43" r="1"/>
	<circle cx="19" cy="43" r="1"/>
	<circle cx="10" cy="43" r="1"/>
	<path d="M53.905,5.14c-0.005-0.03-0.007-0.06-0.013-0.09c-0.057-0.307-0.142-0.604-0.242-0.895
		c-0.032-0.096-0.065-0.19-0.102-0.284c-0.087-0.22-0.189-0.432-0.299-0.639c-0.084-0.16-0.176-0.313-0.273-0.464
		c-0.089-0.137-0.181-0.271-0.28-0.4c-0.138-0.181-0.285-0.351-0.441-0.516c-0.09-0.094-0.18-0.188-0.276-0.276
		C51.832,1.44,51.68,1.313,51.52,1.192c-0.138-0.105-0.28-0.204-0.426-0.297c-0.116-0.073-0.231-0.144-0.353-0.209
		c-0.219-0.118-0.447-0.218-0.681-0.307c-0.088-0.033-0.176-0.067-0.266-0.095c-0.281-0.091-0.571-0.159-0.868-0.206
		c-0.028-0.004-0.054-0.016-0.082-0.02c-0.036-0.005-0.072-0.004-0.108-0.008c-0.05-0.006-0.099-0.017-0.149-0.022
		c-0.09-0.009-0.18-0.006-0.27-0.011c-0.107-0.006-0.214-0.013-0.321-0.013c-0.16,0-0.318,0.01-0.476,0.022
		c-0.075,0.006-0.15,0.009-0.224,0.018c-0.2,0.023-0.397,0.059-0.592,0.101c-0.032,0.007-0.065,0.012-0.096,0.019
		c-0.94,0.222-1.814,0.667-2.552,1.316c-0.005,0.004-0.01,0.008-0.015,0.012c-0.185,0.163-0.362,0.338-0.529,0.526
		c-0.147,0.165-0.354,0.264-0.557,0.264c-0.18-0.008-0.288-0.06-0.388-0.175C41.424,0.769,39.76,0,38,0
		c-1.761,0-3.426,0.77-4.569,2.111c-0.207,0.244-0.653,0.245-0.862-0.001C31.426,0.77,29.761,0,28,0s-3.426,0.77-4.569,2.111
		c-0.207,0.244-0.653,0.245-0.862-0.001C21.426,0.77,19.761,0,18,0c-1.76,0-3.424,0.769-4.566,2.108
		c-0.1,0.116-0.229,0.197-0.388,0.175c-0.202,0-0.409-0.099-0.557-0.265c-0.167-0.188-0.344-0.363-0.529-0.526
		c-0.003-0.003-0.007-0.005-0.01-0.008c-0.926-0.815-2.061-1.311-3.281-1.443c-0.033-0.004-0.067-0.005-0.1-0.008
		C8.377,0.016,8.183,0.005,7.987,0.006c-0.096,0-0.193,0.007-0.289,0.011C7.603,0.022,7.509,0.019,7.414,0.028
		c-0.047,0.005-0.093,0.015-0.14,0.021C7.235,0.053,7.196,0.052,7.156,0.058C7.124,0.062,7.095,0.075,7.063,0.08
		C6.772,0.126,6.488,0.192,6.212,0.282c-0.095,0.03-0.186,0.065-0.279,0.1c-0.23,0.088-0.454,0.186-0.67,0.302
		C5.139,0.75,5.021,0.823,4.902,0.898C4.763,0.986,4.628,1.081,4.497,1.18c-0.167,0.126-0.326,0.257-0.48,0.4
		c-0.09,0.084-0.176,0.172-0.261,0.261C3.596,2.01,3.443,2.184,3.302,2.371C3.206,2.496,3.117,2.626,3.031,2.758
		c-0.1,0.155-0.194,0.312-0.281,0.477C2.641,3.44,2.541,3.649,2.454,3.867C2.416,3.962,2.383,4.058,2.35,4.156
		c-0.1,0.29-0.184,0.587-0.242,0.893C2.102,5.079,2.1,5.11,2.095,5.14C2.035,5.491,2,5.849,2,6.215V13v38h2v4c0,0.553,0.447,1,1,1h3
		c0.409,0,0.776-0.249,0.929-0.629L10.677,51h34.646l1.748,4.371C47.224,55.751,47.591,56,48,56h3c0.553,0,1-0.447,1-1v-4h2V13
		V6.215C54,5.849,53.965,5.49,53.905,5.14z M13.071,4.283c0.738-0.007,1.407-0.318,1.884-0.878C15.717,2.513,16.827,2,18,2
		c1.174,0,2.284,0.513,3.046,1.406c0.969,1.141,2.94,1.14,3.907,0.001C25.716,2.513,26.826,2,28,2s2.284,0.513,3.046,1.406
		c0.969,1.141,2.94,1.14,3.907,0.001C35.716,2.513,36.826,2,38,2c1.173,0,2.283,0.513,3.045,1.405
		c0.477,0.56,1.146,0.871,1.884,0.878c0.823-0.006,1.543-0.334,2.078-0.937c0.665-0.75,1.578-1.21,2.559-1.319
		c0.01-0.001,0.021-0.001,0.031-0.002c0.142-0.015,0.285-0.021,0.429-0.021c0.051,0,0.102,0.004,0.152,0.006
		c0.093,0.004,0.185,0.01,0.278,0.02c0.16,0.018,0.314,0.056,0.467,0.094c0.084,0.02,0.171,0.035,0.253,0.06
		c0.21,0.068,0.414,0.153,0.608,0.256c0.011,0.005,0.022,0.009,0.032,0.015C51.112,3.157,52,4.597,52,6.215V11H4V6.215
		c0-1.619,0.889-3.059,2.185-3.761c0.006-0.003,0.012-0.005,0.018-0.008c0.199-0.106,0.408-0.193,0.624-0.263
		C6.902,2.16,6.98,2.147,7.056,2.128c0.16-0.04,0.32-0.079,0.487-0.098c0.094-0.01,0.187-0.017,0.28-0.021
		c0.051-0.002,0.101-0.005,0.152-0.006c0.144,0,0.287,0.006,0.428,0.021c0.011,0.001,0.022,0.001,0.033,0.003
		c0.981,0.109,1.891,0.569,2.557,1.318C11.528,3.949,12.302,4.276,13.071,4.283z M7.323,54H6v-3h2.523L7.323,54z M50,54h-1.323
		l-1.2-3H50V54z M52,49h-1h-5H10H5H4V13h48V49z"/>
</g>
<g>
</g>
<g>
</g>
<g>
</g>
<g>
</g>
<g>
</g>
<g>
</g>
<g>
</g>
<g>
</g>
<g>
</g>
<g>
</g>
<g>
</g>
<g>
</g>
<g>
</g>
<g>
</g>
<g>
</g>
</svg>
