<?xml version="1.0" encoding="iso-8859-1"?>
<!-- Generator: Adobe Illustrator 18.0.0, SVG Export Plug-In . SVG Version: 6.00 Build 0)  -->
<!DOCTYPE svg PUBLIC "-//W3C//DTD SVG 1.1//EN" "http://www.w3.org/Graphics/SVG/1.1/DTD/svg11.dtd">
<svg version="1.1" id="Capa_1" xmlns="http://www.w3.org/2000/svg" xmlns:xlink="http://www.w3.org/1999/xlink" x="0px" y="0px"
	 viewBox="0 0 59.997 59.997" style="enable-background:new 0 0 59.997 59.997;" xml:space="preserve">
<g>
	<path d="M6.465,46.658c-0.375-0.531-1.258-0.531-1.633,0l-2.93,4.145C0,53.437,0.042,56.526,2.006,58.491
		c1.004,1.004,2.324,1.506,3.643,1.506s2.639-0.502,3.643-1.506c1.376-1.376,2.519-3.817,0.109-7.681L6.465,46.658z M7.878,57.077
		c-1.229,1.229-3.229,1.229-4.458,0c-1.263-1.264-1.223-3.268,0.109-5.112l2.12-2.998l2.087,2.95
		C9.771,55.183,8.347,56.608,7.878,57.077z"/>
	<path d="M2.792,42.293c-0.391,0.391-0.391,1.023,0,1.414C2.987,43.902,3.243,44,3.499,44s0.512-0.098,0.707-0.293l2-2
		c0.391-0.391,0.391-1.023,0-1.414s-1.023-0.391-1.414,0L2.792,42.293z"/>
	<path d="M1.499,39h3c0.552,0,1-0.447,1-1s-0.448-1-1-1h-3c-0.552,0-1,0.447-1,1S0.946,39,1.499,39z"/>
	<path d="M59.499,29h-16v-5h-6v3h-4.483c-0.285,0-0.517-0.231-0.517-0.517V22h3v-6h-5V0h-22v16h-5v6h3v12.432
		C6.499,44.67,14.828,53,25.067,53h12.432v3h6v-5h16V29z M10.499,2h18v14h-18V2z M5.499,20v-2h3h22h3v2h-1h-26H5.499z M25.067,51
		c-7.91,0-14.533-5.575-16.171-13h3.603c0.552,0,1-0.447,1-1v-3h3c0.552,0,1-0.447,1-1v-4c0-0.553-0.448-1-1-1s-1,0.447-1,1v3h-3
		c-0.552,0-1,0.447-1,1v3H8.578c-0.049-0.517-0.079-1.039-0.079-1.568V22h22v4.483c0,1.388,1.129,2.517,2.517,2.517h4.483v22H25.067
		z M41.499,54h-2v-1V27v-1h2v3v22V54z M57.499,49h-14V31h14V49z"/>
</g>
<g>
</g>
<g>
</g>
<g>
</g>
<g>
</g>
<g>
</g>
<g>
</g>
<g>
</g>
<g>
</g>
<g>
</g>
<g>
</g>
<g>
</g>
<g>
</g>
<g>
</g>
<g>
</g>
<g>
</g>
</svg>
