<?xml version="1.0" encoding="iso-8859-1"?>
<!-- Generator: Adobe Illustrator 18.0.0, SVG Export Plug-In . SVG Version: 6.00 Build 0)  -->
<!DOCTYPE svg PUBLIC "-//W3C//DTD SVG 1.1//EN" "http://www.w3.org/Graphics/SVG/1.1/DTD/svg11.dtd">
<svg version="1.1" id="Capa_1" xmlns="http://www.w3.org/2000/svg" xmlns:xlink="http://www.w3.org/1999/xlink" x="0px" y="0px"
	 viewBox="0 0 58.998 58.998" style="enable-background:new 0 0 58.998 58.998;" xml:space="preserve">
<g>
	<path d="M15.315,45.658c-0.188-0.266-0.492-0.423-0.816-0.423s-0.629,0.157-0.816,0.423l-2.931,4.145
		c-1.902,2.634-1.861,5.724,0.104,7.688c1.004,1.004,2.324,1.507,3.644,1.507c1.319,0,2.639-0.503,3.643-1.507
		c1.376-1.377,2.518-3.818,0.109-7.681L15.315,45.658z M16.728,56.077c-1.229,1.228-3.229,1.229-4.458,0
		c-1.263-1.264-1.223-3.268,0.109-5.112l2.12-2.998l2.087,2.95C18.621,54.183,17.197,55.608,16.728,56.077z"/>
	<path d="M56.499,26h-3v-2c0-0.553-0.448-1-1-1h-6c-0.552,0-1,0.447-1,1v2H29.973c-1.364,0-2.474-1.109-2.474-2.474V11h2
		c0.552,0,1-0.447,1-1V4c0-0.553-0.448-1-1-1h-2V0h-18v3h-2c-0.552,0-1,0.447-1,1v6c0,0.553,0.448,1,1,1h2v18.432
		c0,4.469,2.027,8.47,5.205,11.145c0.115,0.159,0.265,0.285,0.452,0.354C17.622,42.847,20.709,44,24.067,44h21.432v2
		c0,0.553,0.448,1,1,1h6c0.552,0,1-0.447,1-1v-2h3V26z M11.499,2h14v1h-14V2z M8.499,9V5h1h18h1v4h-1h-18H8.499z M24.067,42
		c-2.843,0-5.46-0.96-7.568-2.558V37h3c0.552,0,1-0.447,1-1v-3h3c0.552,0,1-0.447,1-1s-0.448-1-1-1h-4c-0.552,0-1,0.447-1,1v3h-3
		c-0.552,0-1,0.447-1,1v1.561c-1.867-2.194-3-5.03-3-8.129V11h14v12.526c0,2.467,2.007,4.474,4.474,4.474h15.526v14H24.067z
		 M51.499,45h-4v-1V26v-1h4v1v18V45z M54.499,42h-1V28h1V42z"/>
	<path d="M6.792,41.293l-2,2c-0.391,0.391-0.391,1.023,0,1.414C4.987,44.902,5.243,45,5.499,45s0.512-0.098,0.707-0.293l2-2
		c0.391-0.391,0.391-1.023,0-1.414S7.183,40.902,6.792,41.293z"/>
	<path d="M7.499,39c0-0.553-0.448-1-1-1h-3c-0.552,0-1,0.447-1,1s0.448,1,1,1h3C7.051,40,7.499,39.553,7.499,39z"/>
	<path d="M6.206,33.293c-0.391-0.391-1.023-0.391-1.414,0s-0.391,1.023,0,1.414l2,2C6.987,36.902,7.243,37,7.499,37
		s0.512-0.098,0.707-0.293c0.391-0.391,0.391-1.023,0-1.414L6.206,33.293z"/>
</g>
<g>
</g>
<g>
</g>
<g>
</g>
<g>
</g>
<g>
</g>
<g>
</g>
<g>
</g>
<g>
</g>
<g>
</g>
<g>
</g>
<g>
</g>
<g>
</g>
<g>
</g>
<g>
</g>
<g>
</g>
</svg>
