<?xml version="1.0" encoding="iso-8859-1"?>
<!-- Generator: Adobe Illustrator 18.0.0, SVG Export Plug-In . SVG Version: 6.00 Build 0)  -->
<!DOCTYPE svg PUBLIC "-//W3C//DTD SVG 1.1//EN" "http://www.w3.org/Graphics/SVG/1.1/DTD/svg11.dtd">
<svg version="1.1" id="Capa_1" xmlns="http://www.w3.org/2000/svg" xmlns:xlink="http://www.w3.org/1999/xlink" x="0px" y="0px"
	 viewBox="0 0 59 59" style="enable-background:new 0 0 59 59;" xml:space="preserve">
<g>
	<path d="M24.5,48h6c0.553,0,1-0.447,1-1s-0.447-1-1-1h-6c-0.553,0-1,0.447-1,1S23.947,48,24.5,48z"/>
	<path d="M33.5,48c0.26,0,0.52-0.11,0.71-0.29c0.18-0.19,0.29-0.45,0.29-0.71s-0.11-0.521-0.29-0.71c-0.38-0.37-1.05-0.36-1.41,0
		c-0.19,0.18-0.3,0.439-0.3,0.71c0,0.26,0.109,0.52,0.29,0.71C32.979,47.89,33.24,48,33.5,48z"/>
	<path d="M29.5,49h-2c-0.553,0-1,0.447-1,1s0.447,1,1,1h2c0.553,0,1-0.447,1-1S30.053,49,29.5,49z"/>
	<path d="M24.5,51c0.26,0,0.52-0.101,0.71-0.29c0.18-0.19,0.29-0.45,0.29-0.71s-0.11-0.521-0.29-0.71c-0.38-0.37-1.05-0.37-1.42,0
		C23.6,49.479,23.5,49.74,23.5,50c0,0.27,0.109,0.52,0.29,0.71C23.979,50.89,24.24,51,24.5,51z"/>
	<path d="M51.5,8c-9.349,0-17.407,7.317-21,17.787V1c0-0.553-0.447-1-1-1s-1,0.447-1,1v24.787C24.907,15.317,16.849,8,7.5,8
		c-0.553,0-1,0.447-1,1s0.447,1,1,1c8.883,0,16.491,7.396,19.554,17.81C23.144,22.519,16.291,19,8.5,19c-0.553,0-1,0.447-1,1
		s0.447,1,1,1c8.738,0,16.165,4.795,18.882,11.445C24.013,29.749,18.218,28,11.5,28c-0.553,0-1,0.447-1,1s0.447,1,1,1
		c8.495,0,15.76,3.115,16.845,7H14.5v8h2.61l3.615,14h17.549l3.615-14h2.61v-8H30.655c1.085-3.885,8.349-7,16.845-7
		c0.553,0,1-0.447,1-1s-0.447-1-1-1c-6.718,0-12.513,1.749-15.882,4.445C34.335,25.795,41.762,21,50.5,21c0.553,0,1-0.447,1-1
		s-0.447-1-1-1c-7.791,0-14.644,3.519-18.554,8.81C35.009,17.396,42.617,10,51.5,10c0.553,0,1-0.447,1-1S52.053,8,51.5,8z
		 M36.726,57H22.274l-3.099-12h20.648L36.726,57z M42.5,43h-0.094H16.594H16.5v-4h26V43z"/>
</g>
<g>
</g>
<g>
</g>
<g>
</g>
<g>
</g>
<g>
</g>
<g>
</g>
<g>
</g>
<g>
</g>
<g>
</g>
<g>
</g>
<g>
</g>
<g>
</g>
<g>
</g>
<g>
</g>
<g>
</g>
</svg>
