<?xml version="1.0" encoding="iso-8859-1"?>
<!-- Generator: Adobe Illustrator 18.0.0, SVG Export Plug-In . SVG Version: 6.00 Build 0)  -->
<!DOCTYPE svg PUBLIC "-//W3C//DTD SVG 1.1//EN" "http://www.w3.org/Graphics/SVG/1.1/DTD/svg11.dtd">
<svg version="1.1" id="Capa_1" xmlns="http://www.w3.org/2000/svg" xmlns:xlink="http://www.w3.org/1999/xlink" x="0px" y="0px"
	 viewBox="0 0 60 60" style="enable-background:new 0 0 60 60;" xml:space="preserve">
<path d="M60,13.5v-9h-3v-3H47v3h-1v-3H36v3h-1v-3H25v3h-1v-3H14v3h-1v-3H3v3H0v9h3v33H0v9h3v3h10v-3h1v3h10v-3h1v3h10v-3h1v3h10v-3
	h1v3h10v-3h3v-9h-3v-33H60z M58,6.5v5h-1v-5H58z M47,6.5v5h-1v-5H47z M47,13.5v33h-1v-33H47z M36,6.5v5h-1v-5H36z M36,13.5v33h-1
	v-33H36z M25,6.5v5h-1v-5H25z M25,13.5v33h-1v-33H25z M14,6.5v5h-1v-5H14z M14,13.5v33h-1v-33H14z M2,11.5v-5h1v5H2z M2,53.5v-5h1v5
	H2z M11,56.5H5v-1v-9v-33v-9v-1h6v1v9v33v9V56.5z M13,53.5v-5h1v5H13z M22,56.5h-6v-1v-9v-33v-9v-1h6v1v9v33v9V56.5z M24,53.5v-5h1
	v5H24z M33,56.5h-6v-1v-9v-33v-9v-1h6v1v9v33v9V56.5z M35,53.5v-5h1v5H35z M44,56.5h-6v-1v-9v-33v-9v-1h6v1v9v33v9V56.5z M46,53.5
	v-5h1v5H46z M58,48.5v5h-1v-5H58z M55,46.5v9v1h-6v-1v-9v-33v-9v-1h6v1v9V46.5z"/>
<g>
</g>
<g>
</g>
<g>
</g>
<g>
</g>
<g>
</g>
<g>
</g>
<g>
</g>
<g>
</g>
<g>
</g>
<g>
</g>
<g>
</g>
<g>
</g>
<g>
</g>
<g>
</g>
<g>
</g>
</svg>
