<?xml version="1.0" encoding="iso-8859-1"?>
<!-- Generator: Adobe Illustrator 18.0.0, SVG Export Plug-In . SVG Version: 6.00 Build 0)  -->
<!DOCTYPE svg PUBLIC "-//W3C//DTD SVG 1.1//EN" "http://www.w3.org/Graphics/SVG/1.1/DTD/svg11.dtd">
<svg version="1.1" id="Capa_1" xmlns="http://www.w3.org/2000/svg" xmlns:xlink="http://www.w3.org/1999/xlink" x="0px" y="0px"
	 viewBox="0 0 60 60" style="enable-background:new 0 0 60 60;" xml:space="preserve">
<path d="M59,12c-0.553,0-1,0.447-1,1v1h-1v-3h-3V7h-6v4h-2v-1c0-1.654-1.346-3-3-3s-3,1.346-3,3v1h-2v-1c0-1.654-1.346-3-3-3
	s-3,1.346-3,3v1h-2v-1c0-1.654-1.346-3-3-3s-3,1.346-3,3v1h-2v-1c0-1.654-1.346-3-3-3s-3,1.346-3,3v1h-2v-1c0-1.654-1.346-3-3-3
	s-3,1.346-3,3v1H6V7H0v46h6v-4h2v1c0,1.654,1.346,3,3,3s3-1.346,3-3v-1h2v1c0,1.654,1.346,3,3,3s3-1.346,3-3v-1h2v1
	c0,1.654,1.346,3,3,3s3-1.346,3-3v-1h2v1c0,1.654,1.346,3,3,3s3-1.346,3-3v-1h2v1c0,1.654,1.346,3,3,3s3-1.346,3-3v-1h2v4h6v-1h3v-3
	h2c0.553,0,1-0.447,1-1s-0.447-1-1-1h-2v-3h-3V19h3v-3h1v1c0,0.553,0.447,1,1,1s1-0.447,1-1v-4C60,12.447,59.553,12,59,12z M4,51H2
	V9h2v2v38V51z M6,47V13h2v34H6z M12,50c0,0.552-0.449,1-1,1s-1-0.448-1-1v-1V11v-1c0-0.552,0.449-1,1-1s1,0.448,1,1v1v38V50z M14,47
	V13h2v34H14z M20,50c0,0.552-0.449,1-1,1s-1-0.448-1-1v-1V11v-1c0-0.552,0.449-1,1-1s1,0.448,1,1v1v38V50z M22,47V13h2v34H22z
	 M28,50c0,0.552-0.449,1-1,1s-1-0.448-1-1v-1V11v-1c0-0.552,0.449-1,1-1s1,0.448,1,1v1v38V50z M30,47V13h2v34H30z M36,50
	c0,0.552-0.449,1-1,1s-1-0.448-1-1v-1V11v-1c0-0.552,0.449-1,1-1s1,0.448,1,1v1v38V50z M38,47V13h2v34H38z M44,50
	c0,0.552-0.449,1-1,1s-1-0.448-1-1v-1V11v-1c0-0.552,0.449-1,1-1s1,0.448,1,1v1v38V50z M46,47V13h2v34H46z M55,46v4h-1v-4H55z
	 M52,44v7h-2v-2V11V9h2v2v8V44z M55,17h-1v-4h1V17z"/>
<g>
</g>
<g>
</g>
<g>
</g>
<g>
</g>
<g>
</g>
<g>
</g>
<g>
</g>
<g>
</g>
<g>
</g>
<g>
</g>
<g>
</g>
<g>
</g>
<g>
</g>
<g>
</g>
<g>
</g>
</svg>
