<?xml version="1.0" encoding="iso-8859-1"?>
<!-- Generator: Adobe Illustrator 18.0.0, SVG Export Plug-In . SVG Version: 6.00 Build 0)  -->
<!DOCTYPE svg PUBLIC "-//W3C//DTD SVG 1.1//EN" "http://www.w3.org/Graphics/SVG/1.1/DTD/svg11.dtd">
<svg version="1.1" id="Capa_1" xmlns="http://www.w3.org/2000/svg" xmlns:xlink="http://www.w3.org/1999/xlink" x="0px" y="0px"
	 viewBox="0 0 60 60" style="enable-background:new 0 0 60 60;" xml:space="preserve">
<g>
	<path d="M60,4.5H0v48h3v3h6v-3h42v3h6v-3h3V4.5z M7,53.5H5v-1h2V53.5z M55,53.5h-2v-1h2V53.5z M58,50.5h-1h-6H9H3H2v-44h56V50.5z"
		/>
	<path d="M56,48.5v-8H4v8H56z M21,45.5h3v1h-3V45.5z M19,46.5h-3v-1h3V46.5z M26,45.5h3v1h-3V45.5z M31,45.5h3v1h-3V45.5z M36,45.5
		h3v1h-3V45.5z M41,45.5h3v1h-3V45.5z M46,45.5h3v1h-3V45.5z M46,43.5v-1h3v1H46z M44,43.5h-3v-1h3V43.5z M39,43.5h-3v-1h3V43.5z
		 M34,43.5h-3v-1h3V43.5z M29,43.5h-3v-1h3V43.5z M24,43.5h-3v-1h3V43.5z M19,43.5h-3v-1h3V43.5z M14,43.5h-3v-1h3V43.5z M14,45.5v1
		h-3v-1H14z M51,46.5v-1h3v1H51z M54,43.5h-3v-1h3V43.5z M9,42.5v1H6v-1H9z M6,45.5h3v1H6V45.5z"/>
	<path d="M56,22.5v-14H4v14H56z M6,14.5h3v2H6V14.5z M11,14.5h3v2h-3V14.5z M54,16.5h-3v-2h3V16.5z M49,16.5h-3v-2h3V16.5z M39,16.5
		h-3v-2h3V16.5z M41,14.5h3v2h-3V14.5z M34,16.5h-3v-2h3V16.5z M29,16.5h-3v-2h3V16.5z M24,16.5h-3v-2h3V16.5z M19,16.5h-3v-2h3
		V16.5z M19,18.5v2h-3v-2H19z M21,18.5h3v2h-3V18.5z M26,18.5h3v2h-3V18.5z M31,18.5h3v2h-3V18.5z M36,18.5h3v2h-3V18.5z M41,18.5h3
		v2h-3V18.5z M46,18.5h3v2h-3V18.5z M46,12.5v-2h3v2H46z M44,12.5h-3v-2h3V12.5z M39,12.5h-3v-2h3V12.5z M34,12.5h-3v-2h3V12.5z
		 M29,12.5h-3v-2h3V12.5z M24,12.5h-3v-2h3V12.5z M19,12.5h-3v-2h3V12.5z M14,12.5h-3v-2h3V12.5z M14,18.5v2h-3v-2H14z M51,20.5v-2
		h3v2H51z M54,12.5h-3v-2h3V12.5z M9,10.5v2H6v-2H9z M6,18.5h3v2H6V18.5z"/>
	<path d="M35,31.5c0,2.757,2.243,5,5,5s5-2.243,5-5s-2.243-5-5-5S35,28.743,35,31.5z M43,31.5c0,1.654-1.346,3-3,3s-3-1.346-3-3
		c0-1.302,0.839-2.402,2-2.816V31.5c0,0.553,0.447,1,1,1s1-0.447,1-1v-2.816C42.161,29.098,43,30.198,43,31.5z"/>
	<path d="M54.52,27.955C53.616,27.057,52.372,26.5,51,26.5c-2.757,0-5,2.243-5,5s2.243,5,5,5s5-2.243,5-5
		c0-1.372-0.557-2.616-1.455-3.52c-0.004-0.005-0.005-0.011-0.01-0.015S54.525,27.959,54.52,27.955z M51,34.5c-1.654,0-3-1.346-3-3
		s1.346-3,3-3c0.462,0,0.894,0.114,1.285,0.301l-1.992,1.992c-0.391,0.391-0.391,1.023,0,1.414C50.488,32.402,50.744,32.5,51,32.5
		s0.512-0.098,0.707-0.293l1.992-1.992C53.886,30.606,54,31.038,54,31.5C54,33.154,52.654,34.5,51,34.5z"/>
	<path d="M10,28.5H4v6h6V28.5z M8,32.5H6v-2h2V32.5z"/>
	<path d="M11,34.5h6v-6h-6V34.5z M13,30.5h2v2h-2V30.5z"/>
</g>
<g>
</g>
<g>
</g>
<g>
</g>
<g>
</g>
<g>
</g>
<g>
</g>
<g>
</g>
<g>
</g>
<g>
</g>
<g>
</g>
<g>
</g>
<g>
</g>
<g>
</g>
<g>
</g>
<g>
</g>
</svg>
