<?xml version="1.0" encoding="iso-8859-1"?>
<!-- Generator: Adobe Illustrator 18.0.0, SVG Export Plug-In . SVG Version: 6.00 Build 0)  -->
<!DOCTYPE svg PUBLIC "-//W3C//DTD SVG 1.1//EN" "http://www.w3.org/Graphics/SVG/1.1/DTD/svg11.dtd">
<svg version="1.1" id="Capa_1" xmlns="http://www.w3.org/2000/svg" xmlns:xlink="http://www.w3.org/1999/xlink" x="0px" y="0px"
	 viewBox="0 0 60 60" style="enable-background:new 0 0 60 60;" xml:space="preserve">
<path d="M54.218,0c-0.553,0-1,0.447-1,1v6h-4v7.837L38.026,26.029l-0.707-0.707l-1.414,1.414l-6.365-6.364l0.707-0.708l-4.242-4.242
	h0L11.193,0.611L6.951,4.854L6.244,5.561c-1.949,1.949-1.949,5.122,0,7.071l9.155,9.155c0.975,0.975,2.255,1.462,3.535,1.462
	c0.962,0,1.924-0.276,2.757-0.826l2.9,2.9l0.707-0.708l6.364,6.365l-1.414,1.414l5.657,5.656l1.414-1.414l7.778,7.778l1.387-1.387
	c1.528,0.137,2.734,1.41,2.734,2.973v12c0,0.553,0.447,1,1,1s1-0.447,1-1V46c0-2.08-1.279-3.865-3.09-4.617l1.211-1.211
	l-7.778-7.778l1.414-1.414l-0.707-0.707l6.95-6.95V29h4v30c0,0.553,0.447,1,1,1s1-0.447,1-1V29V7V1C55.218,0.447,54.771,0,54.218,0z
	 M11.193,3.439l13.398,13.397l-2.829,2.829L8.365,6.268L11.193,3.439z M7.658,11.218c-0.133-0.133-0.247-0.279-0.35-0.429
	c-0.032-0.047-0.059-0.096-0.088-0.144c-0.066-0.108-0.125-0.219-0.176-0.334c-0.025-0.056-0.048-0.112-0.069-0.168
	c-0.045-0.121-0.08-0.243-0.109-0.367C6.855,9.727,6.84,9.679,6.831,9.631c-0.031-0.172-0.049-0.345-0.05-0.519
	c0-0.032,0.005-0.064,0.006-0.096C6.792,8.873,6.805,8.73,6.829,8.589c0.01-0.057,0.024-0.113,0.037-0.17
	C6.893,8.301,6.928,8.184,6.97,8.068c0.02-0.056,0.04-0.112,0.064-0.166c0.013-0.031,0.033-0.06,0.047-0.09L20.218,20.95
	c-0.031,0.015-0.059,0.034-0.09,0.047c-0.055,0.024-0.111,0.044-0.167,0.064c-0.115,0.042-0.232,0.076-0.35,0.103
	c-0.057,0.013-0.113,0.028-0.17,0.037c-0.141,0.024-0.284,0.037-0.427,0.041c-0.032,0.001-0.064,0.006-0.096,0.006
	c-0.174-0.001-0.347-0.019-0.519-0.05c-0.048-0.009-0.096-0.024-0.144-0.035c-0.124-0.029-0.247-0.064-0.368-0.109
	c-0.057-0.021-0.112-0.045-0.168-0.069c-0.114-0.051-0.226-0.11-0.334-0.176c-0.048-0.029-0.097-0.055-0.144-0.087
	c-0.15-0.103-0.296-0.217-0.429-0.35L7.658,11.218z M26.005,18.251l1.414,1.414l-2.829,2.829l-1.414-1.414L26.005,18.251z
	 M26.712,23.201l1.414-1.414l6.364,6.363l-1.415,1.415L26.712,23.201z M33.076,32.394l4.243-4.243l1.414,1.415l1.414,1.415
	l-4.242,4.242L33.076,32.394z M46.511,40.172l-1.414,1.414l-6.364-6.364l1.414-1.414L46.511,40.172z M40.854,28.858l-0.707-0.707
	l-0.707-0.708l9.778-9.778v2.829L40.854,28.858z M51.218,27v-5.678v-8.485V9h2v18H51.218z"/>
<g>
</g>
<g>
</g>
<g>
</g>
<g>
</g>
<g>
</g>
<g>
</g>
<g>
</g>
<g>
</g>
<g>
</g>
<g>
</g>
<g>
</g>
<g>
</g>
<g>
</g>
<g>
</g>
<g>
</g>
</svg>
