<?xml version="1.0" encoding="iso-8859-1"?>
<!-- Generator: Adobe Illustrator 18.0.0, SVG Export Plug-In . SVG Version: 6.00 Build 0)  -->
<!DOCTYPE svg PUBLIC "-//W3C//DTD SVG 1.1//EN" "http://www.w3.org/Graphics/SVG/1.1/DTD/svg11.dtd">
<svg version="1.1" id="Capa_1" xmlns="http://www.w3.org/2000/svg" xmlns:xlink="http://www.w3.org/1999/xlink" x="0px" y="0px"
	 viewBox="0 0 60 60" style="enable-background:new 0 0 60 60;" xml:space="preserve">
<g>
	<path d="M26,0v60h34V0H26z M58,33.5V58H28V2h12v2h-1c-2.757,0-5,2.243-5,5c0,0.553,0.448,1,1,1h12c0.552,0,1-0.447,1-1
		c0-2.757-2.243-5-5-5h-1V2h16V33.5z M43,6c1.304,0,2.416,0.836,2.829,2h-9.657C36.584,6.836,37.696,6,39,6H43z"/>
	<path d="M33,26c-0.552,0-1,0.447-1,1v1c0,0.553,0.448,1,1,1s1-0.447,1-1v-1C34,26.447,33.552,26,33,26z"/>
	<path d="M33,22c-0.552,0-1,0.447-1,1v1c0,0.553,0.448,1,1,1s1-0.447,1-1v-1C34,22.447,33.552,22,33,22z"/>
	<path d="M33,30c-0.552,0-1,0.447-1,1v1c0,0.553,0.448,1,1,1s1-0.447,1-1v-1C34,30.447,33.552,30,33,30z"/>
	<path d="M33,14c-0.552,0-1,0.447-1,1v1c0,0.553,0.448,1,1,1s1-0.447,1-1v-1C34,14.447,33.552,14,33,14z"/>
	<path d="M33,18c-0.552,0-1,0.447-1,1v1c0,0.553,0.448,1,1,1s1-0.447,1-1v-1C34,18.447,33.552,18,33,18z"/>
	<path d="M33,46c-0.552,0-1,0.447-1,1v1c0,0.553,0.448,1,1,1s1-0.447,1-1v-1C34,46.447,33.552,46,33,46z"/>
	<path d="M33,50c-0.552,0-1,0.447-1,1v1c0,0.553,0.448,1,1,1s1-0.447,1-1v-1C34,50.447,33.552,50,33,50z"/>
	<path d="M33,34c-0.552,0-1,0.447-1,1v1c0,0.553,0.448,1,1,1s1-0.447,1-1v-1C34,34.447,33.552,34,33,34z"/>
	<path d="M33,42c-0.552,0-1,0.447-1,1v1c0,0.553,0.448,1,1,1s1-0.447,1-1v-1C34,42.447,33.552,42,33,42z"/>
	<path d="M33,38c-0.552,0-1,0.447-1,1v1c0,0.553,0.448,1,1,1s1-0.447,1-1v-1C34,38.447,33.552,38,33,38z"/>
	<path d="M37,30c-0.552,0-1,0.447-1,1v1c0,0.553,0.448,1,1,1s1-0.447,1-1v-1C38,30.447,37.552,30,37,30z"/>
	<path d="M37,26c-0.552,0-1,0.447-1,1v1c0,0.553,0.448,1,1,1s1-0.447,1-1v-1C38,26.447,37.552,26,37,26z"/>
	<path d="M37,22c-0.552,0-1,0.447-1,1v1c0,0.553,0.448,1,1,1s1-0.447,1-1v-1C38,22.447,37.552,22,37,22z"/>
	<path d="M37,18c-0.552,0-1,0.447-1,1v1c0,0.553,0.448,1,1,1s1-0.447,1-1v-1C38,18.447,37.552,18,37,18z"/>
	<path d="M37,14c-0.552,0-1,0.447-1,1v1c0,0.553,0.448,1,1,1s1-0.447,1-1v-1C38,14.447,37.552,14,37,14z"/>
	<path d="M37,46c-0.552,0-1,0.447-1,1v1c0,0.553,0.448,1,1,1s1-0.447,1-1v-1C38,46.447,37.552,46,37,46z"/>
	<path d="M37,50c-0.552,0-1,0.447-1,1v1c0,0.553,0.448,1,1,1s1-0.447,1-1v-1C38,50.447,37.552,50,37,50z"/>
	<path d="M37,42c-0.552,0-1,0.447-1,1v1c0,0.553,0.448,1,1,1s1-0.447,1-1v-1C38,42.447,37.552,42,37,42z"/>
	<path d="M37,34c-0.552,0-1,0.447-1,1v1c0,0.553,0.448,1,1,1s1-0.447,1-1v-1C38,34.447,37.552,34,37,34z"/>
	<path d="M37,38c-0.552,0-1,0.447-1,1v1c0,0.553,0.448,1,1,1s1-0.447,1-1v-1C38,38.447,37.552,38,37,38z"/>
	<path d="M41,46c-0.552,0-1,0.447-1,1v1c0,0.553,0.448,1,1,1s1-0.447,1-1v-1C42,46.447,41.552,46,41,46z"/>
	<path d="M41,22c-0.552,0-1,0.447-1,1v1c0,0.553,0.448,1,1,1s1-0.447,1-1v-1C42,22.447,41.552,22,41,22z"/>
	<path d="M41,18c-0.552,0-1,0.447-1,1v1c0,0.553,0.448,1,1,1s1-0.447,1-1v-1C42,18.447,41.552,18,41,18z"/>
	<path d="M41,26c-0.552,0-1,0.447-1,1v1c0,0.553,0.448,1,1,1s1-0.447,1-1v-1C42,26.447,41.552,26,41,26z"/>
	<path d="M41,14c-0.552,0-1,0.447-1,1v1c0,0.553,0.448,1,1,1s1-0.447,1-1v-1C42,14.447,41.552,14,41,14z"/>
	<path d="M41,50c-0.552,0-1,0.447-1,1v1c0,0.553,0.448,1,1,1s1-0.447,1-1v-1C42,50.447,41.552,50,41,50z"/>
	<path d="M41,30c-0.552,0-1,0.447-1,1v1c0,0.553,0.448,1,1,1s1-0.447,1-1v-1C42,30.447,41.552,30,41,30z"/>
	<path d="M41,38c-0.552,0-1,0.447-1,1v1c0,0.553,0.448,1,1,1s1-0.447,1-1v-1C42,38.447,41.552,38,41,38z"/>
	<path d="M41,42c-0.552,0-1,0.447-1,1v1c0,0.553,0.448,1,1,1s1-0.447,1-1v-1C42,42.447,41.552,42,41,42z"/>
	<path d="M41,34c-0.552,0-1,0.447-1,1v1c0,0.553,0.448,1,1,1s1-0.447,1-1v-1C42,34.447,41.552,34,41,34z"/>
	<path d="M45,18c-0.552,0-1,0.447-1,1v1c0,0.553,0.448,1,1,1s1-0.447,1-1v-1C46,18.447,45.552,18,45,18z"/>
	<path d="M45,22c-0.552,0-1,0.447-1,1v1c0,0.553,0.448,1,1,1s1-0.447,1-1v-1C46,22.447,45.552,22,45,22z"/>
	<path d="M45,14c-0.552,0-1,0.447-1,1v1c0,0.553,0.448,1,1,1s1-0.447,1-1v-1C46,14.447,45.552,14,45,14z"/>
	<path d="M45,30c-0.552,0-1,0.447-1,1v1c0,0.553,0.448,1,1,1s1-0.447,1-1v-1C46,30.447,45.552,30,45,30z"/>
	<path d="M45,26c-0.552,0-1,0.447-1,1v1c0,0.553,0.448,1,1,1s1-0.447,1-1v-1C46,26.447,45.552,26,45,26z"/>
	<path d="M45,46c-0.552,0-1,0.447-1,1v1c0,0.553,0.448,1,1,1s1-0.447,1-1v-1C46,46.447,45.552,46,45,46z"/>
	<path d="M45,42c-0.552,0-1,0.447-1,1v1c0,0.553,0.448,1,1,1s1-0.447,1-1v-1C46,42.447,45.552,42,45,42z"/>
	<path d="M45,50c-0.552,0-1,0.447-1,1v1c0,0.553,0.448,1,1,1s1-0.447,1-1v-1C46,50.447,45.552,50,45,50z"/>
	<path d="M45,38c-0.552,0-1,0.447-1,1v1c0,0.553,0.448,1,1,1s1-0.447,1-1v-1C46,38.447,45.552,38,45,38z"/>
	<path d="M45,34c-0.552,0-1,0.447-1,1v1c0,0.553,0.448,1,1,1s1-0.447,1-1v-1C46,34.447,45.552,34,45,34z"/>
	<path d="M49,38c-0.552,0-1,0.447-1,1v1c0,0.553,0.448,1,1,1s1-0.447,1-1v-1C50,38.447,49.552,38,49,38z"/>
	<path d="M49,34c-0.552,0-1,0.447-1,1v1c0,0.553,0.448,1,1,1s1-0.447,1-1v-1C50,34.447,49.552,34,49,34z"/>
	<path d="M49,22c-0.552,0-1,0.447-1,1v1c0,0.553,0.448,1,1,1s1-0.447,1-1v-1C50,22.447,49.552,22,49,22z"/>
	<path d="M49,30c-0.552,0-1,0.447-1,1v1c0,0.553,0.448,1,1,1s1-0.447,1-1v-1C50,30.447,49.552,30,49,30z"/>
	<path d="M49,26c-0.552,0-1,0.447-1,1v1c0,0.553,0.448,1,1,1s1-0.447,1-1v-1C50,26.447,49.552,26,49,26z"/>
	<path d="M48,16c0,0.553,0.448,1,1,1s1-0.447,1-1v-1c0-0.553-0.448-1-1-1s-1,0.447-1,1V16z"/>
	<path d="M49,46c-0.552,0-1,0.447-1,1v1c0,0.553,0.448,1,1,1s1-0.447,1-1v-1C50,46.447,49.552,46,49,46z"/>
	<path d="M49,18c-0.552,0-1,0.447-1,1v1c0,0.553,0.448,1,1,1s1-0.447,1-1v-1C50,18.447,49.552,18,49,18z"/>
	<path d="M49,50c-0.552,0-1,0.447-1,1v1c0,0.553,0.448,1,1,1s1-0.447,1-1v-1C50,50.447,49.552,50,49,50z"/>
	<path d="M49,42c-0.552,0-1,0.447-1,1v1c0,0.553,0.448,1,1,1s1-0.447,1-1v-1C50,42.447,49.552,42,49,42z"/>
	<path d="M54.5,30c-1.93,0-3.5,1.57-3.5,3.5s1.57,3.5,3.5,3.5s3.5-1.57,3.5-3.5S56.43,30,54.5,30z M54.5,35
		c-0.827,0-1.5-0.673-1.5-1.5s0.673-1.5,1.5-1.5s1.5,0.673,1.5,1.5S55.327,35,54.5,35z"/>
	<rect x="11" y="46" width="3" height="2"/>
	<rect x="11" y="54" width="3" height="2"/>
	<path d="M0,27h6.18c0.285,0.589,0.884,1,1.582,1H10v2H3v4H0v8v8v2v8h25v-8v-2v-8v-8h-3v-4h-7v-2h2.238c0.698,0,1.297-0.411,1.582-1
		H25V0H0V27z M8,26v-1h2v1H8z M23,58H2v-6h21V58z M2,50v-6h21v6H2z M23,36v6H2v-6h1v0.059C3,38.783,5.217,41,7.941,41h9.117
		C19.783,41,22,38.783,22,36.059V36H23z M20,32v2v2.059C20,37.681,18.681,39,17.059,39H7.941C6.319,39,5,37.681,5,36.059V34v-2h5h5
		H20z M12,30v-3.762V25h1v1.238V30H12z M15,25h2v1h-2V25z M2,2h21v23h-4v-0.238C19,23.79,18.209,23,17.238,23H15h-0.238h-4.524H10
		H7.762C6.791,23,6,23.79,6,24.762V25H2V2z"/>
	<path d="M4,10c0.256,0,0.512-0.098,0.707-0.293l4-4c0.391-0.391,0.391-1.023,0-1.414s-1.023-0.391-1.414,0l-4,4
		c-0.391,0.391-0.391,1.023,0,1.414C3.488,9.902,3.744,10,4,10z"/>
	<path d="M6.707,11.293c-0.391-0.391-1.023-0.391-1.414,0l-2,2c-0.391,0.391-0.391,1.023,0,1.414C3.488,14.902,3.744,15,4,15
		s0.512-0.098,0.707-0.293l2-2C7.098,12.316,7.098,11.684,6.707,11.293z"/>
	<path d="M7.29,9.29C7.11,9.479,7,9.74,7,10s0.11,0.52,0.29,0.71C7.48,10.89,7.74,11,8,11c0.26,0,0.52-0.11,0.71-0.29
		C8.89,10.52,9,10.26,9,10S8.89,9.479,8.71,9.29C8.33,8.92,7.66,8.92,7.29,9.29z"/>
	<path d="M9.293,8.707C9.488,8.902,9.744,9,10,9s0.512-0.098,0.707-0.293l3-3c0.391-0.391,0.391-1.023,0-1.414s-1.023-0.391-1.414,0
		l-3,3C8.902,7.684,8.902,8.316,9.293,8.707z"/>
</g>
<g>
</g>
<g>
</g>
<g>
</g>
<g>
</g>
<g>
</g>
<g>
</g>
<g>
</g>
<g>
</g>
<g>
</g>
<g>
</g>
<g>
</g>
<g>
</g>
<g>
</g>
<g>
</g>
<g>
</g>
</svg>
