<?xml version="1.0" encoding="iso-8859-1"?>
<!-- Generator: Adobe Illustrator 18.0.0, SVG Export Plug-In . SVG Version: 6.00 Build 0)  -->
<!DOCTYPE svg PUBLIC "-//W3C//DTD SVG 1.1//EN" "http://www.w3.org/Graphics/SVG/1.1/DTD/svg11.dtd">
<svg version="1.1" id="Capa_1" xmlns="http://www.w3.org/2000/svg" xmlns:xlink="http://www.w3.org/1999/xlink" x="0px" y="0px"
	 viewBox="0 0 60 60" style="enable-background:new 0 0 60 60;" xml:space="preserve">
<g>
	<path d="M59,57.999h-6v-4c0-0.553-0.448-1-1-1h-2v-26h1.852c1.182,0,2.144,0.961,2.148,2.142c-1.72,0.448-2.999,2-2.999,3.858
		c0,2.206,1.794,4,4,4s4-1.794,4-4c0-1.859-1.28-3.411-3.001-3.858c-0.004-2.284-1.862-4.142-4.148-4.142H50V2.416
		c0-0.979-0.585-1.855-1.49-2.23c-0.905-0.373-1.939-0.169-2.631,0.523l-2.59,2.59c-2.258-1.722-5.495-1.575-7.558,0.487
		c-0.391,0.391-0.391,1.023,0,1.414l7.071,7.071c0.188,0.188,0.442,0.293,0.707,0.293s0.52-0.105,0.707-0.293
		c2.062-2.063,2.209-5.3,0.486-7.558l2.59-2.59c0.17-0.17,0.356-0.128,0.452-0.09C47.84,2.073,48,2.175,48,2.416v22.583h-1.852
		c-2.285,0-4.144,1.858-4.148,4.142C40.28,29.587,39,31.14,39,32.999c0,2.206,1.794,4,4,4s4-1.794,4-4
		c0-1.858-1.279-3.41-2.999-3.858c0.003-1.181,0.965-2.142,2.148-2.142H48v26h-2c-0.552,0-1,0.447-1,1v4H1c-0.552,0-1,0.447-1,1
		s0.448,1,1,1h45h6h7c0.552,0,1-0.447,1-1S59.552,57.999,59,57.999z M55,30.999c1.103,0,2,0.897,2,2s-0.897,2-2,2s-2-0.897-2-2
		S53.897,30.999,55,30.999z M43.414,10.054l-5.467-5.466c1.437-0.818,3.3-0.612,4.524,0.611l0.331,0.331
		C44.025,6.755,44.229,8.618,43.414,10.054z M45,32.999c0,1.103-0.897,2-2,2s-2-0.897-2-2s0.897-2,2-2S45,31.896,45,32.999z
		 M51,57.999h-4v-3h4V57.999z"/>
	<path d="M10,22.999h6c0.552,0,1-0.447,1-1v-6c0-0.553-0.448-1-1-1h-6c-0.552,0-1,0.447-1,1v6C9,22.551,9.448,22.999,10,22.999z
		 M11,16.999h4v4h-4V16.999z"/>
	<path d="M22,33.999h6c0.552,0,1-0.447,1-1v-6c0-0.553-0.448-1-1-1h-6c-0.552,0-1,0.447-1,1v6C21,33.551,21.448,33.999,22,33.999z
		 M23,27.999h4v4h-4V27.999z"/>
	<path d="M7,44.999h6c0.552,0,1-0.447,1-1v-6c0-0.553-0.448-1-1-1H7c-0.552,0-1,0.447-1,1v6C6,44.551,6.448,44.999,7,44.999z
		 M8,38.999h4v4H8V38.999z"/>
</g>
<g>
</g>
<g>
</g>
<g>
</g>
<g>
</g>
<g>
</g>
<g>
</g>
<g>
</g>
<g>
</g>
<g>
</g>
<g>
</g>
<g>
</g>
<g>
</g>
<g>
</g>
<g>
</g>
<g>
</g>
</svg>
