<?xml version="1.0" encoding="iso-8859-1"?>
<!-- Generator: Adobe Illustrator 18.0.0, SVG Export Plug-In . SVG Version: 6.00 Build 0)  -->
<!DOCTYPE svg PUBLIC "-//W3C//DTD SVG 1.1//EN" "http://www.w3.org/Graphics/SVG/1.1/DTD/svg11.dtd">
<svg version="1.1" id="Capa_1" xmlns="http://www.w3.org/2000/svg" xmlns:xlink="http://www.w3.org/1999/xlink" x="0px" y="0px"
	 viewBox="0 0 59 59" style="enable-background:new 0 0 59 59;" xml:space="preserve">
<path d="M54.5,12h-3h-9V8h-6v4h-3V7V0h-8v7v5h-3V8h-6v4h-9h-3c-0.553,0-1,0.447-1,1s0.447,1,1,1h3v4h2.171
	c1.497,7.667,8.042,13.485,15.854,13.944L22.377,59h14.246l-3.196-27.033c7.859-0.481,14.405-6.3,15.902-13.967H51.5v-4h3
	c0.553,0,1-0.447,1-1S55.053,12,54.5,12z M38.5,10h2v2h-2V10z M27.5,2h4v3h-4V2z M27.5,7h1v2c0,0.553,0.447,1,1,1s1-0.447,1-1V7h1v5
	h-4V7z M18.5,10h2v2h-2V10z M33.303,29.971c-0.532,0.033-1.017,0.279-1.363,0.693c-0.35,0.418-0.515,0.969-0.451,1.511L34.377,57
	h-9.754l2.889-24.825c0.063-0.542-0.102-1.093-0.451-1.511c-0.347-0.414-0.831-0.66-1.364-0.693
	C18.875,29.553,13.159,24.595,11.697,18h35.605C45.841,24.595,40.125,29.553,33.303,29.971z M49.5,16h-40v-2h7h6h3h8h3h6h7V16z"/>
<g>
</g>
<g>
</g>
<g>
</g>
<g>
</g>
<g>
</g>
<g>
</g>
<g>
</g>
<g>
</g>
<g>
</g>
<g>
</g>
<g>
</g>
<g>
</g>
<g>
</g>
<g>
</g>
<g>
</g>
</svg>
