<?xml version="1.0" encoding="iso-8859-1"?>
<!-- Generator: Adobe Illustrator 18.0.0, SVG Export Plug-In . SVG Version: 6.00 Build 0)  -->
<!DOCTYPE svg PUBLIC "-//W3C//DTD SVG 1.1//EN" "http://www.w3.org/Graphics/SVG/1.1/DTD/svg11.dtd">
<svg version="1.1" id="Capa_1" xmlns="http://www.w3.org/2000/svg" xmlns:xlink="http://www.w3.org/1999/xlink" x="0px" y="0px"
	 viewBox="0 0 59.998 59.998" style="enable-background:new 0 0 59.998 59.998;" xml:space="preserve">
<g>
	<path d="M26.292,25.706c0.195,0.195,0.451,0.293,0.707,0.293s0.512-0.098,0.707-0.293l0.92-0.92
		c0.433,0.213,0.901,0.332,1.373,0.332s0.94-0.12,1.373-0.332l0.92,0.92c0.195,0.195,0.451,0.293,0.707,0.293
		s0.512-0.098,0.707-0.293c0.391-0.391,0.391-1.023,0-1.414l-0.919-0.919c0.426-0.866,0.426-1.881,0-2.747l0.919-0.919
		c0.391-0.391,0.391-1.023,0-1.414s-1.023-0.391-1.414,0l-0.92,0.92c-0.866-0.425-1.88-0.425-2.747,0l-0.92-0.92
		c-0.391-0.391-1.023-0.391-1.414,0s-0.391,1.023,0,1.414l0.92,0.92c-0.426,0.866-0.426,1.88,0,2.747l-0.92,0.92
		C25.901,24.683,25.901,25.315,26.292,25.706z M30.792,21.206c0.437,0.438,0.437,1.148,0,1.586c-0.438,0.438-1.148,0.438-1.586,0
		c-0.437-0.438-0.437-1.148,0-1.586c0.219-0.219,0.506-0.328,0.793-0.328S30.573,20.987,30.792,21.206z"/>
	<path d="M59.843,26.736c-0.529-2.138-2.589-3.69-4.916-3.73c-2.367-3.681-6.435-5.96-10.792-6.007c-2.093-4.744-7.786-8-14.136-8
		s-12.042,3.257-14.136,8c-4.357,0.047-8.425,2.326-10.792,6.008c-2.527,0.043-4.677,1.858-5.02,4.264
		c-0.322,2.261,0.917,4.41,2.948,5.296v9.516c0,1.842,1.283,3.381,3,3.796v4.119c0,0.552,0.448,1,1,1h3
		c0.409,0,0.776-0.249,0.929-0.628l1.749-4.372h34.645l1.749,4.372c0.152,0.379,0.52,0.628,0.929,0.628h3c0.553,0,1-0.448,1-1V45.88
		c1.717-0.415,3-1.954,3-3.796v-9.514C59.224,31.61,60.451,29.191,59.843,26.736z M15.999,18.999c1.654,0,3,1.346,3,3
		c0,0.552,0.448,1,1,1s1-0.448,1-1c0-2.083-1.282-3.868-3.096-4.619c1.928-3.801,6.724-6.381,12.096-6.381s10.169,2.58,12.096,6.381
		c-1.815,0.751-3.096,2.536-3.096,4.619c0,0.552,0.448,1,1,1s1-0.448,1-1c0-1.654,1.346-3,3-3c3.444,0,6.69,1.653,8.762,4.388
		c-0.551,0.211-1.061,0.5-1.518,0.858c-0.002,0.001-0.004,0.003-0.006,0.004c-0.212,0.167-0.413,0.347-0.6,0.541
		c-0.038,0.039-0.072,0.08-0.109,0.12c-0.139,0.153-0.271,0.313-0.393,0.48c-0.039,0.052-0.08,0.102-0.117,0.156
		c-0.132,0.193-0.251,0.395-0.359,0.604c-0.039,0.075-0.074,0.151-0.11,0.227c-0.085,0.183-0.162,0.37-0.228,0.563
		c-0.017,0.05-0.039,0.098-0.055,0.149c-0.075,0.239-0.13,0.486-0.174,0.736c-0.012,0.068-0.022,0.136-0.031,0.205
		c-0.037,0.264-0.062,0.531-0.062,0.805v4.728c-6.189-2.112-12.866-1.987-19,0.367c-6.134-2.354-12.81-2.479-19-0.367v-4.728
		c0-0.274-0.026-0.542-0.062-0.806c-0.009-0.068-0.019-0.136-0.031-0.204c-0.044-0.251-0.099-0.499-0.174-0.738
		c-0.015-0.049-0.036-0.096-0.053-0.145c-0.067-0.195-0.144-0.384-0.231-0.569c-0.035-0.075-0.069-0.149-0.107-0.221
		c-0.109-0.21-0.229-0.414-0.362-0.609c-0.035-0.051-0.074-0.098-0.111-0.148c-0.126-0.171-0.26-0.335-0.403-0.491
		c-0.034-0.037-0.066-0.075-0.101-0.111c-0.591-0.615-1.316-1.097-2.126-1.407C9.309,20.652,12.555,18.999,15.999,18.999z
		 M11.532,37.999c-0.294,0-0.533-0.239-0.533-0.533v-1.78c5.83-2.161,12.17-2.161,18,0v2.313H11.532z M30.999,35.685
		c5.83-2.161,12.17-2.161,18,0v1.78c0,0.294-0.239,0.533-0.533,0.533H30.999V35.685z M9.322,48.999H7.999v-3h2.523L9.322,48.999z
		 M51.999,48.999h-1.323l-1.2-3h2.523V48.999z M55.748,30.889c-0.089,0.023-0.169,0.065-0.246,0.11h-1.503c-0.553,0-1,0.448-1,1
		c0,0.552,0.447,1,1,1h1v9.084c0,1.056-0.859,1.916-1.916,1.916h-0.084h-5h-36h-5H6.914c-1.056,0-1.916-0.859-1.916-1.916v-9.084h1
		c0.552,0,1-0.448,1-1c0-0.552-0.448-1-1-1H4.495c-0.077-0.045-0.157-0.087-0.246-0.11c-1.481-0.383-2.435-1.817-2.218-3.335
		c0.207-1.457,1.553-2.555,3.13-2.555c0.107,0,0.208,0.023,0.312,0.032c0.013,0.002,0.025,0.007,0.038,0.008
		c0.494,0.046,0.957,0.181,1.375,0.389c0.008,0.004,0.017,0.009,0.025,0.014c0.19,0.096,0.369,0.209,0.538,0.333
		c0.046,0.035,0.089,0.074,0.134,0.11c0.129,0.104,0.254,0.214,0.368,0.334c0.071,0.076,0.134,0.159,0.198,0.24
		c0.079,0.098,0.159,0.194,0.228,0.299c0.076,0.117,0.137,0.243,0.2,0.368c0.044,0.087,0.094,0.169,0.131,0.259
		c0.063,0.155,0.107,0.319,0.15,0.483c0.019,0.073,0.048,0.142,0.063,0.217c0.048,0.243,0.076,0.494,0.076,0.751v6.162v2.467v1.533
		c0,0.552,0.448,1,1,1h1.533h18.467h18.467h1.533c0.553,0,1-0.448,1-1v-1.533v-2.467v-6.162c0-0.257,0.027-0.508,0.076-0.751
		c0.015-0.075,0.044-0.144,0.063-0.218c0.043-0.164,0.086-0.327,0.15-0.482c0.037-0.091,0.088-0.174,0.132-0.261
		c0.063-0.125,0.124-0.251,0.2-0.367c0.069-0.105,0.15-0.201,0.228-0.299c0.065-0.081,0.127-0.165,0.198-0.24
		c0.114-0.12,0.239-0.229,0.368-0.334c0.045-0.037,0.087-0.076,0.134-0.11c0.169-0.125,0.349-0.238,0.539-0.334
		c0.008-0.004,0.016-0.009,0.025-0.013c0.418-0.208,0.882-0.344,1.376-0.389c0.013-0.001,0.025-0.007,0.038-0.008
		c0.105-0.009,0.205-0.032,0.312-0.032c1.457,0,2.746,0.933,3.064,2.218c0,0,0,0,0,0C58.355,29.049,57.164,30.523,55.748,30.889z"/>
</g>
<g>
</g>
<g>
</g>
<g>
</g>
<g>
</g>
<g>
</g>
<g>
</g>
<g>
</g>
<g>
</g>
<g>
</g>
<g>
</g>
<g>
</g>
<g>
</g>
<g>
</g>
<g>
</g>
<g>
</g>
</svg>
