<?xml version="1.0" encoding="iso-8859-1"?>
<!-- Generator: Adobe Illustrator 18.0.0, SVG Export Plug-In . SVG Version: 6.00 Build 0)  -->
<!DOCTYPE svg PUBLIC "-//W3C//DTD SVG 1.1//EN" "http://www.w3.org/Graphics/SVG/1.1/DTD/svg11.dtd">
<svg version="1.1" id="Capa_1" xmlns="http://www.w3.org/2000/svg" xmlns:xlink="http://www.w3.org/1999/xlink" x="0px" y="0px"
	 viewBox="0 0 60 60" style="enable-background:new 0 0 60 60;" xml:space="preserve">
<g>
	<path d="M60,32.748V27.83c0-1.272-0.849-2.338-2.006-2.693C57.995,25.091,58,25.046,58,25c0-8.271-6.729-15-15-15H17
		C8.729,10,2,16.729,2,25c0,0.046,0.005,0.091,0.006,0.137C0.849,25.492,0,26.558,0,27.83v4.917c0,0.651,0.281,1.233,0.724,1.645
		C0.276,34.981,0,35.706,0,36.5c0,0.98,0.407,1.864,1.058,2.5C0.407,39.636,0,40.52,0,41.5C0,43.43,1.57,45,3.5,45H4v4
		c0,0.552,0.447,1,1,1h3c0.409,0,0.776-0.249,0.929-0.628L10.677,45h38.645l1.749,4.372C51.224,49.751,51.591,50,52,50h3
		c0.553,0,1-0.448,1-1v-4h0.5c1.93,0,3.5-1.57,3.5-3.5c0-0.98-0.407-1.864-1.058-2.5C59.593,38.364,60,37.48,60,36.5
		c0-0.794-0.276-1.519-0.724-2.108C59.719,33.981,60,33.398,60,32.748z M58,32.748C58,32.887,57.887,33,57.748,33H56.5h-8.483
		c0.003-0.054,0.004-0.108,0.008-0.161c0.008-0.101,0.018-0.201,0.031-0.3c0.014-0.108,0.03-0.216,0.049-0.322
		c0.018-0.098,0.037-0.196,0.059-0.292c0.024-0.104,0.051-0.207,0.08-0.31c0.027-0.095,0.055-0.189,0.086-0.282
		c0.034-0.101,0.071-0.199,0.109-0.298c0.035-0.091,0.072-0.181,0.111-0.27c0.043-0.096,0.089-0.19,0.137-0.283
		c0.044-0.086,0.088-0.172,0.135-0.257c0.052-0.091,0.107-0.179,0.163-0.268c0.051-0.081,0.102-0.162,0.157-0.24
		c0.06-0.086,0.124-0.169,0.188-0.251c0.058-0.075,0.116-0.151,0.178-0.223c0.068-0.08,0.14-0.156,0.212-0.233
		c0.065-0.069,0.129-0.139,0.196-0.205c0.075-0.074,0.155-0.143,0.234-0.213c0.071-0.062,0.14-0.126,0.214-0.185
		c0.083-0.067,0.17-0.129,0.256-0.192c0.075-0.055,0.149-0.111,0.227-0.162c0.091-0.06,0.185-0.114,0.279-0.17
		c0.079-0.047,0.157-0.096,0.238-0.139c0.098-0.052,0.2-0.098,0.301-0.145c0.082-0.038,0.162-0.079,0.245-0.114
		c0.106-0.044,0.216-0.081,0.325-0.119c0.083-0.029,0.165-0.062,0.249-0.088c0.115-0.035,0.234-0.062,0.352-0.091
		c0.082-0.02,0.162-0.044,0.246-0.061c0.135-0.027,0.273-0.044,0.411-0.063c0.069-0.009,0.137-0.024,0.207-0.031
		C53.908,27.011,54.12,27,54.335,27h2.835c0.458,0,0.83,0.373,0.83,0.83V32.748z M6.27,17.674C6.453,17.872,6.709,18,7,18
		c0.552,0,1-0.448,1-1c0-0.366-0.206-0.672-0.499-0.846c0.528-0.566,1.104-1.083,1.724-1.548C9.408,14.84,9.68,15,10,15
		c0.552,0,1-0.448,1-1c0-0.169-0.052-0.321-0.126-0.46C12.7,12.559,14.786,12,17,12h26c6.244,0,11.47,4.426,12.715,10.305
		C55.533,22.118,55.281,22,55,22c-0.552,0-1,0.448-1,1c0,0.552,0.448,1,1,1c0.397,0,0.734-0.236,0.895-0.572
		C55.958,23.944,56,24.467,56,25h-1.665c-0.284,0-0.564,0.015-0.84,0.043c-0.096,0.01-0.188,0.029-0.283,0.042
		c-0.179,0.024-0.359,0.046-0.535,0.082c-0.039,0.008-0.077,0.019-0.116,0.028C52.399,25.081,52.213,25,52,25
		c-0.435,0-0.796,0.281-0.933,0.669c-0.087,0.037-0.169,0.082-0.254,0.122c-0.136,0.064-0.273,0.125-0.405,0.195
		c-0.104,0.056-0.203,0.12-0.304,0.18c-0.127,0.075-0.255,0.148-0.378,0.23c-0.099,0.066-0.192,0.138-0.287,0.208
		c-0.118,0.086-0.237,0.17-0.35,0.262c-0.093,0.075-0.179,0.157-0.268,0.236c-0.108,0.096-0.218,0.19-0.321,0.292
		c-0.085,0.084-0.165,0.173-0.247,0.261c-0.098,0.105-0.198,0.209-0.291,0.32c-0.078,0.092-0.149,0.189-0.223,0.284
		c-0.088,0.114-0.176,0.226-0.258,0.344c-0.07,0.1-0.133,0.205-0.198,0.308c-0.076,0.121-0.152,0.24-0.222,0.365
		c-0.06,0.108-0.115,0.219-0.17,0.329c-0.064,0.127-0.128,0.254-0.185,0.385c-0.05,0.115-0.095,0.232-0.14,0.35
		c-0.051,0.132-0.102,0.265-0.147,0.4c-0.035,0.107-0.066,0.216-0.097,0.325C46.22,31.03,46.114,31,46,31c-0.552,0-1,0.448-1,1
		c0,0.552,0.448,1,1,1c0.002,0,0.005-0.001,0.007-0.001l0,0.001H46h-6h-6h-6h-6h-6h-2.007c-0.004-0.089-0.017-0.175-0.023-0.263
		c-0.01-0.136-0.02-0.271-0.036-0.405c-0.017-0.142-0.04-0.282-0.064-0.422c-0.023-0.13-0.045-0.26-0.074-0.389
		c-0.031-0.139-0.068-0.276-0.106-0.412c-0.034-0.124-0.068-0.248-0.108-0.37c-0.045-0.136-0.095-0.268-0.147-0.4
		c-0.045-0.117-0.09-0.235-0.14-0.35c-0.007-0.015-0.012-0.031-0.018-0.046C13.691,29.823,14,29.455,14,29c0-0.552-0.448-1-1-1
		c-0.278,0-0.528,0.114-0.71,0.297c-0.01-0.013-0.02-0.025-0.03-0.038c-0.074-0.095-0.145-0.192-0.223-0.284
		c-0.093-0.11-0.192-0.214-0.291-0.32c-0.082-0.088-0.161-0.177-0.247-0.261c-0.103-0.101-0.213-0.196-0.321-0.292
		c-0.089-0.079-0.176-0.16-0.268-0.236c-0.067-0.055-0.138-0.105-0.206-0.158C10.887,26.528,11,26.277,11,26c0-0.552-0.448-1-1-1
		c-0.456,0-0.824,0.311-0.945,0.728C8.993,25.7,8.933,25.669,8.87,25.643c-0.142-0.059-0.289-0.108-0.435-0.159
		c-0.108-0.038-0.213-0.082-0.323-0.115c-0.155-0.048-0.315-0.083-0.474-0.122c-0.105-0.026-0.209-0.058-0.316-0.079
		c-0.175-0.036-0.355-0.058-0.535-0.082c-0.095-0.013-0.187-0.033-0.283-0.042C6.229,25.015,5.949,25,5.665,25H4
		C4,22.284,4.84,19.762,6.27,17.674z M2,27.83C2,27.373,2.372,27,2.83,27h2.835c0.215,0,0.427,0.011,0.637,0.032
		c0.07,0.007,0.138,0.021,0.207,0.031c0.138,0.018,0.276,0.036,0.411,0.063c0.083,0.017,0.164,0.041,0.246,0.061
		c0.118,0.029,0.237,0.055,0.352,0.091c0.085,0.026,0.166,0.059,0.249,0.088c0.109,0.039,0.219,0.075,0.325,0.119
		c0.083,0.035,0.163,0.076,0.245,0.114c0.101,0.047,0.203,0.093,0.301,0.145c0.081,0.043,0.159,0.092,0.238,0.139
		c0.094,0.055,0.188,0.11,0.279,0.17c0.078,0.051,0.151,0.108,0.227,0.162c0.086,0.063,0.173,0.125,0.256,0.192
		c0.073,0.059,0.143,0.123,0.214,0.185c0.079,0.07,0.158,0.139,0.234,0.213c0.068,0.066,0.132,0.136,0.196,0.205
		c0.072,0.077,0.144,0.153,0.212,0.233c0.062,0.073,0.119,0.148,0.178,0.223c0.064,0.083,0.128,0.165,0.188,0.251
		c0.055,0.078,0.106,0.159,0.157,0.24c0.056,0.088,0.111,0.177,0.163,0.268c0.048,0.084,0.092,0.17,0.135,0.257
		c0.047,0.093,0.094,0.187,0.137,0.283c0.039,0.089,0.076,0.179,0.111,0.27c0.039,0.098,0.076,0.197,0.109,0.298
		c0.031,0.093,0.059,0.187,0.086,0.282c0.029,0.102,0.056,0.205,0.08,0.31c0.022,0.097,0.041,0.194,0.059,0.292
		c0.019,0.107,0.036,0.214,0.049,0.322c0.013,0.099,0.023,0.199,0.031,0.3c0.004,0.053,0.005,0.107,0.008,0.161H3.5H2.252
		C2.113,33,2,32.887,2,32.748V27.83z M7.323,48H6v-3h2.523L7.323,48z M54,48h-1.323l-1.2-3H54V48z M58,41.5
		c0,0.827-0.673,1.5-1.5,1.5H55h-5H10H5H3.5C2.673,43,2,42.327,2,41.5S2.673,40,3.5,40h53C57.327,40,58,40.673,58,41.5z M3.5,38
		C2.673,38,2,37.327,2,36.5S2.673,35,3.5,35h8.835h35.33H56.5c0.827,0,1.5,0.673,1.5,1.5S57.327,38,56.5,38H3.5z"/>
	<circle cx="10" cy="20" r="1"/>
	<circle cx="13" cy="17" r="1"/>
	<circle cx="19" cy="17" r="1"/>
	<circle cx="16" cy="14" r="1"/>
	<circle cx="22" cy="14" r="1"/>
	<circle cx="16" cy="20" r="1"/>
	<circle cx="22" cy="20" r="1"/>
	<circle cx="25" cy="17" r="1"/>
	<circle cx="31" cy="17" r="1"/>
	<circle cx="28" cy="14" r="1"/>
	<circle cx="34" cy="14" r="1"/>
	<circle cx="28" cy="20" r="1"/>
	<circle cx="34" cy="20" r="1"/>
	<circle cx="37" cy="17" r="1"/>
	<circle cx="43" cy="17" r="1"/>
	<circle cx="40" cy="14" r="1"/>
	<circle cx="46" cy="14" r="1"/>
	<circle cx="40" cy="20" r="1"/>
	<circle cx="46" cy="20" r="1"/>
	<circle cx="49" cy="17" r="1"/>
	<circle cx="52" cy="20" r="1"/>
	<circle cx="7" cy="23" r="1"/>
	<circle cx="13" cy="23" r="1"/>
	<circle cx="19" cy="23" r="1"/>
	<circle cx="19" cy="29" r="1"/>
	<circle cx="16" cy="26" r="1"/>
	<circle cx="22" cy="26" r="1"/>
	<circle cx="16" cy="32" r="1"/>
	<circle cx="22" cy="32" r="1"/>
	<circle cx="25" cy="23" r="1"/>
	<circle cx="31" cy="23" r="1"/>
	<circle cx="25" cy="29" r="1"/>
	<circle cx="31" cy="29" r="1"/>
	<circle cx="28" cy="26" r="1"/>
	<circle cx="34" cy="26" r="1"/>
	<circle cx="28" cy="32" r="1"/>
	<circle cx="34" cy="32" r="1"/>
	<circle cx="37" cy="23" r="1"/>
	<circle cx="43" cy="23" r="1"/>
	<circle cx="37" cy="29" r="1"/>
	<circle cx="43" cy="29" r="1"/>
	<circle cx="40" cy="26" r="1"/>
	<circle cx="46" cy="26" r="1"/>
	<circle cx="40" cy="32" r="1"/>
	<circle cx="49" cy="23" r="1"/>
</g>
<g>
</g>
<g>
</g>
<g>
</g>
<g>
</g>
<g>
</g>
<g>
</g>
<g>
</g>
<g>
</g>
<g>
</g>
<g>
</g>
<g>
</g>
<g>
</g>
<g>
</g>
<g>
</g>
<g>
</g>
</svg>
