<?xml version="1.0" encoding="iso-8859-1"?>
<!-- Generator: Adobe Illustrator 18.0.0, SVG Export Plug-In . SVG Version: 6.00 Build 0)  -->
<!DOCTYPE svg PUBLIC "-//W3C//DTD SVG 1.1//EN" "http://www.w3.org/Graphics/SVG/1.1/DTD/svg11.dtd">
<svg version="1.1" id="Capa_1" xmlns="http://www.w3.org/2000/svg" xmlns:xlink="http://www.w3.org/1999/xlink" x="0px" y="0px"
	 viewBox="0 0 59.999 59.999" style="enable-background:new 0 0 59.999 59.999;" xml:space="preserve">
<g>
	<path d="M59.948,21.272c-0.344-2.406-2.494-4.221-5.02-4.264c-2.391-3.719-6.519-6.008-10.928-6.008h-28
		c-4.408,0-8.536,2.289-10.928,6.008c-2.527,0.043-4.677,1.858-5.02,4.264c-0.326,2.29,0.936,4.531,2.948,5.433v10.295
		c0,3.165,2.113,5.842,5,6.705v4.295c0,0.552,0.447,1,1,1h3c0.409,0,0.776-0.249,0.929-0.628l1.749-4.372h30.645l1.749,4.372
		c0.152,0.379,0.52,0.628,0.929,0.628h3c0.553,0,1-0.448,1-1v-4.295c2.888-0.863,5-3.541,5-6.705V26.705
		C59.012,25.803,60.274,23.561,59.948,21.272z M15.999,12.999h28c3.444,0,6.69,1.653,8.762,4.388
		c-0.28,0.107-0.551,0.233-0.808,0.381c-0.107-0.437-0.483-0.769-0.953-0.769c-0.552,0-1,0.448-1,1c0,0.389,0.229,0.718,0.554,0.883
		c-0.009,0.009-0.016,0.02-0.024,0.029c-0.139,0.153-0.271,0.313-0.393,0.48c-0.039,0.052-0.08,0.102-0.117,0.156
		c-0.132,0.193-0.251,0.395-0.359,0.604c-0.039,0.075-0.074,0.151-0.11,0.227c-0.085,0.183-0.162,0.37-0.228,0.563
		c-0.017,0.05-0.039,0.098-0.055,0.149c-0.075,0.239-0.13,0.486-0.174,0.736c-0.012,0.068-0.022,0.136-0.031,0.205
		c-0.037,0.264-0.062,0.531-0.062,0.805v4.162v2.026c-0.838-0.635-1.87-1.026-3-1.026c-2.757,0-5,2.243-5,5
		c0,1.13,0.391,2.162,1.026,3h-2.026c0-0.552-0.448-1-1-1s-1,0.448-1,1h-4c0-0.552-0.448-1-1-1s-1,0.448-1,1h-4c0-0.552-0.448-1-1-1
		s-1,0.448-1,1h-4c0-0.552-0.448-1-1-1s-1,0.448-1,1h-2.026c0.635-0.838,1.026-1.87,1.026-3c0-2.757-2.243-5-5-5
		c-1.13,0-2.162,0.391-3,1.026v-2.026v-4.162c0-0.274-0.026-0.541-0.062-0.805c-0.009-0.069-0.02-0.137-0.031-0.205
		c-0.044-0.251-0.099-0.497-0.174-0.736c-0.016-0.052-0.038-0.1-0.055-0.151c-0.066-0.192-0.142-0.379-0.228-0.561
		c-0.036-0.077-0.071-0.153-0.11-0.227c-0.109-0.209-0.227-0.411-0.359-0.604c-0.037-0.054-0.078-0.104-0.117-0.156
		c-0.123-0.167-0.254-0.327-0.393-0.48c-0.009-0.009-0.015-0.02-0.024-0.029c0.325-0.165,0.554-0.494,0.554-0.883
		c0-0.552-0.448-1-1-1c-0.47,0-0.847,0.332-0.953,0.769c-0.258-0.147-0.528-0.273-0.808-0.381
		C9.309,14.652,12.555,12.999,15.999,12.999z M42.999,32.999c0-1.654,1.346-3,3-3s3,1.346,3,3c0,1.654-1.346,3-3,3
		S42.999,34.654,42.999,32.999z M10.999,32.999c0-1.654,1.346-3,3-3s3,1.346,3,3c0,1.654-1.346,3-3,3S10.999,34.654,10.999,32.999z
		 M11.323,46.999H9.999v-3h2.523L11.323,46.999z M49.999,46.999h-1.323l-1.2-3h2.523V46.999z M55.835,24.999h-1.835
		c-0.553,0-1,0.448-1,1s0.447,1,1,1h1v10c0,2.757-2.243,5-5,5h-4h-32h-4c-2.757,0-5-2.243-5-5v-10h1c0.553,0,1-0.448,1-1
		s-0.447-1-1-1H4.164c-1.419-0.418-2.352-1.908-2.133-3.445c0.207-1.457,1.553-2.555,3.13-2.555c0.107,0,0.208,0.023,0.312,0.032
		c0.013,0.002,0.025,0.007,0.038,0.008c0.494,0.046,0.957,0.181,1.375,0.389c0.008,0.004,0.017,0.009,0.025,0.014
		c0.19,0.096,0.369,0.209,0.538,0.333c0.046,0.035,0.089,0.074,0.134,0.11C7.714,19.99,7.838,20.1,7.953,20.22
		c0.071,0.076,0.134,0.159,0.198,0.24c0.079,0.098,0.159,0.194,0.228,0.299c0.076,0.117,0.137,0.243,0.2,0.368
		c0.044,0.087,0.094,0.169,0.131,0.259c0.063,0.155,0.107,0.319,0.15,0.483c0.019,0.073,0.048,0.142,0.063,0.217
		c0.048,0.243,0.076,0.494,0.076,0.751v12.629v1.533c0,0.552,0.447,1,1,1h1.533h36.934h1.533c0.553,0,1-0.448,1-1v-1.533V22.837
		c0-0.257,0.027-0.508,0.076-0.751c0.015-0.075,0.044-0.144,0.063-0.218c0.043-0.164,0.086-0.327,0.15-0.482
		c0.037-0.091,0.088-0.174,0.132-0.261c0.063-0.125,0.124-0.251,0.2-0.367c0.069-0.105,0.15-0.201,0.228-0.299
		c0.065-0.081,0.127-0.165,0.198-0.24c0.114-0.12,0.239-0.229,0.368-0.334c0.045-0.037,0.087-0.076,0.134-0.11
		c0.169-0.125,0.349-0.238,0.539-0.334c0.008-0.004,0.016-0.009,0.025-0.013c0.418-0.208,0.882-0.344,1.376-0.389
		c0.013-0.001,0.025-0.007,0.038-0.008c0.105-0.009,0.205-0.032,0.312-0.032c1.577,0,2.923,1.098,3.13,2.555
		C58.186,23.092,57.253,24.582,55.835,24.999z"/>
	<circle cx="11.999" cy="14.999" r="1"/>
	<circle cx="17.999" cy="14.999" r="1"/>
	<circle cx="11.999" cy="20.999" r="1"/>
	<circle cx="17.999" cy="20.999" r="1"/>
	<circle cx="14.999" cy="17.999" r="1"/>
	<circle cx="20.999" cy="17.999" r="1"/>
	<circle cx="14.999" cy="23.999" r="1"/>
	<circle cx="20.999" cy="23.999" r="1"/>
	<circle cx="23.999" cy="14.999" r="1"/>
	<circle cx="29.999" cy="14.999" r="1"/>
	<circle cx="23.999" cy="20.999" r="1"/>
	<circle cx="29.999" cy="20.999" r="1"/>
	<circle cx="26.999" cy="17.999" r="1"/>
	<circle cx="32.999" cy="17.999" r="1"/>
	<circle cx="26.999" cy="23.999" r="1"/>
	<circle cx="32.999" cy="23.999" r="1"/>
	<circle cx="35.999" cy="14.999" r="1"/>
	<circle cx="41.999" cy="14.999" r="1"/>
	<circle cx="35.999" cy="20.999" r="1"/>
	<circle cx="41.999" cy="20.999" r="1"/>
	<circle cx="38.999" cy="17.999" r="1"/>
	<circle cx="44.999" cy="17.999" r="1"/>
	<circle cx="38.999" cy="23.999" r="1"/>
	<circle cx="44.999" cy="23.999" r="1"/>
	<circle cx="47.999" cy="14.999" r="1"/>
	<circle cx="47.999" cy="20.999" r="1"/>
	<circle cx="11.999" cy="26.999" r="1"/>
	<circle cx="17.999" cy="26.999" r="1"/>
	<circle cx="20.999" cy="29.999" r="1"/>
	<circle cx="23.999" cy="26.999" r="1"/>
	<circle cx="29.999" cy="26.999" r="1"/>
	<circle cx="23.999" cy="32.999" r="1"/>
	<circle cx="29.999" cy="32.999" r="1"/>
	<circle cx="26.999" cy="29.999" r="1"/>
	<circle cx="32.999" cy="29.999" r="1"/>
	<circle cx="35.999" cy="26.999" r="1"/>
	<circle cx="41.999" cy="26.999" r="1"/>
	<circle cx="35.999" cy="32.999" r="1"/>
	<circle cx="38.999" cy="29.999" r="1"/>
	<circle cx="47.999" cy="26.999" r="1"/>
</g>
<g>
</g>
<g>
</g>
<g>
</g>
<g>
</g>
<g>
</g>
<g>
</g>
<g>
</g>
<g>
</g>
<g>
</g>
<g>
</g>
<g>
</g>
<g>
</g>
<g>
</g>
<g>
</g>
<g>
</g>
</svg>
