<?xml version="1.0" encoding="iso-8859-1"?>
<!-- Generator: Adobe Illustrator 18.0.0, SVG Export Plug-In . SVG Version: 6.00 Build 0)  -->
<!DOCTYPE svg PUBLIC "-//W3C//DTD SVG 1.1//EN" "http://www.w3.org/Graphics/SVG/1.1/DTD/svg11.dtd">
<svg version="1.1" id="Capa_1" xmlns="http://www.w3.org/2000/svg" xmlns:xlink="http://www.w3.org/1999/xlink" x="0px" y="0px"
	 viewBox="0 0 60 60" style="enable-background:new 0 0 60 60;" xml:space="preserve">
<g>
	<path d="M60,32.748V27.83c0-1.27-0.846-2.334-2-2.691V14.433c0-1.189-0.477-2.266-1.242-3.063c-0.02-0.024-0.029-0.055-0.051-0.077
		c-0.023-0.023-0.053-0.031-0.078-0.051C55.833,10.477,54.757,10,53.567,10H33.433c-1.189,0-2.265,0.477-3.062,1.242
		c-0.024,0.02-0.055,0.029-0.078,0.051c-0.023,0.023-0.031,0.053-0.051,0.077c-0.088,0.091-0.162,0.194-0.242,0.293
		c-0.08-0.099-0.154-0.201-0.242-0.293c-0.02-0.024-0.029-0.055-0.051-0.077c-0.023-0.023-0.053-0.031-0.078-0.051
		C28.833,10.477,27.757,10,26.567,10H6.433c-1.189,0-2.265,0.477-3.062,1.242c-0.024,0.02-0.055,0.029-0.078,0.051
		c-0.023,0.023-0.031,0.053-0.051,0.077C2.477,12.167,2,13.244,2,14.433v10.706c-1.154,0.357-2,1.422-2,2.691v4.917
		c0,0.651,0.281,1.233,0.724,1.645C0.276,34.981,0,35.706,0,36.5c0,0.98,0.407,1.864,1.058,2.5C0.407,39.636,0,40.52,0,41.5
		C0,43.43,1.57,45,3.5,45H4v4c0,0.552,0.447,1,1,1h3c0.409,0,0.776-0.249,0.929-0.628L10.677,45h38.645l1.749,4.372
		C51.224,49.751,51.591,50,52,50h3c0.553,0,1-0.448,1-1v-4h0.5c1.93,0,3.5-1.57,3.5-3.5c0-0.98-0.407-1.864-1.058-2.5
		C59.593,38.364,60,37.48,60,36.5c0-0.794-0.276-1.519-0.724-2.108C59.719,33.981,60,33.398,60,32.748z M48.025,32.839
		c0.008-0.101,0.018-0.201,0.031-0.3c0.014-0.108,0.03-0.216,0.049-0.322c0.018-0.098,0.037-0.196,0.059-0.292
		c0.024-0.104,0.051-0.207,0.08-0.31c0.027-0.095,0.055-0.189,0.086-0.282c0.034-0.101,0.071-0.199,0.109-0.298
		c0.035-0.091,0.072-0.181,0.111-0.27c0.043-0.096,0.089-0.19,0.137-0.283c0.044-0.086,0.088-0.172,0.135-0.257
		c0.052-0.091,0.107-0.179,0.163-0.268c0.051-0.081,0.102-0.162,0.157-0.24c0.06-0.086,0.124-0.169,0.188-0.251
		c0.058-0.075,0.116-0.151,0.178-0.223c0.068-0.08,0.14-0.156,0.212-0.233c0.065-0.069,0.129-0.139,0.196-0.205
		c0.075-0.074,0.155-0.143,0.234-0.213c0.071-0.062,0.14-0.126,0.214-0.185c0.083-0.067,0.17-0.129,0.256-0.192
		c0.075-0.055,0.149-0.111,0.227-0.162c0.091-0.06,0.185-0.114,0.279-0.17c0.079-0.047,0.157-0.096,0.238-0.139
		c0.098-0.052,0.2-0.098,0.301-0.145c0.082-0.038,0.162-0.079,0.245-0.114c0.106-0.044,0.216-0.081,0.325-0.119
		c0.083-0.029,0.165-0.062,0.249-0.088c0.115-0.035,0.234-0.062,0.352-0.091c0.082-0.02,0.162-0.044,0.246-0.061
		c0.135-0.027,0.273-0.044,0.411-0.063c0.069-0.009,0.137-0.024,0.207-0.031C53.908,27.011,54.12,27,54.335,27h2.835
		c0.458,0,0.83,0.373,0.83,0.83v4.917C58,32.887,57.887,33,57.748,33H56.5h-8.483C48.02,32.946,48.021,32.892,48.025,32.839z
		 M53.567,12c0.302,0,0.588,0.062,0.855,0.163l-2.13,2.13c-0.391,0.391-0.391,1.023,0,1.414C52.488,15.902,52.744,16,53,16
		s0.512-0.098,0.707-0.293l2.13-2.13C55.938,13.845,56,14.131,56,14.433V25h-1.665c-0.284,0-0.564,0.015-0.84,0.043
		c-0.096,0.01-0.188,0.029-0.283,0.042c-0.179,0.024-0.359,0.046-0.535,0.082c-0.107,0.022-0.21,0.053-0.316,0.079
		c-0.159,0.039-0.319,0.074-0.474,0.122c-0.11,0.034-0.215,0.077-0.323,0.115c-0.146,0.052-0.293,0.1-0.435,0.159
		c-0.108,0.045-0.211,0.099-0.317,0.149c-0.136,0.064-0.273,0.125-0.405,0.195c-0.104,0.056-0.203,0.12-0.304,0.18
		c-0.127,0.075-0.255,0.148-0.378,0.23c-0.099,0.066-0.192,0.138-0.287,0.208c-0.118,0.086-0.237,0.17-0.35,0.262
		c-0.093,0.075-0.179,0.157-0.268,0.236c-0.108,0.096-0.218,0.19-0.321,0.292c-0.085,0.084-0.165,0.173-0.247,0.261
		c-0.098,0.105-0.198,0.209-0.291,0.32c-0.078,0.092-0.149,0.189-0.223,0.284c-0.088,0.114-0.176,0.226-0.258,0.344
		c-0.07,0.1-0.133,0.205-0.198,0.308c-0.076,0.121-0.152,0.24-0.222,0.365c-0.06,0.108-0.115,0.219-0.17,0.329
		c-0.064,0.127-0.128,0.254-0.185,0.385c-0.05,0.115-0.095,0.232-0.14,0.35c-0.051,0.132-0.102,0.265-0.147,0.4
		c-0.04,0.122-0.074,0.245-0.108,0.369c-0.038,0.137-0.075,0.274-0.107,0.413c-0.028,0.128-0.051,0.257-0.073,0.387
		c-0.024,0.14-0.047,0.28-0.065,0.423c-0.016,0.134-0.026,0.269-0.036,0.405c-0.006,0.088-0.02,0.174-0.023,0.263H33.433
		c-0.302,0-0.588-0.062-0.855-0.163l2.13-2.13c0.391-0.391,0.391-1.023,0-1.414s-1.023-0.391-1.414,0l-2.13,2.13
		C31.062,31.155,31,30.869,31,30.567V14.433c0-0.302,0.062-0.589,0.163-0.856l2.13,2.13C33.488,15.902,33.744,16,34,16
		s0.512-0.098,0.707-0.293c0.391-0.391,0.391-1.023,0-1.414l-2.13-2.13C32.844,12.062,33.131,12,33.433,12H53.567z M26.567,12
		c0.302,0,0.588,0.062,0.855,0.163l-2.13,2.13c-0.391,0.391-0.391,1.023,0,1.414C25.488,15.902,25.744,16,26,16
		s0.512-0.098,0.707-0.293l2.13-2.13C28.938,13.845,29,14.131,29,14.433v16.134c0,0.302-0.062,0.589-0.163,0.856l-2.13-2.13
		c-0.391-0.391-1.023-0.391-1.414,0s-0.391,1.023,0,1.414l2.13,2.13C27.156,32.938,26.869,33,26.567,33H13.993
		c-0.004-0.089-0.017-0.175-0.023-0.263c-0.01-0.136-0.02-0.271-0.036-0.405c-0.017-0.142-0.04-0.282-0.064-0.422
		c-0.023-0.13-0.045-0.26-0.074-0.389c-0.031-0.139-0.068-0.276-0.106-0.412c-0.034-0.124-0.068-0.248-0.108-0.37
		c-0.045-0.136-0.095-0.268-0.147-0.4c-0.045-0.117-0.09-0.235-0.14-0.35c-0.057-0.131-0.121-0.257-0.185-0.385
		c-0.056-0.111-0.11-0.222-0.17-0.329c-0.07-0.125-0.146-0.245-0.222-0.365c-0.065-0.104-0.128-0.208-0.198-0.308
		c-0.082-0.118-0.17-0.231-0.258-0.344c-0.074-0.095-0.145-0.192-0.223-0.284c-0.093-0.11-0.192-0.214-0.291-0.32
		c-0.082-0.088-0.161-0.177-0.247-0.261c-0.103-0.101-0.213-0.196-0.321-0.292c-0.089-0.079-0.176-0.16-0.268-0.236
		c-0.113-0.092-0.232-0.175-0.349-0.261c-0.096-0.07-0.19-0.143-0.289-0.209c-0.122-0.081-0.25-0.154-0.377-0.229
		c-0.102-0.06-0.201-0.124-0.305-0.18c-0.132-0.071-0.269-0.132-0.405-0.195c-0.106-0.05-0.209-0.103-0.317-0.149
		c-0.142-0.059-0.289-0.108-0.435-0.159c-0.108-0.038-0.213-0.082-0.323-0.115c-0.155-0.048-0.315-0.083-0.474-0.122
		c-0.105-0.026-0.209-0.058-0.316-0.079c-0.175-0.036-0.355-0.058-0.535-0.082c-0.095-0.013-0.187-0.033-0.283-0.042
		C6.229,25.015,5.949,25,5.665,25H4V14.433c0-0.302,0.062-0.589,0.163-0.856l2.13,2.13C6.488,15.902,6.744,16,7,16
		s0.512-0.098,0.707-0.293c0.391-0.391,0.391-1.023,0-1.414l-2.13-2.13C5.844,12.062,6.131,12,6.433,12H26.567z M2,27.83
		C2,27.373,2.372,27,2.83,27h2.835c0.215,0,0.427,0.011,0.637,0.032c0.07,0.007,0.138,0.021,0.207,0.031
		c0.138,0.018,0.276,0.036,0.411,0.063c0.083,0.017,0.164,0.041,0.246,0.061c0.118,0.029,0.237,0.055,0.352,0.091
		c0.085,0.026,0.166,0.059,0.249,0.088c0.109,0.039,0.219,0.075,0.325,0.119c0.083,0.035,0.163,0.076,0.245,0.114
		c0.101,0.047,0.203,0.093,0.301,0.145c0.081,0.043,0.159,0.092,0.238,0.139c0.094,0.055,0.188,0.11,0.279,0.17
		c0.078,0.051,0.151,0.108,0.227,0.162c0.086,0.063,0.173,0.125,0.256,0.192c0.073,0.059,0.143,0.123,0.214,0.185
		c0.079,0.07,0.158,0.139,0.234,0.213c0.068,0.066,0.132,0.136,0.196,0.205c0.072,0.077,0.144,0.153,0.212,0.233
		c0.062,0.073,0.119,0.148,0.178,0.223c0.064,0.083,0.128,0.165,0.188,0.251c0.055,0.078,0.106,0.159,0.157,0.24
		c0.056,0.088,0.111,0.177,0.163,0.268c0.048,0.084,0.092,0.17,0.135,0.257c0.047,0.093,0.094,0.187,0.137,0.283
		c0.039,0.089,0.076,0.179,0.111,0.27c0.039,0.098,0.076,0.197,0.109,0.298c0.031,0.093,0.059,0.187,0.086,0.282
		c0.029,0.102,0.056,0.205,0.08,0.31c0.022,0.097,0.041,0.194,0.059,0.292c0.019,0.107,0.036,0.214,0.049,0.322
		c0.013,0.099,0.023,0.199,0.031,0.3c0.004,0.053,0.005,0.107,0.008,0.161H3.5H2.252C2.113,33,2,32.887,2,32.748V27.83z M7.323,48H6
		v-3h2.523L7.323,48z M54,48h-1.323l-1.2-3H54V48z M58,41.5c0,0.827-0.673,1.5-1.5,1.5H55h-5H10H5H3.5C2.673,43,2,42.327,2,41.5
		S2.673,40,3.5,40h53C57.327,40,58,40.673,58,41.5z M3.5,38C2.673,38,2,37.327,2,36.5S2.673,35,3.5,35h8.835h14.232h6.865h14.232
		H56.5c0.827,0,1.5,0.673,1.5,1.5S57.327,38,56.5,38H3.5z"/>
	<path d="M13.293,23.707C13.488,23.902,13.744,24,14,24s0.512-0.098,0.707-0.293L16,22.414l1.293,1.293
		C17.488,23.902,17.744,24,18,24s0.512-0.098,0.707-0.293c0.391-0.391,0.391-1.023,0-1.414L17.414,21l1.293-1.293
		c0.391-0.391,0.391-1.023,0-1.414s-1.023-0.391-1.414,0L16,19.586l-1.293-1.293c-0.391-0.391-1.023-0.391-1.414,0
		s-0.391,1.023,0,1.414L14.586,21l-1.293,1.293C12.902,22.684,12.902,23.316,13.293,23.707z"/>
	<path d="M41.293,23.707C41.488,23.902,41.744,24,42,24s0.512-0.098,0.707-0.293L44,22.414l1.293,1.293
		C45.488,23.902,45.744,24,46,24s0.512-0.098,0.707-0.293c0.391-0.391,0.391-1.023,0-1.414L45.414,21l1.293-1.293
		c0.391-0.391,0.391-1.023,0-1.414s-1.023-0.391-1.414,0L44,19.586l-1.293-1.293c-0.391-0.391-1.023-0.391-1.414,0
		s-0.391,1.023,0,1.414L42.586,21l-1.293,1.293C40.902,22.684,40.902,23.316,41.293,23.707z"/>
</g>
<g>
</g>
<g>
</g>
<g>
</g>
<g>
</g>
<g>
</g>
<g>
</g>
<g>
</g>
<g>
</g>
<g>
</g>
<g>
</g>
<g>
</g>
<g>
</g>
<g>
</g>
<g>
</g>
<g>
</g>
</svg>
