<?xml version="1.0" encoding="iso-8859-1"?>
<!-- Generator: Adobe Illustrator 18.0.0, SVG Export Plug-In . SVG Version: 6.00 Build 0)  -->
<!DOCTYPE svg PUBLIC "-//W3C//DTD SVG 1.1//EN" "http://www.w3.org/Graphics/SVG/1.1/DTD/svg11.dtd">
<svg version="1.1" id="Capa_1" xmlns="http://www.w3.org/2000/svg" xmlns:xlink="http://www.w3.org/1999/xlink" x="0px" y="0px"
	 viewBox="0 0 60 60" style="enable-background:new 0 0 60 60;" xml:space="preserve">
<g>
	<path d="M15.293,21.707C15.488,21.902,15.744,22,16,22s0.512-0.098,0.707-0.293l1.009-1.009c0.406,0.193,0.843,0.301,1.284,0.301
		s0.878-0.108,1.284-0.301l1.009,1.009C21.488,21.902,21.744,22,22,22s0.512-0.098,0.707-0.293c0.391-0.391,0.391-1.023,0-1.414
		L21.7,19.286C21.89,18.888,22,18.454,22,18s-0.11-0.888-0.3-1.286l1.007-1.007c0.391-0.391,0.391-1.023,0-1.414
		s-1.023-0.391-1.414,0l-1.009,1.009c-0.813-0.385-1.755-0.385-2.568,0l-1.009-1.009c-0.391-0.391-1.023-0.391-1.414,0
		s-0.391,1.023,0,1.414l1.007,1.007C16.11,17.112,16,17.546,16,18s0.11,0.888,0.3,1.286l-1.007,1.007
		C14.902,20.684,14.902,21.316,15.293,21.707z M19.707,17.293C19.896,17.482,20,17.733,20,18s-0.104,0.518-0.293,0.707
		c-0.391,0.39-1.023,0.39-1.414,0v0C18.104,18.518,18,18.267,18,18s0.104-0.518,0.293-0.707C18.488,17.098,18.744,17,19,17
		S19.512,17.098,19.707,17.293z"/>
	<path d="M37.293,21.707C37.488,21.902,37.744,22,38,22s0.512-0.098,0.707-0.293l1.009-1.009c0.406,0.193,0.843,0.301,1.284,0.301
		s0.878-0.108,1.284-0.301l1.009,1.009C43.488,21.902,43.744,22,44,22s0.512-0.098,0.707-0.293c0.391-0.391,0.391-1.023,0-1.414
		L43.7,19.286C43.89,18.888,44,18.454,44,18s-0.11-0.888-0.3-1.286l1.007-1.007c0.391-0.391,0.391-1.023,0-1.414
		s-1.023-0.391-1.414,0l-1.009,1.009c-0.813-0.385-1.755-0.385-2.568,0l-1.009-1.009c-0.391-0.391-1.023-0.391-1.414,0
		s-0.391,1.023,0,1.414l1.007,1.007C38.11,17.112,38,17.546,38,18s0.11,0.888,0.3,1.286l-1.007,1.007
		C36.902,20.684,36.902,21.316,37.293,21.707z M41.707,17.293C41.896,17.482,42,17.733,42,18s-0.104,0.518-0.293,0.707
		c-0.391,0.39-1.023,0.39-1.414,0v0C40.104,18.518,40,18.267,40,18s0.104-0.518,0.293-0.707C40.488,17.098,40.744,17,41,17
		S41.512,17.098,41.707,17.293z"/>
	<path d="M54.75,14H52v-0.75C52,10.355,49.645,8,46.75,8h-12.5c-1.752,0-3.296,0.87-4.25,2.193C29.046,8.87,27.502,8,25.75,8h-12.5
		C10.355,8,8,10.355,8,13.25V14H5.25C2.355,14,0,16.355,0,19.25v7.58v4.917c0,0.65,0.28,1.231,0.722,1.643
		C0.275,33.977,0,34.7,0,35.492v4.016c0,1.39,0.822,2.583,2,3.144V47h2v4c0,0.552,0.447,1,1,1h3c0.409,0,0.776-0.249,0.929-0.628
		L10.677,47h38.645l1.749,4.372C51.224,51.751,51.591,52,52,52h3c0.553,0,1-0.448,1-1v-4h2v-4.348c1.178-0.562,2-1.755,2-3.144
		v-4.016c0-0.792-0.275-1.515-0.722-2.102C59.72,32.979,60,32.397,60,31.748V26.83v-7.58C60,16.355,57.645,14,54.75,14z M54.75,16
		c1.792,0,3.25,1.458,3.25,3.25v4.874c-0.057-0.017-0.117-0.026-0.175-0.04c-0.047-0.011-0.094-0.023-0.142-0.032
		C57.516,24.021,57.346,24,57.17,24h-2.835c-0.36,0-0.712,0.031-1.06,0.075c-0.094,0.012-0.188,0.028-0.282,0.043
		c-0.298,0.049-0.591,0.112-0.878,0.191c-0.038,0.011-0.077,0.014-0.115,0.025V16H54.75z M34.25,10h12.5
		c1.792,0,3.25,1.458,3.25,3.25V14v11.222c-0.032,0.02-0.06,0.044-0.092,0.064c-0.212,0.134-0.417,0.277-0.616,0.429
		c-0.065,0.049-0.132,0.095-0.196,0.146c-0.231,0.187-0.453,0.384-0.662,0.594c-0.092,0.092-0.175,0.192-0.262,0.289
		c-0.114,0.125-0.227,0.251-0.334,0.383c-0.098,0.122-0.19,0.249-0.281,0.376c-0.085,0.12-0.167,0.241-0.247,0.365
		c-0.084,0.132-0.167,0.265-0.244,0.401c-0.08,0.143-0.152,0.291-0.224,0.439c-0.06,0.123-0.125,0.243-0.178,0.369
		c-0.114,0.267-0.213,0.542-0.299,0.823c-0.03,0.099-0.051,0.201-0.078,0.302c-0.055,0.206-0.104,0.413-0.143,0.625
		c-0.021,0.113-0.036,0.226-0.052,0.341c-0.029,0.209-0.051,0.42-0.065,0.634c-0.004,0.067-0.018,0.131-0.02,0.198H31V13.25
		C31,11.458,32.458,10,34.25,10z M10,13.25c0-1.792,1.458-3.25,3.25-3.25h12.5c1.792,0,3.25,1.458,3.25,3.25V32H13.993
		c-0.003-0.067-0.016-0.131-0.02-0.198c-0.014-0.214-0.035-0.425-0.065-0.634c-0.016-0.114-0.031-0.227-0.052-0.339
		c-0.039-0.212-0.089-0.42-0.144-0.627c-0.026-0.1-0.047-0.202-0.078-0.301c-0.086-0.281-0.185-0.555-0.299-0.823
		c-0.054-0.126-0.118-0.246-0.178-0.369c-0.072-0.148-0.144-0.296-0.224-0.439c-0.077-0.137-0.16-0.269-0.244-0.401
		c-0.079-0.124-0.161-0.246-0.247-0.365c-0.091-0.128-0.183-0.254-0.281-0.376c-0.106-0.132-0.22-0.258-0.334-0.383
		c-0.088-0.096-0.17-0.196-0.262-0.289c-0.209-0.21-0.432-0.407-0.662-0.594c-0.063-0.051-0.13-0.097-0.195-0.146
		c-0.199-0.152-0.404-0.295-0.617-0.429c-0.032-0.02-0.059-0.044-0.091-0.064V14V13.25z M2,19.25C2,17.458,3.458,16,5.25,16H8v8.334
		c-0.038-0.011-0.077-0.014-0.115-0.025c-0.287-0.08-0.58-0.143-0.878-0.191c-0.094-0.015-0.187-0.031-0.282-0.043
		C6.377,24.031,6.025,24,5.665,24H2.83c-0.176,0-0.346,0.021-0.513,0.052c-0.048,0.009-0.094,0.021-0.142,0.032
		C2.117,24.098,2.057,24.107,2,24.124V19.25z M2.83,26h2.835c0.234,0,0.465,0.016,0.695,0.041c0.068,0.007,0.134,0.02,0.202,0.03
		c0.166,0.024,0.33,0.052,0.493,0.089c0.066,0.015,0.131,0.032,0.196,0.049c0.178,0.047,0.354,0.099,0.528,0.162
		c0.039,0.014,0.079,0.027,0.117,0.042c0.219,0.083,0.436,0.177,0.648,0.286c0.251,0.129,0.489,0.274,0.717,0.431
		c0.034,0.023,0.067,0.048,0.1,0.072c0.195,0.14,0.381,0.291,0.557,0.45c0.028,0.025,0.058,0.048,0.085,0.074
		c0.179,0.168,0.344,0.347,0.501,0.533c0.055,0.066,0.108,0.134,0.161,0.202c0.108,0.138,0.208,0.281,0.304,0.427
		c0.045,0.069,0.093,0.136,0.135,0.207c0.121,0.202,0.229,0.41,0.327,0.625c0.033,0.073,0.061,0.148,0.091,0.221
		c0.07,0.171,0.133,0.346,0.188,0.524c0.022,0.072,0.046,0.144,0.066,0.217c0.065,0.243,0.12,0.489,0.156,0.741
		c0.006,0.044,0.008,0.089,0.014,0.134c0.018,0.146,0.023,0.296,0.031,0.444H3.492h-1.24C2.113,32,2,31.887,2,31.748V26.83
		C2,26.373,2.372,26,2.83,26z M7.323,50H6v-3h2.523L7.323,50z M54,50h-1.323l-1.2-3H54V50z M56,45h-1h-5H10H5H4v-2h52V45z
		 M58,39.508C58,40.331,57.331,41,56.508,41H3.492C2.669,41,2,40.331,2,39.508v-4.016C2,34.669,2.669,34,3.492,34h8.843H29h2h16.665
		h8.843C57.331,34,58,34.669,58,35.492V39.508z M58,31.748C58,31.887,57.887,32,57.748,32h-1.24h-8.485
		c0.008-0.149,0.013-0.298,0.031-0.444c0.005-0.044,0.007-0.09,0.014-0.134c0.036-0.251,0.091-0.498,0.156-0.741
		c0.02-0.073,0.044-0.145,0.066-0.217c0.055-0.178,0.118-0.352,0.188-0.524c0.03-0.074,0.058-0.149,0.091-0.221
		c0.097-0.214,0.206-0.423,0.327-0.625c0.042-0.071,0.09-0.138,0.135-0.207c0.095-0.146,0.196-0.289,0.304-0.427
		c0.053-0.068,0.105-0.136,0.161-0.202c0.157-0.186,0.322-0.365,0.501-0.533c0.027-0.026,0.058-0.049,0.085-0.074
		c0.176-0.159,0.362-0.31,0.557-0.45c0.033-0.024,0.066-0.049,0.1-0.072c0.228-0.157,0.466-0.303,0.717-0.431
		c0.212-0.109,0.429-0.203,0.648-0.286c0.039-0.015,0.078-0.028,0.117-0.042c0.174-0.062,0.35-0.115,0.528-0.162
		c0.065-0.017,0.13-0.034,0.196-0.049c0.163-0.037,0.327-0.065,0.493-0.089c0.067-0.01,0.134-0.022,0.202-0.03
		C53.87,26.016,54.101,26,54.335,26h2.835c0.458,0,0.83,0.373,0.83,0.83V31.748z"/>
</g>
<g>
</g>
<g>
</g>
<g>
</g>
<g>
</g>
<g>
</g>
<g>
</g>
<g>
</g>
<g>
</g>
<g>
</g>
<g>
</g>
<g>
</g>
<g>
</g>
<g>
</g>
<g>
</g>
<g>
</g>
</svg>
