<?xml version="1.0" encoding="iso-8859-1"?>
<!-- Generator: Adobe Illustrator 18.0.0, SVG Export Plug-In . SVG Version: 6.00 Build 0)  -->
<!DOCTYPE svg PUBLIC "-//W3C//DTD SVG 1.1//EN" "http://www.w3.org/Graphics/SVG/1.1/DTD/svg11.dtd">
<svg version="1.1" id="Capa_1" xmlns="http://www.w3.org/2000/svg" xmlns:xlink="http://www.w3.org/1999/xlink" x="0px" y="0px"
	 viewBox="0 0 60 60" style="enable-background:new 0 0 60 60;" xml:space="preserve">
<g>
	<path d="M55,21.09v-5.018C55,13.827,53.173,12,50.928,12H34.829c-1.773,0-3.457,0.585-4.829,1.665
		C28.628,12.585,26.944,12,25.171,12H9.072C6.827,12,5,13.827,5,16.072v5.018C2.167,21.569,0,24.033,0,27
		c0,2.968,2.166,5.439,5,5.917V48h7v-2h36v2h7V32.917c2.834-0.478,5-2.949,5-5.917C60,24.033,57.833,21.569,55,21.09z M7,16.072
		C7,14.93,7.93,14,9.072,14h16.099c1.557,0,3.021,0.606,4.122,1.707L30,16.414l0.707-0.707C31.808,14.606,33.271,14,34.829,14
		h16.099C52.07,14,53,14.93,53,16.072v5.011c-0.022,0.004-0.041,0.013-0.063,0.016c-0.307,0.055-0.606,0.134-0.895,0.235
		c-0.05,0.017-0.098,0.036-0.147,0.054c-0.288,0.109-0.567,0.236-0.833,0.386c-0.035,0.02-0.069,0.042-0.104,0.063
		c-0.274,0.162-0.538,0.341-0.782,0.543c-0.004,0.004-0.008,0.008-0.013,0.011c-0.244,0.203-0.468,0.429-0.677,0.668
		c-0.022,0.025-0.046,0.049-0.068,0.075c-0.197,0.233-0.373,0.484-0.533,0.745c-0.026,0.043-0.053,0.086-0.079,0.13
		c-0.151,0.261-0.282,0.533-0.392,0.817c-0.019,0.049-0.036,0.098-0.054,0.147c-0.105,0.291-0.191,0.59-0.25,0.9
		c-0.008,0.039-0.011,0.08-0.018,0.119C48.036,26.321,48,26.656,48,27v3H33.281c-1.093,0-2.121,0.426-2.895,1.199L30,31.586
		l-0.387-0.387C28.84,30.426,27.812,30,26.719,30H12v-3c0-0.344-0.036-0.679-0.091-1.007c-0.007-0.04-0.011-0.08-0.018-0.12
		c-0.059-0.309-0.145-0.609-0.25-0.899c-0.018-0.05-0.035-0.099-0.055-0.149c-0.111-0.283-0.242-0.556-0.392-0.817
		c-0.025-0.044-0.052-0.086-0.079-0.13c-0.16-0.262-0.336-0.512-0.533-0.745c-0.022-0.026-0.046-0.049-0.068-0.075
		c-0.209-0.239-0.433-0.464-0.677-0.668c-0.004-0.004-0.008-0.008-0.013-0.011C9.58,22.178,9.316,22,9.042,21.837
		c-0.035-0.021-0.069-0.043-0.104-0.063c-0.265-0.15-0.544-0.277-0.833-0.385c-0.049-0.018-0.098-0.037-0.147-0.054
		c-0.289-0.1-0.588-0.179-0.895-0.235C7.041,21.096,7.022,21.087,7,21.083V16.072z M48,35H12v-3h14.719
		c0.559,0,1.085,0.218,1.48,0.613L30,34.414l1.801-1.801C32.196,32.218,32.722,32,33.281,32H48V35z M7,46V32v-1v-4
		c0-0.552-0.448-1-1-1s-1,0.448-1,1v3.858c-1.72-0.447-3-2-3-3.858c0-2.206,1.794-4,4-4s4,1.794,4,4v3v5v2v9H7z M31,44v-3
		c0-0.552-0.448-1-1-1s-1,0.448-1,1v3H12v-7h36v7H31z M55,30.858V27c0-0.552-0.448-1-1-1s-1,0.448-1,1v4v1v14h-3v-9v-2v-5v-3
		c0-2.206,1.794-4,4-4s4,1.794,4,4C58,28.858,56.72,30.411,55,30.858z"/>
	<path d="M37.293,25.707C37.488,25.902,37.744,26,38,26s0.512-0.098,0.707-0.293l0.92-0.92C40.06,25,40.527,25.12,41,25.12
		s0.94-0.12,1.373-0.332l0.92,0.92C43.488,25.902,43.744,26,44,26s0.512-0.098,0.707-0.293c0.391-0.391,0.391-1.023,0-1.414
		l-0.919-0.919c0.426-0.866,0.426-1.881,0-2.747l0.919-0.919c0.391-0.391,0.391-1.023,0-1.414s-1.023-0.391-1.414,0l-0.92,0.92
		c-0.866-0.425-1.88-0.425-2.747,0l-0.92-0.92c-0.391-0.391-1.023-0.391-1.414,0s-0.391,1.023,0,1.414l0.92,0.92
		c-0.426,0.866-0.426,1.88,0,2.747l-0.92,0.92C36.902,24.684,36.902,25.316,37.293,25.707z M41.793,21.207
		c0.437,0.438,0.437,1.148,0,1.586c-0.438,0.438-1.148,0.438-1.586,0c-0.437-0.438-0.437-1.148,0-1.586
		c0.219-0.219,0.506-0.328,0.793-0.328S41.574,20.988,41.793,21.207z"/>
	<path d="M15.293,25.707C15.488,25.902,15.744,26,16,26s0.512-0.098,0.707-0.293l0.92-0.92C18.06,25,18.527,25.12,19,25.12
		s0.94-0.12,1.373-0.332l0.92,0.92C21.488,25.902,21.744,26,22,26s0.512-0.098,0.707-0.293c0.391-0.391,0.391-1.023,0-1.414
		l-0.919-0.919c0.426-0.866,0.426-1.881,0-2.747l0.919-0.919c0.391-0.391,0.391-1.023,0-1.414s-1.023-0.391-1.414,0l-0.92,0.92
		c-0.866-0.425-1.88-0.425-2.747,0l-0.92-0.92c-0.391-0.391-1.023-0.391-1.414,0s-0.391,1.023,0,1.414l0.92,0.92
		c-0.426,0.866-0.426,1.88,0,2.747l-0.92,0.92C14.902,24.684,14.902,25.316,15.293,25.707z M19.793,21.207
		c0.437,0.438,0.437,1.148,0,1.586c-0.438,0.438-1.148,0.438-1.586,0c-0.437-0.438-0.437-1.148,0-1.586
		c0.219-0.219,0.506-0.328,0.793-0.328S19.574,20.988,19.793,21.207z"/>
	<path d="M30,25c0.552,0,1-0.448,1-1v-1c0-0.552-0.448-1-1-1s-1,0.448-1,1v1C29,24.552,29.448,25,30,25z"/>
	<path d="M30,29c0.552,0,1-0.448,1-1v-1c0-0.552-0.448-1-1-1s-1,0.448-1,1v1C29,28.552,29.448,29,30,29z"/>
	<path d="M30,21c0.552,0,1-0.448,1-1v-1c0-0.552-0.448-1-1-1s-1,0.448-1,1v1C29,20.552,29.448,21,30,21z"/>
</g>
<g>
</g>
<g>
</g>
<g>
</g>
<g>
</g>
<g>
</g>
<g>
</g>
<g>
</g>
<g>
</g>
<g>
</g>
<g>
</g>
<g>
</g>
<g>
</g>
<g>
</g>
<g>
</g>
<g>
</g>
</svg>
