<?xml version="1.0" encoding="iso-8859-1"?>
<!-- Generator: Adobe Illustrator 18.0.0, SVG Export Plug-In . SVG Version: 6.00 Build 0)  -->
<!DOCTYPE svg PUBLIC "-//W3C//DTD SVG 1.1//EN" "http://www.w3.org/Graphics/SVG/1.1/DTD/svg11.dtd">
<svg version="1.1" id="Capa_1" xmlns="http://www.w3.org/2000/svg" xmlns:xlink="http://www.w3.org/1999/xlink" x="0px" y="0px"
	 viewBox="0 0 60 60" style="enable-background:new 0 0 60 60;" xml:space="preserve">
<path d="M60,21h-2V10H40h-2H22h-2H2v11H0v23h2v3h2v1c-0.552,0-1,0.448-1,1s0.448,1,1,1h2c0.552,0,1-0.448,1-1s-0.448-1-1-1v-1h2v-3
	h44v3h2v1c-0.552,0-1,0.448-1,1s0.448,1,1,1h2c0.552,0,1-0.448,1-1s-0.448-1-1-1v-1h2v-3h2V21z M40,12h16v9h-4v7H40V12z M8,30h12h2
	h7v6H8V30z M31,30h7h2h12v6H31V30z M22,12h16v16h-7h-2h-7V12z M4,12h16v16H8v-7H4V12z M6,45H4v-1h2V45z M56,45h-2v-1h2V45z M58,42
	h-6H8H2V23h4v5v2v8h23h2h23v-8v-2v-5h4V42z"/>
<g>
</g>
<g>
</g>
<g>
</g>
<g>
</g>
<g>
</g>
<g>
</g>
<g>
</g>
<g>
</g>
<g>
</g>
<g>
</g>
<g>
</g>
<g>
</g>
<g>
</g>
<g>
</g>
<g>
</g>
</svg>
