<?xml version="1.0" encoding="iso-8859-1"?>
<!-- Generator: Adobe Illustrator 18.0.0, SVG Export Plug-In . SVG Version: 6.00 Build 0)  -->
<!DOCTYPE svg PUBLIC "-//W3C//DTD SVG 1.1//EN" "http://www.w3.org/Graphics/SVG/1.1/DTD/svg11.dtd">
<svg version="1.1" id="Capa_1" xmlns="http://www.w3.org/2000/svg" xmlns:xlink="http://www.w3.org/1999/xlink" x="0px" y="0px"
	 viewBox="0 0 59.998 59.998" style="enable-background:new 0 0 59.998 59.998;" xml:space="preserve">
<path d="M59.843,27.236c-0.207-0.838-0.654-1.583-1.255-2.186l0.657-3.946c0.504-3.027-1.331-5.975-4.271-6.856
	c-1.707-0.512-3.548-0.255-5.047,0.705c-0.174,0.112-0.341,0.233-0.501,0.36c-0.356-1.819-1.573-3.416-3.329-4.197
	c-1.656-0.737-3.52-0.663-5.112,0.201c-0.441,0.239-0.837,0.533-1.193,0.864c-0.234-0.597-0.565-1.158-0.991-1.657
	c-1.101-1.287-2.704-2.025-4.398-2.025h-8.807c-1.694,0-3.298,0.738-4.398,2.025c-0.427,0.499-0.758,1.06-0.991,1.657
	c-0.356-0.331-0.753-0.625-1.193-0.864c-1.593-0.864-3.456-0.938-5.112-0.201c-1.698,0.755-2.883,2.277-3.281,4.023
	c-0.147-0.116-0.299-0.227-0.458-0.329C8.74,13.9,6.995,13.656,5.379,14.141c-3.143,0.943-5.104,4.094-4.565,7.33l0.602,3.609
	c-0.713,0.727-1.215,1.648-1.365,2.693c-0.322,2.261,0.916,4.41,2.948,5.296v9.516c0,1.842,1.283,3.381,3,3.796v4.119
	c0,0.552,0.447,1,1,1h3c0.409,0,0.776-0.249,0.929-0.628l1.749-4.372h34.645l1.749,4.372c0.152,0.379,0.52,0.628,0.929,0.628h3
	c0.553,0,1-0.448,1-1V46.38c1.717-0.415,3-1.954,3-3.796v-9.514C59.224,32.11,60.451,29.691,59.843,27.236z M51.005,16.637
	c1.011-0.646,2.249-0.819,3.396-0.474c1.977,0.593,3.211,2.576,2.872,4.611l-0.514,3.085c-0.034-0.013-0.07-0.021-0.105-0.033
	c-0.098-0.035-0.197-0.064-0.297-0.094c-0.155-0.046-0.311-0.085-0.469-0.117c-0.095-0.019-0.189-0.039-0.286-0.053
	c-0.235-0.034-0.471-0.056-0.709-0.058c-0.019,0-0.037-0.005-0.056-0.005c-3.219,0-5.838,2.619-5.838,5.838v0.665v4.063
	c-0.009-0.003-0.018-0.005-0.027-0.008c-0.596-0.203-1.198-0.38-1.803-0.542c-0.005-0.001-0.009-0.003-0.014-0.004l1.458-10.223
	l0.538-3.768C49.32,18.333,49.996,17.283,51.005,16.637z M11.532,38.499c-0.294,0-0.533-0.239-0.533-0.533v-1.761
	c0.193-0.071,0.387-0.14,0.583-0.207c0.363-0.125,0.727-0.242,1.093-0.351c0.377-0.11,0.756-0.214,1.14-0.308
	c0.25-0.062,0.501-0.116,0.753-0.17c0.555-0.119,1.111-0.222,1.668-0.305c0.221-0.033,0.443-0.062,0.665-0.089
	c0.562-0.068,1.126-0.117,1.69-0.148c0.224-0.012,0.448-0.023,0.672-0.03c0.564-0.016,1.129-0.011,1.693,0.01
	c0.224,0.008,0.449,0.016,0.673,0.03c0.556,0.035,1.111,0.094,1.667,0.165c0.277,0.036,0.554,0.066,0.83,0.111
	c0.247,0.04,0.495,0.081,0.741,0.128c0.62,0.119,1.237,0.252,1.85,0.417c0.111,0.03,0.219,0.067,0.329,0.098
	c0.564,0.16,1.123,0.34,1.679,0.539c0.092,0.033,0.184,0.067,0.275,0.101v2.302H11.532z M30.999,36.197
	c0.092-0.034,0.183-0.068,0.275-0.101c0.556-0.199,1.115-0.379,1.679-0.539c0.11-0.031,0.218-0.069,0.329-0.098
	c0.613-0.165,1.231-0.298,1.85-0.417c0.246-0.047,0.493-0.089,0.741-0.128c0.276-0.045,0.553-0.075,0.83-0.111
	c0.555-0.071,1.11-0.13,1.666-0.165c0.225-0.014,0.449-0.022,0.674-0.03c0.565-0.021,1.129-0.026,1.693-0.01
	c0.224,0.006,0.447,0.018,0.67,0.03c0.565,0.031,1.129,0.08,1.692,0.149c0.221,0.027,0.441,0.056,0.662,0.089
	c0.558,0.083,1.115,0.185,1.671,0.305c0.251,0.054,0.502,0.108,0.752,0.17c0.384,0.094,0.763,0.198,1.14,0.308
	c0.366,0.108,0.73,0.226,1.093,0.351c0.196,0.067,0.39,0.136,0.583,0.207v1.761c0,0.294-0.239,0.533-0.533,0.533H30.999V36.197z
	 M41.939,13.075c1.044-0.565,2.263-0.612,3.346-0.132c1.541,0.685,2.451,2.33,2.213,3.999l-0.745,5.226L45.2,33.058
	c-2.581-0.493-5.208-0.616-7.812-0.37l2.666-17.061C40.284,14.537,40.953,13.61,41.939,13.075z M22.717,11.825
	c0.721-0.843,1.77-1.326,2.879-1.326h8.807c1.109,0,2.158,0.483,2.879,1.326c0.722,0.842,1.037,1.954,0.865,3.05l-0.042,0.272
	c-0.026,0.115-0.057,0.228-0.076,0.346l-2.796,17.492c-0.375,0.065-0.748,0.139-1.121,0.22c-0.086,0.019-0.172,0.037-0.257,0.056
	c-0.331,0.075-0.66,0.157-0.989,0.245c-0.132,0.035-0.263,0.069-0.394,0.106c-0.279,0.078-0.556,0.163-0.833,0.25
	c-0.173,0.054-0.345,0.108-0.517,0.165c-0.238,0.08-0.474,0.166-0.711,0.253c-0.137,0.05-0.276,0.094-0.412,0.146
	c-0.136-0.052-0.275-0.096-0.412-0.146c-0.236-0.087-0.473-0.173-0.711-0.253c-0.171-0.057-0.344-0.111-0.516-0.165
	c-0.277-0.087-0.555-0.172-0.834-0.251c-0.131-0.037-0.262-0.071-0.394-0.105c-0.329-0.087-0.659-0.17-0.989-0.245
	c-0.086-0.019-0.172-0.037-0.257-0.056c-0.373-0.081-0.746-0.155-1.121-0.22L21.97,15.492c-0.019-0.118-0.05-0.231-0.076-0.347
	l-0.042-0.271C21.68,13.779,21.995,12.667,22.717,11.825z M14.713,12.942c0.495-0.22,1.019-0.33,1.541-0.33
	c0.62,0,1.239,0.155,1.805,0.462c0.986,0.535,1.655,1.461,1.885,2.551l2.666,17.062c-2.604-0.247-5.231-0.123-7.812,0.37
	L12.775,18.87c0-0.003-0.001-0.006-0.002-0.009L12.5,16.941C12.262,15.272,13.172,13.627,14.713,12.942z M3.24,23.863l-0.454-2.722
	c-0.374-2.245,0.987-4.431,3.167-5.084c1.059-0.317,2.2-0.158,3.131,0.437c0.931,0.594,1.553,1.562,1.71,2.654l2.048,14.363
	c-0.005,0.001-0.009,0.003-0.014,0.004c-0.604,0.161-1.206,0.339-1.802,0.542c-0.009,0.003-0.018,0.005-0.027,0.008v-4.19v-0.538
	c0-2.854-2.06-5.232-4.77-5.735c-0.35-0.072-0.698-0.108-1.041-0.108c-0.154,0-0.301,0.03-0.452,0.044
	c-0.181,0.015-0.364,0.02-0.54,0.052c-0.05,0.01-0.096,0.028-0.145,0.039c-0.274,0.059-0.541,0.132-0.798,0.231
	C3.249,23.861,3.244,23.862,3.24,23.863z M9.322,49.499H7.999v-3h2.523L9.322,49.499z M51.999,49.499h-1.323l-1.2-3h2.523V49.499z
	 M55.748,31.389c-0.089,0.023-0.169,0.065-0.246,0.11h-1.503c-0.553,0-1,0.448-1,1c0,0.552,0.447,1,1,1h1v9.084
	c0,1.056-0.859,1.916-1.916,1.916h-0.084h-5h-36h-5H6.915c-1.057,0-1.916-0.859-1.916-1.916v-9.084h1c0.553,0,1-0.448,1-1
	c0-0.552-0.447-1-1-1H4.496c-0.077-0.045-0.156-0.087-0.246-0.11c-1.481-0.383-2.436-1.817-2.219-3.335
	c0.103-0.724,0.488-1.359,1.043-1.815c0.012-0.009,0.026-0.013,0.037-0.023c1.104-0.88,3.008-1.137,4.571,0.377
	c0.837,0.809,1.316,2.005,1.316,3.282v5.624v2.467v1.533c0,0.552,0.447,1,1,1h1.533h18.467h18.467h1.533c0.553,0,1-0.448,1-1v-1.533
	v-2.467v-5.497c0-1.096,0.33-2.133,0.93-2.921c0.654-0.86,1.479-1.38,2.385-1.529c0.105-0.015,0.211-0.026,0.318-0.032
	c0.117-0.007,0.233-0.015,0.35-0.009c0.07,0.003,0.14,0.009,0.209,0.017c0.15,0.016,0.298,0.041,0.444,0.077
	c0.044,0.011,0.089,0.019,0.132,0.032c0.406,0.118,0.791,0.31,1.128,0.574c0,0,0.001,0,0.001,0c0.491,0.388,0.857,0.906,1.006,1.507
	c0,0,0,0,0,0C58.355,29.549,57.164,31.023,55.748,31.389z"/>
<g>
</g>
<g>
</g>
<g>
</g>
<g>
</g>
<g>
</g>
<g>
</g>
<g>
</g>
<g>
</g>
<g>
</g>
<g>
</g>
<g>
</g>
<g>
</g>
<g>
</g>
<g>
</g>
<g>
</g>
</svg>
