<?xml version="1.0" encoding="iso-8859-1"?>
<!-- Generator: Adobe Illustrator 18.0.0, SVG Export Plug-In . SVG Version: 6.00 Build 0)  -->
<!DOCTYPE svg PUBLIC "-//W3C//DTD SVG 1.1//EN" "http://www.w3.org/Graphics/SVG/1.1/DTD/svg11.dtd">
<svg version="1.1" id="Capa_1" xmlns="http://www.w3.org/2000/svg" xmlns:xlink="http://www.w3.org/1999/xlink" x="0px" y="0px"
	 viewBox="0 0 60 60" style="enable-background:new 0 0 60 60;" xml:space="preserve">
<g>
	<path d="M60,28c0-3.033-2.467-5.5-5.5-5.5c-0.521,0-1.022,0.077-1.5,0.213v-2.506c0-5.353-4.354-9.707-9.707-9.707H16.707
		C11.354,10.5,7,14.854,7,20.207v2.506C6.522,22.577,6.021,22.5,5.5,22.5C2.467,22.5,0,24.967,0,28c0,1.804,0.903,3.47,2.355,4.487
		C2.129,33.118,2,33.793,2,34.5c0,1.61,0.641,3.072,1.677,4.15C2.704,38.993,2,39.911,2,41c0,1.378,1.122,2.5,2.5,2.5H6v3h2v1
		c-0.552,0-1,0.448-1,1s0.448,1,1,1h2c0.552,0,1-0.448,1-1s-0.448-1-1-1v-1h2v-3h36v3h2v1c-0.552,0-1,0.448-1,1s0.448,1,1,1h2
		c0.552,0,1-0.448,1-1s-0.448-1-1-1v-1h2v-3h1.5c1.378,0,2.5-1.122,2.5-2.5c0-1.089-0.704-2.007-1.677-2.35
		C57.359,37.572,58,36.11,58,34.5c0-0.707-0.129-1.382-0.355-2.013C59.097,31.47,60,29.804,60,28z M9,23.759v-3.552
		c0-4.25,3.458-7.707,7.707-7.707h26.586c4.25,0,7.707,3.458,7.707,7.707v3.552c-0.037,0.031-0.07,0.066-0.106,0.098
		c-0.103,0.09-0.206,0.181-0.302,0.278c-0.064,0.065-0.122,0.133-0.183,0.201c-0.065,0.073-0.131,0.145-0.193,0.221
		c-0.059,0.073-0.114,0.15-0.169,0.226c-0.056,0.078-0.112,0.156-0.164,0.237c-0.049,0.077-0.096,0.154-0.142,0.233
		c-0.051,0.088-0.099,0.177-0.145,0.268c-0.039,0.076-0.076,0.153-0.112,0.231c-0.045,0.1-0.085,0.202-0.125,0.305
		c-0.028,0.074-0.057,0.147-0.081,0.222c-0.038,0.115-0.069,0.232-0.099,0.349c-0.018,0.068-0.038,0.135-0.053,0.204
		c-0.029,0.132-0.049,0.268-0.068,0.403c-0.008,0.058-0.02,0.114-0.026,0.172C49.012,27.604,49,27.8,49,28
		c0,0.167,0.008,0.333,0.025,0.5h-38.05C10.992,28.333,11,28.167,11,28c0-0.2-0.012-0.396-0.033-0.59
		c-0.006-0.058-0.018-0.115-0.026-0.172c-0.019-0.136-0.039-0.271-0.068-0.403c-0.015-0.069-0.035-0.136-0.053-0.204
		c-0.03-0.118-0.062-0.235-0.099-0.349c-0.025-0.075-0.054-0.148-0.081-0.222c-0.039-0.103-0.08-0.205-0.125-0.305
		c-0.035-0.078-0.073-0.155-0.112-0.231c-0.046-0.091-0.094-0.18-0.145-0.268c-0.046-0.079-0.092-0.157-0.142-0.233
		c-0.052-0.081-0.108-0.159-0.164-0.237c-0.055-0.076-0.11-0.153-0.169-0.226c-0.061-0.076-0.127-0.148-0.193-0.221
		c-0.06-0.067-0.119-0.136-0.183-0.201c-0.096-0.097-0.199-0.188-0.302-0.278C9.07,23.825,9.037,23.79,9,23.759z M51.692,30.5H52
		c0.236,0,0.463,0.03,0.688,0.07c0.081,0.015,0.162,0.031,0.241,0.05c0.134,0.032,0.264,0.077,0.392,0.122
		c0.218,0.079,0.429,0.172,0.63,0.288c0.022,0.013,0.046,0.024,0.068,0.037c0.596,0.359,1.104,0.875,1.459,1.512l0.212,0.38
		C55.889,33.433,56,33.954,56,34.5c0,2.206-1.794,4-4,4H8c-2.206,0-4-1.794-4-4c0-0.546,0.111-1.067,0.31-1.541l0.212-0.38
		c0.355-0.637,0.863-1.153,1.459-1.512c0.022-0.013,0.045-0.024,0.068-0.037c0.201-0.116,0.413-0.209,0.63-0.288
		c0.129-0.045,0.258-0.09,0.392-0.122c0.08-0.02,0.16-0.036,0.241-0.05C7.537,30.53,7.764,30.5,8,30.5h0.308h2.123h39.139H51.692z
		 M2,28c0-1.93,1.57-3.5,3.5-3.5c0.721,0,1.391,0.22,1.949,0.595c0.219,0.148,0.413,0.322,0.59,0.51
		c0.057,0.06,0.105,0.127,0.157,0.191c0.114,0.139,0.218,0.285,0.309,0.439c0.046,0.078,0.089,0.156,0.129,0.238
		c0.08,0.164,0.144,0.336,0.198,0.511c0.023,0.076,0.052,0.149,0.07,0.226C8.962,27.466,9,27.73,9,28c0,0.164-0.02,0.331-0.048,0.5
		H8c-0.223,0-0.442,0.014-0.659,0.038c-0.029,0.003-0.057,0.009-0.085,0.013c-0.197,0.025-0.391,0.058-0.582,0.101
		c-0.008,0.002-0.016,0.004-0.024,0.006c-1.327,0.307-2.487,1.051-3.317,2.077C2.506,30.081,2,29.077,2,28z M10,44.5H8v-1h2V44.5z
		 M52,44.5h-2v-1h2V44.5z M55.5,41.5H54h-6H12H6H4.5C4.224,41.5,4,41.276,4,41s0.224-0.5,0.5-0.5H8h44h3.5
		c0.276,0,0.5,0.224,0.5,0.5S55.776,41.5,55.5,41.5z M56.666,30.736c-0.829-1.026-1.989-1.77-3.317-2.077
		c-0.008-0.002-0.016-0.004-0.024-0.006c-0.191-0.043-0.385-0.077-0.582-0.101c-0.029-0.004-0.057-0.01-0.085-0.013
		C52.442,28.514,52.223,28.5,52,28.5h-0.952C51.02,28.331,51,28.164,51,28c0-0.27,0.038-0.534,0.098-0.791
		c0.018-0.077,0.047-0.15,0.07-0.225c0.054-0.176,0.118-0.347,0.198-0.512c0.04-0.081,0.083-0.16,0.129-0.237
		c0.091-0.154,0.195-0.3,0.309-0.439c0.052-0.064,0.1-0.13,0.157-0.19c0.177-0.188,0.371-0.362,0.59-0.51
		C53.109,24.72,53.779,24.5,54.5,24.5c1.93,0,3.5,1.57,3.5,3.5C58,29.077,57.494,30.081,56.666,30.736z"/>
	<path d="M14.293,22.207C14.488,22.402,14.744,22.5,15,22.5s0.512-0.098,0.707-0.293l1.793-1.793l1.793,1.793
		C19.488,22.402,19.744,22.5,20,22.5s0.512-0.098,0.707-0.293c0.391-0.391,0.391-1.023,0-1.414L19.414,19.5l1.293-1.293
		c0.391-0.391,0.391-1.023,0-1.414s-1.023-0.391-1.414,0L17.5,18.586l-1.793-1.793c-0.391-0.391-1.023-0.391-1.414,0
		s-0.391,1.023,0,1.414l1.293,1.293l-1.293,1.293C13.902,21.184,13.902,21.816,14.293,22.207z"/>
	<path d="M27.293,25.207C27.488,25.402,27.744,25.5,28,25.5s0.512-0.098,0.707-0.293l1.793-1.793l1.793,1.793
		C32.488,25.402,32.744,25.5,33,25.5s0.512-0.098,0.707-0.293c0.391-0.391,0.391-1.023,0-1.414L32.414,22.5l1.293-1.293
		c0.391-0.391,0.391-1.023,0-1.414s-1.023-0.391-1.414,0L30.5,21.586l-1.793-1.793c-0.391-0.391-1.023-0.391-1.414,0
		s-0.391,1.023,0,1.414l1.293,1.293l-1.293,1.293C26.902,24.184,26.902,24.816,27.293,25.207z"/>
	<path d="M40.293,22.207C40.488,22.402,40.744,22.5,41,22.5s0.512-0.098,0.707-0.293l1.793-1.793l1.793,1.793
		C45.488,22.402,45.744,22.5,46,22.5s0.512-0.098,0.707-0.293c0.391-0.391,0.391-1.023,0-1.414L45.414,19.5l1.293-1.293
		c0.391-0.391,0.391-1.023,0-1.414s-1.023-0.391-1.414,0L43.5,18.586l-1.793-1.793c-0.391-0.391-1.023-0.391-1.414,0
		s-0.391,1.023,0,1.414l1.293,1.293l-1.293,1.293C39.902,21.184,39.902,21.816,40.293,22.207z"/>
</g>
<g>
</g>
<g>
</g>
<g>
</g>
<g>
</g>
<g>
</g>
<g>
</g>
<g>
</g>
<g>
</g>
<g>
</g>
<g>
</g>
<g>
</g>
<g>
</g>
<g>
</g>
<g>
</g>
<g>
</g>
</svg>
