<?xml version="1.0" encoding="iso-8859-1"?>
<!-- Generator: Adobe Illustrator 18.0.0, SVG Export Plug-In . SVG Version: 6.00 Build 0)  -->
<!DOCTYPE svg PUBLIC "-//W3C//DTD SVG 1.1//EN" "http://www.w3.org/Graphics/SVG/1.1/DTD/svg11.dtd">
<svg version="1.1" id="Capa_1" xmlns="http://www.w3.org/2000/svg" xmlns:xlink="http://www.w3.org/1999/xlink" x="0px" y="0px"
	 viewBox="0 0 60.032 60.032" style="enable-background:new 0 0 60.032 60.032;" xml:space="preserve">
<g>
	<path d="M57.949,27.193c-0.396-0.626-0.957-1.01-1.571-1.125l-4.363-2.618v-4.614c0-3.209-2.61-5.819-5.819-5.819H13.835
		c-3.209,0-5.819,2.61-5.819,5.819v4.614l-4.363,2.618c-0.613,0.115-1.175,0.5-1.571,1.126c-2.776,4.387-2.776,11.259,0,15.646v0
		c0.474,0.748,1.179,1.177,1.934,1.177c0.688,0,1.325-0.37,1.793-1h0.207v3c0,0.552,0.447,1,1,1h4c0.553,0,1-0.448,1-1v-3h36v3
		c0,0.552,0.447,1,1,1h4c0.553,0,1-0.448,1-1v-3h0.207c0.468,0.63,1.105,1,1.793,1c0.755,0,1.46-0.429,1.934-1.177
		C60.726,38.452,60.726,31.58,57.949,27.193z M11.016,41.016h-4H6.887c0.266-0.639,0.483-1.31,0.656-2h44.944
		c0.173,0.69,0.391,1.361,0.656,2h-0.129h-4H11.016z M10.016,28.823c0-0.445,0.362-0.807,0.807-0.807h4.387
		c0.444,0,0.807,0.362,0.807,0.807v3.193v1v0.193c0,0.445-0.362,0.807-0.807,0.807h-4.387c-0.444,0-0.807-0.362-0.807-0.807v-0.193
		v-1V28.823z M8.134,34.016c0.018,0.061,0.047,0.118,0.069,0.177c0.021,0.055,0.04,0.11,0.064,0.163
		c0.052,0.116,0.114,0.227,0.181,0.334c0.021,0.034,0.038,0.07,0.061,0.103c0.094,0.136,0.199,0.264,0.315,0.381
		c0.029,0.029,0.062,0.054,0.092,0.082c0.091,0.085,0.186,0.166,0.289,0.238c0.047,0.034,0.097,0.063,0.146,0.093
		c0.094,0.059,0.191,0.112,0.292,0.159c0.055,0.026,0.109,0.05,0.166,0.072c0.108,0.042,0.22,0.076,0.335,0.104
		c0.053,0.013,0.104,0.03,0.157,0.04c0.169,0.032,0.343,0.053,0.521,0.053h4.387c0.179,0,0.352-0.021,0.521-0.053
		c0.054-0.01,0.105-0.027,0.157-0.04c0.114-0.029,0.226-0.062,0.335-0.104c0.057-0.022,0.111-0.047,0.166-0.072
		c0.101-0.047,0.198-0.1,0.292-0.159c0.049-0.031,0.099-0.06,0.146-0.093c0.102-0.073,0.197-0.153,0.289-0.238
		c0.03-0.028,0.063-0.052,0.092-0.082c0.116-0.118,0.221-0.245,0.315-0.381c0.023-0.033,0.04-0.069,0.061-0.103
		c0.067-0.107,0.129-0.218,0.181-0.334c0.024-0.053,0.043-0.108,0.064-0.163c0.022-0.06,0.051-0.116,0.069-0.177h24.236
		c0.018,0.061,0.047,0.118,0.069,0.177c0.021,0.055,0.04,0.11,0.064,0.163c0.052,0.116,0.114,0.227,0.181,0.334
		c0.021,0.034,0.038,0.07,0.061,0.103c0.094,0.136,0.199,0.264,0.315,0.381c0.029,0.029,0.062,0.054,0.092,0.082
		c0.091,0.085,0.186,0.166,0.289,0.238c0.047,0.034,0.097,0.063,0.146,0.093c0.094,0.059,0.191,0.112,0.292,0.159
		c0.055,0.026,0.109,0.05,0.166,0.072c0.108,0.042,0.22,0.076,0.335,0.104c0.053,0.013,0.104,0.03,0.157,0.04
		c0.169,0.032,0.343,0.053,0.521,0.053h4.387c0.179,0,0.352-0.021,0.521-0.053c0.054-0.01,0.105-0.027,0.157-0.04
		c0.114-0.029,0.226-0.062,0.335-0.104c0.057-0.022,0.111-0.047,0.166-0.072c0.101-0.047,0.198-0.1,0.292-0.159
		c0.049-0.031,0.099-0.06,0.146-0.093c0.102-0.073,0.197-0.153,0.289-0.238c0.03-0.028,0.063-0.052,0.092-0.082
		c0.116-0.118,0.221-0.245,0.315-0.381c0.023-0.033,0.04-0.069,0.061-0.103c0.067-0.107,0.129-0.218,0.181-0.334
		c0.024-0.053,0.043-0.108,0.064-0.163c0.022-0.06,0.051-0.116,0.069-0.177h0.133c-0.059,1-0.028,2.009,0.09,3H7.911
		c0.118-0.991,0.148-2,0.09-3H8.134z M49.209,28.016c0.444,0,0.807,0.362,0.807,0.807v3.193v1v0.193
		c0,0.445-0.362,0.807-0.807,0.807h-4.387c-0.444,0-0.807-0.362-0.807-0.807v-0.193v-1v-3.193c0-0.445,0.362-0.807,0.807-0.807
		H49.209z M54.163,27.071c-0.027,0.04-0.055,0.081-0.081,0.122v0c-0.202,0.32-0.385,0.656-0.558,1
		c-0.038,0.076-0.072,0.155-0.109,0.232c-0.143,0.3-0.275,0.606-0.396,0.921c-0.021,0.055-0.042,0.11-0.063,0.166
		c-0.296,0.8-0.527,1.639-0.685,2.504h-0.256v-3.193v-3.041L54.163,27.071z M13.835,15.016h32.361c2.106,0,3.819,1.713,3.819,3.819
		v1.181v4v2v0.118c-0.007-0.002-0.015-0.003-0.023-0.005c0.005-0.039,0.023-0.073,0.023-0.113c0-0.552-0.448-1-1-1s-1,0.448-1,1
		h-3.193c-0.293,0-0.57,0.058-0.835,0.141c0.007-0.048,0.029-0.091,0.029-0.141c0-0.552-0.448-1-1-1s-1,0.448-1,1
		c0,0.454,0.308,0.822,0.723,0.944c-0.444,0.497-0.723,1.145-0.723,1.863v3.193h-4c0-0.552-0.448-1-1-1s-1,0.448-1,1h-4
		c0-0.552-0.448-1-1-1s-1,0.448-1,1h-4c0-0.552-0.448-1-1-1s-1,0.448-1,1h-4c0-0.552-0.448-1-1-1s-1,0.448-1,1v-3.193
		c0-1.547-1.259-2.807-2.807-2.807h-1.193c0-0.552-0.448-1-1-1s-1,0.448-1,1h-1.193c-0.173,0-0.341,0.021-0.506,0.051
		c-0.048,0.009-0.094,0.02-0.141,0.031c-0.053,0.013-0.108,0.02-0.16,0.036v-2.118c0.552,0,1-0.448,1-1c0-0.552-0.448-1-1-1v-3.181
		c0-0.289,0.038-0.568,0.1-0.839c0.503-0.052,0.9-0.463,0.9-0.98c0-0.198-0.072-0.372-0.172-0.527
		C11.544,15.599,12.618,15.016,13.835,15.016z M8.016,25.782v3.041v3.193H7.76c-0.157-0.865-0.389-1.705-0.685-2.506
		c-0.02-0.054-0.041-0.108-0.061-0.162c-0.122-0.317-0.255-0.626-0.398-0.927c-0.036-0.075-0.069-0.152-0.106-0.226
		c-0.173-0.345-0.357-0.682-0.559-1.003c-0.026-0.042-0.054-0.083-0.081-0.122L8.016,25.782z M3.772,28.263
		c0.122-0.193,0.226-0.244,0.242-0.247c0.021,0.003,0.124,0.054,0.246,0.247c0.259,0.409,0.478,0.857,0.68,1.316
		c0.071,0.163,0.136,0.332,0.2,0.502c0.116,0.303,0.217,0.615,0.31,0.932c0.062,0.215,0.129,0.426,0.181,0.649
		c0.07,0.296,0.119,0.601,0.169,0.905c0.032,0.192,0.075,0.377,0.1,0.573v0c0.024,0.195,0.033,0.393,0.05,0.589
		C5.973,34.01,5.992,34.291,6,34.573c0.008,0.266,0.012,0.533,0.005,0.799c-0.008,0.324-0.03,0.645-0.059,0.967
		c-0.029,0.337-0.072,0.669-0.124,0.999c-0.047,0.299-0.1,0.596-0.166,0.888c-0.042,0.187-0.08,0.376-0.129,0.557
		c-0.115,0.422-0.254,0.831-0.409,1.229c-0.062,0.159-0.127,0.317-0.195,0.471c-0.185,0.418-0.387,0.823-0.62,1.199l-0.067,0.113
		c-0.111,0.163-0.205,0.218-0.221,0.221c-0.021-0.003-0.124-0.054-0.246-0.247C1.415,38.045,1.415,31.987,3.772,28.263z
		 M10.016,45.016h-2v-2h2V45.016z M52.016,45.016h-2v-2h2V45.016z M56.26,41.769c-0.122,0.193-0.226,0.244-0.242,0.247
		c-0.019-0.003-0.113-0.058-0.224-0.22l-0.069-0.118c-0.231-0.375-0.432-0.778-0.617-1.194c-0.069-0.155-0.134-0.313-0.197-0.474
		c-0.155-0.397-0.293-0.805-0.408-1.226c-0.049-0.182-0.088-0.371-0.13-0.559c-0.066-0.291-0.119-0.587-0.166-0.886
		c-0.052-0.333-0.095-0.667-0.124-1.006c-0.028-0.319-0.051-0.639-0.058-0.961c-0.006-0.267-0.002-0.534,0.005-0.8
		c0.008-0.282,0.027-0.562,0.051-0.842c0.017-0.197,0.025-0.395,0.05-0.59v0c0.024-0.195,0.067-0.379,0.099-0.57
		c0.051-0.305,0.1-0.611,0.17-0.908c0.052-0.222,0.118-0.433,0.18-0.647c0.093-0.319,0.195-0.632,0.311-0.936
		c0.064-0.168,0.128-0.337,0.199-0.498c0.202-0.46,0.421-0.908,0.681-1.317c0.055-0.087,0.104-0.138,0.146-0.176
		c0.004-0.004,0.011-0.015,0.015-0.018c0.003-0.003,0.003-0.001,0.006-0.004c0.038-0.031,0.067-0.046,0.077-0.048
		c0.021,0.004,0.124,0.055,0.245,0.246C58.616,31.987,58.616,38.045,56.26,41.769z"/>
	<circle cx="16.016" cy="17.016" r="1"/>
	<circle cx="13.016" cy="20.016" r="1"/>
	<circle cx="19.016" cy="20.016" r="1"/>
	<circle cx="22.016" cy="17.016" r="1"/>
	<circle cx="28.016" cy="17.016" r="1"/>
	<circle cx="25.016" cy="20.016" r="1"/>
	<circle cx="31.016" cy="20.016" r="1"/>
	<circle cx="34.016" cy="17.016" r="1"/>
	<circle cx="40.016" cy="17.016" r="1"/>
	<circle cx="37.016" cy="20.016" r="1"/>
	<circle cx="43.016" cy="20.016" r="1"/>
	<circle cx="46.016" cy="17.016" r="1"/>
	<circle cx="49.016" cy="20.016" r="1"/>
	<circle cx="16.016" cy="23.016" r="1"/>
	<circle cx="19.016" cy="26.016" r="1"/>
	<circle cx="22.016" cy="23.016" r="1"/>
	<circle cx="28.016" cy="23.016" r="1"/>
	<circle cx="22.016" cy="29.016" r="1"/>
	<circle cx="28.016" cy="29.016" r="1"/>
	<circle cx="25.016" cy="26.016" r="1"/>
	<circle cx="31.016" cy="26.016" r="1"/>
	<circle cx="34.016" cy="23.016" r="1"/>
	<circle cx="40.016" cy="23.016" r="1"/>
	<circle cx="34.016" cy="29.016" r="1"/>
	<circle cx="40.016" cy="29.016" r="1"/>
	<circle cx="37.016" cy="26.016" r="1"/>
	<circle cx="46.016" cy="23.016" r="1"/>
</g>
<g>
</g>
<g>
</g>
<g>
</g>
<g>
</g>
<g>
</g>
<g>
</g>
<g>
</g>
<g>
</g>
<g>
</g>
<g>
</g>
<g>
</g>
<g>
</g>
<g>
</g>
<g>
</g>
<g>
</g>
</svg>
