<?xml version="1.0" encoding="iso-8859-1"?>
<!-- Generator: Adobe Illustrator 18.0.0, SVG Export Plug-In . SVG Version: 6.00 Build 0)  -->
<!DOCTYPE svg PUBLIC "-//W3C//DTD SVG 1.1//EN" "http://www.w3.org/Graphics/SVG/1.1/DTD/svg11.dtd">
<svg version="1.1" id="Capa_1" xmlns="http://www.w3.org/2000/svg" xmlns:xlink="http://www.w3.org/1999/xlink" x="0px" y="0px"
	 viewBox="0 0 59.999 59.999" style="enable-background:new 0 0 59.999 59.999;" xml:space="preserve">
<path d="M59.91,34.785l-1.993-7.815c-0.195-0.763-0.804-1.284-1.556-1.42l-4.395-2.637L52,15.75c0-2.895-2.355-5.25-5.25-5.25h-12.5
	c-1.751,0-3.294,0.87-4.248,2.19c-0.954-1.321-2.497-2.19-4.248-2.19h-12.5c-2.895,0-5.25,2.355-5.25,5.25v7.181L3.639,25.55
	c-0.753,0.136-1.362,0.657-1.557,1.42l-1.994,7.815c-0.119,0.467-0.119,0.961,0,1.429l1.993,7.815
	c0.225,0.881,1.003,1.474,1.869,1.474c0.034,0,0.068-0.001,0.102-0.003H6v4h2.414l4-4h35.172l4,4H54v-4.001l1.895-0.001
	c0.036,0.002,0.073,0.003,0.11,0.003c0.91,0,1.688-0.592,1.912-1.472l1.993-7.815C60.029,35.746,60.029,35.252,59.91,34.785z
	 M54.083,26.97l-1.602,6.279l-1.146-1.434l-1.228-1.537l0.325-1.142l1.171-4.107l2.614,1.568
	C54.162,26.714,54.116,26.839,54.083,26.97z M11.484,31.5H29h2.004h17.519l2.398,3H9.082L11.484,31.5z M34.25,12.5h12.5
	c1.792,0,3.25,1.458,3.25,3.25v7.609L48.248,29.5H31.003V15.75c0-0.007-0.002-0.013-0.002-0.019
	C31.012,13.947,32.464,12.5,34.25,12.5z M10.003,15.75c0-1.792,1.458-3.25,3.25-3.25h12.5c1.785,0,3.237,1.448,3.248,3.231
	c0,0.007-0.002,0.013-0.002,0.019V29.5H11.758l-1.754-6.14V15.75z M8.397,25.027l1.503,5.25l-2.381,2.974l-1.602-6.281
	c-0.034-0.131-0.079-0.256-0.136-0.374L8.397,25.027z M4.02,43.535L2.027,35.72c-0.037-0.145-0.037-0.297,0-0.441l1.952-7.815
	l1.993,7.815C5.99,35.351,6,35.425,6,35.5v8v0.012L4.02,43.535z M8,47.085V45.5h1.586L8,47.085z M14.414,43.5H8v-7h44v7h-6.414
	H14.414z M52,47.085L50.414,45.5H52V47.085z M57.972,35.72l-2.026,7.78H54v-8c0-0.074,0.01-0.148,0.027-0.22l1.959-7.785
	c0,0,0.001,0,0.001,0l1.986,7.785C58.008,35.423,58.008,35.576,57.972,35.72z"/>
<g>
</g>
<g>
</g>
<g>
</g>
<g>
</g>
<g>
</g>
<g>
</g>
<g>
</g>
<g>
</g>
<g>
</g>
<g>
</g>
<g>
</g>
<g>
</g>
<g>
</g>
<g>
</g>
<g>
</g>
</svg>
