<?xml version="1.0" encoding="iso-8859-1"?>
<!-- Generator: Adobe Illustrator 18.0.0, SVG Export Plug-In . SVG Version: 6.00 Build 0)  -->
<!DOCTYPE svg PUBLIC "-//W3C//DTD SVG 1.1//EN" "http://www.w3.org/Graphics/SVG/1.1/DTD/svg11.dtd">
<svg version="1.1" id="Capa_1" xmlns="http://www.w3.org/2000/svg" xmlns:xlink="http://www.w3.org/1999/xlink" x="0px" y="0px"
	 viewBox="0 0 60 60" style="enable-background:new 0 0 60 60;" xml:space="preserve">
<g>
	<path d="M50,8.5h-1h-1c-0.552,0-1,0.447-1,1s0.448,1,1,1h1v6h-8h-1h-1c-0.552,0-1,0.447-1,1s0.448,1,1,1h1v6h-8h-1h-1
		c-0.552,0-1,0.447-1,1s0.448,1,1,1h1v6h-8h-1h-1c-0.552,0-1,0.447-1,1s0.448,1,1,1h1v6h-8h-1h-1c-0.552,0-1,0.447-1,1s0.448,1,1,1
		h1v6H5H4H3c-0.552,0-1,0.447-1,1s0.448,1,1,1h1v6H1c-0.552,0-1,0.447-1,1s0.448,1,1,1h3h1h55v-50H50z M53,56.5c0-0.552-0.448-1-1-1
		s-1,0.448-1,1h-4c0-0.552-0.448-1-1-1s-1,0.448-1,1h-4c0-0.552-0.448-1-1-1s-1,0.448-1,1h-4c0-0.552-0.448-1-1-1s-1,0.448-1,1h-4
		c0-0.552-0.448-1-1-1s-1,0.448-1,1h-4c0-0.552-0.448-1-1-1s-1,0.448-1,1H6v-6h9v-8h9v-8h9v-8h9v-8h9v-8h7v9c-0.552,0-1,0.448-1,1
		s0.448,1,1,1v4c-0.552,0-1,0.448-1,1s0.448,1,1,1v4c-0.552,0-1,0.448-1,1s0.448,1,1,1v4c-0.552,0-1,0.448-1,1s0.448,1,1,1v4
		c-0.552,0-1,0.448-1,1s0.448,1,1,1v4c-0.552,0-1,0.448-1,1s0.448,1,1,1v4c-0.552,0-1,0.448-1,1H53z"/>
	<circle cx="34" cy="44.5" r="1"/>
	<circle cx="37" cy="41.5" r="1"/>
	<circle cx="31" cy="47.5" r="1"/>
	<circle cx="37" cy="47.5" r="1"/>
	<circle cx="40" cy="38.5" r="1"/>
	<circle cx="46" cy="38.5" r="1"/>
	<circle cx="40" cy="44.5" r="1"/>
	<circle cx="46" cy="44.5" r="1"/>
	<circle cx="43" cy="41.5" r="1"/>
	<circle cx="49" cy="41.5" r="1"/>
	<circle cx="43" cy="47.5" r="1"/>
	<circle cx="49" cy="47.5" r="1"/>
	<circle cx="52" cy="38.5" r="1"/>
	<circle cx="52" cy="44.5" r="1"/>
	<circle cx="55" cy="41.5" r="1"/>
	<circle cx="55" cy="47.5" r="1"/>
	<circle cx="25" cy="53.5" r="1"/>
	<circle cx="28" cy="50.5" r="1"/>
	<circle cx="34" cy="50.5" r="1"/>
	<circle cx="31" cy="53.5" r="1"/>
	<circle cx="37" cy="53.5" r="1"/>
	<circle cx="40" cy="50.5" r="1"/>
	<circle cx="46" cy="50.5" r="1"/>
	<circle cx="43" cy="53.5" r="1"/>
	<circle cx="49" cy="53.5" r="1"/>
	<circle cx="52" cy="50.5" r="1"/>
	<circle cx="55" cy="53.5" r="1"/>
	<circle cx="49" cy="29.5" r="1"/>
	<circle cx="52" cy="26.5" r="1"/>
	<circle cx="55" cy="23.5" r="1"/>
	<circle cx="55" cy="29.5" r="1"/>
	<circle cx="46" cy="32.5" r="1"/>
	<circle cx="43" cy="35.5" r="1"/>
	<circle cx="49" cy="35.5" r="1"/>
	<circle cx="52" cy="32.5" r="1"/>
	<circle cx="55" cy="35.5" r="1"/>
	<path d="M20,1.5H4v18h16V1.5z M18,17.5H6v-14h12V17.5z"/>
	<path d="M17,4.5H7v12h10V4.5z M15,14.5H9v-8h6V14.5z"/>
</g>
<g>
</g>
<g>
</g>
<g>
</g>
<g>
</g>
<g>
</g>
<g>
</g>
<g>
</g>
<g>
</g>
<g>
</g>
<g>
</g>
<g>
</g>
<g>
</g>
<g>
</g>
<g>
</g>
<g>
</g>
</svg>
