<?xml version="1.0" encoding="iso-8859-1"?>
<!-- Generator: Adobe Illustrator 18.0.0, SVG Export Plug-In . SVG Version: 6.00 Build 0)  -->
<!DOCTYPE svg PUBLIC "-//W3C//DTD SVG 1.1//EN" "http://www.w3.org/Graphics/SVG/1.1/DTD/svg11.dtd">
<svg version="1.1" id="Capa_1" xmlns="http://www.w3.org/2000/svg" xmlns:xlink="http://www.w3.org/1999/xlink" x="0px" y="0px"
	 viewBox="0 0 57 57" style="enable-background:new 0 0 57 57;" xml:space="preserve">
<path d="M49.086,0.028c-1.692-0.163-3.373,0.396-4.622,1.531c-0.37,0.337-0.693,0.716-0.965,1.126C42.423,1.068,40.584,0,38.5,0
	c-2.084,0-3.924,1.068-5,2.687C32.424,1.068,30.584,0,28.5,0s-3.924,1.068-5,2.687C22.424,1.068,20.584,0,18.5,0
	c-2.084,0-3.923,1.068-5,2.686c-0.271-0.41-0.595-0.789-0.965-1.126c-1.248-1.135-2.933-1.696-4.622-1.531
	C4.878,0.317,2.5,3.035,2.5,6.215V14v3.632v0.001C2.5,18.939,3.562,20,4.868,20H6.5v34h2v1c-0.552,0-1,0.447-1,1s0.448,1,1,1h2
	c0.552,0,1-0.447,1-1s-0.448-1-1-1v-1h2V31h32v23h2v1c-0.553,0-1,0.447-1,1s0.447,1,1,1h2c0.553,0,1-0.447,1-1s-0.447-1-1-1v-1h2V20
	h1.632h0.001c1.306,0,2.367-1.062,2.367-2.367v-0.001V14V6.215C54.5,3.035,52.122,0.317,49.086,0.028z M48.5,52h-2V29h-36v23h-2V20
	h2v7h36v-7h2V52z M12.5,20h32v5h-32V20z M50.5,18h-6h-32h-6H4.868C4.665,18,4.5,17.835,4.5,17.632V16h48v1.632
	c0,0.203-0.165,0.368-0.368,0.368H50.5z M4.5,14V6.215c0-2.16,1.583-4.003,3.604-4.196C8.237,2.006,8.371,2,8.503,2
	c1,0,1.942,0.361,2.687,1.039C12.022,3.797,12.5,4.875,12.5,6h2c0-2.206,1.794-4,4-4s4,1.794,4,4h2c0-2.206,1.794-4,4-4s4,1.794,4,4
	h2c0-2.206,1.794-4,4-4s4,1.794,4,4h2c0-1.125,0.478-2.203,1.31-2.961c0.845-0.768,1.936-1.133,3.087-1.021
	C50.917,2.212,52.5,4.055,52.5,6.215V14H4.5z"/>
<g>
</g>
<g>
</g>
<g>
</g>
<g>
</g>
<g>
</g>
<g>
</g>
<g>
</g>
<g>
</g>
<g>
</g>
<g>
</g>
<g>
</g>
<g>
</g>
<g>
</g>
<g>
</g>
<g>
</g>
</svg>
