<?xml version="1.0" encoding="iso-8859-1"?>
<!-- Generator: Adobe Illustrator 18.0.0, SVG Export Plug-In . SVG Version: 6.00 Build 0)  -->
<!DOCTYPE svg PUBLIC "-//W3C//DTD SVG 1.1//EN" "http://www.w3.org/Graphics/SVG/1.1/DTD/svg11.dtd">
<svg version="1.1" id="Capa_1" xmlns="http://www.w3.org/2000/svg" xmlns:xlink="http://www.w3.org/1999/xlink" x="0px" y="0px"
	 viewBox="0 0 60 60" style="enable-background:new 0 0 60 60;" xml:space="preserve">
<g>
	<path d="M49.33,3H10.67C8.646,3,7,4.646,7,6.67V17v35v4.33C7,58.354,8.646,60,10.67,60h38.66c2.023,0,3.67-1.646,3.67-3.67V52V17
		V6.67C53,4.646,51.354,3,49.33,3z M9,19h42v31H9V19z M51,56.33c0,0.921-0.749,1.67-1.67,1.67H10.67C9.749,58,9,57.251,9,56.33V52
		h42V56.33z M9,17V6.67C9,5.749,9.749,5,10.67,5h38.66C50.251,5,51,5.749,51,6.67V17H9z"/>
	<path d="M15,7c-2.206,0-4,1.794-4,4s1.794,4,4,4s4-1.794,4-4S17.206,7,15,7z M15,13c-1.103,0-2-0.897-2-2s0.897-2,2-2s2,0.897,2,2
		S16.103,13,15,13z"/>
	<path d="M25,7c-2.206,0-4,1.794-4,4s1.794,4,4,4s4-1.794,4-4S27.206,7,25,7z M25,13c-1.103,0-2-0.897-2-2s0.897-2,2-2s2,0.897,2,2
		S26.103,13,25,13z"/>
	<path d="M35,7c-2.206,0-4,1.794-4,4s1.794,4,4,4s4-1.794,4-4S37.206,7,35,7z M35,13c-1.103,0-2-0.897-2-2s0.897-2,2-2s2,0.897,2,2
		S36.103,13,35,13z"/>
	<path d="M45,7c-2.206,0-4,1.794-4,4s1.794,4,4,4s4-1.794,4-4S47.206,7,45,7z M45,13c-1.103,0-2-0.897-2-2s0.897-2,2-2s2,0.897,2,2
		S46.103,13,45,13z"/>
	<path d="M13,2h8c0.552,0,1-0.447,1-1s-0.448-1-1-1h-8c-0.552,0-1,0.447-1,1S12.448,2,13,2z"/>
	<path d="M30,2h18c0.552,0,1-0.447,1-1s-0.448-1-1-1H30c-0.552,0-1,0.447-1,1S29.448,2,30,2z"/>
	<path d="M14,24h32c1.103,0,2-0.897,2-2c0-0.553-0.448-1-1-1s-1,0.447-1,1H14c0-0.553-0.448-1-1-1s-1,0.447-1,1
		C12,23.103,12.897,24,14,24z"/>
	<path d="M44.862,26H15.138C12.856,26,11,27.856,11,30.138v13.725C11,46.144,12.856,48,15.138,48h29.724
		C47.144,48,49,46.144,49,43.862V30.138C49,27.856,47.144,26,44.862,26z M47,43.862C47,45.041,46.041,46,44.862,46H15.138
		C13.959,46,13,45.041,13,43.862V30.138c0-1.084,0.814-1.972,1.861-2.11C14.378,28.098,14,28.497,14,29c0,0.552,0.448,1,1,1
		s1-0.448,1-1c0-0.536-0.424-0.965-0.954-0.991C15.077,28.008,15.107,28,15.138,28H21h6h6h6h5.862c0.032,0,0.061,0.008,0.092,0.009
		C44.424,28.035,44,28.464,44,29c0,0.552,0.448,1,1,1s1-0.448,1-1c0-0.503-0.378-0.902-0.861-0.972
		C46.186,28.166,47,29.054,47,30.138V43.862z"/>
	<circle cx="15" cy="35" r="1"/>
	<circle cx="18" cy="32" r="1"/>
	<circle cx="18" cy="38" r="1"/>
	<circle cx="21" cy="29" r="1"/>
	<circle cx="27" cy="29" r="1"/>
	<circle cx="21" cy="35" r="1"/>
	<circle cx="27" cy="35" r="1"/>
	<circle cx="24" cy="32" r="1"/>
	<circle cx="30" cy="32" r="1"/>
	<circle cx="24" cy="38" r="1"/>
	<circle cx="30" cy="38" r="1"/>
	<circle cx="33" cy="29" r="1"/>
	<circle cx="39" cy="29" r="1"/>
	<circle cx="33" cy="35" r="1"/>
	<circle cx="39" cy="35" r="1"/>
	<circle cx="36" cy="32" r="1"/>
	<circle cx="42" cy="32" r="1"/>
	<circle cx="36" cy="38" r="1"/>
	<circle cx="42" cy="38" r="1"/>
	<circle cx="45" cy="35" r="1"/>
	<circle cx="15" cy="41" r="1"/>
	<circle cx="18" cy="44" r="1"/>
	<circle cx="21" cy="41" r="1"/>
	<circle cx="27" cy="41" r="1"/>
	<circle cx="24" cy="44" r="1"/>
	<circle cx="30" cy="44" r="1"/>
	<circle cx="33" cy="41" r="1"/>
	<circle cx="39" cy="41" r="1"/>
	<circle cx="36" cy="44" r="1"/>
	<circle cx="42" cy="44" r="1"/>
	<circle cx="45" cy="41" r="1"/>
</g>
<g>
</g>
<g>
</g>
<g>
</g>
<g>
</g>
<g>
</g>
<g>
</g>
<g>
</g>
<g>
</g>
<g>
</g>
<g>
</g>
<g>
</g>
<g>
</g>
<g>
</g>
<g>
</g>
<g>
</g>
</svg>
