<?xml version="1.0" encoding="iso-8859-1"?>
<!-- Generator: Adobe Illustrator 18.0.0, SVG Export Plug-In . SVG Version: 6.00 Build 0)  -->
<!DOCTYPE svg PUBLIC "-//W3C//DTD SVG 1.1//EN" "http://www.w3.org/Graphics/SVG/1.1/DTD/svg11.dtd">
<svg version="1.1" id="Capa_1" xmlns="http://www.w3.org/2000/svg" xmlns:xlink="http://www.w3.org/1999/xlink" x="0px" y="0px"
	 viewBox="0 0 60 60" style="enable-background:new 0 0 60 60;" xml:space="preserve">
<path d="M57,42V22h2c0.553,0,1-0.447,1-1s-0.447-1-1-1h-3h-9H36.274c0.024-0.081,0.055-0.159,0.072-0.243
	c0.191-0.969-0.125-1.944-0.847-2.611c-0.805-0.744-1.319-1.547-1.529-2.388L33.781,14H32v-3v-0.142c1.721-0.447,3-1.999,3-3.858V2
	h-3h-2h-3v5c0,1.859,1.279,3.411,3,3.858V11v3h-1.38l-0.189,0.757c-0.211,0.841-0.726,1.645-1.529,2.389
	c-0.722,0.667-1.038,1.643-0.847,2.611c0.017,0.084,0.048,0.162,0.072,0.243H13H4H1c-0.553,0-1,0.447-1,1s0.447,1,1,1h2v20
	c0,9.095-2.85,14.47-2.879,14.522c-0.167,0.311-0.16,0.687,0.021,0.988C0.322,57.813,0.647,58,1,58c7.909,0,8-15.347,8-16V29
	c0-2.206,1.794-4,4-4h34c2.206,0,4,1.794,4,4v13c0,0.653,0.091,16,8,16c0.353,0,0.68-0.187,0.86-0.489
	c0.18-0.304,0.187-0.68,0.018-0.989C59.849,56.469,57,51.14,57,42z M32,4h1v3c0,0.739-0.402,1.386-1,1.731V4z M29,7V4h1v4.731
	C29.402,8.386,29,7.739,29,7z M28.018,19.368c-0.081-0.404,0.142-0.662,0.242-0.755c0.864-0.8,1.489-1.677,1.865-2.613h2.15
	c0.375,0.938,1,1.813,1.866,2.614c0.1,0.092,0.322,0.35,0.242,0.753C34.312,19.729,33.941,20,33.521,20h-4.643
	C28.459,20,28.088,19.729,28.018,19.368z M7,29v13c0,3.385-0.814,11.465-4.261,13.519C3.664,53.079,5,48.441,5,42V22h7v1.083
	C9.166,23.561,7,26.032,7,29z M14,22h14.879h4.643H46v1H14V22z M53,42V29c0-2.968-2.166-5.439-5-5.917V22h7v20
	c0,6.439,1.335,11.077,2.261,13.517C53.82,53.46,53.002,45.384,53,42z"/>
<g>
</g>
<g>
</g>
<g>
</g>
<g>
</g>
<g>
</g>
<g>
</g>
<g>
</g>
<g>
</g>
<g>
</g>
<g>
</g>
<g>
</g>
<g>
</g>
<g>
</g>
<g>
</g>
<g>
</g>
</svg>
