<?xml version="1.0" encoding="iso-8859-1"?>
<!-- Generator: Adobe Illustrator 18.0.0, SVG Export Plug-In . SVG Version: 6.00 Build 0)  -->
<!DOCTYPE svg PUBLIC "-//W3C//DTD SVG 1.1//EN" "http://www.w3.org/Graphics/SVG/1.1/DTD/svg11.dtd">
<svg version="1.1" id="Capa_1" xmlns="http://www.w3.org/2000/svg" xmlns:xlink="http://www.w3.org/1999/xlink" x="0px" y="0px"
	 viewBox="0 0 60 60" style="enable-background:new 0 0 60 60;" xml:space="preserve">
<path d="M59.434,25h-3.725h-4.132H34.314C34.747,24.112,35,22.841,35,21c0-1.882-0.254-2.517-0.703-3.479
	c-0.116-0.248-0.248-0.528-0.393-0.892L33.653,16H31v-2.586l1.707-1.707c0.391-0.391,0.391-1.023,0-1.414s-1.023-0.391-1.414,0
	L31,10.586V10V9V8.858C32.72,8.411,34,6.859,34,5V2h-3V0h-5v6c0,1.859,1.28,3.411,3,3.858v2.728l-0.293-0.293
	c-0.391-0.391-1.023-0.391-1.414,0s-0.391,1.023,0,1.414L29,15.414V16h-2.653l-0.251,0.63c-0.145,0.363-0.276,0.644-0.393,0.892
	C25.254,18.483,25,19.118,25,21c0,1.841,0.253,3.112,0.686,4H10.905H6H4H0v4v2v5h1v24h5V36h1v-5h5.981
	c1.915,0.924,3.997,1.927,6.086,2.933c7.25,3.489,14.501,6.969,14.501,6.969l0.501,0.24L50.005,31H53v5h1v24h5V36h1v-5v-2v-4H59.434
	z M32,4v1c0,0.739-0.403,1.386-1,1.731V4H32z M28,6V2h1v5.731C28.403,7.386,28,6.739,28,6z M27,21c0-1.529,0.162-1.874,0.515-2.632
	c0.054-0.115,0.111-0.236,0.17-0.368h4.63c0.059,0.132,0.116,0.253,0.17,0.368C32.838,19.126,33,19.471,33,21c0,4-0.94,4-3,4
	S27,25,27,21z M44.709,27l-10.777,6.858c-1.784-0.857-8.059-3.87-14.268-6.858H44.709z M4,58H3V36h1V58z M5,34H2v-3h3V34z M2,29v-2
	h2.839c0.664,0.38,1.861,0.963,4.003,2H7H2z M33.932,38.858C27.899,35.963,15.554,30.03,9.301,27h5.754
	c8.304,4.003,18.512,8.901,18.512,8.901l0.501,0.24L48.434,27h4.132l-4.857,3.091L46.28,31h0L33.932,38.858z M57,58h-1V36h1V58z
	 M58,34h-3v-3h3V34z M53.148,29l1.523-0.969L56.291,27H58v2H53.148z"/>
<g>
</g>
<g>
</g>
<g>
</g>
<g>
</g>
<g>
</g>
<g>
</g>
<g>
</g>
<g>
</g>
<g>
</g>
<g>
</g>
<g>
</g>
<g>
</g>
<g>
</g>
<g>
</g>
<g>
</g>
</svg>
