<?xml version="1.0" encoding="iso-8859-1"?>
<!-- Generator: Adobe Illustrator 18.0.0, SVG Export Plug-In . SVG Version: 6.00 Build 0)  -->
<!DOCTYPE svg PUBLIC "-//W3C//DTD SVG 1.1//EN" "http://www.w3.org/Graphics/SVG/1.1/DTD/svg11.dtd">
<svg version="1.1" id="Capa_1" xmlns="http://www.w3.org/2000/svg" xmlns:xlink="http://www.w3.org/1999/xlink" x="0px" y="0px"
	 viewBox="0 0 60 60" style="enable-background:new 0 0 60 60;" xml:space="preserve">
<path d="M60,24.5h-4h-1v-1h1c0.553,0,1-0.447,1-1s-0.447-1-1-1h-1h-8h-1c-0.552,0-1,0.447-1,1s0.448,1,1,1h1v1H35.314
	c0.433-0.888,0.686-2.159,0.686-4c0-1.882-0.254-2.517-0.703-3.479c-0.116-0.248-0.248-0.528-0.393-0.892l-0.251-0.63H32v-2.586
	l1.707-1.707c0.391-0.391,0.391-1.023,0-1.414s-1.023-0.391-1.414,0L32,10.086V9.5v-1V8.358c1.72-0.447,3-1.999,3-3.858v-2h-3v-2h-5
	v5c0,1.859,1.28,3.411,3,3.858v2.728l-0.293-0.293c-0.391-0.391-1.023-0.391-1.414,0s-0.391,1.023,0,1.414L30,14.914V15.5h-2.653
	l-0.251,0.63c-0.145,0.363-0.276,0.644-0.393,0.892C26.254,17.983,26,18.618,26,20.5c0,1.841,0.253,3.112,0.686,4H14v-1h1
	c0.552,0,1-0.447,1-1s-0.448-1-1-1h-1H6H5c-0.552,0-1,0.447-1,1s0.448,1,1,1h1v1H4.291H0.566H0v6h1.034L2,58.534
	c0.019,0.539,0.46,0.966,1,0.966h2c0.525,0,0.961-0.407,0.998-0.932L7.933,30.5h2.061l15.937,10.142l0.501-0.24
	c0,0,7.25-3.479,14.501-6.969c2.088-1.006,4.171-2.009,6.086-2.933h5.047l1.936,28.068C54.038,59.093,54.475,59.5,55,59.5h2
	c0.539,0,0.98-0.427,0.999-0.966L58.966,30.5H60V24.5z M58,26.5v2h-5h-1.842c2.141-1.037,3.339-1.62,4.003-2H58z M49,23.5h4v1h-4
	V23.5z M33,4.5c0,0.739-0.403,1.386-1,1.731V4.5H33z M29,5.5v-3h1v4.731C29.403,6.886,29,6.239,29,5.5z M28,20.5
	c0-1.529,0.162-1.874,0.515-2.632c0.054-0.115,0.111-0.236,0.17-0.368h4.63c0.059,0.132,0.116,0.253,0.17,0.368
	C33.838,18.626,34,18.971,34,20.5c0,4-0.94,4-3,4S28,24.5,28,20.5z M8,23.5h4v1H8V23.5z M5.328,27.531L6.852,28.5H2v-2h1.709
	L5.328,27.531z M4.066,57.5h-0.1l-0.931-27h2.894L4.066,57.5z M26.068,38.358L13.72,30.5h0l-1.429-0.909L7.434,26.5H14h33h3.699
	c-0.142,0.069-0.294,0.143-0.447,0.217C43.877,29.804,31.965,35.528,26.068,38.358z M56.034,57.5h-0.101l-1.862-27h2.894
	L56.034,57.5z"/>
<g>
</g>
<g>
</g>
<g>
</g>
<g>
</g>
<g>
</g>
<g>
</g>
<g>
</g>
<g>
</g>
<g>
</g>
<g>
</g>
<g>
</g>
<g>
</g>
<g>
</g>
<g>
</g>
<g>
</g>
</svg>
