<?xml version="1.0" encoding="iso-8859-1"?>
<!-- Generator: Adobe Illustrator 18.0.0, SVG Export Plug-In . SVG Version: 6.00 Build 0)  -->
<!DOCTYPE svg PUBLIC "-//W3C//DTD SVG 1.1//EN" "http://www.w3.org/Graphics/SVG/1.1/DTD/svg11.dtd">
<svg version="1.1" id="Capa_1" xmlns="http://www.w3.org/2000/svg" xmlns:xlink="http://www.w3.org/1999/xlink" x="0px" y="0px"
	 viewBox="0 0 60 60" style="enable-background:new 0 0 60 60;" xml:space="preserve">
<g>
	<path d="M52,43H36.953c0.218-0.367,0.383-0.768,0.469-1.201c0.273-1.385-0.179-2.78-1.209-3.733
		c-1.438-1.331-2.361-2.78-2.743-4.308L33.281,33H30.5v-0.586l2.707-2.707c0.391-0.391,0.391-1.023,0-1.414s-1.023-0.391-1.414,0
		L30.5,29.586V27v-0.142c1.72-0.447,3-1.999,3-3.858h9V5h-25v18h8c0,1.859,1.28,3.411,3,3.858V27v6h-2.781l-0.188,0.758
		c-0.382,1.527-1.305,2.977-2.743,4.308c-1.03,0.953-1.482,2.349-1.208,3.734c0.086,0.432,0.25,0.834,0.468,1.2H8
		c-3.032,0-5.5,2.468-5.5,5.5S4.968,54,8,54h3.32l-1,6h3.799l3-6h26.764l3,6h3.799l-1-6H52c3.032,0,5.5-2.468,5.5-5.5
		S55.032,43,52,43z M30.5,24.731V21h1v2C31.5,23.739,31.098,24.386,30.5,24.731z M19.5,21V7h21v14h-7v-2h-3v-3h-5v5H19.5z M27.5,23
		v-5h1v1v2v3.731C27.902,24.386,27.5,23.739,27.5,23z M23.541,41.41c-0.139-0.697,0.088-1.398,0.604-1.876
		c1.499-1.387,2.539-2.909,3.101-4.534h4.51c0.562,1.625,1.602,3.147,3.101,4.534c0.516,0.478,0.742,1.179,0.604,1.875
		C35.279,42.316,34.381,43,33.369,43h-7.738C24.619,43,23.721,42.316,23.541,41.41z M12.882,58h-0.201l0.666-4h1.535L12.882,58z
		 M48.319,58h-0.201l-2-4h1.535L48.319,58z M52,52h-2.653h-6.465H18.118h-6.465H8c-1.93,0-3.5-1.57-3.5-3.5S6.07,45,8,45h17.631
		h7.738H52c1.93,0,3.5,1.57,3.5,3.5S53.93,52,52,52z"/>
	<circle cx="22" cy="48.5" r="1.5"/>
	<circle cx="38" cy="48.5" r="1.5"/>
	<path d="M26.5,27c0-0.553-0.447-1-1-1h-11V2h31v24h-12c-0.553,0-1,0.447-1,1s0.447,1,1,1h14V0h-35v28h13
		C26.053,28,26.5,27.553,26.5,27z"/>
	<path d="M22.793,10.293l-2,2c-0.391,0.391-0.391,1.023,0,1.414C20.988,13.902,21.244,14,21.5,14s0.512-0.098,0.707-0.293l2-2
		c0.391-0.391,0.391-1.023,0-1.414S23.184,9.902,22.793,10.293z"/>
	<path d="M26.21,9.71C26.39,9.52,26.5,9.26,26.5,9s-0.11-0.521-0.29-0.71c-0.37-0.37-1.05-0.37-1.42,0
		C24.609,8.479,24.5,8.729,24.5,9c0,0.26,0.109,0.52,0.29,0.71C24.979,9.89,25.24,10,25.5,10S26.02,9.89,26.21,9.71z"/>
	<path d="M29.5,12c0.256,0,0.512-0.098,0.707-0.293l2-2c0.391-0.391,0.391-1.023,0-1.414s-1.023-0.391-1.414,0l-2,2
		c-0.391,0.391-0.391,1.023,0,1.414C28.988,11.902,29.244,12,29.5,12z"/>
	<path d="M26.79,13.71C26.979,13.89,27.24,14,27.5,14s0.52-0.11,0.71-0.29c0.189-0.19,0.29-0.45,0.29-0.71s-0.11-0.521-0.29-0.71
		c-0.38-0.37-1.05-0.37-1.42,0c-0.181,0.189-0.29,0.439-0.29,0.71C26.5,13.26,26.609,13.52,26.79,13.71z"/>
</g>
<g>
</g>
<g>
</g>
<g>
</g>
<g>
</g>
<g>
</g>
<g>
</g>
<g>
</g>
<g>
</g>
<g>
</g>
<g>
</g>
<g>
</g>
<g>
</g>
<g>
</g>
<g>
</g>
<g>
</g>
</svg>
