<?xml version="1.0" encoding="iso-8859-1"?>
<!-- Generator: Adobe Illustrator 18.0.0, SVG Export Plug-In . SVG Version: 6.00 Build 0)  -->
<!DOCTYPE svg PUBLIC "-//W3C//DTD SVG 1.1//EN" "http://www.w3.org/Graphics/SVG/1.1/DTD/svg11.dtd">
<svg version="1.1" id="Capa_1" xmlns="http://www.w3.org/2000/svg" xmlns:xlink="http://www.w3.org/1999/xlink" x="0px" y="0px"
	 viewBox="0 0 60 60" style="enable-background:new 0 0 60 60;" xml:space="preserve">
<g>
	<path d="M40,33h-2h-2.184C35.928,32.686,36,32.352,36,32c0-1.654-1.346-3-3-3h-2v-2h23V0H6v27h23v2h-2c-1.654,0-3,1.346-3,3
		c0,0.352,0.072,0.686,0.184,1H22h-2H2v10v2v10h2v5h6v-5h10h2h16h2h10v5h6v-5h2V45v-2V33H40z M8,5h44v17H8V5z M52,2v1H8V2H52z M8,24
		h44v1H8V24z M26,32c0-0.552,0.448-1,1-1h6c0.552,0,1,0.448,1,1s-0.448,1-1,1h-6C26.448,33,26,32.552,26,32z M22,35h5h6h5v8H22V35z
		 M4,35h16v8H4V35z M8,58H6v-3h2V58z M20,53H10H4v-8h16V53z M38,53H22v-8h16V53z M54,58h-2v-3h2V58z M56,53h-6H40v-8h16V53z M40,43
		v-8h16v8H40z"/>
	<path d="M14,38h-4c-0.553,0-1,0.447-1,1s0.447,1,1,1h4c0.553,0,1-0.447,1-1S14.553,38,14,38z"/>
	<path d="M10,50h4c0.553,0,1-0.447,1-1s-0.447-1-1-1h-4c-0.553,0-1,0.447-1,1S9.447,50,10,50z"/>
	<path d="M32,38h-4c-0.553,0-1,0.447-1,1s0.447,1,1,1h4c0.553,0,1-0.447,1-1S32.553,38,32,38z"/>
	<path d="M28,50h4c0.553,0,1-0.447,1-1s-0.447-1-1-1h-4c-0.553,0-1,0.447-1,1S27.447,50,28,50z"/>
	<path d="M50,38h-4c-0.553,0-1,0.447-1,1s0.447,1,1,1h4c0.553,0,1-0.447,1-1S50.553,38,50,38z"/>
	<path d="M46,50h4c0.553,0,1-0.447,1-1s-0.447-1-1-1h-4c-0.553,0-1,0.447-1,1S45.447,50,46,50z"/>
</g>
<g>
</g>
<g>
</g>
<g>
</g>
<g>
</g>
<g>
</g>
<g>
</g>
<g>
</g>
<g>
</g>
<g>
</g>
<g>
</g>
<g>
</g>
<g>
</g>
<g>
</g>
<g>
</g>
<g>
</g>
</svg>
