<?xml version="1.0" encoding="iso-8859-1"?>
<!-- Generator: Adobe Illustrator 18.0.0, SVG Export Plug-In . SVG Version: 6.00 Build 0)  -->
<!DOCTYPE svg PUBLIC "-//W3C//DTD SVG 1.1//EN" "http://www.w3.org/Graphics/SVG/1.1/DTD/svg11.dtd">
<svg version="1.1" id="Capa_1" xmlns="http://www.w3.org/2000/svg" xmlns:xlink="http://www.w3.org/1999/xlink" x="0px" y="0px"
	 viewBox="0 0 60 60" style="enable-background:new 0 0 60 60;" xml:space="preserve">
<g>
	<path d="M58,38h2v-5H39v-3h-8v-1h27V0H2v29h27v1h-8v3H0v5h2v14H0v5h2v2c0,0.553,0.447,1,1,1h3c0.334,0,0.646-0.167,0.832-0.445
		L8.535,57h42.93l1.703,2.555C53.354,59.833,53.666,60,54,60h3c0.553,0,1-0.447,1-1v-2h2v-5h-2V38z M56,2v22H4V2H56z M4,26h52v1H4
		V26z M23,32h14v1H23V32z M2,35h19h18h19v1h-1H3H2V35z M56,38v6H4v-6H56z M5.465,58H4v-1h2.132L5.465,58z M56,58h-1.465l-0.667-1H56
		V58z M58,55h-1h-5H8H3H2v-1h1h54h1V55z M4,52v-6h52v6H4z"/>
	<path d="M29,43h2c0.553,0,1-0.447,1-1s-0.447-1-1-1h-2c-0.553,0-1,0.447-1,1S28.447,43,29,43z"/>
	<path d="M31,47h-2c-0.553,0-1,0.447-1,1s0.447,1,1,1h2c0.553,0,1-0.447,1-1S31.553,47,31,47z"/>
</g>
<g>
</g>
<g>
</g>
<g>
</g>
<g>
</g>
<g>
</g>
<g>
</g>
<g>
</g>
<g>
</g>
<g>
</g>
<g>
</g>
<g>
</g>
<g>
</g>
<g>
</g>
<g>
</g>
<g>
</g>
</svg>
