<?xml version="1.0" encoding="iso-8859-1"?>
<!-- Generator: Adobe Illustrator 18.0.0, SVG Export Plug-In . SVG Version: 6.00 Build 0)  -->
<!DOCTYPE svg PUBLIC "-//W3C//DTD SVG 1.1//EN" "http://www.w3.org/Graphics/SVG/1.1/DTD/svg11.dtd">
<svg version="1.1" id="Capa_1" xmlns="http://www.w3.org/2000/svg" xmlns:xlink="http://www.w3.org/1999/xlink" x="0px" y="0px"
	 viewBox="0 0 59 59" style="enable-background:new 0 0 59 59;" xml:space="preserve">
<g>
	<path d="M57.5,33H35.316c0.112-0.314,0.184-0.648,0.184-1c0-1.654-1.346-3-3-3h-2v-2h23V0h-48v27h23v2h-2c-1.654,0-3,1.346-3,3
		c0,0.352,0.072,0.686,0.184,1H1.5v18h2.876c-0.208,0.727-0.263,1.45-0.117,2.178c0.279,1.431-0.147,2.646-1.427,4.068l-0.077,0.086
		c-0.264,0.294-0.33,0.715-0.169,1.075S3.105,59,3.5,59h0.659c1.566,0,3.011-0.647,4.179-1.874c1.173-1.23,1.948-2.984,1.887-4.266
		c-0.033-0.674,0.094-1.286,0.374-1.86h37.802c0.28,0.575,0.407,1.187,0.374,1.861c-0.062,1.28,0.714,3.034,1.887,4.265
		C51.83,58.353,53.274,59,54.841,59H55.5c0.395,0,0.752-0.232,0.913-0.593s0.095-0.781-0.169-1.075l-0.078-0.087
		c-1.278-1.421-1.705-2.637-1.411-4.139c0.137-0.683,0.08-1.389-0.128-2.106H57.5V33z M7.5,5h44v17h-44V5z M51.5,2v1h-44V2H51.5z
		 M7.5,24h44v1h-44V24z M25.5,32c0-0.552,0.448-1,1-1h6c0.552,0,1,0.448,1,1s-0.448,1-1,1h-6C25.948,33,25.5,32.552,25.5,32z
		 M8.227,52.957c0.026,0.532-0.381,1.787-1.336,2.79c-0.295,0.309-0.697,0.649-1.206,0.897c0.63-1.246,0.797-2.523,0.521-3.933
		C6.1,52.185,6.191,51.62,6.485,51h1.969C8.27,51.623,8.193,52.277,8.227,52.957z M52.777,52.795
		c-0.264,1.353-0.095,2.609,0.534,3.849c-0.507-0.249-0.908-0.589-1.202-0.896c-0.955-1.003-1.362-2.258-1.336-2.789
		c0.033-0.681-0.043-1.335-0.228-1.958h1.968C52.808,51.623,52.896,52.2,52.777,52.795z M55.5,49h-2.393h-4.12H10.013h-4.12H3.5V35
		h23h6h23V49z"/>
	<path d="M5.5,47h29h19V37h-19h-29V47z M51.5,39v6h-15v-6H51.5z M7.5,39h27v6h-27V39z"/>
</g>
<g>
</g>
<g>
</g>
<g>
</g>
<g>
</g>
<g>
</g>
<g>
</g>
<g>
</g>
<g>
</g>
<g>
</g>
<g>
</g>
<g>
</g>
<g>
</g>
<g>
</g>
<g>
</g>
<g>
</g>
</svg>
