<?xml version="1.0" encoding="iso-8859-1"?>
<!-- Generator: Adobe Illustrator 18.0.0, SVG Export Plug-In . SVG Version: 6.00 Build 0)  -->
<!DOCTYPE svg PUBLIC "-//W3C//DTD SVG 1.1//EN" "http://www.w3.org/Graphics/SVG/1.1/DTD/svg11.dtd">
<svg version="1.1" id="Capa_1" xmlns="http://www.w3.org/2000/svg" xmlns:xlink="http://www.w3.org/1999/xlink" x="0px" y="0px"
	 viewBox="0 0 58 58" style="enable-background:new 0 0 58 58;" xml:space="preserve">
<path d="M48,29c0-1.654-1.346-3-3-3h-1V10h1c0.552,0,1-0.447,1-1V4c0-0.553-0.448-1-1-1H33V1c0-0.553-0.448-1-1-1h-6
	c-0.552,0-1,0.447-1,1v2H13c-0.552,0-1,0.447-1,1v5c0,0.553,0.448,1,1,1h1v16h-1c-1.654,0-3,1.346-3,3c0,1.302,0.839,2.402,2,2.816
	v7.223C12,45.083,16.917,50,22.96,50H23v7c0,0.553,0.448,1,1,1h10c0.552,0,1-0.447,1-1v-7h0.04C41.083,50,46,45.083,46,39.039
	v-7.223C47.161,31.402,48,30.302,48,29z M27,2h4v1h-4V2z M14,5h12h6h12v3h-1H15h-1V5z M16,10h26v16H16V10z M33,56h-8v-6h8V56z
	 M44,39.039C44,43.98,39.98,48,35.04,48H34H24h-1.04C18.02,48,14,43.98,14,39.039V32h30V39.039z M45,30H13c-0.551,0-1-0.448-1-1
	s0.449-1,1-1h2h28h2c0.551,0,1,0.448,1,1S45.551,30,45,30z"/>
<g>
</g>
<g>
</g>
<g>
</g>
<g>
</g>
<g>
</g>
<g>
</g>
<g>
</g>
<g>
</g>
<g>
</g>
<g>
</g>
<g>
</g>
<g>
</g>
<g>
</g>
<g>
</g>
<g>
</g>
</svg>
