<?xml version="1.0" encoding="iso-8859-1"?>
<!-- Generator: Adobe Illustrator 18.0.0, SVG Export Plug-In . SVG Version: 6.00 Build 0)  -->
<!DOCTYPE svg PUBLIC "-//W3C//DTD SVG 1.1//EN" "http://www.w3.org/Graphics/SVG/1.1/DTD/svg11.dtd">
<svg version="1.1" id="Capa_1" xmlns="http://www.w3.org/2000/svg" xmlns:xlink="http://www.w3.org/1999/xlink" x="0px" y="0px"
	 viewBox="0 0 60.007 60.007" style="enable-background:new 0 0 60.007 60.007;" xml:space="preserve">
<g>
	<path d="M27.004,53.007h-14c-0.552,0-1,0.447-1,1s0.448,1,1,1h14c0.552,0,1-0.447,1-1S27.556,53.007,27.004,53.007z"/>
	<path d="M27.004,49.007h-14c-0.552,0-1,0.447-1,1s0.448,1,1,1h14c0.552,0,1-0.447,1-1S27.556,49.007,27.004,49.007z"/>
	<path d="M20.004,23.007c-5.514,0-10,4.935-10,11s4.486,11,10,11s10-4.935,10-11S25.518,23.007,20.004,23.007z M20.004,43.007
		c-4.411,0-8-4.037-8-9s3.589-9,8-9s8,4.037,8,9S24.415,43.007,20.004,43.007z"/>
	<path d="M20.004,27.007c-2.206,0-4,1.794-4,4s1.794,4,4,4s4-1.794,4-4S22.209,27.007,20.004,27.007z M20.004,33.007
		c-1.103,0-2-0.897-2-2c0-1.103,0.897-2,2-2s2,0.897,2,2C22.004,32.11,21.107,33.007,20.004,33.007z"/>
	<path d="M59.004,58.007h-1v-3h-4v-4h-2v-15v-6v-3.414l3.028-3.028c2.562-2.561,3.972-5.966,3.972-9.589v-2.969v-2V5.901
		c0-1.886-0.912-3.61-2.438-4.612c-2.316-1.521-4.918-1.703-7.141-0.505c-2.11,1.14-3.421,3.332-3.421,5.724v17.601l-10,10v-0.101
		c0-6.7-4.144-12.443-10-14.822v-1.178c0-3.309-2.691-6-6-6s-6,2.691-6,6v1.178c-4.112,1.671-7.365,5.003-8.946,9.159
		c-3.12,1.783-5.054,5.055-5.054,8.663c0,3.155,1.494,6.087,4,7.975v3.025v2v10h6v-2h20v2h6v-10v-2v-5.414l10-10v3.414v15h-2v4h-4v3
		h-1c-0.552,0-1,0.447-1,1s0.448,1,1,1h1h18h1c0.552,0,1-0.447,1-1S59.556,58.007,59.004,58.007z M50.004,34.007h-2v-2h2V34.007z
		 M53.004,9.007v2v1.312c0,1.617-0.351,3.204-1,4.667V6.507c0-0.275,0.224-0.5,0.5-0.5s0.5,0.225,0.5,0.5V9.007z M57.004,13.976
		c0,3.088-1.203,5.991-3.386,8.175l-1.614,1.614v-2.953c1.937-2.409,3-5.41,3-8.493v-1.312h2V13.976z M48.004,6.507
		c0-1.655,0.909-3.174,2.371-3.964c1.554-0.839,3.411-0.687,5.093,0.417c0.948,0.622,1.536,1.749,1.536,2.94v3.106h-2v-2.5
		c0-1.379-1.122-2.5-2.5-2.5s-2.5,1.121-2.5,2.5v13.576v8.51v1.414h-2v-7.899V6.507z M16.004,18.527v-0.52c0-2.206,1.794-4,4-4
		s4,1.794,4,4v0.52c-0.081-0.021-0.163-0.036-0.244-0.056c-0.246-0.06-0.49-0.122-0.74-0.169c-0.395-0.077-0.791-0.135-1.189-0.182
		c-0.141-0.016-0.283-0.029-0.426-0.041c-0.467-0.042-0.934-0.071-1.402-0.071s-0.935,0.029-1.402,0.071
		c-0.142,0.012-0.284,0.025-0.426,0.041c-0.397,0.047-0.794,0.105-1.189,0.182c-0.25,0.048-0.494,0.11-0.74,0.169
		C16.166,18.491,16.084,18.505,16.004,18.527z M2.004,37.007c0-2.092,0.808-4.049,2.204-5.512c-0.023,0.144-0.033,0.288-0.053,0.432
		c-0.028,0.214-0.059,0.426-0.078,0.643c-0.044,0.478-0.073,0.957-0.073,1.437v8.29C2.728,40.853,2.004,38.981,2.004,37.007z
		 M6.004,58.007v-8h2v8H6.004z M34.004,58.007h-2v-8h2V58.007z M34.004,48.007h-4v8h-20v-8h-4v-1.645V34.007
		c0-0.432,0.026-0.857,0.065-1.279c0.021-0.227,0.056-0.453,0.089-0.679c0.025-0.174,0.049-0.349,0.08-0.521
		c0.055-0.3,0.12-0.599,0.196-0.896c0.02-0.079,0.04-0.158,0.061-0.237c0.091-0.337,0.193-0.673,0.31-1.007
		c1.404-4.001,4.571-7.17,8.57-8.578c0.341-0.12,0.685-0.224,1.03-0.317c0.064-0.017,0.129-0.033,0.193-0.05
		c0.319-0.081,0.639-0.151,0.96-0.208c0.121-0.021,0.244-0.038,0.367-0.056c0.282-0.043,0.563-0.084,0.846-0.11
		c0.218-0.019,0.44-0.024,0.661-0.033c0.383-0.016,0.766-0.016,1.149,0c0.221,0.009,0.443,0.014,0.661,0.033
		c0.282,0.026,0.564,0.066,0.846,0.11c0.122,0.018,0.246,0.035,0.367,0.056c0.321,0.058,0.641,0.128,0.959,0.208
		c0.065,0.016,0.129,0.033,0.193,0.05c0.345,0.093,0.689,0.197,1.03,0.317c5.448,1.918,9.369,7.101,9.369,13.197v2.101v8.485V48.007
		z M36.004,36.936l10-10v2.829l-10,10V36.936z M48.004,36.007h2v15h-2V36.007z M46.004,53.007h6v2h-6V53.007z M42.004,58.007v-1h2
		h10h2v1H42.004z"/>
</g>
<g>
</g>
<g>
</g>
<g>
</g>
<g>
</g>
<g>
</g>
<g>
</g>
<g>
</g>
<g>
</g>
<g>
</g>
<g>
</g>
<g>
</g>
<g>
</g>
<g>
</g>
<g>
</g>
<g>
</g>
</svg>
