<?xml version="1.0" encoding="iso-8859-1"?>
<!-- Generator: Adobe Illustrator 18.0.0, SVG Export Plug-In . SVG Version: 6.00 Build 0)  -->
<!DOCTYPE svg PUBLIC "-//W3C//DTD SVG 1.1//EN" "http://www.w3.org/Graphics/SVG/1.1/DTD/svg11.dtd">
<svg version="1.1" id="Capa_1" xmlns="http://www.w3.org/2000/svg" xmlns:xlink="http://www.w3.org/1999/xlink" x="0px" y="0px"
	 viewBox="0 0 60 60" style="enable-background:new 0 0 60 60;" xml:space="preserve">
<path d="M59,32h-6c-0.553,0-1,0.447-1,1v1h-8v-7c0-0.553-0.447-1-1-1h-4v-3h6c0.553,0,1-0.447,1-1V6c0-0.553-0.447-1-1-1h-1V3
	c0-0.553-0.447-1-1-1H19c-0.553,0-1,0.447-1,1v2h-1c-0.553,0-1,0.447-1,1v16c0,0.553,0.447,1,1,1h6v3h-4c-0.553,0-1,0.447-1,1v7H8
	v-1c0-0.553-0.447-1-1-1H1c-0.553,0-1,0.447-1,1v6v6v6v6c0,0.553,0.447,1,1,1h6c0.553,0,1-0.447,1-1v-1h44v1c0,0.553,0.447,1,1,1h6
	c0.553,0,1-0.447,1-1v-6v-6v-6v-6C60,32.447,59.553,32,59,32z M58,44h-4v-4h4V44z M54,46h4v4h-4V46z M54,34h4v4h-4v-3V34z M34,21V7
	h2v14H34z M30,21V7h2v14H30z M26,21V7h2v14H26z M22,21V7h2v14H22z M38,7h2v14h-2V7z M44,21h-2V7h1h1V21z M20,4h22v1H20V4z M18,7h1h1
	v14h-2V7z M25,23h12v3H25V23z M6,44H2v-4h4V44z M2,46h4v4H2V46z M2,34h4v1v3H2V34z M6,56H2v-4h4v3V56z M8,54v-3v-6v-6v-3h11
	c0.553,0,1-0.447,1-1v-7h4h14h4v7c0,0.553,0.447,1,1,1h9v3v6v6v3H8z M58,56h-4v-1v-3h4V56z"/>
<g>
</g>
<g>
</g>
<g>
</g>
<g>
</g>
<g>
</g>
<g>
</g>
<g>
</g>
<g>
</g>
<g>
</g>
<g>
</g>
<g>
</g>
<g>
</g>
<g>
</g>
<g>
</g>
<g>
</g>
</svg>
