<?xml version="1.0" encoding="iso-8859-1"?>
<!-- Generator: Adobe Illustrator 18.0.0, SVG Export Plug-In . SVG Version: 6.00 Build 0)  -->
<!DOCTYPE svg PUBLIC "-//W3C//DTD SVG 1.1//EN" "http://www.w3.org/Graphics/SVG/1.1/DTD/svg11.dtd">
<svg version="1.1" id="Capa_1" xmlns="http://www.w3.org/2000/svg" xmlns:xlink="http://www.w3.org/1999/xlink" x="0px" y="0px"
	 viewBox="0 0 60 60" style="enable-background:new 0 0 60 60;" xml:space="preserve">
<g>
	<path d="M20,32c0.552,0,1-0.447,1-1v-5c0-0.553-0.448-1-1-1s-1,0.447-1,1v5C19,31.553,19.448,32,20,32z"/>
	<path d="M59,5.172L48.522,3.185C47.684,1.259,45.823,0,43.687,0H6.313C3.384,0,1,2.384,1,5.313V56h2v4h4.618l2-4h32.764l2,4H49v-4
		v-2v-0.051l10,2.307V5.172z M6.382,58H5v-2h2.382L6.382,58z M47,58h-1.382l-1-2H47V58z M41.382,54H10.618H3V5.313
		C3,3.486,4.486,2,6.313,2h37.374c1.02,0,1.943,0.461,2.553,1.22c-0.025,0.009-0.047,0.024-0.072,0.034
		c-0.06,0.024-0.116,0.054-0.174,0.081c-0.129,0.061-0.254,0.127-0.373,0.203c-0.058,0.036-0.114,0.073-0.169,0.112
		c-0.124,0.089-0.24,0.186-0.351,0.289c-0.033,0.031-0.069,0.056-0.1,0.088C44.374,3.394,43.507,3,42.549,3H26h-2H7.451
		C5.548,3,4,4.548,4,6.451V53h20h2h18.884L47,53.488V54H41.382z M26,51v-5h18v5H26z M39,16c-0.552,0-1,0.447-1,1v1h-1v-1
		c0-0.553-0.448-1-1-1s-1,0.447-1,1v1h-1v-1c0-0.553-0.448-1-1-1s-1,0.447-1,1v1h-1v-1c0-0.553-0.448-1-1-1s-1,0.447-1,1v1h-3v-3h18
		v3h-4v-1C40,16.447,39.552,16,39,16z M26,20h3v2c0,0.553,0.448,1,1,1s1-0.447,1-1v-2h1v2c0,0.553,0.448,1,1,1s1-0.447,1-1v-2h1v2
		c0,0.553,0.448,1,1,1s1-0.447,1-1v-2h1v2c0,0.553,0.448,1,1,1s1-0.447,1-1v-2h4v24H26V20z M44,13H26V5h16.549
		C43.349,5,44,5.651,44,6.451V13z M24,51H6V6.451C6,5.651,6.651,5,7.451,5H24V51z M57,53.743l-8-1.847l0,0l-3-0.692V6.451
		c0-0.187,0.037-0.365,0.102-0.529c0.001-0.004,0.002-0.008,0.004-0.012c0.064-0.16,0.158-0.304,0.272-0.43
		c0.005-0.006,0.009-0.013,0.014-0.018c0.114-0.122,0.25-0.222,0.399-0.299c0.009-0.005,0.017-0.011,0.027-0.016
		c0.15-0.073,0.315-0.118,0.487-0.135c0.011-0.001,0.021-0.004,0.032-0.005l0.323,0.092l0.216,0L57,6.828V53.743z"/>
</g>
<g>
</g>
<g>
</g>
<g>
</g>
<g>
</g>
<g>
</g>
<g>
</g>
<g>
</g>
<g>
</g>
<g>
</g>
<g>
</g>
<g>
</g>
<g>
</g>
<g>
</g>
<g>
</g>
<g>
</g>
</svg>
