<?xml version="1.0" encoding="iso-8859-1"?>
<!-- Generator: Adobe Illustrator 18.0.0, SVG Export Plug-In . SVG Version: 6.00 Build 0)  -->
<!DOCTYPE svg PUBLIC "-//W3C//DTD SVG 1.1//EN" "http://www.w3.org/Graphics/SVG/1.1/DTD/svg11.dtd">
<svg version="1.1" id="Capa_1" xmlns="http://www.w3.org/2000/svg" xmlns:xlink="http://www.w3.org/1999/xlink" x="0px" y="0px"
	 viewBox="0 0 60 60" style="enable-background:new 0 0 60 60;" xml:space="preserve">
<g>
	<path d="M12,46c0-0.553-0.447-1-1-1h-1v-5h3V30H5v10h3v5H7c-0.553,0-1,0.447-1,1s0.447,1,1,1H1v11h1v1c0,0.553,0.447,1,1,1
		s1-0.447,1-1v-1h10v1c0,0.553,0.447,1,1,1s1-0.447,1-1v-1h1V47h-6C11.553,47,12,46.553,12,46z M7,32h4v6H7V32z M15,49v7H3v-7H15z"
		/>
	<path d="M21,0v58h2v1c0,0.553,0.447,1,1,1s1-0.447,1-1v-1h10h7h14v1c0,0.553,0.447,1,1,1s1-0.447,1-1v-1h1V46V33v-9V11V0H21z
		 M31,20.414L32.586,22h-3.172L31,20.414z M23,15v-2h22v2H23z M47,13h10v9H47V13z M45,2v9H23V2H45z M35,56c-1.103,0-2-0.897-2-2
		s0.897-2,2-2h4c0.553,0,1-0.447,1-1s-0.447-1-1-1h-4c-2.206,0-4,1.794-4,4c0,0.732,0.212,1.409,0.556,2H23V17h7v1.586l-3.706,3.706
		c-0.093,0.092-0.166,0.203-0.217,0.326c-0.101,0.244-0.101,0.52,0,0.764c0.101,0.245,0.296,0.44,0.541,0.541
		C26.74,23.974,26.87,24,27,24h8c0.13,0,0.26-0.026,0.382-0.077c0.245-0.101,0.44-0.296,0.541-0.541
		c0.101-0.244,0.101-0.519,0-0.764c-0.051-0.123-0.125-0.234-0.217-0.327L32,18.586V17h13v7v9v13v10h-3H35z M47,35h10v9H47V35z
		 M57,56H47V46h10V56z M57,33H47v-9h10V33z M47,11V2h10v9H47z"/>
	<path d="M39,47h-7c-0.553,0-1,0.447-1,1s0.447,1,1,1h7c1.103,0,2,0.897,2,2s-0.897,2-2,2h-4c-0.553,0-1,0.447-1,1s0.447,1,1,1h4
		c2.206,0,4-1.794,4-4S41.206,47,39,47z"/>
</g>
<g>
</g>
<g>
</g>
<g>
</g>
<g>
</g>
<g>
</g>
<g>
</g>
<g>
</g>
<g>
</g>
<g>
</g>
<g>
</g>
<g>
</g>
<g>
</g>
<g>
</g>
<g>
</g>
<g>
</g>
</svg>
