<?xml version="1.0" encoding="iso-8859-1"?>
<!-- Generator: Adobe Illustrator 18.0.0, SVG Export Plug-In . SVG Version: 6.00 Build 0)  -->
<!DOCTYPE svg PUBLIC "-//W3C//DTD SVG 1.1//EN" "http://www.w3.org/Graphics/SVG/1.1/DTD/svg11.dtd">
<svg version="1.1" id="Capa_1" xmlns="http://www.w3.org/2000/svg" xmlns:xlink="http://www.w3.org/1999/xlink" x="0px" y="0px"
	 viewBox="0 0 60 60" style="enable-background:new 0 0 60 60;" xml:space="preserve">
<g>
	<path d="M49.33,0H38H22H10.67C8.646,0,7,1.646,7,3.67V14v42.33C7,58.354,8.646,60,10.67,60h38.66c2.023,0,3.67-1.646,3.67-3.67V14
		V3.67C53,1.646,51.354,0,49.33,0z M49.33,2C50.251,2,51,2.749,51,3.67V12H38V2H49.33z M36,2v10H24V2H36z M9,3.67
		C9,2.749,9.749,2,10.67,2H22v10H9V3.67z M51,56.33c0,0.921-0.749,1.67-1.67,1.67H10.67C9.749,58,9,57.251,9,56.33V14h13h16h13
		V56.33z"/>
	<path d="M16,3c-2.206,0-4,1.794-4,4s1.794,4,4,4s4-1.794,4-4S18.206,3,16,3z M16,9c-1.103,0-2-0.897-2-2s0.897-2,2-2s2,0.897,2,2
		S17.103,9,16,9z"/>
	<path d="M44,11c2.206,0,4-1.794,4-4s-1.794-4-4-4s-4,1.794-4,4S41.794,11,44,11z M44,5c1.103,0,2,0.897,2,2s-0.897,2-2,2
		s-2-0.897-2-2S42.897,5,44,5z"/>
	<path d="M12,36c0,5.402,2.403,10.243,6.184,13.545c0.098,0.146,0.223,0.268,0.382,0.346C21.678,52.457,25.662,54,30,54
		c9.925,0,18-8.075,18-18s-8.075-18-18-18S12,26.075,12,36z M46,36c0,8.822-7.178,16-16,16s-16-7.178-16-16s7.178-16,16-16
		S46,27.178,46,36z"/>
	<path d="M16,36c0,2.66,0.759,5.14,2.053,7.26c0.052,0.19,0.15,0.356,0.294,0.483c0.367,0.55,0.779,1.065,1.218,1.556l-0.027,0.038
		l0.601,0.598c1.611,1.599,3.545,2.753,5.651,3.416c0.02,0.006,0.038,0.014,0.058,0.021c0.378,0.117,0.763,0.212,1.151,0.297
		c0.068,0.015,0.133,0.036,0.201,0.05c0.36,0.073,0.725,0.123,1.092,0.167c0.1,0.012,0.196,0.034,0.297,0.044
		C29.054,49.975,29.525,50,30,50c0.27,0,0.533-0.025,0.799-0.041C30.866,49.974,30.929,50,31,50c0.119,0,0.229-0.03,0.335-0.068
		C38.43,49.258,44,43.269,44,36c0-7.72-6.28-14-14-14S16,28.28,16,36z M24.124,43.457C24.291,43.775,24.615,44,25,44
		c0.552,0,1-0.448,1-1c0-0.156-0.043-0.3-0.107-0.432C26.878,42.204,27.926,42,29,42h2h1c2.516,0,4.918-0.675,7.02-1.9
		C39.073,40.603,39.483,41,40,41c0.552,0,1-0.448,1-1c0-0.38-0.22-0.699-0.532-0.869c0.472-0.361,0.93-0.742,1.357-1.166
		c-0.013,0.08-0.022,0.162-0.037,0.241c-0.029,0.156-0.063,0.312-0.098,0.466c-0.049,0.216-0.104,0.43-0.165,0.642
		c-0.044,0.152-0.089,0.304-0.139,0.453c-0.069,0.209-0.146,0.415-0.227,0.618c-0.057,0.144-0.112,0.288-0.174,0.429
		c-0.091,0.206-0.191,0.406-0.292,0.606c-0.066,0.13-0.129,0.262-0.2,0.39c-0.119,0.213-0.249,0.419-0.38,0.624
		c-0.067,0.105-0.128,0.213-0.198,0.315c-0.196,0.287-0.405,0.566-0.625,0.834c-0.012,0.015-0.022,0.031-0.035,0.046
		c-0.233,0.281-0.479,0.551-0.736,0.81c-0.086,0.087-0.18,0.167-0.268,0.251c-0.177,0.168-0.354,0.335-0.541,0.492
		c-0.111,0.093-0.227,0.179-0.341,0.268c-0.175,0.137-0.351,0.272-0.534,0.399c-0.126,0.087-0.255,0.169-0.384,0.252
		c-0.181,0.116-0.365,0.229-0.552,0.336c-0.136,0.077-0.275,0.151-0.415,0.223c-0.191,0.098-0.384,0.192-0.58,0.28
		c-0.144,0.065-0.288,0.128-0.435,0.187c-0.202,0.082-0.408,0.155-0.616,0.226c-0.148,0.05-0.295,0.101-0.445,0.146
		c-0.218,0.065-0.441,0.119-0.665,0.171c-0.145,0.034-0.289,0.072-0.436,0.101c-0.249,0.049-0.503,0.083-0.757,0.116
		c-0.127,0.016-0.251,0.04-0.38,0.052C30.783,47.978,30.394,48,30,48c-0.392,0-0.779-0.022-1.162-0.059
		c-0.11-0.01-0.218-0.03-0.328-0.044c-0.276-0.034-0.55-0.073-0.82-0.125c-0.114-0.022-0.225-0.051-0.338-0.076
		c-0.266-0.06-0.53-0.125-0.789-0.203c-0.101-0.03-0.201-0.064-0.301-0.096c-0.27-0.089-0.536-0.185-0.797-0.292
		c-0.084-0.034-0.168-0.07-0.251-0.106c-0.273-0.119-0.54-0.249-0.802-0.387c-0.069-0.036-0.138-0.072-0.207-0.11
		c-0.27-0.15-0.532-0.311-0.789-0.48c-0.058-0.038-0.117-0.074-0.174-0.113c-0.106-0.073-0.205-0.155-0.308-0.23
		c-0.107-0.31-0.357-0.538-0.676-0.626C22.808,44.431,23.439,43.9,24.124,43.457z M41.948,34.974
		c-0.186,0.105-0.361,0.234-0.499,0.411C39.157,38.317,35.713,40,32,40h-3c-3.144,0-6.126,1.362-8.202,3.688
		C19.054,41.604,18,38.924,18,36c0-6.617,5.383-12,12-12C36.27,24,41.425,28.836,41.948,34.974z"/>
	<path d="M21.04,31.555c-0.246,0.495-0.044,1.095,0.451,1.341C21.633,32.967,21.785,33,21.935,33c0.368,0,0.722-0.203,0.896-0.555
		C24.193,29.703,26.94,28,30,28c0.552,0,1-0.447,1-1s-0.448-1-1-1C26.176,26,22.743,28.129,21.04,31.555z"/>
	<circle cx="21" cy="35" r="1"/>
	<circle cx="28" cy="46" r="1"/>
	<circle cx="31" cy="43" r="1"/>
	<circle cx="37" cy="43" r="1"/>
	<circle cx="34" cy="46" r="1"/>
</g>
<g>
</g>
<g>
</g>
<g>
</g>
<g>
</g>
<g>
</g>
<g>
</g>
<g>
</g>
<g>
</g>
<g>
</g>
<g>
</g>
<g>
</g>
<g>
</g>
<g>
</g>
<g>
</g>
<g>
</g>
</svg>
