<?xml version="1.0" encoding="iso-8859-1"?>
<!-- Generator: Adobe Illustrator 18.0.0, SVG Export Plug-In . SVG Version: 6.00 Build 0)  -->
<!DOCTYPE svg PUBLIC "-//W3C//DTD SVG 1.1//EN" "http://www.w3.org/Graphics/SVG/1.1/DTD/svg11.dtd">
<svg version="1.1" id="Capa_1" xmlns="http://www.w3.org/2000/svg" xmlns:xlink="http://www.w3.org/1999/xlink" x="0px" y="0px"
	 viewBox="0 0 60 60" style="enable-background:new 0 0 60 60;" xml:space="preserve">
<g>
	<path d="M59,0.5h-5h-2h-2h-2H12h-2H8H6H1c-0.552,0-1,0.447-1,1s0.448,1,1,1v57h5h2h4v-15h36v15h4h2h5v-57c0.552,0,1-0.447,1-1
		S59.552,0.5,59,0.5z M48,2.5v2H33h-6H12v-2H48z M48,39.5H12v-2h15h6h15V39.5z M31,35.5h-2v-29h2V35.5z M27,35.5H12v-29h15V35.5z
		 M33,35.5v-29h15v29H33z M6,57.5H3v-55h3V57.5z M10,57.5H8v-55h2v4v29v4v2v3V57.5z M12,42.5v-1h36v1H12z M52,57.5h-2v-13v-3v-2v-4
		v-29v-4h2V57.5z M57,57.5h-3v-55h3V57.5z"/>
	<path d="M15,13.5c0.256,0,0.512-0.098,0.707-0.293l4-4c0.391-0.391,0.391-1.023,0-1.414s-1.023-0.391-1.414,0l-4,4
		c-0.391,0.391-0.391,1.023,0,1.414C14.488,13.402,14.744,13.5,15,13.5z"/>
	<path d="M15,18.5c0.256,0,0.512-0.098,0.707-0.293l2-2c0.391-0.391,0.391-1.023,0-1.414s-1.023-0.391-1.414,0l-2,2
		c-0.391,0.391-0.391,1.023,0,1.414C14.488,18.402,14.744,18.5,15,18.5z"/>
	<path d="M19.71,14.21C19.89,14.02,20,13.76,20,13.5s-0.11-0.521-0.29-0.71c-0.37-0.37-1.05-0.37-1.42,0
		C18.11,12.979,18,13.229,18,13.5c0,0.26,0.11,0.52,0.29,0.71c0.19,0.18,0.45,0.29,0.71,0.29C19.26,14.5,19.52,14.39,19.71,14.21z"
		/>
	<path d="M20.293,12.207C20.488,12.402,20.744,12.5,21,12.5s0.512-0.098,0.707-0.293l3-3c0.391-0.391,0.391-1.023,0-1.414
		s-1.023-0.391-1.414,0l-3,3C19.902,11.184,19.902,11.816,20.293,12.207z"/>
	<path d="M23.293,12.793l-9,9c-0.391,0.391-0.391,1.023,0,1.414C14.488,23.402,14.744,23.5,15,23.5s0.512-0.098,0.707-0.293l9-9
		c0.391-0.391,0.391-1.023,0-1.414S23.684,12.402,23.293,12.793z"/>
	<path d="M45.293,28.793l-4,4c-0.391,0.391-0.391,1.023,0,1.414C41.488,34.402,41.744,34.5,42,34.5s0.512-0.098,0.707-0.293l4-4
		c0.391-0.391,0.391-1.023,0-1.414S45.684,28.402,45.293,28.793z"/>
	<path d="M45.293,23.793l-2,2c-0.391,0.391-0.391,1.023,0,1.414C43.488,27.402,43.744,27.5,44,27.5s0.512-0.098,0.707-0.293l2-2
		c0.391-0.391,0.391-1.023,0-1.414S45.684,23.402,45.293,23.793z"/>
	<path d="M41.29,27.79C41.11,27.979,41,28.24,41,28.5s0.11,0.52,0.29,0.71c0.19,0.18,0.45,0.29,0.71,0.29
		c0.27,0,0.52-0.11,0.71-0.29C42.89,29.02,43,28.76,43,28.5s-0.11-0.521-0.29-0.71C42.34,27.42,41.67,27.42,41.29,27.79z"/>
	<path d="M40.707,29.793c-0.391-0.391-1.023-0.391-1.414,0l-3,3c-0.391,0.391-0.391,1.023,0,1.414
		C36.488,34.402,36.744,34.5,37,34.5s0.512-0.098,0.707-0.293l3-3C41.098,30.816,41.098,30.184,40.707,29.793z"/>
	<path d="M37,29.5c0.256,0,0.512-0.098,0.707-0.293l9-9c0.391-0.391,0.391-1.023,0-1.414s-1.023-0.391-1.414,0l-9,9
		c-0.391,0.391-0.391,1.023,0,1.414C36.488,29.402,36.744,29.5,37,29.5z"/>
</g>
<g>
</g>
<g>
</g>
<g>
</g>
<g>
</g>
<g>
</g>
<g>
</g>
<g>
</g>
<g>
</g>
<g>
</g>
<g>
</g>
<g>
</g>
<g>
</g>
<g>
</g>
<g>
</g>
<g>
</g>
</svg>
