<?xml version="1.0" encoding="iso-8859-1"?>
<!-- Generator: Adobe Illustrator 18.0.0, SVG Export Plug-In . SVG Version: 6.00 Build 0)  -->
<!DOCTYPE svg PUBLIC "-//W3C//DTD SVG 1.1//EN" "http://www.w3.org/Graphics/SVG/1.1/DTD/svg11.dtd">
<svg version="1.1" id="Capa_1" xmlns="http://www.w3.org/2000/svg" xmlns:xlink="http://www.w3.org/1999/xlink" x="0px" y="0px"
	 viewBox="0 0 59 59" style="enable-background:new 0 0 59 59;" xml:space="preserve">
<g>
	<path d="M53.5,53V24c0-13.233-10.767-24-24-24s-24,10.767-24,24v29h-2v6h52v-6H53.5z M7.5,24c0-12.131,9.869-22,22-22
		s22,9.869,22,22v29h-44V24z M53.5,57h-48v-2h48V57z"/>
	<path d="M29.5,3C18.596,3,9.612,11.356,8.601,22H8.5v2v12v2v14h20h2h20V38v-2V24v-2h-0.101C49.388,11.356,40.404,3,29.5,3z
		 M48.393,22H31.914l11.212-11.212C46.008,13.76,47.936,17.661,48.393,22z M41.664,9.422L29.5,21.586L17.336,9.422
		C20.634,6.665,24.875,5,29.5,5S38.366,6.665,41.664,9.422z M15.874,10.788L27.086,22H10.607
		C11.064,17.661,12.992,13.76,15.874,10.788z M10.5,24h18v12h-18V24z M10.5,50V38h18v12H10.5z M48.5,50h-18V38h18V50z M30.5,36V24
		h18v12H30.5z"/>
	<path d="M27.793,17.707C27.988,17.902,28.244,18,28.5,18s0.512-0.098,0.707-0.293l2-2c0.391-0.391,0.391-1.023,0-1.414
		s-1.023-0.391-1.414,0l-2,2C27.402,16.684,27.402,17.316,27.793,17.707z"/>
	<circle cx="32.5" cy="13" r="1"/>
	<circle cx="28.5" cy="13" r="1"/>
	<path d="M13.793,27.293l-2,2c-0.391,0.391-0.391,1.023,0,1.414C11.988,30.902,12.244,31,12.5,31s0.512-0.098,0.707-0.293l2-2
		c0.391-0.391,0.391-1.023,0-1.414S14.184,26.902,13.793,27.293z"/>
	<circle cx="16.5" cy="26" r="1"/>
	<circle cx="12.5" cy="26" r="1"/>
	<path d="M23.793,45.293l-2,2c-0.391,0.391-0.391,1.023,0,1.414C21.988,48.902,22.244,49,22.5,49s0.512-0.098,0.707-0.293l2-2
		c0.391-0.391,0.391-1.023,0-1.414S24.184,44.902,23.793,45.293z"/>
	<circle cx="26.5" cy="44" r="1"/>
	<circle cx="22.5" cy="44" r="1"/>
	<path d="M42.5,49c0.256,0,0.512-0.098,0.707-0.293l2-2c0.391-0.391,0.391-1.023,0-1.414s-1.023-0.391-1.414,0l-2,2
		c-0.391,0.391-0.391,1.023,0,1.414C41.988,48.902,42.244,49,42.5,49z"/>
	<circle cx="46.5" cy="44" r="1"/>
	<circle cx="42.5" cy="44" r="1"/>
	<path d="M43.793,27.293l-2,2c-0.391,0.391-0.391,1.023,0,1.414C41.988,30.902,42.244,31,42.5,31s0.512-0.098,0.707-0.293l2-2
		c0.391-0.391,0.391-1.023,0-1.414S44.184,26.902,43.793,27.293z"/>
	<circle cx="46.5" cy="26" r="1"/>
	<circle cx="42.5" cy="26" r="1"/>
</g>
<g>
</g>
<g>
</g>
<g>
</g>
<g>
</g>
<g>
</g>
<g>
</g>
<g>
</g>
<g>
</g>
<g>
</g>
<g>
</g>
<g>
</g>
<g>
</g>
<g>
</g>
<g>
</g>
<g>
</g>
</svg>
