<?xml version="1.0" encoding="iso-8859-1"?>
<!-- Generator: Adobe Illustrator 18.0.0, SVG Export Plug-In . SVG Version: 6.00 Build 0)  -->
<!DOCTYPE svg PUBLIC "-//W3C//DTD SVG 1.1//EN" "http://www.w3.org/Graphics/SVG/1.1/DTD/svg11.dtd">
<svg version="1.1" id="Capa_1" xmlns="http://www.w3.org/2000/svg" xmlns:xlink="http://www.w3.org/1999/xlink" x="0px" y="0px"
	 viewBox="0 0 60 60" style="enable-background:new 0 0 60 60;" xml:space="preserve">
<g>
	<path d="M60,6V0H0v6h2v48H0v6h60v-6h-2V6H60z M2,2h56v2H2V2z M58,58H2v-2h56V58z M56,54H4V6h52V54z"/>
	<path d="M29,31H6v21h23V31z M27,50H8V33h19V50z"/>
	<path d="M54,31H31v21h23V31z M52,50H33V33h19V50z"/>
	<path d="M54,8H31v21h23V8z M52,27H33V10h19V27z"/>
	<path d="M29,8H6v21h23V8z M27,27H8V10h19V27z"/>
	<path d="M10,17c0.256,0,0.512-0.098,0.707-0.293l4-4c0.391-0.391,0.391-1.023,0-1.414s-1.023-0.391-1.414,0l-4,4
		c-0.391,0.391-0.391,1.023,0,1.414C9.488,16.902,9.744,17,10,17z"/>
	<path d="M10,22c0.256,0,0.512-0.098,0.707-0.293l2-2c0.391-0.391,0.391-1.023,0-1.414s-1.023-0.391-1.414,0l-2,2
		c-0.391,0.391-0.391,1.023,0,1.414C9.488,21.902,9.744,22,10,22z"/>
	<path d="M13.29,16.29C13.11,16.479,13,16.74,13,17s0.11,0.52,0.29,0.71C13.48,17.89,13.74,18,14,18c0.26,0,0.52-0.11,0.71-0.29
		C14.89,17.52,15,17.26,15,17s-0.11-0.521-0.29-0.71C14.33,15.92,13.67,15.92,13.29,16.29z"/>
	<path d="M15.293,15.707C15.488,15.902,15.744,16,16,16s0.512-0.098,0.707-0.293l3-3c0.391-0.391,0.391-1.023,0-1.414
		s-1.023-0.391-1.414,0l-3,3C14.902,14.684,14.902,15.316,15.293,15.707z"/>
	<path d="M35,17c0.256,0,0.512-0.098,0.707-0.293l4-4c0.391-0.391,0.391-1.023,0-1.414s-1.023-0.391-1.414,0l-4,4
		c-0.391,0.391-0.391,1.023,0,1.414C34.488,16.902,34.744,17,35,17z"/>
	<path d="M35,22c0.256,0,0.512-0.098,0.707-0.293l2-2c0.391-0.391,0.391-1.023,0-1.414s-1.023-0.391-1.414,0l-2,2
		c-0.391,0.391-0.391,1.023,0,1.414C34.488,21.902,34.744,22,35,22z"/>
	<path d="M38.29,16.29C38.11,16.479,38,16.74,38,17s0.11,0.52,0.29,0.71C38.48,17.89,38.74,18,39,18c0.26,0,0.52-0.11,0.71-0.29
		C39.89,17.52,40,17.26,40,17s-0.11-0.521-0.29-0.71C39.33,15.92,38.67,15.92,38.29,16.29z"/>
	<path d="M40.293,15.707C40.488,15.902,40.744,16,41,16s0.512-0.098,0.707-0.293l3-3c0.391-0.391,0.391-1.023,0-1.414
		s-1.023-0.391-1.414,0l-3,3C39.902,14.684,39.902,15.316,40.293,15.707z"/>
	<path d="M35,40c0.256,0,0.512-0.098,0.707-0.293l4-4c0.391-0.391,0.391-1.023,0-1.414s-1.023-0.391-1.414,0l-4,4
		c-0.391,0.391-0.391,1.023,0,1.414C34.488,39.902,34.744,40,35,40z"/>
	<path d="M35,45c0.256,0,0.512-0.098,0.707-0.293l2-2c0.391-0.391,0.391-1.023,0-1.414s-1.023-0.391-1.414,0l-2,2
		c-0.391,0.391-0.391,1.023,0,1.414C34.488,44.902,34.744,45,35,45z"/>
	<path d="M38.29,39.29C38.11,39.479,38,39.74,38,40c0,0.27,0.11,0.52,0.29,0.71C38.48,40.89,38.74,41,39,41
		c0.26,0,0.52-0.11,0.71-0.29C39.89,40.52,40,40.27,40,40c0-0.26-0.11-0.521-0.29-0.71C39.33,38.92,38.66,38.92,38.29,39.29z"/>
	<path d="M40.293,38.707C40.488,38.902,40.744,39,41,39s0.512-0.098,0.707-0.293l3-3c0.391-0.391,0.391-1.023,0-1.414
		s-1.023-0.391-1.414,0l-3,3C39.902,37.684,39.902,38.316,40.293,38.707z"/>
	<path d="M10,40c0.256,0,0.512-0.098,0.707-0.293l4-4c0.391-0.391,0.391-1.023,0-1.414s-1.023-0.391-1.414,0l-4,4
		c-0.391,0.391-0.391,1.023,0,1.414C9.488,39.902,9.744,40,10,40z"/>
	<path d="M10,45c0.256,0,0.512-0.098,0.707-0.293l2-2c0.391-0.391,0.391-1.023,0-1.414s-1.023-0.391-1.414,0l-2,2
		c-0.391,0.391-0.391,1.023,0,1.414C9.488,44.902,9.744,45,10,45z"/>
	<path d="M13.29,39.29C13.11,39.479,13,39.74,13,40c0,0.27,0.11,0.52,0.29,0.71C13.48,40.89,13.74,41,14,41
		c0.26,0,0.52-0.11,0.71-0.29C14.89,40.52,15,40.26,15,40s-0.1-0.521-0.29-0.71C14.34,38.92,13.67,38.92,13.29,39.29z"/>
	<path d="M15.293,38.707C15.488,38.902,15.744,39,16,39s0.512-0.098,0.707-0.293l3-3c0.391-0.391,0.391-1.023,0-1.414
		s-1.023-0.391-1.414,0l-3,3C14.902,37.684,14.902,38.316,15.293,38.707z"/>
</g>
<g>
</g>
<g>
</g>
<g>
</g>
<g>
</g>
<g>
</g>
<g>
</g>
<g>
</g>
<g>
</g>
<g>
</g>
<g>
</g>
<g>
</g>
<g>
</g>
<g>
</g>
<g>
</g>
<g>
</g>
</svg>
