<?xml version="1.0" encoding="iso-8859-1"?>
<!-- Generator: Adobe Illustrator 18.0.0, SVG Export Plug-In . SVG Version: 6.00 Build 0)  -->
<!DOCTYPE svg PUBLIC "-//W3C//DTD SVG 1.1//EN" "http://www.w3.org/Graphics/SVG/1.1/DTD/svg11.dtd">
<svg version="1.1" id="Capa_1" xmlns="http://www.w3.org/2000/svg" xmlns:xlink="http://www.w3.org/1999/xlink" x="0px" y="0px"
	 viewBox="0 0 60 60" style="enable-background:new 0 0 60 60;" xml:space="preserve">
<g>
	<path d="M59,9V6h1V0H0v6h1v3h1v42H0v6h1v3h58v-3h1v-6h-2V9H59z M2,2h56v2H2V2z M57,6v1h-2h-2H7H5H3V6H57z M10,32V12h40v20H10z
		 M44,37c0,0.268-0.104,0.519-0.292,0.706l-0.294,0.293v0.415c0,0.267-0.104,0.519-0.292,0.707c-0.189,0.188-0.44,0.293-0.708,0.293
		H42l-0.293,0.293c-0.377,0.379-1.036,0.379-1.413,0L40,39.414h-0.415c-0.267,0-0.519-0.104-0.707-0.293
		c-0.189-0.188-0.293-0.44-0.293-0.707v-0.415l-0.294-0.293C38.104,37.519,38,37.268,38,37c0-0.133,0.026-0.262,0.075-0.382
		l0.004-0.006c0.048-0.115,0.119-0.221,0.209-0.312c0.002-0.002,0.003-0.005,0.005-0.007l0.293-0.292V36v-0.414
		c0-0.267,0.104-0.519,0.292-0.707c0.189-0.188,0.44-0.293,0.708-0.293H40l0.293-0.293c0.377-0.379,1.036-0.379,1.413,0L42,34.586
		h0.415c0.267,0,0.519,0.104,0.707,0.293c0.189,0.188,0.293,0.44,0.293,0.707V36v0.001l0.293,0.292
		c0.002,0.001,0.003,0.005,0.005,0.007c0.09,0.091,0.161,0.197,0.209,0.312l0.004,0.006C43.974,36.738,44,36.867,44,37z M46.279,46
		H35.721l-0.333-1h11.226L46.279,46z M36.613,38.817c0.086,0.648,0.381,1.247,0.852,1.718s1.07,0.766,1.718,0.853
		c0.258,0.198,0.545,0.35,0.849,0.453C40.023,41.895,40,41.944,40,42v1h-7.387l1.667,5h1.044l1.2,3H7V37h29
		C36,37.666,36.215,38.299,36.613,38.817z M37.477,48h7.046l-1.2,3h-4.646L37.477,48z M46.677,48h1.044l1.667-5H42v-1
		c0-0.056-0.023-0.105-0.032-0.159c0.305-0.103,0.591-0.255,0.849-0.453c0.648-0.087,1.248-0.382,1.719-0.853
		c0.47-0.471,0.765-1.069,0.851-1.718C45.785,38.299,46,37.666,46,37h7v14h-7.523L46.677,48z M53,35h-7.643
		c-0.011-0.058-0.032-0.113-0.047-0.17c-0.016-0.061-0.031-0.123-0.05-0.182c-0.029-0.089-0.066-0.174-0.103-0.26
		c-0.025-0.056-0.046-0.114-0.074-0.168c-0.039-0.076-0.085-0.147-0.131-0.219H52V10H8v24h29.048
		c-0.045,0.072-0.092,0.144-0.131,0.22c-0.028,0.054-0.049,0.111-0.074,0.167c-0.038,0.086-0.075,0.173-0.104,0.262
		c-0.019,0.059-0.034,0.12-0.05,0.181c-0.015,0.057-0.036,0.113-0.047,0.171H7V9h46V35z M4,9h1v28v14H4V9z M57,58H3v-1h54V58z
		 M58,55H2v-2h5h30.323h7.354H53h5V55z M56,51h-1V37V9h1V51z"/>
	<circle cx="41" cy="37" r="1"/>
	<path d="M14,20c0.256,0,0.512-0.098,0.707-0.293l4-4c0.391-0.391,0.391-1.023,0-1.414s-1.023-0.391-1.414,0l-4,4
		c-0.391,0.391-0.391,1.023,0,1.414C13.488,19.902,13.744,20,14,20z"/>
	<path d="M15.293,21.293l-2,2c-0.391,0.391-0.391,1.023,0,1.414C13.488,24.902,13.744,25,14,25s0.512-0.098,0.707-0.293l2-2
		c0.391-0.391,0.391-1.023,0-1.414S15.684,20.902,15.293,21.293z"/>
	<path d="M17.29,19.29C17.11,19.479,17,19.729,17,20c0,0.26,0.11,0.52,0.29,0.71C17.48,20.89,17.74,21,18,21
		c0.26,0,0.52-0.11,0.71-0.29C18.89,20.52,19,20.26,19,20s-0.11-0.521-0.29-0.71C18.34,18.92,17.66,18.92,17.29,19.29z"/>
	<path d="M22.293,14.293l-3,3c-0.391,0.391-0.391,1.023,0,1.414C19.488,18.902,19.744,19,20,19s0.512-0.098,0.707-0.293l3-3
		c0.391-0.391,0.391-1.023,0-1.414S22.684,13.902,22.293,14.293z"/>
</g>
<g>
</g>
<g>
</g>
<g>
</g>
<g>
</g>
<g>
</g>
<g>
</g>
<g>
</g>
<g>
</g>
<g>
</g>
<g>
</g>
<g>
</g>
<g>
</g>
<g>
</g>
<g>
</g>
<g>
</g>
</svg>
