<?xml version="1.0" encoding="iso-8859-1"?>
<!-- Generator: Adobe Illustrator 18.0.0, SVG Export Plug-In . SVG Version: 6.00 Build 0)  -->
<!DOCTYPE svg PUBLIC "-//W3C//DTD SVG 1.1//EN" "http://www.w3.org/Graphics/SVG/1.1/DTD/svg11.dtd">
<svg version="1.1" id="Capa_1" xmlns="http://www.w3.org/2000/svg" xmlns:xlink="http://www.w3.org/1999/xlink" x="0px" y="0px"
	 viewBox="0 0 60 60" style="enable-background:new 0 0 60 60;" xml:space="preserve">
<g>
	<path d="M60,0H0v9h1v51h18V48h38V9h3V0z M3,9h1v49H3V9z M8,9v49H6V9H8z M11,9v49h-1V9H11z M14,9v49h-1V9H14z M17,58h-1V9h1v4v29v6
		V58z M19,13h8v29h-8V13z M55,46H19v-2h10V11H19V9h36V46z M58,7h-1H19h-2H2V2h56V7z"/>
	<path d="M31,44h22V11H31v14h-1v5h1V44z M33,27h5v1h-5h-1v-1H33z M40,30v-5h-7V13h18v29H33V30H40z"/>
</g>
<g>
</g>
<g>
</g>
<g>
</g>
<g>
</g>
<g>
</g>
<g>
</g>
<g>
</g>
<g>
</g>
<g>
</g>
<g>
</g>
<g>
</g>
<g>
</g>
<g>
</g>
<g>
</g>
<g>
</g>
</svg>
