<svg xmlns="http://www.w3.org/2000/svg" viewBox="0 0 60 60" style="enable-background:new 0 0 60 60" xml:space="preserve"><path d="M25 13.5c-11.028 0-20 8.972-20 20s8.972 20 20 20 20-8.972 20-20-8.972-20-20-20zm18 20c0 2.958-.73 5.744-2 8.208V25.292c1.27 2.464 2 5.25 2 8.208zM21 15.964a17.955 17.955 0 0 1 3-.413v35.898a17.955 17.955 0 0 1-3-.413V15.964zM19 50.45a17.877 17.877 0 0 1-3-1.385V17.936a17.877 17.877 0 0 1 3-1.385V50.45zm7-34.899c1.025.057 2.027.191 3 .413v35.073c-.973.222-1.975.356-3 .413V15.551zm5 .999c1.048.372 2.051.834 3 1.385v31.129a17.877 17.877 0 0 1-3 1.385V16.55zM9 25.292v16.417c-1.27-2.465-2-5.25-2-8.208s.73-5.745 2-8.209zm2 19.497V22.211a18.102 18.102 0 0 1 3-2.927v28.432a18.182 18.182 0 0 1-3-2.927zm25 2.927V19.284a18.142 18.142 0 0 1 3 2.927v22.577a18.148 18.148 0 0 1-3 2.928zM42 54.5h14v-6H42v6zm2-4h10v2H44v-2z"/><path d="M51 7.5h8a1 1 0 1 0 0-2h-8c-1.858 0-3.411 1.28-3.858 3H45.09c.478-2.833 2.942-5 5.91-5h7a1 1 0 1 0 0-2h-7c-4.072 0-7.436 3.06-7.931 7H0v50h60v-50H49.278c.347-.595.985-1 1.722-1zm7 49H2v-46h56v46z"/></svg>