<svg xmlns="http://www.w3.org/2000/svg" viewBox="0 0 60 60" style="enable-background:new 0 0 60 60" xml:space="preserve"><path d="M59 10.5H1a1 1 0 0 0-1 1v24a1 1 0 0 0 1 1h58a1 1 0 0 0 1-1v-24a1 1 0 0 0-1-1zm-54 24v-4h50v4H5zm53 0h-1v-5a1 1 0 0 0-1-1H4a1 1 0 0 0-1 1v5H2v-22h56v22z"/><path d="M32 31.5h-4a1 1 0 1 0 0 2h4a1 1 0 1 0 0-2z"/><circle cx="36" cy="16.5" r="1"/><circle cx="39" cy="16.5" r="1"/><circle cx="42" cy="16.5" r="1"/><circle cx="45" cy="16.5" r="1"/><circle cx="48" cy="16.5" r="1"/><circle cx="51" cy="16.5" r="1"/><circle cx="54" cy="16.5" r="1"/><circle cx="36" cy="20.5" r="1"/><circle cx="39" cy="20.5" r="1"/><circle cx="42" cy="20.5" r="1"/><circle cx="45" cy="20.5" r="1"/><circle cx="48" cy="20.5" r="1"/><circle cx="51" cy="20.5" r="1"/><circle cx="54" cy="20.5" r="1"/><circle cx="36" cy="24.5" r="1"/><circle cx="39" cy="24.5" r="1"/><circle cx="42" cy="24.5" r="1"/><circle cx="45" cy="24.5" r="1"/><circle cx="48" cy="24.5" r="1"/><circle cx="51" cy="24.5" r="1"/><circle cx="54" cy="24.5" r="1"/><circle cx="6" cy="16.5" r="1"/><circle cx="9" cy="16.5" r="1"/><circle cx="12" cy="16.5" r="1"/><circle cx="15" cy="16.5" r="1"/><circle cx="18" cy="16.5" r="1"/><circle cx="21" cy="16.5" r="1"/><circle cx="24" cy="16.5" r="1"/><circle cx="6" cy="20.5" r="1"/><circle cx="9" cy="20.5" r="1"/><circle cx="12" cy="20.5" r="1"/><circle cx="15" cy="20.5" r="1"/><circle cx="18" cy="20.5" r="1"/><circle cx="21" cy="20.5" r="1"/><circle cx="24" cy="20.5" r="1"/><circle cx="6" cy="24.5" r="1"/><circle cx="9" cy="24.5" r="1"/><circle cx="12" cy="24.5" r="1"/><circle cx="15" cy="24.5" r="1"/><circle cx="18" cy="24.5" r="1"/><circle cx="21" cy="24.5" r="1"/><circle cx="24" cy="24.5" r="1"/><path d="M8 39.5a1 1 0 0 0-1 1v2a1 1 0 1 0 2 0v-2a1 1 0 0 0-1-1zM8 45.5a1 1 0 0 0-1 1v2a1 1 0 1 0 2 0v-2a1 1 0 0 0-1-1zM12 39.5a1 1 0 0 0-1 1v2a1 1 0 1 0 2 0v-2a1 1 0 0 0-1-1zM12 45.5a1 1 0 0 0-1 1v2a1 1 0 1 0 2 0v-2a1 1 0 0 0-1-1zM16 39.5a1 1 0 0 0-1 1v2a1 1 0 1 0 2 0v-2a1 1 0 0 0-1-1zM16 45.5a1 1 0 0 0-1 1v2a1 1 0 1 0 2 0v-2a1 1 0 0 0-1-1zM44 39.5a1 1 0 0 0-1 1v2a1 1 0 1 0 2 0v-2a1 1 0 0 0-1-1zM44 45.5a1 1 0 0 0-1 1v2a1 1 0 1 0 2 0v-2a1 1 0 0 0-1-1zM48 39.5a1 1 0 0 0-1 1v2a1 1 0 1 0 2 0v-2a1 1 0 0 0-1-1zM48 45.5a1 1 0 0 0-1 1v2a1 1 0 1 0 2 0v-2a1 1 0 0 0-1-1zM52 39.5a1 1 0 0 0-1 1v2a1 1 0 1 0 2 0v-2a1 1 0 0 0-1-1zM52 45.5a1 1 0 0 0-1 1v2a1 1 0 1 0 2 0v-2a1 1 0 0 0-1-1z"/></svg>