<svg xmlns="http://www.w3.org/2000/svg" viewBox="0 0 54.03 54.03" style="enable-background:new 0 0 54.03 54.03" xml:space="preserve"><path d="M52 50.515v-5h2.03L54 21.435c0-1.059-.861-1.92-1.92-1.92H48V3.138A2.627 2.627 0 0 0 45.376.514H8.624A2.628 2.628 0 0 0 6 3.138v16.376H1.92c-1.059 0-1.92.861-1.92 1.92v24.08h2v5h2v1a1 1 0 0 0 0 2h2a1 1 0 0 0 0-2v-1h2v-5h38v5h2v1a1 1 0 0 0 0 2h2a1 1 0 0 0 0-2v-1h2zM8 3.138c0-.344.28-.624.624-.624h36.753a.626.626 0 0 1 .623.624v16.376h-2.08c-1.059 0-1.92.861-1.92 1.92v3.08H12v-3.08c0-1.059-.861-1.92-1.92-1.92H8V3.138zm4 23.377h30v7H12v-7zm-6 22H4v-3h2v3zm2-5H2v-22h8v14h34v-14h8l.03 22H8zm42 2v3h-2v-3h2z"/><circle cx="24" cy="7.515" r="1"/><circle cx="30" cy="7.515" r="1"/><circle cx="15" cy="10.515" r="1"/><circle cx="15" cy="16.515" r="1"/><circle cx="18" cy="13.515" r="1"/><circle cx="21" cy="10.515" r="1"/><circle cx="27" cy="10.515" r="1"/><circle cx="21" cy="16.515" r="1"/><circle cx="27" cy="16.515" r="1"/><circle cx="24" cy="13.515" r="1"/><circle cx="30" cy="13.515" r="1"/><circle cx="24" cy="19.515" r="1"/><circle cx="30" cy="19.515" r="1"/><circle cx="33" cy="10.515" r="1"/><circle cx="39" cy="10.515" r="1"/><circle cx="33" cy="16.515" r="1"/><circle cx="39" cy="16.515" r="1"/><circle cx="36" cy="13.515" r="1"/></svg>