<?xml version="1.0" encoding="iso-8859-1"?>
<!-- Generator: Adobe Illustrator 18.0.0, SVG Export Plug-In . SVG Version: 6.00 Build 0)  -->
<!DOCTYPE svg PUBLIC "-//W3C//DTD SVG 1.1//EN" "http://www.w3.org/Graphics/SVG/1.1/DTD/svg11.dtd">
<svg version="1.1" id="Capa_1" xmlns="http://www.w3.org/2000/svg" xmlns:xlink="http://www.w3.org/1999/xlink" x="0px" y="0px"
	 viewBox="0 0 56 56" style="enable-background:new 0 0 56 56;" xml:space="preserve">
<g>
	<path d="M23.793,12.707C23.988,12.902,24.244,13,24.5,13s0.512-0.098,0.707-0.293l0.918-0.918c0.424,0.21,0.888,0.332,1.375,0.332
		s0.951-0.123,1.375-0.332l0.918,0.918C29.988,12.902,30.244,13,30.5,13s0.512-0.098,0.707-0.293c0.391-0.391,0.391-1.023,0-1.414
		l-0.92-0.92c0.425-0.866,0.425-1.88,0-2.747l0.92-0.92c0.391-0.391,0.391-1.023,0-1.414s-1.023-0.391-1.414,0l-0.928,0.928
		c-0.856-0.4-1.875-0.4-2.73,0l-0.928-0.928c-0.391-0.391-1.023-0.391-1.414,0s-0.391,1.023,0,1.414l0.92,0.92
		c-0.425,0.866-0.425,1.88,0,2.747l-0.92,0.92C23.402,11.684,23.402,12.316,23.793,12.707z M28.293,8.207
		c0.437,0.437,0.437,1.149,0,1.586c-0.424,0.424-1.162,0.424-1.586,0c-0.437-0.437-0.437-1.149,0-1.586
		C26.919,7.995,27.2,7.878,27.5,7.878S28.081,7.995,28.293,8.207z"/>
	<path d="M23.793,29.707C23.988,29.902,24.244,30,24.5,30s0.512-0.098,0.707-0.293l0.918-0.918c0.424,0.21,0.888,0.332,1.375,0.332
		s0.951-0.123,1.375-0.332l0.918,0.918C29.988,29.902,30.244,30,30.5,30s0.512-0.098,0.707-0.293c0.391-0.391,0.391-1.023,0-1.414
		l-0.92-0.92c0.425-0.866,0.425-1.88,0-2.747l0.92-0.92c0.391-0.391,0.391-1.023,0-1.414s-1.023-0.391-1.414,0l-0.928,0.928
		c-0.856-0.4-1.875-0.4-2.73,0l-0.928-0.928c-0.391-0.391-1.023-0.391-1.414,0s-0.391,1.023,0,1.414l0.92,0.92
		c-0.425,0.866-0.425,1.88,0,2.747l-0.92,0.92C23.402,28.684,23.402,29.316,23.793,29.707z M28.293,25.207
		c0.437,0.437,0.437,1.149,0,1.586c-0.424,0.424-1.162,0.424-1.586,0c-0.437-0.437-0.437-1.149,0-1.586
		c0.212-0.212,0.493-0.329,0.793-0.329S28.081,24.995,28.293,25.207z"/>
	<path d="M13.793,20.707C13.988,20.902,14.244,21,14.5,21s0.512-0.098,0.707-0.293l0.918-0.918c0.424,0.21,0.888,0.332,1.375,0.332
		s0.951-0.123,1.375-0.332l0.918,0.918C19.988,20.902,20.244,21,20.5,21s0.512-0.098,0.707-0.293c0.391-0.391,0.391-1.023,0-1.414
		l-0.92-0.92c0.425-0.866,0.425-1.88,0-2.747l0.92-0.92c0.391-0.391,0.391-1.023,0-1.414s-1.023-0.391-1.414,0l-0.928,0.928
		c-0.856-0.4-1.875-0.4-2.73,0l-0.928-0.928c-0.391-0.391-1.023-0.391-1.414,0s-0.391,1.023,0,1.414l0.92,0.92
		c-0.425,0.866-0.425,1.88,0,2.747l-0.92,0.92C13.402,19.684,13.402,20.316,13.793,20.707z M18.293,16.207
		c0.437,0.437,0.437,1.149,0,1.586c-0.424,0.424-1.162,0.424-1.586,0c-0.437-0.437-0.437-1.149,0-1.586
		c0.212-0.212,0.493-0.329,0.793-0.329S18.081,15.995,18.293,16.207z"/>
	<path d="M33.793,20.707C33.988,20.902,34.244,21,34.5,21s0.512-0.098,0.707-0.293l0.918-0.918c0.424,0.21,0.888,0.332,1.375,0.332
		s0.951-0.123,1.375-0.332l0.918,0.918C39.988,20.902,40.244,21,40.5,21s0.512-0.098,0.707-0.293c0.391-0.391,0.391-1.023,0-1.414
		l-0.92-0.92c0.425-0.866,0.425-1.88,0-2.747l0.92-0.92c0.391-0.391,0.391-1.023,0-1.414s-1.023-0.391-1.414,0l-0.928,0.928
		c-0.856-0.4-1.875-0.4-2.73,0l-0.928-0.928c-0.391-0.391-1.023-0.391-1.414,0s-0.391,1.023,0,1.414l0.92,0.92
		c-0.425,0.866-0.425,1.88,0,2.747l-0.92,0.92C33.402,19.684,33.402,20.316,33.793,20.707z M38.293,16.207
		c0.437,0.437,0.437,1.149,0,1.586c-0.424,0.424-1.162,0.424-1.586,0c-0.437-0.437-0.437-1.149,0-1.586
		c0.212-0.212,0.493-0.329,0.793-0.329S38.081,15.995,38.293,16.207z"/>
	<path d="M50.5,25.413V12.594C50.5,5.65,44.851,0,37.906,0H18.094C11.149,0,5.5,5.65,5.5,12.594v12.819
		c-2.939,0.993-5,3.695-5,6.964V56h15v-2h25v2h15V32.377C55.5,29.108,53.439,26.406,50.5,25.413z M7.5,25.018V12.594
		C7.5,6.752,12.252,2,18.094,2h19.813C43.748,2,48.5,6.752,48.5,12.594v12.424c-0.03-0.002-0.059,0.003-0.09,0.002
		C48.274,25.013,48.139,25,48,25c-4.206,0-7.5,3.241-7.5,7.377v0.476V33h-25v-0.146v-0.476C15.5,28.241,12.206,25,8,25
		c-0.139,0-0.274,0.013-0.41,0.02C7.559,25.021,7.53,25.016,7.5,25.018z M40.5,37h-25v-2h25V37z M2.5,54V32.377
		c0-2.596,1.795-4.697,4.26-5.235c0.113-0.025,0.222-0.037,0.333-0.056c0.258-0.04,0.519-0.07,0.789-0.076
		c0.054-0.001,0.109-0.007,0.163-0.007c0.297,0.002,0.582,0.038,0.865,0.083c0.181,0.032,0.362,0.068,0.543,0.12
		c2.384,0.689,4.048,3.012,4.048,5.646V33v2v2v2v15H2.5z M15.5,52V39h25v13H15.5z M53.5,54h-11V39v-2v-2v-2v-0.146
		c0-2.635,1.664-4.957,4.047-5.646c0.18-0.052,0.36-0.087,0.541-0.12c0.285-0.045,0.573-0.081,0.872-0.083
		c0.049,0,0.099,0.005,0.148,0.006c0.274,0.005,0.541,0.036,0.803,0.077c0.11,0.018,0.218,0.031,0.329,0.055
		c2.465,0.538,4.26,2.639,4.26,5.235V54z"/>
	<path d="M11.5,51h-7c-0.553,0-1,0.448-1,1s0.447,1,1,1h7c0.553,0,1-0.448,1-1S12.053,51,11.5,51z"/>
	<path d="M44.5,51c-0.553,0-1,0.448-1,1s0.447,1,1,1h7c0.553,0,1-0.448,1-1s-0.447-1-1-1H44.5z"/>
</g>
<g>
</g>
<g>
</g>
<g>
</g>
<g>
</g>
<g>
</g>
<g>
</g>
<g>
</g>
<g>
</g>
<g>
</g>
<g>
</g>
<g>
</g>
<g>
</g>
<g>
</g>
<g>
</g>
<g>
</g>
</svg>
