<svg xmlns="http://www.w3.org/2000/svg" viewBox="0 0 56.003 56.003" style="enable-background:new 0 0 56.003 56.003" xml:space="preserve"><path d="M48.972 18.003v-4.716a9.752 9.752 0 0 0-4.138-7.948c-10.086-7.119-23.639-7.119-33.725 0a9.751 9.751 0 0 0-4.138 7.948v4.716c-3.292 0-5.97 2.691-5.97 6v19a6.003 6.003 0 0 0 4 5.657v4.343h2v1a1 1 0 0 0 0 2h2a1 1 0 0 0 0-2v-1h2v-4h34v4h2v1a1 1 0 0 0 0 2h2a1 1 0 0 0 0-2v-1h2v-4.35c2.327-.826 4-3.043 4-5.65v-19c0-3.308-2.704-6-6.029-6zm-40 .343v-5.059a7.748 7.748 0 0 1 3.291-6.314c9.396-6.632 22.022-6.631 31.418 0a7.748 7.748 0 0 1 3.291 6.314v5.058c-.034.012-.063.031-.097.043a5.895 5.895 0 0 0-.73.325l-.028.013a5.997 5.997 0 0 0-.689.445l-.134.1a6.061 6.061 0 0 0-.611.543l-.044.048c-.187.196-.36.404-.519.624l-.048.064c-.164.231-.31.475-.44.729l-.038.078a6.091 6.091 0 0 0-.323.782l-.008.023c-.086.266-.15.54-.198.821-.01.055-.018.111-.026.167-.04.279-.068.563-.068.853v6h-30v-6c0-.29-.028-.574-.068-.853a5.898 5.898 0 0 0-.231-1.009 6.046 6.046 0 0 0-.323-.783l-.038-.078a6.107 6.107 0 0 0-.44-.729l-.047-.064a6.088 6.088 0 0 0-.519-.624l-.044-.048a6.072 6.072 0 0 0-.612-.543l-.134-.1a5.997 5.997 0 0 0-.689-.445c-.008-.004-.017-.007-.024-.012a6.06 6.06 0 0 0-.735-.327c-.033-.012-.062-.031-.095-.042zm4 16.657v-3h13.03l-1.8 2.4a1 1 0 1 0 1.6 1.2l2.2-2.934 2.2 2.934a.998.998 0 0 0 1.4.2 1 1 0 0 0 .2-1.4l-1.8-2.4h12.97v3c0 2.206-1.794 4-4 4h-22c-2.205 0-4-1.795-4-4zm-3.971 16h-2v-2h2v2zm40 0h-2v-2h2v2zm4-8c0 2.206-1.794 4-4 4H6.971c-2.189 0-3.97-1.794-3.97-4v-19c0-2.206 1.781-4 3.97-4 .275 0 .544.028.804.081l.022.007a4 4 0 0 1 .692.215c.069.028.132.067.199.099.154.074.306.151.448.244.077.05.147.107.22.162.12.09.236.183.345.285a4.381 4.381 0 0 1 .658.804c.071.115.134.235.194.357.047.096.096.192.135.292.055.14.096.287.135.434.024.09.054.177.072.268.047.244.076.494.076.751v11c0 3.309 2.691 6 6 6h22c3.309 0 6-2.691 6-6v-11c0-.257.029-.507.076-.751.018-.092.048-.179.072-.269.039-.147.08-.293.135-.433.039-.1.088-.196.135-.292.06-.122.122-.242.194-.357a4.213 4.213 0 0 1 .658-.804c.108-.102.224-.194.343-.283.073-.055.145-.113.222-.164.141-.091.292-.168.444-.241.068-.033.133-.073.203-.102.215-.089.44-.159.672-.209.015-.003.028-.01.043-.013.259-.053.528-.081.802-.081 2.222 0 4.03 1.794 4.03 4v19z"/><circle cx="18.971" cy="11.003" r="1"/><circle cx="24.971" cy="11.003" r="1"/><circle cx="30.971" cy="11.003" r="1"/><circle cx="36.971" cy="11.003" r="1"/><circle cx="18.971" cy="17.003" r="1"/><circle cx="18.971" cy="23.003" r="1"/><circle cx="21.971" cy="14.003" r="1"/><circle cx="27.971" cy="14.003" r="1"/><circle cx="21.971" cy="20.003" r="1"/><circle cx="27.971" cy="20.003" r="1"/><circle cx="24.971" cy="17.003" r="1"/><circle cx="30.971" cy="17.003" r="1"/><circle cx="24.971" cy="23.003" r="1"/><circle cx="30.971" cy="23.003" r="1"/><circle cx="33.971" cy="14.003" r="1"/><circle cx="33.971" cy="20.003" r="1"/><circle cx="36.971" cy="17.003" r="1"/><circle cx="36.971" cy="23.003" r="1"/></svg>