<svg xmlns="http://www.w3.org/2000/svg" viewBox="0 0 60 60" style="enable-background:new 0 0 60 60" xml:space="preserve"><path d="M58.05 34H57V20.623A2.626 2.626 0 0 0 54.377 18H23.594c-.705 0-1.389.289-1.875.793a2.513 2.513 0 0 0-.719 1.83V34h-1c-1.084 0-2 .879-2 1.92v21.491c-2.928-1.19-5-4.061-5-7.411v-1h-1V16h10V0H0v16h6v6a1 1 0 1 0 2 0v-6h2v33H9v1c0 4.411-3.589 8-8 8a1 1 0 1 0 0 2h23v-5h30v5h6V35.92c0-1.059-.875-1.92-1.95-1.92zM2 2h18v12H2V2zm20.999 18.589a.55.55 0 0 1 .157-.406.601.601 0 0 1 .438-.183h30.783c.344 0 .623.279.623.623V34h-2.11c-1.06 0-1.89.844-1.89 1.92V39H27v-3c0-1.065-.935-2-2-2h-2l-.001-13.411zM27 41h24v4H27v-4zM6.994 58a10.002 10.002 0 0 0 3.956-7h.1a10.002 10.002 0 0 0 3.956 7H6.994zM22 58h-1c-.339 0-.672-.028-1-.069V55h2v3zm36 0h-2v-3h2v3zm-4-5H20V36h1l4 .048V47h28V36h5v17h-4z"/></svg>