<svg xmlns="http://www.w3.org/2000/svg" viewBox="0 0 59.997 59.997" style="enable-background:new 0 0 59.997 59.997" xml:space="preserve"><path d="M18.29 22.205a.997.997 0 0 0 1.414 0l.92-.92c.433.213.901.332 1.373.332s.94-.12 1.373-.332l.92.92a.997.997 0 0 0 1.414 0 .999.999 0 0 0 0-1.414l-.919-.919a3.112 3.112 0 0 0 0-2.747l.919-.919a.999.999 0 1 0-1.414-1.414l-.92.92a3.119 3.119 0 0 0-2.747 0l-.92-.92a.999.999 0 1 0-1.414 1.414l.92.92a3.112 3.112 0 0 0 0 2.747l-.92.92a.997.997 0 0 0 .001 1.412zm4.5-4.5a1.121 1.121 0 1 1-1.586 1.586 1.121 1.121 0 0 1 1.586-1.586zM34.29 22.205a.997.997 0 0 0 1.414 0l.92-.92c.433.213.901.332 1.373.332s.94-.12 1.373-.332l.92.92a.997.997 0 0 0 1.414 0 .999.999 0 0 0 0-1.414l-.919-.919a3.112 3.112 0 0 0 0-2.747l.919-.919a.999.999 0 1 0-1.414-1.414l-.92.92a3.119 3.119 0 0 0-2.747 0l-.92-.92a.999.999 0 1 0-1.414 1.414l.92.92a3.112 3.112 0 0 0 0 2.747l-.92.92a.997.997 0 0 0 .001 1.412zm4.5-4.5a1.121 1.121 0 1 1-1.586 1.586 1.121 1.121 0 0 1 1.586-1.586z"/><path d="M59.511 24.818a2.927 2.927 0 0 0-2.451-1.32h-3.063c0-12.131-9.869-22-22-22h-4c-11.796 0-21.45 9.332-21.975 21H3.075a3.066 3.066 0 0 0-2.548 1.357c-.571.85-.682 1.923-.315 2.821l6.818 19.73a4.145 4.145 0 0 0 3.125 2.985l-.885 9.107h4.529l2-9h28.396l2 9h4.529l-.885-9.107c1.494-.327 2.719-1.445 3.099-2.901l6.821-18.899a2.931 2.931 0 0 0-.248-2.773zM27.997 3.498h4c11.028 0 20 8.972 20 20v.024c-.033.004-.065.014-.097.019-.08.012-.158.029-.236.046a3.773 3.773 0 0 0-.317.081c-.078.024-.153.053-.229.082a3.64 3.64 0 0 0-.505.244c-.092.054-.18.112-.267.174-.065.047-.13.093-.192.144a3.82 3.82 0 0 0-.24.219c-.056.055-.113.108-.166.167-.076.084-.143.175-.211.267-.044.06-.092.117-.133.181a3.637 3.637 0 0 0-.185.336c-.029.056-.062.109-.088.167a3.656 3.656 0 0 0-.195.553l-1.977 8.393c-.015.063-.041.12-.059.181-1.258-1.994-3.46-3.279-5.902-3.279h-22c-2.305 0-4.439 1.18-5.727 3.025l-2.344-10.398-.128-.171c-.901-1.203-1.842-1.456-2.472-1.456h-.305c.522-10.564 9.282-18.999 19.975-18.999zM16.265 37.434c-.016-.003-.03-.009-.046-.012a3.734 3.734 0 0 1-1.792-.911c.788-1.798 2.594-3.013 4.569-3.013h22a5.009 5.009 0 0 1 4.645 3.172 3.773 3.773 0 0 1-2.35.828H16.952c-.232 0-.462-.022-.687-.064zm-4.07 19.064h-.721l.681-7h1.596l-1.556 7zm35.604 0-1.556-7h1.596l.681 7h-.721zm10.1-29.64L51.03 45.896a2.152 2.152 0 0 1-2.079 1.603H11.042c-.975 0-1.83-.659-2.1-1.674L2.084 25.973a1.052 1.052 0 0 1 .104-1.001c.202-.301.526-.473.888-.473h5.25c.209 0 .476.179.746.498l2.255 10.005a5.79 5.79 0 0 0 .841 1.942l-.006.021.273.333a5.682 5.682 0 0 0 1.969 1.597c.102.051.205.095.31.14.149.063.297.125.452.175a5.633 5.633 0 0 0 .926.218c.284.043.57.073.862.073h26.339c.289 0 .574-.029.857-.073a5.618 5.618 0 0 0 .95-.224c.109-.036.214-.079.32-.121a5.708 5.708 0 0 0 .928-.472c.118-.074.235-.149.347-.231a5.24 5.24 0 0 0 .644-.554c.097-.096.197-.187.287-.29l.273-.295-.012-.046a5.754 5.754 0 0 0 1.019-2.138l1.971-8.368c.184-.7.818-1.188 1.542-1.188H57.062a.92.92 0 0 1 .781.42c.175.265.203.588.056.937z"/></svg>