<svg xmlns="http://www.w3.org/2000/svg" viewBox="0 0 58 58" style="enable-background:new 0 0 58 58" xml:space="preserve"><path d="M55 19h-9V4.301C46 2.481 44.52 1 42.699 1H15.301A3.304 3.304 0 0 0 12 4.301V19H3c-1.654 0-3 1.346-3 3v1c0 1.654 1.346 3 3 3h1v22h1v9h5v-9h1v-6h1v2h34v-2h1v6h1v9h5v-9h1V26h1c1.654 0 3-1.346 3-3v-1c0-1.654-1.346-3-3-3zM14 4.301C14 3.584 14.584 3 15.301 3h27.398C43.416 3 44 3.584 44 4.301v14.87c-.033.012-.064.03-.097.043-.056.022-.109.047-.163.072a2.85 2.85 0 0 0-.322.175c-.049.031-.098.06-.145.093-.119.084-.23.177-.335.277-.022.021-.047.038-.068.06a2.996 2.996 0 0 0-.333.403c-.028.04-.05.083-.076.125a2.991 2.991 0 0 0-.253.505 2.907 2.907 0 0 0-.112.361c-.013.055-.029.108-.04.164A2.941 2.941 0 0 0 42 22v1c0 .189.022.372.056.551.01.056.026.109.04.164a3.086 3.086 0 0 0 .181.527c.054.118.116.23.184.339.026.041.048.085.076.125.1.144.21.279.333.403.021.022.046.039.068.06.105.1.217.193.335.277.047.033.096.062.145.093.104.065.211.123.323.175.054.025.107.05.162.072.033.013.063.031.097.043V29H14v-3.171c.034-.012.064-.03.097-.043a2.954 2.954 0 0 0 .485-.247c.049-.031.098-.06.145-.093.119-.084.23-.177.335-.277.022-.021.047-.038.068-.06.123-.124.233-.259.333-.403.028-.04.05-.083.076-.125a2.991 2.991 0 0 0 .253-.506c.045-.117.082-.237.112-.361.013-.055.029-.108.04-.164.034-.178.056-.361.056-.55v-1c0-.189-.022-.372-.056-.551-.01-.056-.026-.109-.04-.164a3.07 3.07 0 0 0-.182-.527 3.065 3.065 0 0 0-.184-.338c-.026-.042-.048-.085-.076-.125-.1-.144-.21-.279-.333-.403-.021-.022-.046-.039-.068-.06a3.06 3.06 0 0 0-.335-.277c-.047-.033-.096-.062-.145-.093a2.85 2.85 0 0 0-.322-.175c-.054-.025-.107-.05-.163-.073-.033-.013-.063-.031-.097-.043V4.301zM12 35h-1v-9h1v9zm2-4h30v3H14v-3zm32 3v-8h1v9h-1v-1zM8 55H7v-7h1v7zm1-15v6H6V24H3c-.552 0-1-.449-1-1v-1c0-.551.448-1 1-1h10c.552 0 1 .449 1 1v1c0 .551-.448 1-1 1H9v13h3v3H9zm5 2v-6h30v6H14zm37 13h-1v-7h1v7zm5-32c0 .551-.448 1-1 1h-3v22h-3v-6h-3v-3h3V24h-4c-.552 0-1-.449-1-1v-1c0-.551.448-1 1-1h10c.552 0 1 .449 1 1v1z"/><circle cx="23" cy="19" r="1"/><circle cx="29" cy="19" r="1"/><circle cx="23" cy="25" r="1"/><circle cx="29" cy="25" r="1"/><circle cx="26" cy="22" r="1"/><circle cx="32" cy="22" r="1"/><circle cx="26" cy="16.152" r="1"/><circle cx="32" cy="16.152" r="1"/><circle cx="35" cy="19" r="1"/><circle cx="35" cy="25" r="1"/></svg>