<?xml version="1.0" encoding="iso-8859-1"?>
<!-- Generator: Adobe Illustrator 18.0.0, SVG Export Plug-In . SVG Version: 6.00 Build 0)  -->
<!DOCTYPE svg PUBLIC "-//W3C//DTD SVG 1.1//EN" "http://www.w3.org/Graphics/SVG/1.1/DTD/svg11.dtd">
<svg version="1.1" id="Capa_1" xmlns="http://www.w3.org/2000/svg" xmlns:xlink="http://www.w3.org/1999/xlink" x="0px" y="0px"
	 viewBox="0 0 58 58" style="enable-background:new 0 0 58 58;" xml:space="preserve">
<g>
	<path d="M55,19h-9V4.301C46,2.481,44.52,1,42.699,1H15.301C13.48,1,12,2.481,12,4.301V19H3c-1.654,0-3,1.346-3,3v1
		c0,1.654,1.346,3,3,3h1v22h1v9h5v-9h1v-6h1v2h34v-2h1v6h1v9h5v-9h1V26h1c1.654,0,3-1.346,3-3v-1C58,20.346,56.654,19,55,19z
		 M14,4.301C14,3.584,14.584,3,15.301,3h27.398C43.416,3,44,3.584,44,4.301v14.87c-0.033,0.012-0.064,0.03-0.097,0.043
		c-0.056,0.022-0.109,0.047-0.163,0.072c-0.112,0.052-0.219,0.11-0.322,0.175c-0.049,0.031-0.098,0.06-0.145,0.093
		c-0.119,0.084-0.23,0.177-0.335,0.277c-0.022,0.021-0.047,0.038-0.068,0.06c-0.123,0.124-0.233,0.259-0.333,0.403
		c-0.028,0.04-0.05,0.083-0.076,0.125c-0.068,0.109-0.13,0.221-0.184,0.339c-0.025,0.055-0.047,0.11-0.069,0.166
		c-0.045,0.117-0.082,0.237-0.112,0.361c-0.013,0.055-0.029,0.108-0.04,0.164C42.022,21.628,42,21.811,42,22v1
		c0,0.189,0.022,0.372,0.056,0.551c0.01,0.056,0.026,0.109,0.04,0.164c0.031,0.124,0.067,0.244,0.112,0.361
		c0.022,0.056,0.044,0.111,0.069,0.166c0.054,0.118,0.116,0.23,0.184,0.339c0.026,0.041,0.048,0.085,0.076,0.125
		c0.1,0.144,0.21,0.279,0.333,0.403c0.021,0.022,0.046,0.039,0.068,0.06c0.105,0.1,0.217,0.193,0.335,0.277
		c0.047,0.033,0.096,0.062,0.145,0.093c0.104,0.065,0.211,0.123,0.323,0.175c0.054,0.025,0.107,0.05,0.162,0.072
		c0.033,0.013,0.063,0.031,0.097,0.043V29H14v-3.171c0.034-0.012,0.064-0.03,0.097-0.043c0.055-0.022,0.109-0.047,0.162-0.072
		c0.112-0.052,0.219-0.11,0.323-0.175c0.049-0.031,0.098-0.06,0.145-0.093c0.119-0.084,0.23-0.177,0.335-0.277
		c0.022-0.021,0.047-0.038,0.068-0.06c0.123-0.124,0.233-0.259,0.333-0.403c0.028-0.04,0.05-0.083,0.076-0.125
		c0.068-0.109,0.13-0.221,0.184-0.339c0.025-0.055,0.048-0.11,0.069-0.167c0.045-0.117,0.082-0.237,0.112-0.361
		c0.013-0.055,0.029-0.108,0.04-0.164C15.978,23.372,16,23.189,16,23v-1c0-0.189-0.022-0.372-0.056-0.551
		c-0.01-0.056-0.026-0.109-0.04-0.164c-0.031-0.123-0.067-0.244-0.112-0.36c-0.022-0.057-0.045-0.112-0.07-0.167
		c-0.054-0.117-0.116-0.229-0.184-0.338c-0.026-0.042-0.048-0.085-0.076-0.125c-0.1-0.144-0.21-0.279-0.333-0.403
		c-0.021-0.022-0.046-0.039-0.068-0.06c-0.105-0.1-0.217-0.193-0.335-0.277c-0.047-0.033-0.096-0.062-0.145-0.093
		c-0.103-0.065-0.21-0.123-0.322-0.175c-0.054-0.025-0.107-0.05-0.163-0.073c-0.033-0.013-0.063-0.031-0.097-0.043V4.301z M12,35h-1
		v-9h1v3v2v3V35z M14,31h30v3H14V31z M46,34v-3v-2v-3h1v9h-1V34z M8,55H7v-7h1V55z M9,40v6H6V24H3c-0.552,0-1-0.449-1-1v-1
		c0-0.551,0.448-1,1-1h9h1c0.552,0,1,0.449,1,1v1c0,0.551-0.448,1-1,1h-1H9v13h3v3H9z M14,42v-6h30v6H14z M51,55h-1v-7h1V55z M56,23
		c0,0.551-0.448,1-1,1h-3v22h-3v-6h-3v-3h3V24h-3h-1c-0.552,0-1-0.449-1-1v-1c0-0.551,0.448-1,1-1h1h9c0.552,0,1,0.449,1,1V23z"/>
	<circle cx="23" cy="19" r="1"/>
	<circle cx="29" cy="19" r="1"/>
	<circle cx="23" cy="25" r="1"/>
	<circle cx="29" cy="25" r="1"/>
	<circle cx="26" cy="22" r="1"/>
	<circle cx="32" cy="22" r="1"/>
	<circle cx="26" cy="16.152" r="1"/>
	<circle cx="32" cy="16.152" r="1"/>
	<circle cx="35" cy="19" r="1"/>
	<circle cx="35" cy="25" r="1"/>
</g>
<g>
</g>
<g>
</g>
<g>
</g>
<g>
</g>
<g>
</g>
<g>
</g>
<g>
</g>
<g>
</g>
<g>
</g>
<g>
</g>
<g>
</g>
<g>
</g>
<g>
</g>
<g>
</g>
<g>
</g>
</svg>
