<svg xmlns="http://www.w3.org/2000/svg" viewBox="0 0 60.008 60.008" style="enable-background:new 0 0 60.008 60.008" xml:space="preserve"><path d="M19.297 21.211a.997.997 0 0 0 1.414 0l.92-.92c.433.213.901.332 1.373.332s.94-.12 1.373-.332l.92.92a.997.997 0 0 0 1.414 0 .999.999 0 0 0 0-1.414l-.919-.919a3.112 3.112 0 0 0 0-2.747l.919-.919a.999.999 0 1 0-1.414-1.414l-.92.92a3.119 3.119 0 0 0-2.747 0l-.92-.92a.999.999 0 1 0-1.414 1.414l.92.92a3.112 3.112 0 0 0 0 2.747l-.92.92a.997.997 0 0 0 .001 1.412zm4.5-4.5a1.121 1.121 0 1 1-1.586 1.586 1.121 1.121 0 0 1 1.586-1.586zM35.297 21.211a.997.997 0 0 0 1.414 0l.92-.92c.433.213.901.332 1.373.332s.94-.12 1.373-.332l.92.92a.997.997 0 0 0 1.414 0 .999.999 0 0 0 0-1.414l-.919-.919a3.112 3.112 0 0 0 0-2.747l.919-.919a.999.999 0 1 0-1.414-1.414l-.92.92a3.119 3.119 0 0 0-2.747 0l-.92-.92a.999.999 0 1 0-1.414 1.414l.92.92a3.112 3.112 0 0 0 0 2.747l-.92.92a.997.997 0 0 0 .001 1.412zm4.5-4.5a1.121 1.121 0 1 1-1.586 1.586 1.121 1.121 0 0 1 1.586-1.586z"/><path d="M59.949 32.28c-.438-3.935-3.595-7.171-7.508-7.695a8.917 8.917 0 0 0-2.32.006l.901-9.18a11.978 11.978 0 0 0-2.711-9.688 11.977 11.977 0 0 0-9.133-4.218H21.003a11.98 11.98 0 0 0-9.133 4.218c-2.283 2.681-3.271 6.212-2.719 9.612l.769 9.261a8.866 8.866 0 0 0-2.353-.011c-3.913.524-7.071 3.76-7.509 7.695-.3 2.704.568 5.328 2.381 7.2 2.944 3.04 4.565 6.785 4.565 10.545v1.052c0 2.337 1.826 4.237 4.123 4.397.439 1.822 2.11 3.031 4.377 3.031 2.253 0 3.916-1.196 4.367-3h20.266c.451 1.804 2.114 3 4.367 3 2.277 0 3.956-1.22 4.385-3.057 2.312-.282 4.115-2.234 4.115-4.62v-.802c0-3.76 1.621-7.505 4.565-10.545 1.813-1.874 2.68-4.498 2.38-7.201zm-47.98-7.166-.835-10.022c-.467-2.897.355-5.839 2.258-8.073s4.677-3.515 7.611-3.515h18.175a9.982 9.982 0 0 1 7.611 3.515c1.902 2.234 2.725 5.177 2.25 8.135l-.979 9.952c-.023.009-.044.02-.066.029-.169.067-.333.144-.498.221-.083.039-.166.077-.247.119a8.57 8.57 0 0 0-.538.3l-.145.09a8.845 8.845 0 0 0-.587.403c-.174.131-.35.259-.515.404a8.74 8.74 0 0 0-2.065 2.674 8.452 8.452 0 0 0-1.257 3.158H17.866a8.462 8.462 0 0 0-1.257-3.158 8.782 8.782 0 0 0-2.065-2.674c-.157-.137-.324-.259-.49-.383l-.031-.024a8.899 8.899 0 0 0-.723-.485 8.982 8.982 0 0 0-.524-.294c-.088-.046-.179-.087-.269-.13a9.174 9.174 0 0 0-.475-.213c-.021-.009-.041-.02-.063-.029zm4.969 9.39H43.07a2.937 2.937 0 0 1 2.934 2.934v2.966c0 .607-.494 1.101-1.101 1.101H15.105a1.102 1.102 0 0 1-1.101-1.101v-2.966a2.937 2.937 0 0 1 2.934-2.934zm-1.434 22c-.88 0-1.805-.279-2.242-1h4.483c-.436.721-1.361 1-2.241 1zm29 0c-.88 0-1.805-.279-2.242-1h4.483c-.436.721-1.361 1-2.241 1zm11.628-18.416c-3.307 3.416-5.128 7.655-5.128 11.937v.802a2.68 2.68 0 0 1-2.678 2.677H11.431a2.43 2.43 0 0 1-2.427-2.427v-1.052c0-4.283-1.821-8.522-5.128-11.937-1.396-1.442-2.063-3.479-1.83-5.587.337-3.035 2.771-5.53 5.787-5.934.319-.042.636-.064.949-.064.732 0 1.44.133 2.117.357a6.248 6.248 0 0 1 1.536.739c.236.153.467.316.687.501a6.81 6.81 0 0 1 1.667 2.095c.401.786.648 1.647.721 2.545-2.021.617-3.505 2.478-3.505 4.698v2.966a3.105 3.105 0 0 0 3.101 3.101h29.799a3.105 3.105 0 0 0 3.101-3.101v-2.966c0-2.221-1.485-4.081-3.506-4.698.07-.889.315-1.746.714-2.53a6.794 6.794 0 0 1 4.071-3.411l.217-.065a6.889 6.889 0 0 1 2.677-.166c3.016.403 5.448 2.899 5.785 5.934.231 2.107-.435 4.144-1.832 5.586z"/></svg>