<?xml version="1.0" encoding="iso-8859-1"?>
<!-- Generator: Adobe Illustrator 18.0.0, SVG Export Plug-In . SVG Version: 6.00 Build 0)  -->
<!DOCTYPE svg PUBLIC "-//W3C//DTD SVG 1.1//EN" "http://www.w3.org/Graphics/SVG/1.1/DTD/svg11.dtd">
<svg version="1.1" id="Capa_1" xmlns="http://www.w3.org/2000/svg" xmlns:xlink="http://www.w3.org/1999/xlink" x="0px" y="0px"
	 viewBox="0 0 59.997 59.997" style="enable-background:new 0 0 59.997 59.997;" xml:space="preserve">
<g>
	<path d="M18.29,22.205c0.195,0.195,0.451,0.293,0.707,0.293s0.512-0.098,0.707-0.293l0.92-0.92
		c0.433,0.213,0.901,0.332,1.373,0.332s0.94-0.12,1.373-0.332l0.92,0.92c0.195,0.195,0.451,0.293,0.707,0.293
		s0.512-0.098,0.707-0.293c0.391-0.391,0.391-1.023,0-1.414l-0.919-0.919c0.426-0.866,0.426-1.881,0-2.747l0.919-0.919
		c0.391-0.391,0.391-1.023,0-1.414s-1.023-0.391-1.414,0l-0.92,0.92c-0.866-0.425-1.88-0.425-2.747,0l-0.92-0.92
		c-0.391-0.391-1.023-0.391-1.414,0s-0.391,1.023,0,1.414l0.92,0.92c-0.426,0.866-0.426,1.88,0,2.747l-0.92,0.92
		C17.899,21.182,17.899,21.815,18.29,22.205z M22.79,17.705c0.437,0.438,0.437,1.148,0,1.586c-0.438,0.438-1.148,0.438-1.586,0
		c-0.437-0.438-0.437-1.148,0-1.586c0.219-0.219,0.506-0.328,0.793-0.328S22.571,17.487,22.79,17.705z"/>
	<path d="M34.29,22.205c0.195,0.195,0.451,0.293,0.707,0.293s0.512-0.098,0.707-0.293l0.92-0.92
		c0.433,0.213,0.901,0.332,1.373,0.332s0.94-0.12,1.373-0.332l0.92,0.92c0.195,0.195,0.451,0.293,0.707,0.293
		s0.512-0.098,0.707-0.293c0.391-0.391,0.391-1.023,0-1.414l-0.919-0.919c0.426-0.866,0.426-1.881,0-2.747l0.919-0.919
		c0.391-0.391,0.391-1.023,0-1.414s-1.023-0.391-1.414,0l-0.92,0.92c-0.866-0.425-1.88-0.425-2.747,0l-0.92-0.92
		c-0.391-0.391-1.023-0.391-1.414,0s-0.391,1.023,0,1.414l0.92,0.92c-0.426,0.866-0.426,1.88,0,2.747l-0.92,0.92
		C33.899,21.182,33.899,21.815,34.29,22.205z M38.79,17.705c0.437,0.438,0.437,1.148,0,1.586c-0.438,0.438-1.148,0.438-1.586,0
		c-0.437-0.438-0.437-1.148,0-1.586c0.219-0.219,0.506-0.328,0.793-0.328S38.571,17.487,38.79,17.705z"/>
	<path d="M59.511,24.818c-0.545-0.827-1.461-1.32-2.451-1.32h-3.063c0-12.131-9.869-22-22-22h-4c-11.796,0-21.45,9.332-21.975,21
		H3.075c-1.024,0-1.976,0.507-2.548,1.357c-0.571,0.85-0.682,1.923-0.315,2.821L7.03,46.406c0.402,1.526,1.63,2.656,3.125,2.985
		L9.27,58.498h4.529l2-9h28.396l2,9h4.529l-0.885-9.107c1.494-0.327,2.719-1.445,3.099-2.901l6.821-18.899
		C60.148,26.681,60.056,25.645,59.511,24.818z M27.997,3.498h4c11.028,0,20,8.972,20,20v0.024c-0.033,0.004-0.065,0.014-0.097,0.019
		c-0.08,0.012-0.158,0.029-0.236,0.046c-0.107,0.023-0.213,0.049-0.317,0.081c-0.078,0.024-0.153,0.053-0.229,0.082
		c-0.1,0.039-0.197,0.082-0.292,0.129c-0.073,0.036-0.143,0.074-0.213,0.115c-0.092,0.054-0.18,0.112-0.267,0.174
		c-0.065,0.047-0.13,0.093-0.192,0.144c-0.084,0.069-0.162,0.143-0.24,0.219c-0.056,0.055-0.113,0.108-0.166,0.167
		c-0.076,0.084-0.143,0.175-0.211,0.267c-0.044,0.06-0.092,0.117-0.133,0.181c-0.069,0.107-0.127,0.221-0.185,0.336
		c-0.029,0.056-0.062,0.109-0.088,0.167c-0.078,0.177-0.145,0.361-0.195,0.553l-1.977,8.393c-0.015,0.063-0.041,0.12-0.059,0.181
		c-1.258-1.994-3.46-3.279-5.902-3.279h-22c-2.305,0-4.439,1.18-5.727,3.025l-2.344-10.398l-0.128-0.171
		c-0.901-1.203-1.842-1.456-2.472-1.456H8.022C8.544,11.933,17.304,3.498,27.997,3.498z M16.265,37.434
		c-0.016-0.003-0.03-0.009-0.046-0.012c-0.665-0.134-1.285-0.445-1.792-0.911c0.788-1.798,2.594-3.013,4.569-3.013h22
		c2.062,0,3.897,1.279,4.645,3.172c-0.664,0.531-1.495,0.828-2.35,0.828H16.952C16.72,37.498,16.49,37.476,16.265,37.434z
		 M12.195,56.498h-0.721l0.681-7h1.596L12.195,56.498z M47.799,56.498l-1.556-7h1.596l0.681,7H47.799z M57.899,26.858L51.03,45.896
		c-0.249,0.944-1.104,1.603-2.079,1.603H43.75H16.243h-5.201c-0.975,0-1.83-0.659-2.1-1.674L2.084,25.973
		c-0.137-0.335-0.099-0.701,0.104-1.001c0.202-0.301,0.526-0.473,0.888-0.473h2.921h2.329c0.209,0,0.476,0.179,0.746,0.498
		l2.255,10.005c0.161,0.715,0.456,1.364,0.841,1.942l-0.006,0.021l0.273,0.333c0.53,0.675,1.199,1.219,1.969,1.597
		c0.102,0.051,0.205,0.095,0.31,0.14c0.149,0.063,0.297,0.125,0.452,0.175c0.218,0.072,0.441,0.129,0.667,0.174
		c0.086,0.017,0.172,0.031,0.259,0.044c0.284,0.043,0.57,0.073,0.862,0.073h26.339c0.289,0,0.574-0.029,0.857-0.073
		c0.076-0.011,0.151-0.022,0.226-0.036c0.246-0.047,0.487-0.109,0.724-0.188c0.109-0.036,0.214-0.079,0.32-0.121
		c0.141-0.056,0.279-0.119,0.415-0.186c0.177-0.087,0.346-0.182,0.513-0.286c0.118-0.074,0.235-0.149,0.347-0.231
		c0.116-0.085,0.227-0.172,0.336-0.265c0.107-0.091,0.208-0.189,0.308-0.289c0.097-0.096,0.197-0.187,0.287-0.29l0.273-0.295
		l-0.012-0.046c0.468-0.623,0.83-1.337,1.019-2.138l1.971-8.368c0.184-0.7,0.818-1.188,1.542-1.188h1.58h3.063
		c0.32,0,0.605,0.153,0.781,0.42C58.018,26.186,58.046,26.509,57.899,26.858z"/>
</g>
<g>
</g>
<g>
</g>
<g>
</g>
<g>
</g>
<g>
</g>
<g>
</g>
<g>
</g>
<g>
</g>
<g>
</g>
<g>
</g>
<g>
</g>
<g>
</g>
<g>
</g>
<g>
</g>
<g>
</g>
</svg>
