<svg xmlns="http://www.w3.org/2000/svg" viewBox="0 0 60.01 60.01" style="enable-background:new 0 0 60.01 60.01" xml:space="preserve"><path d="M59.933 31.19c-.339-2.696-1.958-5.037-4.211-6.392.176-.118.348-.245.509-.386a5.163 5.163 0 0 0 1.777-3.899v-4.457c0-.336-.012-.669-.033-1-.294-4.304-2.6-8.109-6.326-10.44-3.847-2.406-8.645-2.831-12.831-1.135l-.178.072a22.82 22.82 0 0 1-17.267-.001L21.2 3.48c-4.187-1.695-8.983-1.271-12.831 1.135-3.727 2.331-6.032 6.136-6.326 10.442-.021.33-.033.663-.033.999v4.455a5.018 5.018 0 0 0 2.318 4.261C2.054 26.123.418 28.477.077 31.19c-.318 2.527.361 4.956 1.914 6.839a8.314 8.314 0 0 0 5.015 2.923v9.177c0 2.219 1.836 4.097 4.116 4.372.43 1.836 2.108 3.055 4.384 3.055 2.253 0 3.916-1.196 4.367-3h20.266c.451 1.804 2.114 3 4.367 3 2.277 0 3.955-1.219 4.385-3.056 2.279-.275 4.115-2.153 4.115-4.372v-9.177a8.312 8.312 0 0 0 5.014-2.922c1.552-1.883 2.231-4.311 1.913-6.839zM7.688 23.621c-.974.115-1.935-.174-2.643-.801a3.045 3.045 0 0 1-1.036-2.309v-4.455c0-.291.01-.58.029-.865.249-3.657 2.214-6.894 5.391-8.881 3.304-2.066 7.423-2.433 11.018-.978l.179.072a24.793 24.793 0 0 0 18.765.001l.179-.073a12.21 12.21 0 0 1 11.021.977c3.177 1.987 5.142 5.224 5.391 8.879.02.286.029.575.029.866v4.457c0 .917-.397 1.788-1.089 2.39a3.121 3.121 0 0 1-2.469.736l-.194-.024a8.8 8.8 0 0 0-6.858 2.168 8.782 8.782 0 0 0-2.896 5.774H17.506a8.778 8.778 0 0 0-2.896-5.774 8.804 8.804 0 0 0-6.858-2.168c-.012.001-.023.004-.035.006-.009.002-.019.001-.029.002zm9.251 9.935h26.132a2.938 2.938 0 0 1 2.935 2.934v2.966c0 .607-.494 1.101-1.101 1.101H15.106a1.103 1.103 0 0 1-1.101-1.101V36.49a2.938 2.938 0 0 1 2.934-2.934zm-1.434 22c-.88 0-1.805-.279-2.242-1h4.484c-.437.721-1.362 1-2.242 1zm29 0c-.88 0-1.805-.279-2.242-1h4.484c-.437.721-1.362 1-2.242 1zm11.971-18.799a6.36 6.36 0 0 1-4.537 2.311l-.934.062v10.999c0 1.271-1.276 2.427-2.678 2.427H11.682c-1.401 0-2.677-1.157-2.677-2.427V39.13l-.934-.062a6.36 6.36 0 0 1-4.538-2.312c-1.199-1.453-1.722-3.341-1.473-5.316.383-3.038 2.871-5.493 5.916-5.838.261-.03.519-.043.776-.044.029 0 .056.003.085.003.371.003.736.037 1.094.099.037.006.075.009.112.016a6.66 6.66 0 0 1 1.219.357c.33.131.651.287.959.471.049.029.096.063.145.093.317.2.624.421.911.677a6.78 6.78 0 0 1 2.232 4.518c-2.021.617-3.505 2.477-3.505 4.698v2.966a3.105 3.105 0 0 0 3.101 3.101h29.799a3.104 3.104 0 0 0 3.101-3.101V36.49c0-2.221-1.485-4.081-3.507-4.698.006-.072.005-.145.013-.216a6.783 6.783 0 0 1 2.22-4.301c1.451-1.296 3.32-1.885 5.28-1.674l.022.001c3.045.345 5.533 2.8 5.916 5.838.249 1.975-.274 3.864-1.473 5.317z"/><path d="M48.323 28.874a.999.999 0 1 0 1.414 1.414 2.502 2.502 0 0 1 3.536 0 2.503 2.503 0 0 1 0 3.536.999.999 0 1 0 1.414 1.414 4.504 4.504 0 0 0 0-6.364 4.505 4.505 0 0 0-6.364 0zM11.712 28.874a4.505 4.505 0 0 0-6.364 0 4.504 4.504 0 0 0 0 6.364.997.997 0 0 0 1.414 0 .999.999 0 0 0 0-1.414c-.473-.473-.732-1.1-.732-1.768s.26-1.295.732-1.768a2.502 2.502 0 0 1 3.536 0 .999.999 0 1 0 1.414-1.414zM35.302 22.263a.997.997 0 0 0 1.414 0l1.293-1.293 1.293 1.293a.997.997 0 0 0 1.414 0 .999.999 0 0 0 0-1.414l-1.293-1.293 1.293-1.293a.999.999 0 1 0-1.414-1.414l-1.293 1.293-1.293-1.293a.999.999 0 1 0-1.414 1.414l1.293 1.293-1.293 1.293a1 1 0 0 0 0 1.414zM19.302 22.263a.997.997 0 0 0 1.414 0l1.293-1.293 1.293 1.293a.997.997 0 0 0 1.414 0 .999.999 0 0 0 0-1.414l-1.293-1.293 1.293-1.293a.999.999 0 1 0-1.414-1.414l-1.293 1.293-1.293-1.293a.999.999 0 1 0-1.414 1.414l1.293 1.293-1.293 1.293a1 1 0 0 0 0 1.414z"/></svg>