<?xml version="1.0" encoding="iso-8859-1"?>
<!-- Generator: Adobe Illustrator 18.0.0, SVG Export Plug-In . SVG Version: 6.00 Build 0)  -->
<!DOCTYPE svg PUBLIC "-//W3C//DTD SVG 1.1//EN" "http://www.w3.org/Graphics/SVG/1.1/DTD/svg11.dtd">
<svg version="1.1" id="Capa_1" xmlns="http://www.w3.org/2000/svg" xmlns:xlink="http://www.w3.org/1999/xlink" x="0px" y="0px"
	 viewBox="0 0 60.008 60.008" style="enable-background:new 0 0 60.008 60.008;" xml:space="preserve">
<g>
	<path d="M19.297,21.211c0.195,0.195,0.451,0.293,0.707,0.293s0.512-0.098,0.707-0.293l0.92-0.92
		c0.433,0.213,0.901,0.332,1.373,0.332s0.94-0.12,1.373-0.332l0.92,0.92c0.195,0.195,0.451,0.293,0.707,0.293
		s0.512-0.098,0.707-0.293c0.391-0.391,0.391-1.023,0-1.414l-0.919-0.919c0.426-0.866,0.426-1.881,0-2.747l0.919-0.919
		c0.391-0.391,0.391-1.023,0-1.414s-1.023-0.391-1.414,0l-0.92,0.92c-0.866-0.425-1.88-0.425-2.747,0l-0.92-0.92
		c-0.391-0.391-1.023-0.391-1.414,0s-0.391,1.023,0,1.414l0.92,0.92c-0.426,0.866-0.426,1.88,0,2.747l-0.92,0.92
		C18.906,20.187,18.906,20.82,19.297,21.211z M23.797,16.711c0.437,0.438,0.437,1.148,0,1.586c-0.438,0.438-1.148,0.438-1.586,0
		c-0.437-0.438-0.437-1.148,0-1.586c0.219-0.219,0.506-0.328,0.793-0.328S23.578,16.492,23.797,16.711z"/>
	<path d="M35.297,21.211c0.195,0.195,0.451,0.293,0.707,0.293s0.512-0.098,0.707-0.293l0.92-0.92
		c0.433,0.213,0.901,0.332,1.373,0.332s0.94-0.12,1.373-0.332l0.92,0.92c0.195,0.195,0.451,0.293,0.707,0.293
		s0.512-0.098,0.707-0.293c0.391-0.391,0.391-1.023,0-1.414l-0.919-0.919c0.426-0.866,0.426-1.881,0-2.747l0.919-0.919
		c0.391-0.391,0.391-1.023,0-1.414s-1.023-0.391-1.414,0l-0.92,0.92c-0.866-0.425-1.88-0.425-2.747,0l-0.92-0.92
		c-0.391-0.391-1.023-0.391-1.414,0s-0.391,1.023,0,1.414l0.92,0.92c-0.426,0.866-0.426,1.88,0,2.747l-0.92,0.92
		C34.906,20.187,34.906,20.82,35.297,21.211z M39.797,16.711c0.437,0.438,0.437,1.148,0,1.586c-0.438,0.438-1.148,0.438-1.586,0
		c-0.437-0.438-0.437-1.148,0-1.586c0.219-0.219,0.506-0.328,0.793-0.328S39.578,16.492,39.797,16.711z"/>
	<path d="M59.949,32.28c-0.438-3.935-3.595-7.171-7.508-7.695c-0.78-0.104-1.558-0.092-2.32,0.006l0.901-9.18
		c0.561-3.476-0.428-7.007-2.711-9.688c-2.283-2.681-5.612-4.218-9.133-4.218H21.003c-3.521,0-6.851,1.538-9.133,4.218
		c-2.283,2.681-3.271,6.212-2.719,9.612l0.769,9.261c-0.773-0.103-1.562-0.117-2.353-0.011c-3.913,0.524-7.071,3.76-7.509,7.695
		c-0.3,2.704,0.568,5.328,2.381,7.2c2.944,3.04,4.565,6.785,4.565,10.545v1.052c0,2.337,1.826,4.237,4.123,4.397
		c0.439,1.822,2.11,3.031,4.377,3.031c2.253,0,3.916-1.196,4.367-3h20.266c0.451,1.804,2.114,3,4.367,3
		c2.277,0,3.956-1.22,4.385-3.057c2.312-0.282,4.115-2.234,4.115-4.62v-0.802c0-3.76,1.621-7.505,4.565-10.545
		C59.382,37.607,60.249,34.983,59.949,32.28z M11.969,25.114l-0.835-10.022c-0.467-2.897,0.355-5.839,2.258-8.073
		s4.677-3.515,7.611-3.515h18.175c2.935,0,5.708,1.281,7.611,3.515c1.902,2.234,2.725,5.177,2.25,8.135l-0.979,9.952
		c-0.023,0.009-0.044,0.02-0.066,0.029c-0.169,0.067-0.333,0.144-0.498,0.221c-0.083,0.039-0.166,0.077-0.247,0.119
		c-0.183,0.093-0.362,0.194-0.538,0.3c-0.049,0.03-0.097,0.06-0.145,0.09c-0.196,0.124-0.388,0.253-0.575,0.393
		c-0.004,0.003-0.008,0.006-0.012,0.01c-0.174,0.131-0.35,0.259-0.515,0.404c-0.866,0.757-1.562,1.668-2.065,2.674
		c-0.627,0.956-1.057,2.03-1.257,3.158H17.866c-0.201-1.128-0.63-2.203-1.257-3.158c-0.504-1.005-1.2-1.917-2.065-2.674
		c-0.157-0.137-0.324-0.259-0.49-0.383c-0.01-0.008-0.021-0.016-0.031-0.024c-0.183-0.137-0.371-0.264-0.563-0.386
		c-0.053-0.034-0.106-0.067-0.16-0.099c-0.172-0.104-0.346-0.202-0.524-0.294c-0.088-0.046-0.179-0.087-0.269-0.13
		c-0.157-0.074-0.314-0.148-0.475-0.213C12.011,25.134,11.991,25.123,11.969,25.114z M16.938,34.504H43.07
		c1.618,0,2.934,1.316,2.934,2.934v2.966c0,0.607-0.494,1.101-1.101,1.101H15.105c-0.607,0-1.101-0.494-1.101-1.101v-2.966
		C14.004,35.82,15.32,34.504,16.938,34.504z M15.504,56.504c-0.88,0-1.805-0.279-2.242-1h4.483
		C17.309,56.225,16.384,56.504,15.504,56.504z M44.504,56.504c-0.88,0-1.805-0.279-2.242-1h4.483
		C46.309,56.225,45.384,56.504,44.504,56.504z M56.132,38.088c-3.307,3.416-5.128,7.655-5.128,11.937v0.802
		c0,1.476-1.201,2.677-2.678,2.677h-8.322h-20h-8.573c-1.338,0-2.427-1.089-2.427-2.427v-1.052c0-4.283-1.821-8.522-5.128-11.937
		c-1.396-1.442-2.063-3.479-1.83-5.587c0.337-3.035,2.771-5.53,5.787-5.934c0.319-0.042,0.636-0.064,0.949-0.064
		c0.732,0,1.44,0.133,2.117,0.357c0.145,0.048,0.289,0.097,0.429,0.155c0.249,0.102,0.492,0.22,0.729,0.352
		c0.129,0.072,0.254,0.151,0.378,0.232c0.236,0.153,0.467,0.316,0.687,0.501c0.683,0.576,1.253,1.288,1.667,2.095
		c0.401,0.786,0.648,1.647,0.721,2.545c-2.021,0.617-3.505,2.478-3.505,4.698v2.966c0,1.709,1.391,3.101,3.101,3.101h29.799
		c1.709,0,3.101-1.391,3.101-3.101v-2.966c0-2.221-1.485-4.081-3.506-4.698c0.07-0.889,0.315-1.746,0.714-2.53
		c0.836-1.64,2.318-2.883,4.071-3.411l0.217-0.065c0.854-0.225,1.757-0.289,2.677-0.166c3.016,0.403,5.448,2.899,5.785,5.934
		C58.195,34.609,57.529,36.646,56.132,38.088z"/>
</g>
<g>
</g>
<g>
</g>
<g>
</g>
<g>
</g>
<g>
</g>
<g>
</g>
<g>
</g>
<g>
</g>
<g>
</g>
<g>
</g>
<g>
</g>
<g>
</g>
<g>
</g>
<g>
</g>
<g>
</g>
</svg>
