<?xml version="1.0" encoding="iso-8859-1"?>
<!-- Generator: Adobe Illustrator 18.0.0, SVG Export Plug-In . SVG Version: 6.00 Build 0)  -->
<!DOCTYPE svg PUBLIC "-//W3C//DTD SVG 1.1//EN" "http://www.w3.org/Graphics/SVG/1.1/DTD/svg11.dtd">
<svg version="1.1" id="Capa_1" xmlns="http://www.w3.org/2000/svg" xmlns:xlink="http://www.w3.org/1999/xlink" x="0px" y="0px"
	 viewBox="0 0 54.03 54.03" style="enable-background:new 0 0 54.03 54.03;" xml:space="preserve">
<g>
	<path d="M52,50.515v-5h2.03L54,21.435c0-1.059-0.861-1.92-1.92-1.92H48V3.138c0-1.447-1.177-2.624-2.624-2.624H8.624
		C7.177,0.515,6,1.692,6,3.138v16.376H1.92c-1.059,0-1.92,0.861-1.92,1.92v24.08h2v5h2v1c-0.552,0-1,0.448-1,1s0.448,1,1,1h2
		c0.552,0,1-0.448,1-1s-0.448-1-1-1v-1h2v-5h38v5h2v1c-0.552,0-1,0.448-1,1s0.448,1,1,1h2c0.552,0,1-0.448,1-1s-0.448-1-1-1v-1H52z
		 M8,3.138c0-0.344,0.28-0.624,0.624-0.624h36.753C45.72,2.515,46,2.795,46,3.138v16.376h-2.08c-1.059,0-1.92,0.861-1.92,1.92v3.08
		H12v-3.08c0-1.059-0.861-1.92-1.92-1.92H8V3.138z M12,26.515h30v7H12V26.515z M6,48.515H4v-3h2V48.515z M8,43.515H2v-22h4h4v3v11
		h34v-11v-3h4h4l0.03,22H52h-6H8z M50,45.515v3h-2v-3H50z"/>
	<circle cx="24" cy="7.515" r="1"/>
	<circle cx="30" cy="7.515" r="1"/>
	<circle cx="15" cy="10.515" r="1"/>
	<circle cx="15" cy="16.515" r="1"/>
	<circle cx="18" cy="13.515" r="1"/>
	<circle cx="21" cy="10.515" r="1"/>
	<circle cx="27" cy="10.515" r="1"/>
	<circle cx="21" cy="16.515" r="1"/>
	<circle cx="27" cy="16.515" r="1"/>
	<circle cx="24" cy="13.515" r="1"/>
	<circle cx="30" cy="13.515" r="1"/>
	<circle cx="24" cy="19.515" r="1"/>
	<circle cx="30" cy="19.515" r="1"/>
	<circle cx="33" cy="10.515" r="1"/>
	<circle cx="39" cy="10.515" r="1"/>
	<circle cx="33" cy="16.515" r="1"/>
	<circle cx="39" cy="16.515" r="1"/>
	<circle cx="36" cy="13.515" r="1"/>
</g>
<g>
</g>
<g>
</g>
<g>
</g>
<g>
</g>
<g>
</g>
<g>
</g>
<g>
</g>
<g>
</g>
<g>
</g>
<g>
</g>
<g>
</g>
<g>
</g>
<g>
</g>
<g>
</g>
<g>
</g>
</svg>
