<svg xmlns="http://www.w3.org/2000/svg" viewBox="0 0 56 56" style="enable-background:new 0 0 56 56" xml:space="preserve"><path d="M23.793 12.707a.997.997 0 0 0 1.414 0l.918-.918c.424.21.888.332 1.375.332s.951-.123 1.375-.332l.918.918a.997.997 0 0 0 1.414 0 .999.999 0 0 0 0-1.414l-.92-.92a3.119 3.119 0 0 0 0-2.747l.92-.92a.999.999 0 1 0-1.414-1.414l-.928.928c-.856-.4-1.875-.4-2.73 0l-.928-.928a.999.999 0 1 0-1.414 1.414l.92.92a3.119 3.119 0 0 0 0 2.747l-.92.92a.999.999 0 0 0 0 1.414zm4.5-4.5a1.123 1.123 0 0 1 0 1.586 1.148 1.148 0 0 1-1.586 0 1.123 1.123 0 0 1 .793-1.915c.3 0 .581.117.793.329zM23.793 29.707a.997.997 0 0 0 1.414 0l.918-.918c.424.21.888.332 1.375.332s.951-.123 1.375-.332l.918.918a.997.997 0 0 0 1.414 0 .999.999 0 0 0 0-1.414l-.92-.92a3.119 3.119 0 0 0 0-2.747l.92-.92a.999.999 0 1 0-1.414-1.414l-.928.928c-.856-.4-1.875-.4-2.73 0l-.928-.928a.999.999 0 1 0-1.414 1.414l.92.92a3.119 3.119 0 0 0 0 2.747l-.92.92a.999.999 0 0 0 0 1.414zm4.5-4.5a1.123 1.123 0 0 1 0 1.586 1.148 1.148 0 0 1-1.586 0 1.123 1.123 0 0 1 .793-1.915c.3 0 .581.117.793.329zM13.793 20.707a.997.997 0 0 0 1.414 0l.918-.918c.424.21.888.332 1.375.332s.951-.123 1.375-.332l.918.918a.997.997 0 0 0 1.414 0 .999.999 0 0 0 0-1.414l-.92-.92a3.119 3.119 0 0 0 0-2.747l.92-.92a.999.999 0 1 0-1.414-1.414l-.928.928c-.856-.4-1.875-.4-2.73 0l-.928-.928a.999.999 0 1 0-1.414 1.414l.92.92a3.119 3.119 0 0 0 0 2.747l-.92.92a.999.999 0 0 0 0 1.414zm4.5-4.5a1.123 1.123 0 0 1 0 1.586 1.148 1.148 0 0 1-1.586 0 1.123 1.123 0 0 1 .793-1.915c.3 0 .581.117.793.329zM33.793 20.707a.997.997 0 0 0 1.414 0l.918-.918c.424.21.888.332 1.375.332s.951-.123 1.375-.332l.918.918a.997.997 0 0 0 1.414 0 .999.999 0 0 0 0-1.414l-.92-.92a3.119 3.119 0 0 0 0-2.747l.92-.92a.999.999 0 1 0-1.414-1.414l-.928.928c-.856-.4-1.875-.4-2.73 0l-.928-.928a.999.999 0 1 0-1.414 1.414l.92.92a3.119 3.119 0 0 0 0 2.747l-.92.92a.999.999 0 0 0 0 1.414zm4.5-4.5a1.123 1.123 0 0 1 0 1.586 1.148 1.148 0 0 1-1.586 0 1.123 1.123 0 0 1 .793-1.915c.3 0 .581.117.793.329z"/><path d="M50.5 25.413V12.594C50.5 5.65 44.851 0 37.906 0H18.094C11.149 0 5.5 5.65 5.5 12.594v12.819c-2.939.993-5 3.695-5 6.964V56h15v-2h25v2h15V32.377c0-3.269-2.061-5.971-5-6.964zm-43-.395V12.594C7.5 6.752 12.252 2 18.094 2h19.813C43.748 2 48.5 6.752 48.5 12.594v12.424c-.03-.002-.059.003-.09.002-.136-.007-.271-.02-.41-.02-4.206 0-7.5 3.241-7.5 7.377V33h-25v-.622C15.5 28.241 12.206 25 8 25c-.139 0-.274.013-.41.02-.031.001-.06-.004-.09-.002zM40.5 37h-25v-2h25v2zm-38 17V32.377c0-2.596 1.795-4.697 4.26-5.235.113-.025.222-.037.333-.056.258-.04.519-.07.789-.076.054-.001.109-.007.163-.007a5.71 5.71 0 0 1 1.408.203c2.384.689 4.048 3.012 4.048 5.646V54H2.5zm13-2V39h25v13h-25zm38 2h-11V32.854c0-2.635 1.664-4.957 4.047-5.646a5.803 5.803 0 0 1 1.413-.203c.049 0 .099.005.148.006.274.005.541.036.803.077.11.018.218.031.329.055 2.465.538 4.26 2.639 4.26 5.235V54z"/><path d="M11.5 51h-7a1 1 0 1 0 0 2h7a1 1 0 1 0 0-2zM44.5 51a1 1 0 1 0 0 2h7a1 1 0 1 0 0-2h-7z"/></svg>