<?xml version="1.0" encoding="iso-8859-1"?>
<!-- Generator: Adobe Illustrator 18.0.0, SVG Export Plug-In . SVG Version: 6.00 Build 0)  -->
<!DOCTYPE svg PUBLIC "-//W3C//DTD SVG 1.1//EN" "http://www.w3.org/Graphics/SVG/1.1/DTD/svg11.dtd">
<svg version="1.1" id="Capa_1" xmlns="http://www.w3.org/2000/svg" xmlns:xlink="http://www.w3.org/1999/xlink" x="0px" y="0px"
	 viewBox="0 0 56.003 56.003" style="enable-background:new 0 0 56.003 56.003;" xml:space="preserve">
<g>
	<path d="M48.972,18.003v-4.716c0-3.147-1.547-6.119-4.138-7.948c-10.086-7.119-23.639-7.119-33.725,0
		c-2.591,1.829-4.138,4.8-4.138,7.948v4.716h0c-3.292,0-5.97,2.691-5.97,6v19c0,2.614,1.675,4.837,4,5.657v4.343h2v1
		c-0.552,0-1,0.448-1,1s0.448,1,1,1h2c0.552,0,1-0.448,1-1s-0.448-1-1-1v-1h2v-4h34v4h2v1c-0.552,0-1,0.448-1,1s0.448,1,1,1h2
		c0.552,0,1-0.448,1-1s-0.448-1-1-1v-1h2v-4.35c2.327-0.826,4-3.043,4-5.65v-19C55.001,20.695,52.297,18.003,48.972,18.003z
		 M8.972,18.346v-5.059c0-2.499,1.23-4.859,3.291-6.314c9.396-6.632,22.022-6.631,31.418,0c2.061,1.455,3.291,3.815,3.291,6.314
		v5.058c-0.034,0.012-0.063,0.031-0.097,0.043c-0.251,0.094-0.496,0.199-0.73,0.325c-0.009,0.005-0.019,0.008-0.028,0.013
		c-0.241,0.131-0.469,0.283-0.689,0.445c-0.045,0.033-0.09,0.066-0.134,0.1c-0.215,0.168-0.421,0.348-0.611,0.543
		c-0.015,0.016-0.029,0.032-0.044,0.048c-0.187,0.196-0.36,0.404-0.519,0.624c-0.016,0.022-0.032,0.042-0.048,0.064
		c-0.164,0.231-0.31,0.475-0.44,0.729c-0.013,0.026-0.025,0.052-0.038,0.078c-0.124,0.252-0.234,0.512-0.323,0.782
		c-0.003,0.008-0.006,0.015-0.008,0.023c-0.086,0.266-0.15,0.54-0.198,0.821c-0.01,0.055-0.018,0.111-0.026,0.167
		c-0.04,0.279-0.068,0.563-0.068,0.853v6h-30v-6c0-0.29-0.028-0.574-0.068-0.853c-0.008-0.056-0.016-0.111-0.025-0.166
		c-0.048-0.281-0.112-0.556-0.198-0.822c-0.002-0.007-0.005-0.014-0.008-0.021c-0.089-0.271-0.199-0.531-0.323-0.783
		c-0.013-0.026-0.025-0.052-0.038-0.078c-0.13-0.254-0.277-0.497-0.44-0.729c-0.015-0.022-0.032-0.042-0.047-0.064
		c-0.16-0.22-0.332-0.428-0.519-0.624c-0.015-0.016-0.028-0.032-0.044-0.048c-0.191-0.195-0.396-0.375-0.612-0.543
		c-0.044-0.034-0.089-0.067-0.134-0.1c-0.22-0.162-0.448-0.314-0.689-0.445c-0.008-0.004-0.017-0.007-0.024-0.012
		c-0.235-0.126-0.482-0.232-0.735-0.327C9.034,18.376,9.005,18.357,8.972,18.346z M12.972,35.003l0-3h13.03l-1.8,2.4
		c-0.332,0.442-0.242,1.069,0.2,1.4c0.18,0.135,0.391,0.2,0.599,0.2c0.304,0,0.604-0.138,0.801-0.4l2.2-2.934l2.2,2.934
		c0.196,0.262,0.497,0.4,0.801,0.4c0.208,0,0.419-0.065,0.599-0.2c0.442-0.331,0.531-0.958,0.2-1.4l-1.8-2.4h12.97v3
		c0,2.206-1.794,4-4,4h-22C14.767,39.003,12.972,37.208,12.972,35.003z M9.001,51.003h-2v-2h2V51.003z M49.001,51.003h-2v-2h2
		V51.003z M53.001,43.003c0,2.206-1.794,4-4,4h-4h-34h-4.03c-2.189,0-3.97-1.794-3.97-4v-19c0-2.206,1.781-4,3.97-4
		c0.275,0,0.544,0.028,0.804,0.081c0.008,0.002,0.015,0.005,0.022,0.007c0.24,0.051,0.471,0.124,0.692,0.215
		c0.069,0.028,0.132,0.067,0.199,0.099c0.154,0.074,0.306,0.151,0.448,0.244c0.077,0.05,0.147,0.107,0.22,0.162
		c0.12,0.09,0.236,0.183,0.345,0.285c0.074,0.07,0.143,0.144,0.212,0.219c0.093,0.102,0.18,0.207,0.263,0.318
		c0.064,0.087,0.126,0.175,0.183,0.267c0.071,0.115,0.134,0.235,0.194,0.357c0.047,0.096,0.096,0.192,0.135,0.292
		c0.055,0.14,0.096,0.287,0.135,0.434c0.024,0.09,0.054,0.177,0.072,0.268c0.047,0.244,0.076,0.494,0.076,0.751v6v5
		c0,3.309,2.691,6,6,6h0h22c3.309,0,6-2.691,6-6v-5v-6c0-0.257,0.029-0.507,0.076-0.751c0.018-0.092,0.048-0.179,0.072-0.269
		c0.039-0.147,0.08-0.293,0.135-0.433c0.039-0.1,0.088-0.196,0.135-0.292c0.06-0.122,0.122-0.242,0.194-0.357
		c0.057-0.092,0.119-0.18,0.183-0.266c0.082-0.111,0.17-0.216,0.262-0.318c0.069-0.075,0.138-0.15,0.213-0.22
		c0.108-0.102,0.224-0.194,0.343-0.283c0.073-0.055,0.145-0.113,0.222-0.164c0.141-0.091,0.292-0.168,0.444-0.241
		c0.068-0.033,0.133-0.073,0.203-0.102c0.215-0.089,0.44-0.159,0.672-0.209c0.015-0.003,0.028-0.01,0.043-0.013
		c0.259-0.053,0.528-0.081,0.802-0.081c2.222,0,4.03,1.794,4.03,4V43.003z"/>
	<circle cx="18.971" cy="11.003" r="1"/>
	<circle cx="24.971" cy="11.003" r="1"/>
	<circle cx="30.971" cy="11.003" r="1"/>
	<circle cx="36.971" cy="11.003" r="1"/>
	<circle cx="18.971" cy="17.003" r="1"/>
	<circle cx="18.971" cy="23.003" r="1"/>
	<circle cx="21.971" cy="14.003" r="1"/>
	<circle cx="27.971" cy="14.003" r="1"/>
	<circle cx="21.971" cy="20.003" r="1"/>
	<circle cx="27.971" cy="20.003" r="1"/>
	<circle cx="24.971" cy="17.003" r="1"/>
	<circle cx="30.971" cy="17.003" r="1"/>
	<circle cx="24.971" cy="23.003" r="1"/>
	<circle cx="30.971" cy="23.003" r="1"/>
	<circle cx="33.971" cy="14.003" r="1"/>
	<circle cx="33.971" cy="20.003" r="1"/>
	<circle cx="36.971" cy="17.003" r="1"/>
	<circle cx="36.971" cy="23.003" r="1"/>
</g>
<g>
</g>
<g>
</g>
<g>
</g>
<g>
</g>
<g>
</g>
<g>
</g>
<g>
</g>
<g>
</g>
<g>
</g>
<g>
</g>
<g>
</g>
<g>
</g>
<g>
</g>
<g>
</g>
<g>
</g>
</svg>
