<svg xmlns="http://www.w3.org/2000/svg" viewBox="0 0 60 60" style="enable-background:new 0 0 60 60" xml:space="preserve"><path d="M59 58H49v-2.223A7.21 7.21 0 0 0 53.077 53H57a1 1 0 0 0 1-1V5a1 1 0 0 0-1-1V3h2a1 1 0 1 0 0-2h-2a1 1 0 1 0-2 0h-1a1 1 0 1 0-2 0h-1a1 1 0 1 0-2 0h-1a1 1 0 1 0-2 0h-1a1 1 0 1 0-2 0h-1a1 1 0 1 0-2 0h-2a1 1 0 1 0 0 2h2v1a1 1 0 0 0-1 1v27H8v-4.586L12.414 23H13a1 1 0 1 0 0-2h-1a.996.996 0 0 0-.707.293L6.586 26H4v-3h2a1 1 0 1 0 0-2H3a1 1 0 0 0-1 1V32.184A2.996 2.996 0 0 0 0 35c0 1.378.939 2.53 2.207 2.88l3.551 12.787c.709 2.551 2.755 4.454 5.242 5.087V58H1a1 1 0 1 0 0 2h58a1 1 0 1 0 0-2zM55 3v1h-1V3h1zm-3 0v1h-1V3h1zm-3 0v1h-1V3h1zm-3 0v1h-1V3h1zm-4 0h1v1h-1V3zm-1 23V6h15v45H41V26zM6 32H4v-4h2v4zm-3 2h36v2H3a1 1 0 0 1 0-2zm4.686 16.132L4.315 38H39v15h11.307c-.882.643-1.951 1-3.081 1H12.774a5.297 5.297 0 0 1-5.088-3.868zM42.382 56l1 2H16.618l1-2h24.764zM13 58v-2h2.382l-1 2H13zm32.618 0-1-2H47v2h-1.382z"/><circle cx="42" cy="8" r="1"/><circle cx="42" cy="14" r="1"/><circle cx="45" cy="11" r="1"/><circle cx="45" cy="17" r="1"/><circle cx="48" cy="8" r="1"/><circle cx="54" cy="8" r="1"/><circle cx="48" cy="14" r="1"/><circle cx="54" cy="14" r="1"/><circle cx="51" cy="11" r="1"/><circle cx="51" cy="17" r="1"/><circle cx="42" cy="20" r="1"/><circle cx="42" cy="26" r="1"/><circle cx="45" cy="23" r="1"/><circle cx="45" cy="29" r="1"/><circle cx="48" cy="20" r="1"/><circle cx="54" cy="20" r="1"/><circle cx="48" cy="26" r="1"/><circle cx="54" cy="26" r="1"/><circle cx="51" cy="23" r="1"/><circle cx="51" cy="29" r="1"/><circle cx="42" cy="32" r="1"/><circle cx="42" cy="38" r="1"/><circle cx="45" cy="35" r="1"/><circle cx="45" cy="41" r="1"/><circle cx="48" cy="32" r="1"/><circle cx="54" cy="32" r="1"/><circle cx="48" cy="38" r="1"/><circle cx="54" cy="38" r="1"/><circle cx="51" cy="35" r="1"/><circle cx="51" cy="41" r="1"/><circle cx="42" cy="44" r="1"/><circle cx="42" cy="50" r="1"/><circle cx="45" cy="47" r="1"/><circle cx="48" cy="44" r="1"/><circle cx="54" cy="44" r="1"/><circle cx="48" cy="50" r="1"/><circle cx="54" cy="50" r="1"/><circle cx="51" cy="47" r="1"/></svg>