<svg xmlns="http://www.w3.org/2000/svg" viewBox="0 0 60 60" style="enable-background:new 0 0 60 60" xml:space="preserve"><path d="M14 23a1 1 0 0 0 1-1V11a1 1 0 1 0-2 0v11a1 1 0 0 0 1 1zM18 30a1 1 0 0 0 1-1V17a1 1 0 1 0-2 0v12a1 1 0 0 0 1 1zM22 27a1 1 0 0 0 1-1V13a1 1 0 1 0-2 0v13a1 1 0 0 0 1 1zM27 32a1 1 0 0 0 1-1V20a1 1 0 1 0-2 0v11a1 1 0 0 0 1 1z"/><path d="M58.51.187a2.413 2.413 0 0 0-2.631.523l-2.59 2.59c-2.258-1.722-5.495-1.575-7.558.487a.999.999 0 0 0 0 1.414l7.071 7.071a1 1 0 0 0 1.414 0c2.062-2.063 2.209-5.3.486-7.558l2.59-2.59a.399.399 0 0 1 .452-.09c.096.04.256.143.256.383v29.767A2.966 2.966 0 0 0 57 32H33V7a1 1 0 0 0-1-1h-1V4h6a1 1 0 1 0 0-2h-6V1a1 1 0 1 0-2 0v1h-1V1a1 1 0 1 0-2 0v1h-1V1a1 1 0 1 0-2 0v1h-1V1a1 1 0 1 0-2 0v1h-1V1a1 1 0 1 0-2 0v1h-1V1a1 1 0 1 0-2 0v1h-1V1a1 1 0 1 0-2 0v1H5a1 1 0 1 0 0 2h6v2h-1a1 1 0 0 0-1 1v25H3c-1.654 0-3 1.346-3 3 0 1.378.939 2.53 2.207 2.88l3.552 12.787c.709 2.551 2.754 4.454 5.241 5.087V59a1 1 0 0 0 1 1h3c.379 0 .725-.214.895-.553L17.618 56h24.764l1.724 3.447A.998.998 0 0 0 45 60h3a1 1 0 0 0 1-1v-3.246c2.487-.633 4.533-2.536 5.241-5.087l3.552-12.787A2.995 2.995 0 0 0 60 35V2.417c0-.979-.585-1.855-1.49-2.23zm-5.096 9.869L47.947 4.59a3.771 3.771 0 0 1 4.524.611l.331.331a3.776 3.776 0 0 1 .612 4.524zM57 34a1.001 1.001 0 0 1 0 2H33v-2h24zM29 4v2h-1V4h1zm-3 0v2h-1V4h1zm-3 0v2h-1V4h1zm-3 0v2h-1V4h1zm-3 0v2h-1V4h1zm-4 0h1v2h-1V4zm-2 4h20v35H11V8zM3 34h6v2H3a1.001 1.001 0 0 1 0-2zm11.382 24H13v-2h2.382l-1 2zM47 58h-1.382l-1-2H47v2zm5.314-7.868A5.297 5.297 0 0 1 47.226 54H12.774a5.299 5.299 0 0 1-5.089-3.868L4.315 38H9v7h24v-7h22.685l-3.371 12.132z"/></svg>