<svg xmlns="http://www.w3.org/2000/svg" viewBox="0 0 60 60" style="enable-background:new 0 0 60 60" xml:space="preserve"><path d="M59 57.999H49v-2.246c2.487-.633 4.533-2.536 5.241-5.087l3.552-12.787A2.995 2.995 0 0 0 60 34.999c0-1.654-1.346-3-3-3V2.416A2.412 2.412 0 0 0 52.879.709l-2.59 2.59c-2.258-1.722-5.495-1.575-7.558.487a.999.999 0 0 0 0 1.414l7.071 7.071a1 1 0 0 0 1.414 0c2.062-2.063 2.209-5.3.486-7.558l2.59-2.59a.399.399 0 0 1 .452-.09c.096.04.256.142.256.383v29.583H24v-2H11v2H3c-1.654 0-3 1.346-3 3 0 1.378.939 2.53 2.207 2.88l3.552 12.787c.708 2.551 2.754 4.454 5.241 5.087v2.246H1a1 1 0 1 0 0 2h58a1 1 0 1 0 0-2zm-8.586-47.945-5.467-5.466a3.771 3.771 0 0 1 4.524.611l.331.331a3.776 3.776 0 0 1 .612 4.524zM57 33.999a1.001 1.001 0 0 1 0 2H24v-2h33zm-35-2v11h-9v-11h9zm-9 13h9v2h-9v-2zm-10-11h8v2H3a1.001 1.001 0 0 1 0-2zm4.686 16.132-3.37-12.132H11v11h13v-11h31.685l-3.37 12.132a5.299 5.299 0 0 1-5.089 3.868H12.774a5.297 5.297 0 0 1-5.088-3.868zm34.696 5.868 1 2H16.618l1-2h24.764zm-29.382 2v-2h2.382l-1 2H13zm32.618 0-1-2H47v2h-1.382z"/><path d="M47 13.999a1 1 0 0 0 1-1v-1a1 1 0 1 0-2 0v1a1 1 0 0 0 1 1zM46 20.999a1 1 0 1 0 2 0v-1a1 1 0 1 0-2 0v1zM46 24.999a1 1 0 1 0 2 0v-1a1 1 0 1 0-2 0v1zM46 28.999a1 1 0 1 0 2 0v-1a1 1 0 1 0-2 0v1zM46 16.999a1 1 0 1 0 2 0v-1a1 1 0 1 0-2 0v1zM37.464 12.534a.997.997 0 0 0 .707-.293l.707-.707a.999.999 0 1 0-1.414-1.414l-.707.707a.999.999 0 0 0 .707 1.707zM34.636 15.363a.997.997 0 0 0 .707-.293l.707-.707a.999.999 0 1 0-1.414-1.414l-.707.707a.999.999 0 0 0 .707 1.707zM31.808 18.191a.997.997 0 0 0 .707-.293l.707-.707a.999.999 0 1 0-1.414-1.414l-.707.707a.999.999 0 0 0 .707 1.707zM40.293 9.706A.997.997 0 0 0 41 9.413l.707-.707a.999.999 0 1 0-1.414-1.414l-.707.707a.999.999 0 0 0 .707 1.707zM26.151 23.848a.997.997 0 0 0 .707-.293l.707-.707a.999.999 0 1 0-1.414-1.414l-.707.707a.999.999 0 0 0 .707 1.707zM20.494 29.505a.997.997 0 0 0 .707-.293l.707-.707a.999.999 0 1 0-1.414-1.414l-.707.707a.999.999 0 0 0 .707 1.707zM28.979 21.019a.997.997 0 0 0 .707-.293l.708-.707a1 1 0 1 0-1.415-1.414l-.708.707a.999.999 0 0 0 .708 1.707zM23.322 26.676a.997.997 0 0 0 .707-.293l.707-.707a.999.999 0 1 0-1.414-1.414l-.707.707a.999.999 0 0 0 .707 1.707zM39.144 19.74a1 1 0 0 0 1.359-.389l.485-.874a.998.998 0 0 0-.389-1.359.997.997 0 0 0-1.359.389l-.485.874a1 1 0 0 0 .389 1.359zM41.184 14.009l-.486.874a1 1 0 1 0 1.748.972l.486-.874a1 1 0 1 0-1.748-.972zM43.028 12.747a1 1 0 0 0 1.36-.388l.486-.874a1 1 0 1 0-1.748-.972l-.486.874a1 1 0 0 0 .388 1.36zM36.618 26.344l.485-.874a.998.998 0 0 0-.389-1.359.997.997 0 0 0-1.359.389l-.485.874a.998.998 0 0 0 .873 1.485.996.996 0 0 0 .875-.515zM38.561 22.849l.486-.874a1 1 0 1 0-1.748-.972l-.486.874a1 1 0 1 0 1.748.972zM34.773 27.608a.999.999 0 0 0-1.36.389l-.287.517a.998.998 0 0 0 .873 1.485 1 1 0 0 0 .875-.515l.287-.517a.998.998 0 0 0-.388-1.359z"/></svg>