<?xml version="1.0" encoding="iso-8859-1"?>
<!-- Generator: Adobe Illustrator 18.0.0, SVG Export Plug-In . SVG Version: 6.00 Build 0)  -->
<!DOCTYPE svg PUBLIC "-//W3C//DTD SVG 1.1//EN" "http://www.w3.org/Graphics/SVG/1.1/DTD/svg11.dtd">
<svg version="1.1" id="Capa_1" xmlns="http://www.w3.org/2000/svg" xmlns:xlink="http://www.w3.org/1999/xlink" x="0px" y="0px"
	 viewBox="0 0 60 60" style="enable-background:new 0 0 60 60;" xml:space="preserve">
<g>
	<path d="M14,23c0.552,0,1-0.447,1-1V11c0-0.553-0.448-1-1-1s-1,0.447-1,1v11C13,22.553,13.448,23,14,23z"/>
	<path d="M18,30c0.552,0,1-0.447,1-1V17c0-0.553-0.448-1-1-1s-1,0.447-1,1v12C17,29.553,17.448,30,18,30z"/>
	<path d="M22,27c0.552,0,1-0.447,1-1V13c0-0.553-0.448-1-1-1s-1,0.447-1,1v13C21,26.553,21.448,27,22,27z"/>
	<path d="M27,32c0.552,0,1-0.447,1-1V20c0-0.553-0.448-1-1-1s-1,0.447-1,1v11C26,31.553,26.448,32,27,32z"/>
	<path d="M58.51,0.187c-0.904-0.373-1.938-0.169-2.631,0.523l-2.59,2.59c-2.258-1.722-5.495-1.575-7.558,0.487
		c-0.391,0.391-0.391,1.023,0,1.414l7.071,7.071c0.188,0.188,0.442,0.293,0.707,0.293s0.52-0.105,0.707-0.293
		c2.062-2.063,2.209-5.3,0.486-7.558l2.59-2.59c0.17-0.17,0.357-0.128,0.452-0.09C57.84,2.074,58,2.177,58,2.417v29.767
		C57.686,32.072,57.352,32,57,32H33V7c0-0.553-0.448-1-1-1h-1V4h6c0.552,0,1-0.447,1-1s-0.448-1-1-1h-6V1c0-0.553-0.448-1-1-1
		s-1,0.447-1,1v1h-1V1c0-0.553-0.448-1-1-1s-1,0.447-1,1v1h-1V1c0-0.553-0.448-1-1-1s-1,0.447-1,1v1h-1V1c0-0.553-0.448-1-1-1
		s-1,0.447-1,1v1h-1V1c0-0.553-0.448-1-1-1s-1,0.447-1,1v1h-1V1c0-0.553-0.448-1-1-1s-1,0.447-1,1v1h-1V1c0-0.553-0.448-1-1-1
		s-1,0.447-1,1v1H5C4.448,2,4,2.447,4,3s0.448,1,1,1h6v2h-1C9.448,6,9,6.447,9,7v25H3c-1.654,0-3,1.346-3,3
		c0,1.378,0.939,2.53,2.207,2.88l3.552,12.787c0.709,2.551,2.754,4.454,5.241,5.087V59c0,0.553,0.448,1,1,1h3
		c0.379,0,0.725-0.214,0.895-0.553L17.618,56h24.764l1.724,3.447C44.275,59.786,44.621,60,45,60h3c0.552,0,1-0.447,1-1v-3.246
		c2.487-0.633,4.533-2.536,5.241-5.087l3.552-12.787C59.061,37.53,60,36.378,60,35V2.417C60,1.438,59.415,0.562,58.51,0.187z
		 M53.414,10.056L47.947,4.59c1.437-0.818,3.299-0.612,4.524,0.611l0.331,0.331C54.025,6.756,54.229,8.619,53.414,10.056z M57,34
		c0.551,0,1,0.448,1,1s-0.449,1-1,1H33v-2H57z M29,4v2h-1V4H29z M26,4v2h-1V4H26z M23,4v2h-1V4H23z M20,4v2h-1V4H20z M17,4v2h-1V4
		H17z M13,4h1v2h-1V4z M11,8h20v24v4v2v5H11v-5v-2v-4V8z M3,34h6v2H3c-0.551,0-1-0.448-1-1S2.449,34,3,34z M14.382,58H13v-2h2.382
		L14.382,58z M47,58h-1.382l-1-2H47V58z M52.314,50.132C51.682,52.409,49.589,54,47.226,54H43H17h-4.226
		c-2.363,0-4.456-1.591-5.089-3.868L4.315,38H9v6v1h1h22h1v-1v-6h22.685L52.314,50.132z"/>
</g>
<g>
</g>
<g>
</g>
<g>
</g>
<g>
</g>
<g>
</g>
<g>
</g>
<g>
</g>
<g>
</g>
<g>
</g>
<g>
</g>
<g>
</g>
<g>
</g>
<g>
</g>
<g>
</g>
<g>
</g>
</svg>
