<svg xmlns="http://www.w3.org/2000/svg" viewBox="0 0 60 60" style="enable-background:new 0 0 60 60" xml:space="preserve"><circle cx="20" cy="42" r="1"/><circle cx="26" cy="42" r="1"/><circle cx="32" cy="42" r="1"/><circle cx="38" cy="42" r="1"/><circle cx="44" cy="42" r="1"/><path d="M60 38V28h-3v-.856A4.147 4.147 0 0 0 52.856 23H7.144A4.148 4.148 0 0 0 3 27.144V28H0v10h3v5H2a1 1 0 1 0 0 2H0v15h11v-3h38v3h11V45h-2a1 1 0 1 0 0-2h-1v-5h3zm-2-8v6h-4v-6h4zM2 30h4v6H2v-6zm7 28H2V47h4v10h3v1zm2-3H8v-8h44v8H11zm3.18-16a1.437 1.437 0 0 1 .255-1.73l3.992-3.936a1.533 1.533 0 0 1 2.146 0l3.993 3.936c.477.471.563 1.173.254 1.73H14.18zm-1.177 3.017A.999.999 0 0 0 15 42a.981.981 0 0 0-.403-.781A4.935 4.935 0 0 1 16 41h28a5.008 5.008 0 0 1 4.899 4H48a1 1 0 0 0-2 0h-4a1 1 0 0 0-2 0h-4a1 1 0 0 0-2 0h-4a1 1 0 0 0-2 0h-4a1 1 0 0 0-2 0h-4a1 1 0 0 0-2 0h-4c0-.413-.251-.767-.608-.92a5.016 5.016 0 0 1 1.611-2.063zm21.432-4.747 3.992-3.936a1.533 1.533 0 0 1 2.146 0l3.993 3.936c.477.471.563 1.173.254 1.73H34.18a1.437 1.437 0 0 1 .255-1.73zM58 58h-7v-1h3V47h4v11zm-3-15h-1a1 1 0 1 0 0 2h-3.08a7.017 7.017 0 0 0-4.16-5.431 3.419 3.419 0 0 0-.79-3.724l-3.992-3.936a3.54 3.54 0 0 0-4.955 0l-3.992 3.936a3.417 3.417 0 0 0-.958 3.154h-5.146a3.416 3.416 0 0 0-.957-3.154l-3.992-3.936a3.54 3.54 0 0 0-4.955 0l-3.992 3.936a3.411 3.411 0 0 0-.583 4.133A7.008 7.008 0 0 0 9.08 45H6a1 1 0 1 0 0-2H5v-5h3V28H5v-.856C5 25.962 5.961 25 7.144 25h45.713c1.181 0 2.143.962 2.143 2.144V28h-3v10h3v5zM48 4H12v13h36V4zm-2 11H14V6h32v9z"/><path d="M52 0H8v21h44V0zm-2 19H10V2h40v17z"/><path d="M18 13a.997.997 0 0 0 .707-.293L21 10.414l2.293 2.293a.997.997 0 0 0 1.414 0L27 10.414l2.293 2.293a.997.997 0 0 0 1.414 0L33 10.414l2.293 2.293a.997.997 0 0 0 1.414 0L39 10.414l2.293 2.293a.997.997 0 0 0 1.414 0 .999.999 0 0 0 0-1.414l-3-3a.999.999 0 0 0-1.414 0L36 10.586l-2.293-2.293a.999.999 0 0 0-1.414 0L30 10.586l-2.293-2.293a.999.999 0 0 0-1.414 0L24 10.586l-2.293-2.293a.999.999 0 0 0-1.414 0l-3 3A.999.999 0 0 0 18 13z"/></svg>