<svg xmlns="http://www.w3.org/2000/svg" viewBox="0 0 60 60" style="enable-background:new 0 0 60 60" xml:space="preserve"><circle cx="6" cy="13.5" r="1"/><circle cx="9" cy="10.5" r="1"/><circle cx="3" cy="16.5" r="1"/><circle cx="9" cy="16.5" r="1"/><circle cx="12" cy="13.5" r="1"/><circle cx="18" cy="13.5" r="1"/><circle cx="15" cy="10.5" r="1"/><circle cx="21" cy="10.5" r="1"/><circle cx="24" cy="13.5" r="1"/><circle cx="30" cy="13.5" r="1"/><circle cx="27" cy="10.5" r="1"/><circle cx="33" cy="10.5" r="1"/><circle cx="27" cy="16.5" r="1"/><circle cx="33" cy="16.5" r="1"/><circle cx="36" cy="13.5" r="1"/><circle cx="42" cy="13.5" r="1"/><circle cx="39" cy="10.5" r="1"/><circle cx="45" cy="10.5" r="1"/><circle cx="48" cy="13.5" r="1"/><circle cx="54" cy="13.5" r="1"/><circle cx="6" cy="19.5" r="1"/><circle cx="30" cy="19.5" r="1"/><circle cx="54" cy="19.5" r="1"/><circle cx="51" cy="10.5" r="1"/><circle cx="51" cy="16.5" r="1"/><circle cx="57" cy="16.5" r="1"/><circle cx="3" cy="22.5" r="1"/><circle cx="27" cy="22.5" r="1"/><circle cx="33" cy="22.5" r="1"/><circle cx="57" cy="22.5" r="1"/><path d="M52.896 7.5H7.104C3.187 7.5 0 10.688 0 14.604V39.318c0 .846.337 1.611.878 2.182A3.163 3.163 0 0 0 0 43.682v2.637a3.18 3.18 0 0 0 2 2.948V52.5h9v-3h38v3h9v-3.233c1.17-.471 2-1.613 2-2.948v-2.637c0-.846-.337-1.611-.878-2.182A3.163 3.163 0 0 0 60 39.318V14.604c0-3.916-3.187-7.104-7.104-7.104zM2 28.5V14.604A5.11 5.11 0 0 1 7.104 9.5h45.792A5.11 5.11 0 0 1 58 14.604V30.728c-.015-.006-.032-.008-.047-.014a7.005 7.005 0 0 0-.326-1.452A.988.988 0 0 0 58 28.5a1 1 0 0 0-1-1c-.081 0-.154.028-.229.046a7.002 7.002 0 0 0-5.126-3.014 4.013 4.013 0 0 0-1.01-3.989l-4.857-4.856a4.059 4.059 0 0 0-5.733 0l-.245.244a.982.982 0 0 0-.8-.431 1 1 0 0 0-1 1c0 .336.177.619.431.8L36.8 18.931a.982.982 0 0 0-.8-.431 1 1 0 0 0-1 1c0 .336.177.619.431.8l-.244.244a4.008 4.008 0 0 0-1.019 3.956h-9.336a4.01 4.01 0 0 0-1.019-3.956l-.103-.103c.093.029.187.059.29.059a1 1 0 1 0-1-1c0 .103.03.197.059.29l-2.349-2.349c.093.029.187.059.29.059a1 1 0 1 0-1-1c0 .103.03.197.059.291l-1.103-1.103a4.059 4.059 0 0 0-5.733 0l-4.857 4.856a4.014 4.014 0 0 0-.966 4.148 7.016 7.016 0 0 0-4.17 2.854c-.076-.018-.149-.046-.23-.046a1 1 0 0 0-1 1c0 .311.151.578.374.761-.157.465-.27.95-.326 1.452-.016.006-.033.008-.048.015V28.5zm7.78-6.542 4.857-4.856a2.054 2.054 0 0 1 2.905 0l4.857 4.856c.692.691.788 1.744.281 2.542H9.499a2.037 2.037 0 0 1 .281-2.542zM9 26.5h42a5.008 5.008 0 0 1 4.899 4H4.101A5.008 5.008 0 0 1 9 26.5zm27.602-4.542 4.857-4.856a2.054 2.054 0 0 1 2.905 0l4.857 4.856c.692.691.788 1.744.281 2.542H36.32a2.037 2.037 0 0 1 .282-2.542zM9 50.5H4v-1h5v1zm47 0h-5v-1h5v1zm2-4.182c0 .651-.53 1.182-1.182 1.182H3.182C2.53 47.5 2 46.97 2 46.318v-2.637c0-.651.53-1.181 1.182-1.181h53.637c.651 0 1.181.53 1.181 1.182v2.636zm0-7c0 .651-.53 1.182-1.182 1.182H3.182C2.53 40.5 2 39.97 2 39.318v-5.637c0-.651.53-1.181 1.182-1.181h53.637c.651 0 1.181.53 1.181 1.182v5.636z"/></svg>