<svg xmlns="http://www.w3.org/2000/svg" viewBox="0 0 58 58" style="enable-background:new 0 0 58 58" xml:space="preserve"><path d="M37.454 26.839A7.522 7.522 0 0 0 39 27c4.136 0 7.5-3.364 7.5-7.5S43.136 12 39 12c-.067 0-.132.004-.249.012a1 1 0 0 0-.954.911l-1.134 12.85a1 1 0 0 0 .791 1.066zm2.252-12.794A5.509 5.509 0 0 1 44.5 19.5c0 3.119-2.631 5.634-5.761 5.494l.967-10.949z"/><path d="M39 31c6.341 0 11.5-5.159 11.5-11.5 0-5.89-4.516-10.807-10.268-11.427l.264-2.985A1.003 1.003 0 0 0 39.5 4h-2v-.33A3.674 3.674 0 0 0 33.83 0H16.17a3.674 3.674 0 0 0-3.67 3.67V4h-1a1 1 0 0 0-1 1v5.465l-2.555 1.703A1.001 1.001 0 0 0 7.5 13v3a1 1 0 0 0 1 1c2.206 0 4 1.794 4 4v17a1 1 0 0 0-1 1v3a1 1 0 0 0-1 1v11a1 1 0 0 0 1 1h2v2a1 1 0 0 0 1 1h4a1 1 0 0 0 1-1v-2h12v2a1 1 0 0 0 1 1h4a1 1 0 0 0 1-1v-2h2a1 1 0 0 0 1-1V43a1 1 0 0 0-1-1v-3a1 1 0 0 0-1-1h-.908l.621-7.031c.269.02.531.031.787.031zM14.5 6h21v.33c0 .921-.749 1.67-1.67 1.67H16.17c-.921 0-1.67-.749-1.67-1.67V6zm0-2.33c0-.921.749-1.67 1.67-1.67h17.66c.921 0 1.67.749 1.67 1.67V4h-21v-.33zm3 52.33h-2v-1h2v1zm18 0h-2v-1h2v1zm3-3h-26v-9h26v9zm-25-11v-2h24v2h-24zm9-4.307 6-2.25V38h-6v-.307zm6-4.386-6 2.25V32h6v1.307zm2 4.693v-2.101a5.009 5.009 0 0 0 4-4.899 1 1 0 1 0-2 0 2.996 2.996 0 0 1-2 2.816V31a1 1 0 0 0-1-1h-8a1 1 0 0 0-1 1v2.816a2.996 2.996 0 0 1-2-2.816 1 1 0 1 0-2 0 5.009 5.009 0 0 0 4 4.899V38h-6V21a6.01 6.01 0 0 0-5-5.917v-1.548l2.555-1.703c.278-.186.445-.498.445-.832V6.33A3.674 3.674 0 0 0 16.17 10h17.66a3.674 3.674 0 0 0 3.67-3.67V6h.908l-.258 2.92a.999.999 0 0 0 .983 1.088c5.165.07 9.367 4.328 9.367 9.492 0 5.238-4.262 9.5-9.5 9.5-.471 0-.972-.044-1.531-.136a1.002 1.002 0 0 0-1.157.899L35.584 38H30.5z"/><path d="M23.5 48.5c0-2.481-2.019-4.5-4.5-4.5s-4.5 2.019-4.5 4.5S16.519 53 19 53s4.5-2.019 4.5-4.5zM19 51c-1.379 0-2.5-1.121-2.5-2.5S17.621 46 19 46s2.5 1.121 2.5 2.5S20.379 51 19 51zM30.5 46h-5v5h5v-5zm-2 3h-1v-1h1v1zM36.5 46h-5v5h5v-5zm-2 3h-1v-1h1v1z"/></svg>