<?xml version="1.0" encoding="iso-8859-1"?>
<!-- Generator: Adobe Illustrator 18.0.0, SVG Export Plug-In . SVG Version: 6.00 Build 0)  -->
<!DOCTYPE svg PUBLIC "-//W3C//DTD SVG 1.1//EN" "http://www.w3.org/Graphics/SVG/1.1/DTD/svg11.dtd">
<svg version="1.1" id="Capa_1" xmlns="http://www.w3.org/2000/svg" xmlns:xlink="http://www.w3.org/1999/xlink" x="0px" y="0px"
	 viewBox="0 0 58 58" style="enable-background:new 0 0 58 58;" xml:space="preserve">
<g>
	<path d="M37.454,26.839C37.963,26.946,38.482,27,39,27c4.136,0,7.5-3.364,7.5-7.5S43.136,12,39,12
		c-0.067,0-0.132,0.004-0.249,0.012c-0.502,0.021-0.91,0.411-0.954,0.911l-1.134,12.85C36.618,26.277,36.958,26.735,37.454,26.839z
		 M39.706,14.045c2.7,0.348,4.794,2.661,4.794,5.455c0,3.119-2.631,5.634-5.761,5.494L39.706,14.045z"/>
	<path d="M39,31c6.341,0,11.5-5.159,11.5-11.5c0-5.89-4.516-10.807-10.268-11.427l0.264-2.985c0.024-0.279-0.069-0.557-0.259-0.764
		C40.048,4.118,39.78,4,39.5,4h-2V3.67C37.5,1.646,35.854,0,33.83,0H16.17c-2.023,0-3.67,1.646-3.67,3.67V4h-1c-0.553,0-1,0.447-1,1
		v5.465l-2.555,1.703C7.667,12.354,7.5,12.666,7.5,13v3c0,0.553,0.447,1,1,1c2.206,0,4,1.794,4,4v17c-0.553,0-1,0.447-1,1v3
		c-0.553,0-1,0.447-1,1v11c0,0.553,0.447,1,1,1h2v2c0,0.553,0.447,1,1,1h4c0.553,0,1-0.447,1-1v-2h12v2c0,0.553,0.447,1,1,1h4
		c0.553,0,1-0.447,1-1v-2h2c0.553,0,1-0.447,1-1V43c0-0.553-0.447-1-1-1v-3c0-0.553-0.447-1-1-1h-0.908l0.621-7.031
		C38.482,30.989,38.744,31,39,31z M14.5,6h21v0.33C35.5,7.251,34.751,8,33.83,8H16.17c-0.921,0-1.67-0.749-1.67-1.67V6z M14.5,3.67
		C14.5,2.749,15.249,2,16.17,2h17.66c0.921,0,1.67,0.749,1.67,1.67V4h-21V3.67z M17.5,56h-2v-1h2V56z M35.5,56h-2v-1h2V56z M38.5,53
		h-2h-4H19h-0.5h-4h-2v-9H19h19.5V53z M13.5,42v-2h8h8h7h1v2H13.5z M22.5,37.693l6-2.25V38h-6V37.693z M28.5,33.307l-6,2.25V32h6
		V33.307z M30.5,38v-2.101c2.279-0.465,4-2.484,4-4.899c0-0.553-0.447-1-1-1s-1,0.447-1,1c0,1.302-0.839,2.402-2,2.816V31
		c0-0.553-0.447-1-1-1h-8c-0.553,0-1,0.447-1,1v2.816c-1.161-0.414-2-1.514-2-2.816c0-0.553-0.447-1-1-1s-1,0.447-1,1
		c0,2.415,1.721,4.434,4,4.899V38h-6V21c0-2.968-2.166-5.439-5-5.917v-1.548l2.555-1.703C12.333,11.646,12.5,11.334,12.5,11V6.33
		c0,2.023,1.646,3.67,3.67,3.67h17.66c2.023,0,3.67-1.646,3.67-3.67V6h0.908L38.15,8.92c-0.024,0.277,0.067,0.552,0.254,0.758
		c0.187,0.207,0.45,0.326,0.729,0.33c5.165,0.07,9.367,4.328,9.367,9.492c0,5.238-4.262,9.5-9.5,9.5
		c-0.471,0-0.972-0.044-1.531-0.136c-0.275-0.049-0.555,0.027-0.774,0.197c-0.22,0.171-0.358,0.425-0.383,0.702L35.584,38H30.5z"/>
	<path d="M23.5,48.5c0-2.481-2.019-4.5-4.5-4.5s-4.5,2.019-4.5,4.5S16.519,53,19,53S23.5,50.981,23.5,48.5z M19,51
		c-1.379,0-2.5-1.121-2.5-2.5S17.621,46,19,46s2.5,1.121,2.5,2.5S20.379,51,19,51z"/>
	<path d="M30.5,46h-5v5h5V46z M28.5,49h-1v-1h1V49z"/>
	<path d="M36.5,46h-5v5h5V46z M34.5,49h-1v-1h1V49z"/>
</g>
<g>
</g>
<g>
</g>
<g>
</g>
<g>
</g>
<g>
</g>
<g>
</g>
<g>
</g>
<g>
</g>
<g>
</g>
<g>
</g>
<g>
</g>
<g>
</g>
<g>
</g>
<g>
</g>
<g>
</g>
</svg>
