<svg xmlns="http://www.w3.org/2000/svg" viewBox="0 0 60 60" style="enable-background:new 0 0 60 60" xml:space="preserve"><path d="M58.5 54h-2.45c-.744-10.782-2.447-20.928-4.958-29.419 2.471-3.738 6.915-6.718 6.961-6.748A1 1 0 0 0 57.5 16h-9.456a57.334 57.334 0 0 0-1.105-2.422l-.004-.011c-.026-.055-.054-.105-.08-.159-.225-.463-.451-.92-.682-1.361-.104-.199-.21-.388-.314-.582-.163-.301-.325-.606-.49-.895C42.052 4.731 38.275 1.235 34.266.278c-.02-.005-.04-.012-.06-.016a9.96 9.96 0 0 0-.96-.172c-.052-.007-.103-.019-.155-.025A9.694 9.694 0 0 0 32 0c-.373 0-.743.025-1.113.068-.074.009-.147.025-.221.036a9.763 9.763 0 0 0-.917.168l-.157.042c-.339.086-.676.189-1.011.311l-.035.013c-4.215 1.548-8.14 5.932-11.497 12.928-.017.036-.024.074-.037.111a59.974 59.974 0 0 0-1.49 3.366A13.135 13.135 0 0 0 14.5 17c-7.72 0-14 6.28-14 14 0 5.578 3.364 10.639 8.451 12.84A166.398 166.398 0 0 0 7.949 54H5.5a1 1 0 0 0-1 1v4a1 1 0 0 0 1 1h53a1 1 0 0 0 1-1v-4a1 1 0 0 0-1-1zM20.299 11.656c.2-.353.402-.694.605-1.029l.112-.187c2.612-4.242 5.492-6.972 8.42-7.988.072-.025.144-.05.217-.073a7.275 7.275 0 0 1 1.027-.249c.136-.024.272-.051.409-.068.304-.037.607-.062.911-.062.297 0 .593.023.889.058.134.016.267.043.401.067.152.026.304.053.455.089.184.044.368.095.551.153a8.972 8.972 0 0 1 .949.351l.011.005c3.23 1.429 6.383 4.949 9.16 10.277H19.568c.241-.464.486-.908.731-1.344zm-9.91 30.605C5.67 40.537 2.5 36.012 2.5 31c0-6.617 5.383-12 12-12 .461 0 .951.035 1.543.111.447.051.89-.2 1.058-.627A61.816 61.816 0 0 1 18.593 15h26.81c.357.766.71 1.552 1.053 2.382a.998.998 0 0 0 .923.618h7.147c-1.688 1.402-3.893 3.499-5.375 5.904a1.005 1.005 0 0 0-.106.813c2.53 8.405 4.258 18.51 5.009 29.283H9.941c.253-3.607.62-7.189 1.096-10.664a1 1 0 0 0-.648-1.075zM57.5 58h-51v-2h51v2z"/><path d="M27.5 52c2.757 0 5-2.243 5-5V23c0-2.757-2.243-5-5-5s-5 2.243-5 5v24c0 2.757 2.243 5 5 5zm-3-29c0-1.654 1.346-3 3-3s3 1.346 3 3v1h-2a1 1 0 1 0 0 2h2v2h-2a1 1 0 1 0 0 2h2v2h-2a1 1 0 1 0 0 2h2v2h-2a1 1 0 1 0 0 2h2v2h-2a1 1 0 1 0 0 2h2v2h-2a1 1 0 1 0 0 2h2v1c0 1.654-1.346 3-3 3s-3-1.346-3-3V23zM11.645 39.293c1.029-6.226 2.397-11.934 4.068-16.964.1-.3.015-.631-.165-.89a1.074 1.074 0 0 0-.824-.43c-.075-.004-.149-.009-.224-.009-5.514 0-10 4.486-10 10 0 3.839 2.249 7.386 5.73 9.033a1.002 1.002 0 0 0 .892-.017 1 1 0 0 0 .523-.723zm-1.731-1.75A8.035 8.035 0 0 1 6.5 31c0-4.005 2.957-7.331 6.864-7.907-1.376 4.385-2.533 9.232-3.45 14.45z"/></svg>