<svg xmlns="http://www.w3.org/2000/svg" viewBox="0 0 60.001 60.001" style="enable-background:new 0 0 60.001 60.001" xml:space="preserve"><path d="M60 22.728a5.065 5.065 0 0 0-2.041-4.05 5.916 5.916 0 0 0-1.567-4.749A5.964 5.964 0 0 0 59 9.001c0-3.445-2.918-6.24-6.413-5.984A4.96 4.96 0 0 0 48 .001a5.006 5.006 0 0 0-5 4.995 4.966 4.966 0 0 0-4-1.995 4.974 4.974 0 0 0-2.797.858 4.639 4.639 0 0 0-.749-1.005 4.742 4.742 0 0 0-3.374-1.398c-.843 0-1.652.218-2.364.625A4.742 4.742 0 0 0 25.299.026a4.796 4.796 0 0 0-3.521 2.137c-1.027 1.547-1.034 3.635-.016 5.195a4.83 4.83 0 0 0 1.439 1.433l-.005.013a4.851 4.851 0 0 0-2.697-.802c-.911 0-1.776.24-2.514.688-1.4-1.069-3.342-1.342-4.969-.682a5.518 5.518 0 0 0-5.47-1.872 5.442 5.442 0 0 0-4.005 3.663 5.514 5.514 0 0 0-.207 2.522A5.948 5.948 0 0 0 0 17.637a5.917 5.917 0 0 0 5.48 5.893A4.696 4.696 0 0 0 7 25.197v9.804c0 2.206 1.794 4 4 4h.06A6.518 6.518 0 0 0 10 42.565v1.436H4v6h2v2.064a4.941 4.941 0 0 0 4.936 4.936H12v3h8v-3h20v3h8v-3h1.064A4.941 4.941 0 0 0 54 52.065v-2.064h2v-6h-6v-1.436a6.57 6.57 0 0 0-6.564-6.564h-9A3.44 3.44 0 0 1 31 32.565a3.568 3.568 0 0 1 3.564-3.564h5.612c.588 2.465 2.707 4.342 5.304 4.529a4.677 4.677 0 0 0 4.11 2.471 4.656 4.656 0 0 0 4.484-3.396c2.919-.57 5.106-3.155 5.106-6.195 0-.285-.02-.571-.059-.855A4.967 4.967 0 0 0 60 22.728zM39 5.001c1.391 0 2.62.987 2.923 2.348l.241 1.082 1.368-.437.203-.287c.266-.376.59-.7.962-.965l.551-.392-.157-.656A2.989 2.989 0 0 1 45 5.001c0-1.654 1.346-3 3-3 1.391 0 2.62.987 2.923 2.348l.219.979.979-.221c.316-.071.604-.106.88-.106 2.206 0 4 1.794 4 4a3.984 3.984 0 0 1-2.752 3.777l-2.07.684 1.869 1.123C55.27 15.319 56 16.596 56 18.001c0 .249-.03.49-.073.726l-.046.193a4.04 4.04 0 0 1-.495 1.188c-.013.02-.021.043-.034.063-.066.103-.147.195-.222.291-.078.098-.153.199-.239.29-.068.072-.142.135-.215.201-.11.099-.222.195-.342.282a4.222 4.222 0 0 1-.637.374c-.078.037-.155.074-.236.106a3.985 3.985 0 0 1-.487.151c-.074.019-.146.043-.222.058a3.96 3.96 0 0 1-.751.076 3.94 3.94 0 0 1-1.873-.491l-.68-.364-.525.566a4.199 4.199 0 0 1-.564.498c-.078.058-.161.106-.242.157a3.716 3.716 0 0 1-1.065.474c-.114.031-.227.065-.344.086-.133.024-.27.032-.407.042-.307.023-.618.02-.929-.032l-.027-.003a4.079 4.079 0 0 1-1.291-.464 3.966 3.966 0 0 1-1.981-2.775l-.002-.013-.004-.026a3.918 3.918 0 0 1-.067-.654c0-.717.202-1.428.584-2.054l.473-.934-1.607-.871-.527.569A3.953 3.953 0 0 1 38.001 17c-2.206 0-4-1.794-4-4a4.01 4.01 0 0 1 1.696-3.26l.552-.391-.157-.657A2.912 2.912 0 0 1 36 8.001c0-.183.022-.36.054-.533.015-.079.037-.156.058-.234a2.897 2.897 0 0 1 .206-.551l.056-.104c.066-.119.136-.237.219-.349l.018-.024A2.988 2.988 0 0 1 39 5.001zM23.445 3.269a2.766 2.766 0 0 1 2.054-1.255 2.779 2.779 0 0 1 2.237.797c.313.313.539.687.676 1.11l.552 1.504 1.157-1.158c1.047-1.047 2.873-1.047 3.92 0 .321.321.554.72.682 1.166-.083.137-.151.281-.22.424a4.867 4.867 0 0 0-.412 1.264 4.785 4.785 0 0 0-.091.88c0 .169.01.339.03.514A6.001 6.001 0 0 0 32 13.001a6.006 6.006 0 0 0 8.011 5.653 5.692 5.692 0 0 0 .019.939l-.022.028a4.022 4.022 0 0 1-.55.519l-.101.079a4.051 4.051 0 0 1-.637.384c-.037.018-.075.034-.112.051-.231.103-.47.187-.717.244-.029.007-.06.01-.089.016a3.963 3.963 0 0 1-.801.089c-.212 0-.421-.02-.625-.053-.073-.012-.144-.033-.216-.049a4.07 4.07 0 0 1-.38-.098c-.084-.028-.166-.062-.248-.095a3.765 3.765 0 0 1-.311-.138 4.085 4.085 0 0 1-.513-.312 3.67 3.67 0 0 1-.457-.383c-.077-.075-.154-.15-.226-.231-.06-.068-.113-.141-.168-.213-.07-.092-.142-.182-.205-.28-.043-.068-.078-.141-.117-.212-.061-.11-.126-.219-.177-.336a3.938 3.938 0 0 1-.208-.591l-.219-.833-.856.093a2.559 2.559 0 0 0-.789.207 2.786 2.786 0 0 1-2.877-.354l.008-.02a.543.543 0 0 1 .124-.16l.006-.007C29.47 16.184 30 15.115 30 14.001c0-2.206-2.019-4-4.5-4-.193 0-.386.014-.577.038l-.04.002c.085-.357.252-.697.496-.996l.33-.46-.334-1.025-.489-.164a2.78 2.78 0 0 1-1.448-1.132 2.755 2.755 0 0 1 .007-2.995zM5.909 21.545A3.912 3.912 0 0 1 2 17.637a3.929 3.929 0 0 1 2.794-3.745l.994-.295-.33-.982a3.471 3.471 0 0 1-.01-2.209c.367-1.153 1.359-2.063 2.525-2.318 1.542-.335 3.086.348 3.849 1.7l.521.925.893-.576c1.251-.807 2.943-.582 3.949.521l.684.75.74-.694c.482-.453 1.171-.713 1.891-.713 1.151 0 2.158.648 2.423 1.545l.313 1.185 1.075-.474c.389-.17.788-.257 1.188-.257 1.379 0 2.5.897 2.5 2 0 .517-.254 1.008-.715 1.382a2.488 2.488 0 0 0-.483.537c-.081.118-.15.242-.209.371-.021.045-.045.087-.063.133a2.523 2.523 0 0 0-.15.654c-.016.162-.02.324-.004.486.002.016-.002.031 0 .047l.003.012c.034.285.117.568.254.833.118.228.206.472.268.726l.008.036c.06.255.092.518.092.784 0 1.654-1.121 3-2.5 3-.3 0-.592-.065-.87-.194a2.757 2.757 0 0 0-2.93.377c-.118.097-.23.205-.335.323l-.017.018c-.823.911-2.29 1.477-3.848 1.477a6.224 6.224 0 0 1-2.138-.376l-.011-.004c-.713-.267-1.307-.651-1.719-1.113l-.637-.714-.741.604a2.668 2.668 0 0 1-.609.367l-.068.032a2.645 2.645 0 0 1-.716.181 2.608 2.608 0 0 1-1.422-.246l-.069-.036a2.696 2.696 0 0 1-1.295-1.495l-.245-.696-.921.039zM17 31.001c-1.103 0-2-.897-2-2v-2.146c.487.089.987.146 1.5.146a7.995 7.995 0 0 0 3.5-.79v4.79h-3zm-8 4v-9.038c.055.007.11.003.165.009.141.013.282.03.426.03.023 0 .045-.004.068-.004.07-.001.14-.009.21-.013a4.295 4.295 0 0 0 1.127-.213c.06-.02.121-.036.181-.058.205-.076.406-.163.6-.268.014.011.031.019.044.029.247.196.521.372.809.535.086.049.17.099.26.144.038.019.071.042.11.061v2.786c0 2.206 1.794 4 4 4h2.956c-.006.045-.006.093-.014.137a3.242 3.242 0 0 1-.062.28 3.463 3.463 0 0 1-.22.611 3.533 3.533 0 0 1-.553.826c-.062.068-.122.137-.189.2a3.486 3.486 0 0 1-.282.233c-.071.054-.14.111-.216.16a3.416 3.416 0 0 1-.337.183c-.076.038-.15.081-.229.114-.132.054-.272.091-.412.128-.071.019-.138.046-.21.06a3.403 3.403 0 0 1-.666.067 6.405 6.405 0 0 0-1.051.093c-.215.035-.426.08-.634.135-.06.016-.121.029-.18.046-.261.078-.515.17-.762.278-.047.021-.092.045-.138.067a6.46 6.46 0 0 0-.615.329c-.032.02-.067.033-.099.053H11c-1.102 0-2-.898-2-2zm9 23h-4v-1h4v1zm28 0h-4v-1h4v1zm6-5.936a2.939 2.939 0 0 1-2.936 2.936H10.936A2.94 2.94 0 0 1 8 52.065v-2.064h44v2.064zm2-6.064v2H6v-2h48zM29 32.565a5.442 5.442 0 0 0 5.436 5.436h9A4.57 4.57 0 0 1 48 42.565v1.436H12v-1.436a4.56 4.56 0 0 1 1.984-3.759c.056-.039.117-.067.175-.103.172-.107.349-.206.535-.291.081-.037.165-.067.248-.099.179-.069.363-.126.552-.172.081-.02.162-.042.244-.057.269-.05.544-.084.827-.084a5.442 5.442 0 0 0 5.436-5.436v-7.85c.015-.012.029-.027.045-.038a.786.786 0 0 1 .206-.095c.028-.008.057-.017.086-.022a.711.711 0 0 1 .146-.006c.026.001.052-.001.079.003a.809.809 0 0 1 .228.066 4.038 4.038 0 0 0 1.71.379c2.481 0 4.5-2.243 4.5-5h2.827c.018.032.042.059.061.091.084.139.175.272.269.403a5.642 5.642 0 0 0 .768.878 5.373 5.373 0 0 0 .637.519c.109.077.217.153.331.222a6.4 6.4 0 0 0 .372.206c.112.058.223.118.34.169.139.062.283.111.427.162.111.039.22.083.334.115.167.048.339.081.511.114.097.019.192.045.29.059.274.039.552.061.834.061.301 0 .598-.031.892-.075.083-.013.164-.029.245-.045.228-.044.452-.102.672-.172.067-.021.135-.039.202-.063.277-.099.546-.217.805-.355.045-.024.087-.053.131-.079.215-.122.422-.258.621-.406.032-.024.069-.041.101-.066.31.601.718 1.141 1.203 1.603l-.023.026c-.229.216-.437.45-.627.698-.048.063-.088.129-.134.194a6.056 6.056 0 0 0-.51.869 5.855 5.855 0 0 0-.279.704c-.02.06-.045.117-.063.178a5.779 5.779 0 0 0-.187.928c-.003.021-.01.042-.013.063h-5.471A5.57 5.57 0 0 0 29 32.565zm28.29-7.896-.304.372.1.469c.063.297.096.6.096.899a4.327 4.327 0 0 1-4.018 4.302l-.836.059-.089.833A2.667 2.667 0 0 1 49.591 34a2.68 2.68 0 0 1-2.517-1.798l-.245-.696-.92.039c-1.971 0-3.589-1.47-3.855-3.369l-.02-.256c-.006-.067-.015-.133-.034-.283 0-.168.013-.334.034-.498.007-.054.02-.106.029-.159.019-.109.039-.218.067-.324.016-.062.037-.123.057-.184.03-.094.062-.188.099-.28.025-.063.054-.124.082-.185a4.11 4.11 0 0 1 .235-.432 3.9 3.9 0 0 1 .165-.239c.04-.054.079-.108.122-.16.065-.079.136-.154.207-.228.042-.044.083-.09.128-.132.091-.086.188-.165.287-.242.032-.025.06-.052.093-.076a5.952 5.952 0 0 0 2.396.502c.07 0 .137-.016.206-.018.242-.008.483-.026.721-.063.157-.025.308-.065.462-.102.151-.036.3-.073.447-.121a5.73 5.73 0 0 0 .912-.387c.115-.06.23-.116.341-.183a5.77 5.77 0 0 0 .763-.542A5.802 5.802 0 0 0 52 24c.254 0 .503-.021.749-.052.074-.009.147-.022.221-.034.179-.029.354-.066.527-.111.072-.019.145-.035.216-.056.22-.066.435-.142.643-.231.074-.032.145-.07.218-.105a6.186 6.186 0 0 0 .667-.37c.133-.086.261-.178.386-.273.061-.046.125-.089.184-.137a6.14 6.14 0 0 0 .494-.46c.049-.051.095-.104.143-.157.134-.148.26-.303.379-.464.023-.031.047-.06.068-.092.15-.211.287-.432.409-.662.443.54.696 1.219.696 1.932a3.04 3.04 0 0 1-.71 1.941z"/></svg>