<?xml version="1.0" encoding="iso-8859-1"?>
<!-- Generator: Adobe Illustrator 18.0.0, SVG Export Plug-In . SVG Version: 6.00 Build 0)  -->
<!DOCTYPE svg PUBLIC "-//W3C//DTD SVG 1.1//EN" "http://www.w3.org/Graphics/SVG/1.1/DTD/svg11.dtd">
<svg version="1.1" id="Capa_1" xmlns="http://www.w3.org/2000/svg" xmlns:xlink="http://www.w3.org/1999/xlink" x="0px" y="0px"
	 viewBox="0 0 60.001 60.001" style="enable-background:new 0 0 60.001 60.001;" xml:space="preserve">
<path d="M60,22.728c0-1.604-0.768-3.096-2.041-4.05C57.985,18.455,58,18.23,58,18.001c0-1.542-0.582-2.98-1.608-4.072
	C57.998,12.832,59,11.006,59,9.001c0-3.445-2.918-6.24-6.413-5.984C51.812,1.203,50.038,0.001,48,0.001c-2.755,0-4.997,2.24-5,4.995
	c-0.917-1.23-2.375-1.995-4-1.995c-1.035,0-1.998,0.317-2.797,0.858c-0.206-0.364-0.45-0.706-0.749-1.005
	c-0.901-0.901-2.1-1.398-3.374-1.398c-0.843,0-1.652,0.218-2.364,0.625c-0.165-0.242-0.354-0.47-0.565-0.682
	c-1.017-1.016-2.417-1.52-3.852-1.373c-1.43,0.143-2.713,0.922-3.521,2.137c-1.027,1.547-1.034,3.635-0.016,5.195
	c0.383,0.585,0.87,1.069,1.439,1.433c-0.002,0.004-0.003,0.009-0.005,0.013c-0.756-0.505-1.69-0.802-2.697-0.802
	c-0.911,0-1.776,0.24-2.514,0.688c-1.4-1.069-3.342-1.342-4.969-0.682c-1.301-1.583-3.393-2.328-5.47-1.872
	c-1.881,0.41-3.415,1.814-4.005,3.663c-0.266,0.828-0.334,1.686-0.207,2.522C1.333,13.294,0,15.364,0,17.637
	c0,3.113,2.421,5.672,5.48,5.893c0.366,0.682,0.895,1.245,1.52,1.667v9.804c0,2.206,1.794,4,4,4h0.06
	c-0.668,1.028-1.06,2.25-1.06,3.564v1.436H4v6h2v2.064c0,2.722,2.214,4.936,4.936,4.936H12v3h8v-3h20v3h8v-3h1.064
	c2.722,0,4.936-2.214,4.936-4.936v-2.064h2v-6h-6v-1.436c0-3.62-2.944-6.564-6.564-6.564h-9c-1.895,0-3.436-1.541-3.436-3.436
	c0-1.966,1.599-3.564,3.564-3.564h5.612c0.588,2.465,2.707,4.342,5.304,4.529c0.806,1.502,2.379,2.471,4.11,2.471
	c2.117,0,3.924-1.413,4.484-3.396c2.919-0.57,5.106-3.155,5.106-6.195c0-0.285-0.02-0.571-0.059-0.855
	C59.699,24.71,60,23.741,60,22.728z M39,5.001c1.391,0,2.62,0.987,2.923,2.348l0.241,1.082l1.368-0.437l0.203-0.287
	c0.266-0.376,0.59-0.7,0.962-0.965l0.551-0.392l-0.157-0.656C45.03,5.438,45,5.211,45,5.001c0-1.654,1.346-3,3-3
	c1.391,0,2.62,0.987,2.923,2.348l0.219,0.979l0.979-0.221c0.316-0.071,0.604-0.106,0.88-0.106c2.206,0,4,1.794,4,4
	c0,1.715-1.106,3.232-2.752,3.777l-2.07,0.684l1.869,1.123C55.27,15.319,56,16.596,56,18.001c0,0.249-0.03,0.49-0.073,0.726
	l-0.046,0.193c-0.102,0.431-0.274,0.829-0.495,1.188c-0.013,0.02-0.021,0.043-0.034,0.063c-0.066,0.103-0.147,0.195-0.222,0.291
	c-0.078,0.098-0.153,0.199-0.239,0.29c-0.068,0.072-0.142,0.135-0.215,0.201c-0.11,0.099-0.222,0.195-0.342,0.282
	c-0.073,0.053-0.148,0.102-0.224,0.149c-0.133,0.083-0.271,0.157-0.413,0.225c-0.078,0.037-0.155,0.074-0.236,0.106
	c-0.157,0.062-0.321,0.109-0.487,0.151c-0.074,0.019-0.146,0.043-0.222,0.058c-0.244,0.047-0.494,0.076-0.751,0.076
	c-0.634,0-1.265-0.165-1.873-0.491l-0.68-0.364l-0.525,0.566c-0.174,0.187-0.365,0.349-0.564,0.498
	c-0.078,0.058-0.161,0.106-0.242,0.157c-0.124,0.08-0.251,0.154-0.382,0.218c-0.103,0.05-0.208,0.096-0.314,0.137
	c-0.12,0.047-0.244,0.084-0.369,0.119c-0.114,0.031-0.227,0.065-0.344,0.086c-0.133,0.024-0.27,0.032-0.407,0.042
	c-0.307,0.023-0.618,0.02-0.929-0.032c-0.009-0.001-0.018-0.001-0.027-0.003c-0.438-0.077-0.874-0.23-1.291-0.464
	c-1.054-0.593-1.776-1.604-1.981-2.775l-0.002-0.013c-0.002-0.01-0.002-0.017-0.004-0.026C42.031,19.441,42,19.225,42,19.001
	c0-0.717,0.202-1.428,0.584-2.054l0.473-0.934l-1.607-0.871l-0.527,0.569c-0.771,0.831-1.809,1.289-2.922,1.289
	c-2.206,0-4-1.794-4-4c0-1.288,0.634-2.506,1.696-3.26l0.552-0.391l-0.157-0.657C36.03,8.438,36,8.211,36,8.001
	c0-0.183,0.022-0.36,0.054-0.533c0.015-0.079,0.037-0.156,0.058-0.234c0.022-0.083,0.047-0.165,0.076-0.245
	c0.038-0.104,0.08-0.206,0.13-0.306c0.018-0.035,0.038-0.069,0.056-0.104c0.066-0.119,0.136-0.237,0.219-0.349l0.018-0.024
	C37.16,5.478,38.022,5.001,39,5.001z M23.445,3.269c0.481-0.725,1.211-1.17,2.054-1.255c0.835-0.078,1.647,0.208,2.237,0.797
	c0.313,0.313,0.539,0.687,0.676,1.11l0.552,1.504l1.157-1.158c1.047-1.047,2.873-1.047,3.92,0c0.321,0.321,0.554,0.72,0.682,1.166
	c-0.083,0.137-0.151,0.281-0.22,0.424c-0.06,0.125-0.115,0.25-0.164,0.379c-0.079,0.204-0.144,0.412-0.194,0.625
	c-0.02,0.086-0.038,0.172-0.054,0.26C34.037,7.41,34,7.703,34,8.001c0,0.169,0.01,0.339,0.03,0.514
	C32.749,9.648,32,11.282,32,13.001c0,3.309,2.691,6,6,6c0.697,0,1.374-0.118,2.011-0.347C40.004,18.769,40,18.884,40,19.001
	c0,0.2,0.011,0.397,0.03,0.592c-0.008,0.009-0.014,0.019-0.022,0.028c-0.167,0.192-0.353,0.364-0.55,0.519
	c-0.034,0.026-0.067,0.053-0.101,0.079c-0.201,0.148-0.414,0.276-0.637,0.384c-0.037,0.018-0.075,0.034-0.112,0.051
	c-0.231,0.103-0.47,0.187-0.717,0.244c-0.029,0.007-0.06,0.01-0.089,0.016c-0.262,0.054-0.529,0.089-0.801,0.089
	c-0.212,0-0.421-0.02-0.625-0.053c-0.073-0.012-0.144-0.033-0.216-0.049c-0.128-0.028-0.256-0.058-0.38-0.098
	c-0.084-0.028-0.166-0.062-0.248-0.095c-0.106-0.042-0.21-0.087-0.311-0.138c-0.085-0.043-0.168-0.091-0.25-0.14
	c-0.09-0.054-0.177-0.111-0.263-0.172c-0.082-0.059-0.163-0.12-0.241-0.185c-0.075-0.063-0.146-0.129-0.216-0.198
	c-0.077-0.075-0.154-0.15-0.226-0.231c-0.06-0.068-0.113-0.141-0.168-0.213c-0.07-0.092-0.142-0.182-0.205-0.28
	c-0.043-0.068-0.078-0.141-0.117-0.212c-0.061-0.11-0.126-0.219-0.177-0.336c-0.083-0.19-0.155-0.386-0.208-0.591l-0.219-0.833
	l-0.856,0.093c-0.291,0.031-0.548,0.099-0.789,0.207c-0.963,0.437-2.096,0.279-2.877-0.354c0.003-0.007,0.005-0.014,0.008-0.02
	c0.031-0.059,0.071-0.114,0.124-0.16c0.002-0.002,0.004-0.005,0.006-0.007C29.47,16.184,30,15.115,30,14.001c0-2.206-2.019-4-4.5-4
	c-0.193,0-0.386,0.014-0.577,0.038c-0.013,0.001-0.027,0.001-0.04,0.002c0.085-0.357,0.252-0.697,0.496-0.996l0.33-0.46
	l-0.334-1.025l-0.489-0.164c-0.595-0.201-1.096-0.592-1.448-1.132C22.85,5.363,22.853,4.16,23.445,3.269z M5.909,21.545
	C3.754,21.545,2,19.793,2,17.637c0-1.717,1.149-3.257,2.794-3.745l0.994-0.295l-0.33-0.982c-0.244-0.725-0.247-1.467-0.01-2.209
	c0.367-1.153,1.359-2.063,2.525-2.318c1.542-0.335,3.086,0.348,3.849,1.7l0.521,0.925l0.893-0.576
	c1.251-0.807,2.943-0.582,3.949,0.521l0.684,0.75l0.74-0.694c0.482-0.453,1.171-0.713,1.891-0.713c1.151,0,2.158,0.648,2.423,1.545
	l0.313,1.185l1.075-0.474c0.389-0.17,0.788-0.257,1.188-0.257c1.379,0,2.5,0.897,2.5,2c0,0.517-0.254,1.008-0.715,1.382
	c-0.148,0.12-0.272,0.258-0.386,0.403c-0.035,0.044-0.066,0.088-0.097,0.134c-0.081,0.118-0.15,0.242-0.209,0.371
	c-0.021,0.045-0.045,0.087-0.063,0.133c-0.059,0.154-0.099,0.313-0.127,0.475c-0.01,0.06-0.017,0.118-0.023,0.179
	c-0.016,0.162-0.02,0.324-0.004,0.486c0.002,0.016-0.002,0.031,0,0.047l0.003,0.012c0.034,0.285,0.117,0.568,0.254,0.833
	c0.118,0.228,0.206,0.472,0.268,0.726l0.008,0.036C26.968,19.472,27,19.735,27,20.001c0,1.654-1.121,3-2.5,3
	c-0.3,0-0.592-0.065-0.87-0.194c-0.989-0.456-2.115-0.298-2.93,0.377c-0.118,0.097-0.23,0.205-0.335,0.323l-0.017,0.018
	c-0.823,0.911-2.29,1.477-3.848,1.477c-0.754,0-1.487-0.136-2.138-0.376l-0.011-0.004c-0.713-0.267-1.307-0.651-1.719-1.113
	l-0.637-0.714l-0.741,0.604c-0.189,0.154-0.395,0.272-0.609,0.367c-0.023,0.01-0.045,0.022-0.068,0.032
	c-0.215,0.088-0.439,0.148-0.666,0.177c-0.017,0.002-0.033,0.003-0.05,0.004c-0.478,0.051-0.97-0.026-1.422-0.246L8.37,23.697
	c-0.59-0.309-1.063-0.834-1.295-1.495l-0.245-0.696L5.909,21.545z M17,31.001c-1.103,0-2-0.897-2-2v-2.146
	c0.487,0.089,0.987,0.146,1.5,0.146c1.264,0,2.471-0.286,3.5-0.79v4.79H17z M9,35.001v-9.038c0.055,0.007,0.11,0.003,0.165,0.009
	c0.141,0.013,0.282,0.03,0.426,0.03c0.023,0,0.045-0.004,0.068-0.004c0.07-0.001,0.14-0.009,0.21-0.013
	c0.154-0.009,0.306-0.024,0.456-0.049c0.072-0.012,0.143-0.025,0.214-0.041c0.155-0.033,0.307-0.074,0.457-0.123
	c0.06-0.02,0.121-0.036,0.181-0.058c0.205-0.076,0.406-0.163,0.6-0.268c0.014,0.011,0.031,0.019,0.044,0.029
	c0.247,0.196,0.521,0.372,0.809,0.535c0.086,0.049,0.17,0.099,0.26,0.144c0.038,0.019,0.071,0.042,0.11,0.061v2.786
	c0,2.206,1.794,4,4,4h2.956c-0.006,0.045-0.006,0.093-0.014,0.137c-0.016,0.095-0.038,0.188-0.062,0.28
	c-0.031,0.119-0.066,0.236-0.109,0.35c-0.033,0.089-0.07,0.176-0.111,0.261c-0.052,0.109-0.109,0.213-0.171,0.315
	c-0.049,0.08-0.099,0.159-0.154,0.234c-0.071,0.097-0.148,0.188-0.228,0.277c-0.062,0.068-0.122,0.137-0.189,0.2
	c-0.089,0.084-0.185,0.159-0.282,0.233c-0.071,0.054-0.14,0.111-0.216,0.16c-0.107,0.069-0.222,0.126-0.337,0.183
	c-0.076,0.038-0.15,0.081-0.229,0.114c-0.132,0.054-0.272,0.091-0.412,0.128c-0.071,0.019-0.138,0.046-0.21,0.06
	c-0.216,0.043-0.438,0.067-0.666,0.067c-0.28,0-0.553,0.023-0.824,0.058c-0.076,0.01-0.151,0.022-0.227,0.035
	c-0.215,0.035-0.426,0.08-0.634,0.135c-0.06,0.016-0.121,0.029-0.18,0.046c-0.261,0.078-0.515,0.17-0.762,0.278
	c-0.047,0.021-0.092,0.045-0.138,0.067c-0.212,0.099-0.417,0.209-0.615,0.329c-0.032,0.02-0.067,0.033-0.099,0.053H11
	C9.898,37.001,9,36.103,9,35.001z M18,58.001h-4v-1h4V58.001z M46,58.001h-4v-1h4V58.001z M52,52.065
	c0,1.619-1.316,2.936-2.936,2.936H48h-8H20h-8h-1.064C9.317,55.001,8,53.684,8,52.065v-2.064h44V52.065z M54,46.001v2H6v-2h4h40H54z
	 M29,32.565c0,2.997,2.438,5.436,5.436,5.436h9c2.517,0,4.564,2.048,4.564,4.564v1.436H12v-1.436c0-1.559,0.788-2.936,1.984-3.759
	c0.056-0.039,0.117-0.067,0.175-0.103c0.172-0.107,0.349-0.206,0.535-0.291c0.081-0.037,0.165-0.067,0.248-0.099
	c0.179-0.069,0.363-0.126,0.552-0.172c0.081-0.02,0.162-0.042,0.244-0.057c0.269-0.05,0.544-0.084,0.827-0.084
	c2.997,0,5.436-2.438,5.436-5.436v-1.564v-6.286c0.015-0.012,0.029-0.027,0.045-0.038c0.025-0.017,0.051-0.031,0.077-0.044
	c0.042-0.021,0.085-0.038,0.129-0.051c0.028-0.008,0.057-0.017,0.086-0.022c0.048-0.008,0.097-0.008,0.146-0.006
	c0.026,0.001,0.052-0.001,0.079,0.003c0.076,0.011,0.153,0.031,0.228,0.066c0.541,0.251,1.117,0.379,1.71,0.379
	c2.481,0,4.5-2.243,4.5-5h2.827c0.018,0.032,0.042,0.059,0.061,0.091c0.084,0.139,0.175,0.272,0.269,0.403
	c0.067,0.094,0.135,0.186,0.207,0.275c0.095,0.117,0.193,0.229,0.296,0.337c0.086,0.092,0.174,0.18,0.265,0.266
	c0.103,0.096,0.207,0.189,0.316,0.278c0.104,0.085,0.211,0.164,0.321,0.241c0.109,0.077,0.217,0.153,0.331,0.222
	c0.121,0.074,0.246,0.14,0.372,0.206c0.112,0.058,0.223,0.118,0.34,0.169c0.139,0.062,0.283,0.111,0.427,0.162
	c0.111,0.039,0.22,0.083,0.334,0.115c0.167,0.048,0.339,0.081,0.511,0.114c0.097,0.019,0.192,0.045,0.29,0.059
	c0.274,0.039,0.552,0.061,0.834,0.061c0.301,0,0.598-0.031,0.892-0.075c0.083-0.013,0.164-0.029,0.245-0.045
	c0.228-0.044,0.452-0.102,0.672-0.172c0.067-0.021,0.135-0.039,0.202-0.063c0.277-0.099,0.546-0.217,0.805-0.355
	c0.045-0.024,0.087-0.053,0.131-0.079c0.215-0.122,0.422-0.258,0.621-0.406c0.032-0.024,0.069-0.041,0.101-0.066
	c0.31,0.601,0.718,1.141,1.203,1.603c-0.008,0.008-0.015,0.018-0.023,0.026c-0.229,0.216-0.437,0.45-0.627,0.698
	c-0.048,0.063-0.088,0.129-0.134,0.194c-0.138,0.196-0.264,0.398-0.378,0.609c-0.046,0.086-0.09,0.171-0.132,0.26
	c-0.108,0.228-0.201,0.463-0.279,0.704c-0.02,0.06-0.045,0.117-0.063,0.178c-0.088,0.302-0.149,0.612-0.187,0.928
	c-0.003,0.021-0.01,0.042-0.013,0.063h-5.471C31.496,27.001,29,29.497,29,32.565z M57.29,24.669l-0.304,0.372l0.1,0.469
	c0.063,0.297,0.096,0.6,0.096,0.899c0,2.257-1.765,4.146-4.018,4.302l-0.836,0.059l-0.089,0.833
	c-0.146,1.367-1.285,2.397-2.648,2.397c-1.127,0-2.139-0.723-2.517-1.798l-0.245-0.696l-0.92,0.039c-1.971,0-3.589-1.47-3.855-3.369
	l-0.02-0.256c-0.006-0.067-0.015-0.133-0.034-0.283c0-0.168,0.013-0.334,0.034-0.498c0.007-0.054,0.02-0.106,0.029-0.159
	c0.019-0.109,0.039-0.218,0.067-0.324c0.016-0.062,0.037-0.123,0.057-0.184c0.03-0.094,0.062-0.188,0.099-0.28
	c0.025-0.063,0.054-0.124,0.082-0.185c0.041-0.087,0.084-0.172,0.131-0.256c0.033-0.06,0.068-0.118,0.104-0.176
	c0.052-0.082,0.107-0.161,0.165-0.239c0.04-0.054,0.079-0.108,0.122-0.16c0.065-0.079,0.136-0.154,0.207-0.228
	c0.042-0.044,0.083-0.09,0.128-0.132c0.091-0.086,0.188-0.165,0.287-0.242c0.032-0.025,0.06-0.052,0.093-0.076
	c0.735,0.322,1.544,0.502,2.396,0.502c0.07,0,0.137-0.016,0.206-0.018c0.242-0.008,0.483-0.026,0.721-0.063
	c0.157-0.025,0.308-0.065,0.462-0.102c0.151-0.036,0.3-0.073,0.447-0.121c0.148-0.048,0.293-0.102,0.437-0.162
	c0.162-0.067,0.319-0.144,0.475-0.225c0.115-0.06,0.23-0.116,0.341-0.183c0.266-0.161,0.524-0.338,0.763-0.542
	c0.697,0.276,1.417,0.416,2.147,0.416c0.254,0,0.503-0.021,0.749-0.052c0.074-0.009,0.147-0.022,0.221-0.034
	c0.179-0.029,0.354-0.066,0.527-0.111c0.072-0.019,0.145-0.035,0.216-0.056c0.22-0.066,0.435-0.142,0.643-0.231
	c0.074-0.032,0.145-0.07,0.218-0.105c0.14-0.067,0.278-0.138,0.412-0.215c0.086-0.05,0.171-0.101,0.255-0.155
	c0.133-0.086,0.261-0.178,0.386-0.273c0.061-0.046,0.125-0.089,0.184-0.137c0.174-0.143,0.337-0.299,0.494-0.46
	c0.049-0.051,0.095-0.104,0.143-0.157c0.134-0.148,0.26-0.303,0.379-0.464c0.023-0.031,0.047-0.06,0.068-0.092
	c0.15-0.211,0.287-0.432,0.409-0.662C57.747,21.336,58,22.015,58,22.728C58,23.43,57.755,24.101,57.29,24.669z"/>
<g>
</g>
<g>
</g>
<g>
</g>
<g>
</g>
<g>
</g>
<g>
</g>
<g>
</g>
<g>
</g>
<g>
</g>
<g>
</g>
<g>
</g>
<g>
</g>
<g>
</g>
<g>
</g>
<g>
</g>
</svg>
