<svg xmlns="http://www.w3.org/2000/svg" viewBox="0 0 59 59" style="enable-background:new 0 0 59 59" xml:space="preserve"><path d="M8.5 0v56h2v3h9v-3h20v3h9v-3h2V0h-42zm37 12h-1V5h1v7zm-3 0h-1V5h1v7zm-3 0h-1V5h1v7zm-3 0h-1V5h1v7zm-3 0h-2.557L33.5 5.181V12zm-4.693 0h-.864l2.25-6h.864l-2.25 6zm1.386 2H48.5v10h-1v-9h-20v9h-4v-7h-11v7h-2V14h19.693zm.307 10h-1v-7h1v7zm3 0h-1v-7h1v7zm3 0h-1v-7h1v7zm3 0h-1v-7h1v7zm3 0h-1v-7h1v7zm3 0h-1v-7h1v7zm-31-2h7v1h-7v-1zm7-2h-7v-1h7v1zm-4 37h-5v-1h5v1zm2-3h-9V37h18v17h-9zm27 3h-5v-1h5v1zm2-3h-18V37h18v17zm0-19h-1v-8h-11v8h-26v-9h38v9zm-10-3h7v1h-7v-1zm7-2h-7v-1h7v1zm2-18V3h-14v1h-4.693l-3 8H10.5V2h38v10h-1z"/><path d="M34.5 45a1 1 0 0 0 1-1v-3a1 1 0 1 0-2 0v3a1 1 0 0 0 1 1zM24.5 40a1 1 0 0 0-1 1v3a1 1 0 1 0 2 0v-3a1 1 0 0 0-1-1z"/></svg>