<svg xmlns="http://www.w3.org/2000/svg" viewBox="0 0 59 59" style="enable-background:new 0 0 59 59" xml:space="preserve"><path d="M59 26h-6v-.911c.331-.434 2.115-1.089 3-1.089h1a1 1 0 1 0 0-2H41a1 1 0 1 0 0 2h1c.885 0 2.669.655 3 1.089V26H32v-2h2v-6h-2v-4H18v6h2v2h-2v4h-4.936C14.255 24.206 15 21.349 15 18c0-2.335-.389-4.598-1.096-6.37l-.251-.63h-2.552A5.01 5.01 0 0 1 16 7a1 1 0 1 0 0-2c-1.958 0-3.728.81-5 2.111V4a1 1 0 1 0-2 0v3.111A6.973 6.973 0 0 0 4 5a1 1 0 1 0 0 2 5.01 5.01 0 0 1 4.899 4H6.347l-.251.63C5.389 13.402 5 15.665 5 18c0 3.349.745 6.206 1.936 8H0v22h2.363c-.208.727-.262 1.451-.116 2.178.279 1.431-.147 2.646-1.427 4.068l-.077.086A.998.998 0 0 0 1.487 56h.659c1.566 0 3.011-.647 4.179-1.874 1.173-1.23 1.948-2.984 1.887-4.266A3.739 3.739 0 0 1 8.586 48h41.828a3.74 3.74 0 0 1 .374 1.861c-.062 1.28.714 3.034 1.887 4.265C53.843 55.353 55.287 56 56.854 56h.659a.998.998 0 0 0 .744-1.668l-.078-.087c-1.278-1.421-1.705-2.637-1.433-4.034l.021-.104c.137-.683.08-1.389-.127-2.106H59V26zm-12.33-2h4.66a1.73 1.73 0 0 0-.33 1v1h-4v-1a1.73 1.73 0 0 0-.33-1zM40 28h17v8H40v-8zM20 16h10v2H20v-2zm2 4h10v2H22v-2zm-2 4h10v2H20v-2zM7 18c0-1.813.256-3.562.726-5h4.549c.469 1.438.725 3.187.725 5 0 4.884-1.776 8-3 8s-3-3.116-3-8zM2 46V28h17v9h-9v1H5.307l-3 8H2zm5.557-6-2.25 6h-.864l2.25-6h.864zm-1.343 9.957c.026.532-.381 1.787-1.336 2.79a4.276 4.276 0 0 1-1.206.897c.63-1.246.797-2.523.521-3.933-.106-.526-.014-1.09.28-1.711h1.969a5.84 5.84 0 0 0-.228 1.957zM8 46h-.557L10 39.182V46H8zm4 0v-7h1v7h-1zm3 0v-7h1v7h-1zm4 0h-1v-7h1v7zm2 0V28h17v2H26v16h-5zm7 0V32h1v14h-1zm3 0V32h1v14h-1zm3 0V32h1v14h-1zm4 0h-1V32h1v14zm16.79 3.795c-.264 1.353-.095 2.609.534 3.849a4.324 4.324 0 0 1-1.202-.896c-.955-1.003-1.362-2.258-1.336-2.789a5.843 5.843 0 0 0-.228-1.958h1.969c.293.623.382 1.2.263 1.794zM55.121 46H40v-8h17v8h-1.879z"/><path d="M43 31h11v2H43zM43 41h11v2H43z"/></svg>