<?xml version="1.0" encoding="iso-8859-1"?>
<!-- Generator: Adobe Illustrator 18.0.0, SVG Export Plug-In . SVG Version: 6.00 Build 0)  -->
<!DOCTYPE svg PUBLIC "-//W3C//DTD SVG 1.1//EN" "http://www.w3.org/Graphics/SVG/1.1/DTD/svg11.dtd">
<svg version="1.1" id="Capa_1" xmlns="http://www.w3.org/2000/svg" xmlns:xlink="http://www.w3.org/1999/xlink" x="0px" y="0px"
	 viewBox="0 0 60 60" style="enable-background:new 0 0 60 60;" xml:space="preserve">
<g>
	<path d="M17,57h12h2h12h2h12V45v-2V31v-2V17v-2V3H45h-2H31h-2H17h-2H3v12v2v12v2v12v2v12h12H17z M29,55H17V45h12V55z M17,31h3h3h2
		h1h2h1v12H17V31z M17,17h12v3h-1h-2h-1h-2h-3v9h-3V17z M43,29H31v-9v-3h12V29z M52,43h-1v-7h1V43z M49,43h-1v-7h1V43z M46,43h-1v-7
		h1V43z M43,34v9H31V31h12V34z M23,29h-1v-7h1V29z M26,29h-1v-7h1V29z M29,29h-1v-7h1V29z M43,55H31V45h12V55z M55,55H45V45h1h2h1h2
		h3h1V55z M55,43h-1v-9h-3h-2h-1h-2h-1v-3h10V43z M55,29H45V17h10V29z M45,5h10v10H45V5z M31,5h12v10H31V5z M17,5h12v10H17V5z M5,5
		h10v10H5V5z M5,17h10v12H5V17z M5,31h10v12H5V31z M5,55V45h10v10H5z"/>
	<path d="M0,0v60h60V0H0z M58,58H2V2h56V58z"/>
</g>
<g>
</g>
<g>
</g>
<g>
</g>
<g>
</g>
<g>
</g>
<g>
</g>
<g>
</g>
<g>
</g>
<g>
</g>
<g>
</g>
<g>
</g>
<g>
</g>
<g>
</g>
<g>
</g>
<g>
</g>
</svg>
