<?xml version="1.0" encoding="iso-8859-1"?>
<!-- Generator: Adobe Illustrator 18.0.0, SVG Export Plug-In . SVG Version: 6.00 Build 0)  -->
<!DOCTYPE svg PUBLIC "-//W3C//DTD SVG 1.1//EN" "http://www.w3.org/Graphics/SVG/1.1/DTD/svg11.dtd">
<svg version="1.1" id="Capa_1" xmlns="http://www.w3.org/2000/svg" xmlns:xlink="http://www.w3.org/1999/xlink" x="0px" y="0px"
	 viewBox="0 0 58 58" style="enable-background:new 0 0 58 58;" xml:space="preserve">
<g>
	<path d="M56,42V32h-4v-2h-6v2h-2v-4h-2.927c0.024-0.081,0.055-0.158,0.072-0.242c0.192-0.969-0.124-1.945-0.846-2.612
		c-0.805-0.744-1.319-1.548-1.529-2.389L38.581,22H37v-0.586l2.707-2.707c0.391-0.391,0.391-1.023,0-1.414s-1.023-0.391-1.414,0
		L37,18.586V16v-0.142c1.72-0.447,3-1.999,3-3.858v-2h-3V7h-5v5c0,1.859,1.28,3.411,3,3.858V16v6h-1.581l-0.189,0.757
		c-0.21,0.841-0.725,1.645-1.529,2.389c-0.722,0.667-1.039,1.644-0.846,2.611c0.017,0.084,0.048,0.162,0.072,0.243H30V14h-5
		c1.654,0,3-1.346,3-3s-1.346-3-3-3h-1V7h-7v7h-1V0H0v14v2v3v9v2v12v2v14h14h2h1h10h1h2h12h2h14V42H56z M54,34v8h-2v-8H54z M50,32
		v10h-2V32H50z M46,34v8h-2v-8H46z M38,12c0,0.739-0.403,1.386-1,1.731V12H38z M34,12V9h1v1v3.731C34.403,13.386,34,12.739,34,12z
		 M32.817,27.367c-0.081-0.403,0.142-0.661,0.242-0.753c0.865-0.801,1.49-1.678,1.866-2.614h2.15c0.375,0.937,1,1.813,1.866,2.614
		c0.1,0.092,0.322,0.35,0.242,0.754C39.112,27.729,38.741,28,38.321,28h-4.643C33.259,28,32.888,27.729,32.817,27.367z M33.679,30
		h4.643H42v2v10H30V30H33.679z M16,30h12v12H16V30z M25,10c0.551,0,1,0.448,1,1s-0.449,1-1,1h-1v-2H25z M19,9h3v5h-3V9z M17,16h7h4
		v12H16V16H17z M2,2h12v12H2V2z M2,16h12v12h-3v-9H8H6H5H3H2V16z M6,28H5v-7h1V28z M9,28H8v-7h1V28z M2,21h1v7H2V21z M2,30h1h2h1h2
		h3h3v12H2V30z M14,56H2V44h12V56z M19,56v-1h6v1H19z M19,52h6v1h-6V52z M25,50h-6v-1h6V50z M28,56h-1v-1v-2v-1v-2v-3H17v3v2v1v2v1
		h-1V44h12V56z M42,56H30V44h12V56z M56,56H44V44h2h2h2h2h4V56z"/>
	<path d="M20.463,6.078c0.125,0.052,0.255,0.076,0.382,0.076c0.393,0,0.765-0.232,0.924-0.617c0.205-0.495-0.017-1.061-0.496-1.286
		c1.283-0.55,1.476-1.368,1.476-1.811c0-0.447-0.198-1.279-1.521-1.828c-0.512-0.212-1.096,0.031-1.307,0.541
		c-0.205,0.495,0.017,1.061,0.497,1.287c-1.285,0.549-1.478,1.367-1.478,1.81C18.941,4.697,19.139,5.529,20.463,6.078z"/>
</g>
<g>
</g>
<g>
</g>
<g>
</g>
<g>
</g>
<g>
</g>
<g>
</g>
<g>
</g>
<g>
</g>
<g>
</g>
<g>
</g>
<g>
</g>
<g>
</g>
<g>
</g>
<g>
</g>
<g>
</g>
</svg>
