<svg xmlns="http://www.w3.org/2000/svg" viewBox="0 0 58 58" style="enable-background:new 0 0 58 58" xml:space="preserve"><path d="M56 42V32h-4v-2h-6v2h-2v-4h-2.927c.024-.081.055-.158.072-.242a2.79 2.79 0 0 0-.846-2.612c-.805-.744-1.319-1.548-1.529-2.389L38.581 22H37v-.586l2.707-2.707a.999.999 0 1 0-1.414-1.414L37 18.586V15.858c1.72-.447 3-1.999 3-3.858v-2h-3V7h-5v5c0 1.859 1.28 3.411 3 3.858V22h-1.581l-.189.757c-.21.841-.725 1.645-1.529 2.389a2.788 2.788 0 0 0-.846 2.611c.017.084.048.162.072.243H30V14h-5c1.654 0 3-1.346 3-3s-1.346-3-3-3h-1V7h-7v7h-1V0H0v58h58V42h-2zm-2-8v8h-2v-8h2zm-4-2v10h-2V32h2zm-4 2v8h-2v-8h2zm-8-22a2 2 0 0 1-1 1.731V12h1zm-4 0V9h1v4.731A2 2 0 0 1 34 12zm-1.183 15.367a.794.794 0 0 1 .242-.753c.865-.801 1.49-1.678 1.866-2.614h2.15c.375.937 1 1.813 1.866 2.614.1.092.322.35.242.754-.071.361-.442.632-.862.632h-4.643c-.419 0-.79-.271-.861-.633zM33.679 30H42v12H30V30h3.679zM16 30h12v12H16V30zm9-20a1.001 1.001 0 0 1 0 2h-1v-2h1zm-6-1h3v5h-3V9zm-2 7h11v12H16V16h1zM2 2h12v12H2V2zm0 14h12v12h-3v-9H2v-3zm4 12H5v-7h1v7zm3 0H8v-7h1v7zm-7-7h1v7H2v-7zm0 9h12v12H2V30zm12 26H2V44h12v12zm5 0v-1h6v1h-6zm0-4h6v1h-6v-1zm6-2h-6v-1h6v1zm3 6h-1v-9H17v9h-1V44h12v12zm14 0H30V44h12v12zm14 0H44V44h12v12z"/><path d="M20.463 6.078a.998.998 0 0 0 .81-1.827c1.283-.55 1.476-1.368 1.476-1.811 0-.447-.198-1.279-1.521-1.828a1 1 0 0 0-.81 1.828c-1.285.549-1.478 1.367-1.478 1.81.001.447.199 1.279 1.523 1.828z"/></svg>