<svg xmlns="http://www.w3.org/2000/svg" viewBox="0 0 60 60" style="enable-background:new 0 0 60 60" xml:space="preserve"><path d="M17 57h40V3H3v54h14zm12-2H17V45h12v10zM17 31h12v12H17V31zm0-14h12v3h-9v9h-3V17zm26 12H31V17h12v12zm9 14h-1v-7h1v7zm-3 0h-1v-7h1v7zm-3 0h-1v-7h1v7zm-3-9v9H31V31h12v3zm-20-5h-1v-7h1v7zm3 0h-1v-7h1v7zm3 0h-1v-7h1v7zm14 26H31V45h12v10zm12 0H45V45h10v10zm0-12h-1v-9h-9v-3h10v12zm0-14H45V17h10v12zM45 5h10v10H45V5zM31 5h12v10H31V5zM17 5h12v10H17V5zM5 5h10v10H5V5zm0 12h10v12H5V17zm0 14h10v12H5V31zm0 24V45h10v10H5z"/><path d="M0 0v60h60V0H0zm58 58H2V2h56v56z"/></svg>