<svg xmlns="http://www.w3.org/2000/svg" viewBox="0 0 60 60" style="enable-background:new 0 0 60 60" xml:space="preserve"><path d="M53 24v-.911c.331-.434 2.115-1.089 3-1.089h1a1 1 0 1 0 0-2H41a1 1 0 1 0 0 2h1c.885 0 2.669.655 3 1.089V24H32v-2h2v-6h-2v-4H18v6h2v2h-2v4h-4.936C14.255 22.206 15 19.349 15 16c0-2.335-.389-4.598-1.096-6.37L13.653 9h-2.552A5.01 5.01 0 0 1 16 5a1 1 0 1 0 0-2c-1.958 0-3.728.81-5 2.111V2a1 1 0 1 0-2 0v3.111A6.973 6.973 0 0 0 4 3a1 1 0 1 0 0 2 5.01 5.01 0 0 1 4.899 4H6.347l-.251.63C5.389 11.402 5 13.665 5 16c0 3.349.745 6.206 1.936 8H0v30h2v4a1 1 0 0 0 1 1h3c.409 0 .776-.249.929-.629L8.677 54h42.646l1.748 4.371c.153.38.52.629.929.629h3a1 1 0 0 0 1-1v-4h2V24h-7zm-6.33-2h4.66a1.73 1.73 0 0 0-.33 1v1h-4v-1a1.73 1.73 0 0 0-.33-1zM20 14h10v2H20v-2zm2 4h10v2H22v-2zm-2 4h10v2H20v-2zM7 16c0-1.813.256-3.562.726-5h4.549c.469 1.438.725 3.187.725 5 0 4.884-1.776 8-3 8s-3-3.116-3-8zM5.323 57H4v-3h2.523l-1.2 3zM8 52H2V26h8v26H8zm4 0V26h8v26h-8zm10 0V26h8v26h-8zm34 5h-1.323l-1.2-3H56v3zm2-5H32V40h26v12zM32 38V26h26v12H32z"/><path d="M47 31h-4a1 1 0 1 0 0 2h4a1 1 0 1 0 0-2zM27 28a1 1 0 0 0-1 1v4a1 1 0 1 0 2 0v-4a1 1 0 0 0-1-1zM17 28a1 1 0 0 0-1 1v4a1 1 0 1 0 2 0v-4a1 1 0 0 0-1-1zM7 28a1 1 0 0 0-1 1v4a1 1 0 1 0 2 0v-4a1 1 0 0 0-1-1zM43 47h4a1 1 0 1 0 0-2h-4a1 1 0 1 0 0 2z"/></svg>