<?xml version="1.0" encoding="iso-8859-1"?>
<!-- Generator: Adobe Illustrator 18.0.0, SVG Export Plug-In . SVG Version: 6.00 Build 0)  -->
<!DOCTYPE svg PUBLIC "-//W3C//DTD SVG 1.1//EN" "http://www.w3.org/Graphics/SVG/1.1/DTD/svg11.dtd">
<svg version="1.1" id="Capa_1" xmlns="http://www.w3.org/2000/svg" xmlns:xlink="http://www.w3.org/1999/xlink" x="0px" y="0px"
	 viewBox="0 0 59 59" style="enable-background:new 0 0 59 59;" xml:space="preserve">
<g>
	<path d="M8.5,0v12v14v9v21h2v3h9v-3h9h2h9v3h9v-3h2V35v-9V12V0H8.5z M45.5,12h-1V5h1V12z M42.5,12h-1V5h1V12z M39.5,12h-1V5h1V12z
		 M36.5,12h-1V5h1V12z M33.5,12h-2.557L33.5,5.181V12z M28.807,12h-0.864l2.25-6h0.864L28.807,12z M30.193,14H33.5h3h2h1h2h1h2h3h1
		v10h-1v-9h-3h-2h-1h-2h-1h-2h-1h-2h-1h-2h-3v9h-4v-2v-2v-3h-11v3v2v2h-2V14h14.557H30.193z M30.5,24h-1v-7h1V24z M33.5,24h-1v-7h1
		V24z M36.5,24h-1v-7h1V24z M39.5,24h-1v-7h1V24z M42.5,24h-1v-7h1V24z M45.5,24h-1v-7h1V24z M14.5,22h7v1h-7V22z M21.5,20h-7v-1h7
		V20z M17.5,57h-5v-1h5V57z M19.5,54h-9V37h18v17H19.5z M46.5,57h-5v-1h5V57z M48.5,54h-9h-9V37h18V54z M48.5,35h-1v-3v-2v-3h-11v3
		v2v3h-6h-2h-18v-9h17h3h2h1h2h1h2h1h2h1h2h3h1V35z M38.5,32h7v1h-7V32z M45.5,30h-7v-1h7V30z M47.5,12V3h-3h-2h-1h-2h-1h-2h-3v1
		h-4.693l-3,8H10.5V2h38v10H47.5z"/>
	<path d="M34.5,45c0.552,0,1-0.447,1-1v-3c0-0.553-0.448-1-1-1s-1,0.447-1,1v3C33.5,44.553,33.948,45,34.5,45z"/>
	<path d="M24.5,40c-0.552,0-1,0.447-1,1v3c0,0.553,0.448,1,1,1s1-0.447,1-1v-3C25.5,40.447,25.052,40,24.5,40z"/>
</g>
<g>
</g>
<g>
</g>
<g>
</g>
<g>
</g>
<g>
</g>
<g>
</g>
<g>
</g>
<g>
</g>
<g>
</g>
<g>
</g>
<g>
</g>
<g>
</g>
<g>
</g>
<g>
</g>
<g>
</g>
</svg>
