<svg xmlns="http://www.w3.org/2000/svg" viewBox="0 0 60 60" style="enable-background:new 0 0 60 60" xml:space="preserve"><path d="M19 56h14V3H3v53h16zm12-2H19V43h12v11zm-3-13h-1v-7h1v7zm-3 0h-1v-7h1v7zm5 0v-7h1v7h-1zm1-9h-9v9h-3V30h12v2zm0-4H19V17h12v11zM19 5h12v10H19V5zM5 5h12v10H5V5zm0 12h12v11h-3v-9H5v-2zm4 11H8v-7h1v7zm3 0h-1v-7h1v7zm-7-7h1v7H5v-7zm0 9h12v11H5V30zm0 24V43h12v11H5z"/><path d="M27 44h-4a1 1 0 1 0 0 2h4a1 1 0 1 0 0-2zM13 44H9a1 1 0 1 0 0 2h4a1 1 0 1 0 0-2zM60 45h-5.727c.024-.081.055-.158.072-.242a2.794 2.794 0 0 0-.845-2.612c-.805-.744-1.319-1.548-1.529-2.389l-.19-.757H50v-3.142c1.72-.447 3-1.999 3-3.858v-5h-8v5c0 1.859 1.28 3.411 3 3.858V39h-1.381l-.189.758c-.21.84-.724 1.644-1.529 2.388a2.792 2.792 0 0 0-.845 2.611c.017.084.048.162.072.243H38v8h3.484l-2.403 5.606a1 1 0 0 0 1.838.788L43.659 53h10.682l2.74 6.394a.999.999 0 1 0 1.838-.788L56.516 53H60v-8zM50 29h1v3a2 2 0 0 1-1 1.731V29zm-3 3v-3h1v4.731A2 2 0 0 1 47 32zm-.983 12.367a.794.794 0 0 1 .242-.753c.866-.801 1.491-1.678 1.866-2.614h2.151c.375.937 1 1.813 1.866 2.614.1.092.322.35.242.754-.072.361-.443.632-.863.632h-4.642c-.42 0-.791-.271-.862-.633zM58 51H40v-4h18v4z"/><path d="M0 59h2a1 1 0 1 0 2 0h28a1 1 0 1 0 2 0h2V0H0v59zM2 2h32v55H2V2z"/></svg>