<svg xmlns="http://www.w3.org/2000/svg" viewBox="0 0 60 60" style="enable-background:new 0 0 60 60" xml:space="preserve"><path d="M60 37.5c0-5.514-4.486-10-10-10h-8v-4H28v4h-4.936c1.19-1.794 1.936-4.651 1.936-8 0-2.335-.389-4.598-1.096-6.37l-.251-.63h-2.552A5.009 5.009 0 0 1 26 8.5a1 1 0 1 0 0-2c-1.958 0-3.728.81-5 2.111V5.5a1 1 0 1 0-2 0v3.111A6.973 6.973 0 0 0 14 6.5a1 1 0 1 0 0 2 5.01 5.01 0 0 1 4.899 4h-2.552l-.251.63C15.389 14.902 15 17.165 15 19.5c0 3.349.745 6.206 1.936 8H10c-5.514 0-10 4.486-10 10s4.486 10 10 10h2.196l-4.044 6.47a1 1 0 1 0 1.696 1.06l4.706-7.53h32.892l4.706 7.53a.998.998 0 0 0 1.378.318 1 1 0 0 0 .317-1.378l-4.044-6.47H50c5.514 0 10-4.486 10-10zm-30-12h10v2H30v-2zm-13-6c0-1.813.256-3.562.726-5h4.549c.47 1.438.726 3.187.726 5 0 4.884-1.776 8-3 8S17 24.384 17 19.5zm-7 26c-4.411 0-8-3.589-8-8s3.589-8 8-8h40c4.411 0 8 3.589 8 8s-3.589 8-8 8h-6v-5h-2v-4h-2v-4H30v-1h-6v3h-2v-2h-6v13h-6zm20-3h12v2H30v-2zm0-4h10v2H30v-2zm0-4h8v2h-8v-2zm-12 11v-11h2v11h-2zm4 0v-9h2v9h-2zm4-11v-1h2v12h-2v-11z"/></svg>