<svg xmlns="http://www.w3.org/2000/svg" viewBox="0 0 59 59" style="enable-background:new 0 0 59 59" xml:space="preserve"><path d="M23.5 48h6a1 1 0 1 0 0-2h-6a1 1 0 1 0 0 2zM32.5 48c.26 0 .52-.11.71-.29.18-.19.29-.45.29-.71 0-.271-.11-.53-.29-.71-.37-.37-1.05-.36-1.41 0a.98.98 0 0 0-.3.71c0 .26.11.52.29.71.19.18.45.29.71.29zM28.5 49h-2a1 1 0 1 0 0 2h2a1 1 0 1 0 0-2zM22.79 49.29c-.18.189-.29.45-.29.71s.11.52.29.71c.19.18.45.29.71.29.26 0 .52-.11.71-.29.18-.19.29-.45.29-.71s-.11-.521-.29-.71c-.37-.37-1.04-.37-1.42 0z"/><path d="M44.207 7.293a.999.999 0 0 0-1.414 0l-1.709 1.709A7.464 7.464 0 0 0 36.5 7.025V5a1 1 0 1 0-2 0v2.151c-.159.032-.314.077-.469.12-.338-1.229-.72-2.316-1.142-3.246l2.318-2.318A.999.999 0 1 0 33.793.293L31.88 2.206C30.889.76 29.746 0 28.5 0c-2.606 0-4.523 3.303-5.686 7.9l-1.607-1.607a.999.999 0 1 0-1.414 1.414l2.517 2.517c-.508 2.75-.78 5.795-.806 8.801a5.472 5.472 0 0 0-3.174 1.39l-2.123-2.123a.999.999 0 1 0-1.414 1.414l2.307 2.307a5.46 5.46 0 0 0-.6 2.486 5.506 5.506 0 0 0 6.039 5.473c.155.716.324 1.39.506 2.027H20.5a1 1 0 1 0 0 2h3.206c.466 1.209.99 2.216 1.564 3H15.5v8h2.277l4.616 14h12.216l4.616-14H41.5v-8h-9.751c1.326-1.812 2.298-4.69 2.915-8H37.5a1 1 0 1 0 0-2h-2.515c.228-1.638.377-3.335.45-5.029.187.015.374.03.565.03a7.463 7.463 0 0 0 5.084-2.002l1.244 1.244a.997.997 0 0 0 1.414 0 .999.999 0 0 0 0-1.414l-1.379-1.378c.716-1.149 1.136-2.5 1.136-3.95s-.421-2.801-1.136-3.95l1.843-1.843a.998.998 0 0 0 .001-1.414zM18.5 24.5c0-.328.06-.64.145-.941l1.148 1.148a.997.997 0 0 0 1.414 0 .999.999 0 0 0 0-1.414l-1.454-1.454A3.467 3.467 0 0 1 22 21c.023 0 .045.006.069.007l.327.037a3.511 3.511 0 0 1 1.739.702l.059.048c.138.111.268.231.387.361.036.04.068.083.103.125.097.116.191.236.272.364.045.071.081.147.12.221.06.111.122.222.169.34.045.111.074.229.108.346.027.092.061.182.08.277.042.217.067.442.067.672 0 .22-.026.434-.065.643-.013.069-.033.135-.05.202a3.391 3.391 0 0 1-.222.628c-.051.11-.11.214-.172.317-.049.08-.094.162-.149.237-.049.069-.107.13-.161.195a3.516 3.516 0 0 1-1.659 1.103l-.347.106A3.42 3.42 0 0 1 22 28c-1.93 0-3.5-1.57-3.5-3.5zM33.162 57h-9.323l-3.956-12h17.234l-3.955 12zM39.5 43h-22v-4h22v4zm-6.043-21.449A50.04 50.04 0 0 1 32.974 27H31.5a1 1 0 1 0 0 2h1.127c-1.044 5.201-2.818 8-4.127 8-.761 0-1.739-.965-2.634-3H27.5a1 1 0 1 0 0-2h-2.372a29.103 29.103 0 0 1-.666-2.589 5.53 5.53 0 0 0 2.167-1.953c.033-.051.063-.103.095-.155.089-.148.17-.301.244-.458.025-.052.052-.102.075-.155a5.42 5.42 0 0 0 .225-.614c.016-.055.028-.112.043-.168a5.193 5.193 0 0 0 .14-.713c.029-.228.049-.459.049-.695a5.49 5.49 0 0 0-.069-.826 5.376 5.376 0 0 0-.219-.917c-.01-.031-.023-.061-.034-.092a5.508 5.508 0 0 0-.8-1.479l-.007-.01a5.514 5.514 0 0 0-2.871-1.963c.013-2.703.208-5.139.525-7.273l.767.767a1.001 1.001 0 0 0 1.415-1.414l-1.745-1.745C25.494 4.741 27.164 2 28.5 2c.558 0 1.243.544 1.929 1.657l-1.636 1.636a.999.999 0 1 0 1.414 1.414l1.15-1.15c.286.72.562 1.542.816 2.498-.028.017-.052.038-.08.055-.22.135-.433.281-.637.437-.041.032-.084.061-.124.093a7.392 7.392 0 0 0-.672.603c-.017.017-.032.036-.049.054a7.564 7.564 0 0 0-.53.615c-.041.052-.08.106-.119.159-.15.204-.29.416-.42.635-.022.037-.045.072-.066.109a7.67 7.67 0 0 0-.407.829 7.366 7.366 0 0 0-.282.83c-.019.067-.035.135-.052.203a7.365 7.365 0 0 0-.137.686c-.012.077-.026.153-.035.231-.036.297-.06.597-.06.904 0 .169.014.334.025.5H26.5a1 1 0 1 0 0 2h2.437c.081.227.172.449.273.666.05.106.098.212.153.316.134.255.28.502.442.738.074.108.155.209.235.313.12.158.246.311.379.458.086.096.169.195.26.287a7.012 7.012 0 0 0 .912.775c.242.177.492.343.755.49.021.011.039.025.06.037.318.175.654.319.998.447.019.009.034.019.053.026zM41.5 14.5a5.46 5.46 0 0 1-.6 2.486l-.693-.693a.999.999 0 1 0-1.414 1.414l.877.877a5.469 5.469 0 0 1-4.734 1.311l-.224-.054a5.509 5.509 0 0 1-1.637-.692c-.033-.021-.067-.039-.099-.06a5.436 5.436 0 0 1-.768-.616 5.512 5.512 0 0 1-.472-.507c-.052-.064-.1-.133-.149-.2a5.437 5.437 0 0 1-.328-.495c-.036-.061-.073-.119-.107-.181-.015-.029-.025-.061-.04-.09h1.39a1 1 0 1 0 0-2h-1.958c-.015-.167-.042-.33-.042-.5 0-.244.021-.484.053-.722.007-.055.016-.11.025-.165.036-.221.083-.44.145-.653l.01-.037c.071-.236.159-.465.261-.688l.042-.087a5.273 5.273 0 0 1 .358-.644c.133-.204.28-.399.439-.584l.061-.067c.148-.167.306-.325.474-.473l.059-.053c.188-.161.387-.31.597-.445l.048-.029c.21-.133.43-.253.661-.358l.035-.017.128-.058c.195-.081.398-.148.604-.207V10a1 1 0 1 0 2 0v-.975a5.47 5.47 0 0 1 3.17 1.39l-.877.877a.999.999 0 0 0 1.412 1.415l.693-.693c.381.748.6 1.591.6 2.486z"/></svg>