<?xml version="1.0" encoding="iso-8859-1"?>
<!-- Generator: Adobe Illustrator 18.0.0, SVG Export Plug-In . SVG Version: 6.00 Build 0)  -->
<!DOCTYPE svg PUBLIC "-//W3C//DTD SVG 1.1//EN" "http://www.w3.org/Graphics/SVG/1.1/DTD/svg11.dtd">
<svg version="1.1" id="Capa_1" xmlns="http://www.w3.org/2000/svg" xmlns:xlink="http://www.w3.org/1999/xlink" x="0px" y="0px"
	 viewBox="0 0 59 59" style="enable-background:new 0 0 59 59;" xml:space="preserve">
<g>
	<path d="M23.5,48h6c0.552,0,1-0.447,1-1s-0.448-1-1-1h-6c-0.552,0-1,0.447-1,1S22.948,48,23.5,48z"/>
	<path d="M32.5,48c0.26,0,0.52-0.11,0.71-0.29c0.18-0.19,0.29-0.45,0.29-0.71c0-0.271-0.11-0.53-0.29-0.71
		c-0.37-0.37-1.05-0.36-1.41,0c-0.19,0.18-0.3,0.439-0.3,0.71c0,0.26,0.11,0.52,0.29,0.71C31.98,47.89,32.24,48,32.5,48z"/>
	<path d="M28.5,49h-2c-0.552,0-1,0.447-1,1s0.448,1,1,1h2c0.552,0,1-0.447,1-1S29.052,49,28.5,49z"/>
	<path d="M22.79,49.29c-0.18,0.189-0.29,0.45-0.29,0.71s0.11,0.52,0.29,0.71C22.98,50.89,23.24,51,23.5,51
		c0.26,0,0.52-0.11,0.71-0.29c0.18-0.19,0.29-0.45,0.29-0.71s-0.11-0.521-0.29-0.71C23.84,48.92,23.17,48.92,22.79,49.29z"/>
	<path d="M44.207,7.293c-0.391-0.391-1.023-0.391-1.414,0l-1.709,1.709C39.861,7.87,38.265,7.143,36.5,7.025V5c0-0.553-0.448-1-1-1
		s-1,0.447-1,1v2.151c-0.159,0.032-0.314,0.077-0.469,0.12c-0.338-1.229-0.72-2.316-1.142-3.246l2.318-2.318
		c0.391-0.391,0.391-1.023,0-1.414s-1.023-0.391-1.414,0L31.88,2.206C30.889,0.76,29.746,0,28.5,0c-2.606,0-4.523,3.303-5.686,7.9
		l-1.607-1.607c-0.391-0.391-1.023-0.391-1.414,0s-0.391,1.023,0,1.414l2.517,2.517c-0.508,2.75-0.78,5.795-0.806,8.801
		c-1.216,0.109-2.315,0.618-3.174,1.39l-2.123-2.123c-0.391-0.391-1.023-0.391-1.414,0s-0.391,1.023,0,1.414l2.307,2.307
		c-0.381,0.748-0.6,1.591-0.6,2.486c0,3.032,2.467,5.5,5.5,5.5c0.182,0,0.361-0.01,0.539-0.027c0.155,0.716,0.324,1.39,0.506,2.027
		H20.5c-0.552,0-1,0.447-1,1s0.448,1,1,1h3.206c0.466,1.209,0.99,2.216,1.564,3H15.5v8h2.277l4.616,14h12.216l4.616-14H41.5v-8
		h-9.751c1.326-1.812,2.298-4.69,2.915-8H37.5c0.552,0,1-0.447,1-1s-0.448-1-1-1h-2.515c0.228-1.638,0.377-3.335,0.45-5.029
		C35.622,21.985,35.809,22,36,22c1.963,0,3.746-0.764,5.084-2.002l1.244,1.244c0.195,0.195,0.451,0.293,0.707,0.293
		s0.512-0.098,0.707-0.293c0.391-0.391,0.391-1.023,0-1.414l-1.379-1.378c0.716-1.149,1.136-2.5,1.136-3.95s-0.421-2.801-1.136-3.95
		l1.843-1.843C44.598,8.316,44.598,7.684,44.207,7.293z M18.5,24.5c0-0.328,0.06-0.64,0.145-0.941l1.148,1.148
		C19.988,24.902,20.244,25,20.5,25s0.512-0.098,0.707-0.293c0.391-0.391,0.391-1.023,0-1.414l-1.454-1.454
		C20.363,21.323,21.141,21,22,21c0.023,0,0.045,0.006,0.069,0.007l0.327,0.037c0.655,0.075,1.249,0.327,1.739,0.702
		c0.02,0.016,0.039,0.032,0.059,0.048c0.138,0.111,0.268,0.231,0.387,0.361c0.036,0.04,0.068,0.083,0.103,0.125
		c0.097,0.116,0.191,0.236,0.272,0.364c0.045,0.071,0.081,0.147,0.12,0.221c0.06,0.111,0.122,0.222,0.169,0.34
		c0.045,0.111,0.074,0.229,0.108,0.346c0.027,0.092,0.061,0.182,0.08,0.277C25.475,24.045,25.5,24.27,25.5,24.5
		c0,0.22-0.026,0.434-0.065,0.643c-0.013,0.069-0.033,0.135-0.05,0.202c-0.034,0.137-0.075,0.271-0.125,0.401
		c-0.03,0.077-0.062,0.152-0.097,0.227c-0.051,0.11-0.11,0.214-0.172,0.317c-0.049,0.08-0.094,0.162-0.149,0.237
		c-0.049,0.069-0.107,0.13-0.161,0.195c-0.424,0.504-0.988,0.896-1.659,1.103l-0.347,0.106C22.456,27.975,22.231,28,22,28
		C20.07,28,18.5,26.43,18.5,24.5z M33.162,57h-9.323l-3.956-12h17.234L33.162,57z M39.5,43h-22v-4h22V43z M33.457,21.551
		c-0.072,2.003-0.244,3.816-0.483,5.449H31.5c-0.552,0-1,0.447-1,1s0.448,1,1,1h1.127c-1.044,5.201-2.818,8-4.127,8
		c-0.761,0-1.739-0.965-2.634-3H27.5c0.552,0,1-0.447,1-1s-0.448-1-1-1h-2.372c-0.239-0.77-0.463-1.631-0.666-2.589
		c0.886-0.446,1.635-1.123,2.167-1.953c0.033-0.051,0.063-0.103,0.095-0.155c0.089-0.148,0.17-0.301,0.244-0.458
		c0.025-0.052,0.052-0.102,0.075-0.155c0.087-0.199,0.162-0.404,0.225-0.614c0.016-0.055,0.028-0.112,0.043-0.168
		c0.045-0.169,0.082-0.341,0.11-0.516c0.011-0.065,0.022-0.13,0.03-0.197C27.48,24.967,27.5,24.736,27.5,24.5
		c0-0.281-0.028-0.556-0.069-0.826c-0.007-0.049-0.014-0.097-0.022-0.146c-0.047-0.264-0.113-0.521-0.197-0.771
		c-0.01-0.031-0.023-0.061-0.034-0.092c-0.191-0.536-0.462-1.033-0.8-1.479c-0.003-0.003-0.005-0.007-0.007-0.01
		c-0.712-0.934-1.713-1.633-2.871-1.963c0.013-2.703,0.208-5.139,0.525-7.273l0.767,0.767C24.988,12.902,25.244,13,25.5,13
		s0.512-0.098,0.707-0.293c0.391-0.391,0.391-1.023,0-1.414l-1.745-1.745C25.494,4.741,27.164,2,28.5,2
		c0.558,0,1.243,0.544,1.929,1.657l-1.636,1.636c-0.391,0.391-0.391,1.023,0,1.414C28.988,6.902,29.244,7,29.5,7
		s0.512-0.098,0.707-0.293l1.15-1.15c0.286,0.72,0.562,1.542,0.816,2.498c-0.028,0.017-0.052,0.038-0.08,0.055
		c-0.22,0.135-0.433,0.281-0.637,0.437c-0.041,0.032-0.084,0.061-0.124,0.093c-0.236,0.188-0.461,0.388-0.672,0.603
		c-0.017,0.017-0.032,0.036-0.049,0.054c-0.188,0.195-0.364,0.401-0.53,0.615c-0.041,0.052-0.08,0.106-0.119,0.159
		c-0.15,0.204-0.29,0.416-0.42,0.635c-0.022,0.037-0.045,0.072-0.066,0.109c-0.151,0.267-0.288,0.543-0.407,0.829v0
		c-0.111,0.269-0.203,0.547-0.282,0.83c-0.019,0.067-0.035,0.135-0.052,0.203c-0.056,0.225-0.102,0.453-0.137,0.686
		c-0.012,0.077-0.026,0.153-0.035,0.231c-0.036,0.297-0.06,0.597-0.06,0.904c0,0.169,0.014,0.334,0.025,0.5H26.5
		c-0.552,0-1,0.447-1,1s0.448,1,1,1h2.437c0.081,0.227,0.172,0.449,0.273,0.666c0.05,0.106,0.098,0.212,0.153,0.316
		c0.134,0.255,0.28,0.502,0.442,0.738c0.074,0.108,0.155,0.209,0.235,0.313c0.12,0.158,0.246,0.311,0.379,0.458
		c0.086,0.096,0.169,0.195,0.26,0.287c0.204,0.205,0.421,0.396,0.647,0.577c0.087,0.069,0.176,0.134,0.265,0.198
		c0.242,0.177,0.492,0.343,0.755,0.49c0.021,0.011,0.039,0.025,0.06,0.037c0.318,0.175,0.654,0.319,0.998,0.447
		C33.423,21.534,33.438,21.544,33.457,21.551z M41.5,14.5c0,0.895-0.219,1.738-0.6,2.486l-0.693-0.693
		c-0.391-0.391-1.023-0.391-1.414,0s-0.391,1.023,0,1.414l0.877,0.877C38.696,19.461,37.411,20,36,20
		c-0.364,0-0.719-0.038-1.064-0.105l-0.224-0.054c-0.594-0.143-1.142-0.382-1.637-0.692c-0.033-0.021-0.067-0.039-0.099-0.06
		c-0.209-0.137-0.403-0.291-0.59-0.454c-0.06-0.053-0.12-0.107-0.178-0.162c-0.168-0.16-0.326-0.328-0.472-0.507
		c-0.052-0.064-0.1-0.133-0.149-0.2c-0.118-0.159-0.228-0.324-0.328-0.495c-0.036-0.061-0.073-0.119-0.107-0.181
		c-0.015-0.029-0.025-0.061-0.04-0.09h1.39c0.552,0,1-0.447,1-1s-0.448-1-1-1h-1.958c-0.015-0.167-0.042-0.33-0.042-0.5
		c0-0.244,0.021-0.484,0.053-0.722c0.007-0.055,0.016-0.11,0.025-0.165c0.036-0.221,0.083-0.44,0.145-0.653
		c0.004-0.012,0.006-0.025,0.01-0.037c0.071-0.236,0.159-0.465,0.261-0.688c0.013-0.029,0.028-0.058,0.042-0.087
		c0.097-0.205,0.206-0.404,0.328-0.594c0.01-0.016,0.02-0.033,0.03-0.05c0.133-0.204,0.28-0.399,0.439-0.584
		c0.02-0.023,0.041-0.044,0.061-0.067c0.148-0.167,0.306-0.325,0.474-0.473c0.02-0.018,0.039-0.036,0.059-0.053
		c0.188-0.161,0.387-0.31,0.597-0.445c0.016-0.01,0.032-0.02,0.048-0.029c0.21-0.133,0.43-0.253,0.661-0.358
		c0.012-0.005,0.023-0.011,0.035-0.017l0.128-0.058c0.195-0.081,0.398-0.148,0.604-0.207V10c0,0.553,0.448,1,1,1s1-0.447,1-1V9.025
		c1.214,0.11,2.312,0.618,3.17,1.39l-0.877,0.877c-0.391,0.391-0.391,1.023,0,1.414C38.988,12.902,39.244,13,39.5,13
		s0.512-0.098,0.707-0.293l0.693-0.693C41.281,12.762,41.5,13.605,41.5,14.5z"/>
</g>
<g>
</g>
<g>
</g>
<g>
</g>
<g>
</g>
<g>
</g>
<g>
</g>
<g>
</g>
<g>
</g>
<g>
</g>
<g>
</g>
<g>
</g>
<g>
</g>
<g>
</g>
<g>
</g>
<g>
</g>
</svg>
