<svg xmlns="http://www.w3.org/2000/svg" viewBox="0 0 58.692 58.692" style="enable-background:new 0 0 58.692 58.692" xml:space="preserve"><path d="M44.346 36.692h-2V18.456l-3-6-1 2V7.5l-3-7.5-3 7.5v4.956l-1-2-3 6v3l-1-2-1 2v-7.764l-3-10.64-2.961 10.365-.004 3.106-1.034-2.068-3 6v18.236h-2v8h2.61l3.615 14h17.549l3.615-14h2.61v-7.999zm-5-19.763 1 2v17.764h-2V18.929l1-2zm-5-9.044 1-2.5 1 2.5V36.692h-2V7.885zm-4 9.044 1-2 1 2v19.764h-2V16.929zm-3 5 1 2v12.764h-2V23.929l1-2zm-5-10.097 1-3.5 1 3.5v24.86h-2v-24.86zm-4 7.097 1-2 1 2v17.764h-2V18.929zm18.226 37.763H22.121l-3.099-12H39.67l-3.098 12zm5.774-14H16.346v-4h26v4z"/><path d="M24.346 47.692h6a1 1 0 1 0 0-2h-6a1 1 0 1 0 0 2zM33.346 47.692c.26 0 .52-.11.71-.29.19-.19.29-.45.29-.71s-.11-.521-.29-.71c-.38-.37-1.05-.36-1.42 0-.18.189-.29.45-.29.71s.11.52.29.71c.19.18.45.29.71.29zM29.346 48.692h-2a1 1 0 1 0 0 2h2a1 1 0 1 0 0-2zM24.346 50.692a1.009 1.009 0 0 0 1-1c0-.26-.11-.521-.29-.71-.37-.37-1.05-.37-1.42 0-.18.189-.29.45-.29.71 0 .27.11.52.29.71.19.18.45.29.71.29z"/></svg>