<svg xmlns="http://www.w3.org/2000/svg" viewBox="0 0 60 60" style="enable-background:new 0 0 60 60" xml:space="preserve"><path d="M49 30h-5v-9.17c1.725-.485 3-2.056 3-3.934V4.104A4.108 4.108 0 0 0 42.897 0H17.103A4.108 4.108 0 0 0 13 4.104v12.793c0 1.878 1.275 3.448 3 3.934V30h-5v6h3v23a1 1 0 1 0 2 0V42h2v15a1 1 0 1 0 2 0V42h20v15a1 1 0 1 0 2 0V42h2v17a1 1 0 1 0 2 0V36h3v-6zM15 16.896V4.104C15 2.943 15.943 2 17.103 2h25.794C44.057 2 45 2.943 45 4.104v12.793c0 1.16-.943 2.103-2.103 2.103H17.103A2.105 2.105 0 0 1 15 16.896zM18 21h24v9H18v-9zm-2 19v-4h2v4h-2zm4 0v-4h20v4H20zm24 0h-2v-4h2v4zm3-6H13v-2h34v2z"/><path d="M25 11h10c1.654 0 3-1.346 3-3s-1.346-3-3-3H25c-1.654 0-3 1.346-3 3s1.346 3 3 3zm0-4h10a1.001 1.001 0 0 1 0 2H25a1.001 1.001 0 0 1 0-2z"/></svg>