<svg xmlns="http://www.w3.org/2000/svg" viewBox="0 0 60 60" style="enable-background:new 0 0 60 60" xml:space="preserve"><path d="M54.343 12c-3.937 0-7.636-1.847-10.149-5.067C40.755 2.526 35.582 0 30 0S19.245 2.526 15.807 6.933C13.293 10.153 9.594 12 5.657 12A2.66 2.66 0 0 0 3 14.657V15c0 .536.219 1.059.601 1.435.378.373.849.565 1.399.565 0 7.637 4.54 14.219 11.054 17.235l-2.545 22.71a2.417 2.417 0 0 0 .403 2.066 2.422 2.422 0 0 0 1.964.989h.98a2.432 2.432 0 0 0 2.34-1.735l1.313-11.623L30 41.153l9.481 5.483 1.286 11.45.037.179A2.43 2.43 0 0 0 43.144 60h.98c.782 0 1.498-.36 1.964-.988.445-.601.59-1.348.403-2.066l-2.545-22.71C50.459 31.219 54.993 24.637 54.975 17a1.948 1.948 0 0 0 1.431-.577c.383-.379.594-.884.594-1.423v-.343A2.66 2.66 0 0 0 54.343 12zM16.856 58h-.98c-.195 0-.308-.112-.357-.18s-.125-.207-.068-.394l2.528-22.411c.035.012.073.019.109.03a18.78 18.78 0 0 0 1.539.426c.044.01.086.026.13.036l-2.498 22.237a.451.451 0 0 1-.403.256zm3.933-13.83.885-7.832 6.329 3.66-7.214 4.172zM25.084 36h9.833L30 38.843 25.084 36zm6.913 3.998 6.327-3.659.879 7.827-7.206-4.168zm10.024-4.982 2.491 22.232.037.179c.057.187-.019.326-.068.394s-.162.179-.357.179h-.98a.45.45 0 0 1-.402-.255l-2.498-22.237c.045-.01.087-.026.131-.036a18.73 18.73 0 0 0 1.537-.425c.036-.013.074-.02.109-.031zM55 15c-.527.028-1.023.195-1.402.568-.38.375-.598.897-.598 1.432 0 7.027-4.286 13.072-10.381 15.658l-.02.008c-.124.053-.256.09-.382.14-.458.179-.922.349-1.405.489-.039.012-.079.019-.119.031-.555.157-1.124.291-1.706.394-.972.174-1.966.28-2.987.28H24a17 17 0 0 1-2.987-.279 17.948 17.948 0 0 1-1.706-.394c-.039-.011-.08-.019-.119-.031-.483-.14-.948-.31-1.405-.489-.126-.05-.257-.087-.382-.14l-.02-.008C11.286 30.072 7 24.027 7 17c0-.541-.212-1.048-.598-1.428A1.961 1.961 0 0 0 5.03 15H5v-.343c0-.362.295-.657.657-.657 4.557 0 8.831-2.128 11.726-5.837C20.439 4.246 25.038 2 30 2s9.561 2.246 12.617 6.163C45.512 11.872 49.786 14 54.343 14c.362 0 .657.295.657.657V15z"/><path d="m43.83 22.14-.73-.156a57.367 57.367 0 0 0-24.198 0l-.732.156h-.001A2.759 2.759 0 0 0 16 24.823v1.432c0 .833.371 1.61 1.019 2.134a2.735 2.735 0 0 0 2.302.55 55.41 55.41 0 0 1 23.36 0 2.735 2.735 0 0 0 2.301-.55A2.733 2.733 0 0 0 46 26.255v-1.432a2.759 2.759 0 0 0-2.17-2.683zm.17 4.115a.736.736 0 0 1-.276.579.726.726 0 0 1-.624.149A57.68 57.68 0 0 0 31 25.692a57.67 57.67 0 0 0-12.099 1.291.734.734 0 0 1-.625-.149.737.737 0 0 1-.276-.579v-1.432a.75.75 0 0 1 .589-.729l.731-.156a55.41 55.41 0 0 1 23.36 0l.73.156c.342.074.59.381.59.729v1.432z"/></svg>