<?xml version="1.0" encoding="iso-8859-1"?>
<!-- Generator: Adobe Illustrator 18.0.0, SVG Export Plug-In . SVG Version: 6.00 Build 0)  -->
<!DOCTYPE svg PUBLIC "-//W3C//DTD SVG 1.1//EN" "http://www.w3.org/Graphics/SVG/1.1/DTD/svg11.dtd">
<svg version="1.1" id="Capa_1" xmlns="http://www.w3.org/2000/svg" xmlns:xlink="http://www.w3.org/1999/xlink" x="0px" y="0px"
	 viewBox="0 0 60 60" style="enable-background:new 0 0 60 60;" xml:space="preserve">
<g>
	<path d="M44,27.435v-9.6c1.853-1.894,3-4.482,3-7.334C47,4.71,42.29,0,36.5,0h-13C17.71,0,13,4.71,13,10.5
		c0,2.853,1.147,5.44,3,7.334v9.6c-3.14,1.408-5,3.337-5,5.565l0.012,0.241C11.005,33.327,11,33.413,11,33.5
		c0,1.953,1.258,3.602,3,4.224V59c0,0.553,0.448,1,1,1s1-0.447,1-1V42h2v15c0,0.553,0.448,1,1,1s1-0.447,1-1V42h20v15
		c0,0.553,0.448,1,1,1s1-0.447,1-1V42h2v17c0,0.553,0.448,1,1,1s1-0.447,1-1V37.731c1.593-0.567,2.78-1.997,2.972-3.731L49,33
		C49,30.772,47.14,28.843,44,27.435z M23.5,2h13c4.687,0,8.5,3.813,8.5,8.5S41.187,19,36.5,19h-13c-4.687,0-8.5-3.813-8.5-8.5
		S18.813,2,23.5,2z M18,19.427C19.602,20.418,21.482,21,23.5,21h13c2.018,0,3.898-0.582,5.5-1.573v7.237
		C38.795,25.611,34.674,25,30,25s-8.795,0.611-12,1.664V19.427z M16,40v-2h2v2H16z M20,40v-2h20v2H20z M42,40v-2h2v2H42z M44.5,36
		h-29c-1.378,0-2.5-1.121-2.5-2.5c0-0.104,0.018-0.205,0.041-0.356l0.078-0.779C14.004,29.937,19.818,27,30,27
		c9.986,0,15.77,2.824,16.824,5.223l0.143,0.972C46.982,33.295,47,33.396,47,33.5C47,34.879,45.878,36,44.5,36z"/>
	<path d="M42,32H28c-0.552,0-1,0.447-1,1s0.448,1,1,1h14c0.552,0,1-0.447,1-1S42.552,32,42,32z"/>
	<path d="M22,32h-4c-0.552,0-1,0.447-1,1s0.448,1,1,1h4c0.552,0,1-0.447,1-1S22.553,32,22,32z"/>
</g>
<g>
</g>
<g>
</g>
<g>
</g>
<g>
</g>
<g>
</g>
<g>
</g>
<g>
</g>
<g>
</g>
<g>
</g>
<g>
</g>
<g>
</g>
<g>
</g>
<g>
</g>
<g>
</g>
<g>
</g>
</svg>
