<svg xmlns="http://www.w3.org/2000/svg" viewBox="0 0 60 60" style="enable-background:new 0 0 60 60" xml:space="preserve"><path d="M44 27.435v-9.6a10.46 10.46 0 0 0 3-7.334C47 4.71 42.29 0 36.5 0h-13C17.71 0 13 4.71 13 10.5c0 2.853 1.147 5.44 3 7.334v9.6c-3.14 1.408-5 3.337-5 5.565l.012.241a3.23 3.23 0 0 0-.012.26c0 1.953 1.258 3.602 3 4.224V59a1 1 0 1 0 2 0V42h2v15a1 1 0 1 0 2 0V42h20v15a1 1 0 1 0 2 0V42h2v17a1 1 0 1 0 2 0V37.731A4.502 4.502 0 0 0 48.972 34L49 33c0-2.228-1.86-4.157-5-5.565zM23.5 2h13c4.687 0 8.5 3.813 8.5 8.5S41.187 19 36.5 19h-13c-4.687 0-8.5-3.813-8.5-8.5S18.813 2 23.5 2zM18 19.427A10.419 10.419 0 0 0 23.5 21h13c2.018 0 3.898-.582 5.5-1.573v7.237C38.795 25.611 34.674 25 30 25s-8.795.611-12 1.664v-7.237zM16 40v-2h2v2h-2zm4 0v-2h20v2H20zm22 0v-2h2v2h-2zm2.5-4h-29a2.503 2.503 0 0 1-2.5-2.5c0-.104.018-.205.041-.356l.078-.779C14.004 29.937 19.818 27 30 27c9.986 0 15.77 2.824 16.824 5.223l.143.972c.015.1.033.201.033.305 0 1.379-1.122 2.5-2.5 2.5z"/><path d="M42 32H28a1 1 0 1 0 0 2h14a1 1 0 1 0 0-2zM22 32h-4a1 1 0 1 0 0 2h4a1 1 0 1 0 0-2z"/></svg>