<?xml version="1.0" encoding="iso-8859-1"?>
<!-- Generator: Adobe Illustrator 18.0.0, SVG Export Plug-In . SVG Version: 6.00 Build 0)  -->
<!DOCTYPE svg PUBLIC "-//W3C//DTD SVG 1.1//EN" "http://www.w3.org/Graphics/SVG/1.1/DTD/svg11.dtd">
<svg version="1.1" id="Capa_1" xmlns="http://www.w3.org/2000/svg" xmlns:xlink="http://www.w3.org/1999/xlink" x="0px" y="0px"
	 viewBox="0 0 60 60" style="enable-background:new 0 0 60 60;" xml:space="preserve">
<g>
	<path d="M49,30h-5v-9.17c1.725-0.485,3-2.056,3-3.934V4.104C47,1.841,45.159,0,42.897,0H17.103C14.841,0,13,1.841,13,4.104v12.793
		c0,1.878,1.275,3.448,3,3.934V30h-5v6h3v23c0,0.553,0.448,1,1,1s1-0.447,1-1V42h2v15c0,0.553,0.448,1,1,1s1-0.447,1-1V42h20v15
		c0,0.553,0.448,1,1,1s1-0.447,1-1V42h2v17c0,0.553,0.448,1,1,1s1-0.447,1-1V36h3V30z M15,16.896V4.104C15,2.943,15.943,2,17.103,2
		h25.794C44.057,2,45,2.943,45,4.104v12.793C45,18.057,44.057,19,42.897,19H17.103C15.943,19,15,18.057,15,16.896z M18,21h24v9H18
		V21z M16,40v-4h2v4H16z M20,40v-4h20v4H20z M44,40h-2v-4h2V40z M47,34H13v-2h34V34z"/>
	<path d="M25,11h10c1.654,0,3-1.346,3-3s-1.346-3-3-3H25c-1.654,0-3,1.346-3,3S23.346,11,25,11z M25,7h10c0.551,0,1,0.448,1,1
		s-0.449,1-1,1H25c-0.551,0-1-0.448-1-1S24.449,7,25,7z"/>
</g>
<g>
</g>
<g>
</g>
<g>
</g>
<g>
</g>
<g>
</g>
<g>
</g>
<g>
</g>
<g>
</g>
<g>
</g>
<g>
</g>
<g>
</g>
<g>
</g>
<g>
</g>
<g>
</g>
<g>
</g>
</svg>
