<svg xmlns="http://www.w3.org/2000/svg" viewBox="0 0 60 60" style="enable-background:new 0 0 60 60" xml:space="preserve"><path d="m42.83 22.14-.73-.156a57.367 57.367 0 0 0-24.198 0l-.732.156h-.001A2.759 2.759 0 0 0 15 24.823v1.432c0 .833.371 1.61 1.019 2.134a2.735 2.735 0 0 0 2.302.55 55.41 55.41 0 0 1 23.36 0 2.735 2.735 0 0 0 2.301-.55A2.733 2.733 0 0 0 45 26.255v-1.432a2.759 2.759 0 0 0-2.17-2.683zm.17 4.115a.736.736 0 0 1-.276.579.726.726 0 0 1-.624.149A57.68 57.68 0 0 0 30 25.692a57.67 57.67 0 0 0-12.099 1.291.734.734 0 0 1-.625-.149.737.737 0 0 1-.276-.579v-1.432a.75.75 0 0 1 .589-.729l.731-.156a55.41 55.41 0 0 1 23.36 0l.73.156c.342.074.59.381.59.729v1.432z"/><path d="M54.343 12c-3.937 0-7.636-1.847-10.149-5.067C40.755 2.526 35.582 0 30 0S19.245 2.526 15.807 6.933C13.293 10.153 9.594 12 5.657 12A2.66 2.66 0 0 0 3 14.657V15c0 .536.219 1.059.601 1.435A1.93 1.93 0 0 0 5 17c0 6.805 3.608 12.769 9 16.125V59a1 1 0 1 0 2 0V42h2v15a1 1 0 1 0 2 0V42h20v15a1 1 0 1 0 2 0V42h2v17a1 1 0 1 0 2 0V33.124c5.389-3.356 8.991-9.32 8.975-16.124a1.969 1.969 0 0 0 1.431-.577c.383-.379.594-.884.594-1.423v-.343A2.66 2.66 0 0 0 54.343 12zM16 40v-5.79c.649.303 1.314.575 2 .804V40h-2zm4 0v-4.432A18.97 18.97 0 0 0 24 36h12a18.97 18.97 0 0 0 4-.432V40H20zm24 0h-2v-4.986a18.798 18.798 0 0 0 2-.804V40zm11-25h-.025c-.517 0-1.005.201-1.377.568-.38.375-.598.897-.598 1.432 0 6.217-3.365 11.65-8.359 14.614-.08.031-.146.081-.214.13A16.872 16.872 0 0 1 36 34H24c-3.067 0-5.939-.828-8.426-2.255-.068-.049-.135-.1-.215-.131C10.365 28.65 7 23.217 7 17c0-.541-.212-1.048-.598-1.428A1.961 1.961 0 0 0 5.03 15H5v-.343c0-.362.295-.657.657-.657 4.557 0 8.831-2.128 11.726-5.837C20.439 4.246 25.038 2 30 2s9.561 2.246 12.617 6.163C45.512 11.872 49.786 14 54.343 14c.362 0 .657.295.657.657V15z"/></svg>