<?xml version="1.0" encoding="iso-8859-1"?>
<!-- Generator: Adobe Illustrator 18.0.0, SVG Export Plug-In . SVG Version: 6.00 Build 0)  -->
<!DOCTYPE svg PUBLIC "-//W3C//DTD SVG 1.1//EN" "http://www.w3.org/Graphics/SVG/1.1/DTD/svg11.dtd">
<svg version="1.1" id="Capa_1" xmlns="http://www.w3.org/2000/svg" xmlns:xlink="http://www.w3.org/1999/xlink" x="0px" y="0px"
	 viewBox="0 0 60 60" style="enable-background:new 0 0 60 60;" xml:space="preserve">
<g>
	<path d="M49,30h-4V13h2V0H13v13h2v17h-4v6h3v23c0,0.553,0.448,1,1,1s1-0.447,1-1V42h2v15c0,0.553,0.448,1,1,1s1-0.447,1-1V42h20v15
		c0,0.553,0.448,1,1,1s1-0.447,1-1V42h2v17c0,0.553,0.448,1,1,1s1-0.447,1-1V36h3V30z M43,30h-2V13h2V30z M37,30V13h2v17H37z M33,30
		V13h2v17H33z M29,30V13h2v17H29z M25,30V13h2v17H25z M21,30V13h2v17H21z M15,2h30v9H15V2z M17,13h2v17h-2V13z M16,40v-4h2v4H16z
		 M20,40v-4h20v4H20z M44,40h-2v-4h2V40z M47,34H13v-2h34V34z"/>
	<path d="M37,4H23v5h14V4z M35,7H25V6h10V7z"/>
</g>
<g>
</g>
<g>
</g>
<g>
</g>
<g>
</g>
<g>
</g>
<g>
</g>
<g>
</g>
<g>
</g>
<g>
</g>
<g>
</g>
<g>
</g>
<g>
</g>
<g>
</g>
<g>
</g>
<g>
</g>
</svg>
