<svg xmlns="http://www.w3.org/2000/svg" viewBox="0 0 60 60" style="enable-background:new 0 0 60 60" xml:space="preserve"><path d="M49 30h-4V13h2V0H13v13h2v17h-4v6h3v23a1 1 0 1 0 2 0V42h2v15a1 1 0 1 0 2 0V42h20v15a1 1 0 1 0 2 0V42h2v17a1 1 0 1 0 2 0V36h3v-6zm-6 0h-2V13h2v17zm-6 0V13h2v17h-2zm-4 0V13h2v17h-2zm-4 0V13h2v17h-2zm-4 0V13h2v17h-2zm-4 0V13h2v17h-2zM15 2h30v9H15V2zm2 11h2v17h-2V13zm-1 27v-4h2v4h-2zm4 0v-4h20v4H20zm24 0h-2v-4h2v4zm3-6H13v-2h34v2z"/><path d="M37 4H23v5h14V4zm-2 3H25V6h10v1z"/></svg>