<svg xmlns="http://www.w3.org/2000/svg" viewBox="0 0 60 60" style="enable-background:new 0 0 60 60" xml:space="preserve"><path d="M45.973 22.5H31v-10h4a1 1 0 0 0 1-1v-3h4a1 1 0 1 0 0-2H20a1 1 0 1 0 0 2h4v3a1 1 0 0 0 1 1h4v10H14.027C6.293 22.5 0 28.793 0 36.527V52.5a1 1 0 0 0 1 1h58a1 1 0 0 0 1-1V36.527C60 28.793 53.707 22.5 45.973 22.5zM26 8.5h8v2h-8v-2zm-11.973 16H29v3H14a1 1 0 1 0 0 2h6.586l-2.044 2.044-3.014.326c-2.335.253-4.361 2.279-4.614 4.614-.131 1.206.229 2.302 1.015 3.087.68.68 1.593 1.041 2.608 1.041.157 0 .317-.009.479-.026 2.335-.253 4.361-2.279 4.614-4.614l.326-3.014 3.458-3.458H29v2.647l-1.9 2.362c-1.473 1.83-1.473 4.696 0 6.526.76.944 1.79 1.465 2.9 1.465s2.141-.521 2.9-1.465c1.473-1.83 1.473-4.696 0-6.526L31 32.147V29.5h6.586l3.458 3.458.326 3.014c.253 2.335 2.279 4.361 4.614 4.614.162.018.321.026.479.026 1.016 0 1.929-.361 2.608-1.041.785-.785 1.146-1.881 1.015-3.087-.253-2.335-2.279-4.361-4.614-4.614l-3.014-.326-2.044-2.044H47a1 1 0 1 0 0-2H31v-3h14.973C52.604 24.5 58 29.896 58 36.527V44.5H2v-7.973C2 29.896 7.396 24.5 14.027 24.5zM30 34.095l1.342 1.668c.877 1.089.877 2.93 0 4.019-.746.928-1.938.928-2.684 0-.877-1.089-.877-2.93 0-4.019L30 34.095zm-15.199 4.503c-.589.066-1.109-.092-1.458-.44-.348-.349-.505-.866-.44-1.458.15-1.39 1.451-2.69 2.841-2.841l2.129-.23-.23 2.129c-.152 1.388-1.453 2.689-2.842 2.84zm28.327-4.97 2.129.23c1.39.15 2.69 1.451 2.841 2.841.064.592-.093 1.109-.44 1.458-.349.348-.871.506-1.458.44-1.39-.15-2.69-1.451-2.841-2.841l-.231-2.128zM58 51.5H2v-5h56v5z"/></svg>