<?xml version="1.0" encoding="iso-8859-1"?>
<!-- Generator: Adobe Illustrator 18.0.0, SVG Export Plug-In . SVG Version: 6.00 Build 0)  -->
<!DOCTYPE svg PUBLIC "-//W3C//DTD SVG 1.1//EN" "http://www.w3.org/Graphics/SVG/1.1/DTD/svg11.dtd">
<svg version="1.1" id="Capa_1" xmlns="http://www.w3.org/2000/svg" xmlns:xlink="http://www.w3.org/1999/xlink" x="0px" y="0px"
	 viewBox="0 0 60 60" style="enable-background:new 0 0 60 60;" xml:space="preserve">
<path d="M45.973,22.5H31v-10h4c0.553,0,1-0.447,1-1v-3h4c0.553,0,1-0.447,1-1s-0.447-1-1-1h-5H25h-5c-0.553,0-1,0.447-1,1
	s0.447,1,1,1h4v3c0,0.553,0.447,1,1,1h4v10H14.027C6.293,22.5,0,28.793,0,36.527V45.5v7c0,0.553,0.447,1,1,1h58c0.553,0,1-0.447,1-1
	v-7v-8.973C60,28.793,53.707,22.5,45.973,22.5z M26,8.5h8v2h-8V8.5z M14.027,24.5H29v3H14c-0.553,0-1,0.447-1,1s0.447,1,1,1h6.586
	l-2.044,2.044l-3.014,0.326c-2.335,0.253-4.361,2.279-4.614,4.614c-0.131,1.206,0.229,2.302,1.015,3.087
	c0.68,0.68,1.593,1.041,2.608,1.041c0.157,0,0.317-0.009,0.479-0.026c2.335-0.253,4.361-2.279,4.614-4.614l0.326-3.014l3.458-3.458
	H29v2.647l-1.9,2.362c-1.473,1.83-1.473,4.696,0,6.526c0.76,0.944,1.79,1.465,2.9,1.465s2.141-0.521,2.9-1.465
	c1.473-1.83,1.473-4.696,0-6.526L31,32.147V29.5h6.586l3.458,3.458l0.326,3.014c0.253,2.335,2.279,4.361,4.614,4.614
	c0.162,0.018,0.321,0.026,0.479,0.026c1.016,0,1.929-0.361,2.608-1.041c0.785-0.785,1.146-1.881,1.015-3.087
	c-0.253-2.335-2.279-4.361-4.614-4.614l-3.014-0.326L40.414,29.5H47c0.553,0,1-0.447,1-1s-0.447-1-1-1H31v-3h14.973
	C52.604,24.5,58,29.896,58,36.527V44.5H2v-7.973C2,29.896,7.396,24.5,14.027,24.5z M30,34.095l1.342,1.668
	c0.877,1.089,0.877,2.93,0,4.019c-0.746,0.928-1.938,0.928-2.684,0c-0.877-1.089-0.877-2.93,0-4.019L30,34.095z M14.801,38.598
	c-0.589,0.066-1.109-0.092-1.458-0.44c-0.348-0.349-0.505-0.866-0.44-1.458c0.15-1.39,1.451-2.69,2.841-2.841l2.129-0.23
	l-0.23,2.129C17.491,37.146,16.19,38.447,14.801,38.598z M43.128,33.628l2.129,0.23c1.39,0.15,2.69,1.451,2.841,2.841
	c0.064,0.592-0.093,1.109-0.44,1.458c-0.349,0.348-0.871,0.506-1.458,0.44c-1.39-0.15-2.69-1.451-2.841-2.841L43.128,33.628z
	 M58,51.5H2v-5h56V51.5z"/>
<g>
</g>
<g>
</g>
<g>
</g>
<g>
</g>
<g>
</g>
<g>
</g>
<g>
</g>
<g>
</g>
<g>
</g>
<g>
</g>
<g>
</g>
<g>
</g>
<g>
</g>
<g>
</g>
<g>
</g>
</svg>
