<svg xmlns="http://www.w3.org/2000/svg" viewBox="0 0 60 60" style="enable-background:new 0 0 60 60" xml:space="preserve"><path d="M0 0v60h5v-2h50v2h5V0H0zm58 58h-1v-2H3v2H2V2h56v56z"/><path d="M31 8h-2a1 1 0 1 0 0 2h2a1 1 0 1 0 0-2zM11 8H9a1 1 0 1 0 0 2h2a1 1 0 1 0 0-2zM51 8h-2a1 1 0 1 0 0 2h2a1 1 0 1 0 0-2zM31 18h-2a1 1 0 1 0 0 2h2a1 1 0 1 0 0-2zM11 18H9a1 1 0 1 0 0 2h2a1 1 0 1 0 0-2zM49 20h2a1 1 0 1 0 0-2h-2a1 1 0 1 0 0 2zM31 28h-2a1 1 0 1 0 0 2h2a1 1 0 1 0 0-2zM11 28H9a1 1 0 1 0 0 2h2a1 1 0 1 0 0-2zM49 30h2a1 1 0 1 0 0-2h-2a1 1 0 1 0 0 2zM31 38h-2a1 1 0 1 0 0 2h2a1 1 0 1 0 0-2zM11 38H9a1 1 0 1 0 0 2h2a1 1 0 1 0 0-2zM49 40h2a1 1 0 1 0 0-2h-2a1 1 0 1 0 0 2z"/><path d="M17 55h40V3H3v52h14zm26-2H17v-8h26v8zM17 35h26v8H17v-8zm0-10h26v8H17v-8zm0-10h26v8H17v-8zm38 38H45v-8h10v8zm0-10H45v-8h10v8zm0-10H45v-8h10v8zm0-10H45v-8h10v8zM45 5h10v8H45V5zM17 5h26v8H17V5zM5 5h10v8H5V5zm0 10h10v8H5v-8zm0 10h10v8H5v-8zm0 10h10v8H5v-8zm0 18v-8h10v8H5z"/><path d="M29 50h2a1 1 0 1 0 0-2h-2a1 1 0 1 0 0 2zM11 48H9a1 1 0 1 0 0 2h2a1 1 0 1 0 0-2zM49 50h2a1 1 0 1 0 0-2h-2a1 1 0 1 0 0 2z"/></svg>