<svg xmlns="http://www.w3.org/2000/svg" viewBox="0 0 60 60" style="enable-background:new 0 0 60 60" xml:space="preserve"><path d="M57 45V3H31v52h26V45zM33 5h22v8H33V5zm0 10h22v8H33v-8zm0 10h22v8H33v-8zm0 10h22v8H33v-8zm22 18H33v-8h22v8z"/><path d="M46 28h-4a1 1 0 1 0 0 2h4a1 1 0 1 0 0-2zM46 18h-4a1 1 0 1 0 0 2h4a1 1 0 1 0 0-2zM46 8h-4a1 1 0 1 0 0 2h4a1 1 0 1 0 0-2zM46 38h-4a1 1 0 1 0 0 2h4a1 1 0 1 0 0-2zM42 50h4a1 1 0 1 0 0-2h-4a1 1 0 1 0 0 2z"/><path d="M0 0v60h5v-2h50v2h5V0H0zm58 58h-1v-2H3v2H2V2h56v56z"/><path d="M30 38V3H3v52h27V38zM5 5h23v15H5V5zm0 17h23v14H5V22zm23 31H5V38h23v15z"/></svg>