<?xml version="1.0" encoding="iso-8859-1"?>
<!-- Generator: Adobe Illustrator 18.0.0, SVG Export Plug-In . SVG Version: 6.00 Build 0)  -->
<!DOCTYPE svg PUBLIC "-//W3C//DTD SVG 1.1//EN" "http://www.w3.org/Graphics/SVG/1.1/DTD/svg11.dtd">
<svg version="1.1" id="Capa_1" xmlns="http://www.w3.org/2000/svg" xmlns:xlink="http://www.w3.org/1999/xlink" x="0px" y="0px"
	 viewBox="0 0 60 60" style="enable-background:new 0 0 60 60;" xml:space="preserve">
<g>
	<path d="M54,4.5H6v12h48V4.5z M52,14.5H30H8v-8h22h22V14.5z"/>
	<path d="M34,10.5c0-2.206-1.794-4-4-4s-4,1.794-4,4s1.794,4,4,4S34,12.706,34,10.5z M30,12.5c-1.103,0-2-0.897-2-2s0.897-2,2-2
		s2,0.897,2,2S31.103,12.5,30,12.5z"/>
	<path d="M54,22.5H6v12h48V22.5z M52,32.5H30H8v-8h22h22V32.5z"/>
	<path d="M34,28.5c0-2.206-1.794-4-4-4s-4,1.794-4,4s1.794,4,4,4S34,30.706,34,28.5z M30,30.5c-1.103,0-2-0.897-2-2s0.897-2,2-2
		s2,0.897,2,2S31.103,30.5,30,30.5z"/>
	<path d="M54,40.5H6v12h48V40.5z M52,50.5H30H8v-8h22h22V50.5z"/>
	<path d="M34,46.5c0-2.206-1.794-4-4-4s-4,1.794-4,4s1.794,4,4,4S34,48.706,34,46.5z M30,48.5c-1.103,0-2-0.897-2-2s0.897-2,2-2
		s2,0.897,2,2S31.103,48.5,30,48.5z"/>
	<path d="M59,0.5h-1H2H1c-0.553,0-1,0.447-1,1s0.447,1,1,1h1v16v2v16v2v18h3v3h6v-3h38v3h6v-3h3v-18v-2v-16v-2v-16h1
		c0.553,0,1-0.447,1-1S59.553,0.5,59,0.5z M9,57.5H7v-1h2V57.5z M53,57.5h-2v-1h2V57.5z M56,54.5h-1h-6H11H5H4v-16h52V54.5z
		 M56,36.5H4v-16h52V36.5z M56,18.5H4v-16h52V18.5z"/>
</g>
<g>
</g>
<g>
</g>
<g>
</g>
<g>
</g>
<g>
</g>
<g>
</g>
<g>
</g>
<g>
</g>
<g>
</g>
<g>
</g>
<g>
</g>
<g>
</g>
<g>
</g>
<g>
</g>
<g>
</g>
</svg>
