<svg xmlns="http://www.w3.org/2000/svg" viewBox="0 0 60 60" style="enable-background:new 0 0 60 60" xml:space="preserve"><path d="M27 47.5h6a1 1 0 1 0 0-2h-6a1 1 0 1 0 0 2zM27 31.5h6a1 1 0 1 0 0-2h-6a1 1 0 1 0 0 2z"/><path d="M52 5.5v-.911c.331-.434 2.115-1.089 3-1.089h1a1 1 0 1 0 0-2H40a1 1 0 1 0 0 2h1c.885 0 2.669.655 3 1.089V5.5H0v50h3v3h6v-3h42v3h6v-3h3v-50h-8zm-6.33-2h4.66a1.73 1.73 0 0 0-.33 1v1h-4v-1a1.73 1.73 0 0 0-.33-1zM7 56.5H5v-1h2v1zm48 0h-2v-1h2v1zm3-3H2v-14h56v14zm0-16H2v-14h56v14zm-56-16v-14h56v14H2z"/><path d="M33 13.5h-6a1 1 0 1 0 0 2h6a1 1 0 1 0 0-2z"/></svg>