<svg xmlns="http://www.w3.org/2000/svg" viewBox="0 0 60 60" style="enable-background:new 0 0 60 60" xml:space="preserve"><path d="M0 0v60h5v-2h50v2h5V0H0zm58 58h-1v-2H3v2H2V2h56v56z"/><path d="M57 45V3H3v52h54V45zM5 5h50v8H5V5zm0 10h50v8H5v-8zm0 10h50v8H5v-8zm0 10h50v8H5v-8zm50 18H5v-8h50v8z"/><path d="M32 28h-4a1 1 0 1 0 0 2h4a1 1 0 1 0 0-2zM32 18h-4a1 1 0 1 0 0 2h4a1 1 0 1 0 0-2zM32 8h-4a1 1 0 1 0 0 2h4a1 1 0 1 0 0-2zM32 38h-4a1 1 0 1 0 0 2h4a1 1 0 1 0 0-2zM28 50h4a1 1 0 1 0 0-2h-4a1 1 0 1 0 0 2z"/></svg>