<?xml version="1.0" encoding="iso-8859-1"?>
<!-- Generator: Adobe Illustrator 18.0.0, SVG Export Plug-In . SVG Version: 6.00 Build 0)  -->
<!DOCTYPE svg PUBLIC "-//W3C//DTD SVG 1.1//EN" "http://www.w3.org/Graphics/SVG/1.1/DTD/svg11.dtd">
<svg version="1.1" id="Capa_1" xmlns="http://www.w3.org/2000/svg" xmlns:xlink="http://www.w3.org/1999/xlink" x="0px" y="0px"
	 viewBox="0 0 60 60" style="enable-background:new 0 0 60 60;" xml:space="preserve">
<g>
	<path d="M27,47.5h6c0.553,0,1-0.447,1-1s-0.447-1-1-1h-6c-0.553,0-1,0.447-1,1S26.447,47.5,27,47.5z"/>
	<path d="M27,31.5h6c0.553,0,1-0.447,1-1s-0.447-1-1-1h-6c-0.553,0-1,0.447-1,1S26.447,31.5,27,31.5z"/>
	<path d="M52,5.5V4.589C52.331,4.155,54.115,3.5,55,3.5h1c0.553,0,1-0.447,1-1s-0.447-1-1-1h-1H41h-1c-0.553,0-1,0.447-1,1
		s0.447,1,1,1h1c0.885,0,2.669,0.655,3,1.089V5.5H0v16v2v14v2v16h3v3h6v-3h42v3h6v-3h3v-16v-2v-14v-2v-16H52z M45.67,3.5h4.66
		C50.123,3.798,50,4.131,50,4.5v1h-4v-1C46,4.131,45.877,3.798,45.67,3.5z M7,56.5H5v-1h2V56.5z M55,56.5h-2v-1h2V56.5z M58,53.5h-1
		h-6H9H3H2v-14h56V53.5z M58,37.5H2v-14h56V37.5z M2,21.5v-14h42h8h6v14H2z"/>
	<path d="M33,13.5h-6c-0.553,0-1,0.447-1,1s0.447,1,1,1h6c0.553,0,1-0.447,1-1S33.553,13.5,33,13.5z"/>
</g>
<g>
</g>
<g>
</g>
<g>
</g>
<g>
</g>
<g>
</g>
<g>
</g>
<g>
</g>
<g>
</g>
<g>
</g>
<g>
</g>
<g>
</g>
<g>
</g>
<g>
</g>
<g>
</g>
<g>
</g>
</svg>
