<svg xmlns="http://www.w3.org/2000/svg" viewBox="0 0 57 57" style="enable-background:new 0 0 57 57" xml:space="preserve"><path d="M38.124 3.008a1.001 1.001 0 0 0-1.116.868l-1 8a1 1 0 1 0 1.984.248l1-8a.999.999 0 0 0-.868-1.116zM41 3a1 1 0 0 0-1 1v8a1 1 0 1 0 2 0V4a1 1 0 0 0-1-1zM45.992 11.876l-1-8a.999.999 0 1 0-1.984.248l1 8a1 1 0 1 0 1.984-.248z"/><path d="M47.658 22a3.517 3.517 0 0 0 .24-2.35c-.323-1.333-1.492-2.349-2.897-2.594V16h6.237L47.809 0H34.191l-3.428 16H37v1.057c-1.406.245-2.574 1.261-2.897 2.594a3.511 3.511 0 0 0 .24 2.35H0v32h3v3h9v-3h33v3h9v-3h3V22h-9.342zm-14.421-8 2.572-12h10.383l2.572 12H33.237zm3.084 7.423a1.497 1.497 0 0 1-.275-1.302c.158-.649.835-1.121 1.61-1.121h.25c.603 0 1.094-.49 1.094-1.094V16h4v1.906c0 .604.491 1.094 1.094 1.094h.25c.775 0 1.452.472 1.61 1.121.113.47.016.932-.275 1.302A1.496 1.496 0 0 1 44.5 22h-7c-.46 0-.891-.211-1.179-.577zM10 55H5v-1h5v1zm42 0h-5v-1h5v1zm3-3H2v-8h53v8zm0-10H2v-8h53v8zM2 32v-8h53v8H2z"/><path d="M6 49h8a1 1 0 1 0 0-2H6a1 1 0 1 0 0 2zM43 49h8a1 1 0 1 0 0-2h-8a1 1 0 1 0 0 2zM6 39h8a1 1 0 1 0 0-2H6a1 1 0 1 0 0 2zM43 39h8a1 1 0 1 0 0-2h-8a1 1 0 1 0 0 2zM14 27H6a1 1 0 1 0 0 2h8a1 1 0 1 0 0-2zM51 27h-8a1 1 0 1 0 0 2h8a1 1 0 1 0 0-2z"/></svg>