<svg xmlns="http://www.w3.org/2000/svg" viewBox="0 0 60 60" style="enable-background:new 0 0 60 60" xml:space="preserve"><path d="M54 4.5H6v12h48v-12zm-2 10H8v-8h44v8z"/><path d="M34 10.5c0-2.206-1.794-4-4-4s-4 1.794-4 4 1.794 4 4 4 4-1.794 4-4zm-4 2c-1.103 0-2-.897-2-2s.897-2 2-2 2 .897 2 2-.897 2-2 2zM54 22.5H6v12h48v-12zm-2 10H8v-8h44v8z"/><path d="M34 28.5c0-2.206-1.794-4-4-4s-4 1.794-4 4 1.794 4 4 4 4-1.794 4-4zm-4 2c-1.103 0-2-.897-2-2s.897-2 2-2 2 .897 2 2-.897 2-2 2zM54 40.5H6v12h48v-12zm-2 10H8v-8h44v8z"/><path d="M34 46.5c0-2.206-1.794-4-4-4s-4 1.794-4 4 1.794 4 4 4 4-1.794 4-4zm-4 2c-1.103 0-2-.897-2-2s.897-2 2-2 2 .897 2 2-.897 2-2 2z"/><path d="M59 .5H1a1 1 0 1 0 0 2h1v54h3v3h6v-3h38v3h6v-3h3v-54h1a1 1 0 1 0 0-2zm-50 57H7v-1h2v1zm44 0h-2v-1h2v1zm3-3H4v-16h52v16zm0-18H4v-16h52v16zm0-18H4v-16h52v16z"/></svg>