<svg xmlns="http://www.w3.org/2000/svg" viewBox="0 0 60 60" style="enable-background:new 0 0 60 60" xml:space="preserve"><path d="M52.236 1 50.447.105c-.012-.006-.025-.008-.037-.013-.022-.01-.045-.015-.067-.023a.996.996 0 0 0-.303-.061C50.026.007 50.014 0 50 0h-3a1 1 0 0 0-1 1H14a1 1 0 0 0-1-1h-3c-.014 0-.026.007-.04.008a.996.996 0 0 0-.303.061c-.022.008-.045.014-.067.024-.012.005-.025.006-.037.012L7.764 1H0v59h5v-2.382l4.553 2.276c.009.004.019.002.028.007.128.06.268.099.419.099h3a1 1 0 0 0 1-1v-2h32v2a1 1 0 0 0 1 1h3a.982.982 0 0 0 .419-.099c.009-.004.019-.002.028-.007L55 57.618V60h5V1h-7.764zM46 3v1H14V3h32zm0 11H31V6h15v8zm0 10H31v-8h15v8zm0 10h-1.184c.112-.314.184-.648.184-1a2.98 2.98 0 0 0-.78-2c.48-.532.78-1.229.78-2 0-1.654-1.346-3-3-3h4v8zm-12-1c0-.552.449-1 1-1h7a1.001 1.001 0 0 1 0 2h-7c-.551 0-1-.448-1-1zm8-3h-7a1.001 1.001 0 0 1 0-2h7a1.001 1.001 0 0 1 0 2zm-10-1c0 .771.301 1.468.78 2a2.976 2.976 0 0 0-.78 2c0 .352.072.686.184 1H31v-8h4c-1.654 0-3 1.346-3 3zm-3-3v18h-1.184c.112-.314.184-.648.184-1 0-1.654-1.346-3-3-3h-7c-1.654 0-3 1.346-3 3 0 .352.072.686.184 1H14V21h2v2a1 1 0 1 0 2 0v-2h1v2a1 1 0 1 0 2 0v-2h1v2a1 1 0 1 0 2 0v-2h1v2a1 1 0 1 0 2 0v-2h2v5zM17 43c0-.552.449-1 1-1h7a1.001 1.001 0 0 1 0 2h-7c-.551 0-1-.448-1-1zm12-24h-2v-1a1 1 0 1 0-2 0v1h-1v-1a1 1 0 1 0-2 0v1h-1v-1a1 1 0 1 0-2 0v1h-1v-1a1 1 0 1 0-2 0v1h-2v-3h15v3zm0-5H14V6h15v8zM14 46h15v6H14v-6zm17 0h15v6H31v-6zm15-2H31v-8h15v8zM3 58H2V3h1.764l-.211.105h-.001L3 3.382V58zM5 4.618l4-2v54.764l-4-2V4.618zM12 58h-1V2h1v56zm2-3v-1h32v1H14zm34 2V2h1v56h-1v-1zm3 .382V2.618l4 2v50.764l-4 2zM58 58h-1V3.382l-.552-.276-.001-.001L56.236 3H58v55z"/><path d="M33 13h11a1 1 0 1 0 0-2H33a1 1 0 1 0 0 2z"/></svg>