<svg xmlns="http://www.w3.org/2000/svg" viewBox="0 0 60 60" style="enable-background:new 0 0 60 60" xml:space="preserve"><path d="M57 45V3H31v52h26V45zM33 5h22v8H33V5zm0 10h22v8H33v-8zm0 10h22v8H33v-8zm0 10h22v8H33v-8zm22 18H33v-8h22v8z"/><path d="M46 28h-4a1 1 0 1 0 0 2h4a1 1 0 1 0 0-2zM46 18h-4a1 1 0 1 0 0 2h4a1 1 0 1 0 0-2zM46 8h-4a1 1 0 1 0 0 2h4a1 1 0 1 0 0-2zM46 38h-4a1 1 0 1 0 0 2h4a1 1 0 1 0 0-2zM42 50h4a1 1 0 1 0 0-2h-4a1 1 0 1 0 0 2z"/><path d="M0 0v60h5v-2h50v2h5V0H0zm58 58h-1v-2H3v2H2V2h56v56z"/><path d="M30 3H3v52h27V3zm-2 16h-7v-1a1 1 0 1 0-2 0v1h-1v-1a1 1 0 1 0-2 0v1h-1v-1a1 1 0 1 0-2 0v1h-1v-1a1 1 0 1 0-2 0v1H5v-3h23v3zM5 21h5v2a1 1 0 1 0 2 0v-2h1v2a1 1 0 1 0 2 0v-2h1v2a1 1 0 1 0 2 0v-2h1v2a1 1 0 1 0 2 0v-2h7v24H5V21zM28 5v9H5V5h23zM5 53v-6h23v6H5z"/></svg>