<svg xmlns="http://www.w3.org/2000/svg" viewBox="0 0 60 60" style="enable-background:new 0 0 60 60" xml:space="preserve"><path d="M13 0H0v60h5v-3h50v3h5V0H13zm42 34H31V5h24v29zm0 6H5v-3.382l4.553 2.276.211.106H14v-3h41v4zm0 6H5v-4h50v4zM5 48h50v4H5v-4zm4-11.618-4-2V4.618l4-2v33.764zM14 12h2v2a1 1 0 1 0 2 0v-2h1v2a1 1 0 1 0 2 0v-2h1v2a1 1 0 1 0 2 0v-2h1v2a1 1 0 1 0 2 0v-2h2v15H14V12zm0 17h15v5H14v-5zm15-19h-2V9a1 1 0 1 0-2 0v1h-1V9a1 1 0 1 0-2 0v1h-1V9a1 1 0 1 0-2 0v1h-1V9a1 1 0 1 0-2 0v1h-2V5h15v5zM12 3v34h-1V2h1v1zm46 55h-1v-3H3v3H2V2h3.764L3.553 3.105C3.214 3.275 3 3.621 3 4v50h54V3H14V2h44v56z"/><path d="M34 23a1 1 0 0 0 1-1v-5a1 1 0 1 0-2 0v5a1 1 0 0 0 1 1zM27 38a1 1 0 0 0 1 1h4a1 1 0 1 0 0-2h-4a1 1 0 0 0-1 1zM28 45h4a1 1 0 1 0 0-2h-4a1 1 0 1 0 0 2zM32 49h-4a1 1 0 1 0 0 2h4a1 1 0 1 0 0-2z"/></svg>