<svg xmlns="http://www.w3.org/2000/svg" viewBox="0 0 60 60" style="enable-background:new 0 0 60 60" xml:space="preserve"><path d="M48.687 0H11.313A5.32 5.32 0 0 0 6 5.313V56h2v4h4.618l2-4h32.764l2 4H54V5.313A5.32 5.32 0 0 0 48.687 0zM11.382 58H10v-2h2.382l-1 2zM52 58h-1.382l-1-2H52v2zm-5.618-4H8V5.313A3.316 3.316 0 0 1 11.313 2h37.374A3.316 3.316 0 0 1 52 5.313V54h-5.618z"/><path d="M25 32a1 1 0 0 0 1-1v-5a1 1 0 1 0-2 0v5a1 1 0 0 0 1 1z"/><path d="M47.549 3H12.451A3.455 3.455 0 0 0 9 6.451V53h42V6.451A3.455 3.455 0 0 0 47.549 3zM29 51H11V6.451c0-.8.651-1.451 1.451-1.451H29v46zm20 0H31V5h16.549c.8 0 1.451.651 1.451 1.451V51z"/><path d="M35 25a1 1 0 0 0-1 1v5a1 1 0 1 0 2 0v-5a1 1 0 0 0-1-1z"/></svg>