<?xml version="1.0" encoding="iso-8859-1"?>
<!-- Generator: Adobe Illustrator 18.0.0, SVG Export Plug-In . SVG Version: 6.00 Build 0)  -->
<!DOCTYPE svg PUBLIC "-//W3C//DTD SVG 1.1//EN" "http://www.w3.org/Graphics/SVG/1.1/DTD/svg11.dtd">
<svg version="1.1" id="Capa_1" xmlns="http://www.w3.org/2000/svg" xmlns:xlink="http://www.w3.org/1999/xlink" x="0px" y="0px"
	 viewBox="0 0 60 60" style="enable-background:new 0 0 60 60;" xml:space="preserve">
<g>
	<path d="M52.236,1l-1.789-0.895c-0.012-0.006-0.025-0.008-0.037-0.013c-0.022-0.01-0.045-0.015-0.067-0.023
		c-0.099-0.036-0.2-0.057-0.303-0.061C50.026,0.007,50.014,0,50,0h-3c-0.552,0-1,0.447-1,1H14c0-0.553-0.448-1-1-1h-3
		C9.986,0,9.974,0.007,9.96,0.008C9.857,0.012,9.756,0.033,9.657,0.069C9.635,0.077,9.612,0.083,9.59,0.093
		C9.578,0.098,9.565,0.099,9.553,0.105L7.764,1H0v59h5v-2.382l4.553,2.276c0.009,0.004,0.019,0.002,0.028,0.007
		C9.709,59.961,9.849,60,10,60h3c0.552,0,1-0.447,1-1v-2h32v2c0,0.553,0.448,1,1,1h3c0.151,0,0.291-0.039,0.419-0.099
		c0.009-0.004,0.019-0.002,0.028-0.007L55,57.618V60h5V1H52.236z M46,3v1H31h-2H14V3H46z M46,14H31V6h15V14z M46,24H31v-8h15V24z
		 M46,34h-1.184C44.928,33.686,45,33.352,45,33c0-0.771-0.301-1.468-0.78-2c0.48-0.532,0.78-1.229,0.78-2c0-1.654-1.346-3-3-3h4V34z
		 M34,33c0-0.552,0.449-1,1-1h7c0.551,0,1,0.448,1,1s-0.449,1-1,1h-7C34.449,34,34,33.552,34,33z M42,30h-7c-0.551,0-1-0.448-1-1
		s0.449-1,1-1h7c0.551,0,1,0.448,1,1S42.551,30,42,30z M32,29c0,0.771,0.301,1.468,0.78,2c-0.48,0.532-0.78,1.229-0.78,2
		c0,0.352,0.072,0.686,0.184,1H31v-8h4C33.346,26,32,27.346,32,29z M29,26v8v2v8h-1.184C27.928,43.686,28,43.352,28,43
		c0-1.654-1.346-3-3-3h-7c-1.654,0-3,1.346-3,3c0,0.352,0.072,0.686,0.184,1H14V21h2v2c0,0.553,0.448,1,1,1s1-0.447,1-1v-2h1v2
		c0,0.553,0.448,1,1,1s1-0.447,1-1v-2h1v2c0,0.553,0.448,1,1,1s1-0.447,1-1v-2h1v2c0,0.553,0.448,1,1,1s1-0.447,1-1v-2h2v3V26z
		 M17,43c0-0.552,0.449-1,1-1h7c0.551,0,1,0.448,1,1s-0.449,1-1,1h-7C17.449,44,17,43.552,17,43z M29,19h-2v-1c0-0.553-0.448-1-1-1
		s-1,0.447-1,1v1h-1v-1c0-0.553-0.448-1-1-1s-1,0.447-1,1v1h-1v-1c0-0.553-0.448-1-1-1s-1,0.447-1,1v1h-1v-1c0-0.553-0.448-1-1-1
		s-1,0.447-1,1v1h-2v-3h15V19z M29,14H14V6h15V14z M14,46h4h7h4v6H14V46z M31,46h15v6H31V46z M46,44H31v-8h4h7h4V44z M3,58H2V3
		h1.764L3.553,3.105c0,0-0.001,0-0.001,0L3,3.382V4v52V58z M5,4.618l4-2v54.764l-4-2V4.618z M12,58h-1V2h1v2v50v3V58z M14,55v-1h15
		h2h15v1H14z M48,57v-3v-8V36v-2v-8v-2v-8v-2V4V2h1v56h-1V57z M51,57.382V2.618l4,2v50.764L51,57.382z M58,58h-1v-2V4V3.382
		l-0.552-0.276c0,0-0.001,0-0.001-0.001L56.236,3H58V58z"/>
	<path d="M33,13h11c0.552,0,1-0.447,1-1s-0.448-1-1-1H33c-0.552,0-1,0.447-1,1S32.448,13,33,13z"/>
</g>
<g>
</g>
<g>
</g>
<g>
</g>
<g>
</g>
<g>
</g>
<g>
</g>
<g>
</g>
<g>
</g>
<g>
</g>
<g>
</g>
<g>
</g>
<g>
</g>
<g>
</g>
<g>
</g>
<g>
</g>
</svg>
