<?xml version="1.0" encoding="iso-8859-1"?>
<!-- Generator: Adobe Illustrator 18.0.0, SVG Export Plug-In . SVG Version: 6.00 Build 0)  -->
<!DOCTYPE svg PUBLIC "-//W3C//DTD SVG 1.1//EN" "http://www.w3.org/Graphics/SVG/1.1/DTD/svg11.dtd">
<svg version="1.1" id="Capa_1" xmlns="http://www.w3.org/2000/svg" xmlns:xlink="http://www.w3.org/1999/xlink" x="0px" y="0px"
	 viewBox="0 0 60 60" style="enable-background:new 0 0 60 60;" xml:space="preserve">
<g>
	<path d="M13,0h-3H0v60h5v-3h50v3h5V0H13z M55,34H31v-7V5h24V34z M55,40H5v-3.382l4.553,2.276L9.764,39H10h3h1v-1v-2h15h2h24V40z
		 M55,46H5v-4h50V46z M5,48h50v4H5V48z M9,36.382l-4-2V4.618l4-2V36.382z M14,12h2v2c0,0.553,0.447,1,1,1s1-0.447,1-1v-2h1v2
		c0,0.553,0.447,1,1,1s1-0.447,1-1v-2h1v2c0,0.553,0.447,1,1,1s1-0.447,1-1v-2h1v2c0,0.553,0.447,1,1,1s1-0.447,1-1v-2h2v15H14V12z
		 M14,29h15v5H14V29z M29,10h-2V9c0-0.553-0.447-1-1-1s-1,0.447-1,1v1h-1V9c0-0.553-0.447-1-1-1s-1,0.447-1,1v1h-1V9
		c0-0.553-0.447-1-1-1s-1,0.447-1,1v1h-1V9c0-0.553-0.447-1-1-1s-1,0.447-1,1v1h-2V5h15V10z M12,3v24v7v2v1h-1V2h1V3z M58,58h-1v-3
		H3v3H2V2h3.764L3.553,3.105C3.214,3.275,3,3.621,3,4v29.382V35v5v2v4v2v6h54v-6v-2v-4v-2v-4v-2V3H31h-2H14V2h44V58z"/>
	<path d="M34,23c0.553,0,1-0.447,1-1v-5c0-0.553-0.447-1-1-1s-1,0.447-1,1v5C33,22.553,33.447,23,34,23z"/>
	<path d="M27,38c0,0.553,0.447,1,1,1h4c0.553,0,1-0.447,1-1s-0.447-1-1-1h-4C27.447,37,27,37.447,27,38z"/>
	<path d="M28,45h4c0.553,0,1-0.447,1-1s-0.447-1-1-1h-4c-0.553,0-1,0.447-1,1S27.447,45,28,45z"/>
	<path d="M32,49h-4c-0.553,0-1,0.447-1,1s0.447,1,1,1h4c0.553,0,1-0.447,1-1S32.553,49,32,49z"/>
</g>
<g>
</g>
<g>
</g>
<g>
</g>
<g>
</g>
<g>
</g>
<g>
</g>
<g>
</g>
<g>
</g>
<g>
</g>
<g>
</g>
<g>
</g>
<g>
</g>
<g>
</g>
<g>
</g>
<g>
</g>
</svg>
