<svg xmlns="http://www.w3.org/2000/svg" viewBox="0 0 60 60" style="enable-background:new 0 0 60 60" xml:space="preserve"><path d="M17.5 21h24V4h-24v17zm2-15h20v13h-20V6z"/><path d="M55.5 44a1 1 0 0 0 1-1V21.028c1.25-1.66 2-3.716 2-5.948V5.247A5.253 5.253 0 0 0 53.253 0H6.747A5.253 5.253 0 0 0 1.5 5.247v9.832c0 3.25 1.578 6.131 4 7.941v29.018c-2.235.198-4 2.059-4 4.345V60h57v-3.616A4.39 4.39 0 0 0 54.116 52H53.5V23.682c.348-.2.68-.422 1-.661V43a1 1 0 0 0 1 1zm-1.384 10a2.387 2.387 0 0 1 2.384 2.384V58h-53v-1.616A2.386 2.386 0 0 1 5.884 54h48.232zM22.5 48.479V41h14v7.479A3.526 3.526 0 0 1 32.979 52h-6.958a3.526 3.526 0 0 1-3.521-3.521zM51.5 52H37.228a5.497 5.497 0 0 0 1.272-3.521V39h-21c-2.757 0-5 2.243-5 5s2.243 5 5 5h3.026a5.495 5.495 0 0 0 1.246 3H7.5V24.191l.025.009c.236.101.479.187.724.27.069.023.135.053.204.075.295.093.597.17.904.235.02.004.039.011.058.015a9.898 9.898 0 0 0 2.006.205H21.5v7c0 2.206 1.794 4 4 4h1v1a1 1 0 1 0 2 0v-1h2v1a1 1 0 1 0 2 0v-1h1c1.858 0 3.411-1.28 3.858-3H44.5c1.654 0 3-1.346 3-3s-1.346-3-3-3h-7v-2h11.079a9.873 9.873 0 0 0 1.633-.147 9.842 9.842 0 0 0 1.289-.294V52zm-34-5c-1.654 0-3-1.346-3-3s1.346-3 3-3h3v6h-3zm16.307-16a.308.308 0 0 1-.307-.307v-1.387c0-.169.138-.307.307-.307H44.5a1.001 1.001 0 0 1 0 2H33.807zm1.693-4h-1.693a2.31 2.31 0 0 0-2.307 2.307v1.387a2.31 2.31 0 0 0 2.307 2.307h1.425a2 2 0 0 1-1.731 1h-8c-1.103 0-2-.897-2-2v-7h12V27zm16.852-4.958-.014.007c-.103.056-.213.102-.319.154a8.47 8.47 0 0 1-.739.313l-.108.04c-.23.081-.463.147-.698.206-.057.014-.112.031-.169.044-.221.05-.444.086-.668.116-.066.009-.13.023-.196.03-.284.03-.572.048-.862.048H11.421c-.349 0-.694-.031-1.036-.076-.088-.011-.175-.026-.262-.04a7.963 7.963 0 0 1-.894-.199c-.038-.011-.078-.018-.116-.03a7.857 7.857 0 0 1-.953-.365c-.074-.033-.146-.07-.218-.105a7.729 7.729 0 0 1-.812-.457c-2.18-1.413-3.63-3.863-3.63-6.649V5.247A3.251 3.251 0 0 1 6.747 2h46.506A3.251 3.251 0 0 1 56.5 5.247v9.832a7.928 7.928 0 0 1-4.148 6.963z"/><path d="M48.5 3c-2.757 0-5 2.243-5 5s2.243 5 5 5 5-2.243 5-5-2.243-5-5-5zm0 8c-1.654 0-3-1.346-3-3s1.346-3 3-3 3 1.346 3 3-1.346 3-3 3zM48.5 14c-2.206 0-4 1.794-4 4s1.794 4 4 4 4-1.794 4-4-1.794-4-4-4zm0 6c-1.103 0-2-.897-2-2s.897-2 2-2 2 .897 2 2-.897 2-2 2zM7.5 11h8V4h-8v7zm2-5h4v3h-4V6zM7.5 21h8v-7h-8v7zm2-5h4v3h-4v-3zM21.5 11a.997.997 0 0 0 .707-.293l2-2a.999.999 0 1 0-1.414-1.414l-2 2A.999.999 0 0 0 21.5 11zM27.793 7.293l-7 7a.999.999 0 1 0 1.414 1.414l7-7a.999.999 0 1 0-1.414-1.414z"/></svg>