<svg xmlns="http://www.w3.org/2000/svg" viewBox="0 0 60 60" style="enable-background:new 0 0 60 60" xml:space="preserve"><path d="M44.709 0H15.291C11.271 0 8 3.271 8 7.291V60h44V7.291C52 3.271 48.729 0 44.709 0zM10 7.291A5.298 5.298 0 0 1 15.291 2h29.418A5.298 5.298 0 0 1 50 7.291V14H10V7.291zM50 58H10v-6h40v6zm0-8H10V16h40v34z"/><path d="M48 48V29H12v19h36zm-34-5V31a1 1 0 0 0 2 0h4a1 1 0 0 0 2 0h4a1 1 0 0 0 2 0h4a1 1 0 0 0 2 0h4a1 1 0 0 0 2 0h4a1 1 0 0 0 2 0v15h-3a1 1 0 0 0-2 0h-4a1 1 0 0 0-2 0h-4a1 1 0 0 0-2 0h-4a1 1 0 0 0-2 0h-4a1 1 0 0 0-2 0h-3v-3zM18 27h24c1.654 0 3-1.346 3-3s-1.346-3-3-3H18c-1.654 0-3 1.346-3 3s1.346 3 3 3zm0-4h24a1.001 1.001 0 0 1 0 2H18a1.001 1.001 0 0 1 0-2zM16 5c-2.206 0-4 1.794-4 4s1.794 4 4 4 4-1.794 4-4-1.794-4-4-4zm0 6c-1.103 0-2-.897-2-2s.897-2 2-2 2 .897 2 2-.897 2-2 2zM44 5c-2.206 0-4 1.794-4 4s1.794 4 4 4 4-1.794 4-4-1.794-4-4-4zm0 6c-1.103 0-2-.897-2-2s.897-2 2-2 2 .897 2 2-.897 2-2 2zM22 12h16V4H22v8zm2-6h12v4H24V6z"/><circle cx="15" cy="37" r="1"/><circle cx="21" cy="37" r="1"/><circle cx="18" cy="34" r="1"/><circle cx="24" cy="34" r="1"/><circle cx="18" cy="40" r="1"/><circle cx="24" cy="40" r="1"/><circle cx="27" cy="37" r="1"/><circle cx="33" cy="37" r="1"/><circle cx="30" cy="34" r="1"/><circle cx="36" cy="34" r="1"/><circle cx="30" cy="40" r="1"/><circle cx="36" cy="40" r="1"/><circle cx="39" cy="37" r="1"/><circle cx="45" cy="37" r="1"/><circle cx="42" cy="34" r="1"/><circle cx="42" cy="40" r="1"/><circle cx="15" cy="43" r="1"/><circle cx="21" cy="43" r="1"/><circle cx="27" cy="43" r="1"/><circle cx="33" cy="43" r="1"/><circle cx="39" cy="43" r="1"/><circle cx="45" cy="43" r="1"/></svg>