<?xml version="1.0" encoding="iso-8859-1"?>
<!-- Generator: Adobe Illustrator 18.0.0, SVG Export Plug-In . SVG Version: 6.00 Build 0)  -->
<!DOCTYPE svg PUBLIC "-//W3C//DTD SVG 1.1//EN" "http://www.w3.org/Graphics/SVG/1.1/DTD/svg11.dtd">
<svg version="1.1" id="Capa_1" xmlns="http://www.w3.org/2000/svg" xmlns:xlink="http://www.w3.org/1999/xlink" x="0px" y="0px"
	 viewBox="0 0 60 60" style="enable-background:new 0 0 60 60;" xml:space="preserve">
<g>
	<path d="M44.709,0H15.291C11.271,0,8,3.271,8,7.291V16v34v10h44V50V16V7.291C52,3.271,48.729,0,44.709,0z M10,7.291
		C10,4.374,12.374,2,15.291,2h29.418C47.626,2,50,4.374,50,7.291V14H10V7.291z M50,58H10v-6h40V58z M50,50H10V16h40V50z"/>
	<path d="M48,48V29H12v19H48z M14,43v-6v-6c0,0.552,0.448,1,1,1s1-0.448,1-1h4c0,0.552,0.448,1,1,1s1-0.448,1-1h4
		c0,0.552,0.448,1,1,1s1-0.448,1-1h4c0,0.552,0.448,1,1,1s1-0.448,1-1h4c0,0.552,0.448,1,1,1s1-0.448,1-1h4c0,0.552,0.448,1,1,1
		s1-0.448,1-1v6v6v3h-3c0-0.552-0.448-1-1-1s-1,0.448-1,1h-4c0-0.552-0.448-1-1-1s-1,0.448-1,1h-4c0-0.552-0.448-1-1-1s-1,0.448-1,1
		h-4c0-0.552-0.448-1-1-1s-1,0.448-1,1h-4c0-0.552-0.448-1-1-1s-1,0.448-1,1h-3V43z"/>
	<path d="M18,27h24c1.654,0,3-1.346,3-3s-1.346-3-3-3H18c-1.654,0-3,1.346-3,3S16.346,27,18,27z M18,23h24c0.551,0,1,0.448,1,1
		s-0.449,1-1,1H18c-0.551,0-1-0.448-1-1S17.449,23,18,23z"/>
	<path d="M16,5c-2.206,0-4,1.794-4,4s1.794,4,4,4s4-1.794,4-4S18.206,5,16,5z M16,11c-1.103,0-2-0.897-2-2s0.897-2,2-2s2,0.897,2,2
		S17.103,11,16,11z"/>
	<path d="M44,5c-2.206,0-4,1.794-4,4s1.794,4,4,4s4-1.794,4-4S46.206,5,44,5z M44,11c-1.103,0-2-0.897-2-2s0.897-2,2-2s2,0.897,2,2
		S45.103,11,44,11z"/>
	<path d="M22,12h16V4H22V12z M24,6h12v4H24V6z"/>
	<circle cx="15" cy="37" r="1"/>
	<circle cx="21" cy="37" r="1"/>
	<circle cx="18" cy="34" r="1"/>
	<circle cx="24" cy="34" r="1"/>
	<circle cx="18" cy="40" r="1"/>
	<circle cx="24" cy="40" r="1"/>
	<circle cx="27" cy="37" r="1"/>
	<circle cx="33" cy="37" r="1"/>
	<circle cx="30" cy="34" r="1"/>
	<circle cx="36" cy="34" r="1"/>
	<circle cx="30" cy="40" r="1"/>
	<circle cx="36" cy="40" r="1"/>
	<circle cx="39" cy="37" r="1"/>
	<circle cx="45" cy="37" r="1"/>
	<circle cx="42" cy="34" r="1"/>
	<circle cx="42" cy="40" r="1"/>
	<circle cx="15" cy="43" r="1"/>
	<circle cx="21" cy="43" r="1"/>
	<circle cx="27" cy="43" r="1"/>
	<circle cx="33" cy="43" r="1"/>
	<circle cx="39" cy="43" r="1"/>
	<circle cx="45" cy="43" r="1"/>
</g>
<g>
</g>
<g>
</g>
<g>
</g>
<g>
</g>
<g>
</g>
<g>
</g>
<g>
</g>
<g>
</g>
<g>
</g>
<g>
</g>
<g>
</g>
<g>
</g>
<g>
</g>
<g>
</g>
<g>
</g>
</svg>
