<svg xmlns="http://www.w3.org/2000/svg" viewBox="0 0 60 60" style="enable-background:new 0 0 60 60" xml:space="preserve"><path d="M51 21C51 9.421 41.579 0 30 0S9 9.421 9 21c0 10.558 7.841 19.297 18 20.76V44h-1a1 1 0 0 0-1 1v6a1 1 0 0 0 1 1h1v3h-5a1 1 0 0 0-1 1v2h-2a1 1 0 1 0 0 2h22a1 1 0 1 0 0-2h-2v-2a1 1 0 0 0-1-1h-5v-3h1a1 1 0 0 0 1-1v-6a1 1 0 0 0-1-1h-1v-2.24C43.159 40.297 51 31.558 51 21zm-40 0c0-10.477 8.523-19 19-19s19 8.523 19 19-8.523 19-19 19-19-8.523-19-19zm26 37H23v-1h14v1zm-6-3h-2v-3h2v3zm2-5h-6v-4h6v4zm-2-8v2h-2v-2h2z"/><path d="M23.594 27.619c.867-.119 1.821-.249 2.609-.748a6.95 6.95 0 0 0 3.106 1.093c.196 4.401 1.434 7.415 3.627 8.711.638.376 1.509.696 2.642.696 1.136 0 2.534-.322 4.222-1.23 5.135-3.332 8.2-8.966 8.201-15.072a1 1 0 0 0-1.76-.649c-2.99 3.501-4.596 4.223-5.354 4.208-.663-.011-1.159-.57-1.898-1.491-.551-.687-1.159-1.442-2-1.858.001-.093.011-.185.011-.279a6.95 6.95 0 0 0-.704-3.039c3.594-2.413 5.499-4.999 5.48-7.518-.012-1.475-.693-3.633-3.879-5.543-.024-.015-.049-.027-.073-.04-4.132-2.03-8.816-2.414-13.194-1.074a18.051 18.051 0 0 0-3.979 1.785 1.001 1.001 0 0 0 .348 1.845c4.534.761 5.96 1.736 6.357 2.422.332.573.108 1.287-.3 2.394-.31.839-.647 1.764-.556 2.716a7.043 7.043 0 0 0-2.098 1.868c-3.855-2.079-7.062-2.564-9.294-1.358-1.303.705-2.894 2.327-3.079 6.143a17.928 17.928 0 0 0 8.692 14.805 1 1 0 0 0 1.465-1.174c-1.459-4.362-1.266-6.079-.848-6.752.351-.565 1.086-.703 2.256-.861zm17.26-.992.052.001c1.386 0 2.93-.861 4.845-2.735a15.866 15.866 0 0 1-6.968 10.529c-1.369.735-3.316 1.426-4.83.531-1.559-.92-2.491-3.396-2.658-7.016a7.011 7.011 0 0 0 2.325-.882 6.978 6.978 0 0 0 2.977-3.619c.276.261.55.602.831.952.79.987 1.774 2.214 3.426 2.239zm-12.31-12.496c.081-.372.232-.783.389-1.207.438-1.186.982-2.661.153-4.09-.702-1.211-2.243-2.104-4.872-2.79.333-.128.667-.243 1-.346a15.93 15.93 0 0 1 11.69.938c1.312.793 2.858 2.094 2.872 3.822.014 1.796-1.605 3.855-4.582 5.851-.047-.052-.099-.097-.147-.147a7.197 7.197 0 0 0-.463-.44 7.317 7.317 0 0 0-1.026-.74 6.894 6.894 0 0 0-.516-.277l-.057-.028a7.101 7.101 0 0 0-.589-.247l-.026-.01a6.997 6.997 0 0 0-.627-.193l-.027-.007a7.092 7.092 0 0 0-.636-.13l-.047-.007a7.118 7.118 0 0 0-.642-.065l-.022-.002a7.2 7.2 0 0 0-.279-.015h-.031c-.02.002-.039-.001-.059-.001-.049 0-.097.006-.146.007-.44 0-.884.043-1.31.124zm1.316 1.883c.05-.001.091-.012.142-.012h.017c.296.001.583.037.865.087.108.02.213.047.319.073.189.047.374.104.554.173a4.79 4.79 0 0 1 .897.444c.071.044.143.088.212.135.218.154.425.323.616.508.038.036.073.075.11.113A4.984 4.984 0 0 1 35 21c0 2.757-2.243 5-5 5a4.976 4.976 0 0 1-3.487-1.428c-.021-.021-.044-.039-.065-.061a5.184 5.184 0 0 1-1.022-1.508c-.019-.043-.039-.094-.058-.142a4.95 4.95 0 0 1-.253-.813c-.008-.04-.014-.083-.021-.123A4.951 4.951 0 0 1 25 21c0-.306.037-.602.09-.893.012-.066.023-.133.038-.199.063-.281.146-.555.254-.817.015-.037.035-.072.051-.108a4.996 4.996 0 0 1 4.427-2.969zM19.641 27.422c-.738 1.187-.805 2.961-.18 5.596a15.862 15.862 0 0 1-5.434-11.401c.076-1.547.491-3.566 2.032-4.399.519-.28 1.144-.419 1.861-.419 1.488 0 3.374.596 5.526 1.758l-.005.012c-.008.021-.013.042-.02.063a6.586 6.586 0 0 0-.151.463l-.008.025a5.984 5.984 0 0 0-.065.255l-.007.033a6.895 6.895 0 0 0-.093.48c-.007.043-.014.077-.021.125l-.024.169v.007A6.764 6.764 0 0 0 23 21c0 .257.016.51.043.76.007.063.016.126.034.234.005.032.012.063.016.094.021.132.04.265.068.394l.002.014c.016.069.033.138.066.261.006.022.013.042.018.064.033.121.065.242.104.361l.006.022c.026.082.057.161.098.27l.026.064c.04.103.081.205.126.306l.025.061.114.236c.01.021.023.041.033.061.048.094.099.185.152.276l.042.078.127.208.033.047c.062.096.129.188.196.28.029.04.049.072.081.116l.104.139.055.067c-.366.104-.801.163-1.249.224-1.249.171-2.807.383-3.679 1.785z"/></svg>