<svg xmlns="http://www.w3.org/2000/svg" viewBox="0 0 60 60" style="enable-background:new 0 0 60 60" xml:space="preserve"><path d="M60 26c0-1.474-.81-2.75-2-3.444v-2.634C58 15.002 53.998 11 49.078 11h-14.25A7.764 7.764 0 0 0 30 12.665 7.764 7.764 0 0 0 25.172 11h-14.25C6.002 11 2 15.002 2 19.922v2.634C.81 23.25 0 24.526 0 26v20h1v3h6v-3h46v3h6v-3h1V26zM8 30h17.172a5.79 5.79 0 0 1 4.12 1.706l.001.001.707.708.706-.707.001-.001a5.79 5.79 0 0 1 4.12-1.706H52v3H8V30zm46 5v-8.7c0-.915.482-1.742 1.229-2.108.203-.1.401-.153.602-.174.043-.004.085-.012.13-.013.07-.002.141.006.212.014.046.004.092.007.138.014a2.3 2.3 0 0 1 .354.094l.158.056A1.997 1.997 0 0 1 58 26v18h-4v-9zm-4.922-22A6.93 6.93 0 0 1 56 19.922V22c-2.206 0-4 1.794-4 4v2H34.828A7.77 7.77 0 0 0 31 29.005V14.441A5.786 5.786 0 0 1 34.828 13h14.25zM4 19.922A6.93 6.93 0 0 1 10.922 13h14.25c1.424 0 2.767.513 3.828 1.441v14.563A7.78 7.78 0 0 0 25.172 28H8v-2c0-2.206-1.794-4-4-4v-2.078zM2 26a2 2 0 0 1 1.177-1.818l.158-.056c.122-.044.239-.073.353-.094.046-.007.092-.01.139-.014.071-.007.142-.015.212-.014.044.001.086.009.129.013.201.022.4.075.603.174C5.518 24.558 6 25.385 6 26.3V44H2V26zm3 21H3v-1h2v1zm47-3H8v-9h44v9zm5 3h-2v-1h2v1z"/><path d="M14.293 22.707a.997.997 0 0 0 1.414 0L17 21.414l1.293 1.293a.997.997 0 0 0 1.414 0 .999.999 0 0 0 0-1.414L18.414 20l1.293-1.293a.999.999 0 1 0-1.414-1.414L17 18.586l-1.293-1.293a.999.999 0 1 0-1.414 1.414L15.586 20l-1.293 1.293a.999.999 0 0 0 0 1.414zM40.293 22.707a.997.997 0 0 0 1.414 0L43 21.414l1.293 1.293a.997.997 0 0 0 1.414 0 .999.999 0 0 0 0-1.414L44.414 20l1.293-1.293a.999.999 0 1 0-1.414-1.414L43 18.586l-1.293-1.293a.999.999 0 1 0-1.414 1.414L41.586 20l-1.293 1.293a.999.999 0 0 0 0 1.414z"/></svg>