<svg xmlns="http://www.w3.org/2000/svg" viewBox="0 0 60 60" style="enable-background:new 0 0 60 60" xml:space="preserve"><path d="M60 35.568c0-.426-.114-.821-.298-1.175a7.347 7.347 0 0 0-2.576-3.784c.651-.835.973-2.003.848-3.23-.143-1.391-.85-2.53-1.893-3.048a3.198 3.198 0 0 0-.712-.243c-2.36-3.726-6.457-6.04-10.838-6.086-2.093-4.744-7.785-8-14.136-8-6.35 0-12.043 3.257-14.137 8-4.345.047-8.411 2.322-10.779 5.993-.172.003-.346.004-.511.021a3.151 3.151 0 0 0-1.051.316c-1.043.518-1.75 1.657-1.893 3.048-.125 1.227.197 2.395.848 3.23a7.357 7.357 0 0 0-2.576 3.784A2.55 2.55 0 0 0 0 35.568c0 3.608 2.585 6.621 6 7.291V46a1 1 0 0 0 1 1h1v3h4.535l2-3h31.93l2 3H53v-3a1 1 0 0 0 1-1v-3.142c3.415-.669 6-3.682 6-7.29zM52.567 35H7.433c-1.496 0-2.892-.6-3.931-1.69a1 1 0 0 0-.322-.226c.383-.478.85-.893 1.382-1.223 1.02.497 2.579 1.071 4.221 1.499l.024.006c.198.052.397.1.597.147l.175.041a23.065 23.065 0 0 0 1.446.274c.173.026.344.049.514.07l.157.018c.187.02.371.036.552.049l.091.005c.197.012.39.018.578.018h.015l.016-.001c.255 0 .499-.012.732-.035l.036-.003c.238-.025.465-.06.675-.111l.007-.001c.204-.05.397-.11.569-.188.003-.001.005-.004.009-.005a2.034 2.034 0 0 0 .852-.645h28.346a2.034 2.034 0 0 0 .853.646l.008.005c.353.16.784.253 1.26.302l.01.001a8.73 8.73 0 0 0 1.399.016l.013-.001c.208-.013.419-.032.635-.056l.06-.007c.203-.024.408-.051.616-.083l.1-.016c.203-.033.407-.068.612-.108l.093-.018c.216-.043.432-.089.648-.138l.028-.006c1.895-.436 3.764-1.105 4.93-1.674.532.33.999.745 1.382 1.223a1 1 0 0 0-.322.226A5.392 5.392 0 0 1 52.567 35zm2.759-5.383a3.955 3.955 0 0 1-.331.224c-.012.006-.026.009-.038.016-1.286.736-3.355 1.403-5.211 1.8l-.161.034a29.384 29.384 0 0 1-.793.149 16.376 16.376 0 0 1-.935.132c-.125.014-.245.024-.363.034a8.07 8.07 0 0 1-.252.018c-.09.005-.172.006-.256.008-.095.002-.192.005-.279.002-.05-.001-.092-.006-.139-.008-.103-.006-.206-.012-.293-.026l-.027-.006c-.221-.037-.386-.099-.474-.191-.001-.006-.005-.01-.006-.016-.002-.042.004-.179.137-.461.863-1.836 3.387-3.773 5.773-4.732h.001c.189-.076.377-.143.564-.206.068-.023.135-.044.202-.065a8.45 8.45 0 0 1 .923-.232 6.115 6.115 0 0 1 .913-.1c.122-.002.243-.004.358.004.057.003.116.003.172.008.12.014.249.054.383.121.417.207.721.766.791 1.459.085.84-.179 1.659-.659 2.034zM16.396 20c1.654 0 3 1.346 3 3a1 1 0 1 0 2 0 5.003 5.003 0 0 0-3.097-4.619C20.227 14.58 25.024 12 30.396 12s10.169 2.58 12.096 6.381A5.003 5.003 0 0 0 39.396 23a1 1 0 1 0 2 0c0-1.654 1.346-3 3-3 3.328 0 6.478 1.548 8.556 4.128-2.748.525-5.903 2.422-7.752 4.66a8.558 8.558 0 0 0-.404.521 8.077 8.077 0 0 0-.22.325c-.053.081-.108.161-.157.243a6.714 6.714 0 0 0-.323.598 3.92 3.92 0 0 0-.203.525H16.108a4.043 4.043 0 0 0-.195-.505c-.003-.007-.004-.013-.008-.02a6.365 6.365 0 0 0-.308-.57c-.054-.092-.114-.182-.173-.273a6.953 6.953 0 0 0-.165-.243c-1.301-1.858-3.565-3.552-5.893-4.53-.167-.071-.334-.14-.501-.204l-.13-.047a11.983 11.983 0 0 0-1.017-.328C9.793 21.609 13.002 20 16.396 20zm-12.38 7.581c.07-.693.374-1.252.791-1.459a1.25 1.25 0 0 1 .448-.127c.125-.013.255-.019.388-.019.101 0 .208.011.312.018l.007.001c.359.024.737.088 1.127.184l.005.001c.185.046.372.101.56.161l.06.019c.172.056.345.119.519.186l.113.045a11.103 11.103 0 0 1 .624.271c.156.073.311.149.466.229l.144.076a15.164 15.164 0 0 1 .589.332c.16.095.319.193.475.295l.091.06a12.787 12.787 0 0 1 1.059.775c.166.135.327.272.482.411l.013.012a10.91 10.91 0 0 1 .473.454c.138.141.271.284.395.427.018.021.033.042.051.062.111.131.218.262.316.394.041.056.076.112.115.168.069.099.139.197.2.296.096.157.182.314.256.471.123.263.136.399.135.451-.087.086-.24.147-.44.187-.022.004-.04.011-.064.015-.08.013-.175.02-.268.027-.057.004-.11.01-.172.012-.078.003-.166.001-.251 0a5.95 5.95 0 0 1-.511-.023c-.13-.01-.263-.021-.403-.036l-.201-.023a17.53 17.53 0 0 1-1.095-.17c-.134-.025-.268-.05-.405-.078l-.176-.037c-1.856-.394-3.919-1.06-5.202-1.794-.012-.007-.026-.009-.038-.016a3.797 3.797 0 0 1-.331-.224c-.479-.373-.743-1.192-.657-2.034zM11.465 48H10v-1h2.132l-.667 1zm4.403-3H8v-2h44v2H15.868zM51 48h-1.465l-.667-1H51v1zm1.567-7H7.433A5.439 5.439 0 0 1 2 35.568c0-.106.034-.202.085-.287a.576.576 0 0 1 .311-.254c.103.095.213.181.32.27.072.06.14.124.214.181.024.018.049.033.073.051A7.345 7.345 0 0 0 7.433 37h45.135a7.344 7.344 0 0 0 4.415-1.461c.029-.021.059-.039.087-.061.074-.057.142-.121.214-.181.107-.089.217-.174.32-.27.127.042.237.13.311.254a.555.555 0 0 1 .085.287A5.44 5.44 0 0 1 52.567 41z"/></svg>