<svg xmlns="http://www.w3.org/2000/svg" viewBox="0 0 60 60" style="enable-background:new 0 0 60 60" xml:space="preserve"><path d="M60 26c0-1.474-.81-2.75-2-3.444V16.71A5.717 5.717 0 0 0 52.289 11H7.711A5.717 5.717 0 0 0 2 16.71v5.846C.81 23.25 0 24.526 0 26v20h1v3h6v-3h46v3h6v-3h1V26zM8 33v-3h44v3H8zm46 2v-9c0-1.103.897-2 2-2a1.971 1.971 0 0 1 .666.126l.157.056A2 2 0 0 1 58 26v18h-4v-9zM4 16.71A3.715 3.715 0 0 1 7.711 13h44.578A3.715 3.715 0 0 1 56 16.71V22c-2.206 0-4 1.794-4 4v2H8v-2c0-2.206-1.794-4-4-4v-5.29zM2 26a2 2 0 0 1 1.177-1.818l.157-.056A1.971 1.971 0 0 1 4 24c1.103 0 2 .897 2 2v18H2V26zm3 21H3v-1h2v1zm42-3a1 1 0 0 0-2 0h-4a1 1 0 0 0-2 0h-4a1 1 0 0 0-2 0h-4a1 1 0 0 0-2 0h-4a1 1 0 0 0-2 0h-4a1 1 0 0 0-2 0h-4a1 1 0 0 0-2 0H8v-9h4a1 1 0 0 0 2 0h4a1 1 0 0 0 2 0h4a1 1 0 0 0 2 0h4a1 1 0 0 0 2 0h4a1 1 0 0 0 2 0h4a1 1 0 0 0 2 0h4a1 1 0 0 0 2 0h2v2a1 1 0 0 0 0 2v4a1 1 0 0 0-1 1h-4zm10 3h-2v-1h2v1z"/><circle cx="10" cy="38" r="1"/><circle cx="13" cy="41" r="1"/><circle cx="19" cy="41" r="1"/><circle cx="16" cy="38" r="1"/><circle cx="22" cy="38" r="1"/><circle cx="25" cy="41" r="1"/><circle cx="31" cy="41" r="1"/><circle cx="28" cy="38" r="1"/><circle cx="34" cy="38" r="1"/><circle cx="37" cy="41" r="1"/><circle cx="43" cy="41" r="1"/><circle cx="40" cy="38" r="1"/><circle cx="46" cy="38" r="1"/><circle cx="49" cy="41" r="1"/><circle cx="12" cy="19" r="1"/><circle cx="18" cy="19" r="1"/><circle cx="24" cy="19" r="1"/><circle cx="30" cy="19" r="1"/><circle cx="36" cy="19" r="1"/><circle cx="42" cy="19" r="1"/><circle cx="48" cy="19" r="1"/><circle cx="15" cy="23" r="1"/><circle cx="21" cy="23" r="1"/><circle cx="27" cy="23" r="1"/><circle cx="33" cy="23" r="1"/><circle cx="39" cy="23" r="1"/><circle cx="45" cy="23" r="1"/></svg>