<svg xmlns="http://www.w3.org/2000/svg" viewBox="0 0 60 60" style="enable-background:new 0 0 60 60" xml:space="preserve"><path d="M55 21.09v-5.018A4.077 4.077 0 0 0 50.928 12H9.072A4.077 4.077 0 0 0 5 16.072v5.018c-2.833.479-5 2.943-5 5.91a6.01 6.01 0 0 0 5 5.917V48h7v-2h36v2h7V32.917A6.01 6.01 0 0 0 60 27c0-2.967-2.167-5.431-5-5.91zM7 20v-3.928c0-.478.169-.913.442-1.264A.975.975 0 0 0 8 15c.55 0 .994-.444.998-.993.025 0 .049-.007.074-.007H13a1 1 0 0 0 2 0h4a1 1 0 0 0 2 0h4a1 1 0 0 0 2 0h4a1 1 0 0 0 2 0h4a1 1 0 0 0 2 0h4a1 1 0 0 0 2 0h4a1 1 0 0 0 1.999.007 2.066 2.066 0 0 1 1.994 1.994A1 1 0 0 0 53 18v3.083c-.022.004-.041.013-.063.016a5.826 5.826 0 0 0-.895.235c-.05.017-.098.036-.147.054a6.057 6.057 0 0 0-.833.386c-.035.02-.069.042-.104.063a6.056 6.056 0 0 0-.782.543l-.013.011a6.015 6.015 0 0 0-.677.668c-.022.025-.046.049-.068.075a6.039 6.039 0 0 0-.533.745l-.079.13a5.843 5.843 0 0 0-.392.817l-.054.147c-.105.291-.191.59-.25.9-.008.039-.011.08-.018.119A5.988 5.988 0 0 0 48 27v3H12v-3c0-.344-.036-.679-.091-1.007l-.018-.12a5.883 5.883 0 0 0-.25-.899c-.018-.05-.035-.099-.055-.149a6.135 6.135 0 0 0-.392-.817c-.008-.014-.013-.03-.021-.044A.984.984 0 0 0 12 23a1 1 0 0 0-1.922-.388c-.08-.074-.158-.15-.242-.22l-.013-.011a5.984 5.984 0 0 0-.781-.544c-.035-.021-.069-.043-.104-.063a5.833 5.833 0 0 0-.833-.385l-.147-.054a6.065 6.065 0 0 0-.895-.235c-.022-.004-.041-.013-.063-.017V20zm41 15H12v-3h36v3zM7 46V27a1 1 0 0 0-2 0v3.858c-1.72-.447-3-2-3-3.858 0-2.206 1.794-4 4-4s4 1.794 4 4v19H7zm5-2v-7h36v7H12zm43-13.142V27a1 1 0 0 0-2 0v19h-3V27c0-2.206 1.794-4 4-4s4 1.794 4 4c0 1.858-1.28 3.411-3 3.858z"/><circle cx="11" cy="17" r="1"/><circle cx="17" cy="17" r="1"/><circle cx="23" cy="17" r="1"/><circle cx="29" cy="17" r="1"/><circle cx="35" cy="17" r="1"/><circle cx="41" cy="17" r="1"/><circle cx="47" cy="17" r="1"/><circle cx="8" cy="20" r="1"/><circle cx="14" cy="20" r="1"/><circle cx="20" cy="20" r="1"/><circle cx="14" cy="26" r="1"/><circle cx="20" cy="26" r="1"/><circle cx="17" cy="23" r="1"/><circle cx="23" cy="23" r="1"/><circle cx="17" cy="29" r="1"/><circle cx="23" cy="29" r="1"/><circle cx="26" cy="20" r="1"/><circle cx="32" cy="20" r="1"/><circle cx="26" cy="26" r="1"/><circle cx="32" cy="26" r="1"/><circle cx="29" cy="23" r="1"/><circle cx="35" cy="23" r="1"/><circle cx="29" cy="29" r="1"/><circle cx="35" cy="29" r="1"/><circle cx="38" cy="20" r="1"/><circle cx="44" cy="20" r="1"/><circle cx="38" cy="26" r="1"/><circle cx="44" cy="26" r="1"/><circle cx="41" cy="23" r="1"/><circle cx="47" cy="23" r="1"/><circle cx="41" cy="29" r="1"/><circle cx="47" cy="29" r="1"/><circle cx="50" cy="20" r="1"/></svg>