<?xml version="1.0" encoding="iso-8859-1"?>
<!-- Generator: Adobe Illustrator 18.0.0, SVG Export Plug-In . SVG Version: 6.00 Build 0)  -->
<!DOCTYPE svg PUBLIC "-//W3C//DTD SVG 1.1//EN" "http://www.w3.org/Graphics/SVG/1.1/DTD/svg11.dtd">
<svg version="1.1" id="Capa_1" xmlns="http://www.w3.org/2000/svg" xmlns:xlink="http://www.w3.org/1999/xlink" x="0px" y="0px"
	 viewBox="0 0 60.033 60.033" style="enable-background:new 0 0 60.033 60.033;" xml:space="preserve">
<g>
	<path d="M57.95,27.193c-0.396-0.625-0.957-1.01-1.57-1.125l-4.363-2.618v-4.614c0-3.209-2.61-5.819-5.819-5.819H13.836
		c-3.209,0-5.819,2.61-5.819,5.819v4.614l-4.363,2.618c-0.613,0.115-1.174,0.5-1.57,1.125c-2.778,4.387-2.778,11.26,0,15.646
		c0.474,0.748,1.178,1.177,1.933,1.177c0.688,0,1.325-0.371,1.793-1h0.207v3c0,0.552,0.448,1,1,1h4c0.552,0,1-0.448,1-1v-3h36v3
		c0,0.552,0.448,1,1,1h4c0.552,0,1-0.448,1-1v-3h0.207c0.468,0.629,1.105,1,1.793,1c0.755,0,1.459-0.429,1.933-1.177
		C60.727,38.453,60.727,31.58,57.95,27.193z M11.016,41.016h-4H6.888c0.266-0.639,0.484-1.31,0.657-2h44.943
		c0.173,0.69,0.391,1.361,0.657,2h-0.128h-4H11.016z M10.016,28.823c0-0.445,0.362-0.807,0.807-0.807h4.387
		c0.445,0,0.807,0.362,0.807,0.807v3.193v1v0.193c0,0.445-0.362,0.807-0.807,0.807h-4.387c-0.445,0-0.807-0.362-0.807-0.807v-0.193
		v-1V28.823z M8.135,34.016c0.019,0.062,0.047,0.119,0.07,0.179c0.021,0.054,0.039,0.109,0.063,0.161
		c0.054,0.119,0.116,0.232,0.185,0.341c0.02,0.031,0.035,0.065,0.056,0.096c0.094,0.137,0.2,0.265,0.317,0.384
		c0.027,0.027,0.058,0.05,0.086,0.076c0.093,0.087,0.191,0.169,0.295,0.244c0.046,0.033,0.094,0.061,0.142,0.091
		c0.095,0.059,0.193,0.113,0.296,0.161c0.054,0.025,0.108,0.049,0.164,0.071c0.109,0.042,0.221,0.076,0.337,0.105
		c0.052,0.013,0.103,0.029,0.156,0.039c0.169,0.032,0.343,0.053,0.521,0.053h4.387c0.179,0,0.352-0.021,0.521-0.053
		c0.053-0.01,0.104-0.026,0.156-0.039c0.115-0.029,0.228-0.062,0.337-0.105c0.056-0.022,0.11-0.046,0.164-0.071
		c0.102-0.048,0.2-0.101,0.296-0.161c0.048-0.03,0.096-0.058,0.142-0.091c0.104-0.074,0.202-0.156,0.295-0.244
		c0.028-0.026,0.059-0.049,0.086-0.076c0.117-0.118,0.222-0.246,0.317-0.384c0.021-0.031,0.037-0.064,0.056-0.096
		c0.069-0.109,0.132-0.222,0.185-0.341c0.024-0.053,0.042-0.107,0.063-0.161c0.023-0.06,0.051-0.117,0.07-0.179h24.236
		c0.019,0.062,0.047,0.119,0.07,0.179c0.021,0.054,0.039,0.109,0.063,0.161c0.054,0.119,0.116,0.232,0.185,0.341
		c0.02,0.031,0.035,0.065,0.056,0.096c0.094,0.137,0.2,0.265,0.317,0.384c0.027,0.027,0.058,0.05,0.086,0.076
		c0.093,0.087,0.191,0.169,0.295,0.244c0.046,0.033,0.094,0.061,0.142,0.091c0.095,0.059,0.193,0.113,0.296,0.161
		c0.054,0.025,0.108,0.049,0.164,0.071c0.109,0.042,0.221,0.076,0.337,0.105c0.052,0.013,0.103,0.029,0.156,0.039
		c0.169,0.032,0.343,0.053,0.521,0.053h4.387c0.179,0,0.352-0.021,0.521-0.053c0.053-0.01,0.104-0.026,0.156-0.039
		c0.115-0.029,0.228-0.062,0.337-0.105c0.056-0.022,0.11-0.046,0.164-0.071c0.102-0.048,0.2-0.101,0.296-0.161
		c0.048-0.03,0.096-0.058,0.142-0.091c0.104-0.074,0.202-0.156,0.295-0.244c0.028-0.026,0.059-0.049,0.086-0.076
		c0.117-0.118,0.222-0.246,0.317-0.384c0.021-0.031,0.037-0.064,0.056-0.096c0.069-0.109,0.132-0.222,0.185-0.341
		c0.024-0.053,0.042-0.107,0.063-0.161c0.023-0.06,0.051-0.117,0.07-0.179h0.133c-0.059,1-0.028,2.009,0.09,3H7.912
		c0.118-0.991,0.149-2,0.09-3H8.135z M50.016,32.016v1v0.193c0,0.445-0.362,0.807-0.807,0.807h-4.387
		c-0.445,0-0.807-0.362-0.807-0.807v-0.193v-1v-3.193c0-0.445,0.362-0.807,0.807-0.807h4.387c0.445,0,0.807,0.362,0.807,0.807
		V32.016z M54.164,27.072c-0.028,0.04-0.055,0.08-0.081,0.122c-0.203,0.32-0.386,0.656-0.559,1.001
		c-0.038,0.076-0.072,0.155-0.109,0.232c-0.143,0.3-0.275,0.608-0.397,0.923c-0.021,0.054-0.041,0.107-0.061,0.162
		c-0.297,0.801-0.528,1.64-0.685,2.505h-0.255v-3.193v-3.041L54.164,27.072z M10.016,18.836c0-2.106,1.713-3.819,3.819-3.819h32.361
		c2.106,0,3.819,1.713,3.819,3.819v5.181v2.118c-0.052-0.016-0.107-0.023-0.161-0.036c-0.047-0.011-0.092-0.022-0.139-0.031
		c-0.165-0.03-0.333-0.051-0.506-0.051h-4.387c-1.547,0-2.807,1.259-2.807,2.807v3.193h-24v-3.193c0-1.547-1.259-2.807-2.807-2.807
		h-4.387c-0.173,0-0.341,0.021-0.506,0.051c-0.047,0.009-0.093,0.02-0.139,0.031c-0.053,0.013-0.109,0.02-0.161,0.036v-2.118V18.836
		z M8.016,25.783v3.041v3.193H7.761c-0.158-0.865-0.389-1.704-0.685-2.505c-0.02-0.055-0.041-0.108-0.061-0.162
		c-0.121-0.315-0.254-0.623-0.397-0.923c-0.037-0.077-0.071-0.156-0.109-0.232c-0.173-0.344-0.356-0.681-0.559-1.001
		c-0.026-0.042-0.053-0.082-0.081-0.122L8.016,25.783z M3.773,28.264c0.122-0.193,0.225-0.244,0.242-0.247
		c0.01,0.001,0.041,0.015,0.085,0.052c0.043,0.037,0.099,0.098,0.16,0.194l0,0c0.259,0.41,0.479,0.858,0.681,1.318
		c0.07,0.161,0.134,0.329,0.198,0.497c0.117,0.306,0.219,0.62,0.313,0.941c0.062,0.213,0.127,0.422,0.179,0.642
		c0.069,0.29,0.116,0.589,0.166,0.886c0.033,0.198,0.078,0.39,0.103,0.593c0.025,0.204,0.035,0.412,0.052,0.619
		c0.022,0.267,0.041,0.534,0.049,0.803c0.008,0.272,0.012,0.545,0.006,0.817c-0.008,0.313-0.03,0.625-0.057,0.936
		c-0.029,0.344-0.072,0.683-0.124,1.02c-0.048,0.305-0.102,0.607-0.169,0.905c-0.04,0.179-0.077,0.361-0.124,0.536
		c-0.116,0.429-0.257,0.844-0.415,1.248c-0.06,0.152-0.122,0.303-0.187,0.45c-0.189,0.426-0.394,0.84-0.632,1.223l-0.056,0.095
		c-0.113,0.167-0.208,0.222-0.224,0.225c-0.021-0.003-0.124-0.054-0.246-0.247C1.415,38.046,1.415,31.987,3.773,28.264z
		 M10.016,45.016h-2v-2h2V45.016z M52.016,45.016h-2v-2h2V45.016z M56.26,41.769c-0.122,0.193-0.225,0.244-0.242,0.247
		c-0.02-0.003-0.115-0.058-0.228-0.225l-0.056-0.094c-0.238-0.383-0.443-0.797-0.632-1.223c-0.065-0.147-0.127-0.297-0.186-0.449
		c-0.158-0.404-0.299-0.819-0.415-1.249c-0.047-0.174-0.084-0.356-0.124-0.535c-0.068-0.298-0.122-0.601-0.17-0.906
		c-0.052-0.335-0.094-0.672-0.124-1.014c-0.027-0.313-0.049-0.626-0.057-0.941c-0.007-0.272-0.002-0.545,0.006-0.817
		c0.008-0.27,0.026-0.538,0.049-0.805c0.017-0.206,0.027-0.413,0.052-0.617c0.025-0.202,0.069-0.393,0.102-0.59
		c0.05-0.298,0.097-0.598,0.166-0.889c0.052-0.22,0.117-0.429,0.179-0.642c0.094-0.321,0.196-0.636,0.313-0.942
		c0.064-0.167,0.127-0.335,0.198-0.495c0.202-0.46,0.422-0.908,0.681-1.318l0,0c0.121-0.191,0.222-0.242,0.242-0.246
		c0.022,0.004,0.123,0.055,0.245,0.246C58.618,31.987,58.618,38.046,56.26,41.769z"/>
	<path d="M34.309,25.724c0.195,0.195,0.451,0.293,0.707,0.293s0.512-0.098,0.707-0.293l0.92-0.92
		c0.433,0.213,0.901,0.332,1.373,0.332s0.94-0.12,1.373-0.332l0.92,0.92c0.195,0.195,0.451,0.293,0.707,0.293
		s0.512-0.098,0.707-0.293c0.391-0.391,0.391-1.023,0-1.414l-0.919-0.919c0.426-0.866,0.426-1.881,0-2.747l0.919-0.919
		c0.391-0.391,0.391-1.023,0-1.414s-1.023-0.391-1.414,0l-0.92,0.92c-0.866-0.425-1.88-0.425-2.747,0l-0.92-0.92
		c-0.391-0.391-1.023-0.391-1.414,0s-0.391,1.023,0,1.414l0.92,0.92c-0.426,0.866-0.426,1.88,0,2.747l-0.92,0.92
		C33.919,24.7,33.919,25.333,34.309,25.724z M38.809,21.224c0.437,0.438,0.437,1.148,0,1.586c-0.438,0.438-1.148,0.438-1.586,0
		c-0.437-0.438-0.437-1.148,0-1.586c0.219-0.219,0.506-0.328,0.793-0.328S38.591,21.005,38.809,21.224z"/>
	<path d="M18.309,25.724c0.195,0.195,0.451,0.293,0.707,0.293s0.512-0.098,0.707-0.293l0.92-0.92
		c0.433,0.213,0.901,0.332,1.373,0.332s0.94-0.12,1.373-0.332l0.92,0.92c0.195,0.195,0.451,0.293,0.707,0.293
		s0.512-0.098,0.707-0.293c0.391-0.391,0.391-1.023,0-1.414l-0.919-0.919c0.426-0.866,0.426-1.881,0-2.747l0.919-0.919
		c0.391-0.391,0.391-1.023,0-1.414s-1.023-0.391-1.414,0l-0.92,0.92c-0.866-0.425-1.88-0.425-2.747,0l-0.92-0.92
		c-0.391-0.391-1.023-0.391-1.414,0s-0.391,1.023,0,1.414l0.92,0.92c-0.426,0.866-0.426,1.88,0,2.747l-0.92,0.92
		C17.919,24.7,17.919,25.333,18.309,25.724z M22.809,21.224c0.437,0.438,0.437,1.148,0,1.586c-0.438,0.438-1.148,0.438-1.586,0
		c-0.437-0.438-0.437-1.148,0-1.586c0.219-0.219,0.506-0.328,0.793-0.328S22.591,21.005,22.809,21.224z"/>
</g>
<g>
</g>
<g>
</g>
<g>
</g>
<g>
</g>
<g>
</g>
<g>
</g>
<g>
</g>
<g>
</g>
<g>
</g>
<g>
</g>
<g>
</g>
<g>
</g>
<g>
</g>
<g>
</g>
<g>
</g>
</svg>
