<?xml version="1.0" encoding="iso-8859-1"?>
<!-- Generator: Adobe Illustrator 18.0.0, SVG Export Plug-In . SVG Version: 6.00 Build 0)  -->
<!DOCTYPE svg PUBLIC "-//W3C//DTD SVG 1.1//EN" "http://www.w3.org/Graphics/SVG/1.1/DTD/svg11.dtd">
<svg version="1.1" id="Capa_1" xmlns="http://www.w3.org/2000/svg" xmlns:xlink="http://www.w3.org/1999/xlink" x="0px" y="0px"
	 viewBox="0 0 60 60" style="enable-background:new 0 0 60 60;" xml:space="preserve">
<path d="M54,19.029H31c-5.071,0-6.07-1.194-7.885-3.361c-0.216-0.258-0.439-0.525-0.679-0.801C17.497,9.172,9.078,8.321,3.67,12.968
	c-0.232,0.2-0.451,0.405-0.658,0.616C1.069,15.558,0,18.307,0,21.325v16.271c0,3.543,2.493,6.51,5.817,7.25L5.02,48.833
	c-0.059,0.294,0.018,0.599,0.207,0.83C5.417,49.895,5.7,50.029,6,50.029h2c0.266,0,0.52-0.105,0.707-0.293l4.707-4.707h33.172
	l4.707,4.707c0.188,0.188,0.441,0.293,0.707,0.293h2c0.3,0,0.583-0.134,0.773-0.366c0.189-0.231,0.266-0.536,0.207-0.83
	l-0.797-3.986c3.323-0.74,5.817-3.708,5.817-7.25V25.029C60,21.72,57.309,19.029,54,19.029z M52.567,37.029H7.433
	c-1.496,0-2.892-0.6-3.931-1.69c-0.09-0.094-0.196-0.166-0.311-0.218c0.114-0.142,0.24-0.275,0.368-0.406
	c0.076-0.077,0.142-0.161,0.222-0.234c0.241-0.217,0.5-0.417,0.78-0.591c1.021,0.498,2.584,1.074,4.23,1.502
	c0.003,0.001,0.006,0.001,0.009,0.002c0.205,0.053,0.411,0.104,0.618,0.152c0.05,0.012,0.099,0.023,0.149,0.035
	c0.179,0.041,0.357,0.078,0.536,0.114c0.068,0.014,0.135,0.027,0.203,0.04c0.172,0.033,0.343,0.063,0.514,0.091
	c0.066,0.011,0.131,0.021,0.196,0.031c0.178,0.027,0.354,0.051,0.529,0.072c0.049,0.006,0.097,0.011,0.145,0.016
	c0.19,0.021,0.377,0.037,0.561,0.049c0.028,0.002,0.056,0.003,0.084,0.005c0.199,0.012,0.394,0.018,0.584,0.019
	c0.004,0,0.009,0,0.014,0c0.005,0,0.009-0.001,0.014-0.001c0.256,0,0.5-0.012,0.734-0.035c0.012-0.001,0.023-0.002,0.035-0.003
	c0.238-0.025,0.465-0.06,0.675-0.111c0.002-0.001,0.005-0.001,0.007-0.001c0.204-0.05,0.397-0.11,0.569-0.188
	c0.003-0.001,0.006-0.004,0.009-0.005c0.191-0.084,0.365-0.183,0.515-0.302c0.096-0.077,0.219-0.19,0.337-0.343h28.346
	c0.118,0.153,0.241,0.266,0.337,0.343c0.15,0.119,0.323,0.218,0.515,0.302c0.003,0.001,0.006,0.004,0.009,0.005
	c0.352,0.16,0.783,0.253,1.259,0.302c0.005,0,0.009,0.001,0.014,0.001c0.428,0.043,0.895,0.046,1.389,0.016
	c0.009,0,0.018-0.001,0.026-0.002c0.204-0.013,0.41-0.031,0.621-0.055c0.025-0.003,0.051-0.006,0.076-0.009
	c0.198-0.023,0.398-0.05,0.6-0.081c0.039-0.006,0.079-0.012,0.118-0.019c0.197-0.032,0.394-0.066,0.593-0.105
	c0.039-0.007,0.077-0.015,0.116-0.023c0.208-0.041,0.415-0.085,0.623-0.133c0.019-0.004,0.039-0.009,0.058-0.014
	c1.888-0.436,3.749-1.103,4.911-1.67c0.28,0.174,0.539,0.374,0.78,0.591c0.08,0.072,0.147,0.157,0.222,0.234
	c0.129,0.131,0.254,0.264,0.368,0.406c-0.115,0.052-0.222,0.125-0.311,0.218C55.459,36.429,54.063,37.029,52.567,37.029z M2,33.423
	V29.99c0.011,1.011,0.326,1.946,0.873,2.648c-0.288,0.223-0.555,0.466-0.806,0.725C2.047,33.385,2.021,33.401,2,33.423z
	 M14.244,33.796c-0.085,0.091-0.243,0.153-0.449,0.194c-0.024,0.005-0.044,0.012-0.069,0.016c-0.077,0.013-0.169,0.019-0.259,0.026
	c-0.061,0.004-0.117,0.01-0.183,0.012c-0.074,0.002-0.156,0.001-0.236,0c-0.101-0.001-0.201-0.002-0.311-0.008
	c-0.064-0.003-0.131-0.008-0.198-0.013c-0.138-0.01-0.279-0.022-0.428-0.038c-0.056-0.006-0.114-0.013-0.171-0.02
	c-0.16-0.019-0.325-0.042-0.494-0.068c-0.067-0.01-0.134-0.021-0.202-0.032c-0.146-0.024-0.296-0.05-0.446-0.078
	c-0.116-0.022-0.231-0.043-0.349-0.067c-0.079-0.016-0.159-0.033-0.238-0.05c-1.847-0.394-3.892-1.055-5.168-1.786
	c-0.012-0.007-0.026-0.01-0.038-0.016c-0.12-0.075-0.236-0.149-0.331-0.224c-0.479-0.375-0.744-1.193-0.658-2.036
	c0.07-0.692,0.374-1.251,0.791-1.458c0.135-0.067,0.263-0.107,0.448-0.127c0.126-0.013,0.255-0.019,0.389-0.019
	c2.808,0,7.23,2.751,8.451,5.349C14.227,33.634,14.236,33.772,14.244,33.796L14.244,33.796z M45.905,33.354
	c1.22-2.595,5.634-5.343,8.501-5.343c0.139,0,0.274,0.007,0.406,0.02c0.118,0.013,0.246,0.053,0.381,0.12
	c0.417,0.207,0.721,0.766,0.791,1.458c0.086,0.843-0.179,1.661-0.658,2.036c-0.095,0.075-0.212,0.149-0.331,0.224
	c-0.012,0.006-0.026,0.009-0.038,0.016c-1.63,0.933-4.521,1.755-6.639,2.057c-0.007,0.001-0.013,0.002-0.02,0.003
	c-0.201,0.028-0.395,0.052-0.58,0.07c-0.016,0.002-0.032,0.003-0.047,0.004c-0.18,0.017-0.352,0.03-0.513,0.037
	c-0.011,0-0.021,0.001-0.031,0.001c-0.679,0.028-1.173-0.039-1.352-0.226c-0.002-0.008-0.007-0.015-0.009-0.023
	C45.766,33.754,45.784,33.612,45.905,33.354z M57.127,32.637c0.547-0.702,0.863-1.637,0.873-2.647v3.433
	c-0.021-0.022-0.047-0.039-0.068-0.06C57.682,33.103,57.414,32.86,57.127,32.637z M4.437,14.987
	c0.168-0.171,0.346-0.338,0.535-0.501c4.579-3.932,11.734-3.174,15.952,1.692c0.231,0.267,0.448,0.525,0.657,0.774
	c1.907,2.278,3.413,4.077,9.418,4.077h23c2.206,0,4,1.794,4,4v4.941c0.001-0.186-0.007-0.374-0.026-0.563
	c-0.142-1.391-0.849-2.53-1.892-3.048c-0.346-0.171-0.7-0.278-1.136-0.325c-3.638-0.365-9.202,2.959-10.852,6.47
	c-0.087,0.186-0.148,0.359-0.199,0.525H16.104c-0.05-0.167-0.111-0.34-0.199-0.525c-1.649-3.51-7.216-6.832-10.935-6.461
	c-0.353,0.039-0.707,0.145-1.053,0.316c-1.043,0.518-1.75,1.657-1.892,3.048C2.007,29.596,1.999,29.784,2,29.97v-8.645
	C2,18.871,2.889,16.561,4.437,14.987z M7.586,48.029H7.22l0.6-3h2.767L7.586,48.029z M52.414,48.029l-3-3h2.767l0.6,3H52.414z
	 M52.567,43.029H47H13H7.433C4.437,43.029,2,40.592,2,37.596c0-0.095,0.028-0.191,0.083-0.284c0.001-0.001,0.001-0.003,0.002-0.004
	c0.073-0.122,0.184-0.211,0.311-0.253c0.086,0.08,0.178,0.15,0.267,0.225C4,38.409,5.662,39.029,7.433,39.029h45.135
	c1.77,0,3.433-0.62,4.769-1.748c0.089-0.075,0.181-0.145,0.267-0.225c0.127,0.042,0.238,0.13,0.311,0.253
	c0.001,0.001,0.001,0.003,0.002,0.004C57.972,37.405,58,37.501,58,37.596C58,40.592,55.563,43.029,52.567,43.029z"/>
<g>
</g>
<g>
</g>
<g>
</g>
<g>
</g>
<g>
</g>
<g>
</g>
<g>
</g>
<g>
</g>
<g>
</g>
<g>
</g>
<g>
</g>
<g>
</g>
<g>
</g>
<g>
</g>
<g>
</g>
</svg>
