<svg xmlns="http://www.w3.org/2000/svg" viewBox="0 0 60 60" style="enable-background:new 0 0 60 60" xml:space="preserve"><path d="M54 19.029H31c-5.071 0-6.07-1.194-7.885-3.361-.216-.258-.439-.525-.679-.801C17.497 9.172 9.078 8.321 3.67 12.968c-.232.2-.451.405-.658.616C1.069 15.558 0 18.307 0 21.325v16.271c0 3.543 2.493 6.51 5.817 7.25l-.797 3.987A1.001 1.001 0 0 0 6 50.029h2c.266 0 .52-.105.707-.293l4.707-4.707h33.172l4.707 4.707a.997.997 0 0 0 .707.293h2a.998.998 0 0 0 .98-1.196l-.797-3.986c3.323-.74 5.817-3.708 5.817-7.25V25.029c0-3.309-2.691-6-6-6zm-1.433 18H7.433c-1.496 0-2.892-.6-3.931-1.69a.996.996 0 0 0-.311-.218c.114-.142.24-.275.368-.406.076-.077.142-.161.222-.234.241-.217.5-.417.78-.591 1.021.498 2.584 1.074 4.23 1.502l.009.002c.205.053.411.104.618.152l.149.035a20.468 20.468 0 0 0 1.978.348l.145.016c.19.021.377.037.561.049l.084.005c.199.012.394.018.584.019h.014l.014-.001c.256 0 .5-.012.734-.035l.035-.003c.238-.025.465-.06.675-.111l.007-.001c.204-.05.397-.11.569-.188l.009-.005a2.034 2.034 0 0 0 .852-.645h28.346a2.034 2.034 0 0 0 .852.645l.009.005c.352.16.783.253 1.259.302l.014.001a8.724 8.724 0 0 0 1.415.014c.204-.013.41-.031.621-.055l.076-.009c.198-.023.398-.05.6-.081l.118-.019c.197-.032.394-.066.593-.105l.116-.023a19.761 19.761 0 0 0 .681-.147c1.888-.436 3.749-1.103 4.911-1.67.28.174.539.374.78.591.08.072.147.157.222.234.129.131.254.264.368.406a1 1 0 0 0-.311.218 5.377 5.377 0 0 1-3.931 1.693zM2 33.423V29.99c.011 1.011.326 1.946.873 2.648a7.615 7.615 0 0 0-.806.725c-.02.022-.046.038-.067.06zm12.244.373c-.085.091-.243.153-.449.194-.024.005-.044.012-.069.016-.077.013-.169.019-.259.026-.061.004-.117.01-.183.012a6.187 6.187 0 0 1-.236 0 6.765 6.765 0 0 1-.311-.008c-.064-.003-.131-.008-.198-.013a12.295 12.295 0 0 1-1.093-.126l-.202-.032c-.146-.024-.296-.05-.446-.078-.116-.022-.231-.043-.349-.067a20.145 20.145 0 0 1-.238-.05c-1.847-.394-3.892-1.055-5.168-1.786-.012-.007-.026-.01-.038-.016a3.797 3.797 0 0 1-.331-.224c-.479-.375-.744-1.193-.658-2.036.07-.692.374-1.251.791-1.458.135-.067.263-.107.448-.127.126-.013.255-.019.389-.019 2.808 0 7.23 2.751 8.451 5.349.132.281.141.419.149.443zm31.661-.442c1.22-2.595 5.634-5.343 8.501-5.343.139 0 .274.007.406.02.118.013.246.053.381.12.417.207.721.766.791 1.458.086.843-.179 1.661-.658 2.036a3.955 3.955 0 0 1-.331.224c-.012.006-.026.009-.038.016-1.63.933-4.521 1.755-6.639 2.057l-.02.003c-.201.028-.395.052-.58.07l-.047.004c-.18.017-.352.03-.513.037l-.031.001c-.679.028-1.173-.039-1.352-.226-.002-.008-.007-.015-.009-.023 0-.054.018-.196.139-.454zm11.222-.717c.547-.702.863-1.637.873-2.647v3.433c-.021-.022-.047-.039-.068-.06a7.506 7.506 0 0 0-.805-.726zm-52.69-17.65a8.87 8.87 0 0 1 .535-.501c4.579-3.932 11.734-3.174 15.952 1.692.231.267.448.525.657.774 1.907 2.278 3.413 4.077 9.418 4.077h23c2.206 0 4 1.794 4 4v4.941a5.34 5.34 0 0 0-.026-.563c-.142-1.391-.849-2.53-1.892-3.048a3.256 3.256 0 0 0-1.136-.325c-3.638-.365-9.202 2.959-10.852 6.47a3.952 3.952 0 0 0-.199.525h-27.79a3.604 3.604 0 0 0-.199-.525c-1.649-3.51-7.216-6.832-10.935-6.461a3.16 3.16 0 0 0-1.053.316c-1.043.518-1.75 1.657-1.892 3.048A5.62 5.62 0 0 0 2 29.97v-8.645c0-2.454.889-4.764 2.437-6.338zm3.149 33.042H7.22l.6-3h2.767l-3.001 3zm44.828 0-3-3h2.767l.6 3h-.367zm.153-5H7.433A5.439 5.439 0 0 1 2 37.596c0-.095.028-.191.083-.284l.002-.004a.575.575 0 0 1 .311-.253c.086.08.178.15.267.225a7.341 7.341 0 0 0 4.77 1.749h45.135c1.77 0 3.433-.62 4.769-1.748.089-.075.181-.145.267-.225a.57.57 0 0 1 .311.253l.002.004a.55.55 0 0 1 .083.283 5.439 5.439 0 0 1-5.433 5.433z"/></svg>