<svg xmlns="http://www.w3.org/2000/svg" viewBox="0 0 60 60" style="enable-background:new 0 0 60 60" xml:space="preserve"><path d="M30 19a1 1 0 0 0 1-1v-1a1 1 0 1 0-2 0v1a1 1 0 0 0 1 1zM30 27a1 1 0 0 0 1-1v-1a1 1 0 1 0-2 0v1a1 1 0 0 0 1 1zM30 23a1 1 0 0 0 1-1v-1a1 1 0 1 0-2 0v1a1 1 0 0 0 1 1z"/><circle cx="9" cy="37" r="1"/><circle cx="9" cy="43" r="1"/><circle cx="12" cy="40" r="1"/><circle cx="18" cy="40" r="1"/><circle cx="15" cy="37" r="1"/><circle cx="21" cy="37" r="1"/><circle cx="15" cy="43" r="1"/><circle cx="21" cy="43" r="1"/><circle cx="24" cy="40" r="1"/><circle cx="30" cy="40" r="1"/><circle cx="27" cy="37" r="1"/><circle cx="33" cy="37" r="1"/><circle cx="27" cy="43" r="1"/><circle cx="33" cy="43" r="1"/><circle cx="36" cy="40" r="1"/><circle cx="42" cy="40" r="1"/><circle cx="39" cy="37" r="1"/><circle cx="45" cy="37" r="1"/><circle cx="39" cy="43" r="1"/><circle cx="45" cy="43" r="1"/><circle cx="48" cy="40" r="1"/><circle cx="51" cy="37" r="1"/><circle cx="51" cy="43" r="1"/><path d="M60 26c0-1.474-.81-2.75-2-3.444v-2.634C58 15.002 53.998 11 49.078 11h-14.25A7.764 7.764 0 0 0 30 12.665 7.764 7.764 0 0 0 25.172 11h-14.25C6.002 11 2 15.002 2 19.922v2.634C.81 23.25 0 24.526 0 26v20h1v3h6v-3h46v3h6v-3h1V26zM8 30h17.172c1.557 0 3.021.606 4.121 1.707l.707.708.707-.708A5.789 5.789 0 0 1 34.828 30H52v3H8v-3zm46 5v-8.7c0-.915.482-1.742 1.229-2.108.203-.1.401-.153.602-.174.043-.004.085-.012.13-.013.07-.002.141.006.212.014.046.004.093.007.138.014a2.3 2.3 0 0 1 .354.094l.158.056A1.997 1.997 0 0 1 58 26v18h-4v-9zM4 19.922A6.93 6.93 0 0 1 10.922 13h14.25c1.557 0 3.021.606 4.121 1.707l.707.708.707-.708A5.789 5.789 0 0 1 34.828 13h14.25A6.93 6.93 0 0 1 56 19.922V22c-2.206 0-4 1.794-4 4v2H34.828A7.764 7.764 0 0 0 30 29.665 7.764 7.764 0 0 0 25.172 28H8v-2c0-2.206-1.794-4-4-4v-2.078zM2 26a2 2 0 0 1 1.177-1.818l.158-.056c.122-.044.239-.073.353-.094.046-.007.093-.01.139-.014.071-.007.142-.015.211-.014.044.001.085.009.128.013.201.022.4.075.604.175C5.518 24.558 6 25.385 6 26.3V44H2V26zm3 21H3v-1h2v1zm47-10v7H8v-9h44v2zm5 10h-2v-1h2v1z"/></svg>