<?xml version="1.0" encoding="iso-8859-1"?>
<!-- Generator: Adobe Illustrator 18.0.0, SVG Export Plug-In . SVG Version: 6.00 Build 0)  -->
<!DOCTYPE svg PUBLIC "-//W3C//DTD SVG 1.1//EN" "http://www.w3.org/Graphics/SVG/1.1/DTD/svg11.dtd">
<svg version="1.1" id="Capa_1" xmlns="http://www.w3.org/2000/svg" xmlns:xlink="http://www.w3.org/1999/xlink" x="0px" y="0px"
	 viewBox="0 0 60 60" style="enable-background:new 0 0 60 60;" xml:space="preserve">
<g>
	<path d="M42.293,23.707C42.488,23.902,42.744,24,43,24s0.512-0.098,0.707-0.293l0.92-0.92C45.06,23,45.527,23.12,46,23.12
		s0.94-0.12,1.373-0.332l0.92,0.92C48.488,23.902,48.744,24,49,24s0.512-0.098,0.707-0.293c0.391-0.391,0.391-1.023,0-1.414
		l-0.92-0.92c0.425-0.866,0.425-1.88,0-2.747l0.92-0.92c0.391-0.391,0.391-1.023,0-1.414s-1.023-0.391-1.414,0l-0.92,0.92
		c-0.866-0.425-1.88-0.425-2.747,0l-0.92-0.92c-0.391-0.391-1.023-0.391-1.414,0s-0.391,1.023,0,1.414l0.92,0.92
		c-0.426,0.866-0.426,1.88,0,2.747l-0.92,0.92C41.902,22.684,41.902,23.316,42.293,23.707z M46.792,19.207
		c0.437,0.437,0.437,1.149,0,1.586c-0.438,0.438-1.148,0.438-1.586,0c-0.437-0.438-0.437-1.148,0-1.586
		c0.219-0.219,0.506-0.328,0.793-0.328S46.574,18.988,46.792,19.207z"/>
	<path d="M26.293,23.707C26.488,23.902,26.744,24,27,24s0.512-0.098,0.707-0.293l0.92-0.92C29.06,23,29.527,23.12,30,23.12
		s0.94-0.12,1.373-0.332l0.92,0.92C32.488,23.902,32.744,24,33,24s0.512-0.098,0.707-0.293c0.391-0.391,0.391-1.023,0-1.414
		l-0.919-0.919c0.426-0.866,0.426-1.881,0-2.747l0.919-0.919c0.391-0.391,0.391-1.023,0-1.414s-1.023-0.391-1.414,0l-0.92,0.92
		c-0.866-0.425-1.88-0.425-2.747,0l-0.92-0.92c-0.391-0.391-1.023-0.391-1.414,0s-0.391,1.023,0,1.414l0.92,0.92
		c-0.426,0.866-0.426,1.88,0,2.747l-0.92,0.92C25.902,22.684,25.902,23.316,26.293,23.707z M30.793,19.207
		c0.437,0.438,0.437,1.148,0,1.586c-0.438,0.438-1.148,0.438-1.586,0c-0.437-0.438-0.437-1.148,0-1.586
		c0.219-0.219,0.506-0.328,0.793-0.328S30.574,18.988,30.793,19.207z"/>
	<path d="M10.293,23.707C10.488,23.902,10.744,24,11,24s0.512-0.098,0.707-0.293l0.92-0.92C13.06,23,13.527,23.12,14,23.12
		s0.94-0.12,1.373-0.332l0.92,0.92C16.488,23.902,16.744,24,17,24s0.512-0.098,0.707-0.293c0.391-0.391,0.391-1.023,0-1.414
		l-0.919-0.919c0.426-0.866,0.426-1.881,0-2.747l0.919-0.919c0.391-0.391,0.391-1.023,0-1.414s-1.023-0.391-1.414,0l-0.92,0.92
		c-0.866-0.425-1.88-0.425-2.747,0l-0.92-0.92c-0.391-0.391-1.023-0.391-1.414,0s-0.391,1.023,0,1.414l0.92,0.92
		c-0.426,0.866-0.426,1.88,0,2.747l-0.92,0.92C9.902,22.684,9.902,23.316,10.293,23.707z M14.793,19.207
		c0.437,0.438,0.437,1.148,0,1.586c-0.438,0.438-1.148,0.438-1.586,0c-0.437-0.438-0.437-1.148,0-1.586
		c0.219-0.219,0.506-0.328,0.793-0.328S14.574,18.988,14.793,19.207z"/>
	<path d="M60,26c0-1.474-0.81-2.75-2-3.444V16.71c0-3.149-2.562-5.71-5.711-5.71H7.71C4.562,11,2,13.562,2,16.71v5.846
		C0.81,23.25,0,24.526,0,26v20h1v3h6v-3h1h44h1v3h6v-3h1V26z M8,33v-3h44v3H8z M54,35v-2v-5v-2c0-1.103,0.897-2,2-2
		c0.112,0,0.221,0.015,0.328,0.033c0.109,0.021,0.221,0.052,0.338,0.093l0.157,0.056C57.515,24.497,58,25.191,58,26v18h-4V35z
		 M4,16.71C4,14.665,5.665,13,7.71,13h44.579C54.335,13,56,14.665,56,16.71V22c-2.206,0-4,1.794-4,4v2H8v-2c0-2.206-1.794-4-4-4
		V16.71z M2,26c0-0.809,0.485-1.504,1.177-1.818l0.156-0.055c0.118-0.042,0.23-0.072,0.339-0.093C3.779,24.015,3.888,24,4,24
		c1.103,0,2,0.897,2,2v2v5v2v9H2V26z M5,47H3v-1h2V47z M8,35h21v9H8V35z M52,44H31v-9h21V44z M57,47h-2v-1h2V47z"/>
</g>
<g>
</g>
<g>
</g>
<g>
</g>
<g>
</g>
<g>
</g>
<g>
</g>
<g>
</g>
<g>
</g>
<g>
</g>
<g>
</g>
<g>
</g>
<g>
</g>
<g>
</g>
<g>
</g>
<g>
</g>
</svg>
