<svg xmlns="http://www.w3.org/2000/svg" viewBox="0 0 60 60" style="enable-background:new 0 0 60 60" xml:space="preserve"><path d="M60 33.959v-7.965c0-6.181-6.035-9.227-9.227-9.974-3.25-.761-6.934-1.624-10.276-3.369-6.756-3.527-14.238-3.527-20.994 0-3.343 1.745-7.026 2.607-10.276 3.369C6.035 16.767 0 19.813 0 25.994v1l.001 6.937v.068l.001 4.061c.223 3.336 2.66 6.046 5.815 6.75l-.797 3.988A1.001 1.001 0 0 0 6 49.994h2c.266 0 .52-.105.707-.293l4.707-4.707h33.172l4.707 4.707a.997.997 0 0 0 .707.293h2a.998.998 0 0 0 .98-1.196l-.798-3.988a7.478 7.478 0 0 0 5.817-6.816v-4.015l.001-.02zm-13.5 1.802c-.151.242-.29.486-.405.731-.01.021-.013.039-.023.06a3.48 3.48 0 0 0-.172.441H14.102a3.89 3.89 0 0 0-.196-.501 7.021 7.021 0 0 0-.404-.728l-.051-.075a8.914 8.914 0 0 0-.497-.695h34.092a8.845 8.845 0 0 0-.502.703c-.015.022-.031.043-.044.064zM3.644 31.994c1.735 0 4.086 1.052 5.917 2.468l.358.299c.753.63 1.368 1.292 1.793 1.922l.04.058c.129.196.24.389.329.577l.014.025c.014.029.02.049.031.075.099.235.105.354.102.388-.885.824-7.689-.711-9.554-2.171-.479-.375-.744-1.193-.658-2.036.07-.692.374-1.251.791-1.458.135-.067.263-.107.448-.127.126-.014.255-.02.389-.02zm44.13 5.835-.002-.009c-.001-.011-.012-.091.047-.266a2.31 2.31 0 0 1 .086-.211c.092-.196.209-.398.345-.604.011-.018.025-.036.036-.053.425-.63 1.041-1.294 1.795-1.924l.327-.274C52.247 33.061 54.625 32 56.406 32c.139 0 .274.007.406.02.118.013.246.053.381.12.417.208.721.767.791 1.459.086.843-.179 1.661-.658 2.036-1.874 1.467-8.74 3.013-9.552 2.194zM2 25.994c0-2.073 1.5-6.266 7.031-7.846a.987.987 0 0 0 .969.846 1 1 0 0 0 1-1c0-.114-.03-.22-.065-.322 2.31-.551 4.779-1.203 7.205-2.197a.986.986 0 0 0 .86.519 1 1 0 0 0 1-1 .998.998 0 0 0-.066-.329c.165-.082.331-.155.495-.241 2.152-1.123 4.369-1.852 6.619-2.196a.986.986 0 0 0 .953.766.997.997 0 0 0 .994-.968c.335-.017.67-.032 1.006-.032 1.022 0 2.039.09 3.05.25.113.428.486.75.95.75a.98.98 0 0 0 .782-.405 21.732 21.732 0 0 1 4.789 1.835c.882.46 1.779.861 2.68 1.216a.986.986 0 0 0 .748.354c.048 0 .09-.021.136-.027 2.456.887 4.92 1.471 7.182 2.001.25.059.481.13.716.198a.986.986 0 0 0 .965.828.988.988 0 0 0 .638-.246c.833.373 1.555.807 2.164 1.286a.985.985 0 0 0-.801.96 1 1 0 0 0 1 1 .989.989 0 0 0 .972-.86 8.41 8.41 0 0 1 1.372 2.118.99.99 0 0 0-.344.742.99.99 0 0 0 .895.979c.07.374.105.721.105 1.021v3a1 1 0 0 0-1 1c0 .014.008.026.008.041-.022-.003-.04-.01-.062-.012-2.11-.217-4.87.82-7.139 2.413a.984.984 0 0 0-.807-.442 1 1 0 0 0-1 1h-4a1 1 0 0 0-2 0h-4a1 1 0 0 0-2 0h-4a1 1 0 0 0-2 0h-4a1 1 0 0 0-2 0h-4a1 1 0 0 0-2 0h-4a1 1 0 0 0-2 0h-1.068c-1.771-1.407-3.965-2.483-5.962-2.849.008-.051.03-.098.03-.151a1 1 0 0 0-2 0c0 .013.007.023.007.036l-.037.001a3.13 3.13 0 0 0-.97.285v-4.322zm5.586 22H7.22l.6-3h2.767l-3.001 3zm44.828 0-3-3h2.767l.6 3h-.367zm.153-5H7.433c-2.858 0-5.245-2.226-5.433-5v-.425c1.785 1.011 5.971 2.438 8.933 2.438 1.07 0 1.98-.187 2.558-.646.101-.08.23-.203.353-.367h32.314c.123.164.252.286.353.367.577.46 1.487.646 2.558.646 2.963 0 7.151-1.428 8.935-2.439v.359c-.191 2.841-2.578 5.067-5.437 5.067z"/><circle cx="16" cy="17.994" r="1"/><circle cx="22" cy="17.994" r="1"/><circle cx="25" cy="14.994" r="1"/><circle cx="31" cy="14.994" r="1"/><circle cx="28" cy="17.994" r="1"/><circle cx="34" cy="17.994" r="1"/><circle cx="37" cy="14.994" r="1"/><circle cx="40" cy="17.994" r="1"/><circle cx="46" cy="17.994" r="1"/><circle cx="7" cy="20.994" r="1"/><circle cx="7" cy="26.994" r="1"/><circle cx="4" cy="23.994" r="1"/><circle cx="10" cy="23.994" r="1"/><circle cx="10" cy="29.994" r="1"/><circle cx="13" cy="20.994" r="1"/><circle cx="19" cy="20.994" r="1"/><circle cx="13" cy="26.994" r="1"/><circle cx="19" cy="26.994" r="1"/><circle cx="16" cy="23.994" r="1"/><circle cx="22" cy="23.994" r="1"/><circle cx="16" cy="29.994" r="1"/><circle cx="22" cy="29.994" r="1"/><circle cx="25" cy="20.994" r="1"/><circle cx="31" cy="20.994" r="1"/><circle cx="25" cy="26.994" r="1"/><circle cx="31" cy="26.994" r="1"/><circle cx="28" cy="23.994" r="1"/><circle cx="34" cy="23.994" r="1"/><circle cx="28" cy="29.994" r="1"/><circle cx="34" cy="29.994" r="1"/><circle cx="37" cy="20.994" r="1"/><circle cx="43" cy="20.994" r="1"/><circle cx="37" cy="26.994" r="1"/><circle cx="43" cy="26.994" r="1"/><circle cx="40" cy="23.994" r="1"/><circle cx="46" cy="23.994" r="1"/><circle cx="40" cy="29.994" r="1"/><circle cx="46" cy="29.994" r="1"/><circle cx="49" cy="20.994" r="1"/><circle cx="49" cy="26.994" r="1"/><circle cx="55" cy="26.994" r="1"/><circle cx="52" cy="23.994" r="1"/><circle cx="52" cy="29.994" r="1"/></svg>