<svg xmlns="http://www.w3.org/2000/svg" viewBox="0 0 60.033 60.033" style="enable-background:new 0 0 60.033 60.033" xml:space="preserve"><path d="M57.95 27.193c-.396-.625-.957-1.01-1.57-1.125l-4.363-2.618v-4.614a5.825 5.825 0 0 0-5.819-5.819H13.836a5.825 5.825 0 0 0-5.819 5.819v4.614l-4.363 2.618c-.613.115-1.174.5-1.57 1.125-2.778 4.387-2.778 11.26 0 15.646.474.748 1.178 1.177 1.933 1.177.688 0 1.325-.371 1.793-1h.207v3a1 1 0 0 0 1 1h4a1 1 0 0 0 1-1v-3h36v3a1 1 0 0 0 1 1h4a1 1 0 0 0 1-1v-3h.207c.468.629 1.105 1 1.793 1 .755 0 1.459-.429 1.933-1.177 2.777-4.386 2.777-11.259 0-15.646zM11.016 41.016H6.888c.266-.639.484-1.31.657-2h44.943c.173.69.391 1.361.657 2H11.016zm-1-12.193c0-.445.362-.807.807-.807h4.387c.445 0 .807.362.807.807V33.209a.808.808 0 0 1-.807.807h-4.387a.808.808 0 0 1-.807-.807v-4.386zm-1.881 5.193c.019.062.047.119.07.179.021.054.039.109.063.161.054.119.116.232.185.341.02.031.035.065.056.096.094.137.2.265.317.384.027.027.058.05.086.076.093.087.191.169.295.244.046.033.094.061.142.091a2.809 2.809 0 0 0 .46.232c.109.042.221.076.337.105.052.013.103.029.156.039.169.032.343.053.521.053h4.387c.179 0 .352-.021.521-.053.053-.01.104-.026.156-.039a2.744 2.744 0 0 0 .501-.176c.102-.048.2-.101.296-.161.048-.03.096-.058.142-.091.104-.074.202-.156.295-.244.028-.026.059-.049.086-.076.117-.118.222-.246.317-.384.021-.031.037-.064.056-.096.069-.109.132-.222.185-.341.024-.053.042-.107.063-.161.023-.06.051-.117.07-.179h24.236c.019.062.047.119.07.179.021.054.039.109.063.161.054.119.116.232.185.341.02.031.035.065.056.096.094.137.2.265.317.384.027.027.058.05.086.076.093.087.191.169.295.244.046.033.094.061.142.091a2.809 2.809 0 0 0 .46.232c.109.042.221.076.337.105.052.013.103.029.156.039.169.032.343.053.521.053h4.387c.179 0 .352-.021.521-.053.053-.01.104-.026.156-.039a2.744 2.744 0 0 0 .501-.176c.102-.048.2-.101.296-.161.048-.03.096-.058.142-.091.104-.074.202-.156.295-.244.028-.026.059-.049.086-.076.117-.118.222-.246.317-.384.021-.031.037-.064.056-.096.069-.109.132-.222.185-.341.024-.053.042-.107.063-.161.023-.06.051-.117.07-.179h.133c-.059 1-.028 2.009.09 3H7.912c.118-.991.149-2 .09-3h.133zm41.881-2v1.193a.808.808 0 0 1-.807.807h-4.387a.808.808 0 0 1-.807-.807v-4.386c0-.445.362-.807.807-.807h4.387c.445 0 .807.362.807.807v3.193zm4.148-4.944c-.028.04-.055.08-.081.122-.203.32-.386.656-.559 1.001-.038.076-.072.155-.109.232a13.349 13.349 0 0 0-.458 1.085c-.297.801-.528 1.64-.685 2.505h-.255v-6.234l2.147 1.289zm-44.148-8.236a3.823 3.823 0 0 1 3.819-3.819h32.361a3.823 3.823 0 0 1 3.819 3.819V26.135c-.052-.016-.107-.023-.161-.036-.047-.011-.092-.022-.139-.031a2.818 2.818 0 0 0-.506-.051h-4.387a2.81 2.81 0 0 0-2.807 2.807v3.193h-24v-3.193a2.81 2.81 0 0 0-2.807-2.807h-4.387c-.173 0-.341.021-.506.051-.047.009-.093.02-.139.031-.053.013-.109.02-.161.036V18.836zm-2 6.947v6.234h-.255a15.015 15.015 0 0 0-.685-2.505l-.061-.162a12.88 12.88 0 0 0-.397-.923c-.037-.077-.071-.156-.109-.232a11.57 11.57 0 0 0-.559-1.001 2.579 2.579 0 0 0-.081-.122l2.147-1.289zm-4.243 2.481c.122-.193.225-.244.242-.247.01.001.041.015.085.052a.87.87 0 0 1 .16.194c.259.41.479.858.681 1.318.07.161.134.329.198.497.117.306.219.62.313.941.062.213.127.422.179.642.069.29.116.589.166.886.033.198.078.39.103.593.025.204.035.412.052.619a15.308 15.308 0 0 1 .055 1.62c-.008.313-.03.625-.057.936a14.868 14.868 0 0 1-.293 1.925c-.04.179-.077.361-.124.536a12.085 12.085 0 0 1-.602 1.698c-.189.426-.394.84-.632 1.223l-.056.095c-.113.167-.208.222-.224.225-.021-.003-.124-.054-.246-.247-2.358-3.724-2.358-9.783 0-13.506zm6.243 16.752h-2v-2h2v2zm42 0h-2v-2h2v2zm4.244-3.247c-.122.193-.225.244-.242.247-.02-.003-.115-.058-.228-.225l-.056-.094a9.995 9.995 0 0 1-.632-1.223 12.024 12.024 0 0 1-.601-1.698c-.047-.174-.084-.356-.124-.535a15.337 15.337 0 0 1-.294-1.92 15.525 15.525 0 0 1-.057-.941 14.837 14.837 0 0 1 .055-1.622c.017-.206.027-.413.052-.617.025-.202.069-.393.102-.59.05-.298.097-.598.166-.889.052-.22.117-.429.179-.642.094-.321.196-.636.313-.942.064-.167.127-.335.198-.495.202-.46.422-.908.681-1.318.121-.191.222-.242.242-.246.022.004.123.055.245.246 2.359 3.722 2.359 9.781.001 13.504z"/><path d="M34.309 25.724a.997.997 0 0 0 1.414 0l.92-.92c.433.213.901.332 1.373.332s.94-.12 1.373-.332l.92.92a.997.997 0 0 0 1.414 0 .999.999 0 0 0 0-1.414l-.919-.919a3.112 3.112 0 0 0 0-2.747l.919-.919a.999.999 0 1 0-1.414-1.414l-.92.92a3.119 3.119 0 0 0-2.747 0l-.92-.92a.999.999 0 1 0-1.414 1.414l.92.92a3.112 3.112 0 0 0 0 2.747l-.92.92a1 1 0 0 0 .001 1.412zm4.5-4.5a1.121 1.121 0 1 1-1.586 1.586 1.121 1.121 0 0 1 1.586-1.586zM18.309 25.724a.997.997 0 0 0 1.414 0l.92-.92c.433.213.901.332 1.373.332s.94-.12 1.373-.332l.92.92a.997.997 0 0 0 1.414 0 .999.999 0 0 0 0-1.414l-.919-.919a3.112 3.112 0 0 0 0-2.747l.919-.919a.999.999 0 1 0-1.414-1.414l-.92.92a3.119 3.119 0 0 0-2.747 0l-.92-.92a.999.999 0 1 0-1.414 1.414l.92.92a3.112 3.112 0 0 0 0 2.747l-.92.92a1 1 0 0 0 .001 1.412zm4.5-4.5a1.121 1.121 0 1 1-1.586 1.586 1.121 1.121 0 0 1 1.586-1.586z"/></svg>