<svg xmlns="http://www.w3.org/2000/svg" viewBox="0 0 60 60" style="enable-background:new 0 0 60 60" xml:space="preserve"><circle cx="25" cy="19.5" r="1"/><circle cx="27" cy="22.5" r="1"/><circle cx="31" cy="22.5" r="1"/><circle cx="29" cy="19.5" r="1"/><circle cx="33" cy="19.5" r="1"/><path d="M57.556 20.681c-.049-.033-.094-.07-.149-.094L51 17.739v-5.305A2.937 2.937 0 0 0 48.066 9.5H11.934A2.937 2.937 0 0 0 9 12.434v5.305l-6.406 2.847c-.05.022-.09.059-.135.09C1.039 21.123 0 22.435 0 24v10.772c0 5.599 4.313 10.203 9.79 10.68l-.77 3.851A.998.998 0 0 0 10 50.5h2c.265 0 .52-.105.707-.293l4.707-4.707h27.172l4.707 4.707A.997.997 0 0 0 50 50.5h2a.998.998 0 0 0 .98-1.196l-.841-4.205C56.665 43.841 60 39.693 60 34.772V24c0-1.559-1.032-2.868-2.444-3.319zM10.728 38.5A3.732 3.732 0 0 1 7 34.772v-.134c.156-.16.308-.324.477-.467l.025-.023a6.818 6.818 0 0 1 .915-.644 6.998 6.998 0 0 1 1.817-.766l.041-.011a7.3 7.3 0 0 1 .806-.158l.081-.012c.283-.037.563-.057.838-.057h14.75c1.24 0 2.25 1.009 2.25 2.25v3.75H10.728zM31 34.75c0-1.24 1.009-2.25 2.25-2.25H48c.275 0 .555.02.838.056.028.003.055.009.082.013.266.037.535.089.804.158l.043.011a7.035 7.035 0 0 1 1.968.859c.264.167.52.347.759.548l.041.038c.164.14.313.299.464.454v.135a3.732 3.732 0 0 1-3.728 3.728H31v-3.75zm20-14.823 3.211 1.427c-.029.025-.051.058-.079.084a3.547 3.547 0 0 0-.284.304c-.063.073-.127.144-.183.222a3.538 3.538 0 0 0-.226.374c-.043.08-.092.155-.129.238-.067.15-.115.309-.16.469-.021.072-.05.14-.066.214-.053.24-.084.487-.084.741v8.026c-.056-.038-.119-.066-.176-.102a9.336 9.336 0 0 0-.634-.369c-.087-.046-.173-.093-.262-.136a8.849 8.849 0 0 0-.852-.362c-.026-.009-.05-.023-.076-.032V19.927zm-40-7.493c0-.515.419-.934.934-.934h36.132c.515 0 .934.419.934.934v18.124a8.991 8.991 0 0 0-1-.058H33.25a4.21 4.21 0 0 0-.904.102c-.097.021-.186.059-.28.087-.19.056-.379.113-.557.194-.104.047-.198.107-.298.162a4.243 4.243 0 0 0-.452.278c-.096.07-.183.148-.273.225a4.554 4.554 0 0 0-.369.353c-.037.041-.083.072-.119.114-.035-.042-.082-.073-.119-.114a4.103 4.103 0 0 0-.369-.353c-.09-.078-.177-.155-.273-.225a4.243 4.243 0 0 0-.452-.278c-.099-.055-.194-.115-.298-.162a4.213 4.213 0 0 0-.557-.194c-.094-.028-.183-.066-.28-.087a4.21 4.21 0 0 0-.904-.102H12c-.336 0-.669.021-1 .058V12.434zm-2 7.493v11.098c-.02.007-.038.017-.057.024a8.946 8.946 0 0 0-.874.371c-.086.042-.169.087-.253.131a9.104 9.104 0 0 0-.648.377c-.054.035-.114.062-.168.098V24c0-.253-.03-.499-.082-.738-.017-.08-.049-.152-.072-.23a3.452 3.452 0 0 0-.155-.453c-.039-.086-.089-.164-.134-.247a3.555 3.555 0 0 0-.221-.366c-.058-.081-.124-.153-.188-.228a3.256 3.256 0 0 0-.278-.297c-.029-.027-.051-.06-.081-.086L9 19.927zM11.586 48.5h-.366l.6-3h2.766l-3 3zm38.594-3 .6 3h-.366l-3-3h2.766zM58 34.772c0 4.813-3.916 8.728-8.728 8.728H10.728C5.916 43.5 2 39.584 2 34.772V24c0-.827.673-1.5 1.5-1.5S5 23.173 5 24v10.772a5.734 5.734 0 0 0 5.728 5.728h38.544A5.734 5.734 0 0 0 55 34.772V24c0-.827.673-1.5 1.5-1.5s1.5.673 1.5 1.5v10.772z"/></svg>