<?xml version="1.0" encoding="iso-8859-1"?>
<!-- Generator: Adobe Illustrator 18.0.0, SVG Export Plug-In . SVG Version: 6.00 Build 0)  -->
<!DOCTYPE svg PUBLIC "-//W3C//DTD SVG 1.1//EN" "http://www.w3.org/Graphics/SVG/1.1/DTD/svg11.dtd">
<svg version="1.1" id="Capa_1" xmlns="http://www.w3.org/2000/svg" xmlns:xlink="http://www.w3.org/1999/xlink" x="0px" y="0px"
	 viewBox="0 0 60 60" style="enable-background:new 0 0 60 60;" xml:space="preserve">
<g>
	<path d="M60,26c0-1.474-0.81-2.75-2-3.444v-2.634C58,15.002,53.998,11,49.078,11h-14.25c-1.773,0-3.456,0.585-4.828,1.665
		C28.628,11.585,26.945,11,25.172,11h-14.25C6.002,11,2,15.002,2,19.922v2.634C0.81,23.25,0,24.526,0,26v20h1v3h6v-3h1h44h1v3h6v-3
		h1V26z M8,30h17.172c1.556,0,3.02,0.606,4.12,1.706c0,0,0.001,0.001,0.001,0.001L30,32.415l0.706-0.707
		c0,0,0.001-0.001,0.001-0.001c1.1-1.1,2.564-1.706,4.12-1.706H52v3H8V30z M54,35v-2v-5v-1.7c0-0.915,0.482-1.742,1.229-2.108
		c0.203-0.1,0.401-0.153,0.602-0.174c0.043-0.004,0.085-0.012,0.13-0.013c0.07-0.002,0.141,0.006,0.212,0.014
		c0.046,0.004,0.092,0.007,0.138,0.014c0.115,0.021,0.232,0.051,0.354,0.094l0.158,0.056C57.515,24.497,58,25.191,58,26v18h-4V35z
		 M49.078,13C52.895,13,56,16.105,56,19.922V22c-2.206,0-4,1.794-4,4v0.3V28H34.828c-1.364,0-2.671,0.353-3.828,1.005V14.441
		C32.062,13.513,33.404,13,34.828,13H49.078z M4,19.922C4,16.105,7.105,13,10.922,13h14.25c1.424,0,2.767,0.513,3.828,1.441v14.563
		C27.843,28.353,26.536,28,25.172,28H8v-1.7V26c0-2.206-1.794-4-4-4V19.922z M2,26c0-0.809,0.485-1.503,1.177-1.818l0.158-0.056
		c0.122-0.044,0.239-0.073,0.353-0.094c0.046-0.007,0.092-0.01,0.139-0.014c0.071-0.007,0.142-0.015,0.212-0.014
		c0.044,0.001,0.086,0.009,0.129,0.013c0.201,0.022,0.4,0.075,0.603,0.174C5.518,24.558,6,25.385,6,26.3V28v5v2v9H2V26z M5,47H3v-1
		h2V47z M52,44H8v-9h44V44z M57,47h-2v-1h2V47z"/>
	<path d="M14.293,22.707C14.488,22.902,14.744,23,15,23s0.512-0.098,0.707-0.293L17,21.414l1.293,1.293
		C18.488,22.902,18.744,23,19,23s0.512-0.098,0.707-0.293c0.391-0.391,0.391-1.023,0-1.414L18.414,20l1.293-1.293
		c0.391-0.391,0.391-1.023,0-1.414s-1.023-0.391-1.414,0L17,18.586l-1.293-1.293c-0.391-0.391-1.023-0.391-1.414,0
		s-0.391,1.023,0,1.414L15.586,20l-1.293,1.293C13.902,21.684,13.902,22.316,14.293,22.707z"/>
	<path d="M40.293,22.707C40.488,22.902,40.744,23,41,23s0.512-0.098,0.707-0.293L43,21.414l1.293,1.293
		C44.488,22.902,44.744,23,45,23s0.512-0.098,0.707-0.293c0.391-0.391,0.391-1.023,0-1.414L44.414,20l1.293-1.293
		c0.391-0.391,0.391-1.023,0-1.414s-1.023-0.391-1.414,0L43,18.586l-1.293-1.293c-0.391-0.391-1.023-0.391-1.414,0
		s-0.391,1.023,0,1.414L41.586,20l-1.293,1.293C39.902,21.684,39.902,22.316,40.293,22.707z"/>
</g>
<g>
</g>
<g>
</g>
<g>
</g>
<g>
</g>
<g>
</g>
<g>
</g>
<g>
</g>
<g>
</g>
<g>
</g>
<g>
</g>
<g>
</g>
<g>
</g>
<g>
</g>
<g>
</g>
<g>
</g>
</svg>
