<svg xmlns="http://www.w3.org/2000/svg" viewBox="0 0 60.001 60.001" style="enable-background:new 0 0 60.001 60.001" xml:space="preserve"><path d="M59.993 34.964a.987.987 0 0 0-.062-.307c-.008-.022-.013-.044-.023-.066-.005-.012-.007-.025-.013-.037l-1.476-2.953c.804-.7 1.365-1.646 1.531-2.724.324-2.108-.907-4.089-2.949-4.897v-9.225A5.762 5.762 0 0 0 51.246 9H8.756a5.762 5.762 0 0 0-5.755 5.755v9.225c-2.042.808-3.273 2.79-2.949 4.898.166 1.077.726 2.024 1.531 2.723L.107 34.554c-.006.012-.008.025-.013.038-.01.021-.015.044-.023.066a.993.993 0 0 0-.062.308c0 .013-.007.024-.007.037v8a1 1 0 0 0 1 1v7h2.58l4.001-7H52.42l4.001 7h2.58v-7a1 1 0 0 0 1-1v-8c0-.015-.007-.026-.008-.039zm-2.02-6.391c-.119.775-.613 1.432-1.306 1.835-.007.004-.015.003-.021.007-.183.104-.37.186-.561.251-.018.006-.035.013-.053.018a2.958 2.958 0 0 1-.593.127 35.21 35.21 0 0 1-13.638-1.242l-1.039-.306a1.256 1.256 0 0 1-.268-.114l-.044-.028a1.02 1.02 0 0 1-.166-.127l-.015-.014a.904.904 0 0 1-.174-1.025.905.905 0 0 1 .24-.302l.005-.003c.104-.085.231-.154.377-.203l4.459-1.506c.047-.016.095-.026.141-.042.391-.128.787-.245 1.186-.346.213-.053.429-.092.644-.138.234-.05.468-.103.704-.144.265-.045.532-.077.799-.11.186-.023.372-.05.559-.068.295-.028.592-.043.889-.056.158-.007.317-.016.475-.019a18.84 18.84 0 0 1 1.063.011l.197.007c.399.02.797.054 1.194.1l.11.012c.429.053.856.12 1.28.203l.017.003c.437.086.871.189 1.301.308h.006c.087.024.177.042.263.067 1.334.394 2.162 1.59 1.969 2.844zM8.756 11.001h42.49a3.76 3.76 0 0 1 3.755 3.755v8.668c-.295-.061-.593-.105-.891-.153-.15-.024-.299-.056-.449-.077-.147-.02-.294-.031-.441-.048a20.559 20.559 0 0 0-1.078-.101c-.091-.005-.182-.007-.273-.011a19.429 19.429 0 0 0-1.254-.023l-.201.005c-.435.011-.869.035-1.303.074l-.198.018c-.422.042-.842.099-1.261.168l-.245.039c-.395.071-.787.155-1.178.25-.098.023-.196.042-.294.067-.445.115-.887.244-1.326.39l-.074.022-4.459 1.506a3.39 3.39 0 0 0-.523.233c-.048.026-.092.056-.138.085a2.889 2.889 0 0 0-.458.341c-.112.101-.214.21-.308.325-.019.024-.041.045-.059.069a2.83 2.83 0 0 0-.562 1.395H21.975a2.822 2.822 0 0 0-.562-1.395c-.018-.024-.04-.046-.06-.07a3.036 3.036 0 0 0-.435-.434 3.247 3.247 0 0 0-.33-.232c-.046-.029-.091-.059-.139-.085a3.247 3.247 0 0 0-.523-.233l-4.459-1.506-.076-.022a19.521 19.521 0 0 0-1.321-.389c-.102-.026-.206-.046-.309-.071a20.242 20.242 0 0 0-1.159-.246c-.088-.016-.176-.028-.264-.042a19.875 19.875 0 0 0-1.238-.165l-.219-.02a19.556 19.556 0 0 0-1.281-.073l-.219-.006c-.412-.006-.823.002-1.235.022-.096.004-.193.006-.289.012-.355.022-.71.058-1.065.1-.15.017-.301.028-.451.049-.15.021-.299.052-.448.077-.298.047-.596.092-.892.153v-8.668a3.758 3.758 0 0 1 3.755-3.753zM3.999 25.73c.087-.026.176-.043.263-.067h.006c.431-.119.866-.222 1.304-.309l.006-.001c.428-.084.859-.152 1.291-.205l.101-.011c.399-.047.799-.08 1.2-.1l.199-.007c.352-.014.705-.017 1.057-.011.163.003.327.012.49.02.291.013.581.028.871.055.198.019.394.046.591.071.256.032.512.062.766.105.252.043.5.099.75.153.201.043.403.079.601.129.404.102.804.22 1.199.35.044.014.089.024.133.039l4.46 1.506c.146.049.272.118.376.203l.005.003a.895.895 0 0 1 .244.31c.1.214.112.465.029.691a.925.925 0 0 1-.207.326l-.015.014a1.02 1.02 0 0 1-.166.127l-.044.028a1.256 1.256 0 0 1-.268.114l-1.039.306A35.104 35.104 0 0 1 8.02 31.002a34.827 34.827 0 0 1-1.479-.046 36.527 36.527 0 0 1-1.976-.145l-.006-.001a2.981 2.981 0 0 1-.587-.125l-.054-.019a3.172 3.172 0 0 1-.561-.251c-.007-.004-.015-.003-.021-.007-.693-.403-1.187-1.06-1.306-1.834-.194-1.255.634-2.451 1.969-2.844zm.357 7.07c.636.066 1.271.115 1.905.149.172.009.343.009.515.016.461.018.922.035 1.382.036.036 0 .071.003.107.003.085 0 .168-.008.253-.009a37.418 37.418 0 0 0 2.093-.075c.181-.011.362-.022.543-.036a37.02 37.02 0 0 0 2.374-.256c.055-.008.11-.019.166-.027a37.65 37.65 0 0 0 2.761-.52 37.41 37.41 0 0 0 2.31-.591l1.039-.306c.172-.051.335-.115.491-.189.028-.013.053-.031.081-.045.128-.066.252-.136.368-.217.02-.014.038-.031.057-.045.12-.088.233-.182.336-.284.012-.012.023-.026.036-.038.107-.11.205-.226.293-.351l.011-.013h17.049l.011.013c.088.124.186.241.293.351.012.013.023.026.036.038.104.102.216.196.336.284l.058.046a3.1 3.1 0 0 0 .367.216c.028.014.053.032.081.045.156.074.319.138.49.189l1.039.306a37.023 37.023 0 0 0 2.91.721c.695.145 1.393.274 2.093.379.084.013.168.03.252.042.774.111 1.552.19 2.332.251.199.016.398.027.598.04.674.042 1.35.067 2.028.072.096.001.191.01.287.01l.12-.003c.43-.001.86-.017 1.291-.034.2-.008.4-.008.601-.019a37.4 37.4 0 0 0 1.854-.145l.043-.003c.335-.035.655-.111.965-.205.021-.006.042-.007.063-.013l.709 1.419H2.619l.709-1.419c.021.007.042.007.063.013.311.093.63.169.965.204zM3.001 47.985v-3.984h2.276l-2.276 3.984zm5.723-5.984H2.001v-6h56v6H8.724zm48.277 5.984-2.276-3.984h2.276v3.984z"/></svg>