<?xml version="1.0" encoding="iso-8859-1"?>
<!-- Generator: Adobe Illustrator 18.0.0, SVG Export Plug-In . SVG Version: 6.00 Build 0)  -->
<!DOCTYPE svg PUBLIC "-//W3C//DTD SVG 1.1//EN" "http://www.w3.org/Graphics/SVG/1.1/DTD/svg11.dtd">
<svg version="1.1" id="Capa_1" xmlns="http://www.w3.org/2000/svg" xmlns:xlink="http://www.w3.org/1999/xlink" x="0px" y="0px"
	 viewBox="0 0 60.001 60.001" style="enable-background:new 0 0 60.001 60.001;" xml:space="preserve">
<path d="M59.993,34.964c-0.004-0.105-0.025-0.207-0.062-0.307c-0.008-0.022-0.013-0.044-0.023-0.066
	c-0.005-0.012-0.007-0.025-0.013-0.037l-1.476-2.953c0.804-0.7,1.365-1.646,1.531-2.724c0.324-2.108-0.907-4.089-2.949-4.897v-9.225
	c0-3.173-2.582-5.755-5.755-5.755H8.756c-3.173,0-5.755,2.582-5.755,5.755v9.225c-2.042,0.808-3.273,2.79-2.949,4.898
	c0.166,1.077,0.726,2.024,1.531,2.723l-1.476,2.953c-0.006,0.012-0.008,0.025-0.013,0.038c-0.01,0.021-0.015,0.044-0.023,0.066
	c-0.037,0.1-0.058,0.203-0.062,0.308c0,0.013-0.007,0.024-0.007,0.037v8c0,0.552,0.447,1,1,1v7h2.58l4.001-7H52.42l4.001,7h2.58v-7
	c0.553,0,1-0.448,1-1v-8C60.001,34.988,59.994,34.977,59.993,34.964z M57.973,28.573c-0.119,0.775-0.613,1.432-1.306,1.835
	c-0.007,0.004-0.015,0.003-0.021,0.007c-0.183,0.104-0.37,0.186-0.561,0.251c-0.018,0.006-0.035,0.013-0.053,0.018
	c-0.194,0.062-0.392,0.106-0.593,0.127c-4.617,0.479-9.207,0.062-13.638-1.242l-1.039-0.306c-0.104-0.031-0.191-0.07-0.268-0.114
	c-0.016-0.009-0.029-0.019-0.044-0.028c-0.063-0.04-0.12-0.082-0.166-0.127c-0.005-0.005-0.01-0.009-0.015-0.014
	c-0.106-0.108-0.17-0.225-0.207-0.326c0,0,0,0,0,0c-0.083-0.226-0.071-0.478,0.029-0.691c0.001-0.003,0.002-0.005,0.004-0.008
	c0.056-0.115,0.137-0.217,0.24-0.302c0.001-0.001,0.003-0.002,0.005-0.003c0.104-0.085,0.231-0.154,0.377-0.203l4.459-1.506
	c0.047-0.016,0.095-0.026,0.141-0.042c0.391-0.128,0.787-0.245,1.186-0.346c0.213-0.053,0.429-0.092,0.644-0.138
	c0.234-0.05,0.468-0.103,0.704-0.144c0.265-0.045,0.532-0.077,0.799-0.11c0.186-0.023,0.372-0.05,0.559-0.068
	c0.295-0.028,0.592-0.043,0.889-0.056c0.158-0.007,0.317-0.016,0.475-0.019c0.354-0.006,0.709-0.003,1.063,0.011
	c0.065,0.003,0.131,0.004,0.197,0.007c0.399,0.02,0.797,0.054,1.194,0.1c0.037,0.004,0.073,0.007,0.11,0.012
	c0.429,0.053,0.856,0.12,1.28,0.203c0.006,0.001,0.012,0.002,0.017,0.003c0.437,0.086,0.871,0.189,1.301,0.308
	c0.002,0.001,0.004,0,0.006,0c0.087,0.024,0.177,0.042,0.263,0.067C57.338,26.123,58.166,27.319,57.973,28.573z M8.756,11.001h42.49
	c2.07,0,3.755,1.685,3.755,3.755v8.668c-0.295-0.061-0.593-0.105-0.891-0.153c-0.15-0.024-0.299-0.056-0.449-0.077
	c-0.147-0.02-0.294-0.031-0.441-0.048c-0.359-0.042-0.718-0.078-1.078-0.101c-0.091-0.005-0.182-0.007-0.273-0.011
	c-0.418-0.021-0.836-0.029-1.254-0.023c-0.067,0.001-0.134,0.003-0.201,0.005c-0.435,0.011-0.869,0.035-1.303,0.074
	c-0.066,0.006-0.132,0.012-0.198,0.018c-0.422,0.042-0.842,0.099-1.261,0.168c-0.082,0.013-0.163,0.025-0.245,0.039
	c-0.395,0.071-0.787,0.155-1.178,0.25c-0.098,0.023-0.196,0.042-0.294,0.067c-0.445,0.115-0.887,0.244-1.326,0.39
	c-0.024,0.008-0.05,0.014-0.074,0.022l-4.459,1.506c-0.186,0.063-0.358,0.144-0.523,0.233c-0.048,0.026-0.092,0.056-0.138,0.085
	c-0.117,0.071-0.227,0.148-0.331,0.233c-0.044,0.035-0.086,0.071-0.127,0.108c-0.112,0.101-0.214,0.21-0.308,0.325
	c-0.019,0.024-0.041,0.045-0.059,0.069c-0.307,0.403-0.502,0.879-0.562,1.395H21.975c-0.06-0.517-0.255-0.993-0.562-1.395
	c-0.018-0.024-0.04-0.046-0.06-0.07c-0.094-0.115-0.196-0.224-0.307-0.325c-0.042-0.038-0.084-0.073-0.128-0.109
	c-0.104-0.084-0.214-0.16-0.33-0.232c-0.046-0.029-0.091-0.059-0.139-0.085c-0.165-0.09-0.338-0.171-0.523-0.233l-4.459-1.506
	c-0.025-0.008-0.051-0.014-0.076-0.022c-0.437-0.146-0.878-0.275-1.321-0.389c-0.102-0.026-0.206-0.046-0.309-0.071
	c-0.385-0.093-0.771-0.176-1.159-0.246c-0.088-0.016-0.176-0.028-0.264-0.042c-0.411-0.068-0.824-0.123-1.238-0.165
	c-0.073-0.007-0.146-0.014-0.219-0.02c-0.426-0.038-0.853-0.063-1.281-0.073c-0.073-0.002-0.146-0.005-0.219-0.006
	c-0.412-0.006-0.823,0.002-1.235,0.022c-0.096,0.004-0.193,0.006-0.289,0.012c-0.355,0.022-0.71,0.058-1.065,0.1
	c-0.15,0.017-0.301,0.028-0.451,0.049c-0.15,0.021-0.299,0.052-0.448,0.077c-0.298,0.047-0.596,0.092-0.892,0.153v-8.668
	C5.001,12.685,6.685,11.001,8.756,11.001z M3.999,25.73c0.087-0.026,0.176-0.043,0.263-0.067c0.002-0.001,0.004,0,0.006,0
	c0.431-0.119,0.866-0.222,1.304-0.309c0.002,0,0.004-0.001,0.006-0.001c0.428-0.084,0.859-0.152,1.291-0.205
	c0.034-0.004,0.067-0.007,0.101-0.011c0.399-0.047,0.799-0.08,1.2-0.1c0.066-0.003,0.133-0.004,0.199-0.007
	c0.352-0.014,0.705-0.017,1.057-0.011c0.163,0.003,0.327,0.012,0.49,0.02c0.291,0.013,0.581,0.028,0.871,0.055
	c0.198,0.019,0.394,0.046,0.591,0.071c0.256,0.032,0.512,0.062,0.766,0.105c0.252,0.043,0.5,0.099,0.75,0.153
	c0.201,0.043,0.403,0.079,0.601,0.129c0.404,0.102,0.804,0.22,1.199,0.35c0.044,0.014,0.089,0.024,0.133,0.039l4.46,1.506
	c0.146,0.049,0.272,0.118,0.376,0.203c0.001,0.001,0.003,0.002,0.005,0.003c0.103,0.085,0.184,0.186,0.24,0.302
	c0.001,0.003,0.002,0.006,0.004,0.008c0.1,0.214,0.112,0.465,0.029,0.691c0,0,0,0,0,0c-0.037,0.101-0.101,0.217-0.207,0.326
	c-0.005,0.005-0.01,0.009-0.015,0.014c-0.046,0.045-0.103,0.087-0.166,0.127c-0.015,0.009-0.028,0.019-0.044,0.028
	c-0.077,0.044-0.164,0.083-0.268,0.114l-1.039,0.306c-3.323,0.978-6.736,1.457-10.182,1.433c-0.492-0.003-0.986-0.022-1.479-0.046
	c-0.658-0.032-1.317-0.077-1.976-0.145c-0.002,0-0.004-0.001-0.006-0.001c-0.199-0.021-0.394-0.064-0.587-0.125
	c-0.018-0.006-0.036-0.013-0.054-0.019c-0.191-0.065-0.378-0.146-0.561-0.251c-0.007-0.004-0.015-0.003-0.021-0.007
	c-0.693-0.403-1.187-1.06-1.306-1.834C1.836,27.319,2.664,26.123,3.999,25.73z M4.356,32.8c0.636,0.066,1.271,0.115,1.905,0.149
	c0.172,0.009,0.343,0.009,0.515,0.016c0.461,0.018,0.922,0.035,1.382,0.036c0.036,0,0.071,0.003,0.107,0.003
	c0.085,0,0.168-0.008,0.253-0.009c0.699-0.005,1.397-0.031,2.093-0.075c0.181-0.011,0.362-0.022,0.543-0.036
	c0.794-0.062,1.586-0.143,2.374-0.256c0.055-0.008,0.11-0.019,0.166-0.027c0.729-0.108,1.455-0.243,2.178-0.394
	c0.195-0.041,0.389-0.082,0.583-0.126c0.774-0.175,1.545-0.366,2.31-0.591l1.039-0.306c0.172-0.051,0.335-0.115,0.491-0.189
	c0.028-0.013,0.053-0.031,0.081-0.045c0.128-0.066,0.252-0.136,0.368-0.217c0.02-0.014,0.038-0.031,0.057-0.045
	c0.12-0.088,0.233-0.182,0.336-0.284c0.012-0.012,0.023-0.026,0.036-0.038c0.107-0.11,0.205-0.226,0.293-0.351
	c0.003-0.005,0.007-0.008,0.011-0.013h17.049c0.003,0.005,0.007,0.008,0.011,0.013c0.088,0.124,0.186,0.241,0.293,0.351
	c0.012,0.013,0.023,0.026,0.036,0.038c0.104,0.102,0.216,0.196,0.336,0.284c0.02,0.015,0.038,0.031,0.058,0.046
	c0.115,0.08,0.239,0.151,0.367,0.216c0.028,0.014,0.053,0.032,0.081,0.045c0.156,0.074,0.319,0.138,0.49,0.189l1.039,0.306
	c0.761,0.224,1.528,0.414,2.298,0.588c0.204,0.046,0.408,0.09,0.612,0.133c0.695,0.145,1.393,0.274,2.093,0.379
	c0.084,0.013,0.168,0.03,0.252,0.042c0.774,0.111,1.552,0.19,2.332,0.251c0.199,0.016,0.398,0.027,0.598,0.04
	c0.674,0.042,1.35,0.067,2.028,0.072c0.096,0.001,0.191,0.01,0.287,0.01c0.04,0,0.08-0.003,0.12-0.003
	c0.43-0.001,0.86-0.017,1.291-0.034c0.2-0.008,0.4-0.008,0.601-0.019c0.617-0.033,1.236-0.081,1.854-0.145
	c0.014-0.001,0.029-0.002,0.043-0.003c0.335-0.035,0.655-0.111,0.965-0.205c0.021-0.006,0.042-0.007,0.063-0.013l0.709,1.419H2.619
	l0.709-1.419c0.021,0.007,0.042,0.007,0.063,0.013C3.702,32.689,4.021,32.765,4.356,32.8z M3.001,47.985v-3.984h2.276L3.001,47.985z
	 M8.724,42.001H2.001v-6h56v6h-6.724H8.724z M57.001,47.985l-2.276-3.984h2.276V47.985z"/>
<g>
</g>
<g>
</g>
<g>
</g>
<g>
</g>
<g>
</g>
<g>
</g>
<g>
</g>
<g>
</g>
<g>
</g>
<g>
</g>
<g>
</g>
<g>
</g>
<g>
</g>
<g>
</g>
<g>
</g>
</svg>
