<svg xmlns="http://www.w3.org/2000/svg" viewBox="0 0 60 60" style="enable-background:new 0 0 60 60" xml:space="preserve"><path d="M60 21.5h-2v-12h-6v2h-4v10H31v-2h12V.5H17v19h12v2H11c1.654 0 3-1.346 3-3s-1.346-3-3-3h-1v-1H3v7H0v6h1v32h18v-24h22v24h18v-32h1v-6zm-41-19h22v15H19v-15zm37 9v10h-2v-10h2zm-6 2h2v8h-2v-8zm-39 4a1 1 0 0 1 0 2h-1v-2h1zm-6-1h3v5H5v-5zm-3 7h56v2H2v-2zm1 4h14v6H3v-6zm14 30H3v-6h14v6zm0-8H3v-6h14v6zm0-8H3v-6h14v6zm2-8v-6h22v6H19zm38 24H43v-6h14v6zm0-8H43v-6h14v6zm0-8H43v-6h14v6zm0-8H43v-6h14v6z"/><path d="M32 29.5h-4a1 1 0 1 0 0 2h4a1 1 0 1 0 0-2zM8 39.5h4a1 1 0 1 0 0-2H8a1 1 0 1 0 0 2zM8 47.5h4a1 1 0 1 0 0-2H8a1 1 0 1 0 0 2zM8 55.5h4a1 1 0 1 0 0-2H8a1 1 0 1 0 0 2zM48 39.5h4a1 1 0 1 0 0-2h-4a1 1 0 1 0 0 2zM48 47.5h4a1 1 0 1 0 0-2h-4a1 1 0 1 0 0 2zM48 55.5h4a1 1 0 1 0 0-2h-4a1 1 0 1 0 0 2zM6.463 13.578a1 1 0 0 0 .811-1.827c1.283-.55 1.477-1.368 1.477-1.811 0-.447-.197-1.279-1.521-1.828a1 1 0 0 0-.811 1.828c-1.284.549-1.478 1.367-1.478 1.81 0 .447.198 1.279 1.522 1.828z"/></svg>