<svg xmlns="http://www.w3.org/2000/svg" viewBox="0 0 60 60" style="enable-background:new 0 0 60 60" xml:space="preserve"><path d="M59 28h-1v-9h-8v9H33v-3h12.658A2.345 2.345 0 0 0 48 22.658V2.342A2.345 2.345 0 0 0 45.658 0H14.342A2.345 2.345 0 0 0 12 2.342V22.658A2.345 2.345 0 0 0 14.342 25H27v3H1a1 1 0 0 0-1 1v4a1 1 0 0 0 1 1h1v25a1 1 0 0 0 1 1h2.513a1 1 0 0 0 .998-.934L8.182 34h43.637l1.671 25.066a.999.999 0 0 0 .997.934H57a1 1 0 0 0 1-1V34h1a1 1 0 0 0 1-1v-4a1 1 0 0 0-1-1zm-4-7h1v7h-1v-7zm-3 0h1v7h-1v-7zM14 2.342c0-.189.153-.342.342-.342h31.316c.189 0 .342.153.342.342V19H14V2.342zM14.342 23a.342.342 0 0 1-.342-.342V21h32v1.658a.342.342 0 0 1-.342.342H14.342zM29 25h2v3h-2v-3zm29 7h-1a1 1 0 0 0-1 1v25h-.577l-1.671-25.066a1 1 0 0 0-.998-.934H7.246a1 1 0 0 0-.998.934L4.577 58H4V33a1 1 0 0 0-1-1H2v-2h56v2z"/></svg>