<?xml version="1.0" encoding="iso-8859-1"?>
<!-- Generator: Adobe Illustrator 18.0.0, SVG Export Plug-In . SVG Version: 6.00 Build 0)  -->
<!DOCTYPE svg PUBLIC "-//W3C//DTD SVG 1.1//EN" "http://www.w3.org/Graphics/SVG/1.1/DTD/svg11.dtd">
<svg version="1.1" id="Capa_1" xmlns="http://www.w3.org/2000/svg" xmlns:xlink="http://www.w3.org/1999/xlink" x="0px" y="0px"
	 viewBox="0 0 60 60" style="enable-background:new 0 0 60 60;" xml:space="preserve">
<path d="M59,28h-1v-9h-3h-2h-3v9H33v-3h12.658C46.949,25,48,23.949,48,22.658V21v-2V2.342C48,1.051,46.949,0,45.658,0H14.342
	C13.051,0,12,1.051,12,2.342V19v2v1.658C12,23.949,13.051,25,14.342,25H27v3H1c-0.553,0-1,0.447-1,1v4c0,0.553,0.447,1,1,1h1v25
	c0,0.553,0.447,1,1,1h2.513c0.526,0,0.963-0.408,0.998-0.934L8.182,34h43.637l1.671,25.066C53.524,59.592,53.961,60,54.487,60H57
	c0.553,0,1-0.447,1-1V34h1c0.553,0,1-0.447,1-1v-4C60,28.447,59.553,28,59,28z M55,21h1v7h-1V21z M52,21h1v7h-1V21z M14,2.342
	C14,2.153,14.153,2,14.342,2h31.316C45.847,2,46,2.153,46,2.342V19H14V2.342z M14.342,23C14.153,23,14,22.847,14,22.658V21h32v1.658
	C46,22.847,45.847,23,45.658,23H33h-6H14.342z M29,25h2v3h-2V25z M58,32h-1c-0.553,0-1,0.447-1,1v25h-0.577l-1.671-25.066
	C53.717,32.408,53.28,32,52.754,32H7.246c-0.526,0-0.963,0.408-0.998,0.934L4.577,58H4V33c0-0.553-0.447-1-1-1H2v-2h25h6h17h3h2h3
	V32z"/>
<g>
</g>
<g>
</g>
<g>
</g>
<g>
</g>
<g>
</g>
<g>
</g>
<g>
</g>
<g>
</g>
<g>
</g>
<g>
</g>
<g>
</g>
<g>
</g>
<g>
</g>
<g>
</g>
<g>
</g>
</svg>
