<?xml version="1.0" encoding="iso-8859-1"?>
<!-- Generator: Adobe Illustrator 18.0.0, SVG Export Plug-In . SVG Version: 6.00 Build 0)  -->
<!DOCTYPE svg PUBLIC "-//W3C//DTD SVG 1.1//EN" "http://www.w3.org/Graphics/SVG/1.1/DTD/svg11.dtd">
<svg version="1.1" id="Capa_1" xmlns="http://www.w3.org/2000/svg" xmlns:xlink="http://www.w3.org/1999/xlink" x="0px" y="0px"
	 viewBox="0 0 60.001 60.001" style="enable-background:new 0 0 60.001 60.001;" xml:space="preserve">
<g>
	<path d="M59,36.922v-8v-2v-6c0.553,0,1-0.447,1-1s-0.447-1-1-1h-1v-9h-3h-2h-3v1h-4.693l-3,8H41H19h-5.101
		c-0.395-1.938-1.916-3.467-3.846-3.884c0.345-3.185,2.534-5.84,5.616-6.768l1.459,3.403l5.623-5.623l-6.93-2.971l-1.664,1.664
		l0.719,1.677c-3.808,1.239-6.483,4.6-6.835,8.599c-1.975,0.386-3.538,1.934-3.94,3.903H1c-0.553,0-1,0.447-1,1s0.447,1,1,1v6v2v8
		h2.321L0.015,55.749c-0.051,0.291,0.029,0.59,0.22,0.815c0.189,0.227,0.47,0.357,0.766,0.357h2.513c0.459,0,0.858-0.313,0.97-0.758
		l4.811-19.242H19v-5h22v5h9.707l4.811,19.242c0.111,0.445,0.511,0.758,0.97,0.758H59c0.296,0,0.576-0.131,0.766-0.357
		c0.19-0.226,0.271-0.524,0.22-0.815l-3.307-18.827H59z M19.249,6.723l-1.447,1.447l-1.085-2.532L19.249,6.723z M43,22.922v-2h3.693
		H50h3h2h2v6H43V22.922z M55,11.922h1v7h-1V11.922z M52,11.922h1v7h-1V11.922z M50,18.922h-2.557L50,12.104V18.922z M46.694,12.922
		h0.863l-2.25,6h-0.863L46.694,12.922z M41,20.922v2H19v-2H41z M9,16.922c1.304,0,2.416,0.836,2.829,2H6.171
		C6.584,17.758,7.697,16.922,9,16.922z M3,20.922h1h10h3v2v4H3V20.922z M2.732,54.922h-0.54l3.161-18h1.879L2.732,54.922z
		 M17,34.922H8.513h-4H3v-6h14v3V34.922z M19,29.922v-1v-2v-2h22v2v2v1H19z M43,31.922v-3h14v6h-1.513h-4H43V31.922z M57.809,54.922
		h-0.54l-4.5-18h1.879L57.809,54.922z"/>
	<path d="M12,22.922H8c-0.553,0-1,0.447-1,1s0.447,1,1,1h4c0.553,0,1-0.447,1-1S12.553,22.922,12,22.922z"/>
	<path d="M12,30.922H8c-0.553,0-1,0.447-1,1c0,0.553,0.447,1,1,1h4c0.553,0,1-0.447,1-1C13,31.369,12.553,30.922,12,30.922z"/>
	<path d="M52,22.922h-4c-0.553,0-1,0.447-1,1s0.447,1,1,1h4c0.553,0,1-0.447,1-1S52.553,22.922,52,22.922z"/>
	<path d="M53,31.922c0-0.553-0.447-1-1-1h-4c-0.553,0-1,0.447-1,1c0,0.553,0.447,1,1,1h4C52.553,32.922,53,32.474,53,31.922z"/>
</g>
<g>
</g>
<g>
</g>
<g>
</g>
<g>
</g>
<g>
</g>
<g>
</g>
<g>
</g>
<g>
</g>
<g>
</g>
<g>
</g>
<g>
</g>
<g>
</g>
<g>
</g>
<g>
</g>
<g>
</g>
</svg>
