<svg xmlns="http://www.w3.org/2000/svg" viewBox="0 0 60 60" style="enable-background:new 0 0 60 60" xml:space="preserve"><path d="M59 25v-9h-8v9h-6.791l-.295-2H49V0H11v23h4.931l-.304 2H0v10h1v25h5V39c0-2.206 1.794-4 4-4h4.109l-.042.276a3.984 3.984 0 0 0 .858 3.283 3.986 3.986 0 0 0 3.072 1.44H27v3h2v2h-2v1.204l-12.225 2.821c-.03.007-.051.027-.079.036a.993.993 0 0 0-.182.082.99.99 0 0 0-.156.105.98.98 0 0 0-.128.137.942.942 0 0 0-.107.159.913.913 0 0 0-.066.172.958.958 0 0 0-.04.2c-.003.03-.017.055-.017.085v1.051c-2.244.252-4 2.139-4 4.449 0 2.481 2.019 4.5 4.5 4.5s4.5-2.019 4.5-4.5c0-1.953-1.258-3.602-3-4.224v-.481l11-2.538v.329l-2.422 2.422c-.027-.001-.051-.008-.078-.008-2.481 0-4.5 2.019-4.5 4.5s2.019 4.5 4.5 4.5 4.5-2.019 4.5-4.5c0-1.648-.9-3.077-2.225-3.861L28.414 50h3.172l1.639 1.639C31.9 52.423 31 53.852 31 55.5c0 2.481 2.019 4.5 4.5 4.5s4.5-2.019 4.5-4.5-2.019-4.5-4.5-4.5c-.027 0-.051.007-.078.008L33 48.586v-.329l11 2.538v.481c-1.742.621-3 2.271-3 4.224 0 2.481 2.019 4.5 4.5 4.5s4.5-2.019 4.5-4.5c0-2.31-1.756-4.197-4-4.449V50c0-.03-.014-.055-.017-.084a.958.958 0 0 0-.04-.2.94.94 0 0 0-.066-.172.942.942 0 0 0-.107-.159.976.976 0 0 0-.128-.137.99.99 0 0 0-.156-.105.964.964 0 0 0-.182-.082c-.028-.009-.05-.029-.079-.036L33 46.204V45h-2v-2h2v-3h8.792a3.985 3.985 0 0 0 3.072-1.44 3.963 3.963 0 0 0 .864-3.247L45.682 35H50c2.206 0 4 1.794 4 4v21h5V35h1V25h-1zM17 55.5c0 1.379-1.122 2.5-2.5 2.5S12 56.879 12 55.5s1.122-2.5 2.5-2.5 2.5 1.121 2.5 2.5zm7.5 2.5c-1.378 0-2.5-1.121-2.5-2.5s1.122-2.5 2.5-2.5 2.5 1.121 2.5 2.5-1.122 2.5-2.5 2.5zM38 55.5c0 1.379-1.122 2.5-2.5 2.5S33 56.879 33 55.5s1.122-2.5 2.5-2.5 2.5 1.121 2.5 2.5zm10 0c0 1.379-1.122 2.5-2.5 2.5S43 56.879 43 55.5s1.122-2.5 2.5-2.5 2.5 1.121 2.5 2.5zM29 47h2v1h-2v-1zm27-29h1v7h-1v-7zm-3 0h1v7h-1v-7zm-6 3h-3.38l-.441-3H47v3zM13 2h34v14h-4.117l-.992-6.73a3.91 3.91 0 0 0-.171-.612c-.022-.061-.047-.119-.071-.178a3.994 3.994 0 0 0-.198-.412c-.03-.054-.058-.109-.091-.162a3.949 3.949 0 0 0-.36-.504l-.016-.015a3.972 3.972 0 0 0-.555-.522c-.068-.053-.14-.098-.211-.147a4.157 4.157 0 0 0-.709-.392 4.02 4.02 0 0 0-.52-.175c-.079-.021-.154-.047-.234-.063A3.855 3.855 0 0 0 37.961 6H21.946c-.272 0-.536.034-.794.086-.082.016-.159.043-.239.065a3.869 3.869 0 0 0-.775.297 3.886 3.886 0 0 0-.425.255c-.084.057-.169.111-.249.174a3.994 3.994 0 0 0-.413.389c-.046.048-.101.085-.144.136-.145.17-.269.355-.383.546l-.041.074a3.847 3.847 0 0 0-.243.51 4.12 4.12 0 0 0-.228.77L16.994 16H13V2zm0 16h3.69l-.456 3H13v-3zm-3 15c-3.309 0-6 2.691-6 6v19H3V33H2v-6h13.324l-.911 6H10zm21 8h-2v-1h2v1zm12.756-5.36a1.996 1.996 0 0 1-1.963 2.361H17.998a1.993 1.993 0 0 1-1.535-.72 2.012 2.012 0 0 1-.423-1.672l.594-3.912L17.65 25l.304-2h.001l.964-6.354 1.065-7.013a2.003 2.003 0 0 1 .193-.547c.068-.133.147-.261.244-.376l.023-.026c.082-.093.172-.176.267-.252.035-.028.074-.052.111-.077a2.018 2.018 0 0 1 .352-.193c.083-.035.169-.063.256-.086.04-.011.079-.024.12-.033.13-.026.262-.043.396-.043h16.015c.135 0 .268.017.397.043.039.008.076.021.114.031a1.962 1.962 0 0 1 .645.301c.021.015.043.028.064.044.108.083.209.176.299.281.108.126.197.267.269.411l.021.043c.069.146.121.295.148.442L40.862 16l1.031 7 .295 2h-.001l1.474 10 .095.64zM58 33h-1v25h-1V39c0-3.309-2.691-6-6-6h-4.612l-.221-1.499L44.504 27H58v6z"/><path d="M12 29H5a1 1 0 1 0 0 2h7a1 1 0 1 0 0-2zM55 29h-7a1 1 0 1 0 0 2h7a1 1 0 1 0 0-2z"/></svg>