<svg xmlns="http://www.w3.org/2000/svg" viewBox="0 0 60 60" style="enable-background:new 0 0 60 60" xml:space="preserve"><path d="M12 22H8a1 1 0 1 0 0 2h4a1 1 0 1 0 0-2zM12 30H8a1 1 0 1 0 0 2h4a1 1 0 1 0 0-2zM48 24h4a1 1 0 1 0 0-2h-4a1 1 0 1 0 0 2zM48 32h4a1 1 0 1 0 0-2h-4a1 1 0 1 0 0 2zM51.463 10.078a1 1 0 0 0 .811-1.827c1.283-.55 1.477-1.368 1.477-1.811 0-.447-.197-1.279-1.521-1.828a1 1 0 0 0-.81 1.828c-1.284.549-1.478 1.367-1.478 1.81-.001.447.197 1.279 1.521 1.828z"/><path d="m56.92 50.414-.003.002a.865.865 0 0 0-.1-.126c-.249-.268-1.46-1.824-.828-6.146.486-3.321-.158-6.231-1.246-8.145H59v-16a1 1 0 1 0 0-2h-3c1.654 0 3-1.346 3-3s-1.346-3-3-3h-1v-1h-7v7h-7v-2a1 1 0 0 0-1-1V5a1 1 0 0 0-1-1H21a1 1 0 0 0-1 1v10a1 1 0 0 0-1 1v2h-6v-6H2v6H1a1 1 0 1 0 0 2v16h4.256c-1.087 1.914-1.731 4.824-1.246 8.145.631 4.318-.58 5.877-.829 6.146a1.017 1.017 0 0 0-.099.126l-.002-.003-2.891 4A1 1 0 0 0 1 56h1c1.639 0 3.117-.671 4.395-1.992 2.634-2.729 3.693-7.515 3.604-10.043-.195-5.569 2.315-7.538 2.989-7.965H19v-5h22v5h6.01c.691.439 3.185 2.413 2.991 7.965-.089 2.528.971 7.314 3.604 10.043C54.883 55.329 56.361 56 58 56h1a1.001 1.001 0 0 0 .811-1.586l-2.891-4zM56 14a1 1 0 0 1 0 2h-1v-2h1zm-6-1h3v5h-3v-5zm-2 7h9v6H43v-6h5zm-28 0h21v2H19v-2h1zm2-14h16v9H22V6zm-1 11h18v1H21v-1zM4 14h7v1H4v-1zm0 3h7v1H4v-1zm-1 3h14v6H3v-6zm5.001 24.035c.076 2.196-.938 6.401-3.046 8.583-.582.604-1.212 1.011-1.881 1.219l1.603-2.218c.656-.727 2.025-2.886 1.313-7.764-.559-3.826.615-6.768 1.73-7.855h2.416c-1.14 1.49-2.277 4.002-2.135 8.035zM17 34H3v-6h14v6zm2-5v-5h22v5H19zm24 2v-3h14v6H43v-3zm12.045 21.618c-2.107-2.182-3.122-6.387-3.046-8.583.142-4.033-.995-6.545-2.135-8.035h2.416c1.115 1.087 2.289 4.029 1.73 7.855-.711 4.863.646 7.022 1.313 7.764l1.603 2.218c-.669-.208-1.299-.615-1.881-1.219z"/></svg>