<svg xmlns="http://www.w3.org/2000/svg" viewBox="0 0 60.001 60.001" style="enable-background:new 0 0 60.001 60.001" xml:space="preserve"><path d="M59 36.922v-16a1 1 0 1 0 0-2h-1v-9h-8v1h-4.693l-3 8H13.899a5.014 5.014 0 0 0-3.846-3.884 7.933 7.933 0 0 1 5.616-6.768l1.459 3.403 5.623-5.623-6.93-2.971-1.664 1.664.719 1.677a9.923 9.923 0 0 0-6.835 8.599 5.013 5.013 0 0 0-3.94 3.903H1a1 1 0 1 0 0 2v16h2.321L.015 55.749a.994.994 0 0 0 .22.815c.189.227.47.357.766.357h2.513c.459 0 .858-.313.97-.758l4.811-19.242H19v-5h22v5h9.707l4.811 19.242a1 1 0 0 0 .97.758H59a1 1 0 0 0 .986-1.172l-3.307-18.827H59zM19.249 6.723 17.802 8.17l-1.085-2.532 2.532 1.085zM43 22.922v-2h14v6H43v-4zm12-11h1v7h-1v-7zm-3 0h1v7h-1v-7zm-2 7h-2.557L50 12.104v6.818zm-3.306-6h.863l-2.25 6h-.863l2.25-6zm-5.694 8v2H19v-2h22zm-32-4c1.304 0 2.416.836 2.829 2H6.171a3.007 3.007 0 0 1 2.829-2zm-6 4h14v6H3v-6zm-.268 34h-.54l3.161-18h1.879l-4.5 18zm14.268-20H3v-6h14v6zm2-5v-5h22v5H19zm24 2v-3h14v6H43v-3zm14.809 23h-.54l-4.5-18h1.879l3.161 18z"/><path d="M12 22.922H8a1 1 0 1 0 0 2h4a1 1 0 1 0 0-2zM12 30.922H8a1 1 0 1 0 0 2h4a1 1 0 1 0 0-2zM52 22.922h-4a1 1 0 1 0 0 2h4a1 1 0 1 0 0-2zM53 31.922a1 1 0 0 0-1-1h-4a1 1 0 1 0 0 2h4a1 1 0 0 0 1-1z"/></svg>