<svg xmlns="http://www.w3.org/2000/svg" viewBox="0 0 59 59" style="enable-background:new 0 0 59 59" xml:space="preserve"><path d="M56.5 0h-54a1 1 0 0 0-1 1v57a1 1 0 0 0 1 1h54a1 1 0 0 0 1-1V1a1 1 0 0 0-1-1zm-53 2h52v8h-52V2zm0 55V12h52v45h-52z"/><path d="M10.5 3h-4a1 1 0 0 0-1 1v4a1 1 0 0 0 1 1h4a1 1 0 0 0 1-1V4a1 1 0 0 0-1-1zm-1 4h-2V5h2v2zM17.5 3h-4a1 1 0 0 0-1 1v4a1 1 0 0 0 1 1h4a1 1 0 0 0 1-1V4a1 1 0 0 0-1-1zm-1 4h-2V5h2v2zM53.5 3h-24a1 1 0 0 0-1 1v4a1 1 0 0 0 1 1h24a1 1 0 0 0 1-1V4a1 1 0 0 0-1-1zm-1 4h-22V5h22v2zM51.5 17h-44a1 1 0 0 0-1 1v35a1 1 0 0 0 1 1h44a1 1 0 0 0 1-1V18a1 1 0 0 0-1-1zm-1 2v13h-2v-4c0-1.859-1.279-3.411-3-3.858V22h1a1 1 0 1 0 0-2h-4a1 1 0 1 0 0 2h1v2.142c-1.721.447-3 1.999-3 3.858v4h-2v-4c0-1.859-1.279-3.411-3-3.858V22h1a1 1 0 1 0 0-2h-4a1 1 0 1 0 0 2h1v2.142c-1.721.447-3 1.999-3 3.858v4h-2v-4c0-1.859-1.279-3.411-3-3.858V22h1a1 1 0 1 0 0-2h-4a1 1 0 1 0 0 2h1v2.142c-1.721.447-3 1.999-3 3.858v4h-2v-4c0-1.859-1.279-3.411-3-3.858V22h1a1 1 0 1 0 0-2h-4a1 1 0 1 0 0 2h1v2.142c-1.721.447-3 1.999-3 3.858v4h-2V19h42zm-6 7c1.103 0 2 .897 2 2v4h-4v-4c0-1.103.897-2 2-2zm-10 0c1.103 0 2 .897 2 2v4h-4v-4c0-1.103.897-2 2-2zm-10 0c1.103 0 2 .897 2 2v4h-4v-4c0-1.103.897-2 2-2zm-10 0c1.103 0 2 .897 2 2v4h-4v-4c0-1.103.897-2 2-2zm2.182 12.831c.124.051.244.11.365.165a10.76 10.76 0 0 1 .843.426c.225.127.446.26.661.402.043.028.087.055.13.084a11.066 11.066 0 0 1 2.047 1.817 10.8 10.8 0 0 1 .644.8c.163.223.317.451.462.684l.108.177c.135.227.263.457.381.692.037.074.073.15.109.225.107.226.208.453.3.685.038.096.071.193.106.29.079.218.154.437.219.659.037.126.066.254.098.382.05.199.101.397.14.599l.002.009c.034.176.056.355.082.533.018.127.039.253.053.381.005.048.012.095.016.143.031.336.052.673.052 1.016 0 .443-.04.891-.099 1.339-.012.089-.022.179-.036.268a11.07 11.07 0 0 1-.287 1.301l-.029.092h-2.088a8.916 8.916 0 0 0 .539-3c0-4.963-4.037-9-9-9a8.893 8.893 0 0 0-4 .945v-2.183a10.924 10.924 0 0 1 8.182.069zm3.068-.616c-.025-.017-.047-.038-.073-.055.605-.106 1.214-.16 1.823-.16 1.481 0 2.892.298 4.182.831.124.051.244.11.365.165a10.76 10.76 0 0 1 .843.426c.225.127.446.26.661.402.043.028.087.055.13.084a11.066 11.066 0 0 1 2.047 1.817 10.8 10.8 0 0 1 .644.8c.163.223.317.451.462.684l.108.177c.135.227.263.457.381.692.037.074.073.15.109.225.107.226.208.453.3.685.038.096.071.193.106.29.079.218.154.437.219.659.037.126.066.254.098.382.05.199.101.397.14.599l.002.009c.034.176.056.355.082.533.018.127.039.253.053.381.005.048.012.095.016.143.031.336.052.673.052 1.016 0 .443-.04.891-.099 1.339-.012.089-.022.179-.036.268a11.07 11.07 0 0 1-.287 1.301l-.029.092h-2.088a8.916 8.916 0 0 0 .539-3c0-4.833-3.831-8.776-8.614-8.98-.025-.026-.052-.049-.077-.075-.131-.135-.268-.262-.405-.391-.198-.186-.393-.375-.603-.549-.337-.28-.687-.545-1.051-.79zm9 0c-.025-.017-.047-.038-.073-.055.605-.106 1.214-.16 1.823-.16 1.481 0 2.892.298 4.182.831.124.051.244.11.365.165a10.76 10.76 0 0 1 .843.426c.225.127.446.26.661.402.043.028.087.055.13.084a11.066 11.066 0 0 1 2.047 1.817 10.8 10.8 0 0 1 .644.8c.163.223.317.451.462.684l.108.177c.135.227.263.457.381.692.037.074.073.15.109.225.107.226.208.453.3.685.038.096.071.193.106.29.079.218.154.437.219.659.037.126.066.254.098.382.05.199.101.397.14.599l.002.009c.034.176.056.355.082.533.018.127.039.253.053.381.005.048.012.095.016.143.031.336.052.673.052 1.016 0 .443-.04.891-.099 1.339-.012.089-.022.179-.036.268a11.07 11.07 0 0 1-.287 1.301l-.029.092h-2.088a8.916 8.916 0 0 0 .539-3c0-4.833-3.831-8.776-8.614-8.98-.025-.026-.052-.049-.077-.075-.131-.135-.268-.262-.405-.391-.198-.186-.393-.375-.603-.549-.337-.28-.687-.545-1.051-.79zM8.5 52v-8.74a6.905 6.905 0 0 1 4-1.26c3.859 0 7 3.141 7 7a6.94 6.94 0 0 1-.683 3H8.5zm16.628 0c.018-.073.024-.147.041-.221a12.764 12.764 0 0 0 .247-1.438c.05-.448.084-.895.084-1.341a12.863 12.863 0 0 0-.093-1.496l-.001-.007c-.008-.067-.012-.135-.021-.203a12.444 12.444 0 0 0-.202-1.113l-.039-.163c-.033-.139-.064-.279-.101-.416-.022-.081-.047-.16-.071-.24a12.85 12.85 0 0 0-.268-.814 12.579 12.579 0 0 0-.19-.501c-.067-.161-.144-.315-.216-.473-.073-.158-.143-.317-.222-.472-.12-.236-.25-.464-.384-.691l-.04-.073c2.81.91 4.848 3.553 4.848 6.662a6.94 6.94 0 0 1-.683 3h-2.689zm9 0c.018-.073.024-.147.041-.221a12.764 12.764 0 0 0 .247-1.438c.05-.448.084-.895.084-1.341a12.863 12.863 0 0 0-.093-1.496l-.001-.007c-.008-.067-.012-.135-.021-.203a12.444 12.444 0 0 0-.202-1.113l-.039-.163c-.033-.139-.064-.279-.101-.416-.022-.081-.047-.16-.071-.24a12.85 12.85 0 0 0-.268-.814 12.579 12.579 0 0 0-.19-.501c-.067-.161-.144-.315-.216-.473-.073-.158-.143-.317-.222-.472-.12-.236-.25-.464-.384-.691l-.04-.073c2.81.91 4.848 3.553 4.848 6.662a6.94 6.94 0 0 1-.683 3h-2.689zm9 0c.018-.073.024-.147.041-.221a12.764 12.764 0 0 0 .247-1.438c.05-.448.084-.895.084-1.341a12.863 12.863 0 0 0-.093-1.496l-.001-.007c-.008-.067-.012-.135-.021-.203a12.444 12.444 0 0 0-.202-1.113l-.039-.163c-.033-.139-.064-.279-.101-.416-.022-.081-.047-.16-.071-.24a12.85 12.85 0 0 0-.268-.814 12.579 12.579 0 0 0-.19-.501c-.067-.161-.144-.315-.216-.473-.073-.158-.143-.317-.222-.472-.12-.236-.25-.464-.384-.691l-.04-.073c2.81.91 4.848 3.553 4.848 6.662a6.94 6.94 0 0 1-.683 3h-2.689zm6.93 0h-2.097a8.916 8.916 0 0 0 .539-3c0-4.833-3.831-8.776-8.614-8.98-.025-.026-.052-.049-.077-.075-.131-.135-.268-.262-.405-.391-.198-.186-.393-.375-.603-.549-.337-.28-.687-.545-1.051-.79-.025-.017-.047-.038-.073-.055.605-.106 1.214-.16 1.823-.16 6.065 0 11 4.935 11 11 0 .99-.148 1.996-.442 3zM39.5 36c-1.507 0-3.008.288-4.469.831A12.916 12.916 0 0 0 30.5 36c-1.507 0-3.008.288-4.469.831A12.916 12.916 0 0 0 21.5 36c-1.507 0-3.008.288-4.469.831A12.916 12.916 0 0 0 12.5 36c-1.367 0-2.706.219-4 .643V34h42v8.104C48.197 38.445 44.133 36 39.5 36z"/></svg>