<svg xmlns="http://www.w3.org/2000/svg" viewBox="0 0 60 60" style="enable-background:new 0 0 60 60" xml:space="preserve"><path d="M10 29.5h12v-22H10v22zm2-20h8v18h-8v-18zM37 7.5H25v22h12v-22zm-2 20h-8v-18h8v18zM10 55.5h12v-22H10v22zm2-20h8v18h-8v-18zM25 55.5h12v-22H25v22zm2-20h8v18h-8v-18zM37 30.5h-4a1 1 0 1 0 0 2h4a1 1 0 1 0 0-2z"/><path d="M57 54.5v-1h1v-5h-5v-6.295c.055-.026.11-.047.166-.075 1.611-.832 2.746-2.109 3.196-3.596a4.773 4.773 0 0 0-.18-3.182c-.213-.492-.197-1.021.04-1.347a7.64 7.64 0 0 0 .896-1.676v-.001c.451-1.142.584-2.125.407-3.008a3.256 3.256 0 0 0-.664-1.405 1.074 1.074 0 0 1-.205-.864 3.62 3.62 0 0 0-.306-2.392c-.586-1.129-1.762-1.921-3.146-2.117-1.161-.166-2.174.134-2.791.777l-.525.452c-.925.492-1.615 1.457-1.817 2.554a3.93 3.93 0 0 0 .102 1.829c.097.329.02.727-.208 1.063-1.047 1.549-1.259 3.708-.527 5.375.111.251.248.487.409.705.231.312.313.725.219 1.107a4.157 4.157 0 0 0-.105.623c-.081.893.102 1.764.25 2.464.155.735.39 1.846 1.215 2.556.44.378.979.574 1.575.607V48.5h-5v5h1v1h-3v-53c0-.016-.006-.031-.007-.047-.002-.049-.012-.097-.022-.146-.01-.049-.019-.098-.036-.145-.005-.015-.005-.031-.011-.045-.012-.03-.034-.053-.049-.081a1.065 1.065 0 0 0-.078-.13.977.977 0 0 0-.096-.107.977.977 0 0 0-.107-.096c-.041-.031-.085-.054-.13-.078-.028-.015-.051-.036-.081-.049-.015-.006-.031-.006-.046-.011a.95.95 0 0 0-.142-.035c-.051-.01-.101-.021-.152-.023C43.029.506 43.015.5 43 .5H4c-.015 0-.029.006-.044.007-.051.002-.101.012-.152.022-.048.01-.095.019-.141.035-.015.006-.031.006-.046.012-.03.013-.053.034-.081.049a1.065 1.065 0 0 0-.13.078c-.039.029-.072.062-.107.096a.977.977 0 0 0-.096.107c-.03.041-.054.085-.078.13-.015.028-.036.051-.049.081-.006.015-.006.031-.011.046-.017.046-.026.095-.036.144-.01.049-.02.097-.022.146C3.006 1.469 3 1.484 3 1.5v53H0v5h60v-5h-3zm-6.833-15.42c-.132-.628-.269-1.276-.214-1.872.01-.108.028-.217.054-.322a3.353 3.353 0 0 0-.554-2.779 1.748 1.748 0 0 1-.186-.32c-.458-1.044-.313-2.461.354-3.447.568-.839.739-1.842.469-2.752a1.97 1.97 0 0 1-.052-.897c.096-.519.424-.979.837-1.175l.911-.742c.213-.221.549-.272.818-.272.129 0 .243.013.319.023.746.105 1.363.501 1.652 1.058.153.296.201.698.126 1.051a3.044 3.044 0 0 0 .616 2.556c.119.146.209.337.247.527.099.493-.001 1.107-.306 1.88a5.61 5.61 0 0 1-.655 1.236c-.654.899-.752 2.17-.257 3.314a2.76 2.76 0 0 1 .102 1.809c-.394 1.303-1.547 2.062-2.2 2.398-.13.067-.269.129-.409.18a1.032 1.032 0 0 0-.267.072c-.333.082-.65.091-.843-.074-.313-.269-.463-.981-.562-1.452zM48 50.5h8v1h-8v-1zm-7.414-48-1 1H7.414l-1-1h34.172zM2 56.5h1v1H2v-1zm4 1H5V3.914l1 1V57.5zm2-52h31v52H8v-52zm34 52h-1V4.914l1-1V57.5zm5 0h-3v-1h3v1zm8 0h-6v-4h6v4zm3 0h-1v-1h1v1z"/></svg>