<svg xmlns="http://www.w3.org/2000/svg" viewBox="0 0 60 60" style="enable-background:new 0 0 60 60" xml:space="preserve"><path d="M50 54.5v-53c0-.016-.006-.031-.007-.047-.002-.049-.012-.097-.022-.146-.01-.049-.019-.098-.036-.145-.005-.015-.005-.031-.011-.045-.012-.03-.034-.053-.049-.081a1.065 1.065 0 0 0-.078-.13.977.977 0 0 0-.096-.107.977.977 0 0 0-.107-.096c-.041-.031-.085-.054-.13-.078-.028-.015-.051-.036-.081-.049-.015-.006-.031-.006-.046-.011-.046-.017-.093-.026-.142-.036-.051-.01-.101-.02-.152-.023C49.029.506 49.015.5 49 .5H11c-.015 0-.029.006-.044.007a.884.884 0 0 0-.153.023c-.048.01-.095.019-.14.035-.015.005-.031.005-.046.011-.03.012-.053.034-.081.049a1.065 1.065 0 0 0-.13.078.977.977 0 0 0-.107.096.977.977 0 0 0-.096.107c-.03.041-.054.085-.078.13-.015.028-.036.051-.049.081-.006.015-.006.031-.011.045-.017.047-.026.095-.036.145-.01.049-.02.097-.022.146-.001.016-.007.031-.007.047v53H0v5h60v-5H50zm-3.414-52-1 1H14.414l-1-1h33.172zM2 56.5h8v1H2v-1zm11 1h-1V3.914l1 1V57.5zm2-52h30v52H15v-52zm33 52h-1V4.914l1-1V57.5zm10 0h-8v-1h8v1z"/><path d="M40.557 27.5h-2.113A2.446 2.446 0 0 0 36 29.943v.557h-1.5c-1.378 0-2.5 1.121-2.5 2.5s1.122 2.5 2.5 2.5H36v.557a2.445 2.445 0 0 0 2.443 2.443h2.113a2.446 2.446 0 0 0 2.443-2.443v-6.113a2.445 2.445 0 0 0-2.442-2.444zm-6.057 6a.5.5 0 0 1 0-1H38v1h-3.5zm6.5 2.557a.444.444 0 0 1-.443.443h-2.113a.444.444 0 0 1-.444-.443V35.5h2v-5h-2v-.557c0-.244.199-.443.443-.443h2.113c.245 0 .443.199.443.443v6.114z"/></svg>