<svg xmlns="http://www.w3.org/2000/svg" viewBox="0 0 57 57" style="enable-background:new 0 0 57 57" xml:space="preserve"><path d="M2 57h39V0H2v57zM4 2h35v53H4V2z"/><path d="M5 54h33V3H5v51zM7 5h29v47H7V5z"/><path d="M8 28h12V6H8v22zm2-20h8v18h-8V8zM23 28h12V6H23v22zm2-20h8v18h-8V8zM8 51h12V32H8v19zm2-17h8v15h-8V34zM23 51h12V32H23v19zm2-17h8v15h-8V34zM34 29h-3a1 1 0 1 0 0 2h3a1 1 0 1 0 0-2zM43 0v57h12V0H43zm10 55h-8v-9h8v9zm0-11h-8v-9h8v9zm0-11h-8v-9h8v9zm0-11h-8v-9h8v9zm-8-11V2h8v9h-8z"/><path d="m13.293 11.293-2 2a.999.999 0 1 0 1.414 1.414l2-2a.999.999 0 1 0-1.414-1.414z"/><circle cx="16" cy="10" r="1"/><circle cx="12" cy="10" r="1"/><path d="m28.293 11.293-2 2a.999.999 0 1 0 1.414 1.414l2-2a.999.999 0 1 0-1.414-1.414z"/><circle cx="31" cy="10" r="1"/><circle cx="27" cy="10" r="1"/><path d="m13.293 37.293-2 2a.999.999 0 1 0 1.414 1.414l2-2a.999.999 0 1 0-1.414-1.414z"/><circle cx="16" cy="36" r="1"/><circle cx="12" cy="36" r="1"/><path d="m28.293 37.293-2 2a.999.999 0 1 0 1.414 1.414l2-2a.999.999 0 1 0-1.414-1.414z"/><circle cx="31" cy="36" r="1"/><circle cx="27" cy="36" r="1"/><path d="m48.293 5.293-2 2a.999.999 0 1 0 1.414 1.414l2-2a.999.999 0 1 0-1.414-1.414z"/><circle cx="51" cy="4" r="1"/><circle cx="47" cy="4" r="1"/><path d="M47 20a.997.997 0 0 0 .707-.293l2-2a.999.999 0 1 0-1.414-1.414l-2 2A.999.999 0 0 0 47 20z"/><circle cx="51" cy="15" r="1"/><circle cx="47" cy="15" r="1"/><path d="M47 31a.997.997 0 0 0 .707-.293l2-2a.999.999 0 1 0-1.414-1.414l-2 2A.999.999 0 0 0 47 31z"/><circle cx="51" cy="26" r="1"/><circle cx="47" cy="26" r="1"/><path d="M47 42a.997.997 0 0 0 .707-.293l2-2a.999.999 0 1 0-1.414-1.414l-2 2A.999.999 0 0 0 47 42z"/><circle cx="51" cy="37" r="1"/><circle cx="47" cy="37" r="1"/><path d="M47 53a.997.997 0 0 0 .707-.293l2-2a.999.999 0 1 0-1.414-1.414l-2 2A.999.999 0 0 0 47 53z"/><circle cx="51" cy="48" r="1"/><circle cx="47" cy="48" r="1"/></svg>