<?xml version="1.0" encoding="iso-8859-1"?>
<!-- Generator: Adobe Illustrator 18.0.0, SVG Export Plug-In . SVG Version: 6.00 Build 0)  -->
<!DOCTYPE svg PUBLIC "-//W3C//DTD SVG 1.1//EN" "http://www.w3.org/Graphics/SVG/1.1/DTD/svg11.dtd">
<svg version="1.1" id="Capa_1" xmlns="http://www.w3.org/2000/svg" xmlns:xlink="http://www.w3.org/1999/xlink" x="0px" y="0px"
	 viewBox="0 0 60 60" style="enable-background:new 0 0 60 60;" xml:space="preserve">
<g>
	<path d="M10,29.5h12v-22H10V29.5z M12,9.5h8v18h-8V9.5z"/>
	<path d="M37,7.5H25v22h12V7.5z M35,27.5h-8v-18h8V27.5z"/>
	<path d="M10,55.5h12v-22H10V55.5z M12,35.5h8v18h-8V35.5z"/>
	<path d="M25,55.5h12v-22H25V55.5z M27,35.5h8v18h-8V35.5z"/>
	<path d="M37,30.5h-4c-0.552,0-1,0.447-1,1s0.448,1,1,1h4c0.552,0,1-0.447,1-1S37.552,30.5,37,30.5z"/>
	<path d="M57,54.5v-1h1v-5h-5v-6.295c0.055-0.026,0.11-0.047,0.166-0.075c1.611-0.832,2.746-2.109,3.196-3.596
		c0.308-1.018,0.241-2.207-0.18-3.182c-0.213-0.492-0.197-1.021,0.04-1.347c0.34-0.469,0.642-1.033,0.896-1.676l0-0.001
		c0.451-1.142,0.584-2.125,0.407-3.008c-0.102-0.509-0.337-1.007-0.664-1.405c-0.185-0.224-0.267-0.571-0.205-0.864
		c0.174-0.81,0.063-1.681-0.306-2.392c-0.586-1.129-1.762-1.921-3.146-2.117c-1.161-0.166-2.174,0.134-2.791,0.777l-0.525,0.452
		c-0.925,0.492-1.615,1.457-1.817,2.554c-0.111,0.599-0.076,1.231,0.102,1.829c0.097,0.329,0.02,0.727-0.208,1.063
		c-1.047,1.549-1.259,3.708-0.527,5.375c0.111,0.251,0.248,0.487,0.409,0.705c0.231,0.312,0.313,0.725,0.219,1.107
		c-0.051,0.205-0.086,0.415-0.105,0.623c-0.081,0.893,0.102,1.764,0.25,2.464c0.155,0.735,0.39,1.846,1.215,2.556
		c0.44,0.378,0.979,0.574,1.575,0.607V48.5h-5v5h1v1h-3v-53c0-0.016-0.006-0.031-0.007-0.047c-0.002-0.049-0.012-0.097-0.022-0.146
		c-0.01-0.049-0.019-0.098-0.036-0.145c-0.005-0.015-0.005-0.031-0.011-0.045c-0.012-0.03-0.034-0.053-0.049-0.081
		c-0.024-0.045-0.048-0.089-0.078-0.13c-0.029-0.039-0.062-0.073-0.096-0.107c-0.034-0.034-0.068-0.067-0.107-0.096
		c-0.041-0.031-0.085-0.054-0.13-0.078c-0.028-0.015-0.051-0.036-0.081-0.049c-0.015-0.006-0.031-0.006-0.046-0.011
		c-0.046-0.016-0.093-0.026-0.142-0.035c-0.051-0.01-0.101-0.021-0.152-0.023C43.029,0.506,43.015,0.5,43,0.5H4
		c-0.015,0-0.029,0.006-0.044,0.007C3.905,0.509,3.855,0.519,3.804,0.529c-0.048,0.01-0.095,0.019-0.141,0.035
		C3.648,0.57,3.632,0.57,3.617,0.576C3.587,0.589,3.564,0.61,3.536,0.625c-0.045,0.024-0.089,0.048-0.13,0.078
		C3.367,0.732,3.334,0.765,3.299,0.799C3.265,0.833,3.232,0.867,3.203,0.906c-0.03,0.041-0.054,0.085-0.078,0.13
		C3.11,1.064,3.089,1.087,3.076,1.117C3.07,1.132,3.07,1.148,3.065,1.163C3.048,1.209,3.039,1.258,3.029,1.307
		c-0.01,0.049-0.02,0.097-0.022,0.146C3.006,1.469,3,1.484,3,1.5v53H0v5h4h1h1h1h33h1h1h1h4h2h6h2h3v-5H57z M50.167,39.08
		c-0.132-0.628-0.269-1.276-0.214-1.872c0.01-0.108,0.028-0.217,0.054-0.322c0.237-0.955,0.029-1.995-0.554-2.779
		c-0.071-0.096-0.136-0.208-0.186-0.32c-0.458-1.044-0.313-2.461,0.354-3.447c0.568-0.839,0.739-1.842,0.469-2.752
		c-0.086-0.293-0.105-0.611-0.052-0.897c0.096-0.519,0.424-0.979,0.837-1.175l0.911-0.742c0.213-0.221,0.549-0.272,0.818-0.272
		c0.129,0,0.243,0.013,0.319,0.023c0.746,0.105,1.363,0.501,1.652,1.058c0.153,0.296,0.201,0.698,0.126,1.051
		c-0.193,0.899,0.038,1.855,0.616,2.556c0.119,0.146,0.209,0.337,0.247,0.527c0.099,0.493-0.001,1.107-0.306,1.88
		c-0.192,0.487-0.413,0.903-0.655,1.236c-0.654,0.899-0.752,2.17-0.257,3.314c0.235,0.545,0.274,1.238,0.102,1.809
		c-0.394,1.303-1.547,2.062-2.2,2.398c-0.13,0.067-0.269,0.129-0.409,0.18c-0.093,0.016-0.184,0.033-0.267,0.072
		c-0.333,0.082-0.65,0.091-0.843-0.074C50.416,40.263,50.266,39.551,50.167,39.08z M48,50.5h8v1h-8V50.5z M40.586,2.5l-1,1H7.414
		l-1-1H40.586z M2,56.5h1v1H2V56.5z M6,57.5H5v-3V3.914l1,1V57.5z M8,5.5h31v52H8V5.5z M42,57.5h-1V4.914l1-1V54.5V57.5z M47,57.5
		h-3v-1h3V57.5z M55,57.5h-6v-3v-1h6v1V57.5z M58,57.5h-1v-1h1V57.5z"/>
</g>
<g>
</g>
<g>
</g>
<g>
</g>
<g>
</g>
<g>
</g>
<g>
</g>
<g>
</g>
<g>
</g>
<g>
</g>
<g>
</g>
<g>
</g>
<g>
</g>
<g>
</g>
<g>
</g>
<g>
</g>
</svg>
