<svg xmlns="http://www.w3.org/2000/svg" viewBox="0 0 60 60" style="enable-background:new 0 0 60 60" xml:space="preserve"><path d="M10 7v32h24V7H10zm11 2v8h-9V9h9zm11 18h-9v-8h9v8zm-11 0h-9v-8h9v8zm-9 2h9v8h-9v-8zm11 8v-8h9v8h-9zm9-20h-9V9h9v8zM10 56h24V41H10v15zm2-13h20v11H12V43z"/><path d="M56 52v-1h1v-5h-5v-6.295c.056-.026.11-.047.166-.075 1.611-.832 2.746-2.109 3.195-3.597a4.763 4.763 0 0 0-.18-3.181c-.212-.492-.196-1.021.04-1.347.34-.468.641-1.031.896-1.676.452-1.14.585-2.124.408-3.01a3.235 3.235 0 0 0-.665-1.403 1.073 1.073 0 0 1-.204-.865 3.616 3.616 0 0 0-.306-2.391c-.585-1.13-1.762-1.921-3.146-2.118-1.165-.169-2.174.134-2.791.777l-.525.452c-.924.492-1.614 1.457-1.817 2.555a3.946 3.946 0 0 0 .103 1.829c.097.328.02.726-.208 1.062-1.047 1.549-1.259 3.708-.528 5.373.111.252.249.489.41.708.232.311.314.724.22 1.104a4.033 4.033 0 0 0-.106.626c-.082.895.103 1.766.25 2.464.155.735.39 1.847 1.215 2.556.44.378.979.574 1.575.607V46h-5v5h1v1h-5V0H3v52H0v8h60v-8h-4zm-6.833-15.421c-.133-.626-.27-1.274-.215-1.868.01-.108.027-.218.055-.325a3.349 3.349 0 0 0-.556-2.78 1.699 1.699 0 0 1-.184-.319c-.459-1.044-.313-2.461.354-3.447.568-.84.738-1.844.469-2.75a1.982 1.982 0 0 1-.053-.899c.096-.519.425-.979.838-1.175l.91-.742c.213-.222.55-.274.819-.274.129 0 .242.013.319.023.746.105 1.363.501 1.652 1.058.153.296.201.698.126 1.052a3.05 3.05 0 0 0 .617 2.557c.118.144.208.335.246.524.099.495-.001 1.109-.307 1.88a5.635 5.635 0 0 1-.655 1.237c-.652.899-.751 2.17-.257 3.314.235.545.274 1.237.102 1.81-.394 1.301-1.547 2.061-2.199 2.397a3.3 3.3 0 0 1-.407.179 1.022 1.022 0 0 0-.272.074c-.332.082-.648.09-.842-.076-.31-.265-.46-.978-.56-1.45zM47 48h8v1h-8v-1zM3 58H2v-4h1v4zm5 0V5h28v53H8zm31 0h-1V3H6v55H5V2h34v56zm7 0h-5v-4h5v4zm8 0h-6v-7h6v7zm4 0h-2v-4h2v4z"/></svg>