<?xml version="1.0" encoding="iso-8859-1"?>
<!-- Generator: Adobe Illustrator 18.0.0, SVG Export Plug-In . SVG Version: 6.00 Build 0)  -->
<!DOCTYPE svg PUBLIC "-//W3C//DTD SVG 1.1//EN" "http://www.w3.org/Graphics/SVG/1.1/DTD/svg11.dtd">
<svg version="1.1" id="Capa_1" xmlns="http://www.w3.org/2000/svg" xmlns:xlink="http://www.w3.org/1999/xlink" x="0px" y="0px"
	 viewBox="0 0 57 57" style="enable-background:new 0 0 57 57;" xml:space="preserve">
<g>
	<path d="M2,57h39V0H2V57z M4,2h35v53H4V2z"/>
	<path d="M5,54h33V3H5V54z M7,5h29v47H7V5z"/>
	<path d="M8,28h12V6H8V28z M10,8h8v18h-8V8z"/>
	<path d="M23,28h12V6H23V28z M25,8h8v18h-8V8z"/>
	<path d="M8,51h12V32H8V51z M10,34h8v15h-8V34z"/>
	<path d="M23,51h12V32H23V51z M25,34h8v15h-8V34z"/>
	<path d="M34,29h-3c-0.553,0-1,0.447-1,1s0.447,1,1,1h3c0.553,0,1-0.447,1-1S34.553,29,34,29z"/>
	<path d="M43,0v11v2v9v2v9v2v9v2v11h12V46v-2v-9v-2v-9v-2v-9v-2V0H43z M53,55h-8v-9h8V55z M53,44h-8v-9h8V44z M53,33h-8v-9h8V33z
		 M53,22h-8v-9h8V22z M45,11V2h8v9H45z"/>
	<path d="M13.293,11.293l-2,2c-0.391,0.391-0.391,1.023,0,1.414C11.488,14.902,11.744,15,12,15s0.512-0.098,0.707-0.293l2-2
		c0.391-0.391,0.391-1.023,0-1.414S13.684,10.902,13.293,11.293z"/>
	<circle cx="16" cy="10" r="1"/>
	<circle cx="12" cy="10" r="1"/>
	<path d="M28.293,11.293l-2,2c-0.391,0.391-0.391,1.023,0,1.414C26.488,14.902,26.744,15,27,15s0.512-0.098,0.707-0.293l2-2
		c0.391-0.391,0.391-1.023,0-1.414S28.684,10.902,28.293,11.293z"/>
	<circle cx="31" cy="10" r="1"/>
	<circle cx="27" cy="10" r="1"/>
	<path d="M13.293,37.293l-2,2c-0.391,0.391-0.391,1.023,0,1.414C11.488,40.902,11.744,41,12,41s0.512-0.098,0.707-0.293l2-2
		c0.391-0.391,0.391-1.023,0-1.414S13.684,36.902,13.293,37.293z"/>
	<circle cx="16" cy="36" r="1"/>
	<circle cx="12" cy="36" r="1"/>
	<path d="M28.293,37.293l-2,2c-0.391,0.391-0.391,1.023,0,1.414C26.488,40.902,26.744,41,27,41s0.512-0.098,0.707-0.293l2-2
		c0.391-0.391,0.391-1.023,0-1.414S28.684,36.902,28.293,37.293z"/>
	<circle cx="31" cy="36" r="1"/>
	<circle cx="27" cy="36" r="1"/>
	<path d="M48.293,5.293l-2,2c-0.391,0.391-0.391,1.023,0,1.414C46.488,8.902,46.744,9,47,9s0.512-0.098,0.707-0.293l2-2
		c0.391-0.391,0.391-1.023,0-1.414S48.684,4.902,48.293,5.293z"/>
	<circle cx="51" cy="4" r="1"/>
	<circle cx="47" cy="4" r="1"/>
	<path d="M47,20c0.256,0,0.512-0.098,0.707-0.293l2-2c0.391-0.391,0.391-1.023,0-1.414s-1.023-0.391-1.414,0l-2,2
		c-0.391,0.391-0.391,1.023,0,1.414C46.488,19.902,46.744,20,47,20z"/>
	<circle cx="51" cy="15" r="1"/>
	<circle cx="47" cy="15" r="1"/>
	<path d="M47,31c0.256,0,0.512-0.098,0.707-0.293l2-2c0.391-0.391,0.391-1.023,0-1.414s-1.023-0.391-1.414,0l-2,2
		c-0.391,0.391-0.391,1.023,0,1.414C46.488,30.902,46.744,31,47,31z"/>
	<circle cx="51" cy="26" r="1"/>
	<circle cx="47" cy="26" r="1"/>
	<path d="M47,42c0.256,0,0.512-0.098,0.707-0.293l2-2c0.391-0.391,0.391-1.023,0-1.414s-1.023-0.391-1.414,0l-2,2
		c-0.391,0.391-0.391,1.023,0,1.414C46.488,41.902,46.744,42,47,42z"/>
	<circle cx="51" cy="37" r="1"/>
	<circle cx="47" cy="37" r="1"/>
	<path d="M47,53c0.256,0,0.512-0.098,0.707-0.293l2-2c0.391-0.391,0.391-1.023,0-1.414s-1.023-0.391-1.414,0l-2,2
		c-0.391,0.391-0.391,1.023,0,1.414C46.488,52.902,46.744,53,47,53z"/>
	<circle cx="51" cy="48" r="1"/>
	<circle cx="47" cy="48" r="1"/>
</g>
<g>
</g>
<g>
</g>
<g>
</g>
<g>
</g>
<g>
</g>
<g>
</g>
<g>
</g>
<g>
</g>
<g>
</g>
<g>
</g>
<g>
</g>
<g>
</g>
<g>
</g>
<g>
</g>
<g>
</g>
</svg>
