<?xml version="1.0" encoding="iso-8859-1"?>
<!-- Generator: Adobe Illustrator 18.0.0, SVG Export Plug-In . SVG Version: 6.00 Build 0)  -->
<!DOCTYPE svg PUBLIC "-//W3C//DTD SVG 1.1//EN" "http://www.w3.org/Graphics/SVG/1.1/DTD/svg11.dtd">
<svg version="1.1" id="Capa_1" xmlns="http://www.w3.org/2000/svg" xmlns:xlink="http://www.w3.org/1999/xlink" x="0px" y="0px"
	 viewBox="0 0 60 60" style="enable-background:new 0 0 60 60;" xml:space="preserve">
<g>
	<path d="M50,54.5v-53c0-0.016-0.006-0.031-0.007-0.047c-0.002-0.049-0.012-0.097-0.022-0.146c-0.01-0.049-0.019-0.098-0.036-0.145
		c-0.005-0.015-0.005-0.031-0.011-0.045c-0.012-0.03-0.034-0.053-0.049-0.081c-0.024-0.045-0.048-0.089-0.078-0.13
		c-0.029-0.039-0.062-0.073-0.096-0.107c-0.034-0.034-0.068-0.067-0.107-0.096c-0.041-0.031-0.085-0.054-0.13-0.078
		c-0.028-0.015-0.051-0.036-0.081-0.049c-0.015-0.006-0.031-0.006-0.046-0.011c-0.046-0.017-0.093-0.026-0.142-0.036
		c-0.051-0.01-0.101-0.02-0.152-0.023C49.029,0.506,49.015,0.5,49,0.5H11c-0.015,0-0.029,0.006-0.044,0.007
		c-0.052,0.002-0.102,0.012-0.153,0.023c-0.048,0.01-0.095,0.019-0.14,0.035c-0.015,0.005-0.031,0.005-0.046,0.011
		c-0.03,0.012-0.053,0.034-0.081,0.049c-0.045,0.024-0.089,0.048-0.13,0.078c-0.039,0.029-0.073,0.062-0.107,0.096
		c-0.034,0.034-0.067,0.068-0.096,0.107c-0.03,0.041-0.054,0.085-0.078,0.13c-0.015,0.028-0.036,0.051-0.049,0.081
		c-0.006,0.015-0.006,0.031-0.011,0.045c-0.017,0.047-0.026,0.095-0.036,0.145c-0.01,0.049-0.02,0.097-0.022,0.146
		C10.006,1.469,10,1.484,10,1.5v53H0v5h11h1h1h1h32h1h1h1h11v-5H50z M46.586,2.5l-1,1H14.414l-1-1H46.586z M2,56.5h8v1H2V56.5z
		 M13,57.5h-1v-3V3.914l1,1V57.5z M15,5.5h30v52H15V5.5z M48,57.5h-1V4.914l1-1V54.5V57.5z M58,57.5h-8v-1h8V57.5z"/>
	<path d="M42,8.5H18v10h24V8.5z M40,16.5H20v-6h20V16.5z"/>
	<path d="M18,54.5h24v-10H18V54.5z M20,46.5h20v6H20V46.5z"/>
	<path d="M37,32.5H18v10h24v-9h-5V32.5z M40,35.5v5H20v-6h15v1H40z"/>
	<path d="M37,29.5h5v-9H18v10h19V29.5z M35,28.5H20v-6h20v5h-5V28.5z"/>
	<path d="M43,30.5h-4c-0.552,0-1,0.447-1,1s0.448,1,1,1h4c0.552,0,1-0.447,1-1S43.552,30.5,43,30.5z"/>
</g>
<g>
</g>
<g>
</g>
<g>
</g>
<g>
</g>
<g>
</g>
<g>
</g>
<g>
</g>
<g>
</g>
<g>
</g>
<g>
</g>
<g>
</g>
<g>
</g>
<g>
</g>
<g>
</g>
<g>
</g>
</svg>
