<svg xmlns="http://www.w3.org/2000/svg" viewBox="0 0 60 60" style="enable-background:new 0 0 60 60" xml:space="preserve"><path d="M44 4H16v27h28V4zm-7 2v1H23V6h14zM23 24h14v1H23v-1zm0-2v-1h14v1H23zm0-3v-1h14v1H23zm0-3v-1h14v1H23zm0-3v-1h14v1H23zm0-3V9h14v1H23zm19 19H18V6h3v1h-1a1 1 0 1 0 0 2h1v1h-1a1 1 0 1 0 0 2h1v1h-1a1 1 0 1 0 0 2h1v1h-1a1 1 0 1 0 0 2h1v1h-1a1 1 0 1 0 0 2h1v1h-1a1 1 0 1 0 0 2h1v1h-1a1 1 0 1 0 0 2h20a1 1 0 1 0 0-2h-1v-1h1a1 1 0 1 0 0-2h-1v-1h1a1 1 0 1 0 0-2h-1v-1h1a1 1 0 1 0 0-2h-1v-1h1a1 1 0 1 0 0-2h-1v-1h1a1 1 0 1 0 0-2h-1V9h1a1 1 0 1 0 0-2h-1V6h3v23zM44 35H16v21h28V35zm-2 19H18V37h24v17z"/><path d="M52 53V0H8v53H0v7h60v-7h-8zM8 58H2v-3h6v3zm2-56h2v5h-2V2zm0 7h3v1h-3V9zm0 3h2v36h-2V12zm0 38h3v1h-3v-1zm2 8h-2v-5h2v5zm34 0H14v-5h1v-5h-1V12h1V7h-1V2h32v56zm4 0h-2V2h2v56zm8 0h-6v-3h6v3z"/><path d="M21 45a.997.997 0 0 0 .707-.293l4-4a.999.999 0 1 0-1.414-1.414l-4 4A.999.999 0 0 0 21 45zM21 50a.997.997 0 0 0 .707-.293l2-2a.999.999 0 1 0-1.414-1.414l-2 2A.999.999 0 0 0 21 50zM24.29 44.29c-.18.189-.29.45-.29.71s.11.52.29.71a1.011 1.011 0 0 0 1.42 0c.18-.19.29-.45.29-.71s-.11-.521-.29-.71c-.38-.37-1.05-.37-1.42 0zM26.293 43.707a.997.997 0 0 0 1.414 0l3-3a.999.999 0 1 0-1.414-1.414l-3 3a.999.999 0 0 0 0 1.414zM40 32a1 1 0 1 0 0 2h4a1 1 0 1 0 0-2h-4z"/></svg>