<svg xmlns="http://www.w3.org/2000/svg" viewBox="0 0 60 60" style="enable-background:new 0 0 60 60" xml:space="preserve"><path d="M9 8v32h18V8H9zm8 2v8h-6v-8h6zm8 18h-6v-8h6v8zm-8 0h-6v-8h6v8zm-6 2h6v8h-6v-8zm8 8v-8h6v8h-6zm6-20h-6v-8h6v8zM9 56h18V42H9v14zm2-12h14v10H11V44zM33 8v32h18V8H33zm8 2v8h-6v-8h6zm8 18h-6v-8h6v8zm-8 0h-6v-8h6v8zm-6 2h6v8h-6v-8zm8 8v-8h6v8h-6zm6-20h-6v-8h6v8zM33 56h18V42H33v14zm2-12h14v10H35V44z"/><path d="M1 0v60h58V0H1zm6 58V6h22v52H7zm24 0V6h22v52H31zm26 0h-2V4H5v54H3V2h54v56z"/><path d="m38.293 47.293-2 2a.999.999 0 1 0 1.414 1.414l2-2a.999.999 0 1 0-1.414-1.414z"/><circle cx="41" cy="46" r="1"/><circle cx="37" cy="46" r="1"/><path d="m14.293 47.293-2 2a.999.999 0 1 0 1.414 1.414l2-2a.999.999 0 1 0-1.414-1.414z"/><circle cx="17" cy="46" r="1"/><circle cx="13" cy="46" r="1"/></svg>