<svg xmlns="http://www.w3.org/2000/svg" viewBox="0 0 60 60" style="enable-background:new 0 0 60 60" xml:space="preserve"><path d="M56 33h1c1.654 0 3-1.346 3-3s-1.346-3-3-3h-3V15a1 1 0 0 0-1-1H42v-2c0-6.617-5.383-12-12-12S18 5.383 18 12v2H7a1 1 0 0 0-1 1v12H3c-1.654 0-3 1.346-3 3s1.346 3 3 3h1v6h3.582c-1.184 2.219-2.133 5.298-1.571 9.145.631 4.318-.58 5.877-.829 6.146a1.017 1.017 0 0 0-.099.126l-.003-.003-2.891 4A1 1 0 0 0 3 60h1c1.639 0 3.117-.671 4.395-1.992 2.634-2.729 3.693-7.515 3.604-10.043-.218-6.206 2.564-8.489 2.883-8.729.035-.026.081-.064.112-.096l.142-.14H18v4h24v-4h2.864l.137.135c.032.033.08.073.117.101.318.24 3.101 2.523 2.883 8.729-.089 2.528.971 7.314 3.604 10.043C52.883 59.329 54.361 60 56 60h1a1.001 1.001 0 0 0 .811-1.586l-2.891-4-.003.002a.865.865 0 0 0-.1-.126c-.249-.268-1.46-1.824-.828-6.146.562-3.846-.387-6.926-1.571-9.145H56V33zM42 22h10v4H42v-4zm10-6v4H42v-4h10zm-32-4c0-5.514 4.486-10 10-10s10 4.486 10 10v15H20V12zM8 22h10v4H8v-4zm0-6h10v4H8v-4zM3 31a1 1 0 0 1 0-2h54a1 1 0 0 1 0 2H3zm7.001 17.035c.076 2.196-.938 6.401-3.046 8.583-.582.604-1.212 1.011-1.881 1.219l1.603-2.218c.656-.727 2.025-2.886 1.313-7.764-.571-3.903.65-6.912 1.896-8.855h2.479c-1.142 1.514-2.529 4.34-2.364 9.035zM40 41H20v-4h20v4zm12.011 6.855c-.711 4.863.646 7.022 1.313 7.764l1.603 2.218c-.669-.208-1.299-.615-1.881-1.219-2.107-2.182-3.122-6.387-3.046-8.583.165-4.694-1.222-7.521-2.364-9.035h2.479c1.245 1.943 2.466 4.952 1.896 8.855zM54 37H42v-2H18v2H6v-4h48v4z"/><path d="M33 38h-6a1 1 0 1 0 0 2h6a1 1 0 1 0 0-2zM14 17h-2a1 1 0 1 0 0 2h2a1 1 0 1 0 0-2zM14 23h-2a1 1 0 1 0 0 2h2a1 1 0 1 0 0-2zM46 19h2a1 1 0 1 0 0-2h-2a1 1 0 1 0 0 2zM48 23h-2a1 1 0 1 0 0 2h2a1 1 0 1 0 0-2zM24 18a.997.997 0 0 0 .707-.293l10-10a.999.999 0 1 0-1.414-1.414l-10 10A.999.999 0 0 0 24 18zM24.5 13a.997.997 0 0 0 .707-.293l4.5-4.5a.999.999 0 1 0-1.414-1.414l-4.5 4.5A.999.999 0 0 0 24.5 13zM32.293 12.293l-3 3a.999.999 0 1 0 1.414 1.414l3-3a.999.999 0 1 0-1.414-1.414zM27.29 17.29c-.181.189-.29.45-.29.71 0 .27.109.52.29.7.189.19.439.3.71.3.26 0 .52-.11.71-.29.18-.19.29-.45.29-.71s-.101-.521-.29-.71c-.38-.37-1.05-.37-1.42 0z"/></svg>