<svg xmlns="http://www.w3.org/2000/svg" viewBox="0 0 60 60" style="enable-background:new 0 0 60 60" xml:space="preserve"><path d="M18 31h-4a1 1 0 1 0 0 2h4a1 1 0 1 0 0-2zM46 31h-4a1 1 0 1 0 0 2h4a1 1 0 1 0 0-2z"/><path d="M59 28h-9V6c0-.379-.214-.725-.553-.895l-10-5c-.012-.006-.025-.008-.037-.013-.022-.01-.044-.015-.067-.023a.987.987 0 0 0-.306-.062C39.024.007 39.013 0 39 0H21c-.013 0-.024.007-.037.008a.987.987 0 0 0-.306.062c-.023.008-.045.014-.067.023-.012.005-.025.007-.037.013l-10 5A.998.998 0 0 0 10 6v22H1a1 1 0 1 0 0 2v6h2v24h5V36h44v24h5V36h2v-6a1 1 0 1 0 0-2zm-11 0h-8V2.618l8 4V28zm-10 0H22V2h16v26zM12 6.618l8-4V28h-8V6.618zM6 58H5V36h1v22zm23-24H3v-4h26v4zm26 24h-1V36h1v22zm2-24H31v-4h26v4z"/></svg>