<?xml version="1.0" encoding="iso-8859-1"?>
<!-- Generator: Adobe Illustrator 18.0.0, SVG Export Plug-In . SVG Version: 6.00 Build 0)  -->
<!DOCTYPE svg PUBLIC "-//W3C//DTD SVG 1.1//EN" "http://www.w3.org/Graphics/SVG/1.1/DTD/svg11.dtd">
<svg version="1.1" id="Capa_1" xmlns="http://www.w3.org/2000/svg" xmlns:xlink="http://www.w3.org/1999/xlink" x="0px" y="0px"
	 viewBox="0 0 60 60" style="enable-background:new 0 0 60 60;" xml:space="preserve">
<g>
	<path d="M56,33h1c1.654,0,3-1.346,3-3s-1.346-3-3-3h-3v-6v-6c0-0.553-0.447-1-1-1H42v-2c0-6.617-5.383-12-12-12S18,5.383,18,12v2H7
		c-0.553,0-1,0.447-1,1v6v6H3c-1.654,0-3,1.346-3,3s1.346,3,3,3h1v6h3.582c-1.184,2.219-2.133,5.298-1.571,9.145
		c0.631,4.318-0.58,5.877-0.829,6.146c-0.036,0.039-0.069,0.081-0.099,0.126L5.08,54.414l-2.891,4
		c-0.22,0.305-0.251,0.707-0.08,1.041S2.624,60,3,60h1c1.639,0,3.117-0.671,4.395-1.992c2.634-2.729,3.693-7.515,3.604-10.043
		c-0.218-6.206,2.564-8.489,2.883-8.729c0.035-0.026,0.081-0.064,0.112-0.096L15.136,39H18v4h24v-4h2.864l0.137,0.135
		c0.032,0.033,0.08,0.073,0.117,0.101c0.318,0.24,3.101,2.523,2.883,8.729c-0.089,2.528,0.971,7.314,3.604,10.043
		C52.883,59.329,54.361,60,56,60h1c0.376,0,0.72-0.211,0.891-0.545s0.14-0.736-0.08-1.041l-2.891-4l-0.003,0.002
		c-0.029-0.045-0.063-0.087-0.1-0.126c-0.249-0.268-1.46-1.824-0.828-6.146c0.562-3.846-0.387-6.926-1.571-9.145H56V33z M42,22h10v4
		H42V22z M52,16v4H42v-4H52z M20,12c0-5.514,4.486-10,10-10s10,4.486,10,10v3v6v6H20v-6v-6V12z M8,22h10v4H8V22z M8,16h10v4H8V16z
		 M3,31c-0.552,0-1-0.448-1-1s0.448-1,1-1h16h22h16c0.552,0,1,0.448,1,1s-0.448,1-1,1h-1H4H3z M10.001,48.035
		c0.076,2.196-0.938,6.401-3.046,8.583c-0.582,0.604-1.212,1.011-1.881,1.219l1.603-2.218c0.656-0.727,2.025-2.886,1.313-7.764
		C7.419,43.952,8.64,40.943,9.886,39h2.479C11.223,40.514,9.836,43.34,10.001,48.035z M40,41H20v-2v-2h20v2V41z M52.011,47.855
		c-0.711,4.863,0.646,7.022,1.313,7.764l1.603,2.218c-0.669-0.208-1.299-0.615-1.881-1.219c-2.107-2.182-3.122-6.387-3.046-8.583
		c0.165-4.694-1.222-7.521-2.364-9.035h2.479C51.36,40.943,52.581,43.952,52.011,47.855z M54,37h-3.352h-5.374H42v-2H18v2h-3.274
		H9.352H6v-4h48V37z"/>
	<path d="M33,38h-6c-0.553,0-1,0.447-1,1s0.447,1,1,1h6c0.553,0,1-0.447,1-1S33.553,38,33,38z"/>
	<path d="M14,17h-2c-0.553,0-1,0.447-1,1s0.447,1,1,1h2c0.553,0,1-0.447,1-1S14.553,17,14,17z"/>
	<path d="M14,23h-2c-0.553,0-1,0.447-1,1s0.447,1,1,1h2c0.553,0,1-0.447,1-1S14.553,23,14,23z"/>
	<path d="M46,19h2c0.553,0,1-0.447,1-1s-0.447-1-1-1h-2c-0.553,0-1,0.447-1,1S45.447,19,46,19z"/>
	<path d="M48,23h-2c-0.553,0-1,0.447-1,1s0.447,1,1,1h2c0.553,0,1-0.447,1-1S48.553,23,48,23z"/>
	<path d="M24,18c0.256,0,0.512-0.098,0.707-0.293l10-10c0.391-0.391,0.391-1.023,0-1.414s-1.023-0.391-1.414,0l-10,10
		c-0.391,0.391-0.391,1.023,0,1.414C23.488,17.902,23.744,18,24,18z"/>
	<path d="M24.5,13c0.256,0,0.512-0.098,0.707-0.293l4.5-4.5c0.391-0.391,0.391-1.023,0-1.414s-1.023-0.391-1.414,0l-4.5,4.5
		c-0.391,0.391-0.391,1.023,0,1.414C23.988,12.902,24.244,13,24.5,13z"/>
	<path d="M32.293,12.293l-3,3c-0.391,0.391-0.391,1.023,0,1.414C29.488,16.902,29.744,17,30,17s0.512-0.098,0.707-0.293l3-3
		c0.391-0.391,0.391-1.023,0-1.414S32.684,11.902,32.293,12.293z"/>
	<path d="M27.29,17.29C27.109,17.479,27,17.74,27,18c0,0.27,0.109,0.52,0.29,0.7C27.479,18.89,27.729,19,28,19
		c0.26,0,0.52-0.11,0.71-0.29C28.89,18.52,29,18.26,29,18s-0.101-0.521-0.29-0.71C28.33,16.92,27.66,16.92,27.29,17.29z"/>
</g>
<g>
</g>
<g>
</g>
<g>
</g>
<g>
</g>
<g>
</g>
<g>
</g>
<g>
</g>
<g>
</g>
<g>
</g>
<g>
</g>
<g>
</g>
<g>
</g>
<g>
</g>
<g>
</g>
<g>
</g>
</svg>
