<svg xmlns="http://www.w3.org/2000/svg" viewBox="0 0 60 60" style="enable-background:new 0 0 60 60" xml:space="preserve"><path d="M0 0v60h5v-3h50v3h5V0H0zm58 58h-1v-3H3v3H2V2h56v56z"/><path d="M18 54h39V3H3v51h15zM44 5h11v6H44V5zm0 8h11v23H44V13zm0 25h11v6H44v-6zm0 8h11v6H44v-6zM31 5h11v6H31V5zm0 8h11v23H31V13zm0 25h11v6H31v-6zm0 8h11v6H31v-6zM18 5h11v6H18V5zm0 8h11v23H18V13zm0 25h11v6H18v-6zm0 8h11v6H18v-6zM5 5h11v6H5V5zm0 8h11v23H5V13zm0 25h11v6H5v-6zm0 8h11v6H5v-6z"/><path d="M14 21a1 1 0 0 0-1 1v4a1 1 0 1 0 2 0v-4a1 1 0 0 0-1-1zM20 21a1 1 0 0 0-1 1v4a1 1 0 1 0 2 0v-4a1 1 0 0 0-1-1zM40 21a1 1 0 0 0-1 1v4a1 1 0 1 0 2 0v-4a1 1 0 0 0-1-1zM46 21a1 1 0 0 0-1 1v4a1 1 0 1 0 2 0v-4a1 1 0 0 0-1-1zM12 40H9a1 1 0 1 0 0 2h3a1 1 0 1 0 0-2zM12 48H9a1 1 0 1 0 0 2h3a1 1 0 1 0 0-2zM25 40h-3a1 1 0 1 0 0 2h3a1 1 0 1 0 0-2zM25 48h-3a1 1 0 1 0 0 2h3a1 1 0 1 0 0-2zM38 40h-3a1 1 0 1 0 0 2h3a1 1 0 1 0 0-2zM38 48h-3a1 1 0 1 0 0 2h3a1 1 0 1 0 0-2zM51 40h-3a1 1 0 1 0 0 2h3a1 1 0 1 0 0-2zM51 48h-3a1 1 0 1 0 0 2h3a1 1 0 1 0 0-2z"/></svg>