<svg xmlns="http://www.w3.org/2000/svg" viewBox="0 0 60 60" style="enable-background:new 0 0 60 60" xml:space="preserve"><path d="M59 58h-6v-3h-1V36h3v-3h2v-2h-7v-1h1a1 1 0 0 0 .707-1.707l-4-4A.997.997 0 0 0 47 24h-2.563l-6.481-7H38v-6h-3V0H25v11h-3v6h.045l-6.481 7H13a.997.997 0 0 0-.707.293l-4 4A1 1 0 0 0 9 30h1v1H3v2h2v3h3v19H7v3H1a1 1 0 1 0 0 2h58a1 1 0 1 0 0-2zM27 2h6v9h-6V2zm-3 11h12v2H24v-2zm.771 4H35.23l6.482 7H18.289l6.482-7zm-11.357 9H46.585l2 2H11.414l2-2zM12 30h36v1H12v-1zm-5 4v-1h46v1H7zm3 2h40v19h-2c0-9.489-7.386-17.268-16.709-17.935l-.005-.001-.152-.012c-.069-.005-.14-.002-.21-.006-.307-.015-.612-.046-.924-.046-.091 0-.178.012-.268.014-.392.003-.787.03-1.183.06-.137.011-.276.01-.412.024h-.01l-.006.002C19.075 38.043 12 45.71 12 55h-2V36zm19.855 3.007c.137-.001.273.002.409.006.097.001.192.011.289.015.688 1.627 1.037 3.264 1.037 4.874a1 1 0 0 0 1.939.341c.018-.048.296-.82.557-1.993l.333.386c2.092 2.429 2.122 6.013.069 8.336-.071.08-.149.152-.224.228l-.087.085c-.286.28-.593.524-.913.735l-.038.025a5.944 5.944 0 0 1-.954.499c-.04.017-.081.032-.121.047-.317.123-.64.22-.969.287-.047.009-.094.015-.141.023a5.8 5.8 0 0 1-1 .096l-.021.001h-.014a5.908 5.908 0 0 1-.992-.095c-.06-.01-.121-.018-.181-.031a5.807 5.807 0 0 1-1.095-.342 5.819 5.819 0 0 1-.914-.479c-.024-.015-.047-.032-.071-.048a6.097 6.097 0 0 1-.893-.72l-.044-.043c-.108-.107-.216-.214-.317-.33-1.191-1.383-1.68-3.223-1.427-4.979.536 1.118 1.042 1.854 1.077 1.905.272.391.773.494 1.211.303.438-.19.67-.707.568-1.173-.594-2.722.081-5.645 1.806-7.905.372-.026.744-.05 1.121-.054zm-4.889 3.605a.998.998 0 0 0-.747-.545 1.008 1.008 0 0 0-1.002.465A8.196 8.196 0 0 0 23.126 51H18v4h-4c0-7.479 5.166-13.759 12.113-15.503a11.91 11.91 0 0 0-1.147 3.115zM20 53h4.766c.013.012.029.02.042.031.325.283.668.542 1.031.767.022.014.042.03.064.043.329.2.674.368 1.027.518a7.947 7.947 0 0 0 1.353.447c.118.027.237.039.356.061.256.046.514.079.775.099.088.007.175.03.263.034H20v-2zm10.602 1.969c.284-.021.565-.057.844-.108.117-.022.233-.04.349-.067a7.953 7.953 0 0 0 1.273-.414c.365-.153.72-.329 1.06-.535l.07-.046c.379-.235.74-.501 1.077-.798H39v2h-8.642c.082-.005.162-.026.244-.032zM36.916 51c1.727-2.993 1.398-6.907-.982-9.669l-1.447-1.679C41.13 41.598 46 47.736 46 55h-5v-4h-4.084zM9 58v-1h42v1H9z"/></svg>