<svg xmlns="http://www.w3.org/2000/svg" viewBox="0 0 60 60" style="enable-background:new 0 0 60 60" xml:space="preserve"><path d="M60 18h-4V6H46v12h-1v-8H31v8h-1V8H18v10h-3.727c.024-.081.055-.158.072-.242a2.794 2.794 0 0 0-.845-2.612c-.805-.744-1.319-1.548-1.529-2.389l-.19-.757H10V8.858c1.72-.447 3-1.999 3-3.858V0H5v5c0 1.859 1.28 3.411 3 3.858V12H6.619l-.189.758c-.21.84-.724 1.644-1.529 2.388a2.792 2.792 0 0 0-.845 2.611c.016.084.047.162.071.243H0v7h2v35h56V25h2v-7zM10 2h1v3a2 2 0 0 1-1 1.731V2zM7 5V2h1v4.731A2 2 0 0 1 7 5zm41 3h6v10h-6V8zm-15 4h10v6H33v-6zm-13-2h8v8h-8v-8zM6.017 17.367a.794.794 0 0 1 .242-.753c.866-.801 1.491-1.677 1.866-2.614h2.151c.375.937 1 1.813 1.866 2.614.1.092.322.35.242.754-.072.361-.443.632-.863.632H6.879c-.42 0-.791-.271-.862-.633zM22 58v-2h16v2H22zm4.929-12.031c-.638-2.923.171-6.048 2.164-8.36l.81-.939c1.121 2.069 1.688 4.162 1.688 6.233a.999.999 0 0 0 1.939.342c.018-.049.296-.821.557-1.994l.333.386c2.093 2.429 2.123 6.013.069 8.336-.065.073-.136.138-.204.208l-.107.105a5.951 5.951 0 0 1-3.025 1.602l-.06.009a5.825 5.825 0 0 1-1.02.098c-.025 0-.05.004-.075.004a5.918 5.918 0 0 1-.984-.094c-.061-.01-.122-.019-.182-.031a5.927 5.927 0 0 1-.93-.275c-.056-.021-.111-.044-.166-.067a5.878 5.878 0 0 1-.912-.478l-.073-.049a6.03 6.03 0 0 1-.892-.719l-.044-.043c-.108-.107-.216-.214-.317-.33-1.191-1.383-1.68-3.223-1.427-4.979.536 1.118 1.042 1.854 1.077 1.905.272.391.773.494 1.211.303.439-.191.672-.707.57-1.173zM36 54h-5.642c.082-.004.162-.025.244-.031.284-.021.565-.057.844-.108.117-.022.233-.04.349-.067a7.953 7.953 0 0 0 1.273-.414c.365-.153.72-.329 1.06-.535l.07-.046c.379-.235.74-.501 1.077-.798H36V54zm-12-2h.766c.013.012.029.02.042.031.325.283.668.542 1.031.767.022.014.042.03.064.043.329.2.674.368 1.027.518a7.947 7.947 0 0 0 1.353.447c.118.027.237.039.356.061.256.046.514.079.775.099.088.007.175.03.263.034H24v-2zm25 6h-9v-4h-2v-4h-1.084c1.726-2.992 1.398-6.907-.981-9.668l-1.726-2.003a1 1 0 0 0-1.428-.09 17.695 17.695 0 0 0-1.7-3.521 1.014 1.014 0 0 0-.092-.126l-.211-.245a.998.998 0 0 0-1.515.001l-1.685 1.956a11.833 11.833 0 0 0-2.616 5.3 1.001 1.001 0 0 0-1.744-.071 8.196 8.196 0 0 0-.091 8.468H22v4h-2v4h-9V37.535l3-2V33h32v2.535l3 2V58zm7 0h-5V36.465l-3-2V31H12v3.465l-3 2V58H4V25h1v2a1 1 0 1 0 2 0v-2h1v2a1 1 0 1 0 2 0v-2h1v2a1 1 0 1 0 2 0v-2h1v2a1 1 0 1 0 2 0v-2h1v2a1 1 0 1 0 2 0v-2h1v2a1 1 0 1 0 2 0v-2h1v2a1 1 0 1 0 2 0v-2h1v2a1 1 0 1 0 2 0v-2h1v2a1 1 0 1 0 2 0v-2h1v2a1 1 0 1 0 2 0v-2h1v2a1 1 0 1 0 2 0v-2h1v2a1 1 0 1 0 2 0v-2h1v2a1 1 0 1 0 2 0v-2h1v2a1 1 0 1 0 2 0v-2h1v2a1 1 0 1 0 2 0v-2h1v2a1 1 0 1 0 2 0v-2h1v2a1 1 0 1 0 2 0v-2h1v33zm2-35H2v-3h56v3z"/></svg>