<svg xmlns="http://www.w3.org/2000/svg" viewBox="0 0 60 60" style="enable-background:new 0 0 60 60" xml:space="preserve"><path d="M8 31a1 1 0 0 0-1 1v21a1 1 0 1 0 2 0V32a1 1 0 0 0-1-1zM52 54a1 1 0 0 0 1-1V32a1 1 0 1 0-2 0v21a1 1 0 0 0 1 1z"/><path d="M59 23h-9.42l-8-14H41V6h-1V3h-1V0H21v3h-1v3h-1v3h-.58l-8 14H1a1 1 0 1 0 0 2h1v5h2v25H2v5h56v-5h-2V30h2v-5h1a1 1 0 1 0 0-2zM23 2h14v1H23V2zm-1 3h16v1H22V5zm-1 3h18v1H21V8zm-1.42 3h20.84l6.857 12H12.723l6.857-12zM6 30h4v25H6V30zm42 25h-7a2.996 2.996 0 0 1-2.816-2H41v-6h-4.084c1.726-2.992 1.398-6.907-.981-9.668l-1.726-2.003c-.261-.303-.677-.422-1.055-.303a.988.988 0 0 0-.373.213 17.695 17.695 0 0 0-1.7-3.521 1.014 1.014 0 0 0-.092-.126l-.211-.245a.998.998 0 0 0-1.515.001l-1.685 1.956a11.833 11.833 0 0 0-2.616 5.3 1.001 1.001 0 0 0-1.744-.071 8.196 8.196 0 0 0-.091 8.468H18v6h3.816a2.996 2.996 0 0 1-2.816 2h-7V30h36v25zM26.929 42.969c-.638-2.923.171-6.048 2.164-8.36l.81-.939c1.121 2.069 1.688 4.162 1.688 6.233 0 .485.348.9.826.984a.99.99 0 0 0 1.113-.642c.018-.049.296-.821.557-1.994l.333.386c2.093 2.429 2.123 6.013.069 8.336-.071.08-.149.152-.224.228l-.087.085c-.286.28-.593.524-.913.735l-.038.025a5.944 5.944 0 0 1-.954.499c-.04.017-.081.032-.121.047-.317.123-.64.22-.969.287-.047.009-.094.015-.141.023a5.8 5.8 0 0 1-1 .096l-.021.001h-.014a5.908 5.908 0 0 1-.992-.095c-.06-.01-.121-.018-.181-.031a5.807 5.807 0 0 1-1.095-.342 5.819 5.819 0 0 1-.914-.479c-.024-.015-.047-.032-.071-.048a6.097 6.097 0 0 1-.893-.72l-.044-.043c-.108-.107-.216-.214-.317-.33-1.191-1.383-1.68-3.223-1.427-4.979.536 1.118 1.042 1.854 1.077 1.905.272.391.773.494 1.211.303.437-.189.67-.705.568-1.171zM30.358 51c.082-.004.162-.025.244-.031.284-.021.565-.057.844-.108.117-.022.233-.04.349-.067a7.953 7.953 0 0 0 1.273-.414c.365-.153.72-.329 1.06-.535l.07-.046c.379-.235.74-.501 1.077-.798H39v2h-8.642zm-5.592-2c.013.012.029.02.042.031.325.283.668.542 1.031.767.022.014.042.03.064.043.329.2.674.368 1.027.518a7.947 7.947 0 0 0 1.353.447c.118.027.237.039.356.061.256.046.514.079.775.099.088.007.175.03.263.034H20v-2h4.766zm11.335 4c.152.743.482 1.416.924 2H22.974a4.952 4.952 0 0 0 .924-2h12.203zM56 58H4v-1h52v1zm-2-3h-4V30h4v25zm2-27H4v-3h52v3z"/></svg>