<svg xmlns="http://www.w3.org/2000/svg" viewBox="0 0 60 60" style="enable-background:new 0 0 60 60" xml:space="preserve"><path d="M55 46V19h5v-7h-6V2h-4V0h-6v3h-2.84c-.434 0-.838.215-1.081.578l-5.6 8.4c-.005.007-.006.015-.01.021H30v-.911c.331-.433 2.115-1.088 3-1.088V8H19v2c.885 0 2.669.655 3 1.089V12h-9v-.911c.331-.434 2.115-1.089 3-1.089V8H2v2c.885 0 2.669.655 3 1.089V12H0v7h5v35H0v6h59v-6h-4v-8zm-2 0h-4v-2h4v2zm-4 2h4v2h-4v-2zm0-8h4v2h-4v-2zm4-2h-4v-2h4v2zm-4-6h4v2h-4v-2zm3-28v8h-2V4h2zm-6-2h2v10h-2V2zm-2 10h-3.131L44 7.302V12zm-2.465-7h1.597l-4.666 7h-1.597l4.666-7zm-17.866 5h4.661a1.73 1.73 0 0 0-.33 1v1h-4v-1c0-.369-.123-.702-.331-1zm-17 0h4.661a1.73 1.73 0 0 0-.33 1v1H7v-1c0-.369-.123-.702-.331-1zM7 19h5a1 1 0 1 0 0-2H2v-3h56v3H48a1 1 0 1 0 0 2h5v11h-4v-3H11v3H7V19zm4 15H7v-2h4v2zm-4 2h4v2H7v-2zm4 6H7v-2h4v2zm-4 2h4v2H7v-2zm4 6H7v-2h4v2zm-4 2h4v2H7v-2zm7 6H2v-2h12v2zm9.997-2.926c-1.948-2.221-2.577-5.287-1.792-8.046.86 2.026 1.848 3.437 1.904 3.517.275.389.772.474 1.209.279.436-.193.662-.725.558-1.189-.894-4.021.24-8.321 3.033-11.502l1.457-1.66c1.73 2.975 2.607 5.992 2.607 8.979a1 1 0 0 0 1.937.347c.027-.073.515-1.399.899-3.341l.948 1.079v.001c2.97 3.383 3.009 8.378.092 11.618-1.641 1.821-4.016 2.842-6.443 2.843a8.604 8.604 0 0 1-6.409-2.925zM43 54v4h-6.347c.607-.437 1.172-.94 1.681-1.505 3.596-3.993 3.563-10.131-.075-14.275L35.9 39.532a.999.999 0 0 0-1.745.55l-.003.027c-.564-1.837-1.418-3.663-2.558-5.466a1.058 1.058 0 0 0-.094-.126l-.289-.329c-.38-.432-1.124-.432-1.503 0l-2.303 2.624a15.398 15.398 0 0 0-3.74 8.455 14.692 14.692 0 0 1-.372-1.204 1 1 0 0 0-1.816-.278c-2.463 3.935-2.046 9.119 1.016 12.608a10.538 10.538 0 0 0 1.782 1.606H16v-4h-3v-25h34v25h-4zm14 2v2H45v-2h12zm-4-2h-4v-2h4v2z"/><path d="m26 22.414 4 4 4-4 4 4L43.414 21 38 15.586l-4 4-4-4-4 4-4-4L16.586 21 22 26.414l4-4zm12-4L40.586 21 38 23.586 35.414 21 38 18.414zm-8 0L32.586 21 30 23.586 27.414 21 30 18.414zm-8 0L24.586 21 22 23.586 19.414 21 22 18.414z"/></svg>