<?xml version="1.0" encoding="iso-8859-1"?>
<!-- Generator: Adobe Illustrator 18.0.0, SVG Export Plug-In . SVG Version: 6.00 Build 0)  -->
<!DOCTYPE svg PUBLIC "-//W3C//DTD SVG 1.1//EN" "http://www.w3.org/Graphics/SVG/1.1/DTD/svg11.dtd">
<svg version="1.1" id="Capa_1" xmlns="http://www.w3.org/2000/svg" xmlns:xlink="http://www.w3.org/1999/xlink" x="0px" y="0px"
	 viewBox="0 0 60 60" style="enable-background:new 0 0 60 60;" xml:space="preserve">
<path d="M59,58h-6v-3h-1V36h3v-3h2v-2h-2h-1h-4v-1h1c0.404,0,0.769-0.243,0.924-0.617s0.069-0.804-0.217-1.09l-4-4
	C47.52,24.105,47.265,24,47,24h-2.563l-6.481-7H38v-6h-3V0H25v11h-3v6h0.045l-6.481,7H13c-0.265,0-0.52,0.105-0.707,0.293l-4,4
	c-0.286,0.286-0.372,0.716-0.217,1.09S8.596,30,9,30h1v1H6H5H3v2h2v3h3v19H7v3H1c-0.552,0-1,0.447-1,1s0.448,1,1,1h6h46h6
	c0.552,0,1-0.447,1-1S59.552,58,59,58z M27,2h6v9h-6V2z M24,13h1h10h1v2H24V13z M24.771,17h10.459l6.482,7H18.289L24.771,17z
	 M13.414,26h0.297h32.577h0.297l2,2H11.414L13.414,26z M12,30h36v1H12V30z M7,34v-1h3h40h3v1h-1H8H7z M10,36h40v19h-2
	c0-9.489-7.386-17.268-16.709-17.935c-0.002,0-0.003-0.001-0.005-0.001l-0.152-0.012c-0.069-0.005-0.14-0.002-0.21-0.006
	C30.617,37.031,30.312,37,30,37c-0.091,0-0.178,0.012-0.268,0.014c-0.392,0.003-0.787,0.03-1.183,0.06
	c-0.137,0.011-0.276,0.01-0.412,0.024c-0.003,0-0.007,0-0.01,0c-0.002,0-0.004,0.002-0.006,0.002C19.075,38.043,12,45.71,12,55h-2
	V36z M29.855,39.007c0.137-0.001,0.273,0.002,0.409,0.006c0.097,0.001,0.192,0.011,0.289,0.015c0.688,1.627,1.037,3.264,1.037,4.874
	c0,0.485,0.349,0.9,0.826,0.984c0.479,0.088,0.948-0.187,1.113-0.643c0.018-0.048,0.296-0.82,0.557-1.993l0.333,0.386
	c2.092,2.429,2.122,6.013,0.069,8.336c-0.071,0.08-0.149,0.152-0.224,0.228l-0.087,0.085c-0.286,0.28-0.593,0.524-0.913,0.735
	c-0.013,0.008-0.025,0.017-0.038,0.025c-0.306,0.198-0.626,0.363-0.954,0.499c-0.04,0.017-0.081,0.032-0.121,0.047
	c-0.317,0.123-0.64,0.22-0.969,0.287c-0.047,0.009-0.094,0.015-0.141,0.023c-0.331,0.059-0.665,0.095-1,0.096
	c-0.007,0-0.014,0.001-0.021,0.001c-0.005,0-0.009,0-0.014,0c-0.332-0.001-0.664-0.038-0.992-0.095
	c-0.06-0.01-0.121-0.018-0.181-0.031c-0.316-0.065-0.627-0.158-0.931-0.276c-0.055-0.021-0.11-0.043-0.164-0.066
	c-0.314-0.132-0.621-0.289-0.914-0.479c-0.024-0.015-0.047-0.032-0.071-0.048c-0.313-0.208-0.613-0.446-0.893-0.72l-0.044-0.043
	c-0.108-0.107-0.216-0.214-0.317-0.33c-1.191-1.383-1.68-3.223-1.427-4.979c0.536,1.118,1.042,1.854,1.077,1.905
	c0.272,0.391,0.773,0.494,1.211,0.303c0.438-0.19,0.67-0.707,0.568-1.173c-0.594-2.722,0.081-5.645,1.806-7.905
	C29.106,39.035,29.478,39.011,29.855,39.007z M24.966,42.612c-0.143-0.289-0.419-0.496-0.747-0.545
	c-0.394-0.056-0.792,0.122-1.002,0.465c-1.622,2.638-1.612,5.879-0.091,8.468H18v4h-4c0-7.479,5.166-13.759,12.113-15.503
	C25.59,40.485,25.193,41.531,24.966,42.612z M20,53h4.766c0.013,0.012,0.029,0.02,0.042,0.031c0.325,0.283,0.668,0.542,1.031,0.767
	c0.022,0.014,0.042,0.03,0.064,0.043c0.329,0.2,0.674,0.368,1.027,0.518c0.113,0.048,0.226,0.094,0.34,0.137
	c0.331,0.123,0.668,0.232,1.013,0.31c0.118,0.027,0.237,0.039,0.356,0.061c0.256,0.046,0.514,0.079,0.775,0.099
	c0.088,0.007,0.175,0.03,0.263,0.034H20V53z M30.602,54.969c0.284-0.021,0.565-0.057,0.844-0.108
	c0.117-0.022,0.233-0.04,0.349-0.067c0.333-0.077,0.659-0.18,0.979-0.299c0.099-0.037,0.196-0.074,0.294-0.115
	c0.365-0.153,0.72-0.329,1.06-0.535c0.024-0.015,0.046-0.031,0.07-0.046c0.379-0.235,0.74-0.501,1.077-0.798H39v2h-8.642
	C30.44,54.996,30.52,54.975,30.602,54.969z M36.916,51c1.727-2.993,1.398-6.907-0.982-9.669l-1.447-1.679
	C41.13,41.598,46,47.736,46,55h-5v-4H36.916z M9,58v-1h3h6h23h7h3v1H9z"/>
<g>
</g>
<g>
</g>
<g>
</g>
<g>
</g>
<g>
</g>
<g>
</g>
<g>
</g>
<g>
</g>
<g>
</g>
<g>
</g>
<g>
</g>
<g>
</g>
<g>
</g>
<g>
</g>
<g>
</g>
</svg>
