<?xml version="1.0" encoding="iso-8859-1"?>
<!-- Generator: Adobe Illustrator 18.0.0, SVG Export Plug-In . SVG Version: 6.00 Build 0)  -->
<!DOCTYPE svg PUBLIC "-//W3C//DTD SVG 1.1//EN" "http://www.w3.org/Graphics/SVG/1.1/DTD/svg11.dtd">
<svg version="1.1" id="Capa_1" xmlns="http://www.w3.org/2000/svg" xmlns:xlink="http://www.w3.org/1999/xlink" x="0px" y="0px"
	 viewBox="0 0 58.083 58.083" style="enable-background:new 0 0 58.083 58.083;" xml:space="preserve">
<g>
	<path d="M14.822,33.083l3.911,19.556c0.283,1.416,1.537,2.444,2.981,2.444h14.654c1.444,0,2.698-1.028,2.981-2.444l3.911-19.556
		h-13.22v-8.08c3.387-0.488,6-3.401,6-6.92c0-0.553-0.448-1-1-1c-1.958,0-3.728,0.81-5,2.111v-4.136c2.799-0.254,5-2.611,5-5.475
		V4.406l0.002-0.026l-0.035-1.464L30.042,4.67V2.553l-5.658-1.998L23.082,0l-0.04,9.583c0,2.864,2.201,5.221,5,5.475v11.136
		c-1.272-1.3-3.042-2.111-5-2.111c-0.552,0-1,0.447-1,1c0,3.519,2.613,6.432,6,6.92v1.08H14.822z M33.042,5.731v3.852
		c0,1.76-1.306,3.221-3,3.465V6.79L33.042,5.731z M25.042,9.583V2.908l3,1.059v1.409v7.672
		C26.348,12.804,25.042,11.343,25.042,9.583z M33.897,19.228c-0.434,1.835-1.875,3.277-3.71,3.71
		C30.62,21.103,32.061,19.661,33.897,19.228z M24.186,26.228c1.835,0.434,3.277,1.875,3.71,3.71
		C26.061,29.505,24.62,28.063,24.186,26.228z M36.369,53.083H21.714c-0.494,0-0.923-0.352-1.021-0.837l-0.833-4.163h18.36
		l-0.833,4.163C37.292,52.731,36.863,53.083,36.369,53.083z M38.622,46.083H19.461l-2.2-11h23.561L38.622,46.083z"/>
	<path d="M44.749,53.376c-0.391-0.391-1.023-0.391-1.414,0l-2.707,2.707H17.456l-2.707-2.707c-0.391-0.391-1.023-0.391-1.414,0
		s-0.391,1.023,0,1.414l2.999,2.999c0.092,0.093,0.203,0.166,0.326,0.217c0.122,0.051,0.252,0.077,0.382,0.077h24
		c0.13,0,0.26-0.027,0.382-0.077c0.123-0.051,0.233-0.124,0.326-0.217l2.999-2.999C45.139,54.399,45.139,53.767,44.749,53.376z"/>
</g>
<g>
</g>
<g>
</g>
<g>
</g>
<g>
</g>
<g>
</g>
<g>
</g>
<g>
</g>
<g>
</g>
<g>
</g>
<g>
</g>
<g>
</g>
<g>
</g>
<g>
</g>
<g>
</g>
<g>
</g>
</svg>
