<svg xmlns="http://www.w3.org/2000/svg" viewBox="0 0 58.083 58.083" style="enable-background:new 0 0 58.083 58.083" xml:space="preserve"><path d="m14.822 33.083 3.911 19.556a3.048 3.048 0 0 0 2.981 2.444h14.654a3.048 3.048 0 0 0 2.981-2.444l3.911-19.556H30.04v-8.08c3.387-.488 6-3.401 6-6.92a1 1 0 0 0-1-1c-1.958 0-3.728.81-5 2.111v-4.136a5.506 5.506 0 0 0 5-5.475V4.406l.002-.026-.035-1.464-4.965 1.754V2.553L24.384.555 23.082 0l-.04 9.583a5.506 5.506 0 0 0 5 5.475v11.136a6.977 6.977 0 0 0-5-2.111 1 1 0 0 0-1 1c0 3.519 2.613 6.432 6 6.92v1.08h-13.22zm18.22-27.352v3.852a3.507 3.507 0 0 1-3 3.465V6.79l3-1.059zm-8 3.852V2.908l3 1.059v9.081a3.507 3.507 0 0 1-3-3.465zm8.855 9.645a5.001 5.001 0 0 1-3.71 3.71 4.998 4.998 0 0 1 3.71-3.71zm-9.711 7a5.001 5.001 0 0 1 3.71 3.71 5.001 5.001 0 0 1-3.71-3.71zm12.183 26.855H21.714c-.494 0-.923-.352-1.021-.837l-.833-4.163h18.36l-.833 4.163a1.04 1.04 0 0 1-1.018.837zm2.253-7H19.461l-2.2-11h23.561l-2.2 11z"/><path d="M44.749 53.376a.999.999 0 0 0-1.414 0l-2.707 2.707H17.456l-2.707-2.707a.999.999 0 1 0-1.414 1.414l2.999 2.999a.99.99 0 0 0 .326.217.991.991 0 0 0 .382.077h24a1.01 1.01 0 0 0 .708-.294l2.999-2.999a1 1 0 0 0 0-1.414z"/></svg>