<svg xmlns="http://www.w3.org/2000/svg" viewBox="0 0 55 55" style="enable-background:new 0 0 55 55" xml:space="preserve"><path d="M21.5 44h6a1 1 0 1 0 0-2h-6a1 1 0 1 0 0 2zM30.5 44c.26 0 .52-.11.71-.29.18-.19.29-.45.29-.71 0-.271-.11-.53-.29-.71-.37-.36-1.04-.37-1.42 0-.18.189-.29.439-.29.71 0 .26.11.52.29.71.19.18.45.29.71.29zM26.5 45h-2a1 1 0 1 0 0 2h2a1 1 0 1 0 0-2zM21.5 47c.26 0 .52-.11.71-.29.18-.19.29-.45.29-.71s-.11-.521-.29-.71c-.37-.37-1.04-.37-1.42 0-.18.189-.29.45-.29.71 0 .27.11.52.29.71.19.18.45.29.71.29z"/><circle cx="19.5" cy="16" r="1"/><circle cx="31.5" cy="9" r="1"/><circle cx="32.5" cy="22" r="1"/><path d="M47.5 18a12.9 12.9 0 0 0-6.645 1.847 4.019 4.019 0 0 0-.855-.953 3.97 3.97 0 0 0-1.136-3.258 3.937 3.937 0 0 0-.754-.584 3.959 3.959 0 0 0 .89-2.947c.939-.751 1.5-1.885 1.5-3.106s-.56-2.354-1.5-3.105a3.968 3.968 0 0 0-4.393-4.395C33.856.56 32.722 0 31.5 0s-2.356.56-3.107 1.499A3.967 3.967 0 0 0 24 5.894a3.956 3.956 0 0 0-1.437 2.563A3.967 3.967 0 0 0 19.5 7c-1.222 0-2.356.56-3.107 1.499A3.967 3.967 0 0 0 12 12.894 3.974 3.974 0 0 0 10.5 16c0 .504.117.985.295 1.439A12.978 12.978 0 0 0 7.5 17h-1v1c0 6.831 5.299 12.436 12 12.949V33h-7v8h2.61l3.615 14h17.549l3.615-14h2.61v-8h-5v-1.051c6.701-.514 12-6.119 12-12.949v-1H47.5zm-8.286 2.992c-.148.123-.284.258-.426.387-.112.102-.228.201-.336.306-.137.133-.267.272-.398.411a12.422 12.422 0 0 0-1.142 1.388c-.078.109-.16.215-.234.327-.199.298-.384.604-.557.917-.061.109-.114.223-.172.334a12.738 12.738 0 0 0-.504 1.096c-.092.229-.176.461-.255.696-.044.131-.092.26-.132.392-.006.021-.015.041-.021.062l-.39-.121-.387.736C33.911 28.587 33.236 29 32.5 29s-1.411-.413-1.76-1.078l-.387-.737-.795.247c-.719.224-1.487.038-2.007-.482s-.705-1.289-.482-2.007l.247-.795-.737-.387c-.055-.029-.097-.072-.148-.105a.985.985 0 0 0-.608-.59A1.957 1.957 0 0 1 25.5 22c0-.181.026-.359.074-.529.014-.052.043-.097.062-.147.042-.113.083-.226.145-.33.051-.085.121-.159.185-.236.046-.055.084-.116.136-.167a2.21 2.21 0 0 1 .315-.239c.045-.03.083-.066.13-.093l.119-.068.648-.34-.247-.795a2.067 2.067 0 0 1-.088-.518c-.002-.049.007-.095.008-.143.003-.118.012-.236.036-.351.01-.052.026-.103.041-.154.033-.113.075-.223.128-.328.02-.04.038-.082.061-.12.083-.14.178-.275.297-.393.032-.032.072-.051.106-.08.099-.086.199-.173.32-.24l.024-.013c.264-.144.559-.212.861-.225l.065-.001c.088-.002.164.005.242.011.13.014.26.026.388.066l.795.247.387-.737A1.996 1.996 0 0 1 32.5 15c.181 0 .358.026.528.074.054.015.101.045.153.065.11.041.221.081.322.141.086.052.161.121.239.186.054.045.113.083.163.133.09.093.165.202.238.313.03.046.068.084.094.133l.068.117.343.653.795-.247c.719-.224 1.487-.038 2.007.482s.705 1.289.482 2.007l-.247.794.736.388c.334.176.606.438.793.753zM30.5 33v-2.568a3.9 3.9 0 0 0 1 .428V33h-1zm-4 0v-4.347a3.95 3.95 0 0 0 2 .846V33h-2zm-3 0v-9.515c.1-.011.2-.018.298-.037.168.424.4.814.702 1.158V33h-1zm2.079-25.761.737-.387-.247-.795a1.968 1.968 0 0 1 1.879-2.582c.203 0 .408.03.609.093l.795.247.387-.737C30.089 2.413 30.764 2 31.5 2s1.411.413 1.76 1.078l.387.737.795-.247a1.99 1.99 0 0 1 2.007.482 1.99 1.99 0 0 1 .482 2.007l-.247.795.737.387C38.087 7.59 38.5 8.264 38.5 9s-.413 1.41-1.079 1.761l-.737.387.247.795a1.992 1.992 0 0 1-.482 2.008 1.896 1.896 0 0 1-.892.498l-.029-.028A3.968 3.968 0 0 0 32.5 13c-.301 0-.595.035-.881.101-.096.022-.184.066-.278.095-.185.057-.371.11-.544.192-.106.05-.2.122-.301.182-.148.088-.3.169-.436.275-.099.077-.182.173-.273.26-.107.101-.223.19-.318.303l-.117-.223-.794.247a2.012 2.012 0 0 1-.884.057l-.061-.01a1.921 1.921 0 0 1-1.046-.517l-.017-.013a1.99 1.99 0 0 1-.482-2.007l.247-.795-.737-.387a2.062 2.062 0 0 1-.415-.295c-.042-.038-.077-.083-.116-.124a2.006 2.006 0 0 1-.202-.248 2.189 2.189 0 0 1-.287-.668A1.997 1.997 0 0 1 24.5 9c0-.736.413-1.41 1.079-1.761zM14.108 18.813l.208-.665-.737-.388c-.666-.35-1.079-1.024-1.079-1.76s.413-1.41 1.079-1.761l.737-.387-.247-.795a1.99 1.99 0 0 1 .482-2.007 1.988 1.988 0 0 1 2.007-.482l.795.247.387-.737C18.089 9.413 18.764 9 19.5 9s1.411.413 1.76 1.078l.388.737.795-.247c.113-.035.231-.06.354-.071.019.048.046.092.067.139a3.918 3.918 0 0 0 .483.805c.023.03.049.057.073.085.174.21.364.408.58.581a4.022 4.022 0 0 0 0 .891c.025.224.086.44.148.655.182.634.505 1.227.989 1.71.223.223.468.413.73.574-.086.106-.159.22-.234.334-.023.034-.049.066-.071.101a3.989 3.989 0 0 0-.395.894 3.98 3.98 0 0 0-.149.659c-.003.021-.011.04-.014.061l-.316.169.245.787.003.011a4.06 4.06 0 0 0-.522.527c-.081.098-.143.208-.214.313-.082.12-.164.239-.232.367-.058.111-.104.225-.151.341a3.94 3.94 0 0 0-.232.763c-.013.067-.037.13-.047.198a2.025 2.025 0 0 1-1.094-.031l-.795-.247-.387.737C20.911 22.587 20.236 23 19.5 23s-1.411-.413-1.76-1.078l-.398-.758-.234.08c-.057-.063-.127-.113-.186-.175a12.998 12.998 0 0 0-1.183-1.116c-.053-.043-.111-.081-.165-.123a13.216 13.216 0 0 0-1.332-.924c-.047-.028-.086-.065-.134-.093zm-5.558.237c1.303.124 2.54.476 3.671 1.016l.087.045c.101.049.197.106.296.158a11.217 11.217 0 0 1 1.626 1.049c.09.07.183.137.271.21.18.148.352.308.522.467.148.139.292.281.432.427.164.171.326.344.479.527a10.948 10.948 0 0 1 2.516 6.001c-5.229-.497-9.403-4.671-9.9-9.9zM20.5 31v-6.139a3.938 3.938 0 0 0 1-.429V33h-1v-2zm13.226 22H19.274l-3.099-12h20.648l-3.097 12zM39.5 39H13.5v-4h26v4zm-6-6v-2.139a3.92 3.92 0 0 0 1.03-.448c-.009.196-.03.389-.03.587v2h-1zm3.05-3.05c.047-.498.138-.983.25-1.459.051-.217.105-.434.169-.646.033-.108.07-.215.105-.322.067-.202.138-.402.217-.599.043-.107.09-.213.136-.319a10.695 10.695 0 0 1 .921-1.686 10.727 10.727 0 0 1 .56-.767c.168-.209.343-.413.526-.61.033-.035.065-.072.098-.106.217-.228.443-.448.68-.657l.009-.008c.251-.222.514-.434.787-.634l.247-.181a10.938 10.938 0 0 1 5.195-1.905c-.497 5.228-4.671 9.402-9.9 9.899z"/></svg>