<svg xmlns="http://www.w3.org/2000/svg" viewBox="0 0 60 60" style="enable-background:new 0 0 60 60" xml:space="preserve"><path d="M51 23v-2h2a1 1 0 1 0 0-2h-2.527A3.877 3.877 0 0 0 51 17.072V6h2a1 1 0 1 0 0-2h-3.031c-.159-2.229-2.004-4-4.273-4H14.304c-2.269 0-4.114 1.771-4.273 4H7a1 1 0 1 0 0 2h2v11.072c0 .704.201 1.356.527 1.928H7a1 1 0 1 0 0 2h2v9.072c0 .704.201 1.356.527 1.928H7a1 1 0 1 0 0 2h2v8.072c0 1.845 1.283 3.385 3 3.805V59a1 1 0 0 0 1 1h34a1 1 0 0 0 1-1V45.878c1.717-.42 3-1.96 3-3.805V34h2a1 1 0 1 0 0-2h-2.527A3.877 3.877 0 0 0 51 30.072V23zm-3.928 9H12.928A1.93 1.93 0 0 1 11 30.072V24h38v6.072A1.93 1.93 0 0 1 47.072 32zM11 17.072V9h38v8.072A1.93 1.93 0 0 1 47.072 19H12.928A1.93 1.93 0 0 1 11 17.072zM14.304 2h31.393c1.167 0 2.135.873 2.284 2H12.02a2.308 2.308 0 0 1 2.284-2zM49 6v1H11V6h38zM12.928 21H49v1H11v-1h1.928zM46 50.271c-3.728-1.206-8.158-1.957-12.93-2.188C32.22 47.415 31.162 47 30 47s-2.22.415-3.07 1.083c-4.772.231-9.202.981-12.93 2.188V46h32v4.271zm-18.936 1.116c.004-.018.012-.034.016-.052.134-.582.44-1.113.9-1.535l.008-.01A2.98 2.98 0 0 1 30 49c.462 0 .894.114 1.285.301l-1.992 1.992a.999.999 0 1 0 1.414 1.414l1.99-1.99c.096.198.173.404.223.619.004.017.012.033.016.051A3.004 3.004 0 0 1 30 55a3.004 3.004 0 0 1-2.936-3.613zM46 58H14v-5.626c3.254-1.125 7.132-1.874 11.35-2.194-.037.093-.053.192-.084.286-.062.191-.13.379-.169.58A4.825 4.825 0 0 0 25 52c0 2.757 2.243 5 5 5s5-2.243 5-5c0-.322-.034-.642-.096-.955-.039-.2-.107-.388-.169-.58-.031-.094-.047-.194-.084-.286 4.218.32 8.096 1.069 11.35 2.194V58zm1.072-14H12.928A1.93 1.93 0 0 1 11 42.072V37h38v5.072A1.93 1.93 0 0 1 47.072 44zM49 35H11v-1h38v1z"/></svg>