<?xml version="1.0" encoding="iso-8859-1"?>
<!-- Generator: Adobe Illustrator 18.0.0, SVG Export Plug-In . SVG Version: 6.00 Build 0)  -->
<!DOCTYPE svg PUBLIC "-//W3C//DTD SVG 1.1//EN" "http://www.w3.org/Graphics/SVG/1.1/DTD/svg11.dtd">
<svg version="1.1" id="Capa_1" xmlns="http://www.w3.org/2000/svg" xmlns:xlink="http://www.w3.org/1999/xlink" x="0px" y="0px"
	 viewBox="0 0 60 60" style="enable-background:new 0 0 60 60;" xml:space="preserve">
<g>
	<path d="M42.56,0H17.44c-1.621,0-2.94,1.319-2.94,2.94V35v2v20.06c0,1.621,1.319,2.94,2.94,2.94H42.56
		c1.621,0,2.94-1.319,2.94-2.94V37v-2V2.94C45.5,1.319,44.181,0,42.56,0z M43.5,57.06c0,0.519-0.422,0.94-0.94,0.94H17.44
		c-0.519,0-0.94-0.422-0.94-0.94V37h27V57.06z M16.5,35V2.94C16.5,2.422,16.922,2,17.44,2H42.56c0.519,0,0.94,0.422,0.94,0.94V35
		H16.5z"/>
	<path d="M18.5,21c-0.553,0-1,0.447-1,1s0.447,1,1,1c0.552,0,1,0.448,1,1v6c0,0.552-0.448,1-1,1c-0.553,0-1,0.447-1,1s0.447,1,1,1
		c1.654,0,3-1.346,3-3v-6C21.5,22.346,20.154,21,18.5,21z"/>
	<path d="M18.5,49c-0.553,0-1,0.447-1,1s0.447,1,1,1c1.654,0,3-1.346,3-3v-6c0-1.654-1.346-3-3-3c-0.553,0-1,0.447-1,1s0.447,1,1,1
		c0.552,0,1,0.448,1,1v6C19.5,48.552,19.052,49,18.5,49z"/>
	<path d="M30.5,6h-2c-0.553,0-1,0.447-1,1s0.447,1,1,1h2c0.553,0,1-0.447,1-1S31.053,6,30.5,6z"/>
</g>
<g>
</g>
<g>
</g>
<g>
</g>
<g>
</g>
<g>
</g>
<g>
</g>
<g>
</g>
<g>
</g>
<g>
</g>
<g>
</g>
<g>
</g>
<g>
</g>
<g>
</g>
<g>
</g>
<g>
</g>
</svg>
