<svg xmlns="http://www.w3.org/2000/svg" viewBox="0 0 60 60" style="enable-background:new 0 0 60 60" xml:space="preserve"><path d="M41 9h2a1 1 0 1 0 0-2h-2a1 1 0 1 0 0 2zM33 39h17V22H33v17zm2-15h13v13H35V24z"/><path d="M49.403 0H10.561A4.566 4.566 0 0 0 6 4.561v52.51A2.933 2.933 0 0 0 8.93 60h42.14A2.933 2.933 0 0 0 54 57.07V4.54C53.949 2.037 51.887 0 49.403 0zM8 57.07V4.561A2.563 2.563 0 0 1 10.561 2H29v56H8.93a.93.93 0 0 1-.93-.93zm44 0a.93.93 0 0 1-.93.93H31V2h18.403C50.807 2 51.972 3.158 52 4.561V57.07z"/><path d="M46 26h-9a1 1 0 1 0 0 2h9a1 1 0 1 0 0-2zM10 22v17h17V22H10zm15 15H12v-1h13v1zm0-3H12v-5h1v4h5v-4h1v4h5v-4h1v5zm-10-5h1v2h-1v-2zm6 0h1v2h-1v-2zm3-2H12v-3h13v3h-1z"/></svg>