<svg xmlns="http://www.w3.org/2000/svg" viewBox="0 0 60 60" style="enable-background:new 0 0 60 60" xml:space="preserve"><path d="M43 7h-2a1 1 0 1 0 0 2h2a1 1 0 1 0 0-2zM14 22h-3v14h12V22h-9zm4 2v3h-2v-3h2zm3 0v10h-8V24h1v5h6v-5h1zM26 20a1 1 0 0 0-1 1v16a1 1 0 1 0 2 0V21a1 1 0 0 0-1-1zM34 20a1 1 0 0 0-1 1v16a1 1 0 1 0 2 0V21a1 1 0 0 0-1-1zM21 45a1 1 0 0 0 1 1h16a1 1 0 1 0 0-2H22a1 1 0 0 0-1 1z"/><path d="M51.83 0H8.17C6.974 0 6 .974 6 2.17v54.9A2.933 2.933 0 0 0 8.93 60h42.14A2.933 2.933 0 0 0 54 57.07V2.17C54 .974 53.026 0 51.83 0zM8 2.17A.17.17 0 0 1 8.17 2H29v38H8V2.17zm44 54.9a.93.93 0 0 1-.93.93H8.93a.93.93 0 0 1-.93-.93V42h44v15.07zM31 40V2h20.83a.17.17 0 0 1 .17.17V40H31z"/></svg>