<svg xmlns="http://www.w3.org/2000/svg" viewBox="0 0 60 60" style="enable-background:new 0 0 60 60" xml:space="preserve"><path d="M42.56 0H17.44a2.943 2.943 0 0 0-2.94 2.94V57.06A2.943 2.943 0 0 0 17.44 60h25.12a2.943 2.943 0 0 0 2.94-2.94V2.94A2.943 2.943 0 0 0 42.56 0zm.94 57.06a.94.94 0 0 1-.94.94H17.44a.94.94 0 0 1-.94-.94V37h27v20.06zM16.5 35V2.94c0-.518.422-.94.94-.94h25.12a.94.94 0 0 1 .94.94V35h-27z"/><path d="M18.5 21a1 1 0 1 0 0 2 1 1 0 0 1 1 1v6a1 1 0 0 1-1 1 1 1 0 1 0 0 2c1.654 0 3-1.346 3-3v-6c0-1.654-1.346-3-3-3zM18.5 49a1 1 0 1 0 0 2c1.654 0 3-1.346 3-3v-6c0-1.654-1.346-3-3-3a1 1 0 1 0 0 2 1 1 0 0 1 1 1v6a1 1 0 0 1-1 1zM30.5 6h-2a1 1 0 1 0 0 2h2a1 1 0 1 0 0-2z"/></svg>