<svg xmlns="http://www.w3.org/2000/svg" viewBox="0 0 60 60" style="enable-background:new 0 0 60 60" xml:space="preserve"><path d="m59.6 23.086-3.979-2.984L34.414 3.985a7.314 7.314 0 0 0-8.828 0L4.379 20.102.4 23.086a.999.999 0 1 0 1.2 1.599l2.4-1.8v3.212c-.22.121-.42.264-.587.438l-.525.453c-.924.492-1.615 1.457-1.817 2.553a3.929 3.929 0 0 0 .102 1.829c.097.329.02.727-.208 1.063-1.047 1.549-1.259 3.707-.527 5.374.111.251.248.487.409.705.231.312.313.725.219 1.107a4.178 4.178 0 0 0-.105.623c-.082.895.102 1.765.25 2.464.155.735.39 1.846 1.215 2.555.44.379.979.576 1.576.609v3.015H1.349a1.299 1.299 0 0 0-1.285 1.494l1.076 7.117h52.013A2.85 2.85 0 0 0 56 54.649V22.886l2.4 1.8a1 1 0 1 0 1.2-1.6zM3.167 42.295c-.132-.627-.269-1.275-.214-1.872.01-.107.028-.217.054-.322a3.349 3.349 0 0 0-.554-2.779 1.748 1.748 0 0 1-.186-.32c-.458-1.043-.312-2.461.354-3.447.567-.84.738-1.843.468-2.752a1.97 1.97 0 0 1-.052-.897c.096-.519.425-.979.838-1.175l.909-.741a.9.9 0 0 1 .487-.238 1.55 1.55 0 0 1 .253-.03l.048-.003c.112-.001.23.005.351.022.746.105 1.364.501 1.652 1.056.153.297.202.7.126 1.053-.035.165-.041.333-.049.5a3.02 3.02 0 0 0 .665 2.055c.119.146.209.337.247.528.05.247.049.523-.001.835a5.101 5.101 0 0 1-.305 1.044 5.61 5.61 0 0 1-.655 1.236c-.654.9-.752 2.171-.257 3.315.235.543.274 1.237.101 1.807-.394 1.302-1.547 2.061-2.2 2.397-.156.08-.324.147-.493.203-.398.13-.798.17-1.026-.024-.312-.268-.462-.98-.561-1.451zM7.14 55.497H2.86l-.698-4.611H7.837l-.697 4.611zm6.86 0v-3h33v3H14zm33-13v3H14v-3h33zm-33-2v-3h33v3H14zm33-5H14v-3h33v3zm-33 12h33v3H14v-3zm33-17H14v-3h33v3zm6.153 25H49v-30H12v30H9.163l.775-5.124a1.294 1.294 0 0 0-1.281-1.487H6v-3.459c.056-.026.111-.054.166-.082 1.611-.832 2.746-2.108 3.196-3.595a4.767 4.767 0 0 0-.18-3.182c-.157-.363-.188-.746-.099-1.053a.926.926 0 0 1 .138-.294 7.585 7.585 0 0 0 .897-1.677c.38-.959.521-1.803.455-2.574-.012-.146-.019-.294-.047-.434a3.207 3.207 0 0 0-.665-1.406 1.07 1.07 0 0 1-.204-.864 3.634 3.634 0 0 0-.306-2.392c-.586-1.128-1.762-1.92-3.146-2.116a4.638 4.638 0 0 0-.165-.02L28.174 8.917a3.029 3.029 0 0 1 3.652 0L54 25.769V54.65c0 .467-.38.847-.847.847zM54 23.258 33.036 7.325a5.031 5.031 0 0 0-6.072 0L6 23.258v-1.872l3.6-2.7c.046-.035.072-.083.111-.124L26.796 5.576a5.31 5.31 0 0 1 6.408 0l12.974 9.861a.987.987 0 0 0 .222.249l7.6 5.7v1.872z"/></svg>