<?xml version="1.0" encoding="iso-8859-1"?>
<!-- Generator: Adobe Illustrator 18.0.0, SVG Export Plug-In . SVG Version: 6.00 Build 0)  -->
<!DOCTYPE svg PUBLIC "-//W3C//DTD SVG 1.1//EN" "http://www.w3.org/Graphics/SVG/1.1/DTD/svg11.dtd">
<svg version="1.1" id="Capa_1" xmlns="http://www.w3.org/2000/svg" xmlns:xlink="http://www.w3.org/1999/xlink" x="0px" y="0px"
	 viewBox="0 0 60 60" style="enable-background:new 0 0 60 60;" xml:space="preserve">
<g>
	<path d="M58,14.586V4H32v12.465V20h26V14.586z M34,6h22v6.586l-2.471-2.471c-1.39-1.389-3.645-1.477-5.137-0.197l-3.764,3.227
		c-0.507,0.435-1.203,0.548-1.822,0.301l-2.075-0.83c-1.156-0.464-2.467-0.328-3.504,0.365L34,15.132V6z M56,18H34v-0.465
		l4.337-2.891c0.49-0.325,1.106-0.392,1.651-0.172l2.076,0.83c1.312,0.524,2.793,0.28,3.865-0.641l3.764-3.226
		c0.704-0.603,1.769-0.561,2.422,0.093L56,15.414V18z"/>
	<path d="M59,58H22.816C22.928,57.686,23,57.352,23,57c0-1.654-1.346-3-3-3h-5V35.414l8.981-8.981C24.576,26.785,25.26,27,26,27
		c2.206,0,4-1.794,4-4s-1.794-4-4-4s-4,1.794-4,4c0,0.74,0.215,1.424,0.567,2.019L15,32.586V20.414l3.981-3.981
		C19.576,16.785,20.26,17,21,17c2.206,0,4-1.794,4-4s-1.794-4-4-4s-4,1.794-4,4c0,0.74,0.215,1.424,0.567,2.019L15,17.586V7.858
		C16.72,7.411,18,5.859,18,4c0-2.206-1.794-4-4-4s-4,1.794-4,4c0,1.859,1.28,3.411,3,3.858v19.728l-3.567-3.567
		C9.785,23.424,10,22.74,10,22c0-2.206-1.794-4-4-4s-4,1.794-4,4s1.794,4,4,4c0.74,0,1.424-0.215,2.019-0.567L13,30.414V54H8
		c-1.654,0-3,1.346-3,3c0,0.352,0.072,0.686,0.184,1H1c-0.553,0-1,0.447-1,1s0.447,1,1,1h7h12h39c0.553,0,1-0.447,1-1
		S59.553,58,59,58z M26,21c1.103,0,2,0.897,2,2s-0.897,2-2,2s-2-0.897-2-2S24.897,21,26,21z M21,11c1.103,0,2,0.897,2,2
		s-0.897,2-2,2s-2-0.897-2-2S19.897,11,21,11z M4,22c0-1.103,0.897-2,2-2s2,0.897,2,2s-0.897,2-2,2S4,23.103,4,22z M12,4
		c0-1.103,0.897-2,2-2s2,0.897,2,2s-0.897,2-2,2S12,5.103,12,4z M8,58c-0.552,0-1-0.448-1-1s0.448-1,1-1h12c0.552,0,1,0.448,1,1
		s-0.448,1-1,1H8z"/>
</g>
<g>
</g>
<g>
</g>
<g>
</g>
<g>
</g>
<g>
</g>
<g>
</g>
<g>
</g>
<g>
</g>
<g>
</g>
<g>
</g>
<g>
</g>
<g>
</g>
<g>
</g>
<g>
</g>
<g>
</g>
</svg>
