<svg xmlns="http://www.w3.org/2000/svg" viewBox="0 0 60 60" style="enable-background:new 0 0 60 60" xml:space="preserve"><path d="m36.18 58 3.001-18H34v-6.667A2.336 2.336 0 0 1 36.333 31a2.336 2.336 0 0 1 2.334 2.333h2c0-2.39-1.944-4.333-4.334-4.333S32 30.943 32 33.333V40h-7.181l3.001 18h-7.004c.112-.314.184-.648.184-1 0-1.654-1.346-3-3-3h-5v-8.586l9.707-9.707-1.414-1.414L13 42.586V25.414l4.707-4.707-1.414-1.414L13 22.586V7.858c1.721-.447 3-1.999 3-3.858 0-2.206-1.794-4-4-4S8 1.794 8 4c0 1.859 1.279 3.411 3 3.858v6.728l-4.293-4.293-1.414 1.414L11 17.414v17.172l-4.293-4.293-1.414 1.414L11 37.414V54H6c-1.654 0-3 1.346-3 3 0 .352.072.686.184 1H0v2h60v-2H36.18zM10 4c0-1.103.897-2 2-2s2 .897 2 2-.897 2-2 2-2-.897-2-2zM6 58a1 1 0 0 1 0-2h12a1 1 0 0 1 0 2H6zm23.847 0-2.666-16h9.639l-2.666 16h-4.307z"/></svg>