<svg xmlns="http://www.w3.org/2000/svg" viewBox="0 0 60 60" style="enable-background:new 0 0 60 60" xml:space="preserve"><path d="M58 14.586V4H32v16h26v-5.414zM34 6h22v6.586l-2.471-2.471a3.799 3.799 0 0 0-5.137-.197l-3.764 3.227a1.774 1.774 0 0 1-1.822.301l-2.075-.83a3.775 3.775 0 0 0-3.504.365L34 15.132V6zm22 12H34v-.465l4.337-2.891a1.78 1.78 0 0 1 1.651-.172l2.076.83a3.768 3.768 0 0 0 3.865-.641l3.764-3.226a1.792 1.792 0 0 1 2.422.093L56 15.414V18zM59 58H22.816c.112-.314.184-.648.184-1 0-1.654-1.346-3-3-3h-5V35.414l8.981-8.981A3.947 3.947 0 0 0 26 27c2.206 0 4-1.794 4-4s-1.794-4-4-4-4 1.794-4 4c0 .74.215 1.424.567 2.019L15 32.586V20.414l3.981-3.981A3.947 3.947 0 0 0 21 17c2.206 0 4-1.794 4-4s-1.794-4-4-4-4 1.794-4 4c0 .74.215 1.424.567 2.019L15 17.586V7.858c1.72-.447 3-1.999 3-3.858 0-2.206-1.794-4-4-4s-4 1.794-4 4c0 1.859 1.28 3.411 3 3.858v19.728l-3.567-3.567A3.947 3.947 0 0 0 10 22c0-2.206-1.794-4-4-4s-4 1.794-4 4 1.794 4 4 4c.74 0 1.424-.215 2.019-.567L13 30.414V54H8c-1.654 0-3 1.346-3 3 0 .352.072.686.184 1H1a1 1 0 1 0 0 2h58a1 1 0 1 0 0-2zM26 21c1.103 0 2 .897 2 2s-.897 2-2 2-2-.897-2-2 .897-2 2-2zm-5-10c1.103 0 2 .897 2 2s-.897 2-2 2-2-.897-2-2 .897-2 2-2zM4 22c0-1.103.897-2 2-2s2 .897 2 2-.897 2-2 2-2-.897-2-2zm8-18c0-1.103.897-2 2-2s2 .897 2 2-.897 2-2 2-2-.897-2-2zM8 58a1 1 0 0 1 0-2h12a1 1 0 0 1 0 2H8z"/></svg>