<?xml version="1.0" encoding="iso-8859-1"?>
<!-- Generator: Adobe Illustrator 18.0.0, SVG Export Plug-In . SVG Version: 6.00 Build 0)  -->
<!DOCTYPE svg PUBLIC "-//W3C//DTD SVG 1.1//EN" "http://www.w3.org/Graphics/SVG/1.1/DTD/svg11.dtd">
<svg version="1.1" id="Capa_1" xmlns="http://www.w3.org/2000/svg" xmlns:xlink="http://www.w3.org/1999/xlink" x="0px" y="0px"
	 viewBox="0 0 60 60" style="enable-background:new 0 0 60 60;" xml:space="preserve">
<path d="M36.18,58l3.001-18H34v-6.667C34,32.047,35.047,31,36.333,31c1.287,0,2.334,1.047,2.334,2.333h2
	c0-2.39-1.944-4.333-4.334-4.333S32,30.943,32,33.333V40h-7.181l3.001,18h-7.004C20.928,57.686,21,57.352,21,57c0-1.654-1.346-3-3-3
	h-5v-8.586l9.707-9.707l-1.414-1.414L13,42.586V25.414l4.707-4.707l-1.414-1.414L13,22.586V7.858C14.721,7.411,16,5.859,16,4
	c0-2.206-1.794-4-4-4S8,1.794,8,4c0,1.859,1.279,3.411,3,3.858v6.728l-4.293-4.293l-1.414,1.414L11,17.414v17.172l-4.293-4.293
	l-1.414,1.414L11,37.414V54H6c-1.654,0-3,1.346-3,3c0,0.352,0.072,0.686,0.184,1H0v2h6h12h10.153h7.693H60v-2H36.18z M10,4
	c0-1.103,0.897-2,2-2s2,0.897,2,2s-0.897,2-2,2S10,5.103,10,4z M6,58c-0.552,0-1-0.448-1-1s0.448-1,1-1h12c0.552,0,1,0.448,1,1
	s-0.448,1-1,1H6z M29.847,58l-2.666-16h9.639l-2.666,16H29.847z"/>
<g>
</g>
<g>
</g>
<g>
</g>
<g>
</g>
<g>
</g>
<g>
</g>
<g>
</g>
<g>
</g>
<g>
</g>
<g>
</g>
<g>
</g>
<g>
</g>
<g>
</g>
<g>
</g>
<g>
</g>
</svg>
