<svg xmlns="http://www.w3.org/2000/svg" viewBox="0 0 60 60" style="enable-background:new 0 0 60 60" xml:space="preserve"><path d="M59 58H29c-5.514 0-10-4.486-10-10V23.949c7.253-.516 13-6.567 13-13.949a1 1 0 1 0-2 0c0 6.28-4.85 11.438-11 11.949v-2c5.046-.503 9-4.773 9-9.949a1 1 0 1 0-2 0c0 4.072-3.06 7.436-7 7.931V9.899A5.01 5.01 0 0 0 23 5c0-2.757-2.243-5-5-5s-5 2.243-5 5a5.01 5.01 0 0 0 4 4.899v8.032c-3.94-.495-7-3.859-7-7.931a1 1 0 1 0-2 0c0 5.176 3.954 9.446 9 9.949v2C10.85 21.438 6 16.28 6 10a1 1 0 1 0-2 0c0 7.382 5.747 13.433 13 13.949V48c0 5.514-4.486 10-10 10H1a1 1 0 1 0 0 2h58a1 1 0 1 0 0-2zM15 5c0-1.654 1.346-3 3-3s3 1.346 3 3-1.346 3-3 3-3-1.346-3-3zm2 49.619V58h-3.381A12.094 12.094 0 0 0 17 54.619zM19 58v-3.381A12.094 12.094 0 0 0 22.381 58H19z"/></svg>