<svg xmlns="http://www.w3.org/2000/svg" viewBox="0 0 60 60" style="enable-background:new 0 0 60 60" xml:space="preserve"><path d="M60 4.5H0v48h3v3h6v-3h42v3h6v-3h3v-48zm-53 49H5v-1h2v1zm48 0h-2v-1h2v1zm3-3H2v-44h56v44z"/><path d="M52.5 46.5c2.481 0 4.5-2.019 4.5-4.5 0-1.26-.524-2.397-1.361-3.215-.006-.006-.008-.015-.015-.021-.014-.014-.033-.018-.048-.03A4.47 4.47 0 0 0 52.5 37.5c-2.481 0-4.5 2.019-4.5 4.5s2.019 4.5 4.5 4.5zm0-7c.308 0 .6.063.873.166l-1.095 1.142a1 1 0 1 0 1.444 1.384l1.09-1.137c.12.292.188.611.188.945 0 1.379-1.121 2.5-2.5 2.5S50 43.379 50 42s1.121-2.5 2.5-2.5zM47 48.5v-40H4v40h43zm-20-21v-17h9v17h-9zm9 2v17h-9v-17h9zm-11-2H15v-17h10v17zm0 2v17H15v-17h10zm13 17v-17h7v1.586l-3 3-1.294-1.294a.999.999 0 1 0-1.414 1.414L42 36.914l3-3v1.172l-3 3-1.294-1.294a.999.999 0 1 0-1.414 1.414L42 40.914l3-3v1.172l-3 3-1.294-1.294a.999.999 0 1 0-1.414 1.414L42 44.914l3-3V46.5h-7zm7-34.414-3 3-1.294-1.294a.999.999 0 1 0-1.414 1.414L42 17.914l3-3v1.172l-3 3-1.294-1.294a.999.999 0 1 0-1.414 1.414L42 21.914l3-3v1.172l-3 3-1.294-1.294a.999.999 0 1 0-1.414 1.414L42 25.914l3-3V27.5h-7v-17h7v1.586zM13 10.5v17H6v-1.586l3-3 1.294 1.294a.999.999 0 1 0 1.414-1.414L9 20.086l-3 3v-1.172l3-3 1.294 1.294a.999.999 0 1 0 1.414-1.414L9 16.086l-3 3v-1.172l3-3 1.294 1.294a.999.999 0 1 0 1.414-1.414L9 12.086l-3 3V10.5h7zM6 44.914l3-3 1.294 1.294a.999.999 0 1 0 1.414-1.414L9 39.086l-3 3v-1.172l3-3 1.294 1.294a.999.999 0 1 0 1.414-1.414L9 35.086l-3 3v-1.172l3-3 1.294 1.294a.999.999 0 1 0 1.414-1.414L9 31.086l-3 3V29.5h7v17H6v-1.586z"/><path d="m18 21.914 3-3 1.294 1.294a.999.999 0 1 0 1.414-1.414L21 16.086l-3 3-.294-.294a.999.999 0 1 0-1.414 1.414L18 21.914zM30 21.914l3-3 .294.294a.999.999 0 1 0 1.414-1.414L33 16.086l-3 3-.292-.292a.999.999 0 1 0-1.414 1.414L30 21.914z"/><path d="m21 20.086-3 3-.294-.294a.999.999 0 1 0-1.414 1.414L18 25.914l3-3 1.294 1.294a.999.999 0 1 0 1.414-1.414L21 20.086zM33 20.086l-3 3-.292-.292a.999.999 0 1 0-1.414 1.414L30 25.914l3-3 .294.294a.999.999 0 1 0 1.414-1.414L33 20.086zM18 17.914l3-3 1.294 1.294a.999.999 0 1 0 1.414-1.414L21 12.086l-3 3-.294-.294a.999.999 0 1 0-1.414 1.414L18 17.914zM30 17.914l3-3 .292.292a.999.999 0 1 0 1.414-1.414L33 12.086l-3 3-.292-.292a.999.999 0 1 0-1.414 1.414L30 17.914zM18 40.914l3-3 1.294 1.294a.999.999 0 1 0 1.414-1.414L21 35.086l-3 3-.294-.294a.999.999 0 1 0-1.414 1.414L18 40.914zM30 40.914l3-3 .294.294a.999.999 0 1 0 1.414-1.414L33 35.086l-3 3-.292-.292a.999.999 0 1 0-1.414 1.414L30 40.914z"/><path d="m21 39.086-3 3-.294-.294a.999.999 0 1 0-1.414 1.414L18 44.914l3-3 1.294 1.294a.999.999 0 1 0 1.414-1.414L21 39.086zM33 39.086l-3 3-.292-.292a.999.999 0 1 0-1.414 1.414L30 44.914l3-3 .294.294a.999.999 0 1 0 1.414-1.414L33 39.086zM18 36.914l3-3 1.294 1.294a.999.999 0 1 0 1.414-1.414L21 31.086l-3 3-.294-.294a.999.999 0 1 0-1.414 1.414L18 36.914zM30 36.914l3-3 .292.292a.999.999 0 1 0 1.414-1.414L33 31.086l-3 3-.292-.292a.999.999 0 1 0-1.414 1.414L30 36.914zM56 8.5h-7v6h7v-6zm-2 4h-3v-2h3v2zM56 15.5h-7v6h7v-6zm-2 4h-3v-2h3v2z"/></svg>