<svg xmlns="http://www.w3.org/2000/svg" viewBox="0 0 60 60" style="enable-background:new 0 0 60 60" xml:space="preserve"><path d="M59.987 41.935a.992.992 0 0 0-.052-.26c-.012-.036-.023-.07-.039-.103a1.02 1.02 0 0 0-.159-.236c-.014-.016-.023-.035-.039-.05-.003-.003-.005-.008-.009-.011L39 21.571V6H21v15.571L.311 41.275c-.003.003-.005.008-.009.011-.015.015-.025.034-.039.05a.993.993 0 0 0-.159.235c-.016.033-.027.068-.039.103a.968.968 0 0 0-.052.26C.012 41.958 0 41.977 0 42v11a1 1 0 0 0 1 1h58a1 1 0 0 0 1-1V42c0-.023-.011-.042-.013-.065zM23 8h14v13H23V8zm-.6 15h15.2l18.9 18h-9.019l-7.7-9.625a1 1 0 1 0-1.562 1.25l6.7 8.375H15.081l6.7-8.375a1.002 1.002 0 0 0-.156-1.406 1.002 1.002 0 0 0-1.406.156L12.519 41H3.5l18.9-18zM58 52H41v-2a1 1 0 1 0-2 0v2h-2v-2a1 1 0 1 0-2 0v2h-2v-2a1 1 0 1 0-2 0v2h-2v-2a1 1 0 1 0-2 0v2h-2v-2a1 1 0 1 0-2 0v2h-2v-2a1 1 0 1 0-2 0v2H2v-9h56v9z"/><path d="M45 46v3a1 1 0 0 0 1 1h3a1 1 0 0 0 1-1v-3a1 1 0 0 0-1-1h-3a1 1 0 0 0-1 1zm2 1h1v1h-1v-1zM52 50h3a1 1 0 0 0 1-1v-3a1 1 0 0 0-1-1h-3a1 1 0 0 0-1 1v3a1 1 0 0 0 1 1zm1-3h1v1h-1v-1zM10 48H5a1 1 0 1 0 0 2h5a1 1 0 1 0 0-2z"/></svg>