<?xml version="1.0" encoding="iso-8859-1"?>
<!-- Generator: Adobe Illustrator 18.0.0, SVG Export Plug-In . SVG Version: 6.00 Build 0)  -->
<!DOCTYPE svg PUBLIC "-//W3C//DTD SVG 1.1//EN" "http://www.w3.org/Graphics/SVG/1.1/DTD/svg11.dtd">
<svg version="1.1" id="Capa_1" xmlns="http://www.w3.org/2000/svg" xmlns:xlink="http://www.w3.org/1999/xlink" x="0px" y="0px"
	 viewBox="0 0 60 60" style="enable-background:new 0 0 60 60;" xml:space="preserve">
<g>
	<path d="M59.987,41.935c-0.006-0.09-0.023-0.176-0.052-0.26c-0.012-0.036-0.023-0.07-0.039-0.103
		c-0.041-0.085-0.094-0.163-0.159-0.236c-0.014-0.016-0.023-0.035-0.039-0.05c-0.003-0.003-0.005-0.008-0.009-0.011L39,21.571V6H21
		v15.571L0.311,41.275c-0.003,0.003-0.005,0.008-0.009,0.011c-0.015,0.015-0.025,0.034-0.039,0.05
		c-0.065,0.072-0.118,0.15-0.159,0.235c-0.016,0.033-0.027,0.068-0.039,0.103c-0.029,0.085-0.047,0.171-0.052,0.26
		C0.012,41.958,0,41.977,0,42v11c0,0.553,0.447,1,1,1h58c0.553,0,1-0.447,1-1V42C60,41.977,59.989,41.958,59.987,41.935z M23,8h14
		v13H23V8z M22.4,23H37.6l18.9,18h-9.019l-7.7-9.625c-0.346-0.431-0.974-0.502-1.406-0.156c-0.431,0.346-0.501,0.975-0.156,1.406
		l6.7,8.375H15.081l6.7-8.375c0.345-0.432,0.274-1.061-0.156-1.406c-0.433-0.346-1.06-0.272-1.406,0.156L12.519,41H3.5L22.4,23z
		 M58,52H41v-2c0-0.553-0.447-1-1-1s-1,0.447-1,1v2h-2v-2c0-0.553-0.447-1-1-1s-1,0.447-1,1v2h-2v-2c0-0.553-0.447-1-1-1
		s-1,0.447-1,1v2h-2v-2c0-0.553-0.447-1-1-1s-1,0.447-1,1v2h-2v-2c0-0.553-0.447-1-1-1s-1,0.447-1,1v2h-2v-2c0-0.553-0.447-1-1-1
		s-1,0.447-1,1v2H2v-9h56V52z"/>
	<path d="M45,46v3c0,0.553,0.447,1,1,1h3c0.553,0,1-0.447,1-1v-3c0-0.553-0.447-1-1-1h-3C45.447,45,45,45.447,45,46z M47,47h1v1h-1
		V47z"/>
	<path d="M52,50h3c0.553,0,1-0.447,1-1v-3c0-0.553-0.447-1-1-1h-3c-0.553,0-1,0.447-1,1v3C51,49.553,51.447,50,52,50z M53,47h1v1h-1
		V47z"/>
	<path d="M10,48H5c-0.553,0-1,0.447-1,1s0.447,1,1,1h5c0.553,0,1-0.447,1-1S10.553,48,10,48z"/>
</g>
<g>
</g>
<g>
</g>
<g>
</g>
<g>
</g>
<g>
</g>
<g>
</g>
<g>
</g>
<g>
</g>
<g>
</g>
<g>
</g>
<g>
</g>
<g>
</g>
<g>
</g>
<g>
</g>
<g>
</g>
</svg>
