<svg xmlns="http://www.w3.org/2000/svg" viewBox="0 0 60 60" style="enable-background:new 0 0 60 60" xml:space="preserve"><path d="M59 42h-.78l.462-2.309a21.452 21.452 0 0 0-1.504-13.138.994.994 0 0 0-1.019-.581c-.774.088-1.741.041-3-.915-1.326-1.009-2.065-2.446-1.979-3.844a4.489 4.489 0 0 1 3.644-4.131c.527-.101.881-.6.802-1.131l-.465-3.101a1.002 1.002 0 0 0-1.143-.84L40 14.203V13a1 1 0 0 0-1-1h-5a1 1 0 0 0-1 1v2.829a33.683 33.683 0 0 0-6 2.736v-.424C27 16.96 26.04 16 24.859 16H22.14c-1.18 0-2.14.96-2.14 2.141V24c0 .052.022.097.03.147-2.815 3.079-4.957 6.841-5.928 11.292-3.554 1.122-6.4 2.12-9.152 5.794l-.536.832c-1.564.38-2.772 2.171-3.463 3.208l-.782 1.173A1 1 0 0 0 1 48h58a1 1 0 0 0 1-1v-4a1 1 0 0 0-1-1zM35 14h3v.522c-.277.049-.557.113-.837.171-.206.042-.411.079-.617.126-.304.069-.61.152-.915.231-.21.054-.42.101-.631.159V14zm-13 4.141c0-.077.063-.141.14-.141h2.719c.077 0 .141.064.141.141v1.668a29.36 29.36 0 0 0-3 2.36v-4.028zm-6.886 19.076.187-.059a.996.996 0 0 0 .692-.833c.011-.085.015-.162.014-.23 2.012-9.702 10.038-15.958 18.331-18.596.71-.227 1.416-.422 2.117-.595.102-.025.204-.054.306-.077a29.19 29.19 0 0 1 2.193-.436l.2-.031 14.178-2.216.184 1.226a6.487 6.487 0 0 0-4.331 5.72c-.129 2.066.904 4.146 2.764 5.561 1.185.9 2.369 1.338 3.676 1.35a19.475 19.475 0 0 1 1.097 11.3L56.181 42H6.879c2.336-2.927 4.711-3.674 8.235-4.783zM58 46H2.874c.913-1.311 1.615-1.982 2.102-2.003L5 44h53v2z"/><path d="M49.152 26.725c-1.394-1.683-2.091-3.728-1.964-5.758.024-.387.074-.771.148-1.14l.281-1.405a1.001 1.001 0 0 0-1.135-1.185l-7.22 1.128c-6.454 1.008-13.51 5.976-16.154 11.35l-1.557 1.584a1 1 0 0 0 .822 1.695l27.472-3a.999.999 0 0 0 .662-1.632l-1.355-1.637zm-15.98 3.078V27h9v1.82l-6.916.755-2.084.228zm11-1.201V26a1 1 0 0 0-1-1h-11a1 1 0 0 0-1 1v4.021l-6.323.691c2.298-4.811 8.898-9.461 14.724-10.37l5.804-.907c-.092.457-.153.93-.184 1.406-.158 2.541.7 5.084 2.419 7.159l.172.207-3.612.395z"/></svg>