<?xml version="1.0" encoding="iso-8859-1"?>
<!-- Generator: Adobe Illustrator 18.0.0, SVG Export Plug-In . SVG Version: 6.00 Build 0)  -->
<!DOCTYPE svg PUBLIC "-//W3C//DTD SVG 1.1//EN" "http://www.w3.org/Graphics/SVG/1.1/DTD/svg11.dtd">
<svg version="1.1" id="Capa_1" xmlns="http://www.w3.org/2000/svg" xmlns:xlink="http://www.w3.org/1999/xlink" x="0px" y="0px"
	 viewBox="0 0 58 58" style="enable-background:new 0 0 58 58;" xml:space="preserve">
<path d="M57,29.5H43.977C43.489,14.152,31.938,4.5,29,4.5s-14.489,9.652-14.977,25H1c-0.552,0-1,0.447-1,1v4c0,0.553,0.448,1,1,1h1
	v7.883C2,48.962,6.539,53.5,12.117,53.5h33.766C51.462,53.5,56,48.962,56,43.383V35.5h1c0.553,0,1-0.447,1-1v-4
	C58,29.947,57.553,29.5,57,29.5z M41.983,29.5h-4.91c-1.248-10.752-2.716-16.764-4.212-20.262
	C36.61,12.778,41.659,19.672,41.983,29.5z M28.998,6.771c1.427,1.304,4.021,5.302,6.064,22.729H22.935
	C24.977,12.069,27.57,8.073,28.998,6.771z M25.145,9.211c-1.5,3.494-2.971,9.509-4.222,20.289h-4.907
	C16.34,19.634,21.406,12.738,25.145,9.211z M54,43.383c0,4.476-3.642,8.117-8.117,8.117H12.117C7.642,51.5,4,47.858,4,43.383V35.5
	h50V43.383z M56,33.5h-1H3H2v-2h13h6.814h14.369H43h13V33.5z"/>
<g>
</g>
<g>
</g>
<g>
</g>
<g>
</g>
<g>
</g>
<g>
</g>
<g>
</g>
<g>
</g>
<g>
</g>
<g>
</g>
<g>
</g>
<g>
</g>
<g>
</g>
<g>
</g>
<g>
</g>
</svg>
