<svg xmlns="http://www.w3.org/2000/svg" viewBox="0 0 58 58" style="enable-background:new 0 0 58 58" xml:space="preserve"><path d="M57 29.5H43.977C43.489 14.152 31.938 4.5 29 4.5s-14.489 9.652-14.977 25H1a1 1 0 0 0-1 1v4a1 1 0 0 0 1 1h1v7.883C2 48.962 6.539 53.5 12.117 53.5h33.766C51.462 53.5 56 48.962 56 43.383V35.5h1a1 1 0 0 0 1-1v-4a1 1 0 0 0-1-1zm-15.017 0h-4.91c-1.248-10.752-2.716-16.764-4.212-20.262 3.749 3.54 8.798 10.434 9.122 20.262zM28.998 6.771c1.427 1.304 4.021 5.302 6.064 22.729H22.935c2.042-17.431 4.635-21.427 6.063-22.729zm-3.853 2.44c-1.5 3.494-2.971 9.509-4.222 20.289h-4.907c.324-9.866 5.39-16.762 9.129-20.289zM54 43.383c0 4.476-3.642 8.117-8.117 8.117H12.117C7.642 51.5 4 47.858 4 43.383V35.5h50v7.883zm2-9.883H2v-2h54v2z"/></svg>