<svg xmlns="http://www.w3.org/2000/svg" viewBox="0 0 60 60" style="enable-background:new 0 0 60 60" xml:space="preserve"><path d="M38 54h-1c-1.281 0-2.69-2.012-2.953-5.005A3 3 0 0 0 37 46a2.997 2.997 0 0 0-2.541-2.954l1.686-4.216L33.08 35h17.413l-1.474-3.578A79.502 79.502 0 0 1 43 1V0H17v1a79.483 79.483 0 0 1-6.017 30.414L9.507 35H26.92l-3.064 3.83 1.686 4.216A2.996 2.996 0 0 0 23 46a3 3 0 0 0 2.953 2.995C25.69 51.988 24.281 54 23 54h-1c-2.757 0-5 2.243-5 5v1h26v-1c0-2.757-2.243-5-5-5zm9.17-21.816.336.816h-9.628c-.524-4.052-2.717-21.499-2.869-30.999h5.997a81.454 81.454 0 0 0 6.164 30.183zm-34.337-.008A81.483 81.483 0 0 0 18.994 2h5.997c-.153 9.5-2.345 26.947-2.87 31h-9.629l.341-.824zM24.139 33c.583-4.529 2.704-21.586 2.853-31h6.017c.149 9.415 2.27 26.471 2.853 30.999H24.139zm5.341 2h1.039l3.335 4.17L32.323 43h-4.646l-1.532-3.83L29.48 35zM25 46c0-.552.449-1 1-1h8a1.001 1.001 0 0 1 0 2h-8a1 1 0 0 1-1-1zm2.963 3h4.074c.149 1.999.742 3.75 1.622 5h-7.318c.879-1.25 1.472-3.001 1.622-5zm-8.792 9A3.006 3.006 0 0 1 22 56h16c1.304 0 2.416.836 2.829 2H19.171z"/></svg>