<?xml version="1.0" encoding="iso-8859-1"?>
<!-- Generator: Adobe Illustrator 18.0.0, SVG Export Plug-In . SVG Version: 6.00 Build 0)  -->
<!DOCTYPE svg PUBLIC "-//W3C//DTD SVG 1.1//EN" "http://www.w3.org/Graphics/SVG/1.1/DTD/svg11.dtd">
<svg version="1.1" id="Capa_1" xmlns="http://www.w3.org/2000/svg" xmlns:xlink="http://www.w3.org/1999/xlink" x="0px" y="0px"
	 viewBox="0 0 56.747 56.747" style="enable-background:new 0 0 56.747 56.747;" xml:space="preserve">
<g>
	<path d="M51.747,24.08c2.757,0,5-2.243,5-5s-2.243-5-5-5c-1.063,0-2.045,0.339-2.856,0.906L27.284,1.237
		c-0.466-0.295-1.084-0.158-1.381,0.307c-0.296,0.466-0.159,1.084,0.307,1.381l21.291,13.549c-0.469,0.761-0.754,1.649-0.754,2.607
		c0,1.034,0.315,1.995,0.855,2.793L28.291,44.08H14.747v4h-4c-3.86,0-7,3.141-7,7v1h49v-1c0-3.859-3.14-7-7-7h-4v-4H30.941
		l18.095-20.81C49.819,23.778,50.747,24.08,51.747,24.08z M45.747,50.08c2.415,0,4.435,1.721,4.899,4H5.847
		c0.464-2.279,2.485-4,4.899-4h4h27H45.747z M39.747,48.08h-23v-2h23V48.08z M54.747,19.08c0,1.654-1.346,3-3,3s-3-1.346-3-3
		s1.346-3,3-3S54.747,17.426,54.747,19.08z"/>
	<path d="M20.583,18.557l1.301-1.3c1.503-1.504,2.268-3.466,2.152-5.524c-0.037-0.648-0.167-1.29-0.369-1.916l3.494-3.494
		l-5.657-5.656l-3.492,3.492c-0.628-0.203-1.271-0.334-1.921-0.371c-2.061-0.101-4.021,0.647-5.526,2.154L9.277,7.236L0,11.689
		l16.139,16.139L20.583,18.557z M19.934,5.064l1.57-1.569l2.829,2.828l-1.57,1.57c-0.018-0.029-0.041-0.054-0.059-0.083
		c-0.135-0.206-0.279-0.408-0.432-0.605c-0.049-0.063-0.095-0.126-0.145-0.188c-0.19-0.231-0.389-0.458-0.604-0.674
		c-0.007-0.007-0.012-0.014-0.019-0.021c0,0,0,0,0,0c-0.222-0.222-0.455-0.427-0.693-0.622c-0.062-0.051-0.127-0.098-0.19-0.147
		c-0.198-0.154-0.399-0.298-0.605-0.432C19.986,5.103,19.962,5.081,19.934,5.064z M3.41,12.271l7.042-3.381l1.528-1.536
		c1.111-1.111,2.493-1.658,3.998-1.569c0.55,0.031,1.098,0.147,1.629,0.341l0.271,0.114c0.203,0.085,0.401,0.18,0.594,0.285
		c0.002,0.001,0.005,0.002,0.007,0.004c0.178,0.096,0.35,0.203,0.52,0.316c0.021,0.014,0.044,0.027,0.065,0.042
		c0.15,0.103,0.296,0.214,0.439,0.33c0.031,0.026,0.064,0.048,0.096,0.074c0.168,0.14,0.331,0.288,0.488,0.445h0
		c0.157,0.157,0.304,0.32,0.444,0.487c0.029,0.035,0.055,0.072,0.084,0.108c0.112,0.14,0.221,0.282,0.321,0.428
		c0.016,0.023,0.031,0.048,0.046,0.071c0.112,0.168,0.218,0.339,0.313,0.515c0.002,0.003,0.003,0.006,0.005,0.009
		c0.104,0.193,0.199,0.391,0.284,0.593l0.115,0.274c0.193,0.53,0.308,1.075,0.339,1.624c0.084,1.504-0.458,2.887-1.569,3.998
		l-1.542,1.542l-3.372,7.032L3.41,12.271z"/>
</g>
<g>
</g>
<g>
</g>
<g>
</g>
<g>
</g>
<g>
</g>
<g>
</g>
<g>
</g>
<g>
</g>
<g>
</g>
<g>
</g>
<g>
</g>
<g>
</g>
<g>
</g>
<g>
</g>
<g>
</g>
</svg>
