<svg xmlns="http://www.w3.org/2000/svg" viewBox="0 0 56.747 56.747" style="enable-background:new 0 0 56.747 56.747" xml:space="preserve"><path d="M51.747 24.08c2.757 0 5-2.243 5-5s-2.243-5-5-5a4.967 4.967 0 0 0-2.856.906L27.284 1.237a1.001 1.001 0 0 0-1.074 1.688l21.291 13.549a4.952 4.952 0 0 0-.754 2.607c0 1.034.315 1.995.855 2.793L28.291 44.08H14.747v4h-4c-3.86 0-7 3.141-7 7v1h49v-1c0-3.859-3.14-7-7-7h-4v-4H30.941l18.095-20.81c.783.508 1.711.81 2.711.81zm-6 26a5.008 5.008 0 0 1 4.899 4H5.847a5.009 5.009 0 0 1 4.899-4h35.001zm-6-2h-23v-2h23v2zm15-29c0 1.654-1.346 3-3 3s-3-1.346-3-3 1.346-3 3-3 3 1.346 3 3z"/><path d="m20.583 18.557 1.301-1.3c1.503-1.504 2.268-3.466 2.152-5.524a7.668 7.668 0 0 0-.369-1.916l3.494-3.494L21.504.667l-3.492 3.492a7.664 7.664 0 0 0-1.921-.371c-2.061-.101-4.021.647-5.526 2.154L9.277 7.236 0 11.689l16.139 16.139 4.444-9.271zm-.649-13.493 1.57-1.569 2.829 2.828-1.57 1.57c-.018-.029-.041-.054-.059-.083a9.27 9.27 0 0 0-.432-.605c-.049-.063-.095-.126-.145-.188a9.542 9.542 0 0 0-.604-.674l-.019-.021a9.396 9.396 0 0 0-.693-.622c-.062-.051-.127-.098-.19-.147a8.807 8.807 0 0 0-.605-.432c-.03-.018-.054-.04-.082-.057zM3.41 12.271l7.042-3.381 1.528-1.536c1.111-1.111 2.493-1.658 3.998-1.569a5.68 5.68 0 0 1 1.629.341l.271.114c.203.085.401.18.594.285l.007.004c.178.096.35.203.52.316.021.014.044.027.065.042.15.103.296.214.439.33.031.026.064.048.096.074.168.14.331.288.488.445.157.157.304.32.444.487.029.035.055.072.084.108.112.14.221.282.321.428l.046.071c.112.168.218.339.313.515l.005.009c.104.193.199.391.284.593l.115.274c.193.53.308 1.075.339 1.624.084 1.504-.458 2.887-1.569 3.998l-1.542 1.542-3.372 7.032L3.41 12.271z"/></svg>