<?xml version="1.0" encoding="iso-8859-1"?>
<!-- Generator: Adobe Illustrator 18.0.0, SVG Export Plug-In . SVG Version: 6.00 Build 0)  -->
<!DOCTYPE svg PUBLIC "-//W3C//DTD SVG 1.1//EN" "http://www.w3.org/Graphics/SVG/1.1/DTD/svg11.dtd">
<svg version="1.1" id="Capa_1" xmlns="http://www.w3.org/2000/svg" xmlns:xlink="http://www.w3.org/1999/xlink" x="0px" y="0px"
	 viewBox="0 0 59 59" style="enable-background:new 0 0 59 59;" xml:space="preserve">
<g>
	<path d="M54.589,40.035L53.33,35l-3-12L44.58,0H14.42L8.67,23l-3,12l-1.259,5.035c-0.119,0.476-0.014,0.97,0.288,1.356
		C5.001,41.778,5.455,42,5.946,42h18.69v6h2v5h-8v4h-2c-0.552,0-1,0.447-1,1s0.448,1,1,1h2h1h20h1h2c0.552,0,1-0.447,1-1
		s-0.448-1-1-1h-2v-4h-8v-5h2v-6h18.418c0.491,0,0.945-0.222,1.247-0.608C54.603,41.005,54.708,40.511,54.589,40.035z
		 M12.297,16.739c0.205-0.183,0.339-0.442,0.339-0.739c0-0.122-0.029-0.235-0.069-0.343l1.922-7.687C14.539,7.978,14.584,8,14.636,8
		c0.552,0,1-0.448,1-1c0-0.436-0.283-0.797-0.671-0.934L15.981,2h27.037l1.05,4.199C43.813,6.38,43.636,6.663,43.636,7
		c0,0.508,0.385,0.911,0.876,0.975L48.269,23h-6.632h-6h-6h-6h-6h-6.905L12.297,16.739z M10.231,25h38.537l2,8H8.231L10.231,25z
		 M38.636,55v2h-18v-2h6h6H38.636z M30.636,53h-2v-5h2V53z M32.636,46h-6v-4h6V46z M47.636,40h-6h-6h-1h-5h-5h-1h-6h-6H6.481l1.25-5
		h6.905h6h6h6h6h6h6.632l1.25,5H47.636z"/>
	<path d="M11.636,43c-0.552,0-1,0.447-1,1v10c0,0.553,0.448,1,1,1s1-0.447,1-1V44C12.636,43.447,12.188,43,11.636,43z"/>
	<circle cx="11.636" cy="39" r="1"/>
	<circle cx="14.636" cy="36" r="1"/>
	<circle cx="20.636" cy="36" r="1"/>
	<circle cx="17.636" cy="39" r="1"/>
	<circle cx="23.636" cy="39" r="1"/>
	<circle cx="26.636" cy="36" r="1"/>
	<circle cx="32.636" cy="36" r="1"/>
	<circle cx="29.636" cy="39" r="1"/>
	<circle cx="35.636" cy="39" r="1"/>
	<circle cx="38.636" cy="36" r="1"/>
	<circle cx="44.636" cy="36" r="1"/>
	<circle cx="41.636" cy="39" r="1"/>
	<circle cx="47.636" cy="39" r="1"/>
	<circle cx="20.636" cy="7" r="1"/>
	<circle cx="17.636" cy="4" r="1"/>
	<circle cx="23.636" cy="4" r="1"/>
	<circle cx="17.636" cy="10" r="1"/>
	<circle cx="23.636" cy="10" r="1"/>
	<circle cx="26.636" cy="7" r="1"/>
	<circle cx="32.636" cy="7" r="1"/>
	<circle cx="29.636" cy="4" r="1"/>
	<circle cx="35.636" cy="4" r="1"/>
	<circle cx="29.636" cy="10" r="1"/>
	<circle cx="35.636" cy="10" r="1"/>
	<circle cx="38.636" cy="7" r="1"/>
	<circle cx="41.636" cy="4" r="1"/>
	<circle cx="41.636" cy="10" r="1"/>
	<circle cx="14.636" cy="13" r="1"/>
	<circle cx="20.636" cy="13" r="1"/>
	<circle cx="14.636" cy="19" r="1"/>
	<circle cx="20.636" cy="19" r="1"/>
	<circle cx="17.636" cy="16" r="1"/>
	<circle cx="23.636" cy="16" r="1"/>
	<circle cx="17.636" cy="22" r="1"/>
	<circle cx="23.636" cy="22" r="1"/>
	<circle cx="26.636" cy="13" r="1"/>
	<circle cx="32.636" cy="13" r="1"/>
	<circle cx="26.636" cy="19" r="1"/>
	<circle cx="32.636" cy="19" r="1"/>
	<circle cx="29.636" cy="16" r="1"/>
	<circle cx="35.636" cy="16" r="1"/>
	<circle cx="29.636" cy="22" r="1"/>
	<circle cx="35.636" cy="22" r="1"/>
	<circle cx="38.636" cy="13" r="1"/>
	<circle cx="44.636" cy="13" r="1"/>
	<circle cx="38.636" cy="19" r="1"/>
	<circle cx="44.636" cy="19" r="1"/>
	<circle cx="41.636" cy="16" r="1"/>
	<circle cx="41.636" cy="22" r="1"/>
</g>
<g>
</g>
<g>
</g>
<g>
</g>
<g>
</g>
<g>
</g>
<g>
</g>
<g>
</g>
<g>
</g>
<g>
</g>
<g>
</g>
<g>
</g>
<g>
</g>
<g>
</g>
<g>
</g>
<g>
</g>
</svg>
