<svg xmlns="http://www.w3.org/2000/svg" viewBox="0 0 60 60" style="enable-background:new 0 0 60 60" xml:space="preserve"><path d="M59.482 32.624 40 21.909V19.5a1 1 0 0 0-1-1h-2v-2h1a1 1 0 0 0 1-1v-3a1 1 0 0 0-1-1h-5v-3a1 1 0 0 0-1-1h-1v-5a1 1 0 1 0-2 0v5h-1a1 1 0 0 0-1 1v3h-5a1 1 0 0 0-1 1v3a1 1 0 0 0 1 1h1v2h-2a1 1 0 0 0-1 1v2.409L.518 32.624A1.001 1.001 0 0 0 1 34.5h18.82l-1.669 10.013c-.582 3.49.396 7.04 2.684 9.739 2.287 2.7 5.627 4.248 9.166 4.248s6.879-1.548 9.166-4.248a11.992 11.992 0 0 0 2.684-9.739L40.181 34.5H59a1.001 1.001 0 0 0 .482-1.876zM29 9.5h2v2h-2v-2zm-6 4h14v1H23v-1zm2 3h10v2H25v-2zm-3 4h16v1H22v-1zm17.877 24.341a9.995 9.995 0 0 1-2.237 8.118C35.734 55.21 32.949 56.5 30 56.5s-5.733-1.29-7.64-3.541a9.995 9.995 0 0 1-2.237-8.118L21.847 34.5h3.337a2.966 2.966 0 0 0-.184 1c0 1.654 1.346 3 3 3h1v2h-1c-1.654 0-3 1.346-3 3s1.346 3 3 3h1v3a1 1 0 1 0 2 0v-3h1a1.001 1.001 0 0 1 0 2 1 1 0 1 0 0 2c1.654 0 3-1.346 3-3s-1.346-3-3-3h-1v-2h1c1.654 0 3-1.346 3-3s-1.346-3-3-3h-1v-2h7.153l1.724 10.341zM28 34.5h1v2h-1a1.001 1.001 0 0 1 0-2zm3 4h1a1.001 1.001 0 0 1 0 2h-1v-2zm-2 4v2h-1a1.001 1.001 0 0 1 0-2h1zm10-10H4.893l16.364-9h17.486l16.363 9H39z"/></svg>