<svg xmlns="http://www.w3.org/2000/svg" viewBox="0 0 59 59" style="enable-background:new 0 0 59 59" xml:space="preserve"><path d="M49.488.848A1 1 0 0 0 48.5 0h-38a1 1 0 0 0-.988.848l-4 26A1 1 0 0 0 6.5 28h6.314A20.039 20.039 0 0 0 9.5 39c0 11.028 8.972 20 20 20s20-8.972 20-20c0-3.915-1.172-7.749-3.314-11H52.5a.998.998 0 0 0 .988-1.153l-4-25.999zM47.5 39c0 9.925-8.075 18-18 18s-18-8.075-18-18c0-3.974 1.331-7.861 3.757-11H35.5v3a1 1 0 0 0 1 1h2v9a1 1 0 1 0 2 0v-9h2a1 1 0 0 0 1-1v-3h.243A18.035 18.035 0 0 1 47.5 39zm-10-9v-2h4v2h-4zm6.726-4H7.666l3.692-24h36.283l3.692 24h-7.107z"/><path d="M29.5 53c-7.72 0-14-6.28-14-14 0-2.664.745-5.244 2.154-7.464a1 1 0 1 0-1.688-1.072A15.892 15.892 0 0 0 13.5 39c0 8.822 7.178 16 16 16a1 1 0 1 0 0-2z"/></svg>