<svg xmlns="http://www.w3.org/2000/svg" viewBox="0 0 55 55" style="enable-background:new 0 0 55 55" xml:space="preserve"><path d="M49 .5v8.09a6.007 6.007 0 0 0-4.91 4.91H36c-7.382 0-13.433 5.747-13.949 13H19c-10.477 0-19 8.523-19 19v1H14.059c.5 4.493 4.317 8 8.941 8s8.442-3.507 8.941-8H46v-1c0-10.477-8.523-19-19-19h-2.949c.511-6.15 5.67-11 11.949-11h8.09A6.007 6.007 0 0 0 49 20.41v8.09h6V.5h-6zm-46.971 44c.442-7.573 5.869-13.813 13.035-15.521C11.406 31.507 9 35.726 9 40.5v4H2.029zM23 52.5c-3.521 0-6.442-2.612-6.929-6h13.857c-.486 3.388-3.407 6-6.928 6zm9-8H11v-4c0-6.617 5.383-12 12-12s12 5.383 12 12v4h-3zm11.971 0H37v-4c0-4.774-2.406-8.993-6.064-11.521 7.165 1.708 12.593 7.948 13.035 15.521zM46 14.5a4.006 4.006 0 0 1 3-3.873v7.746a4.006 4.006 0 0 1-3-3.873zm7 12h-2v-24h2v24z"/></svg>