<svg xmlns="http://www.w3.org/2000/svg" viewBox="0 0 60 60" style="enable-background:new 0 0 60 60" xml:space="preserve"><path d="M44.973 38.271 56.27 26.973C58.348 26.831 60 25.114 60 23s-1.652-3.831-3.731-3.973L44 6.758V4a1 1 0 0 0-1-1H1a1 1 0 0 0-1 1v11a1 1 0 0 0 1 1h42a.984.984 0 0 0 .959-.798L51.757 23 40.731 34.027C38.652 34.169 37 35.886 37 38c0 1.006.385 1.915 1 2.618V52H12a1 1 0 0 0-1 1v3a1 1 0 0 0 1 1h44a1 1 0 0 0 1-1v-3a1 1 0 0 0-1-1H43V41.444a3.98 3.98 0 0 0 1.973-3.173zM58 23c0 1.103-.897 2-2 2-.021 0-.041-.006-.062-.006-.014-.001-.027-.008-.042-.008a1.983 1.983 0 0 1-1.882-1.882c-.001-.014-.007-.027-.008-.042 0-.021-.006-.041-.006-.062 0-.021.005-.04.006-.06.001-.015.008-.028.009-.042a1.983 1.983 0 0 1 1.882-1.883c.014-.001.027-.007.042-.008.02-.001.04-.007.061-.007 1.103 0 2 .897 2 2zM39 5v1h-2V5h2zM5 14v-2h34v2H5zm37 0h-1v-3a1 1 0 0 0-1-1H4a1 1 0 0 0-1 1v3H2V5h33v2a1 1 0 0 0 1 1h4a1 1 0 0 0 1-1V5h1v9zm2-4.414 9.975 9.975c-.015.009-.026.023-.041.032a4.006 4.006 0 0 0-1.343 1.344c-.008.014-.022.025-.03.039L44 12.414V9.586zm8.561 15.439c.009.015.023.026.032.041a4 4 0 0 0 1.341 1.341c.015.009.026.023.041.032l-9.535 9.536c-.008-.014-.022-.025-.03-.039a3.997 3.997 0 0 0-1.343-1.344c-.015-.009-.026-.023-.041-.032l9.535-9.535zM41 36c.021 0 .041.006.062.006.014.001.027.008.042.008a1.983 1.983 0 0 1 1.882 1.883c.001.015.007.028.009.042 0 .021.005.04.005.061 0 .854-.541 1.579-1.295 1.865-.013.004-.026.004-.039.009-.172.062-.335.09-.495.109-.044.004-.086.012-.131.013-.09.004-.174-.01-.26-.018a1.952 1.952 0 0 1-.392-.084c-.079-.027-.159-.051-.233-.089-.04-.019-.078-.042-.116-.063a2.311 2.311 0 0 1-.369-.264c-.006-.005-.013-.007-.019-.012A1.986 1.986 0 0 1 39 38c0-1.103.897-2 2-2zm14 19H13v-1h42v1zm-14-3h-1V41.87c.035.009.071.013.106.021.065.015.13.027.195.038.23.042.463.071.699.071v10z"/></svg>