<svg xmlns="http://www.w3.org/2000/svg" viewBox="0 0 59 59" style="enable-background:new 0 0 59 59" xml:space="preserve"><path d="M54.589 40.035 53.33 35l-3-12-5.75-23H14.42L8.67 23l-3 12-1.259 5.035c-.119.476-.014.97.288 1.356.302.387.756.609 1.247.609h18.69v6h2v5h-8v4h-2a1 1 0 1 0 0 2h26a1 1 0 1 0 0-2h-2v-4h-8v-5h2v-6h18.418c.491 0 .945-.222 1.247-.608.302-.387.407-.881.288-1.357zM12.297 16.739a.986.986 0 0 0 .339-.739.98.98 0 0 0-.069-.343l1.922-7.687c.05.008.095.03.147.03a1 1 0 0 0 1-1 .992.992 0 0 0-.671-.934L15.981 2h27.037l1.05 4.199a.98.98 0 0 0-.432.801.99.99 0 0 0 .876.975L48.269 23H10.732l1.565-6.261zM10.231 25h38.537l2 8H8.231l2-8zm28.405 30v2h-18v-2h18zm-8-2h-2v-5h2v5zm2-7h-6v-4h6v4zm15-6H6.481l1.25-5h43.537l1.25 5h-4.882z"/><path d="M11.636 43a1 1 0 0 0-1 1v10a1 1 0 1 0 2 0V44a1 1 0 0 0-1-1z"/><circle cx="11.636" cy="39" r="1"/><circle cx="14.636" cy="36" r="1"/><circle cx="20.636" cy="36" r="1"/><circle cx="17.636" cy="39" r="1"/><circle cx="23.636" cy="39" r="1"/><circle cx="26.636" cy="36" r="1"/><circle cx="32.636" cy="36" r="1"/><circle cx="29.636" cy="39" r="1"/><circle cx="35.636" cy="39" r="1"/><circle cx="38.636" cy="36" r="1"/><circle cx="44.636" cy="36" r="1"/><circle cx="41.636" cy="39" r="1"/><circle cx="47.636" cy="39" r="1"/><circle cx="20.636" cy="7" r="1"/><circle cx="17.636" cy="4" r="1"/><circle cx="23.636" cy="4" r="1"/><circle cx="17.636" cy="10" r="1"/><circle cx="23.636" cy="10" r="1"/><circle cx="26.636" cy="7" r="1"/><circle cx="32.636" cy="7" r="1"/><circle cx="29.636" cy="4" r="1"/><circle cx="35.636" cy="4" r="1"/><circle cx="29.636" cy="10" r="1"/><circle cx="35.636" cy="10" r="1"/><circle cx="38.636" cy="7" r="1"/><circle cx="41.636" cy="4" r="1"/><circle cx="41.636" cy="10" r="1"/><circle cx="14.636" cy="13" r="1"/><circle cx="20.636" cy="13" r="1"/><circle cx="14.636" cy="19" r="1"/><circle cx="20.636" cy="19" r="1"/><circle cx="17.636" cy="16" r="1"/><circle cx="23.636" cy="16" r="1"/><circle cx="17.636" cy="22" r="1"/><circle cx="23.636" cy="22" r="1"/><circle cx="26.636" cy="13" r="1"/><circle cx="32.636" cy="13" r="1"/><circle cx="26.636" cy="19" r="1"/><circle cx="32.636" cy="19" r="1"/><circle cx="29.636" cy="16" r="1"/><circle cx="35.636" cy="16" r="1"/><circle cx="29.636" cy="22" r="1"/><circle cx="35.636" cy="22" r="1"/><circle cx="38.636" cy="13" r="1"/><circle cx="44.636" cy="13" r="1"/><circle cx="38.636" cy="19" r="1"/><circle cx="44.636" cy="19" r="1"/><circle cx="41.636" cy="16" r="1"/><circle cx="41.636" cy="22" r="1"/></svg>