<?xml version="1.0" encoding="iso-8859-1"?>
<!-- Generator: Adobe Illustrator 18.0.0, SVG Export Plug-In . SVG Version: 6.00 Build 0)  -->
<!DOCTYPE svg PUBLIC "-//W3C//DTD SVG 1.1//EN" "http://www.w3.org/Graphics/SVG/1.1/DTD/svg11.dtd">
<svg version="1.1" id="Capa_1" xmlns="http://www.w3.org/2000/svg" xmlns:xlink="http://www.w3.org/1999/xlink" x="0px" y="0px"
	 viewBox="0 0 58 58" style="enable-background:new 0 0 58 58;" xml:space="preserve">
<g>
	<path d="M57,23V5H43v18h-1h-1v-5v-1v-6c0-0.553-0.448-1-1-1h-4c-0.552,0-1,0.447-1,1v1c0,0.553,0.448,1,1,1s1-0.447,1-1h2v5H17v6
		h-1h-1V5H1v18H0v14v2v14h14h2h12h2h12h2h14V39v-2v-9v-5H57z M45,7h10v16H45V7z M42,25v3h-1h-2h-1h-2h-3v9h-3V25h11H42z M42,37h-1
		v-7h1V37z M36,37h-1v-7h1V37z M39,37h-1v-7h1V37z M19,19h20v4h-9h-2h-9V19z M16,25h1h11v12H16V26V25z M8,37H7v-9h1V37z M11,37h-1
		v-9h1V37z M14,37h-1v-9h1V37z M3,7h10v16H3V7z M2,25h12v1h-1h-2h-1H8H5v11H2V25z M14,51H2V39h3h3h2h1h2h1V51z M28,51H16V39h12V51z
		 M42,51H30V39h3h3h2h1h2h1V51z M56,51H44V39h3h3h2h1h2h1V51z M53,37h-1v-7h1V37z M50,37h-1v-7h1V37z M55,37v-7h1v7H55z M55,28h-2
		h-1h-2h-3v9h-3v-9v-3h12v3H55z"/>
	<path d="M21,16h16c0.552,0,1-0.447,1-1s-0.448-1-1-1H21c-0.552,0-1,0.447-1,1S20.448,16,21,16z"/>
	<path d="M12,12c0-2.206-1.794-4-4-4s-4,1.794-4,4c0,1.201,0.542,2.266,1.382,3C4.542,15.734,4,16.799,4,18c0,2.206,1.794,4,4,4
		s4-1.794,4-4c0-1.201-0.542-2.266-1.382-3C11.458,14.266,12,13.201,12,12z M10,18c0,1.103-0.897,2-2,2s-2-0.897-2-2s0.897-2,2-2
		S10,16.897,10,18z M6,12c0-1.103,0.897-2,2-2s2,0.897,2,2s-0.897,2-2,2S6,13.103,6,12z"/>
	<path d="M54,12c0-2.206-1.794-4-4-4s-4,1.794-4,4c0,1.201,0.542,2.266,1.382,3C46.542,15.734,46,16.799,46,18c0,2.206,1.794,4,4,4
		s4-1.794,4-4c0-1.201-0.542-2.266-1.382-3C53.458,14.266,54,13.201,54,12z M52,18c0,1.103-0.897,2-2,2s-2-0.897-2-2s0.897-2,2-2
		S52,16.897,52,18z M48,12c0-1.103,0.897-2,2-2s2,0.897,2,2s-0.897,2-2,2S48,13.103,48,12z"/>
	<path d="M10,41H6c-0.552,0-1,0.447-1,1s0.448,1,1,1h4c0.552,0,1-0.447,1-1S10.552,41,10,41z"/>
	<path d="M20,43h4c0.552,0,1-0.447,1-1s-0.448-1-1-1h-4c-0.552,0-1,0.447-1,1S19.448,43,20,43z"/>
	<path d="M38,41h-4c-0.552,0-1,0.447-1,1s0.448,1,1,1h4c0.552,0,1-0.447,1-1S38.552,41,38,41z"/>
	<path d="M52,41h-4c-0.552,0-1,0.447-1,1s0.448,1,1,1h4c0.552,0,1-0.447,1-1S52.552,41,52,41z"/>
</g>
<g>
</g>
<g>
</g>
<g>
</g>
<g>
</g>
<g>
</g>
<g>
</g>
<g>
</g>
<g>
</g>
<g>
</g>
<g>
</g>
<g>
</g>
<g>
</g>
<g>
</g>
<g>
</g>
<g>
</g>
</svg>
