<svg xmlns="http://www.w3.org/2000/svg" viewBox="0 0 58 58" style="enable-background:new 0 0 58 58" xml:space="preserve"><path d="M57 23V5H43v18h-2V11a1 1 0 0 0-1-1h-4a1 1 0 0 0-1 1v1a1 1 0 1 0 2 0h2v5H17v6h-2V5H1v18H0v30h58V23h-1zM45 7h10v16H45V7zm-3 18v3h-9v9h-3V25h12zm0 12h-1v-7h1v7zm-6 0h-1v-7h1v7zm3 0h-1v-7h1v7zM19 19h20v4H19v-4zm-3 6h12v12H16V25zM8 37H7v-9h1v9zm3 0h-1v-9h1v9zm3 0h-1v-9h1v9zM3 7h10v16H3V7zM2 25h12v1H5v11H2V25zm12 26H2V39h12v12zm14 0H16V39h12v12zm14 0H30V39h12v12zm14 0H44V39h12v12zm-3-14h-1v-7h1v7zm-3 0h-1v-7h1v7zm5 0v-7h1v7h-1zm0-9h-8v9h-3V25h12v3h-1z"/><path d="M21 16h16a1 1 0 1 0 0-2H21a1 1 0 1 0 0 2zM12 12c0-2.206-1.794-4-4-4s-4 1.794-4 4c0 1.201.542 2.266 1.382 3A3.974 3.974 0 0 0 4 18c0 2.206 1.794 4 4 4s4-1.794 4-4a3.974 3.974 0 0 0-1.382-3A3.974 3.974 0 0 0 12 12zm-2 6c0 1.103-.897 2-2 2s-2-.897-2-2 .897-2 2-2 2 .897 2 2zm-4-6c0-1.103.897-2 2-2s2 .897 2 2-.897 2-2 2-2-.897-2-2zM54 12c0-2.206-1.794-4-4-4s-4 1.794-4 4c0 1.201.542 2.266 1.382 3A3.974 3.974 0 0 0 46 18c0 2.206 1.794 4 4 4s4-1.794 4-4a3.974 3.974 0 0 0-1.382-3A3.974 3.974 0 0 0 54 12zm-2 6c0 1.103-.897 2-2 2s-2-.897-2-2 .897-2 2-2 2 .897 2 2zm-4-6c0-1.103.897-2 2-2s2 .897 2 2-.897 2-2 2-2-.897-2-2zM10 41H6a1 1 0 1 0 0 2h4a1 1 0 1 0 0-2zM20 43h4a1 1 0 1 0 0-2h-4a1 1 0 1 0 0 2zM38 41h-4a1 1 0 1 0 0 2h4a1 1 0 1 0 0-2zM52 41h-4a1 1 0 1 0 0 2h4a1 1 0 1 0 0-2z"/></svg>