<?xml version="1.0" encoding="iso-8859-1"?>
<!-- Generator: Adobe Illustrator 18.0.0, SVG Export Plug-In . SVG Version: 6.00 Build 0)  -->
<!DOCTYPE svg PUBLIC "-//W3C//DTD SVG 1.1//EN" "http://www.w3.org/Graphics/SVG/1.1/DTD/svg11.dtd">
<svg version="1.1" id="Capa_1" xmlns="http://www.w3.org/2000/svg" xmlns:xlink="http://www.w3.org/1999/xlink" x="0px" y="0px"
	 viewBox="0 0 60 60" style="enable-background:new 0 0 60 60;" xml:space="preserve">
<g>
	<path d="M44,30c0-13.504-6.46-30-14-30S16,16.496,16,30c0,4.513,1.691,8.743,3.184,12.475c0.724,1.809,1.404,3.517,1.816,5.067V50
		v2v4h2.5l3,4h7l3-4H39v-4v-2v-2.458c0.413-1.55,1.093-3.259,1.816-5.067C42.309,38.743,44,34.513,44,30z M18,30
		c0-15.456,7.262-28,12-28c2.311,0,5.322,3.113,7.672,7.933C40.463,15.654,42,22.781,42,30c0,4.128-1.615,8.168-3.041,11.732
		c-0.595,1.486-1.163,2.908-1.594,4.268H37V19h-1v-1c0-0.553-0.447-1-1-1s-1,0.447-1,1v1h-1v-1c0-0.553-0.447-1-1-1s-1,0.447-1,1v1
		h-2v-1c0-0.553-0.447-1-1-1s-1,0.447-1,1v1h-1v-1c0-0.553-0.447-1-1-1s-1,0.447-1,1v1h-1v27h-0.365
		c-0.431-1.359-0.999-2.781-1.594-4.268C19.615,38.168,18,34.128,18,30z M37,54H23v-2h14V54z M23,50v-2h6h2h6v2H23z M25,21h4v25h-4
		V21z M35,21v25h-4V21H35z M32.5,58h-5L26,56h8L32.5,58z"/>
	<circle cx="27" cy="32" r="1"/>
	<circle cx="27" cy="29" r="1"/>
	<circle cx="27" cy="26" r="1"/>
	<circle cx="27" cy="23" r="1"/>
	<circle cx="27" cy="35" r="1"/>
	<circle cx="27" cy="38" r="1"/>
	<circle cx="27" cy="41" r="1"/>
	<circle cx="27" cy="44" r="1"/>
	<circle cx="33" cy="32" r="1"/>
	<circle cx="33" cy="29" r="1"/>
	<circle cx="33" cy="26" r="1"/>
	<circle cx="33" cy="23" r="1"/>
	<circle cx="33" cy="35" r="1"/>
	<circle cx="33" cy="38" r="1"/>
	<circle cx="33" cy="41" r="1"/>
	<circle cx="33" cy="44" r="1"/>
</g>
<g>
</g>
<g>
</g>
<g>
</g>
<g>
</g>
<g>
</g>
<g>
</g>
<g>
</g>
<g>
</g>
<g>
</g>
<g>
</g>
<g>
</g>
<g>
</g>
<g>
</g>
<g>
</g>
<g>
</g>
</svg>
