<svg xmlns="http://www.w3.org/2000/svg" viewBox="0 0 58.317 58.317" style="enable-background:new 0 0 58.317 58.317" xml:space="preserve"><path d="M38.49 7.999 29.159 0l-9.331 7.998a16.213 16.213 0 0 0-5.669 12.326v27.978c0 3.868 3.147 7.016 7.015 7.016h2.985v3h2v-3h2v3h2v-3h2v3h2v-3h2.985c3.868 0 7.015-3.147 7.015-7.016V20.324c0-4.746-2.067-9.238-5.669-12.325zM26.159 53.317v-2h2v2h-2zm-2.858-13h4.858v3h-1c-1.859 0-3.411-1.279-3.858-3zm7.858 3h-1v-3h4.858c-.447 1.721-2 3-3.858 3zm-11-5V23.524a2.21 2.21 0 0 1 2.208-2.207h13.585a2.21 2.21 0 0 1 2.208 2.207v14.793H20.159zm18 7v2c0 1.103-.897 2-2 2h-2v-1h2v-2h-14v2h2v1h-2c-1.103 0-2-.897-2-2v-2h18zm-6 3v1h-2v-1h2zm-6 0h2v1h-2v-1zm4 5v-2h2v2h-2zm12-5.015a5.021 5.021 0 0 1-5.015 5.016h-2.985v-2h2c2.206 0 4-1.794 4-4v-2.36c0-.904-.735-1.64-1.64-1.64h-2.901a5.98 5.98 0 0 0 1.45-3h3.09V23.524a4.213 4.213 0 0 0-4.208-4.207H22.366a4.213 4.213 0 0 0-4.208 4.207v16.793h3.09a5.98 5.98 0 0 0 1.45 3h-2.901c-.904 0-1.64.735-1.64 1.64v2.36c0 2.206 1.794 4 4 4h2v2h-2.985a5.021 5.021 0 0 1-5.015-5.016V20.324c0-4.161 1.812-8.1 4.971-10.808l8.029-6.882 8.029 6.883a14.215 14.215 0 0 1 4.971 10.807v27.978z"/><path d="M30.159 7.317c-4.411 0-8 3.589-8 8a1 1 0 1 0 2 0c0-3.309 2.691-6 6-6a1 1 0 1 0 0-2zM35.159 29.317a1 1 0 1 0 0-2h-5v-2a1 1 0 1 0-2 0v2h-5a1 1 0 1 0 0 2h5v2h-5a1 1 0 1 0 0 2h5v2a1 1 0 1 0 2 0v-2h5a1 1 0 1 0 0-2h-5v-2h5z"/></svg>