<svg xmlns="http://www.w3.org/2000/svg" viewBox="0 0 60 60" style="enable-background:new 0 0 60 60" xml:space="preserve"><circle cx="24" cy="19" r="1"/><circle cx="30" cy="19" r="1"/><circle cx="36" cy="19" r="1"/><circle cx="24" cy="22" r="1"/><circle cx="30" cy="22" r="1"/><circle cx="36" cy="22" r="1"/><circle cx="24" cy="25" r="1"/><circle cx="30" cy="25" r="1"/><circle cx="36" cy="25" r="1"/><circle cx="24" cy="28" r="1"/><circle cx="30" cy="28" r="1"/><circle cx="36" cy="28" r="1"/><circle cx="24" cy="31" r="1"/><circle cx="30" cy="31" r="1"/><circle cx="36" cy="31" r="1"/><circle cx="24" cy="34" r="1"/><circle cx="30" cy="34" r="1"/><circle cx="36" cy="34" r="1"/><circle cx="24" cy="37" r="1"/><circle cx="30" cy="37" r="1"/><circle cx="36" cy="37" r="1"/><path d="M49 10c0-5.981-9.824-10-19-10S11 4.019 11 10v13.5c0 5.57 1.606 10.955 4.517 15.197.067.283.17.56.348.807C17.281 41.467 18 43.675 18 46.067v4.362c0 .802.174 1.563.48 2.253l.118.318h.036a5.57 5.57 0 0 0 4.864 2.996L26.5 60h7l3.003-4.004A5.575 5.575 0 0 0 41.367 53h.036l.117-.318c.306-.689.48-1.451.48-2.253V47c0-.311.015-.624.04-.937l.007-.091a12.966 12.966 0 0 1 2.469-6.49c.315-.425.439-.936.402-1.443C47.547 33.914 49 28.774 49 23.5V10zm-23 7v21.94a24.472 24.472 0 0 1-4-1.052V17h4zm6 0v22.231c-1.332.101-2.67.091-4-.028V17h4zm6 0v21.014c-1.31.441-2.649.771-4 .985V17h4zm-5.5 41h-5L26 56h8l-1.5 2zm3.929-4H23.571a3.555 3.555 0 0 1-2.467-1h17.791c-.642.616-1.509 1-2.466 1zM40 50.429c0 .196-.027.384-.058.571H20.058a3.475 3.475 0 0 1-.058-.571V50h20v.429zM20 48v-1h20v1H20zm22.911-9.711c-1.447 1.947-2.402 4.314-2.754 6.711H19.958c-.188-2.412-1.016-4.65-2.472-6.667a.219.219 0 0 1-.044-.128.216.216 0 0 1 .039-.14A26.8 26.8 0 0 0 20 39.264v.006l.145.056A26.793 26.793 0 0 0 26 40.982v.001l.048.006c.573.092 1.148.164 1.724.217l.228.029v-.007c.724.061 1.449.102 2.175.102.419 0 .837-.019 1.255-.039.126-.006.252-.004.377-.012a26.37 26.37 0 0 0 7.92-1.75c.033-.013.066-.023.099-.035.327-.129.65-.276.974-.419.19-.083.383-.158.572-.246.146-.068.288-.148.433-.219.361-.177.722-.352 1.078-.545a.301.301 0 0 1 .044.081l.002.007c.017.068-.004.118-.018.136zM47 23.5c0 4.58-1.165 9.047-3.301 12.722-.064-.031-.134-.047-.201-.072-.068-.025-.133-.055-.204-.073a2.15 2.15 0 0 0-.551-.077h-.257l-.505.277c-.649.357-1.313.67-1.981.965V15h-3v-1a1 1 0 1 0-2 0v1h-1v-1a1 1 0 1 0-2 0v1h-1v-1a1 1 0 1 0-2 0v1h-1v-1a1 1 0 1 0-2 0v1h-1v-1a1 1 0 1 0-2 0v1h-3v22.081a25.176 25.176 0 0 1-1.884-.951l-.228-.13h-.265l-.014.002c-.208.001-.41.032-.603.088-.088.025-.164.072-.248.108-.106.046-.213.087-.31.148-.016.011-.037.014-.053.025C14.197 32.664 13 28.155 13 23.5V10c0-4.187 8.103-8 17-8s17 3.813 17 8v13.5z"/></svg>