<?xml version="1.0" encoding="iso-8859-1"?>
<!-- Generator: Adobe Illustrator 18.0.0, SVG Export Plug-In . SVG Version: 6.00 Build 0)  -->
<!DOCTYPE svg PUBLIC "-//W3C//DTD SVG 1.1//EN" "http://www.w3.org/Graphics/SVG/1.1/DTD/svg11.dtd">
<svg version="1.1" id="Capa_1" xmlns="http://www.w3.org/2000/svg" xmlns:xlink="http://www.w3.org/1999/xlink" x="0px" y="0px"
	 viewBox="0 0 60 60" style="enable-background:new 0 0 60 60;" xml:space="preserve">
<g>
	<circle cx="24" cy="19" r="1"/>
	<circle cx="30" cy="19" r="1"/>
	<circle cx="36" cy="19" r="1"/>
	<circle cx="24" cy="22" r="1"/>
	<circle cx="30" cy="22" r="1"/>
	<circle cx="36" cy="22" r="1"/>
	<circle cx="24" cy="25" r="1"/>
	<circle cx="30" cy="25" r="1"/>
	<circle cx="36" cy="25" r="1"/>
	<circle cx="24" cy="28" r="1"/>
	<circle cx="30" cy="28" r="1"/>
	<circle cx="36" cy="28" r="1"/>
	<circle cx="24" cy="31" r="1"/>
	<circle cx="30" cy="31" r="1"/>
	<circle cx="36" cy="31" r="1"/>
	<circle cx="24" cy="34" r="1"/>
	<circle cx="30" cy="34" r="1"/>
	<circle cx="36" cy="34" r="1"/>
	<circle cx="24" cy="37" r="1"/>
	<circle cx="30" cy="37" r="1"/>
	<circle cx="36" cy="37" r="1"/>
	<path d="M49,10c0-5.981-9.824-10-19-10S11,4.019,11,10v13.5c0,5.57,1.606,10.955,4.517,15.197c0.067,0.283,0.17,0.56,0.348,0.807
		C17.281,41.467,18,43.675,18,46.067V48v2v0.429c0,0.802,0.174,1.563,0.48,2.253L18.598,53h0.036c0.92,1.76,2.75,2.968,4.864,2.996
		L26.5,60h7l3.003-4.004c2.113-0.028,3.943-1.237,4.864-2.996h0.036l0.117-0.318c0.306-0.689,0.48-1.451,0.48-2.253V50v-2v-1
		c0-0.311,0.015-0.624,0.04-0.937l0.007-0.091c0.204-2.3,1.077-4.618,2.469-6.49c0.315-0.425,0.439-0.936,0.402-1.443
		C47.547,33.914,49,28.774,49,23.5V10z M26,17v21.94c-1.354-0.235-2.693-0.588-4-1.052V17H26z M32,17v22.231
		c-1.332,0.101-2.67,0.091-4-0.028V17H32z M38,17v21.014c-1.31,0.441-2.649,0.771-4,0.985V17H38z M32.5,58h-5L26,56h8L32.5,58z
		 M36.429,54H23.571c-0.958,0-1.824-0.384-2.467-1h17.791C38.253,53.616,37.386,54,36.429,54z M40,50.429
		c0,0.196-0.027,0.384-0.058,0.571H20.058C20.027,50.813,20,50.624,20,50.429V50h20V50.429z M20,48v-1h20v1H20z M42.911,38.289
		c-1.447,1.947-2.402,4.314-2.754,6.711H19.958c-0.188-2.412-1.016-4.65-2.472-6.667c-0.034-0.047-0.043-0.09-0.044-0.128
		c-0.003-0.049,0.01-0.101,0.039-0.14c0.823,0.45,1.666,0.842,2.519,1.199v0.006l0.145,0.056c0.426,0.176,0.856,0.337,1.288,0.49
		c1.496,0.528,3.023,0.916,4.567,1.166v0.001l0.048,0.006c0.573,0.092,1.148,0.164,1.724,0.217L28,41.235v-0.007
		c0.724,0.061,1.449,0.102,2.175,0.102c0.419,0,0.837-0.019,1.255-0.039c0.126-0.006,0.252-0.004,0.377-0.012
		c2.686-0.167,5.355-0.753,7.92-1.75c0.033-0.013,0.066-0.023,0.099-0.035c0.327-0.129,0.65-0.276,0.974-0.419
		c0.19-0.083,0.383-0.158,0.572-0.246c0.146-0.068,0.288-0.148,0.433-0.219c0.361-0.177,0.722-0.352,1.078-0.545
		c0.023,0.029,0.037,0.062,0.044,0.081l0.002,0.007C42.946,38.221,42.925,38.271,42.911,38.289z M47,23.5
		c0,4.58-1.165,9.047-3.301,12.722c-0.064-0.031-0.134-0.047-0.201-0.072c-0.068-0.025-0.133-0.055-0.204-0.073
		C43.116,36.03,42.933,36,42.743,36h-0.256h-0.001l-0.505,0.277c-0.649,0.357-1.313,0.67-1.981,0.965V15h-3v-1c0-0.553-0.447-1-1-1
		s-1,0.447-1,1v1h-1v-1c0-0.553-0.447-1-1-1s-1,0.447-1,1v1h-1v-1c0-0.553-0.447-1-1-1s-1,0.447-1,1v1h-1v-1c0-0.553-0.447-1-1-1
		s-1,0.447-1,1v1h-1v-1c0-0.553-0.447-1-1-1s-1,0.447-1,1v1h-3v22.081c-0.636-0.292-1.266-0.602-1.884-0.951L17.888,36h-0.001
		h-0.263h-0.001c-0.005,0-0.009,0.002-0.014,0.002c-0.208,0.001-0.41,0.032-0.603,0.088c-0.088,0.025-0.164,0.072-0.248,0.108
		c-0.106,0.046-0.213,0.087-0.31,0.148c-0.016,0.011-0.037,0.014-0.053,0.025C14.197,32.664,13,28.155,13,23.5V10
		c0-4.187,8.103-8,17-8s17,3.813,17,8V23.5z"/>
</g>
<g>
</g>
<g>
</g>
<g>
</g>
<g>
</g>
<g>
</g>
<g>
</g>
<g>
</g>
<g>
</g>
<g>
</g>
<g>
</g>
<g>
</g>
<g>
</g>
<g>
</g>
<g>
</g>
<g>
</g>
</svg>
