<svg xmlns="http://www.w3.org/2000/svg" viewBox="0 0 58.993 58.993" style="enable-background:new 0 0 58.993 58.993" xml:space="preserve"><path d="M53.599 7.688C51.193 1.88 36.321 0 29.497 0S7.801 1.88 5.394 7.688c-.898 2.17-.092 4.531 2.396 7.019C20.638 27.556 20.553 34.85 20.503 39.208l-.005 5.785h-.002v10h2.5l3 4h7l3-4h2.5v-15c0-3.764 0-12.578 12.707-25.286 2.489-2.487 3.295-4.849 2.396-7.019zM31.997 56.993h-5l-1.5-2h8l-1.5 2zm4.5-4h-14v-2h14v2zm0-4h-14v-2h14v2zm-8-20h2v16h-2v-16zm21.293-15.7c-13.293 13.293-13.293 22.688-13.293 26.7v5h-4v-17c0-7.383 1.57-10 6-10a1 1 0 1 0 0-2c-7.37 0-7.949 6.871-7.995 11h-2.011c-.046-4.129-.625-11-7.995-11a1 1 0 1 0 0 2c4.43 0 6 2.617 6 10v17h-4l.006-5.762c.054-4.673.145-12.494-13.299-25.938-1.861-1.861-2.521-3.489-1.961-4.839C8.963 4.299 21.494 2 29.497 2S50.03 4.299 51.751 8.454c.559 1.35-.101 2.978-1.961 4.839z"/><path d="M42.024 11.144a1.001 1.001 0 0 0-1.377.321c-.613.985-1.376 1.528-2.151 1.528s-1.538-.543-2.151-1.528c-.005-.008-.014-.012-.019-.021-.037-.056-.091-.099-.14-.148-.047-.046-.087-.097-.141-.133-.009-.006-.013-.015-.022-.02-.044-.027-.094-.032-.14-.052-.066-.028-.128-.06-.197-.073-.063-.012-.125-.007-.188-.007-.065 0-.128-.006-.193.007-.07.014-.133.046-.199.074-.045.02-.094.024-.138.051-.008.005-.012.014-.021.02-.055.036-.098.089-.146.137-.047.047-.099.089-.135.144-.005.008-.014.012-.02.021-.613.985-1.376 1.528-2.151 1.528s-1.538-.543-2.151-1.528c-.005-.008-.014-.012-.019-.021-.037-.056-.091-.099-.14-.148-.047-.046-.087-.097-.141-.133-.009-.006-.013-.015-.022-.02-.044-.027-.094-.032-.14-.052-.066-.028-.128-.06-.198-.073-.063-.012-.125-.007-.188-.007-.065 0-.128-.006-.193.007-.071.014-.134.046-.201.075-.045.02-.093.024-.136.051-.008.005-.012.014-.02.019-.056.037-.099.09-.147.138-.047.047-.099.088-.134.143-.005.008-.014.012-.02.021-.613.985-1.376 1.528-2.151 1.528s-1.538-.543-2.151-1.528c-.005-.008-.014-.012-.019-.021-.037-.056-.091-.099-.14-.148-.047-.046-.087-.097-.141-.133-.009-.006-.013-.015-.022-.02-.044-.027-.094-.032-.14-.052-.066-.028-.128-.06-.198-.073-.063-.012-.125-.007-.188-.007-.065 0-.128-.006-.193.007-.071.014-.134.046-.201.075-.045.02-.093.024-.136.051-.008.005-.012.014-.02.019-.056.037-.099.09-.147.138-.047.047-.099.088-.134.143-.005.008-.014.012-.02.021-.613.985-1.376 1.528-2.151 1.528s-1.538-.543-2.151-1.528a1 1 0 0 0-1.698 1.057c.991 1.594 2.358 2.472 3.849 2.472 1.102 0 2.135-.482 3-1.376.865.894 1.898 1.376 3 1.376s2.135-.482 3-1.376c.865.894 1.898 1.376 3 1.376s2.135-.482 3-1.376c.865.894 1.898 1.376 3 1.376 1.491 0 2.858-.878 3.849-2.472a.996.996 0 0 0-.318-1.378z"/></svg>