<svg xmlns="http://www.w3.org/2000/svg" viewBox="0 0 57 57" style="enable-background:new 0 0 57 57" xml:space="preserve"><circle cx="20.5" cy="16" r="1"/><circle cx="20.5" cy="13" r="1"/><circle cx="20.5" cy="10" r="1"/><circle cx="20.5" cy="7" r="1"/><circle cx="20.5" cy="19" r="1"/><circle cx="20.5" cy="22" r="1"/><circle cx="20.5" cy="25" r="1"/><circle cx="20.5" cy="28" r="1"/><circle cx="20.5" cy="31" r="1"/><circle cx="20.5" cy="34" r="1"/><circle cx="28.5" cy="16" r="1"/><circle cx="28.5" cy="13" r="1"/><circle cx="28.5" cy="10" r="1"/><circle cx="28.5" cy="7" r="1"/><circle cx="28.5" cy="19" r="1"/><circle cx="28.5" cy="22" r="1"/><circle cx="28.5" cy="25" r="1"/><circle cx="28.5" cy="28" r="1"/><circle cx="28.5" cy="31" r="1"/><circle cx="28.5" cy="34" r="1"/><circle cx="36.5" cy="16" r="1"/><circle cx="36.5" cy="13" r="1"/><circle cx="36.5" cy="10" r="1"/><circle cx="36.5" cy="7" r="1"/><circle cx="36.5" cy="19" r="1"/><circle cx="36.5" cy="22" r="1"/><circle cx="36.5" cy="25" r="1"/><circle cx="36.5" cy="28" r="1"/><circle cx="36.5" cy="31" r="1"/><circle cx="36.5" cy="34" r="1"/><path d="M41.5 35.047V2h-2V1a1 1 0 1 0-2 0v1h-2V1a1 1 0 1 0-2 0v1h-2V1a1 1 0 1 0-2 0v1h-2V1a1 1 0 1 0-2 0v1h-2V1a1 1 0 1 0-2 0v1h-2V1a1 1 0 1 0-2 0v1h-2v33.047a2.469 2.469 0 0 0-2 2.419v2.425c0 3.542 2.606 6.479 6 7.014V53H22l3 4h7l3-4h2.5v-6.095c3.394-.535 6-3.472 6-7.014v-2.425c0-1.2-.863-2.2-2-2.419zM33.5 4h6v31h-6V4zm-8 0h6v31h-6V4zm-8 0h6v31h-6V4zM31 55h-5l-1.5-2h8L31 55zm4.5-4h-14v-1h14v1zm-14-3v-1h14v1h-14zm20-8.109A5.115 5.115 0 0 1 36.391 45H20.609a5.115 5.115 0 0 1-5.109-5.109v-2.425c0-.257.209-.466.466-.466H41.034c.257 0 .466.209.466.466v2.425z"/></svg>