<?xml version="1.0" encoding="iso-8859-1"?>
<!-- Generator: Adobe Illustrator 18.0.0, SVG Export Plug-In . SVG Version: 6.00 Build 0)  -->
<!DOCTYPE svg PUBLIC "-//W3C//DTD SVG 1.1//EN" "http://www.w3.org/Graphics/SVG/1.1/DTD/svg11.dtd">
<svg version="1.1" id="Capa_1" xmlns="http://www.w3.org/2000/svg" xmlns:xlink="http://www.w3.org/1999/xlink" x="0px" y="0px"
	 viewBox="0 0 59.876 59.876" style="enable-background:new 0 0 59.876 59.876;" xml:space="preserve">
<path d="M49.938,18.876C49.938,7.057,42.461,0,29.938,0s-20,7.057-20,18.876v1h0.029c0.305,9.758,4.96,16.368,8.084,20.785
	c1.549,2.188,2.886,4.079,2.886,5.282v1.933v2v2v4h2.5l3,4h7l3-4h2.5v-4v-2v-2v-1.933c0-1.203,1.337-3.094,2.886-5.282
	c3.124-4.417,7.78-11.028,8.084-20.785h0.029V18.876z M30.46,2.005c0.057,0.001,0.118,0.004,0.177,0.005
	c0.126,0.003,0.251,0.006,0.382,0.011c0.075,0.003,0.155,0.008,0.232,0.012c0.12,0.006,0.238,0.011,0.361,0.019
	c0.089,0.005,0.182,0.013,0.272,0.02C32,2.08,32.115,2.088,32.233,2.098c0.098,0.008,0.199,0.019,0.299,0.029
	c0.118,0.011,0.234,0.022,0.354,0.035c0.1,0.011,0.203,0.025,0.305,0.037c0.123,0.015,0.245,0.03,0.37,0.047
	c0.107,0.015,0.216,0.032,0.324,0.049c0.123,0.019,0.245,0.036,0.369,0.057c0.114,0.019,0.23,0.041,0.345,0.062
	c0.122,0.022,0.243,0.043,0.365,0.068c0.116,0.023,0.234,0.05,0.352,0.075c0.125,0.027,0.249,0.053,0.374,0.082
	c0.117,0.027,0.236,0.058,0.354,0.088c0.127,0.032,0.253,0.063,0.38,0.097c0.12,0.032,0.24,0.068,0.36,0.103
	C36.91,2.964,37.037,3,37.163,3.039c0.122,0.038,0.244,0.08,0.366,0.12c0.125,0.042,0.251,0.083,0.376,0.128
	c0.123,0.044,0.247,0.092,0.37,0.138c0.124,0.047,0.248,0.094,0.371,0.144c0.123,0.05,0.245,0.103,0.367,0.156
	c0.124,0.054,0.249,0.108,0.372,0.165c0.121,0.056,0.241,0.115,0.361,0.174c0.123,0.061,0.246,0.121,0.368,0.185
	c0.12,0.063,0.238,0.128,0.357,0.194c0.121,0.067,0.242,0.135,0.361,0.206c0.118,0.07,0.235,0.143,0.351,0.217
	c0.118,0.074,0.235,0.149,0.352,0.227c0.115,0.077,0.23,0.158,0.343,0.239c0.115,0.082,0.229,0.165,0.342,0.25
	c0.112,0.085,0.222,0.173,0.332,0.261c0.111,0.09,0.222,0.181,0.332,0.275c0.107,0.092,0.213,0.188,0.318,0.284
	c0.108,0.099,0.215,0.2,0.321,0.303c0.102,0.1,0.203,0.203,0.303,0.308c0.103,0.108,0.206,0.218,0.306,0.33
	c0.097,0.109,0.193,0.22,0.288,0.333c0.098,0.117,0.194,0.236,0.289,0.358c0.092,0.118,0.182,0.238,0.271,0.361
	c0.092,0.127,0.182,0.256,0.27,0.387c0.086,0.127,0.17,0.256,0.252,0.388c0.085,0.136,0.168,0.276,0.25,0.418
	c0.079,0.136,0.156,0.275,0.231,0.416c0.078,0.147,0.154,0.298,0.228,0.451c0.071,0.146,0.141,0.294,0.208,0.445
	c0.07,0.158,0.137,0.32,0.203,0.483c0.063,0.156,0.126,0.314,0.185,0.476c0.062,0.169,0.12,0.343,0.177,0.517
	c0.055,0.167,0.109,0.334,0.159,0.507c0.053,0.181,0.102,0.368,0.15,0.555c0.045,0.177,0.091,0.354,0.131,0.536
	c0.044,0.194,0.082,0.394,0.121,0.595c0.036,0.187,0.071,0.374,0.102,0.566c0.033,0.208,0.061,0.422,0.089,0.636
	c0.026,0.198,0.052,0.395,0.072,0.598c0.022,0.22,0.038,0.448,0.055,0.675c0.015,0.209,0.031,0.417,0.041,0.633
	c0.003,0.064,0.003,0.132,0.005,0.197h-3.974h-5.889H21.827h-5.889h-3.974c0.003-0.065,0.002-0.133,0.005-0.197
	c0.01-0.215,0.026-0.423,0.041-0.633c0.016-0.227,0.032-0.455,0.055-0.675c0.021-0.203,0.047-0.4,0.072-0.598
	c0.028-0.214,0.056-0.428,0.089-0.636c0.031-0.192,0.067-0.379,0.102-0.566c0.038-0.201,0.077-0.401,0.121-0.595
	c0.041-0.182,0.086-0.359,0.131-0.536c0.048-0.188,0.097-0.374,0.15-0.555c0.05-0.172,0.104-0.34,0.159-0.507
	c0.057-0.175,0.115-0.348,0.177-0.517c0.059-0.162,0.122-0.32,0.185-0.476c0.066-0.164,0.133-0.326,0.203-0.483
	c0.067-0.151,0.137-0.298,0.208-0.444c0.075-0.153,0.15-0.305,0.229-0.453c0.075-0.141,0.152-0.278,0.23-0.414
	c0.082-0.142,0.165-0.282,0.25-0.419c0.082-0.132,0.166-0.261,0.252-0.388c0.088-0.131,0.178-0.261,0.27-0.387
	c0.089-0.122,0.179-0.243,0.271-0.361c0.095-0.122,0.191-0.241,0.289-0.358c0.095-0.113,0.19-0.225,0.288-0.333
	c0.101-0.113,0.203-0.222,0.306-0.33c0.1-0.104,0.201-0.208,0.303-0.308c0.106-0.103,0.213-0.204,0.321-0.303
	c0.105-0.096,0.211-0.192,0.318-0.284c0.109-0.094,0.22-0.185,0.332-0.275c0.11-0.089,0.22-0.177,0.332-0.261
	c0.113-0.086,0.227-0.168,0.342-0.25c0.114-0.081,0.228-0.162,0.343-0.239c0.116-0.078,0.234-0.153,0.352-0.227
	c0.117-0.073,0.233-0.147,0.351-0.217c0.12-0.071,0.24-0.138,0.361-0.206c0.119-0.066,0.237-0.132,0.357-0.194
	c0.122-0.064,0.245-0.125,0.368-0.185c0.12-0.059,0.24-0.118,0.361-0.174c0.124-0.057,0.248-0.111,0.372-0.165
	c0.122-0.053,0.244-0.106,0.367-0.156c0.124-0.05,0.247-0.097,0.371-0.144c0.123-0.047,0.246-0.094,0.37-0.138
	c0.125-0.045,0.251-0.086,0.376-0.128c0.122-0.041,0.244-0.082,0.366-0.12C22.839,3,22.966,2.964,23.092,2.927
	c0.12-0.035,0.24-0.071,0.36-0.103c0.127-0.034,0.254-0.066,0.38-0.097c0.118-0.03,0.236-0.06,0.354-0.088
	c0.126-0.03,0.251-0.055,0.376-0.082c0.117-0.025,0.234-0.052,0.35-0.075c0.123-0.024,0.245-0.046,0.367-0.068
	c0.115-0.021,0.231-0.043,0.344-0.062c0.124-0.021,0.246-0.039,0.369-0.057c0.108-0.016,0.217-0.034,0.324-0.049
	c0.125-0.017,0.247-0.031,0.37-0.047c0.102-0.012,0.205-0.026,0.305-0.037c0.12-0.013,0.237-0.024,0.354-0.035
	c0.1-0.01,0.201-0.021,0.299-0.029c0.119-0.01,0.233-0.018,0.349-0.026c0.091-0.007,0.184-0.014,0.272-0.02
	c0.123-0.008,0.242-0.013,0.361-0.019c0.077-0.004,0.157-0.009,0.232-0.012c0.131-0.005,0.256-0.008,0.382-0.011
	c0.058-0.001,0.12-0.004,0.177-0.005C29.596,2.002,29.771,2,29.938,2S30.279,2.002,30.46,2.005z M22.044,19.876
	c0.985,8.759,2.296,12.077,3.9,15.44c0.876,1.836,1.185,3.125,1.895,10.56h-1.013c-0.767-6.051-1.871-7.61-3.036-9.257
	c-2.776-3.926-5.612-8.971-5.837-16.743H22.044z M27.749,34.455c-1.56-3.271-2.751-6.276-3.696-14.579h11.77
	c-0.903,8.039-1.927,11.158-3.681,14.55c-1.122,2.169-1.417,4.064-2.115,11.45h-0.179C29.136,38.37,28.812,36.686,27.749,34.455z
	 M33.919,35.344c1.843-3.564,2.973-7.008,3.914-15.468h4.09c-0.226,7.772-3.061,12.817-5.837,16.742
	c-1.165,1.647-2.269,3.207-3.036,9.258h-1.014C32.73,38.583,33.01,37.104,33.919,35.344z M19.685,39.506
	c-3.154-4.459-7.421-10.517-7.718-19.63h3.993c0.227,8.326,3.239,13.716,6.197,17.897v0.001c1.045,1.476,1.956,2.764,2.652,8.102
	h-1.872C22.905,44.058,21.55,42.144,19.685,39.506z M32.438,57.876h-5l-1.5-2h8L32.438,57.876z M36.938,53.876h-14v-2h14V53.876z
	 M36.938,49.876h-14v-2h2.107h2.982h3.822h2.982h2.107V49.876z M40.191,39.506c-1.866,2.638-3.22,4.552-3.253,6.37h-1.872
	c0.696-5.337,1.607-6.626,2.652-8.103c2.957-4.181,5.97-9.572,6.197-17.897h3.993C47.612,28.989,43.345,35.046,40.191,39.506z"/>
<g>
</g>
<g>
</g>
<g>
</g>
<g>
</g>
<g>
</g>
<g>
</g>
<g>
</g>
<g>
</g>
<g>
</g>
<g>
</g>
<g>
</g>
<g>
</g>
<g>
</g>
<g>
</g>
<g>
</g>
</svg>
