<svg xmlns="http://www.w3.org/2000/svg" viewBox="0 0 60.002 60.002" style="enable-background:new 0 0 60.002 60.002" xml:space="preserve"><path d="M43.669 5.224C39.268 1.284 33.588-.524 27.661.132 18.24 1.177 10.655 8.777 9.626 18.205c-.699 6.407 1.553 12.626 6.179 17.062 2.984 2.861 4.696 6.799 4.696 10.803v9.933h2.5l3 4h7l3-4h2.5v-9c0-4.218 1.862-8.29 5.108-11.173a20.515 20.515 0 0 0 6.892-15.327c0-5.824-2.49-11.394-6.832-15.279zM32.001 58.002h-5l-1.5-2h8l-1.5 2zm4.5-4h-14v-2h14v2zm0-4h-14v-2h14v2zm-7-22a1 1 0 0 0-1 1v2.816a2.996 2.996 0 0 1-2-2.816c0-1.654 1.346-3 3-3s3 1.346 3 3a2.996 2.996 0 0 1-2 2.816v-2.816a1 1 0 0 0-1-1zm12.78 6.331c-3.417 3.034-5.479 7.242-5.75 11.669H30.5V33.901a5.009 5.009 0 0 0 4-4.899c0-2.757-2.243-5-5-5s-5 2.243-5 5a5.009 5.009 0 0 0 4 4.899v12.101h-6c-.019-4.522-1.953-8.958-5.312-12.179-4.174-4.003-6.206-9.616-5.575-15.401.929-8.504 7.771-15.359 16.269-16.302 5.35-.592 10.481 1.038 14.453 4.593a18.533 18.533 0 0 1 6.166 13.789 18.509 18.509 0 0 1-6.22 13.831z"/></svg>