<svg xmlns="http://www.w3.org/2000/svg" viewBox="0 0 59.876 59.876" style="enable-background:new 0 0 59.876 59.876" xml:space="preserve"><path d="M49.938 18.876C49.938 7.057 42.461 0 29.938 0s-20 7.057-20 18.876v1h.029c.305 9.758 4.96 16.368 8.084 20.785 1.549 2.188 2.886 4.079 2.886 5.282v9.933h2.5l3 4h7l3-4h2.5v-9.933c0-1.203 1.337-3.094 2.886-5.282 3.124-4.417 7.78-11.028 8.084-20.785h.029v-1zM30.46 2.005l.177.005c.126.003.251.006.382.011l.232.012c.12.006.238.011.361.019.089.005.182.013.272.02.116.008.231.016.349.026.098.008.199.019.299.029.118.011.234.022.354.035.1.011.203.025.305.037a19.58 19.58 0 0 1 .694.096c.123.019.245.036.369.057.114.019.23.041.345.062.122.022.243.043.365.068.116.023.234.05.352.075.125.027.249.053.374.082.117.027.236.058.354.088.127.032.253.063.38.097.12.032.24.068.36.103.126.037.253.073.379.112.122.038.244.08.366.12.125.042.251.083.376.128.123.044.247.092.37.138.124.047.248.094.371.144.123.05.245.103.367.156.124.054.249.108.372.165.121.056.241.115.361.174.123.061.246.121.368.185a17.675 17.675 0 0 1 .718.4c.118.07.235.143.351.217a13.165 13.165 0 0 1 .695.466c.115.082.229.165.342.25.112.085.222.173.332.261.111.09.222.181.332.275a14.041 14.041 0 0 1 1.536 1.558 12.889 12.889 0 0 1 .83 1.106 11.74 11.74 0 0 1 .502.806 12.74 12.74 0 0 1 .459.867 14.01 14.01 0 0 1 .596 1.404c.062.169.12.343.177.517a14.333 14.333 0 0 1 .309 1.062c.045.177.091.354.131.536.044.194.082.394.121.595.036.187.071.374.102.566.033.208.061.422.089.636.026.198.052.395.072.598.022.22.038.448.055.675.015.209.031.417.041.633.003.064.003.132.005.197H11.964c.003-.065.002-.133.005-.197.01-.215.026-.423.041-.633.016-.227.032-.455.055-.675.021-.203.047-.4.072-.598.028-.214.056-.428.089-.636.031-.192.067-.379.102-.566.038-.201.077-.401.121-.595.041-.182.086-.359.131-.536a15.017 15.017 0 0 1 .309-1.062c.057-.175.115-.348.177-.517.059-.162.122-.32.185-.476a14.298 14.298 0 0 1 .411-.927c.075-.153.15-.305.229-.453a14.804 14.804 0 0 1 .732-1.221 12.087 12.087 0 0 1 .541-.748 12.889 12.889 0 0 1 .883-1.021c.1-.104.201-.208.303-.308a15.17 15.17 0 0 1 .639-.587c.109-.094.22-.185.332-.275a11.507 11.507 0 0 1 .674-.511c.114-.081.228-.162.343-.239.116-.078.234-.153.352-.227.117-.073.233-.147.351-.217.12-.071.24-.138.361-.206.119-.066.237-.132.357-.194.122-.064.245-.125.368-.185.12-.059.24-.118.361-.174.124-.057.248-.111.372-.165.122-.053.244-.106.367-.156.124-.05.247-.097.371-.144.123-.047.246-.094.37-.138.125-.045.251-.086.376-.128.122-.041.244-.082.366-.12.129-.039.256-.075.382-.112.12-.035.24-.071.36-.103.127-.034.254-.066.38-.097.118-.03.236-.06.354-.088.126-.03.251-.055.376-.082.117-.025.234-.052.35-.075.123-.024.245-.046.367-.068.115-.021.231-.043.344-.062.124-.021.246-.039.369-.057.108-.016.217-.034.324-.049.125-.017.247-.031.37-.047.102-.012.205-.026.305-.037.12-.013.237-.024.354-.035.1-.01.201-.021.299-.029.119-.01.233-.018.349-.026l.272-.02c.123-.008.242-.013.361-.019l.232-.012c.131-.005.256-.008.382-.011l.177-.005a31.36 31.36 0 0 1 1.043 0zm-8.416 17.871c.985 8.759 2.296 12.077 3.9 15.44.876 1.836 1.185 3.125 1.895 10.56h-1.013c-.767-6.051-1.871-7.61-3.036-9.257-2.776-3.926-5.612-8.971-5.837-16.743h4.091zm5.705 14.579c-1.56-3.271-2.751-6.276-3.696-14.579h11.77c-.903 8.039-1.927 11.158-3.681 14.55-1.122 2.169-1.417 4.064-2.115 11.45h-.179c-.712-7.506-1.036-9.19-2.099-11.421zm6.17.889c1.843-3.564 2.973-7.008 3.914-15.468h4.09c-.226 7.772-3.061 12.817-5.837 16.742-1.165 1.647-2.269 3.207-3.036 9.258h-1.014c.694-7.293.974-8.772 1.883-10.532zm-14.234 4.162c-3.154-4.459-7.421-10.517-7.718-19.63h3.993c.227 8.326 3.239 13.716 6.197 17.897v.001c1.045 1.476 1.956 2.764 2.652 8.102h-1.872c-.032-1.818-1.387-3.732-3.252-6.37zm12.753 18.37h-5l-1.5-2h8l-1.5 2zm4.5-4h-14v-2h14v2zm0-4h-14v-2h14v2zm3.253-10.37c-1.866 2.638-3.22 4.552-3.253 6.37h-1.872c.696-5.337 1.607-6.626 2.652-8.103 2.957-4.181 5.97-9.572 6.197-17.897h3.993c-.296 9.113-4.563 15.17-7.717 19.63z"/></svg>