<svg xmlns="http://www.w3.org/2000/svg" viewBox="0 0 60.002 60.002" style="enable-background:new 0 0 60.002 60.002" xml:space="preserve"><path d="M43.669 5.224C39.268 1.284 33.588-.524 27.661.132 18.24 1.177 10.655 8.777 9.626 18.205c-.699 6.407 1.553 12.626 6.179 17.062 2.984 2.861 4.696 6.799 4.696 10.803v9.933h2.5l3 4h7l3-4h2.5v-9c0-4.218 1.862-8.29 5.108-11.173a20.515 20.515 0 0 0 6.892-15.327c0-5.824-2.49-11.394-6.832-15.279zM32.001 58.002h-5l-1.5-2h8l-1.5 2zm4.5-4h-14v-2h14v2zm0-4h-14v-2h14v2zm-8-11h2v7h-2v-7zm13.78-4.669c-3.417 3.034-5.479 7.242-5.75 11.669H32.5v-8c0-7.383 1.57-10 6-10a1 1 0 1 0 0-2c-7.37 0-7.949 6.871-7.995 11h-2.011c-.046-4.129-.625-11-7.995-11a1 1 0 1 0 0 2c4.43 0 6 2.617 6 10v8h-4c-.019-4.522-1.953-8.958-5.312-12.179-4.174-4.003-6.206-9.616-5.575-15.401.93-8.504 7.772-15.359 16.27-16.302 5.351-.592 10.481 1.038 14.453 4.593a18.533 18.533 0 0 1 6.166 13.789 18.509 18.509 0 0 1-6.22 13.831z"/><path d="M42.029 21.152a1.001 1.001 0 0 0-1.377.321c-.613.985-1.376 1.528-2.151 1.528s-1.538-.543-2.151-1.528c-.005-.008-.014-.012-.019-.021-.037-.056-.091-.099-.14-.148-.047-.046-.087-.097-.141-.133-.009-.006-.013-.015-.022-.02-.044-.027-.094-.032-.14-.052-.066-.028-.128-.06-.198-.073-.063-.012-.125-.007-.188-.007-.065 0-.128-.006-.193.007-.071.014-.134.046-.201.075-.045.02-.093.024-.136.051-.008.005-.012.014-.02.019-.056.037-.099.09-.147.138-.047.047-.099.088-.134.143-.005.008-.014.012-.02.021-.613.985-1.376 1.528-2.151 1.528s-1.538-.543-2.151-1.528c-.005-.008-.014-.012-.019-.021-.037-.056-.091-.099-.14-.148-.047-.046-.087-.097-.141-.133-.009-.006-.013-.015-.022-.02-.044-.027-.094-.032-.14-.052-.066-.028-.128-.06-.198-.073-.063-.012-.125-.007-.188-.007-.065 0-.128-.006-.193.007-.071.014-.134.046-.201.075-.045.02-.093.024-.136.051-.008.005-.012.014-.02.019-.056.037-.099.09-.147.138-.047.047-.099.088-.134.143-.005.008-.014.012-.02.021-.613.985-1.376 1.528-2.151 1.528s-1.538-.543-2.151-1.528c-.005-.008-.014-.012-.019-.021-.037-.056-.091-.099-.14-.148-.047-.046-.087-.097-.141-.133-.009-.006-.013-.015-.022-.02-.044-.027-.094-.032-.14-.052-.066-.028-.128-.06-.198-.073-.063-.012-.125-.007-.188-.007-.065 0-.128-.006-.193.007-.071.014-.134.046-.201.075-.045.02-.093.024-.136.051-.008.005-.012.014-.02.019-.056.037-.099.09-.147.138-.047.047-.099.088-.134.143-.005.008-.014.012-.02.021-.613.985-1.376 1.528-2.151 1.528s-1.538-.543-2.151-1.528a1 1 0 0 0-1.698 1.057c.991 1.594 2.358 2.472 3.849 2.472 1.102 0 2.135-.482 3-1.376.865.894 1.898 1.376 3 1.376s2.135-.482 3-1.376c.865.894 1.898 1.376 3 1.376s2.135-.482 3-1.376c.865.894 1.898 1.376 3 1.376 1.491 0 2.858-.878 3.849-2.472a.998.998 0 0 0-.318-1.378z"/></svg>