<?xml version="1.0" encoding="iso-8859-1"?>
<!-- Generator: Adobe Illustrator 18.0.0, SVG Export Plug-In . SVG Version: 6.00 Build 0)  -->
<!DOCTYPE svg PUBLIC "-//W3C//DTD SVG 1.1//EN" "http://www.w3.org/Graphics/SVG/1.1/DTD/svg11.dtd">
<svg version="1.1" id="Capa_1" xmlns="http://www.w3.org/2000/svg" xmlns:xlink="http://www.w3.org/1999/xlink" x="0px" y="0px"
	 viewBox="0 0 58.317 58.317" style="enable-background:new 0 0 58.317 58.317;" xml:space="preserve">
<g>
	<path d="M38.49,7.999L29.159,0l-9.331,7.998c-3.603,3.088-5.669,7.58-5.669,12.326v27.978c0,3.868,3.147,7.016,7.015,7.016h2.985v3
		h2v-3h2v3h2v-3h2v3h2v-3h2.985c3.868,0,7.015-3.147,7.015-7.016V20.324C44.159,15.578,42.092,11.086,38.49,7.999z M26.159,53.317
		v-2h2v2H26.159z M23.301,40.317h4.858v3h-1C25.3,43.317,23.748,42.038,23.301,40.317z M31.159,43.317h-1v-3h4.858
		C34.57,42.038,33.017,43.317,31.159,43.317z M20.159,38.317V23.524c0-1.217,0.99-2.207,2.208-2.207h13.585
		c1.217,0,2.208,0.99,2.208,2.207v14.793H20.159z M38.159,45.317v2c0,1.103-0.897,2-2,2h-2v-1h2v-2h-14v2h2v1h-2
		c-1.103,0-2-0.897-2-2v-2H38.159z M32.159,48.317v1h-2v-1H32.159z M26.159,48.317h2v1h-2V48.317z M30.159,53.317v-2h2v2H30.159z
		 M42.159,48.302c0,2.766-2.25,5.016-5.015,5.016h-2.985v-2h2c2.206,0,4-1.794,4-4v-2.36c0-0.904-0.735-1.64-1.64-1.64h-2.901
		c0.742-0.827,1.257-1.858,1.45-3h3.09V23.524c0-2.319-1.888-4.207-4.208-4.207H22.366c-2.32,0-4.208,1.888-4.208,4.207v16.793h3.09
		c0.193,1.142,0.708,2.173,1.45,3h-2.901c-0.904,0-1.64,0.735-1.64,1.64v2.36c0,2.206,1.794,4,4,4h2v2h-2.985
		c-2.765,0-5.015-2.25-5.015-5.016V20.324c0-4.161,1.812-8.1,4.971-10.808l8.029-6.882l8.029,6.883
		c3.159,2.707,4.971,6.646,4.971,10.807V48.302z"/>
	<path d="M30.159,7.317c-4.411,0-8,3.589-8,8c0,0.553,0.448,1,1,1s1-0.447,1-1c0-3.309,2.691-6,6-6c0.552,0,1-0.447,1-1
		S30.711,7.317,30.159,7.317z"/>
	<path d="M35.159,29.317c0.552,0,1-0.447,1-1s-0.448-1-1-1h-5v-2c0-0.553-0.448-1-1-1s-1,0.447-1,1v2h-5c-0.552,0-1,0.447-1,1
		s0.448,1,1,1h5v2h-5c-0.552,0-1,0.447-1,1s0.448,1,1,1h5v2c0,0.553,0.448,1,1,1s1-0.447,1-1v-2h5c0.552,0,1-0.447,1-1s-0.448-1-1-1
		h-5v-2H35.159z"/>
</g>
<g>
</g>
<g>
</g>
<g>
</g>
<g>
</g>
<g>
</g>
<g>
</g>
<g>
</g>
<g>
</g>
<g>
</g>
<g>
</g>
<g>
</g>
<g>
</g>
<g>
</g>
<g>
</g>
<g>
</g>
</svg>
