<svg xmlns="http://www.w3.org/2000/svg" viewBox="0 0 60 60" style="enable-background:new 0 0 60 60" xml:space="preserve"><path d="M44 30c0-13.504-6.46-30-14-30S16 16.496 16 30c0 4.513 1.691 8.743 3.184 12.475.724 1.809 1.404 3.517 1.816 5.067V56h2.5l3 4h7l3-4H39v-8.458c.413-1.55 1.093-3.259 1.816-5.067C42.309 38.743 44 34.513 44 30zm-26 0c0-15.456 7.262-28 12-28 2.311 0 5.322 3.113 7.672 7.933C40.463 15.654 42 22.781 42 30c0 4.128-1.615 8.168-3.041 11.732-.595 1.486-1.163 2.908-1.594 4.268H37V19h-1v-1a1 1 0 1 0-2 0v1h-1v-1a1 1 0 1 0-2 0v1h-2v-1a1 1 0 1 0-2 0v1h-1v-1a1 1 0 1 0-2 0v1h-1v27h-.365c-.431-1.359-.999-2.781-1.594-4.268C19.615 38.168 18 34.128 18 30zm19 24H23v-2h14v2zm-14-4v-2h14v2H23zm2-29h4v25h-4V21zm10 0v25h-4V21h4zm-2.5 37h-5L26 56h8l-1.5 2z"/><circle cx="27" cy="32" r="1"/><circle cx="27" cy="29" r="1"/><circle cx="27" cy="26" r="1"/><circle cx="27" cy="23" r="1"/><circle cx="27" cy="35" r="1"/><circle cx="27" cy="38" r="1"/><circle cx="27" cy="41" r="1"/><circle cx="27" cy="44" r="1"/><circle cx="33" cy="32" r="1"/><circle cx="33" cy="29" r="1"/><circle cx="33" cy="26" r="1"/><circle cx="33" cy="23" r="1"/><circle cx="33" cy="35" r="1"/><circle cx="33" cy="38" r="1"/><circle cx="33" cy="41" r="1"/><circle cx="33" cy="44" r="1"/></svg>