<?xml version="1.0" encoding="iso-8859-1"?>
<!-- Generator: Adobe Illustrator 18.0.0, SVG Export Plug-In . SVG Version: 6.00 Build 0)  -->
<!DOCTYPE svg PUBLIC "-//W3C//DTD SVG 1.1//EN" "http://www.w3.org/Graphics/SVG/1.1/DTD/svg11.dtd">
<svg version="1.1" id="Capa_1" xmlns="http://www.w3.org/2000/svg" xmlns:xlink="http://www.w3.org/1999/xlink" x="0px" y="0px"
	 viewBox="0 0 60.001 60.001" style="enable-background:new 0 0 60.001 60.001;" xml:space="preserve">
<path d="M43.295,32.557c2.663-0.714,4.25-3.46,3.536-6.123c-0.362-1.35-1.247-2.418-2.378-3.056c1.392-1.216,2.07-3.147,1.56-5.05
	c-0.293-1.094-0.952-2.019-1.851-2.688c0.9-0.431,1.653-1.119,2.165-2.006c0.67-1.159,0.849-2.505,0.504-3.791
	s-1.173-2.362-2.332-3.032c-1.161-0.67-2.507-0.846-3.792-0.504l-2.129,0.571c0.399-0.976,0.511-2.077,0.217-3.171
	c-0.713-2.663-3.46-4.246-6.117-3.537L21.706,3.035c-1.286,0.345-2.362,1.173-3.031,2.332c-0.67,1.159-0.849,2.506-0.504,3.792
	c0.293,1.095,0.953,2.021,1.854,2.69l-2.499,0.67c-1.286,0.345-2.362,1.173-3.032,2.332s-0.849,2.506-0.504,3.792
	c0.293,1.094,0.951,2.018,1.85,2.688c-0.9,0.431-1.653,1.119-2.164,2.006c-0.67,1.159-0.849,2.506-0.504,3.792
	s1.173,2.362,2.332,3.032c0.774,0.446,1.631,0.674,2.498,0.674c0.432,0,0.866-0.057,1.294-0.171l6.537-1.752
	c-0.526,0.931-0.831,1.996-0.831,3.119v2.971h-7.534c-1.359,0-2.466,1.106-2.466,2.466v5.425c0,3.542,2.606,6.479,6,7.014v1.095v2v3
	h2.5l3,4h7l3-4h2.5v-3v-2v-1.095c3.394-0.535,6-3.472,6-7.014v-5.425c0-1.359-1.106-2.466-2.466-2.466h-7.903
	c0.129-0.087,0.273-0.155,0.429-0.197L43.295,32.557z M22.217,4.969l10.972-2.866C33.445,2.035,33.704,2,33.963,2
	c0.52,0,1.035,0.138,1.5,0.406c0.697,0.402,1.194,1.048,1.4,1.817c0.428,1.598-0.522,3.245-2.119,3.674l-10.967,2.865
	c-0.771,0.205-1.577,0.099-2.274-0.304s-1.194-1.048-1.4-1.817C19.674,7.043,20.626,5.395,22.217,4.969z M16.225,15.851
	c0.402-0.696,1.048-1.194,1.817-1.4l23.182-6.212c0.255-0.068,0.515-0.103,0.772-0.103c0.521,0,1.036,0.138,1.502,0.407
	c0.696,0.402,1.194,1.048,1.4,1.817s0.099,1.577-0.304,2.273c-0.402,0.697-1.048,1.194-1.817,1.4l-2.73,0.732
	c-0.053,0.012-0.106,0.012-0.159,0.026l-20.453,5.48c-0.722,0.152-1.465,0.044-2.115-0.33c-0.696-0.402-1.194-1.048-1.4-1.817
	C15.715,17.356,15.823,16.548,16.225,15.851z M18.777,28.732c-0.771,0.206-1.577,0.099-2.274-0.304
	c-0.696-0.402-1.194-1.048-1.4-1.817s-0.099-1.577,0.304-2.274s1.048-1.194,1.817-1.4l2.651-0.71
	c0.079-0.017,0.159-0.026,0.238-0.047l20.415-5.47c0.216-0.048,0.433-0.086,0.651-0.086c0.521,0,1.036,0.138,1.502,0.407
	c0.696,0.402,1.194,1.048,1.4,1.817s0.098,1.577-0.305,2.273c-0.402,0.697-1.048,1.194-1.817,1.4L18.777,28.732z M32.501,58.001h-5
	l-1.5-2h8L32.501,58.001z M37.001,54.001h-14v-1h14V54.001z M23.001,51.001v-1h14v1H23.001z M43.001,37.467v5.425
	c0,2.817-2.292,5.109-5.109,5.109H22.11c-2.817,0-5.109-2.292-5.109-5.109v-5.425c0-0.257,0.209-0.466,0.466-0.466h7.534h8h9.534
	C42.792,37.001,43.001,37.21,43.001,37.467z M27.001,35.001v-2.971c0-1.961,1.316-3.686,3.229-4.201l10.995-3
	c0.768-0.207,1.577-0.099,2.274,0.305c0.696,0.402,1.194,1.048,1.4,1.817c0.428,1.598-0.524,3.245-2.127,3.675l-8.237,2.248
	c-1.092,0.297-1.943,1.107-2.321,2.127H27.001z"/>
<g>
</g>
<g>
</g>
<g>
</g>
<g>
</g>
<g>
</g>
<g>
</g>
<g>
</g>
<g>
</g>
<g>
</g>
<g>
</g>
<g>
</g>
<g>
</g>
<g>
</g>
<g>
</g>
<g>
</g>
</svg>
