<svg xmlns="http://www.w3.org/2000/svg" viewBox="0 0 59.997 59.997" style="enable-background:new 0 0 59.997 59.997" xml:space="preserve"><path d="M42.999 38.044V6.997a7.005 7.005 0 0 0-2.381-5.256A7.046 7.046 0 0 0 35.083.055c-2.158.277-3.985 1.572-5.059 3.386a7.007 7.007 0 0 0-1.406-1.7A7.047 7.047 0 0 0 23.083.055c-3.469.445-6.084 3.519-6.084 7.15v30.838a2.469 2.469 0 0 0-2 2.419v2.425c0 3.542 2.606 6.479 6 7.014v6.095h2.5l3 4h7l3-4h2.5v-6.095c3.394-.535 6-3.472 6-7.014v-2.425a2.468 2.468 0 0 0-2-2.418zM35.336 2.04a4.946 4.946 0 0 1 3.96 1.202 5.004 5.004 0 0 1 1.702 3.755v31h-4v-31a1 1 0 1 0-2 0v31h-4V7.206c.001-2.628 1.866-4.849 4.338-5.166zM18.999 7.206c0-2.628 1.865-4.85 4.338-5.166a4.944 4.944 0 0 1 3.96 1.202 5.004 5.004 0 0 1 1.702 3.755v31h-4v-31a1 1 0 1 0-2 0v31h-4V7.206zm13.5 50.791h-5l-1.5-2h8l-1.5 2zm4.5-4h-14v-1h14v1zm-14-3v-1h14v1h-14zm20-8.109a5.115 5.115 0 0 1-5.109 5.109H22.108a5.115 5.115 0 0 1-5.109-5.109v-2.425c0-.257.209-.466.466-.466h25.068c.257 0 .466.209.466.466v2.425z"/></svg>