<svg xmlns="http://www.w3.org/2000/svg" viewBox="0 0 59 59" style="enable-background:new 0 0 59 59" xml:space="preserve"><path d="M46.5 0h-34a1 1 0 1 0 0 2h3v3a1 1 0 0 0 1 1h2v15h-1a1 1 0 0 0-1 1v5.809a5.999 5.999 0 0 0-3 5.191c0 3.309 2.691 6 6 6s6-2.691 6-6a5.999 5.999 0 0 0-3-5.191V22a1 1 0 0 0-1-1h-1V6h8v35h-1a1 1 0 0 0-1 1v5.809a5.999 5.999 0 0 0-3 5.191c0 3.309 2.691 6 6 6s6-2.691 6-6a5.999 5.999 0 0 0-3-5.191V42a1 1 0 0 0-1-1h-1V6h8v25h-1a1 1 0 0 0-1 1v5.809a5.999 5.999 0 0 0-3 5.191c0 3.309 2.691 6 6 6s6-2.691 6-6a5.999 5.999 0 0 0-3-5.191V32a1 1 0 0 0-1-1h-1V6h2a1 1 0 0 0 1-1V2h3a1 1 0 1 0 0-2zm-28 23h2v2h-2v-2zm5 10c0 2.206-1.794 4-4 4s-4-1.794-4-4a4 4 0 0 1 2.401-3.662c.363-.159.599-.519.599-.916V27h2v1.422a1 1 0 0 0 .599.916A4 4 0 0 1 23.5 33zm5 10h2v2h-2v-2zm5 10c0 2.206-1.794 4-4 4s-4-1.794-4-4a4 4 0 0 1 2.401-3.662c.363-.159.599-.519.599-.916V47h2v1.422a1 1 0 0 0 .599.916A4 4 0 0 1 33.5 53zm5-20h2v2h-2v-2zm5 10c0 2.206-1.794 4-4 4s-4-1.794-4-4a4 4 0 0 1 2.401-3.662c.363-.159.599-.519.599-.916V37h2v1.422a1 1 0 0 0 .599.916A4 4 0 0 1 43.5 43zm-2-39h-24V2h24v2z"/><path d="M20.5 32v-2a1 1 0 1 0-2 0v2a1 1 0 1 0 0 2h2a1 1 0 1 0 0-2zM40.5 42v-2a1 1 0 1 0-2 0v2a1 1 0 1 0 0 2h2a1 1 0 1 0 0-2zM30.5 52v-2a1 1 0 1 0-2 0v2a1 1 0 1 0 0 2h2a1 1 0 1 0 0-2z"/></svg>