<svg xmlns="http://www.w3.org/2000/svg" viewBox="0 0 60.001 60.001" style="enable-background:new 0 0 60.001 60.001" xml:space="preserve"><path d="M43.295 32.557a5.005 5.005 0 0 0 3.536-6.123 4.981 4.981 0 0 0-2.378-3.056c1.392-1.216 2.07-3.147 1.56-5.05-.293-1.094-.952-2.019-1.851-2.688a4.966 4.966 0 0 0 2.165-2.006c.67-1.159.849-2.505.504-3.791s-1.173-2.362-2.332-3.032a4.976 4.976 0 0 0-3.792-.504l-2.129.571a4.944 4.944 0 0 0 .217-3.171A5.006 5.006 0 0 0 32.678.17L21.706 3.035a4.964 4.964 0 0 0-3.031 2.332 4.96 4.96 0 0 0-.504 3.792c.293 1.095.953 2.021 1.854 2.69l-2.499.67c-1.286.345-2.362 1.173-3.032 2.332s-.849 2.506-.504 3.792c.293 1.094.951 2.018 1.85 2.688a4.958 4.958 0 0 0-2.164 2.006c-.67 1.159-.849 2.506-.504 3.792s1.173 2.362 2.332 3.032a4.991 4.991 0 0 0 3.792.503l6.537-1.752a6.331 6.331 0 0 0-.831 3.119v2.971h-7.534a2.47 2.47 0 0 0-2.466 2.466v5.425c0 3.542 2.606 6.479 6 7.014v6.095h2.5l3 4h7l3-4h2.5v-6.095c3.394-.535 6-3.472 6-7.014v-5.425a2.47 2.47 0 0 0-2.466-2.466h-7.903c.129-.087.273-.155.429-.197l8.233-2.248zM22.217 4.969l10.972-2.866A3.01 3.01 0 0 1 33.963 2c.52 0 1.035.138 1.5.406a2.976 2.976 0 0 1 1.4 1.817 3.003 3.003 0 0 1-2.119 3.674l-10.967 2.865c-.771.205-1.577.099-2.274-.304s-1.194-1.048-1.4-1.817a3 3 0 0 1 2.114-3.672zm-5.992 10.882a2.98 2.98 0 0 1 1.817-1.4l23.182-6.212a3 3 0 0 1 .772-.103c.521 0 1.036.138 1.502.407a2.98 2.98 0 0 1 1.096 4.09 2.976 2.976 0 0 1-1.817 1.4l-2.73.732c-.053.012-.106.012-.159.026l-20.453 5.48a2.977 2.977 0 0 1-2.115-.33 2.98 2.98 0 0 1-1.095-4.09zm2.552 12.881a2.975 2.975 0 0 1-2.274-.304 2.98 2.98 0 0 1-1.096-4.091 2.979 2.979 0 0 1 1.817-1.4l2.651-.71c.079-.017.159-.026.238-.047l20.415-5.47c.216-.048.433-.086.651-.086.521 0 1.036.138 1.502.407a2.98 2.98 0 0 1 1.095 4.09 2.976 2.976 0 0 1-1.817 1.4l-23.182 6.211zm13.724 29.269h-5l-1.5-2h8l-1.5 2zm4.5-4h-14v-1h14v1zm-14-3v-1h14v1h-14zm20-13.534v5.425a5.115 5.115 0 0 1-5.109 5.109H22.11a5.115 5.115 0 0 1-5.109-5.109v-5.425c0-.257.209-.466.466-.466H42.535c.257 0 .466.209.466.466zm-16-2.466V32.03a4.352 4.352 0 0 1 3.229-4.201l10.995-3a2.968 2.968 0 0 1 2.274.305 2.98 2.98 0 0 1 1.4 1.817 3.004 3.004 0 0 1-2.127 3.675l-8.237 2.248a3.444 3.444 0 0 0-2.321 2.127h-5.213z"/></svg>