<?xml version="1.0" encoding="iso-8859-1"?>
<!-- Generator: Adobe Illustrator 18.0.0, SVG Export Plug-In . SVG Version: 6.00 Build 0)  -->
<!DOCTYPE svg PUBLIC "-//W3C//DTD SVG 1.1//EN" "http://www.w3.org/Graphics/SVG/1.1/DTD/svg11.dtd">
<svg version="1.1" id="Capa_1" xmlns="http://www.w3.org/2000/svg" xmlns:xlink="http://www.w3.org/1999/xlink" x="0px" y="0px"
	 viewBox="0 0 58.993 58.993" style="enable-background:new 0 0 58.993 58.993;" xml:space="preserve">
<g>
	<path d="M53.599,7.688C51.193,1.88,36.321,0,29.497,0S7.801,1.88,5.394,7.688c-0.898,2.17-0.092,4.531,2.396,7.019
		C20.638,27.556,20.553,34.85,20.503,39.208l-0.005,5.785h-0.002v4v2v4h2.5l3,4h7l3-4h2.5v-4v-2v-2v-2v-5
		c0-3.764,0-12.578,12.707-25.286C53.692,12.22,54.498,9.858,53.599,7.688z M31.997,56.993h-5l-1.5-2h8L31.997,56.993z
		 M36.497,52.993h-14v-2h14V52.993z M36.497,48.993h-14v-2h4h6h4V48.993z M28.497,28.993h2v16h-2V28.993z M49.79,13.293
		c-13.293,13.293-13.293,22.688-13.293,26.7v5h-4v-17c0-7.383,1.57-10,6-10c0.552,0,1-0.447,1-1s-0.448-1-1-1
		c-7.37,0-7.949,6.871-7.995,11h-2.011c-0.046-4.129-0.625-11-7.995-11c-0.552,0-1,0.447-1,1s0.448,1,1,1c4.43,0,6,2.617,6,10v17h-4
		l0.006-5.762c0.054-4.673,0.145-12.494-13.299-25.938c-1.861-1.861-2.521-3.489-1.961-4.839C8.963,4.299,21.494,2,29.497,2
		S50.03,4.299,51.751,8.454C52.31,9.804,51.65,11.432,49.79,13.293z"/>
	<path d="M42.024,11.144c-0.469-0.29-1.085-0.148-1.377,0.321c-0.613,0.985-1.376,1.528-2.151,1.528s-1.538-0.543-2.151-1.528
		c-0.005-0.008-0.014-0.012-0.019-0.021c-0.037-0.056-0.091-0.099-0.14-0.148c-0.047-0.046-0.087-0.097-0.141-0.133
		c-0.009-0.006-0.013-0.015-0.022-0.02c-0.044-0.027-0.094-0.032-0.14-0.052c-0.066-0.028-0.128-0.06-0.197-0.073
		c-0.063-0.012-0.125-0.007-0.188-0.007c-0.065,0-0.128-0.006-0.193,0.007c-0.07,0.014-0.133,0.046-0.199,0.074
		c-0.045,0.02-0.094,0.024-0.138,0.051c-0.008,0.005-0.012,0.014-0.021,0.02c-0.055,0.036-0.098,0.089-0.146,0.137
		c-0.047,0.047-0.099,0.089-0.135,0.144c-0.005,0.008-0.014,0.012-0.02,0.021c-0.613,0.985-1.376,1.528-2.151,1.528
		s-1.538-0.543-2.151-1.528c-0.005-0.008-0.014-0.012-0.019-0.021c-0.037-0.056-0.091-0.099-0.14-0.148
		c-0.047-0.046-0.087-0.097-0.141-0.133c-0.009-0.006-0.013-0.015-0.022-0.02c-0.044-0.027-0.094-0.032-0.14-0.052
		c-0.066-0.028-0.128-0.06-0.198-0.073c-0.063-0.012-0.125-0.007-0.188-0.007c-0.065,0-0.128-0.006-0.193,0.007
		c-0.071,0.014-0.134,0.046-0.201,0.075c-0.045,0.02-0.093,0.024-0.136,0.051c-0.008,0.005-0.012,0.014-0.02,0.019
		c-0.056,0.037-0.099,0.09-0.147,0.138c-0.047,0.047-0.099,0.088-0.134,0.143c-0.005,0.008-0.014,0.012-0.02,0.021
		c-0.613,0.985-1.376,1.528-2.151,1.528s-1.538-0.543-2.151-1.528c-0.005-0.008-0.014-0.012-0.019-0.021
		c-0.037-0.056-0.091-0.099-0.14-0.148c-0.047-0.046-0.087-0.097-0.141-0.133c-0.009-0.006-0.013-0.015-0.022-0.02
		c-0.044-0.027-0.094-0.032-0.14-0.052c-0.066-0.028-0.128-0.06-0.198-0.073c-0.063-0.012-0.125-0.007-0.188-0.007
		c-0.065,0-0.128-0.006-0.193,0.007c-0.071,0.014-0.134,0.046-0.201,0.075c-0.045,0.02-0.093,0.024-0.136,0.051
		c-0.008,0.005-0.012,0.014-0.02,0.019c-0.056,0.037-0.099,0.09-0.147,0.138c-0.047,0.047-0.099,0.088-0.134,0.143
		c-0.005,0.008-0.014,0.012-0.02,0.021c-0.613,0.985-1.376,1.528-2.151,1.528s-1.538-0.543-2.151-1.528
		c-0.292-0.469-0.909-0.612-1.377-0.321c-0.469,0.292-0.613,0.908-0.321,1.378c0.991,1.594,2.358,2.472,3.849,2.472
		c1.102,0,2.135-0.482,3-1.376c0.865,0.894,1.898,1.376,3,1.376s2.135-0.482,3-1.376c0.865,0.894,1.898,1.376,3,1.376
		s2.135-0.482,3-1.376c0.865,0.894,1.898,1.376,3,1.376c1.491,0,2.858-0.878,3.849-2.472C42.637,12.052,42.494,11.436,42.024,11.144
		z"/>
</g>
<g>
</g>
<g>
</g>
<g>
</g>
<g>
</g>
<g>
</g>
<g>
</g>
<g>
</g>
<g>
</g>
<g>
</g>
<g>
</g>
<g>
</g>
<g>
</g>
<g>
</g>
<g>
</g>
<g>
</g>
</svg>
