<?xml version="1.0" encoding="iso-8859-1"?>
<!-- Generator: Adobe Illustrator 18.0.0, SVG Export Plug-In . SVG Version: 6.00 Build 0)  -->
<!DOCTYPE svg PUBLIC "-//W3C//DTD SVG 1.1//EN" "http://www.w3.org/Graphics/SVG/1.1/DTD/svg11.dtd">
<svg version="1.1" id="Capa_1" xmlns="http://www.w3.org/2000/svg" xmlns:xlink="http://www.w3.org/1999/xlink" x="0px" y="0px"
	 viewBox="0 0 60 60" style="enable-background:new 0 0 60 60;" xml:space="preserve">
<g>
	<path d="M40.949,12h-2.512c-2.483,0-4.639,1.683-5.241,4.093L31.72,22H52.28l-1.477-5.907C50.201,13.683,48.046,12,45.563,12
		h-2.613C42.436,5.299,36.83,0,30,0h-7C13.075,0,5,8.075,5,18v36H0v6h12v-6H7V18C7,9.178,14.178,2,23,2h7
		C35.728,2,40.442,6.402,40.949,12z M48.864,16.577L49.72,20H34.28l0.855-3.423C35.516,15.06,36.873,14,38.438,14h7.125
		C47.127,14,48.484,15.06,48.864,16.577z M10,56v2H2v-2H10z"/>
	<path d="M57.486,27h-2.973C53.128,27,52,28.128,52,29.514v0.515c-3.355,0.284-6,3.101-6,6.528V39H34.1c-1.709,0-3.1,1.391-3.1,3.1
		V57h2v3h6v-3h13v3h6v-3h2V41v-2v-9.486C60,28.128,58.872,27,57.486,27z M48,36.557c0-2.324,1.749-4.247,4-4.522V39h-4V36.557z
		 M37,58h-2v-1h2V58z M56,58h-2v-1h2V58z M58,55h-6H39h-6V42.1c0-0.606,0.493-1.1,1.1-1.1H46h6h2h4V55z M54,39v-9v-0.486
		C54,29.23,54.23,29,54.514,29h2.973C57.77,29,58,29.23,58,29.514V39H54z"/>
</g>
<g>
</g>
<g>
</g>
<g>
</g>
<g>
</g>
<g>
</g>
<g>
</g>
<g>
</g>
<g>
</g>
<g>
</g>
<g>
</g>
<g>
</g>
<g>
</g>
<g>
</g>
<g>
</g>
<g>
</g>
</svg>
