<svg xmlns="http://www.w3.org/2000/svg" viewBox="0 0 60 60" style="enable-background:new 0 0 60 60" xml:space="preserve"><path d="M40.949 12h-2.512a5.395 5.395 0 0 0-5.241 4.093L31.72 22h20.56l-1.477-5.907A5.394 5.394 0 0 0 45.563 12H42.95C42.436 5.299 36.83 0 30 0h-7C13.075 0 5 8.075 5 18v36H0v6h12v-6H7V18C7 9.178 14.178 2 23 2h7c5.728 0 10.442 4.402 10.949 10zm7.915 4.577L49.72 20H34.28l.855-3.423A3.4 3.4 0 0 1 38.438 14h7.125a3.399 3.399 0 0 1 3.301 2.577zM10 56v2H2v-2h8z"/><path d="M57.486 27h-2.973A2.517 2.517 0 0 0 52 29.514v.515c-3.355.284-6 3.101-6 6.528V39H34.1a3.104 3.104 0 0 0-3.1 3.1V57h2v3h6v-3h13v3h6v-3h2V29.514A2.517 2.517 0 0 0 57.486 27zM48 36.557a4.562 4.562 0 0 1 4-4.522V39h-4v-2.443zM37 58h-2v-1h2v1zm19 0h-2v-1h2v1zm2-3H33V42.1c0-.606.493-1.1 1.1-1.1H58v14zm-4-16v-9.486c0-.284.23-.514.514-.514h2.973c.283 0 .513.23.513.514V39h-4z"/></svg>