<svg xmlns="http://www.w3.org/2000/svg" viewBox="0 0 60.007 60.007" style="enable-background:new 0 0 60.007 60.007" xml:space="preserve"><path d="M59.095 36.483a4.021 4.021 0 0 0-1.445-1.111c-.328-5.219-4.667-9.369-9.968-9.369H34.243c-1.452 0-2.906.309-4.236.896a10.535 10.535 0 0 0-4.236-.896H13.055c-5.215 0-9.505 4.015-9.955 9.115a4.015 4.015 0 0 0-2.264 1.479c-.772 1.014-1.021 2.3-.699 3.462l2.309 11.382.039.137a3.661 3.661 0 0 0 3.441 2.426h.08v6h4.721l2-6h35.558l2 6h4.721v-6.027a3.665 3.665 0 0 0 3.187-2.623l1.732-11.519a4.01 4.01 0 0 0-.83-3.352zm-11.413-8.48c4.076 0 7.451 3.064 7.939 7.012-.13.008-.251.042-.379.059-.163.022-.326.04-.485.076-.181.041-.354.099-.528.157-.15.05-.302.095-.447.157-.174.075-.336.167-.5.258-.131.073-.264.138-.389.221-.167.111-.319.24-.473.367-.104.087-.214.165-.312.259-.161.154-.302.325-.444.497-.072.088-.153.167-.22.259-.153.21-.282.437-.405.667-.037.069-.084.132-.119.203-.141.293-.255.6-.345.919-.005.018-.014.034-.019.052a5.568 5.568 0 0 0-.179 1.049l-.271 3.788H31.007V28.661a8.517 8.517 0 0 1 3.236-.658h13.439zm-34.627 0H25.77c1.107 0 2.211.234 3.236.658v15.342H10.209l-.598-4.182a5.527 5.527 0 0 0-.224-.938c-.033-.099-.078-.192-.116-.289a5.557 5.557 0 0 0-.256-.579c-.057-.108-.122-.208-.186-.311a5.498 5.498 0 0 0-.322-.475 5.692 5.692 0 0 0-.63-.691 6.035 6.035 0 0 0-.279-.249 5.926 5.926 0 0 0-.465-.338c-.099-.066-.194-.134-.297-.194a5.41 5.41 0 0 0-.578-.281c-.089-.039-.174-.086-.265-.12a5.553 5.553 0 0 0-.889-.253c.45-3.988 3.844-7.1 7.951-7.1zm-7.129 24a1.658 1.658 0 0 1-1.536-1.039l-2.309-11.37a2.03 2.03 0 0 1 .346-1.784 2.03 2.03 0 0 1 1.628-.807 3.63 3.63 0 0 1 3.575 3.099l1.309 11.901H5.926zm3.36 6H8.007v-4h2.612l-1.333 4zm4.108-6H10.97l-.536-6h39.559l-.267 6H13.394zm39.613 6h-1.279l-1.333-4h2.612v4zm4.949-18.516-1.702 11.371a1.663 1.663 0 0 1-1.574 1.146h-2.941l.635-11.646a3.626 3.626 0 0 1 3.604-3.354 2.02 2.02 0 0 1 1.571.745c.385.473.538 1.088.407 1.738z"/><path d="M14.3 39.71a.997.997 0 0 0 1.414 0l.92-.92c.433.213.901.333 1.373.333s.94-.12 1.373-.333l.92.92a.997.997 0 0 0 1.414 0 .999.999 0 0 0 0-1.414l-.92-.92a3.119 3.119 0 0 0 0-2.747l.92-.92a.999.999 0 1 0-1.414-1.414l-.92.92a3.119 3.119 0 0 0-2.747 0l-.92-.92a.999.999 0 1 0-1.414 1.414l.92.92a3.119 3.119 0 0 0 0 2.747l-.92.92a1 1 0 0 0 .001 1.414zm4.5-4.5a1.121 1.121 0 1 1-1.586 1.586A1.121 1.121 0 0 1 18.8 35.21zM38.3 39.71a.997.997 0 0 0 1.414 0l.92-.92c.433.213.901.333 1.373.333s.94-.12 1.373-.333l.92.92a.997.997 0 0 0 1.414 0 .999.999 0 0 0 0-1.414l-.92-.92a3.119 3.119 0 0 0 0-2.747l.92-.92a.999.999 0 1 0-1.414-1.414l-.92.92a3.119 3.119 0 0 0-2.747 0l-.92-.92a.999.999 0 1 0-1.414 1.414l.92.92a3.119 3.119 0 0 0 0 2.747l-.92.92a1 1 0 0 0 .001 1.414zm4.5-4.5a1.121 1.121 0 1 1-1.586 1.586A1.121 1.121 0 0 1 42.8 35.21zM22.007 21.003h5v-3h23v3h5v-3h3v-6h-3v-10h-4v-2h-6v3h-2.84c-.435 0-.838.215-1.081.578l-5.603 8.403c-.004.006-.005.013-.009.019H19.007v6h3v3zm3-2h-1v-1h1v1zm28 0h-1v-1h1v1zm0-15v8h-2v-8h2zm-6-2h2v10h-2v-10zm-2 10h-3.131l3.131-4.696v4.696zm-2.465-7h1.597l-4.667 7h-1.597l4.667-7zm-21.535 11v-2h35v2h-35z"/></svg>