<svg xmlns="http://www.w3.org/2000/svg" viewBox="0 0 60 60" style="enable-background:new 0 0 60 60" xml:space="preserve"><path d="M48 0H14v22h34V0zm-2 20H16V2h30v18z"/><path d="M45 19V3H17v16h28zm-10.6-2c-1.544-1.461-3.506-2.734-5.53-3.807C32.238 12.368 38.242 11.074 43 11v6h-8.6zM43 5v4.005c-6.557.131-15.042 2.332-16.911 2.839A59.327 59.327 0 0 0 19 9.244V5h24zm-24 6.337c2.501.775 8.217 2.744 12.26 5.663H19v-5.663zM60 40.074c0-3.309-2.691-6-6-6H32c-5.071 0-6.07-1.193-7.885-3.361-.216-.257-.439-.524-.679-.801-4.938-5.694-13.357-6.545-18.766-1.899-.233.199-.452.406-.659.617C2.069 30.603 1 33.352 1 36.37v4.32c-.631.95-1 2.087-1 3.31 0 1.04.281 2.042.803 2.946A4.464 4.464 0 0 0 0 49.5c0 2.31 1.756 4.197 4 4.449V59a1 1 0 0 0 1 1h2c.43 0 .812-.274.948-.683L9.728 54H51.28l1.772 5.316A.997.997 0 0 0 54 60h2a1 1 0 0 0 1-1v-5.276a4.488 4.488 0 0 0 2.992-4.149H60v-9.501zM3 36.37c0-2.454.889-4.764 2.437-6.338.168-.17.346-.338.535-.501 4.577-3.935 11.733-3.175 15.952 1.691.231.267.448.525.657.774 1.907 2.278 3.413 4.077 9.418 4.077h22c2.206 0 4 1.794 4 4v5.688A4.476 4.476 0 0 0 55.5 45H11.907c.002-.01.001-.021.003-.031.054-.321.09-.643.09-.969 0-3.309-2.691-6-6-6-.244 0-.483.019-.72.047-.073.009-.144.022-.216.033-.17.027-.337.06-.501.101-.072.018-.144.035-.215.055-.21.06-.415.129-.615.211l-.043.016a6.063 6.063 0 0 0-.66.33c-.01.006-.021.01-.03.016V36.37zm-.198 5.255a4.18 4.18 0 0 1 .605-.646l.104-.086c.185-.151.384-.278.59-.392.065-.035.128-.074.195-.106.194-.093.398-.163.605-.223.076-.022.148-.053.226-.07C5.41 40.039 5.702 40 6 40c2.206 0 4 1.794 4 4 0 .336-.049.67-.138 1H4.5c-.786 0-1.515.22-2.158.576A3.86 3.86 0 0 1 2 44c0-.8.241-1.542.647-2.167l.155-.208zM6.28 58H6v-3.926h1.594L6.28 58zM55 58h-.279l-1.333-4H55v4zm.5-6h-51A2.502 2.502 0 0 1 2 49.5c0-.499.15-.962.403-1.352l.135-.138.252-.244.022-.018.105-.084-.002-.002c.068-.056.134-.116.206-.165.031-.021.064-.036.098-.053l.1-.053-.002-.003c.077-.042.152-.088.232-.122.051-.02.106-.034.16-.049l.1-.028-.001-.004c.067-.02.132-.046.2-.06a2.5 2.5 0 0 1 .493-.051H55.5a2.5 2.5 0 0 1 2.496 2.463A2.5 2.5 0 0 1 55.5 52z"/></svg>