<?xml version="1.0" encoding="iso-8859-1"?>
<!-- Generator: Adobe Illustrator 18.0.0, SVG Export Plug-In . SVG Version: 6.00 Build 0)  -->
<!DOCTYPE svg PUBLIC "-//W3C//DTD SVG 1.1//EN" "http://www.w3.org/Graphics/SVG/1.1/DTD/svg11.dtd">
<svg version="1.1" id="Capa_1" xmlns="http://www.w3.org/2000/svg" xmlns:xlink="http://www.w3.org/1999/xlink" x="0px" y="0px"
	 viewBox="0 0 60 60" style="enable-background:new 0 0 60 60;" xml:space="preserve">
<g>
	<path d="M49,0H11v20h38V0z M47,18H13V2h34V18z"/>
	<path d="M46,3H14v14h32V3z M44,15H16V5h28V15z"/>
	<path d="M60,41.5c0-3.032-2.468-5.5-5.5-5.5c-0.521,0-1.022,0.078-1.5,0.213v-2.506C53,28.354,48.646,24,43.293,24H16.707
		C11.354,24,7,28.354,7,33.707v2.506C6.522,36.078,6.021,36,5.5,36C2.468,36,0,38.468,0,41.5c0,1.804,0.903,3.469,2.355,4.487
		C2.129,46.618,2,47.293,2,48c0,3.309,2.691,6,6,6v3h2v1c-0.553,0-1,0.447-1,1s0.447,1,1,1h2c0.553,0,1-0.447,1-1s-0.447-1-1-1v-1h2
		v-3h32v3h2v1c-0.553,0-1,0.447-1,1s0.447,1,1,1h2c0.553,0,1-0.447,1-1s-0.447-1-1-1v-1h2v-3c3.309,0,6-2.691,6-6
		c0-0.707-0.129-1.382-0.355-2.013C59.097,44.969,60,43.304,60,41.5z M9,37.259v-3.552C9,29.457,12.457,26,16.707,26h26.586
		C47.543,26,51,29.457,51,33.707v3.552c-0.06,0.049-0.112,0.105-0.169,0.156c-0.079,0.071-0.159,0.14-0.234,0.216
		c-0.072,0.072-0.137,0.149-0.204,0.225c-0.058,0.065-0.117,0.129-0.171,0.197c-0.064,0.079-0.122,0.161-0.181,0.242
		c-0.052,0.072-0.103,0.145-0.152,0.219c-0.053,0.081-0.102,0.164-0.15,0.247c-0.048,0.083-0.094,0.167-0.137,0.253
		c-0.041,0.08-0.081,0.161-0.117,0.244c-0.043,0.096-0.082,0.195-0.12,0.294c-0.029,0.077-0.059,0.153-0.085,0.232
		c-0.037,0.112-0.067,0.226-0.097,0.341c-0.018,0.07-0.039,0.14-0.054,0.211c-0.029,0.131-0.048,0.266-0.067,0.401
		c-0.008,0.058-0.02,0.115-0.027,0.174C49.012,41.104,49,41.3,49,41.5c0,0.167,0.009,0.333,0.025,0.5H10.975
		C10.991,41.833,11,41.667,11,41.5c0-0.2-0.012-0.396-0.033-0.59c-0.006-0.059-0.019-0.116-0.027-0.174
		c-0.019-0.135-0.039-0.269-0.067-0.401c-0.015-0.071-0.036-0.141-0.054-0.211c-0.03-0.115-0.06-0.229-0.097-0.341
		c-0.026-0.078-0.056-0.155-0.085-0.232c-0.038-0.099-0.077-0.198-0.12-0.294c-0.037-0.083-0.077-0.163-0.117-0.244
		c-0.044-0.086-0.089-0.17-0.137-0.253c-0.048-0.084-0.098-0.166-0.15-0.247c-0.049-0.075-0.1-0.147-0.152-0.219
		c-0.059-0.082-0.118-0.164-0.181-0.242c-0.055-0.068-0.113-0.132-0.171-0.197c-0.067-0.076-0.133-0.152-0.204-0.225
		c-0.075-0.075-0.155-0.145-0.234-0.216C9.112,37.364,9.06,37.308,9,37.259z M2,41.5C2,39.57,3.57,38,5.5,38
		c0.72,0,1.39,0.219,1.947,0.594c0.22,0.148,0.415,0.324,0.592,0.512c0.055,0.059,0.103,0.124,0.154,0.187
		c0.115,0.14,0.22,0.287,0.311,0.442c0.045,0.077,0.089,0.155,0.128,0.236c0.08,0.165,0.145,0.336,0.198,0.512
		c0.023,0.075,0.052,0.148,0.07,0.226C8.962,40.966,9,41.23,9,41.5c0,0.163-0.02,0.33-0.048,0.5H8c-0.223,0-0.442,0.014-0.659,0.038
		c-0.029,0.003-0.057,0.009-0.085,0.013c-0.197,0.025-0.391,0.058-0.582,0.101c-0.008,0.002-0.016,0.004-0.024,0.006
		c-1.327,0.307-2.487,1.051-3.316,2.077C2.506,43.58,2,42.577,2,41.5z M12,55h-2v-1h2V55z M50,55h-2v-1h2V55z M52,52h-6H14H8
		c-2.206,0-4-1.794-4-4c0-0.547,0.111-1.068,0.311-1.543l0.211-0.377c0.356-0.638,0.865-1.155,1.463-1.514
		c0.016-0.01,0.033-0.017,0.049-0.027c0.207-0.121,0.426-0.217,0.651-0.298c0.126-0.044,0.253-0.088,0.385-0.12
		c0.08-0.02,0.162-0.036,0.243-0.051C7.537,44.03,7.765,44,8,44h0.31h2.122h39.137h2.122H52c0.235,0,0.463,0.03,0.687,0.069
		c0.082,0.015,0.163,0.031,0.243,0.051c0.132,0.032,0.258,0.075,0.385,0.12c0.225,0.081,0.444,0.177,0.651,0.298
		c0.016,0.009,0.033,0.017,0.049,0.027c0.598,0.359,1.107,0.876,1.463,1.514l0.211,0.377C55.889,46.932,56,47.453,56,48
		C56,50.206,54.206,52,52,52z M56.665,44.235c-0.829-1.026-1.989-1.77-3.316-2.077c-0.008-0.002-0.016-0.004-0.024-0.006
		c-0.191-0.043-0.385-0.077-0.582-0.101c-0.029-0.004-0.057-0.01-0.085-0.013C52.442,42.014,52.223,42,52,42h-0.952
		C51.02,41.83,51,41.663,51,41.5c0-0.27,0.038-0.534,0.098-0.791c0.018-0.077,0.047-0.15,0.07-0.225
		c0.054-0.176,0.118-0.348,0.199-0.513c0.04-0.081,0.083-0.159,0.128-0.236c0.092-0.155,0.197-0.302,0.312-0.443
		c0.051-0.062,0.098-0.128,0.154-0.186c0.178-0.189,0.372-0.364,0.593-0.512C53.11,38.219,53.78,38,54.5,38c1.93,0,3.5,1.57,3.5,3.5
		C58,42.577,57.494,43.58,56.665,44.235z"/>
	<path d="M19.293,36.707C19.488,36.902,19.744,37,20,37s0.512-0.098,0.707-0.293c0.391-0.391,0.391-1.023,0-1.414L19.414,34
		l1.293-1.293c0.391-0.391,0.391-1.023,0-1.414s-1.023-0.391-1.414,0l-2,2C17.098,33.488,17,33.744,17,34s0.098,0.512,0.293,0.707
		L19.293,36.707z"/>
	<path d="M13.293,36.707C13.488,36.902,13.744,37,14,37s0.512-0.098,0.707-0.293l2-2C16.902,34.512,17,34.256,17,34
		s-0.098-0.512-0.293-0.707l-2-2c-0.391-0.391-1.023-0.391-1.414,0s-0.391,1.023,0,1.414L14.586,34l-1.293,1.293
		C12.902,35.684,12.902,36.316,13.293,36.707z"/>
	<path d="M32.293,38.707C32.488,38.902,32.744,39,33,39s0.512-0.098,0.707-0.293c0.391-0.391,0.391-1.023,0-1.414L32.414,36
		l1.293-1.293c0.391-0.391,0.391-1.023,0-1.414s-1.023-0.391-1.414,0l-2,2C30.098,35.488,30,35.744,30,36s0.098,0.512,0.293,0.707
		L32.293,38.707z"/>
	<path d="M26.293,38.707C26.488,38.902,26.744,39,27,39s0.512-0.098,0.707-0.293l2-2C29.902,36.512,30,36.256,30,36
		s-0.098-0.512-0.293-0.707l-2-2c-0.391-0.391-1.023-0.391-1.414,0s-0.391,1.023,0,1.414L27.586,36l-1.293,1.293
		C25.902,37.684,25.902,38.316,26.293,38.707z"/>
	<path d="M45.293,36.707C45.488,36.902,45.744,37,46,37s0.512-0.098,0.707-0.293c0.391-0.391,0.391-1.023,0-1.414L45.414,34
		l1.293-1.293c0.391-0.391,0.391-1.023,0-1.414s-1.023-0.391-1.414,0l-2,2C43.098,33.488,43,33.744,43,34s0.098,0.512,0.293,0.707
		L45.293,36.707z"/>
	<path d="M39.293,36.707C39.488,36.902,39.744,37,40,37s0.512-0.098,0.707-0.293l2-2C42.902,34.512,43,34.256,43,34
		s-0.098-0.512-0.293-0.707l-2-2c-0.391-0.391-1.023-0.391-1.414,0s-0.391,1.023,0,1.414L40.586,34l-1.293,1.293
		C38.902,35.684,38.902,36.316,39.293,36.707z"/>
	<path d="M18,13c0.256,0,0.512-0.098,0.707-0.293L21,10.414l2.293,2.293C23.488,12.902,23.744,13,24,13s0.512-0.098,0.707-0.293
		L27,10.414l2.293,2.293C29.488,12.902,29.744,13,30,13s0.512-0.098,0.707-0.293L33,10.414l2.293,2.293
		C35.488,12.902,35.744,13,36,13s0.512-0.098,0.707-0.293L39,10.414l2.293,2.293C41.488,12.902,41.744,13,42,13
		s0.512-0.098,0.707-0.293c0.391-0.391,0.391-1.023,0-1.414l-3-3c-0.391-0.391-1.023-0.391-1.414,0L36,10.586l-2.293-2.293
		c-0.391-0.391-1.023-0.391-1.414,0L30,10.586l-2.293-2.293c-0.391-0.391-1.023-0.391-1.414,0L24,10.586l-2.293-2.293
		c-0.391-0.391-1.023-0.391-1.414,0l-3,3c-0.391,0.391-0.391,1.023,0,1.414C17.488,12.902,17.744,13,18,13z"/>
</g>
<g>
</g>
<g>
</g>
<g>
</g>
<g>
</g>
<g>
</g>
<g>
</g>
<g>
</g>
<g>
</g>
<g>
</g>
<g>
</g>
<g>
</g>
<g>
</g>
<g>
</g>
<g>
</g>
<g>
</g>
</svg>
