<?xml version="1.0" encoding="iso-8859-1"?>
<!-- Generator: Adobe Illustrator 18.0.0, SVG Export Plug-In . SVG Version: 6.00 Build 0)  -->
<!DOCTYPE svg PUBLIC "-//W3C//DTD SVG 1.1//EN" "http://www.w3.org/Graphics/SVG/1.1/DTD/svg11.dtd">
<svg version="1.1" id="Capa_1" xmlns="http://www.w3.org/2000/svg" xmlns:xlink="http://www.w3.org/1999/xlink" x="0px" y="0px"
	 viewBox="0 0 60.007 60.007" style="enable-background:new 0 0 60.007 60.007;" xml:space="preserve">
<g>
	<path d="M59.095,36.483c-0.396-0.485-0.893-0.858-1.445-1.111c-0.328-5.219-4.667-9.369-9.968-9.369H34.243
		c-1.452,0-2.906,0.309-4.236,0.896c-1.33-0.587-2.784-0.896-4.236-0.896H13.055c-5.215,0-9.505,4.015-9.955,9.115
		c-0.894,0.215-1.69,0.726-2.264,1.479c-0.772,1.014-1.021,2.3-0.699,3.462l2.309,11.382l0.039,0.137
		c0.518,1.451,1.9,2.426,3.441,2.426h0.08v6h4.721l2-6h35.558l2,6h4.721v-6.027c1.485-0.136,2.771-1.169,3.187-2.623l1.732-11.519
		C60.167,38.644,59.864,37.422,59.095,36.483z M47.682,28.003c4.076,0,7.451,3.064,7.939,7.012c-0.13,0.008-0.251,0.042-0.379,0.059
		c-0.163,0.022-0.326,0.04-0.485,0.076c-0.181,0.041-0.354,0.099-0.528,0.157c-0.15,0.05-0.302,0.095-0.447,0.157
		c-0.174,0.075-0.336,0.167-0.5,0.258c-0.131,0.073-0.264,0.138-0.389,0.221c-0.167,0.111-0.319,0.24-0.473,0.367
		c-0.104,0.087-0.214,0.165-0.312,0.259c-0.161,0.154-0.302,0.325-0.444,0.497c-0.072,0.088-0.153,0.167-0.22,0.259
		c-0.153,0.21-0.282,0.437-0.405,0.667c-0.037,0.069-0.084,0.132-0.119,0.203c-0.141,0.293-0.255,0.6-0.345,0.919
		c-0.005,0.018-0.014,0.034-0.019,0.052c-0.091,0.338-0.153,0.688-0.179,1.049l-0.271,3.788H31.007V28.661
		c1.025-0.423,2.129-0.658,3.236-0.658H47.682z M13.055,28.003H25.77c1.107,0,2.211,0.234,3.236,0.658v15.342H10.209l-0.598-4.182
		c-0.046-0.323-0.125-0.635-0.224-0.938c-0.033-0.099-0.078-0.192-0.116-0.289c-0.077-0.198-0.158-0.393-0.256-0.579
		c-0.057-0.108-0.122-0.208-0.186-0.311c-0.101-0.164-0.205-0.323-0.322-0.475c-0.076-0.1-0.157-0.195-0.24-0.289
		c-0.124-0.141-0.253-0.274-0.39-0.402c-0.091-0.085-0.182-0.169-0.279-0.249c-0.149-0.122-0.305-0.231-0.465-0.338
		c-0.099-0.066-0.194-0.134-0.297-0.194c-0.185-0.107-0.38-0.196-0.578-0.281c-0.089-0.039-0.174-0.086-0.265-0.12
		c-0.287-0.107-0.583-0.194-0.889-0.253C5.554,31.115,8.948,28.003,13.055,28.003z M5.926,52.003c-0.677,0-1.286-0.415-1.536-1.039
		l-2.309-11.37c-0.171-0.621-0.045-1.272,0.346-1.784c0.391-0.513,0.983-0.807,1.628-0.807c1.785,0,3.321,1.332,3.575,3.099
		l1.309,11.901H6.007H5.926z M9.286,58.003H8.007v-4H9.14h1.479L9.286,58.003z M13.394,52.003H10.97l-0.536-6h39.559l-0.267,6
		h-2.107H13.394z M53.007,58.003h-1.279l-1.333-4h1.244h1.368V58.003z M57.956,39.487l-1.702,11.371
		c-0.22,0.677-0.858,1.146-1.574,1.146h-2.941l0.635-11.646c0.135-1.881,1.718-3.354,3.604-3.354c0.611,0,1.184,0.271,1.571,0.745
		C57.934,38.222,58.087,38.837,57.956,39.487z"/>
	<path d="M14.3,39.71c0.195,0.195,0.451,0.293,0.707,0.293s0.512-0.098,0.707-0.293l0.92-0.92c0.433,0.213,0.901,0.333,1.373,0.333
		s0.94-0.12,1.373-0.333l0.92,0.92c0.195,0.195,0.451,0.293,0.707,0.293s0.512-0.098,0.707-0.293c0.391-0.391,0.391-1.023,0-1.414
		l-0.92-0.92c0.425-0.866,0.425-1.88,0-2.747l0.92-0.92c0.391-0.391,0.391-1.023,0-1.414c-0.391-0.391-1.023-0.391-1.414,0
		l-0.92,0.92c-0.866-0.425-1.88-0.425-2.747,0l-0.92-0.92c-0.391-0.391-1.023-0.391-1.414,0c-0.391,0.391-0.391,1.023,0,1.414
		l0.92,0.92c-0.425,0.866-0.425,1.88,0,2.747l-0.92,0.92C13.909,38.687,13.909,39.32,14.3,39.71z M18.8,35.21
		c0.438,0.438,0.438,1.148,0,1.586s-1.148,0.438-1.586,0s-0.438-1.148,0-1.586c0.219-0.219,0.506-0.328,0.793-0.328
		S18.581,34.992,18.8,35.21z"/>
	<path d="M38.3,39.71c0.195,0.195,0.451,0.293,0.707,0.293s0.512-0.098,0.707-0.293l0.92-0.92c0.433,0.213,0.901,0.333,1.373,0.333
		s0.94-0.12,1.373-0.333l0.92,0.92c0.195,0.195,0.451,0.293,0.707,0.293s0.512-0.098,0.707-0.293c0.391-0.391,0.391-1.023,0-1.414
		l-0.92-0.92c0.425-0.866,0.425-1.88,0-2.747l0.92-0.92c0.391-0.391,0.391-1.023,0-1.414c-0.391-0.391-1.023-0.391-1.414,0
		l-0.92,0.92c-0.866-0.425-1.88-0.425-2.747,0l-0.92-0.92c-0.391-0.391-1.023-0.391-1.414,0c-0.391,0.391-0.391,1.023,0,1.414
		l0.92,0.92c-0.425,0.866-0.425,1.88,0,2.747l-0.92,0.92C37.909,38.687,37.909,39.32,38.3,39.71z M42.8,35.21
		c0.438,0.438,0.438,1.148,0,1.586s-1.148,0.438-1.586,0s-0.438-1.148,0-1.586c0.219-0.219,0.506-0.328,0.793-0.328
		S42.581,34.992,42.8,35.21z"/>
	<path d="M22.007,21.003h5v-3h23v3h5v-3h3v-6h-1h-2v-10h-4v-2h-6v3h-2.84c-0.435,0-0.838,0.215-1.081,0.578l-5.603,8.403
		c-0.004,0.006-0.005,0.013-0.009,0.019H20.007h-1v6h3V21.003z M25.007,19.003h-1v-1h1V19.003z M53.007,19.003h-1v-1h1V19.003z
		 M53.007,4.003v8h-2v-8H53.007z M47.007,2.003h2v10h-2V2.003z M45.007,12.003h-3.131l3.131-4.696V12.003z M42.542,5.003h1.597
		l-4.667,7h-1.597L42.542,5.003z M21.007,16.003v-2h15.559h3.281h5.16h4h2h4h1v2h-1h-5h-23h-5H21.007z"/>
</g>
<g>
</g>
<g>
</g>
<g>
</g>
<g>
</g>
<g>
</g>
<g>
</g>
<g>
</g>
<g>
</g>
<g>
</g>
<g>
</g>
<g>
</g>
<g>
</g>
<g>
</g>
<g>
</g>
<g>
</g>
</svg>
