<svg xmlns="http://www.w3.org/2000/svg" viewBox="0 0 60 60" style="enable-background:new 0 0 60 60" xml:space="preserve"><path d="M49 0H11v20h38V0zm-2 18H13V2h34v16z"/><path d="M46 3H14v14h32V3zm-2 12H16V5h28v10zM60 41.5c0-3.032-2.468-5.5-5.5-5.5-.521 0-1.022.078-1.5.213v-2.506C53 28.354 48.646 24 43.293 24H16.707C11.354 24 7 28.354 7 33.707v2.506A5.502 5.502 0 0 0 5.5 36 5.507 5.507 0 0 0 0 41.5c0 1.804.903 3.469 2.355 4.487A5.95 5.95 0 0 0 2 48c0 3.309 2.691 6 6 6v3h2v1a1 1 0 1 0 0 2h2a1 1 0 1 0 0-2v-1h2v-3h32v3h2v1a1 1 0 1 0 0 2h2a1 1 0 1 0 0-2v-1h2v-3c3.309 0 6-2.691 6-6a5.95 5.95 0 0 0-.355-2.013A5.494 5.494 0 0 0 60 41.5zM9 37.259v-3.552C9 29.457 12.457 26 16.707 26h26.586C47.543 26 51 29.457 51 33.707v3.552c-.06.049-.112.105-.169.156-.079.071-.159.14-.234.216-.072.072-.137.149-.204.225-.058.065-.117.129-.171.197-.064.079-.122.161-.181.242a5.241 5.241 0 0 0-.439.719 5.834 5.834 0 0 0-.237.538c-.029.077-.059.153-.085.232a5.548 5.548 0 0 0-.097.341c-.018.07-.039.14-.054.211-.029.131-.048.266-.067.401-.008.058-.02.115-.027.174a4.969 4.969 0 0 0-.01 1.089h-38.05a5.23 5.23 0 0 0-.008-1.09c-.006-.059-.019-.116-.027-.174a5.881 5.881 0 0 0-.067-.401c-.015-.071-.036-.141-.054-.211a5.548 5.548 0 0 0-.097-.341c-.026-.078-.056-.155-.085-.232a5.834 5.834 0 0 0-.12-.294c-.037-.083-.077-.163-.117-.244a5.58 5.58 0 0 0-.439-.719c-.059-.082-.118-.164-.181-.242-.055-.068-.113-.132-.171-.197-.067-.076-.133-.152-.204-.225-.075-.075-.155-.145-.234-.216-.059-.05-.111-.106-.171-.155zM2 41.5C2 39.57 3.57 38 5.5 38c.72 0 1.39.219 1.947.594.22.148.415.324.592.512.055.059.103.124.154.187a3.45 3.45 0 0 1 .439.678c.08.165.145.336.198.512.023.075.052.148.07.226.062.257.1.521.1.791 0 .163-.02.33-.048.5H8a5.98 5.98 0 0 0-.659.038c-.029.003-.057.009-.085.013a6.203 6.203 0 0 0-.582.101l-.024.006a6.005 6.005 0 0 0-3.316 2.077A3.496 3.496 0 0 1 2 41.5zM12 55h-2v-1h2v1zm38 0h-2v-1h2v1zm2-3H8c-2.206 0-4-1.794-4-4 0-.547.111-1.068.311-1.543l.211-.377a4.085 4.085 0 0 1 1.463-1.514c.016-.01.033-.017.049-.027.207-.121.426-.217.651-.298.126-.044.253-.088.385-.12.08-.02.162-.036.243-.051.224-.04.452-.07.687-.07h44c.235 0 .463.03.687.069.082.015.163.031.243.051.132.032.258.075.385.12.225.081.444.177.651.298.016.009.033.017.049.027a4.085 4.085 0 0 1 1.463 1.514l.211.377c.2.476.311.997.311 1.544 0 2.206-1.794 4-4 4zm4.665-7.765a6.005 6.005 0 0 0-3.316-2.077l-.024-.006a5.894 5.894 0 0 0-.582-.101c-.029-.004-.057-.01-.085-.013A5.948 5.948 0 0 0 52 42h-.952a3.096 3.096 0 0 1-.048-.5c0-.27.038-.534.098-.791.018-.077.047-.15.07-.225a3.468 3.468 0 0 1 .327-.749c.092-.155.197-.302.312-.443.051-.062.098-.128.154-.186a3.47 3.47 0 0 1 .593-.512A3.47 3.47 0 0 1 54.5 38c1.93 0 3.5 1.57 3.5 3.5 0 1.077-.506 2.08-1.335 2.735z"/><path d="M19.293 36.707a.997.997 0 0 0 1.414 0 .999.999 0 0 0 0-1.414L19.414 34l1.293-1.293a.999.999 0 1 0-1.414-1.414l-2 2a.997.997 0 0 0 0 1.414l2 2z"/><path d="M13.293 36.707a.997.997 0 0 0 1.414 0l2-2a.997.997 0 0 0 0-1.414l-2-2a.999.999 0 1 0-1.414 1.414L14.586 34l-1.293 1.293a.999.999 0 0 0 0 1.414zM32.293 38.707a.997.997 0 0 0 1.414 0 .999.999 0 0 0 0-1.414L32.414 36l1.293-1.293a.999.999 0 1 0-1.414-1.414l-2 2a.997.997 0 0 0 0 1.414l2 2z"/><path d="M26.293 38.707a.997.997 0 0 0 1.414 0l2-2a.997.997 0 0 0 0-1.414l-2-2a.999.999 0 1 0-1.414 1.414L27.586 36l-1.293 1.293a.999.999 0 0 0 0 1.414zM45.293 36.707a.997.997 0 0 0 1.414 0 .999.999 0 0 0 0-1.414L45.414 34l1.293-1.293a.999.999 0 1 0-1.414-1.414l-2 2a.997.997 0 0 0 0 1.414l2 2z"/><path d="M39.293 36.707a.997.997 0 0 0 1.414 0l2-2a.997.997 0 0 0 0-1.414l-2-2a.999.999 0 1 0-1.414 1.414L40.586 34l-1.293 1.293a.999.999 0 0 0 0 1.414zM18 13a.997.997 0 0 0 .707-.293L21 10.414l2.293 2.293a.997.997 0 0 0 1.414 0L27 10.414l2.293 2.293a.997.997 0 0 0 1.414 0L33 10.414l2.293 2.293a.997.997 0 0 0 1.414 0L39 10.414l2.293 2.293a.997.997 0 0 0 1.414 0 .999.999 0 0 0 0-1.414l-3-3a.999.999 0 0 0-1.414 0L36 10.586l-2.293-2.293a.999.999 0 0 0-1.414 0L30 10.586l-2.293-2.293a.999.999 0 0 0-1.414 0L24 10.586l-2.293-2.293a.999.999 0 0 0-1.414 0l-3 3A.999.999 0 0 0 18 13z"/></svg>