<svg xmlns="http://www.w3.org/2000/svg" viewBox="0 0 60 60" style="enable-background:new 0 0 60 60" xml:space="preserve"><path d="M25 43.5H1a1 1 0 0 0-1 1V49c0 5.238 4.262 9.5 9.5 9.5h7c5.238 0 9.5-4.262 9.5-9.5v-4.5a1 1 0 0 0-1-1zM24 49c0 4.136-3.364 7.5-7.5 7.5h-7C5.364 56.5 2 53.136 2 49v-3.5h22V49z"/><path d="M52.379 16.5H36.621c-3.992 0-7.272 3.088-7.59 7H25V11.261l16.036-4.45a2.712 2.712 0 0 0 1.981-2.606 2.708 2.708 0 0 0-2.705-2.704H7.982a1 1 0 0 0-1 1v3.982A5.023 5.023 0 0 0 12 11.5h3v12h-3v-3a1 1 0 1 0-2 0v1H8a1 1 0 0 0-1 1v11a1 1 0 0 0 1 1h2v1a1 1 0 1 0 2 0v-3h17v25a1 1 0 0 0 1 1h29a1 1 0 0 0 1-1V24.121c0-4.202-3.419-7.621-7.621-7.621zM8.982 6.482V3.5h31.33a.705.705 0 0 1 .188 1.383L23.864 9.5H12a3.022 3.022 0 0 1-3.018-3.018zM9 23.5h1v9H9v-9zm3 7v-5h4a1 1 0 0 0 1-1v-13h6v13a1 1 0 0 0 1 1h5v5H12zm19 26V24.121c0-3.1 2.521-5.621 5.621-5.621h15.758c3.1 0 5.621 2.521 5.621 5.621V27.5h-5a1 1 0 0 0-1 1v20a1 1 0 0 0 1 1h5v7H31zm27-9h-4v-18h4v18z"/><path d="M37 36.5c-2.206 0-4 1.794-4 4s1.794 4 4 4 4-1.794 4-4-1.794-4-4-4zm0 6c-1.103 0-2-.897-2-2s.897-2 2-2 2 .897 2 2-.897 2-2 2zM37 45.5c-2.206 0-4 1.794-4 4s1.794 4 4 4 4-1.794 4-4-1.794-4-4-4zm0 6c-1.103 0-2-.897-2-2s.897-2 2-2 2 .897 2 2-.897 2-2 2z"/></svg>