<svg xmlns="http://www.w3.org/2000/svg" viewBox="0 0 60 60" style="enable-background:new 0 0 60 60" xml:space="preserve"><path d="M44 8H0v41h2v3h8v-3h40v3h8v-3h2V8H44zm14 2v10H44V10h14zM8 50H4v-1h4v1zm2-3H2V10h35v37H10zm29 0V10h3v37h-3zm17 3h-4v-1h4v1zm2-3H44v-4h14v4zm0-6H44V22h14v19z"/><circle cx="4" cy="12" r="1"/><circle cx="10" cy="12" r="1"/><circle cx="4" cy="18" r="1"/><circle cx="10" cy="18" r="1"/><circle cx="7" cy="15" r="1"/><circle cx="13" cy="15" r="1"/><circle cx="7" cy="21" r="1"/><circle cx="13" cy="21" r="1"/><circle cx="16" cy="12" r="1"/><circle cx="16" cy="18" r="1"/><circle cx="4" cy="24" r="1"/><circle cx="10" cy="24" r="1"/><circle cx="7" cy="27" r="1"/><circle cx="13" cy="27" r="1"/><circle cx="16" cy="24" r="1"/><circle cx="22" cy="12" r="1"/><circle cx="22" cy="18" r="1"/><circle cx="19" cy="15" r="1"/><circle cx="25" cy="15" r="1"/><circle cx="19" cy="21" r="1"/><circle cx="25" cy="21" r="1"/><circle cx="28" cy="12" r="1"/><circle cx="28" cy="18" r="1"/><circle cx="22" cy="24" r="1"/><circle cx="19" cy="27" r="1"/><circle cx="25" cy="27" r="1"/><circle cx="28" cy="24" r="1"/><circle cx="31" cy="15" r="1"/><circle cx="31" cy="21" r="1"/><circle cx="34" cy="12" r="1"/><circle cx="34" cy="18" r="1"/><circle cx="31" cy="27" r="1"/><circle cx="34" cy="24" r="1"/><circle cx="4" cy="30" r="1"/><circle cx="10" cy="30" r="1"/><circle cx="4" cy="36" r="1"/><circle cx="10" cy="36" r="1"/><circle cx="7" cy="33" r="1"/><circle cx="13" cy="33" r="1"/><circle cx="7" cy="39" r="1"/><circle cx="13" cy="39" r="1"/><circle cx="16" cy="30" r="1"/><circle cx="16" cy="36" r="1"/><circle cx="4" cy="42" r="1"/><circle cx="10" cy="42" r="1"/><circle cx="7" cy="45" r="1"/><circle cx="13" cy="45" r="1"/><circle cx="16" cy="42" r="1"/><circle cx="22" cy="30" r="1"/><circle cx="22" cy="36" r="1"/><circle cx="19" cy="33" r="1"/><circle cx="25" cy="33" r="1"/><circle cx="19" cy="39" r="1"/><circle cx="25" cy="39" r="1"/><circle cx="28" cy="30" r="1"/><circle cx="28" cy="36" r="1"/><circle cx="22" cy="42" r="1"/><circle cx="19" cy="45" r="1"/><circle cx="25" cy="45" r="1"/><circle cx="28" cy="42" r="1"/><circle cx="31" cy="33" r="1"/><circle cx="31" cy="39" r="1"/><circle cx="34" cy="30" r="1"/><circle cx="34" cy="36" r="1"/><circle cx="31" cy="45" r="1"/><circle cx="34" cy="42" r="1"/><path d="M46.757 37.242C47.891 38.376 49.397 39 51 39s3.109-.624 4.243-1.758C56.376 36.109 57 34.603 57 33s-.624-3.109-1.757-4.242C54.109 27.624 52.603 27 51 27s-3.109.624-4.243 1.758C45.624 29.891 45 31.397 45 33s.624 3.109 1.757 4.242zm1.414-7.07a3.962 3.962 0 0 1 4.85-.607l-.607.607a.999.999 0 1 0 1.414 1.414l.607-.607c.359.608.565 1.296.565 2.021a3.976 3.976 0 0 1-1.171 2.828c-1.512 1.512-4.146 1.512-5.657 0C47.416 35.072 47 34.068 47 33s.416-2.072 1.171-2.828zM46 14h10a1 1 0 1 0 0-2H46a1 1 0 1 0 0 2zM46 18h10a1 1 0 1 0 0-2H46a1 1 0 1 0 0 2z"/></svg>