<svg xmlns="http://www.w3.org/2000/svg" viewBox="0 0 60 60" style="enable-background:new 0 0 60 60" xml:space="preserve"><path d="M0 8v41h2v3h8v-3h40v3h8v-3h2V8H0zm2 2h40v1H2v-1zm40 11h-.478A3.526 3.526 0 0 0 38 24.521v8.957A3.526 3.526 0 0 0 41.522 37H42v7H2V13h40v8zm0 14h-.478A1.524 1.524 0 0 1 40 33.479v-8.957c0-.839.683-1.522 1.522-1.522H42v12zM8 50H4v-1h4v1zm2-3H2v-1h40v1H10zm46 3h-4v-1h4v1zm2-3H44v-4h14v4zm-14-6V10h14v31H44z"/><path d="M9.73 40h22.54A4.736 4.736 0 0 0 37 35.27V21.73A4.736 4.736 0 0 0 32.27 17H9.73A4.736 4.736 0 0 0 5 21.73v13.54A4.736 4.736 0 0 0 9.73 40zM7 21.73A2.734 2.734 0 0 1 9.73 19h22.54A2.734 2.734 0 0 1 35 21.73v13.54A2.733 2.733 0 0 1 32.27 38H9.73A2.734 2.734 0 0 1 7 35.27V21.73zM45 11v10h12V11H45zm10 8h-8v-6h8v6zM45 28h5v-5h-5v5zm2-3h1v1h-1v-1zM52 28h5v-5h-5v5zm2-3h1v1h-1v-1zM45 34h5v-5h-5v5zm2-3h1v1h-1v-1zM52 34h5v-5h-5v5zm2-3h1v1h-1v-1zM45 40h5v-5h-5v5zm2-3h1v1h-1v-1zM52 40h5v-5h-5v5zm2-3h1v1h-1v-1z"/><circle cx="9" cy="21" r="1"/><circle cx="15" cy="21" r="1"/><circle cx="9" cy="27" r="1"/><circle cx="15" cy="27" r="1"/><circle cx="12" cy="24" r="1"/><circle cx="18" cy="24" r="1"/><circle cx="12" cy="30" r="1"/><circle cx="18" cy="30" r="1"/><circle cx="21" cy="21" r="1"/><circle cx="21" cy="27" r="1"/><circle cx="9" cy="33" r="1"/><circle cx="15" cy="33" r="1"/><circle cx="12" cy="36" r="1"/><circle cx="18" cy="36" r="1"/><circle cx="21" cy="33" r="1"/><circle cx="27" cy="21" r="1"/><circle cx="27" cy="27" r="1"/><circle cx="24" cy="24" r="1"/><circle cx="30" cy="24" r="1"/><circle cx="24" cy="30" r="1"/><circle cx="30" cy="30" r="1"/><circle cx="33" cy="21" r="1"/><circle cx="33" cy="27" r="1"/><circle cx="27" cy="33" r="1"/><circle cx="24" cy="36" r="1"/><circle cx="30" cy="36" r="1"/><circle cx="33" cy="33" r="1"/></svg>