<svg xmlns="http://www.w3.org/2000/svg" viewBox="0 0 60 60" style="enable-background:new 0 0 60 60" xml:space="preserve"><path d="M14 22c-2.206 0-4 1.794-4 4s1.794 4 4 4 4-1.794 4-4-1.794-4-4-4zm0 6c-1.103 0-2-.897-2-2s.897-2 2-2 2 .897 2 2-.897 2-2 2z"/><path d="M23 20c0-.775-.016-1.537-.047-2.286-.226-5.836-1.316-10.137-2.855-13.039l-.568-1.119-.054.051C17.889 1.167 15.942 0 14 0c-1.941 0-3.888 1.166-5.473 3.609l-.056-.052-.596 1.174c-1.524 2.905-2.601 7.198-2.827 13.014A54.534 54.534 0 0 0 5 20.053c0 .291.015.595.038.914.023.375.062.749.114 1.12l.133 1.119.059-.03a15.994 15.994 0 0 0 2.677 6l.333.465A13.99 13.99 0 0 1 11 37.856v10.028c-2.781 1.711-4.935 5.831-5.693 10.971L5.138 60H8v-1a2.002 2.002 0 0 1 3.929-.533C12.181 59.384 12.96 60 13.87 60h.261c.909 0 1.689-.616 1.94-1.532A2.002 2.002 0 0 1 20 59v1h2.862l-.169-1.146c-.758-5.14-2.912-9.26-5.693-10.971V37.856c0-2.967.915-5.809 2.646-8.217l.333-.463a15.961 15.961 0 0 0 2.674-6.002l.062.032.17-1.426.009-.096c.026-.232.05-.464.065-.697.025-.334.041-.659.041-.987zm-2.036-1.879c.008.222.008.451.013.675.009.383.02.765.021 1.156C18.5 18.165 17 15.423 17 12.5c0-1.983.679-3.886 1.935-5.484 1.126 2.828 1.863 6.677 2.029 11.105zm-13.94.576c.005-.199.004-.403.011-.601.165-4.413.902-8.256 2.028-11.083C10.32 8.612 11 10.516 11 12.5c0 2.923-1.5 5.665-3.999 7.452 0-.424.012-.839.023-1.255zm8.54 30.677c1.757.85 3.302 3.097 4.288 6.081A3.97 3.97 0 0 0 18 55c-1.795 0-3.381 1.208-3.87 3l-.273-.063A4.01 4.01 0 0 0 10 55a3.97 3.97 0 0 0-1.852.455c.985-2.984 2.53-5.231 4.288-6.081l.564-.273V39h2v10.101l.564.273zm2.79-21.364-.333.463a15.978 15.978 0 0 0-3 8.527h-2.045a15.968 15.968 0 0 0-2.999-8.526l-.333-.465c-1.277-1.776-2.107-3.744-2.455-5.802C10.79 20.105 13 16.446 13 12.5c0-2.754-1.067-5.366-3.001-7.449C11.119 3.114 12.488 2 14 2c1.511 0 2.88 1.113 4 3.052-1.934 2.083-3 4.695-3 7.448 0 3.948 2.211 7.607 5.814 9.708-.347 2.045-1.178 4.02-2.46 5.802zM54 12H30a1 1 0 1 0 0 2h2v41.624A4.38 4.38 0 0 0 36.376 60h11.248A4.38 4.38 0 0 0 52 55.624V14h2a1 1 0 1 0 0-2zm-4 23h-2a1 1 0 1 0 0 2h2v2h-2a1 1 0 1 0 0 2h2v2h-2a1 1 0 1 0 0 2h2v2h-2a1 1 0 1 0 0 2h2v2h-2a1 1 0 1 0 0 2h2v2.624A2.378 2.378 0 0 1 47.624 58H36.376A2.378 2.378 0 0 1 34 55.624V53h2a1 1 0 1 0 0-2h-2v-2h2a1 1 0 1 0 0-2h-2v-2h2a1 1 0 1 0 0-2h-2v-2h2a1 1 0 1 0 0-2h-2v-2h2a1 1 0 1 0 0-2h-2V14h16v21z"/></svg>