<svg xmlns="http://www.w3.org/2000/svg" viewBox="0 0 60 60" style="enable-background:new 0 0 60 60" xml:space="preserve"><path d="M54 19a1 1 0 0 0 1-1V4.006A4.01 4.01 0 0 0 50.994 0H9.005A4.01 4.01 0 0 0 5 4.006V59a1 1 0 0 0 1 1h45.5c1.93 0 3.5-1.57 3.5-3.5S53.43 53 51.5 53h-9.291C48.013 50.009 52 43.967 52 37v-1a1 1 0 0 0-1-1h-7.821a9.613 9.613 0 0 0-2.351-9.828L35 19.344V19h19zm-2.5 36c.827 0 1.5.673 1.5 1.5s-.673 1.5-1.5 1.5H7V4.006C7 2.899 7.899 2 9.005 2h41.989C52.101 2 53 2.899 53 4.006V17H16.722A5.729 5.729 0 0 0 11 22.723v26.555A5.729 5.729 0 0 0 16.722 55H51.5zM36.793 34.793a2.552 2.552 0 0 1-.236.207H35v-7.586l1.793 1.793a3.954 3.954 0 0 1 0 5.586zm-5.35.207a2.552 2.552 0 0 1-.236-.207 3.954 3.954 0 0 1 0-5.586L33 27.414V35h-1.557zm-5.652 18h-9.069A3.727 3.727 0 0 1 13 49.277V22.723A3.727 3.727 0 0 1 16.722 19H33v.344l-5.828 5.828A9.613 9.613 0 0 0 24.821 35H17a1 1 0 0 0-1 1v1c0 6.967 3.987 13.009 9.791 16zm2.795-26.414L33 22.172v2.414l-3.207 3.207c-1.952 1.952-2.24 4.928-.905 7.207h-1.932a7.623 7.623 0 0 1 1.63-8.414zM34 53c-8.822 0-16-7.178-16-16h32c0 8.822-7.178 16-16 16zm5.414-26.414A7.625 7.625 0 0 1 41.044 35h-1.932c1.335-2.279 1.047-5.255-.905-7.207L35 24.586v-2.414l4.414 4.414z"/><path d="M44.5 16c3.584 0 6.5-2.916 6.5-6.5a6.48 6.48 0 0 0-1.901-4.589l-.004-.006-.006-.004A6.48 6.48 0 0 0 44.5 3C40.916 3 38 5.916 38 9.5s2.916 6.5 6.5 6.5zm0-11c.879 0 1.693.263 2.386.7l-2.593 2.593a.999.999 0 1 0 1.414 1.414L48.3 7.114c.437.693.7 1.508.7 2.386 0 2.481-2.019 4.5-4.5 4.5S40 11.981 40 9.5 42.019 5 44.5 5zM15 11h4a1 1 0 0 0 1-1V6a1 1 0 0 0-1-1h-4a1 1 0 0 0-1 1v4a1 1 0 0 0 1 1zm1-4h2v2h-2V7zM23 11h4a1 1 0 0 0 1-1V6a1 1 0 0 0-1-1h-4a1 1 0 0 0-1 1v4a1 1 0 0 0 1 1zm1-4h2v2h-2V7zM15 15h4a1 1 0 1 0 0-2h-4a1 1 0 1 0 0 2zM23 15h4a1 1 0 1 0 0-2h-4a1 1 0 1 0 0 2z"/></svg>