<svg xmlns="http://www.w3.org/2000/svg" viewBox="0 0 60 60" style="enable-background:new 0 0 60 60" xml:space="preserve"><path d="M15.5 50.521V39.773c2.382-2.052 4-6.492 4-11.773a24.01 24.01 0 0 0-.344-4h.046l-.194-.841c-.021-.102-.047-.199-.069-.3l-.019-.083c-.097-.417-.197-.83-.315-1.222a3.64 3.64 0 0 1 .001-2.108c.117-.391.217-.803.314-1.219l.021-.088c.022-.097.046-.191.067-.289l.196-.85h-.048a24.01 24.01 0 0 0 .344-4c0-7.29-3.075-13-7-13s-7 5.71-7 13c0 1.368.126 2.713.344 4h-.048l.197.849c.021.098.045.192.067.289l.021.088c.097.416.197.828.314 1.22a3.64 3.64 0 0 1-.001 2.108c-.117.391-.218.804-.314 1.221l-.019.083c-.023.101-.048.198-.069.3L5.797 24h.046a24.117 24.117 0 0 0-.343 4c0 5.281 1.618 9.721 4 11.773v10.748A8.994 8.994 0 0 0 3.5 59v1h18v-1a8.994 8.994 0 0 0-6-8.479zM7.5 13c0-6.482 2.635-11 5-11s5 4.518 5 11c0 1.377-.134 2.727-.372 4H7.872a21.855 21.855 0 0 1-.372-4zm9.152 9H8.348c.042-.153.066-.31.095-.465.015-.082.038-.163.05-.245a5.657 5.657 0 0 0 0-1.581c-.011-.081-.034-.16-.049-.24-.03-.157-.054-.314-.096-.469h8.305c-.042.154-.066.31-.095.465-.015.082-.038.162-.05.244a5.657 5.657 0 0 0 0 1.581c.011.081.034.16.049.24.029.158.053.315.095.47zM7.5 28c0-1.377.134-2.727.372-4h9.255c.238 1.273.372 2.623.372 4 0 5.253-1.731 9.215-3.646 10.529l-.059.037a3.086 3.086 0 0 1-.471.252c-.094.039-.187.07-.281.097-.048.013-.097.029-.145.039a2.022 2.022 0 0 1-.49.036 2.007 2.007 0 0 1-.307-.036c-.048-.01-.097-.026-.145-.039a2.215 2.215 0 0 1-.411-.156 2.996 2.996 0 0 1-.34-.193c-.02-.013-.039-.023-.059-.037C9.231 37.215 7.5 33.253 7.5 28zm9 30v-2a1 1 0 1 0-2 0v2h-1v-2a1 1 0 1 0-2 0v2h-1v-2a1 1 0 1 0-2 0v2H5.571a6.994 6.994 0 0 1 5.179-5.77l.75-.194V40.872c.054.014.109.02.163.031.068.014.135.028.204.039.204.033.41.055.615.056L12.5 41l.018-.002c.206-.001.411-.023.615-.056.068-.011.136-.025.204-.039.054-.012.109-.017.163-.031v11.164l.75.194A6.995 6.995 0 0 1 19.429 58H16.5z"/><path d="M12.5 7c-2.206 0-4 1.794-4 4s1.794 4 4 4 4-1.794 4-4-1.794-4-4-4zm0 6c-1.103 0-2-.897-2-2s.897-2 2-2 2 .897 2 2-.897 2-2 2zM56.5 31a1 1 0 0 0-1-1h-7v-5a1 1 0 0 0-1-1h-1v-2a1 1 0 0 0-1-1h-10a1 1 0 0 0-1 1v2h-1a1 1 0 0 0-1 1v5h-7a1 1 0 0 0-1 1v6c0 .025.012.046.014.071.002.022-.008.042-.005.064l3 22A1 1 0 0 0 28.5 60h24a1 1 0 0 0 .991-.865l3-22c.003-.022-.007-.042-.005-.064.002-.025.014-.046.014-.071v-6zm-20-8h8v1h-8v-1zm-2 3h12v4h-12v-4zm-8 6h28v4h-28v-4zm11 6h6v8h-6v-8zm-8.127 20-2.728-20H35.5v10h2v6.858c-1.72-.447-3-1.999-3-3.858a1 1 0 1 0-2 0c0 2.967 2.167 5.431 5 5.91V58h-8.127zM39.5 58V48h2v10h-2zm12.127 0H43.5v-5.858c1.72.447 3 1.999 3 3.858a1 1 0 1 0 2 0c0-2.967-2.167-5.431-5-5.91V48h2V38h8.854l-2.727 20z"/></svg>