<?xml version="1.0" encoding="iso-8859-1"?>
<!-- Generator: Adobe Illustrator 18.0.0, SVG Export Plug-In . SVG Version: 6.00 Build 0)  -->
<!DOCTYPE svg PUBLIC "-//W3C//DTD SVG 1.1//EN" "http://www.w3.org/Graphics/SVG/1.1/DTD/svg11.dtd">
<svg version="1.1" id="Capa_1" xmlns="http://www.w3.org/2000/svg" xmlns:xlink="http://www.w3.org/1999/xlink" x="0px" y="0px"
	 viewBox="0 0 60 60" style="enable-background:new 0 0 60 60;" xml:space="preserve">
<g>
	<path d="M29.5,20c-0.552,0-1,0.447-1,1v2c0,0.553,0.448,1,1,1s1-0.447,1-1v-2C30.5,20.447,30.052,20,29.5,20z"/>
	<path d="M33.5,20c-0.552,0-1,0.447-1,1v2c0,0.553,0.448,1,1,1s1-0.447,1-1v-2C34.5,20.447,34.052,20,33.5,20z"/>
	<path d="M37.5,20c-0.552,0-1,0.447-1,1v2c0,0.553,0.448,1,1,1s1-0.447,1-1v-2C38.5,20.447,38.052,20,37.5,20z"/>
	<path d="M41.5,20c-0.552,0-1,0.447-1,1v2c0,0.553,0.448,1,1,1s1-0.447,1-1v-2C42.5,20.447,42.052,20,41.5,20z"/>
	<path d="M42.255,13.302l-1.67-1.113C37.457,10.103,33.815,9,30.055,9H15.5c-2.206,0-4,1.794-4,4s1.794,4,4,4h25.635
		c0.896,0,1.673-0.576,1.932-1.435C43.327,14.708,43,13.798,42.255,13.302z M41.135,15H15.5c-1.103,0-2-0.897-2-2s0.897-2,2-2
		h14.555c3.364,0,6.622,0.986,9.42,2.853l1.679,1.146C41.154,14.998,41.148,15,41.135,15z"/>
	<path d="M47.5,12c0.552,0,1-0.447,1-1v-1c2.757,0,5-2.243,5-5s-2.243-5-5-5c-0.552,0-1,0.447-1,1s0.448,1,1,1c1.654,0,3,1.346,3,3
		s-1.346,3-3,3c0-0.553-0.448-1-1-1h-1.447c-3.188,0-6.49-0.453-9.813-1.348C34.627,5.22,32.963,5,31.292,5H26.5V3
		c0-0.553-0.448-1-1-1h-3c-0.552,0-1,0.447-1,1v2h-1V3c0-0.553-0.448-1-1-1h-3c-0.552,0-1,0.447-1,1v2.048
		c-5.042,0.48-9,4.737-9,9.902v9.257C6.5,26.299,8.201,28,10.292,28H12.5v3c0,0.553,0.448,1,1,1h3v8.531
		c-1.493,1.245-6.618,5.87-6.98,11.026c-0.164,2.338,0.657,4.45,2.442,6.277c0.011,0.012,0.022,0.022,0.034,0.033
		c1.422,1.324,3.259,2.02,5.128,2.103c0.127,0.018,0.255,0.03,0.386,0.03c0.142,0,0.282-0.011,0.421-0.033
		c1.86-0.096,3.697-0.8,5.127-2.133c1.767-1.81,2.582-3.905,2.424-6.229c-0.352-5.182-5.516-9.859-6.981-11.087V32h3
		c0.552,0,1-0.447,1-1v-3h24.208c2.087,0,3.789-1.685,3.792-3.756c0.008-4.455-1.553-8.804-4.386-12.243
		c0,0,0.003-0.001,0.009-0.001H47.5z M18.677,57.005C18.326,57.637,17.9,58,17.509,58s-0.816-0.363-1.133-0.926
		c-0.841-1.839-0.906-3.321-0.869-4.406c0.097-2.83,1-6.222,1.982-8.948c0.997,2.773,1.914,6.212,2.004,9.04
		C19.529,53.895,19.456,55.295,18.677,57.005z M11.515,51.701c0.179-2.563,1.884-5.081,3.517-6.938
		c-0.794,2.528-1.439,5.367-1.524,7.837c-0.038,1.123,0.019,2.602,0.704,4.451c-0.293-0.186-0.576-0.39-0.837-0.631
		C12.001,55.004,11.393,53.461,11.515,51.701z M23.485,51.74c0.12,1.756-0.489,3.293-1.826,4.664
		c-0.263,0.245-0.549,0.454-0.845,0.643c0.651-1.75,0.715-3.171,0.678-4.351c-0.079-2.488-0.741-5.387-1.555-7.967
		C21.581,46.599,23.309,49.147,23.485,51.74z M23.5,4h1v1h-1V4z M17.5,4h1v1h-1V4z M20.5,30h-6v-2h6V30z M44.561,13.275
		c2.547,3.081,3.946,6.975,3.939,10.965C48.498,25.211,47.694,26,46.708,26H21.5h-8h-3.208C9.304,26,8.5,25.195,8.5,24.207V14.95
		C8.5,10.566,12.066,7,16.45,7h0.05h3h3h3h5.792c1.495,0,2.985,0.196,4.428,0.584C39.213,8.523,42.689,9,46.053,9H46.5v1h-0.376
		c-0.789,0-1.489,0.444-1.826,1.16C43.965,11.866,44.066,12.676,44.561,13.275z"/>
</g>
<g>
</g>
<g>
</g>
<g>
</g>
<g>
</g>
<g>
</g>
<g>
</g>
<g>
</g>
<g>
</g>
<g>
</g>
<g>
</g>
<g>
</g>
<g>
</g>
<g>
</g>
<g>
</g>
<g>
</g>
</svg>
