<?xml version="1.0" encoding="iso-8859-1"?>
<!-- Generator: Adobe Illustrator 18.0.0, SVG Export Plug-In . SVG Version: 6.00 Build 0)  -->
<!DOCTYPE svg PUBLIC "-//W3C//DTD SVG 1.1//EN" "http://www.w3.org/Graphics/SVG/1.1/DTD/svg11.dtd">
<svg version="1.1" id="Capa_1" xmlns="http://www.w3.org/2000/svg" xmlns:xlink="http://www.w3.org/1999/xlink" x="0px" y="0px"
	 viewBox="0 0 60 60" style="enable-background:new 0 0 60 60;" xml:space="preserve">
<g>
	<path d="M15.5,50.521V39.773c2.382-2.052,4-6.492,4-11.773c0-1.368-0.126-2.713-0.344-4h0.046l-0.194-0.841
		c-0.021-0.102-0.047-0.199-0.069-0.3l-0.019-0.083c-0.097-0.417-0.197-0.83-0.315-1.222c-0.052-0.172-0.091-0.347-0.116-0.523
		c-0.078-0.528-0.039-1.067,0.117-1.585c0.117-0.391,0.217-0.803,0.314-1.219l0.021-0.088c0.022-0.097,0.046-0.191,0.067-0.289
		L19.204,17h-0.048c0.218-1.287,0.344-2.632,0.344-4c0-7.29-3.075-13-7-13s-7,5.71-7,13c0,1.368,0.126,2.713,0.344,4H5.796
		l0.197,0.849c0.021,0.098,0.045,0.192,0.067,0.289l0.021,0.088c0.097,0.416,0.197,0.828,0.314,1.22
		c0.052,0.172,0.091,0.347,0.116,0.523c0.078,0.528,0.039,1.067-0.117,1.585c-0.117,0.391-0.218,0.804-0.314,1.221l-0.019,0.083
		c-0.023,0.101-0.048,0.198-0.069,0.3L5.797,24h0.046C5.626,25.287,5.5,26.632,5.5,28c0,5.281,1.618,9.721,4,11.773v10.748
		c-3.569,1.259-6,4.641-6,8.479v1h18v-1C21.5,55.162,19.069,51.78,15.5,50.521z M7.5,13c0-6.482,2.635-11,5-11s5,4.518,5,11
		c0,1.377-0.134,2.727-0.372,4H7.872C7.634,15.727,7.5,14.377,7.5,13z M16.652,22H8.348c0.042-0.153,0.066-0.31,0.095-0.465
		c0.015-0.082,0.038-0.163,0.05-0.245c0.074-0.525,0.074-1.056,0-1.581c-0.011-0.081-0.034-0.16-0.049-0.24
		C8.414,19.312,8.39,19.155,8.348,19h8.305c-0.042,0.154-0.066,0.31-0.095,0.465c-0.015,0.082-0.038,0.162-0.05,0.244
		c-0.074,0.525-0.074,1.056,0,1.581c0.011,0.081,0.034,0.16,0.049,0.24C16.586,21.688,16.61,21.845,16.652,22z M7.5,28
		c0-1.377,0.134-2.727,0.372-4h9.255c0.238,1.273,0.372,2.623,0.372,4c0,5.253-1.731,9.215-3.646,10.529
		c-0.02,0.013-0.039,0.024-0.059,0.037c-0.113,0.074-0.227,0.138-0.34,0.193c-0.044,0.021-0.087,0.041-0.131,0.059
		c-0.094,0.039-0.187,0.07-0.281,0.097c-0.048,0.013-0.097,0.029-0.145,0.039c-0.103,0.021-0.205,0.031-0.307,0.036
		c-0.061,0.003-0.122,0.003-0.183,0c-0.102-0.005-0.205-0.015-0.307-0.036c-0.048-0.01-0.097-0.026-0.145-0.039
		c-0.093-0.026-0.187-0.057-0.28-0.097c-0.044-0.018-0.087-0.038-0.131-0.059c-0.114-0.055-0.227-0.119-0.34-0.193
		c-0.02-0.013-0.039-0.023-0.059-0.037C9.231,37.215,7.5,33.253,7.5,28z M16.5,58v-2c0-0.553-0.448-1-1-1s-1,0.447-1,1v2h-1v-2
		c0-0.553-0.448-1-1-1s-1,0.447-1,1v2h-1v-2c0-0.553-0.448-1-1-1s-1,0.447-1,1v2H5.571c0.397-2.758,2.416-5.058,5.179-5.77
		l0.75-0.194V40.872c0.054,0.014,0.109,0.02,0.163,0.031c0.068,0.014,0.135,0.028,0.204,0.039c0.204,0.033,0.41,0.055,0.615,0.056
		c0.006,0,0.012,0.002,0.018,0.002s0.012-0.002,0.018-0.002c0.206-0.001,0.411-0.023,0.615-0.056
		c0.068-0.011,0.136-0.025,0.204-0.039c0.054-0.012,0.109-0.017,0.163-0.031v11.164l0.75,0.194c2.763,0.712,4.781,3.012,5.179,5.77
		H16.5z"/>
	<path d="M12.5,7c-2.206,0-4,1.794-4,4s1.794,4,4,4s4-1.794,4-4S14.706,7,12.5,7z M12.5,13c-1.103,0-2-0.897-2-2s0.897-2,2-2
		s2,0.897,2,2S13.603,13,12.5,13z"/>
	<path d="M56.5,31c0-0.553-0.448-1-1-1h-7v-5c0-0.553-0.448-1-1-1h-1v-2c0-0.553-0.448-1-1-1h-10c-0.552,0-1,0.447-1,1v2h-1
		c-0.552,0-1,0.447-1,1v5h-7c-0.552,0-1,0.447-1,1v6c0,0.025,0.012,0.046,0.014,0.071c0.002,0.022-0.008,0.042-0.005,0.064l3,22
		C27.577,59.631,28,60,28.5,60h9h6h9c0.5,0,0.923-0.369,0.991-0.865l3-22c0.003-0.022-0.007-0.042-0.005-0.064
		C56.488,37.046,56.5,37.025,56.5,37V31z M36.5,23h8v1h-8V23z M34.5,26h1h10h1v4h-12V26z M26.5,32h7h14h7v4h-9h-10h-9V32z M37.5,38
		h6v8h-6V38z M29.373,58l-2.728-20H35.5v10h2v6.858c-1.72-0.447-3-1.999-3-3.858c0-0.553-0.448-1-1-1s-1,0.447-1,1
		c0,2.967,2.167,5.431,5,5.91V58H29.373z M39.5,58V48h2v10H39.5z M51.627,58H43.5v-5.858c1.72,0.447,3,1.999,3,3.858
		c0,0.553,0.448,1,1,1s1-0.447,1-1c0-2.967-2.167-5.431-5-5.91V48h2V38h8.854L51.627,58z"/>
</g>
<g>
</g>
<g>
</g>
<g>
</g>
<g>
</g>
<g>
</g>
<g>
</g>
<g>
</g>
<g>
</g>
<g>
</g>
<g>
</g>
<g>
</g>
<g>
</g>
<g>
</g>
<g>
</g>
<g>
</g>
</svg>
