<svg xmlns="http://www.w3.org/2000/svg" viewBox="0 0 60 60" style="enable-background:new 0 0 60 60" xml:space="preserve"><path d="M29.5 20a1 1 0 0 0-1 1v2a1 1 0 1 0 2 0v-2a1 1 0 0 0-1-1zM33.5 20a1 1 0 0 0-1 1v2a1 1 0 1 0 2 0v-2a1 1 0 0 0-1-1zM37.5 20a1 1 0 0 0-1 1v2a1 1 0 1 0 2 0v-2a1 1 0 0 0-1-1zM41.5 20a1 1 0 0 0-1 1v2a1 1 0 1 0 2 0v-2a1 1 0 0 0-1-1zM42.255 13.302l-1.67-1.113A18.921 18.921 0 0 0 30.055 9H15.5c-2.206 0-4 1.794-4 4s1.794 4 4 4h25.635c.896 0 1.673-.576 1.932-1.435a2.005 2.005 0 0 0-.812-2.263zM41.135 15H15.5c-1.103 0-2-.897-2-2s.897-2 2-2h14.555c3.364 0 6.622.986 9.42 2.853l1.679 1.146-.019.001z"/><path d="M47.5 12a1 1 0 0 0 1-1v-1c2.757 0 5-2.243 5-5s-2.243-5-5-5a1 1 0 1 0 0 2c1.654 0 3 1.346 3 3s-1.346 3-3 3a1 1 0 0 0-1-1h-1.447c-3.188 0-6.49-.453-9.813-1.348A19.13 19.13 0 0 0 31.292 5H26.5V3a1 1 0 0 0-1-1h-3a1 1 0 0 0-1 1v2h-1V3a1 1 0 0 0-1-1h-3a1 1 0 0 0-1 1v2.048c-5.042.48-9 4.737-9 9.902v9.257A3.796 3.796 0 0 0 10.292 28H12.5v3a1 1 0 0 0 1 1h3v8.531c-1.493 1.245-6.618 5.87-6.98 11.026-.164 2.338.657 4.45 2.442 6.277l.034.033c1.422 1.324 3.259 2.02 5.128 2.103a2.686 2.686 0 0 0 .807-.003c1.86-.096 3.697-.8 5.127-2.133 1.767-1.81 2.582-3.905 2.424-6.229-.352-5.182-5.516-9.859-6.981-11.087V32h3a1 1 0 0 0 1-1v-3h24.208c2.087 0 3.789-1.685 3.792-3.756a19.25 19.25 0 0 0-4.386-12.243l.009-.001H47.5zM18.677 57.005c-.351.632-.777.995-1.168.995s-.816-.363-1.133-.926c-.841-1.839-.906-3.321-.869-4.406.097-2.83 1-6.222 1.982-8.948.997 2.773 1.914 6.212 2.004 9.04.036 1.135-.037 2.535-.816 4.245zm-7.162-5.304c.179-2.563 1.884-5.081 3.517-6.938-.794 2.528-1.439 5.367-1.524 7.837-.038 1.123.019 2.602.704 4.451a5.808 5.808 0 0 1-.837-.631c-1.374-1.416-1.982-2.959-1.86-4.719zm11.97.039c.12 1.756-.489 3.293-1.826 4.664a5.834 5.834 0 0 1-.845.643c.651-1.75.715-3.171.678-4.351-.079-2.488-.741-5.387-1.555-7.967 1.644 1.87 3.372 4.418 3.548 7.011zM23.5 4h1v1h-1V4zm-6 0h1v1h-1V4zm3 26h-6v-2h6v2zm24.061-16.725A17.2 17.2 0 0 1 48.5 24.24c-.002.971-.806 1.76-1.792 1.76H10.292A1.795 1.795 0 0 1 8.5 24.207V14.95C8.5 10.566 12.066 7 16.45 7h14.842c1.495 0 2.985.196 4.428.584C39.213 8.523 42.689 9 46.053 9h.447v1h-.376c-.789 0-1.489.444-1.826 1.16a1.97 1.97 0 0 0 .263 2.115z"/></svg>