<?xml version="1.0" encoding="iso-8859-1"?>
<!-- Generator: Adobe Illustrator 18.0.0, SVG Export Plug-In . SVG Version: 6.00 Build 0)  -->
<!DOCTYPE svg PUBLIC "-//W3C//DTD SVG 1.1//EN" "http://www.w3.org/Graphics/SVG/1.1/DTD/svg11.dtd">
<svg version="1.1" id="Capa_1" xmlns="http://www.w3.org/2000/svg" xmlns:xlink="http://www.w3.org/1999/xlink" x="0px" y="0px"
	 viewBox="0 0 56 56" style="enable-background:new 0 0 56 56;" xml:space="preserve">
<g>
	<path d="M12.5,30h31V18h-31V30z M14.5,20h27v8h-27V20z"/>
	<path d="M12.5,47h31V35h-31V47z M14.5,37h27v8h-27V37z"/>
	<path d="M50.5,12h-2H37.394c2.564-1.185,4.106-2.813,4.106-4.667c0-0.329-0.06-0.673-0.183-1.052l-0.292-0.898l-0.914,0.241
		c-0.215,0.057-0.447,0.098-0.667,0.15C39.166,3.65,37.365,2,35.167,2c-0.753,0-1.467,0.209-2.106,0.569
		c-0.917-1.15-2.312-1.902-3.894-1.902c-1.018,0-1.983,0.305-2.803,0.866C25.35,0.585,23.994,0,22.5,0
		c-2.306,0-4.337,1.407-5.209,3.466c-1.919-0.488-3.988,0.17-5.102,1.781C11.732,5.909,11.5,6.61,11.5,7.333
		c0,1.854,1.542,3.482,4.106,4.667H7.5h-2c-0.552,0-1,0.447-1,1s0.448,1,1,1h2v34.03c0,2.74,2.229,4.97,4.97,4.97h0.03v2
		c0,0.553,0.448,1,1,1s1-0.447,1-1v-2h27v2c0,0.553,0.448,1,1,1s1-0.447,1-1v-2h0.03c2.74,0,4.97-2.229,4.97-4.97V14h2
		c0.552,0,1-0.447,1-1S51.052,12,50.5,12z M33.981,4.324C34.337,4.112,34.743,4,35.167,4c1.232,0,2.242,0.959,2.326,2.169
		c-0.386,0.065-0.774,0.128-1.171,0.18c-0.141,0.019-0.279,0.043-0.422,0.06c-0.597,0.071-1.207,0.122-1.82,0.163
		c0.005-0.024,0.003-0.048,0.007-0.072c0.047-0.275,0.079-0.553,0.079-0.833c0-0.3-0.037-0.595-0.09-0.887
		c-0.015-0.083-0.032-0.165-0.052-0.247C34.009,4.464,34.001,4.393,33.981,4.324z M29.167,2.667c1.216,0,2.259,0.73,2.73,1.771
		c0.076,0.167,0.13,0.339,0.174,0.513c0.007,0.03,0.021,0.057,0.027,0.087c0.045,0.206,0.069,0.416,0.069,0.629
		c0,0.236-0.036,0.467-0.093,0.693c-0.01,0.042-0.021,0.083-0.032,0.124c-0.017,0.058-0.05,0.112-0.071,0.169
		c-0.079,0.001-0.158,0.007-0.237,0.007c-0.312,0.003-0.625-0.005-0.937-0.011c-0.337-0.006-0.675-0.01-1.009-0.025
		c-0.302-0.014-0.601-0.038-0.901-0.059c-0.263-0.018-0.526-0.035-0.786-0.059c0.044-0.28,0.067-0.559,0.067-0.839
		c0-0.211-0.014-0.419-0.036-0.624c-0.007-0.064-0.02-0.126-0.029-0.19c-0.021-0.142-0.043-0.283-0.074-0.421
		c-0.016-0.071-0.036-0.14-0.054-0.21c-0.035-0.133-0.073-0.263-0.118-0.392c-0.022-0.065-0.046-0.129-0.071-0.193
		c-0.054-0.14-0.113-0.276-0.177-0.41c-0.015-0.032-0.026-0.065-0.042-0.096C28.04,2.829,28.589,2.667,29.167,2.667z M22.5,2
		c1.235,0,2.323,0.618,2.988,1.556c0.054,0.076,0.098,0.157,0.146,0.236c0.066,0.109,0.129,0.22,0.183,0.337
		c0.037,0.08,0.07,0.161,0.102,0.244c0.051,0.134,0.093,0.271,0.128,0.411C26.065,4.855,26.086,4.927,26.099,5
		c0.04,0.217,0.067,0.439,0.067,0.667c0,0.199-0.025,0.401-0.062,0.604c-0.03-0.005-0.062-0.007-0.091-0.012
		c-0.612-0.093-1.209-0.201-1.789-0.324c-0.203-0.043-0.392-0.096-0.59-0.142C23.238,5.7,22.842,5.606,22.466,5.5
		c-0.207-0.058-0.402-0.125-0.603-0.187c-0.348-0.108-0.692-0.219-1.018-0.339c-0.193-0.07-0.376-0.146-0.561-0.22
		c-0.309-0.124-0.608-0.252-0.892-0.386C19.3,4.325,19.214,4.28,19.125,4.236C19.689,2.906,21.009,2,22.5,2z M13.5,7.333
		c0-0.313,0.109-0.623,0.335-0.949c0.493-0.713,1.328-1.099,2.206-1.099c0.485,0,0.981,0.125,1.441,0.371l0.094,0.043
		c0.371,0.206,0.768,0.399,1.178,0.586c0.109,0.05,0.221,0.098,0.333,0.146c0.357,0.155,0.727,0.302,1.11,0.442
		c0.087,0.032,0.169,0.065,0.257,0.096c0.448,0.157,0.914,0.303,1.394,0.44c0.157,0.045,0.318,0.086,0.478,0.128
		c0.34,0.09,0.687,0.176,1.041,0.256c0.196,0.045,0.391,0.09,0.591,0.132c0.47,0.097,0.948,0.186,1.439,0.265
		c0.008,0.001,0.016,0.003,0.024,0.005l-0.008,0.021l1.284,0.159c0.006,0.001,0.012,0.002,0.018,0.003l0.767,0.095l0.002-0.005
		c0.404,0.041,0.82,0.064,1.232,0.093c0.167,0.012,0.332,0.028,0.5,0.038c0.554,0.031,1.116,0.046,1.681,0.054l-0.027,0.047
		l1.776-0.05c0.007,0,0.014,0,0.021,0l0.561-0.017l0.006-0.01c0.197-0.008,0.394-0.018,0.59-0.029
		c0.499-0.029,0.993-0.067,1.482-0.114c0.106-0.01,0.213-0.017,0.318-0.028c0.594-0.062,1.179-0.14,1.757-0.229
		c0.152-0.023,0.299-0.051,0.45-0.076c0.261-0.044,0.526-0.084,0.783-0.133l0.651-0.126l0.002-0.011
		c0.044-0.009,0.09-0.016,0.133-0.025C38.621,9.905,33.36,12,26.5,12C19.06,12,13.5,9.536,13.5,7.333z M46.5,48.03
		c0,1.638-1.332,2.97-2.97,2.97H12.47c-1.638,0-2.97-1.332-2.97-2.97V14h37V48.03z"/>
	<path d="M31.5,23h-7c-0.552,0-1,0.447-1,1s0.448,1,1,1h7c0.552,0,1-0.447,1-1S32.052,23,31.5,23z"/>
	<path d="M31.5,40h-7c-0.552,0-1,0.447-1,1s0.448,1,1,1h7c0.552,0,1-0.447,1-1S32.052,40,31.5,40z"/>
</g>
<g>
</g>
<g>
</g>
<g>
</g>
<g>
</g>
<g>
</g>
<g>
</g>
<g>
</g>
<g>
</g>
<g>
</g>
<g>
</g>
<g>
</g>
<g>
</g>
<g>
</g>
<g>
</g>
<g>
</g>
</svg>
