<svg xmlns="http://www.w3.org/2000/svg" viewBox="0 0 56 56" style="enable-background:new 0 0 56 56" xml:space="preserve"><path d="M12.5 30h31V18h-31v12zm2-10h27v8h-27v-8zM12.5 47h31V35h-31v12zm2-10h27v8h-27v-8z"/><path d="M50.5 12H37.394c2.564-1.185 4.106-2.813 4.106-4.667 0-.329-.06-.673-.183-1.052l-.292-.898-.914.241c-.215.057-.447.098-.667.15C39.166 3.65 37.365 2 35.167 2c-.753 0-1.467.209-2.106.569-.917-1.15-2.312-1.902-3.894-1.902a4.937 4.937 0 0 0-2.803.866A5.64 5.64 0 0 0 22.5 0c-2.306 0-4.337 1.407-5.209 3.466-1.919-.488-3.988.17-5.102 1.781-.457.662-.689 1.363-.689 2.086 0 1.854 1.542 3.482 4.106 4.667H5.5a1 1 0 1 0 0 2h2v34.03c0 2.74 2.229 4.97 4.97 4.97h.03v2a1 1 0 1 0 2 0v-2h27v2a1 1 0 1 0 2 0v-2h.03c2.74 0 4.97-2.229 4.97-4.97V14h2a1 1 0 1 0 0-2zM33.981 4.324a2.334 2.334 0 0 1 3.512 1.845c-.386.065-.774.128-1.171.18-.141.019-.279.043-.422.06-.597.071-1.207.122-1.82.163.005-.024.003-.048.007-.072.047-.275.079-.553.079-.833a4.96 4.96 0 0 0-.142-1.134c-.015-.069-.023-.14-.043-.209zm-4.814-1.657a3 3 0 0 1 2.904 2.284c.007.03.021.057.027.087.045.206.069.416.069.629 0 .236-.036.467-.093.693l-.032.124c-.017.058-.05.112-.071.169-.079.001-.158.007-.237.007-.312.003-.625-.005-.937-.011-.337-.006-.675-.01-1.009-.025-.302-.014-.601-.038-.901-.059-.263-.018-.526-.035-.786-.059a5.392 5.392 0 0 0 .031-1.463c-.007-.064-.02-.126-.029-.19a5.78 5.78 0 0 0-.074-.421c-.016-.071-.036-.14-.054-.21a5.209 5.209 0 0 0-.189-.585 5.753 5.753 0 0 0-.177-.41c-.015-.032-.026-.065-.042-.096a2.957 2.957 0 0 1 1.6-.464zM22.5 2c1.235 0 2.323.618 2.988 1.556.054.076.098.157.146.236a3.416 3.416 0 0 1 .413.992c.018.071.039.143.052.216.04.217.067.439.067.667 0 .199-.025.401-.062.604-.03-.005-.062-.007-.091-.012a31.285 31.285 0 0 1-1.789-.324c-.203-.043-.392-.096-.59-.142a27.66 27.66 0 0 1-1.168-.293c-.207-.058-.402-.125-.603-.187a20.929 20.929 0 0 1-1.018-.339c-.193-.07-.376-.146-.561-.22a16.48 16.48 0 0 1-.892-.386c-.092-.043-.178-.088-.267-.132A3.675 3.675 0 0 1 22.5 2zm-9 5.333c0-.313.109-.623.335-.949.493-.713 1.328-1.099 2.206-1.099.485 0 .981.125 1.441.371l.094.043a16.786 16.786 0 0 0 1.511.732c.357.155.727.302 1.11.442.087.032.169.065.257.096.448.157.914.303 1.394.44.157.045.318.086.478.128.34.09.687.176 1.041.256.196.045.391.09.591.132.47.097.948.186 1.439.265l.024.005-.008.021 1.284.159.018.003.767.095.002-.005c.404.041.82.064 1.232.093.167.012.332.028.5.038a40.4 40.4 0 0 0 1.681.054l-.027.047 1.776-.05h.021l.561-.017.006-.01a38.193 38.193 0 0 0 2.072-.143c.106-.01.213-.017.318-.028.594-.062 1.179-.14 1.757-.229.152-.023.299-.051.45-.076.261-.044.526-.084.783-.133l.651-.126.002-.011.133-.025C38.621 9.905 33.36 12 26.5 12c-7.44 0-13-2.464-13-4.667zm33 40.697A2.973 2.973 0 0 1 43.53 51H12.47a2.973 2.973 0 0 1-2.97-2.97V14h37v34.03z"/><path d="M31.5 23h-7a1 1 0 1 0 0 2h7a1 1 0 1 0 0-2zM31.5 40h-7a1 1 0 1 0 0 2h7a1 1 0 1 0 0-2z"/></svg>