<svg xmlns="http://www.w3.org/2000/svg" viewBox="0 0 59 59" style="enable-background:new 0 0 59 59" xml:space="preserve"><path d="M48.5 22.5h-38C6.916 22.5 4 25.416 4 29s2.916 6.5 6.5 6.5h38c3.584 0 6.5-2.916 6.5-6.5s-2.916-6.5-6.5-6.5zm0 11h-38C8.019 33.5 6 31.481 6 29s2.019-4.5 4.5-4.5h38c2.481 0 4.5 2.019 4.5 4.5s-2.019 4.5-4.5 4.5z"/><path d="M59 29c0-5.79-4.71-10.5-10.5-10.5H36a.997.997 0 0 0-.293-.707l-1.621-1.621A6.991 6.991 0 0 0 37 10.5c0-.771-.13-1.512-.362-2.206C38.008 7.819 39 6.529 39 5c0-1.93-1.57-3.5-3.5-3.5-1.529 0-2.819.992-3.294 2.362C31.512 3.63 30.771 3.5 30 3.5s-1.512.13-2.206.362C27.319 2.492 26.029 1.5 24.5 1.5 22.57 1.5 21 3.07 21 5c0 1.529.992 2.819 2.362 3.294A6.945 6.945 0 0 0 23 10.5a6.991 6.991 0 0 0 2.914 5.672l-1.621 1.621A.997.997 0 0 0 24 18.5H10.5C4.71 18.5 0 23.21 0 29c0 5.613 4.43 10.197 9.975 10.473l-2.96 16.854A1 1 0 0 0 8 57.5h2.513a1 1 0 0 0 .97-.758l4.31-17.242h27.413l4.311 17.242a1 1 0 0 0 .97.758H51a1.002 1.002 0 0 0 .985-1.172l-2.96-16.854C54.57 39.197 59 34.613 59 29zM35.5 3.5c.827 0 1.5.673 1.5 1.5 0 .752-.558 1.37-1.28 1.478a7.071 7.071 0 0 0-1.697-1.698A1.497 1.497 0 0 1 35.5 3.5zM23 5c0-.827.673-1.5 1.5-1.5.752 0 1.37.558 1.478 1.28a7.035 7.035 0 0 0-1.697 1.698A1.499 1.499 0 0 1 23 5zm2 5.5c0-2.757 2.243-5 5-5s5 2.243 5 5-2.243 5-5 5-5-2.243-5-5zm2.707 6.707c.024-.024.033-.055.054-.081.704.239 1.455.374 2.239.374s1.535-.135 2.239-.374c.021.026.03.057.054.081l1.293 1.293h-7.172l1.293-1.293zM9.732 55.5h-.541l2.811-16h1.73l-4 16zm39.536 0-4-16h1.73l2.811 16h-.541zm-.768-18h-38C5.813 37.5 2 33.687 2 29s3.813-8.5 8.5-8.5h38c4.687 0 8.5 3.813 8.5 8.5s-3.813 8.5-8.5 8.5z"/><path d="m29.294 11.208 1.999 1.999a.997.997 0 0 0 1.414 0 .999.999 0 0 0 0-1.414L31 10.086V7.5a1 1 0 1 0-2 0v3a1.01 1.01 0 0 0 .294.708z"/><circle cx="21.5" cy="29" r="1.5"/><circle cx="38.5" cy="29" r="1.5"/></svg>