<svg xmlns="http://www.w3.org/2000/svg" viewBox="0 0 60 60" style="enable-background:new 0 0 60 60" xml:space="preserve"><path d="M57 40V9c1.654 0 3-1.346 3-3s-1.346-3-3-3H3C1.346 3 0 4.346 0 6s1.346 3 3 3v31a1 1 0 0 0 1 1h3.835c-1.287 1.731-2.426 4.168-1.813 6.995.654 3.015-.284 4.079-.479 4.263a.653.653 0 0 0-.046.045l-3.18 2.966A1 1 0 0 0 3 57h1.108C10.092 57 13 53.985 13 47.783c0-4.65 2.923-6.536 3.073-6.631l.229-.152h27.395l.254.169c.126.078 3.049 1.964 3.049 6.614C47 53.985 49.908 57 55.892 57H57a1 1 0 0 0 .682-1.732l-3.18-2.966a.653.653 0 0 0-.046-.045c-.194-.184-1.133-1.248-.479-4.263.613-2.828-.526-5.264-1.813-6.995H56A.998.998 0 0 0 57 40zM2 6a1 1 0 0 1 1-1h54a1 1 0 0 1 0 2H3a1 1 0 0 1-1-1zm53 3v14H5V9h50zM11 47.783c0 4.492-1.626 6.697-5.374 7.135l1.26-1.175a.837.837 0 0 0 .052-.051c.609-.587 1.865-2.316 1.04-6.121-.609-2.802 1.17-5.227 2.477-6.571h2.852C12.213 42.306 11 44.495 11 47.783zm41.022-.212c-.822 3.79.421 5.521 1.039 6.119a.663.663 0 0 0 .053.053l1.26 1.175C50.626 54.48 49 52.275 49 47.783c0-3.29-1.214-5.48-2.305-6.783h2.85c1.307 1.344 3.086 3.769 2.477 6.571zM55 39H5V25h50v14z"/><path d="M7.2 19.03c.918-.191 1.8.543 1.8 1.47 0 .1-.01.201-.03.3-.061.294.015.6.205.832a.996.996 0 0 0 .774.368h40.102a.996.996 0 0 0 .774-.368.995.995 0 0 0 .205-.832c-.02-.099-.03-.2-.03-.3 0-.927.879-1.662 1.8-1.47a.987.987 0 0 0 .832-.205.996.996 0 0 0 .368-.774v-4.102a.996.996 0 0 0-.368-.774.992.992 0 0 0-.832-.205c-.92.19-1.8-.543-1.8-1.47 0-.1.01-.201.03-.3a.995.995 0 0 0-.205-.832.996.996 0 0 0-.774-.368H9.949a.996.996 0 0 0-.774.368.995.995 0 0 0-.205.832c.02.099.03.2.03.3 0 .927-.883 1.659-1.8 1.47a1 1 0 0 0-1.2.979v4.102c0 .301.135.585.368.774.232.19.535.266.832.205zm.8-4.065A3.513 3.513 0 0 0 10.965 12h38.07A3.513 3.513 0 0 0 52 14.965v2.07A3.513 3.513 0 0 0 49.035 20h-38.07A3.513 3.513 0 0 0 8 17.035v-2.07zM7.2 35.03c.918-.191 1.8.543 1.8 1.47 0 .1-.01.201-.03.3-.061.294.015.6.205.832a.996.996 0 0 0 .774.368h40.102a.996.996 0 0 0 .774-.368.995.995 0 0 0 .205-.832c-.02-.099-.03-.2-.03-.3 0-.927.879-1.662 1.8-1.47a.99.99 0 0 0 .832-.205.996.996 0 0 0 .368-.774v-4.102a.996.996 0 0 0-.368-.774.992.992 0 0 0-.832-.205c-.92.19-1.8-.543-1.8-1.47 0-.1.01-.201.03-.3a.995.995 0 0 0-.205-.832.996.996 0 0 0-.774-.368H9.949a.996.996 0 0 0-.774.368.995.995 0 0 0-.205.832c.02.099.03.2.03.3 0 .927-.883 1.659-1.8 1.47a1 1 0 0 0-1.2.979v4.102c0 .301.135.585.368.774.232.19.535.266.832.205zm.8-4.065A3.513 3.513 0 0 0 10.965 28h38.07A3.513 3.513 0 0 0 52 30.965v2.07A3.513 3.513 0 0 0 49.035 36h-38.07A3.513 3.513 0 0 0 8 33.035v-2.07z"/><path d="M27 34h6c1.654 0 3-1.346 3-3a1 1 0 1 0-2 0 1 1 0 0 1-1 1h-6a1 1 0 0 1-1-1 1 1 0 1 0-2 0c0 1.654 1.346 3 3 3zM27 18h6c1.654 0 3-1.346 3-3a1 1 0 1 0-2 0 1 1 0 0 1-1 1h-6a1 1 0 0 1-1-1 1 1 0 1 0-2 0c0 1.654 1.346 3 3 3z"/></svg>