<?xml version="1.0" encoding="iso-8859-1"?>
<!-- Generator: Adobe Illustrator 18.0.0, SVG Export Plug-In . SVG Version: 6.00 Build 0)  -->
<!DOCTYPE svg PUBLIC "-//W3C//DTD SVG 1.1//EN" "http://www.w3.org/Graphics/SVG/1.1/DTD/svg11.dtd">
<svg version="1.1" id="Capa_1" xmlns="http://www.w3.org/2000/svg" xmlns:xlink="http://www.w3.org/1999/xlink" x="0px" y="0px"
	 viewBox="0 0 60 60" style="enable-background:new 0 0 60 60;" xml:space="preserve">
<g>
	<path d="M51,24h-2c-1.654,0-3,1.346-3,3s1.346,3,3,3v2c0,1.355-0.908,2.489-2.143,2.86C46.338,32.653,44.363,31,42,31h-4.826
		C41.255,28.551,44,24.096,44,19V7.868C44,3.529,40.471,0,36.132,0H23.868C19.529,0,16,3.529,16,7.868V19
		c0,5.096,2.745,9.551,6.826,12H18c-2.363,0-4.338,1.653-4.857,3.86C11.908,34.489,11,33.355,11,32v-2c1.654,0,3-1.346,3-3
		s-1.346-3-3-3H9c-1.654,0-3,1.346-3,3s1.346,3,3,3v2c0,2.414,1.721,4.434,4,4.899V37h13v3h1v3h2v2h-2v1.204l-12.225,2.821
		c-0.03,0.007-0.051,0.027-0.08,0.036c-0.065,0.021-0.123,0.049-0.182,0.082c-0.056,0.032-0.108,0.064-0.156,0.105
		c-0.048,0.041-0.088,0.087-0.128,0.137c-0.041,0.051-0.077,0.101-0.107,0.159c-0.029,0.055-0.048,0.112-0.066,0.172
		c-0.02,0.066-0.034,0.13-0.04,0.2C14.014,49.945,14,49.97,14,50v1.051c-2.244,0.252-4,2.139-4,4.449c0,2.481,2.019,4.5,4.5,4.5
		s4.5-2.019,4.5-4.5c0-1.953-1.258-3.602-3-4.224v-0.481l11-2.538v0.329l-2.422,2.422C24.551,51.007,24.527,51,24.5,51
		c-2.481,0-4.5,2.019-4.5,4.5s2.019,4.5,4.5,4.5s4.5-2.019,4.5-4.5c0-1.648-0.9-3.077-2.225-3.861L28.414,50h3.172l1.639,1.639
		C31.9,52.423,31,53.852,31,55.5c0,2.481,2.019,4.5,4.5,4.5s4.5-2.019,4.5-4.5S37.981,51,35.5,51c-0.027,0-0.051,0.007-0.078,0.008
		L33,48.586v-0.329l11,2.538v0.481c-1.742,0.621-3,2.271-3,4.224c0,2.481,2.019,4.5,4.5,4.5s4.5-2.019,4.5-4.5
		c0-2.31-1.756-4.197-4-4.449V50c0-0.03-0.014-0.055-0.017-0.084c-0.006-0.07-0.02-0.134-0.04-0.2
		c-0.018-0.06-0.037-0.117-0.066-0.172c-0.03-0.058-0.066-0.108-0.107-0.159c-0.04-0.05-0.079-0.096-0.128-0.137
		c-0.048-0.041-0.1-0.073-0.156-0.105c-0.058-0.033-0.116-0.061-0.182-0.082c-0.028-0.009-0.05-0.029-0.08-0.036L33,46.204V45h-2v-2
		h2v-3h1v-2.586l3.293,3.293c0.092,0.092,0.203,0.165,0.325,0.216C37.74,40.973,37.87,41,38,41h3c0.552,0,1-0.448,1-1s-0.448-1-1-1
		h-2.586l-2-2H47v-0.101c2.279-0.465,4-2.484,4-4.899v-2c1.654,0,3-1.346,3-3S52.654,24,51,24z M8,27c0-0.551,0.449-1,1-1h2
		c0.551,0,1,0.449,1,1s-0.449,1-1,1H9C8.449,28,8,27.551,8,27z M17,55.5c0,1.378-1.122,2.5-2.5,2.5S12,56.878,12,55.5
		s1.122-2.5,2.5-2.5S17,54.122,17,55.5z M24.5,58c-1.378,0-2.5-1.122-2.5-2.5s1.122-2.5,2.5-2.5s2.5,1.122,2.5,2.5
		S25.878,58,24.5,58z M38,55.5c0,1.378-1.122,2.5-2.5,2.5S33,56.878,33,55.5s1.122-2.5,2.5-2.5S38,54.122,38,55.5z M48,55.5
		c0,1.378-1.122,2.5-2.5,2.5S43,56.878,43,55.5s1.122-2.5,2.5-2.5S48,54.122,48,55.5z M29,47h2v1h-2V47z M18,19V7.868
		C18,4.632,20.632,2,23.868,2h12.265C39.368,2,42,4.632,42,7.868V19c0,6.617-5.383,12-12,12S18,25.617,18,19z M32,38h-4v-1h4V38z
		 M31,41h-2v-1h2V41z M34,35h-8H15.171c0.413-1.164,1.525-2,2.829-2h24c1.304,0,2.416,0.836,2.829,2H34z M51,28h-2
		c-0.551,0-1-0.449-1-1s0.449-1,1-1h2c0.551,0,1,0.449,1,1S51.551,28,51,28z"/>
	<path d="M33.707,8.293c-0.391-0.391-1.023-0.391-1.414,0l-0.92,0.92c-0.866-0.425-1.88-0.425-2.747,0l-0.92-0.92
		c-0.391-0.391-1.023-0.391-1.414,0s-0.391,1.023,0,1.414l0.92,0.92c-0.426,0.866-0.426,1.88,0,2.747l-0.92,0.92
		c-0.391,0.391-0.391,1.023,0,1.414C26.488,15.902,26.744,16,27,16s0.512-0.098,0.707-0.293l0.92-0.92
		C29.06,15,29.527,15.12,30,15.12s0.94-0.12,1.373-0.332l0.92,0.92C32.488,15.902,32.744,16,33,16s0.512-0.098,0.707-0.293
		c0.391-0.391,0.391-1.023,0-1.414l-0.919-0.919c0.426-0.866,0.426-1.881,0-2.747l0.919-0.919
		C34.098,9.316,34.098,8.684,33.707,8.293z M29.207,12.793c-0.437-0.438-0.437-1.148,0-1.586c0.219-0.219,0.506-0.328,0.793-0.328
		s0.574,0.109,0.793,0.328c0.437,0.438,0.437,1.148,0,1.586C30.355,13.23,29.645,13.23,29.207,12.793z"/>
</g>
<g>
</g>
<g>
</g>
<g>
</g>
<g>
</g>
<g>
</g>
<g>
</g>
<g>
</g>
<g>
</g>
<g>
</g>
<g>
</g>
<g>
</g>
<g>
</g>
<g>
</g>
<g>
</g>
<g>
</g>
</svg>
