<svg xmlns="http://www.w3.org/2000/svg" viewBox="0 0 60 60" style="enable-background:new 0 0 60 60" xml:space="preserve"><circle cx="26.5" cy="9" r="1"/><circle cx="32.5" cy="9" r="1"/><circle cx="29.5" cy="12" r="1"/><circle cx="29.5" cy="18" r="1"/><circle cx="26.5" cy="15" r="1"/><circle cx="32.5" cy="15" r="1"/><circle cx="26.5" cy="21" r="1"/><circle cx="32.5" cy="21" r="1"/><path d="M54.5 22h-10a1 1 0 0 0 0 2h1v4h3v2c0 1.654-1.346 3-3 3-.018 0-.032.009-.05.01C45.209 31.314 43.762 30 42 30h-9.5v-1h5.507a3.998 3.998 0 0 0 3.93-3.269l3.89-21.007a3.983 3.983 0 0 0-.858-3.283A3.982 3.982 0 0 0 41.897 0H18.103a3.982 3.982 0 0 0-3.072 1.441 3.984 3.984 0 0 0-.858 3.283l3.89 21.007A3.997 3.997 0 0 0 21.993 29H26.5v1H17a3.503 3.503 0 0 0-3.433 2.837A2.994 2.994 0 0 1 11.5 30v-2h3v-4h1a1 1 0 0 0 0-2h-10a1 1 0 0 0 0 2h1v4h3v2c0 2.522 1.883 4.592 4.313 4.931A3.502 3.502 0 0 0 17 37h8.5v3h1v3h2v2h-2v1.204l-12.225 2.821c-.03.007-.051.027-.08.036a.993.993 0 0 0-.182.082.99.99 0 0 0-.156.105.98.98 0 0 0-.128.137.942.942 0 0 0-.107.159.94.94 0 0 0-.066.172.958.958 0 0 0-.04.2c-.002.029-.016.054-.016.084v1.051c-2.244.252-4 2.139-4 4.449 0 2.481 2.019 4.5 4.5 4.5s4.5-2.019 4.5-4.5c0-1.953-1.258-3.602-3-4.224v-.481l11-2.538v.329l-2.422 2.422C24.051 51.007 24.027 51 24 51c-2.481 0-4.5 2.019-4.5 4.5S21.519 60 24 60s4.5-2.019 4.5-4.5c0-1.648-.9-3.077-2.225-3.861L27.914 50h3.172l1.639 1.639C31.4 52.423 30.5 53.852 30.5 55.5c0 2.481 2.019 4.5 4.5 4.5s4.5-2.019 4.5-4.5S37.481 51 35 51c-.027 0-.051.007-.078.008L32.5 48.586v-.329l11 2.538v.481c-1.742.621-3 2.271-3 4.224 0 2.481 2.019 4.5 4.5 4.5s4.5-2.019 4.5-4.5c0-2.31-1.756-4.197-4-4.449V50c0-.03-.014-.055-.017-.084a.958.958 0 0 0-.04-.2.94.94 0 0 0-.066-.172.942.942 0 0 0-.107-.159.924.924 0 0 0-.128-.137.99.99 0 0 0-.156-.105.936.936 0 0 0-.182-.082c-.028-.009-.05-.029-.08-.036L32.5 46.204V45h-2v-2h2v-3h1v-2.586l3.293 3.293A1.01 1.01 0 0 0 37.5 41h3a1 1 0 0 0 0-2h-2.586l-2-2H42a3.5 3.5 0 0 0 3.184-2.064c.1.034.204.064.316.064 2.757 0 5-2.243 5-5v-2h3v-4h1a1 1 0 0 0 0-2zm-46 2h4v2h-4v-2zm8 31.5c0 1.378-1.122 2.5-2.5 2.5s-2.5-1.122-2.5-2.5S12.622 53 14 53s2.5 1.122 2.5 2.5zM24 58c-1.378 0-2.5-1.122-2.5-2.5S22.622 53 24 53s2.5 1.122 2.5 2.5S25.378 58 24 58zm13.5-2.5c0 1.378-1.122 2.5-2.5 2.5s-2.5-1.122-2.5-2.5S33.622 53 35 53s2.5 1.122 2.5 2.5zm10 0c0 1.378-1.122 2.5-2.5 2.5s-2.5-1.122-2.5-2.5S43.622 53 45 53s2.5 1.122 2.5 2.5zm-19-8.5h2v1h-2v-1zm-6.507-20a1.997 1.997 0 0 1-1.963-1.633L16.139 4.36a1.993 1.993 0 0 1 .428-1.64c.381-.458.941-.72 1.536-.72h23.795a1.99 1.99 0 0 1 1.535.72 1.99 1.99 0 0 1 .428 1.64l-3.89 21.007A1.998 1.998 0 0 1 38.007 27H21.993zm6.507 2h2v1h-2v-1zm3 9h-4v-1h4v1zm-1 3h-2v-1h2v1zM42 35H17c-.827 0-1.5-.673-1.5-1.5S16.173 32 17 32h25c.827 0 1.5.673 1.5 1.5S42.827 35 42 35zm9.5-9h-4v-2h4v2z"/></svg>