<svg xmlns="http://www.w3.org/2000/svg" viewBox="0 0 60 60" style="enable-background:new 0 0 60 60" xml:space="preserve"><path d="M46 51.051V50c0-.03-.014-.055-.017-.084a.94.94 0 0 0-.04-.198.935.935 0 0 0-.067-.174.907.907 0 0 0-.105-.156.959.959 0 0 0-.13-.14.952.952 0 0 0-.153-.103.99.99 0 0 0-.184-.084c-.028-.009-.05-.029-.079-.036L33 46.204V45h-2v-2h2v-3h1v-2.586l3.292 3.292A1.01 1.01 0 0 0 38 41h3a1 1 0 1 0 0-2h-2.586l-2-2H46v-1.992A4.013 4.013 0 0 0 41.992 31H33v-1h10V9.576A5.003 5.003 0 0 0 46 5c0-2.757-2.243-5-5-5H19c-2.757 0-5 2.243-5 5a5.003 5.003 0 0 0 3 4.576V30h10v1h-8.992A4.013 4.013 0 0 0 14 35.008V37h12v3h1v3h2v2h-2v1.204l-12.225 2.821c-.029.007-.051.027-.079.036a.928.928 0 0 0-.184.084.952.952 0 0 0-.153.103.959.959 0 0 0-.13.14.968.968 0 0 0-.105.156 1.043 1.043 0 0 0-.067.174.94.94 0 0 0-.04.198c-.003.029-.017.054-.017.084v1.051c-2.244.252-4 2.139-4 4.449 0 2.481 2.019 4.5 4.5 4.5s4.5-2.019 4.5-4.5c0-1.953-1.258-3.602-3-4.224v-.481l11-2.538v.329l-2.422 2.422c-.027-.001-.051-.008-.078-.008-2.481 0-4.5 2.019-4.5 4.5s2.019 4.5 4.5 4.5 4.5-2.019 4.5-4.5c0-1.648-.9-3.077-2.225-3.861L28.414 50h3.172l1.639 1.639C31.9 52.423 31 53.852 31 55.5c0 2.481 2.019 4.5 4.5 4.5s4.5-2.019 4.5-4.5-2.019-4.5-4.5-4.5c-.027 0-.051.007-.078.008L33 48.586v-.329l11 2.538v.481c-1.742.621-3 2.271-3 4.224 0 2.481 2.019 4.5 4.5 4.5s4.5-2.019 4.5-4.5c0-2.31-1.756-4.197-4-4.449zM16 5c0-1.654 1.346-3 3-3h22c1.654 0 3 1.346 3 3s-1.346 3-3 3H19c-1.654 0-3-1.346-3-3zm9 23a1 1 0 1 0-2 0h-4v-2a1 1 0 1 0 0-2v-2a1 1 0 1 0 0-2v-2a1 1 0 1 0 0-2v-2a1 1 0 1 0 0-2v-2h4a1 1 0 1 0 2 0h4a1 1 0 1 0 2 0h4a1 1 0 1 0 2 0h4v2a1 1 0 1 0 0 2v2a1 1 0 1 0 0 2v2a1 1 0 1 0 0 2v2a1 1 0 1 0 0 2v2h-4a1 1 0 1 0-2 0h-4a1 1 0 1 0-2 0h-4zm4 2h2v1h-2v-1zm-13 5a2.01 2.01 0 0 1 2.008-2h23.984A2.01 2.01 0 0 1 44 35H16zm16 2v1h-4v-1h4zm-1 3v1h-2v-1h2zM17 55.5c0 1.378-1.121 2.5-2.5 2.5S12 56.878 12 55.5s1.121-2.5 2.5-2.5 2.5 1.122 2.5 2.5zm7.5 2.5c-1.379 0-2.5-1.122-2.5-2.5s1.121-2.5 2.5-2.5 2.5 1.122 2.5 2.5-1.121 2.5-2.5 2.5zM38 55.5c0 1.378-1.121 2.5-2.5 2.5S33 56.878 33 55.5s1.121-2.5 2.5-2.5 2.5 1.122 2.5 2.5zM29 47h2v1h-2v-1zm16.5 11c-1.379 0-2.5-1.122-2.5-2.5s1.121-2.5 2.5-2.5 2.5 1.122 2.5 2.5-1.121 2.5-2.5 2.5z"/><path d="M29 16a1 1 0 1 0 0 2h2a1 1 0 1 0 0-2v-1.5a.977.977 0 0 0-.153-.5H31a1 1 0 1 0 0-2h-2a1 1 0 1 0 0 2h.153a.977.977 0 0 0-.153.5V16zM25 22a1 1 0 1 0 0-2h-2a1 1 0 1 0 0 2v1.5c0 .186.065.351.153.5H23a1 1 0 1 0 0 2h2a1 1 0 1 0 0-2h-.153a.977.977 0 0 0 .153-.5V22zM35 16a1 1 0 1 0 0 2h2a1 1 0 1 0 0-2v-1.5a.977.977 0 0 0-.153-.5H37a1 1 0 1 0 0-2h-2a1 1 0 1 0 0 2h.153a.977.977 0 0 0-.153.5V16zM26 13a1 1 0 0 0-1-1h-2a1 1 0 1 0 0 2h.153a.977.977 0 0 0-.153.5V16a1 1 0 1 0 0 2h2a1 1 0 1 0 0-2v-1.5a.977.977 0 0 0-.153-.5H25a1 1 0 0 0 1-1zM34 25a1 1 0 0 0 1 1h2a1 1 0 1 0 0-2h-.153a.977.977 0 0 0 .153-.5V22a1 1 0 1 0 0-2h-2a1 1 0 1 0 0 2v1.5c0 .186.065.351.153.5H35a1 1 0 0 0-1 1zM31 26a1 1 0 1 0 0-2h-.153a.977.977 0 0 0 .153-.5V22a1 1 0 1 0 0-2h-2a1 1 0 1 0 0 2v1.5c0 .186.065.351.153.5H29a1 1 0 1 0 0 2h2z"/></svg>