<svg xmlns="http://www.w3.org/2000/svg" viewBox="0 0 60 60" style="enable-background:new 0 0 60 60" xml:space="preserve"><path d="M21.293 12.707a.997.997 0 0 0 1.414 0 .999.999 0 0 0 0-1.414L21.414 10l1.293-1.293a.999.999 0 1 0-1.414-1.414L20 8.586l-1.293-1.293a.999.999 0 1 0-1.414 1.414L18.586 10l-1.293 1.293a.999.999 0 1 0 1.414 1.414L20 11.414l1.293 1.293zM37.293 12.707a.997.997 0 0 0 1.414 0L40 11.414l1.293 1.293a.997.997 0 0 0 1.414 0 .999.999 0 0 0 0-1.414L41.414 10l1.293-1.293a.999.999 0 1 0-1.414-1.414L40 8.586l-1.293-1.293a.999.999 0 1 0-1.414 1.414L38.586 10l-1.293 1.293a.999.999 0 0 0 0 1.414zM15.293 29.707a.997.997 0 0 0 1.414 0L18 28.414l1.293 1.293a.997.997 0 0 0 1.414 0 .999.999 0 0 0 0-1.414L19.414 27l1.293-1.293a.999.999 0 1 0-1.414-1.414L18 25.586l-1.293-1.293a.999.999 0 1 0-1.414 1.414L16.586 27l-1.293 1.293a.999.999 0 0 0 0 1.414zM39.293 29.707a.997.997 0 0 0 1.414 0L42 28.414l1.293 1.293a.997.997 0 0 0 1.414 0 .999.999 0 0 0 0-1.414L43.414 27l1.293-1.293a.999.999 0 1 0-1.414-1.414L42 25.586l-1.293-1.293a.999.999 0 1 0-1.414 1.414L40.586 27l-1.293 1.293a.999.999 0 0 0 0 1.414z"/><path d="M56.5 23h-.975c-1.297 0-2.518.33-3.584.91a3.487 3.487 0 0 0-3.43-2.91H41v-2h3.914C48.821 19 52 15.821 52 11.914V5.72A5.726 5.726 0 0 0 46.28 0H13.72A5.726 5.726 0 0 0 8 5.72v6.194C8 15.821 11.179 19 15.086 19H19v2h-7.511a3.489 3.489 0 0 0-3.431 2.91A7.476 7.476 0 0 0 4.475 23H3.5C1.57 23 0 24.571 0 26.5S1.57 30 3.5 30h1.21c.16 0 .29.13.29.29V34l.018.336c-.003.059-.018.115-.018.175v2.794C5 43.754 10.246 49 16.695 49H27v2.518l-16 3.277v.816a4.38 4.38 0 0 0 1.552 3.349 4.392 4.392 0 0 0 3.6.972L30 57.022l13.891 2.917a4.382 4.382 0 0 0 3.557-.979A4.38 4.38 0 0 0 49 55.611v-.816l-16-3.277V49h10.305C49.754 49 55 43.754 55 37.305V30.29c0-.16.13-.29.29-.29h1.21c1.93 0 3.5-1.57 3.5-3.5S58.43 23 56.5 23zM10 11.914V5.72A3.724 3.724 0 0 1 13.72 2h32.56A3.724 3.724 0 0 1 50 5.72v6.194A5.091 5.091 0 0 1 44.914 17H15.086A5.091 5.091 0 0 1 10 11.914zM21 19h18v2H21v-2zm-11 5.49c0-.821.668-1.49 1.489-1.49H48.51c.822 0 1.49.669 1.49 1.49v.933c-.049.053-.091.11-.139.164a6.78 6.78 0 0 0-.471.598c-.051.072-.103.144-.152.218a7.912 7.912 0 0 0-.257.422l-.101.178a6.89 6.89 0 0 0-.236.49c-.023.051-.047.102-.069.154a7.661 7.661 0 0 0-.195.531c-.017.051-.036.101-.052.153-.054.179-.099.36-.14.543-.013.058-.029.114-.041.172-.036.184-.062.37-.085.557-.007.06-.019.118-.025.177a8.013 8.013 0 0 0-.037.746V31H12v-.475c0-.251-.014-.5-.038-.746-.006-.06-.018-.118-.025-.177a7.868 7.868 0 0 0-.085-.557c-.012-.058-.028-.115-.041-.172a7.578 7.578 0 0 0-.14-.543c-.016-.052-.035-.101-.052-.153a7.178 7.178 0 0 0-.195-.531c-.022-.052-.046-.102-.069-.154a7.598 7.598 0 0 0-.236-.49c-.032-.06-.067-.118-.101-.178a7.306 7.306 0 0 0-.257-.422c-.049-.074-.101-.146-.152-.218a8.284 8.284 0 0 0-.253-.339 7.653 7.653 0 0 0-.218-.259c-.047-.054-.09-.111-.139-.164v-.932zM50 33h.426c-.789 1.214-4.224 5-7.121 5h-26.61c-2.897 0-6.332-3.786-7.121-5H50zM4.71 28H3.5c-.827 0-1.5-.673-1.5-1.5S2.673 25 3.5 25h.975c1.491 0 2.843.596 3.838 1.559.263.254.496.531.7.823l.025.033c.199.29.367.598.506.917l.026.056c.137.325.243.664.315 1.012l.007.034c.07.356.108.721.108 1.092V31H8.511c-.259 0-.509.032-.752.086-.064.014-.122.04-.185.058a3.53 3.53 0 0 0-.518.182c-.018.008-.038.01-.056.019V30.29A2.293 2.293 0 0 0 4.71 28zm42.156 28.4a2.391 2.391 0 0 1-.711 1.034 2.378 2.378 0 0 1-1.895.542L30 54.978l-14.219 2.989a2.387 2.387 0 0 1-2.648-1.568L29 53.15V49h2v4.149L46.866 56.4zM53 37.305C53 42.651 48.65 47 43.305 47h-26.61C11.35 47 7 42.651 7 37.305v-2.794c0-.102.011-.202.03-.298l.002-.01c.033-.161.097-.308.177-.445.01-.017.018-.036.029-.053.081-.127.181-.238.295-.335l.013-.011C8.138 35.109 12.788 40 16.695 40h26.609c3.907 0 8.558-4.891 9.15-6.641l.013.011c.113.097.214.208.295.335.011.017.019.036.029.053.079.137.144.284.177.445l.002.006c.019.098.03.199.03.302v2.794zM56.5 28h-1.21A2.293 2.293 0 0 0 53 30.29v1.055c-.018-.008-.038-.011-.056-.02a3.49 3.49 0 0 0-.518-.182c-.063-.018-.121-.044-.185-.058a3.58 3.58 0 0 0-.752-.085H50v-.475c0-.371.038-.736.109-1.091l.007-.034c.072-.348.178-.686.315-1.012l.026-.056c.139-.32.307-.627.506-.917l.025-.033c.204-.292.437-.569.7-.823A5.5 5.5 0 0 1 55.525 25h.975c.827 0 1.5.673 1.5 1.5s-.673 1.5-1.5 1.5z"/></svg>