<?xml version="1.0" encoding="iso-8859-1"?>
<!-- Generator: Adobe Illustrator 18.0.0, SVG Export Plug-In . SVG Version: 6.00 Build 0)  -->
<!DOCTYPE svg PUBLIC "-//W3C//DTD SVG 1.1//EN" "http://www.w3.org/Graphics/SVG/1.1/DTD/svg11.dtd">
<svg version="1.1" id="Capa_1" xmlns="http://www.w3.org/2000/svg" xmlns:xlink="http://www.w3.org/1999/xlink" x="0px" y="0px"
	 viewBox="0 0 60 60" style="enable-background:new 0 0 60 60;" xml:space="preserve">
<g>
	<path d="M46,51.051V50c0-0.03-0.014-0.055-0.017-0.084c-0.006-0.069-0.02-0.133-0.04-0.198c-0.018-0.061-0.038-0.119-0.067-0.174
		c-0.029-0.057-0.065-0.106-0.105-0.156c-0.04-0.051-0.081-0.098-0.13-0.14c-0.047-0.04-0.098-0.072-0.153-0.103
		c-0.059-0.034-0.118-0.062-0.184-0.084c-0.028-0.009-0.05-0.029-0.079-0.036L33,46.204V45h-2v-2h2v-3h1v-2.586l3.292,3.292
		c0.092,0.093,0.203,0.166,0.326,0.217C37.74,40.973,37.87,41,38,41h3c0.553,0,1-0.448,1-1s-0.447-1-1-1h-2.586l-2-2h6.879
		C46.439,37,49,34.439,49,31.292v-5C49,25.028,47.972,24,46.707,24H44V13.916c0-1.449,0.771-2.813,2.015-3.558
		C47.856,9.252,49,7.232,49,5.084C49,2.281,46.719,0,43.915,0h-27.83C13.281,0,11,2.281,11,5.084v0.44
		c0,1.878,0.841,3.629,2.308,4.802l1.135,0.908c0.99,0.792,1.558,1.973,1.558,3.24V24h-2.707C12.028,24,11,25.028,11,26.292v5
		C11,34.439,13.561,37,16.707,37H26v3h1v3h2v2h-2v1.204l-12.225,2.821c-0.029,0.007-0.051,0.027-0.079,0.036
		c-0.066,0.021-0.125,0.05-0.184,0.084c-0.055,0.031-0.106,0.063-0.153,0.103c-0.049,0.042-0.09,0.089-0.13,0.14
		c-0.04,0.05-0.075,0.099-0.105,0.156c-0.029,0.056-0.048,0.113-0.067,0.174c-0.02,0.065-0.034,0.129-0.04,0.198
		C14.014,49.945,14,49.97,14,50v1.051c-2.244,0.252-4,2.139-4,4.449c0,2.481,2.019,4.5,4.5,4.5s4.5-2.019,4.5-4.5
		c0-1.953-1.258-3.602-3-4.224v-0.481l11-2.538v0.329l-2.422,2.422C24.552,51.007,24.527,51,24.5,51c-2.481,0-4.5,2.019-4.5,4.5
		s2.019,4.5,4.5,4.5s4.5-2.019,4.5-4.5c0-1.648-0.9-3.077-2.225-3.861L28.414,50h3.172l1.639,1.639C31.9,52.423,31,53.852,31,55.5
		c0,2.481,2.019,4.5,4.5,4.5s4.5-2.019,4.5-4.5S37.981,51,35.5,51c-0.027,0-0.052,0.007-0.078,0.008L33,48.586v-0.329l11,2.538
		v0.481c-1.742,0.621-3,2.271-3,4.224c0,2.481,2.019,4.5,4.5,4.5s4.5-2.019,4.5-4.5C50,53.19,48.244,51.303,46,51.051z
		 M15.692,9.673l-1.135-0.908C13.567,7.974,13,6.792,13,5.525v-0.44C13,3.384,14.384,2,16.085,2h27.83C45.616,2,47,3.384,47,5.084
		c0,1.449-0.771,2.813-2.015,3.558C43.144,9.748,42,11.768,42,13.916v10.103c-0.031,0.004-0.06,0.015-0.09,0.02
		c-0.064,0.011-0.125,0.026-0.188,0.042c-0.079,0.021-0.157,0.044-0.233,0.072c-0.06,0.022-0.117,0.047-0.174,0.074
		c-0.073,0.034-0.142,0.073-0.21,0.114c-0.053,0.033-0.105,0.066-0.156,0.102c-0.065,0.047-0.126,0.099-0.185,0.153
		c-0.045,0.041-0.091,0.081-0.133,0.126c-0.056,0.06-0.106,0.124-0.156,0.189c-0.036,0.047-0.074,0.093-0.106,0.143
		c-0.046,0.072-0.084,0.148-0.123,0.226c-0.025,0.051-0.054,0.099-0.076,0.152c-0.036,0.088-0.06,0.181-0.085,0.274
		c-0.013,0.048-0.031,0.093-0.04,0.141C40.016,25.992,40,26.14,40,26.292V28H20v-1.708c0-0.152-0.016-0.3-0.045-0.444
		c-0.01-0.048-0.028-0.093-0.04-0.14c-0.025-0.094-0.05-0.187-0.086-0.275c-0.021-0.053-0.05-0.101-0.075-0.152
		c-0.038-0.077-0.076-0.154-0.123-0.226c-0.032-0.05-0.07-0.096-0.106-0.143c-0.05-0.065-0.1-0.13-0.156-0.189
		c-0.042-0.044-0.087-0.085-0.133-0.126c-0.06-0.054-0.12-0.106-0.185-0.153c-0.05-0.037-0.102-0.07-0.156-0.102
		c-0.068-0.042-0.138-0.08-0.211-0.115c-0.057-0.027-0.115-0.052-0.174-0.074c-0.076-0.029-0.153-0.052-0.233-0.072
		c-0.062-0.016-0.124-0.031-0.188-0.042c-0.031-0.005-0.059-0.016-0.09-0.02v-9.543C18,12.597,17.159,10.846,15.692,9.673z
		 M16.707,35C14.663,35,13,33.337,13,31.292v-5C13,26.131,13.132,26,13.293,26H16h1.707C17.868,26,18,26.131,18,26.292V30h24v-3.708
		C42,26.131,42.132,26,42.293,26H44h2.707C46.868,26,47,26.131,47,26.292v5C47,33.337,45.337,35,43.293,35H34h-8H16.707z M32,37v1
		h-4v-1H32z M31,40v1h-2v-1H31z M17,55.5c0,1.378-1.121,2.5-2.5,2.5S12,56.878,12,55.5s1.121-2.5,2.5-2.5S17,54.122,17,55.5z
		 M24.5,58c-1.379,0-2.5-1.122-2.5-2.5s1.121-2.5,2.5-2.5s2.5,1.122,2.5,2.5S25.879,58,24.5,58z M38,55.5c0,1.378-1.121,2.5-2.5,2.5
		S33,56.878,33,55.5s1.121-2.5,2.5-2.5S38,54.122,38,55.5z M29,47h2v1h-2V47z M45.5,58c-1.379,0-2.5-1.122-2.5-2.5
		s1.121-2.5,2.5-2.5s2.5,1.122,2.5,2.5S46.879,58,45.5,58z"/>
	<circle cx="30" cy="9" r="1"/>
	<circle cx="30" cy="15" r="1"/>
	<circle cx="30" cy="21" r="1"/>
</g>
<g>
</g>
<g>
</g>
<g>
</g>
<g>
</g>
<g>
</g>
<g>
</g>
<g>
</g>
<g>
</g>
<g>
</g>
<g>
</g>
<g>
</g>
<g>
</g>
<g>
</g>
<g>
</g>
<g>
</g>
</svg>
