<svg xmlns="http://www.w3.org/2000/svg" viewBox="0 0 60 60" style="enable-background:new 0 0 60 60" xml:space="preserve"><path d="M51 24h-2c-1.654 0-3 1.346-3 3s1.346 3 3 3v2a2.993 2.993 0 0 1-2.143 2.86C46.338 32.653 44.363 31 42 31h-4.826C41.255 28.551 44 24.096 44 19V7.868C44 3.529 40.471 0 36.132 0H23.868C19.529 0 16 3.529 16 7.868V19c0 5.096 2.745 9.551 6.826 12H18c-2.363 0-4.338 1.653-4.857 3.86A2.993 2.993 0 0 1 11 32v-2c1.654 0 3-1.346 3-3s-1.346-3-3-3H9c-1.654 0-3 1.346-3 3s1.346 3 3 3v2a5.01 5.01 0 0 0 4 4.899V37h13v3h1v3h2v2h-2v1.204l-12.225 2.821c-.03.007-.051.027-.08.036a.993.993 0 0 0-.182.082.99.99 0 0 0-.156.105.98.98 0 0 0-.128.137.942.942 0 0 0-.107.159.94.94 0 0 0-.066.172.958.958 0 0 0-.04.2c-.002.029-.016.054-.016.084v1.051c-2.244.252-4 2.139-4 4.449 0 2.481 2.019 4.5 4.5 4.5s4.5-2.019 4.5-4.5c0-1.953-1.258-3.602-3-4.224v-.481l11-2.538v.329l-2.422 2.422c-.027-.001-.051-.008-.078-.008-2.481 0-4.5 2.019-4.5 4.5s2.019 4.5 4.5 4.5 4.5-2.019 4.5-4.5c0-1.648-.9-3.077-2.225-3.861L28.414 50h3.172l1.639 1.639C31.9 52.423 31 53.852 31 55.5c0 2.481 2.019 4.5 4.5 4.5s4.5-2.019 4.5-4.5-2.019-4.5-4.5-4.5c-.027 0-.051.007-.078.008L33 48.586v-.329l11 2.538v.481c-1.742.621-3 2.271-3 4.224 0 2.481 2.019 4.5 4.5 4.5s4.5-2.019 4.5-4.5c0-2.31-1.756-4.197-4-4.449V50c0-.03-.014-.055-.017-.084a.958.958 0 0 0-.04-.2.94.94 0 0 0-.066-.172.942.942 0 0 0-.107-.159.924.924 0 0 0-.128-.137.99.99 0 0 0-.156-.105.936.936 0 0 0-.182-.082c-.028-.009-.05-.029-.08-.036L33 46.204V45h-2v-2h2v-3h1v-2.586l3.293 3.293A1.01 1.01 0 0 0 38 41h3a1 1 0 0 0 0-2h-2.586l-2-2H47v-.101A5.009 5.009 0 0 0 51 32v-2c1.654 0 3-1.346 3-3s-1.346-3-3-3zM8 27c0-.551.449-1 1-1h2c.551 0 1 .449 1 1s-.449 1-1 1H9c-.551 0-1-.449-1-1zm9 28.5c0 1.378-1.122 2.5-2.5 2.5S12 56.878 12 55.5s1.122-2.5 2.5-2.5 2.5 1.122 2.5 2.5zm7.5 2.5c-1.378 0-2.5-1.122-2.5-2.5s1.122-2.5 2.5-2.5 2.5 1.122 2.5 2.5-1.122 2.5-2.5 2.5zM38 55.5c0 1.378-1.122 2.5-2.5 2.5S33 56.878 33 55.5s1.122-2.5 2.5-2.5 2.5 1.122 2.5 2.5zm10 0c0 1.378-1.122 2.5-2.5 2.5S43 56.878 43 55.5s1.122-2.5 2.5-2.5 2.5 1.122 2.5 2.5zM29 47h2v1h-2v-1zM18 19V7.868A5.874 5.874 0 0 1 23.868 2h12.265A5.874 5.874 0 0 1 42 7.868V19c0 6.617-5.383 12-12 12s-12-5.383-12-12zm14 19h-4v-1h4v1zm-1 3h-2v-1h2v1zm3-6H15.171A3.006 3.006 0 0 1 18 33h24c1.304 0 2.416.836 2.829 2H34zm17-7h-2c-.551 0-1-.449-1-1s.449-1 1-1h2c.551 0 1 .449 1 1s-.449 1-1 1z"/><path d="M33.707 8.293a.999.999 0 0 0-1.414 0l-.92.92a3.119 3.119 0 0 0-2.747 0l-.92-.92a.999.999 0 1 0-1.414 1.414l.92.92a3.112 3.112 0 0 0 0 2.747l-.92.92a.999.999 0 1 0 1.415 1.413l.92-.92c.433.213.9.333 1.373.333s.94-.12 1.373-.332l.92.92a1 1 0 0 0 1.414-1.415l-.919-.919a3.112 3.112 0 0 0 0-2.747l.919-.919a1 1 0 0 0 0-1.415zm-4.5 4.5A1.123 1.123 0 0 1 30 10.879a1.123 1.123 0 0 1 .793 1.914 1.123 1.123 0 0 1-1.586 0z"/></svg>