<?xml version="1.0" encoding="iso-8859-1"?>
<!-- Generator: Adobe Illustrator 18.0.0, SVG Export Plug-In . SVG Version: 6.00 Build 0)  -->
<!DOCTYPE svg PUBLIC "-//W3C//DTD SVG 1.1//EN" "http://www.w3.org/Graphics/SVG/1.1/DTD/svg11.dtd">
<svg version="1.1" id="Capa_1" xmlns="http://www.w3.org/2000/svg" xmlns:xlink="http://www.w3.org/1999/xlink" x="0px" y="0px"
	 viewBox="0 0 60 60" style="enable-background:new 0 0 60 60;" xml:space="preserve">
<g>
	<path d="M46,51.051V50c0-0.03-0.014-0.055-0.017-0.084c-0.006-0.069-0.02-0.133-0.04-0.198c-0.018-0.061-0.038-0.119-0.067-0.174
		c-0.029-0.057-0.065-0.106-0.105-0.156c-0.04-0.051-0.081-0.098-0.13-0.14c-0.047-0.04-0.098-0.072-0.153-0.103
		c-0.059-0.034-0.118-0.062-0.184-0.084c-0.028-0.009-0.05-0.029-0.079-0.036L33,46.204V45h-2v-2h2v-3h1v-2.586l3.292,3.292
		c0.092,0.093,0.203,0.166,0.326,0.217C37.74,40.973,37.87,41,38,41h3c0.553,0,1-0.448,1-1s-0.447-1-1-1h-2.586l-2-2H47V23.923
		C47,22.312,45.688,21,44.076,21H43v-0.91c0-5.139,0.825-9.38,2.524-12.966c0.417-0.882,0.563-1.868,0.424-2.852
		C45.601,1.837,43.404,0,40.838,0H19.162c-2.566,0-4.763,1.837-5.11,4.273c-0.14,0.984,0.007,1.97,0.425,2.852
		C16.175,10.71,17,14.951,17,20.09V21h-1.076C14.312,21,13,22.312,13,23.923V37h13v3h1v3h2v2h-2v1.204l-12.225,2.821
		c-0.029,0.007-0.051,0.027-0.079,0.036c-0.066,0.021-0.125,0.05-0.184,0.084c-0.055,0.031-0.106,0.063-0.153,0.103
		c-0.049,0.042-0.09,0.089-0.13,0.14c-0.04,0.05-0.075,0.099-0.105,0.156c-0.029,0.056-0.048,0.113-0.067,0.174
		c-0.02,0.065-0.034,0.129-0.04,0.198C14.014,49.945,14,49.97,14,50v1.051c-2.244,0.252-4,2.139-4,4.449c0,2.481,2.019,4.5,4.5,4.5
		s4.5-2.019,4.5-4.5c0-1.953-1.258-3.602-3-4.224v-0.481l11-2.538v0.329l-2.422,2.422C24.551,51.007,24.527,51,24.5,51
		c-2.481,0-4.5,2.019-4.5,4.5s2.019,4.5,4.5,4.5s4.5-2.019,4.5-4.5c0-1.648-0.9-3.077-2.225-3.861L28.414,50h3.172l1.639,1.639
		C31.9,52.423,31,53.852,31,55.5c0,2.481,2.019,4.5,4.5,4.5s4.5-2.019,4.5-4.5S37.981,51,35.5,51c-0.027,0-0.051,0.007-0.078,0.008
		L33,48.586v-0.329l11,2.538v0.481c-1.742,0.621-3,2.271-3,4.224c0,2.481,2.019,4.5,4.5,4.5s4.5-2.019,4.5-4.5
		C50,53.19,48.244,51.303,46,51.051z M16.284,6.269c-0.25-0.527-0.337-1.12-0.252-1.714C16.239,3.098,17.585,2,19.162,2h21.676
		c1.577,0,2.923,1.098,3.13,2.554c0.085,0.595-0.002,1.188-0.251,1.714C41.889,10.127,41,14.648,41,20.09v1.059
		c-0.044,0.015-0.084,0.037-0.128,0.054c-0.056,0.022-0.111,0.045-0.166,0.07c-0.111,0.051-0.217,0.11-0.319,0.174
		c-0.045,0.028-0.091,0.053-0.134,0.083c-0.281,0.197-0.526,0.441-0.723,0.723c-0.03,0.043-0.055,0.089-0.083,0.134
		c-0.064,0.103-0.123,0.209-0.174,0.32c-0.025,0.055-0.048,0.11-0.07,0.166c-0.044,0.114-0.079,0.231-0.109,0.351
		c-0.013,0.054-0.029,0.106-0.04,0.161C39.022,23.559,39,23.739,39,23.923V30H21v-6.077c0-0.184-0.022-0.362-0.054-0.536
		c-0.011-0.057-0.027-0.111-0.041-0.166c-0.029-0.115-0.063-0.227-0.105-0.336c-0.024-0.064-0.05-0.126-0.079-0.187
		c-0.043-0.092-0.092-0.179-0.144-0.266c-0.039-0.066-0.076-0.132-0.121-0.195c-0.042-0.058-0.091-0.11-0.136-0.165
		c-0.242-0.293-0.538-0.535-0.875-0.716c-0.011-0.006-0.022-0.012-0.033-0.018c-0.129-0.067-0.262-0.123-0.401-0.171
		c-0.004-0.001-0.007-0.003-0.01-0.004V20.09C19,14.648,18.111,10.127,16.284,6.269z M15,35V23.923C15,23.414,15.414,23,15.924,23
		h1.152h1C18.586,23,19,23.414,19,23.923V32h22v-8.077C41,23.414,41.414,23,42,23h1h1.076C44.586,23,45,23.414,45,23.923V35H34h-8
		H15z M32,37v1h-4v-1H32z M31,40v1h-2v-1H31z M17,55.5c0,1.378-1.121,2.5-2.5,2.5S12,56.878,12,55.5s1.121-2.5,2.5-2.5
		S17,54.122,17,55.5z M24.5,58c-1.379,0-2.5-1.122-2.5-2.5s1.121-2.5,2.5-2.5s2.5,1.122,2.5,2.5S25.879,58,24.5,58z M38,55.5
		c0,1.378-1.121,2.5-2.5,2.5S33,56.878,33,55.5s1.121-2.5,2.5-2.5S38,54.122,38,55.5z M29,47h2v1h-2V47z M45.5,58
		c-1.379,0-2.5-1.122-2.5-2.5s1.121-2.5,2.5-2.5s2.5,1.122,2.5,2.5S46.879,58,45.5,58z"/>
	<circle cx="24" cy="6" r="1"/>
	<circle cx="30" cy="6" r="1"/>
	<circle cx="36" cy="6" r="1"/>
	<circle cx="24" cy="11" r="1"/>
	<circle cx="30" cy="11" r="1"/>
	<circle cx="36" cy="11" r="1"/>
	<circle cx="24" cy="16" r="1"/>
	<circle cx="30" cy="16" r="1"/>
	<circle cx="36" cy="16" r="1"/>
	<circle cx="24" cy="21" r="1"/>
	<circle cx="30" cy="21" r="1"/>
	<circle cx="36" cy="21" r="1"/>
	<circle cx="24" cy="26" r="1"/>
	<circle cx="30" cy="26" r="1"/>
	<circle cx="36" cy="26" r="1"/>
</g>
<g>
</g>
<g>
</g>
<g>
</g>
<g>
</g>
<g>
</g>
<g>
</g>
<g>
</g>
<g>
</g>
<g>
</g>
<g>
</g>
<g>
</g>
<g>
</g>
<g>
</g>
<g>
</g>
<g>
</g>
</svg>
