<svg xmlns="http://www.w3.org/2000/svg" viewBox="0 0 60 60" style="enable-background:new 0 0 60 60" xml:space="preserve"><path d="M46 51.051V50c0-.03-.014-.055-.017-.084a.94.94 0 0 0-.04-.198.935.935 0 0 0-.067-.174.907.907 0 0 0-.105-.156.959.959 0 0 0-.13-.14.952.952 0 0 0-.153-.103.99.99 0 0 0-.184-.084c-.028-.009-.05-.029-.079-.036L33 46.204V45h-2v-2h2v-3h1v-2.586l3.292 3.292A1.01 1.01 0 0 0 38 41h3a1 1 0 1 0 0-2h-2.586l-2-2h6.879A5.715 5.715 0 0 0 49 31.292v-5A2.295 2.295 0 0 0 46.707 24H44V13.916c0-1.449.771-2.813 2.015-3.558A6.184 6.184 0 0 0 49 5.084 5.09 5.09 0 0 0 43.915 0h-27.83A5.09 5.09 0 0 0 11 5.084v.44c0 1.878.841 3.629 2.308 4.802l1.135.908a4.13 4.13 0 0 1 1.558 3.24V24h-2.707A2.295 2.295 0 0 0 11 26.292v5A5.715 5.715 0 0 0 16.707 37H26v3h1v3h2v2h-2v1.204l-12.225 2.821c-.029.007-.051.027-.079.036a.928.928 0 0 0-.184.084.952.952 0 0 0-.153.103.959.959 0 0 0-.13.14.968.968 0 0 0-.105.156 1.043 1.043 0 0 0-.067.174.94.94 0 0 0-.04.198c-.003.029-.017.054-.017.084v1.051c-2.244.252-4 2.139-4 4.449 0 2.481 2.019 4.5 4.5 4.5s4.5-2.019 4.5-4.5c0-1.953-1.258-3.602-3-4.224v-.481l11-2.538v.329l-2.422 2.422c-.026-.001-.051-.008-.078-.008-2.481 0-4.5 2.019-4.5 4.5s2.019 4.5 4.5 4.5 4.5-2.019 4.5-4.5c0-1.648-.9-3.077-2.225-3.861L28.414 50h3.172l1.639 1.639C31.9 52.423 31 53.852 31 55.5c0 2.481 2.019 4.5 4.5 4.5s4.5-2.019 4.5-4.5-2.019-4.5-4.5-4.5c-.027 0-.052.007-.078.008L33 48.586v-.329l11 2.538v.481c-1.742.621-3 2.271-3 4.224 0 2.481 2.019 4.5 4.5 4.5s4.5-2.019 4.5-4.5c0-2.31-1.756-4.197-4-4.449zM15.692 9.673l-1.135-.908A4.127 4.127 0 0 1 13 5.525v-.44A3.089 3.089 0 0 1 16.085 2h27.83A3.088 3.088 0 0 1 47 5.084a4.167 4.167 0 0 1-2.015 3.558A6.184 6.184 0 0 0 42 13.916v10.103c-.031.004-.06.015-.09.02a2.427 2.427 0 0 0-.421.114 2.065 2.065 0 0 0-.384.188 2.086 2.086 0 0 0-.341.255c-.045.041-.091.081-.133.126-.056.06-.106.124-.156.189-.036.047-.074.093-.106.143a2.45 2.45 0 0 0-.123.226c-.025.051-.054.099-.076.152-.036.088-.06.181-.085.274-.013.048-.031.093-.04.141a2.262 2.262 0 0 0-.045.445V28H20v-1.708c0-.152-.016-.3-.045-.444-.01-.048-.028-.093-.04-.14a2.254 2.254 0 0 0-.086-.275c-.021-.053-.05-.101-.075-.152a2.145 2.145 0 0 0-.123-.226c-.032-.05-.07-.096-.106-.143-.05-.065-.1-.13-.156-.189a2.27 2.27 0 0 0-.133-.126 1.818 1.818 0 0 0-.341-.255 2.256 2.256 0 0 0-.806-.303c-.031-.005-.059-.016-.09-.02v-9.543a6.115 6.115 0 0 0-2.307-4.803zM16.707 35A3.711 3.711 0 0 1 13 31.292v-5c0-.161.132-.292.293-.292h4.414c.161 0 .293.131.293.292V30h24v-3.708c0-.161.132-.292.293-.292h4.414c.161 0 .293.131.293.292v5A3.711 3.711 0 0 1 43.293 35H16.707zM32 37v1h-4v-1h4zm-1 3v1h-2v-1h2zM17 55.5c0 1.378-1.121 2.5-2.5 2.5S12 56.878 12 55.5s1.121-2.5 2.5-2.5 2.5 1.122 2.5 2.5zm7.5 2.5c-1.379 0-2.5-1.122-2.5-2.5s1.121-2.5 2.5-2.5 2.5 1.122 2.5 2.5-1.121 2.5-2.5 2.5zM38 55.5c0 1.378-1.121 2.5-2.5 2.5S33 56.878 33 55.5s1.121-2.5 2.5-2.5 2.5 1.122 2.5 2.5zM29 47h2v1h-2v-1zm16.5 11c-1.379 0-2.5-1.122-2.5-2.5s1.121-2.5 2.5-2.5 2.5 1.122 2.5 2.5-1.121 2.5-2.5 2.5z"/><circle cx="30" cy="9" r="1"/><circle cx="30" cy="15" r="1"/><circle cx="30" cy="21" r="1"/></svg>