<svg xmlns="http://www.w3.org/2000/svg" viewBox="0 0 60 60" style="enable-background:new 0 0 60 60" xml:space="preserve"><path d="M51 22h-2c-1.654 0-3 1.346-3 3s1.346 3 3 3v2a2.995 2.995 0 0 1-2.22 2.884A3.001 3.001 0 0 0 44 31H33v-1h8.146A2.857 2.857 0 0 0 44 27.146V2.854A2.857 2.857 0 0 0 41.146 0H18.854A2.857 2.857 0 0 0 16 2.854v24.291A2.858 2.858 0 0 0 18.854 30H27v1H16a3.001 3.001 0 0 0-2.78 1.884A2.995 2.995 0 0 1 11 30v-2c1.654 0 3-1.346 3-3s-1.346-3-3-3H9c-1.654 0-3 1.346-3 3s1.346 3 3 3v2c0 2.468 1.802 4.512 4.158 4.915A2.993 2.993 0 0 0 16 37h10v3h1v3h2v2h-2v1.204l-12.225 2.821c-.029.007-.051.027-.079.036a.928.928 0 0 0-.184.084.952.952 0 0 0-.153.103.959.959 0 0 0-.13.14.968.968 0 0 0-.105.156 1.043 1.043 0 0 0-.067.174.94.94 0 0 0-.04.198c-.003.029-.017.054-.017.084v1.051c-2.244.252-4 2.139-4 4.449 0 2.481 2.019 4.5 4.5 4.5s4.5-2.019 4.5-4.5c0-1.953-1.258-3.602-3-4.224v-.481l11-2.538v.329l-2.422 2.422c-.027-.001-.051-.008-.078-.008-2.481 0-4.5 2.019-4.5 4.5s2.019 4.5 4.5 4.5 4.5-2.019 4.5-4.5c0-1.648-.9-3.077-2.225-3.861L28.414 50h3.172l1.639 1.639C31.9 52.423 31 53.852 31 55.5c0 2.481 2.019 4.5 4.5 4.5s4.5-2.019 4.5-4.5-2.019-4.5-4.5-4.5c-.027 0-.051.007-.078.008L33 48.586v-.329l11 2.538v.481c-1.742.621-3 2.271-3 4.224 0 2.481 2.019 4.5 4.5 4.5s4.5-2.019 4.5-4.5c0-2.31-1.756-4.197-4-4.449V50c0-.03-.014-.055-.017-.084a.94.94 0 0 0-.04-.198.935.935 0 0 0-.067-.174.907.907 0 0 0-.105-.156.959.959 0 0 0-.13-.14.952.952 0 0 0-.153-.103.99.99 0 0 0-.184-.084c-.028-.009-.05-.029-.079-.036L33 46.204V45h-2v-2h2v-3h1v-2.586l3.292 3.292A1.01 1.01 0 0 0 38 41h3a1 1 0 1 0 0-2h-2.586l-2-2H44c1.333 0 2.453-.88 2.842-2.085C49.198 34.512 51 32.468 51 30v-2c1.654 0 3-1.346 3-3s-1.346-3-3-3zM8 25c0-.551.448-1 1-1h2a1.001 1.001 0 0 1 0 2H9c-.552 0-1-.449-1-1zm9 30.5c0 1.378-1.121 2.5-2.5 2.5S12 56.878 12 55.5s1.121-2.5 2.5-2.5 2.5 1.122 2.5 2.5zm7.5 2.5c-1.379 0-2.5-1.122-2.5-2.5s1.121-2.5 2.5-2.5 2.5 1.122 2.5 2.5-1.121 2.5-2.5 2.5zM38 55.5c0 1.378-1.121 2.5-2.5 2.5S33 56.878 33 55.5s1.121-2.5 2.5-2.5 2.5 1.122 2.5 2.5zm10 0c0 1.378-1.121 2.5-2.5 2.5S43 56.878 43 55.5s1.121-2.5 2.5-2.5 2.5 1.122 2.5 2.5zM29 47h2v1h-2v-1zm-5-19h-5.146a.825.825 0 0 1-.407-.118A.99.99 0 0 0 19 27a1 1 0 0 0-1-1v-4a1 1 0 0 0 0-2v-4a1 1 0 0 0 0-2v-4a1 1 0 0 0 0-2V4a1 1 0 0 0 1-1 .99.99 0 0 0-.552-.882.818.818 0 0 1 .406-.118h22.292c.15 0 .284.049.407.118A.99.99 0 0 0 41 3a1 1 0 0 0 1 1v4a1 1 0 0 0 0 2v4a1 1 0 0 0 0 2v4a1 1 0 0 0 0 2v4a1 1 0 0 0-1 1 .99.99 0 0 0 .553.882.825.825 0 0 1-.407.118H24zm5 2h2v1h-2v-1zm3 8h-4v-1h4v1zm-1 3h-2v-1h2v1zm13-6H16a1.001 1.001 0 0 1 0-2h28a1.001 1.001 0 0 1 0 2zm7-9h-2a1.001 1.001 0 0 1 0-2h2a1.001 1.001 0 0 1 0 2z"/><circle cx="24" cy="3" r="1"/><circle cx="24" cy="9" r="1"/><circle cx="21" cy="6" r="1"/><circle cx="27" cy="6" r="1"/><circle cx="21" cy="12" r="1"/><circle cx="27" cy="12" r="1"/><circle cx="30" cy="3" r="1"/><circle cx="36" cy="3" r="1"/><circle cx="30" cy="9" r="1"/><circle cx="36" cy="9" r="1"/><circle cx="33" cy="6" r="1"/><circle cx="39" cy="6" r="1"/><circle cx="33" cy="12" r="1"/><circle cx="39" cy="12" r="1"/><circle cx="24" cy="15" r="1"/><circle cx="24" cy="21" r="1"/><circle cx="21" cy="18" r="1"/><circle cx="27" cy="18" r="1"/><circle cx="21" cy="24" r="1"/><circle cx="27" cy="24" r="1"/><circle cx="30" cy="15" r="1"/><circle cx="36" cy="15" r="1"/><circle cx="30" cy="21" r="1"/><circle cx="36" cy="21" r="1"/><circle cx="33" cy="18" r="1"/><circle cx="39" cy="18" r="1"/><circle cx="33" cy="24" r="1"/><circle cx="39" cy="24" r="1"/><circle cx="24" cy="27" r="1"/><circle cx="30" cy="27" r="1"/><circle cx="36" cy="27" r="1"/></svg>