<svg xmlns="http://www.w3.org/2000/svg" viewBox="0 0 60 60" style="enable-background:new 0 0 60 60" xml:space="preserve"><path d="M52 22h-2c-1.654 0-3 1.346-3 3s1.346 3 3 3v2a2.996 2.996 0 0 1-2 2.816v-.491a2.321 2.321 0 0 0-2.185-2.311l-2.726-18.695C42.148 4.866 36.521 0 30 0S17.852 4.866 16.911 11.319l-2.726 18.695A2.322 2.322 0 0 0 12 32.325v.49a2.996 2.996 0 0 1-2-2.816v-2c1.654 0 3-1.346 3-3s-1.346-3-3-3H8c-1.654 0-3 1.346-3 3s1.346 3 3 3v2a5.007 5.007 0 0 0 4.023 4.901 2.32 2.32 0 0 0 2.302 2.1H26v3h1v3h2v2h-2v1.204l-12.225 2.821c-.03.007-.051.027-.08.036a.993.993 0 0 0-.182.082.99.99 0 0 0-.156.105.98.98 0 0 0-.128.137.942.942 0 0 0-.107.159.94.94 0 0 0-.066.172.958.958 0 0 0-.04.2c-.002.029-.016.054-.016.084v1.051c-2.244.252-4 2.139-4 4.449 0 2.481 2.019 4.5 4.5 4.5s4.5-2.019 4.5-4.5c0-1.953-1.258-3.602-3-4.224v-.481l11-2.538v.329l-2.422 2.422c-.027-.001-.051-.008-.078-.008-2.481 0-4.5 2.019-4.5 4.5s2.019 4.5 4.5 4.5 4.5-2.019 4.5-4.5c0-1.648-.9-3.077-2.225-3.861L28.414 50h3.172l1.639 1.639C31.9 52.423 31 53.852 31 55.5c0 2.481 2.019 4.5 4.5 4.5s4.5-2.019 4.5-4.5-2.019-4.5-4.5-4.5c-.027 0-.051.007-.078.008L33 48.586v-.329l11 2.538v.481c-1.742.621-3 2.271-3 4.224 0 2.481 2.019 4.5 4.5 4.5s4.5-2.019 4.5-4.5c0-2.31-1.756-4.197-4-4.449V50c0-.03-.014-.055-.017-.084a.958.958 0 0 0-.04-.2.94.94 0 0 0-.066-.172.942.942 0 0 0-.107-.159.924.924 0 0 0-.128-.137.99.99 0 0 0-.156-.105.936.936 0 0 0-.182-.082c-.028-.009-.05-.029-.08-.036L33 46.204V45h-2v-2h2v-3h1v-2.586l3.293 3.293A1.01 1.01 0 0 0 38 41h3a1 1 0 0 0 0-2h-2.586l-2-2h9.261a2.319 2.319 0 0 0 2.302-2.099A5.007 5.007 0 0 0 52 30v-2c1.654 0 3-1.346 3-3s-1.346-3-3-3zM7 25c0-.551.449-1 1-1h2c.551 0 1 .449 1 1s-.449 1-1 1H8c-.551 0-1-.449-1-1zm10 30.5c0 1.378-1.122 2.5-2.5 2.5S12 56.878 12 55.5s1.122-2.5 2.5-2.5 2.5 1.122 2.5 2.5zm7.5 2.5c-1.378 0-2.5-1.122-2.5-2.5s1.122-2.5 2.5-2.5 2.5 1.122 2.5 2.5-1.122 2.5-2.5 2.5zM38 55.5c0 1.378-1.122 2.5-2.5 2.5S33 56.878 33 55.5s1.122-2.5 2.5-2.5 2.5 1.122 2.5 2.5zm10 0c0 1.378-1.122 2.5-2.5 2.5S43 56.878 43 55.5s1.122-2.5 2.5-2.5 2.5 1.122 2.5 2.5zM29 47h2v1h-2v-1zM18.89 11.607C19.688 6.13 24.465 2 30 2s10.312 4.13 11.11 9.608L43.792 30H16.208l2.682-18.393zM32 38h-4v-1h4v1zm-1 3h-2v-1h2v1zm15-6.325a.326.326 0 0 1-.325.325h-31.35a.326.326 0 0 1-.325-.325v-2.35c0-.179.146-.325.325-.325h31.35c.179 0 .325.146.325.325v2.35zM52 26h-2c-.551 0-1-.449-1-1s.449-1 1-1h2c.551 0 1 .449 1 1s-.449 1-1 1z"/><path d="M32.5 12h-5c-1.378 0-2.5 1.122-2.5 2.5s1.122 2.5 2.5 2.5h5c1.378 0 2.5-1.122 2.5-2.5S33.878 12 32.5 12zm0 3h-5a.5.5 0 0 1 0-1h5a.5.5 0 0 1 0 1z"/></svg>