<svg xmlns="http://www.w3.org/2000/svg" viewBox="0 0 60 60" style="enable-background:new 0 0 60 60" xml:space="preserve"><path d="M46 51.051V50c0-.03-.014-.055-.017-.084a.94.94 0 0 0-.04-.198.935.935 0 0 0-.067-.174.907.907 0 0 0-.105-.156.959.959 0 0 0-.13-.14.952.952 0 0 0-.153-.103.99.99 0 0 0-.184-.084c-.028-.009-.05-.029-.079-.036L33 46.204V45h-2v-2h2v-3h1v-2.586l3.292 3.292A1.01 1.01 0 0 0 38 41h3a1 1 0 1 0 0-2h-2.586l-2-2H47V23.923A2.927 2.927 0 0 0 44.076 21H43v-.91c0-5.139.825-9.38 2.524-12.966a5.011 5.011 0 0 0 .424-2.852C45.601 1.837 43.404 0 40.838 0H19.162c-2.566 0-4.763 1.837-5.11 4.273-.14.984.007 1.97.425 2.852C16.175 10.71 17 14.951 17 20.09V21h-1.076A2.927 2.927 0 0 0 13 23.923V37h13v3h1v3h2v2h-2v1.204l-12.225 2.821c-.029.007-.051.027-.079.036a.928.928 0 0 0-.184.084.952.952 0 0 0-.153.103.959.959 0 0 0-.13.14.968.968 0 0 0-.105.156 1.043 1.043 0 0 0-.067.174.94.94 0 0 0-.04.198c-.003.029-.017.054-.017.084v1.051c-2.244.252-4 2.139-4 4.449 0 2.481 2.019 4.5 4.5 4.5s4.5-2.019 4.5-4.5c0-1.953-1.258-3.602-3-4.224v-.481l11-2.538v.329l-2.422 2.422c-.027-.001-.051-.008-.078-.008-2.481 0-4.5 2.019-4.5 4.5s2.019 4.5 4.5 4.5 4.5-2.019 4.5-4.5c0-1.648-.9-3.077-2.225-3.861L28.414 50h3.172l1.639 1.639C31.9 52.423 31 53.852 31 55.5c0 2.481 2.019 4.5 4.5 4.5s4.5-2.019 4.5-4.5-2.019-4.5-4.5-4.5c-.027 0-.051.007-.078.008L33 48.586v-.329l11 2.538v.481c-1.742.621-3 2.271-3 4.224 0 2.481 2.019 4.5 4.5 4.5s4.5-2.019 4.5-4.5c0-2.31-1.756-4.197-4-4.449zM16.284 6.269a2.996 2.996 0 0 1-.252-1.714C16.239 3.098 17.585 2 19.162 2h21.676c1.577 0 2.923 1.098 3.13 2.554a3.002 3.002 0 0 1-.251 1.714C41.889 10.127 41 14.648 41 20.09v1.059c-.044.015-.084.037-.128.054a2.802 2.802 0 0 0-.485.244c-.045.028-.091.053-.134.083a2.939 2.939 0 0 0-.723.723c-.03.043-.055.089-.083.134a2.904 2.904 0 0 0-.244.486 2.975 2.975 0 0 0-.109.351c-.013.054-.029.106-.04.161a2.974 2.974 0 0 0-.054.538V30H21v-6.077c0-.184-.022-.362-.054-.536-.011-.057-.027-.111-.041-.166a2.912 2.912 0 0 0-.184-.523 2.964 2.964 0 0 0-.144-.266c-.039-.066-.076-.132-.121-.195-.042-.058-.091-.11-.136-.165a2.93 2.93 0 0 0-.875-.716l-.033-.018a2.964 2.964 0 0 0-.401-.171l-.01-.004V20.09c-.001-5.442-.89-9.963-2.717-13.821zM15 35V23.923c0-.509.414-.923.924-.923h2.152c.51 0 .924.414.924.923V32h22v-8.077c0-.509.414-.923 1-.923h2.076c.51 0 .924.414.924.923V35H15zm17 2v1h-4v-1h4zm-1 3v1h-2v-1h2zM17 55.5c0 1.378-1.121 2.5-2.5 2.5S12 56.878 12 55.5s1.121-2.5 2.5-2.5 2.5 1.122 2.5 2.5zm7.5 2.5c-1.379 0-2.5-1.122-2.5-2.5s1.121-2.5 2.5-2.5 2.5 1.122 2.5 2.5-1.121 2.5-2.5 2.5zM38 55.5c0 1.378-1.121 2.5-2.5 2.5S33 56.878 33 55.5s1.121-2.5 2.5-2.5 2.5 1.122 2.5 2.5zM29 47h2v1h-2v-1zm16.5 11c-1.379 0-2.5-1.122-2.5-2.5s1.121-2.5 2.5-2.5 2.5 1.122 2.5 2.5-1.121 2.5-2.5 2.5z"/><circle cx="24" cy="6" r="1"/><circle cx="30" cy="6" r="1"/><circle cx="36" cy="6" r="1"/><circle cx="24" cy="11" r="1"/><circle cx="30" cy="11" r="1"/><circle cx="36" cy="11" r="1"/><circle cx="24" cy="16" r="1"/><circle cx="30" cy="16" r="1"/><circle cx="36" cy="16" r="1"/><circle cx="24" cy="21" r="1"/><circle cx="30" cy="21" r="1"/><circle cx="36" cy="21" r="1"/><circle cx="24" cy="26" r="1"/><circle cx="30" cy="26" r="1"/><circle cx="36" cy="26" r="1"/></svg>