<?xml version="1.0" encoding="iso-8859-1"?>
<!-- Generator: Adobe Illustrator 18.0.0, SVG Export Plug-In . SVG Version: 6.00 Build 0)  -->
<!DOCTYPE svg PUBLIC "-//W3C//DTD SVG 1.1//EN" "http://www.w3.org/Graphics/SVG/1.1/DTD/svg11.dtd">
<svg version="1.1" id="Capa_1" xmlns="http://www.w3.org/2000/svg" xmlns:xlink="http://www.w3.org/1999/xlink" x="0px" y="0px"
	 viewBox="0 0 60 60" style="enable-background:new 0 0 60 60;" xml:space="preserve">
<g>
	<path d="M51,22h-2c-1.654,0-3,1.346-3,3s1.346,3,3,3v2c0,1.383-0.945,2.538-2.22,2.884C46.336,31.782,45.259,31,44,31H33v-1h8.146
		C42.72,30,44,28.719,44,27.146V2.854C44,1.281,42.72,0,41.146,0H18.854C17.28,0,16,1.281,16,2.854v24.291
		C16,28.719,17.28,30,18.854,30H27v1H16c-1.259,0-2.336,0.782-2.78,1.884C11.945,32.539,11,31.383,11,30v-2c1.654,0,3-1.346,3-3
		s-1.346-3-3-3H9c-1.654,0-3,1.346-3,3s1.346,3,3,3v2c0,2.468,1.802,4.512,4.158,4.915C13.547,36.12,14.667,37,16,37h10v3h1v3h2v2
		h-2v1.204l-12.225,2.821c-0.029,0.007-0.051,0.027-0.079,0.036c-0.066,0.021-0.125,0.05-0.184,0.084
		c-0.055,0.031-0.106,0.063-0.153,0.103c-0.049,0.042-0.09,0.089-0.13,0.14c-0.04,0.05-0.075,0.099-0.105,0.156
		c-0.029,0.056-0.048,0.113-0.067,0.174c-0.02,0.065-0.034,0.129-0.04,0.198C14.014,49.945,14,49.97,14,50v1.051
		c-2.244,0.252-4,2.139-4,4.449c0,2.481,2.019,4.5,4.5,4.5s4.5-2.019,4.5-4.5c0-1.953-1.258-3.602-3-4.224v-0.481l11-2.538v0.329
		l-2.422,2.422C24.551,51.007,24.527,51,24.5,51c-2.481,0-4.5,2.019-4.5,4.5s2.019,4.5,4.5,4.5s4.5-2.019,4.5-4.5
		c0-1.648-0.9-3.077-2.225-3.861L28.414,50h3.172l1.639,1.639C31.9,52.423,31,53.852,31,55.5c0,2.481,2.019,4.5,4.5,4.5
		s4.5-2.019,4.5-4.5S37.981,51,35.5,51c-0.027,0-0.051,0.007-0.078,0.008L33,48.586v-0.329l11,2.538v0.481
		c-1.742,0.621-3,2.271-3,4.224c0,2.481,2.019,4.5,4.5,4.5s4.5-2.019,4.5-4.5c0-2.31-1.756-4.197-4-4.449V50
		c0-0.03-0.014-0.055-0.017-0.084c-0.006-0.069-0.02-0.133-0.04-0.198c-0.018-0.061-0.038-0.119-0.067-0.174
		c-0.029-0.057-0.065-0.106-0.105-0.156c-0.04-0.051-0.081-0.098-0.13-0.14c-0.047-0.04-0.098-0.072-0.153-0.103
		c-0.059-0.034-0.118-0.062-0.184-0.084c-0.028-0.009-0.05-0.029-0.079-0.036L33,46.204V45h-2v-2h2v-3h1v-2.586l3.292,3.292
		c0.092,0.093,0.203,0.166,0.326,0.217C37.74,40.973,37.87,41,38,41h3c0.553,0,1-0.448,1-1s-0.447-1-1-1h-2.586l-2-2H44
		c1.333,0,2.453-0.88,2.842-2.085C49.198,34.512,51,32.468,51,30v-2c1.654,0,3-1.346,3-3S52.654,22,51,22z M8,25
		c0-0.551,0.448-1,1-1h2c0.552,0,1,0.449,1,1s-0.448,1-1,1H9C8.448,26,8,25.551,8,25z M17,55.5c0,1.378-1.121,2.5-2.5,2.5
		S12,56.878,12,55.5s1.121-2.5,2.5-2.5S17,54.122,17,55.5z M24.5,58c-1.379,0-2.5-1.122-2.5-2.5s1.121-2.5,2.5-2.5
		s2.5,1.122,2.5,2.5S25.879,58,24.5,58z M38,55.5c0,1.378-1.121,2.5-2.5,2.5S33,56.878,33,55.5s1.121-2.5,2.5-2.5S38,54.122,38,55.5
		z M48,55.5c0,1.378-1.121,2.5-2.5,2.5S43,56.878,43,55.5s1.121-2.5,2.5-2.5S48,54.122,48,55.5z M29,47h2v1h-2V47z M24,28h-5.146
		c-0.15,0-0.284-0.049-0.407-0.118C18.772,27.717,19,27.389,19,27c0-0.552-0.448-1-1-1v-4c0.552,0,1-0.448,1-1c0-0.552-0.448-1-1-1
		v-4c0.552,0,1-0.448,1-1c0-0.552-0.448-1-1-1v-4c0.552,0,1-0.448,1-1c0-0.552-0.448-1-1-1V4c0.552,0,1-0.448,1-1
		c0-0.389-0.228-0.717-0.552-0.882C18.57,2.049,18.704,2,18.854,2H24h6h6h5.146c0.15,0,0.284,0.049,0.407,0.118
		C41.228,2.283,41,2.611,41,3c0,0.552,0.448,1,1,1v4c-0.552,0-1,0.448-1,1c0,0.552,0.448,1,1,1v4c-0.552,0-1,0.448-1,1
		c0,0.552,0.448,1,1,1v4c-0.552,0-1,0.448-1,1c0,0.552,0.448,1,1,1v4c-0.552,0-1,0.448-1,1c0,0.389,0.228,0.717,0.553,0.882
		C41.43,27.951,41.296,28,41.146,28H36h-3h-3h-3H24z M29,30h2v1h-2V30z M32,38h-4v-1h4V38z M31,41h-2v-1h2V41z M44,35H34h-8H16
		c-0.552,0-1-0.449-1-1s0.448-1,1-1h11h6h11c0.552,0,1,0.449,1,1S44.552,35,44,35z M51,26h-2c-0.552,0-1-0.449-1-1s0.448-1,1-1h2
		c0.552,0,1,0.449,1,1S51.552,26,51,26z"/>
	<circle cx="24" cy="3" r="1"/>
	<circle cx="24" cy="9" r="1"/>
	<circle cx="21" cy="6" r="1"/>
	<circle cx="27" cy="6" r="1"/>
	<circle cx="21" cy="12" r="1"/>
	<circle cx="27" cy="12" r="1"/>
	<circle cx="30" cy="3" r="1"/>
	<circle cx="36" cy="3" r="1"/>
	<circle cx="30" cy="9" r="1"/>
	<circle cx="36" cy="9" r="1"/>
	<circle cx="33" cy="6" r="1"/>
	<circle cx="39" cy="6" r="1"/>
	<circle cx="33" cy="12" r="1"/>
	<circle cx="39" cy="12" r="1"/>
	<circle cx="24" cy="15" r="1"/>
	<circle cx="24" cy="21" r="1"/>
	<circle cx="21" cy="18" r="1"/>
	<circle cx="27" cy="18" r="1"/>
	<circle cx="21" cy="24" r="1"/>
	<circle cx="27" cy="24" r="1"/>
	<circle cx="30" cy="15" r="1"/>
	<circle cx="36" cy="15" r="1"/>
	<circle cx="30" cy="21" r="1"/>
	<circle cx="36" cy="21" r="1"/>
	<circle cx="33" cy="18" r="1"/>
	<circle cx="39" cy="18" r="1"/>
	<circle cx="33" cy="24" r="1"/>
	<circle cx="39" cy="24" r="1"/>
	<circle cx="24" cy="27" r="1"/>
	<circle cx="30" cy="27" r="1"/>
	<circle cx="36" cy="27" r="1"/>
</g>
<g>
</g>
<g>
</g>
<g>
</g>
<g>
</g>
<g>
</g>
<g>
</g>
<g>
</g>
<g>
</g>
<g>
</g>
<g>
</g>
<g>
</g>
<g>
</g>
<g>
</g>
<g>
</g>
<g>
</g>
</svg>
