<svg xmlns="http://www.w3.org/2000/svg" viewBox="0 0 60 60" style="enable-background:new 0 0 60 60" xml:space="preserve"><path d="M50 22h-2c-.923 0-1.74.428-2.29 1.085L42.015 3.268A4.014 4.014 0 0 0 38.063 0H21.937a4.014 4.014 0 0 0-3.952 3.268L14.29 23.085A2.983 2.983 0 0 0 12 22h-2c-1.654 0-3 1.346-3 3s1.346 3 3 3v2c0 2.522 1.883 4.592 4.313 4.931A3.502 3.502 0 0 0 17.5 37H26v3h1v3h2v2h-2v1.204l-12.225 2.821c-.029.007-.051.027-.079.036a.928.928 0 0 0-.184.084.952.952 0 0 0-.153.103.959.959 0 0 0-.13.14.968.968 0 0 0-.105.156 1.043 1.043 0 0 0-.067.174.94.94 0 0 0-.04.198c-.003.029-.017.054-.017.084v1.051c-2.244.252-4 2.139-4 4.449 0 2.481 2.019 4.5 4.5 4.5s4.5-2.019 4.5-4.5c0-1.953-1.258-3.602-3-4.224v-.481l11-2.538v.329l-2.422 2.422c-.026-.001-.051-.008-.078-.008-2.481 0-4.5 2.019-4.5 4.5s2.019 4.5 4.5 4.5 4.5-2.019 4.5-4.5c0-1.648-.9-3.077-2.225-3.861L28.414 50h3.172l1.639 1.639C31.9 52.423 31 53.852 31 55.5c0 2.481 2.019 4.5 4.5 4.5s4.5-2.019 4.5-4.5-2.019-4.5-4.5-4.5c-.027 0-.052.007-.078.008L33 48.586v-.329l11 2.538v.481c-1.742.621-3 2.271-3 4.224 0 2.481 2.019 4.5 4.5 4.5s4.5-2.019 4.5-4.5c0-2.31-1.756-4.197-4-4.449V50c0-.03-.014-.055-.017-.084a.94.94 0 0 0-.04-.198.935.935 0 0 0-.067-.174.907.907 0 0 0-.105-.156.959.959 0 0 0-.13-.14.952.952 0 0 0-.153-.103.99.99 0 0 0-.184-.084c-.028-.009-.05-.029-.079-.036L33 46.204V45h-2v-2h2v-3h1v-2.586l3.292 3.292A1.01 1.01 0 0 0 38 41h3a1 1 0 1 0 0-2h-2.586l-2-2H42.5a3.502 3.502 0 0 0 3.187-2.069C48.117 34.592 50 32.522 50 30v-2c1.654 0 3-1.346 3-3s-1.346-3-3-3zM17 55.5c0 1.378-1.121 2.5-2.5 2.5S12 56.878 12 55.5s1.121-2.5 2.5-2.5 2.5 1.122 2.5 2.5zm7.5 2.5c-1.379 0-2.5-1.122-2.5-2.5s1.121-2.5 2.5-2.5 2.5 1.122 2.5 2.5-1.121 2.5-2.5 2.5zM38 55.5c0 1.378-1.121 2.5-2.5 2.5S33 56.878 33 55.5s1.121-2.5 2.5-2.5 2.5 1.122 2.5 2.5zm10 0c0 1.378-1.121 2.5-2.5 2.5S43 56.878 43 55.5s1.121-2.5 2.5-2.5 2.5 1.122 2.5 2.5zM29 47h2v1h-2v-1zM18.01 14.05c.027.528.455.95.99.95a1 1 0 0 0 0-2 .997.997 0 0 0-.903.583l.856-4.593c.017.001.03.01.047.01a.991.991 0 0 0 .313-1.937l.639-3.429A2.012 2.012 0 0 1 21.937 2H24a1 1 0 0 0 2 0h4a1 1 0 0 0 2 0h4a1 1 0 0 0 2 0h.063a2.01 2.01 0 0 1 1.984 1.634l.073.391C40.079 4.019 40.043 4 40 4a1 1 0 0 0 0 2 .971.971 0 0 0 .465-.13l2.451 13.146A.993.993 0 0 0 43 21c.098 0 .186-.029.275-.056l.689 3.697c.06.32.032.641-.061.943A.993.993 0 0 0 43 25a.997.997 0 0 0-.422 1.9c-.192.059-.39.1-.597.1H18.019a2.022 2.022 0 0 1-1.559-.729 1.975 1.975 0 0 1-.425-1.63l.126-.674A.986.986 0 0 0 17 23a.985.985 0 0 0-.501-.847l1.511-8.103zM31 30h-2v-1h2v1zM9 25c0-.551.448-1 1-1h2a1.001 1.001 0 0 1 0 2h-2c-.552 0-1-.449-1-1zm3 5v-2c.994 0 1.87-.492 2.417-1.239.137.278.303.544.505.788A4.013 4.013 0 0 0 18.019 29H27v1h-9.5a3.503 3.503 0 0 0-3.433 2.837A2.994 2.994 0 0 1 12 30zm20 8h-4v-1h4v1zm-1 3h-2v-1h2v1zm11.5-6h-25c-.827 0-1.5-.673-1.5-1.5s.673-1.5 1.5-1.5h25c.827 0 1.5.673 1.5 1.5s-.673 1.5-1.5 1.5zm5.5-5a2.994 2.994 0 0 1-2.067 2.837A3.503 3.503 0 0 0 42.5 30H33v-1h8.981a4.014 4.014 0 0 0 3.097-1.451c.203-.244.368-.51.505-.788A2.993 2.993 0 0 0 48 28v2zm2-4h-2a1.001 1.001 0 0 1 0-2h2a1.001 1.001 0 0 1 0 2z"/><circle cx="22" cy="5" r="1"/><circle cx="22" cy="11" r="1"/><circle cx="25" cy="8" r="1"/><circle cx="25" cy="14" r="1"/><circle cx="28" cy="5" r="1"/><circle cx="34" cy="5" r="1"/><circle cx="28" cy="11" r="1"/><circle cx="34" cy="11" r="1"/><circle cx="31" cy="8" r="1"/><circle cx="37" cy="8" r="1"/><circle cx="31" cy="14" r="1"/><circle cx="37" cy="14" r="1"/><circle cx="40" cy="11" r="1"/><circle cx="22" cy="17" r="1"/><circle cx="22" cy="23" r="1"/><circle cx="19" cy="20" r="1"/><circle cx="25" cy="20" r="1"/><circle cx="19" cy="26" r="1"/><circle cx="25" cy="26" r="1"/><circle cx="28" cy="17" r="1"/><circle cx="34" cy="17" r="1"/><circle cx="28" cy="23" r="1"/><circle cx="34" cy="23" r="1"/><circle cx="31" cy="20" r="1"/><circle cx="37" cy="20" r="1"/><circle cx="31" cy="26" r="1"/><circle cx="37" cy="26" r="1"/><circle cx="40" cy="17" r="1"/><circle cx="40" cy="23" r="1"/></svg>