<?xml version="1.0" encoding="iso-8859-1"?>
<!-- Generator: Adobe Illustrator 18.0.0, SVG Export Plug-In . SVG Version: 6.00 Build 0)  -->
<!DOCTYPE svg PUBLIC "-//W3C//DTD SVG 1.1//EN" "http://www.w3.org/Graphics/SVG/1.1/DTD/svg11.dtd">
<svg version="1.1" id="Capa_1" xmlns="http://www.w3.org/2000/svg" xmlns:xlink="http://www.w3.org/1999/xlink" x="0px" y="0px"
	 viewBox="0 0 60 60" style="enable-background:new 0 0 60 60;" xml:space="preserve">
<g>
	<path d="M42,37h2h7V23h-7V2.854C44,1.281,42.719,0,41.146,0H18.854C17.281,0,16,1.281,16,2.854V23H9v14h7h2h8v3h1v3h2v2h-2v1.204
		l-12.225,2.821c-0.03,0.007-0.051,0.027-0.08,0.036c-0.065,0.021-0.123,0.049-0.182,0.082c-0.056,0.032-0.108,0.064-0.156,0.105
		c-0.048,0.041-0.088,0.087-0.128,0.137c-0.041,0.051-0.077,0.101-0.107,0.159c-0.029,0.055-0.048,0.112-0.066,0.172
		c-0.02,0.066-0.034,0.13-0.04,0.2C14.014,49.945,14,49.97,14,50v1.051c-2.244,0.252-4,2.139-4,4.449c0,2.481,2.019,4.5,4.5,4.5
		s4.5-2.019,4.5-4.5c0-1.953-1.258-3.602-3-4.224v-0.481l11-2.538v0.329l-2.422,2.422C24.551,51.007,24.527,51,24.5,51
		c-2.481,0-4.5,2.019-4.5,4.5s2.019,4.5,4.5,4.5s4.5-2.019,4.5-4.5c0-1.648-0.9-3.077-2.225-3.861L28.414,50h3.172l1.639,1.639
		C31.9,52.423,31,53.852,31,55.5c0,2.481,2.019,4.5,4.5,4.5s4.5-2.019,4.5-4.5S37.981,51,35.5,51c-0.027,0-0.051,0.007-0.078,0.008
		L33,48.586v-0.329l11,2.538v0.481c-1.742,0.621-3,2.271-3,4.224c0,2.481,2.019,4.5,4.5,4.5s4.5-2.019,4.5-4.5
		c0-2.31-1.756-4.197-4-4.449V50c0-0.03-0.014-0.055-0.017-0.084c-0.006-0.07-0.02-0.134-0.04-0.2
		c-0.018-0.06-0.037-0.117-0.066-0.172c-0.03-0.058-0.066-0.108-0.107-0.159c-0.04-0.05-0.079-0.096-0.128-0.137
		c-0.048-0.041-0.1-0.073-0.156-0.105c-0.058-0.033-0.116-0.061-0.182-0.082c-0.028-0.009-0.05-0.029-0.08-0.036L33,46.204V45h-2v-2
		h2v-3h1v-2.586l3.293,3.293c0.092,0.092,0.203,0.165,0.325,0.216C37.74,40.973,37.87,41,38,41h3c0.552,0,1-0.448,1-1s-0.448-1-1-1
		h-2.586l-2-2H42z M17,55.5c0,1.378-1.122,2.5-2.5,2.5S12,56.878,12,55.5s1.122-2.5,2.5-2.5S17,54.122,17,55.5z M24.5,58
		c-1.378,0-2.5-1.122-2.5-2.5s1.122-2.5,2.5-2.5s2.5,1.122,2.5,2.5S25.878,58,24.5,58z M38,55.5c0,1.378-1.122,2.5-2.5,2.5
		S33,56.878,33,55.5s1.122-2.5,2.5-2.5S38,54.122,38,55.5z M48,55.5c0,1.378-1.122,2.5-2.5,2.5S43,56.878,43,55.5s1.122-2.5,2.5-2.5
		S48,54.122,48,55.5z M29,47h2v1h-2V47z M49,25v10h-5v-5v-2v-3H49z M18,2.854C18,2.383,18.383,2,18.854,2h22.291
		C41.617,2,42,2.383,42,2.854V23v5H18v-5V2.854z M16,35h-5V25h5v3v2V35z M18,35v-5h24v5h-8h-8H18z M32,37v1h-4v-1H32z M31,41h-2v-1
		h2V41z"/>
	<path d="M23,8h1v1c0,0.552,0.448,1,1,1s1-0.448,1-1V8h1c0.552,0,1-0.448,1-1s-0.448-1-1-1h-1V5c0-0.552-0.448-1-1-1s-1,0.448-1,1v1
		h-1c-0.552,0-1,0.448-1,1S22.448,8,23,8z"/>
	<path d="M33,8h1v1c0,0.552,0.448,1,1,1s1-0.448,1-1V8h1c0.552,0,1-0.448,1-1s-0.448-1-1-1h-1V5c0-0.552-0.448-1-1-1s-1,0.448-1,1v1
		h-1c-0.552,0-1,0.448-1,1S32.448,8,33,8z"/>
	<path d="M23,16h1v1c0,0.552,0.448,1,1,1s1-0.448,1-1v-1h1c0.552,0,1-0.448,1-1s-0.448-1-1-1h-1v-1c0-0.552-0.448-1-1-1
		s-1,0.448-1,1v1h-1c-0.552,0-1,0.448-1,1S22.448,16,23,16z"/>
	<path d="M33,16h1v1c0,0.552,0.448,1,1,1s1-0.448,1-1v-1h1c0.552,0,1-0.448,1-1s-0.448-1-1-1h-1v-1c0-0.552-0.448-1-1-1
		s-1,0.448-1,1v1h-1c-0.552,0-1,0.448-1,1S32.448,16,33,16z"/>
	<path d="M23,24h1v1c0,0.552,0.448,1,1,1s1-0.448,1-1v-1h1c0.552,0,1-0.448,1-1s-0.448-1-1-1h-1v-1c0-0.552-0.448-1-1-1
		s-1,0.448-1,1v1h-1c-0.552,0-1,0.448-1,1S22.448,24,23,24z"/>
	<path d="M33,24h1v1c0,0.552,0.448,1,1,1s1-0.448,1-1v-1h1c0.552,0,1-0.448,1-1s-0.448-1-1-1h-1v-1c0-0.552-0.448-1-1-1
		s-1,0.448-1,1v1h-1c-0.552,0-1,0.448-1,1S32.448,24,33,24z"/>
</g>
<g>
</g>
<g>
</g>
<g>
</g>
<g>
</g>
<g>
</g>
<g>
</g>
<g>
</g>
<g>
</g>
<g>
</g>
<g>
</g>
<g>
</g>
<g>
</g>
<g>
</g>
<g>
</g>
<g>
</g>
</svg>
