<svg xmlns="http://www.w3.org/2000/svg" viewBox="0 0 60 60" style="enable-background:new 0 0 60 60" xml:space="preserve"><path d="M42 37h9V23h-7V2.854A2.858 2.858 0 0 0 41.146 0H18.854A2.858 2.858 0 0 0 16 2.854V23H9v14h17v3h1v3h2v2h-2v1.204l-12.225 2.821c-.03.007-.051.027-.08.036a.993.993 0 0 0-.182.082.99.99 0 0 0-.156.105.98.98 0 0 0-.128.137.942.942 0 0 0-.107.159.94.94 0 0 0-.066.172.958.958 0 0 0-.04.2c-.002.029-.016.054-.016.084v1.051c-2.244.252-4 2.139-4 4.449 0 2.481 2.019 4.5 4.5 4.5s4.5-2.019 4.5-4.5c0-1.953-1.258-3.602-3-4.224v-.481l11-2.538v.329l-2.422 2.422c-.027-.001-.051-.008-.078-.008-2.481 0-4.5 2.019-4.5 4.5s2.019 4.5 4.5 4.5 4.5-2.019 4.5-4.5c0-1.648-.9-3.077-2.225-3.861L28.414 50h3.172l1.639 1.639C31.9 52.423 31 53.852 31 55.5c0 2.481 2.019 4.5 4.5 4.5s4.5-2.019 4.5-4.5-2.019-4.5-4.5-4.5c-.027 0-.051.007-.078.008L33 48.586v-.329l11 2.538v.481c-1.742.621-3 2.271-3 4.224 0 2.481 2.019 4.5 4.5 4.5s4.5-2.019 4.5-4.5c0-2.31-1.756-4.197-4-4.449V50c0-.03-.014-.055-.017-.084a.958.958 0 0 0-.04-.2.94.94 0 0 0-.066-.172.942.942 0 0 0-.107-.159.924.924 0 0 0-.128-.137.99.99 0 0 0-.156-.105.936.936 0 0 0-.182-.082c-.028-.009-.05-.029-.08-.036L33 46.204V45h-2v-2h2v-3h1v-2.586l3.293 3.293A1.01 1.01 0 0 0 38 41h3a1 1 0 0 0 0-2h-2.586l-2-2H42zM17 55.5c0 1.378-1.122 2.5-2.5 2.5S12 56.878 12 55.5s1.122-2.5 2.5-2.5 2.5 1.122 2.5 2.5zm7.5 2.5c-1.378 0-2.5-1.122-2.5-2.5s1.122-2.5 2.5-2.5 2.5 1.122 2.5 2.5-1.122 2.5-2.5 2.5zM38 55.5c0 1.378-1.122 2.5-2.5 2.5S33 56.878 33 55.5s1.122-2.5 2.5-2.5 2.5 1.122 2.5 2.5zm10 0c0 1.378-1.122 2.5-2.5 2.5S43 56.878 43 55.5s1.122-2.5 2.5-2.5 2.5 1.122 2.5 2.5zM29 47h2v1h-2v-1zm20-22v10h-5V25h5zM18 2.854c0-.471.383-.854.854-.854h22.291c.472 0 .855.383.855.854V28H18V2.854zM16 35h-5V25h5v10zm2 0v-5h24v5H18zm14 2v1h-4v-1h4zm-1 4h-2v-1h2v1z"/><path d="M23 8h1v1a1 1 0 0 0 2 0V8h1a1 1 0 0 0 0-2h-1V5a1 1 0 0 0-2 0v1h-1a1 1 0 0 0 0 2zM33 8h1v1a1 1 0 0 0 2 0V8h1a1 1 0 0 0 0-2h-1V5a1 1 0 0 0-2 0v1h-1a1 1 0 0 0 0 2zM23 16h1v1a1 1 0 0 0 2 0v-1h1a1 1 0 0 0 0-2h-1v-1a1 1 0 0 0-2 0v1h-1a1 1 0 0 0 0 2zM33 16h1v1a1 1 0 0 0 2 0v-1h1a1 1 0 0 0 0-2h-1v-1a1 1 0 0 0-2 0v1h-1a1 1 0 0 0 0 2zM23 24h1v1a1 1 0 0 0 2 0v-1h1a1 1 0 0 0 0-2h-1v-1a1 1 0 0 0-2 0v1h-1a1 1 0 0 0 0 2zM33 24h1v1a1 1 0 0 0 2 0v-1h1a1 1 0 0 0 0-2h-1v-1a1 1 0 0 0-2 0v1h-1a1 1 0 0 0 0 2z"/></svg>