<?xml version="1.0" encoding="iso-8859-1"?>
<!-- Generator: Adobe Illustrator 18.0.0, SVG Export Plug-In . SVG Version: 6.00 Build 0)  -->
<!DOCTYPE svg PUBLIC "-//W3C//DTD SVG 1.1//EN" "http://www.w3.org/Graphics/SVG/1.1/DTD/svg11.dtd">
<svg version="1.1" id="Capa_1" xmlns="http://www.w3.org/2000/svg" xmlns:xlink="http://www.w3.org/1999/xlink" x="0px" y="0px"
	 viewBox="0 0 60 60" style="enable-background:new 0 0 60 60;" xml:space="preserve">
<g>
	<path d="M50,22h-2c-0.923,0-1.74,0.428-2.29,1.085L42.015,3.268C41.661,1.374,40,0,38.063,0H21.937C20,0,18.339,1.374,17.985,3.268
		L14.29,23.085C13.739,22.428,12.923,22,12,22h-2c-1.654,0-3,1.346-3,3s1.346,3,3,3v2c0,2.522,1.883,4.592,4.313,4.931
		C14.862,36.147,16.081,37,17.5,37H26v3h1v3h2v2h-2v1.204l-12.225,2.821c-0.029,0.007-0.051,0.027-0.079,0.036
		c-0.066,0.021-0.125,0.05-0.184,0.084c-0.055,0.031-0.106,0.063-0.153,0.103c-0.049,0.042-0.09,0.089-0.13,0.14
		c-0.04,0.05-0.075,0.099-0.105,0.156c-0.029,0.056-0.048,0.113-0.067,0.174c-0.02,0.065-0.034,0.129-0.04,0.198
		C14.014,49.945,14,49.97,14,50v1.051c-2.244,0.252-4,2.139-4,4.449c0,2.481,2.019,4.5,4.5,4.5s4.5-2.019,4.5-4.5
		c0-1.953-1.258-3.602-3-4.224v-0.481l11-2.538v0.329l-2.422,2.422C24.552,51.007,24.527,51,24.5,51c-2.481,0-4.5,2.019-4.5,4.5
		s2.019,4.5,4.5,4.5s4.5-2.019,4.5-4.5c0-1.648-0.9-3.077-2.225-3.861L28.414,50h3.172l1.639,1.639C31.9,52.423,31,53.852,31,55.5
		c0,2.481,2.019,4.5,4.5,4.5s4.5-2.019,4.5-4.5S37.981,51,35.5,51c-0.027,0-0.052,0.007-0.078,0.008L33,48.586v-0.329l11,2.538
		v0.481c-1.742,0.621-3,2.271-3,4.224c0,2.481,2.019,4.5,4.5,4.5s4.5-2.019,4.5-4.5c0-2.31-1.756-4.197-4-4.449V50
		c0-0.03-0.014-0.055-0.017-0.084c-0.006-0.069-0.02-0.133-0.04-0.198c-0.018-0.061-0.038-0.119-0.067-0.174
		c-0.029-0.057-0.065-0.106-0.105-0.156c-0.04-0.051-0.081-0.098-0.13-0.14c-0.047-0.04-0.098-0.072-0.153-0.103
		c-0.059-0.034-0.118-0.062-0.184-0.084c-0.028-0.009-0.05-0.029-0.079-0.036L33,46.204V45h-2v-2h2v-3h1v-2.586l3.292,3.292
		c0.092,0.093,0.203,0.166,0.326,0.217C37.74,40.973,37.87,41,38,41h3c0.553,0,1-0.448,1-1s-0.447-1-1-1h-2.586l-2-2H42.5
		c1.419,0,2.638-0.853,3.187-2.069C48.117,34.592,50,32.522,50,30v-2c1.654,0,3-1.346,3-3S51.654,22,50,22z M17,55.5
		c0,1.378-1.121,2.5-2.5,2.5S12,56.878,12,55.5s1.121-2.5,2.5-2.5S17,54.122,17,55.5z M24.5,58c-1.379,0-2.5-1.122-2.5-2.5
		s1.121-2.5,2.5-2.5s2.5,1.122,2.5,2.5S25.879,58,24.5,58z M38,55.5c0,1.378-1.121,2.5-2.5,2.5S33,56.878,33,55.5s1.121-2.5,2.5-2.5
		S38,54.122,38,55.5z M48,55.5c0,1.378-1.121,2.5-2.5,2.5S43,56.878,43,55.5s1.121-2.5,2.5-2.5S48,54.122,48,55.5z M29,47h2v1h-2V47
		z M18.01,14.05C18.037,14.578,18.465,15,19,15c0.552,0,1-0.448,1-1c0-0.552-0.448-1-1-1c-0.402,0-0.744,0.241-0.903,0.583
		l0.856-4.593C18.97,8.991,18.983,9,19,9c0.552,0,1-0.448,1-1c0-0.441-0.291-0.804-0.687-0.937l0.639-3.429
		C20.128,2.687,20.963,2,21.937,2H24c0,0.552,0.448,1,1,1s1-0.448,1-1h4c0,0.552,0.448,1,1,1s1-0.448,1-1h4c0,0.552,0.448,1,1,1
		s1-0.448,1-1h0.063c0.974,0,1.809,0.687,1.984,1.634l0.073,0.391C40.079,4.019,40.043,4,40,4c-0.552,0-1,0.448-1,1
		c0,0.552,0.448,1,1,1c0.171,0,0.324-0.054,0.465-0.13l2.451,13.146C42.405,19.062,42,19.477,42,20c0,0.552,0.448,1,1,1
		c0.098,0,0.186-0.029,0.275-0.056l0.689,3.697c0.06,0.32,0.032,0.641-0.061,0.943C43.746,25.241,43.403,25,43,25
		c-0.552,0-1,0.448-1,1c0,0.4,0.239,0.74,0.578,0.9c-0.192,0.059-0.39,0.1-0.597,0.1H37h-4h-2h-4h-2h-6h-0.981
		c-0.605,0-1.174-0.266-1.559-0.729c-0.379-0.456-0.533-1.049-0.425-1.63l0.126-0.674C16.633,23.888,17,23.495,17,23
		c0-0.367-0.207-0.673-0.501-0.847L18.01,14.05z M31,30h-2v-1h2V30z M9,25c0-0.551,0.448-1,1-1h2c0.552,0,1,0.449,1,1s-0.448,1-1,1
		h-2C9.448,26,9,25.551,9,25z M12,30v-2c0.994,0,1.87-0.492,2.417-1.239c0.137,0.278,0.303,0.544,0.505,0.788
		C15.688,28.471,16.816,29,18.019,29H27v1h-9.5c-1.703,0-3.122,1.224-3.433,2.837C12.871,32.442,12,31.327,12,30z M32,38h-4v-1h4V38
		z M31,41h-2v-1h2V41z M42.5,35H34h-8h-8.5c-0.827,0-1.5-0.673-1.5-1.5s0.673-1.5,1.5-1.5H27h6h9.5c0.827,0,1.5,0.673,1.5,1.5
		S43.327,35,42.5,35z M48,30c0,1.327-0.871,2.442-2.067,2.837C45.622,31.224,44.203,30,42.5,30H33v-1h8.981
		c1.202,0,2.331-0.529,3.097-1.451c0.203-0.244,0.368-0.51,0.505-0.788C46.13,27.508,47.006,28,48,28V30z M50,26h-2
		c-0.552,0-1-0.449-1-1s0.448-1,1-1h2c0.552,0,1,0.449,1,1S50.552,26,50,26z"/>
	<circle cx="22" cy="5" r="1"/>
	<circle cx="22" cy="11" r="1"/>
	<circle cx="25" cy="8" r="1"/>
	<circle cx="25" cy="14" r="1"/>
	<circle cx="28" cy="5" r="1"/>
	<circle cx="34" cy="5" r="1"/>
	<circle cx="28" cy="11" r="1"/>
	<circle cx="34" cy="11" r="1"/>
	<circle cx="31" cy="8" r="1"/>
	<circle cx="37" cy="8" r="1"/>
	<circle cx="31" cy="14" r="1"/>
	<circle cx="37" cy="14" r="1"/>
	<circle cx="40" cy="11" r="1"/>
	<circle cx="22" cy="17" r="1"/>
	<circle cx="22" cy="23" r="1"/>
	<circle cx="19" cy="20" r="1"/>
	<circle cx="25" cy="20" r="1"/>
	<circle cx="19" cy="26" r="1"/>
	<circle cx="25" cy="26" r="1"/>
	<circle cx="28" cy="17" r="1"/>
	<circle cx="34" cy="17" r="1"/>
	<circle cx="28" cy="23" r="1"/>
	<circle cx="34" cy="23" r="1"/>
	<circle cx="31" cy="20" r="1"/>
	<circle cx="37" cy="20" r="1"/>
	<circle cx="31" cy="26" r="1"/>
	<circle cx="37" cy="26" r="1"/>
	<circle cx="40" cy="17" r="1"/>
	<circle cx="40" cy="23" r="1"/>
</g>
<g>
</g>
<g>
</g>
<g>
</g>
<g>
</g>
<g>
</g>
<g>
</g>
<g>
</g>
<g>
</g>
<g>
</g>
<g>
</g>
<g>
</g>
<g>
</g>
<g>
</g>
<g>
</g>
<g>
</g>
</svg>
