<svg xmlns="http://www.w3.org/2000/svg" viewBox="0 0 60 60" style="enable-background:new 0 0 60 60" xml:space="preserve"><path d="M50 23h-2c-1.654 0-3 1.346-3 3s1.346 3 3 3v1a2.994 2.994 0 0 1-2.067 2.837A3.495 3.495 0 0 0 43 30.051V11h3V5.147A5.153 5.153 0 0 0 40.853 0H19.147A5.153 5.153 0 0 0 14 5.147V11h3v19.051a3.496 3.496 0 0 0-2.933 2.786A2.994 2.994 0 0 1 12 30v-1c1.654 0 3-1.346 3-3s-1.346-3-3-3h-2c-1.654 0-3 1.346-3 3s1.346 3 3 3v1c0 2.522 1.883 4.592 4.313 4.931A3.502 3.502 0 0 0 17.5 37H26v3h1v3h2v2h-2v1.204l-12.225 2.821c-.03.007-.051.027-.08.036a.993.993 0 0 0-.182.082.99.99 0 0 0-.156.105.98.98 0 0 0-.128.137.942.942 0 0 0-.107.159.94.94 0 0 0-.066.172.958.958 0 0 0-.04.2c-.002.029-.016.054-.016.084v1.051c-2.244.252-4 2.139-4 4.449 0 2.481 2.019 4.5 4.5 4.5s4.5-2.019 4.5-4.5c0-1.953-1.258-3.602-3-4.224v-.481l11-2.538v.329l-2.422 2.422c-.027-.001-.051-.008-.078-.008-2.481 0-4.5 2.019-4.5 4.5s2.019 4.5 4.5 4.5 4.5-2.019 4.5-4.5c0-1.648-.9-3.077-2.225-3.861L28.414 50h3.172l1.639 1.639C31.9 52.423 31 53.852 31 55.5c0 2.481 2.019 4.5 4.5 4.5s4.5-2.019 4.5-4.5-2.019-4.5-4.5-4.5c-.027 0-.051.007-.078.008L33 48.586v-.329l11 2.538v.481c-1.742.621-3 2.271-3 4.224 0 2.481 2.019 4.5 4.5 4.5s4.5-2.019 4.5-4.5c0-2.31-1.756-4.197-4-4.449V50c0-.03-.014-.055-.017-.084a.958.958 0 0 0-.04-.2.94.94 0 0 0-.066-.172.942.942 0 0 0-.107-.159.924.924 0 0 0-.128-.137.99.99 0 0 0-.156-.105.936.936 0 0 0-.182-.082c-.028-.009-.05-.029-.08-.036L33 46.204V45h-2v-2h2v-3h1v-2.586l3.293 3.293A1.01 1.01 0 0 0 38 41h3a1 1 0 0 0 0-2h-2.586l-2-2H42.5a3.502 3.502 0 0 0 3.187-2.069C48.117 34.592 50 32.522 50 30v-1c1.654 0 3-1.346 3-3s-1.346-3-3-3zM9 26c0-.551.449-1 1-1h2c.551 0 1 .449 1 1s-.449 1-1 1h-2c-.551 0-1-.449-1-1zm8 29.5c0 1.378-1.122 2.5-2.5 2.5S12 56.878 12 55.5s1.122-2.5 2.5-2.5 2.5 1.122 2.5 2.5zm7.5 2.5c-1.378 0-2.5-1.122-2.5-2.5s1.122-2.5 2.5-2.5 2.5 1.122 2.5 2.5-1.122 2.5-2.5 2.5zM38 55.5c0 1.378-1.122 2.5-2.5 2.5S33 56.878 33 55.5s1.122-2.5 2.5-2.5 2.5 1.122 2.5 2.5zm10 0c0 1.378-1.122 2.5-2.5 2.5S43 56.878 43 55.5s1.122-2.5 2.5-2.5 2.5 1.122 2.5 2.5zM29 47h2v1h-2v-1zm12-17h-4V11h4v19zM25 11h4v19h-4V11zm6 0h4v19h-4V11zM16 9V5.147A3.15 3.15 0 0 1 19.147 2h21.705A3.151 3.151 0 0 1 44 5.147V9H16zm7 2v19h-4V11h4zm9 27h-4v-1h4v1zm-1 3h-2v-1h2v1zm11.5-6h-25c-.827 0-1.5-.673-1.5-1.5s.673-1.5 1.5-1.5h25c.827 0 1.5.673 1.5 1.5s-.673 1.5-1.5 1.5zm7.5-8h-2a1.001 1.001 0 0 1 0-2h2a1.001 1.001 0 0 1 0 2z"/><path d="M27.5 8h5C33.878 8 35 6.878 35 5.5S33.878 3 32.5 3h-5C26.122 3 25 4.122 25 5.5S26.122 8 27.5 8zm0-3h5a.5.5 0 0 1 0 1h-5a.5.5 0 0 1 0-1z"/></svg>