<svg xmlns="http://www.w3.org/2000/svg" viewBox="0 0 60 60" style="enable-background:new 0 0 60 60" xml:space="preserve"><path d="M58.718 27.878c.181-1.105.282-2.232.282-3.378 0-8.875-5.615-16.662-14-20.961v-.013l-.563-.273c-.115-.056-.234-.103-.349-.157a30.49 30.49 0 0 0-.901-.405c-.183-.079-.364-.162-.55-.238a30.76 30.76 0 0 0-1.496-.569c-.116-.041-.235-.078-.352-.117a31.618 31.618 0 0 0-1.69-.523 31.386 31.386 0 0 0-1.543-.395l-.107-.026a32.939 32.939 0 0 0-1.796-.352l-.064-.01a33.403 33.403 0 0 0-1.633-.227c-.136-.016-.272-.03-.408-.044A33.428 33.428 0 0 0 32.19.077c-.148-.009-.296-.021-.445-.029C31.167.019 30.586 0 30 0s-1.167.019-1.745.048c-.149.008-.297.019-.445.029-.456.029-.908.066-1.358.113-.136.014-.272.028-.408.044-.549.064-1.094.138-1.633.227l-.064.01c-.606.102-1.205.219-1.796.352l-.107.026a33.515 33.515 0 0 0-3.233.916c-.118.04-.236.077-.353.118-.506.178-1.004.368-1.495.569-.185.076-.366.159-.55.238a30.49 30.49 0 0 0-.901.405c-.115.054-.235.101-.349.157L15 3.526v.013C6.615 7.838 1 15.625 1 24.5a20.874 20.874 0 0 0 .284 3.39C3.105 38.949 13.69 47.669 26.905 48.859a4.325 4.325 0 0 1-3.351 3.364L11 54.795v.816a4.38 4.38 0 0 0 1.552 3.349 4.393 4.393 0 0 0 3.6.972c9.188-1.931 18.508-1.931 27.739.008a4.382 4.382 0 0 0 3.557-.98A4.384 4.384 0 0 0 49 55.611v-.816l-12.555-2.572a4.325 4.325 0 0 1-3.35-3.364c13.215-1.19 23.8-9.911 25.621-20.969l.002-.012zM57 24.5c0 .913-.073 1.811-.201 2.696a40.228 40.228 0 0 1-5.204 3.327C50.539 27.297 47.484 25 44 25h-6.798C41.845 22.447 45 17.51 45 11.848V5.802C52.23 9.843 57 16.716 57 24.5zm-11.872 8.835a45.41 45.41 0 0 1-4.789 1.346l-.217.047a46.8 46.8 0 0 1-2.366.456l-.042.007a46.9 46.9 0 0 1-2.432.333c-.121.013-.243.023-.365.036-.656.068-1.316.121-1.977.162-.199.012-.398.025-.597.035-.779.038-1.561.064-2.344.064s-1.565-.025-2.344-.064c-.198-.01-.396-.023-.593-.035a46.42 46.42 0 0 1-1.979-.162c-.12-.012-.242-.022-.362-.035a47.06 47.06 0 0 1-2.44-.334l-.008-.001a46.158 46.158 0 0 1-2.589-.504 44.672 44.672 0 0 1-9.469-3.248C10.909 28.864 13.281 27 16 27h28c2.719 0 5.091 1.864 5.786 4.438a43.444 43.444 0 0 1-4.658 1.897zM17 4.787l.037-.018c.471-.216.95-.419 1.435-.61.053-.021.107-.04.16-.06.434-.168.873-.327 1.316-.475l.251-.083c.458-.149.921-.289 1.388-.417l.106-.03a31.317 31.317 0 0 1 3.181-.682c.067-.011.135-.02.203-.03.444-.069.891-.127 1.34-.178.127-.014.254-.028.381-.04.404-.04.81-.071 1.217-.096.135-.008.269-.019.405-.026C28.944 2.016 29.471 2 30 2s1.056.016 1.582.042c.136.007.27.018.405.026.407.025.812.056 1.217.096l.381.04c.449.05.896.109 1.34.178l.203.03a31.59 31.59 0 0 1 3.181.682l.106.03c.467.128.929.268 1.388.417l.251.083c.443.148.882.307 1.316.475.053.021.107.039.16.06a29.407 29.407 0 0 1 1.47.628v7.061c0 7.168-5.832 13-13 13s-13-5.832-13-13V4.787zm-2 1.015v6.046C15 17.51 18.155 22.447 22.798 25H16c-3.484 0-6.539 2.297-7.595 5.523a40.228 40.228 0 0 1-5.204-3.327A18.804 18.804 0 0 1 3 24.5C3 16.716 7.769 9.843 15 5.802zM31.08 49a6.337 6.337 0 0 0 4.964 5.182l10.822 2.217a2.391 2.391 0 0 1-.711 1.034 2.378 2.378 0 0 1-1.895.542 69.254 69.254 0 0 0-14.27-1.493c-4.754 0-9.505.496-14.21 1.485a2.388 2.388 0 0 1-2.648-1.568l10.821-2.217A6.337 6.337 0 0 0 28.918 49h2.162zM30 47C17.435 47 6.847 39.811 3.849 30.109c1.34.9 2.733 1.732 4.18 2.482v.001l.647.322.036.017a45.288 45.288 0 0 0 5.02 2.123 47.209 47.209 0 0 0 5.172 1.507l.12.026c.812.185 1.63.348 2.456.492.094.016.188.035.283.05.861.145 1.727.27 2.6.369.068.008.135.013.203.02.762.083 1.528.146 2.297.195.205.013.41.026.615.036.838.042 1.678.071 2.523.071s1.685-.029 2.523-.071c.206-.01.41-.023.616-.036a48.588 48.588 0 0 0 2.297-.195c.068-.007.136-.012.203-.02a48.68 48.68 0 0 0 2.6-.369l.283-.05a48.923 48.923 0 0 0 2.456-.492l.12-.026a47.192 47.192 0 0 0 5.171-1.507l.1-.035a45.272 45.272 0 0 0 4.92-2.089l.036-.017.036-.019a43.022 43.022 0 0 0 4.792-2.786C53.152 39.811 42.565 47 30 47z"/><circle cx="24" cy="10" r="1"/><circle cx="30" cy="10" r="1"/><circle cx="24" cy="16" r="1"/><circle cx="30" cy="16" r="1"/><circle cx="27" cy="13" r="1"/><circle cx="33" cy="13" r="1"/><circle cx="27" cy="7.152" r="1"/><circle cx="33" cy="7.152" r="1"/><circle cx="36" cy="10" r="1"/><circle cx="36" cy="16" r="1"/></svg>