<?xml version="1.0" encoding="iso-8859-1"?>
<!-- Generator: Adobe Illustrator 18.0.0, SVG Export Plug-In . SVG Version: 6.00 Build 0)  -->
<!DOCTYPE svg PUBLIC "-//W3C//DTD SVG 1.1//EN" "http://www.w3.org/Graphics/SVG/1.1/DTD/svg11.dtd">
<svg version="1.1" id="Capa_1" xmlns="http://www.w3.org/2000/svg" xmlns:xlink="http://www.w3.org/1999/xlink" x="0px" y="0px"
	 viewBox="0 0 60 60" style="enable-background:new 0 0 60 60;" xml:space="preserve">
<g>
	<path d="M52,22h-2c-1.654,0-3,1.346-3,3s1.346,3,3,3v2c0,1.302-0.839,2.402-2,2.816v-0.491c0-1.234-0.969-2.237-2.185-2.311
		l-2.726-18.695C42.148,4.866,36.521,0,30,0S17.852,4.866,16.911,11.319l-2.726,18.695C12.969,30.089,12,31.091,12,32.325v0.49
		c-1.161-0.414-2-1.514-2-2.816v-2c1.654,0,3-1.346,3-3s-1.346-3-3-3H8c-1.654,0-3,1.346-3,3s1.346,3,3,3v2
		c0,2.422,1.733,4.445,4.023,4.901C12.139,36.076,13.12,37,14.325,37H26v3h1v3h2v2h-2v1.204l-12.225,2.821
		c-0.03,0.007-0.051,0.027-0.08,0.036c-0.065,0.021-0.123,0.049-0.182,0.082c-0.056,0.032-0.108,0.064-0.156,0.105
		c-0.048,0.041-0.088,0.087-0.128,0.137c-0.041,0.051-0.077,0.101-0.107,0.159c-0.029,0.055-0.048,0.112-0.066,0.172
		c-0.02,0.066-0.034,0.13-0.04,0.2C14.014,49.945,14,49.97,14,50v1.051c-2.244,0.252-4,2.139-4,4.449c0,2.481,2.019,4.5,4.5,4.5
		s4.5-2.019,4.5-4.5c0-1.953-1.258-3.602-3-4.224v-0.481l11-2.538v0.329l-2.422,2.422C24.551,51.007,24.527,51,24.5,51
		c-2.481,0-4.5,2.019-4.5,4.5s2.019,4.5,4.5,4.5s4.5-2.019,4.5-4.5c0-1.648-0.9-3.077-2.225-3.861L28.414,50h3.172l1.639,1.639
		C31.9,52.423,31,53.852,31,55.5c0,2.481,2.019,4.5,4.5,4.5s4.5-2.019,4.5-4.5S37.981,51,35.5,51c-0.027,0-0.051,0.007-0.078,0.008
		L33,48.586v-0.329l11,2.538v0.481c-1.742,0.621-3,2.271-3,4.224c0,2.481,2.019,4.5,4.5,4.5s4.5-2.019,4.5-4.5
		c0-2.31-1.756-4.197-4-4.449V50c0-0.03-0.014-0.055-0.017-0.084c-0.006-0.07-0.02-0.134-0.04-0.2
		c-0.018-0.06-0.037-0.117-0.066-0.172c-0.03-0.058-0.066-0.108-0.107-0.159c-0.04-0.05-0.079-0.096-0.128-0.137
		c-0.048-0.041-0.1-0.073-0.156-0.105c-0.058-0.033-0.116-0.061-0.182-0.082c-0.028-0.009-0.05-0.029-0.08-0.036L33,46.204V45h-2v-2
		h2v-3h1v-2.586l3.293,3.293c0.092,0.092,0.203,0.165,0.325,0.216C37.74,40.973,37.87,41,38,41h3c0.552,0,1-0.448,1-1s-0.448-1-1-1
		h-2.586l-2-2h9.261c1.205,0,2.187-0.924,2.302-2.099C50.267,34.445,52,32.422,52,30v-2c1.654,0,3-1.346,3-3S53.654,22,52,22z M7,25
		c0-0.551,0.449-1,1-1h2c0.551,0,1,0.449,1,1s-0.449,1-1,1H8C7.449,26,7,25.551,7,25z M17,55.5c0,1.378-1.122,2.5-2.5,2.5
		S12,56.878,12,55.5s1.122-2.5,2.5-2.5S17,54.122,17,55.5z M24.5,58c-1.378,0-2.5-1.122-2.5-2.5s1.122-2.5,2.5-2.5
		s2.5,1.122,2.5,2.5S25.878,58,24.5,58z M38,55.5c0,1.378-1.122,2.5-2.5,2.5S33,56.878,33,55.5s1.122-2.5,2.5-2.5S38,54.122,38,55.5
		z M48,55.5c0,1.378-1.122,2.5-2.5,2.5S43,56.878,43,55.5s1.122-2.5,2.5-2.5S48,54.122,48,55.5z M29,47h2v1h-2V47z M18.89,11.607
		C19.688,6.13,24.465,2,30,2s10.312,4.13,11.11,9.608L43.792,30H16.208L18.89,11.607z M32,38h-4v-1h4V38z M31,41h-2v-1h2V41z
		 M46,34.675C46,34.854,45.854,35,45.675,35H34h-8H14.325C14.146,35,14,34.854,14,34.675v-2.35C14,32.146,14.146,32,14.325,32h31.35
		C45.854,32,46,32.146,46,32.325V34.675z M52,26h-2c-0.551,0-1-0.449-1-1s0.449-1,1-1h2c0.551,0,1,0.449,1,1S52.551,26,52,26z"/>
	<path d="M32.5,12h-5c-1.378,0-2.5,1.122-2.5,2.5s1.122,2.5,2.5,2.5h5c1.378,0,2.5-1.122,2.5-2.5S33.878,12,32.5,12z M32.5,15h-5
		c-0.276,0-0.5-0.224-0.5-0.5s0.224-0.5,0.5-0.5h5c0.276,0,0.5,0.224,0.5,0.5S32.776,15,32.5,15z"/>
</g>
<g>
</g>
<g>
</g>
<g>
</g>
<g>
</g>
<g>
</g>
<g>
</g>
<g>
</g>
<g>
</g>
<g>
</g>
<g>
</g>
<g>
</g>
<g>
</g>
<g>
</g>
<g>
</g>
<g>
</g>
</svg>
