<?xml version="1.0" encoding="iso-8859-1"?>
<!-- Generator: Adobe Illustrator 18.0.0, SVG Export Plug-In . SVG Version: 6.00 Build 0)  -->
<!DOCTYPE svg PUBLIC "-//W3C//DTD SVG 1.1//EN" "http://www.w3.org/Graphics/SVG/1.1/DTD/svg11.dtd">
<svg version="1.1" id="Capa_1" xmlns="http://www.w3.org/2000/svg" xmlns:xlink="http://www.w3.org/1999/xlink" x="0px" y="0px"
	 viewBox="0 0 60 60" style="enable-background:new 0 0 60 60;" xml:space="preserve">
<g>
	<circle cx="26.5" cy="9" r="1"/>
	<circle cx="32.5" cy="9" r="1"/>
	<circle cx="29.5" cy="12" r="1"/>
	<circle cx="29.5" cy="18" r="1"/>
	<circle cx="26.5" cy="15" r="1"/>
	<circle cx="32.5" cy="15" r="1"/>
	<circle cx="26.5" cy="21" r="1"/>
	<circle cx="32.5" cy="21" r="1"/>
	<path d="M54.5,22h-1h-8h-1c-0.552,0-1,0.448-1,1s0.448,1,1,1h1v4h3v2c0,1.654-1.346,3-3,3c-0.018,0-0.032,0.009-0.05,0.01
		C45.209,31.314,43.762,30,42,30h-9.5v-1h5.507c1.926,0,3.579-1.375,3.93-3.269l3.89-21.007c0.217-1.171-0.096-2.368-0.858-3.283
		C44.208,0.525,43.088,0,41.897,0H18.103c-1.191,0-2.311,0.525-3.072,1.441c-0.762,0.916-1.075,2.112-0.858,3.283l3.89,21.007
		C18.414,27.625,20.066,29,21.993,29H26.5v1H17c-1.703,0-3.122,1.224-3.433,2.837C12.371,32.442,11.5,31.327,11.5,30v-2h3v-4h1
		c0.552,0,1-0.448,1-1s-0.448-1-1-1h-1h-8h-1c-0.552,0-1,0.448-1,1s0.448,1,1,1h1v4h3v2c0,2.522,1.883,4.592,4.313,4.931
		C14.362,36.147,15.581,37,17,37h8.5v3h1v3h2v2h-2v1.204l-12.225,2.821c-0.03,0.007-0.051,0.027-0.08,0.036
		c-0.065,0.021-0.123,0.049-0.182,0.082c-0.056,0.032-0.108,0.064-0.156,0.105c-0.048,0.041-0.088,0.087-0.128,0.137
		c-0.041,0.051-0.077,0.101-0.107,0.159c-0.029,0.055-0.048,0.112-0.066,0.172c-0.02,0.066-0.034,0.13-0.04,0.2
		C13.514,49.945,13.5,49.97,13.5,50v1.051c-2.244,0.252-4,2.139-4,4.449c0,2.481,2.019,4.5,4.5,4.5s4.5-2.019,4.5-4.5
		c0-1.953-1.258-3.602-3-4.224v-0.481l11-2.538v0.329l-2.422,2.422C24.051,51.007,24.027,51,24,51c-2.481,0-4.5,2.019-4.5,4.5
		S21.519,60,24,60s4.5-2.019,4.5-4.5c0-1.648-0.9-3.077-2.225-3.861L27.914,50h3.172l1.639,1.639C31.4,52.423,30.5,53.852,30.5,55.5
		c0,2.481,2.019,4.5,4.5,4.5s4.5-2.019,4.5-4.5S37.481,51,35,51c-0.027,0-0.051,0.007-0.078,0.008L32.5,48.586v-0.329l11,2.538
		v0.481c-1.742,0.621-3,2.271-3,4.224c0,2.481,2.019,4.5,4.5,4.5s4.5-2.019,4.5-4.5c0-2.31-1.756-4.197-4-4.449V50
		c0-0.03-0.014-0.055-0.017-0.084c-0.006-0.07-0.02-0.134-0.04-0.2c-0.018-0.06-0.037-0.117-0.066-0.172
		c-0.03-0.058-0.066-0.108-0.107-0.159c-0.04-0.05-0.079-0.096-0.128-0.137c-0.048-0.041-0.1-0.073-0.156-0.105
		c-0.058-0.033-0.116-0.061-0.182-0.082c-0.028-0.009-0.05-0.029-0.08-0.036L32.5,46.204V45h-2v-2h2v-3h1v-2.586l3.293,3.293
		c0.092,0.092,0.203,0.165,0.325,0.216C37.24,40.973,37.37,41,37.5,41h3c0.552,0,1-0.448,1-1s-0.448-1-1-1h-2.586l-2-2H42
		c1.417,0,2.634-0.85,3.184-2.064C45.284,34.97,45.388,35,45.5,35c2.757,0,5-2.243,5-5v-2h3v-4h1c0.552,0,1-0.448,1-1
		S55.052,22,54.5,22z M8.5,24h4v2h-4V24z M16.5,55.5c0,1.378-1.122,2.5-2.5,2.5s-2.5-1.122-2.5-2.5S12.622,53,14,53
		S16.5,54.122,16.5,55.5z M24,58c-1.378,0-2.5-1.122-2.5-2.5S22.622,53,24,53s2.5,1.122,2.5,2.5S25.378,58,24,58z M37.5,55.5
		c0,1.378-1.122,2.5-2.5,2.5s-2.5-1.122-2.5-2.5S33.622,53,35,53S37.5,54.122,37.5,55.5z M47.5,55.5c0,1.378-1.122,2.5-2.5,2.5
		s-2.5-1.122-2.5-2.5S43.622,53,45,53S47.5,54.122,47.5,55.5z M28.5,47h2v1h-2V47z M21.993,27c-0.962,0-1.788-0.687-1.963-1.633
		L16.139,4.36c-0.108-0.585,0.048-1.183,0.428-1.64C16.948,2.262,17.508,2,18.103,2h23.795c0.595,0,1.154,0.262,1.535,0.72
		c0.38,0.458,0.537,1.055,0.428,1.64l-3.89,21.007C39.795,26.313,38.97,27,38.007,27H32.5h-6H21.993z M28.5,29h2v1h-2V29z M31.5,38
		h-4v-1h4V38z M30.5,41h-2v-1h2V41z M42,35h-8.5h-8H17c-0.827,0-1.5-0.673-1.5-1.5S16.173,32,17,32h9.5h6H42
		c0.827,0,1.5,0.673,1.5,1.5S42.827,35,42,35z M51.5,26h-4v-2h4V26z"/>
</g>
<g>
</g>
<g>
</g>
<g>
</g>
<g>
</g>
<g>
</g>
<g>
</g>
<g>
</g>
<g>
</g>
<g>
</g>
<g>
</g>
<g>
</g>
<g>
</g>
<g>
</g>
<g>
</g>
<g>
</g>
</svg>
