<?xml version="1.0" encoding="iso-8859-1"?>
<!-- Generator: Adobe Illustrator 18.0.0, SVG Export Plug-In . SVG Version: 6.00 Build 0)  -->
<!DOCTYPE svg PUBLIC "-//W3C//DTD SVG 1.1//EN" "http://www.w3.org/Graphics/SVG/1.1/DTD/svg11.dtd">
<svg version="1.1" id="Capa_1" xmlns="http://www.w3.org/2000/svg" xmlns:xlink="http://www.w3.org/1999/xlink" x="0px" y="0px"
	 viewBox="0 0 60 60" style="enable-background:new 0 0 60 60;" xml:space="preserve">
<g>
	<path d="M50,23h-2c-1.654,0-3,1.346-3,3s1.346,3,3,3v1c0,1.327-0.871,2.442-2.067,2.837c-0.28-1.451-1.46-2.573-2.933-2.786V11h3
		V5.147C46,2.309,43.691,0,40.853,0H19.147C16.309,0,14,2.309,14,5.147V11h3v19.051c-1.473,0.214-2.653,1.335-2.933,2.786
		C12.871,32.442,12,31.327,12,30v-1c1.654,0,3-1.346,3-3s-1.346-3-3-3h-2c-1.654,0-3,1.346-3,3s1.346,3,3,3v1
		c0,2.522,1.883,4.592,4.313,4.931C14.862,36.147,16.081,37,17.5,37H26v3h1v3h2v2h-2v1.204l-12.225,2.821
		c-0.03,0.007-0.051,0.027-0.08,0.036c-0.065,0.021-0.123,0.049-0.182,0.082c-0.056,0.032-0.108,0.064-0.156,0.105
		c-0.048,0.041-0.088,0.087-0.128,0.137c-0.041,0.051-0.077,0.101-0.107,0.159c-0.029,0.055-0.048,0.112-0.066,0.172
		c-0.02,0.066-0.034,0.13-0.04,0.2C14.014,49.945,14,49.97,14,50v1.051c-2.244,0.252-4,2.139-4,4.449c0,2.481,2.019,4.5,4.5,4.5
		s4.5-2.019,4.5-4.5c0-1.953-1.258-3.602-3-4.224v-0.481l11-2.538v0.329l-2.422,2.422C24.551,51.007,24.527,51,24.5,51
		c-2.481,0-4.5,2.019-4.5,4.5s2.019,4.5,4.5,4.5s4.5-2.019,4.5-4.5c0-1.648-0.9-3.077-2.225-3.861L28.414,50h3.172l1.639,1.639
		C31.9,52.423,31,53.852,31,55.5c0,2.481,2.019,4.5,4.5,4.5s4.5-2.019,4.5-4.5S37.981,51,35.5,51c-0.027,0-0.051,0.007-0.078,0.008
		L33,48.586v-0.329l11,2.538v0.481c-1.742,0.621-3,2.271-3,4.224c0,2.481,2.019,4.5,4.5,4.5s4.5-2.019,4.5-4.5
		c0-2.31-1.756-4.197-4-4.449V50c0-0.03-0.014-0.055-0.017-0.084c-0.006-0.07-0.02-0.134-0.04-0.2
		c-0.018-0.06-0.037-0.117-0.066-0.172c-0.03-0.058-0.066-0.108-0.107-0.159c-0.04-0.05-0.079-0.096-0.128-0.137
		c-0.048-0.041-0.1-0.073-0.156-0.105c-0.058-0.033-0.116-0.061-0.182-0.082c-0.028-0.009-0.05-0.029-0.08-0.036L33,46.204V45h-2v-2
		h2v-3h1v-2.586l3.293,3.293c0.092,0.092,0.203,0.165,0.325,0.216C37.74,40.973,37.87,41,38,41h3c0.552,0,1-0.448,1-1s-0.448-1-1-1
		h-2.586l-2-2H42.5c1.419,0,2.638-0.853,3.187-2.069C48.117,34.592,50,32.522,50,30v-1c1.654,0,3-1.346,3-3S51.654,23,50,23z M9,26
		c0-0.551,0.449-1,1-1h2c0.551,0,1,0.449,1,1s-0.449,1-1,1h-2C9.449,27,9,26.551,9,26z M17,55.5c0,1.378-1.122,2.5-2.5,2.5
		S12,56.878,12,55.5s1.122-2.5,2.5-2.5S17,54.122,17,55.5z M24.5,58c-1.378,0-2.5-1.122-2.5-2.5s1.122-2.5,2.5-2.5
		s2.5,1.122,2.5,2.5S25.878,58,24.5,58z M38,55.5c0,1.378-1.122,2.5-2.5,2.5S33,56.878,33,55.5s1.122-2.5,2.5-2.5S38,54.122,38,55.5
		z M48,55.5c0,1.378-1.122,2.5-2.5,2.5S43,56.878,43,55.5s1.122-2.5,2.5-2.5S48,54.122,48,55.5z M29,47h2v1h-2V47z M41,30h-4V11h4
		V30z M25,11h4v19h-4V11z M31,11h4v19h-4V11z M16,9V5.147C16,3.412,17.412,2,19.147,2h21.705C42.588,2,44,3.412,44,5.147V9h-1h-6h-2
		h-4h-2h-4h-2h-6H16z M23,11v19h-4V11H23z M32,38h-4v-1h4V38z M31,41h-2v-1h2V41z M42.5,35H34h-8h-8.5c-0.827,0-1.5-0.673-1.5-1.5
		s0.673-1.5,1.5-1.5H23h2h4h2h4h2h5.5c0.827,0,1.5,0.673,1.5,1.5S43.327,35,42.5,35z M50,27h-2c-0.552,0-1-0.449-1-1s0.448-1,1-1h2
		c0.552,0,1,0.449,1,1S50.552,27,50,27z"/>
	<path d="M27.5,8h5C33.878,8,35,6.878,35,5.5S33.878,3,32.5,3h-5C26.122,3,25,4.122,25,5.5S26.122,8,27.5,8z M27.5,5h5
		C32.776,5,33,5.224,33,5.5S32.776,6,32.5,6h-5C27.224,6,27,5.776,27,5.5S27.224,5,27.5,5z"/>
</g>
<g>
</g>
<g>
</g>
<g>
</g>
<g>
</g>
<g>
</g>
<g>
</g>
<g>
</g>
<g>
</g>
<g>
</g>
<g>
</g>
<g>
</g>
<g>
</g>
<g>
</g>
<g>
</g>
<g>
</g>
</svg>
