<svg xmlns="http://www.w3.org/2000/svg" viewBox="0 0 56 56" style="enable-background:new 0 0 56 56" xml:space="preserve"><circle cx="46" cy="19" r="1"/><circle cx="46" cy="27" r="1"/><circle cx="46" cy="35" r="1"/><circle cx="37" cy="19" r="1"/><circle cx="37" cy="27" r="1"/><circle cx="37" cy="35" r="1"/><circle cx="28" cy="19" r="1"/><circle cx="28" cy="27" r="1"/><circle cx="28" cy="35" r="1"/><circle cx="19" cy="19" r="1"/><circle cx="19" cy="27" r="1"/><circle cx="19" cy="35" r="1"/><circle cx="10" cy="19" r="1"/><circle cx="10" cy="27" r="1"/><circle cx="10" cy="35" r="1"/><circle cx="46" cy="43" r="1"/><circle cx="37" cy="43" r="1"/><circle cx="28" cy="43" r="1"/><circle cx="19" cy="43" r="1"/><circle cx="10" cy="43" r="1"/><path d="M53.905 5.14c-.005-.03-.007-.06-.013-.09a6.28 6.28 0 0 0-.242-.895 5.641 5.641 0 0 0-.102-.284 6.303 6.303 0 0 0-.572-1.103 6.22 6.22 0 0 0-.721-.916c-.09-.094-.18-.188-.276-.276a6.237 6.237 0 0 0-1.238-.89 5.711 5.711 0 0 0-.681-.307c-.088-.033-.176-.067-.266-.095a5.713 5.713 0 0 0-.868-.206c-.028-.004-.054-.016-.082-.02-.036-.005-.072-.004-.108-.008-.05-.006-.099-.017-.149-.022-.09-.009-.18-.006-.27-.011-.107-.006-.214-.013-.321-.013-.16 0-.318.01-.476.022-.075.006-.15.009-.224.018-.2.023-.397.059-.592.101l-.096.019a5.91 5.91 0 0 0-2.552 1.316l-.015.012a6.104 6.104 0 0 0-.529.526.764.764 0 0 1-.557.264c-.18-.008-.288-.06-.388-.175a6 6 0 0 0-9.136.004c-.207.244-.653.245-.862-.001a5.998 5.998 0 0 0-9.138.001c-.207.244-.653.245-.862-.001a5.998 5.998 0 0 0-9.135-.002c-.1.116-.229.197-.388.175a.765.765 0 0 1-.557-.265 6.104 6.104 0 0 0-.529-.526l-.01-.008A5.899 5.899 0 0 0 8.669.041c-.033-.004-.067-.005-.1-.008a6.232 6.232 0 0 0-.582-.027c-.096 0-.193.007-.289.011-.095.005-.189.002-.284.011-.047.005-.093.015-.14.021-.039.004-.078.003-.118.009-.032.004-.061.017-.093.022a5.52 5.52 0 0 0-.851.202c-.095.03-.186.065-.279.1-.23.088-.454.186-.67.302a5.973 5.973 0 0 0-.766.496 6.09 6.09 0 0 0-.48.4c-.09.084-.176.172-.261.261A6.215 6.215 0 0 0 2.75 3.235a5.498 5.498 0 0 0-.4.921c-.1.29-.184.587-.242.893-.006.03-.008.061-.013.091-.06.351-.095.709-.095 1.075V51h2v4a1 1 0 0 0 1 1h3c.409 0 .776-.249.929-.629L10.677 51h34.646l1.748 4.371c.153.38.52.629.929.629h3a1 1 0 0 0 1-1v-4h2V6.215c0-.366-.035-.725-.095-1.075zm-40.834-.857a2.47 2.47 0 0 0 1.884-.878 4.001 4.001 0 0 1 6.091.001c.969 1.141 2.94 1.14 3.907.001a4 4 0 0 1 6.093-.001c.969 1.141 2.94 1.14 3.907.001a4 4 0 0 1 6.092-.002 2.47 2.47 0 0 0 1.884.878 2.738 2.738 0 0 0 2.078-.937 4 4 0 0 1 2.559-1.319l.031-.002a4.08 4.08 0 0 1 .429-.021c.051 0 .102.004.152.006.093.004.185.01.278.02.16.018.314.056.467.094.084.02.171.035.253.06.21.068.414.153.608.256.011.005.022.009.032.015C51.112 3.157 52 4.597 52 6.215V11H4V6.215c0-1.619.889-3.059 2.185-3.761l.018-.008a3.85 3.85 0 0 1 .624-.263c.075-.023.153-.036.229-.055.16-.04.32-.079.487-.098.094-.01.187-.017.28-.021.051-.002.101-.005.152-.006.144 0 .287.006.428.021l.033.003a4.001 4.001 0 0 1 2.557 1.318 2.825 2.825 0 0 0 2.078.938zM7.323 54H6v-3h2.523l-1.2 3zM50 54h-1.323l-1.2-3H50v3zm2-5H4V13h48v36z"/></svg>