<svg xmlns="http://www.w3.org/2000/svg" viewBox="0 0 59.997 59.997" style="enable-background:new 0 0 59.997 59.997" xml:space="preserve"><path d="M6.465 46.658c-.375-.531-1.258-.531-1.633 0l-2.93 4.145C0 53.437.042 56.526 2.006 58.491c1.004 1.004 2.324 1.506 3.643 1.506s2.639-.502 3.643-1.506c1.376-1.376 2.519-3.817.109-7.681l-2.936-4.152zm1.413 10.419a3.156 3.156 0 0 1-4.458 0c-1.263-1.264-1.223-3.268.109-5.112l2.12-2.998 2.087 2.95c2.035 3.266.611 4.691.142 5.16zM2.792 42.293a.999.999 0 1 0 1.414 1.414l2-2a.999.999 0 1 0-1.414-1.414l-2 2zM1.499 39h3a1 1 0 1 0 0-2h-3a1 1 0 1 0 0 2zM59.499 29h-16v-5h-6v3h-4.483a.517.517 0 0 1-.517-.517V22h3v-6h-5V0h-22v16h-5v6h3v12.432C6.499 44.67 14.828 53 25.067 53h12.432v3h6v-5h16V29zm-49-27h18v14h-18V2zm-5 18v-2h28v2h-28zm19.568 31c-7.91 0-14.533-5.575-16.171-13h3.603a1 1 0 0 0 1-1v-3h3a1 1 0 0 0 1-1v-4a1 1 0 1 0-2 0v3h-3a1 1 0 0 0-1 1v3H8.578a16.593 16.593 0 0 1-.079-1.568V22h22v4.483A2.52 2.52 0 0 0 33.016 29h4.483v22H25.067zm16.432 3h-2V26h2v28zm16-5h-14V31h14v18z"/></svg>