<svg xmlns="http://www.w3.org/2000/svg" viewBox="0 0 53 53" style="enable-background:new 0 0 53 53" xml:space="preserve"><path d="M53 30.5h-3v-2a1 1 0 0 0-1-1h-6a1 1 0 0 0-1 1v2H23.474A2.476 2.476 0 0 1 21 28.026V12.5h2a1 1 0 0 0 1-1v-6a1 1 0 0 0-1-1h-2v-3H3v3H1a1 1 0 0 0-1 1v6a1 1 0 0 0 1 1h2v21.432C3 41.965 9.535 48.5 17.568 48.5H42v2a1 1 0 0 0 1 1h6a1 1 0 0 0 1-1v-2h3v-18zM5 3.5h14v1H5v-1zm-3 7v-4h20v4H2zm15.568 36C10.638 46.5 5 40.862 5 33.932V12.5h14v15.526a4.479 4.479 0 0 0 4.474 4.474H42v14H17.568zM48 49.5h-4v-20h4v20zm3-3h-1v-14h1v14z"/></svg>