<?xml version="1.0" encoding="iso-8859-1"?>
<!-- Generator: Adobe Illustrator 18.0.0, SVG Export Plug-In . SVG Version: 6.00 Build 0)  -->
<!DOCTYPE svg PUBLIC "-//W3C//DTD SVG 1.1//EN" "http://www.w3.org/Graphics/SVG/1.1/DTD/svg11.dtd">
<svg version="1.1" id="Capa_1" xmlns="http://www.w3.org/2000/svg" xmlns:xlink="http://www.w3.org/1999/xlink" x="0px" y="0px"
	 viewBox="0 0 60 60" style="enable-background:new 0 0 60 60;" xml:space="preserve">
<g>
	<path d="M20.707,28.293c-0.391-0.391-1.023-0.391-1.414,0l-2,2c-0.391,0.391-0.391,1.023,0,1.414C17.488,31.902,17.744,32,18,32
		s0.512-0.098,0.707-0.293l2-2C21.098,29.316,21.098,28.684,20.707,28.293z"/>
	<path d="M20,26c0-0.553-0.447-1-1-1h-3c-0.553,0-1,0.447-1,1s0.447,1,1,1h3C19.553,27,20,26.553,20,26z"/>
	<path d="M44,11c0.553,0,1-0.447,1-1V4c0-0.553-0.447-1-1-1h-2V0H24v3h-2c-0.553,0-1,0.447-1,1v6c0,0.553,0.447,1,1,1h2v21.705
		l-2.897,4.098c-1.902,2.634-1.86,5.724,0.104,7.688c0.788,0.787,1.771,1.255,2.794,1.425V49h-2c-0.553,0-1,0.447-1,1v6
		c0,0.553,0.447,1,1,1h2v3h18v-3h2c0.553,0,1-0.447,1-1v-6c0-0.553-0.447-1-1-1h-2V11H44z M26,2h14v1H26V2z M23,9V5h1h18h1v4h-1H24
		H23z M22.729,37.965l2.12-2.998l2.088,2.949c0.127,0.204,0.241,0.401,0.342,0.591c0.262,0.491,0.433,0.931,0.547,1.333
		c0.547,1.928-0.385,2.872-0.749,3.236c-0.048,0.048-0.105,0.084-0.155,0.128c-0.101,0.088-0.2,0.178-0.309,0.252
		c-0.122,0.082-0.254,0.147-0.386,0.211c-0.042,0.021-0.082,0.047-0.125,0.066c-0.173,0.074-0.353,0.132-0.538,0.174
		c-0.003,0.001-0.006,0.002-0.009,0.003c-0.192,0.043-0.39,0.069-0.591,0.076l-0.177,0.006c-0.786-0.015-1.568-0.317-2.167-0.916
		C21.357,41.813,21.397,39.81,22.729,37.965z M40,58H26v-1h14V58z M43,51v4h-1H24h-1v-4h1h18H43z M40,49H26v-3.14
		c0.244-0.055,0.483-0.129,0.715-0.218c0.09-0.035,0.175-0.081,0.263-0.121c0.194-0.087,0.382-0.185,0.563-0.296
		c0.083-0.051,0.164-0.102,0.244-0.157c0.243-0.168,0.476-0.351,0.689-0.562c0.006-0.006,0.013-0.009,0.019-0.015
		c0.052-0.052,0.103-0.108,0.154-0.163c0.022-0.023,0.042-0.044,0.064-0.068c1.18-1.312,2.039-3.462,0.326-6.693
		c-0.003-0.005-0.005-0.01-0.007-0.015c-0.128-0.241-0.269-0.488-0.428-0.742L26,33.13V27h3c0.553,0,1-0.447,1-1v-3h3
		c0.553,0,1-0.447,1-1v-4c0-0.553-0.447-1-1-1s-1,0.447-1,1v3h-3c-0.553,0-1,0.447-1,1v3h-2V11h14V49z"/>
	<path d="M19.293,23.707C19.488,23.902,19.744,24,20,24s0.512-0.098,0.707-0.293c0.391-0.391,0.391-1.023,0-1.414l-2.121-2.121
		c-0.391-0.391-1.023-0.391-1.414,0c-0.391,0.391-0.391,1.023,0,1.414L19.293,23.707z"/>
</g>
<g>
</g>
<g>
</g>
<g>
</g>
<g>
</g>
<g>
</g>
<g>
</g>
<g>
</g>
<g>
</g>
<g>
</g>
<g>
</g>
<g>
</g>
<g>
</g>
<g>
</g>
<g>
</g>
<g>
</g>
</svg>
