<?xml version="1.0" encoding="iso-8859-1"?>
<!-- Generator: Adobe Illustrator 18.0.0, SVG Export Plug-In . SVG Version: 6.00 Build 0)  -->
<!DOCTYPE svg PUBLIC "-//W3C//DTD SVG 1.1//EN" "http://www.w3.org/Graphics/SVG/1.1/DTD/svg11.dtd">
<svg version="1.1" id="Capa_1" xmlns="http://www.w3.org/2000/svg" xmlns:xlink="http://www.w3.org/1999/xlink" x="0px" y="0px"
	 viewBox="0 0 60 60" style="enable-background:new 0 0 60 60;" xml:space="preserve">
<g>
	<path d="M9.793,31.293l-2,2c-0.391,0.391-0.391,1.023,0,1.414C7.988,34.902,8.244,35,8.5,35s0.512-0.098,0.707-0.293l2-2
		c0.391-0.391,0.391-1.023,0-1.414S10.184,30.902,9.793,31.293z"/>
	<path d="M10.5,29c0-0.553-0.447-1-1-1h-3c-0.553,0-1,0.447-1,1s0.447,1,1,1h3C10.053,30,10.5,29.553,10.5,29z"/>
	<path d="M9.086,23.172c-0.391-0.391-1.023-0.391-1.414,0c-0.391,0.391-0.391,1.023,0,1.414l2.121,2.121
		C9.988,26.902,10.244,27,10.5,27s0.512-0.098,0.707-0.293c0.391-0.391,0.391-1.023,0-1.414L9.086,23.172z"/>
	<path d="M41.345,38.258C42.755,35.806,43.5,32.95,43.5,30s-0.745-5.806-2.155-8.257c-1.207-2.1-1.845-4.426-1.845-6.729V11h2
		c0.553,0,1-0.447,1-1V4c0-0.553-0.447-1-1-1h-2V0h-18v3h-2c-0.553,0-1,0.447-1,1v6c0,0.553,0.447,1,1,1h2v4.015
		c0,2.303-0.638,4.629-1.845,6.728C18.245,24.194,17.5,27.05,17.5,30s0.745,5.806,2.155,8.257c1.207,2.1,1.845,4.426,1.845,6.729V49
		h-2c-0.553,0-1,0.447-1,1v6c0,0.553,0.447,1,1,1h2v3h18v-3h2c0.553,0,1-0.447,1-1v-6c0-0.553-0.447-1-1-1h-2v-4.015
		C39.5,42.683,40.138,40.356,41.345,38.258z M23.5,2h14v1h-14V2z M20.5,9V5h1h18h1v4h-1h-18H20.5z M37.5,58h-14v-1h14V58z M40.5,51
		v4h-1h-18h-1v-4h1h18H40.5z M23.5,49v-4.015c0-2.651-0.729-5.323-2.11-7.726c-1.236-2.148-1.89-4.658-1.89-7.26
		s0.653-5.111,1.89-7.261c1.381-2.401,2.11-5.073,2.11-7.725V11h14v4.015c0,2.651,0.729,5.323,2.11,7.726
		c1.236,2.148,1.89,4.658,1.89,7.26s-0.653,5.111-1.89,7.261c-1.381,2.401-2.11,5.073-2.11,7.725V49H23.5z"/>
	<path d="M49.5,26.879c0.256,0,0.512-0.098,0.707-0.293l2-2c0.391-0.391,0.391-1.023,0-1.414s-1.023-0.391-1.414,0l-2,2
		c-0.391,0.391-0.391,1.023,0,1.414C48.988,26.781,49.244,26.879,49.5,26.879z"/>
	<path d="M53.5,28h-3c-0.553,0-1,0.447-1,1s0.447,1,1,1h3c0.553,0,1-0.447,1-1S54.053,28,53.5,28z"/>
	<path d="M50.207,31.172c-0.391-0.391-1.023-0.391-1.414,0s-0.391,1.023,0,1.414l2.121,2.121C51.109,34.902,51.365,35,51.621,35
		s0.512-0.098,0.707-0.293c0.391-0.391,0.391-1.023,0-1.414L50.207,31.172z"/>
</g>
<g>
</g>
<g>
</g>
<g>
</g>
<g>
</g>
<g>
</g>
<g>
</g>
<g>
</g>
<g>
</g>
<g>
</g>
<g>
</g>
<g>
</g>
<g>
</g>
<g>
</g>
<g>
</g>
<g>
</g>
</svg>
