<?xml version="1.0" encoding="iso-8859-1"?>
<!-- Generator: Adobe Illustrator 18.0.0, SVG Export Plug-In . SVG Version: 6.00 Build 0)  -->
<!DOCTYPE svg PUBLIC "-//W3C//DTD SVG 1.1//EN" "http://www.w3.org/Graphics/SVG/1.1/DTD/svg11.dtd">
<svg version="1.1" id="Capa_1" xmlns="http://www.w3.org/2000/svg" xmlns:xlink="http://www.w3.org/1999/xlink" x="0px" y="0px"
	 viewBox="0 0 60 60" style="enable-background:new 0 0 60 60;" xml:space="preserve">
<path d="M41,11c0.552,0,1-0.447,1-1V4c0-0.553-0.448-1-1-1h-2V0H21v3h-2c-0.552,0-1,0.447-1,1v6c0,0.553,0.448,1,1,1h2v38h-2
	c-0.552,0-1,0.447-1,1v6c0,0.553,0.448,1,1,1h2v3h18v-3h2c0.552,0,1-0.447,1-1v-6c0-0.553-0.448-1-1-1h-2V11H41z M23,2h14v1H23V2z
	 M20,9V5h1h18h1v4h-1H21H20z M37,58H23v-1h14V58z M40,55h-1H21h-1v-4h20V55z M37,49H23V11h14V49z"/>
<g>
</g>
<g>
</g>
<g>
</g>
<g>
</g>
<g>
</g>
<g>
</g>
<g>
</g>
<g>
</g>
<g>
</g>
<g>
</g>
<g>
</g>
<g>
</g>
<g>
</g>
<g>
</g>
<g>
</g>
</svg>
