<svg xmlns="http://www.w3.org/2000/svg" viewBox="0 0 60 60" style="enable-background:new 0 0 60 60" xml:space="preserve"><path d="m9.793 31.293-2 2a.999.999 0 1 0 1.414 1.414l2-2a.999.999 0 1 0-1.414-1.414zM10.5 29a1 1 0 0 0-1-1h-3a1 1 0 1 0 0 2h3a1 1 0 0 0 1-1zM9.086 23.172a.999.999 0 1 0-1.414 1.414l2.121 2.121a.997.997 0 0 0 1.414 0 .999.999 0 0 0 0-1.414l-2.121-2.121zM41.345 38.258C42.755 35.806 43.5 32.95 43.5 30s-.745-5.806-2.155-8.257c-1.207-2.1-1.845-4.426-1.845-6.729V11h2a1 1 0 0 0 1-1V4a1 1 0 0 0-1-1h-2V0h-18v3h-2a1 1 0 0 0-1 1v6a1 1 0 0 0 1 1h2v4.015c0 2.303-.638 4.629-1.845 6.728C18.245 24.194 17.5 27.05 17.5 30s.745 5.806 2.155 8.257c1.207 2.1 1.845 4.426 1.845 6.729V49h-2a1 1 0 0 0-1 1v6a1 1 0 0 0 1 1h2v3h18v-3h2a1 1 0 0 0 1-1v-6a1 1 0 0 0-1-1h-2v-4.015c0-2.302.638-4.629 1.845-6.727zM23.5 2h14v1h-14V2zm-3 7V5h20v4h-20zm17 49h-14v-1h14v1zm3-7v4h-20v-4h20zm-17-2v-4.015c0-2.651-.729-5.323-2.11-7.726-1.236-2.148-1.89-4.658-1.89-7.26s.653-5.111 1.89-7.261c1.381-2.401 2.11-5.073 2.11-7.725V11h14v4.015c0 2.651.729 5.323 2.11 7.726 1.236 2.148 1.89 4.658 1.89 7.26s-.653 5.111-1.89 7.261c-1.381 2.401-2.11 5.073-2.11 7.725V49h-14zM49.5 26.879a.997.997 0 0 0 .707-.293l2-2a.999.999 0 1 0-1.414-1.414l-2 2a.999.999 0 0 0 .707 1.707zM53.5 28h-3a1 1 0 1 0 0 2h3a1 1 0 1 0 0-2zM50.207 31.172a.999.999 0 1 0-1.414 1.414l2.121 2.121a.997.997 0 0 0 1.414 0 .999.999 0 0 0 0-1.414l-2.121-2.121z"/></svg>