<svg xmlns="http://www.w3.org/2000/svg" viewBox="0 0 58.998 58.998" style="enable-background:new 0 0 58.998 58.998" xml:space="preserve"><path d="M15.315 45.658a.999.999 0 0 0-1.632 0l-2.931 4.145c-1.902 2.634-1.861 5.724.104 7.688a5.138 5.138 0 0 0 3.644 1.507 5.138 5.138 0 0 0 3.643-1.507c1.376-1.377 2.518-3.818.109-7.681l-2.937-4.152zm1.413 10.419a3.157 3.157 0 0 1-4.458 0c-1.263-1.264-1.223-3.268.109-5.112l2.12-2.998 2.087 2.95c2.035 3.266.611 4.691.142 5.16zM56.499 26h-3v-2a1 1 0 0 0-1-1h-6a1 1 0 0 0-1 1v2H29.973a2.476 2.476 0 0 1-2.474-2.474V11h2a1 1 0 0 0 1-1V4a1 1 0 0 0-1-1h-2V0h-18v3h-2a1 1 0 0 0-1 1v6a1 1 0 0 0 1 1h2v18.432c0 4.469 2.027 8.47 5.205 11.145a.975.975 0 0 0 .452.354A14.476 14.476 0 0 0 24.067 44h21.432v2a1 1 0 0 0 1 1h6a1 1 0 0 0 1-1v-2h3V26zm-45-24h14v1h-14V2zm-3 7V5h20v4h-20zm15.568 33c-2.843 0-5.46-.96-7.568-2.558V37h3a1 1 0 0 0 1-1v-3h3a1 1 0 1 0 0-2h-4a1 1 0 0 0-1 1v3h-3a1 1 0 0 0-1 1v1.561c-1.867-2.194-3-5.03-3-8.129V11h14v12.526A4.479 4.479 0 0 0 29.973 28h15.526v14H24.067zm27.432 3h-4V25h4v20zm3-3h-1V28h1v14zM6.792 41.293l-2 2a.999.999 0 1 0 1.414 1.414l2-2a.999.999 0 1 0-1.414-1.414zM7.499 39a1 1 0 0 0-1-1h-3a1 1 0 1 0 0 2h3a1 1 0 0 0 1-1zM6.206 33.293a.999.999 0 1 0-1.414 1.414l2 2a.997.997 0 0 0 1.414 0 .999.999 0 0 0 0-1.414l-2-2z"/></svg>