<svg xmlns="http://www.w3.org/2000/svg" viewBox="0 0 60 60" style="enable-background:new 0 0 60 60" xml:space="preserve"><path d="M20.707 28.293a.999.999 0 0 0-1.414 0l-2 2a.999.999 0 1 0 1.414 1.414l2-2a.999.999 0 0 0 0-1.414zM20 26a1 1 0 0 0-1-1h-3a1 1 0 1 0 0 2h3a1 1 0 0 0 1-1z"/><path d="M44 11a1 1 0 0 0 1-1V4a1 1 0 0 0-1-1h-2V0H24v3h-2a1 1 0 0 0-1 1v6a1 1 0 0 0 1 1h2v21.705l-2.897 4.098c-1.902 2.634-1.86 5.724.104 7.688a5.117 5.117 0 0 0 2.794 1.425V49h-2a1 1 0 0 0-1 1v6a1 1 0 0 0 1 1h2v3h18v-3h2a1 1 0 0 0 1-1v-6a1 1 0 0 0-1-1h-2V11H44zM26 2h14v1H26V2zm-3 7V5h20v4H23zm-.271 28.965 2.12-2.998 2.088 2.949c.127.204.241.401.342.591.262.491.433.931.547 1.333.547 1.928-.385 2.872-.749 3.236-.048.048-.105.084-.155.128-.101.088-.2.178-.309.252a3.137 3.137 0 0 1-.386.211c-.042.021-.082.047-.125.066a3.128 3.128 0 0 1-.538.174l-.009.003c-.192.043-.39.069-.591.076l-.177.006a3.135 3.135 0 0 1-2.167-.916c-1.263-1.263-1.223-3.266.109-5.111zM40 58H26v-1h14v1zm3-7v4H23v-4h20zm-3-2H26v-3.14c.244-.055.483-.129.715-.218.09-.035.175-.081.263-.121a4.946 4.946 0 0 0 .807-.453 5.05 5.05 0 0 0 .689-.562l.019-.015c.052-.052.103-.108.154-.163l.064-.068c1.18-1.312 2.039-3.462.326-6.693l-.007-.015a12.012 12.012 0 0 0-.428-.742L26 33.13V27h3a1 1 0 0 0 1-1v-3h3a1 1 0 0 0 1-1v-4a1 1 0 1 0-2 0v3h-3a1 1 0 0 0-1 1v3h-2V11h14v38z"/><path d="M19.293 23.707a.997.997 0 0 0 1.414 0 .999.999 0 0 0 0-1.414l-2.121-2.121a.999.999 0 1 0-1.414 1.414l2.121 2.121z"/></svg>