<?xml version="1.0" encoding="iso-8859-1"?>
<!-- Generator: Adobe Illustrator 18.0.0, SVG Export Plug-In . SVG Version: 6.00 Build 0)  -->
<!DOCTYPE svg PUBLIC "-//W3C//DTD SVG 1.1//EN" "http://www.w3.org/Graphics/SVG/1.1/DTD/svg11.dtd">
<svg version="1.1" id="Capa_1" xmlns="http://www.w3.org/2000/svg" xmlns:xlink="http://www.w3.org/1999/xlink" x="0px" y="0px"
	 viewBox="0 0 58 58" style="enable-background:new 0 0 58 58;" xml:space="preserve">
<path d="M58,31H40v-5h-6v3h-4.483C29.232,29,29,28.769,29,28.483V24h3v-6h-5V0H5v18H0v6h3v12.432C3,46.67,11.33,55,21.568,55H34v3h6
	v-5h18V31z M7,2h18v16H7V2z M2,22v-2h3h22h3v2h-1H3H2z M21.568,53C12.433,53,5,45.567,5,36.432V24h22v4.483
	C27,29.871,28.129,31,29.517,31H34v22H21.568z M38,56h-2v-1V29v-1h2v3v22V56z M56,51H40V33h16V51z"/>
<g>
</g>
<g>
</g>
<g>
</g>
<g>
</g>
<g>
</g>
<g>
</g>
<g>
</g>
<g>
</g>
<g>
</g>
<g>
</g>
<g>
</g>
<g>
</g>
<g>
</g>
<g>
</g>
<g>
</g>
</svg>
