<?xml version="1.0" encoding="iso-8859-1"?>
<!-- Generator: Adobe Illustrator 18.0.0, SVG Export Plug-In . SVG Version: 6.00 Build 0)  -->
<!DOCTYPE svg PUBLIC "-//W3C//DTD SVG 1.1//EN" "http://www.w3.org/Graphics/SVG/1.1/DTD/svg11.dtd">
<svg version="1.1" id="Capa_1" xmlns="http://www.w3.org/2000/svg" xmlns:xlink="http://www.w3.org/1999/xlink" x="0px" y="0px"
	 viewBox="0 0 60 60" style="enable-background:new 0 0 60 60;" xml:space="preserve">
<g>
	<path d="M33,37c0.13,0,0.26-0.027,0.382-0.077c0.123-0.051,0.233-0.124,0.326-0.217l2.539-2.539C37.038,34.691,37.983,35,39,35
		c2.757,0,5-2.243,5-5s-2.243-5-5-5s-5,2.243-5,5c0,1.017,0.309,1.962,0.833,2.753L32.586,35H31v-9h2c0.13,0,0.26-0.027,0.382-0.077
		c0.123-0.051,0.233-0.124,0.326-0.217l2.539-2.539C37.038,23.691,37.983,24,39,24c2.757,0,5-2.243,5-5s-2.243-5-5-5s-5,2.243-5,5
		c0,1.017,0.309,1.962,0.833,2.753L32.586,24H31V13.92c3.387-0.488,6-3.401,6-6.92c0-3.859-3.14-7-7-7s-7,3.141-7,7
		c0,3.519,2.613,6.432,6,6.92V22h-1.586l-2.247-2.247C25.691,18.962,26,18.017,26,17c0-2.757-2.243-5-5-5s-5,2.243-5,5s2.243,5,5,5
		c1.017,0,1.962-0.309,2.753-0.833l2.539,2.539c0.092,0.093,0.203,0.166,0.326,0.217C26.74,23.973,26.87,24,27,24h2v10h-1.586
		l-2.247-2.247C25.691,30.962,26,30.017,26,29c0-2.757-2.243-5-5-5s-5,2.243-5,5s2.243,5,5,5c1.017,0,1.962-0.309,2.753-0.833
		l2.539,2.539c0.092,0.093,0.203,0.166,0.326,0.217C26.74,35.973,26.87,36,27,36h2v2H17v8h2.277l4.616,14h12.216l4.616-14H43v-8H31
		v-1H33z M36,30c0-1.654,1.346-3,3-3s3,1.346,3,3s-1.346,3-3,3c-0.462,0-0.894-0.114-1.285-0.301l0.992-0.992
		c0.391-0.391,0.391-1.023,0-1.414s-1.023-0.391-1.414,0l-0.992,0.992C36.113,30.894,36,30.462,36,30z M36,19c0-1.654,1.346-3,3-3
		s3,1.346,3,3s-1.346,3-3,3c-0.462,0-0.894-0.114-1.285-0.301l0.992-0.992c0.391-0.391,0.391-1.023,0-1.414s-1.023-0.391-1.414,0
		l-0.992,0.992C36.113,19.894,36,19.462,36,19z M21,20c-1.654,0-3-1.346-3-3s1.346-3,3-3s3,1.346,3,3
		c0,0.462-0.113,0.894-0.301,1.285l-0.992-0.992c-0.391-0.391-1.023-0.391-1.414,0s-0.391,1.023,0,1.414l0.992,0.992
		C21.894,19.886,21.462,20,21,20z M21,32c-1.654,0-3-1.346-3-3s1.346-3,3-3s3,1.346,3,3c0,0.462-0.113,0.894-0.301,1.285
		l-0.992-0.992c-0.391-0.391-1.023-0.391-1.414,0s-0.391,1.023,0,1.414l0.992,0.992C21.894,31.886,21.462,32,21,32z M34.662,58
		h-9.323l-3.956-12h17.234L34.662,58z M41,44H19v-4h22V44z M25,7c0-2.757,2.243-5,5-5s5,2.243,5,5c0,2.415-1.721,4.434-4,4.899V8
		c0-0.553-0.448-1-1-1s-1,0.447-1,1v3.899C26.721,11.434,25,9.415,25,7z"/>
	<path d="M25,49h6c0.552,0,1-0.447,1-1s-0.448-1-1-1h-6c-0.552,0-1,0.447-1,1S24.448,49,25,49z"/>
	<path d="M34,49c0.26,0,0.52-0.11,0.71-0.29C34.89,48.52,35,48.26,35,48c0-0.271-0.11-0.53-0.29-0.71c-0.37-0.37-1.04-0.37-1.42,0
		C33.11,47.479,33,47.729,33,48c0,0.26,0.11,0.52,0.29,0.71C33.48,48.89,33.74,49,34,49z"/>
	<path d="M30,50h-2c-0.552,0-1,0.447-1,1s0.448,1,1,1h2c0.552,0,1-0.447,1-1S30.552,50,30,50z"/>
	<path d="M24.29,50.29C24.11,50.479,24,50.74,24,51c0,0.27,0.11,0.52,0.29,0.71C24.48,51.89,24.74,52,25,52
		c0.26,0,0.52-0.11,0.7-0.29C25.89,51.52,26,51.27,26,51c0-0.26-0.11-0.521-0.29-0.71C25.34,49.92,24.66,49.92,24.29,50.29z"/>
</g>
<g>
</g>
<g>
</g>
<g>
</g>
<g>
</g>
<g>
</g>
<g>
</g>
<g>
</g>
<g>
</g>
<g>
</g>
<g>
</g>
<g>
</g>
<g>
</g>
<g>
</g>
<g>
</g>
<g>
</g>
</svg>
