<svg xmlns="http://www.w3.org/2000/svg" viewBox="0 0 59.388 59.388" style="enable-background:new 0 0 59.388 59.388" xml:space="preserve"><path d="M30.194 37.388v-9.586l6.247-6.247a4.969 4.969 0 0 0 2.753.833c3.341 0 5.788-2.143 7.078-6.197.911-2.864.922-5.685.922-5.803v-1.1l-1.095.104c-.485.046-11.905 1.205-11.905 7.995 0 1.017.309 1.962.833 2.753l-4.833 4.833v-9.768a4.942 4.942 0 0 0 2.707-1.384c1.339-1.338 1.981-2.913 1.911-4.682-.174-4.376-4.773-8.347-4.97-8.514L29.108 0l-.652.713c-.307.336-7.458 8.276-2.625 13.109a4.959 4.959 0 0 0 2.363 1.312v8.84l-3.833-3.833a4.969 4.969 0 0 0 .833-2.753c0-6.79-11.42-7.949-11.905-7.995l-1.095-.104v1.1c0 .118.011 2.938.922 5.803 1.29 4.055 3.737 6.197 7.078 6.197a4.969 4.969 0 0 0 2.753-.833l5.247 5.247v10.172l-3.833-3.833a4.969 4.969 0 0 0 .833-2.753c0-6.79-11.42-7.949-11.905-7.995l-1.095-.104v1.1c0 .118.011 2.938.922 5.803 1.29 4.055 3.737 6.197 7.078 6.197a4.969 4.969 0 0 0 2.753-.833l2.833 2.833H14.194v8h2.069l1 14h23.861l1-14h2.069v-8H33.608l2.833-2.833a4.969 4.969 0 0 0 2.753.833c3.341 0 5.788-2.143 7.078-6.197.911-2.864.922-5.685.922-5.803v-1.1l-1.095.104c-.485.046-11.905 1.205-11.905 7.995 0 1.017.309 1.962.833 2.753l-4.247 4.247h-.586zm-7-20c0 .462-.114.894-.301 1.285l-6.72-6.72c2.97.734 7.021 2.307 7.021 5.435zm-8.753-4.339 7.038 7.038a2.968 2.968 0 0 1-1.285.301c-3.935 0-5.287-4.376-5.753-7.339zm24.753 20.339c-.462 0-.894-.114-1.285-.301l7.042-7.042c-.462 2.963-1.809 7.343-5.757 7.343zm4.017-8.431-6.717 6.717a2.968 2.968 0 0 1-.301-1.285c.001-3.121 4.048-4.696 7.018-5.432zm-4.017-4.569c-.462 0-.894-.114-1.285-.301l7.042-7.042c-.462 2.963-1.809 7.343-5.757 7.343zm4.017-8.431-6.717 6.717a2.968 2.968 0 0 1-.301-1.285c.001-3.121 4.048-4.696 7.018-5.432zM32.814 9.22c.048 1.205-.387 2.248-1.327 3.188a2.882 2.882 0 0 1-1.293.726V3.845c1.224 1.444 2.544 3.461 2.62 5.375zm-5.569 3.188c-2.208-2.208-.567-5.736.949-8.048v8.669a2.833 2.833 0 0 1-.949-.621zm-4.051 17.98c0 .462-.114.894-.301 1.285l-6.72-6.72c2.97.734 7.021 2.307 7.021 5.435zm-8.753-4.339 7.038 7.038a2.968 2.968 0 0 1-1.285.301c-3.935 0-5.287-4.376-5.753-7.339zm27.753 17.339h-1.931l-1 14H19.125l-1-14h-1.931v-4h26v4z"/><path d="M23.194 43.388a1 1 0 0 0-1 1v1a1 1 0 1 0 2 0v-1a1 1 0 0 0-1-1zM20.194 43.388a1 1 0 0 0-1 1v1a1 1 0 1 0 2 0v-1a1 1 0 0 0-1-1zM38.194 46.388a1 1 0 0 0 1-1v-1a1 1 0 1 0-2 0v1a1 1 0 0 0 1 1zM35.194 46.388a1 1 0 0 0 1-1v-1a1 1 0 1 0-2 0v1a1 1 0 0 0 1 1zM31.194 45.388a1 1 0 1 0 2 0v-1a1 1 0 1 0-2 0v1zM29.194 43.388a1 1 0 0 0-1 1v1a1 1 0 1 0 2 0v-1a1 1 0 0 0-1-1zM26.194 43.388a1 1 0 0 0-1 1v1a1 1 0 1 0 2 0v-1a1 1 0 0 0-1-1z"/></svg>