<?xml version="1.0" encoding="iso-8859-1"?>
<!-- Generator: Adobe Illustrator 18.0.0, SVG Export Plug-In . SVG Version: 6.00 Build 0)  -->
<!DOCTYPE svg PUBLIC "-//W3C//DTD SVG 1.1//EN" "http://www.w3.org/Graphics/SVG/1.1/DTD/svg11.dtd">
<svg version="1.1" id="Capa_1" xmlns="http://www.w3.org/2000/svg" xmlns:xlink="http://www.w3.org/1999/xlink" x="0px" y="0px"
	 viewBox="0 0 59.388 59.388" style="enable-background:new 0 0 59.388 59.388;" xml:space="preserve">
<g>
	<path d="M30.194,37.388v-9.586l6.247-6.247c0.791,0.524,1.736,0.833,2.753,0.833c3.341,0,5.788-2.143,7.078-6.197
		c0.911-2.864,0.922-5.685,0.922-5.803v-1.1l-1.095,0.104c-0.485,0.046-11.905,1.205-11.905,7.995c0,1.017,0.309,1.962,0.833,2.753
		l-4.833,4.833v-9.768c1.02-0.169,1.962-0.638,2.707-1.384c1.339-1.338,1.981-2.913,1.911-4.682
		c-0.174-4.376-4.773-8.347-4.97-8.514L29.108,0l-0.652,0.713c-0.307,0.336-7.458,8.276-2.625,13.109
		c0.66,0.66,1.477,1.099,2.363,1.312v8.84l-3.833-3.833c0.524-0.791,0.833-1.736,0.833-2.753c0-6.79-11.42-7.949-11.905-7.995
		l-1.095-0.104v1.1c0,0.118,0.011,2.938,0.922,5.803c1.29,4.055,3.737,6.197,7.078,6.197c1.017,0,1.962-0.309,2.753-0.833
		l5.247,5.247v10.172l-3.833-3.833c0.524-0.791,0.833-1.736,0.833-2.753c0-6.79-11.42-7.949-11.905-7.995l-1.095-0.104v1.1
		c0,0.118,0.011,2.938,0.922,5.803c1.29,4.055,3.737,6.197,7.078,6.197c1.017,0,1.962-0.309,2.753-0.833l2.833,2.833H14.194v8h2.069
		l1,14h23.861l1-14h2.069v-8H33.608l2.833-2.833c0.791,0.524,1.736,0.833,2.753,0.833c3.341,0,5.788-2.143,7.078-6.197
		c0.911-2.864,0.922-5.685,0.922-5.803v-1.1l-1.095,0.104c-0.485,0.046-11.905,1.205-11.905,7.995c0,1.017,0.309,1.962,0.833,2.753
		l-4.247,4.247H30.194z M23.194,17.388c0,0.462-0.114,0.894-0.301,1.285l-6.72-6.72C19.143,12.687,23.194,14.26,23.194,17.388z
		 M14.441,13.049l7.038,7.038c-0.391,0.187-0.824,0.301-1.285,0.301C16.259,20.388,14.907,16.012,14.441,13.049z M39.194,33.388
		c-0.462,0-0.894-0.114-1.285-0.301l7.042-7.042C44.489,29.008,43.142,33.388,39.194,33.388z M43.211,24.957l-6.717,6.717
		c-0.187-0.391-0.301-0.824-0.301-1.285C36.194,27.268,40.241,25.693,43.211,24.957z M39.194,20.388
		c-0.462,0-0.894-0.114-1.285-0.301l7.042-7.042C44.489,16.008,43.142,20.388,39.194,20.388z M43.211,11.957l-6.717,6.717
		c-0.187-0.391-0.301-0.824-0.301-1.285C36.194,14.268,40.241,12.693,43.211,11.957z M32.814,9.22
		c0.048,1.205-0.387,2.248-1.327,3.188c-0.362,0.362-0.814,0.595-1.293,0.726V3.845C31.418,5.289,32.738,7.306,32.814,9.22z
		 M27.245,12.408c-2.208-2.208-0.567-5.736,0.949-8.048v8.669C27.844,12.887,27.519,12.683,27.245,12.408z M23.194,30.388
		c0,0.462-0.114,0.894-0.301,1.285l-6.72-6.72C19.143,25.687,23.194,27.26,23.194,30.388z M14.441,26.049l7.038,7.038
		c-0.391,0.187-0.824,0.301-1.285,0.301C16.259,33.388,14.907,29.012,14.441,26.049z M42.194,43.388h-1.931l-1,14H19.125l-1-14
		h-1.931v-4h26V43.388z"/>
	<path d="M23.194,43.388c-0.553,0-1,0.447-1,1v1c0,0.553,0.447,1,1,1s1-0.447,1-1v-1C24.194,43.835,23.747,43.388,23.194,43.388z"/>
	<path d="M20.194,43.388c-0.553,0-1,0.447-1,1v1c0,0.553,0.447,1,1,1s1-0.447,1-1v-1C21.194,43.835,20.747,43.388,20.194,43.388z"/>
	<path d="M38.194,46.388c0.553,0,1-0.447,1-1v-1c0-0.553-0.447-1-1-1s-1,0.447-1,1v1C37.194,45.94,37.641,46.388,38.194,46.388z"/>
	<path d="M35.194,46.388c0.553,0,1-0.447,1-1v-1c0-0.553-0.447-1-1-1s-1,0.447-1,1v1C34.194,45.94,34.641,46.388,35.194,46.388z"/>
	<path d="M31.194,45.388c0,0.553,0.447,1,1,1s1-0.447,1-1v-1c0-0.553-0.447-1-1-1s-1,0.447-1,1V45.388z"/>
	<path d="M29.194,43.388c-0.553,0-1,0.447-1,1v1c0,0.553,0.447,1,1,1s1-0.447,1-1v-1C30.194,43.835,29.747,43.388,29.194,43.388z"/>
	<path d="M26.194,43.388c-0.553,0-1,0.447-1,1v1c0,0.553,0.447,1,1,1s1-0.447,1-1v-1C27.194,43.835,26.747,43.388,26.194,43.388z"/>
</g>
<g>
</g>
<g>
</g>
<g>
</g>
<g>
</g>
<g>
</g>
<g>
</g>
<g>
</g>
<g>
</g>
<g>
</g>
<g>
</g>
<g>
</g>
<g>
</g>
<g>
</g>
<g>
</g>
<g>
</g>
</svg>
