<?xml version="1.0" encoding="iso-8859-1"?>
<!-- Generator: Adobe Illustrator 18.0.0, SVG Export Plug-In . SVG Version: 6.00 Build 0)  -->
<!DOCTYPE svg PUBLIC "-//W3C//DTD SVG 1.1//EN" "http://www.w3.org/Graphics/SVG/1.1/DTD/svg11.dtd">
<svg version="1.1" id="Capa_1" xmlns="http://www.w3.org/2000/svg" xmlns:xlink="http://www.w3.org/1999/xlink" x="0px" y="0px"
	 viewBox="0 0 57.225 57.225" style="enable-background:new 0 0 57.225 57.225;" xml:space="preserve">
<g>
	<path d="M23.612,46.225h6c0.553,0,1-0.447,1-1s-0.447-1-1-1h-6c-0.553,0-1,0.447-1,1S23.06,46.225,23.612,46.225z"/>
	<path d="M32.612,46.225c0.26,0,0.52-0.11,0.71-0.29c0.18-0.19,0.29-0.45,0.29-0.71c0-0.271-0.11-0.53-0.29-0.71
		c-0.37-0.37-1.05-0.36-1.41,0c-0.19,0.18-0.3,0.439-0.3,0.71c0,0.26,0.109,0.52,0.29,0.71
		C32.092,46.114,32.353,46.225,32.612,46.225z"/>
	<path d="M28.612,47.225h-2c-0.553,0-1,0.447-1,1s0.447,1,1,1h2c0.553,0,1-0.447,1-1S29.165,47.225,28.612,47.225z"/>
	<path d="M23.612,49.225c0.26,0,0.52-0.11,0.71-0.29c0.18-0.19,0.29-0.45,0.29-0.71s-0.11-0.521-0.29-0.71
		c-0.38-0.37-1.05-0.37-1.42,0c-0.181,0.189-0.29,0.45-0.29,0.71c0,0.27,0.109,0.52,0.29,0.71
		C23.092,49.114,23.353,49.225,23.612,49.225z"/>
	<path d="M50.511,18.786c-0.241-0.496-0.836-0.703-1.337-0.46l-3.033,1.479c-0.251-0.437-0.609-0.813-1.035-1.082
		c-0.156-0.098-0.321-0.183-0.493-0.255v-3.244c0-0.553-0.447-1-1-1s-1,0.447-1,1v3.106c-0.653,0.174-1.268,0.572-1.72,1.286
		c-1.075,1.702-3.122,2.311-5.28,2.729v-3.12c0-0.553-0.447-1-1-1s-1,0.447-1,1v3.483c-0.559,0.1-1.119,0.205-1.648,0.333
		c-1.213,0.294-2.352,0.763-3.396,1.398c-0.154-0.272-0.311-0.531-0.47-0.78c-0.317-0.494-0.905-1.845-0.96-2.083
		c-0.014-2.178,2.265-3.67,4.469-5.112c1.001-0.656,1.947-1.275,2.717-1.974c0.725-0.658,1.301-1.434,1.753-2.266h4.536
		c0.553,0,1-0.447,1-1s-0.447-1-1-1h-3.744c0.109-0.435,0.176-0.876,0.213-1.32l3.94-1.768c0.504-0.226,0.729-0.817,0.503-1.321
		s-0.817-0.73-1.321-0.503l-3.219,1.445c-0.072-0.378-0.17-0.752-0.301-1.117c-0.165-0.463-0.432-0.848-0.757-1.166l1.557-2.757
		c0.271-0.481,0.102-1.091-0.379-1.363c-0.482-0.269-1.091-0.102-1.363,0.379l-1.645,2.913c-1.035-0.099-2.079,0.272-2.72,1.025
		c-0.007,0.008-0.01,0.019-0.017,0.027l-3.16-2.284c-0.45-0.323-1.074-0.224-1.396,0.225c-0.323,0.448-0.223,1.073,0.225,1.396
		l3.777,2.729c0.029,0.202,0.067,0.406,0.14,0.61c0.464,1.3-0.156,2.34-1.385,3.382l-2.239-2.239c-0.391-0.391-1.023-0.391-1.414,0
		s-0.391,1.023,0,1.414l2.022,2.022c-0.282,0.188-0.576,0.378-0.882,0.573c-0.586,0.374-1.14,0.727-1.615,1.081
		c-1.523,1.136-2.681,2.508-3.404,4.025c-1.828-1.547-3.525-3.084-4.536-4.872l4.829-4.829c0.391-0.391,0.391-1.023,0-1.414
		s-1.023-0.391-1.414,0l-4.208,4.208c-0.19-0.851-0.225-1.761-0.052-2.756c0.382-2.197-1.751-7.211-2.562-7.633L13.423,0
		l-0.518,0.518c-0.578,0.578-1.187,2.449-1.601,3.985L8.319,1.518c-0.391-0.391-1.023-0.391-1.414,0s-0.391,1.023,0,1.414l3.88,3.88
		c-0.679,4.347,0.779,7.6,2.994,10.413H9.612c-0.553,0-1,0.447-1,1s0.447,1,1,1h5.912c0.837,0.883,1.718,1.738,2.595,2.584
		c1.177,1.136,2.33,2.254,3.342,3.416h-3.849c-0.553,0-1,0.447-1,1s0.447,1,1,1h5.381c0.904,1.375,1.539,2.851,1.734,4.517
		l-3.755-1.449c-0.519-0.199-1.094,0.057-1.293,0.572s0.058,1.095,0.572,1.293l4.487,1.732c-0.039,0.364-0.095,0.735-0.175,1.117
		c-0.015,0.073-0.009,0.146-0.019,0.219H13.612v8h2.61l3.615,14h17.549l3.615-14h2.61v-8H30.59c0.02-0.133,0.051-0.271,0.068-0.403
		l4.477-2.744c0.471-0.288,0.619-0.904,0.33-1.375c-0.288-0.47-0.903-0.619-1.375-0.33l-3.302,2.024
		c-0.007-0.716-0.045-1.424-0.145-2.119c1.431-1.383,3.779-1.788,6.056-2.181c0.398-0.069,0.782-0.138,1.162-0.209l3.045,3.044
		c0.195,0.195,0.451,0.293,0.707,0.293s0.512-0.098,0.707-0.293c0.391-0.391,0.391-1.023,0-1.414l-2.195-2.195
		c1.257-0.42,2.399-1.036,3.402-1.831l3.497,2.541c0.178,0.129,0.383,0.191,0.587,0.191c0.31,0,0.614-0.143,0.81-0.412
		c0.325-0.447,0.226-1.072-0.221-1.396l-3.204-2.328c0.375-0.432,0.728-0.888,1.042-1.384c0.168-0.266,0.272-0.531,0.35-0.794
		l3.663-1.787C50.547,19.881,50.753,19.282,50.511,18.786z M35.838,55.225H21.387l-3.099-12h20.648L35.838,55.225z M41.612,41.225
		h-0.094H15.706h-0.094v-4h9.218h5.391h11.392V41.225z M36.358,26.125c-2.667,0.461-5.69,0.982-7.546,3.185l-0.302,0.358
		l0.082,0.462c0.287,1.613,0.283,3.287-0.016,5.095H26.56c0.134-0.684,0.197-1.334,0.223-1.967c0.001-0.031,0.007-0.061,0.005-0.091
		c0.185-5.572-3.596-9.241-7.28-12.796c-0.985-0.951-1.956-1.889-2.845-2.852c0,0-0.001-0.001-0.001-0.001
		c-2.711-2.937-4.655-6.111-3.874-10.611c0.159-0.918,0.532-2.288,0.885-3.367c0.566,1.353,1.164,3.148,1.001,4.089
		c-0.342,1.966-0.049,3.666,0.621,5.182c0.026,0.11,0.07,0.211,0.133,0.309c1.295,2.679,3.785,4.767,6.082,6.692l1.483,1.245
		l0.426-1.479c0.474-1.646,1.583-3.155,3.207-4.366c0.417-0.311,0.94-0.645,1.495-0.998c2.396-1.526,6.017-3.834,4.705-7.51
		C32.68,6.292,32.799,6.086,32.9,5.966c0.231-0.272,0.702-0.413,1.115-0.339c0.384,0.07,0.647,0.301,0.785,0.685
		c0.8,2.242,0.051,4.996-1.822,6.698c-0.652,0.592-1.534,1.169-2.468,1.78c-2.528,1.655-5.393,3.531-5.373,6.798
		c0.004,0.747,1.005,2.729,1.276,3.15c0.306,0.478,0.599,1,0.896,1.599l0.536,1.075l0.96-0.722c1.077-0.81,2.298-1.384,3.628-1.706
		c0.677-0.164,1.412-0.291,2.189-0.426c2.901-0.504,6.189-1.074,7.96-3.874c0.52-0.821,1.358-0.33,1.453-0.271
		c0.232,0.146,0.728,0.56,0.311,1.222c-1.251,1.977-3.12,3.349-5.406,3.968C38.165,25.813,37.288,25.965,36.358,26.125z"/>
</g>
<g>
</g>
<g>
</g>
<g>
</g>
<g>
</g>
<g>
</g>
<g>
</g>
<g>
</g>
<g>
</g>
<g>
</g>
<g>
</g>
<g>
</g>
<g>
</g>
<g>
</g>
<g>
</g>
<g>
</g>
</svg>
