<svg xmlns="http://www.w3.org/2000/svg" viewBox="0 0 59 59" style="enable-background:new 0 0 59 59" xml:space="preserve"><path d="M24.5 48h6a1 1 0 1 0 0-2h-6a1 1 0 1 0 0 2zM33.5 48c.26 0 .52-.11.71-.29.18-.19.29-.45.29-.71s-.11-.521-.29-.71c-.38-.37-1.05-.36-1.41 0a.98.98 0 0 0-.3.71c0 .26.109.52.29.71.189.18.45.29.71.29zM29.5 49h-2a1 1 0 1 0 0 2h2a1 1 0 1 0 0-2zM24.5 51c.26 0 .52-.101.71-.29.18-.19.29-.45.29-.71s-.11-.521-.29-.71c-.38-.37-1.05-.37-1.42 0-.19.189-.29.45-.29.71 0 .27.109.52.29.71.189.18.45.29.71.29z"/><path d="M51.5 8c-9.349 0-17.407 7.317-21 17.787V1a1 1 0 1 0-2 0v24.787C24.907 15.317 16.849 8 7.5 8a1 1 0 1 0 0 2c8.883 0 16.491 7.396 19.554 17.81C23.144 22.519 16.291 19 8.5 19a1 1 0 1 0 0 2c8.738 0 16.165 4.795 18.882 11.445C24.013 29.749 18.218 28 11.5 28a1 1 0 1 0 0 2c8.495 0 15.76 3.115 16.845 7H14.5v8h2.61l3.615 14h17.549l3.615-14h2.61v-8H30.655c1.085-3.885 8.349-7 16.845-7a1 1 0 1 0 0-2c-6.718 0-12.513 1.749-15.882 4.445C34.335 25.795 41.762 21 50.5 21a1 1 0 1 0 0-2c-7.791 0-14.644 3.519-18.554 8.81C35.009 17.396 42.617 10 51.5 10a1 1 0 1 0 0-2zM36.726 57H22.274l-3.099-12h20.648l-3.097 12zM42.5 43H16.5v-4h26v4z"/></svg>