<svg xmlns="http://www.w3.org/2000/svg" viewBox="0 0 57.225 57.225" style="enable-background:new 0 0 57.225 57.225" xml:space="preserve"><path d="M23.612 46.225h6a1 1 0 1 0 0-2h-6a1 1 0 1 0 0 2zM32.612 46.225c.26 0 .52-.11.71-.29.18-.19.29-.45.29-.71 0-.271-.11-.53-.29-.71-.37-.37-1.05-.36-1.41 0a.98.98 0 0 0-.3.71c0 .26.109.52.29.71.19.179.451.29.71.29zM28.612 47.225h-2a1 1 0 1 0 0 2h2a1 1 0 1 0 0-2zM23.612 49.225c.26 0 .52-.11.71-.29.18-.19.29-.45.29-.71s-.11-.521-.29-.71c-.38-.37-1.05-.37-1.42 0-.181.189-.29.45-.29.71 0 .27.109.52.29.71.19.179.451.29.71.29z"/><path d="M50.511 18.786a.998.998 0 0 0-1.337-.46l-3.033 1.479a3.126 3.126 0 0 0-1.528-1.337v-3.244a1 1 0 1 0-2 0v3.106c-.653.174-1.268.572-1.72 1.286-1.075 1.702-3.122 2.311-5.28 2.729v-3.12a1 1 0 1 0-2 0v3.483c-.559.1-1.119.205-1.648.333a11.912 11.912 0 0 0-3.396 1.398 17.113 17.113 0 0 0-.47-.78c-.317-.494-.905-1.845-.96-2.083-.014-2.178 2.265-3.67 4.469-5.112 1.001-.656 1.947-1.275 2.717-1.974a8.546 8.546 0 0 0 1.753-2.266h4.536a1 1 0 1 0 0-2H36.87c.109-.435.176-.876.213-1.32l3.94-1.768a1 1 0 1 0-.818-1.824l-3.219 1.445a7.403 7.403 0 0 0-.301-1.117 3.061 3.061 0 0 0-.757-1.166l1.557-2.757a1.001 1.001 0 0 0-1.742-.984l-1.645 2.913c-1.035-.099-2.079.272-2.72 1.025-.007.008-.01.019-.017.027l-3.16-2.284a1 1 0 1 0-1.171 1.621l3.777 2.729c.029.202.067.406.14.61.464 1.3-.156 2.34-1.385 3.382l-2.239-2.239a.999.999 0 1 0-1.414 1.414l2.022 2.022c-.282.188-.576.378-.882.573-.586.374-1.14.727-1.615 1.081-1.523 1.136-2.681 2.508-3.404 4.025-1.828-1.547-3.525-3.084-4.536-4.872l4.829-4.829a.999.999 0 1 0-1.414-1.414l-4.208 4.208a6.986 6.986 0 0 1-.052-2.756c.382-2.197-1.751-7.211-2.562-7.633L13.423 0l-.518.518c-.578.578-1.187 2.449-1.601 3.985L8.319 1.518a.999.999 0 1 0-1.414 1.414l3.88 3.88c-.679 4.347.779 7.6 2.994 10.413H9.612a1 1 0 1 0 0 2h5.912a82.122 82.122 0 0 0 2.595 2.584c1.177 1.136 2.33 2.254 3.342 3.416h-3.849a1 1 0 1 0 0 2h5.381c.904 1.375 1.539 2.851 1.734 4.517l-3.755-1.449a1 1 0 0 0-.721 1.865l4.487 1.732a11.3 11.3 0 0 1-.175 1.117c-.015.073-.009.146-.019.219H13.612v8h2.61l3.615 14h17.549l3.615-14h2.61v-8H30.59c.02-.133.051-.271.068-.403l4.477-2.744a1 1 0 1 0-1.045-1.705l-3.302 2.024a15.978 15.978 0 0 0-.145-2.119c1.431-1.383 3.779-1.788 6.056-2.181.398-.069.782-.138 1.162-.209l3.045 3.044a.997.997 0 0 0 1.414 0 .999.999 0 0 0 0-1.414l-2.195-2.195a11.126 11.126 0 0 0 3.402-1.831l3.497 2.541a.999.999 0 1 0 1.176-1.617l-3.204-2.328c.375-.432.728-.888 1.042-1.384.168-.266.272-.531.35-.794l3.663-1.787c.496-.243.702-.842.46-1.338zM35.838 55.225H21.387l-3.099-12h20.648l-3.098 12zm5.774-14H15.612v-4H41.613v4zm-5.254-15.1c-2.667.461-5.69.982-7.546 3.185l-.302.358.082.462c.287 1.613.283 3.287-.016 5.095H26.56c.134-.684.197-1.334.223-1.967.001-.031.007-.061.005-.091.185-5.572-3.596-9.241-7.28-12.796-.985-.951-1.956-1.889-2.845-2.852l-.001-.001c-2.711-2.937-4.655-6.111-3.874-10.611.159-.918.532-2.288.885-3.367.566 1.353 1.164 3.148 1.001 4.089-.342 1.966-.049 3.666.621 5.182.026.11.07.211.133.309 1.295 2.679 3.785 4.767 6.082 6.692l1.483 1.245.426-1.479c.474-1.646 1.583-3.155 3.207-4.366.417-.311.94-.645 1.495-.998 2.396-1.526 6.017-3.834 4.705-7.51-.146-.412-.027-.618.074-.738.231-.272.702-.413 1.115-.339.384.07.647.301.785.685.8 2.242.051 4.996-1.822 6.698-.652.592-1.534 1.169-2.468 1.78-2.528 1.655-5.393 3.531-5.373 6.798.004.747 1.005 2.729 1.276 3.15.306.478.599 1 .896 1.599l.536 1.075.96-.722a9.857 9.857 0 0 1 3.628-1.706c.677-.164 1.412-.291 2.189-.426 2.901-.504 6.189-1.074 7.96-3.874.52-.821 1.358-.33 1.453-.271.232.146.728.56.311 1.222-1.251 1.977-3.12 3.349-5.406 3.968-.775.21-1.652.362-2.582.522z"/></svg>