<svg xmlns="http://www.w3.org/2000/svg" viewBox="0 0 60 60" style="enable-background:new 0 0 60 60" xml:space="preserve"><path d="M33 37a1.01 1.01 0 0 0 .708-.294l2.539-2.539A4.969 4.969 0 0 0 39 35c2.757 0 5-2.243 5-5s-2.243-5-5-5-5 2.243-5 5c0 1.017.309 1.962.833 2.753L32.586 35H31v-9h2a1.01 1.01 0 0 0 .708-.294l2.539-2.539A4.969 4.969 0 0 0 39 24c2.757 0 5-2.243 5-5s-2.243-5-5-5-5 2.243-5 5c0 1.017.309 1.962.833 2.753L32.586 24H31V13.92c3.387-.488 6-3.401 6-6.92 0-3.859-3.14-7-7-7s-7 3.141-7 7c0 3.519 2.613 6.432 6 6.92V22h-1.586l-2.247-2.247A4.969 4.969 0 0 0 26 17c0-2.757-2.243-5-5-5s-5 2.243-5 5 2.243 5 5 5a4.969 4.969 0 0 0 2.753-.833l2.539 2.539A1.01 1.01 0 0 0 27 24h2v10h-1.586l-2.247-2.247A4.969 4.969 0 0 0 26 29c0-2.757-2.243-5-5-5s-5 2.243-5 5 2.243 5 5 5a4.969 4.969 0 0 0 2.753-.833l2.539 2.539A1.01 1.01 0 0 0 27 36h2v2H17v8h2.277l4.616 14h12.216l4.616-14H43v-8H31v-1h2zm3-7c0-1.654 1.346-3 3-3s3 1.346 3 3-1.346 3-3 3c-.462 0-.894-.114-1.285-.301l.992-.992a.999.999 0 1 0-1.414-1.414l-.992.992A2.95 2.95 0 0 1 36 30zm0-11c0-1.654 1.346-3 3-3s3 1.346 3 3-1.346 3-3 3c-.462 0-.894-.114-1.285-.301l.992-.992a.999.999 0 1 0-1.414-1.414l-.992.992A2.95 2.95 0 0 1 36 19zm-15 1c-1.654 0-3-1.346-3-3s1.346-3 3-3 3 1.346 3 3c0 .462-.113.894-.301 1.285l-.992-.992a.999.999 0 1 0-1.414 1.414l.992.992A2.965 2.965 0 0 1 21 20zm0 12c-1.654 0-3-1.346-3-3s1.346-3 3-3 3 1.346 3 3c0 .462-.113.894-.301 1.285l-.992-.992a.999.999 0 1 0-1.414 1.414l.992.992A2.965 2.965 0 0 1 21 32zm13.662 26h-9.323l-3.956-12h17.234l-3.955 12zM41 44H19v-4h22v4zM25 7c0-2.757 2.243-5 5-5s5 2.243 5 5a5.009 5.009 0 0 1-4 4.899V8a1 1 0 1 0-2 0v3.899A5.009 5.009 0 0 1 25 7z"/><path d="M25 49h6a1 1 0 1 0 0-2h-6a1 1 0 1 0 0 2zM34 49c.26 0 .52-.11.71-.29.18-.19.29-.45.29-.71 0-.271-.11-.53-.29-.71-.37-.37-1.04-.37-1.42 0-.18.189-.29.439-.29.71 0 .26.11.52.29.71.19.18.45.29.71.29zM30 50h-2a1 1 0 1 0 0 2h2a1 1 0 1 0 0-2zM24.29 50.29c-.18.189-.29.45-.29.71 0 .27.11.52.29.71.19.18.45.29.71.29a1.009 1.009 0 0 0 1-1c0-.26-.11-.521-.29-.71-.37-.37-1.05-.37-1.42 0z"/></svg>