<svg xmlns="http://www.w3.org/2000/svg" viewBox="0 0 60 60" style="enable-background:new 0 0 60 60" xml:space="preserve"><path d="M60 4.5H0v48h3v3h6v-3h42v3h6v-3h3v-48zm-53 49H5v-1h2v1zm48 0h-2v-1h2v1zm3-3H2v-44h56v44z"/><path d="M13 7.5H3v17h10v-17zm-2 15H5v-13h6v13zM24 7.5H14v17h10v-17zm-2 15h-6v-13h6v13zM35 7.5H25v17h10v-17zm-2 15h-6v-13h6v13zM46 7.5H36v17h10v-17zm-2 15h-6v-13h6v13zM57 7.5H47v17h10v-17zm-2 15h-6v-13h6v13z"/><path d="M7 12.5h2a1 1 0 1 0 0-2H7a1 1 0 1 0 0 2zM7 15.5h2a1 1 0 1 0 0-2H7a1 1 0 1 0 0 2zM7 18.5h2a1 1 0 1 0 0-2H7a1 1 0 1 0 0 2zM7 21.5h2a1 1 0 1 0 0-2H7a1 1 0 1 0 0 2zM18 12.5h2a1 1 0 1 0 0-2h-2a1 1 0 1 0 0 2zM18 15.5h2a1 1 0 1 0 0-2h-2a1 1 0 1 0 0 2zM18 18.5h2a1 1 0 1 0 0-2h-2a1 1 0 1 0 0 2zM18 21.5h2a1 1 0 1 0 0-2h-2a1 1 0 1 0 0 2zM29 12.5h2a1 1 0 1 0 0-2h-2a1 1 0 1 0 0 2zM29 15.5h2a1 1 0 1 0 0-2h-2a1 1 0 1 0 0 2zM29 18.5h2a1 1 0 1 0 0-2h-2a1 1 0 1 0 0 2zM29 21.5h2a1 1 0 1 0 0-2h-2a1 1 0 1 0 0 2zM40 12.5h2a1 1 0 1 0 0-2h-2a1 1 0 1 0 0 2zM40 15.5h2a1 1 0 1 0 0-2h-2a1 1 0 1 0 0 2zM40 18.5h2a1 1 0 1 0 0-2h-2a1 1 0 1 0 0 2zM40 21.5h2a1 1 0 1 0 0-2h-2a1 1 0 1 0 0 2zM51 12.5h2a1 1 0 1 0 0-2h-2a1 1 0 1 0 0 2zM51 15.5h2a1 1 0 1 0 0-2h-2a1 1 0 1 0 0 2zM51 18.5h2a1 1 0 1 0 0-2h-2a1 1 0 1 0 0 2zM51 21.5h2a1 1 0 1 0 0-2h-2a1 1 0 1 0 0 2zM44 49.5h6v-6h-6v6zm2-4h2v2h-2v-2zM51 49.5h6v-6h-6v6zm2-4h2v2h-2v-2z"/></svg>