<svg xmlns="http://www.w3.org/2000/svg" viewBox="0 0 60 60" style="enable-background:new 0 0 60 60" xml:space="preserve"><path d="M60 4.5H0v48h3v3h6v-3h42v3h6v-3h3v-48zm-53 49H5v-1h2v1zm48 0h-2v-1h2v1zm3-3H2v-44h56v44z"/><path d="M56 48.5v-8H4v8h52zm-35-3h3v1h-3v-1zm-2 1h-3v-1h3v1zm7-1h3v1h-3v-1zm5 0h3v1h-3v-1zm5 0h3v1h-3v-1zm5 0h3v1h-3v-1zm5 0h3v1h-3v-1zm0-2v-1h3v1h-3zm-2 0h-3v-1h3v1zm-5 0h-3v-1h3v1zm-5 0h-3v-1h3v1zm-5 0h-3v-1h3v1zm-5 0h-3v-1h3v1zm-5 0h-3v-1h3v1zm-5 0h-3v-1h3v1zm0 2v1h-3v-1h3zm37 1v-1h3v1h-3zm3-3h-3v-1h3v1zm-45-1v1H6v-1h3zm-3 3h3v1H6v-1zM56 22.5v-14H4v14h52zm-50-8h3v2H6v-2zm5 0h3v2h-3v-2zm43 2h-3v-2h3v2zm-5 0h-3v-2h3v2zm-10 0h-3v-2h3v2zm2-2h3v2h-3v-2zm-7 2h-3v-2h3v2zm-5 0h-3v-2h3v2zm-5 0h-3v-2h3v2zm-5 0h-3v-2h3v2zm0 2v2h-3v-2h3zm2 0h3v2h-3v-2zm5 0h3v2h-3v-2zm5 0h3v2h-3v-2zm5 0h3v2h-3v-2zm5 0h3v2h-3v-2zm5 0h3v2h-3v-2zm0-6v-2h3v2h-3zm-2 0h-3v-2h3v2zm-5 0h-3v-2h3v2zm-5 0h-3v-2h3v2zm-5 0h-3v-2h3v2zm-5 0h-3v-2h3v2zm-5 0h-3v-2h3v2zm-5 0h-3v-2h3v2zm0 6v2h-3v-2h3zm37 2v-2h3v2h-3zm3-8h-3v-2h3v2zm-45-2v2H6v-2h3zm-3 8h3v2H6v-2zM35 31.5c0 2.757 2.243 5 5 5s5-2.243 5-5-2.243-5-5-5-5 2.243-5 5zm8 0c0 1.654-1.346 3-3 3s-3-1.346-3-3c0-1.302.839-2.402 2-2.816V31.5a1 1 0 1 0 2 0v-2.816c1.161.414 2 1.514 2 2.816zM54.52 27.955A4.982 4.982 0 0 0 51 26.5c-2.757 0-5 2.243-5 5s2.243 5 5 5 5-2.243 5-5a4.982 4.982 0 0 0-1.455-3.52c-.004-.005-.005-.011-.01-.015l-.015-.01zM51 34.5c-1.654 0-3-1.346-3-3s1.346-3 3-3c.462 0 .894.114 1.285.301l-1.992 1.992a.999.999 0 1 0 1.414 1.414l1.992-1.992c.187.391.301.823.301 1.285 0 1.654-1.346 3-3 3zM10 28.5H4v6h6v-6zm-2 4H6v-2h2v2zM11 34.5h6v-6h-6v6zm2-4h2v2h-2v-2z"/></svg>