<svg xmlns="http://www.w3.org/2000/svg" viewBox="0 0 60 60" style="enable-background:new 0 0 60 60" xml:space="preserve"><path d="M42 14c-1.654 0-3 1.346-3 3v26c0 1.654 1.346 3 3 3s3-1.346 3-3V17c0-1.654-1.346-3-3-3zm1 29a1 1 0 0 1-2 0V17a1 1 0 0 1 2 0v26zM32 14c-1.654 0-3 1.346-3 3v26c0 1.654 1.346 3 3 3s3-1.346 3-3V17c0-1.654-1.346-3-3-3zm1 29a1 1 0 0 1-2 0V17a1 1 0 0 1 2 0v26zM12 14c-1.654 0-3 1.346-3 3v26c0 1.654 1.346 3 3 3s3-1.346 3-3V17c0-1.654-1.346-3-3-3zm1 29a1 1 0 0 1-2 0V17a1 1 0 0 1 2 0v26zM22 14c-1.654 0-3 1.346-3 3v26c0 1.654 1.346 3 3 3s3-1.346 3-3V17c0-1.654-1.346-3-3-3zm1 29a1 1 0 0 1-2 0V17a1 1 0 0 1 2 0v26z"/><path d="M57.5 17c1.379 0 2.5-1.121 2.5-2.5v-3c0-1.379-1.121-2.5-2.5-2.5S55 10.121 55 11.5v.5h-1V9h-3V8c0-2.206-1.794-4-4-4s-4 1.794-4 4v1a1 1 0 0 1-2 0V8c0-2.206-1.794-4-4-4s-4 1.794-4 4v1a1 1 0 0 1-2 0V8c0-2.206-1.794-4-4-4s-4 1.794-4 4v1a1 1 0 0 1-2 0V8c0-2.206-1.794-4-4-4s-4 1.794-4 4v1a1 1 0 0 1-2 0V8c0-2.206-1.794-4-4-4S3 5.794 3 8v2H0v7h3v26H0v7h3v2c0 2.206 1.794 4 4 4s4-1.794 4-4v-1a1 1 0 0 1 2 0v1c0 2.206 1.794 4 4 4s4-1.794 4-4v-1a1 1 0 0 1 2 0v1c0 2.206 1.794 4 4 4s4-1.794 4-4v-1a1 1 0 0 1 2 0v1c0 2.206 1.794 4 4 4s4-1.794 4-4v-1a1 1 0 0 1 2 0v1c0 2.206 1.794 4 4 4s4-1.794 4-4v-2h3v-1h6v-5h-6v-1h-3V17h3v-3h1v.5c0 1.379 1.121 2.5 2.5 2.5zM2 15v-3h1v3H2zm0 33v-3h1v3H2zm56-2v1h-4v-1h4zm-6-1v3h-1v-3h1zm-3-2v9c0 1.103-.897 2-2 2s-2-.897-2-2v-1c0-1.654-1.346-3-3-3s-3 1.346-3 3v1c0 1.103-.897 2-2 2s-2-.897-2-2v-1c0-1.654-1.346-3-3-3s-3 1.346-3 3v1c0 1.103-.897 2-2 2s-2-.897-2-2v-1c0-1.654-1.346-3-3-3s-3 1.346-3 3v1c0 1.103-.897 2-2 2s-2-.897-2-2v-1c0-1.654-1.346-3-3-3s-3 1.346-3 3v1c0 1.103-.897 2-2 2s-2-.897-2-2V8c0-1.103.897-2 2-2s2 .897 2 2v1c0 1.654 1.346 3 3 3s3-1.346 3-3V8c0-1.103.897-2 2-2s2 .897 2 2v1c0 1.654 1.346 3 3 3s3-1.346 3-3V8c0-1.103.897-2 2-2s2 .897 2 2v1c0 1.654 1.346 3 3 3s3-1.346 3-3V8c0-1.103.897-2 2-2s2 .897 2 2v1c0 1.654 1.346 3 3 3s3-1.346 3-3V8c0-1.103.897-2 2-2s2 .897 2 2v35zm3-28h-1v-4h1v4zm5-3.5c0-.275.225-.5.5-.5s.5.225.5.5v3c0 .275-.225.5-.5.5s-.5-.225-.5-.5v-3z"/></svg>