<?xml version="1.0" encoding="iso-8859-1"?>
<!-- Generator: Adobe Illustrator 18.0.0, SVG Export Plug-In . SVG Version: 6.00 Build 0)  -->
<!DOCTYPE svg PUBLIC "-//W3C//DTD SVG 1.1//EN" "http://www.w3.org/Graphics/SVG/1.1/DTD/svg11.dtd">
<svg version="1.1" id="Capa_1" xmlns="http://www.w3.org/2000/svg" xmlns:xlink="http://www.w3.org/1999/xlink" x="0px" y="0px"
	 viewBox="0 0 60 60" style="enable-background:new 0 0 60 60;" xml:space="preserve">
<g>
	<path d="M60,4.5H0v48h3v3h6v-3h42v3h6v-3h3V4.5z M7,53.5H5v-1h2V53.5z M55,53.5h-2v-1h2V53.5z M58,50.5h-1h-6H9H3H2v-44h56V50.5z"
		/>
	<path d="M13,7.5H3v17h10V7.5z M11,22.5H5v-13h6V22.5z"/>
	<path d="M24,7.5H14v17h10V7.5z M22,22.5h-6v-13h6V22.5z"/>
	<path d="M35,7.5H25v17h10V7.5z M33,22.5h-6v-13h6V22.5z"/>
	<path d="M46,7.5H36v17h10V7.5z M44,22.5h-6v-13h6V22.5z"/>
	<path d="M57,7.5H47v17h10V7.5z M55,22.5h-6v-13h6V22.5z"/>
	<path d="M7,12.5h2c0.553,0,1-0.447,1-1s-0.447-1-1-1H7c-0.553,0-1,0.447-1,1S6.447,12.5,7,12.5z"/>
	<path d="M7,15.5h2c0.553,0,1-0.447,1-1s-0.447-1-1-1H7c-0.553,0-1,0.447-1,1S6.447,15.5,7,15.5z"/>
	<path d="M7,18.5h2c0.553,0,1-0.447,1-1s-0.447-1-1-1H7c-0.553,0-1,0.447-1,1S6.447,18.5,7,18.5z"/>
	<path d="M7,21.5h2c0.553,0,1-0.447,1-1s-0.447-1-1-1H7c-0.553,0-1,0.447-1,1S6.447,21.5,7,21.5z"/>
	<path d="M18,12.5h2c0.553,0,1-0.447,1-1s-0.447-1-1-1h-2c-0.553,0-1,0.447-1,1S17.447,12.5,18,12.5z"/>
	<path d="M18,15.5h2c0.553,0,1-0.447,1-1s-0.447-1-1-1h-2c-0.553,0-1,0.447-1,1S17.447,15.5,18,15.5z"/>
	<path d="M18,18.5h2c0.553,0,1-0.447,1-1s-0.447-1-1-1h-2c-0.553,0-1,0.447-1,1S17.447,18.5,18,18.5z"/>
	<path d="M18,21.5h2c0.553,0,1-0.447,1-1s-0.447-1-1-1h-2c-0.553,0-1,0.447-1,1S17.447,21.5,18,21.5z"/>
	<path d="M29,12.5h2c0.553,0,1-0.447,1-1s-0.447-1-1-1h-2c-0.553,0-1,0.447-1,1S28.447,12.5,29,12.5z"/>
	<path d="M29,15.5h2c0.553,0,1-0.447,1-1s-0.447-1-1-1h-2c-0.553,0-1,0.447-1,1S28.447,15.5,29,15.5z"/>
	<path d="M29,18.5h2c0.553,0,1-0.447,1-1s-0.447-1-1-1h-2c-0.553,0-1,0.447-1,1S28.447,18.5,29,18.5z"/>
	<path d="M29,21.5h2c0.553,0,1-0.447,1-1s-0.447-1-1-1h-2c-0.553,0-1,0.447-1,1S28.447,21.5,29,21.5z"/>
	<path d="M40,12.5h2c0.553,0,1-0.447,1-1s-0.447-1-1-1h-2c-0.553,0-1,0.447-1,1S39.447,12.5,40,12.5z"/>
	<path d="M40,15.5h2c0.553,0,1-0.447,1-1s-0.447-1-1-1h-2c-0.553,0-1,0.447-1,1S39.447,15.5,40,15.5z"/>
	<path d="M40,18.5h2c0.553,0,1-0.447,1-1s-0.447-1-1-1h-2c-0.553,0-1,0.447-1,1S39.447,18.5,40,18.5z"/>
	<path d="M40,21.5h2c0.553,0,1-0.447,1-1s-0.447-1-1-1h-2c-0.553,0-1,0.447-1,1S39.447,21.5,40,21.5z"/>
	<path d="M51,12.5h2c0.553,0,1-0.447,1-1s-0.447-1-1-1h-2c-0.553,0-1,0.447-1,1S50.447,12.5,51,12.5z"/>
	<path d="M51,15.5h2c0.553,0,1-0.447,1-1s-0.447-1-1-1h-2c-0.553,0-1,0.447-1,1S50.447,15.5,51,15.5z"/>
	<path d="M51,18.5h2c0.553,0,1-0.447,1-1s-0.447-1-1-1h-2c-0.553,0-1,0.447-1,1S50.447,18.5,51,18.5z"/>
	<path d="M51,21.5h2c0.553,0,1-0.447,1-1s-0.447-1-1-1h-2c-0.553,0-1,0.447-1,1S50.447,21.5,51,21.5z"/>
	<path d="M44,49.5h6v-6h-6V49.5z M46,45.5h2v2h-2V45.5z"/>
	<path d="M51,49.5h6v-6h-6V49.5z M53,45.5h2v2h-2V45.5z"/>
</g>
<g>
</g>
<g>
</g>
<g>
</g>
<g>
</g>
<g>
</g>
<g>
</g>
<g>
</g>
<g>
</g>
<g>
</g>
<g>
</g>
<g>
</g>
<g>
</g>
<g>
</g>
<g>
</g>
<g>
</g>
</svg>
