<svg xmlns="http://www.w3.org/2000/svg" viewBox="0 0 60 60" style="enable-background:new 0 0 60 60" xml:space="preserve"><path d="M59 12a1 1 0 0 0-1 1v1h-1v-3h-3V7h-6v4h-2v-1c0-1.654-1.346-3-3-3s-3 1.346-3 3v1h-2v-1c0-1.654-1.346-3-3-3s-3 1.346-3 3v1h-2v-1c0-1.654-1.346-3-3-3s-3 1.346-3 3v1h-2v-1c0-1.654-1.346-3-3-3s-3 1.346-3 3v1h-2v-1c0-1.654-1.346-3-3-3s-3 1.346-3 3v1H6V7H0v46h6v-4h2v1c0 1.654 1.346 3 3 3s3-1.346 3-3v-1h2v1c0 1.654 1.346 3 3 3s3-1.346 3-3v-1h2v1c0 1.654 1.346 3 3 3s3-1.346 3-3v-1h2v1c0 1.654 1.346 3 3 3s3-1.346 3-3v-1h2v1c0 1.654 1.346 3 3 3s3-1.346 3-3v-1h2v4h6v-1h3v-3h2a1 1 0 1 0 0-2h-2v-3h-3V19h3v-3h1v1a1 1 0 1 0 2 0v-4a1 1 0 0 0-1-1zM4 51H2V9h2v42zm2-4V13h2v34H6zm6 3a1.001 1.001 0 0 1-2 0V10a1.001 1.001 0 0 1 2 0v40zm2-3V13h2v34h-2zm6 3a1.001 1.001 0 0 1-2 0V10a1.001 1.001 0 0 1 2 0v40zm2-3V13h2v34h-2zm6 3a1.001 1.001 0 0 1-2 0V10a1.001 1.001 0 0 1 2 0v40zm2-3V13h2v34h-2zm6 3a1.001 1.001 0 0 1-2 0V10a1.001 1.001 0 0 1 2 0v40zm2-3V13h2v34h-2zm6 3a1.001 1.001 0 0 1-2 0V10a1.001 1.001 0 0 1 2 0v40zm2-3V13h2v34h-2zm9-1v4h-1v-4h1zm-3-2v7h-2V9h2v35zm3-27h-1v-4h1v4z"/></svg>