<svg xmlns="http://www.w3.org/2000/svg" viewBox="0 0 60 60" style="enable-background:new 0 0 60 60" xml:space="preserve"><path d="M60 13.5v-9h-3v-3H47v3h-1v-3H36v3h-1v-3H25v3h-1v-3H14v3h-1v-3H3v3H0v9h3v33H0v9h3v3h10v-3h1v3h10v-3h1v3h10v-3h1v3h10v-3h1v3h10v-3h3v-9h-3v-33h3zm-2-7v5h-1v-5h1zm-11 0v5h-1v-5h1zm0 7v33h-1v-33h1zm-11-7v5h-1v-5h1zm0 7v33h-1v-33h1zm-11-7v5h-1v-5h1zm0 7v33h-1v-33h1zm-11-7v5h-1v-5h1zm0 7v33h-1v-33h1zm-12-2v-5h1v5H2zm0 42v-5h1v5H2zm9 3H5v-53h6v53zm2-3v-5h1v5h-1zm9 3h-6v-53h6v53zm2-3v-5h1v5h-1zm9 3h-6v-53h6v53zm2-3v-5h1v5h-1zm9 3h-6v-53h6v53zm2-3v-5h1v5h-1zm12-5v5h-1v-5h1zm-3-2v10h-6v-53h6v43z"/></svg>