<?xml version="1.0" encoding="iso-8859-1"?>
<!-- Generator: Adobe Illustrator 18.0.0, SVG Export Plug-In . SVG Version: 6.00 Build 0)  -->
<!DOCTYPE svg PUBLIC "-//W3C//DTD SVG 1.1//EN" "http://www.w3.org/Graphics/SVG/1.1/DTD/svg11.dtd">
<svg version="1.1" id="Capa_1" xmlns="http://www.w3.org/2000/svg" xmlns:xlink="http://www.w3.org/1999/xlink" x="0px" y="0px"
	 viewBox="0 0 60 60" style="enable-background:new 0 0 60 60;" xml:space="preserve">
<g>
	<path d="M56.688,42.5c1.826,0,3.313-1.486,3.313-3.313V19.88C60,9.193,51.307,0.5,40.62,0.5H19.38C8.693,0.5,0,9.193,0,19.88
		v19.308C0,41.014,1.486,42.5,3.312,42.5H11v2H2.98C1.337,44.5,0,45.837,0,47.48v6.039c0,1.644,1.337,2.98,2.98,2.98H5v2
		c0,0.553,0.447,1,1,1h6c0.553,0,1-0.447,1-1v-2h34v2c0,0.553,0.447,1,1,1h6c0.553,0,1-0.447,1-1v-2h2.02
		c1.644,0,2.98-1.337,2.98-2.98V47.48c0-1.644-1.337-2.98-2.98-2.98H48v-2H56.688z M2,39.188V19.88C2,10.297,9.797,2.5,19.38,2.5
		h21.24C50.203,2.5,58,10.297,58,19.88v19.308c0,0.724-0.589,1.313-1.313,1.313H47h-4H16h-4H3.312C2.589,40.5,2,39.911,2,39.188z
		 M17,44.5v-2h25v2H17z M13,42.5h2v2h-2V42.5z M11,57.5H7v-1h4V57.5z M53,57.5h-4v-1h4V57.5z M58,47.48v6.039
		c0,0.541-0.439,0.98-0.98,0.98H54h-6H12H6H2.98C2.439,54.5,2,54.061,2,53.52V47.48c0-0.541,0.439-0.98,0.98-0.98H12h4h27h4h10.02
		C57.561,46.5,58,46.939,58,47.48z M46,44.5h-2v-2h2V44.5z"/>
	<path d="M22,9.5h16c1.654,0,3-1.346,3-3s-1.346-3-3-3H22c-1.654,0-3,1.346-3,3S20.346,9.5,22,9.5z M22,5.5h16c0.552,0,1,0.448,1,1
		s-0.448,1-1,1H22c-0.552,0-1-0.448-1-1S21.448,5.5,22,5.5z"/>
	<path d="M9,15.5h3c0.553,0,1-0.447,1-1s-0.447-1-1-1H9c-0.553,0-1,0.447-1,1S8.447,15.5,9,15.5z"/>
	<path d="M16,15.5h3c0.553,0,1-0.447,1-1s-0.447-1-1-1h-3c-0.553,0-1,0.447-1,1S15.447,15.5,16,15.5z"/>
	<path d="M26,13.5h-3c-0.553,0-1,0.447-1,1s0.447,1,1,1h3c0.553,0,1-0.447,1-1S26.553,13.5,26,13.5z"/>
	<path d="M37,13.5h-3c-0.553,0-1,0.447-1,1s0.447,1,1,1h3c0.553,0,1-0.447,1-1S37.553,13.5,37,13.5z"/>
	<path d="M40,14.5c0,0.553,0.447,1,1,1h3c0.553,0,1-0.447,1-1s-0.447-1-1-1h-3C40.447,13.5,40,13.947,40,14.5z"/>
	<path d="M48,15.5h3c0.553,0,1-0.447,1-1s-0.447-1-1-1h-3c-0.553,0-1,0.447-1,1S47.447,15.5,48,15.5z"/>
	<path d="M9,19.5h3c0.553,0,1-0.447,1-1s-0.447-1-1-1H9c-0.553,0-1,0.447-1,1S8.447,19.5,9,19.5z"/>
	<path d="M16,19.5h3c0.553,0,1-0.447,1-1s-0.447-1-1-1h-3c-0.553,0-1,0.447-1,1S15.447,19.5,16,19.5z"/>
	<path d="M26,17.5h-3c-0.553,0-1,0.447-1,1s0.447,1,1,1h3c0.553,0,1-0.447,1-1S26.553,17.5,26,17.5z"/>
	<path d="M37,17.5h-3c-0.553,0-1,0.447-1,1s0.447,1,1,1h3c0.553,0,1-0.447,1-1S37.553,17.5,37,17.5z"/>
	<path d="M44,17.5h-3c-0.553,0-1,0.447-1,1s0.447,1,1,1h3c0.553,0,1-0.447,1-1S44.553,17.5,44,17.5z"/>
	<path d="M48,19.5h3c0.553,0,1-0.447,1-1s-0.447-1-1-1h-3c-0.553,0-1,0.447-1,1S47.447,19.5,48,19.5z"/>
	<path d="M9,23.5h3c0.553,0,1-0.447,1-1s-0.447-1-1-1H9c-0.553,0-1,0.447-1,1S8.447,23.5,9,23.5z"/>
	<path d="M16,23.5h3c0.553,0,1-0.447,1-1s-0.447-1-1-1h-3c-0.553,0-1,0.447-1,1S15.447,23.5,16,23.5z"/>
	<path d="M26,21.5h-3c-0.553,0-1,0.447-1,1s0.447,1,1,1h3c0.553,0,1-0.447,1-1S26.553,21.5,26,21.5z"/>
	<path d="M37,21.5h-3c-0.553,0-1,0.447-1,1s0.447,1,1,1h3c0.553,0,1-0.447,1-1S37.553,21.5,37,21.5z"/>
	<path d="M44,21.5h-3c-0.553,0-1,0.447-1,1s0.447,1,1,1h3c0.553,0,1-0.447,1-1S44.553,21.5,44,21.5z"/>
	<path d="M48,23.5h3c0.553,0,1-0.447,1-1s-0.447-1-1-1h-3c-0.553,0-1,0.447-1,1S47.447,23.5,48,23.5z"/>
	<path d="M9,29.5h3c0.553,0,1-0.447,1-1s-0.447-1-1-1H9c-0.553,0-1,0.447-1,1S8.447,29.5,9,29.5z"/>
	<path d="M16,29.5h3c0.553,0,1-0.447,1-1s-0.447-1-1-1h-3c-0.553,0-1,0.447-1,1S15.447,29.5,16,29.5z"/>
	<path d="M26,27.5h-3c-0.553,0-1,0.447-1,1s0.447,1,1,1h3c0.553,0,1-0.447,1-1S26.553,27.5,26,27.5z"/>
	<path d="M37,27.5h-3c-0.553,0-1,0.447-1,1s0.447,1,1,1h3c0.553,0,1-0.447,1-1S37.553,27.5,37,27.5z"/>
	<path d="M44,27.5h-3c-0.553,0-1,0.447-1,1s0.447,1,1,1h3c0.553,0,1-0.447,1-1S44.553,27.5,44,27.5z"/>
	<path d="M48,29.5h3c0.553,0,1-0.447,1-1s-0.447-1-1-1h-3c-0.553,0-1,0.447-1,1S47.447,29.5,48,29.5z"/>
	<path d="M9,33.5h3c0.553,0,1-0.447,1-1s-0.447-1-1-1H9c-0.553,0-1,0.447-1,1S8.447,33.5,9,33.5z"/>
	<path d="M16,33.5h3c0.553,0,1-0.447,1-1s-0.447-1-1-1h-3c-0.553,0-1,0.447-1,1S15.447,33.5,16,33.5z"/>
	<path d="M26,31.5h-3c-0.553,0-1,0.447-1,1s0.447,1,1,1h3c0.553,0,1-0.447,1-1S26.553,31.5,26,31.5z"/>
	<path d="M37,31.5h-3c-0.553,0-1,0.447-1,1s0.447,1,1,1h3c0.553,0,1-0.447,1-1S37.553,31.5,37,31.5z"/>
	<path d="M44,31.5h-3c-0.553,0-1,0.447-1,1s0.447,1,1,1h3c0.553,0,1-0.447,1-1S44.553,31.5,44,31.5z"/>
	<path d="M48,33.5h3c0.553,0,1-0.447,1-1s-0.447-1-1-1h-3c-0.553,0-1,0.447-1,1S47.447,33.5,48,33.5z"/>
	<path d="M13,36.5c0-0.553-0.447-1-1-1H9c-0.553,0-1,0.447-1,1s0.447,1,1,1h3C12.553,37.5,13,37.053,13,36.5z"/>
	<path d="M16,37.5h3c0.553,0,1-0.447,1-1s-0.447-1-1-1h-3c-0.553,0-1,0.447-1,1S15.447,37.5,16,37.5z"/>
	<path d="M26,35.5h-3c-0.553,0-1,0.447-1,1s0.447,1,1,1h3c0.553,0,1-0.447,1-1S26.553,35.5,26,35.5z"/>
	<path d="M37,35.5h-3c-0.553,0-1,0.447-1,1s0.447,1,1,1h3c0.553,0,1-0.447,1-1S37.553,35.5,37,35.5z"/>
	<path d="M44,35.5h-3c-0.553,0-1,0.447-1,1s0.447,1,1,1h3c0.553,0,1-0.447,1-1S44.553,35.5,44,35.5z"/>
	<path d="M48,37.5h3c0.553,0,1-0.447,1-1s-0.447-1-1-1h-3c-0.553,0-1,0.447-1,1S47.447,37.5,48,37.5z"/>
</g>
<g>
</g>
<g>
</g>
<g>
</g>
<g>
</g>
<g>
</g>
<g>
</g>
<g>
</g>
<g>
</g>
<g>
</g>
<g>
</g>
<g>
</g>
<g>
</g>
<g>
</g>
<g>
</g>
<g>
</g>
</svg>
