<svg xmlns="http://www.w3.org/2000/svg" viewBox="0 0 60 60" style="enable-background:new 0 0 60 60" xml:space="preserve"><path d="M56.688 42.5a3.317 3.317 0 0 0 3.313-3.313V19.88C60 9.193 51.307.5 40.62.5H19.38C8.693.5 0 9.193 0 19.88v19.308A3.316 3.316 0 0 0 3.312 42.5H11v2H2.98A2.984 2.984 0 0 0 0 47.48v6.039a2.983 2.983 0 0 0 2.98 2.98H5v2a1 1 0 0 0 1 1h6a1 1 0 0 0 1-1v-2h34v2a1 1 0 0 0 1 1h6a1 1 0 0 0 1-1v-2h2.02a2.983 2.983 0 0 0 2.98-2.98V47.48a2.983 2.983 0 0 0-2.98-2.98H48v-2h8.688zM2 39.188V19.88C2 10.297 9.797 2.5 19.38 2.5h21.24C50.203 2.5 58 10.297 58 19.88v19.308c0 .724-.589 1.313-1.313 1.313H3.312A1.316 1.316 0 0 1 2 39.188zM17 44.5v-2h25v2H17zm-4-2h2v2h-2v-2zm-2 15H7v-1h4v1zm42 0h-4v-1h4v1zm5-10.02v6.039a.98.98 0 0 1-.98.98H2.98A.979.979 0 0 1 2 53.52v-6.04a.98.98 0 0 1 .98-.98H57.02a.98.98 0 0 1 .98.98zM46 44.5h-2v-2h2v2z"/><path d="M22 9.5h16c1.654 0 3-1.346 3-3s-1.346-3-3-3H22c-1.654 0-3 1.346-3 3s1.346 3 3 3zm0-4h16a1 1 0 0 1 0 2H22a1 1 0 0 1 0-2zM9 15.5h3a1 1 0 1 0 0-2H9a1 1 0 1 0 0 2zM16 15.5h3a1 1 0 1 0 0-2h-3a1 1 0 1 0 0 2zM26 13.5h-3a1 1 0 1 0 0 2h3a1 1 0 1 0 0-2zM37 13.5h-3a1 1 0 1 0 0 2h3a1 1 0 1 0 0-2zM40 14.5a1 1 0 0 0 1 1h3a1 1 0 1 0 0-2h-3a1 1 0 0 0-1 1zM48 15.5h3a1 1 0 1 0 0-2h-3a1 1 0 1 0 0 2zM9 19.5h3a1 1 0 1 0 0-2H9a1 1 0 1 0 0 2zM16 19.5h3a1 1 0 1 0 0-2h-3a1 1 0 1 0 0 2zM26 17.5h-3a1 1 0 1 0 0 2h3a1 1 0 1 0 0-2zM37 17.5h-3a1 1 0 1 0 0 2h3a1 1 0 1 0 0-2zM44 17.5h-3a1 1 0 1 0 0 2h3a1 1 0 1 0 0-2zM48 19.5h3a1 1 0 1 0 0-2h-3a1 1 0 1 0 0 2zM9 23.5h3a1 1 0 1 0 0-2H9a1 1 0 1 0 0 2zM16 23.5h3a1 1 0 1 0 0-2h-3a1 1 0 1 0 0 2zM26 21.5h-3a1 1 0 1 0 0 2h3a1 1 0 1 0 0-2zM37 21.5h-3a1 1 0 1 0 0 2h3a1 1 0 1 0 0-2zM44 21.5h-3a1 1 0 1 0 0 2h3a1 1 0 1 0 0-2zM48 23.5h3a1 1 0 1 0 0-2h-3a1 1 0 1 0 0 2zM9 29.5h3a1 1 0 1 0 0-2H9a1 1 0 1 0 0 2zM16 29.5h3a1 1 0 1 0 0-2h-3a1 1 0 1 0 0 2zM26 27.5h-3a1 1 0 1 0 0 2h3a1 1 0 1 0 0-2zM37 27.5h-3a1 1 0 1 0 0 2h3a1 1 0 1 0 0-2zM44 27.5h-3a1 1 0 1 0 0 2h3a1 1 0 1 0 0-2zM48 29.5h3a1 1 0 1 0 0-2h-3a1 1 0 1 0 0 2zM9 33.5h3a1 1 0 1 0 0-2H9a1 1 0 1 0 0 2zM16 33.5h3a1 1 0 1 0 0-2h-3a1 1 0 1 0 0 2zM26 31.5h-3a1 1 0 1 0 0 2h3a1 1 0 1 0 0-2zM37 31.5h-3a1 1 0 1 0 0 2h3a1 1 0 1 0 0-2zM44 31.5h-3a1 1 0 1 0 0 2h3a1 1 0 1 0 0-2zM48 33.5h3a1 1 0 1 0 0-2h-3a1 1 0 1 0 0 2zM13 36.5a1 1 0 0 0-1-1H9a1 1 0 1 0 0 2h3a1 1 0 0 0 1-1zM16 37.5h3a1 1 0 1 0 0-2h-3a1 1 0 1 0 0 2zM26 35.5h-3a1 1 0 1 0 0 2h3a1 1 0 1 0 0-2zM37 35.5h-3a1 1 0 1 0 0 2h3a1 1 0 1 0 0-2zM44 35.5h-3a1 1 0 1 0 0 2h3a1 1 0 1 0 0-2zM48 37.5h3a1 1 0 1 0 0-2h-3a1 1 0 1 0 0 2z"/></svg>