<svg xmlns="http://www.w3.org/2000/svg" viewBox="0 0 60 60" style="enable-background:new 0 0 60 60" xml:space="preserve"><path d="M59 13h-5V4a1 1 0 0 0-1-1h-6V1a1 1 0 0 0-1-1h-5a1 1 0 0 0-1 1v2h-2V1a1 1 0 0 0-1-1h-5a1 1 0 0 0-1 1v2H4a1 1 0 0 0-1 1v21a1 1 0 0 0 1 1h7v8h-.5C9.121 34 8 35.121 8 36.5S9.121 39 10.5 39H13v2a1 1 0 1 0 2 0v-2h2.5c1.379 0 2.5-1.121 2.5-2.5S18.879 34 17.5 34H17v-8h6a1 1 0 0 0 1-1v-4h8v23H5.673A5.68 5.68 0 0 0 0 49.673v4.654A5.68 5.68 0 0 0 5.673 60H53a1 1 0 0 0 1-1V27h5a1 1 0 0 0 1-1V14a1 1 0 0 0-1-1zM42 2h3v1h-3V2zm-9 0h3v1h-3V2zM5 5h4v13H5V5zm13 31.5c0 .275-.225.5-.5.5h-7c-.275 0-.5-.225-.5-.5s.225-.5.5-.5h7c.275 0 .5.225.5.5zM15 34h-2v-8h2v8zm8-15a1 1 0 0 0-1 1v4H5v-4h5a1 1 0 0 0 1-1V5h41v14H23zm-3 27v2H8v-2h12zm32 12H5.673A3.676 3.676 0 0 1 2 54.327v-4.654A3.676 3.676 0 0 1 5.673 46H6v3a1 1 0 0 0 1 1h14a1 1 0 0 0 1-1v-3h11a1 1 0 0 0 1-1V21h18v37zm2-33V15h4v1h-2a1 1 0 1 0 0 2h2v1h-2a1 1 0 1 0 0 2h2v1h-2a1 1 0 1 0 0 2h2v1h-4z"/><path d="M47.949 25.051c-.005-.004-.011-.006-.015-.01C46.667 23.781 44.923 23 43 23s-3.667.781-4.934 2.041c-.005.004-.011.006-.015.01s-.006.011-.01.015C36.781 26.333 36 28.077 36 30s.781 3.667 2.041 4.934c.004.004.006.011.01.015s.011.006.015.01C39.333 36.219 41.077 37 43 37s3.667-.781 4.934-2.041c.005-.004.011-.006.015-.01s.006-.011.01-.015C49.219 33.667 50 31.923 50 30s-.781-3.667-2.041-4.934c-.004-.004-.005-.011-.01-.015zM47 31h.899a4.961 4.961 0 0 1-.732 1.753l-.632-.632a.999.999 0 1 0-1.414 1.414l.632.632a4.961 4.961 0 0 1-1.753.732V34a1 1 0 1 0-2 0v.899a4.961 4.961 0 0 1-1.753-.732l.632-.632a.999.999 0 1 0-1.414-1.414l-.632.632A4.961 4.961 0 0 1 38.101 31H39a1 1 0 1 0 0-2h-.899c.13-.637.384-1.229.732-1.753l.632.632a.997.997 0 0 0 1.414 0 .999.999 0 0 0 0-1.414l-.632-.632A4.961 4.961 0 0 1 42 25.101V26a1 1 0 1 0 2 0v-.899c.637.13 1.229.384 1.753.732l-.632.632a.999.999 0 1 0 1.414 1.414l.632-.632c.348.524.602 1.116.732 1.753H47a1 1 0 1 0 0 2zM39 40h-2a1 1 0 1 0 0 2h2a1 1 0 1 0 0-2zM39 43h-2a1 1 0 1 0 0 2h2a1 1 0 1 0 0-2zM49 40h-2a1 1 0 1 0 0 2h2a1 1 0 1 0 0-2zM49 43h-2a1 1 0 1 0 0 2h2a1 1 0 1 0 0-2zM44 40h-2a1 1 0 1 0 0 2h2a1 1 0 1 0 0-2zM44 43h-2a1 1 0 1 0 0 2h2a1 1 0 1 0 0-2z"/></svg>