<?xml version="1.0" encoding="iso-8859-1"?>
<!-- Generator: Adobe Illustrator 18.0.0, SVG Export Plug-In . SVG Version: 6.00 Build 0)  -->
<!DOCTYPE svg PUBLIC "-//W3C//DTD SVG 1.1//EN" "http://www.w3.org/Graphics/SVG/1.1/DTD/svg11.dtd">
<svg version="1.1" id="Capa_1" xmlns="http://www.w3.org/2000/svg" xmlns:xlink="http://www.w3.org/1999/xlink" x="0px" y="0px"
	 viewBox="0 0 60 60" style="enable-background:new 0 0 60 60;" xml:space="preserve">
<g>
	<path d="M59,13h-5V4c0-0.553-0.447-1-1-1h-6V1c0-0.553-0.447-1-1-1h-5c-0.553,0-1,0.447-1,1v2h-2V1c0-0.553-0.447-1-1-1h-5
		c-0.553,0-1,0.447-1,1v2H10H4C3.447,3,3,3.447,3,4v15v6c0,0.553,0.447,1,1,1h7v8h-0.5C9.121,34,8,35.121,8,36.5S9.121,39,10.5,39
		H13v2c0,0.553,0.447,1,1,1s1-0.447,1-1v-2h2.5c1.379,0,2.5-1.121,2.5-2.5S18.879,34,17.5,34H17v-8h6c0.553,0,1-0.447,1-1v-4h8v23
		H21H7H5.673C2.545,44,0,46.545,0,49.673v4.654C0,57.455,2.545,60,5.673,60H53c0.553,0,1-0.447,1-1V27h5c0.553,0,1-0.447,1-1V14
		C60,13.447,59.553,13,59,13z M42,2h3v1h-3V2z M33,2h3v1h-3V2z M5,5h4v13H5V5z M18,36.5c0,0.275-0.225,0.5-0.5,0.5h-7
		c-0.275,0-0.5-0.225-0.5-0.5s0.225-0.5,0.5-0.5H12h4h1.5C17.775,36,18,36.225,18,36.5z M15,34h-2v-8h2V34z M23,19
		c-0.553,0-1,0.447-1,1v4h-6h-4H5v-4h5c0.553,0,1-0.447,1-1V5h21h5h4h5h6v9v5H33H23z M20,46v2H8v-2H20z M52,58H5.673
		C3.647,58,2,56.353,2,54.327v-4.654C2,47.647,3.647,46,5.673,46H6v3c0,0.553,0.447,1,1,1h14c0.553,0,1-0.447,1-1v-3h11
		c0.553,0,1-0.447,1-1V21h18v5V58z M54,25v-5v-5h4v1h-2c-0.553,0-1,0.447-1,1s0.447,1,1,1h2v1h-2c-0.553,0-1,0.447-1,1s0.447,1,1,1
		h2v1h-2c-0.553,0-1,0.447-1,1s0.447,1,1,1h2v1H54z"/>
	<path d="M47.949,25.051c-0.005-0.004-0.011-0.006-0.015-0.01C46.667,23.781,44.923,23,43,23s-3.667,0.781-4.934,2.041
		c-0.005,0.004-0.011,0.006-0.015,0.01s-0.006,0.011-0.01,0.015C36.781,26.333,36,28.077,36,30s0.781,3.667,2.041,4.934
		c0.004,0.004,0.006,0.011,0.01,0.015s0.011,0.006,0.015,0.01C39.333,36.219,41.077,37,43,37s3.667-0.781,4.934-2.041
		c0.005-0.004,0.011-0.006,0.015-0.01s0.006-0.011,0.01-0.015C49.219,33.667,50,31.923,50,30s-0.781-3.667-2.041-4.934
		C47.955,25.062,47.954,25.055,47.949,25.051z M47,31h0.899c-0.13,0.637-0.384,1.229-0.732,1.753l-0.632-0.632
		c-0.391-0.391-1.023-0.391-1.414,0s-0.391,1.023,0,1.414l0.632,0.632c-0.524,0.348-1.116,0.602-1.753,0.732V34c0-0.553-0.447-1-1-1
		s-1,0.447-1,1v0.899c-0.637-0.13-1.229-0.384-1.753-0.732l0.632-0.632c0.391-0.391,0.391-1.023,0-1.414s-1.023-0.391-1.414,0
		l-0.632,0.632c-0.348-0.524-0.602-1.116-0.732-1.753H39c0.553,0,1-0.447,1-1s-0.447-1-1-1h-0.899
		c0.13-0.637,0.384-1.229,0.732-1.753l0.632,0.632c0.195,0.195,0.451,0.293,0.707,0.293s0.512-0.098,0.707-0.293
		c0.391-0.391,0.391-1.023,0-1.414l-0.632-0.632c0.524-0.348,1.116-0.602,1.753-0.732V26c0,0.553,0.447,1,1,1s1-0.447,1-1v-0.899
		c0.637,0.13,1.229,0.384,1.753,0.732l-0.632,0.632c-0.391,0.391-0.391,1.023,0,1.414c0.195,0.195,0.451,0.293,0.707,0.293
		s0.512-0.098,0.707-0.293l0.632-0.632c0.348,0.524,0.602,1.116,0.732,1.753H47c-0.553,0-1,0.447-1,1S46.447,31,47,31z"/>
	<path d="M39,40h-2c-0.553,0-1,0.447-1,1s0.447,1,1,1h2c0.553,0,1-0.447,1-1S39.553,40,39,40z"/>
	<path d="M39,43h-2c-0.553,0-1,0.447-1,1s0.447,1,1,1h2c0.553,0,1-0.447,1-1S39.553,43,39,43z"/>
	<path d="M49,40h-2c-0.553,0-1,0.447-1,1s0.447,1,1,1h2c0.553,0,1-0.447,1-1S49.553,40,49,40z"/>
	<path d="M49,43h-2c-0.553,0-1,0.447-1,1s0.447,1,1,1h2c0.553,0,1-0.447,1-1S49.553,43,49,43z"/>
	<path d="M44,40h-2c-0.553,0-1,0.447-1,1s0.447,1,1,1h2c0.553,0,1-0.447,1-1S44.553,40,44,40z"/>
	<path d="M44,43h-2c-0.553,0-1,0.447-1,1s0.447,1,1,1h2c0.553,0,1-0.447,1-1S44.553,43,44,43z"/>
</g>
<g>
</g>
<g>
</g>
<g>
</g>
<g>
</g>
<g>
</g>
<g>
</g>
<g>
</g>
<g>
</g>
<g>
</g>
<g>
</g>
<g>
</g>
<g>
</g>
<g>
</g>
<g>
</g>
<g>
</g>
</svg>
