<svg xmlns="http://www.w3.org/2000/svg" viewBox="0 0 60 60" style="enable-background:new 0 0 60 60" xml:space="preserve"><path d="M59 57.999h-6v-4a1 1 0 0 0-1-1h-2v-26h1.852c1.182 0 2.144.961 2.148 2.142-1.72.448-2.999 2-2.999 3.858 0 2.206 1.794 4 4 4s4-1.794 4-4c0-1.859-1.28-3.411-3.001-3.858a4.153 4.153 0 0 0-4.148-4.142H50V2.416c0-.979-.585-1.855-1.49-2.23a2.412 2.412 0 0 0-2.631.523l-2.59 2.59c-2.258-1.722-5.495-1.575-7.558.487a.999.999 0 0 0 0 1.414l7.071 7.071a1 1 0 0 0 1.414 0c2.062-2.063 2.209-5.3.486-7.558l2.59-2.59a.399.399 0 0 1 .452-.09c.096.04.256.142.256.383v22.583h-1.852A4.154 4.154 0 0 0 42 29.141c-1.72.446-3 1.999-3 3.858 0 2.206 1.794 4 4 4s4-1.794 4-4c0-1.858-1.279-3.41-2.999-3.858a2.15 2.15 0 0 1 2.148-2.142H48v26h-2a1 1 0 0 0-1 1v4H1a1 1 0 1 0 0 2h58a1 1 0 1 0 0-2zm-4-27c1.103 0 2 .897 2 2s-.897 2-2 2-2-.897-2-2 .897-2 2-2zM43.414 10.054l-5.467-5.466a3.771 3.771 0 0 1 4.524.611l.331.331a3.776 3.776 0 0 1 .612 4.524zM45 32.999c0 1.103-.897 2-2 2s-2-.897-2-2 .897-2 2-2 2 .897 2 2zm6 25h-4v-3h4v3zM10 22.999h6a1 1 0 0 0 1-1v-6a1 1 0 0 0-1-1h-6a1 1 0 0 0-1 1v6a1 1 0 0 0 1 1zm1-6h4v4h-4v-4z"/><path d="M22 33.999h6a1 1 0 0 0 1-1v-6a1 1 0 0 0-1-1h-6a1 1 0 0 0-1 1v6a1 1 0 0 0 1 1zm1-6h4v4h-4v-4zM7 44.999h6a1 1 0 0 0 1-1v-6a1 1 0 0 0-1-1H7a1 1 0 0 0-1 1v6a1 1 0 0 0 1 1zm1-6h4v4H8v-4z"/></svg>