<svg xmlns="http://www.w3.org/2000/svg" viewBox="0 0 60 60" style="enable-background:new 0 0 60 60" xml:space="preserve"><path d="M54.218 0a1 1 0 0 0-1 1v6h-4v7.837L38.026 26.029l-.707-.707-1.414 1.414-6.365-6.364.707-.708-4.242-4.242L11.193.611 6.951 4.854l-.707.707a5.006 5.006 0 0 0 0 7.071l9.155 9.155a4.983 4.983 0 0 0 3.535 1.462c.962 0 1.924-.276 2.757-.826l2.9 2.9.707-.708 6.364 6.365-1.414 1.414 5.657 5.656 1.414-1.414 7.778 7.778 1.387-1.387A2.994 2.994 0 0 1 49.218 46v12a1 1 0 1 0 2 0V46a5.006 5.006 0 0 0-3.09-4.617l1.211-1.211-7.778-7.778 1.414-1.414-.707-.707 6.95-6.95V29h4v30a1 1 0 1 0 2 0V1a1 1 0 0 0-1-1zM11.193 3.439l13.398 13.397-2.829 2.829L8.365 6.268l2.828-2.829zm-3.535 7.779a3.012 3.012 0 0 1-.35-.429c-.032-.047-.059-.096-.088-.144a2.877 2.877 0 0 1-.354-.869c-.011-.049-.026-.097-.035-.145a3.02 3.02 0 0 1-.05-.519c0-.032.005-.064.006-.096.005-.143.018-.286.042-.427.01-.057.024-.113.037-.17a2.99 2.99 0 0 1 .104-.351c.02-.056.04-.112.064-.166.013-.031.033-.06.047-.09L20.218 20.95c-.031.015-.059.034-.09.047-.055.024-.111.044-.167.064a2.915 2.915 0 0 1-.35.103c-.057.013-.113.028-.17.037a3.055 3.055 0 0 1-.427.041c-.032.001-.064.006-.096.006a3.02 3.02 0 0 1-.519-.05c-.048-.009-.096-.024-.144-.035a3.035 3.035 0 0 1-.368-.109c-.057-.021-.112-.045-.168-.069a2.96 2.96 0 0 1-.334-.176c-.048-.029-.097-.055-.144-.087a3.012 3.012 0 0 1-.429-.35l-9.154-9.154zm18.347 7.033 1.414 1.414-2.829 2.829-1.414-1.414 2.829-2.829zm.707 4.95 1.414-1.414 6.364 6.363-1.415 1.415-6.363-6.364zm6.364 9.193 4.243-4.243 1.414 1.415 1.414 1.415-4.242 4.242-2.829-2.829zm13.435 7.778-1.414 1.414-6.364-6.364 1.414-1.414 6.364 6.364zm-5.657-11.314-.707-.707-.707-.708 9.778-9.778v2.829l-8.364 8.364zM51.218 27V9h2v18h-2z"/></svg>