<svg xmlns="http://www.w3.org/2000/svg" viewBox="0 0 60 60" style="enable-background:new 0 0 60 60" xml:space="preserve"><path d="M58 36.5c0-1.93-1.57-3.5-3.5-3.5H38.949l2.758-2.758a.999.999 0 0 0 0-1.414l-3.535-3.535a.999.999 0 0 0-1.414 0L35 27.051V24a1 1 0 0 0 1-1v-4a1 1 0 0 0-1-1H25a1 1 0 0 0-1 1v4a1 1 0 0 0 1 1v3.243l-1.95-1.95a.999.999 0 0 0-1.414 0l-3.535 3.535a.999.999 0 0 0 0 1.414L20.858 33H5.5C3.57 33 2 34.57 2 36.5c0 1.448.884 2.693 2.14 3.225C5.362 47.689 14.988 53.975 27 54.883V59a1 1 0 0 0 1 1h4a1 1 0 0 0 1-1v-4.117c12.012-.908 21.638-7.193 22.86-15.158A3.506 3.506 0 0 0 58 36.5zm-20.535-9.086 2.121 2.121L36.121 33H35v-3.121l2.465-2.465zM26 20h8v2h-8v-2zm7 4v9h-6v-9h6zm-12.778 5.535 2.121-2.121L25 30.07V33h-1.313l-3.465-3.465zM31 55v3h-2v-3h2zm-1-2C17.91 53 7.796 47.376 6.217 40h47.566C52.204 47.376 42.09 53 30 53zm24.785-15.029h-.009c-.09.015-.181.029-.276.029h-49c-.095 0-.186-.014-.276-.029h-.009A1.502 1.502 0 0 1 4 36.5c0-.827.673-1.5 1.5-1.5h49c.827 0 1.5.673 1.5 1.5 0 .729-.524 1.337-1.215 1.471z"/><path d="M4 24h18a1 1 0 1 0 0-2H5V1a1 1 0 1 0-2 0v22a1 1 0 0 0 1 1zM38 24h18a1 1 0 0 0 1-1V1a1 1 0 1 0-2 0v21H38a1 1 0 1 0 0 2z"/><path d="M8 20h14a1 1 0 1 0 0-2H9V1a1 1 0 1 0-2 0v18a1 1 0 0 0 1 1zM38 20h14a1 1 0 0 0 1-1V1a1 1 0 1 0-2 0v17H38a1 1 0 1 0 0 2z"/><path d="M45 13a.997.997 0 0 0 .707-.293l2-2a.999.999 0 1 0-1.414-1.414l-2 2A.999.999 0 0 0 45 13zM46.29 13.29c-.181.189-.29.439-.29.71 0 .27.109.52.29.71a1.014 1.014 0 0 0 1.42 0c.18-.19.29-.45.29-.71s-.11-.521-.29-.71c-.36-.37-1.05-.37-1.42 0zM43 15c.26 0 .52-.11.71-.29.18-.19.29-.45.29-.71s-.11-.521-.29-.71c-.37-.37-1.05-.37-1.42 0-.181.189-.29.45-.29.71s.109.52.29.71c.189.18.45.29.71.29z"/></svg>