<svg xmlns="http://www.w3.org/2000/svg" viewBox="0 0 59 59" style="enable-background:new 0 0 59 59" xml:space="preserve"><path d="M54.5 12h-12V8h-6v4h-3V0h-8v12h-3V8h-6v4h-12a1 1 0 1 0 0 2h3v4h2.171c1.497 7.667 8.042 13.485 15.854 13.944L22.377 59h14.246l-3.196-27.033c7.859-.481 14.405-6.3 15.902-13.967H51.5v-4h3a1 1 0 1 0 0-2zm-16-2h2v2h-2v-2zm-11-8h4v3h-4V2zm0 5h1v2a1 1 0 1 0 2 0V7h1v5h-4V7zm-9 3h2v2h-2v-2zm14.803 19.971a1.918 1.918 0 0 0-1.363.693c-.35.418-.515.969-.451 1.511L34.377 57h-9.754l2.889-24.825a2.007 2.007 0 0 0-.451-1.511 1.92 1.92 0 0 0-1.364-.693c-6.822-.418-12.538-5.376-14-11.971h35.605c-1.461 6.595-7.177 11.553-13.999 11.971zM49.5 16h-40v-2h40v2z"/></svg>