<?xml version="1.0" encoding="iso-8859-1"?>
<!-- Generator: Adobe Illustrator 18.0.0, SVG Export Plug-In . SVG Version: 6.00 Build 0)  -->
<!DOCTYPE svg PUBLIC "-//W3C//DTD SVG 1.1//EN" "http://www.w3.org/Graphics/SVG/1.1/DTD/svg11.dtd">
<svg version="1.1" id="Capa_1" xmlns="http://www.w3.org/2000/svg" xmlns:xlink="http://www.w3.org/1999/xlink" x="0px" y="0px"
	 viewBox="0 0 60 60" style="enable-background:new 0 0 60 60;" xml:space="preserve">
<g>
	<path d="M58,36.5c0-1.93-1.57-3.5-3.5-3.5H38.949l2.758-2.758c0.391-0.391,0.391-1.023,0-1.414l-3.535-3.535
		c-0.391-0.391-1.023-0.391-1.414,0L35,27.051V24c0.553,0,1-0.447,1-1v-4c0-0.553-0.447-1-1-1H25c-0.553,0-1,0.447-1,1v4
		c0,0.553,0.447,1,1,1v3.243l-1.95-1.95c-0.391-0.391-1.023-0.391-1.414,0l-3.535,3.535c-0.391,0.391-0.391,1.023,0,1.414L20.858,33
		H5.5C3.57,33,2,34.57,2,36.5c0,1.448,0.884,2.693,2.14,3.225C5.362,47.689,14.988,53.975,27,54.883V59c0,0.553,0.447,1,1,1h4
		c0.553,0,1-0.447,1-1v-4.117c12.012-0.908,21.638-7.193,22.86-15.158C57.116,39.193,58,37.948,58,36.5z M37.465,27.414l2.121,2.121
		L36.121,33H35v-3.121L37.465,27.414z M26,20h8v2h-8V20z M33,24v5.465V33h-6v-3.344V24H33z M20.222,29.535l2.121-2.121L25,30.07V33
		h-1.313L20.222,29.535z M31,55v3h-2v-3H31z M30,53C17.91,53,7.796,47.376,6.217,40h47.566C52.204,47.376,42.09,53,30,53z
		 M54.785,37.971c-0.003,0-0.006-0.001-0.009,0C54.686,37.986,54.595,38,54.5,38h-49c-0.095,0-0.186-0.014-0.276-0.029
		c-0.003,0-0.006,0.001-0.009,0C4.524,37.837,4,37.229,4,36.5C4,35.673,4.673,35,5.5,35h17.772h2.384H26h8h0.15h2.385H54.5
		c0.827,0,1.5,0.673,1.5,1.5C56,37.229,55.476,37.837,54.785,37.971z"/>
	<path d="M4,24h18c0.553,0,1-0.447,1-1s-0.447-1-1-1H5V1c0-0.553-0.447-1-1-1S3,0.447,3,1v22C3,23.553,3.447,24,4,24z"/>
	<path d="M38,24h18c0.553,0,1-0.447,1-1V1c0-0.553-0.447-1-1-1s-1,0.447-1,1v21H38c-0.553,0-1,0.447-1,1S37.447,24,38,24z"/>
	<path d="M8,20h14c0.553,0,1-0.447,1-1s-0.447-1-1-1H9V1c0-0.553-0.447-1-1-1S7,0.447,7,1v18C7,19.553,7.447,20,8,20z"/>
	<path d="M38,20h14c0.553,0,1-0.447,1-1V1c0-0.553-0.447-1-1-1s-1,0.447-1,1v17H38c-0.553,0-1,0.447-1,1S37.447,20,38,20z"/>
	<path d="M45,13c0.256,0,0.512-0.098,0.707-0.293l2-2c0.391-0.391,0.391-1.023,0-1.414s-1.023-0.391-1.414,0l-2,2
		c-0.391,0.391-0.391,1.023,0,1.414C44.488,12.902,44.744,13,45,13z"/>
	<path d="M46.29,13.29C46.109,13.479,46,13.729,46,14c0,0.27,0.109,0.52,0.29,0.71C46.479,14.89,46.729,15,47,15
		c0.27,0,0.53-0.11,0.71-0.29C47.89,14.52,48,14.26,48,14s-0.11-0.521-0.29-0.71C47.35,12.92,46.66,12.92,46.29,13.29z"/>
	<path d="M43,15c0.26,0,0.52-0.11,0.71-0.29C43.89,14.52,44,14.26,44,14s-0.11-0.521-0.29-0.71c-0.37-0.37-1.05-0.37-1.42,0
		C42.109,13.479,42,13.74,42,14s0.109,0.52,0.29,0.71C42.479,14.89,42.74,15,43,15z"/>
</g>
<g>
</g>
<g>
</g>
<g>
</g>
<g>
</g>
<g>
</g>
<g>
</g>
<g>
</g>
<g>
</g>
<g>
</g>
<g>
</g>
<g>
</g>
<g>
</g>
<g>
</g>
<g>
</g>
<g>
</g>
</svg>
