<svg xmlns="http://www.w3.org/2000/svg" viewBox="0 0 60.032 60.032" style="enable-background:new 0 0 60.032 60.032" xml:space="preserve"><path d="M57.949 27.193c-.396-.626-.957-1.01-1.571-1.125l-4.363-2.618v-4.614a5.825 5.825 0 0 0-5.819-5.819H13.835a5.825 5.825 0 0 0-5.819 5.819v4.614l-4.363 2.618c-.613.115-1.175.5-1.571 1.126-2.776 4.387-2.776 11.259 0 15.646.474.748 1.179 1.177 1.934 1.177.688 0 1.325-.37 1.793-1h.207v3a1 1 0 0 0 1 1h4a1 1 0 0 0 1-1v-3h36v3a1 1 0 0 0 1 1h4a1 1 0 0 0 1-1v-3h.207c.468.63 1.105 1 1.793 1 .755 0 1.46-.429 1.934-1.177 2.776-4.388 2.776-11.26-.001-15.647zM11.016 41.016H6.887c.266-.639.483-1.31.656-2h44.944c.173.69.391 1.361.656 2H11.016zm-1-12.193c0-.445.362-.807.807-.807h4.387c.444 0 .807.362.807.807V33.209a.808.808 0 0 1-.807.807h-4.387a.809.809 0 0 1-.807-.807v-4.386zm-1.882 5.193c.018.061.047.118.069.177.021.055.04.11.064.163.052.116.114.227.181.334.021.034.038.07.061.103.094.136.199.264.315.381.029.029.062.054.092.082.091.085.186.166.289.238.047.034.097.063.146.093a2.656 2.656 0 0 0 .793.335c.053.013.104.03.157.04.169.032.343.053.521.053h4.387c.179 0 .352-.021.521-.053.054-.01.105-.027.157-.04.114-.029.226-.062.335-.104.057-.022.111-.047.166-.072.101-.047.198-.1.292-.159.049-.031.099-.06.146-.093.102-.073.197-.153.289-.238.03-.028.063-.052.092-.082.116-.118.221-.245.315-.381.023-.033.04-.069.061-.103.067-.107.129-.218.181-.334.024-.053.043-.108.064-.163.022-.06.051-.116.069-.177h24.236c.018.061.047.118.069.177.021.055.04.11.064.163.052.116.114.227.181.334.021.034.038.07.061.103.094.136.199.264.315.381.029.029.062.054.092.082.091.085.186.166.289.238.047.034.097.063.146.093a2.656 2.656 0 0 0 .793.335c.053.013.104.03.157.04.169.032.343.053.521.053h4.387c.179 0 .352-.021.521-.053.054-.01.105-.027.157-.04.114-.029.226-.062.335-.104.057-.022.111-.047.166-.072.101-.047.198-.1.292-.159.049-.031.099-.06.146-.093.102-.073.197-.153.289-.238.03-.028.063-.052.092-.082.116-.118.221-.245.315-.381.023-.033.04-.069.061-.103.067-.107.129-.218.181-.334.024-.053.043-.108.064-.163.022-.06.051-.116.069-.177h.133c-.059 1-.028 2.009.09 3H7.911c.118-.991.148-2 .09-3h.133zm41.075-6c.444 0 .807.362.807.807V33.209a.808.808 0 0 1-.807.807h-4.387a.809.809 0 0 1-.807-.807v-4.386c0-.445.362-.807.807-.807h4.387zm4.954-.945c-.027.04-.055.081-.081.122-.202.32-.385.656-.558 1-.038.076-.072.155-.109.232-.143.3-.275.606-.396.921l-.063.166c-.296.8-.527 1.639-.685 2.504h-.256v-6.234l2.148 1.289zM13.835 15.016h32.361a3.823 3.823 0 0 1 3.819 3.819v7.299l-.023-.005c.005-.039.023-.073.023-.113a1 1 0 0 0-2 0h-3.193c-.293 0-.57.058-.835.141.007-.048.029-.091.029-.141a1 1 0 0 0-2 0c0 .454.308.822.723.944a2.787 2.787 0 0 0-.723 1.863v3.193h-4a1 1 0 0 0-2 0h-4a1 1 0 0 0-2 0h-4a1 1 0 0 0-2 0h-4a1 1 0 0 0-2 0v-3.193a2.81 2.81 0 0 0-2.807-2.807h-1.193a1 1 0 0 0-2 0h-1.193c-.173 0-.341.021-.506.051-.048.009-.094.02-.141.031-.053.013-.108.02-.16.036v-2.118a1 1 0 0 0 0-2v-3.181c0-.289.038-.568.1-.839a.99.99 0 0 0 .9-.98.965.965 0 0 0-.172-.527 3.8 3.8 0 0 1 2.991-1.473zM8.016 25.782v6.234H7.76a14.93 14.93 0 0 0-.685-2.506l-.061-.162a13.252 13.252 0 0 0-.398-.927c-.036-.075-.069-.152-.106-.226a11.88 11.88 0 0 0-.559-1.003 2.868 2.868 0 0 0-.081-.122l2.146-1.288zm-4.244 2.481c.122-.193.226-.244.242-.247.021.003.124.054.246.247a9.952 9.952 0 0 1 .88 1.818c.116.303.217.615.31.932.062.215.129.426.181.649.07.296.119.601.169.905.032.192.075.377.1.573.024.195.033.393.05.589a15.853 15.853 0 0 1 .055 1.643c-.008.324-.03.645-.059.967-.029.337-.072.669-.124.999-.047.299-.1.596-.166.888-.042.187-.08.376-.129.557a12.29 12.29 0 0 1-.604 1.7 9.818 9.818 0 0 1-.62 1.199l-.067.113c-.111.163-.205.218-.221.221-.021-.003-.124-.054-.246-.247-2.354-3.724-2.354-9.782.003-13.506zm6.244 16.753h-2v-2h2v2zm42 0h-2v-2h2v2zm4.244-3.247c-.122.193-.226.244-.242.247-.019-.003-.113-.058-.224-.22l-.069-.118a10.098 10.098 0 0 1-.617-1.194 12.23 12.23 0 0 1-.605-1.7c-.049-.182-.088-.371-.13-.559a13.446 13.446 0 0 1-.166-.886 14.54 14.54 0 0 1-.124-1.006 14.617 14.617 0 0 1-.058-.961 14.743 14.743 0 0 1 .056-1.642c.017-.197.025-.395.05-.59.024-.195.067-.379.099-.57.051-.305.1-.611.17-.908.052-.222.118-.433.18-.647.093-.319.195-.632.311-.936.064-.168.128-.337.199-.498a9.79 9.79 0 0 1 .681-1.317.805.805 0 0 1 .146-.176c.004-.004.011-.015.015-.018l.006-.004a.253.253 0 0 1 .077-.048c.021.004.124.055.245.246 2.356 3.723 2.356 9.781 0 13.505z"/><circle cx="16.016" cy="17.016" r="1"/><circle cx="13.016" cy="20.016" r="1"/><circle cx="19.016" cy="20.016" r="1"/><circle cx="22.016" cy="17.016" r="1"/><circle cx="28.016" cy="17.016" r="1"/><circle cx="25.016" cy="20.016" r="1"/><circle cx="31.016" cy="20.016" r="1"/><circle cx="34.016" cy="17.016" r="1"/><circle cx="40.016" cy="17.016" r="1"/><circle cx="37.016" cy="20.016" r="1"/><circle cx="43.016" cy="20.016" r="1"/><circle cx="46.016" cy="17.016" r="1"/><circle cx="49.016" cy="20.016" r="1"/><circle cx="16.016" cy="23.016" r="1"/><circle cx="19.016" cy="26.016" r="1"/><circle cx="22.016" cy="23.016" r="1"/><circle cx="28.016" cy="23.016" r="1"/><circle cx="22.016" cy="29.016" r="1"/><circle cx="28.016" cy="29.016" r="1"/><circle cx="25.016" cy="26.016" r="1"/><circle cx="31.016" cy="26.016" r="1"/><circle cx="34.016" cy="23.016" r="1"/><circle cx="40.016" cy="23.016" r="1"/><circle cx="34.016" cy="29.016" r="1"/><circle cx="40.016" cy="29.016" r="1"/><circle cx="37.016" cy="26.016" r="1"/><circle cx="46.016" cy="23.016" r="1"/></svg>