<?xml version="1.0" encoding="iso-8859-1"?>
<!-- Generator: Adobe Illustrator 18.0.0, SVG Export Plug-In . SVG Version: 6.00 Build 0)  -->
<!DOCTYPE svg PUBLIC "-//W3C//DTD SVG 1.1//EN" "http://www.w3.org/Graphics/SVG/1.1/DTD/svg11.dtd">
<svg version="1.1" id="Capa_1" xmlns="http://www.w3.org/2000/svg" xmlns:xlink="http://www.w3.org/1999/xlink" x="0px" y="0px"
	 viewBox="0 0 60 60" style="enable-background:new 0 0 60 60;" xml:space="preserve">
<g>
	<circle cx="11" cy="18.029" r="1"/>
	<circle cx="14" cy="15.029" r="1"/>
	<circle cx="17" cy="18.029" r="1"/>
	<circle cx="8" cy="21.029" r="1"/>
	<circle cx="11" cy="24.029" r="1"/>
	<circle cx="14" cy="21.029" r="1"/>
	<circle cx="20" cy="21.029" r="1"/>
	<circle cx="14" cy="27.029" r="1"/>
	<circle cx="20" cy="27.029" r="1"/>
	<circle cx="17" cy="24.029" r="1"/>
	<circle cx="23" cy="24.029" r="1"/>
	<circle cx="17" cy="30.029" r="1"/>
	<circle cx="23" cy="30.029" r="1"/>
	<circle cx="26" cy="27.029" r="1"/>
	<circle cx="32" cy="27.029" r="1"/>
	<circle cx="29" cy="24.029" r="1"/>
	<circle cx="35" cy="24.029" r="1"/>
	<circle cx="29" cy="30.029" r="1"/>
	<circle cx="35" cy="30.029" r="1"/>
	<circle cx="38" cy="27.029" r="1"/>
	<circle cx="44" cy="27.029" r="1"/>
	<circle cx="41" cy="24.029" r="1"/>
	<circle cx="47" cy="24.029" r="1"/>
	<circle cx="41" cy="30.029" r="1"/>
	<circle cx="47" cy="30.029" r="1"/>
	<circle cx="50" cy="27.029" r="1"/>
	<circle cx="56" cy="27.029" r="1"/>
	<circle cx="53" cy="24.029" r="1"/>
	<circle cx="53" cy="30.029" r="1"/>
	<path d="M60,35.529v-9.5c0-3.309-2.691-6-6-6H32c-5.07,0-6.07-1.194-7.885-3.361c-0.216-0.258-0.439-0.525-0.679-0.801
		c-4.938-5.694-13.356-6.545-18.766-1.898c-0.232,0.199-0.451,0.405-0.658,0.615C2.07,16.557,1,19.307,1,22.325v4.32
		c-0.631,0.95-1,2.087-1,3.31c0,1.056,0.292,2.072,0.83,2.987C0.311,33.675,0,34.564,0,35.529c0,1.668,0.922,3.11,2.273,3.887
		C2.104,39.752,2,40.127,2,40.529c0,1.378,1.122,2.5,2.5,2.5H6v3h2v1c-0.552,0-1,0.448-1,1s0.448,1,1,1h2c0.552,0,1-0.448,1-1
		s-0.448-1-1-1v-1h2v-3h37v3h2v1c-0.552,0-1,0.448-1,1s0.448,1,1,1h2c0.552,0,1-0.448,1-1s-0.448-1-1-1v-1h2v-3h1.5
		c1.378,0,2.5-1.122,2.5-2.5c0-0.609-0.228-1.161-0.591-1.595C59.374,38.108,60,36.896,60,35.529z M3,22.325
		c0-1.549,0.355-3.039,1.006-4.324c0,0.01-0.006,0.018-0.006,0.028c0,0.552,0.448,1,1,1s1-0.448,1-1c0-0.552-0.448-1-1-1
		c-0.2,0-0.375,0.073-0.531,0.174c0.286-0.439,0.607-0.849,0.968-1.216c0.168-0.171,0.347-0.339,0.536-0.501
		c0.35-0.301,0.72-0.565,1.098-0.812C7.029,14.785,7,14.903,7,15.029c0,0.552,0.448,1,1,1s1-0.448,1-1
		c0-0.496-0.368-0.89-0.843-0.968c3.395-1.665,7.529-1.385,10.899,0.688C19.029,14.839,19,14.929,19,15.029c0,0.552,0.448,1,1,1
		c0.209,0,0.393-0.079,0.554-0.189c0.481,0.407,0.944,0.846,1.371,1.338c0.091,0.105,0.172,0.203,0.259,0.306
		C22.077,17.642,22,17.823,22,18.029c0,0.552,0.448,1,1,1c0.152,0,0.292-0.04,0.421-0.1c0.525,0.583,1.077,1.114,1.755,1.566
		C25.074,20.651,25,20.828,25,21.029c0,0.552,0.448,1,1,1c0.437,0,0.798-0.284,0.934-0.674c1.239,0.426,2.843,0.674,5.066,0.674h22
		c2.206,0,4,1.794,4,4v5.76c-0.212-0.142-0.441-0.261-0.677-0.366c-0.069-0.031-0.14-0.055-0.211-0.083
		c-0.183-0.071-0.371-0.129-0.565-0.176c-0.077-0.019-0.153-0.039-0.231-0.053c-0.266-0.049-0.536-0.082-0.816-0.082H53h-6h-6h-6h-6
		h-6h-6h-5.1c0.006-0.034,0.004-0.068,0.01-0.102C11.964,30.605,12,30.281,12,29.954c0-3.309-2.691-6-6-6
		c-0.005,0-0.01,0.001-0.015,0.001C5.946,23.439,5.526,23.029,5,23.029c-0.552,0-1,0.448-1,1c0,0.091,0.029,0.173,0.052,0.257
		c-0.111,0.038-0.221,0.076-0.329,0.121c-0.01,0.004-0.021,0.007-0.031,0.011c-0.231,0.096-0.452,0.21-0.667,0.334
		C3.017,24.756,3.008,24.759,3,24.764V22.325z M3.692,31.11c-0.057,0.01-0.114,0.02-0.17,0.032c-0.248,0.055-0.49,0.129-0.724,0.225
		C2.747,31.389,2.7,31.415,2.65,31.437c-0.098,0.045-0.198,0.085-0.294,0.137C2.122,31.064,2,30.516,2,29.954
		c0-0.8,0.242-1.543,0.648-2.169l0.154-0.206c0.18-0.242,0.386-0.454,0.605-0.645c0.034-0.029,0.069-0.058,0.104-0.086
		c0.185-0.151,0.384-0.278,0.59-0.392c0.065-0.035,0.127-0.074,0.194-0.105c0.195-0.094,0.4-0.163,0.608-0.224
		c0.075-0.022,0.146-0.052,0.223-0.069C5.41,25.993,5.702,25.954,6,25.954c2.206,0,4,1.794,4,4c0,0.361-0.052,0.721-0.154,1.074H4.5
		C4.226,31.029,3.957,31.062,3.692,31.11z M2.682,33.823l0.104-0.1c0.008-0.006,0.016-0.012,0.023-0.018l0.108-0.087l-0.002-0.003
		c0.068-0.056,0.134-0.116,0.206-0.164c0.03-0.019,0.063-0.035,0.095-0.051l0.104-0.054l-0.002-0.004
		c0.074-0.041,0.147-0.085,0.225-0.118c0.055-0.022,0.113-0.037,0.171-0.053l0.094-0.027L3.806,33.14
		c0.067-0.02,0.132-0.046,0.2-0.06c0.165-0.033,0.331-0.051,0.494-0.051h6.68H55.5c1.378,0,2.5,1.122,2.5,2.5s-1.122,2.5-2.5,2.5
		h-51c-1.378,0-2.5-1.122-2.5-2.5C2,34.868,2.262,34.271,2.682,33.823z M10,44.029H8v-1h2V44.029z M53,44.029h-2v-1h2V44.029z
		 M56.5,40.029c0.276,0,0.5,0.224,0.5,0.5s-0.224,0.5-0.5,0.5H55h-6H12H6H4.5c-0.276,0-0.5-0.224-0.5-0.5s0.224-0.5,0.5-0.5h51H56.5
		z"/>
</g>
<g>
</g>
<g>
</g>
<g>
</g>
<g>
</g>
<g>
</g>
<g>
</g>
<g>
</g>
<g>
</g>
<g>
</g>
<g>
</g>
<g>
</g>
<g>
</g>
<g>
</g>
<g>
</g>
<g>
</g>
</svg>
