<svg xmlns="http://www.w3.org/2000/svg" viewBox="0 0 60 60" style="enable-background:new 0 0 60 60" xml:space="preserve"><path d="m56 23-.021.002c-1.525-1.829-3.355-3.308-5.476-4.369l-4.946-2.473C44.557 15.313 36.876 9 30 9s-14.557 6.313-15.557 7.16l-4.946 2.473c-2.121 1.06-3.952 2.54-5.476 4.369L4 23c-2.206 0-4 1.794-4 4v20.168A3.836 3.836 0 0 0 3.832 51h52.337A3.836 3.836 0 0 0 60 47.168V27c0-2.206-1.794-4-4-4zm-45.608-2.578 4.823-2.411C18.975 18.126 22 21.213 22 25a1 1 0 0 0 2 0c0-4.11-2.773-7.578-6.543-8.651C20.149 14.371 25.405 11 30 11s9.851 3.371 12.543 5.349C38.773 17.422 36 20.89 36 25a1 1 0 0 0 2 0c0-3.807 3.056-6.907 6.843-6.992l4.766 2.414a14.981 14.981 0 0 1 4.278 3.196 4.188 4.188 0 0 0-.485.366c-.173.15-.331.313-.477.489-.049.059-.101.115-.146.177a4.414 4.414 0 0 0-.362.605c-.042.085-.088.167-.123.256a4.037 4.037 0 0 0-.223.788c-.042.23-.071.462-.071.701v3h-9a7.77 7.77 0 0 0-4.829 1.665A7.762 7.762 0 0 0 33.343 30h-6.687a7.764 7.764 0 0 0-4.828 1.665A7.764 7.764 0 0 0 17 30H8v-3c0-.239-.029-.471-.071-.699a3.918 3.918 0 0 0-.223-.788c-.036-.089-.081-.17-.123-.256a3.568 3.568 0 0 0-.169-.31 3.832 3.832 0 0 0-.193-.295c-.045-.062-.097-.118-.146-.177a3.936 3.936 0 0 0-.627-.613 4.015 4.015 0 0 0-.335-.242 14.992 14.992 0 0 1 4.279-3.198zM38 37a1 1 0 0 0-1 1H23a1 1 0 0 0-2 0H8.534A.534.534 0 0 1 8 37.466V32h9c1.557 0 3.021.606 4.122 1.707l.707.708.707-.708A5.787 5.787 0 0 1 26.657 32h6.687c1.557 0 3.021.606 4.121 1.707l.707.708.707-.708A5.787 5.787 0 0 1 43 32h9v5.467a.533.533 0 0 1-.533.533H39a1 1 0 0 0-1-1zm20 6.895v3.274A1.834 1.834 0 0 1 56.168 49H3.832A1.834 1.834 0 0 1 2 47.168v-3.274l.028.026c.082.083.17.158.255.237.081.074.158.15.242.22.092.077.191.147.287.219.084.063.165.129.252.189.103.071.213.133.32.198.087.052.17.109.259.158.113.062.231.114.347.17.089.043.176.09.268.129.122.052.25.094.376.14.09.033.178.07.271.099.137.043.279.075.419.11.085.021.168.048.255.066.16.033.325.054.489.076.071.009.139.025.21.032.239.024.479.037.722.037h46c.243 0 .483-.013.72-.037.071-.007.14-.023.21-.032.164-.022.328-.043.489-.076.086-.018.169-.045.255-.066.141-.035.282-.067.419-.11.092-.029.18-.067.271-.099.126-.045.253-.088.376-.14.091-.039.178-.086.268-.129.116-.056.235-.108.347-.17.089-.049.173-.105.259-.158.107-.065.217-.127.32-.198.087-.059.168-.126.252-.189.096-.072.195-.142.287-.219.084-.07.162-.147.242-.22.086-.078.174-.154.255-.237a.248.248 0 0 0 .03-.025zM53 44H7c-2.757 0-5-2.243-5-5V27c0-1.103.897-2 2-2 .072 0 .14.014.209.021l.082.012c.238.035.459.112.66.218l.045.024a1.858 1.858 0 0 1 .325.235c.05.044.098.09.144.139.045.049.087.1.127.153.031.041.062.081.09.124.043.067.08.139.115.212.018.038.039.074.055.113.034.083.058.171.081.26.009.034.021.067.028.102.025.126.039.255.039.387V37.466A2.536 2.536 0 0 0 8.533 40h42.933A2.536 2.536 0 0 0 54 37.467V27c0-.132.014-.261.039-.386.007-.035.02-.068.029-.103.022-.088.047-.176.081-.259.016-.039.037-.076.055-.114.035-.072.072-.144.115-.211.028-.043.059-.083.09-.124a1.873 1.873 0 0 1 .375-.378c.071-.054.144-.105.222-.149l.045-.024c.201-.107.422-.183.66-.218l.082-.012c.067-.008.135-.022.207-.022 1.103 0 2 .897 2 2v12c0 2.757-2.243 5-5 5z"/></svg>