<svg xmlns="http://www.w3.org/2000/svg" viewBox="0 0 60 60" style="enable-background:new 0 0 60 60" xml:space="preserve"><path d="M55 21.09v-5.018A4.077 4.077 0 0 0 50.928 12H34.829A7.767 7.767 0 0 0 30 13.665 7.767 7.767 0 0 0 25.171 12H9.072A4.077 4.077 0 0 0 5 16.072v5.018c-2.833.479-5 2.943-5 5.91a6.01 6.01 0 0 0 5 5.917V48h7v-2h36v2h7V32.917A6.01 6.01 0 0 0 60 27c0-2.967-2.167-5.431-5-5.91zM7 16.072C7 14.93 7.93 14 9.072 14h16.099c1.557 0 3.021.606 4.122 1.707l.707.707.707-.707A5.79 5.79 0 0 1 34.829 14h16.099C52.07 14 53 14.93 53 16.072v5.011c-.022.004-.041.013-.063.016a5.826 5.826 0 0 0-.895.235c-.05.017-.098.036-.147.054a6.057 6.057 0 0 0-.833.386c-.035.02-.069.042-.104.063a6.056 6.056 0 0 0-.782.543l-.013.011a6.015 6.015 0 0 0-.677.668c-.022.025-.046.049-.068.075a6.039 6.039 0 0 0-.533.745l-.079.13a5.843 5.843 0 0 0-.392.817l-.054.147c-.105.291-.191.59-.25.9-.008.039-.011.08-.018.119A5.988 5.988 0 0 0 48 27v3H33.281a4.07 4.07 0 0 0-2.895 1.199l-.386.387-.387-.387A4.067 4.067 0 0 0 26.719 30H12v-3c0-.344-.036-.679-.091-1.007l-.018-.12a5.883 5.883 0 0 0-.25-.899c-.018-.05-.035-.099-.055-.149a6.135 6.135 0 0 0-.392-.817c-.025-.044-.052-.086-.079-.13a5.964 5.964 0 0 0-.533-.745c-.022-.026-.046-.049-.068-.075a6.101 6.101 0 0 0-.677-.668l-.013-.011a6.254 6.254 0 0 0-.782-.542c-.035-.021-.069-.043-.104-.063a5.833 5.833 0 0 0-.833-.385l-.147-.054a6.065 6.065 0 0 0-.895-.235c-.022-.004-.041-.013-.063-.017v-5.011zM48 35H12v-3h14.719a2.08 2.08 0 0 1 1.48.613L30 34.414l1.801-1.801a2.08 2.08 0 0 1 1.48-.613H48v3zM7 46V27a1 1 0 0 0-2 0v3.858c-1.72-.447-3-2-3-3.858 0-2.206 1.794-4 4-4s4 1.794 4 4v19H7zm24-2v-3a1 1 0 0 0-2 0v3H12v-7h36v7H31zm24-13.142V27a1 1 0 0 0-2 0v19h-3V27c0-2.206 1.794-4 4-4s4 1.794 4 4c0 1.858-1.28 3.411-3 3.858z"/><path d="M37.293 25.707a.997.997 0 0 0 1.414 0l.92-.92c.433.213.9.333 1.373.333s.94-.12 1.373-.332l.92.92a1 1 0 0 0 1.414-1.415l-.919-.919a3.112 3.112 0 0 0 0-2.747l.919-.919a.999.999 0 1 0-1.414-1.414l-.92.92a3.119 3.119 0 0 0-2.747 0l-.92-.92a.999.999 0 1 0-1.414 1.414l.92.92a3.112 3.112 0 0 0 0 2.747l-.92.92a.997.997 0 0 0 .001 1.412zm4.5-4.5a1.121 1.121 0 1 1-1.586 1.586 1.121 1.121 0 0 1 1.586-1.586zM15.293 25.707a.997.997 0 0 0 1.414 0l.92-.92c.433.213.9.333 1.373.333s.94-.12 1.373-.332l.92.92a1 1 0 0 0 1.414-1.415l-.919-.919a3.112 3.112 0 0 0 0-2.747l.919-.919a.999.999 0 1 0-1.414-1.414l-.92.92a3.119 3.119 0 0 0-2.747 0l-.92-.92a.999.999 0 1 0-1.414 1.414l.92.92a3.112 3.112 0 0 0 0 2.747l-.92.92a.997.997 0 0 0 .001 1.412zm4.5-4.5a1.121 1.121 0 1 1-1.586 1.586 1.121 1.121 0 0 1 1.586-1.586zM30 25a1 1 0 0 0 1-1v-1a1 1 0 0 0-2 0v1a1 1 0 0 0 1 1zM30 29a1 1 0 0 0 1-1v-1a1 1 0 0 0-2 0v1a1 1 0 0 0 1 1zM30 21a1 1 0 0 0 1-1v-1a1 1 0 0 0-2 0v1a1 1 0 0 0 1 1z"/></svg>