<svg xmlns="http://www.w3.org/2000/svg" viewBox="0 0 60 60" style="enable-background:new 0 0 60 60" xml:space="preserve"><circle cx="11" cy="18.029" r="1"/><circle cx="14" cy="15.029" r="1"/><circle cx="17" cy="18.029" r="1"/><circle cx="8" cy="21.029" r="1"/><circle cx="11" cy="24.029" r="1"/><circle cx="14" cy="21.029" r="1"/><circle cx="20" cy="21.029" r="1"/><circle cx="14" cy="27.029" r="1"/><circle cx="20" cy="27.029" r="1"/><circle cx="17" cy="24.029" r="1"/><circle cx="23" cy="24.029" r="1"/><circle cx="17" cy="30.029" r="1"/><circle cx="23" cy="30.029" r="1"/><circle cx="26" cy="27.029" r="1"/><circle cx="32" cy="27.029" r="1"/><circle cx="29" cy="24.029" r="1"/><circle cx="35" cy="24.029" r="1"/><circle cx="29" cy="30.029" r="1"/><circle cx="35" cy="30.029" r="1"/><circle cx="38" cy="27.029" r="1"/><circle cx="44" cy="27.029" r="1"/><circle cx="41" cy="24.029" r="1"/><circle cx="47" cy="24.029" r="1"/><circle cx="41" cy="30.029" r="1"/><circle cx="47" cy="30.029" r="1"/><circle cx="50" cy="27.029" r="1"/><circle cx="56" cy="27.029" r="1"/><circle cx="53" cy="24.029" r="1"/><circle cx="53" cy="30.029" r="1"/><path d="M60 35.529v-9.5c0-3.309-2.691-6-6-6H32c-5.07 0-6.07-1.194-7.885-3.361-.216-.258-.439-.525-.679-.801-4.938-5.694-13.356-6.545-18.766-1.898-.232.199-.451.405-.658.615C2.07 16.557 1 19.307 1 22.325v4.32c-.631.95-1 2.087-1 3.31 0 1.056.292 2.072.83 2.987A4.46 4.46 0 0 0 0 35.529c0 1.668.922 3.11 2.273 3.887A2.467 2.467 0 0 0 2 40.529c0 1.378 1.122 2.5 2.5 2.5H6v3h2v1a1 1 0 0 0 0 2h2a1 1 0 0 0 0-2v-1h2v-3h37v3h2v1a1 1 0 0 0 0 2h2a1 1 0 0 0 0-2v-1h2v-3h1.5c1.378 0 2.5-1.122 2.5-2.5 0-.609-.228-1.161-.591-1.595.965-.826 1.591-2.038 1.591-3.405zM3 22.325c0-1.549.355-3.039 1.006-4.324 0 .01-.006.018-.006.028a1 1 0 1 0 1-1 .97.97 0 0 0-.531.174 7.798 7.798 0 0 1 1.504-1.717c.35-.301.72-.565 1.098-.812a.998.998 0 0 0-.071.355 1 1 0 0 0 2 0 .987.987 0 0 0-.843-.968c3.395-1.665 7.529-1.385 10.899.688-.027.09-.056.18-.056.28a1 1 0 0 0 1 1 .977.977 0 0 0 .554-.189c.481.407.944.846 1.371 1.338.091.105.172.203.259.306a.967.967 0 0 0-.184.545 1 1 0 0 0 1 1c.152 0 .292-.04.421-.1.525.583 1.077 1.114 1.755 1.566a.97.97 0 0 0-.176.534 1 1 0 0 0 1 1 .99.99 0 0 0 .934-.674c1.239.426 2.843.674 5.066.674h22c2.206 0 4 1.794 4 4v5.76a4.5 4.5 0 0 0-.677-.366c-.069-.031-.14-.055-.211-.083a4.463 4.463 0 0 0-.565-.176c-.077-.019-.153-.039-.231-.053a4.48 4.48 0 0 0-.816-.082H11.9c.006-.034.004-.068.01-.102a5.88 5.88 0 0 0 .09-.973c0-3.309-2.691-6-6-6l-.015.001A.992.992 0 0 0 5 23.029a1 1 0 0 0-1 1c0 .091.029.173.052.257a5.387 5.387 0 0 0-.329.121l-.031.011c-.231.096-.452.21-.667.334-.008.004-.017.007-.025.012v-2.439zm.692 8.785a4.432 4.432 0 0 0-.894.257c-.051.022-.098.048-.148.07-.098.045-.198.085-.294.137A3.87 3.87 0 0 1 2 29.954c0-.8.242-1.543.648-2.169l.154-.206a4.127 4.127 0 0 1 .709-.731c.185-.151.384-.278.59-.392.065-.035.127-.074.194-.105.195-.094.4-.163.608-.224.075-.022.146-.052.223-.069.284-.065.576-.104.874-.104 2.206 0 4 1.794 4 4 0 .361-.052.721-.154 1.074H4.5a4.621 4.621 0 0 0-.808.082zm-1.01 2.713.104-.1a.461.461 0 0 0 .023-.018l.108-.087-.002-.003c.068-.056.134-.116.206-.164.03-.019.063-.035.095-.051l.104-.054-.002-.004c.074-.041.147-.085.225-.118.055-.022.113-.037.171-.053l.094-.027-.002-.004c.067-.02.132-.046.2-.06.165-.033.331-.051.494-.051h51c1.378 0 2.5 1.122 2.5 2.5s-1.122 2.5-2.5 2.5h-51a2.503 2.503 0 0 1-2.5-2.5c0-.661.262-1.258.682-1.706zM10 44.029H8v-1h2v1zm43 0h-2v-1h2v1zm3.5-4a.5.5 0 0 1 0 1h-52a.5.5 0 0 1 0-1h52z"/></svg>