<svg xmlns="http://www.w3.org/2000/svg" viewBox="0 0 60 60" style="enable-background:new 0 0 60 60" xml:space="preserve"><path d="M60 32.748V27.83c0-1.27-.846-2.334-2-2.691V14.433a4.412 4.412 0 0 0-1.242-3.063c-.02-.024-.029-.055-.051-.077-.023-.023-.053-.031-.078-.051A4.406 4.406 0 0 0 53.567 10H33.433a4.41 4.41 0 0 0-3.062 1.242c-.024.02-.055.029-.078.051-.023.023-.031.053-.051.077-.088.091-.162.194-.242.293-.08-.099-.154-.201-.242-.293-.02-.024-.029-.055-.051-.077-.023-.023-.053-.031-.078-.051A4.406 4.406 0 0 0 26.567 10H6.433a4.41 4.41 0 0 0-3.062 1.242c-.024.02-.055.029-.078.051-.023.023-.031.053-.051.077A4.412 4.412 0 0 0 2 14.433v10.706a2.824 2.824 0 0 0-2 2.691v4.917c0 .651.281 1.233.724 1.645A3.469 3.469 0 0 0 0 36.5c0 .98.407 1.864 1.058 2.5A3.485 3.485 0 0 0 0 41.5C0 43.43 1.57 45 3.5 45H4v4a1 1 0 0 0 1 1h3c.409 0 .776-.249.929-.628L10.677 45h38.645l1.749 4.372c.153.379.52.628.929.628h3a1 1 0 0 0 1-1v-4h.5c1.93 0 3.5-1.57 3.5-3.5 0-.98-.407-1.864-1.058-2.5A3.485 3.485 0 0 0 60 36.5c0-.794-.276-1.519-.724-2.108.443-.411.724-.994.724-1.644zm-11.975.091a5.855 5.855 0 0 1 .08-.622 6.712 6.712 0 0 1 .445-1.452 9.002 9.002 0 0 1 .272-.54 7.36 7.36 0 0 1 .163-.268c.051-.081.102-.162.157-.24.06-.086.124-.169.188-.251.058-.075.116-.151.178-.223.068-.08.14-.156.212-.233.065-.069.129-.139.196-.205.075-.074.155-.143.234-.213.071-.062.14-.126.214-.185.083-.067.17-.129.256-.192.075-.055.149-.111.227-.162.091-.06.185-.114.279-.17.079-.047.157-.096.238-.139.098-.052.2-.098.301-.145.082-.038.162-.079.245-.114.106-.044.216-.081.325-.119.083-.029.165-.062.249-.088.115-.035.234-.062.352-.091.082-.02.162-.044.246-.061.135-.027.273-.044.411-.063.069-.009.137-.024.207-.031.208-.021.42-.032.635-.032h2.835c.458 0 .83.373.83.83v4.917c0 .14-.113.253-.252.253h-9.731c.003-.054.004-.108.008-.161zM53.567 12c.302 0 .588.062.855.163l-2.13 2.13A.999.999 0 0 0 53 16a.997.997 0 0 0 .707-.293l2.13-2.13c.101.268.163.554.163.856V25h-1.665c-.284 0-.564.015-.84.043-.096.01-.188.029-.283.042-.179.024-.359.046-.535.082-.107.022-.21.053-.316.079-.159.039-.319.074-.474.122-.11.034-.215.077-.323.115-.146.052-.293.1-.435.159-.108.045-.211.099-.317.149-.136.064-.273.125-.405.195-.104.056-.203.12-.304.18-.127.075-.255.148-.378.23-.099.066-.192.138-.287.208-.118.086-.237.17-.35.262-.093.075-.179.157-.268.236-.108.096-.218.19-.321.292-.085.084-.165.173-.247.261-.098.105-.198.209-.291.32-.078.092-.149.189-.223.284-.088.114-.176.226-.258.344-.07.1-.133.205-.198.308-.076.121-.152.24-.222.365-.06.108-.115.219-.17.329a7.564 7.564 0 0 0-.185.385 8.23 8.23 0 0 0-.14.35 9.082 9.082 0 0 0-.147.4c-.04.122-.074.245-.108.369a9.617 9.617 0 0 0-.107.413 8.25 8.25 0 0 0-.073.387c-.024.14-.047.28-.065.423a8.956 8.956 0 0 0-.036.405c-.006.088-.02.174-.023.263H33.433c-.302 0-.588-.062-.855-.163l2.13-2.13a.999.999 0 1 0-1.414-1.414l-2.13 2.13a2.396 2.396 0 0 1-.164-.856V14.433c0-.302.062-.589.163-.856l2.13 2.13a.997.997 0 0 0 1.414 0 .999.999 0 0 0 0-1.414l-2.13-2.13c.267-.101.554-.163.856-.163h20.134zm-27 0c.302 0 .588.062.855.163l-2.13 2.13A.999.999 0 0 0 26 16a.997.997 0 0 0 .707-.293l2.13-2.13c.101.268.163.554.163.856v16.134c0 .302-.062.589-.163.856l-2.13-2.13a.999.999 0 1 0-1.414 1.414l2.13 2.13a2.412 2.412 0 0 1-.856.163H13.993c-.004-.089-.017-.175-.023-.263a8.956 8.956 0 0 0-.036-.405 8.411 8.411 0 0 0-.064-.422c-.023-.13-.045-.26-.074-.389a8.016 8.016 0 0 0-.106-.412c-.034-.124-.068-.248-.108-.37a7.616 7.616 0 0 0-.147-.4c-.045-.117-.09-.235-.14-.35-.057-.131-.121-.257-.185-.385-.056-.111-.11-.222-.17-.329a7.877 7.877 0 0 0-.222-.365c-.065-.104-.128-.208-.198-.308a7.903 7.903 0 0 0-.258-.344c-.074-.095-.145-.192-.223-.284-.093-.11-.192-.214-.291-.32-.082-.088-.161-.177-.247-.261-.103-.101-.213-.196-.321-.292-.089-.079-.176-.16-.268-.236-.113-.092-.232-.175-.349-.261-.096-.07-.19-.143-.289-.209-.122-.081-.25-.154-.377-.229-.102-.06-.201-.124-.305-.18-.132-.071-.269-.132-.405-.195-.106-.05-.209-.103-.317-.149-.142-.059-.289-.108-.435-.159-.108-.038-.213-.082-.323-.115-.155-.048-.315-.083-.474-.122-.105-.026-.209-.058-.316-.079-.175-.036-.355-.058-.535-.082-.095-.013-.187-.033-.283-.042A8.282 8.282 0 0 0 5.665 25H4V14.433c0-.302.062-.589.163-.856l2.13 2.13a.997.997 0 0 0 1.414 0 .999.999 0 0 0 0-1.414l-2.13-2.13c.267-.101.554-.163.856-.163h20.134zM2 27.83c0-.457.372-.83.83-.83h2.835c.215 0 .427.011.637.032.07.007.138.021.207.031.138.018.276.036.411.063.083.017.164.041.246.061.118.029.237.055.352.091.085.026.166.059.249.088.109.039.219.075.325.119.083.035.163.076.245.114.101.047.203.093.301.145.081.043.159.092.238.139.094.055.188.11.279.17.078.051.151.108.227.162.086.063.173.125.256.192.073.059.143.123.214.185.079.07.158.139.234.213.068.066.132.136.196.205.072.077.144.153.212.233.062.073.119.148.178.223.064.083.128.165.188.251.055.078.106.159.157.24a4.826 4.826 0 0 1 .298.525c.047.093.094.187.137.283.039.089.076.179.111.27a5.036 5.036 0 0 1 .195.58 6.112 6.112 0 0 1 .219 1.224c.004.053.005.107.008.161H2.252A.252.252 0 0 1 2 32.748V27.83zM7.323 48H6v-3h2.523l-1.2 3zM54 48h-1.323l-1.2-3H54v3zm4-6.5c0 .827-.673 1.5-1.5 1.5h-53c-.827 0-1.5-.673-1.5-1.5S2.673 40 3.5 40h53c.827 0 1.5.673 1.5 1.5zM3.5 38c-.827 0-1.5-.673-1.5-1.5S2.673 35 3.5 35h53c.827 0 1.5.673 1.5 1.5s-.673 1.5-1.5 1.5h-53z"/><path d="M13.293 23.707a.997.997 0 0 0 1.414 0L16 22.414l1.293 1.293a.997.997 0 0 0 1.414 0 .999.999 0 0 0 0-1.414L17.414 21l1.293-1.293a.999.999 0 1 0-1.414-1.414L16 19.586l-1.293-1.293a.999.999 0 1 0-1.414 1.414L14.586 21l-1.293 1.293a.999.999 0 0 0 0 1.414zM41.293 23.707a.997.997 0 0 0 1.414 0L44 22.414l1.293 1.293a.997.997 0 0 0 1.414 0 .999.999 0 0 0 0-1.414L45.414 21l1.293-1.293a.999.999 0 1 0-1.414-1.414L44 19.586l-1.293-1.293a.999.999 0 1 0-1.414 1.414L42.586 21l-1.293 1.293a.999.999 0 0 0 0 1.414z"/></svg>