<?xml version="1.0" encoding="iso-8859-1"?>
<!-- Generator: Adobe Illustrator 18.0.0, SVG Export Plug-In . SVG Version: 6.00 Build 0)  -->
<!DOCTYPE svg PUBLIC "-//W3C//DTD SVG 1.1//EN" "http://www.w3.org/Graphics/SVG/1.1/DTD/svg11.dtd">
<svg version="1.1" id="Capa_1" xmlns="http://www.w3.org/2000/svg" xmlns:xlink="http://www.w3.org/1999/xlink" x="0px" y="0px"
	 viewBox="0 0 60 60" style="enable-background:new 0 0 60 60;" xml:space="preserve">
<g>
	<path d="M21,28c0.553,0,1-0.448,1-1v-1c0-0.552-0.447-1-1-1s-1,0.448-1,1v1C20,27.552,20.447,28,21,28z"/>
	<path d="M21,20c0.553,0,1-0.448,1-1v-1c0-0.552-0.447-1-1-1s-1,0.448-1,1v1C20,19.552,20.447,20,21,20z"/>
	<path d="M21,24c0.553,0,1-0.448,1-1v-1c0-0.552-0.447-1-1-1s-1,0.448-1,1v1C20,23.552,20.447,24,21,24z"/>
	<path d="M39,24c0.553,0,1-0.448,1-1v-1c0-0.552-0.447-1-1-1s-1,0.448-1,1v1C38,23.552,38.447,24,39,24z"/>
	<path d="M39,20c0.553,0,1-0.448,1-1v-1c0-0.552-0.447-1-1-1s-1,0.448-1,1v1C38,19.552,38.447,20,39,20z"/>
	<path d="M39,28c0.553,0,1-0.448,1-1v-1c0-0.552-0.447-1-1-1s-1,0.448-1,1v1C38,27.552,38.447,28,39,28z"/>
	<circle cx="9" cy="38" r="1"/>
	<circle cx="12" cy="41" r="1"/>
	<circle cx="18" cy="41" r="1"/>
	<circle cx="15" cy="38" r="1"/>
	<circle cx="21" cy="38" r="1"/>
	<circle cx="24" cy="41" r="1"/>
	<circle cx="30" cy="41" r="1"/>
	<circle cx="27" cy="38" r="1"/>
	<circle cx="33" cy="38" r="1"/>
	<circle cx="36" cy="41" r="1"/>
	<circle cx="42" cy="41" r="1"/>
	<circle cx="39" cy="38" r="1"/>
	<circle cx="45" cy="38" r="1"/>
	<circle cx="48" cy="41" r="1"/>
	<circle cx="51" cy="38" r="1"/>
	<path d="M60,26c0-1.474-0.81-2.75-2-3.444v-3.06C58,14.812,54.188,11,49.503,11h-5.675c-1.773,0-3.456,0.585-4.828,1.665
		C37.628,11.585,35.945,11,34.172,11h-8.344c-1.773,0-3.456,0.585-4.828,1.665C19.628,11.585,17.945,11,16.172,11h-5.675
		C5.812,11,2,14.812,2,19.497v3.06C0.81,23.25,0,24.526,0,26v20h1v3h6v-3h1h44h1v3h6v-3h1V26z M8,32h10.172
		c0.263,0,0.521,0.107,0.707,0.293c1.169,1.167,3.071,1.169,4.242,0C23.308,32.107,23.565,32,23.828,32h12.344
		c0.263,0,0.521,0.107,0.707,0.293c1.17,1.168,3.072,1.168,4.242,0v0C41.308,32.107,41.565,32,41.828,32H52v3H8V32z M54,37v-2v-5
		v-3.7c0-0.915,0.482-1.743,1.229-2.109c0.203-0.099,0.402-0.152,0.603-0.174c0.043-0.004,0.085-0.012,0.129-0.013
		c0.071-0.002,0.144,0.006,0.216,0.014c0.045,0.004,0.09,0.007,0.134,0.014c0.115,0.021,0.232,0.051,0.354,0.095l0.158,0.056
		C57.515,24.497,58,25.191,58,26v18h-4V37z M4,19.497C4,15.915,6.915,13,10.497,13h5.675c1.557,0,3.021,0.606,4.121,1.707L21,15.415
		l0.707-0.708C22.808,13.606,24.271,13,25.828,13h8.344c1.557,0,3.021,0.606,4.121,1.707L39,15.415l0.707-0.708
		C40.808,13.606,42.271,13,43.828,13h5.675C53.085,13,56,15.915,56,19.497V22c-2.206,0-4,1.794-4,4v0.3V30H41.828
		c-0.801,0-1.555,0.312-2.121,0.878c-0.391,0.391-1.023,0.39-1.414,0C37.727,30.312,36.973,30,36.172,30H23.828
		c-0.801,0-1.555,0.312-2.121,0.878c-0.391,0.391-1.023,0.39-1.414,0C19.727,30.312,18.973,30,18.172,30H8v-3.7V26
		c0-2.206-1.794-4-4-4V19.497z M2,26c0-0.809,0.485-1.503,1.177-1.818l0.158-0.056c0.122-0.044,0.238-0.073,0.353-0.094
		c0.046-0.007,0.093-0.01,0.139-0.014c0.071-0.007,0.143-0.015,0.212-0.014c0.044,0.001,0.086,0.009,0.129,0.013
		c0.201,0.022,0.4,0.074,0.602,0.173C5.518,24.557,6,25.385,6,26.3V30v5v2v7H2V26z M5,47H3v-1h2V47z M52,38v6c0-0.552-0.448-1-1-1
		s-1,0.448-1,1h-4c0-0.552-0.448-1-1-1s-1,0.448-1,1h-4c0-0.552-0.448-1-1-1s-1,0.448-1,1h-4c0-0.552-0.448-1-1-1s-1,0.448-1,1h-4
		c0-0.552-0.448-1-1-1s-1,0.448-1,1h-4c0-0.552-0.448-1-1-1s-1,0.448-1,1h-4c0-0.552-0.448-1-1-1s-1,0.448-1,1h-4
		c0-0.552-0.448-1-1-1s-1,0.448-1,1v-6v-1h1h6h6h6h6h6h6h6h1V38z M57,47h-2v-1h2V47z"/>
</g>
<g>
</g>
<g>
</g>
<g>
</g>
<g>
</g>
<g>
</g>
<g>
</g>
<g>
</g>
<g>
</g>
<g>
</g>
<g>
</g>
<g>
</g>
<g>
</g>
<g>
</g>
<g>
</g>
<g>
</g>
</svg>
