<svg xmlns="http://www.w3.org/2000/svg" viewBox="0 0 59.999 59.999" style="enable-background:new 0 0 59.999 59.999" xml:space="preserve"><path d="M59.948 21.272c-.344-2.406-2.494-4.221-5.02-4.264C52.537 13.289 48.409 11 44 11H16c-4.408 0-8.536 2.289-10.928 6.008-2.527.043-4.677 1.858-5.02 4.264-.326 2.29.936 4.531 2.948 5.433V37c0 3.165 2.113 5.842 5 6.705V48a1 1 0 0 0 1 1h3c.409 0 .776-.249.929-.628L14.678 44h30.645l1.749 4.372c.152.379.52.628.929.628h3a1 1 0 0 0 1-1v-4.295c2.888-.863 5-3.541 5-6.705V26.705c2.011-.902 3.273-3.144 2.947-5.433zm-43.949-8.273h28c3.444 0 6.69 1.653 8.762 4.388-.28.107-.551.233-.808.381a.986.986 0 0 0-.953-.769 1 1 0 0 0-1 1c0 .389.229.718.554.883-.009.009-.016.02-.024.029a5.83 5.83 0 0 0-.393.48c-.039.052-.08.102-.117.156a5.718 5.718 0 0 0-.359.604c-.039.075-.074.151-.11.227a5.76 5.76 0 0 0-.228.563c-.017.05-.039.098-.055.149a5.837 5.837 0 0 0-.205.941 5.777 5.777 0 0 0-.062.805v6.188a4.948 4.948 0 0 0-3-1.026c-2.757 0-5 2.243-5 5 0 1.13.391 2.162 1.026 3h-2.026a1 1 0 0 0-2 0h-4a1 1 0 0 0-2 0h-4a1 1 0 0 0-2 0h-4a1 1 0 0 0-2 0h-2.026a4.948 4.948 0 0 0 1.026-3c0-2.757-2.243-5-5-5-1.13 0-2.162.391-3 1.026v-6.188c0-.274-.026-.541-.062-.805-.009-.069-.02-.137-.031-.205a5.796 5.796 0 0 0-.174-.736c-.016-.052-.038-.1-.055-.151a5.487 5.487 0 0 0-.228-.561c-.036-.077-.071-.153-.11-.227a5.894 5.894 0 0 0-.359-.604c-.037-.054-.078-.104-.117-.156a6.041 6.041 0 0 0-.393-.48c-.009-.009-.015-.02-.024-.029a.992.992 0 0 0 .554-.883 1 1 0 0 0-1-1 .986.986 0 0 0-.953.769 5.965 5.965 0 0 0-.808-.381c2.068-2.735 5.314-4.388 8.758-4.388zm27 20c0-1.654 1.346-3 3-3s3 1.346 3 3-1.346 3-3 3-3-1.345-3-3zm-32 0c0-1.654 1.346-3 3-3s3 1.346 3 3-1.346 3-3 3-3-1.345-3-3zm.324 14H9.999v-3h2.523l-1.199 3zm38.676 0h-1.323l-1.2-3h2.523v3zm5.836-22H54a1 1 0 1 0 0 2h1v10c0 2.757-2.243 5-5 5H10c-2.757 0-5-2.243-5-5v-10h1a1 1 0 1 0 0-2H4.164c-1.419-.418-2.352-1.908-2.133-3.445.207-1.457 1.553-2.555 3.13-2.555.107 0 .208.023.312.032.013.002.025.007.038.008a3.887 3.887 0 0 1 1.4.403c.19.096.369.209.538.333.046.035.089.074.134.11.131.105.255.215.37.335.071.076.134.159.198.24.079.098.159.194.228.299.076.117.137.243.2.368.044.087.094.169.131.259.063.155.107.319.15.483.019.073.048.142.063.217.048.243.076.494.076.751V36.999a1 1 0 0 0 1 1h40a1 1 0 0 0 1-1V22.837c0-.257.027-.508.076-.751.015-.075.044-.144.063-.218.043-.164.086-.327.15-.482.037-.091.088-.174.132-.261.063-.125.124-.251.2-.367.069-.105.15-.201.228-.299.065-.081.127-.165.198-.24a3.89 3.89 0 0 1 .368-.334c.045-.037.087-.076.134-.11a3.76 3.76 0 0 1 .539-.334l.025-.013a3.872 3.872 0 0 1 1.376-.389c.013-.001.025-.007.038-.008.105-.009.205-.032.312-.032 1.577 0 2.923 1.098 3.13 2.555.218 1.538-.715 3.028-2.133 3.445z"/><circle cx="11.999" cy="14.999" r="1"/><circle cx="17.999" cy="14.999" r="1"/><circle cx="11.999" cy="20.999" r="1"/><circle cx="17.999" cy="20.999" r="1"/><circle cx="14.999" cy="17.999" r="1"/><circle cx="20.999" cy="17.999" r="1"/><circle cx="14.999" cy="23.999" r="1"/><circle cx="20.999" cy="23.999" r="1"/><circle cx="23.999" cy="14.999" r="1"/><circle cx="29.999" cy="14.999" r="1"/><circle cx="23.999" cy="20.999" r="1"/><circle cx="29.999" cy="20.999" r="1"/><circle cx="26.999" cy="17.999" r="1"/><circle cx="32.999" cy="17.999" r="1"/><circle cx="26.999" cy="23.999" r="1"/><circle cx="32.999" cy="23.999" r="1"/><circle cx="35.999" cy="14.999" r="1"/><circle cx="41.999" cy="14.999" r="1"/><circle cx="35.999" cy="20.999" r="1"/><circle cx="41.999" cy="20.999" r="1"/><circle cx="38.999" cy="17.999" r="1"/><circle cx="44.999" cy="17.999" r="1"/><circle cx="38.999" cy="23.999" r="1"/><circle cx="44.999" cy="23.999" r="1"/><circle cx="47.999" cy="14.999" r="1"/><circle cx="47.999" cy="20.999" r="1"/><circle cx="11.999" cy="26.999" r="1"/><circle cx="17.999" cy="26.999" r="1"/><circle cx="20.999" cy="29.999" r="1"/><circle cx="23.999" cy="26.999" r="1"/><circle cx="29.999" cy="26.999" r="1"/><circle cx="23.999" cy="32.999" r="1"/><circle cx="29.999" cy="32.999" r="1"/><circle cx="26.999" cy="29.999" r="1"/><circle cx="32.999" cy="29.999" r="1"/><circle cx="35.999" cy="26.999" r="1"/><circle cx="41.999" cy="26.999" r="1"/><circle cx="35.999" cy="32.999" r="1"/><circle cx="38.999" cy="29.999" r="1"/><circle cx="47.999" cy="26.999" r="1"/></svg>