<svg xmlns="http://www.w3.org/2000/svg" viewBox="0 0 59.999 59.999" style="enable-background:new 0 0 59.999 59.999" xml:space="preserve"><path d="m59.91 34.785-1.993-7.815c-.195-.763-.804-1.284-1.556-1.42l-4.395-2.637L52 15.75a5.256 5.256 0 0 0-5.25-5.25h-12.5c-1.751 0-3.294.87-4.248 2.19a5.234 5.234 0 0 0-4.248-2.19h-12.5a5.256 5.256 0 0 0-5.25 5.25v7.181L3.639 25.55c-.753.136-1.362.657-1.557 1.42L.088 34.785a2.905 2.905 0 0 0 0 1.429l1.993 7.815A1.939 1.939 0 0 0 4.052 45.5H6v4h2.414l4-4h35.172l4 4H54v-4.001l1.895-.001a1.949 1.949 0 0 0 2.022-1.469l1.993-7.815a2.905 2.905 0 0 0 0-1.429zm-5.827-7.815-1.602 6.279-1.146-1.434-1.228-1.537.325-1.142 1.171-4.107 2.614 1.568a2.063 2.063 0 0 0-.134.373zM11.484 31.5h37.039l2.398 3H9.082l2.402-3zm22.766-19h12.5A3.254 3.254 0 0 1 50 15.75v7.609L48.248 29.5H31.003V15.75l-.002-.019A3.253 3.253 0 0 1 34.25 12.5zm-24.247 3.25a3.254 3.254 0 0 1 3.25-3.25h12.5a3.253 3.253 0 0 1 3.248 3.231l-.002.019V29.5H11.758l-1.754-6.14v-7.61zm-1.606 9.277 1.503 5.25-2.381 2.974-1.602-6.281a2.03 2.03 0 0 0-.136-.374l2.616-1.569zM4.02 43.535 2.027 35.72a.89.89 0 0 1 0-.441l1.952-7.815 1.993 7.815A.91.91 0 0 1 6 35.5v8.012l-1.98.023zM8 47.085V45.5h1.586L8 47.085zm6.414-3.585H8v-7h44v7H14.414zM52 47.085 50.414 45.5H52v1.585zm5.972-11.365-2.026 7.78H54v-8a.96.96 0 0 1 .027-.22l1.959-7.785h.001l1.986 7.785a.922.922 0 0 1-.001.44z"/></svg>