<?xml version="1.0" encoding="iso-8859-1"?>
<!-- Generator: Adobe Illustrator 18.0.0, SVG Export Plug-In . SVG Version: 6.00 Build 0)  -->
<!DOCTYPE svg PUBLIC "-//W3C//DTD SVG 1.1//EN" "http://www.w3.org/Graphics/SVG/1.1/DTD/svg11.dtd">
<svg version="1.1" id="Capa_1" xmlns="http://www.w3.org/2000/svg" xmlns:xlink="http://www.w3.org/1999/xlink" x="0px" y="0px"
	 viewBox="0 0 60 60" style="enable-background:new 0 0 60 60;" xml:space="preserve">
<g>
	<path d="M60,26c0-1.474-0.81-2.75-2-3.444v-3.06C58,14.812,54.188,11,49.503,11h-5.675c-1.773,0-3.456,0.585-4.828,1.665
		C37.628,11.585,35.945,11,34.172,11h-8.344c-1.773,0-3.456,0.585-4.828,1.665C19.628,11.585,17.945,11,16.172,11h-5.675
		C5.812,11,2,14.812,2,19.497v3.06C0.81,23.25,0,24.526,0,26v20h1v3h6v-3h1h44h1v3h6v-3h1V26z M8,32h10.172
		c0.263,0,0.521,0.107,0.707,0.293c1.169,1.167,3.071,1.169,4.242,0C23.308,32.107,23.565,32,23.828,32h12.344
		c0.263,0,0.521,0.107,0.707,0.293c1.17,1.168,3.072,1.168,4.242,0v0C41.308,32.107,41.565,32,41.828,32H52v3H8V32z M54,37v-2v-5
		v-3.7c0-0.915,0.482-1.743,1.229-2.109c0.203-0.099,0.402-0.152,0.603-0.174c0.043-0.004,0.085-0.012,0.129-0.013
		c0.071-0.002,0.143,0.006,0.216,0.014c0.045,0.004,0.09,0.007,0.134,0.014c0.115,0.021,0.232,0.051,0.354,0.095l0.158,0.056
		C57.515,24.497,58,25.191,58,26v18h-4V37z M49.503,13C53.085,13,56,15.915,56,19.497V22c-2.206,0-4,1.794-4,4v0.3V30H41.828
		c-0.673,0-1.305,0.232-1.828,0.638V14.441C41.062,13.513,42.404,13,43.828,13H49.503z M34.172,13c1.424,0,2.767,0.513,3.828,1.441
		v16.197C37.477,30.231,36.845,30,36.172,30H23.828c-0.673,0-1.305,0.232-1.828,0.638V14.441C23.062,13.513,24.404,13,25.828,13
		H34.172z M4,19.497C4,15.915,6.915,13,10.497,13h5.675c1.424,0,2.767,0.513,3.828,1.441v16.197C19.477,30.231,18.845,30,18.172,30
		H8v-3.7V26c0-2.206-1.794-4-4-4V19.497z M2,26c0-0.809,0.485-1.503,1.177-1.818l0.158-0.056c0.122-0.044,0.239-0.074,0.354-0.094
		c0.045-0.007,0.091-0.01,0.137-0.014c0.072-0.007,0.143-0.015,0.214-0.014c0.045,0.001,0.087,0.01,0.131,0.013
		c0.201,0.022,0.399,0.074,0.6,0.173C5.518,24.557,6,25.385,6,26.3V30v5v2v7H2V26z M5,47H3v-1h2V47z M52,44H8v-7h44V44z M57,47h-2
		v-1h2V47z"/>
	<path d="M27.293,22.707C27.488,22.902,27.744,23,28,23s0.512-0.098,0.707-0.293L30,21.414l1.293,1.293
		C31.488,22.902,31.744,23,32,23s0.512-0.098,0.707-0.293c0.391-0.391,0.391-1.023,0-1.414L31.414,20l1.293-1.293
		c0.391-0.391,0.391-1.023,0-1.414s-1.023-0.391-1.414,0L30,18.586l-1.293-1.293c-0.391-0.391-1.023-0.391-1.414,0
		s-0.391,1.023,0,1.414L28.586,20l-1.293,1.293C26.902,21.684,26.902,22.316,27.293,22.707z"/>
	<path d="M45.293,22.707C45.488,22.902,45.744,23,46,23s0.512-0.098,0.707-0.293L48,21.414l1.293,1.293
		C49.488,22.902,49.744,23,50,23s0.512-0.098,0.707-0.293c0.391-0.391,0.391-1.023,0-1.414L49.414,20l1.293-1.293
		c0.391-0.391,0.391-1.023,0-1.414s-1.023-0.391-1.414,0L48,18.586l-1.293-1.293c-0.391-0.391-1.023-0.391-1.414,0
		s-0.391,1.023,0,1.414L46.586,20l-1.293,1.293C44.902,21.684,44.902,22.316,45.293,22.707z"/>
	<path d="M9.293,22.707C9.488,22.902,9.744,23,10,23s0.512-0.098,0.707-0.293L12,21.414l1.293,1.293C13.488,22.902,13.744,23,14,23
		s0.512-0.098,0.707-0.293c0.391-0.391,0.391-1.023,0-1.414L13.414,20l1.293-1.293c0.391-0.391,0.391-1.023,0-1.414
		s-1.023-0.391-1.414,0L12,18.586l-1.293-1.293c-0.391-0.391-1.023-0.391-1.414,0s-0.391,1.023,0,1.414L10.586,20l-1.293,1.293
		C8.902,21.684,8.902,22.316,9.293,22.707z"/>
</g>
<g>
</g>
<g>
</g>
<g>
</g>
<g>
</g>
<g>
</g>
<g>
</g>
<g>
</g>
<g>
</g>
<g>
</g>
<g>
</g>
<g>
</g>
<g>
</g>
<g>
</g>
<g>
</g>
<g>
</g>
</svg>
