<svg xmlns="http://www.w3.org/2000/svg" viewBox="0 0 60 60" style="enable-background:new 0 0 60 60" xml:space="preserve"><path d="M60 28c0-3.033-2.467-5.5-5.5-5.5-.521 0-1.022.077-1.5.213v-2.506c0-5.353-4.354-9.707-9.707-9.707H16.707C11.354 10.5 7 14.854 7 20.207v2.506a5.464 5.464 0 0 0-1.5-.213A5.506 5.506 0 0 0 0 28c0 1.804.903 3.47 2.355 4.487A5.95 5.95 0 0 0 2 34.5c0 1.61.641 3.072 1.677 4.15A2.497 2.497 0 0 0 2 41c0 1.378 1.122 2.5 2.5 2.5H6v3h2v1a1 1 0 0 0 0 2h2a1 1 0 0 0 0-2v-1h2v-3h36v3h2v1a1 1 0 0 0 0 2h2a1 1 0 0 0 0-2v-1h2v-3h1.5c1.378 0 2.5-1.122 2.5-2.5a2.497 2.497 0 0 0-1.677-2.35A5.974 5.974 0 0 0 58 34.5a5.95 5.95 0 0 0-.355-2.013A5.493 5.493 0 0 0 60 28zM9 23.759v-3.552c0-4.25 3.458-7.707 7.707-7.707h26.586c4.25 0 7.707 3.458 7.707 7.707v3.552c-.037.031-.07.066-.106.098a5.68 5.68 0 0 0-.302.278c-.064.065-.122.133-.183.201-.065.073-.131.145-.193.221-.059.073-.114.15-.169.226-.056.078-.112.156-.164.237a5.314 5.314 0 0 0-.524 1.037c-.028.074-.057.147-.081.222a5.324 5.324 0 0 0-.099.349c-.018.068-.038.135-.053.204a5.376 5.376 0 0 0-.068.403c-.008.058-.02.114-.026.172-.02.197-.032.393-.032.593 0 .167.008.333.025.5h-38.05c.017-.167.025-.333.025-.5 0-.2-.012-.396-.033-.59-.006-.058-.018-.115-.026-.172a5.291 5.291 0 0 0-.068-.403c-.015-.069-.035-.136-.053-.204a5.607 5.607 0 0 0-.099-.349c-.025-.075-.054-.148-.081-.222a5.415 5.415 0 0 0-.524-1.037 5.543 5.543 0 0 0-.164-.237c-.055-.076-.11-.153-.169-.226-.061-.076-.127-.148-.193-.221-.06-.067-.119-.136-.183-.201a5.68 5.68 0 0 0-.302-.278c-.035-.035-.068-.07-.105-.101zM51.692 30.5H52a4.672 4.672 0 0 1 .929.12c.134.032.264.077.392.122.218.079.429.172.63.288l.068.037a4.084 4.084 0 0 1 1.459 1.512l.212.38c.199.474.31.995.31 1.541 0 2.206-1.794 4-4 4H8c-2.206 0-4-1.794-4-4 0-.546.111-1.067.31-1.541l.212-.38a4.084 4.084 0 0 1 1.459-1.512l.068-.037c.201-.116.413-.209.63-.288a3.324 3.324 0 0 1 .633-.172c.225-.04.452-.07.688-.07h43.692zM2 28c0-1.93 1.57-3.5 3.5-3.5.721 0 1.391.22 1.949.595.219.148.413.322.59.51.057.06.105.127.157.191a3.506 3.506 0 0 1 .438.677c.08.164.144.336.198.511.023.076.052.149.07.226.06.256.098.52.098.79 0 .164-.02.331-.048.5H8a5.98 5.98 0 0 0-.659.038c-.029.003-.057.009-.085.013a6.203 6.203 0 0 0-.582.101l-.024.006a6.01 6.01 0 0 0-3.317 2.077A3.497 3.497 0 0 1 2 28zm8 16.5H8v-1h2v1zm42 0h-2v-1h2v1zm3.5-3h-51a.5.5 0 0 1 0-1h51a.5.5 0 0 1 0 1zm1.166-10.764a6.004 6.004 0 0 0-3.317-2.077l-.024-.006a5.894 5.894 0 0 0-.582-.101c-.029-.004-.057-.01-.085-.013A5.713 5.713 0 0 0 52 28.5h-.952A3.075 3.075 0 0 1 51 28c0-.27.038-.534.098-.791.018-.077.047-.15.07-.225.054-.176.118-.347.198-.512a3.38 3.38 0 0 1 .438-.676c.052-.064.1-.13.157-.19.177-.188.371-.362.59-.51A3.475 3.475 0 0 1 54.5 24.5c1.93 0 3.5 1.57 3.5 3.5a3.498 3.498 0 0 1-1.334 2.736z"/><path d="M14.293 22.207a.997.997 0 0 0 1.414 0l1.793-1.793 1.793 1.793a.997.997 0 0 0 1.414 0 .999.999 0 0 0 0-1.414L19.414 19.5l1.293-1.293a.999.999 0 1 0-1.414-1.414L17.5 18.586l-1.793-1.793a.999.999 0 1 0-1.414 1.414l1.293 1.293-1.293 1.293a.999.999 0 0 0 0 1.414zM27.293 25.207a.997.997 0 0 0 1.414 0l1.793-1.793 1.793 1.793a.997.997 0 0 0 1.414 0 .999.999 0 0 0 0-1.414L32.414 22.5l1.293-1.293a.999.999 0 1 0-1.414-1.414L30.5 21.586l-1.793-1.793a.999.999 0 1 0-1.414 1.414l1.293 1.293-1.293 1.293a.999.999 0 0 0 0 1.414zM40.293 22.207a.997.997 0 0 0 1.414 0l1.793-1.793 1.793 1.793a.997.997 0 0 0 1.414 0 .999.999 0 0 0 0-1.414L45.414 19.5l1.293-1.293a.999.999 0 1 0-1.414-1.414L43.5 18.586l-1.793-1.793a.999.999 0 1 0-1.414 1.414l1.293 1.293-1.293 1.293a.999.999 0 0 0 0 1.414z"/></svg>