<svg xmlns="http://www.w3.org/2000/svg" viewBox="0 0 60 60" style="enable-background:new 0 0 60 60" xml:space="preserve"><path d="M15.293 21.707a.997.997 0 0 0 1.414 0l1.009-1.009c.406.193.843.301 1.284.301s.878-.108 1.284-.301l1.009 1.009a.997.997 0 0 0 1.414 0 .999.999 0 0 0 0-1.414L21.7 19.286c.19-.398.3-.832.3-1.286s-.11-.888-.3-1.286l1.007-1.007a.999.999 0 1 0-1.414-1.414l-1.009 1.009a3 3 0 0 0-2.568 0l-1.009-1.009a.999.999 0 1 0-1.414 1.414l1.007 1.007c-.19.398-.3.832-.3 1.286s.11.888.3 1.286l-1.007 1.007a.999.999 0 0 0 0 1.414zm4.414-4.414c.189.189.293.44.293.707s-.104.518-.293.707a1 1 0 0 1-1.414 0c-.189-.189-.293-.44-.293-.707s.104-.518.293-.707a.997.997 0 0 1 1.414 0zM37.293 21.707a.997.997 0 0 0 1.414 0l1.009-1.009c.406.193.843.301 1.284.301s.878-.108 1.284-.301l1.009 1.009a.997.997 0 0 0 1.414 0 .999.999 0 0 0 0-1.414L43.7 19.286c.19-.398.3-.832.3-1.286s-.11-.888-.3-1.286l1.007-1.007a.999.999 0 1 0-1.414-1.414l-1.009 1.009a3 3 0 0 0-2.568 0l-1.009-1.009a.999.999 0 1 0-1.414 1.414l1.007 1.007c-.19.398-.3.832-.3 1.286s.11.888.3 1.286l-1.007 1.007a.999.999 0 0 0 0 1.414zm4.414-4.414c.189.189.293.44.293.707s-.104.518-.293.707a1 1 0 0 1-1.414 0c-.189-.189-.293-.44-.293-.707s.104-.518.293-.707a.997.997 0 0 1 1.414 0z"/><path d="M54.75 14H52v-.75A5.256 5.256 0 0 0 46.75 8h-12.5c-1.752 0-3.296.87-4.25 2.193A5.233 5.233 0 0 0 25.75 8h-12.5A5.256 5.256 0 0 0 8 13.25V14H5.25A5.256 5.256 0 0 0 0 19.25v12.497c0 .65.28 1.231.722 1.643A3.456 3.456 0 0 0 0 35.492v4.016c0 1.39.822 2.583 2 3.144V47h2v4a1 1 0 0 0 1 1h3c.409 0 .776-.249.929-.628L10.677 47h38.645l1.749 4.372c.153.379.52.628.929.628h3a1 1 0 0 0 1-1v-4h2v-4.348a3.488 3.488 0 0 0 2-3.144v-4.016c0-.792-.275-1.515-.722-2.102.442-.411.722-.993.722-1.642V19.25A5.256 5.256 0 0 0 54.75 14zm0 2A3.254 3.254 0 0 1 58 19.25v4.874c-.057-.017-.117-.026-.175-.04-.047-.011-.094-.023-.142-.032A2.797 2.797 0 0 0 57.17 24h-2.835c-.36 0-.712.031-1.06.075-.094.012-.188.028-.282.043a8.508 8.508 0 0 0-.878.191c-.038.011-.077.014-.115.025V16h2.75zm-20.5-6h12.5A3.254 3.254 0 0 1 50 13.25v11.972c-.032.02-.06.044-.092.064a8.465 8.465 0 0 0-.616.429c-.065.049-.132.095-.196.146a8.295 8.295 0 0 0-.662.594c-.092.092-.175.192-.262.289a8.718 8.718 0 0 0-.334.383 10.145 10.145 0 0 0-.772 1.142c-.08.143-.152.291-.224.439-.06.123-.125.243-.178.369a8.224 8.224 0 0 0-.299.823c-.03.099-.051.201-.078.302a8.094 8.094 0 0 0-.143.625c-.021.113-.036.226-.052.341-.029.209-.051.42-.065.634-.004.067-.018.131-.02.198H31V13.25A3.254 3.254 0 0 1 34.25 10zM10 13.25A3.254 3.254 0 0 1 13.25 10h12.5A3.254 3.254 0 0 1 29 13.25V32H13.993c-.003-.067-.016-.131-.02-.198a8.245 8.245 0 0 0-.065-.634c-.016-.114-.031-.227-.052-.339a8.257 8.257 0 0 0-.144-.627c-.026-.1-.047-.202-.078-.301a8.316 8.316 0 0 0-.299-.823c-.054-.126-.118-.246-.178-.369a8.617 8.617 0 0 0-.224-.439 8.563 8.563 0 0 0-.491-.766 7.986 7.986 0 0 0-.281-.376 8.1 8.1 0 0 0-.334-.383c-.088-.096-.17-.196-.262-.289a8.473 8.473 0 0 0-.662-.594c-.063-.051-.13-.097-.195-.146a8.271 8.271 0 0 0-.617-.429c-.032-.02-.059-.044-.091-.064V13.25zm-8 6A3.254 3.254 0 0 1 5.25 16H8v8.334c-.038-.011-.077-.014-.115-.025a8.014 8.014 0 0 0-.878-.191c-.094-.015-.187-.031-.282-.043A8.422 8.422 0 0 0 5.665 24H2.83c-.176 0-.346.021-.513.052-.048.009-.094.021-.142.032-.058.014-.118.023-.175.04V19.25zM2.83 26h2.835c.234 0 .465.016.695.041.068.007.134.02.202.03.166.024.33.052.493.089.066.015.131.032.196.049.178.047.354.099.528.162.039.014.079.027.117.042a6.289 6.289 0 0 1 1.365.717c.034.023.067.048.1.072.195.14.381.291.557.45.028.025.058.048.085.074.179.168.344.347.501.533.055.066.108.134.161.202.108.138.208.281.304.427.045.069.093.136.135.207.121.202.229.41.327.625.033.073.061.148.091.221.07.171.133.346.188.524.022.072.046.144.066.217.065.243.12.489.156.741.006.044.008.089.014.134.018.146.023.296.031.444H2.252A.254.254 0 0 1 2 31.748V26.83c0-.457.372-.83.83-.83zm4.493 24H6v-3h2.523l-1.2 3zM54 50h-1.323l-1.2-3H54v3zm2-5H4v-2h52v2zm2-5.492c0 .823-.669 1.492-1.492 1.492H3.492A1.493 1.493 0 0 1 2 39.508v-4.016C2 34.669 2.669 34 3.492 34H56.508c.823 0 1.492.669 1.492 1.492v4.016zm0-7.76a.252.252 0 0 1-.252.252h-9.725c.008-.149.013-.298.031-.444.005-.044.007-.09.014-.134.036-.251.091-.498.156-.741.02-.073.044-.145.066-.217.055-.178.118-.352.188-.524.03-.074.058-.149.091-.221.097-.214.206-.423.327-.625.042-.071.09-.138.135-.207.095-.146.196-.289.304-.427.053-.068.105-.136.161-.202.157-.186.322-.365.501-.533.027-.026.058-.049.085-.074.176-.159.362-.31.557-.45.033-.024.066-.049.1-.072a6.289 6.289 0 0 1 1.365-.717l.117-.042c.174-.062.35-.115.528-.162.065-.017.13-.034.196-.049a6.28 6.28 0 0 1 .493-.089c.067-.01.134-.022.202-.03.23-.024.461-.04.695-.04h2.835c.458 0 .83.373.83.83v4.918z"/></svg>