<svg xmlns="http://www.w3.org/2000/svg" viewBox="0 0 59.998 59.998" style="enable-background:new 0 0 59.998 59.998" xml:space="preserve"><path d="M59.843 27.236a4.703 4.703 0 0 0-1.255-2.186l.657-3.946a6.12 6.12 0 0 0-4.271-6.856 6.102 6.102 0 0 0-5.548 1.065 5.818 5.818 0 0 0-3.329-4.197 5.745 5.745 0 0 0-5.112.201 5.838 5.838 0 0 0-1.193.864 5.78 5.78 0 0 0-5.389-3.682h-8.807a5.779 5.779 0 0 0-5.389 3.682 5.866 5.866 0 0 0-1.193-.864 5.745 5.745 0 0 0-5.112-.201c-1.698.755-2.883 2.277-3.281 4.023a5.773 5.773 0 0 0-.458-.329 5.787 5.787 0 0 0-4.784-.669 6.544 6.544 0 0 0-4.565 7.33l.602 3.609c-.713.727-1.215 1.648-1.365 2.693a5.004 5.004 0 0 0 2.948 5.296v9.516c0 1.842 1.283 3.381 3 3.796V50.5a1 1 0 0 0 1 1h3c.409 0 .776-.249.929-.628l1.749-4.372h34.645l1.749 4.372c.152.379.52.628.929.628h3a1 1 0 0 0 1-1v-4.12c1.717-.415 3-1.954 3-3.796V33.07c2.224-.96 3.451-3.379 2.843-5.834zm-8.838-10.599a4.106 4.106 0 0 1 3.396-.474 4.117 4.117 0 0 1 2.872 4.611l-.514 3.085c-.034-.013-.07-.021-.105-.033-.098-.035-.197-.064-.297-.094a5.445 5.445 0 0 0-.469-.117c-.095-.019-.189-.039-.286-.053a5.255 5.255 0 0 0-.709-.058c-.019 0-.037-.005-.056-.005a5.845 5.845 0 0 0-5.838 5.838v4.728l-.027-.008a28.237 28.237 0 0 0-1.803-.542l-.014-.004 1.458-10.223.538-3.768a4.107 4.107 0 0 1 1.854-2.883zM11.532 38.499a.533.533 0 0 1-.533-.533v-1.761a27.201 27.201 0 0 1 1.676-.558 24.096 24.096 0 0 1 1.893-.478 26.799 26.799 0 0 1 2.333-.394 25.912 25.912 0 0 1 4.055-.168c.224.008.449.016.673.03.556.035 1.111.094 1.667.165.277.036.554.066.83.111a26.669 26.669 0 0 1 2.591.545c.111.03.219.067.329.098a26.196 26.196 0 0 1 1.954.64v2.302H11.532zm19.467-2.302.275-.101a26.196 26.196 0 0 1 1.679-.539c.11-.031.218-.069.329-.098a25.96 25.96 0 0 1 2.591-.545c.276-.045.553-.075.83-.111.555-.071 1.11-.13 1.666-.165.225-.014.449-.022.674-.03a25.834 25.834 0 0 1 1.693-.01c.224.006.447.018.67.03a25.295 25.295 0 0 1 4.025.543 24.695 24.695 0 0 1 1.892.478 25.688 25.688 0 0 1 1.676.558v1.761a.533.533 0 0 1-.533.533H30.999v-2.304zm10.94-23.122a3.77 3.77 0 0 1 3.346-.132 3.806 3.806 0 0 1 2.213 3.999l-.745 5.226-1.553 10.89a27.718 27.718 0 0 0-7.812-.37l2.666-17.061a3.754 3.754 0 0 1 1.885-2.552zm-19.222-1.25a3.783 3.783 0 0 1 2.879-1.326h8.807c1.109 0 2.158.483 2.879 1.326a3.78 3.78 0 0 1 .865 3.05l-.042.272c-.026.115-.057.228-.076.346l-2.796 17.492c-.375.065-.748.139-1.121.22l-.257.056c-.331.075-.66.157-.989.245-.132.035-.263.069-.394.106-.279.078-.556.163-.833.25-.173.054-.345.108-.517.165-.238.08-.474.166-.711.253-.137.05-.276.094-.412.146-.136-.052-.275-.096-.412-.146a26.131 26.131 0 0 0-.711-.253c-.171-.057-.344-.111-.516-.165a30.699 30.699 0 0 0-.834-.251 17.559 17.559 0 0 0-.394-.105 29.11 29.11 0 0 0-.989-.245l-.257-.056a27.047 27.047 0 0 0-1.121-.22L21.97 15.492c-.019-.118-.05-.231-.076-.347l-.042-.271a3.778 3.778 0 0 1 .865-3.049zm-8.004 1.117a3.79 3.79 0 0 1 1.541-.33c.62 0 1.239.155 1.805.462a3.752 3.752 0 0 1 1.885 2.551l2.666 17.062a27.68 27.68 0 0 0-7.812.37L12.775 18.87l-.002-.009-.273-1.92a3.806 3.806 0 0 1 2.213-3.999zM3.24 23.863l-.454-2.722a4.538 4.538 0 0 1 3.167-5.084 3.79 3.79 0 0 1 4.841 3.091l2.048 14.363-.014.004c-.604.161-1.206.339-1.802.542l-.027.008V29.337c0-2.854-2.06-5.232-4.77-5.735a5.163 5.163 0 0 0-1.041-.108c-.154 0-.301.03-.452.044-.181.015-.364.02-.54.052-.05.01-.096.028-.145.039a5.34 5.34 0 0 0-.798.231l-.013.003zm6.082 25.636H7.999v-3h2.523l-1.2 3zm42.677 0h-1.323l-1.2-3h2.523v3zm3.749-18.11a.974.974 0 0 0-.246.11h-1.503a1 1 0 1 0 0 2h1v9.084a1.918 1.918 0 0 1-1.916 1.916H6.915a1.918 1.918 0 0 1-1.916-1.916v-9.084h1a1 1 0 1 0 0-2H4.496a.958.958 0 0 0-.246-.11 3.002 3.002 0 0 1-2.219-3.335 2.878 2.878 0 0 1 1.043-1.815c.012-.009.026-.013.037-.023 1.104-.88 3.008-1.137 4.571.377.837.809 1.316 2.005 1.316 3.282V39.499a1 1 0 0 0 1 1h40a1 1 0 0 0 1-1v-9.497c0-1.096.33-2.133.93-2.921.654-.86 1.479-1.38 2.385-1.529a3.72 3.72 0 0 1 .318-.032c.117-.007.233-.015.35-.009a3.324 3.324 0 0 1 .653.094c.044.011.089.019.132.032.406.118.791.31 1.128.574h.001c.491.388.857.906 1.006 1.507.454 1.831-.737 3.305-2.153 3.671z"/></svg>