<svg xmlns="http://www.w3.org/2000/svg" viewBox="0 0 60 60" style="enable-background:new 0 0 60 60" xml:space="preserve"><path d="M21 28a1 1 0 0 0 1-1v-1a1 1 0 1 0-2 0v1a1 1 0 0 0 1 1zM21 20a1 1 0 0 0 1-1v-1a1 1 0 1 0-2 0v1a1 1 0 0 0 1 1zM21 24a1 1 0 0 0 1-1v-1a1 1 0 1 0-2 0v1a1 1 0 0 0 1 1zM39 24a1 1 0 0 0 1-1v-1a1 1 0 1 0-2 0v1a1 1 0 0 0 1 1zM39 20a1 1 0 0 0 1-1v-1a1 1 0 1 0-2 0v1a1 1 0 0 0 1 1zM39 28a1 1 0 0 0 1-1v-1a1 1 0 1 0-2 0v1a1 1 0 0 0 1 1z"/><circle cx="9" cy="38" r="1"/><circle cx="12" cy="41" r="1"/><circle cx="18" cy="41" r="1"/><circle cx="15" cy="38" r="1"/><circle cx="21" cy="38" r="1"/><circle cx="24" cy="41" r="1"/><circle cx="30" cy="41" r="1"/><circle cx="27" cy="38" r="1"/><circle cx="33" cy="38" r="1"/><circle cx="36" cy="41" r="1"/><circle cx="42" cy="41" r="1"/><circle cx="39" cy="38" r="1"/><circle cx="45" cy="38" r="1"/><circle cx="48" cy="41" r="1"/><circle cx="51" cy="38" r="1"/><path d="M60 26c0-1.474-.81-2.75-2-3.444v-3.06C58 14.812 54.188 11 49.503 11h-5.675A7.764 7.764 0 0 0 39 12.665 7.764 7.764 0 0 0 34.172 11h-8.344A7.764 7.764 0 0 0 21 12.665 7.764 7.764 0 0 0 16.172 11h-5.675C5.812 11 2 14.812 2 19.497v3.06C.81 23.25 0 24.526 0 26v20h1v3h6v-3h46v3h6v-3h1V26zM8 32h10.172c.263 0 .521.107.707.293a3.006 3.006 0 0 0 4.242 0 1.01 1.01 0 0 1 .707-.293h12.344c.263 0 .521.107.707.293a3.006 3.006 0 0 0 4.242 0 1.01 1.01 0 0 1 .707-.293H52v3H8v-3zm46 5V26.3c0-.915.482-1.743 1.229-2.109a1.8 1.8 0 0 1 .603-.174c.043-.004.085-.012.129-.013.071-.002.144.006.216.014.045.004.09.007.134.014.115.021.232.051.354.095l.158.056A1.997 1.997 0 0 1 58 26v18h-4v-7zM4 19.497A6.505 6.505 0 0 1 10.497 13h5.675c1.557 0 3.021.606 4.121 1.707l.707.708.707-.708A5.789 5.789 0 0 1 25.828 13h8.344c1.557 0 3.021.606 4.121 1.707l.707.708.707-.708A5.789 5.789 0 0 1 43.828 13h5.675A6.505 6.505 0 0 1 56 19.497V22c-2.206 0-4 1.794-4 4v4H41.828c-.801 0-1.555.312-2.121.878a1 1 0 0 1-1.414 0A2.981 2.981 0 0 0 36.172 30H23.828c-.801 0-1.555.312-2.121.878a1 1 0 0 1-1.414 0A2.981 2.981 0 0 0 18.172 30H8v-4c0-2.206-1.794-4-4-4v-2.503zM2 26a2 2 0 0 1 1.177-1.818l.158-.056a2.18 2.18 0 0 1 .353-.094c.046-.007.093-.01.139-.014.071-.007.143-.015.212-.014.044.001.086.009.129.013.201.022.4.074.602.173.748.367 1.23 1.195 1.23 2.11V44H2V26zm3 21H3v-1h2v1zm47-9v6a1 1 0 0 0-2 0h-4a1 1 0 0 0-2 0h-4a1 1 0 0 0-2 0h-4a1 1 0 0 0-2 0h-4a1 1 0 0 0-2 0h-4a1 1 0 0 0-2 0h-4a1 1 0 0 0-2 0h-4a1 1 0 0 0-2 0v-7h44v1zm5 9h-2v-1h2v1z"/></svg>