<svg xmlns="http://www.w3.org/2000/svg" viewBox="0 0 59.998 59.998" style="enable-background:new 0 0 59.998 59.998" xml:space="preserve"><path d="M26.292 25.706a.997.997 0 0 0 1.414 0l.92-.92c.433.213.901.332 1.373.332s.94-.12 1.373-.332l.92.92a.997.997 0 0 0 1.414 0 .999.999 0 0 0 0-1.414l-.919-.919a3.112 3.112 0 0 0 0-2.747l.919-.919a.999.999 0 1 0-1.414-1.414l-.92.92a3.119 3.119 0 0 0-2.747 0l-.92-.92a.999.999 0 1 0-1.414 1.414l.92.92a3.112 3.112 0 0 0 0 2.747l-.92.92a.997.997 0 0 0 .001 1.412zm4.5-4.5a1.121 1.121 0 1 1-1.586 1.586 1.121 1.121 0 0 1 1.586-1.586z"/><path d="M59.843 26.736c-.529-2.138-2.589-3.69-4.916-3.73-2.367-3.681-6.435-5.96-10.792-6.007-2.093-4.744-7.786-8-14.136-8s-12.042 3.257-14.136 8c-4.357.047-8.425 2.326-10.792 6.008-2.527.043-4.677 1.858-5.02 4.264a5.005 5.005 0 0 0 2.948 5.296v9.516c0 1.842 1.283 3.381 3 3.796v4.119a1 1 0 0 0 1 1h3c.409 0 .776-.249.929-.628l1.749-4.372h34.645l1.749 4.372c.152.379.52.628.929.628h3a1 1 0 0 0 1-1V45.88c1.717-.415 3-1.954 3-3.796V32.57c2.224-.96 3.451-3.379 2.843-5.834zm-43.844-7.737c1.654 0 3 1.346 3 3a1 1 0 0 0 2 0 5.005 5.005 0 0 0-3.096-4.619c1.928-3.801 6.724-6.381 12.096-6.381s10.169 2.58 12.096 6.381a5.003 5.003 0 0 0-3.096 4.619 1 1 0 0 0 2 0c0-1.654 1.346-3 3-3 3.444 0 6.69 1.653 8.762 4.388a5.85 5.85 0 0 0-1.518.858l-.006.004a5.92 5.92 0 0 0-.6.541c-.038.039-.072.08-.109.12a5.83 5.83 0 0 0-.393.48c-.039.052-.08.102-.117.156a5.718 5.718 0 0 0-.359.604c-.039.075-.074.151-.11.227a5.76 5.76 0 0 0-.228.563c-.017.05-.039.098-.055.149a5.837 5.837 0 0 0-.205.941 5.777 5.777 0 0 0-.062.805v4.728a27.79 27.79 0 0 0-19 .367 27.79 27.79 0 0 0-19-.367v-4.728a5.948 5.948 0 0 0-.093-1.01 5.826 5.826 0 0 0-.174-.738c-.015-.049-.036-.096-.053-.145a5.643 5.643 0 0 0-.231-.569c-.035-.075-.069-.149-.107-.221a5.918 5.918 0 0 0-.362-.609c-.035-.051-.074-.098-.111-.148a5.94 5.94 0 0 0-.403-.491c-.034-.037-.066-.075-.101-.111a5.844 5.844 0 0 0-2.126-1.407c2.071-2.734 5.317-4.387 8.761-4.387zm-4.467 19a.533.533 0 0 1-.533-.533v-1.78a25.799 25.799 0 0 1 18 0v2.313H11.532zm19.467-2.314a25.799 25.799 0 0 1 18 0v1.78a.533.533 0 0 1-.533.533H30.999v-2.313zM9.322 48.999H7.999v-3h2.523l-1.2 3zm42.677 0h-1.323l-1.2-3h2.523v3zm3.749-18.11a.974.974 0 0 0-.246.11h-1.503a1 1 0 1 0 0 2h1v9.084a1.918 1.918 0 0 1-1.916 1.916H6.914a1.918 1.918 0 0 1-1.916-1.916v-9.084h1a1 1 0 0 0 0-2H4.495a.974.974 0 0 0-.246-.11 3.001 3.001 0 0 1-2.218-3.335c.207-1.457 1.553-2.555 3.13-2.555.107 0 .208.023.312.032.013.002.025.007.038.008a3.887 3.887 0 0 1 1.4.403c.19.096.369.209.538.333.046.035.089.074.134.11.129.104.254.214.368.334.071.076.134.159.198.24.079.098.159.194.228.299.076.117.137.243.2.368.044.087.094.169.131.259.063.155.107.319.15.483.019.073.048.142.063.217.048.243.076.494.076.751V38.998a1 1 0 0 0 1 1h40a1 1 0 0 0 1-1V28.836c0-.257.027-.508.076-.751.015-.075.044-.144.063-.218.043-.164.086-.327.15-.482.037-.091.088-.174.132-.261.063-.125.124-.251.2-.367.069-.105.15-.201.228-.299.065-.081.127-.165.198-.24a3.89 3.89 0 0 1 .368-.334c.045-.037.087-.076.134-.11a3.76 3.76 0 0 1 .539-.334l.025-.013a3.872 3.872 0 0 1 1.376-.389c.013-.001.025-.007.038-.008.105-.009.205-.032.312-.032 1.457 0 2.746.933 3.064 2.218.455 1.833-.736 3.307-2.152 3.673z"/></svg>