<?xml version="1.0" encoding="iso-8859-1"?>
<!-- Generator: Adobe Illustrator 18.0.0, SVG Export Plug-In . SVG Version: 6.00 Build 0)  -->
<!DOCTYPE svg PUBLIC "-//W3C//DTD SVG 1.1//EN" "http://www.w3.org/Graphics/SVG/1.1/DTD/svg11.dtd">
<svg version="1.1" id="Capa_1" xmlns="http://www.w3.org/2000/svg" xmlns:xlink="http://www.w3.org/1999/xlink" x="0px" y="0px"
	 viewBox="0 0 60 60" style="enable-background:new 0 0 60 60;" xml:space="preserve">
<path d="M56,23c-0.007,0-0.014,0.002-0.021,0.002c-1.525-1.829-3.355-3.308-5.476-4.369l-4.946-2.473C44.557,15.313,36.876,9,30,9
	s-14.557,6.313-15.557,7.16l-4.946,2.473c-2.121,1.06-3.952,2.54-5.476,4.369C4.014,23.002,4.007,23,4,23c-2.206,0-4,1.794-4,4v12
	v8.168C0,49.281,1.719,51,3.832,51h52.337C58.281,51,60,49.281,60,47.168V39V27C60,24.794,58.206,23,56,23z M10.392,20.422
	l4.823-2.411C18.975,18.126,22,21.213,22,25c0,0.552,0.448,1,1,1s1-0.448,1-1c0-4.11-2.773-7.578-6.543-8.651
	C20.149,14.371,25.405,11,30,11s9.851,3.371,12.543,5.349C38.773,17.422,36,20.89,36,25c0,0.552,0.448,1,1,1s1-0.448,1-1
	c0-3.807,3.056-6.907,6.843-6.992l4.766,2.414c1.615,0.807,3.049,1.879,4.278,3.196c-0.117,0.074-0.226,0.157-0.335,0.242
	c-0.051,0.04-0.101,0.082-0.15,0.124c-0.173,0.15-0.331,0.313-0.477,0.489c-0.049,0.059-0.101,0.115-0.146,0.177
	c-0.07,0.095-0.132,0.194-0.193,0.295c-0.061,0.101-0.116,0.204-0.169,0.31c-0.042,0.085-0.088,0.167-0.123,0.256
	c-0.077,0.189-0.135,0.386-0.183,0.587c-0.015,0.067-0.028,0.133-0.04,0.201C52.029,26.529,52,26.761,52,27v3h-9
	c-1.773,0-3.456,0.585-4.829,1.665C36.799,30.585,35.117,30,33.343,30h-6.687c-1.773,0-3.456,0.585-4.828,1.665
	C20.456,30.585,18.773,30,17,30H8v-3c0-0.239-0.029-0.471-0.071-0.699c-0.012-0.068-0.025-0.134-0.04-0.201
	c-0.048-0.201-0.105-0.398-0.183-0.587c-0.036-0.089-0.081-0.17-0.123-0.256c-0.052-0.106-0.107-0.21-0.169-0.31
	c-0.061-0.101-0.123-0.2-0.193-0.295c-0.045-0.062-0.097-0.118-0.146-0.177c-0.146-0.177-0.303-0.34-0.477-0.489
	c-0.049-0.042-0.099-0.084-0.15-0.124c-0.109-0.085-0.217-0.168-0.335-0.242C7.343,22.302,8.776,21.23,10.392,20.422z M38,37
	c-0.552,0-1,0.448-1,1H23c0-0.552-0.448-1-1-1s-1,0.448-1,1H8.534C8.239,38,8,37.761,8,37.466V32h9c1.557,0,3.021,0.606,4.122,1.707
	l0.707,0.708l0.707-0.708C23.636,32.606,25.1,32,26.657,32h6.687c1.557,0,3.021,0.606,4.121,1.707l0.707,0.708l0.707-0.708
	C39.979,32.606,41.443,32,43,32h9v5.467C52,37.761,51.761,38,51.467,38H39C39,37.448,38.552,37,38,37z M58,43.895v3.274
	C58,48.178,57.178,49,56.168,49H3.832C2.822,49,2,48.178,2,47.168v-3.274c0.009,0.009,0.019,0.017,0.028,0.026
	c0.082,0.083,0.17,0.158,0.255,0.237c0.081,0.074,0.158,0.15,0.242,0.22c0.092,0.077,0.191,0.147,0.287,0.219
	c0.084,0.063,0.165,0.129,0.252,0.189c0.103,0.071,0.213,0.133,0.32,0.198c0.087,0.052,0.17,0.109,0.259,0.158
	c0.113,0.062,0.231,0.114,0.347,0.17c0.089,0.043,0.176,0.09,0.268,0.129c0.122,0.052,0.25,0.094,0.376,0.14
	c0.09,0.033,0.178,0.07,0.271,0.099c0.137,0.043,0.279,0.075,0.419,0.11c0.085,0.021,0.168,0.048,0.255,0.066
	c0.16,0.033,0.325,0.054,0.489,0.076c0.071,0.009,0.139,0.025,0.21,0.032C6.517,45.987,6.757,46,7,46h46
	c0.243,0,0.483-0.013,0.72-0.037c0.071-0.007,0.14-0.023,0.21-0.032c0.164-0.022,0.328-0.043,0.489-0.076
	c0.086-0.018,0.169-0.045,0.255-0.066c0.141-0.035,0.282-0.067,0.419-0.11c0.092-0.029,0.18-0.067,0.271-0.099
	c0.126-0.045,0.253-0.088,0.376-0.14c0.091-0.039,0.178-0.086,0.268-0.129c0.116-0.056,0.235-0.108,0.347-0.17
	c0.089-0.049,0.173-0.105,0.259-0.158c0.107-0.065,0.217-0.127,0.32-0.198c0.087-0.059,0.168-0.126,0.252-0.189
	c0.096-0.072,0.195-0.142,0.287-0.219c0.084-0.07,0.162-0.147,0.242-0.22c0.086-0.078,0.174-0.154,0.255-0.237
	C57.981,43.912,57.991,43.904,58,43.895z M53,44H7c-2.757,0-5-2.243-5-5V27c0-1.103,0.897-2,2-2c0.072,0,0.14,0.014,0.209,0.021
	l0.082,0.012c0.238,0.035,0.459,0.112,0.66,0.218c0.015,0.008,0.03,0.016,0.045,0.024c0.078,0.044,0.151,0.095,0.221,0.149
	c0.036,0.028,0.07,0.056,0.104,0.086c0.05,0.044,0.098,0.09,0.144,0.139c0.045,0.049,0.087,0.1,0.127,0.153
	c0.031,0.041,0.062,0.081,0.09,0.124c0.043,0.067,0.08,0.139,0.115,0.212c0.018,0.038,0.039,0.074,0.055,0.113
	c0.034,0.083,0.058,0.171,0.081,0.26c0.009,0.034,0.021,0.067,0.028,0.102C5.986,26.739,6,26.868,6,27v3v7.466v0
	C6,38.864,7.136,40,8.533,40h0h42.933C52.864,40,54,38.864,54,37.467V30v-3c0-0.132,0.014-0.261,0.039-0.386
	c0.007-0.035,0.02-0.068,0.029-0.103c0.022-0.088,0.047-0.176,0.081-0.259c0.016-0.039,0.037-0.076,0.055-0.114
	c0.035-0.072,0.072-0.144,0.115-0.211c0.028-0.043,0.059-0.083,0.09-0.124c0.04-0.053,0.082-0.105,0.127-0.153
	c0.045-0.049,0.094-0.095,0.144-0.139c0.034-0.03,0.068-0.058,0.104-0.086c0.071-0.054,0.144-0.105,0.222-0.149
	c0.015-0.008,0.03-0.016,0.045-0.024c0.201-0.107,0.422-0.183,0.66-0.218l0.082-0.012C55.86,25.014,55.928,25,56,25
	c1.103,0,2,0.897,2,2v12C58,41.757,55.757,44,53,44z"/>
<g>
</g>
<g>
</g>
<g>
</g>
<g>
</g>
<g>
</g>
<g>
</g>
<g>
</g>
<g>
</g>
<g>
</g>
<g>
</g>
<g>
</g>
<g>
</g>
<g>
</g>
<g>
</g>
<g>
</g>
</svg>
