<svg xmlns="http://www.w3.org/2000/svg" viewBox="0 0 60 60" style="enable-background:new 0 0 60 60" xml:space="preserve"><path d="M60 32.748V27.83a2.824 2.824 0 0 0-2.006-2.693c.001-.046.006-.091.006-.137 0-8.271-6.729-15-15-15H17C8.729 10 2 16.729 2 25c0 .046.005.091.006.137A2.824 2.824 0 0 0 0 27.83v4.917c0 .651.281 1.233.724 1.645A3.469 3.469 0 0 0 0 36.5c0 .98.407 1.864 1.058 2.5A3.485 3.485 0 0 0 0 41.5C0 43.43 1.57 45 3.5 45H4v4a1 1 0 0 0 1 1h3c.409 0 .776-.249.929-.628L10.677 45h38.645l1.749 4.372c.153.379.52.628.929.628h3a1 1 0 0 0 1-1v-4h.5c1.93 0 3.5-1.57 3.5-3.5 0-.98-.407-1.864-1.058-2.5A3.485 3.485 0 0 0 60 36.5c0-.794-.276-1.519-.724-2.108.443-.411.724-.994.724-1.644zm-2 0a.252.252 0 0 1-.252.252h-9.731c.003-.054.004-.108.008-.161a5.855 5.855 0 0 1 .08-.622 6.712 6.712 0 0 1 .445-1.452 9.002 9.002 0 0 1 .272-.54 7.36 7.36 0 0 1 .163-.268c.051-.081.102-.162.157-.24.06-.086.124-.169.188-.251.058-.075.116-.151.178-.223.068-.08.14-.156.212-.233.065-.069.129-.139.196-.205.075-.074.155-.143.234-.213.071-.062.14-.126.214-.185.083-.067.17-.129.256-.192.075-.055.149-.111.227-.162.091-.06.185-.114.279-.17.079-.047.157-.096.238-.139.098-.052.2-.098.301-.145.082-.038.162-.079.245-.114.106-.044.216-.081.325-.119.083-.029.165-.062.249-.088.115-.035.234-.062.352-.091.082-.02.162-.044.246-.061.135-.027.273-.044.411-.063.069-.009.137-.024.207-.031.208-.021.42-.032.635-.032h2.835c.458 0 .83.373.83.83v4.918zM6.27 17.674A.99.99 0 0 0 7 18a1 1 0 0 0 1-1 .984.984 0 0 0-.499-.846 13.124 13.124 0 0 1 1.724-1.548A.981.981 0 0 0 10 15a1 1 0 0 0 1-1 .97.97 0 0 0-.126-.46A12.908 12.908 0 0 1 17 12h26c6.244 0 11.47 4.426 12.715 10.305A.995.995 0 0 0 55 22a1 1 0 0 0 0 2 .994.994 0 0 0 .895-.572c.063.516.105 1.039.105 1.572h-1.665c-.284 0-.564.015-.84.043-.096.01-.188.029-.283.042-.179.024-.359.046-.535.082-.039.008-.077.019-.116.028A.968.968 0 0 0 52 25a.99.99 0 0 0-.933.669c-.087.037-.169.082-.254.122-.136.064-.273.125-.405.195-.104.056-.203.12-.304.18-.127.075-.255.148-.378.23-.099.066-.192.138-.287.208-.118.086-.237.17-.35.262-.093.075-.179.157-.268.236-.108.096-.218.19-.321.292-.085.084-.165.173-.247.261-.098.105-.198.209-.291.32-.078.092-.149.189-.223.284-.088.114-.176.226-.258.344-.07.1-.133.205-.198.308-.076.121-.152.24-.222.365-.06.108-.115.219-.17.329a7.564 7.564 0 0 0-.185.385 8.23 8.23 0 0 0-.14.35 9.082 9.082 0 0 0-.147.4 8.706 8.706 0 0 0-.097.325A.987.987 0 0 0 46 31a1 1 0 0 0 0 2l.007-.001V33H13.993c-.004-.089-.017-.175-.023-.263a8.956 8.956 0 0 0-.036-.405 8.411 8.411 0 0 0-.064-.422c-.023-.13-.045-.26-.074-.389a8.016 8.016 0 0 0-.106-.412c-.034-.124-.068-.248-.108-.37a7.616 7.616 0 0 0-.147-.4c-.045-.117-.09-.235-.14-.35-.007-.015-.012-.031-.018-.046A.984.984 0 0 0 14 29a1 1 0 0 0-1.71-.703l-.03-.038c-.074-.095-.145-.192-.223-.284-.093-.11-.192-.214-.291-.32-.082-.088-.161-.177-.247-.261-.103-.101-.213-.196-.321-.292-.089-.079-.176-.16-.268-.236-.067-.055-.138-.105-.206-.158A1 1 0 0 0 10 25a.987.987 0 0 0-.945.728c-.062-.028-.122-.059-.185-.085-.142-.059-.289-.108-.435-.159-.108-.038-.213-.082-.323-.115-.155-.048-.315-.083-.474-.122-.105-.026-.209-.058-.316-.079-.175-.036-.355-.058-.535-.082-.095-.013-.187-.033-.283-.042A8 8 0 0 0 5.665 25H4c0-2.716.84-5.238 2.27-7.326zM2 27.83c0-.457.372-.83.83-.83h2.835c.215 0 .427.011.637.032.07.007.138.021.207.031.138.018.276.036.411.063.083.017.164.041.246.061.118.029.237.055.352.091.085.026.166.059.249.088.109.039.219.075.325.119.083.035.163.076.245.114.101.047.203.093.301.145.081.043.159.092.238.139.094.055.188.11.279.17.078.051.151.108.227.162.086.063.173.125.256.192.073.059.143.123.214.185.079.07.158.139.234.213.068.066.132.136.196.205.072.077.144.153.212.233.062.073.119.148.178.223.064.083.128.165.188.251.055.078.106.159.157.24a4.826 4.826 0 0 1 .298.525c.047.093.094.187.137.283.039.089.076.179.111.27a5.036 5.036 0 0 1 .195.58 6.112 6.112 0 0 1 .219 1.224c.004.053.005.107.008.161H2.252A.252.252 0 0 1 2 32.748V27.83zM7.323 48H6v-3h2.523l-1.2 3zM54 48h-1.323l-1.2-3H54v3zm4-6.5c0 .827-.673 1.5-1.5 1.5h-53c-.827 0-1.5-.673-1.5-1.5S2.673 40 3.5 40h53c.827 0 1.5.673 1.5 1.5zM3.5 38c-.827 0-1.5-.673-1.5-1.5S2.673 35 3.5 35h53c.827 0 1.5.673 1.5 1.5s-.673 1.5-1.5 1.5h-53z"/><circle cx="10" cy="20" r="1"/><circle cx="13" cy="17" r="1"/><circle cx="19" cy="17" r="1"/><circle cx="16" cy="14" r="1"/><circle cx="22" cy="14" r="1"/><circle cx="16" cy="20" r="1"/><circle cx="22" cy="20" r="1"/><circle cx="25" cy="17" r="1"/><circle cx="31" cy="17" r="1"/><circle cx="28" cy="14" r="1"/><circle cx="34" cy="14" r="1"/><circle cx="28" cy="20" r="1"/><circle cx="34" cy="20" r="1"/><circle cx="37" cy="17" r="1"/><circle cx="43" cy="17" r="1"/><circle cx="40" cy="14" r="1"/><circle cx="46" cy="14" r="1"/><circle cx="40" cy="20" r="1"/><circle cx="46" cy="20" r="1"/><circle cx="49" cy="17" r="1"/><circle cx="52" cy="20" r="1"/><circle cx="7" cy="23" r="1"/><circle cx="13" cy="23" r="1"/><circle cx="19" cy="23" r="1"/><circle cx="19" cy="29" r="1"/><circle cx="16" cy="26" r="1"/><circle cx="22" cy="26" r="1"/><circle cx="16" cy="32" r="1"/><circle cx="22" cy="32" r="1"/><circle cx="25" cy="23" r="1"/><circle cx="31" cy="23" r="1"/><circle cx="25" cy="29" r="1"/><circle cx="31" cy="29" r="1"/><circle cx="28" cy="26" r="1"/><circle cx="34" cy="26" r="1"/><circle cx="28" cy="32" r="1"/><circle cx="34" cy="32" r="1"/><circle cx="37" cy="23" r="1"/><circle cx="43" cy="23" r="1"/><circle cx="37" cy="29" r="1"/><circle cx="43" cy="29" r="1"/><circle cx="40" cy="26" r="1"/><circle cx="46" cy="26" r="1"/><circle cx="40" cy="32" r="1"/><circle cx="49" cy="23" r="1"/></svg>