<svg xmlns="http://www.w3.org/2000/svg" viewBox="0 0 60 60" style="enable-background:new 0 0 60 60" xml:space="preserve"><path d="M45.387 6.502C43.454 4.797 37.805.5 30 .5S16.546 4.797 14.613 6.502C3.091 6.638 0 12.827 0 16.5c0 2.316 1.884 4.2 4.2 4.2a3.564 3.564 0 0 0 3.56-3.56 1 1 0 0 0-2 0c0 .86-.7 1.56-1.56 1.56-1.213 0-2.2-.987-2.2-2.2 0-1.654 1.346-3 3-3 2.206 0 4 1.794 4 4v16c0 .147.036.285.093.411.146.709.475 1.345.913 1.89l.36 22.065c0 .901.733 1.634 1.634 1.634h.856c.772 0 1.429-.526 1.596-1.28l.846-20.72h2.724l.344 15.366c0 .901.733 1.634 1.634 1.634h.856c.772 0 1.429-.526 1.596-1.28l.283-15.72h14.563l.958 15.626.022.157a1.626 1.626 0 0 0 1.596 1.278h.856a1.64 1.64 0 0 0 1.634-1.657L42.023 37.5h2.711l1.525 20.577.021.145a1.626 1.626 0 0 0 1.596 1.279h.856a1.64 1.64 0 0 0 1.635-1.65l-.36-22.063a4.457 4.457 0 0 0 .901-1.876c.056-.127.092-.265.092-.412v-16c0-2.206 1.794-4 4-4 1.654 0 3 1.346 3 3 0 1.213-.987 2.2-2.2 2.2-.86 0-1.56-.7-1.56-1.56a1 1 0 0 0-2 0 3.564 3.564 0 0 0 3.56 3.56c2.316 0 4.2-1.884 4.2-4.2 0-3.673-3.091-9.862-14.613-9.998zM30 25.5c7.774 0 13.548 1.398 16.586 3.009-.03-.001-.057-.009-.086-.009h-33c-.029 0-.056.008-.086.009C16.452 26.898 22.226 25.5 30 25.5zm-17.504 32h-.136l-.33-20.247c.152.053.31.089.468.125.041.009.08.024.122.033.222.044.449.074.679.085L12.496 57.5zm7.988-5h-.126l-.335-15h.714l-.253 15zm19.873.062h-.131L39.302 37.5h.72l.335 15.062zM41.978 35.5H13.5a2.495 2.495 0 0 1-1.784-.76l-.034-.034A2.486 2.486 0 0 1 11 33c0-1.378 1.122-2.5 2.5-2.5h33c1.378 0 2.5 1.122 2.5 2.5 0 .661-.262 1.258-.682 1.705l-.034.034a2.495 2.495 0 0 1-1.784.76h-4.522zm6.242 22-1.482-20.006c.225-.012.447-.04.664-.085.009-.002.017-.006.026-.007.204-.043.405-.098.601-.169L48.36 57.5h-.14zm.78-40v10.162a11.58 11.58 0 0 0-2-1.194V18.5a1 1 0 0 0-2 0v7.152a28.708 28.708 0 0 0-2.152-.653A.973.973 0 0 0 43 24.5v-4.388a1 1 0 0 0-2 0V24.5c0 .024.012.044.014.068C37.645 23.863 33.779 23.5 30 23.5s-7.645.363-11.014 1.068c.002-.024.014-.044.014-.068v-4.652a1 1 0 0 0-2 0V24.5c0 .186.064.35.152.499-.755.199-1.475.416-2.152.653V18.5a1 1 0 0 0-2 0v7.968a11.58 11.58 0 0 0-2 1.194V17.5c0-3.309-2.691-6-6-6-.173 0-.345.009-.514.026C6.435 9.83 9.723 8.5 15 8.5c1.654 0 3 1.346 3 3a1 1 0 0 0 2 0c0-1.981-1.167-3.682-2.842-4.49C19.554 5.196 24.102 2.5 30 2.5s10.446 2.696 12.842 4.51C41.167 7.818 40 9.519 40 11.5a1 1 0 0 0 2 0c0-1.654 1.346-3 3-3 5.277 0 8.565 1.33 10.514 3.026A5.142 5.142 0 0 0 55 11.5c-3.309 0-6 2.691-6 6z"/><circle cx="30" cy="9.5" r="1"/><circle cx="27" cy="12.5" r="1"/><circle cx="33" cy="12.5" r="1"/><circle cx="27" cy="18.5" r="1"/><circle cx="33" cy="18.5" r="1"/><circle cx="30" cy="15.5" r="1"/></svg>