<?xml version="1.0" encoding="iso-8859-1"?>
<!-- Generator: Adobe Illustrator 18.0.0, SVG Export Plug-In . SVG Version: 6.00 Build 0)  -->
<!DOCTYPE svg PUBLIC "-//W3C//DTD SVG 1.1//EN" "http://www.w3.org/Graphics/SVG/1.1/DTD/svg11.dtd">
<svg version="1.1" id="Capa_1" xmlns="http://www.w3.org/2000/svg" xmlns:xlink="http://www.w3.org/1999/xlink" x="0px" y="0px"
	 viewBox="0 0 60 60" style="enable-background:new 0 0 60 60;" xml:space="preserve">
<g>
	<circle cx="34" cy="19.5" r="1"/>
	<circle cx="36" cy="22.5" r="1"/>
	<circle cx="40" cy="22.5" r="1"/>
	<circle cx="38" cy="19.5" r="1"/>
	<circle cx="42" cy="19.5" r="1"/>
	<circle cx="17" cy="19.5" r="1"/>
	<circle cx="19" cy="22.5" r="1"/>
	<circle cx="23" cy="22.5" r="1"/>
	<circle cx="21" cy="19.5" r="1"/>
	<circle cx="25" cy="19.5" r="1"/>
	<path d="M59.988,17.438c-0.006-0.091-0.023-0.178-0.053-0.264c-0.011-0.032-0.019-0.063-0.033-0.094
		c-0.048-0.104-0.109-0.202-0.193-0.286c-0.001-0.001-0.001-0.001-0.001-0.001l-5-5C54.52,11.605,54.265,11.5,54,11.5h-7H13H6
		c-0.265,0-0.52,0.105-0.707,0.293l-5,5c0,0-0.001,0.001-0.001,0.002c-0.084,0.084-0.144,0.182-0.193,0.286
		c-0.014,0.03-0.022,0.062-0.033,0.094c-0.03,0.086-0.048,0.173-0.053,0.264C0.011,17.46,0,17.478,0,17.5v26c0,0.552,0.448,1,1,1h3
		v3c0,0.552,0.448,1,1,1h6c0.552,0,1-0.448,1-1v-3h36v3c0,0.552,0.448,1,1,1h6c0.552,0,1-0.448,1-1v-3h3c0.552,0,1-0.448,1-1v-26
		C60,17.478,59.989,17.46,59.988,17.438z M53.586,13.5l3,3h-4.172l-3-3H53.586z M51,17.914v13.824l-3-3.6V14.914L51,17.914z
		 M46.532,29.5l3.333,4H30v-4H46.532z M28,33.5H10.135l3.333-4H28V33.5z M14,27.5v-14h14v14H14z M12,28.138l-3,3.6V17.914l3-3
		V28.138z M9,35.5h19v2H9V35.5z M30,35.5h21v2H30V35.5z M46,27.5H30v-14h16V27.5z M6.414,13.5h4.172l-3,3H3.414L6.414,13.5z M2,18.5
		h5v16v4c0,0.552,0.448,1,1,1h20v3H11H5H2V18.5z M10,46.5H6v-2h4V46.5z M54,46.5h-4v-2h4V46.5z M58,42.5h-3h-6H30v-3h22
		c0.552,0,1-0.448,1-1v-4v-16h5V42.5z"/>
</g>
<g>
</g>
<g>
</g>
<g>
</g>
<g>
</g>
<g>
</g>
<g>
</g>
<g>
</g>
<g>
</g>
<g>
</g>
<g>
</g>
<g>
</g>
<g>
</g>
<g>
</g>
<g>
</g>
<g>
</g>
</svg>
