<svg xmlns="http://www.w3.org/2000/svg" viewBox="0 0 60 60" style="enable-background:new 0 0 60 60" xml:space="preserve"><circle cx="34" cy="19.5" r="1"/><circle cx="36" cy="22.5" r="1"/><circle cx="40" cy="22.5" r="1"/><circle cx="38" cy="19.5" r="1"/><circle cx="42" cy="19.5" r="1"/><circle cx="17" cy="19.5" r="1"/><circle cx="19" cy="22.5" r="1"/><circle cx="23" cy="22.5" r="1"/><circle cx="21" cy="19.5" r="1"/><circle cx="25" cy="19.5" r="1"/><path d="M59.988 17.438a.99.99 0 0 0-.053-.264c-.011-.032-.019-.063-.033-.094a.975.975 0 0 0-.193-.286l-.001-.001-5-5A1.001 1.001 0 0 0 54 11.5H6a.997.997 0 0 0-.707.293l-5 5-.001.002a.995.995 0 0 0-.193.286c-.014.03-.022.062-.033.094a.953.953 0 0 0-.053.264C.011 17.46 0 17.478 0 17.5v26a1 1 0 0 0 1 1h3v3a1 1 0 0 0 1 1h6a1 1 0 0 0 1-1v-3h36v3a1 1 0 0 0 1 1h6a1 1 0 0 0 1-1v-3h3a1 1 0 0 0 1-1v-26c0-.022-.011-.04-.012-.062zM53.586 13.5l3 3h-4.172l-3-3h4.172zM51 17.914v13.824l-3-3.6V14.914l3 3zM46.532 29.5l3.333 4H30v-4h16.532zM28 33.5H10.135l3.333-4H28v4zm-14-6v-14h14v14H14zm-2 .638-3 3.6V17.914l3-3v13.224zM9 35.5h19v2H9v-2zm21 0h21v2H30v-2zm16-8H30v-14h16v14zm-39.586-14h4.172l-3 3H3.414l3-3zM2 18.5h5v20a1 1 0 0 0 1 1h20v3H2v-24zm8 28H6v-2h4v2zm44 0h-4v-2h4v2zm4-4H30v-3h22a1 1 0 0 0 1-1v-20h5v24z"/></svg>