<?xml version="1.0" encoding="iso-8859-1"?>
<!-- Generator: Adobe Illustrator 18.0.0, SVG Export Plug-In . SVG Version: 6.00 Build 0)  -->
<!DOCTYPE svg PUBLIC "-//W3C//DTD SVG 1.1//EN" "http://www.w3.org/Graphics/SVG/1.1/DTD/svg11.dtd">
<svg version="1.1" id="Capa_1" xmlns="http://www.w3.org/2000/svg" xmlns:xlink="http://www.w3.org/1999/xlink" x="0px" y="0px"
	 viewBox="0 0 60 60" style="enable-background:new 0 0 60 60;" xml:space="preserve">
<g>
	<path d="M45.387,6.502C43.454,4.797,37.805,0.5,30,0.5S16.546,4.797,14.613,6.502C3.091,6.638,0,12.827,0,16.5
		c0,2.316,1.884,4.2,4.2,4.2c1.963,0,3.56-1.597,3.56-3.56c0-0.552-0.448-1-1-1s-1,0.448-1,1c0,0.86-0.7,1.56-1.56,1.56
		c-1.213,0-2.2-0.987-2.2-2.2c0-1.654,1.346-3,3-3c2.206,0,4,1.794,4,4v16c0,0.147,0.036,0.285,0.093,0.411
		c0.146,0.709,0.475,1.345,0.913,1.89l0.36,22.065c0,0.901,0.733,1.634,1.634,1.634h0.856c0.772,0,1.429-0.526,1.596-1.28
		l0.846-20.72h2.724l0.344,15.366c0,0.901,0.733,1.634,1.634,1.634h0.856c0.772,0,1.429-0.526,1.596-1.28l0.283-15.72h14.563
		l0.958,15.626l0.022,0.157c0.169,0.753,0.825,1.278,1.596,1.278h0.856c0.901,0,1.635-0.733,1.634-1.657L42.023,37.5h2.711
		l1.525,20.577l0.021,0.145c0.168,0.753,0.825,1.279,1.596,1.279h0.856c0.901,0,1.635-0.733,1.635-1.65l-0.36-22.063
		c0.432-0.542,0.756-1.173,0.901-1.876C50.964,33.785,51,33.647,51,33.5v-16c0-2.206,1.794-4,4-4c1.654,0,3,1.346,3,3
		c0,1.213-0.987,2.2-2.2,2.2c-0.86,0-1.56-0.7-1.56-1.56c0-0.552-0.448-1-1-1s-1,0.448-1,1c0,1.963,1.597,3.56,3.56,3.56
		c2.316,0,4.2-1.884,4.2-4.2C60,12.827,56.909,6.638,45.387,6.502z M30,25.5c7.774,0,13.548,1.398,16.586,3.009
		C46.556,28.508,46.529,28.5,46.5,28.5h-33c-0.029,0-0.056,0.008-0.086,0.009C16.452,26.898,22.226,25.5,30,25.5z M12.496,57.5
		H12.36l-0.33-20.247c0.152,0.053,0.31,0.089,0.468,0.125c0.041,0.009,0.08,0.024,0.122,0.033c0.222,0.044,0.449,0.074,0.679,0.085
		L12.496,57.5z M20.484,52.5h-0.126l-0.335-15h0.714L20.484,52.5z M40.357,52.562h-0.131L39.302,37.5h0.72L40.357,52.562z
		 M41.978,35.5h-4.802H22.771h-4.793h-2.598H13.5c-0.17,0-0.336-0.018-0.496-0.05c-0.484-0.099-0.93-0.343-1.288-0.71l-0.034-0.034
		C11.262,34.258,11,33.661,11,33c0-1.378,1.122-2.5,2.5-2.5h33c1.378,0,2.5,1.122,2.5,2.5c0,0.661-0.262,1.258-0.682,1.705
		l-0.034,0.034c-0.358,0.367-0.804,0.611-1.288,0.71c-0.161,0.032-0.326,0.05-0.496,0.05h-1.915H41.978z M48.22,57.5l-1.482-20.006
		c0.225-0.012,0.447-0.04,0.664-0.085c0.009-0.002,0.017-0.006,0.026-0.007c0.204-0.043,0.405-0.098,0.601-0.169L48.36,57.5H48.22z
		 M49,17.5v10.162c-0.567-0.43-1.237-0.829-2-1.194V18.5c0-0.552-0.448-1-1-1s-1,0.448-1,1v7.152
		c-0.677-0.237-1.398-0.454-2.152-0.653C42.936,24.85,43,24.686,43,24.5v-4.388c0-0.552-0.448-1-1-1s-1,0.448-1,1V24.5
		c0,0.024,0.012,0.044,0.014,0.068C37.645,23.863,33.779,23.5,30,23.5s-7.645,0.363-11.014,1.068C18.988,24.544,19,24.524,19,24.5
		v-4.652c0-0.552-0.448-1-1-1s-1,0.448-1,1V24.5c0,0.186,0.064,0.35,0.152,0.499c-0.755,0.199-1.475,0.416-2.152,0.653V18.5
		c0-0.552-0.448-1-1-1s-1,0.448-1,1v7.968c-0.763,0.365-1.433,0.764-2,1.194V17.5c0-3.309-2.691-6-6-6
		c-0.173,0-0.345,0.009-0.514,0.026C6.435,9.83,9.723,8.5,15,8.5c1.654,0,3,1.346,3,3c0,0.552,0.448,1,1,1s1-0.448,1-1
		c0-1.981-1.167-3.682-2.842-4.49C19.554,5.196,24.102,2.5,30,2.5s10.446,2.696,12.842,4.51C41.167,7.818,40,9.519,40,11.5
		c0,0.552,0.448,1,1,1s1-0.448,1-1c0-1.654,1.346-3,3-3c5.277,0,8.565,1.33,10.514,3.026C55.345,11.509,55.173,11.5,55,11.5
		C51.691,11.5,49,14.191,49,17.5z"/>
	<circle cx="30" cy="9.5" r="1"/>
	<circle cx="27" cy="12.5" r="1"/>
	<circle cx="33" cy="12.5" r="1"/>
	<circle cx="27" cy="18.5" r="1"/>
	<circle cx="33" cy="18.5" r="1"/>
	<circle cx="30" cy="15.5" r="1"/>
</g>
<g>
</g>
<g>
</g>
<g>
</g>
<g>
</g>
<g>
</g>
<g>
</g>
<g>
</g>
<g>
</g>
<g>
</g>
<g>
</g>
<g>
</g>
<g>
</g>
<g>
</g>
<g>
</g>
<g>
</g>
</svg>
