<?xml version="1.0" encoding="iso-8859-1"?>
<!-- Generator: Adobe Illustrator 18.0.0, SVG Export Plug-In . SVG Version: 6.00 Build 0)  -->
<!DOCTYPE svg PUBLIC "-//W3C//DTD SVG 1.1//EN" "http://www.w3.org/Graphics/SVG/1.1/DTD/svg11.dtd">
<svg version="1.1" id="Capa_1" xmlns="http://www.w3.org/2000/svg" xmlns:xlink="http://www.w3.org/1999/xlink" x="0px" y="0px"
	 viewBox="0 0 60 60" style="enable-background:new 0 0 60 60;" xml:space="preserve">
<g>
	<path d="M59.988,22.438c-0.006-0.091-0.023-0.178-0.053-0.264c-0.011-0.032-0.019-0.063-0.033-0.094
		c-0.048-0.104-0.109-0.202-0.193-0.286c-0.001-0.001-0.001-0.001-0.001-0.001l-4-4C55.52,17.605,55.265,17.5,55,17.5h-4v-5.066
		c0-1.618-1.316-2.934-2.934-2.934H11.934C10.316,9.5,9,10.816,9,12.434V17.5H5c-0.265,0-0.52,0.105-0.707,0.293l-4,4
		c0,0-0.001,0.001-0.001,0.002c-0.084,0.084-0.144,0.182-0.193,0.286c-0.014,0.03-0.022,0.062-0.033,0.094
		c-0.03,0.086-0.048,0.173-0.053,0.264C0.011,22.46,0,22.478,0,22.5v22c0,0.552,0.448,1,1,1h8.78L9.02,49.304
		c-0.059,0.294,0.017,0.599,0.207,0.83C9.417,50.366,9.7,50.5,10,50.5h2c0.265,0,0.52-0.105,0.707-0.293l4.707-4.707h27.172
		l4.707,4.707C49.48,50.395,49.735,50.5,50,50.5h2c0.3,0,0.583-0.134,0.773-0.366c0.19-0.231,0.266-0.536,0.207-0.83L52.22,45.5H59
		c0.552,0,1-0.448,1-1v-22C60,22.478,59.989,22.46,59.988,22.438z M54.586,19.5l2,2h-2.172l-2-2H54.586z M53,22.914v9.126
		c-0.624-0.419-1.294-0.761-2-1.013V20.914L53,22.914z M7,38.5v-3.887c0.905-0.926,2.042-1.569,3.275-1.886
		c0.27-0.069,0.539-0.121,0.806-0.158c0.027-0.004,0.054-0.009,0.081-0.012C11.445,32.52,11.725,32.5,12,32.5h14.75
		c1.24,0,2.25,1.009,2.25,2.25v3.75H7z M31,34.75c0-1.24,1.009-2.25,2.25-2.25H48c0.275,0,0.555,0.02,0.838,0.056
		c0.028,0.003,0.055,0.009,0.082,0.013c0.266,0.037,0.535,0.089,0.804,0.158c1.233,0.316,2.37,0.96,3.276,1.886V38.5H31V34.75z
		 M11.934,11.5h36.132c0.515,0,0.934,0.419,0.934,0.934v18.124c-0.331-0.037-0.664-0.058-1-0.058H33.25
		c-0.311,0-0.612,0.038-0.904,0.102c-0.097,0.021-0.186,0.059-0.28,0.087c-0.19,0.056-0.379,0.113-0.557,0.194
		c-0.104,0.047-0.198,0.107-0.298,0.162c-0.156,0.086-0.309,0.174-0.452,0.278c-0.096,0.07-0.183,0.148-0.273,0.225
		c-0.129,0.112-0.253,0.227-0.369,0.353c-0.037,0.041-0.083,0.072-0.119,0.114c-0.035-0.042-0.082-0.073-0.119-0.114
		c-0.115-0.126-0.239-0.242-0.369-0.353c-0.09-0.078-0.177-0.155-0.273-0.225c-0.143-0.104-0.296-0.192-0.452-0.278
		c-0.099-0.055-0.194-0.115-0.298-0.162c-0.178-0.081-0.367-0.138-0.557-0.194c-0.094-0.028-0.183-0.066-0.28-0.087
		c-0.292-0.064-0.593-0.102-0.904-0.102H12c-0.336,0-0.669,0.021-1,0.058V12.434C11,11.919,11.419,11.5,11.934,11.5z M9,31.027
		c-0.706,0.251-1.376,0.593-2,1.013v-9.125l2-2V31.027z M5.414,19.5h2.172l-2,2H3.414L5.414,19.5z M11.586,48.5H11.22l0.6-3h2.766
		L11.586,48.5z M50.78,48.5h-0.366l-3-3h2.766L50.78,48.5z M58,43.5h-7h-6H17h-6H2v-20h3v10.721V39.5c0,0.552,0.448,1,1,1h24h24
		c0.552,0,1-0.448,1-1v-5.279V23.5h3V43.5z"/>
	<path d="M14,19.5h32c0.552,0,1-0.448,1-1v-4c0-0.552-0.448-1-1-1H14c-0.552,0-1,0.448-1,1v4C13,19.052,13.448,19.5,14,19.5z
		 M15,15.5h30v2H15V15.5z"/>
	<path d="M14,28.5h32c0.552,0,1-0.448,1-1v-4c0-0.552-0.448-1-1-1H14c-0.552,0-1,0.448-1,1v4C13,28.052,13.448,28.5,14,28.5z
		 M15,24.5h30v2H15V24.5z"/>
</g>
<g>
</g>
<g>
</g>
<g>
</g>
<g>
</g>
<g>
</g>
<g>
</g>
<g>
</g>
<g>
</g>
<g>
</g>
<g>
</g>
<g>
</g>
<g>
</g>
<g>
</g>
<g>
</g>
<g>
</g>
</svg>
