<svg xmlns="http://www.w3.org/2000/svg" viewBox="0 0 60 60" style="enable-background:new 0 0 60 60" xml:space="preserve"><path d="M59.988 22.438a.99.99 0 0 0-.053-.264c-.011-.032-.019-.063-.033-.094a.975.975 0 0 0-.193-.286l-.001-.001-4-4A1.001 1.001 0 0 0 55 17.5h-4v-5.066A2.937 2.937 0 0 0 48.066 9.5H11.934A2.937 2.937 0 0 0 9 12.434V17.5H5a.997.997 0 0 0-.707.293l-4 4-.001.002a.995.995 0 0 0-.193.286c-.014.03-.022.062-.033.094a.953.953 0 0 0-.053.264C.011 22.46 0 22.478 0 22.5v22a1 1 0 0 0 1 1h8.78l-.76 3.804A.998.998 0 0 0 10 50.5h2c.265 0 .52-.105.707-.293l4.707-4.707h27.172l4.707 4.707A.997.997 0 0 0 50 50.5h2a.998.998 0 0 0 .98-1.196l-.76-3.804H59a1 1 0 0 0 1-1v-22c0-.022-.011-.04-.012-.062zM54.586 19.5l2 2h-2.172l-2-2h2.172zM53 22.914v9.126a9.04 9.04 0 0 0-2-1.013V20.914l2 2zM7 38.5v-3.887a7.015 7.015 0 0 1 4.081-2.044l.081-.012c.283-.037.563-.057.838-.057h14.75c1.24 0 2.25 1.009 2.25 2.25v3.75H7zm24-3.75c0-1.24 1.009-2.25 2.25-2.25H48c.275 0 .555.02.838.056.028.003.055.009.082.013A7.015 7.015 0 0 1 53 34.613V38.5H31v-3.75zM11.934 11.5h36.132c.515 0 .934.419.934.934v18.124a8.991 8.991 0 0 0-1-.058H33.25a4.21 4.21 0 0 0-.904.102c-.097.021-.186.059-.28.087-.19.056-.379.113-.557.194-.104.047-.198.107-.298.162a4.243 4.243 0 0 0-.452.278c-.096.07-.183.148-.273.225a4.554 4.554 0 0 0-.369.353c-.037.041-.083.072-.119.114-.035-.042-.082-.073-.119-.114a4.103 4.103 0 0 0-.369-.353c-.09-.078-.177-.155-.273-.225a4.243 4.243 0 0 0-.452-.278c-.099-.055-.194-.115-.298-.162a4.213 4.213 0 0 0-.557-.194c-.094-.028-.183-.066-.28-.087a4.21 4.21 0 0 0-.904-.102H12c-.336 0-.669.021-1 .058V12.434c0-.515.419-.934.934-.934zM9 31.027a8.956 8.956 0 0 0-2 1.013v-9.125l2-2v10.112zM5.414 19.5h2.172l-2 2H3.414l2-2zm6.172 29h-.366l.6-3h2.766l-3 3zm39.194 0h-.366l-3-3h2.766l.6 3zm7.22-5H2v-20h3v16a1 1 0 0 0 1 1h48a1 1 0 0 0 1-1v-16h3v20z"/><path d="M14 19.5h32a1 1 0 0 0 1-1v-4a1 1 0 0 0-1-1H14a1 1 0 0 0-1 1v4a1 1 0 0 0 1 1zm1-4h30v2H15v-2zM14 28.5h32a1 1 0 0 0 1-1v-4a1 1 0 0 0-1-1H14a1 1 0 0 0-1 1v4a1 1 0 0 0 1 1zm1-4h30v2H15v-2z"/></svg>