<svg xmlns="http://www.w3.org/2000/svg" viewBox="0 0 60 60" style="enable-background:new 0 0 60 60" xml:space="preserve"><path d="M50 8.5h-2a1 1 0 1 0 0 2h1v6H39a1 1 0 1 0 0 2h1v6H30a1 1 0 1 0 0 2h1v6H21a1 1 0 1 0 0 2h1v6H12a1 1 0 1 0 0 2h1v6H3a1 1 0 1 0 0 2h1v6H1a1 1 0 1 0 0 2h59v-50H50zm3 48a1 1 0 0 0-2 0h-4a1 1 0 0 0-2 0h-4a1 1 0 0 0-2 0h-4a1 1 0 0 0-2 0h-4a1 1 0 0 0-2 0h-4a1 1 0 0 0-2 0H6v-6h9v-8h9v-8h9v-8h9v-8h9v-8h7v9a1 1 0 0 0 0 2v4a1 1 0 0 0 0 2v4a1 1 0 0 0 0 2v4a1 1 0 0 0 0 2v4a1 1 0 0 0 0 2v4a1 1 0 0 0 0 2v4a1 1 0 0 0-1 1h-4z"/><circle cx="34" cy="44.5" r="1"/><circle cx="37" cy="41.5" r="1"/><circle cx="31" cy="47.5" r="1"/><circle cx="37" cy="47.5" r="1"/><circle cx="40" cy="38.5" r="1"/><circle cx="46" cy="38.5" r="1"/><circle cx="40" cy="44.5" r="1"/><circle cx="46" cy="44.5" r="1"/><circle cx="43" cy="41.5" r="1"/><circle cx="49" cy="41.5" r="1"/><circle cx="43" cy="47.5" r="1"/><circle cx="49" cy="47.5" r="1"/><circle cx="52" cy="38.5" r="1"/><circle cx="52" cy="44.5" r="1"/><circle cx="55" cy="41.5" r="1"/><circle cx="55" cy="47.5" r="1"/><circle cx="25" cy="53.5" r="1"/><circle cx="28" cy="50.5" r="1"/><circle cx="34" cy="50.5" r="1"/><circle cx="31" cy="53.5" r="1"/><circle cx="37" cy="53.5" r="1"/><circle cx="40" cy="50.5" r="1"/><circle cx="46" cy="50.5" r="1"/><circle cx="43" cy="53.5" r="1"/><circle cx="49" cy="53.5" r="1"/><circle cx="52" cy="50.5" r="1"/><circle cx="55" cy="53.5" r="1"/><circle cx="49" cy="29.5" r="1"/><circle cx="52" cy="26.5" r="1"/><circle cx="55" cy="23.5" r="1"/><circle cx="55" cy="29.5" r="1"/><circle cx="46" cy="32.5" r="1"/><circle cx="43" cy="35.5" r="1"/><circle cx="49" cy="35.5" r="1"/><circle cx="52" cy="32.5" r="1"/><circle cx="55" cy="35.5" r="1"/><path d="M20 1.5H4v18h16v-18zm-2 16H6v-14h12v14z"/><path d="M17 4.5H7v12h10v-12zm-2 10H9v-8h6v8z"/></svg>