<svg xmlns="http://www.w3.org/2000/svg" viewBox="0 0 59 59" style="enable-background:new 0 0 59 59" xml:space="preserve"><path d="M49 11.289v5.422a.29.29 0 0 1-.29.289H48V2h10a1 1 0 1 0 0-2H47c-.044 0-.082.02-.124.025-.072.009-.142.017-.211.042-.066.024-.122.06-.18.096-.039.024-.083.034-.119.064L3.841 35.191a1 1 0 1 0 1.271 1.544L7 35.183V49H2.29A2.292 2.292 0 0 0 0 51.289V59h59V9h-7.71A2.292 2.292 0 0 0 49 11.289zM41.29 17A2.292 2.292 0 0 0 39 19.289V25h-1V9.695l8-6.578V17h-4.71zm-9 8A2.292 2.292 0 0 0 30 27.289v5.422a.29.29 0 0 1-.29.289H29V17.095l7-5.756V25h-3.71zm-10 8A2.292 2.292 0 0 0 20 35.289v5.422a.29.29 0 0 1-.29.289H19V25.317l8-6.578V33h-4.71zM9 33.539l8-6.578V41h-4.71A2.292 2.292 0 0 0 10 43.289v5.422a.29.29 0 0 1-.29.289H9V33.539zM57 57H2v-5.711A.29.29 0 0 1 2.29 51h7.42A2.292 2.292 0 0 0 12 48.711v-5.422a.29.29 0 0 1 .29-.289h7.421a2.292 2.292 0 0 0 2.29-2.289v-5.422A.289.289 0 0 1 22.29 35h7.421a2.292 2.292 0 0 0 2.29-2.289v-5.422A.289.289 0 0 1 32.29 27H41v-7.711a.29.29 0 0 1 .29-.289h7.421a2.292 2.292 0 0 0 2.29-2.289v-5.422A.289.289 0 0 1 51.29 11H57v46z"/></svg>