<svg xmlns="http://www.w3.org/2000/svg" viewBox="0 0 57 57" style="enable-background:new 0 0 57 57" xml:space="preserve"><path d="M49.086.028a6.02 6.02 0 0 0-4.622 1.531c-.37.337-.693.716-.965 1.126A6 6 0 0 0 38.5 0a5.998 5.998 0 0 0-5 2.687C32.424 1.068 30.584 0 28.5 0s-3.924 1.068-5 2.687A5.998 5.998 0 0 0 18.5 0a6.001 6.001 0 0 0-5 2.686 5.998 5.998 0 0 0-.965-1.126A6.014 6.014 0 0 0 7.913.029C4.878.317 2.5 3.035 2.5 6.215v11.418A2.37 2.37 0 0 0 4.868 20H6.5v34h2v1a1 1 0 1 0 0 2h2a1 1 0 1 0 0-2v-1h2V31h32v23h2v1a1 1 0 1 0 0 2h2a1 1 0 1 0 0-2v-1h2V20H52.133a2.37 2.37 0 0 0 2.367-2.367V6.215c0-3.18-2.378-5.898-5.414-6.187zM48.5 52h-2V29h-36v23h-2V20h2v7h36v-7h2v32zm-36-32h32v5h-32v-5zm38-2H4.868a.368.368 0 0 1-.368-.368V16h48v1.632a.368.368 0 0 1-.368.368H50.5zm-46-4V6.215c0-2.16 1.583-4.003 3.604-4.196.133-.013.267-.019.399-.019 1 0 1.942.361 2.687 1.039A4.013 4.013 0 0 1 12.5 6h2c0-2.206 1.794-4 4-4s4 1.794 4 4h2c0-2.206 1.794-4 4-4s4 1.794 4 4h2c0-2.206 1.794-4 4-4s4 1.794 4 4h2c0-1.125.478-2.203 1.31-2.961a3.957 3.957 0 0 1 3.087-1.021c2.02.194 3.603 2.037 3.603 4.197V14h-48z"/></svg>