<svg xmlns="http://www.w3.org/2000/svg" viewBox="0 0 60.002 60.002" style="enable-background:new 0 0 60.002 60.002" xml:space="preserve"><path d="M50.587.03a5.954 5.954 0 0 0-5.586 2.652 5.974 5.974 0 0 0-5-2.681 5.97 5.97 0 0 0-5 2.682c-1.104-1.67-2.964-2.682-5-2.682s-3.896 1.012-5 2.682c-1.104-1.67-2.964-2.682-5-2.682s-3.896 1.012-5 2.681A5.96 5.96 0 0 0 9.415.03C6.379.319 4.001 3.037 4.001 6.217v8.873c0 4.362 3.55 7.912 7.912 7.912h12.088v4h3v20h1v2h-2v1c0 4.411-3.589 8-8 8h-4a1 1 0 1 0 0 2h34a1 1 0 1 0 0-2h-4c-4.411 0-8-3.589-8-8v-1h-2v-2h1v-20h2.586l3.706 3.706a.99.99 0 0 0 .326.217.991.991 0 0 0 .382.077h3a1 1 0 1 0 0-2h-2.586l-4.414-4.414v-1.586h10.088c4.362 0 7.912-3.55 7.912-7.912V6.217c0-3.18-2.378-5.898-5.414-6.187zM34.051 51.002a10.002 10.002 0 0 0 3.956 7H23.995a10.002 10.002 0 0 0 3.956-7h6.1zm-2.05-2h-2v-2h2v2zm1-4h-4v-18h4v18zm3-20h-10v-2h10v2zm18-9.912a5.919 5.919 0 0 1-5.912 5.912H11.913a5.919 5.919 0 0 1-5.912-5.912V6.217c0-2.16 1.583-4.003 3.604-4.196a3.985 3.985 0 0 1 3.967 2.176c.275.541.819.877 1.422.878h.002c.608 0 1.16-.34 1.44-.889a3.986 3.986 0 0 1 3.565-2.185c1.511 0 2.877.837 3.564 2.185.28.546.83.885 1.436.885s1.155-.339 1.436-.886c.688-1.347 2.054-2.184 3.564-2.184s2.877.837 3.564 2.185c.28.546.83.885 1.436.885s1.155-.339 1.436-.886a3.987 3.987 0 0 1 3.564-2.184c1.512 0 2.878.837 3.566 2.187.279.547.831.887 1.439.887h.002a1.595 1.595 0 0 0 1.423-.879c.748-1.479 2.3-2.328 3.966-2.176 2.021.193 3.604 2.036 3.604 4.196v8.874z"/></svg>