<svg xmlns="http://www.w3.org/2000/svg" viewBox="0 0 52 52" style="enable-background:new 0 0 52 52" xml:space="preserve"><path d="M46.763 8.125A.982.982 0 0 0 47 7.5C47 2.629 36.18 0 26 0S5 2.629 5 7.5c0 .241.096.453.237.625A4.443 4.443 0 0 0 5 9.5c0 1.061.384 2.024 1 2.794v37.52C6 51.02 6.981 52 8.187 52h.657a2.175 2.175 0 0 0 2.186-2.129L11.711 24H14v20.813C14 46.02 14.981 47 16.187 47h.626C18.019 47 19 46.02 19 44.813V24h14v20.813C33 46.02 33.981 47 35.187 47h.626C37.019 47 38 46.02 38 44.813V24h2.289l.681 25.87A2.175 2.175 0 0 0 43.156 52h.657C45.019 52 46 51.02 46 49.813v-37.52c.616-.77 1-1.733 1-2.794 0-.482-.096-.938-.237-1.374zm-2.479 3.114A2.49 2.49 0 0 1 42.5 12h-33a2.49 2.49 0 0 1-1.784-.761l-.04-.042A2.48 2.48 0 0 1 7 9.5C7 8.121 8.122 7 9.5 7h33C43.878 7 45 8.121 45 9.5c0 .657-.26 1.251-.676 1.698l-.04.041zM40.131 18H38v-4h2.026l.105 4zm-28.157-4H14v4h-2.131l.105-4zM16 14h1v4h-1v-4zm3 0h14v4H19v-4zm16 0h1v4h-1v-4zm7.586-8.991C42.557 5.008 42.529 5 42.5 5h-33c-.029 0-.057.008-.086.009C12.452 3.398 18.226 2 26 2s13.548 1.398 16.586 3.009zM17 44.813a.187.187 0 0 1-.187.187h-.626a.187.187 0 0 1-.187-.187V24h1v20.813zm19 0a.187.187 0 0 1-.187.187h-.626a.187.187 0 0 1-.187-.187V24h1v20.813zm8 5a.187.187 0 0 1-.187.187h-.657a.188.188 0 0 1-.187-.182L42.237 22H9.763l-.732 27.819a.188.188 0 0 1-.187.181h-.657A.187.187 0 0 1 8 49.813V13.742c.124.044.255.067.383.101.092.024.181.054.275.072.275.052.556.085.842.085h.473l-.158 6h32.37l-.158-6h.473c.286 0 .567-.033.842-.085.094-.018.183-.048.275-.072.128-.033.259-.056.383-.101v36.071z"/></svg>