<?xml version="1.0" encoding="iso-8859-1"?>
<!-- Generator: Adobe Illustrator 18.0.0, SVG Export Plug-In . SVG Version: 6.00 Build 0)  -->
<!DOCTYPE svg PUBLIC "-//W3C//DTD SVG 1.1//EN" "http://www.w3.org/Graphics/SVG/1.1/DTD/svg11.dtd">
<svg version="1.1" id="Capa_1" xmlns="http://www.w3.org/2000/svg" xmlns:xlink="http://www.w3.org/1999/xlink" x="0px" y="0px"
	 viewBox="0 0 60.002 60.002" style="enable-background:new 0 0 60.002 60.002;" xml:space="preserve">
<path d="M50.587,0.03c-2.252-0.224-4.371,0.813-5.586,2.652c-1.105-1.669-2.965-2.681-5-2.681c-2.036,0-3.896,1.012-5,2.682
	c-1.104-1.67-2.964-2.682-5-2.682s-3.896,1.012-5,2.682c-1.104-1.67-2.964-2.682-5-2.682s-3.896,1.012-5,2.681
	c-1.216-1.84-3.34-2.875-5.586-2.652C6.379,0.319,4.001,3.037,4.001,6.217v8.873c0,4.362,3.55,7.912,7.912,7.912h12.088v4h3v20h1v2
	h-2v1c0,4.411-3.589,8-8,8h-4c-0.553,0-1,0.447-1,1s0.447,1,1,1h4h26h4c0.553,0,1-0.447,1-1s-0.447-1-1-1h-4c-4.411,0-8-3.589-8-8
	v-1h-2v-2h1v-20h2.586l3.706,3.706c0.092,0.093,0.203,0.166,0.326,0.217c0.122,0.051,0.252,0.077,0.382,0.077h3c0.553,0,1-0.447,1-1
	s-0.447-1-1-1h-2.586l-4.414-4.414v-1.586h10.088c4.362,0,7.912-3.55,7.912-7.912V6.217C56.001,3.037,53.623,0.319,50.587,0.03z
	 M34.051,51.002c0.285,2.856,1.776,5.362,3.956,7H23.995c2.18-1.638,3.671-4.144,3.956-7h0.05h6H34.051z M32.001,49.002h-2v-2h2
	V49.002z M33.001,45.002h-4v-18h4V45.002z M36.001,25.002h-1h-8h-1v-2h10V25.002z M54.001,15.09c0,3.26-2.652,5.912-5.912,5.912
	H38.001h-14H11.913c-3.26,0-5.912-2.652-5.912-5.912V6.217c0-2.16,1.583-4.003,3.604-4.196c0.132-0.012,0.263-0.019,0.393-0.019
	c1.51,0,2.884,0.832,3.574,2.195c0.275,0.541,0.819,0.877,1.422,0.878c0,0,0.001,0,0.002,0c0.608,0,1.16-0.34,1.44-0.889
	c0.688-1.348,2.054-2.185,3.565-2.185c1.511,0,2.877,0.837,3.564,2.185c0.28,0.546,0.83,0.885,1.436,0.885s1.155-0.339,1.436-0.886
	c0.688-1.347,2.054-2.184,3.564-2.184s2.877,0.837,3.564,2.185c0.28,0.546,0.83,0.885,1.436,0.885s1.155-0.339,1.436-0.886
	c0.688-1.347,2.054-2.184,3.564-2.184c1.512,0,2.878,0.837,3.566,2.187c0.279,0.547,0.831,0.887,1.439,0.887
	c0.001,0,0.002,0,0.002,0c0.603-0.001,1.146-0.337,1.423-0.879c0.748-1.479,2.3-2.328,3.966-2.176
	c2.021,0.193,3.604,2.036,3.604,4.196V15.09z"/>
<g>
</g>
<g>
</g>
<g>
</g>
<g>
</g>
<g>
</g>
<g>
</g>
<g>
</g>
<g>
</g>
<g>
</g>
<g>
</g>
<g>
</g>
<g>
</g>
<g>
</g>
<g>
</g>
<g>
</g>
</svg>
