<?xml version="1.0" encoding="iso-8859-1"?>
<!-- Generator: Adobe Illustrator 18.0.0, SVG Export Plug-In . SVG Version: 6.00 Build 0)  -->
<!DOCTYPE svg PUBLIC "-//W3C//DTD SVG 1.1//EN" "http://www.w3.org/Graphics/SVG/1.1/DTD/svg11.dtd">
<svg version="1.1" id="Capa_1" xmlns="http://www.w3.org/2000/svg" xmlns:xlink="http://www.w3.org/1999/xlink" x="0px" y="0px"
	 viewBox="0 0 52 52" style="enable-background:new 0 0 52 52;" xml:space="preserve">
<path d="M46.763,8.125C46.904,7.953,47,7.741,47,7.5C47,2.629,36.18,0,26,0S5,2.629,5,7.5c0,0.241,0.096,0.453,0.237,0.625
	C5.096,8.561,5,9.017,5,9.5c0,1.061,0.384,2.024,1,2.794v37.52C6,51.02,6.981,52,8.187,52h0.657c1.195,0,2.155-0.936,2.186-2.129
	L11.711,24H14v20.813C14,46.02,14.981,47,16.187,47h0.626C18.019,47,19,46.02,19,44.813V24h14v20.813C33,46.02,33.981,47,35.187,47
	h0.626C37.019,47,38,46.02,38,44.813V24h2.289l0.681,25.87c0.031,1.194,0.991,2.13,2.186,2.13h0.657C45.019,52,46,51.02,46,49.813
	v-37.52c0.616-0.77,1-1.733,1-2.794C47,9.017,46.904,8.561,46.763,8.125z M44.284,11.239c-0.358,0.368-0.804,0.612-1.288,0.711
	C42.835,11.982,42.67,12,42.5,12h-2.527H38h-5H19h-5h-1.973H9.5c-0.17,0-0.335-0.018-0.496-0.05
	c-0.484-0.099-0.93-0.343-1.288-0.711l-0.04-0.042C7.26,10.751,7,10.157,7,9.5C7,8.121,8.122,7,9.5,7h33C43.878,7,45,8.121,45,9.5
	c0,0.657-0.26,1.251-0.676,1.698L44.284,11.239z M40.131,18H38v-4h2.026L40.131,18z M11.974,14H14v4h-2.131L11.974,14z M16,14h1v4
	h-1V14z M19,14h14v4H19V14z M35,14h1v4h-1V14z M42.586,5.009C42.557,5.008,42.529,5,42.5,5h-33C9.471,5,9.443,5.008,9.414,5.009
	C12.452,3.398,18.226,2,26,2S39.548,3.398,42.586,5.009z M17,44.813C17,44.916,16.916,45,16.813,45h-0.626
	C16.084,45,16,44.916,16,44.813V24h1V44.813z M36,44.813C36,44.916,35.916,45,35.813,45h-0.626C35.084,45,35,44.916,35,44.813V24h1
	V44.813z M44,49.813C44,49.916,43.916,50,43.813,50h-0.657c-0.101,0-0.184-0.081-0.187-0.182L42.237,22H38h-5H19h-5H9.763
	L9.031,49.819C9.028,49.919,8.944,50,8.844,50H8.187C8.084,50,8,49.916,8,49.813V13.742c0.124,0.044,0.255,0.067,0.383,0.101
	c0.092,0.024,0.181,0.054,0.275,0.072C8.933,13.967,9.214,14,9.5,14h0.473l-0.158,6H14h5h14h5h4.185l-0.158-6H42.5
	c0.286,0,0.567-0.033,0.842-0.085c0.094-0.018,0.183-0.048,0.275-0.072c0.128-0.033,0.259-0.056,0.383-0.101V49.813z"/>
<g>
</g>
<g>
</g>
<g>
</g>
<g>
</g>
<g>
</g>
<g>
</g>
<g>
</g>
<g>
</g>
<g>
</g>
<g>
</g>
<g>
</g>
<g>
</g>
<g>
</g>
<g>
</g>
<g>
</g>
</svg>
