<svg xmlns="http://www.w3.org/2000/svg" viewBox="0 0 60 60" style="enable-background:new 0 0 60 60" xml:space="preserve"><path d="M59 0H1a1 1 0 0 0-1 1v58a1 1 0 0 0 1 1h58a1 1 0 0 0 1-1V1a1 1 0 0 0-1-1zm-1 58H2V2h56v56z"/><path d="M16 48c-2.206 0-4 1.794-4 4s1.794 4 4 4 4-1.794 4-4-1.794-4-4-4zm0 6c-1.103 0-2-.897-2-2s.897-2 2-2 2 .897 2 2-.897 2-2 2zM25 48c-2.206 0-4 1.794-4 4s1.794 4 4 4 4-1.794 4-4-1.794-4-4-4zm0 6c-1.103 0-2-.897-2-2s.897-2 2-2 2 .897 2 2-.897 2-2 2zM35 56c2.206 0 4-1.794 4-4s-1.794-4-4-4-4 1.794-4 4 1.794 4 4 4zm0-6c1.103 0 2 .897 2 2s-.897 2-2 2-2-.897-2-2 .897-2 2-2zM44 48c-2.206 0-4 1.794-4 4s1.794 4 4 4 4-1.794 4-4-1.794-4-4-4zm0 6c-1.103 0-2-.897-2-2s.897-2 2-2 2 .897 2 2-.897 2-2 2zM17 26c6.065 0 11-4.935 11-11S23.065 4 17 4 6 8.935 6 15s4.935 11 11 11zm-.989-19.943c.032.524.457.943.989.943s.957-.419.989-.943a9.011 9.011 0 0 1 7.954 7.954c-.524.032-.943.457-.943.989s.419.957.943.989a9.011 9.011 0 0 1-7.954 7.954C17.957 23.419 17.532 23 17 23s-.957.419-.989.943a9.011 9.011 0 0 1-7.954-7.954C8.581 15.957 9 15.532 9 15s-.419-.957-.943-.989a9.013 9.013 0 0 1 7.954-7.954zM43 27c-4.963 0-9 4.037-9 9s4.037 9 9 9 9-4.037 9-9-4.037-9-9-9zm0 16c-3.859 0-7-3.141-7-7s3.141-7 7-7 7 3.141 7 7-3.141 7-7 7z"/><circle cx="11" cy="12" r="1"/><circle cx="17" cy="12" r="1"/><circle cx="14" cy="9" r="1"/><circle cx="20" cy="9" r="1"/><circle cx="14" cy="15" r="1"/><circle cx="20" cy="15" r="1"/><circle cx="23" cy="12" r="1"/><circle cx="40" cy="33" r="1"/><circle cx="43" cy="30" r="1"/><circle cx="37" cy="36" r="1"/><circle cx="43" cy="36" r="1"/><circle cx="46" cy="33" r="1"/><circle cx="49" cy="36" r="1"/><circle cx="11" cy="18" r="1"/><circle cx="17" cy="18" r="1"/><circle cx="14" cy="21" r="1"/><circle cx="20" cy="21" r="1"/><circle cx="23" cy="18" r="1"/><path d="M43 26c6.065 0 11-4.935 11-11S49.065 4 43 4 32 8.935 32 15s4.935 11 11 11zm-.989-19.943c.032.524.457.943.989.943s.957-.419.989-.943a9.011 9.011 0 0 1 7.954 7.954c-.524.032-.943.457-.943.989s.419.957.943.989a9.011 9.011 0 0 1-7.954 7.954C43.957 23.419 43.532 23 43 23s-.957.419-.989.943a9.011 9.011 0 0 1-7.954-7.954c.524-.032.943-.457.943-.989s-.419-.957-.943-.989a9.013 9.013 0 0 1 7.954-7.954z"/><circle cx="37" cy="12" r="1"/><circle cx="43" cy="12" r="1"/><circle cx="40" cy="9" r="1"/><circle cx="46" cy="9" r="1"/><circle cx="40" cy="15" r="1"/><circle cx="46" cy="15" r="1"/><circle cx="49" cy="12" r="1"/><circle cx="37" cy="18" r="1"/><circle cx="43" cy="18" r="1"/><circle cx="40" cy="21" r="1"/><circle cx="46" cy="21" r="1"/><circle cx="49" cy="18" r="1"/><circle cx="40" cy="39" r="1"/><circle cx="43" cy="42" r="1"/><circle cx="46" cy="39" r="1"/><path d="M26 36c0-4.963-4.037-9-9-9s-9 4.037-9 9 4.037 9 9 9 9-4.037 9-9zm-16 0c0-3.859 3.141-7 7-7s7 3.141 7 7-3.141 7-7 7-7-3.141-7-7z"/><circle cx="14" cy="33" r="1"/><circle cx="17" cy="30" r="1"/><circle cx="11" cy="36" r="1"/><circle cx="17" cy="36" r="1"/><circle cx="20" cy="33" r="1"/><circle cx="23" cy="36" r="1"/><circle cx="14" cy="39" r="1"/><circle cx="17" cy="42" r="1"/><circle cx="20" cy="39" r="1"/></svg>