<svg xmlns="http://www.w3.org/2000/svg" viewBox="0 0 60 60" style="enable-background:new 0 0 60 60" xml:space="preserve"><path d="M49.33 3H10.67A3.674 3.674 0 0 0 7 6.67v49.66A3.674 3.674 0 0 0 10.67 60h38.66A3.674 3.674 0 0 0 53 56.33V6.67A3.674 3.674 0 0 0 49.33 3zM9 19h42v31H9V19zm42 37.33c0 .921-.749 1.67-1.67 1.67H10.67C9.749 58 9 57.251 9 56.33V52h42v4.33zM9 17V6.67C9 5.749 9.749 5 10.67 5h38.66c.921 0 1.67.749 1.67 1.67V17H9z"/><path d="M15 7c-2.206 0-4 1.794-4 4s1.794 4 4 4 4-1.794 4-4-1.794-4-4-4zm0 6c-1.103 0-2-.897-2-2s.897-2 2-2 2 .897 2 2-.897 2-2 2zM25 7c-2.206 0-4 1.794-4 4s1.794 4 4 4 4-1.794 4-4-1.794-4-4-4zm0 6c-1.103 0-2-.897-2-2s.897-2 2-2 2 .897 2 2-.897 2-2 2zM35 7c-2.206 0-4 1.794-4 4s1.794 4 4 4 4-1.794 4-4-1.794-4-4-4zm0 6c-1.103 0-2-.897-2-2s.897-2 2-2 2 .897 2 2-.897 2-2 2zM45 7c-2.206 0-4 1.794-4 4s1.794 4 4 4 4-1.794 4-4-1.794-4-4-4zm0 6c-1.103 0-2-.897-2-2s.897-2 2-2 2 .897 2 2-.897 2-2 2zM13 2h8a1 1 0 1 0 0-2h-8a1 1 0 1 0 0 2zM30 2h18a1 1 0 1 0 0-2H30a1 1 0 1 0 0 2zM14 24h32c1.103 0 2-.897 2-2a1 1 0 1 0-2 0H14a1 1 0 1 0-2 0c0 1.103.897 2 2 2zM44.862 26H15.138A4.142 4.142 0 0 0 11 30.138v13.725A4.142 4.142 0 0 0 15.138 48h29.724A4.142 4.142 0 0 0 49 43.862V30.138A4.142 4.142 0 0 0 44.862 26zM47 43.862A2.14 2.14 0 0 1 44.862 46H15.138A2.14 2.14 0 0 1 13 43.862V30.138c0-1.084.814-1.972 1.861-2.11A.988.988 0 0 0 14 29a1 1 0 0 0 2 0 .995.995 0 0 0-.954-.991c.031-.001.061-.009.092-.009H44.862c.032 0 .061.008.092.009A.995.995 0 0 0 45 30a1 1 0 0 0 1-1 .988.988 0 0 0-.861-.972A2.134 2.134 0 0 1 47 30.138v13.724z"/><circle cx="15" cy="35" r="1"/><circle cx="18" cy="32" r="1"/><circle cx="18" cy="38" r="1"/><circle cx="21" cy="29" r="1"/><circle cx="27" cy="29" r="1"/><circle cx="21" cy="35" r="1"/><circle cx="27" cy="35" r="1"/><circle cx="24" cy="32" r="1"/><circle cx="30" cy="32" r="1"/><circle cx="24" cy="38" r="1"/><circle cx="30" cy="38" r="1"/><circle cx="33" cy="29" r="1"/><circle cx="39" cy="29" r="1"/><circle cx="33" cy="35" r="1"/><circle cx="39" cy="35" r="1"/><circle cx="36" cy="32" r="1"/><circle cx="42" cy="32" r="1"/><circle cx="36" cy="38" r="1"/><circle cx="42" cy="38" r="1"/><circle cx="45" cy="35" r="1"/><circle cx="15" cy="41" r="1"/><circle cx="18" cy="44" r="1"/><circle cx="21" cy="41" r="1"/><circle cx="27" cy="41" r="1"/><circle cx="24" cy="44" r="1"/><circle cx="30" cy="44" r="1"/><circle cx="33" cy="41" r="1"/><circle cx="39" cy="41" r="1"/><circle cx="36" cy="44" r="1"/><circle cx="42" cy="44" r="1"/><circle cx="45" cy="41" r="1"/></svg>