<?xml version="1.0" encoding="iso-8859-1"?>
<!-- Generator: Adobe Illustrator 18.0.0, SVG Export Plug-In . SVG Version: 6.00 Build 0)  -->
<!DOCTYPE svg PUBLIC "-//W3C//DTD SVG 1.1//EN" "http://www.w3.org/Graphics/SVG/1.1/DTD/svg11.dtd">
<svg version="1.1" id="Capa_1" xmlns="http://www.w3.org/2000/svg" xmlns:xlink="http://www.w3.org/1999/xlink" x="0px" y="0px"
	 viewBox="0 0 60 60" style="enable-background:new 0 0 60 60;" xml:space="preserve">
<path d="M60,34.635V24h-1.274c-3.891,0-7.423,1.527-10.059,4H47v-1h1c0.552,0,1-0.447,1-1s-0.448-1-1-1h-1h-8h-1
	c-0.552,0-1,0.447-1,1s0.448,1,1,1h1v1h-4.686C34.747,27.112,35,25.841,35,24c0-1.882-0.254-2.517-0.703-3.479
	c-0.116-0.248-0.248-0.528-0.393-0.892L33.653,19H31v-2.586l1.707-1.707c0.391-0.391,0.391-1.023,0-1.414s-1.023-0.391-1.414,0
	L31,13.586V13v-1v-0.142c1.72-0.447,3-1.999,3-3.858V6h-3V4h-5v5c0,1.859,1.28,3.411,3,3.858v2.728l-0.293-0.293
	c-0.391-0.391-1.023-0.391-1.414,0s-0.391,1.023,0,1.414L29,18.414V19h-2.653l-0.251,0.63c-0.145,0.363-0.276,0.644-0.393,0.892
	C25.254,21.483,25,22.118,25,24c0,1.841,0.253,3.112,0.686,4H21v-1h1c0.552,0,1-0.447,1-1s-0.448-1-1-1h-1h-8h-1
	c-0.552,0-1,0.447-1,1s0.448,1,1,1h1v1h-1.668c-2.635-2.473-6.168-4-10.059-4H0v10.635c0,2.742,2.076,4.985,4.735,5.301L1.03,54.758
	c-0.134,0.535,0.192,1.078,0.728,1.212C1.839,55.99,1.92,56,2.001,56c0.448,0,0.855-0.303,0.969-0.758l3.581-14.325l4.494,14.381
	C11.179,55.727,11.574,56,12,56c0.099,0,0.2-0.015,0.299-0.046c0.527-0.164,0.821-0.726,0.656-1.252L8.36,40H16v-1.274
	c0-1.654-0.287-3.24-0.792-4.726H24v4h3v8c0,4.411-3.589,8-8,8h-4c-0.552,0-1,0.447-1,1s0.448,1,1,1h4h22h4c0.552,0,1-0.447,1-1
	s-0.448-1-1-1h-4c-4.411,0-8-3.589-8-8v-8h3v-4h8.792C44.287,35.486,44,37.071,44,38.726V40h6.719L47.03,54.758
	c-0.134,0.535,0.192,1.078,0.728,1.212C47.839,55.99,47.92,56,48.001,56c0.448,0,0.855-0.303,0.969-0.758l3.581-14.325l4.494,14.381
	C57.179,55.727,57.574,56,58,56c0.099,0,0.2-0.015,0.299-0.046c0.527-0.164,0.821-0.726,0.656-1.252L54.36,40h0.274
	C57.593,40,60,37.593,60,34.635z M41,27h4v1h-4V27z M32,8c0,0.739-0.403,1.386-1,1.731V8H32z M28,9V6h1v4.731
	C28.403,10.386,28,9.739,28,9z M27,24c0-1.529,0.162-1.874,0.515-2.632c0.054-0.115,0.111-0.236,0.17-0.368h4.63
	c0.059,0.132,0.116,0.253,0.17,0.368C32.838,22.126,33,22.471,33,24c0,4-0.94,4-3,4S27,28,27,24z M15,27h4v1h-4V27z M5.366,38
	C3.51,38,2,36.49,2,34.635v-8.614c4.011,0.227,7.529,2.32,9.702,5.422c0.428,0.618,0.805,1.277,1.126,1.975l0.107,0.233
	c0.588,1.346,0.957,2.81,1.044,4.349H5.366z M34,36h-3v10c0,3.268,1.575,6.174,4.006,8H24.994C27.425,52.174,29,49.268,29,46V36h-3
	v-2h8V36z M45.638,32H36H24h-9.638c-0.007-0.014-0.016-0.028-0.024-0.042c-0.121-0.233-0.252-0.459-0.385-0.684
	c-0.102-0.174-0.205-0.347-0.314-0.516c-0.105-0.162-0.211-0.321-0.322-0.479c-0.064-0.092-0.122-0.189-0.188-0.28H21h18h7.87
	c-0.066,0.09-0.124,0.188-0.188,0.28c-0.111,0.157-0.217,0.317-0.322,0.479c-0.108,0.169-0.212,0.342-0.314,0.516
	c-0.133,0.225-0.264,0.451-0.385,0.684C45.654,31.972,45.645,31.986,45.638,32z M47.064,33.651l0.107-0.233
	c0.321-0.698,0.698-1.358,1.126-1.975c2.173-3.102,5.692-5.195,9.702-5.422v8.614C58,36.49,56.49,38,54.634,38h-8.614
	C46.107,36.461,46.476,34.997,47.064,33.651z"/>
<g>
</g>
<g>
</g>
<g>
</g>
<g>
</g>
<g>
</g>
<g>
</g>
<g>
</g>
<g>
</g>
<g>
</g>
<g>
</g>
<g>
</g>
<g>
</g>
<g>
</g>
<g>
</g>
<g>
</g>
</svg>
