<svg xmlns="http://www.w3.org/2000/svg" viewBox="0 0 60 60" style="enable-background:new 0 0 60 60" xml:space="preserve"><path d="M57 20.232h-3c1.654 0 3-1.346 3-3s-1.346-3-3-3h-1v-1h-7v7h-7.106C41.458 19.047 43 17.419 43 15.565c0-.329-.06-.673-.183-1.052l-.292-.898-.914.241c-.215.057-.447.098-.667.15-.278-2.124-2.079-3.774-4.277-3.774-.753 0-1.467.209-2.106.569-.917-1.15-2.312-1.902-3.894-1.902a4.937 4.937 0 0 0-2.803.866A5.64 5.64 0 0 0 24 8.232c-2.306 0-4.337 1.407-5.209 3.466-1.918-.488-3.988.17-5.102 1.781-.457.662-.689 1.363-.689 2.086 0 1.854 1.542 3.482 4.106 4.667H3c-1.654 0-3 1.346-3 3s1.346 3 3 3h23v14h1v2h-2v1c0 4.411-3.589 8-8 8h-4a1 1 0 1 0 0 2h34a1 1 0 1 0 0-2h-4c-4.411 0-8-3.589-8-8v-1h-2v-2h1v-14h23c1.654 0 3-1.346 3-3s-1.346-3-3-3zm-3-4a1.001 1.001 0 0 1 0 2h-1v-2h1zm-6-1h3v5h-3v-5zm-12.519-2.676a2.334 2.334 0 0 1 3.511 1.845c-.386.065-.774.128-1.171.18-.141.019-.279.043-.422.06-.597.071-1.207.122-1.82.163.005-.024.003-.048.007-.072.047-.275.079-.553.079-.833a4.96 4.96 0 0 0-.142-1.134c-.014-.069-.022-.14-.042-.209zm-4.814-1.657a3 3 0 0 1 2.904 2.284c.007.03.021.057.027.087.045.206.069.416.069.629 0 .236-.036.466-.093.693l-.032.124c-.017.058-.05.112-.071.169-.079.001-.157.007-.236.007-.318.003-.637-.005-.956-.011-.329-.006-.658-.01-.984-.025-.31-.014-.617-.039-.926-.06-.258-.018-.516-.035-.77-.058a5.392 5.392 0 0 0 .031-1.463c-.007-.064-.02-.126-.029-.19a5.78 5.78 0 0 0-.074-.421c-.016-.071-.036-.14-.054-.21a5.209 5.209 0 0 0-.366-.994c-.015-.032-.026-.065-.042-.096a2.961 2.961 0 0 1 1.602-.465zM24 10.232c1.235 0 2.323.618 2.988 1.556.054.076.098.157.146.236a3.416 3.416 0 0 1 .413.992c.018.072.039.143.052.216.04.217.067.439.067.667 0 .2-.025.401-.062.604-.03-.005-.062-.007-.091-.012a31.285 31.285 0 0 1-1.789-.324c-.203-.043-.392-.096-.59-.142a27.66 27.66 0 0 1-1.168-.293c-.207-.058-.402-.125-.603-.187a22.077 22.077 0 0 1-1.018-.338c-.193-.07-.376-.146-.561-.22a16.48 16.48 0 0 1-.892-.386c-.091-.043-.177-.088-.265-.132A3.67 3.67 0 0 1 24 10.232zm-9 5.333c0-.313.109-.623.335-.949.493-.713 1.328-1.099 2.206-1.099.485 0 .981.125 1.441.371l.094.043a16.786 16.786 0 0 0 1.511.732c.357.154.727.302 1.11.442.087.032.169.066.257.096.448.157.914.303 1.394.44.157.045.318.086.478.128.34.09.687.176 1.041.256.196.045.391.09.591.132.47.097.948.186 1.439.265l.024.004-.008.021 1.284.159.018.003.767.095.002-.005c.404.041.82.064 1.232.093.167.012.332.028.5.038a40.4 40.4 0 0 0 1.681.054l-.027.047 1.776-.049h.021l.561-.017.006-.01a38.193 38.193 0 0 0 2.072-.143c.106-.01.213-.017.318-.028.594-.062 1.179-.14 1.757-.229.152-.023.299-.051.45-.076.261-.044.526-.084.783-.133l.651-.126.002-.011.133-.025c-.779 2.054-6.041 4.148-12.9 4.148-7.44 0-13-2.464-13-4.667zm18.05 28.667a10 10 0 0 0 3.957 7H22.994a10.003 10.003 0 0 0 3.957-7h6.099zm-2.05-2h-2v-2h2v2zm1-4h-4v-12h4v12zm25-14H3a1.001 1.001 0 0 1 0-2h54a1.001 1.001 0 0 1 0 2zM49.463 12.31a.998.998 0 0 0 .81-1.827c1.283-.55 1.476-1.368 1.476-1.811 0-.447-.198-1.279-1.521-1.828a1 1 0 0 0-.81 1.828c-1.285.549-1.478 1.367-1.478 1.81.001.447.199 1.279 1.523 1.828z"/></svg>