<svg xmlns="http://www.w3.org/2000/svg" viewBox="0 0 60 60" style="enable-background:new 0 0 60 60" xml:space="preserve"><path d="M59 30h-6v-.911c.331-.434 2.115-1.089 3-1.089h1a1 1 0 1 0 0-2H41a1 1 0 1 0 0 2h1c.885 0 2.669.655 3 1.089V30H32v-2h2v-6h-2v-4H18v6h2v2h-2v4h-3.726c.024-.081.055-.159.072-.243a2.792 2.792 0 0 0-.847-2.611c-.805-.744-1.319-1.547-1.529-2.388L11.781 24h-1.367l2.293-2.293a.999.999 0 1 0-1.414-1.414L10 21.586V16.858c1.72-.447 3-1.999 3-3.858v-2h-3V9H5v5c0 1.859 1.28 3.411 3 3.858V24H6.62l-.189.757c-.211.841-.726 1.645-1.529 2.389a2.793 2.793 0 0 0-.847 2.611c.016.084.047.162.072.243H1a1 1 0 0 0-1 1v6a1 1 0 0 0 1 1h2v12a1 1 0 0 0 1 1h3a1 1 0 0 0 .988-.848L9.858 38h40.284l1.87 12.152A1 1 0 0 0 53 51h3a1 1 0 0 0 1-1V38h2a1 1 0 0 0 1-1v-6a1 1 0 0 0-1-1zm-12.33-2h4.66a1.73 1.73 0 0 0-.33 1v1h-4v-1a1.73 1.73 0 0 0-.33-1zM20 20h10v2H20v-2zm2 4h10v2H22v-2zm-2 4h10v2H20v-2zm-9-15c0 .739-.402 1.386-1 1.731V13h1zm-4 1v-3h1v4.731c-.598-.345-1-.992-1-1.731zm-.982 15.368a.798.798 0 0 1 .242-.755c.864-.8 1.489-1.677 1.865-2.613h2.15c.375.938 1 1.813 1.866 2.614.1.092.322.35.242.753-.071.362-.442.633-.862.633H6.879c-.42 0-.791-.271-.861-.632zM6.142 49H5V38h2.834L6.142 49zM55 49h-1.142l-1.692-11H55v11zm3-13H2v-4h56v4z"/></svg>