<svg xmlns="http://www.w3.org/2000/svg" viewBox="0 0 60 60" style="enable-background:new 0 0 60 60" xml:space="preserve"><path d="M60 34.635V24h-1.274c-3.891 0-7.423 1.527-10.059 4H47v-1h1a1 1 0 1 0 0-2H38a1 1 0 1 0 0 2h1v1h-4.686c.433-.888.686-2.159.686-4 0-1.882-.254-2.517-.703-3.479-.116-.248-.248-.528-.393-.892L33.653 19H31v-2.586l1.707-1.707a.999.999 0 1 0-1.414-1.414l-.293.293V11.858c1.72-.447 3-1.999 3-3.858V6h-3V4h-5v5c0 1.859 1.28 3.411 3 3.858v2.728l-.293-.293a.999.999 0 1 0-1.414 1.414L29 18.414V19h-2.653l-.251.63a15.15 15.15 0 0 1-.393.892C25.254 21.483 25 22.118 25 24c0 1.841.253 3.112.686 4H21v-1h1a1 1 0 1 0 0-2H12a1 1 0 1 0 0 2h1v1h-1.668c-2.635-2.473-6.168-4-10.059-4H0v10.635c0 2.742 2.076 4.985 4.735 5.301L1.03 54.758a1 1 0 0 0 1.94.484l3.581-14.325 4.494 14.381a1 1 0 0 0 1.91-.596L8.36 40H16v-1.274c0-1.654-.287-3.24-.792-4.726H24v4h3v8c0 4.411-3.589 8-8 8h-4a1 1 0 1 0 0 2h30a1 1 0 1 0 0-2h-4c-4.411 0-8-3.589-8-8v-8h3v-4h8.792A14.648 14.648 0 0 0 44 38.726V40h6.719L47.03 54.758a1 1 0 0 0 1.94.484l3.581-14.325 4.494 14.381a1 1 0 0 0 1.91-.596L54.36 40h.274A5.372 5.372 0 0 0 60 34.635zM41 27h4v1h-4v-1zM32 8a2 2 0 0 1-1 1.731V8h1zm-4 1V6h1v4.731A2 2 0 0 1 28 9zm-1 15c0-1.529.162-1.874.515-2.632.054-.115.111-.236.17-.368h4.63c.059.132.116.253.17.368.353.758.515 1.103.515 2.632 0 4-.94 4-3 4s-3 0-3-4zm-12 3h4v1h-4v-1zM5.366 38A3.37 3.37 0 0 1 2 34.635v-8.614c4.011.227 7.529 2.32 9.702 5.422a13.02 13.02 0 0 1 1.126 1.975l.107.233c.588 1.346.957 2.81 1.044 4.349H5.366zM34 36h-3v10a9.99 9.99 0 0 0 4.006 8H24.994A9.99 9.99 0 0 0 29 46V36h-3v-2h8v2zm11.638-4H14.362l-.024-.042a14.282 14.282 0 0 0-.385-.684 14.178 14.178 0 0 0-.636-.995c-.064-.092-.122-.189-.188-.28H46.87c-.066.09-.124.188-.188.28a14.294 14.294 0 0 0-.636.995c-.133.225-.264.451-.385.684l-.023.042zm1.426 1.651.107-.233c.321-.698.698-1.358 1.126-1.975 2.173-3.102 5.692-5.195 9.702-5.422v8.614A3.368 3.368 0 0 1 54.634 38H46.02a12.627 12.627 0 0 1 1.044-4.349z"/></svg>