<svg xmlns="http://www.w3.org/2000/svg" viewBox="0 0 60 60" style="enable-background:new 0 0 60 60" xml:space="preserve"><path d="M59.434 25h-25.12c.433-.888.686-2.159.686-4 0-1.882-.254-2.517-.703-3.479-.116-.248-.248-.528-.393-.892L33.653 16H31v-2.586l1.707-1.707a.999.999 0 1 0-1.414-1.414l-.293.293V8.858c1.72-.447 3-1.999 3-3.858V2h-3V0h-5v6c0 1.859 1.28 3.411 3 3.858v2.728l-.293-.293a.999.999 0 1 0-1.414 1.414L29 15.414V16h-2.653l-.251.63a15.15 15.15 0 0 1-.393.892C25.254 18.483 25 19.118 25 21c0 1.841.253 3.112.686 4H0v11h1v24h5V36h1v-5h5.981c1.915.924 3.997 1.927 6.086 2.933 7.25 3.489 14.501 6.969 14.501 6.969l.501.24L50.005 31H53v5h1v24h5V36h1V25h-.566zM32 4v1a2 2 0 0 1-1 1.731V4h1zm-4 2V2h1v5.731A2 2 0 0 1 28 6zm-1 15c0-1.529.162-1.874.515-2.632.054-.115.111-.236.17-.368h4.63c.059.132.116.253.17.368.353.758.515 1.103.515 2.632 0 4-.94 4-3 4s-3 0-3-4zm17.709 6-10.777 6.858c-1.784-.857-8.059-3.87-14.268-6.858h25.045zM4 58H3V36h1v22zm1-24H2v-3h3v3zm-3-5v-2h2.839c.664.38 1.861.963 4.003 2H2zm31.932 9.858A9504.465 9504.465 0 0 1 9.301 27h5.754c8.304 4.003 18.512 8.901 18.512 8.901l.501.24L48.434 27h4.132l-4.857 3.091L46.28 31l-12.348 7.858zM57 58h-1V36h1v22zm1-24h-3v-3h3v3zm-4.852-5 1.523-.969L56.291 27H58v2h-4.852z"/></svg>