<svg xmlns="http://www.w3.org/2000/svg" viewBox="0 0 60 60" style="enable-background:new 0 0 60 60" xml:space="preserve"><path d="M57 42V22h2a1 1 0 1 0 0-2H36.274c.024-.081.055-.159.072-.243a2.792 2.792 0 0 0-.847-2.611c-.805-.744-1.319-1.547-1.529-2.388L33.781 14H32v-3.142c1.721-.447 3-1.999 3-3.858V2h-8v5c0 1.859 1.279 3.411 3 3.858V14h-1.38l-.189.757c-.211.841-.726 1.645-1.529 2.389a2.793 2.793 0 0 0-.847 2.611c.017.084.048.162.072.243H1a1 1 0 1 0 0 2h2v20C3 51.095.15 56.47.121 56.522A1 1 0 0 0 1 58c7.909 0 8-15.347 8-16V29c0-2.206 1.794-4 4-4h34c2.206 0 4 1.794 4 4v13c0 .653.091 16 8 16a1 1 0 0 0 .878-1.478C59.849 56.469 57 51.14 57 42zM32 4h1v3c0 .739-.402 1.386-1 1.731V4zm-3 3V4h1v4.731c-.598-.345-1-.992-1-1.731zm-.982 12.368a.798.798 0 0 1 .242-.755c.864-.8 1.489-1.677 1.865-2.613h2.15c.375.938 1 1.813 1.866 2.614.1.092.322.35.242.753-.071.362-.442.633-.862.633h-4.643c-.419 0-.79-.271-.86-.632zM7 29v13c0 3.385-.814 11.465-4.261 13.519C3.664 53.079 5 48.441 5 42V22h7v1.083A6.01 6.01 0 0 0 7 29zm7-7h32v1H14v-1zm39 20V29a6.01 6.01 0 0 0-5-5.917V22h7v20c0 6.439 1.335 11.077 2.261 13.517C53.82 53.46 53.002 45.384 53 42z"/></svg>