<?xml version="1.0" encoding="iso-8859-1"?>
<!-- Generator: Adobe Illustrator 18.0.0, SVG Export Plug-In . SVG Version: 6.00 Build 0)  -->
<!DOCTYPE svg PUBLIC "-//W3C//DTD SVG 1.1//EN" "http://www.w3.org/Graphics/SVG/1.1/DTD/svg11.dtd">
<svg version="1.1" id="Capa_1" xmlns="http://www.w3.org/2000/svg" xmlns:xlink="http://www.w3.org/1999/xlink" x="0px" y="0px"
	 viewBox="0 0 60 60" style="enable-background:new 0 0 60 60;" xml:space="preserve">
<g>
	<path d="M4,21.5h8c0.552,0,1-0.447,1-1s-0.448-1-1-1H4c-0.552,0-1,0.447-1,1S3.448,21.5,4,21.5z"/>
	<path d="M48,21.5h8c0.552,0,1-0.447,1-1s-0.448-1-1-1h-8c-0.552,0-1,0.447-1,1S47.448,21.5,48,21.5z"/>
	<path d="M57,42.5v-14c1.654,0,3-1.346,3-3s-1.346-3-3-3H36.073c0.024-0.081,0.055-0.158,0.072-0.242
		c0.192-0.969-0.124-1.945-0.846-2.612c-0.805-0.744-1.319-1.548-1.529-2.389L33.581,16.5H32v-0.586l2.707-2.707
		c0.391-0.391,0.391-1.023,0-1.414s-1.023-0.391-1.414,0L32,13.086V10.5v-0.142c1.72-0.447,3-1.999,3-3.858v-2h-3v-3h-5v5
		c0,1.859,1.28,3.411,3,3.858V10.5v6h-1.581l-0.189,0.757c-0.21,0.841-0.725,1.645-1.529,2.389
		c-0.722,0.667-1.039,1.644-0.846,2.611c0.017,0.084,0.048,0.162,0.072,0.243H3c-1.654,0-3,1.346-3,3s1.346,3,3,3v14
		c0,9.095-2.85,14.47-2.879,14.522c-0.167,0.311-0.16,0.687,0.021,0.988C0.322,58.313,0.647,58.5,1,58.5c7.909,0,8-15.347,8-16
		v-3.485c0-4.563,3.075-8.59,7.478-9.79l2.657-0.725h21.731l2.657,0.725c4.403,1.2,7.478,5.227,7.478,9.79V42.5
		c0,0.653,0.091,16,8,16c0.353,0,0.68-0.187,0.86-0.489c0.18-0.304,0.187-0.68,0.018-0.989C59.849,56.969,57,51.64,57,42.5z M33,6.5
		c0,0.739-0.403,1.386-1,1.731V6.5H33z M29,6.5v-3h1v1v3.731C29.403,7.886,29,7.239,29,6.5z M27.817,21.867
		c-0.081-0.403,0.142-0.661,0.242-0.753c0.865-0.801,1.49-1.678,1.866-2.614h2.15c0.375,0.937,1,1.813,1.866,2.614
		c0.1,0.092,0.322,0.35,0.242,0.754c-0.071,0.36-0.442,0.632-0.862,0.632h-4.643C28.259,22.5,27.888,22.229,27.817,21.867z M2,25.5
		c0-0.552,0.449-1,1-1h25.679h4.643H57c0.551,0,1,0.448,1,1s-0.449,1-1,1h-1H41H19H4H3C2.449,26.5,2,26.052,2,25.5z M7,39.015V42.5
		c0,3.385-0.814,11.465-4.261,13.519C3.664,53.579,5,48.941,5,42.5v-14h8.067C9.386,30.635,7,34.615,7,39.015z M53,42.5v-3.485
		c0-4.399-2.386-8.38-6.067-10.515H55v14c0,6.439,1.335,11.077,2.261,13.517C53.82,53.96,53.002,45.884,53,42.5z"/>
</g>
<g>
</g>
<g>
</g>
<g>
</g>
<g>
</g>
<g>
</g>
<g>
</g>
<g>
</g>
<g>
</g>
<g>
</g>
<g>
</g>
<g>
</g>
<g>
</g>
<g>
</g>
<g>
</g>
<g>
</g>
</svg>
