<?xml version="1.0" encoding="iso-8859-1"?>
<!-- Generator: Adobe Illustrator 18.0.0, SVG Export Plug-In . SVG Version: 6.00 Build 0)  -->
<!DOCTYPE svg PUBLIC "-//W3C//DTD SVG 1.1//EN" "http://www.w3.org/Graphics/SVG/1.1/DTD/svg11.dtd">
<svg version="1.1" id="Capa_1" xmlns="http://www.w3.org/2000/svg" xmlns:xlink="http://www.w3.org/1999/xlink" x="0px" y="0px"
	 viewBox="0 0 60 60" style="enable-background:new 0 0 60 60;" xml:space="preserve">
<path d="M59,30h-6v-0.911C53.331,28.655,55.115,28,56,28h1c0.553,0,1-0.447,1-1s-0.447-1-1-1h-1H42h-1c-0.553,0-1,0.447-1,1
	s0.447,1,1,1h1c0.885,0,2.669,0.655,3,1.089V30H32v-2h2v-6h-2v-4H18v6h2v2h-2v4h-3.726c0.024-0.081,0.055-0.159,0.072-0.243
	c0.191-0.969-0.125-1.944-0.847-2.611c-0.805-0.744-1.319-1.547-1.529-2.388L11.781,24h-1.367l2.293-2.293
	c0.391-0.391,0.391-1.023,0-1.414s-1.023-0.391-1.414,0L10,21.586V18v-1v-0.142c1.72-0.447,3-1.999,3-3.858v-2h-3V9H5v5
	c0,1.859,1.28,3.411,3,3.858V24H6.62l-0.189,0.757c-0.211,0.841-0.726,1.645-1.529,2.389c-0.722,0.667-1.038,1.643-0.847,2.611
	C4.071,29.841,4.102,29.919,4.127,30H1c-0.553,0-1,0.447-1,1v6c0,0.553,0.447,1,1,1h2v12c0,0.553,0.447,1,1,1h3
	c0.493,0,0.913-0.36,0.988-0.848L9.858,38h40.284l1.87,12.152C52.087,50.64,52.507,51,53,51h3c0.553,0,1-0.447,1-1V38h2
	c0.553,0,1-0.447,1-1v-6C60,30.447,59.553,30,59,30z M46.67,28h4.66C51.123,28.298,51,28.631,51,29v1h-4v-1
	C47,28.631,46.877,28.298,46.67,28z M20,20h10v2H20V20z M22,24h10v2H22V24z M20,28h10v2H20V28z M11,13c0,0.739-0.402,1.386-1,1.731
	V13H11z M7,14v-3h1v4.731C7.402,15.386,7,14.739,7,14z M6.018,29.368c-0.081-0.404,0.142-0.662,0.242-0.755
	c0.864-0.8,1.489-1.677,1.865-2.613h2.15c0.375,0.938,1,1.813,1.866,2.614c0.1,0.092,0.322,0.35,0.242,0.753
	C12.312,29.729,11.941,30,11.521,30H6.879C6.459,30,6.088,29.729,6.018,29.368z M6.142,49H5V38h2.834L6.142,49z M55,49h-1.142
	l-1.692-11H55V49z M58,36h-2h-5H9H4H2v-4h4.879h4.643H18h14h13h8h5V36z"/>
<g>
</g>
<g>
</g>
<g>
</g>
<g>
</g>
<g>
</g>
<g>
</g>
<g>
</g>
<g>
</g>
<g>
</g>
<g>
</g>
<g>
</g>
<g>
</g>
<g>
</g>
<g>
</g>
<g>
</g>
</svg>
