<svg xmlns="http://www.w3.org/2000/svg" viewBox="0 0 60 60" style="enable-background:new 0 0 60 60" xml:space="preserve"><path d="M52 43H36.953c.218-.367.383-.768.469-1.201a3.996 3.996 0 0 0-1.209-3.733c-1.438-1.331-2.361-2.78-2.743-4.308L33.281 33H30.5v-.586l2.707-2.707a.999.999 0 1 0-1.414-1.414L30.5 29.586V26.858c1.72-.447 3-1.999 3-3.858h9V5h-25v18h8c0 1.859 1.28 3.411 3 3.858V33h-2.781l-.188.758c-.382 1.527-1.305 2.977-2.743 4.308A3.995 3.995 0 0 0 21.58 41.8c.086.432.25.834.468 1.2H8c-3.032 0-5.5 2.468-5.5 5.5S4.968 54 8 54h3.32l-1 6h3.799l3-6h26.764l3 6h3.799l-1-6H52c3.032 0 5.5-2.468 5.5-5.5S55.032 43 52 43zM30.5 24.731V21h1v2c0 .739-.402 1.386-1 1.731zM19.5 21V7h21v14h-7v-2h-3v-3h-5v5h-6zm8 2v-5h1v6.731c-.598-.345-1-.992-1-1.731zm-3.959 18.41a2.004 2.004 0 0 1 .604-1.876c1.499-1.387 2.539-2.909 3.101-4.534h4.51c.562 1.625 1.602 3.147 3.101 4.534.516.478.742 1.179.604 1.875-.182.907-1.08 1.591-2.092 1.591h-7.738c-1.012 0-1.91-.684-2.09-1.59zM12.882 58h-.201l.666-4h1.535l-2 4zm35.437 0h-.201l-2-4h1.535l.666 4zM52 52H8c-1.93 0-3.5-1.57-3.5-3.5S6.07 45 8 45h44c1.93 0 3.5 1.57 3.5 3.5S53.93 52 52 52z"/><circle cx="22" cy="48.5" r="1.5"/><circle cx="38" cy="48.5" r="1.5"/><path d="M26.5 27a1 1 0 0 0-1-1h-11V2h31v24h-12a1 1 0 1 0 0 2h14V0h-35v28h13a1 1 0 0 0 1-1z"/><path d="m22.793 10.293-2 2a.999.999 0 1 0 1.414 1.414l2-2a.999.999 0 1 0-1.414-1.414zM26.21 9.71c.18-.19.29-.45.29-.71s-.11-.521-.29-.71c-.37-.37-1.05-.37-1.42 0-.181.189-.29.439-.29.71 0 .26.109.52.29.71.189.18.45.29.71.29s.52-.11.71-.29zM29.5 12a.997.997 0 0 0 .707-.293l2-2a.999.999 0 1 0-1.414-1.414l-2 2A.999.999 0 0 0 29.5 12zM26.79 13.71c.189.18.45.29.71.29s.52-.11.71-.29a1.011 1.011 0 0 0 0-1.42c-.38-.37-1.05-.37-1.42 0-.181.189-.29.439-.29.71 0 .26.109.52.29.71z"/></svg>