<svg xmlns="http://www.w3.org/2000/svg" viewBox="0 0 60 60" style="enable-background:new 0 0 60 60" xml:space="preserve"><path d="M4 21.5h8a1 1 0 1 0 0-2H4a1 1 0 1 0 0 2zM48 21.5h8a1 1 0 1 0 0-2h-8a1 1 0 1 0 0 2z"/><path d="M57 42.5v-14c1.654 0 3-1.346 3-3s-1.346-3-3-3H36.073c.024-.081.055-.158.072-.242a2.79 2.79 0 0 0-.846-2.612c-.805-.744-1.319-1.548-1.529-2.389l-.189-.757H32v-.586l2.707-2.707a.999.999 0 1 0-1.414-1.414L32 13.086V10.358c1.72-.447 3-1.999 3-3.858v-2h-3v-3h-5v5c0 1.859 1.28 3.411 3 3.858V16.5h-1.581l-.189.757c-.21.841-.725 1.645-1.529 2.389a2.788 2.788 0 0 0-.846 2.611c.017.084.048.162.072.243H3c-1.654 0-3 1.346-3 3s1.346 3 3 3v14C3 51.595.15 56.97.121 57.022A1 1 0 0 0 1 58.5c7.909 0 8-15.347 8-16v-3.485a10.17 10.17 0 0 1 7.478-9.79l2.657-.725h21.731l2.657.725a10.17 10.17 0 0 1 7.478 9.79V42.5c0 .653.091 16 8 16a1 1 0 0 0 .878-1.478C59.849 56.969 57 51.64 57 42.5zm-24-36a2 2 0 0 1-1 1.731V6.5h1zm-4 0v-3h1v4.731A2 2 0 0 1 29 6.5zm-1.183 15.367a.794.794 0 0 1 .242-.753c.865-.801 1.49-1.678 1.866-2.614h2.15c.375.937 1 1.813 1.866 2.614.1.092.322.35.242.754-.071.36-.442.632-.862.632h-4.643c-.419 0-.79-.271-.861-.633zM2 25.5c0-.552.449-1 1-1h54a1.001 1.001 0 0 1 0 2H3c-.551 0-1-.448-1-1zm5 13.515V42.5c0 3.385-.814 11.465-4.261 13.519C3.664 53.579 5 48.941 5 42.5v-14h8.067C9.386 30.635 7 34.615 7 39.015zM53 42.5v-3.485c0-4.399-2.386-8.38-6.067-10.515H55v14c0 6.439 1.335 11.077 2.261 13.517C53.82 53.96 53.002 45.884 53 42.5z"/></svg>