<svg xmlns="http://www.w3.org/2000/svg" viewBox="0 0 60 60" style="enable-background:new 0 0 60 60" xml:space="preserve"><path d="M60 24.5h-5v-1h1a1 1 0 1 0 0-2H46a1 1 0 1 0 0 2h1v1H35.314c.433-.888.686-2.159.686-4 0-1.882-.254-2.517-.703-3.479-.116-.248-.248-.528-.393-.892l-.251-.63H32v-2.586l1.707-1.707a.999.999 0 1 0-1.414-1.414l-.293.294V8.358c1.72-.447 3-1.999 3-3.858v-2h-3v-2h-5v5c0 1.859 1.28 3.411 3 3.858v2.728l-.293-.293a.999.999 0 1 0-1.414 1.414L30 14.914v.586h-2.653l-.251.63a15.15 15.15 0 0 1-.393.892c-.449.961-.703 1.596-.703 3.478 0 1.841.253 3.112.686 4H14v-1h1a1 1 0 1 0 0-2H5a1 1 0 1 0 0 2h1v1H0v6h1.034L2 58.534a1 1 0 0 0 1 .966h2c.525 0 .961-.407.998-.932L7.933 30.5h2.061l15.937 10.142.501-.24s7.25-3.479 14.501-6.969c2.088-1.006 4.171-2.009 6.086-2.933h5.047l1.936 28.068A1 1 0 0 0 55 59.5h2a1 1 0 0 0 .999-.966l.967-28.034H60v-6zm-2 2v2H51.158c2.141-1.037 3.339-1.62 4.003-2H58zm-9-3h4v1h-4v-1zm-16-19a2 2 0 0 1-1 1.731V4.5h1zm-4 1v-3h1v4.731A2 2 0 0 1 29 5.5zm-1 15c0-1.529.162-1.874.515-2.632.054-.115.111-.236.17-.368h4.63c.059.132.116.253.17.368.353.758.515 1.103.515 2.632 0 4-.94 4-3 4s-3 0-3-4zm-20 3h4v1H8v-1zm-2.672 4.031 1.524.969H2v-2h1.709l1.619 1.031zM4.066 57.5h-.1l-.931-27h2.894l-1.863 27zm22.002-19.142L13.72 30.5l-1.429-.909L7.434 26.5h43.265l-.447.217a9899.494 9899.494 0 0 1-24.184 11.641zM56.034 57.5h-.101l-1.862-27h2.894l-.931 27z"/></svg>