<?xml version="1.0" encoding="iso-8859-1"?>
<!-- Generator: Adobe Illustrator 18.0.0, SVG Export Plug-In . SVG Version: 6.00 Build 0)  -->
<!DOCTYPE svg PUBLIC "-//W3C//DTD SVG 1.1//EN" "http://www.w3.org/Graphics/SVG/1.1/DTD/svg11.dtd">
<svg version="1.1" id="Capa_1" xmlns="http://www.w3.org/2000/svg" xmlns:xlink="http://www.w3.org/1999/xlink" x="0px" y="0px"
	 viewBox="0 0 60 60" style="enable-background:new 0 0 60 60;" xml:space="preserve">
<g>
	<path d="M56,13V9h3V1H38h-1H17c-0.553,0-1,0.447-1,1s0.447,1,1,1h20v6h3v4h-1h-2H0v12h2v4h1v3h10v-3h1v-4h23v25v9h23v-9V13H56z
		 M39,7V3h18v4h-1H40H39z M42,9h12v4H42V9z M11,30H5v-1h6V30z M12,27H4v-2h8V27z M14,23H2v-8h35v8H14z M58,57H39v-5h19V57z M39,50
		V25V15h1h16h2v35H39z"/>
	<path d="M5,42c-0.553,0-1,0.447-1,1v1c0,0.553,0.447,1,1,1s1-0.447,1-1v-1C6,42.447,5.553,42,5,42z"/>
	<path d="M5,38c-0.553,0-1,0.447-1,1v1c0,0.553,0.447,1,1,1s1-0.447,1-1v-1C6,38.447,5.553,38,5,38z"/>
	<path d="M5,34c-0.553,0-1,0.447-1,1v1c0,0.553,0.447,1,1,1s1-0.447,1-1v-1C6,34.447,5.553,34,5,34z"/>
	<path d="M5,46c-0.553,0-1,0.447-1,1v1c0,0.553,0.447,1,1,1s1-0.447,1-1v-1C6,46.447,5.553,46,5,46z"/>
	<path d="M5,54c-0.553,0-1,0.447-1,1v1c0,0.553,0.447,1,1,1s1-0.447,1-1v-1C6,54.447,5.553,54,5,54z"/>
	<path d="M5,50c-0.553,0-1,0.447-1,1v1c0,0.553,0.447,1,1,1s1-0.447,1-1v-1C6,50.447,5.553,50,5,50z"/>
	<path d="M8,50c-0.553,0-1,0.447-1,1v1c0,0.553,0.447,1,1,1s1-0.447,1-1v-1C9,50.447,8.553,50,8,50z"/>
	<path d="M8,46c-0.553,0-1,0.447-1,1v1c0,0.553,0.447,1,1,1s1-0.447,1-1v-1C9,46.447,8.553,46,8,46z"/>
	<path d="M8,54c-0.553,0-1,0.447-1,1v1c0,0.553,0.447,1,1,1s1-0.447,1-1v-1C9,54.447,8.553,54,8,54z"/>
	<path d="M8,34c-0.553,0-1,0.447-1,1v1c0,0.553,0.447,1,1,1s1-0.447,1-1v-1C9,34.447,8.553,34,8,34z"/>
	<path d="M8,38c-0.553,0-1,0.447-1,1v1c0,0.553,0.447,1,1,1s1-0.447,1-1v-1C9,38.447,8.553,38,8,38z"/>
	<path d="M8,42c-0.553,0-1,0.447-1,1v1c0,0.553,0.447,1,1,1s1-0.447,1-1v-1C9,42.447,8.553,42,8,42z"/>
	<path d="M11,46c-0.553,0-1,0.447-1,1v1c0,0.553,0.447,1,1,1s1-0.447,1-1v-1C12,46.447,11.553,46,11,46z"/>
	<path d="M11,38c-0.553,0-1,0.447-1,1v1c0,0.553,0.447,1,1,1s1-0.447,1-1v-1C12,38.447,11.553,38,11,38z"/>
	<path d="M11,54c-0.553,0-1,0.447-1,1v1c0,0.553,0.447,1,1,1s1-0.447,1-1v-1C12,54.447,11.553,54,11,54z"/>
	<path d="M11,34c-0.553,0-1,0.447-1,1v1c0,0.553,0.447,1,1,1s1-0.447,1-1v-1C12,34.447,11.553,34,11,34z"/>
	<path d="M11,50c-0.553,0-1,0.447-1,1v1c0,0.553,0.447,1,1,1s1-0.447,1-1v-1C12,50.447,11.553,50,11,50z"/>
	<path d="M11,42c-0.553,0-1,0.447-1,1v1c0,0.553,0.447,1,1,1s1-0.447,1-1v-1C12,42.447,11.553,42,11,42z"/>
</g>
<g>
</g>
<g>
</g>
<g>
</g>
<g>
</g>
<g>
</g>
<g>
</g>
<g>
</g>
<g>
</g>
<g>
</g>
<g>
</g>
<g>
</g>
<g>
</g>
<g>
</g>
<g>
</g>
<g>
</g>
</svg>
