<svg xmlns="http://www.w3.org/2000/svg" viewBox="0 0 60 60" style="enable-background:new 0 0 60 60" xml:space="preserve"><path d="M40 33h-4.184c.112-.314.184-.648.184-1 0-1.654-1.346-3-3-3h-2v-2h23V0H6v27h23v2h-2c-1.654 0-3 1.346-3 3 0 .352.072.686.184 1H2v22h2v5h6v-5h40v5h6v-5h2V33H40zM8 5h44v17H8V5zm44-3v1H8V2h44zM8 24h44v1H8v-1zm18 8a1 1 0 0 1 1-1h6a1 1 0 0 1 0 2h-6a1 1 0 0 1-1-1zm-4 3h16v8H22v-8zM4 35h16v8H4v-8zm4 23H6v-3h2v3zm12-5H4v-8h16v8zm18 0H22v-8h16v8zm16 5h-2v-3h2v3zm2-5H40v-8h16v8zM40 43v-8h16v8H40z"/><path d="M14 38h-4a1 1 0 1 0 0 2h4a1 1 0 1 0 0-2zM10 50h4a1 1 0 1 0 0-2h-4a1 1 0 1 0 0 2zM32 38h-4a1 1 0 1 0 0 2h4a1 1 0 1 0 0-2zM28 50h4a1 1 0 1 0 0-2h-4a1 1 0 1 0 0 2zM50 38h-4a1 1 0 1 0 0 2h4a1 1 0 1 0 0-2zM46 50h4a1 1 0 1 0 0-2h-4a1 1 0 1 0 0 2z"/></svg>