<svg xmlns="http://www.w3.org/2000/svg" viewBox="0 0 60 60" style="enable-background:new 0 0 60 60" xml:space="preserve"><path d="M58 38h2v-5H39v-3h-8v-1h27V0H2v29h27v1h-8v3H0v5h2v14H0v5h2v2a1 1 0 0 0 1 1h3c.334 0 .646-.167.832-.445L8.535 57h42.93l1.703 2.555c.186.278.498.445.832.445h3a1 1 0 0 0 1-1v-2h2v-5h-2V38zM56 2v22H4V2h52zM4 26h52v1H4v-1zm19 6h14v1H23v-1zM2 35h56v1H2v-1zm54 3v6H4v-6h52zM5.465 58H4v-1h2.132l-.667 1zM56 58h-1.465l-.667-1H56v1zm2-3H2v-1h56v1zM4 52v-6h52v6H4z"/><path d="M29 43h2a1 1 0 1 0 0-2h-2a1 1 0 1 0 0 2zM31 47h-2a1 1 0 1 0 0 2h2a1 1 0 1 0 0-2z"/></svg>