<svg xmlns="http://www.w3.org/2000/svg" viewBox="0 0 59 59" style="enable-background:new 0 0 59 59" xml:space="preserve"><path d="M57.5 33H35.316c.112-.314.184-.648.184-1 0-1.654-1.346-3-3-3h-2v-2h23V0h-48v27h23v2h-2c-1.654 0-3 1.346-3 3 0 .352.072.686.184 1H1.5v18h2.876c-.208.727-.263 1.45-.117 2.178.279 1.431-.147 2.646-1.427 4.068l-.077.086A.998.998 0 0 0 3.5 59h.659c1.566 0 3.011-.647 4.179-1.874 1.173-1.23 1.948-2.984 1.887-4.266a3.735 3.735 0 0 1 .374-1.86h37.802a3.74 3.74 0 0 1 .374 1.861c-.062 1.28.714 3.034 1.887 4.265C51.83 58.353 53.274 59 54.841 59h.659a.999.999 0 0 0 .744-1.668l-.078-.087c-1.278-1.421-1.705-2.637-1.411-4.139.137-.683.08-1.389-.128-2.106H57.5V33zM7.5 5h44v17h-44V5zm44-3v1h-44V2h44zm-44 22h44v1h-44v-1zm18 8a1 1 0 0 1 1-1h6a1 1 0 0 1 0 2h-6a1 1 0 0 1-1-1zM8.227 52.957c.026.532-.381 1.787-1.336 2.79a4.276 4.276 0 0 1-1.206.897c.63-1.246.797-2.523.521-3.933-.106-.526-.015-1.091.279-1.711h1.969a5.84 5.84 0 0 0-.227 1.957zm44.55-.162c-.264 1.353-.095 2.609.534 3.849a4.324 4.324 0 0 1-1.202-.896c-.955-1.003-1.362-2.258-1.336-2.789a5.843 5.843 0 0 0-.228-1.958h1.968c.295.622.383 1.199.264 1.794zM55.5 49H3.5V35h52v14z"/><path d="M5.5 47h48V37h-48v10zm46-8v6h-15v-6h15zm-44 0h27v6h-27v-6z"/></svg>