<?xml version="1.0" encoding="iso-8859-1"?>
<!-- Generator: Adobe Illustrator 18.0.0, SVG Export Plug-In . SVG Version: 6.00 Build 0)  -->
<!DOCTYPE svg PUBLIC "-//W3C//DTD SVG 1.1//EN" "http://www.w3.org/Graphics/SVG/1.1/DTD/svg11.dtd">
<svg version="1.1" id="Capa_1" xmlns="http://www.w3.org/2000/svg" xmlns:xlink="http://www.w3.org/1999/xlink" x="0px" y="0px"
	 viewBox="0 0 60 60" style="enable-background:new 0 0 60 60;" xml:space="preserve">
<g>
	<path d="M57.31,44.5c1.62-1.075,2.69-2.914,2.69-5c0-3.309-2.691-6-6-6H39v-3h-8v-1h27v-29H2v29h27v1h-8v3h-2h-2h-2h-2H9H6
		c-3.309,0-6,2.691-6,6c0,2.086,1.071,3.925,2.69,5C1.071,45.575,0,47.414,0,49.5c0,3.309,2.691,6,6,6h1v4h6v-4h11h1h12h1h9v4h6v-4
		h1h1v-0.09c2.833-0.478,5-2.942,5-5.91C60,47.414,58.929,45.575,57.31,44.5z M56,2.5v22H4v-22H56z M4,26.5h52v1H4V26.5z M54,35.5
		c2.206,0,4,1.794,4,4s-1.794,4-4,4H44v-6H26v6h-3v-8h16H54z M42,43.5H28v-4h14V43.5z M23,32.5h14v1H23V32.5z M21,35.5v8h-2v-8H21z
		 M17,35.5v8h-2v-8H17z M13,35.5v8h-2v-8H13z M2,39.5c0-2.206,1.794-4,4-4h3v8H6C3.794,43.5,2,41.706,2,39.5z M11,57.5H9v-2h2V57.5z
		 M13,53.5H9v-4h13v4H13z M27,53.5v-5h8v5H27z M51,57.5h-2v-2h2V57.5z M47,53.5h-7v-4h13v4H47z M55,53.358V47.5H38v6h-1v-7H25v7h-1
		v-6H7v6H6c-2.206,0-4-1.794-4-4s1.794-4,4-4h3h4h2h2h2h4h3h18h10c2.206,0,4,1.794,4,4C58,51.359,56.72,52.911,55,53.358z"/>
	<circle cx="39" cy="41.5" r="1"/>
	<circle cx="11" cy="51.5" r="1"/>
	<circle cx="42" cy="51.5" r="1"/>
	<circle cx="33" cy="50.5" r="1"/>
</g>
<g>
</g>
<g>
</g>
<g>
</g>
<g>
</g>
<g>
</g>
<g>
</g>
<g>
</g>
<g>
</g>
<g>
</g>
<g>
</g>
<g>
</g>
<g>
</g>
<g>
</g>
<g>
</g>
<g>
</g>
</svg>
