<?xml version="1.0" encoding="iso-8859-1"?>
<!-- Generator: Adobe Illustrator 18.0.0, SVG Export Plug-In . SVG Version: 6.00 Build 0)  -->
<!DOCTYPE svg PUBLIC "-//W3C//DTD SVG 1.1//EN" "http://www.w3.org/Graphics/SVG/1.1/DTD/svg11.dtd">
<svg version="1.1" id="Capa_1" xmlns="http://www.w3.org/2000/svg" xmlns:xlink="http://www.w3.org/1999/xlink" x="0px" y="0px"
	 viewBox="0 0 60 60" style="enable-background:new 0 0 60 60;" xml:space="preserve">
<g>
	<path d="M60,38v-5H35.816C35.928,32.686,36,32.352,36,32c0-1.654-1.346-3-3-3h-2v-2h23V0H6v27h23v2h-2c-1.654,0-3,1.346-3,3
		c0,0.352,0.072,0.686,0.184,1H0v5h2v14H0v5h2v2c0,0.553,0.447,1,1,1h3c0.334,0,0.646-0.167,0.832-0.445L8.535,57h42.93l1.703,2.555
		C53.354,59.833,53.666,60,54,60h3c0.553,0,1-0.447,1-1v-2h2v-5h-2V38H60z M8,5h44v17H8V5z M52,2v1H8V2H52z M8,24h44v1H8V24z M26,32
		c0-0.552,0.448-1,1-1h6c0.552,0,1,0.448,1,1s-0.448,1-1,1h-6C26.448,33,26,32.552,26,32z M2,35h25h6h25v1h-1H3H2V35z M23,52v-6h1v6
		H23z M8,46h1v6H8V46z M11,46h1v6h-1V46z M14,46h1v6h-1V46z M17,46h1v6h-1V46z M20,46h1v6h-1V46z M24,38v6h-1h-2h-1h-2h-1h-2h-1h-2
		h-1H9H6H4v-6H24z M4,46h2v6H4V46z M5.465,58H4v-1h2.132L5.465,58z M56,58h-1.465l-0.667-1H56V58z M58,55h-1h-5H8H3H2v-1h1h3h3h2h1
		h2h1h2h1h2h1h2h3h31h1V55z M56,52H26v-8v-6h30V52z"/>
	<path d="M30,47c0.553,0,1-0.447,1-1v-2c0-0.553-0.447-1-1-1s-1,0.447-1,1v2C29,46.553,29.447,47,30,47z"/>
</g>
<g>
</g>
<g>
</g>
<g>
</g>
<g>
</g>
<g>
</g>
<g>
</g>
<g>
</g>
<g>
</g>
<g>
</g>
<g>
</g>
<g>
</g>
<g>
</g>
<g>
</g>
<g>
</g>
<g>
</g>
</svg>
