<svg xmlns="http://www.w3.org/2000/svg" viewBox="0 0 60 60" style="enable-background:new 0 0 60 60" xml:space="preserve"><path d="M57.31 44.5a5.995 5.995 0 0 0 2.69-5c0-3.309-2.691-6-6-6H39v-3h-8v-1h27V.5H2v29h27v1h-8v3H6c-3.309 0-6 2.691-6 6a5.997 5.997 0 0 0 2.69 5 5.997 5.997 0 0 0-2.69 5c0 3.309 2.691 6 6 6h1v4h6v-4h34v4h6v-4h2v-.09c2.833-.478 5-2.942 5-5.91a5.997 5.997 0 0 0-2.69-5zM56 2.5v22H4v-22h52zm-52 24h52v1H4v-1zm50 9c2.206 0 4 1.794 4 4s-1.794 4-4 4H44v-6H26v6h-3v-8h31zm-12 8H28v-4h14v4zm-19-11h14v1H23v-1zm-2 3v8h-2v-8h2zm-4 0v8h-2v-8h2zm-4 0v8h-2v-8h2zm-11 4c0-2.206 1.794-4 4-4h3v8H6c-2.206 0-4-1.794-4-4zm9 18H9v-2h2v2zm2-4H9v-4h13v4h-9zm14 0v-5h8v5h-8zm24 4h-2v-2h2v2zm-4-4h-7v-4h13v4h-6zm8-.142V47.5H38v6h-1v-7H25v7h-1v-6H7v6H6c-2.206 0-4-1.794-4-4s1.794-4 4-4h48c2.206 0 4 1.794 4 4 0 1.859-1.28 3.411-3 3.858z"/><circle cx="39" cy="41.5" r="1"/><circle cx="11" cy="51.5" r="1"/><circle cx="42" cy="51.5" r="1"/><circle cx="33" cy="50.5" r="1"/></svg>