<svg xmlns="http://www.w3.org/2000/svg" viewBox="0 0 60 60" style="enable-background:new 0 0 60 60" xml:space="preserve"><path d="M60 38v-5H35.816c.112-.314.184-.648.184-1 0-1.654-1.346-3-3-3h-2v-2h23V0H6v27h23v2h-2c-1.654 0-3 1.346-3 3 0 .352.072.686.184 1H0v5h2v14H0v5h2v2a1 1 0 0 0 1 1h3c.334 0 .646-.167.832-.445L8.535 57h42.93l1.703 2.555c.186.278.498.445.832.445h3a1 1 0 0 0 1-1v-2h2v-5h-2V38h2zM8 5h44v17H8V5zm44-3v1H8V2h44zM8 24h44v1H8v-1zm18 8a1 1 0 0 1 1-1h6a1 1 0 0 1 0 2h-6a1 1 0 0 1-1-1zM2 35h56v1H2v-1zm21 17v-6h1v6h-1zM8 46h1v6H8v-6zm3 0h1v6h-1v-6zm3 0h1v6h-1v-6zm3 0h1v6h-1v-6zm3 0h1v6h-1v-6zm4-8v6H4v-6h20zM4 46h2v6H4v-6zm1.465 12H4v-1h2.132l-.667 1zM56 58h-1.465l-.667-1H56v1zm2-3H2v-1h56v1zm-2-3H26V38h30v14z"/><path d="M30 47a1 1 0 0 0 1-1v-2a1 1 0 1 0-2 0v2a1 1 0 0 0 1 1z"/></svg>