<svg xmlns="http://www.w3.org/2000/svg" viewBox="0 0 58 58" style="enable-background:new 0 0 58 58" xml:space="preserve"><path d="M48 29c0-1.654-1.346-3-3-3h-1V10h1a1 1 0 0 0 1-1V4a1 1 0 0 0-1-1H33V1a1 1 0 0 0-1-1h-6a1 1 0 0 0-1 1v2H13a1 1 0 0 0-1 1v5a1 1 0 0 0 1 1h1v16h-1c-1.654 0-3 1.346-3 3 0 1.302.839 2.402 2 2.816v7.223C12 45.083 16.917 50 22.96 50H23v7a1 1 0 0 0 1 1h10a1 1 0 0 0 1-1v-7h.04C41.083 50 46 45.083 46 39.039v-7.223A2.996 2.996 0 0 0 48 29zM27 2h4v1h-4V2zM14 5h30v3H14V5zm2 5h26v16H16V10zm17 46h-8v-6h8v6zm11-16.961C44 43.98 39.98 48 35.04 48H22.96C18.02 48 14 43.98 14 39.039V32h30v7.039zM45 30H13a1.001 1.001 0 0 1 0-2h32a1.001 1.001 0 0 1 0 2z"/></svg>