<svg xmlns="http://www.w3.org/2000/svg" viewBox="0 0 58 58" style="enable-background:new 0 0 58 58" xml:space="preserve"><path d="M52 8h-6a5.006 5.006 0 0 0-4.904 4.046c-4.716.303-8.794 2.944-11.096 6.78v-6.927A5.009 5.009 0 0 0 34 7V1a1 1 0 0 0-1-1h-8a1 1 0 0 0-1 1v6a5.009 5.009 0 0 0 4 4.899v6.927c-2.302-3.836-6.381-6.477-11.096-6.78A5.006 5.006 0 0 0 12 8H6a1 1 0 0 0-1 1v8a1 1 0 0 0 1 1h6a5.006 5.006 0 0 0 4.886-3.955c5.872.432 10.577 5.098 11.063 10.955H20a1 1 0 1 0 0 2c2.06 0 3 0 3 3v2c0 5.103-1.971 6.815-4.058 8.628-.23.201-.459.399-.684.602C16.187 43.093 15 45.715 15 48.424 15 53.704 19.296 58 24.576 58h7.848C37.704 58 42 53.704 42 48.424c0-2.709-1.188-5.331-3.259-7.194-.225-.202-.453-.4-.684-.602C35.971 38.815 34 37.103 34 32v-2c0-3 .94-3 3-3a1 1 0 1 0 0-2h-6.949c.487-5.857 5.191-10.523 11.063-10.955A5.006 5.006 0 0 0 46 18h6a1 1 0 0 0 1-1V9a1 1 0 0 0-1-1zm-40 8H7v-2h3a1 1 0 1 0 0-2H7v-2h5c1.654 0 3 1.346 3 3s-1.346 3-3 3zm14-9V2h2v3a1 1 0 1 0 2 0V2h2v5c0 1.654-1.346 3-3 3s-3-1.346-3-3zm10.745 35.138c.223.193.442.385.658.578C39.054 44.2 40 46.281 40 48.424 40 52.602 36.602 56 32.424 56h-7.848C20.398 56 17 52.602 17 48.424c0-2.143.946-4.224 2.597-5.708.216-.193.436-.385.658-.578C22.479 40.205 25 38.014 25 32v-2c0-1.316-.208-2.285-.552-3h8.104c-.344.715-.552 1.684-.552 3v2c0 6.014 2.521 8.205 4.745 10.138zM46 16c-1.654 0-3-1.346-3-3s1.346-3 3-3h5v2h-3a1 1 0 1 0 0 2h3v2h-5z"/></svg>