<?xml version="1.0" encoding="iso-8859-1"?>
<!-- Generator: Adobe Illustrator 18.0.0, SVG Export Plug-In . SVG Version: 6.00 Build 0)  -->
<!DOCTYPE svg PUBLIC "-//W3C//DTD SVG 1.1//EN" "http://www.w3.org/Graphics/SVG/1.1/DTD/svg11.dtd">
<svg version="1.1" id="Capa_1" xmlns="http://www.w3.org/2000/svg" xmlns:xlink="http://www.w3.org/1999/xlink" x="0px" y="0px"
	 viewBox="0 0 58 58" style="enable-background:new 0 0 58 58;" xml:space="preserve">
<path d="M52,8h-6c-2.43,0-4.456,1.744-4.904,4.046c-4.716,0.303-8.794,2.944-11.096,6.78v-6.927c2.279-0.465,4-2.484,4-4.899V1
	c0-0.553-0.447-1-1-1h-8c-0.553,0-1,0.447-1,1v6c0,2.415,1.721,4.434,4,4.899v6.927c-2.302-3.836-6.381-6.477-11.096-6.78
	C16.456,9.744,14.43,8,12,8H6C5.447,8,5,8.447,5,9v8c0,0.553,0.447,1,1,1h6c2.398,0,4.404-1.699,4.886-3.955
	C22.758,14.477,27.463,19.143,27.949,25H20c-0.553,0-1,0.447-1,1s0.447,1,1,1c2.06,0,3,0,3,3v2c0,5.103-1.971,6.815-4.058,8.628
	c-0.23,0.201-0.459,0.399-0.684,0.602C16.187,43.093,15,45.715,15,48.424C15,53.704,19.296,58,24.576,58h7.848
	C37.704,58,42,53.704,42,48.424c0-2.709-1.188-5.331-3.259-7.194c-0.225-0.202-0.453-0.4-0.684-0.602C35.971,38.815,34,37.103,34,32
	v-2c0-3,0.94-3,3-3c0.553,0,1-0.447,1-1s-0.447-1-1-1h-6.949c0.487-5.857,5.191-10.523,11.063-10.955C41.596,16.301,43.602,18,46,18
	h6c0.553,0,1-0.447,1-1V9C53,8.447,52.553,8,52,8z M12,16H7v-2h3c0.553,0,1-0.447,1-1s-0.447-1-1-1H7v-2h5c1.654,0,3,1.346,3,3
	S13.654,16,12,16z M26,7V2h2v3c0,0.553,0.447,1,1,1s1-0.447,1-1V2h2v5c0,1.654-1.346,3-3,3S26,8.654,26,7z M36.745,42.138
	c0.223,0.193,0.442,0.385,0.658,0.578C39.054,44.2,40,46.281,40,48.424C40,52.602,36.602,56,32.424,56h-7.848
	C20.398,56,17,52.602,17,48.424c0-2.143,0.946-4.224,2.597-5.708c0.216-0.193,0.436-0.385,0.658-0.578
	C22.479,40.205,25,38.014,25,32v-2c0-1.316-0.208-2.285-0.552-3h8.104C32.208,27.715,32,28.684,32,30v2
	C32,38.014,34.521,40.205,36.745,42.138z M46,16c-1.654,0-3-1.346-3-3s1.346-3,3-3h5v2h-3c-0.553,0-1,0.447-1,1s0.447,1,1,1h3v2H46z
	"/>
<g>
</g>
<g>
</g>
<g>
</g>
<g>
</g>
<g>
</g>
<g>
</g>
<g>
</g>
<g>
</g>
<g>
</g>
<g>
</g>
<g>
</g>
<g>
</g>
<g>
</g>
<g>
</g>
<g>
</g>
</svg>
