<svg xmlns="http://www.w3.org/2000/svg" viewBox="0 0 60.007 60.007" style="enable-background:new 0 0 60.007 60.007" xml:space="preserve"><path d="M27.004 53.007h-14a1 1 0 1 0 0 2h14a1 1 0 1 0 0-2zM27.004 49.007h-14a1 1 0 1 0 0 2h14a1 1 0 1 0 0-2zM20.004 23.007c-5.514 0-10 4.935-10 11s4.486 11 10 11 10-4.935 10-11-4.486-11-10-11zm0 20c-4.411 0-8-4.037-8-9s3.589-9 8-9 8 4.037 8 9-3.589 9-8 9z"/><path d="M20.004 27.007c-2.206 0-4 1.794-4 4s1.794 4 4 4 4-1.794 4-4-1.795-4-4-4zm0 6c-1.103 0-2-.897-2-2s.897-2 2-2 2 .897 2 2-.897 2-2 2z"/><path d="M59.004 58.007h-1v-3h-4v-4h-2V26.593l3.028-3.028a13.468 13.468 0 0 0 3.972-9.589V5.901c0-1.886-.912-3.61-2.438-4.612C54.25-.232 51.648-.414 49.425.784a6.501 6.501 0 0 0-3.421 5.724v17.601l-10 10v-.101c0-6.7-4.144-12.443-10-14.822v-1.178c0-3.309-2.691-6-6-6s-6 2.691-6 6v1.178a16.07 16.07 0 0 0-8.946 9.159C1.938 30.128.004 33.4.004 37.008c0 3.155 1.494 6.087 4 7.975v15.025h6v-2h20v2h6V42.594l10-10v18.414h-2v4h-4v3h-1a1 1 0 1 0 0 2h20a1 1 0 1 0 0-2.001zm-9-24h-2v-2h2v2zm3-25V12.319c0 1.617-.351 3.204-1 4.667V6.507a.5.5 0 0 1 1 0v2.5zm4 4.969c0 3.088-1.203 5.991-3.386 8.175l-1.614 1.614v-2.953a13.57 13.57 0 0 0 3-8.493v-1.312h2v2.969zm-9-7.469c0-1.655.909-3.174 2.371-3.964 1.554-.839 3.411-.687 5.093.417.948.622 1.536 1.749 1.536 2.94v3.106h-2v-2.5c0-1.379-1.122-2.5-2.5-2.5s-2.5 1.121-2.5 2.5v23.5h-2V6.507zm-32 12.02v-.52c0-2.206 1.794-4 4-4s4 1.794 4 4v.52c-.081-.021-.163-.036-.244-.056-.246-.06-.49-.122-.74-.169a16.024 16.024 0 0 0-1.615-.223c-.467-.042-.934-.071-1.402-.071s-.935.029-1.402.071a16.105 16.105 0 0 0-1.615.223c-.25.048-.494.11-.74.169-.08.02-.162.034-.242.056zm-14 18.48c0-2.092.808-4.049 2.204-5.512-.023.144-.033.288-.053.432-.028.214-.059.426-.078.643-.044.478-.073.957-.073 1.437v8.29a7.979 7.979 0 0 1-2-5.29zm4 21v-8h2v8h-2zm28 0h-2v-8h2v8zm0-10h-4v8h-20v-8h-4v-14c0-.432.026-.857.065-1.279.021-.227.056-.453.089-.679.025-.174.049-.349.08-.521.055-.3.12-.599.196-.896l.061-.237c.091-.337.193-.673.31-1.007a14.047 14.047 0 0 1 8.57-8.578c.341-.12.685-.224 1.03-.317l.193-.05c.319-.081.639-.151.96-.208.121-.021.244-.038.367-.056.282-.043.563-.084.846-.11.218-.019.44-.024.661-.033.383-.016.766-.016 1.149 0 .221.009.443.014.661.033.282.026.564.066.846.11.122.018.246.035.367.056.321.058.641.128.959.208l.193.05c.345.093.689.197 1.03.317 5.448 1.918 9.369 7.101 9.369 13.197V48.007zm2-11.071 10-10v2.829l-10 10v-2.829zm12-.929h2v15h-2v-15zm-2 17h6v2h-6v-2zm-4 5v-1h14v1h-14z"/></svg>