<?xml version="1.0" encoding="iso-8859-1"?>
<!-- Generator: Adobe Illustrator 18.0.0, SVG Export Plug-In . SVG Version: 6.00 Build 0)  -->
<!DOCTYPE svg PUBLIC "-//W3C//DTD SVG 1.1//EN" "http://www.w3.org/Graphics/SVG/1.1/DTD/svg11.dtd">
<svg version="1.1" id="Capa_1" xmlns="http://www.w3.org/2000/svg" xmlns:xlink="http://www.w3.org/1999/xlink" x="0px" y="0px"
	 viewBox="0 0 60 60" style="enable-background:new 0 0 60 60;" xml:space="preserve">
<path d="M60,35.452h-3v-2c0-0.553-0.447-1-1-1h-6c-0.553,0-1,0.447-1,1v2H36.349l5.657-5.656c0.619,0.455,1.347,0.695,2.082,0.695
	c0.904,0,1.808-0.344,2.496-1.031l1.156-1.156c0.489-0.49,1.202-0.679,1.899-0.507c1.513,0.376,2.626,0.223,3.308-0.458l2.788-2.788
	c1.376-1.376,1.376-3.614,0-4.99L43.755,7.58c-1.374-1.375-3.613-1.375-4.989,0l-2.788,2.788c-0.679,0.679-0.833,1.791-0.459,3.308
	c0.173,0.699-0.016,1.409-0.506,1.899l-1.157,1.157c-1.242,1.242-1.352,3.181-0.351,4.56l-14.904,14.16H11v-2c0-0.553-0.447-1-1-1H4
	c-0.553,0-1,0.447-1,1v2H0v15h3v2c0,0.553,0.447,1,1,1h6c0.553,0,1-0.447,1-1v-2h38v2c0,0.553,0.447,1,1,1h6c0.553,0,1-0.447,1-1v-2
	h3V35.452z M35.27,18.146l1.157-1.157c0.99-0.989,1.376-2.408,1.033-3.793c-0.273-1.11-0.069-1.412-0.068-1.414l2.788-2.788
	c0.298-0.298,0.689-0.446,1.081-0.446c0.391,0,0.782,0.148,1.08,0.446l11.98,11.98c0.596,0.596,0.596,1.566,0,2.162l-2.787,2.787
	c-0.057,0.047-0.454,0.169-1.414-0.068c-1.388-0.344-2.804,0.044-3.794,1.033l-1.156,1.157c-0.596,0.596-1.566,0.596-2.162,0
	l-0.333-0.333l-7.071-7.071l-0.334-0.334C34.674,19.711,34.674,18.742,35.27,18.146z M2,48.452v-11h1v11H2z M9,51.452H5v-1v-15v-1h4
	v2v13V51.452z M11,48.452v-11h5.586l-1.293,1.293c-0.391,0.391-0.391,1.023,0,1.414c0.195,0.195,0.451,0.293,0.707,0.293
	s0.512-0.098,0.707-0.293l3-3v0l15.172-14.414l5.675,5.675l-7.326,7.325c-0.073,0.073-0.132,0.156-0.178,0.244l-2.756,2.756
	c-0.391,0.391-0.391,1.023,0,1.414c0.195,0.195,0.451,0.293,0.707,0.293s0.512-0.098,0.707-0.293l2.707-2.707H49v11H11z M55,51.452
	h-4v-2v-13v-2h4v1v15V51.452z M58,48.452h-1v-11h1V48.452z"/>
<g>
</g>
<g>
</g>
<g>
</g>
<g>
</g>
<g>
</g>
<g>
</g>
<g>
</g>
<g>
</g>
<g>
</g>
<g>
</g>
<g>
</g>
<g>
</g>
<g>
</g>
<g>
</g>
<g>
</g>
</svg>
