<svg xmlns="http://www.w3.org/2000/svg" viewBox="0 0 60 60" style="enable-background:new 0 0 60 60" xml:space="preserve"><path d="M60 35.452h-3v-2a1 1 0 0 0-1-1h-6a1 1 0 0 0-1 1v2H36.349l5.657-5.656a3.516 3.516 0 0 0 2.082.695c.904 0 1.808-.344 2.496-1.031l1.156-1.156c.489-.49 1.202-.679 1.899-.507 1.513.376 2.626.223 3.308-.458l2.788-2.788a3.532 3.532 0 0 0 0-4.99L43.755 7.58a3.533 3.533 0 0 0-4.989 0l-2.788 2.788c-.679.679-.833 1.791-.459 3.308.173.699-.016 1.409-.506 1.899l-1.157 1.157a3.524 3.524 0 0 0-.351 4.56l-14.904 14.16H11v-2a1 1 0 0 0-1-1H4a1 1 0 0 0-1 1v2H0v15h3v2a1 1 0 0 0 1 1h6a1 1 0 0 0 1-1v-2h38v2a1 1 0 0 0 1 1h6a1 1 0 0 0 1-1v-2h3v-15zM35.27 18.146l1.157-1.157c.99-.989 1.376-2.408 1.033-3.793-.273-1.11-.069-1.412-.068-1.414l2.788-2.788a1.522 1.522 0 0 1 1.081-.446c.391 0 .782.148 1.08.446l11.98 11.98a1.53 1.53 0 0 1 0 2.162l-2.787 2.787c-.057.047-.454.169-1.414-.068-1.388-.344-2.804.044-3.794 1.033l-1.156 1.157a1.53 1.53 0 0 1-2.162 0l-.333-.333-7.071-7.071-.334-.334a1.53 1.53 0 0 1 0-2.161zM2 48.452v-11h1v11H2zm7 3H5v-17h4v17zm2-3v-11h5.586l-1.293 1.293a.999.999 0 1 0 1.414 1.414l3-3 15.172-14.414 5.675 5.675-7.326 7.325a.998.998 0 0 0-.178.244l-2.756 2.756a.999.999 0 1 0 1.414 1.414l2.707-2.707H49v11H11zm44 3h-4v-17h4v17zm3-3h-1v-11h1v11z"/></svg>