<svg xmlns="http://www.w3.org/2000/svg" viewBox="0 0 60 60" style="enable-background:new 0 0 60 60" xml:space="preserve"><path d="M60 38.5h-3v-2a1 1 0 0 0-1-1h-6a1 1 0 0 0-1 1v2h-3v-5a1 1 0 0 0-1-1h-2v-2a1 1 0 0 0-1-1h-6v-7a1 1 0 0 0-1-1h-2v-7h1v2a1 1 0 0 0 1 1h7.254A5.753 5.753 0 0 0 48 11.754V7.246A5.753 5.753 0 0 0 42.254 1.5H37c-1.48 0-2.925.583-4 1.598V1.5a1 1 0 0 0-1-1h-4a1 1 0 0 0-1 1v1.598A5.864 5.864 0 0 0 23 1.5h-5.254A5.753 5.753 0 0 0 12 7.246v4.508a5.753 5.753 0 0 0 5.746 5.746H25a1 1 0 0 0 1-1v-2h1v7h-2a1 1 0 0 0-1 1v7h-6a1 1 0 0 0-1 1v2h-2a1 1 0 0 0-1 1v5h-3v-2a1 1 0 0 0-1-1H4a1 1 0 0 0-1 1v2H0v18h3v2a1 1 0 0 0 1 1h6a1 1 0 0 0 1-1v-2h38v2a1 1 0 0 0 1 1h6a1 1 0 0 0 1-1v-2h3v-18zm-29-36v1.848c-.034.009-.067.022-.101.031a3.793 3.793 0 0 1-.273.058c-.201.034-.404.06-.609.061h-.033a3.763 3.763 0 0 1-.609-.061 3.793 3.793 0 0 1-.273-.058c-.035-.008-.068-.022-.102-.031V2.5h2zm-6 10a1 1 0 0 0-1 1v2h-6.254A3.751 3.751 0 0 1 14 11.754V7.246A3.751 3.751 0 0 1 17.746 3.5H23c1.008 0 1.994.408 2.707 1.121l.172.172a5.872 5.872 0 0 0 3.455 1.664l.063.01c.199.021.401.033.603.033s.404-.012.604-.033c.021-.002.042-.007.063-.01a5.87 5.87 0 0 0 3.454-1.664l.172-.172A3.853 3.853 0 0 1 37 3.5h5.254A3.751 3.751 0 0 1 46 7.246v4.508a3.751 3.751 0 0 1-3.746 3.746H36v-2a1 1 0 0 0-1-1H25zm4 2h2v7h-2v-7zm-3 9h8v6h-8v-6zm-7 8h22v1H19v-1zm-3 3h28v4H16v-4zm-14 20v-14h1v14H2zm7 3H5v-20h4v20zm2-3v-14h38v14H11zm44 3h-4v-20h4v20zm3-3h-1v-14h1v14z"/></svg>