<?xml version="1.0" encoding="iso-8859-1"?>
<!-- Generator: Adobe Illustrator 18.0.0, SVG Export Plug-In . SVG Version: 6.00 Build 0)  -->
<!DOCTYPE svg PUBLIC "-//W3C//DTD SVG 1.1//EN" "http://www.w3.org/Graphics/SVG/1.1/DTD/svg11.dtd">
<svg version="1.1" id="Capa_1" xmlns="http://www.w3.org/2000/svg" xmlns:xlink="http://www.w3.org/1999/xlink" x="0px" y="0px"
	 viewBox="0 0 60 60" style="enable-background:new 0 0 60 60;" xml:space="preserve">
<path d="M60,38.5h-3v-2c0-0.553-0.447-1-1-1h-6c-0.553,0-1,0.447-1,1v2h-3v-5c0-0.553-0.447-1-1-1h-2v-2c0-0.553-0.447-1-1-1h-6v-7
	c0-0.553-0.447-1-1-1h-2v-7h1v2c0,0.553,0.447,1,1,1h7.254c3.168,0,5.746-2.578,5.746-5.746V7.246C48,4.078,45.422,1.5,42.254,1.5
	H37c-1.48,0-2.925,0.583-4,1.598V1.5c0-0.553-0.447-1-1-1h-4c-0.553,0-1,0.447-1,1v1.598C25.925,2.083,24.48,1.5,23,1.5h-5.254
	C14.578,1.5,12,4.078,12,7.246v4.508c0,3.168,2.578,5.746,5.746,5.746H25c0.553,0,1-0.447,1-1v-2h1v7h-2c-0.553,0-1,0.447-1,1v7h-6
	c-0.553,0-1,0.447-1,1v2h-2c-0.553,0-1,0.447-1,1v5h-3v-2c0-0.553-0.447-1-1-1H4c-0.553,0-1,0.447-1,1v2H0v18h3v2
	c0,0.553,0.447,1,1,1h6c0.553,0,1-0.447,1-1v-2h38v2c0,0.553,0.447,1,1,1h6c0.553,0,1-0.447,1-1v-2h3V38.5z M31,2.5v1.848
	c-0.034,0.009-0.067,0.022-0.101,0.031c-0.091,0.023-0.182,0.042-0.273,0.058c-0.201,0.034-0.404,0.06-0.609,0.061
	c-0.011,0-0.022,0-0.033,0c-0.205-0.001-0.408-0.027-0.609-0.061c-0.091-0.016-0.182-0.035-0.273-0.058
	C29.067,4.371,29.034,4.357,29,4.348V2.5H31z M25,12.5c-0.553,0-1,0.447-1,1v2h-6.254C15.681,15.5,14,13.819,14,11.754V7.246
	C14,5.181,15.681,3.5,17.746,3.5H23c1.008,0,1.994,0.408,2.707,1.121l0.172,0.172c0.927,0.927,2.159,1.512,3.455,1.664
	c0.021,0.003,0.042,0.007,0.063,0.01C29.596,6.488,29.798,6.5,30,6.5s0.404-0.012,0.604-0.033c0.021-0.002,0.042-0.007,0.063-0.01
	c1.296-0.152,2.527-0.737,3.454-1.664l0.172-0.172C35.006,3.908,35.992,3.5,37,3.5h5.254C44.319,3.5,46,5.181,46,7.246v4.508
	c0,2.065-1.681,3.746-3.746,3.746H36v-2c0-0.553-0.447-1-1-1h-3h-4H25z M29,14.5h2v7h-2V14.5z M26,23.5h2h4h2v6h-8V23.5z M19,31.5h6
	h10h6v1H19V31.5z M16,34.5h2h24h2v4H16V34.5z M2,54.5v-14h1v14H2z M9,57.5H5v-1v-18v-1h4V57.5z M11,54.5v-14h4h30h4v14H11z M55,57.5
	h-4v-1v-18v-1h4v1v18V57.5z M58,54.5h-1v-14h1V54.5z"/>
<g>
</g>
<g>
</g>
<g>
</g>
<g>
</g>
<g>
</g>
<g>
</g>
<g>
</g>
<g>
</g>
<g>
</g>
<g>
</g>
<g>
</g>
<g>
</g>
<g>
</g>
<g>
</g>
<g>
</g>
</svg>
