<svg xmlns="http://www.w3.org/2000/svg" viewBox="0 0 57.004 57.004" style="enable-background:new 0 0 57.004 57.004" xml:space="preserve"><path d="M57 23.002v-19H.004v19H0v9h.004v5H0v9h.004v7h57v-30H57zm-54.996 16h4v5h-4v-5zm6 0h9v5h-9v-5zm-6-14h4v5h-4v-5zm22 7h9v5h-9v-5zm11 0h9v5h-9v-5zm11 0H55v5h-8.996v-5zm6-2v-5H55v5h-2.996zm-2 0h-9v-5h9v5zm-11 0h-9v-5h9v5zm-11 0h-9v-5h9v5zm-11 0h-9v-5h9v5zm-4 2h9v5h-9v-5zm6 7h9v5h-9v-5zm11 0h9v5h-9v-5zm11 0h9v5h-9v-5zm11 0H55v5h-2.996v-5zm-50-33H55v17H2.004v-17zm0 26h9v5h-9v-5zm0 19v-5h9v5h-9zm11 0v-5h9v5h-9zm11 0v-5h9v5h-9zm11 0v-5h9v5h-9zm11 0v-5H55v5h-8.996z"/><path d="M5.004 15.002a.997.997 0 0 0 .707-.293l5-5a.999.999 0 1 0-1.414-1.414l-5 5a.999.999 0 0 0 .707 1.707zM18.711 7.295a.999.999 0 0 0-1.414 0l-13 13a.999.999 0 1 0 1.414 1.414l13-13a.999.999 0 0 0 0-1.414z"/></svg>