<svg xmlns="http://www.w3.org/2000/svg" viewBox="0 0 60 60" style="enable-background:new 0 0 60 60" xml:space="preserve"><path d="M3 0v6h2v2h3v44H5v8h8v-2h34v2h8v-8h-3V8h3V6h2V0H3zm7 8h19v44H10V8zm43 46v4h-4v-2H11v2H7v-4h46zm-3-2H31V8h19v44zm5-48h-2v2H7V4H5V2h50v2z"/><path d="M11 51h17V39H11v12zm2-10h13v8H13v-8zM49 51V39H32v12h17zM34 41h13v8H34v-8zM19 9h-8v8h8V9zm-2 6h-4v-4h4v4zM20 9v8h8V9h-8zm6 6h-4v-4h4v4zM19 18h-8v8h8v-8zm-2 6h-4v-4h4v4zM20 26h8v-8h-8v8zm2-6h4v4h-4v-4zM19 27h-8v8h8v-8zm-2 6h-4v-4h4v4zM20 35h8v-8h-8v8zm2-6h4v4h-4v-4zM40 9h-8v8h8V9zm-2 6h-4v-4h4v4zM49 9h-8v8h8V9zm-2 6h-4v-4h4v4zM40 18h-8v8h8v-8zm-2 6h-4v-4h4v4zM49 18h-8v8h8v-8zm-2 6h-4v-4h4v4zM40 27h-8v8h8v-8zm-2 6h-4v-4h4v4zM49 27h-8v8h8v-8zm-2 6h-4v-4h4v4zM27 36h-2a1 1 0 1 0 0 2h2a1 1 0 1 0 0-2zM33 38h2a1 1 0 1 0 0-2h-2a1 1 0 1 0 0 2z"/></svg>