<svg xmlns="http://www.w3.org/2000/svg" viewBox="0 0 60 60" style="enable-background:new 0 0 60 60" xml:space="preserve"><path d="M20 32a1 1 0 0 0 1-1v-5a1 1 0 1 0-2 0v5a1 1 0 0 0 1 1z"/><path d="M59 5.172 48.522 3.185C47.684 1.259 45.823 0 43.687 0H6.313A5.32 5.32 0 0 0 1 5.313V56h2v4h4.618l2-4h32.764l2 4H49v-6.051l10 2.307V5.172zM6.382 58H5v-2h2.382l-1 2zM47 58h-1.382l-1-2H47v2zm-5.618-4H3V5.313A3.316 3.316 0 0 1 6.313 2h37.374c1.02 0 1.943.461 2.553 1.22-.025.009-.047.024-.072.034-.06.024-.116.054-.174.081a3.351 3.351 0 0 0-.893.604c-.033.031-.069.056-.1.088A3.442 3.442 0 0 0 42.549 3H7.451A3.455 3.455 0 0 0 4 6.451V53h40.884l2.116.488V54h-5.618zM26 51v-5h18v5H26zm13-35a1 1 0 0 0-1 1v1h-1v-1a1 1 0 1 0-2 0v1h-1v-1a1 1 0 1 0-2 0v1h-1v-1a1 1 0 1 0-2 0v1h-3v-3h18v3h-4v-1a1 1 0 0 0-1-1zm-13 4h3v2a1 1 0 1 0 2 0v-2h1v2a1 1 0 1 0 2 0v-2h1v2a1 1 0 1 0 2 0v-2h1v2a1 1 0 1 0 2 0v-2h4v24H26V20zm18-7H26V5h16.549c.8 0 1.451.651 1.451 1.451V13zM24 51H6V6.451C6 5.651 6.651 5 7.451 5H24v46zm33 2.743-8-1.847-3-.692V6.451c0-.187.037-.365.102-.529l.004-.012a1.44 1.44 0 0 1 .272-.43l.014-.018c.114-.122.25-.222.399-.299l.027-.016c.15-.073.315-.118.487-.135l.032-.005.323.092h.216L57 6.828v46.915z"/></svg>