<svg xmlns="http://www.w3.org/2000/svg" viewBox="0 0 60 60" style="enable-background:new 0 0 60 60" xml:space="preserve"><path d="M12 46a1 1 0 0 0-1-1h-1v-5h3V30H5v10h3v5H7a1 1 0 1 0 0 2H1v11h1v1a1 1 0 1 0 2 0v-1h10v1a1 1 0 1 0 2 0v-1h1V47h-6a1 1 0 0 0 1-1zM7 32h4v6H7v-6zm8 17v7H3v-7h12zM21 0v58h2v1a1 1 0 1 0 2 0v-1h31v1a1 1 0 1 0 2 0v-1h1V0H21zm10 20.414L32.586 22h-3.172L31 20.414zM23 15v-2h22v2H23zm24-2h10v9H47v-9zM45 2v9H23V2h22zM35 56c-1.103 0-2-.897-2-2s.897-2 2-2h4a1 1 0 1 0 0-2h-4c-2.206 0-4 1.794-4 4 0 .732.212 1.409.556 2H23V17h7v1.586l-3.706 3.706A1.001 1.001 0 0 0 27 24h8a.996.996 0 0 0 .923-1.382 1.021 1.021 0 0 0-.217-.327L32 18.586V17h13v39H35zm12-21h10v9H47v-9zm10 21H47V46h10v10zm0-23H47v-9h10v9zM47 11V2h10v9H47z"/><path d="M39 47h-7a1 1 0 1 0 0 2h7c1.103 0 2 .897 2 2s-.897 2-2 2h-4a1 1 0 1 0 0 2h4c2.206 0 4-1.794 4-4s-1.794-4-4-4z"/></svg>