<?xml version="1.0" encoding="iso-8859-1"?>
<!-- Generator: Adobe Illustrator 18.0.0, SVG Export Plug-In . SVG Version: 6.00 Build 0)  -->
<!DOCTYPE svg PUBLIC "-//W3C//DTD SVG 1.1//EN" "http://www.w3.org/Graphics/SVG/1.1/DTD/svg11.dtd">
<svg version="1.1" id="Capa_1" xmlns="http://www.w3.org/2000/svg" xmlns:xlink="http://www.w3.org/1999/xlink" x="0px" y="0px"
	 viewBox="0 0 60 60" style="enable-background:new 0 0 60 60;" xml:space="preserve">
<g>
	<path d="M3,0v6h2v2h3v44H5v8h8v-2h34v2h8v-8h-3V8h3V6h2V0H3z M10,8h19v44H10V8z M53,54v4h-4v-2H11v2H7v-4h1h44H53z M50,52H31V8h19
		V52z M55,4h-2v2h-1H8H7V4H5V2h50V4z"/>
	<path d="M11,51h17V39H11V51z M13,41h13v8H13V41z"/>
	<path d="M49,51V39H32v12H49z M34,41h13v8H34V41z"/>
	<path d="M19,9h-8v8h8V9z M17,15h-4v-4h4V15z"/>
	<path d="M20,9v8h8V9H20z M26,15h-4v-4h4V15z"/>
	<path d="M19,18h-8v8h8V18z M17,24h-4v-4h4V24z"/>
	<path d="M20,26h8v-8h-8V26z M22,20h4v4h-4V20z"/>
	<path d="M19,27h-8v8h8V27z M17,33h-4v-4h4V33z"/>
	<path d="M20,35h8v-8h-8V35z M22,29h4v4h-4V29z"/>
	<path d="M40,9h-8v8h8V9z M38,15h-4v-4h4V15z"/>
	<path d="M49,9h-8v8h8V9z M47,15h-4v-4h4V15z"/>
	<path d="M40,18h-8v8h8V18z M38,24h-4v-4h4V24z"/>
	<path d="M49,18h-8v8h8V18z M47,24h-4v-4h4V24z"/>
	<path d="M40,27h-8v8h8V27z M38,33h-4v-4h4V33z"/>
	<path d="M49,27h-8v8h8V27z M47,33h-4v-4h4V33z"/>
	<path d="M27,36h-2c-0.552,0-1,0.447-1,1s0.448,1,1,1h2c0.552,0,1-0.447,1-1S27.552,36,27,36z"/>
	<path d="M33,38h2c0.552,0,1-0.447,1-1s-0.448-1-1-1h-2c-0.552,0-1,0.447-1,1S32.448,38,33,38z"/>
</g>
<g>
</g>
<g>
</g>
<g>
</g>
<g>
</g>
<g>
</g>
<g>
</g>
<g>
</g>
<g>
</g>
<g>
</g>
<g>
</g>
<g>
</g>
<g>
</g>
<g>
</g>
<g>
</g>
<g>
</g>
</svg>
