<svg xmlns="http://www.w3.org/2000/svg" viewBox="0 0 60 60" style="enable-background:new 0 0 60 60" xml:space="preserve"><path d="M49.33 0H10.67A3.674 3.674 0 0 0 7 3.67v52.66A3.674 3.674 0 0 0 10.67 60h38.66A3.674 3.674 0 0 0 53 56.33V3.67A3.674 3.674 0 0 0 49.33 0zm0 2c.921 0 1.67.749 1.67 1.67V12H38V2h11.33zM36 2v10H24V2h12zM9 3.67C9 2.749 9.749 2 10.67 2H22v10H9V3.67zm42 52.66c0 .921-.749 1.67-1.67 1.67H10.67C9.749 58 9 57.251 9 56.33V14h42v42.33z"/><path d="M16 3c-2.206 0-4 1.794-4 4s1.794 4 4 4 4-1.794 4-4-1.794-4-4-4zm0 6c-1.103 0-2-.897-2-2s.897-2 2-2 2 .897 2 2-.897 2-2 2zM44 11c2.206 0 4-1.794 4-4s-1.794-4-4-4-4 1.794-4 4 1.794 4 4 4zm0-6c1.103 0 2 .897 2 2s-.897 2-2 2-2-.897-2-2 .897-2 2-2zM12 36c0 5.402 2.403 10.243 6.184 13.545a.986.986 0 0 0 .382.346A17.916 17.916 0 0 0 30 54c9.925 0 18-8.075 18-18s-8.075-18-18-18-18 8.075-18 18zm34 0c0 8.822-7.178 16-16 16s-16-7.178-16-16 7.178-16 16-16 16 7.178 16 16z"/><path d="M16 36c0 2.66.759 5.14 2.053 7.26.052.19.15.356.294.483.367.55.779 1.065 1.218 1.556l-.027.038.601.598a13.947 13.947 0 0 0 5.651 3.416c.02.006.038.014.058.021.378.117.763.212 1.151.297.068.015.133.036.201.05.36.073.725.123 1.092.167.1.012.196.034.297.044.465.045.936.07 1.411.07.27 0 .533-.025.799-.041.067.015.13.041.201.041.119 0 .229-.03.335-.068C38.43 49.258 44 43.269 44 36c0-7.72-6.28-14-14-14s-14 6.28-14 14zm8.124 7.457A.991.991 0 0 0 25 44a1 1 0 0 0 1-1c0-.156-.043-.3-.107-.432A8.96 8.96 0 0 1 29 42h3c2.516 0 4.918-.675 7.02-1.9a.99.99 0 0 0 .98.9 1 1 0 0 0 1-1c0-.38-.22-.699-.532-.869.472-.361.93-.742 1.357-1.166-.013.08-.022.162-.037.241a12.031 12.031 0 0 1-.263 1.108 10.84 10.84 0 0 1-.366 1.071c-.057.144-.112.288-.174.429a12.99 12.99 0 0 1-.292.606c-.066.13-.129.262-.2.39a12.35 12.35 0 0 1-.38.624c-.067.105-.128.213-.198.315-.196.287-.405.566-.625.834-.012.015-.022.031-.035.046a12.27 12.27 0 0 1-.736.81c-.086.087-.18.167-.268.251-.177.168-.354.335-.541.492-.111.093-.227.179-.341.268-.175.137-.351.272-.534.399-.126.087-.255.169-.384.252-.181.116-.365.229-.552.336a12.37 12.37 0 0 1-1.43.69c-.202.082-.408.155-.616.226-.148.05-.295.101-.445.146a11.16 11.16 0 0 1-.665.171c-.145.034-.289.072-.436.101a11.8 11.8 0 0 1-.757.116c-.127.016-.251.04-.38.052-.387.039-.776.061-1.17.061-.392 0-.779-.022-1.162-.059-.11-.01-.218-.03-.328-.044-.276-.034-.55-.073-.82-.125-.114-.022-.225-.051-.338-.076a11.54 11.54 0 0 1-.789-.203c-.101-.03-.201-.064-.301-.096a12.013 12.013 0 0 1-1.048-.398c-.273-.119-.54-.249-.802-.387-.069-.036-.138-.072-.207-.11-.27-.15-.532-.311-.789-.48-.058-.038-.117-.074-.174-.113-.106-.073-.205-.155-.308-.23a.98.98 0 0 0-.676-.626 9.023 9.023 0 0 1 1.866-1.596zm17.824-8.483a1.634 1.634 0 0 0-.499.411A11.924 11.924 0 0 1 32 40h-3a11.013 11.013 0 0 0-8.202 3.688A11.941 11.941 0 0 1 18 36c0-6.617 5.383-12 12-12 6.27 0 11.425 4.836 11.948 10.974z"/><path d="M21.04 31.555a1 1 0 1 0 1.791.89A7.959 7.959 0 0 1 30 28a1 1 0 1 0 0-2 9.95 9.95 0 0 0-8.96 5.555z"/><circle cx="21" cy="35" r="1"/><circle cx="28" cy="46" r="1"/><circle cx="31" cy="43" r="1"/><circle cx="37" cy="43" r="1"/><circle cx="34" cy="46" r="1"/></svg>