<svg xmlns="http://www.w3.org/2000/svg" viewBox="0 0 60 60" style="enable-background:new 0 0 60 60" xml:space="preserve"><path d="M49.33 0H10.67A3.674 3.674 0 0 0 7 3.67v52.66A3.674 3.674 0 0 0 10.67 60h38.66A3.674 3.674 0 0 0 53 56.33V3.67A3.674 3.674 0 0 0 49.33 0zm0 2c.921 0 1.67.749 1.67 1.67V12H25V2h24.33zM9 3.67C9 2.749 9.749 2 10.67 2H23v10H9V3.67zm42 52.66c0 .921-.749 1.67-1.67 1.67H10.67C9.749 58 9 57.251 9 56.33V56h42v.33zM51 54H9V14h42v40z"/><path d="M31 11c2.206 0 4-1.794 4-4s-1.794-4-4-4-4 1.794-4 4 1.794 4 4 4zm0-6c1.103 0 2 .897 2 2s-.897 2-2 2-2-.897-2-2 .897-2 2-2zM38 5h1a1 1 0 1 0 0-2h-1a1 1 0 1 0 0 2zM42 5h3a1 1 0 1 0 0-2h-3a1 1 0 1 0 0 2zM38 8h1a1 1 0 1 0 0-2h-1a1 1 0 1 0 0 2zM42 8h3a1 1 0 1 0 0-2h-3a1 1 0 1 0 0 2zM38 11h1a1 1 0 1 0 0-2h-1a1 1 0 1 0 0 2zM42 11h3a1 1 0 1 0 0-2h-3a1 1 0 1 0 0 2zM12 34c0 9.925 8.075 18 18 18a17.99 17.99 0 0 0 10.995-3.763l.538.538a2.981 2.981 0 0 0 2.122.877 2.98 2.98 0 0 0 2.121-.877c.565-.564.876-1.318.876-2.121s-.312-1.557-.876-2.121l-.71-.711A17.833 17.833 0 0 0 48 34c0-4.338-1.543-8.322-4.108-11.433a.985.985 0 0 0-.347-.383C40.243 18.403 35.402 16 30 16c-9.925 0-18 8.075-18 18zm25.291 7.705a1.002 1.002 0 0 1 .707-1.707 1 1 0 0 1 .707.292l2.36 2.361 1.395 1.395 1.901 1.901c.188.188.291.438.291.707s-.103.52-.291.707c-.374.375-1.039.375-1.414 0l-3.228-3.228h.001l-2.429-2.428zM30 46a11.92 11.92 0 0 1-7.065-2.322.98.98 0 0 0-.82-.655 11.975 11.975 0 0 1-4.025-7.617A.997.997 0 0 0 20 35a1 1 0 0 0-1-1 .987.987 0 0 0-.96.799c-.017-.265-.04-.529-.04-.799 0-1.425.263-2.787.721-4.056.09.026.18.056.279.056a1 1 0 0 0 1-1 .983.983 0 0 0-.478-.832c.421-.754.925-1.452 1.493-2.095A.993.993 0 0 0 23 26a.993.993 0 0 0-.927-.985 12.015 12.015 0 0 1 2.095-1.493A.983.983 0 0 0 25 24a1 1 0 0 0 1-1c0-.099-.029-.189-.056-.279A11.917 11.917 0 0 1 30 22c.27 0 .534.023.799.041A.985.985 0 0 0 30 23a1 1 0 0 0 2 0 .997.997 0 0 0-.594-.91 11.97 11.97 0 0 1 7.617 4.025.98.98 0 0 0 .655.82 11.92 11.92 0 0 1 1.009 12.509l-.486-.485A.986.986 0 0 0 41 38a1 1 0 0 0-2 0c0 .068.026.127.039.192a3.002 3.002 0 0 0-3.163.684 3 3 0 0 0 0 4.243l.831.83A12.028 12.028 0 0 1 30 46zm0-28c8.822 0 16 7.178 16 16 0 2.977-.823 5.847-2.385 8.372l-1.456-1.456a13.917 13.917 0 0 0 1.765-5.537A.994.994 0 0 0 44 35c0-.054-.022-.1-.031-.152.017-.282.031-.564.031-.848 0-4.858-2.489-9.142-6.257-11.654a.98.98 0 0 0-.483-.294A13.896 13.896 0 0 0 30 20c-7.72 0-14 6.28-14 14 0 2.66.759 5.14 2.053 7.26.052.19.15.356.294.483C20.858 45.511 25.142 48 30 48c.275 0 .549-.02.823-.036.06.011.114.036.177.036a.979.979 0 0 0 .359-.073 14.027 14.027 0 0 0 6.777-2.549l1.423 1.423A15.971 15.971 0 0 1 30 50c-8.822 0-16-7.178-16-16s7.178-16 16-16z"/><circle cx="28" cy="26" r="1"/><circle cx="22" cy="32" r="1"/><circle cx="28" cy="32" r="1"/><circle cx="25" cy="29" r="1"/><circle cx="31" cy="29" r="1"/><circle cx="25" cy="35" r="1"/><circle cx="31" cy="35" r="1"/><circle cx="34" cy="26" r="1"/><circle cx="34" cy="32" r="1"/><circle cx="40" cy="32" r="1"/><circle cx="37" cy="29" r="1"/><circle cx="37" cy="35" r="1"/><circle cx="22" cy="38" r="1"/><circle cx="28" cy="38" r="1"/><circle cx="28" cy="44" r="1"/><circle cx="25" cy="41" r="1"/><circle cx="31" cy="41" r="1"/><circle cx="34" cy="38" r="1"/><circle cx="34" cy="44" r="1"/></svg>