<?xml version="1.0" encoding="iso-8859-1"?>
<!-- Generator: Adobe Illustrator 18.0.0, SVG Export Plug-In . SVG Version: 6.00 Build 0)  -->
<!DOCTYPE svg PUBLIC "-//W3C//DTD SVG 1.1//EN" "http://www.w3.org/Graphics/SVG/1.1/DTD/svg11.dtd">
<svg version="1.1" id="Capa_1" xmlns="http://www.w3.org/2000/svg" xmlns:xlink="http://www.w3.org/1999/xlink" x="0px" y="0px"
	 viewBox="0 0 60 60" style="enable-background:new 0 0 60 60;" xml:space="preserve">
<g>
	<path d="M49.33,0H25H10.67C8.646,0,7,1.646,7,3.67V14v40v2.33C7,58.354,8.646,60,10.67,60h38.66c2.023,0,3.67-1.646,3.67-3.67V54
		V14V3.67C53,1.646,51.354,0,49.33,0z M49.33,2C50.251,2,51,2.749,51,3.67V12H25V2H49.33z M9,3.67C9,2.749,9.749,2,10.67,2H23v10H9
		V3.67z M51,56.33c0,0.921-0.749,1.67-1.67,1.67H10.67C9.749,58,9,57.251,9,56.33V56h42V56.33z M51,54H9V14h16h26V54z"/>
	<path d="M31,11c2.206,0,4-1.794,4-4s-1.794-4-4-4s-4,1.794-4,4S28.794,11,31,11z M31,5c1.103,0,2,0.897,2,2s-0.897,2-2,2
		s-2-0.897-2-2S29.897,5,31,5z"/>
	<path d="M38,5h1c0.552,0,1-0.447,1-1s-0.448-1-1-1h-1c-0.552,0-1,0.447-1,1S37.448,5,38,5z"/>
	<path d="M42,5h3c0.552,0,1-0.447,1-1s-0.448-1-1-1h-3c-0.552,0-1,0.447-1,1S41.448,5,42,5z"/>
	<path d="M38,8h1c0.552,0,1-0.447,1-1s-0.448-1-1-1h-1c-0.552,0-1,0.447-1,1S37.448,8,38,8z"/>
	<path d="M42,8h3c0.552,0,1-0.447,1-1s-0.448-1-1-1h-3c-0.552,0-1,0.447-1,1S41.448,8,42,8z"/>
	<path d="M38,11h1c0.552,0,1-0.447,1-1s-0.448-1-1-1h-1c-0.552,0-1,0.447-1,1S37.448,11,38,11z"/>
	<path d="M42,11h3c0.552,0,1-0.447,1-1s-0.448-1-1-1h-3c-0.552,0-1,0.447-1,1S41.448,11,42,11z"/>
	<path d="M12,34c0,9.925,8.075,18,18,18c3.979,0,7.848-1.33,10.995-3.763l0.538,0.538c0.565,0.565,1.319,0.877,2.122,0.877
		c0.803,0,1.556-0.312,2.121-0.877c0.565-0.564,0.876-1.318,0.876-2.121s-0.312-1.557-0.876-2.121l-0.71-0.711
		C46.988,40.888,48,37.51,48,34c0-4.338-1.543-8.322-4.108-11.433c-0.078-0.16-0.201-0.285-0.347-0.383
		C40.243,18.403,35.402,16,30,16C20.075,16,12,24.075,12,34z M37.291,41.705c-0.39-0.39-0.39-1.025,0-1.415
		c0.195-0.194,0.451-0.292,0.707-0.292s0.512,0.098,0.707,0.292l2.36,2.361l0,0l1.395,1.395l1.901,1.901
		c0.188,0.188,0.291,0.438,0.291,0.707s-0.103,0.52-0.291,0.707c-0.374,0.375-1.039,0.375-1.414,0l-3.228-3.228l0.001,0
		L37.291,41.705z M30,46c-2.643,0-5.08-0.869-7.065-2.322c-0.123-0.356-0.435-0.609-0.82-0.655c-2.183-1.91-3.669-4.59-4.025-7.617
		C18.246,35.755,18.593,36,19,36c0.552,0,1-0.448,1-1s-0.448-1-1-1c-0.481,0-0.864,0.347-0.96,0.799C18.023,34.534,18,34.27,18,34
		c0-1.425,0.263-2.787,0.721-4.056C18.811,29.97,18.901,30,19,30c0.552,0,1-0.448,1-1c0-0.357-0.197-0.655-0.478-0.832
		c0.421-0.754,0.925-1.452,1.493-2.095C21.054,26.589,21.474,27,22,27c0.552,0,1-0.448,1-1c0-0.526-0.411-0.946-0.927-0.985
		c0.643-0.568,1.341-1.072,2.095-1.493C24.345,23.803,24.643,24,25,24c0.552,0,1-0.448,1-1c0-0.099-0.029-0.189-0.056-0.279
		C27.213,22.263,28.575,22,30,22c0.27,0,0.534,0.023,0.799,0.041C30.347,22.136,30,22.519,30,23c0,0.552,0.448,1,1,1s1-0.448,1-1
		c0-0.407-0.245-0.754-0.594-0.91c3.027,0.355,5.707,1.842,7.617,4.025c0.046,0.385,0.299,0.698,0.655,0.82
		C41.131,28.92,42,31.357,42,34c0,1.901-0.451,3.762-1.313,5.444l-0.486-0.485C40.654,38.863,41,38.48,41,38c0-0.552-0.448-1-1-1
		s-1,0.448-1,1c0,0.068,0.026,0.127,0.039,0.192c-1.065-0.393-2.308-0.169-3.163,0.684c-0.438,0.439-0.712,0.98-0.822,1.548
		c-0.183,0.946,0.091,1.964,0.822,2.695l0.831,0.83C34.734,45.278,32.392,46,30,46z M30,18c8.822,0,16,7.178,16,16
		c0,2.977-0.823,5.847-2.385,8.372l-1.456-1.456c0.975-1.708,1.572-3.589,1.765-5.537C43.972,35.262,44,35.135,44,35
		c0-0.054-0.022-0.1-0.031-0.152C43.986,34.566,44,34.284,44,34c0-4.858-2.489-9.142-6.257-11.654
		c-0.127-0.144-0.292-0.241-0.483-0.294C35.14,20.759,32.66,20,30,20c-7.72,0-14,6.28-14,14c0,2.66,0.759,5.14,2.053,7.26
		c0.052,0.19,0.15,0.356,0.294,0.483C20.858,45.511,25.142,48,30,48c0.275,0,0.549-0.02,0.823-0.036C30.883,47.975,30.937,48,31,48
		c0.127,0,0.247-0.029,0.359-0.073c2.439-0.24,4.782-1.122,6.777-2.549l1.423,1.423C36.8,48.865,33.449,50,30,50
		c-8.822,0-16-7.178-16-16S21.178,18,30,18z"/>
	<circle cx="28" cy="26" r="1"/>
	<circle cx="22" cy="32" r="1"/>
	<circle cx="28" cy="32" r="1"/>
	<circle cx="25" cy="29" r="1"/>
	<circle cx="31" cy="29" r="1"/>
	<circle cx="25" cy="35" r="1"/>
	<circle cx="31" cy="35" r="1"/>
	<circle cx="34" cy="26" r="1"/>
	<circle cx="34" cy="32" r="1"/>
	<circle cx="40" cy="32" r="1"/>
	<circle cx="37" cy="29" r="1"/>
	<circle cx="37" cy="35" r="1"/>
	<circle cx="22" cy="38" r="1"/>
	<circle cx="28" cy="38" r="1"/>
	<circle cx="28" cy="44" r="1"/>
	<circle cx="25" cy="41" r="1"/>
	<circle cx="31" cy="41" r="1"/>
	<circle cx="34" cy="38" r="1"/>
	<circle cx="34" cy="44" r="1"/>
</g>
<g>
</g>
<g>
</g>
<g>
</g>
<g>
</g>
<g>
</g>
<g>
</g>
<g>
</g>
<g>
</g>
<g>
</g>
<g>
</g>
<g>
</g>
<g>
</g>
<g>
</g>
<g>
</g>
<g>
</g>
</svg>
