<svg xmlns="http://www.w3.org/2000/svg" viewBox="0 0 60 60" style="enable-background:new 0 0 60 60" xml:space="preserve"><path d="M9.5 0v58.567c0 .79.643 1.433 1.433 1.433h38.135c.79 0 1.433-.643 1.433-1.433V0H9.5zm39 58h-37V48h37v10zm-37-12V2h37v44h-37z"/><path d="M27.5 54h5a1 1 0 1 0 0-2h-5a1 1 0 1 0 0 2zM14.5 44h18V33h-18v11zm2-9h14v7h-14v-7z"/><path d="M17.5 41h5v-5h-5v5zm2-3h1v1h-1v-1zM24.5 41h5v-5h-5v5zm2-3h1v1h-1v-1zM40.5 34c-2.757 0-5 2.243-5 5s2.243 5 5 5 5-2.243 5-5-2.243-5-5-5zm0 8c-1.654 0-3-1.346-3-3s1.346-3 3-3c.462 0 .894.114 1.285.301l-1.992 1.992 1.414 1.414 1.992-1.992c.188.391.301.823.301 1.285 0 1.654-1.346 3-3 3z"/></svg>