<svg xmlns="http://www.w3.org/2000/svg" viewBox="0 0 60 60" style="enable-background:new 0 0 60 60" xml:space="preserve"><path d="M59 9V6h1V0H0v6h1v3h1v42.003L0 51v6h1v3h58v-3h1v-6h-2V9h1zm-2-2h-2.733l-1.745-1H57v1zM7 51.132V8.58l2-1.143 3-1.714v46.123l-1.903-.272L7 51.132zM16 52h-2V5h2v47zM42 7H18V6h24v1zm0 4H18V9h24v2zm0 2v34H18V13h24zM18 49h24v2H18v-2zm26 2V5h2v47h-2v-1zm9 .133-5 .714V5.724l5 2.856v42.553zM2 2h56v2h-8.984l-1.75-1H42v1H18V3h-5.266l-1.75 1H2V2zm5.484 4-1.75 1H3V6h4.484zM5 9v42H4V9h1zm52 49H3v-1h54v1zm1-3H2v-2h3.927l6.932.99c.046.007.094.01.141.01h4l.009-.002L18 54v-1h24v1h5a.969.969 0 0 0 .142-.01l6.931-.99H58v2zm-2-4h-1V9h1v42z"/><path d="M30 22h1.586L34 24.414V26a1 1 0 1 0 2 0v-1.586L38.414 22H40a1 1 0 1 0 0-2h-1.586L36 17.586V16a1 1 0 1 0-2 0v1.586L31.586 20H30a1 1 0 1 0 0 2zm5-2.586L36.586 21 35 22.586 33.414 21 35 19.414z"/><circle cx="38" cy="42.25" r="1"/><circle cx="22.312" cy="36.625" r="1"/><circle cx="32.5" cy="32.25" r="1"/><circle cx="23.312" cy="21" r="1"/></svg>