<svg xmlns="http://www.w3.org/2000/svg" viewBox="0 0 59 59" style="enable-background:new 0 0 59 59" xml:space="preserve"><path d="M57 57h-2v-4h-2V6h2V2h2a1 1 0 1 0 0-2H2a1 1 0 1 0 0 2h2v4h2v47H4v4H2a1 1 0 1 0 0 2h55a1 1 0 1 0 0-2zM6 2h47v2H6V2zm2 4h43v47H8V6zM6 57v-2h47v2H6z"/><path d="M9 52h20V30H9v22zm2-20h16v18H11V32zM9 29h20V7H9v22zm2-20h16v18H11V9zM30 52h20V30H30v22zm2-20h16v18H32V32zM30 29h20V7H30v22zm2-20h16v18H32V9z"/><path d="m14.293 12.293-2 2a.999.999 0 1 0 1.414 1.414l2-2a.999.999 0 1 0-1.414-1.414zM24.293 20.293l-2 2a.999.999 0 1 0 1.414 1.414l2-2a.999.999 0 1 0-1.414-1.414z"/><circle cx="17" cy="11" r="1"/><circle cx="13" cy="11" r="1"/><circle cx="21" cy="25" r="1"/><circle cx="25" cy="25" r="1"/><path d="m35.293 12.293-2 2a.999.999 0 1 0 1.414 1.414l2-2a.999.999 0 1 0-1.414-1.414zM45.293 20.293l-2 2a.999.999 0 1 0 1.414 1.414l2-2a.999.999 0 1 0-1.414-1.414z"/><circle cx="38" cy="11" r="1"/><circle cx="34" cy="11" r="1"/><circle cx="42" cy="25" r="1"/><circle cx="46" cy="25" r="1"/><path d="m35.293 35.293-2 2a.999.999 0 1 0 1.414 1.414l2-2a.999.999 0 1 0-1.414-1.414zM45.293 43.293l-2 2a.999.999 0 1 0 1.414 1.414l2-2a.999.999 0 1 0-1.414-1.414z"/><circle cx="38" cy="34" r="1"/><circle cx="34" cy="34" r="1"/><circle cx="42" cy="48" r="1"/><circle cx="46" cy="48" r="1"/><path d="m14.293 35.293-2 2a.999.999 0 1 0 1.414 1.414l2-2a.999.999 0 1 0-1.414-1.414zM24.293 43.293l-2 2a.999.999 0 1 0 1.414 1.414l2-2a.999.999 0 1 0-1.414-1.414z"/><circle cx="17" cy="34" r="1"/><circle cx="13" cy="34" r="1"/><circle cx="21" cy="48" r="1"/><circle cx="25" cy="48" r="1"/></svg>