<?xml version="1.0" encoding="iso-8859-1"?>
<!-- Generator: Adobe Illustrator 18.0.0, SVG Export Plug-In . SVG Version: 6.00 Build 0)  -->
<!DOCTYPE svg PUBLIC "-//W3C//DTD SVG 1.1//EN" "http://www.w3.org/Graphics/SVG/1.1/DTD/svg11.dtd">
<svg version="1.1" id="Capa_1" xmlns="http://www.w3.org/2000/svg" xmlns:xlink="http://www.w3.org/1999/xlink" x="0px" y="0px"
	 viewBox="0 0 60 60" style="enable-background:new 0 0 60 60;" xml:space="preserve">
<path d="M58,2h1c0.553,0,1-0.447,1-1s-0.447-1-1-1h-1H2H1C0.447,0,0,0.447,0,1s0.447,1,1,1h1v52H0v6h60v-6h-2V2z M4,2h52v52h-1V35
	v-2v-2v-2V3H36.989H33h-6h-3.989H5v26v2v2v2v19H4V2z M30.281,52H31c0.553,0,1-0.447,1-1s-0.447-1-1-1h-1.219H29h-1v-1h10v1h-1
	h-0.781H35c-0.553,0-1,0.447-1,1s0.447,1,1,1h0.719l-0.5,2h-4.438L30.281,52z M33.757,43.828c-0.274,0.113-0.528,0.268-0.756,0.456
	c-0.227-0.188-0.481-0.342-0.758-0.456c-0.275-0.114-0.563-0.186-0.857-0.212c-0.028-0.293-0.099-0.582-0.214-0.859
	c-0.113-0.274-0.268-0.528-0.456-0.756c0.188-0.227,0.342-0.481,0.456-0.758c0.114-0.275,0.186-0.563,0.212-0.857
	c0.293-0.028,0.582-0.099,0.859-0.214c0.275-0.114,0.53-0.269,0.757-0.455c0.227,0.187,0.481,0.341,0.757,0.455
	s0.563,0.186,0.857,0.212c0.028,0.293,0.099,0.582,0.214,0.859c0.113,0.274,0.268,0.528,0.456,0.756
	c-0.188,0.227-0.342,0.481-0.456,0.758c-0.114,0.275-0.186,0.563-0.212,0.857C34.323,43.643,34.034,43.713,33.757,43.828z
	 M37.781,52H40v-5h-6v-0.792c0.101-0.24,0.279-0.432,0.522-0.532c0.263-0.11,0.546-0.102,0.878,0.056
	c0.382,0.183,0.818,0.064,1.118-0.234c0.299-0.299,0.359-0.791,0.178-1.173c-0.122-0.255-0.129-0.54-0.021-0.802
	s0.315-0.458,0.658-0.58c0.399-0.142,0.627-0.532,0.628-0.956c0-0.423-0.306-0.814-0.704-0.956
	c-0.267-0.095-0.474-0.291-0.582-0.553s-0.102-0.547,0.056-0.878c0.182-0.382,0.065-0.819-0.234-1.118
	c-0.299-0.3-0.793-0.358-1.173-0.178c-0.255,0.121-0.541,0.128-0.802,0.021c-0.262-0.108-0.458-0.315-0.553-0.581l-0.027-0.077
	c-0.142-0.399-0.532-0.627-0.956-0.628c-0.423,0-0.814,0.306-0.956,0.704c-0.095,0.267-0.291,0.474-0.553,0.582
	c-0.263,0.108-0.549,0.101-0.878-0.056c-0.384-0.185-0.819-0.064-1.118,0.234s-0.359,0.791-0.178,1.173
	c0.122,0.255,0.129,0.54,0.021,0.802s-0.315,0.458-0.658,0.58c-0.399,0.142-0.627,0.532-0.628,0.956
	c0,0.423,0.306,0.814,0.704,0.956c0.267,0.095,0.474,0.291,0.582,0.553s0.102,0.547-0.056,0.878
	c-0.182,0.382-0.065,0.819,0.234,1.118c0.3,0.3,0.792,0.358,1.173,0.178c0.255-0.122,0.54-0.128,0.802-0.021
	c0.23,0.095,0.399,0.284,0.522,0.557V47h-6v5h2.219l0.5,2H16.644l-4.091-9H14c0.553,0,1-0.447,1-1s-0.447-1-1-1h-0.792
	c1.658-2.103,3.134-4.783,4.408-8h24.768c1.274,3.217,2.75,5.897,4.408,8H46c-0.553,0-1,0.447-1,1s0.447,1,1,1h1.447l-4.091,9
	h-6.075L37.781,52z M7,31h12.031H29V5h2v26h9.969H53v2H41.612H18.388H7V31z M27,5v24h-7.396c2.705-9.933,3.261-20.735,3.37-24H27z
	 M17.53,29H7V5h13.974C20.86,8.313,20.291,19.188,17.53,29z M37.026,5c0.109,3.265,0.665,14.067,3.37,24H33V5H37.026z M53,29H42.47
	c-2.761-9.813-3.33-20.687-3.443-24H53V29z M53,43h-3.567c-1.841-1.936-3.486-4.614-4.899-8H53V43z M15.466,35
	c-1.413,3.386-3.058,6.064-4.899,8H7v-8H15.466z M7,45h3.356l4.091,9H7V45z M49.644,45H53v9h-7.447L49.644,45z M58,58H2v-2h3h12.553
	h11.666h7.563h5.666H55h3V58z"/>
<g>
</g>
<g>
</g>
<g>
</g>
<g>
</g>
<g>
</g>
<g>
</g>
<g>
</g>
<g>
</g>
<g>
</g>
<g>
</g>
<g>
</g>
<g>
</g>
<g>
</g>
<g>
</g>
<g>
</g>
</svg>
