<svg xmlns="http://www.w3.org/2000/svg" viewBox="0 0 60 60" style="enable-background:new 0 0 60 60" xml:space="preserve"><path d="M16 15a.997.997 0 0 0 .707-.293l4-4a.999.999 0 1 0-1.414-1.414l-4 4A.999.999 0 0 0 16 15zM17.293 16.293l-2 2a.999.999 0 1 0 1.414 1.414l2-2a.999.999 0 1 0-1.414-1.414zM19.29 14.29c-.18.189-.29.45-.29.71s.11.52.29.71c.19.18.45.29.71.29.26 0 .52-.11.71-.29.18-.19.29-.45.29-.71s-.11-.521-.29-.71c-.37-.37-1.05-.37-1.42 0zM24.293 9.293l-3 3a.999.999 0 1 0 1.414 1.414l3-3a.999.999 0 1 0-1.414-1.414zM43.293 30.293l-4 4a.999.999 0 1 0 1.414 1.414l4-4a.999.999 0 1 0-1.414-1.414zM42 29a.997.997 0 0 0 .707-.293l2-2a.999.999 0 1 0-1.414-1.414l-2 2A.999.999 0 0 0 42 29zM40 31c.26 0 .52-.11.71-.29.18-.19.29-.45.29-.71s-.11-.521-.29-.71c-.38-.37-1.04-.37-1.42 0-.18.189-.29.45-.29.71s.11.52.29.71c.19.18.45.29.71.29zM38.707 31.293a.999.999 0 0 0-1.414 0l-3 3a.999.999 0 1 0 1.414 1.414l3-3a.999.999 0 0 0 0-1.414z"/><path d="M58 4h1a1 1 0 1 0 0-2h-1V1a1 1 0 1 0-2 0v1h-2V1a1 1 0 1 0-2 0v1h-2V1a1 1 0 1 0-2 0v1H12V1a1 1 0 1 0-2 0v1H8V1a1 1 0 1 0-2 0v1H4V1a1 1 0 1 0-2 0v1H1a1 1 0 1 0 0 2h1v1H0v55h14V46h32v14h14V5h-2V4zM48 4v1H31v15a1 1 0 1 0 0 2v17h15v1H14v-1h15V5H12V4h36zM33 22h2a1 1 0 1 0 0-2h-2V7h13v30H33V22zM14 37V7h13v30H14zM4 58H2V7h2v51zM4 5V4h2v1H4zm4 53H6V7h2v51zM8 5V4h2v1H8zm4 53h-2V7h2v51zm2-14v-2h32v2H14zm36 14h-2V7h2v51zm0-53V4h2v1h-2zm4 53h-2V7h2v51zm4 0h-2V7h2v51zM54 5V4h2v1h-2z"/></svg>