<svg xmlns="http://www.w3.org/2000/svg" viewBox="0 0 60 60" style="enable-background:new 0 0 60 60" xml:space="preserve"><path d="M59 9V6h1V0H0v6h1v3h1v42H0v6h1v3h58v-3h1v-6h-2V9h1zM2 2h56v2H2V2zm55 4v1H3V6h54zM10 32V12h40v20H10zm34 5a.989.989 0 0 1-.292.706l-.294.293v.415a.995.995 0 0 1-1 1H42l-.293.293a1.02 1.02 0 0 1-1.413 0L40 39.414h-.415a.991.991 0 0 1-.707-.293.991.991 0 0 1-.293-.707v-.415l-.294-.293a1.008 1.008 0 0 1-.216-1.088l.004-.006a.983.983 0 0 1 .209-.312l.005-.007.293-.292v-.415a.995.995 0 0 1 1-1H40l.293-.293a1.02 1.02 0 0 1 1.413 0l.294.293h.415c.267 0 .519.104.707.293.189.188.293.44.293.707v.415l.293.292c.002.001.003.005.005.007.09.091.161.197.209.312l.004.006c.048.12.074.249.074.382zm2.279 9H35.721l-.333-1h11.226l-.335 1zm-9.666-7.183c.086.648.381 1.247.852 1.718s1.07.766 1.718.853c.258.198.545.35.849.453-.009.054-.032.103-.032.159v1h-7.387l1.667 5h1.044l1.2 3H7V37h29c0 .666.215 1.299.613 1.817zM37.477 48h7.046l-1.2 3h-4.646l-1.2-3zm9.2 0h1.044l1.667-5H42v-1c0-.056-.023-.105-.032-.159.305-.103.591-.255.849-.453a2.983 2.983 0 0 0 1.719-.853c.47-.471.765-1.069.851-1.718A2.968 2.968 0 0 0 46 37h7v14h-7.523l1.2-3zM53 35h-7.643c-.011-.058-.032-.113-.047-.17-.016-.061-.031-.123-.05-.182-.029-.089-.066-.174-.103-.26-.025-.056-.046-.114-.074-.168-.039-.076-.085-.147-.131-.219H52V10H8v24h29.048c-.045.072-.092.144-.131.22-.028.054-.049.111-.074.167a2.798 2.798 0 0 0-.104.262c-.019.059-.034.12-.05.181-.015.057-.036.113-.047.171H7V9h46v26zM4 9h1v42H4V9zm53 49H3v-1h54v1zm1-3H2v-2h56v2zm-2-4h-1V9h1v42z"/><circle cx="41" cy="37" r="1"/><path d="M14 20a.997.997 0 0 0 .707-.293l4-4a.999.999 0 1 0-1.414-1.414l-4 4A.999.999 0 0 0 14 20zM15.293 21.293l-2 2a.999.999 0 1 0 1.414 1.414l2-2a.999.999 0 1 0-1.414-1.414zM17.29 19.29c-.18.189-.29.439-.29.71 0 .26.11.52.29.71.19.18.45.29.71.29.26 0 .52-.11.71-.29.18-.19.29-.45.29-.71s-.11-.521-.29-.71c-.37-.37-1.05-.37-1.42 0zM22.293 14.293l-3 3a.999.999 0 1 0 1.414 1.414l3-3a.999.999 0 1 0-1.414-1.414z"/></svg>