<svg xmlns="http://www.w3.org/2000/svg" viewBox="0 0 60 60" style="enable-background:new 0 0 60 60" xml:space="preserve"><path d="M59 .5H1a1 1 0 1 0 0 2v57h11v-15h36v15h11v-57a1 1 0 1 0 0-2zm-11 2v2H12v-2h36zm0 37H12v-2h36v2zm-17-4h-2v-29h2v29zm-4 0H12v-29h15v29zm6 0v-29h15v29H33zm-27 22H3v-55h3v55zm4 0H8v-55h2v55zm2-15v-1h36v1H12zm40 15h-2v-55h2v55zm5 0h-3v-55h3v55z"/><path d="M15 13.5a.997.997 0 0 0 .707-.293l4-4a.999.999 0 1 0-1.414-1.414l-4 4A.999.999 0 0 0 15 13.5zM15 18.5a.997.997 0 0 0 .707-.293l2-2a.999.999 0 1 0-1.414-1.414l-2 2A.999.999 0 0 0 15 18.5zM19.71 14.21c.18-.19.29-.45.29-.71s-.11-.521-.29-.71c-.37-.37-1.05-.37-1.42 0-.18.189-.29.439-.29.71 0 .26.11.52.29.71.19.18.45.29.71.29.26 0 .52-.11.71-.29zM20.293 12.207a.997.997 0 0 0 1.414 0l3-3a.999.999 0 1 0-1.414-1.414l-3 3a.999.999 0 0 0 0 1.414zM23.293 12.793l-9 9a.999.999 0 1 0 1.414 1.414l9-9a.999.999 0 1 0-1.414-1.414zM45.293 28.793l-4 4a.999.999 0 1 0 1.414 1.414l4-4a.999.999 0 1 0-1.414-1.414zM45.293 23.793l-2 2a.999.999 0 1 0 1.414 1.414l2-2a.999.999 0 1 0-1.414-1.414zM41.29 27.79c-.18.189-.29.45-.29.71s.11.52.29.71c.19.18.45.29.71.29.27 0 .52-.11.71-.29.18-.19.29-.45.29-.71s-.11-.521-.29-.71c-.37-.37-1.04-.37-1.42 0zM40.707 29.793a.999.999 0 0 0-1.414 0l-3 3a.999.999 0 1 0 1.414 1.414l3-3a.999.999 0 0 0 0-1.414zM37 29.5a.997.997 0 0 0 .707-.293l9-9a.999.999 0 1 0-1.414-1.414l-9 9A.999.999 0 0 0 37 29.5z"/></svg>