<?xml version="1.0" encoding="iso-8859-1"?>
<!-- Generator: Adobe Illustrator 18.0.0, SVG Export Plug-In . SVG Version: 6.00 Build 0)  -->
<!DOCTYPE svg PUBLIC "-//W3C//DTD SVG 1.1//EN" "http://www.w3.org/Graphics/SVG/1.1/DTD/svg11.dtd">
<svg version="1.1" id="Capa_1" xmlns="http://www.w3.org/2000/svg" xmlns:xlink="http://www.w3.org/1999/xlink" x="0px" y="0px"
	 viewBox="0 0 60 60" style="enable-background:new 0 0 60 60;" xml:space="preserve">
<g>
	<path d="M59,9V6h1V0H0v6h1v3h1v42H0v6h1v3h58v-3h1v-6h-2V9H59z M2,2h56v2H2V2z M57,6v1h-2h-2H7H5H3V6H57z M53,51H7V9h46V51z M4,9h1
		v42H4V9z M57,58H3v-1h54V58z M58,55H2v-2h3h2h46h2h3V55z M56,51h-1V9h1V51z"/>
	<path d="M51,36V11H9v25v13h42V36z M11,13h38v21h-3h-6h-6h-6h-6h-6h-5V13z M30,39c1.103,0,2,0.897,2,2s-0.897,2-2,2s-2-0.897-2-2
		S28.897,39,30,39z M11,47V36h18v1.142c-1.72,0.447-3,1.999-3,3.858c0,2.206,1.794,4,4,4s4-1.794,4-4c0-1.859-1.28-3.411-3-3.858V36
		h18v11H11z"/>
	<circle cx="13" cy="18" r="1"/>
	<circle cx="19" cy="18" r="1"/>
	<circle cx="16" cy="15" r="1"/>
	<circle cx="22" cy="15" r="1"/>
	<circle cx="16" cy="21" r="1"/>
	<circle cx="22" cy="21" r="1"/>
	<circle cx="25" cy="18" r="1"/>
	<circle cx="31" cy="18" r="1"/>
	<circle cx="28" cy="15" r="1"/>
	<circle cx="34" cy="15" r="1"/>
	<circle cx="28" cy="21" r="1"/>
	<circle cx="34" cy="21" r="1"/>
	<circle cx="37" cy="18" r="1"/>
	<circle cx="43" cy="18" r="1"/>
	<circle cx="40" cy="15" r="1"/>
	<circle cx="46" cy="15" r="1"/>
	<circle cx="40" cy="21" r="1"/>
	<circle cx="46" cy="21" r="1"/>
	<circle cx="13" cy="24" r="1"/>
	<circle cx="19" cy="24" r="1"/>
	<circle cx="13" cy="30" r="1"/>
	<circle cx="19" cy="30" r="1"/>
	<circle cx="16" cy="27" r="1"/>
	<circle cx="22" cy="27" r="1"/>
	<circle cx="16" cy="33" r="1"/>
	<circle cx="22" cy="33" r="1"/>
	<circle cx="25" cy="24" r="1"/>
	<circle cx="31" cy="24" r="1"/>
	<circle cx="25" cy="30" r="1"/>
	<circle cx="31" cy="30" r="1"/>
	<circle cx="28" cy="27" r="1"/>
	<circle cx="34" cy="27" r="1"/>
	<circle cx="28" cy="33" r="1"/>
	<circle cx="34" cy="33" r="1"/>
	<circle cx="37" cy="24" r="1"/>
	<circle cx="43" cy="24" r="1"/>
	<circle cx="37" cy="30" r="1"/>
	<circle cx="43" cy="30" r="1"/>
	<circle cx="40" cy="27" r="1"/>
	<circle cx="46" cy="27" r="1"/>
	<circle cx="40" cy="33" r="1"/>
	<circle cx="46" cy="33" r="1"/>
</g>
<g>
</g>
<g>
</g>
<g>
</g>
<g>
</g>
<g>
</g>
<g>
</g>
<g>
</g>
<g>
</g>
<g>
</g>
<g>
</g>
<g>
</g>
<g>
</g>
<g>
</g>
<g>
</g>
<g>
</g>
</svg>
