<svg xmlns="http://www.w3.org/2000/svg" viewBox="0 0 60 60" style="enable-background:new 0 0 60 60" xml:space="preserve"><path d="M60 6V0H0v6h2v48H0v6h60v-6h-2V6h2zM2 2h56v2H2V2zm56 56H2v-2h56v2zm-2-4H4V6h52v48z"/><path d="M29 31H6v21h23V31zm-2 19H8V33h19v17zM54 31H31v21h23V31zm-2 19H33V33h19v17zM54 8H31v21h23V8zm-2 19H33V10h19v17zM29 8H6v21h23V8zm-2 19H8V10h19v17z"/><path d="M10 17a.997.997 0 0 0 .707-.293l4-4a.999.999 0 1 0-1.414-1.414l-4 4A.999.999 0 0 0 10 17zM10 22a.997.997 0 0 0 .707-.293l2-2a.999.999 0 1 0-1.414-1.414l-2 2A.999.999 0 0 0 10 22zM13.29 16.29c-.18.189-.29.45-.29.71s.11.52.29.71c.19.18.45.29.71.29.26 0 .52-.11.71-.29.18-.19.29-.45.29-.71s-.11-.521-.29-.71c-.38-.37-1.04-.37-1.42 0zM15.293 15.707a.997.997 0 0 0 1.414 0l3-3a.999.999 0 1 0-1.414-1.414l-3 3a.999.999 0 0 0 0 1.414zM35 17a.997.997 0 0 0 .707-.293l4-4a.999.999 0 1 0-1.414-1.414l-4 4A.999.999 0 0 0 35 17zM35 22a.997.997 0 0 0 .707-.293l2-2a.999.999 0 1 0-1.414-1.414l-2 2A.999.999 0 0 0 35 22zM38.29 16.29c-.18.189-.29.45-.29.71s.11.52.29.71c.19.18.45.29.71.29.26 0 .52-.11.71-.29.18-.19.29-.45.29-.71s-.11-.521-.29-.71c-.38-.37-1.04-.37-1.42 0zM40.293 15.707a.997.997 0 0 0 1.414 0l3-3a.999.999 0 1 0-1.414-1.414l-3 3a.999.999 0 0 0 0 1.414zM35 40a.997.997 0 0 0 .707-.293l4-4a.999.999 0 1 0-1.414-1.414l-4 4A.999.999 0 0 0 35 40zM35 45a.997.997 0 0 0 .707-.293l2-2a.999.999 0 1 0-1.414-1.414l-2 2A.999.999 0 0 0 35 45zM38.29 39.29c-.18.189-.29.45-.29.71 0 .27.11.52.29.71.19.18.45.29.71.29.26 0 .52-.11.71-.29.18-.19.29-.44.29-.71 0-.26-.11-.521-.29-.71-.38-.37-1.05-.37-1.42 0zM40.293 38.707a.997.997 0 0 0 1.414 0l3-3a.999.999 0 1 0-1.414-1.414l-3 3a.999.999 0 0 0 0 1.414zM10 40a.997.997 0 0 0 .707-.293l4-4a.999.999 0 1 0-1.414-1.414l-4 4A.999.999 0 0 0 10 40zM10 45a.997.997 0 0 0 .707-.293l2-2a.999.999 0 1 0-1.414-1.414l-2 2A.999.999 0 0 0 10 45zM13.29 39.29c-.18.189-.29.45-.29.71 0 .27.11.52.29.71.19.18.45.29.71.29.26 0 .52-.11.71-.29.18-.19.29-.45.29-.71s-.1-.521-.29-.71c-.37-.37-1.04-.37-1.42 0zM15.293 38.707a.997.997 0 0 0 1.414 0l3-3a.999.999 0 1 0-1.414-1.414l-3 3a.999.999 0 0 0 0 1.414z"/></svg>