<svg xmlns="http://www.w3.org/2000/svg" viewBox="0 0 60 60" style="enable-background:new 0 0 60 60" xml:space="preserve"><path d="M59 9V6h1V0H0v6h1v3h1v42H0v6h1v3h58v-3h1v-6h-2V9h1zM2 2h56v2H2V2zm55 4v1H3V6h54zm-4 45H7V9h46v42zM4 9h1v42H4V9zm53 49H3v-1h54v1zm1-3H2v-2h56v2zm-2-4h-1V9h1v42z"/><path d="M51 36V11H9v38h42V36zM11 13h38v21H11V13zm19 26c1.103 0 2 .897 2 2s-.897 2-2 2-2-.897-2-2 .897-2 2-2zm-19 8V36h18v1.142c-1.72.447-3 1.999-3 3.858 0 2.206 1.794 4 4 4s4-1.794 4-4c0-1.859-1.28-3.411-3-3.858V36h18v11H11z"/><circle cx="13" cy="18" r="1"/><circle cx="19" cy="18" r="1"/><circle cx="16" cy="15" r="1"/><circle cx="22" cy="15" r="1"/><circle cx="16" cy="21" r="1"/><circle cx="22" cy="21" r="1"/><circle cx="25" cy="18" r="1"/><circle cx="31" cy="18" r="1"/><circle cx="28" cy="15" r="1"/><circle cx="34" cy="15" r="1"/><circle cx="28" cy="21" r="1"/><circle cx="34" cy="21" r="1"/><circle cx="37" cy="18" r="1"/><circle cx="43" cy="18" r="1"/><circle cx="40" cy="15" r="1"/><circle cx="46" cy="15" r="1"/><circle cx="40" cy="21" r="1"/><circle cx="46" cy="21" r="1"/><circle cx="13" cy="24" r="1"/><circle cx="19" cy="24" r="1"/><circle cx="13" cy="30" r="1"/><circle cx="19" cy="30" r="1"/><circle cx="16" cy="27" r="1"/><circle cx="22" cy="27" r="1"/><circle cx="16" cy="33" r="1"/><circle cx="22" cy="33" r="1"/><circle cx="25" cy="24" r="1"/><circle cx="31" cy="24" r="1"/><circle cx="25" cy="30" r="1"/><circle cx="31" cy="30" r="1"/><circle cx="28" cy="27" r="1"/><circle cx="34" cy="27" r="1"/><circle cx="28" cy="33" r="1"/><circle cx="34" cy="33" r="1"/><circle cx="37" cy="24" r="1"/><circle cx="43" cy="24" r="1"/><circle cx="37" cy="30" r="1"/><circle cx="43" cy="30" r="1"/><circle cx="40" cy="27" r="1"/><circle cx="46" cy="27" r="1"/><circle cx="40" cy="33" r="1"/><circle cx="46" cy="33" r="1"/></svg>