<?xml version="1.0" encoding="iso-8859-1"?>
<!-- Generator: Adobe Illustrator 18.0.0, SVG Export Plug-In . SVG Version: 6.00 Build 0)  -->
<!DOCTYPE svg PUBLIC "-//W3C//DTD SVG 1.1//EN" "http://www.w3.org/Graphics/SVG/1.1/DTD/svg11.dtd">
<svg version="1.1" id="Capa_1" xmlns="http://www.w3.org/2000/svg" xmlns:xlink="http://www.w3.org/1999/xlink" x="0px" y="0px"
	 viewBox="0 0 60 60" style="enable-background:new 0 0 60 60;" xml:space="preserve">
<g>
	<path d="M16,15c0.256,0,0.512-0.098,0.707-0.293l4-4c0.391-0.391,0.391-1.023,0-1.414s-1.023-0.391-1.414,0l-4,4
		c-0.391,0.391-0.391,1.023,0,1.414C15.488,14.902,15.744,15,16,15z"/>
	<path d="M17.293,16.293l-2,2c-0.391,0.391-0.391,1.023,0,1.414C15.488,19.902,15.744,20,16,20s0.512-0.098,0.707-0.293l2-2
		c0.391-0.391,0.391-1.023,0-1.414S17.684,15.902,17.293,16.293z"/>
	<path d="M19.29,14.29C19.11,14.479,19,14.74,19,15s0.11,0.52,0.29,0.71C19.48,15.89,19.74,16,20,16c0.26,0,0.52-0.11,0.71-0.29
		C20.89,15.52,21,15.26,21,15s-0.11-0.521-0.29-0.71C20.34,13.92,19.66,13.92,19.29,14.29z"/>
	<path d="M24.293,9.293l-3,3c-0.391,0.391-0.391,1.023,0,1.414C21.488,13.902,21.744,14,22,14s0.512-0.098,0.707-0.293l3-3
		c0.391-0.391,0.391-1.023,0-1.414S24.684,8.902,24.293,9.293z"/>
	<path d="M43.293,30.293l-4,4c-0.391,0.391-0.391,1.023,0,1.414C39.488,35.902,39.744,36,40,36s0.512-0.098,0.707-0.293l4-4
		c0.391-0.391,0.391-1.023,0-1.414S43.684,29.902,43.293,30.293z"/>
	<path d="M42,29c0.256,0,0.512-0.098,0.707-0.293l2-2c0.391-0.391,0.391-1.023,0-1.414s-1.023-0.391-1.414,0l-2,2
		c-0.391,0.391-0.391,1.023,0,1.414C41.488,28.902,41.744,29,42,29z"/>
	<path d="M40,31c0.26,0,0.52-0.11,0.71-0.29C40.89,30.52,41,30.26,41,30s-0.11-0.521-0.29-0.71c-0.38-0.37-1.04-0.37-1.42,0
		C39.11,29.479,39,29.74,39,30s0.11,0.52,0.29,0.71C39.48,30.89,39.74,31,40,31z"/>
	<path d="M38.707,31.293c-0.391-0.391-1.023-0.391-1.414,0l-3,3c-0.391,0.391-0.391,1.023,0,1.414C34.488,35.902,34.744,36,35,36
		s0.512-0.098,0.707-0.293l3-3C39.098,32.316,39.098,31.684,38.707,31.293z"/>
	<path d="M58,4h1c0.552,0,1-0.447,1-1s-0.448-1-1-1h-1V1c0-0.553-0.448-1-1-1s-1,0.447-1,1v1h-2V1c0-0.553-0.448-1-1-1s-1,0.447-1,1
		v1h-2V1c0-0.553-0.448-1-1-1s-1,0.447-1,1v1H12V1c0-0.553-0.448-1-1-1s-1,0.447-1,1v1H8V1c0-0.553-0.448-1-1-1S6,0.447,6,1v1H4V1
		c0-0.553-0.448-1-1-1S2,0.447,2,1v1H1C0.448,2,0,2.447,0,3s0.448,1,1,1h1v1H0v55h4h2h2h2h4V46h32v14h4h2h2h2h4V5h-2V4z M48,4v1h-2
		H31v15c-0.552,0-1,0.447-1,1s0.448,1,1,1v17h15v1H14v-1h15V5H14h-2V4H48z M33,22h2c0.552,0,1-0.447,1-1s-0.448-1-1-1h-2V7h13v30H33
		V22z M14,37V7h13v30H14z M4,58H2V7h2V58z M4,5V4h2v1H4z M8,58H6V7h2V58z M8,5V4h2v1H8z M12,58h-2V7h2v30v3v2v4V58z M14,44v-2h32v2
		H14z M50,58h-2V46v-4v-2v-3V7h2V58z M50,5V4h2v1H50z M54,58h-2V7h2V58z M58,58h-2V7h2V58z M54,5V4h2v1H54z"/>
</g>
<g>
</g>
<g>
</g>
<g>
</g>
<g>
</g>
<g>
</g>
<g>
</g>
<g>
</g>
<g>
</g>
<g>
</g>
<g>
</g>
<g>
</g>
<g>
</g>
<g>
</g>
<g>
</g>
<g>
</g>
</svg>
