<svg xmlns="http://www.w3.org/2000/svg" viewBox="0 0 59 59" style="enable-background:new 0 0 59 59" xml:space="preserve"><path d="M53.5 53V24c0-13.233-10.767-24-24-24s-24 10.767-24 24v29h-2v6h52v-6h-2zm-46-29c0-12.131 9.869-22 22-22s22 9.869 22 22v29h-44V24zm46 33h-48v-2h48v2z"/><path d="M29.5 3C18.596 3 9.612 11.356 8.601 22H8.5v30h42V22h-.101C49.388 11.356 40.404 3 29.5 3zm18.893 19H31.914l11.212-11.212c2.882 2.972 4.81 6.873 5.267 11.212zM41.664 9.422 29.5 21.586 17.336 9.422C20.634 6.665 24.875 5 29.5 5s8.866 1.665 12.164 4.422zm-25.79 1.366L27.086 22H10.607c.457-4.339 2.385-8.24 5.267-11.212zM10.5 24h18v12h-18V24zm0 26V38h18v12h-18zm38 0h-18V38h18v12zm-18-14V24h18v12h-18z"/><path d="M27.793 17.707a.997.997 0 0 0 1.414 0l2-2a.999.999 0 1 0-1.414-1.414l-2 2a.999.999 0 0 0 0 1.414z"/><circle cx="32.5" cy="13" r="1"/><circle cx="28.5" cy="13" r="1"/><path d="m13.793 27.293-2 2a.999.999 0 1 0 1.414 1.414l2-2a.999.999 0 1 0-1.414-1.414z"/><circle cx="16.5" cy="26" r="1"/><circle cx="12.5" cy="26" r="1"/><path d="m23.793 45.293-2 2a.999.999 0 1 0 1.414 1.414l2-2a.999.999 0 1 0-1.414-1.414z"/><circle cx="26.5" cy="44" r="1"/><circle cx="22.5" cy="44" r="1"/><path d="M42.5 49a.997.997 0 0 0 .707-.293l2-2a.999.999 0 1 0-1.414-1.414l-2 2A.999.999 0 0 0 42.5 49z"/><circle cx="46.5" cy="44" r="1"/><circle cx="42.5" cy="44" r="1"/><path d="m43.793 27.293-2 2a.999.999 0 1 0 1.414 1.414l2-2a.999.999 0 1 0-1.414-1.414z"/><circle cx="46.5" cy="26" r="1"/><circle cx="42.5" cy="26" r="1"/></svg>