<svg xmlns="http://www.w3.org/2000/svg" viewBox="0 0 60 60" style="enable-background:new 0 0 60 60" xml:space="preserve"><path d="M58 2h1a1 1 0 1 0 0-2H1a1 1 0 1 0 0 2h1v52H0v6h60v-6h-2V2zM4 2h52v52h-1V3H5v51H4V2zm26.281 50H31a1 1 0 1 0 0-2h-3v-1h10v1h-3a1 1 0 1 0 0 2h.719l-.5 2h-4.438l-.5-2zm3.476-8.172a2.97 2.97 0 0 0-.756.456 2.941 2.941 0 0 0-1.615-.668 2.975 2.975 0 0 0-.67-1.615 2.941 2.941 0 0 0 .668-1.615A2.975 2.975 0 0 0 33 39.717a2.978 2.978 0 0 0 1.614.667 2.975 2.975 0 0 0 .67 1.615 2.941 2.941 0 0 0-.668 1.615 3.008 3.008 0 0 0-.859.214zM37.781 52H40v-5h-6v-.792a.966.966 0 0 1 .522-.532c.263-.11.546-.102.878.056.382.183.818.064 1.118-.234.299-.299.359-.791.178-1.173-.122-.255-.129-.54-.021-.802s.315-.458.658-.58c.399-.142.627-.532.628-.956 0-.423-.306-.814-.704-.956-.267-.095-.474-.291-.582-.553s-.102-.547.056-.878c.182-.382.065-.819-.234-1.118-.299-.3-.793-.358-1.173-.178a.983.983 0 0 1-.802.021.976.976 0 0 1-.553-.581l-.027-.077c-.142-.399-.532-.627-.956-.628-.423 0-.814.306-.956.704a.975.975 0 0 1-.553.582c-.263.108-.549.101-.878-.056-.384-.185-.819-.064-1.118.234s-.359.791-.178 1.173c.122.255.129.54.021.802s-.315.458-.658.58c-.399.142-.627.532-.628.956 0 .423.306.814.704.956.267.095.474.291.582.553s.102.547-.056.878c-.182.382-.065.819.234 1.118.3.3.792.358 1.173.178a.98.98 0 0 1 .802-.021c.23.095.399.284.522.557V47h-6v5h2.219l.5 2H16.644l-4.091-9H14a1 1 0 1 0 0-2h-.792c1.658-2.103 3.134-4.783 4.408-8h24.768c1.274 3.217 2.75 5.897 4.408 8H46a1 1 0 1 0 0 2h1.447l-4.091 9h-6.075l.5-2zM7 31h22V5h2v26h22v2H7v-2zM27 5v24h-7.396c2.705-9.933 3.261-20.735 3.37-24H27zm-9.47 24H7V5h13.974c-.114 3.313-.683 14.188-3.444 24zM37.026 5c.109 3.265.665 14.067 3.37 24H33V5h4.026zM53 29H42.47c-2.761-9.813-3.33-20.687-3.443-24H53v24zm0 14h-3.567c-1.841-1.936-3.486-4.614-4.899-8H53v8zm-37.534-8c-1.413 3.386-3.058 6.064-4.899 8H7v-8h8.466zM7 45h3.356l4.091 9H7v-9zm42.644 0H53v9h-7.447l4.091-9zM58 58H2v-2H58v2z"/></svg>