<?xml version="1.0" encoding="iso-8859-1"?>
<!-- Generator: Adobe Illustrator 18.0.0, SVG Export Plug-In . SVG Version: 6.00 Build 0)  -->
<!DOCTYPE svg PUBLIC "-//W3C//DTD SVG 1.1//EN" "http://www.w3.org/Graphics/SVG/1.1/DTD/svg11.dtd">
<svg version="1.1" id="Capa_1" xmlns="http://www.w3.org/2000/svg" xmlns:xlink="http://www.w3.org/1999/xlink" x="0px" y="0px"
	 viewBox="0 0 60 60" style="enable-background:new 0 0 60 60;" xml:space="preserve">
<g>
	<path d="M59,9V6h1V0H0v6h1v3h1v42.003L0,51v6h1v3h58v-3h1v-6h-2V9H59z M57,7h-2.733l-1.745-1H57V7z M7,51.132V8.58l2-1.143l3-1.714
		v46.123l-1.903-0.272L7,51.132z M16,52h-2V5h2v1v1v2v4v34v4V52z M42,7H18V6h24V7z M42,11H18V9h24V11z M42,13v34H18V13H42z M18,49
		h24v2H18V49z M44,51v-4V13V9V7V6V5h2v47h-2V51z M53,51.133l-5,0.714V5.724l5,2.856V51.133z M2,2h56v2h-8.984l-1.75-1H47h-4h-1v1H18
		V3h-1h-4h-0.266l-1.75,1H2V2z M7.484,6l-1.75,1H3V6H7.484z M5,9v42H4V9H5z M57,58H3v-1h54V58z M58,55H2v-2h3.927l6.932,0.99
		C12.905,53.997,12.953,54,13,54h4c0.003,0,0.006-0.002,0.009-0.002L18,54v-1h24v1h1h4c0.047,0,0.095-0.003,0.142-0.01L54.073,53H58
		V55z M56,51h-1V9h1V51z"/>
	<path d="M30,22h1.586L34,24.414V26c0,0.553,0.447,1,1,1s1-0.447,1-1v-1.586L38.414,22H40c0.553,0,1-0.447,1-1s-0.447-1-1-1h-1.586
		L36,17.586V16c0-0.553-0.447-1-1-1s-1,0.447-1,1v1.586L31.586,20H30c-0.553,0-1,0.447-1,1S29.447,22,30,22z M35,19.414L36.586,21
		L35,22.586L33.414,21L35,19.414z"/>
	<circle cx="38" cy="42.25" r="1"/>
	<circle cx="22.312" cy="36.625" r="1"/>
	<circle cx="32.5" cy="32.25" r="1"/>
	<circle cx="23.312" cy="21" r="1"/>
</g>
<g>
</g>
<g>
</g>
<g>
</g>
<g>
</g>
<g>
</g>
<g>
</g>
<g>
</g>
<g>
</g>
<g>
</g>
<g>
</g>
<g>
</g>
<g>
</g>
<g>
</g>
<g>
</g>
<g>
</g>
</svg>
