<?xml version="1.0" encoding="iso-8859-1"?>
<!-- Generator: Adobe Illustrator 18.0.0, SVG Export Plug-In . SVG Version: 6.00 Build 0)  -->
<!DOCTYPE svg PUBLIC "-//W3C//DTD SVG 1.1//EN" "http://www.w3.org/Graphics/SVG/1.1/DTD/svg11.dtd">
<svg version="1.1" id="Capa_1" xmlns="http://www.w3.org/2000/svg" xmlns:xlink="http://www.w3.org/1999/xlink" x="0px" y="0px"
	 viewBox="0 0 59 59" style="enable-background:new 0 0 59 59;" xml:space="preserve">
<g>
	<path d="M57,57h-2v-4h-2V6h2V2h2c0.553,0,1-0.447,1-1s-0.447-1-1-1h-2H4H2C1.447,0,1,0.447,1,1s0.447,1,1,1h2v4h2v47H4v4H2
		c-0.553,0-1,0.447-1,1s0.447,1,1,1h2h51h2c0.553,0,1-0.447,1-1S57.553,57,57,57z M6,2h47v2H6V2z M8,6h43v47H8V6z M6,57v-2h47v2H6z"
		/>
	<path d="M9,52h20V30H9V52z M11,32h16v18H11V32z"/>
	<path d="M9,29h20V7H9V29z M11,9h16v18H11V9z"/>
	<path d="M30,52h20V30H30V52z M32,32h16v18H32V32z"/>
	<path d="M30,29h20V7H30V29z M32,9h16v18H32V9z"/>
	<path d="M14.293,12.293l-2,2c-0.391,0.391-0.391,1.023,0,1.414C12.488,15.902,12.744,16,13,16s0.512-0.098,0.707-0.293l2-2
		c0.391-0.391,0.391-1.023,0-1.414S14.684,11.902,14.293,12.293z"/>
	<path d="M24.293,20.293l-2,2c-0.391,0.391-0.391,1.023,0,1.414C22.488,23.902,22.744,24,23,24s0.512-0.098,0.707-0.293l2-2
		c0.391-0.391,0.391-1.023,0-1.414S24.684,19.902,24.293,20.293z"/>
	<circle cx="17" cy="11" r="1"/>
	<circle cx="13" cy="11" r="1"/>
	<circle cx="21" cy="25" r="1"/>
	<circle cx="25" cy="25" r="1"/>
	<path d="M35.293,12.293l-2,2c-0.391,0.391-0.391,1.023,0,1.414C33.488,15.902,33.744,16,34,16s0.512-0.098,0.707-0.293l2-2
		c0.391-0.391,0.391-1.023,0-1.414S35.684,11.902,35.293,12.293z"/>
	<path d="M45.293,20.293l-2,2c-0.391,0.391-0.391,1.023,0,1.414C43.488,23.902,43.744,24,44,24s0.512-0.098,0.707-0.293l2-2
		c0.391-0.391,0.391-1.023,0-1.414S45.684,19.902,45.293,20.293z"/>
	<circle cx="38" cy="11" r="1"/>
	<circle cx="34" cy="11" r="1"/>
	<circle cx="42" cy="25" r="1"/>
	<circle cx="46" cy="25" r="1"/>
	<path d="M35.293,35.293l-2,2c-0.391,0.391-0.391,1.023,0,1.414C33.488,38.902,33.744,39,34,39s0.512-0.098,0.707-0.293l2-2
		c0.391-0.391,0.391-1.023,0-1.414S35.684,34.902,35.293,35.293z"/>
	<path d="M45.293,43.293l-2,2c-0.391,0.391-0.391,1.023,0,1.414C43.488,46.902,43.744,47,44,47s0.512-0.098,0.707-0.293l2-2
		c0.391-0.391,0.391-1.023,0-1.414S45.684,42.902,45.293,43.293z"/>
	<circle cx="38" cy="34" r="1"/>
	<circle cx="34" cy="34" r="1"/>
	<circle cx="42" cy="48" r="1"/>
	<circle cx="46" cy="48" r="1"/>
	<path d="M14.293,35.293l-2,2c-0.391,0.391-0.391,1.023,0,1.414C12.488,38.902,12.744,39,13,39s0.512-0.098,0.707-0.293l2-2
		c0.391-0.391,0.391-1.023,0-1.414S14.684,34.902,14.293,35.293z"/>
	<path d="M24.293,43.293l-2,2c-0.391,0.391-0.391,1.023,0,1.414C22.488,46.902,22.744,47,23,47s0.512-0.098,0.707-0.293l2-2
		c0.391-0.391,0.391-1.023,0-1.414S24.684,42.902,24.293,43.293z"/>
	<circle cx="17" cy="34" r="1"/>
	<circle cx="13" cy="34" r="1"/>
	<circle cx="21" cy="48" r="1"/>
	<circle cx="25" cy="48" r="1"/>
</g>
<g>
</g>
<g>
</g>
<g>
</g>
<g>
</g>
<g>
</g>
<g>
</g>
<g>
</g>
<g>
</g>
<g>
</g>
<g>
</g>
<g>
</g>
<g>
</g>
<g>
</g>
<g>
</g>
<g>
</g>
</svg>
