<svg xmlns="http://www.w3.org/2000/svg" viewBox="0 0 448.084 448.084" style="enable-background:new 0 0 448.084 448.084" xml:space="preserve"><path d="M408.084 96.209H40c-22.056 0-40 17.944-40 40v151.5c0 22.056 17.944 40 40 40h8.5v.166c0 13.233 10.767 24 24 24h15.479c13.233 0 24-10.767 24-24v-.166h224.448v.166c0 13.233 10.767 24 24 24h15.479c13.233 0 24-10.767 24-24v-.166h8.178c22.056 0 40-17.944 40-40v-151.5c0-22.056-17.944-40-40-40zM95.979 327.875c0 4.411-3.589 8-8 8H72.5c-4.411 0-8-3.589-8-8v-.166h31.479v.166zm287.927 0c0 4.411-3.589 8-8 8h-15.479c-4.411 0-8-3.589-8-8v-.166h31.479v.166zm48.178-40.166c0 13.233-10.767 24-24 24H40c-13.233 0-24-10.767-24-24v-151.5c0-13.233 10.767-24 24-24h368.084c13.233 0 24 10.767 24 24v151.5z"/><path d="M408 127.875H40.084a8 8 0 0 0-8 8v152.167a8 8 0 0 0 8 8H408a8 8 0 0 0 8-8V135.875a8 8 0 0 0-8-8zm-8 152.167H48.084V143.875H400v136.167z"/><path d="M79.959 255.875H128a8 8 0 0 0 8-8v-71.75a8 8 0 0 0-16 0v63.75H87.959v-55.75H96a8 8 0 0 0 0-16H79.959a8 8 0 0 0-8 8v71.75a8 8 0 0 0 8 8zM152 255.875h48.042a8 8 0 0 0 8-8v-71.75a8 8 0 0 0-16 0v63.75H160v-55.75h8.042a8 8 0 0 0 0-16H152a8 8 0 0 0-8 8v71.75a8 8 0 0 0 8 8zM224.042 200.212c2.109 0 4.17-.86 5.66-2.351a8.047 8.047 0 0 0 2.34-5.649c0-2.11-.851-4.17-2.34-5.66a8.052 8.052 0 0 0-5.66-2.34c-2.11 0-4.17.85-5.66 2.34s-2.34 3.55-2.34 5.66c0 2.1.85 4.16 2.34 5.649a8.057 8.057 0 0 0 5.66 2.351zM224.042 240.212c2.109 0 4.17-.86 5.66-2.351a8.047 8.047 0 0 0 2.34-5.649c0-2.11-.851-4.17-2.34-5.66a8.052 8.052 0 0 0-5.66-2.34c-2.11 0-4.17.85-5.66 2.34s-2.34 3.55-2.34 5.66c0 2.1.85 4.16 2.34 5.649a8.057 8.057 0 0 0 5.66 2.351zM248.084 255.875h48.041a8 8 0 0 0 8-8v-71.75a8 8 0 0 0-16 0v63.75h-32.041v-55.75h8.041a8 8 0 0 0 0-16h-16.041a8 8 0 0 0-8 8v71.75a8 8 0 0 0 8 8zM320.125 255.875h48.042a8 8 0 0 0 8-8v-71.75a8 8 0 0 0-16 0v63.75h-32.042v-55.75h8.042a8 8 0 0 0 0-16h-16.042a8 8 0 0 0-8 8v71.75a8 8 0 0 0 8 8z"/></svg>