<?xml version="1.0" encoding="iso-8859-1"?>
<!-- Generator: Adobe Illustrator 17.1.0, SVG Export Plug-In . SVG Version: 6.00 Build 0)  -->
<!DOCTYPE svg PUBLIC "-//W3C//DTD SVG 1.1//EN" "http://www.w3.org/Graphics/SVG/1.1/DTD/svg11.dtd">
<svg version="1.1" id="Capa_1" xmlns="http://www.w3.org/2000/svg" xmlns:xlink="http://www.w3.org/1999/xlink" x="0px" y="0px"
	 viewBox="0 0 448.084 448.084" style="enable-background:new 0 0 448.084 448.084;" xml:space="preserve">
<g>
	<path d="M408.084,96.209H40c-22.056,0-40,17.944-40,40v151.5c0,22.056,17.944,40,40,40h8.5v0.166c0,13.233,10.767,24,24,24h15.479
		c13.233,0,24-10.767,24-24v-0.166h224.448v0.166c0,13.233,10.767,24,24,24h15.479c13.233,0,24-10.767,24-24v-0.166h8.178
		c22.056,0,40-17.944,40-40v-151.5C448.084,114.153,430.14,96.209,408.084,96.209z M95.979,327.875c0,4.411-3.589,8-8,8H72.5
		c-4.411,0-8-3.589-8-8v-0.166h31.479V327.875z M383.906,327.875c0,4.411-3.589,8-8,8h-15.479c-4.411,0-8-3.589-8-8v-0.166h31.479
		V327.875z M432.084,287.709c0,13.233-10.767,24-24,24H40c-13.233,0-24-10.767-24-24v-151.5c0-13.233,10.767-24,24-24h368.084
		c13.233,0,24,10.767,24,24V287.709z"/>
	<path d="M408,127.875H40.084c-4.418,0-8,3.582-8,8v152.167c0,4.418,3.582,8,8,8H408c4.418,0,8-3.582,8-8V135.875
		C416,131.457,412.418,127.875,408,127.875z M400,280.042H48.084V143.875H400V280.042z"/>
	<path d="M79.959,255.875H128c4.418,0,8-3.582,8-8v-71.75c0-4.418-3.582-8-8-8s-8,3.582-8,8v63.75H87.959v-55.75H96
		c4.418,0,8-3.582,8-8s-3.582-8-8-8H79.959c-4.418,0-8,3.582-8,8v71.75C71.959,252.293,75.541,255.875,79.959,255.875z"/>
	<path d="M152,255.875h48.042c4.418,0,8-3.582,8-8v-71.75c0-4.418-3.582-8-8-8s-8,3.582-8,8v63.75H160v-55.75h8.042
		c4.418,0,8-3.582,8-8s-3.582-8-8-8H152c-4.418,0-8,3.582-8,8v71.75C144,252.293,147.582,255.875,152,255.875z"/>
	<path d="M224.042,200.212c2.109,0,4.17-0.86,5.66-2.351c1.489-1.489,2.34-3.55,2.34-5.649c0-2.11-0.851-4.17-2.34-5.66
		c-1.49-1.49-3.551-2.34-5.66-2.34c-2.11,0-4.17,0.85-5.66,2.34s-2.34,3.55-2.34,5.66c0,2.1,0.85,4.16,2.34,5.649
		C219.872,199.352,221.932,200.212,224.042,200.212z"/>
	<path d="M224.042,240.212c2.109,0,4.17-0.86,5.66-2.351c1.489-1.489,2.34-3.55,2.34-5.649c0-2.11-0.851-4.17-2.34-5.66
		c-1.49-1.49-3.551-2.34-5.66-2.34c-2.11,0-4.17,0.85-5.66,2.34s-2.34,3.55-2.34,5.66c0,2.1,0.85,4.16,2.34,5.649
		C219.872,239.352,221.932,240.212,224.042,240.212z"/>
	<path d="M248.084,255.875h48.041c4.418,0,8-3.582,8-8v-71.75c0-4.418-3.582-8-8-8s-8,3.582-8,8v63.75h-32.041v-55.75h8.041
		c4.418,0,8-3.582,8-8s-3.582-8-8-8h-16.041c-4.418,0-8,3.582-8,8v71.75C240.084,252.293,243.666,255.875,248.084,255.875z"/>
	<path d="M320.125,255.875h48.042c4.418,0,8-3.582,8-8v-71.75c0-4.418-3.582-8-8-8s-8,3.582-8,8v63.75h-32.042v-55.75h8.042
		c4.418,0,8-3.582,8-8s-3.582-8-8-8h-16.042c-4.418,0-8,3.582-8,8v71.75C312.125,252.293,315.707,255.875,320.125,255.875z"/>
</g>
<g>
</g>
<g>
</g>
<g>
</g>
<g>
</g>
<g>
</g>
<g>
</g>
<g>
</g>
<g>
</g>
<g>
</g>
<g>
</g>
<g>
</g>
<g>
</g>
<g>
</g>
<g>
</g>
<g>
</g>
</svg>
