<?xml version="1.0" encoding="iso-8859-1"?>
<!-- Generator: Adobe Illustrator 17.1.0, SVG Export Plug-In . SVG Version: 6.00 Build 0)  -->
<!DOCTYPE svg PUBLIC "-//W3C//DTD SVG 1.1//EN" "http://www.w3.org/Graphics/SVG/1.1/DTD/svg11.dtd">
<svg version="1.1" id="Capa_1" xmlns="http://www.w3.org/2000/svg" xmlns:xlink="http://www.w3.org/1999/xlink" x="0px" y="0px"
	 viewBox="0 0 434.41 434.41" style="enable-background:new 0 0 434.41 434.41;" xml:space="preserve">
<g>
	<path d="M319.133,132.937c-4.431,0-8.597,1.726-11.73,4.858c-3.133,3.134-4.858,7.3-4.858,11.73c0,4.432,1.726,8.598,4.858,11.731
		c3.134,3.133,7.3,4.858,11.73,4.858c4.432,0,8.598-1.726,11.731-4.858c3.133-3.134,4.858-7.3,4.858-11.731
		c0-4.431-1.726-8.597-4.858-11.73C327.731,134.662,323.565,132.937,319.133,132.937z M319.55,149.943
		c-0.042,0.043-0.172,0.173-0.417,0.173c-0.243,0-0.374-0.13-0.416-0.173c-0.043-0.042-0.173-0.172-0.173-0.417
		c0-0.243,0.13-0.374,0.173-0.416c0.042-0.043,0.173-0.173,0.416-0.173c0.245,0,0.375,0.13,0.417,0.173
		c0.043,0.042,0.173,0.173,0.173,0.416C319.723,149.771,319.593,149.901,319.55,149.943z"/>
	<path d="M433.419,145.668l-8.175-14.853l2.626-16.751c0.426-2.717-0.573-5.461-2.646-7.269l-12.778-11.145l-3.284-16.634
		c-0.402-2.037-1.574-3.807-3.228-4.978l3.842-3.842c3.124-3.125,3.124-8.189,0-11.314c-24.212-24.211-56.402-37.545-90.643-37.545
		c-34.239,0-66.43,13.334-90.642,37.545c-17.212,17.212-28.495,38.143-33.852,60.229l-54.443,54.442
		c-11.013,11.014-14.238,26.901-9.697,40.78L11.697,333.139c-15.596,15.597-15.596,40.973,0,56.569l11.667,11.667
		c7.799,7.798,18.042,11.696,28.285,11.696c10.242,0,20.485-3.898,28.284-11.696l169.713-169.713l8.988,14.912
		c1.418,2.353,3.943,3.813,6.69,3.868l16.955,0.343l13.208,10.636c2.14,1.725,5.015,2.229,7.612,1.337l16.034-5.498l16.033,5.498
		c0.847,0.291,1.723,0.433,2.594,0.433c1.8,0,3.576-0.607,5.019-1.769l13.208-10.636l16.956-0.344
		c2.746-0.056,5.271-1.516,6.689-3.868l8.751-14.518l15.812-6.108c2.56-0.989,4.434-3.221,4.966-5.913l3.284-16.634l12.779-11.145
		c2.072-1.807,3.071-4.552,2.646-7.269l-2.626-16.752l8.175-14.853C434.741,150.982,434.741,148.069,433.419,145.668z
		 M239.806,70.198c21.188-21.19,49.361-32.859,79.327-32.859c27.283,0,53.082,9.675,73.475,27.399l-43.352,43.352
		c-8.698-6.352-19.146-9.781-30.122-9.781c-13.681,0-26.542,5.328-36.216,15.001c-9.673,9.674-15.001,22.535-15.001,36.216
		c0,10.976,3.43,21.424,9.781,30.122l-43.351,43.35C196.144,178.976,197.965,112.039,239.806,70.198z M68.619,390.061
		c-9.357,9.359-24.583,9.357-33.94,0l-11.667-11.667c-9.358-9.357-9.358-24.583,0-33.94L138.804,228.66
		c0.45,0.497,0.913,0.986,1.392,1.465l3.588,3.588c1.563,1.562,3.609,2.343,5.657,2.343s4.095-0.781,5.657-2.343
		c3.124-3.125,3.124-8.189,0-11.314l-3.588-3.588c-4.509-4.508-6.991-10.535-6.991-16.97c0-6.436,2.482-12.463,6.991-16.971
		l39.574-39.574c-1.048,32.022,9.802,64.362,32.556,89.742l-27.951,27.951l-18.428-18.428c-3.125-3.123-8.189-3.123-11.314,0
		c-3.124,3.125-3.124,8.189,0,11.314l18.428,18.428L68.619,390.061z M409.909,162.916c-0.854,1.553-1.169,3.346-0.895,5.097
		l2.365,15.088l-11.51,10.038c-1.336,1.165-2.247,2.74-2.591,4.479l-2.96,14.992l-14.255,5.507
		c-1.656,0.641-3.052,1.813-3.969,3.333l-7.887,13.084l-15.273,0.31c-1.77,0.035-3.477,0.657-4.855,1.767l-11.897,9.58
		l-14.453-4.956c-1.682-0.576-3.508-0.576-5.189,0l-14.454,4.956l-11.897-9.58c-1.379-1.11-3.087-1.732-4.856-1.768l-15.272-0.309
		l-7.887-13.085c-0.461-0.766-1.034-1.42-1.68-1.968l33.74-33.74c3.124-3.125,3.124-8.189,0-11.314
		c-13.731-13.73-13.731-36.072,0-49.803c6.651-6.651,15.495-10.315,24.901-10.315s18.25,3.664,24.901,10.315
		c3.125,3.123,8.189,3.123,11.314,0l38.402-38.402l0.567,0.219l2.96,14.992c0.344,1.738,1.255,3.314,2.591,4.479l11.51,10.038
		l-2.365,15.087c-0.274,1.751,0.04,3.544,0.895,5.097l7.37,13.391L409.909,162.916z"/>
</g>
<g>
</g>
<g>
</g>
<g>
</g>
<g>
</g>
<g>
</g>
<g>
</g>
<g>
</g>
<g>
</g>
<g>
</g>
<g>
</g>
<g>
</g>
<g>
</g>
<g>
</g>
<g>
</g>
<g>
</g>
</svg>
