<svg xmlns="http://www.w3.org/2000/svg" viewBox="0 0 434.41 434.41" style="enable-background:new 0 0 434.41 434.41" xml:space="preserve"><path d="M319.133 132.937a16.484 16.484 0 0 0-11.73 4.858 16.483 16.483 0 0 0-4.858 11.73c0 4.432 1.726 8.598 4.858 11.731a16.483 16.483 0 0 0 11.73 4.858c4.432 0 8.598-1.726 11.731-4.858a16.484 16.484 0 0 0 4.858-11.731c0-4.431-1.726-8.597-4.858-11.73a16.48 16.48 0 0 0-11.731-4.858zm.417 17.006a.557.557 0 0 1-.417.173.559.559 0 0 1-.416-.173.557.557 0 0 1-.173-.417c0-.243.13-.374.173-.416a.559.559 0 0 1 .416-.173c.245 0 .375.13.417.173a.559.559 0 0 1 .173.416c0 .245-.13.375-.173.417z"/><path d="m433.419 145.668-8.175-14.853 2.626-16.751a8 8 0 0 0-2.646-7.269L412.446 95.65l-3.284-16.634a7.996 7.996 0 0 0-3.228-4.978l3.842-3.842a8 8 0 0 0 0-11.314c-24.212-24.211-56.402-37.545-90.643-37.545-34.239 0-66.43 13.334-90.642 37.545-17.212 17.212-28.495 38.143-33.852 60.229l-54.443 54.442c-11.013 11.014-14.238 26.901-9.697 40.78L11.697 333.139c-15.596 15.597-15.596 40.973 0 56.569l11.667 11.667c7.799 7.798 18.042 11.696 28.285 11.696 10.242 0 20.485-3.898 28.284-11.696l169.713-169.713 8.988 14.912a7.996 7.996 0 0 0 6.69 3.868l16.955.343 13.208 10.636a7.993 7.993 0 0 0 7.612 1.337l16.034-5.498 16.033 5.498a8 8 0 0 0 7.613-1.336l13.208-10.636 16.956-.344a8 8 0 0 0 6.689-3.868l8.751-14.518 15.812-6.108a8.002 8.002 0 0 0 4.966-5.913l3.284-16.634 12.779-11.145a8.004 8.004 0 0 0 2.646-7.269l-2.626-16.752 8.175-14.853a7.998 7.998 0 0 0 0-7.714zm-193.613-75.47c21.188-21.19 49.361-32.859 79.327-32.859 27.283 0 53.082 9.675 73.475 27.399l-43.352 43.352c-8.698-6.352-19.146-9.781-30.122-9.781-13.681 0-26.542 5.328-36.216 15.001-9.673 9.674-15.001 22.535-15.001 36.216 0 10.976 3.43 21.424 9.781 30.122l-43.351 43.35c-38.203-44.022-36.382-110.959 5.459-152.8zM68.619 390.061c-9.357 9.359-24.583 9.357-33.94 0l-11.667-11.667c-9.358-9.357-9.358-24.583 0-33.94L138.804 228.66c.45.497.913.986 1.392 1.465l3.588 3.588c1.563 1.562 3.609 2.343 5.657 2.343s4.095-.781 5.657-2.343a8 8 0 0 0 0-11.314l-3.588-3.588c-4.509-4.508-6.991-10.535-6.991-16.97 0-6.436 2.482-12.463 6.991-16.971l39.574-39.574c-1.048 32.022 9.802 64.362 32.556 89.742l-27.951 27.951-18.428-18.428a8 8 0 0 0-11.314 11.314l18.428 18.428L68.619 390.061zm341.29-227.145a8.01 8.01 0 0 0-.895 5.097l2.365 15.088-11.51 10.038a8.002 8.002 0 0 0-2.591 4.479l-2.96 14.992-14.255 5.507a8.012 8.012 0 0 0-3.969 3.333l-7.887 13.084-15.273.31a7.99 7.99 0 0 0-4.855 1.767l-11.897 9.58-14.453-4.956a8.007 8.007 0 0 0-5.189 0l-14.454 4.956-11.897-9.58a8.005 8.005 0 0 0-4.856-1.768l-15.272-.309-7.887-13.085a7.959 7.959 0 0 0-1.68-1.968l33.74-33.74a8 8 0 0 0 0-11.314c-13.731-13.73-13.731-36.072 0-49.803 6.651-6.651 15.495-10.315 24.901-10.315s18.25 3.664 24.901 10.315a8.003 8.003 0 0 0 11.314 0l38.402-38.402.567.219 2.96 14.992a8.005 8.005 0 0 0 2.591 4.479l11.51 10.038-2.365 15.087a8.003 8.003 0 0 0 .895 5.097l7.37 13.391-7.371 13.391z"/></svg>