<?xml version="1.0" encoding="iso-8859-1"?>
<!-- Generator: Adobe Illustrator 17.1.0, SVG Export Plug-In . SVG Version: 6.00 Build 0)  -->
<!DOCTYPE svg PUBLIC "-//W3C//DTD SVG 1.1//EN" "http://www.w3.org/Graphics/SVG/1.1/DTD/svg11.dtd">
<svg version="1.1" id="Capa_1" xmlns="http://www.w3.org/2000/svg" xmlns:xlink="http://www.w3.org/1999/xlink" x="0px" y="0px"
	 viewBox="0 0 412.036 412.036" style="enable-background:new 0 0 412.036 412.036;" xml:space="preserve">
<path d="M337.403,363.988h-55.625V251.287c0.757-0.597,1.494-1.229,2.192-1.927c8.066-8.066,9.34-20.363,3.876-29.798
	c48.799-54.876,65.778-131.171,44.23-202.111c-0.019-0.061-0.047-0.116-0.066-0.176c-0.073-0.222-0.154-0.439-0.245-0.651
	c-0.037-0.087-0.074-0.173-0.114-0.258c-0.115-0.245-0.242-0.482-0.38-0.711c-0.022-0.037-0.041-0.076-0.063-0.112
	c-0.169-0.271-0.354-0.529-0.552-0.775c-0.037-0.046-0.077-0.088-0.115-0.133c-0.163-0.194-0.334-0.379-0.514-0.555
	c-0.063-0.062-0.127-0.122-0.192-0.182c-0.181-0.166-0.369-0.323-0.564-0.472c-0.054-0.041-0.105-0.086-0.16-0.126
	c-0.249-0.18-0.509-0.346-0.777-0.497c-0.056-0.032-0.115-0.058-0.172-0.088c-0.224-0.119-0.453-0.227-0.687-0.324
	c-0.076-0.032-0.153-0.062-0.23-0.091c-0.268-0.102-0.541-0.19-0.82-0.263c-0.021-0.005-0.04-0.014-0.061-0.02
	c-0.006-0.001-0.012-0.002-0.018-0.003c-0.323-0.08-0.651-0.139-0.984-0.179c-0.03-0.004-0.06-0.005-0.09-0.008
	c-0.289-0.031-0.58-0.045-0.874-0.043c-0.06,0-0.12,0.001-0.18,0.002c-0.275,0.007-0.552,0.029-0.829,0.065
	c-0.047,0.006-0.095,0.009-0.142,0.016c-0.306,0.046-0.612,0.105-0.918,0.188L140.546,61.292L81.597,2.343
	C80.096,0.843,78.062,0,75.94,0s-4.156,0.843-5.657,2.343L52.976,19.65c-3.124,3.124-3.124,8.189,0,11.313l58.949,58.95
	L62.701,271.652c0,0.002-0.001,0.004-0.002,0.006l-0.011,0.04c-0.081,0.298-0.139,0.596-0.185,0.894
	c-0.012,0.076-0.017,0.153-0.026,0.229c-0.03,0.243-0.05,0.485-0.057,0.727c-0.003,0.086-0.003,0.171-0.003,0.257
	c0,0.26,0.013,0.517,0.039,0.773c0.006,0.058,0.008,0.116,0.015,0.174c0.039,0.322,0.096,0.64,0.173,0.952
	c0.002,0.009,0.003,0.019,0.005,0.028c0.008,0.032,0.022,0.062,0.03,0.095c0.07,0.263,0.153,0.521,0.249,0.775
	c0.032,0.085,0.065,0.168,0.1,0.252c0.094,0.227,0.199,0.449,0.314,0.666c0.032,0.061,0.061,0.125,0.095,0.185
	c0.15,0.268,0.316,0.526,0.496,0.775c0.038,0.053,0.081,0.102,0.12,0.154c0.151,0.198,0.311,0.389,0.48,0.573
	c0.057,0.062,0.114,0.122,0.173,0.182c0.182,0.185,0.372,0.362,0.572,0.529c0.04,0.033,0.077,0.069,0.117,0.101
	c0.249,0.2,0.51,0.387,0.784,0.558c0.029,0.018,0.06,0.033,0.089,0.051c0.236,0.143,0.48,0.272,0.733,0.391
	c0.083,0.039,0.167,0.075,0.252,0.111c0.211,0.091,0.428,0.172,0.65,0.245c0.061,0.02,0.118,0.049,0.18,0.068
	c11.724,3.561,23.714,6.083,35.852,7.567c0.063,0.007,0.125,0.017,0.187,0.023c8.482,1.029,17.035,1.555,25.622,1.555
	c0.004,0,0.003,0,0.006,0c44.402,0,86.712-13.6,122.184-38.816c4.117,3.028,8.954,4.619,13.84,4.766v107.45h-55.625
	c-13.233,0-24,10.767-24,24v16.047c0,4.418,3.582,7.977,8,7.977c0.208,0,0.415-0.008,0.619-0.024h157.754
	c0.288,0.031,0.581,0.047,0.877,0.047c4.418,0,8-3.582,8-8v-16.047C361.403,374.755,350.636,363.988,337.403,363.988z
	 M128.022,91.683l14.293-14.293l155.222-42.043L85.98,246.905L128.022,91.683z M75.94,19.314l50.912,50.912l-5.994,5.994
	L69.947,25.307L75.94,19.314z M129.747,274.588c-2.327,0-4.65-0.056-6.971-0.138l173.475-173.475c3.124-3.124,3.124-8.189,0-11.313
	c-3.125-3.124-8.189-3.124-11.314,0L101.98,272.618c-5.406-0.771-10.777-1.765-16.1-2.986l234.39-234.39
	c1.231,5.351,2.208,10.724,2.981,16.105l-14.939,14.939c-3.124,3.124-3.124,8.189,0,11.313c1.563,1.562,3.609,2.343,5.657,2.343
	s4.095-0.781,5.657-2.343l5.508-5.508c1.943,53.546-18.187,106.268-57.165,145.246C231.05,254.257,181.961,274.589,129.747,274.588z
	 M275.155,232.665c-0.168,1.964-0.999,3.882-2.499,5.382c-1.74,1.74-4.041,2.576-6.326,2.525
	C269.331,238.025,272.277,235.394,275.155,232.665z M345.403,395.988h-143.25v-8c0-4.411,3.589-8,8-8h127.25c4.411,0,8,3.589,8,8
	V395.988z"/>
<g>
</g>
<g>
</g>
<g>
</g>
<g>
</g>
<g>
</g>
<g>
</g>
<g>
</g>
<g>
</g>
<g>
</g>
<g>
</g>
<g>
</g>
<g>
</g>
<g>
</g>
<g>
</g>
<g>
</g>
</svg>
