<svg xmlns="http://www.w3.org/2000/svg" viewBox="0 0 412.036 412.036" style="enable-background:new 0 0 412.036 412.036" xml:space="preserve"><path d="M337.403 363.988h-55.625V251.287a24.752 24.752 0 0 0 2.192-1.927c8.066-8.066 9.34-20.363 3.876-29.798 48.799-54.876 65.778-131.171 44.23-202.111-.019-.061-.047-.116-.066-.176a7.922 7.922 0 0 0-.739-1.62c-.022-.037-.041-.076-.063-.112a7.923 7.923 0 0 0-.552-.775c-.037-.046-.077-.088-.115-.133a7.726 7.726 0 0 0-.706-.737 8.191 8.191 0 0 0-.564-.472c-.054-.041-.105-.086-.16-.126a8.186 8.186 0 0 0-.777-.497c-.056-.032-.115-.058-.172-.088a7.963 7.963 0 0 0-1.737-.678c-.021-.005-.04-.014-.061-.02l-.018-.003a8.112 8.112 0 0 0-.984-.179c-.03-.004-.06-.005-.09-.008a7.693 7.693 0 0 0-.874-.043l-.18.002a8.02 8.02 0 0 0-.829.065c-.047.006-.095.009-.142.016a8.081 8.081 0 0 0-.918.188L140.546 61.292 81.597 2.343a8.002 8.002 0 0 0-11.314 0L52.976 19.65a8 8 0 0 0 0 11.313l58.949 58.95-49.224 181.739-.002.006-.011.04a8.112 8.112 0 0 0-.185.894c-.012.076-.017.153-.026.229-.03.243-.05.485-.057.727-.003.086-.003.171-.003.257 0 .26.013.517.039.773.006.058.008.116.015.174.039.322.096.64.173.952l.005.028c.008.032.022.062.03.095a8.035 8.035 0 0 0 .663 1.693c.032.061.061.125.095.185.15.268.316.526.496.775.038.053.081.102.12.154a8.177 8.177 0 0 0 .653.755c.182.185.372.362.572.529.04.033.077.069.117.101.249.2.51.387.784.558.029.018.06.033.089.051a7.89 7.89 0 0 0 1.635.747c.061.02.118.049.18.068a211.728 211.728 0 0 0 35.852 7.567c.063.007.125.017.187.023a212.715 212.715 0 0 0 25.622 1.555h.006c44.402 0 86.712-13.6 122.184-38.816a24.567 24.567 0 0 0 13.84 4.766v107.45h-55.625c-13.233 0-24 10.767-24 24v16.047c0 4.418 3.582 7.977 8 7.977.208 0 .415-.008.619-.024h157.754a8 8 0 0 0 8.877-7.953v-16.047c.004-13.233-10.763-24-23.996-24zM128.022 91.683l14.293-14.293 155.222-42.043L85.98 246.905l42.042-155.222zM75.94 19.314l50.912 50.912-5.994 5.994-50.911-50.913 5.993-5.993zm53.807 255.274c-2.327 0-4.65-.056-6.971-.138l173.475-173.475a8 8 0 1 0-11.314-11.313L101.98 272.618a195.403 195.403 0 0 1-16.1-2.986l234.39-234.39a196.26 196.26 0 0 1 2.981 16.105l-14.939 14.939a8 8 0 1 0 11.314 11.313l5.508-5.508c1.943 53.546-18.187 106.268-57.165 145.246-36.919 36.92-86.008 57.252-138.222 57.251zm145.408-41.923a8.638 8.638 0 0 1-8.825 7.907 215.087 215.087 0 0 0 8.825-7.907zm70.248 163.323h-143.25v-8c0-4.411 3.589-8 8-8h127.25c4.411 0 8 3.589 8 8v8z"/></svg>