<?xml version="1.0" encoding="iso-8859-1"?>
<!-- Generator: Adobe Illustrator 17.1.0, SVG Export Plug-In . SVG Version: 6.00 Build 0)  -->
<!DOCTYPE svg PUBLIC "-//W3C//DTD SVG 1.1//EN" "http://www.w3.org/Graphics/SVG/1.1/DTD/svg11.dtd">
<svg version="1.1" id="Capa_1" xmlns="http://www.w3.org/2000/svg" xmlns:xlink="http://www.w3.org/1999/xlink" x="0px" y="0px"
	 viewBox="0 0 455.877 455.877" style="enable-background:new 0 0 455.877 455.877;" xml:space="preserve">
<g>
	<path d="M236.146,48.168H59.979c-11.028,0-20,8.972-20,20v95.938c0,11.028,8.972,20,20,20h176.167c11.028,0,20-8.972,20-20V68.168
		C256.146,57.14,247.174,48.168,236.146,48.168z M240.146,164.105c0,2.168-1.832,4-4,4H195.29l-53.532-53.532
		c-3.125-3.123-8.189-3.123-11.314,0c-3.124,3.125-3.124,8.189,0,11.314l42.218,42.218H59.979c-2.168,0-4-1.832-4-4V68.168
		c0-2.168,1.832-4,4-4h8.745l29.72,29.72c1.563,1.562,3.609,2.343,5.657,2.343s4.095-0.781,5.657-2.343
		c3.124-3.125,3.124-8.189,0-11.314L91.353,64.168h144.793c2.168,0,4,1.832,4,4V164.105z"/>
	<path d="M148.063,208.355c-55.141,0-100,44.859-100,100s44.859,100,100,100s100-44.859,100-100S203.203,208.355,148.063,208.355z
		 M148.063,392.355c-46.317,0-84-37.683-84-84s37.683-84,84-84s84,37.683,84,84S194.38,392.355,148.063,392.355z"/>
	<path d="M178.225,287.126c-4.077,1.7-6.005,6.385-4.305,10.463c1.422,3.409,2.143,7.032,2.143,10.767c0,15.439-12.561,28-28,28
		s-28-12.561-28-28s12.561-28,28-28c3.141,0,6.221,0.514,9.154,1.528c4.179,1.442,8.731-0.772,10.175-4.948
		c1.442-4.176-0.772-8.731-4.948-10.175c-4.619-1.596-9.457-2.405-14.381-2.405c-24.262,0-44,19.738-44,44s19.738,44,44,44
		s44-19.738,44-44c0-5.859-1.136-11.554-3.375-16.925C186.986,287.354,182.305,285.426,178.225,287.126z"/>
	<path d="M415.908,72.82c-22.039,0-39.969,17.93-39.969,39.969c0,12.564,5.992,24.4,15.901,31.899v43.06
		c0,9.682,6.917,17.775,16.067,19.607v40.875c0,8.822-7.178,16-16,16h-40.123V143.713c9.151-1.833,16.067-9.925,16.067-19.607
		v-44.06c9.909-7.499,15.901-19.335,15.901-31.899c0-22.039-17.93-39.969-39.969-39.969s-39.969,17.93-39.969,39.969
		c0,12.565,5.991,24.4,15.9,31.899v44.06c0,9.682,6.917,17.775,16.068,19.607v216.643c0,8.822-7.178,16-16,16h-23.66V47.938
		c0-22.056-17.944-40-40-40H40c-22.056,0-40,17.944-40,40v360c0,22.056,17.944,40,40,40h216.125c22.056,0,40-17.944,40-40v-15.583
		h23.66c17.645,0,32-14.355,32-32V280.23h40.123c17.645,0,32-14.355,32-32v-40.875c9.151-1.832,16.068-9.925,16.068-19.607v-43.06
		c9.909-7.499,15.9-19.334,15.9-31.899C455.877,90.75,437.947,72.82,415.908,72.82z M280.125,407.938c0,13.233-10.767,24-24,24H40
		c-13.233,0-24-10.767-24-24v-360c0-13.233,10.767-24,24-24h216.125c13.233,0,24,10.767,24,24V407.938z M331.745,68.868
		c-7.358-4.287-11.929-12.228-11.929-20.722c0-13.217,10.752-23.969,23.969-23.969s23.969,10.752,23.969,23.969
		c0,8.494-4.571,16.434-11.93,20.722c-2.459,1.434-3.972,4.065-3.972,6.912v48.325c0,2.168-1.832,4-4,4h-8.136c-2.168,0-4-1.832-4-4
		V75.78C335.717,72.934,334.204,70.302,331.745,68.868z M427.948,133.511c-2.459,1.434-3.972,4.065-3.972,6.912v47.325
		c0,2.168-1.832,4-4,4h-8.136c-2.168,0-4-1.832-4-4v-47.325c0-2.847-1.513-5.479-3.972-6.912
		c-7.358-4.288-11.93-12.228-11.93-20.722c0-13.217,10.752-23.969,23.969-23.969s23.969,10.752,23.969,23.969
		C439.877,121.283,435.307,129.224,427.948,133.511z"/>
</g>
<g>
</g>
<g>
</g>
<g>
</g>
<g>
</g>
<g>
</g>
<g>
</g>
<g>
</g>
<g>
</g>
<g>
</g>
<g>
</g>
<g>
</g>
<g>
</g>
<g>
</g>
<g>
</g>
<g>
</g>
</svg>
