<svg xmlns="http://www.w3.org/2000/svg" viewBox="0 0 455.877 455.877" style="enable-background:new 0 0 455.877 455.877" xml:space="preserve"><path d="M236.146 48.168H59.979c-11.028 0-20 8.972-20 20v95.938c0 11.028 8.972 20 20 20h176.167c11.028 0 20-8.972 20-20V68.168c0-11.028-8.972-20-20-20zm4 115.937c0 2.168-1.832 4-4 4H195.29l-53.532-53.532a8 8 0 0 0-11.314 11.314l42.218 42.218H59.979c-2.168 0-4-1.832-4-4V68.168c0-2.168 1.832-4 4-4h8.745l29.72 29.72c1.563 1.562 3.609 2.343 5.657 2.343s4.095-.781 5.657-2.343a8 8 0 0 0 0-11.314L91.353 64.168h144.793c2.168 0 4 1.832 4 4v95.937zM148.063 208.355c-55.141 0-100 44.859-100 100s44.859 100 100 100 100-44.859 100-100-44.86-100-100-100zm0 184c-46.317 0-84-37.683-84-84s37.683-84 84-84 84 37.683 84 84-37.683 84-84 84z"/><path d="M178.225 287.126a8.001 8.001 0 0 0-4.305 10.463 27.822 27.822 0 0 1 2.143 10.767c0 15.439-12.561 28-28 28s-28-12.561-28-28 12.561-28 28-28c3.141 0 6.221.514 9.154 1.528a8 8 0 0 0 5.227-15.123 43.929 43.929 0 0 0-14.381-2.405c-24.262 0-44 19.738-44 44s19.738 44 44 44 44-19.738 44-44a43.761 43.761 0 0 0-3.375-16.925 8.001 8.001 0 0 0-10.463-4.305z"/><path d="M415.908 72.82c-22.039 0-39.969 17.93-39.969 39.969 0 12.564 5.992 24.4 15.901 31.899v43.06c0 9.682 6.917 17.775 16.067 19.607v40.875c0 8.822-7.178 16-16 16h-40.123V143.713c9.151-1.833 16.067-9.925 16.067-19.607v-44.06c9.909-7.499 15.901-19.335 15.901-31.899 0-22.039-17.93-39.969-39.969-39.969s-39.969 17.93-39.969 39.969c0 12.565 5.991 24.4 15.9 31.899v44.06c0 9.682 6.917 17.775 16.068 19.607v216.643c0 8.822-7.178 16-16 16h-23.66V47.938c0-22.056-17.944-40-40-40H40c-22.056 0-40 17.944-40 40v360c0 22.056 17.944 40 40 40h216.125c22.056 0 40-17.944 40-40v-15.583h23.66c17.645 0 32-14.355 32-32V280.23h40.123c17.645 0 32-14.355 32-32v-40.875c9.151-1.832 16.068-9.925 16.068-19.607v-43.06c9.909-7.499 15.9-19.334 15.9-31.899.001-22.039-17.929-39.969-39.968-39.969zM280.125 407.938c0 13.233-10.767 24-24 24H40c-13.233 0-24-10.767-24-24v-360c0-13.233 10.767-24 24-24h216.125c13.233 0 24 10.767 24 24v360zm51.62-339.07c-7.358-4.287-11.929-12.228-11.929-20.722 0-13.217 10.752-23.969 23.969-23.969s23.969 10.752 23.969 23.969c0 8.494-4.571 16.434-11.93 20.722a8.001 8.001 0 0 0-3.972 6.912v48.325c0 2.168-1.832 4-4 4h-8.136c-2.168 0-4-1.832-4-4V75.78a8 8 0 0 0-3.971-6.912zm96.203 64.643a8.001 8.001 0 0 0-3.972 6.912v47.325c0 2.168-1.832 4-4 4h-8.136c-2.168 0-4-1.832-4-4v-47.325a8 8 0 0 0-3.972-6.912c-7.358-4.288-11.93-12.228-11.93-20.722 0-13.217 10.752-23.969 23.969-23.969s23.969 10.752 23.969 23.969c.001 8.494-4.569 16.435-11.928 20.722z"/></svg>