<?xml version="1.0" encoding="iso-8859-1"?>
<!-- Generator: Adobe Illustrator 17.1.0, SVG Export Plug-In . SVG Version: 6.00 Build 0)  -->
<!DOCTYPE svg PUBLIC "-//W3C//DTD SVG 1.1//EN" "http://www.w3.org/Graphics/SVG/1.1/DTD/svg11.dtd">
<svg version="1.1" id="Capa_1" xmlns="http://www.w3.org/2000/svg" xmlns:xlink="http://www.w3.org/1999/xlink" x="0px" y="0px"
	 viewBox="0 0 416.667 416.667" style="enable-background:new 0 0 416.667 416.667;" xml:space="preserve">
<g>
	<path d="M384.667,27.896H32c-17.645,0-32,14.355-32,32v296.875c0,17.645,14.355,32,32,32h352.667c17.645,0,32-14.355,32-32V59.896
		C416.667,42.251,402.312,27.896,384.667,27.896z M400.667,356.771c0,8.822-7.178,16-16,16H32c-8.822,0-16-7.178-16-16V59.896
		c0-8.822,7.178-16,16-16h352.667c8.822,0,16,7.178,16,16V356.771z"/>
	<path d="M352.667,68.604H64c-13.233,0-24,10.767-24,24v167.334c0,13.233,10.767,24,24,24h288.667c13.233,0,24-10.767,24-24V92.604
		C376.667,79.371,365.9,68.604,352.667,68.604z M360.667,259.938c0,4.411-3.589,8-8,8H64c-4.411,0-8-3.589-8-8V92.604
		c0-4.411,3.589-8,8-8h288.667c4.411,0,8,3.589,8,8V259.938z"/>
	<path d="M360.667,308.333c-4.418,0-8,3.582-8,8s3.582,8,8,8v15.771h-72.208v-15.771h40.875c4.418,0,8-3.582,8-8s-3.582-8-8-8
		h-40.875c-8.822,0-16,7.178-16,16v15.771c0,8.822,7.178,16,16,16h72.208c8.822,0,16-7.178,16-16v-15.771
		C376.667,315.511,369.489,308.333,360.667,308.333z"/>
	<path d="M232,316.271h-7c-4.418,0-8,3.582-8,8s3.582,8,8,8h7v7.833H56v-7.833h136.667c4.418,0,8-3.582,8-8s-3.582-8-8-8H56
		c-8.822,0-16,7.178-16,16v7.833c0,8.822,7.178,16,16,16h176c8.822,0,16-7.178,16-16v-7.833
		C248,323.449,240.822,316.271,232,316.271z"/>
	<path d="M280.458,100.604H80.333c-4.418,0-8,3.582-8,8v135.917c0,4.418,3.582,8,8,8h200.125c4.418,0,8-3.582,8-8V108.604
		C288.458,104.186,284.877,100.604,280.458,100.604z M272.458,236.521h-28.313l-62.574-62.574c-3.124-3.122-8.189-3.123-11.313,0
		c-3.125,3.125-3.125,8.189,0,11.314l51.259,51.26H88.333V116.604h13.267l36.657,36.657c1.562,1.562,3.609,2.343,5.657,2.343
		s4.095-0.781,5.657-2.343c3.125-3.125,3.125-8.189,0-11.314l-25.343-25.343h148.23V236.521z"/>
	<path d="M336.833,108.938h-16.5c-4.418,0-8,3.582-8,8s3.582,8,8,8h16.5c4.418,0,8-3.582,8-8S341.252,108.938,336.833,108.938z"/>
	<path d="M336.833,228.854h-16.5c-4.418,0-8,3.582-8,8s3.582,8,8,8h16.5c4.418,0,8-3.582,8-8S341.252,228.854,336.833,228.854z"/>
	<path d="M336.833,188.604h-16.5c-4.418,0-8,3.582-8,8s3.582,8,8,8h16.5c4.418,0,8-3.582,8-8S341.252,188.604,336.833,188.604z"/>
	<path d="M336.833,148.604h-16.5c-4.418,0-8,3.582-8,8s3.582,8,8,8h16.5c4.418,0,8-3.582,8-8S341.252,148.604,336.833,148.604z"/>
</g>
<g>
</g>
<g>
</g>
<g>
</g>
<g>
</g>
<g>
</g>
<g>
</g>
<g>
</g>
<g>
</g>
<g>
</g>
<g>
</g>
<g>
</g>
<g>
</g>
<g>
</g>
<g>
</g>
<g>
</g>
</svg>
