<svg xmlns="http://www.w3.org/2000/svg" viewBox="0 0 416.667 416.667" style="enable-background:new 0 0 416.667 416.667" xml:space="preserve"><path d="M384.667 27.896H32c-17.645 0-32 14.355-32 32v296.875c0 17.645 14.355 32 32 32h352.667c17.645 0 32-14.355 32-32V59.896c0-17.645-14.355-32-32-32zm16 328.875c0 8.822-7.178 16-16 16H32c-8.822 0-16-7.178-16-16V59.896c0-8.822 7.178-16 16-16h352.667c8.822 0 16 7.178 16 16v296.875z"/><path d="M352.667 68.604H64c-13.233 0-24 10.767-24 24v167.334c0 13.233 10.767 24 24 24h288.667c13.233 0 24-10.767 24-24V92.604c0-13.233-10.767-24-24-24zm8 191.334c0 4.411-3.589 8-8 8H64c-4.411 0-8-3.589-8-8V92.604c0-4.411 3.589-8 8-8h288.667c4.411 0 8 3.589 8 8v167.334zM360.667 308.333a8 8 0 0 0 0 16v15.771h-72.208v-15.771h40.875a8 8 0 0 0 0-16h-40.875c-8.822 0-16 7.178-16 16v15.771c0 8.822 7.178 16 16 16h72.208c8.822 0 16-7.178 16-16v-15.771c0-8.822-7.178-16-16-16zM232 316.271h-7a8 8 0 0 0 0 16h7v7.833H56v-7.833h136.667a8 8 0 0 0 0-16H56c-8.822 0-16 7.178-16 16v7.833c0 8.822 7.178 16 16 16h176c8.822 0 16-7.178 16-16v-7.833c0-8.822-7.178-16-16-16z"/><path d="M280.458 100.604H80.333a8 8 0 0 0-8 8v135.917a8 8 0 0 0 8 8h200.125a8 8 0 0 0 8-8V108.604a8 8 0 0 0-8-8zm-8 135.917h-28.313l-62.574-62.574a8.002 8.002 0 0 0-11.313 0 7.999 7.999 0 0 0 0 11.314l51.259 51.26H88.333V116.604H101.6l36.657 36.657c1.562 1.562 3.609 2.343 5.657 2.343s4.095-.781 5.657-2.343a7.999 7.999 0 0 0 0-11.314l-25.343-25.343h148.23v119.917zM336.833 108.938h-16.5a8 8 0 0 0 0 16h16.5a8 8 0 0 0 0-16zM336.833 228.854h-16.5a8 8 0 0 0 0 16h16.5a8 8 0 0 0 0-16zM336.833 188.604h-16.5a8 8 0 0 0 0 16h16.5a8 8 0 0 0 0-16zM336.833 148.604h-16.5a8 8 0 0 0 0 16h16.5a8 8 0 0 0 0-16z"/></svg>