<?xml version="1.0" encoding="iso-8859-1"?>
<!-- Generator: Adobe Illustrator 17.1.0, SVG Export Plug-In . SVG Version: 6.00 Build 0)  -->
<!DOCTYPE svg PUBLIC "-//W3C//DTD SVG 1.1//EN" "http://www.w3.org/Graphics/SVG/1.1/DTD/svg11.dtd">
<svg version="1.1" id="Capa_1" xmlns="http://www.w3.org/2000/svg" xmlns:xlink="http://www.w3.org/1999/xlink" x="0px" y="0px"
	 viewBox="0 0 384.292 384.292" style="enable-background:new 0 0 384.292 384.292;" xml:space="preserve">
<path d="M360.015,219.48v-23.461c0-92.637-75.366-168.003-168.004-168.003c-92.644,0-168.015,75.366-168.015,168.003v23.497
	C10.477,221.275,0,232.859,0,246.864l0.127,65.339c0,14.774,11.674,26.868,26.278,27.541c4.266,9.722,13.974,16.533,25.245,16.533
	h16.817c15.191,0,27.549-12.374,27.549-27.591l-0.081-96.233c0-15.341-12.616-28.301-27.55-28.301h-4.649v-7.946
	c0-70.724,57.543-128.262,128.273-128.262c70.73,0,128.274,57.538,128.274,128.262v7.946h-4.381c-14.934,0-27.55,12.96-27.55,28.294
	l-0.08,96.247c0,15.21,12.358,27.584,27.549,27.584h16.817c11.273,0,20.981-6.811,25.247-16.533
	c14.603-0.674,26.277-12.767,26.277-27.525l0.127-65.37C384.292,232.761,373.669,221.115,360.015,219.48z M16.127,312.187
	L16,246.848c0-5.138,3.368-9.499,8.011-11.005l0.074,87.35C19.471,321.671,16.127,317.321,16.127,312.187z M79.937,232.458
	l0.081,96.233c0,6.388-5.181,11.584-11.549,11.584h-4.193v-88.25c0-4.418-3.582-8-8-8s-8,3.582-8,8v87.743
	c-4.733-1.451-8.186-5.868-8.186-11.084l-0.081-96.233c0-5.357,3.612-10.172,8.294-11.752c0.283,4.161,3.739,7.451,7.972,7.451
	c4.418,0,8-3.582,8-8h4.112C74.54,220.151,79.937,225.899,79.937,232.458z M192.011,51.943
	c-79.553,0-144.273,64.716-144.273,144.262v8.239c-2.717,0.408-5.32,1.24-7.741,2.428v-10.852
	c0-83.814,68.193-152.003,152.015-152.003c83.815,0,152.004,68.188,152.004,152.003v10.72c-2.422-1.154-5.02-1.954-7.729-2.332
	v-8.203C336.286,116.658,271.564,51.943,192.011,51.943z M336.017,339.769v-87.743c0-4.418-3.582-8-8-8s-8,3.582-8,8v88.25h-4.193
	c-6.368,0-11.549-5.196-11.549-11.577l0.08-96.247c0-6.553,5.397-12.301,11.55-12.301h4.112c0,4.418,3.582,8,8,8
	c4.233,0,7.689-3.29,7.972-7.451c3.937,1.329,7.113,4.943,8.026,9.242v1.281c0,0.7,0.099,1.375,0.268,2.022l-0.08,95.448
	C344.203,333.903,340.75,338.318,336.017,339.769z M368.165,312.202c0,5.121-3.343,9.469-7.957,10.99l0.073-87.35
	c4.642,1.506,8.011,5.865,8.011,10.99L368.165,312.202z"/>
<g>
</g>
<g>
</g>
<g>
</g>
<g>
</g>
<g>
</g>
<g>
</g>
<g>
</g>
<g>
</g>
<g>
</g>
<g>
</g>
<g>
</g>
<g>
</g>
<g>
</g>
<g>
</g>
<g>
</g>
</svg>
