<?xml version="1.0" encoding="iso-8859-1"?>
<!-- Generator: Adobe Illustrator 17.1.0, SVG Export Plug-In . SVG Version: 6.00 Build 0)  -->
<!DOCTYPE svg PUBLIC "-//W3C//DTD SVG 1.1//EN" "http://www.w3.org/Graphics/SVG/1.1/DTD/svg11.dtd">
<svg version="1.1" id="Capa_1" xmlns="http://www.w3.org/2000/svg" xmlns:xlink="http://www.w3.org/1999/xlink" x="0px" y="0px"
	 viewBox="0 0 415.977 415.977" style="enable-background:new 0 0 415.977 415.977;" xml:space="preserve">
<g>
	<path d="M328.626,0H87.351C65.612,0,47.926,17.686,47.926,39.425v337.127c0,21.739,17.686,39.425,39.425,39.425h241.275
		c21.739,0,39.425-17.686,39.425-39.425V39.425C368.051,17.686,350.365,0,328.626,0z M352.051,376.552
		c0,12.917-10.508,23.425-23.425,23.425H87.351c-12.917,0-23.425-10.508-23.425-23.425V39.425C63.926,26.508,74.435,16,87.351,16
		h241.275c12.917,0,23.425,10.508,23.425,23.425V376.552z"/>
	<path d="M208.05,176.037c-52.93,0-95.992,43.062-95.992,95.992s43.062,95.993,95.992,95.993c52.931,0,95.993-43.063,95.993-95.993
		S260.981,176.037,208.05,176.037z M208.05,352.022c-44.107,0-79.992-35.885-79.992-79.993c0-44.107,35.884-79.992,79.992-79.992
		c44.108,0,79.993,35.885,79.993,79.992C288.043,316.138,252.158,352.022,208.05,352.022z"/>
	<path d="M207.995,159.88c30.833,0,55.916-25.084,55.916-55.916s-25.084-55.916-55.916-55.916
		c-30.832,0-55.916,25.084-55.916,55.916S177.163,159.88,207.995,159.88z M207.995,64.048c22.01,0,39.917,17.906,39.917,39.916
		s-17.906,39.916-39.917,39.916c-22.009,0-39.916-17.906-39.916-39.916S185.986,64.048,207.995,64.048z"/>
	<path d="M208.05,208.061c-35.272,0-63.969,28.696-63.969,63.97c0,35.272,28.696,63.969,63.969,63.969
		c35.273,0,63.97-28.696,63.97-63.969C272.02,236.757,243.323,208.061,208.05,208.061z M208.05,319.999
		c-26.45,0-47.969-21.519-47.969-47.969s21.519-47.97,47.969-47.97c26.451,0,47.97,21.52,47.97,47.97
		S234.501,319.999,208.05,319.999z"/>
	<path d="M207.995,127.951c13.227,0,23.988-10.761,23.988-23.987s-10.761-23.987-23.988-23.987
		c-13.227,0-23.987,10.761-23.987,23.987S194.769,127.951,207.995,127.951z M207.995,95.977c4.404,0,7.988,3.583,7.988,7.987
		s-3.583,7.987-7.988,7.987c-4.404,0-7.987-3.583-7.987-7.987S203.591,95.977,207.995,95.977z"/>
	<path d="M91.951,352.224c-10.921,0-19.806,8.885-19.806,19.806s8.885,19.806,19.806,19.806s19.806-8.885,19.806-19.806
		S102.872,352.224,91.951,352.224z M91.951,375.835c-2.099,0-3.806-1.707-3.806-3.806s1.707-3.806,3.806-3.806
		s3.806,1.707,3.806,3.806S94.049,375.835,91.951,375.835z"/>
	<path d="M323.956,352.224c-10.921,0-19.806,8.885-19.806,19.806s8.885,19.806,19.806,19.806s19.806-8.885,19.806-19.806
		S334.877,352.224,323.956,352.224z M323.956,375.835c-2.099,0-3.806-1.707-3.806-3.806s1.707-3.806,3.806-3.806
		s3.806,1.707,3.806,3.806S326.055,375.835,323.956,375.835z"/>
	<path d="M91.951,23.745c-10.921,0-19.806,8.885-19.806,19.806s8.885,19.806,19.806,19.806s19.806-8.885,19.806-19.806
		S102.872,23.745,91.951,23.745z M91.951,47.356c-2.099,0-3.806-1.707-3.806-3.806s1.707-3.806,3.806-3.806s3.806,1.707,3.806,3.806
		S94.049,47.356,91.951,47.356z"/>
	<path d="M323.956,23.745c-10.921,0-19.806,8.885-19.806,19.806s8.885,19.806,19.806,19.806s19.806-8.885,19.806-19.806
		S334.877,23.745,323.956,23.745z M323.956,47.356c-2.099,0-3.806-1.707-3.806-3.806s1.707-3.806,3.806-3.806
		s3.806,1.707,3.806,3.806S326.055,47.356,323.956,47.356z"/>
</g>
<g>
</g>
<g>
</g>
<g>
</g>
<g>
</g>
<g>
</g>
<g>
</g>
<g>
</g>
<g>
</g>
<g>
</g>
<g>
</g>
<g>
</g>
<g>
</g>
<g>
</g>
<g>
</g>
<g>
</g>
</svg>
