<svg xmlns="http://www.w3.org/2000/svg" viewBox="0 0 384.292 384.292" style="enable-background:new 0 0 384.292 384.292" xml:space="preserve"><path d="M360.015 219.48v-23.461c0-92.637-75.366-168.003-168.004-168.003-92.644 0-168.015 75.366-168.015 168.003v23.497C10.477 221.275 0 232.859 0 246.864l.127 65.339c0 14.774 11.674 26.868 26.278 27.541 4.266 9.722 13.974 16.533 25.245 16.533h16.817c15.191 0 27.549-12.374 27.549-27.591l-.081-96.233c0-15.341-12.616-28.301-27.55-28.301h-4.649v-7.946c0-70.724 57.543-128.262 128.273-128.262 70.73 0 128.274 57.538 128.274 128.262v7.946h-4.381c-14.934 0-27.55 12.96-27.55 28.294l-.08 96.247c0 15.21 12.358 27.584 27.549 27.584h16.817c11.273 0 20.981-6.811 25.247-16.533 14.603-.674 26.277-12.767 26.277-27.525l.127-65.37c.003-14.088-10.62-25.734-24.274-27.369zM16.127 312.187 16 246.848c0-5.138 3.368-9.499 8.011-11.005l.074 87.35c-4.614-1.522-7.958-5.872-7.958-11.006zm63.81-79.729.081 96.233c0 6.388-5.181 11.584-11.549 11.584h-4.193v-88.25a8 8 0 0 0-16 0v87.743c-4.733-1.451-8.186-5.868-8.186-11.084l-.081-96.233c0-5.357 3.612-10.172 8.294-11.752.283 4.161 3.739 7.451 7.972 7.451a8 8 0 0 0 8-8h4.112c6.153.001 11.55 5.749 11.55 12.308zM192.011 51.943c-79.553 0-144.273 64.716-144.273 144.262v8.239a26.499 26.499 0 0 0-7.741 2.428V196.02c0-83.814 68.193-152.003 152.015-152.003 83.815 0 152.004 68.188 152.004 152.003v10.72a26.462 26.462 0 0 0-7.729-2.332v-8.203c-.001-79.547-64.723-144.262-144.276-144.262zm144.006 287.826v-87.743a8 8 0 0 0-16 0v88.25h-4.193c-6.368 0-11.549-5.196-11.549-11.577l.08-96.247c0-6.553 5.397-12.301 11.55-12.301h4.112a8 8 0 0 0 8 8c4.233 0 7.689-3.29 7.972-7.451 3.937 1.329 7.113 4.943 8.026 9.242v1.281c0 .7.099 1.375.268 2.022l-.08 95.448c0 5.21-3.453 9.625-8.186 11.076zm32.148-27.567c0 5.121-3.343 9.469-7.957 10.99l.073-87.35c4.642 1.506 8.011 5.865 8.011 10.99l-.127 65.37z"/></svg>