<svg xmlns="http://www.w3.org/2000/svg" viewBox="0 0 440 440" style="enable-background:new 0 0 440 440" xml:space="preserve"><path d="M416 171.859h-8.167v-31.886c0-17.645-14.355-32-32-32H56c-14.872 0-27.406 10.199-30.978 23.969H20c-11.028 0-20 8.972-20 20v136.115c0 11.028 8.972 20 20 20h5.022c3.572 13.77 16.106 23.969 30.978 23.969h319.833c17.645 0 32-14.355 32-32V268.14H416c13.233 0 24-10.767 24-24v-48.281c0-13.233-10.767-24-24-24zM16 288.058V151.942c0-2.168 1.832-4 4-4h4v144.115h-4c-2.168.001-4-1.831-4-3.999zm375.833 11.968c0 8.822-7.178 16-16 16H223.916v-167.75c0-4.418-3.581-8-8-8s-8 3.582-8 8v167.75H56c-8.822 0-16-7.178-16-16V139.974c0-8.822 7.178-16 16-16h319.833c8.822 0 16 7.178 16 16v160.052zM424 244.141c0 4.411-3.589 8-8 8h-8.167V187.86H416c4.411 0 8 3.589 8 8v48.281z"/><path d="M335.75 212h-16v-16a8 8 0 0 0-16 0v16h-16a8 8 0 0 0 0 16h16v16a8 8 0 0 0 16 0v-16h16a8 8 0 0 0 0-16zM144.333 212h-48a8 8 0 0 0 0 16h48a8 8 0 0 0 0-16z"/></svg>