<svg xmlns="http://www.w3.org/2000/svg" viewBox="0 0 423.99 423.99" style="enable-background:new 0 0 423.99 423.99" xml:space="preserve"><path d="M104.338 128.324h215.595c8.822 0 16-7.178 16-16v-64c0-8.822-7.178-16-16-16H104.338c-8.822 0-16 7.178-16 16v64c0 8.822 7.178 16 16 16zm0-80h69.295l13.505 13.505c1.563 1.563 3.609 2.343 5.657 2.343s4.095-.781 5.657-2.343a8 8 0 0 0 0-11.313l-2.191-2.191h123.671l.002 64h-59.672l-29.809-29.809a8 8 0 0 0-11.314 11.313l18.495 18.495H104.338v-64zM184.688 144.49h-8.101c-13.233 0-24 10.766-24 24v8c0 13.234 10.767 24 24 24h8.101c13.233 0 24-10.766 24-24v-8c0-13.234-10.766-24-24-24zm8 32c0 4.411-3.589 8-8 8h-8.101c-4.411 0-8-3.589-8-8v-8c0-4.411 3.589-8 8-8h8.101c4.411 0 8 3.589 8 8v8zM120.438 144.49h-8.101c-13.233 0-24 10.766-24 24v8c0 13.234 10.767 24 24 24h8.101c13.233 0 24-10.766 24-24v-8c0-13.234-10.766-24-24-24zm8 32c0 4.411-3.589 8-8 8h-8.101c-4.411 0-8-3.589-8-8v-8c0-4.411 3.589-8 8-8h8.101c4.411 0 8 3.589 8 8v8zM248.938 144.49h-8.101c-13.233 0-24 10.766-24 24v8c0 13.234 10.767 24 24 24h8.101c13.233 0 24-10.766 24-24v-8c0-13.234-10.766-24-24-24zm8 32c0 4.411-3.589 8-8 8h-8.101c-4.411 0-8-3.589-8-8v-8c0-4.411 3.589-8 8-8h8.101c4.411 0 8 3.589 8 8v8zM312.373 144.49h-8.101c-13.233 0-24 10.766-24 24v8c0 13.234 10.767 24 24 24h8.101c13.233 0 24-10.766 24-24v-8c0-13.234-10.767-24-24-24zm8 32c0 4.411-3.589 8-8 8h-8.101c-4.411 0-8-3.589-8-8v-8c0-4.411 3.589-8 8-8h8.101c4.411 0 8 3.589 8 8v8zM184.688 208.824h-8.101c-13.233 0-24 10.766-24 24v8c0 13.234 10.767 24 24 24h8.101c13.233 0 24-10.766 24-24v-8c0-13.234-10.766-24-24-24zm8 32c0 4.411-3.589 8-8 8h-8.101c-4.411 0-8-3.589-8-8v-8c0-4.411 3.589-8 8-8h8.101c4.411 0 8 3.589 8 8v8zM120.438 208.824h-8.101c-13.233 0-24 10.766-24 24v8c0 13.234 10.767 24 24 24h8.101c13.233 0 24-10.766 24-24v-8c0-13.234-10.766-24-24-24zm8 32c0 4.411-3.589 8-8 8h-8.101c-4.411 0-8-3.589-8-8v-8c0-4.411 3.589-8 8-8h8.101c4.411 0 8 3.589 8 8v8zM248.938 208.824h-8.101c-13.233 0-24 10.766-24 24v8c0 13.234 10.767 24 24 24h8.101c13.233 0 24-10.766 24-24v-8c0-13.234-10.766-24-24-24zm8 32c0 4.411-3.589 8-8 8h-8.101c-4.411 0-8-3.589-8-8v-8c0-4.411 3.589-8 8-8h8.101c4.411 0 8 3.589 8 8v8zM312.373 208.824h-8.101c-13.233 0-24 10.766-24 24v8c0 13.234 10.767 24 24 24h8.101c13.233 0 24-10.766 24-24v-8c0-13.234-10.767-24-24-24zm8 32c0 4.411-3.589 8-8 8h-8.101c-4.411 0-8-3.589-8-8v-8c0-4.411 3.589-8 8-8h8.101c4.411 0 8 3.589 8 8v8zM184.688 272.49h-8.101c-13.233 0-24 10.766-24 24v8c0 13.234 10.767 24 24 24h8.101c13.233 0 24-10.766 24-24v-8c0-13.234-10.766-24-24-24zm8 32c0 4.411-3.589 8-8 8h-8.101c-4.411 0-8-3.589-8-8v-8c0-4.411 3.589-8 8-8h8.101c4.411 0 8 3.589 8 8v8zM120.438 272.49h-8.101c-13.233 0-24 10.766-24 24v8c0 13.234 10.767 24 24 24h8.101c13.233 0 24-10.766 24-24v-8c0-13.234-10.766-24-24-24zm8 32c0 4.411-3.589 8-8 8h-8.101c-4.411 0-8-3.589-8-8v-8c0-4.411 3.589-8 8-8h8.101c4.411 0 8 3.589 8 8v8zM248.938 272.49h-8.101c-13.233 0-24 10.766-24 24v8c0 13.234 10.767 24 24 24h8.101c13.233 0 24-10.766 24-24v-8c0-13.234-10.766-24-24-24zm8 32c0 4.411-3.589 8-8 8h-8.101c-4.411 0-8-3.589-8-8v-8c0-4.411 3.589-8 8-8h8.101c4.411 0 8 3.589 8 8v8zM312.373 272.49h-8.101c-13.233 0-24 10.766-24 24v8c0 13.234 10.767 24 24 24h8.101c13.233 0 24-10.766 24-24v-8c0-13.234-10.767-24-24-24zm8 32c0 4.411-3.589 8-8 8h-8.101c-4.411 0-8-3.589-8-8v-8c0-4.411 3.589-8 8-8h8.101c4.411 0 8 3.589 8 8v8zM184.688 335.99h-8.101c-13.233 0-24 10.766-24 24v8c0 13.234 10.767 24 24 24h8.101c13.233 0 24-10.766 24-24v-8c0-13.234-10.766-24-24-24zm8 32c0 4.411-3.589 8-8 8h-8.101c-4.411 0-8-3.589-8-8v-8c0-4.411 3.589-8 8-8h8.101c4.411 0 8 3.589 8 8v8zM120.438 335.99h-8.101c-13.233 0-24 10.766-24 24v8c0 13.234 10.767 24 24 24h8.101c13.233 0 24-10.766 24-24v-8c0-13.234-10.766-24-24-24zm8 32c0 4.411-3.589 8-8 8h-8.101c-4.411 0-8-3.589-8-8v-8c0-4.411 3.589-8 8-8h8.101c4.411 0 8 3.589 8 8v8zM248.938 335.99h-8.101c-13.233 0-24 10.766-24 24v8c0 13.234 10.767 24 24 24h8.101c13.233 0 24-10.766 24-24v-8c0-13.234-10.766-24-24-24zm8 32c0 4.411-3.589 8-8 8h-8.101c-4.411 0-8-3.589-8-8v-8c0-4.411 3.589-8 8-8h8.101c4.411 0 8 3.589 8 8v8zM312.373 335.99h-8.101c-13.233 0-24 10.766-24 24v8c0 13.234 10.767 24 24 24h8.101c13.233 0 24-10.766 24-24v-8c0-13.234-10.767-24-24-24zm8 32c0 4.411-3.589 8-8 8h-8.101c-4.411 0-8-3.589-8-8v-8c0-4.411 3.589-8 8-8h8.101c4.411 0 8 3.589 8 8v8z"/><path d="M327.959 0H96.031c-22.056 0-40 17.944-40 40v343.99c0 22.056 17.944 40 40 40h231.928c22.056 0 40-17.944 40-40V40c0-22.056-17.944-40-40-40zm24 383.99c0 13.234-10.767 24-24 24H96.031c-13.233 0-24-10.766-24-24V40c0-13.233 10.767-24 24-24h231.928c13.233 0 24 10.766 24 24v343.99z"/></svg>