<svg xmlns="http://www.w3.org/2000/svg" viewBox="0 0 439.5 439.5" style="enable-background:new 0 0 439.5 439.5" xml:space="preserve"><path d="M295.595 0h-151.69c-17.645 0-32 14.355-32 32v399.5a8 8 0 0 0 8 8h199.689a8 8 0 0 0 8-8V32c.001-17.645-14.355-32-31.999-32zm-167.69 423.5V280.25h136.023a8 8 0 0 0 0-16H127.905V47.75h136.023a8 8 0 0 0 0-16h-80.097c-.133-4.301-3.654-7.75-7.987-7.75s-7.854 3.449-7.987 7.75h-8.025c-.133-4.301-3.654-7.75-7.987-7.75s-7.854 3.449-7.987 7.75h-15.939c.135-8.706 7.25-15.75 15.987-15.75h151.689c8.738 0 15.852 7.044 15.987 15.75h-15.653a8 8 0 0 0 0 16h15.666v216.5h-15.666a8 8 0 0 0 0 16h15.666V423.5h-183.69z"/><path d="M199.845 295.75h-47.939a8 8 0 0 0 0 16h47.939a8 8 0 0 0 0-16zM199.845 232h-47.939a8 8 0 0 0 0 16h47.939a8 8 0 0 0 0-16z"/></svg>