<?xml version="1.0" encoding="iso-8859-1"?>
<!-- Generator: Adobe Illustrator 17.1.0, SVG Export Plug-In . SVG Version: 6.00 Build 0)  -->
<!DOCTYPE svg PUBLIC "-//W3C//DTD SVG 1.1//EN" "http://www.w3.org/Graphics/SVG/1.1/DTD/svg11.dtd">
<svg version="1.1" id="Capa_1" xmlns="http://www.w3.org/2000/svg" xmlns:xlink="http://www.w3.org/1999/xlink" x="0px" y="0px"
	 viewBox="0 0 424.333 424.333" style="enable-background:new 0 0 424.333 424.333;" xml:space="preserve">
<g>
	<path d="M384.333,88.24h-41.728C316.287,35.963,262.123,0.01,199.711,0.01S83.136,35.963,56.818,88.24H8c-4.418,0-8,3.582-8,8
		v120.108c0,22.001,17.856,39.907,39.836,39.996v159.979c0,4.418,3.582,8,8,8h303.75c4.418,0,8-3.582,8-8v-88.25h24.747
		c22.056,0,40-17.944,40-40V128.24C424.333,106.184,406.39,88.24,384.333,88.24z M16,216.348V104.24h33.832
		c-6.328,16.988-9.841,35.332-9.981,54.465c-0.004,0.099-0.015,0.197-0.015,0.297v81.343C26.678,240.256,16,229.527,16,216.348z
		 M343.586,408.323H55.836V159.885c0-19.717,3.99-38.519,11.2-55.646h204.297c4.418,0,8-3.582,8-8s-3.582-8-8-8H74.977
		C99.849,45.107,146.446,16.01,199.711,16.01s99.863,29.096,124.734,72.229h-20.612c-4.418,0-8,3.582-8,8s3.582,8,8,8h28.553
		c7.21,17.126,11.2,35.928,11.2,55.646V408.323z M408.333,288.073c0,13.233-10.766,24-24,24h-24.747V159.002
		c0-0.1-0.011-0.197-0.015-0.297c-0.139-19.133-3.653-37.477-9.981-54.465h34.743c13.234,0,24,10.767,24,24V288.073z"/>
	<path d="M208.083,127.885h-15.328c-17.645,0-32,14.355-32,32V352.24c0,17.645,14.355,32,32,32h15.328c17.645,0,32-14.355,32-32
		V159.885C240.083,142.241,225.729,127.885,208.083,127.885z M224.083,352.24c0,8.822-7.178,16-16,16h-15.328
		c-8.822,0-16-7.178-16-16v-8.235h16.578c4.418,0,8-3.582,8-8s-3.582-8-8-8h-16.578v-15.863h16.578c4.418,0,8-3.582,8-8
		s-3.582-8-8-8h-16.578v-15.873h16.578c4.418,0,8-3.582,8-8s-3.582-8-8-8h-16.578v-15.862h16.578c4.418,0,8-3.582,8-8s-3.582-8-8-8
		h-16.578v-16.333h16.578c4.418,0,8-3.582,8-8s-3.582-8-8-8h-16.578v-15.862h16.578c4.418,0,8-3.582,8-8s-3.582-8-8-8h-16.578
		v-8.325c0-8.822,7.178-16,16-16h15.328c8.822,0,16,7.178,16,16V352.24z"/>
</g>
<g>
</g>
<g>
</g>
<g>
</g>
<g>
</g>
<g>
</g>
<g>
</g>
<g>
</g>
<g>
</g>
<g>
</g>
<g>
</g>
<g>
</g>
<g>
</g>
<g>
</g>
<g>
</g>
<g>
</g>
</svg>
