<svg xmlns="http://www.w3.org/2000/svg" viewBox="0 0 424.333 424.333" style="enable-background:new 0 0 424.333 424.333" xml:space="preserve"><path d="M384.333 88.24h-41.728C316.287 35.963 262.123.01 199.711.01S83.136 35.963 56.818 88.24H8a8 8 0 0 0-8 8v120.108c0 22.001 17.856 39.907 39.836 39.996v159.979a8 8 0 0 0 8 8h303.75a8 8 0 0 0 8-8v-88.25h24.747c22.056 0 40-17.944 40-40V128.24c0-22.056-17.943-40-40-40zM16 216.348V104.24h33.832c-6.328 16.988-9.841 35.332-9.981 54.465-.004.099-.015.197-.015.297v81.343C26.678 240.256 16 229.527 16 216.348zm327.586 191.975H55.836V159.885c0-19.717 3.99-38.519 11.2-55.646h204.297a8 8 0 0 0 0-16H74.977C99.849 45.107 146.446 16.01 199.711 16.01s99.863 29.096 124.734 72.229h-20.612a8 8 0 0 0 0 16h28.553c7.21 17.126 11.2 35.928 11.2 55.646v248.438zm64.747-120.25c0 13.233-10.766 24-24 24h-24.747V159.002c0-.1-.011-.197-.015-.297-.139-19.133-3.653-37.477-9.981-54.465h34.743c13.234 0 24 10.767 24 24v159.833z"/><path d="M208.083 127.885h-15.328c-17.645 0-32 14.355-32 32V352.24c0 17.645 14.355 32 32 32h15.328c17.645 0 32-14.355 32-32V159.885c0-17.644-14.354-32-32-32zm16 224.355c0 8.822-7.178 16-16 16h-15.328c-8.822 0-16-7.178-16-16v-8.235h16.578a8 8 0 0 0 0-16h-16.578v-15.863h16.578a8 8 0 0 0 0-16h-16.578v-15.873h16.578a8 8 0 0 0 0-16h-16.578v-15.862h16.578a8 8 0 0 0 0-16h-16.578v-16.333h16.578a8 8 0 0 0 0-16h-16.578v-15.862h16.578a8 8 0 0 0 0-16h-16.578v-8.325c0-8.822 7.178-16 16-16h15.328c8.822 0 16 7.178 16 16V352.24z"/></svg>