<?xml version="1.0" encoding="iso-8859-1"?>
<!-- Generator: Adobe Illustrator 17.1.0, SVG Export Plug-In . SVG Version: 6.00 Build 0)  -->
<!DOCTYPE svg PUBLIC "-//W3C//DTD SVG 1.1//EN" "http://www.w3.org/Graphics/SVG/1.1/DTD/svg11.dtd">
<svg version="1.1" id="Capa_1" xmlns="http://www.w3.org/2000/svg" xmlns:xlink="http://www.w3.org/1999/xlink" x="0px" y="0px"
	 viewBox="0 0 411.625 411.625" style="enable-background:new 0 0 411.625 411.625;" xml:space="preserve">
<g>
	<path d="M323.915,47.688H89.497c-8.822,0-16,7.178-16,16v136.375c0,8.822,7.178,16,16,16h232.191c8.822,0,16-7.178,16-16V63.688
		C337.688,54.716,331.638,47.688,323.915,47.688z M284.923,200.063l-78.004-78.004c-3.125-3.125-8.19-3.125-11.314,0
		c-3.125,3.124-3.125,8.189,0,11.313l66.69,66.69H89.497V63.688h36.424l37.684,37.685c1.562,1.562,3.609,2.343,5.657,2.343
		s4.095-0.781,5.657-2.343c3.125-3.124,3.125-8.189,0-11.313l-26.371-26.371h173.14l0.001,136.375H284.923z"/>
	<path d="M170.097,39.938h64.131c4.418,0,8-3.582,8-8s-3.582-8-8-8h-64.131c-4.418,0-8,3.582-8,8S165.679,39.938,170.097,39.938z"/>
	<path d="M258.353,39.942c2.109,0,4.17-0.86,5.66-2.35c1.489-1.49,2.34-3.55,2.34-5.66c0-2.1-0.851-4.16-2.34-5.65
		c-1.49-1.49-3.551-2.34-5.66-2.34c-2.101,0-4.17,0.85-5.66,2.34c-1.48,1.49-2.34,3.55-2.34,5.65c0,2.11,0.859,4.17,2.34,5.66
		C254.183,39.083,256.252,39.942,258.353,39.942z"/>
	<path d="M329.688,0H81.937c-17.645,0-32,14.355-32,32v347.625c0,17.645,14.355,32,32,32h247.75c17.645,0,32-14.355,32-32V32
		C361.688,14.355,347.332,0,329.688,0z M345.688,379.625c0,8.822-7.178,16-16,16H81.937c-8.822,0-16-7.178-16-16V32
		c0-8.822,7.178-16,16-16h247.75c8.822,0,16,7.178,16,16V379.625z"/>
	<path d="M93.854,240.183c-6.617,0-12,5.384-12,12c0,6.617,5.383,12,12,12s12-5.383,12-12
		C105.854,245.566,100.471,240.183,93.854,240.183z M93.854,256.183c-2.206,0-4-1.794-4-4c0-2.205,1.794-4,4-4s4,1.795,4,4
		C97.854,254.389,96.06,256.183,93.854,256.183z"/>
	<path d="M125.865,240.183c-6.617,0-12,5.384-12,12c0,6.617,5.383,12,12,12s12-5.383,12-12
		C137.865,245.566,132.482,240.183,125.865,240.183z M125.865,256.183c-2.206,0-4-1.794-4-4c0-2.205,1.794-4,4-4s4,1.795,4,4
		C129.865,254.389,128.071,256.183,125.865,256.183z"/>
	<path d="M157.876,240.183c-6.617,0-12,5.384-12,12c0,6.617,5.383,12,12,12s12-5.383,12-12
		C169.876,245.566,164.493,240.183,157.876,240.183z M157.876,256.183c-2.206,0-4-1.794-4-4c0-2.205,1.794-4,4-4s4,1.795,4,4
		C161.876,254.389,160.082,256.183,157.876,256.183z"/>
	<path d="M189.887,240.183c-6.617,0-12,5.384-12,12c0,6.617,5.383,12,12,12s12-5.383,12-12
		C201.887,245.566,196.504,240.183,189.887,240.183z M189.887,256.183c-2.206,0-4-1.794-4-4c0-2.205,1.794-4,4-4s4,1.795,4,4
		C193.887,254.389,192.093,256.183,189.887,256.183z"/>
	<path d="M221.899,240.183c-6.617,0-12,5.384-12,12c0,6.617,5.383,12,12,12s12-5.383,12-12
		C233.899,245.566,228.516,240.183,221.899,240.183z M221.899,256.183c-2.206,0-4-1.794-4-4c0-2.205,1.794-4,4-4s4,1.795,4,4
		C225.899,254.389,224.105,256.183,221.899,256.183z"/>
	<path d="M253.909,240.183c-6.617,0-12,5.384-12,12c0,6.617,5.383,12,12,12s12-5.383,12-12
		C265.909,245.566,260.527,240.183,253.909,240.183z M253.909,256.183c-2.206,0-4-1.794-4-4c0-2.205,1.794-4,4-4s4,1.795,4,4
		C257.909,254.389,256.115,256.183,253.909,256.183z"/>
	<path d="M285.921,240.183c-6.617,0-12,5.384-12,12c0,6.617,5.383,12,12,12s12-5.383,12-12
		C297.921,245.566,292.538,240.183,285.921,240.183z M285.921,256.183c-2.206,0-4-1.794-4-4c0-2.205,1.794-4,4-4s4,1.795,4,4
		C289.921,254.389,288.127,256.183,285.921,256.183z"/>
	<path d="M317.932,240.183c-6.617,0-12,5.384-12,12c0,6.617,5.383,12,12,12s12-5.383,12-12
		C329.932,245.566,324.549,240.183,317.932,240.183z M317.932,256.183c-2.206,0-4-1.794-4-4c0-2.205,1.794-4,4-4s4,1.795,4,4
		C321.932,254.389,320.138,256.183,317.932,256.183z"/>
	<path d="M93.854,272.058c-6.617,0-12,5.384-12,12c0,6.617,5.383,12,12,12s12-5.383,12-12
		C105.854,277.441,100.471,272.058,93.854,272.058z M93.854,288.058c-2.206,0-4-1.794-4-4c0-2.205,1.794-4,4-4s4,1.795,4,4
		C97.854,286.264,96.06,288.058,93.854,288.058z"/>
	<path d="M125.865,272.058c-6.617,0-12,5.384-12,12c0,6.617,5.383,12,12,12s12-5.383,12-12
		C137.865,277.441,132.482,272.058,125.865,272.058z M125.865,288.058c-2.206,0-4-1.794-4-4c0-2.205,1.794-4,4-4s4,1.795,4,4
		C129.865,286.264,128.071,288.058,125.865,288.058z"/>
	<path d="M157.876,272.058c-6.617,0-12,5.384-12,12c0,6.617,5.383,12,12,12s12-5.383,12-12
		C169.876,277.441,164.493,272.058,157.876,272.058z M157.876,288.058c-2.206,0-4-1.794-4-4c0-2.205,1.794-4,4-4s4,1.795,4,4
		C161.876,286.264,160.082,288.058,157.876,288.058z"/>
	<path d="M189.887,272.058c-6.617,0-12,5.384-12,12c0,6.617,5.383,12,12,12s12-5.383,12-12
		C201.887,277.441,196.504,272.058,189.887,272.058z M189.887,288.058c-2.206,0-4-1.794-4-4c0-2.205,1.794-4,4-4s4,1.795,4,4
		C193.887,286.264,192.093,288.058,189.887,288.058z"/>
	<path d="M221.899,272.058c-6.617,0-12,5.384-12,12c0,6.617,5.383,12,12,12s12-5.383,12-12
		C233.899,277.441,228.516,272.058,221.899,272.058z M221.899,288.058c-2.206,0-4-1.794-4-4c0-2.205,1.794-4,4-4s4,1.795,4,4
		C225.899,286.264,224.105,288.058,221.899,288.058z"/>
	<path d="M253.909,272.058c-6.617,0-12,5.384-12,12c0,6.617,5.383,12,12,12s12-5.383,12-12
		C265.909,277.441,260.527,272.058,253.909,272.058z M253.909,288.058c-2.206,0-4-1.794-4-4c0-2.205,1.794-4,4-4s4,1.795,4,4
		C257.909,286.264,256.115,288.058,253.909,288.058z"/>
	<path d="M285.921,272.058c-6.617,0-12,5.384-12,12c0,6.617,5.383,12,12,12s12-5.383,12-12
		C297.921,277.441,292.538,272.058,285.921,272.058z M285.921,288.058c-2.206,0-4-1.794-4-4c0-2.205,1.794-4,4-4s4,1.795,4,4
		C289.921,286.264,288.127,288.058,285.921,288.058z"/>
	<path d="M317.932,272.058c-6.617,0-12,5.384-12,12c0,6.617,5.383,12,12,12s12-5.383,12-12
		C329.932,277.441,324.549,272.058,317.932,272.058z M317.932,288.058c-2.206,0-4-1.794-4-4c0-2.205,1.794-4,4-4s4,1.795,4,4
		C321.932,286.264,320.138,288.058,317.932,288.058z"/>
	<path d="M93.854,303.938c-6.617,0-12,5.383-12,12s5.383,12,12,12s12-5.383,12-12S100.471,303.938,93.854,303.938z M93.854,319.938
		c-2.206,0-4-1.794-4-4s1.794-4,4-4s4,1.794,4,4S96.06,319.938,93.854,319.938z"/>
	<path d="M125.865,303.938c-6.617,0-12,5.383-12,12s5.383,12,12,12s12-5.383,12-12S132.482,303.938,125.865,303.938z
		 M125.865,319.938c-2.206,0-4-1.794-4-4s1.794-4,4-4s4,1.794,4,4S128.071,319.938,125.865,319.938z"/>
	<path d="M157.876,303.938c-6.617,0-12,5.383-12,12s5.383,12,12,12s12-5.383,12-12S164.493,303.938,157.876,303.938z
		 M157.876,319.938c-2.206,0-4-1.794-4-4s1.794-4,4-4s4,1.794,4,4S160.082,319.938,157.876,319.938z"/>
	<path d="M189.887,303.938c-6.617,0-12,5.383-12,12s5.383,12,12,12s12-5.383,12-12S196.504,303.938,189.887,303.938z
		 M189.887,319.938c-2.206,0-4-1.794-4-4s1.794-4,4-4s4,1.794,4,4S192.093,319.938,189.887,319.938z"/>
	<path d="M221.899,303.938c-6.617,0-12,5.383-12,12s5.383,12,12,12s12-5.383,12-12S228.516,303.938,221.899,303.938z
		 M221.899,319.938c-2.206,0-4-1.794-4-4s1.794-4,4-4s4,1.794,4,4S224.105,319.938,221.899,319.938z"/>
	<path d="M253.909,303.938c-6.617,0-12,5.383-12,12s5.383,12,12,12s12-5.383,12-12S260.527,303.938,253.909,303.938z
		 M253.909,319.938c-2.206,0-4-1.794-4-4s1.794-4,4-4s4,1.794,4,4S256.115,319.938,253.909,319.938z"/>
	<path d="M285.921,303.938c-6.617,0-12,5.383-12,12s5.383,12,12,12s12-5.383,12-12S292.538,303.938,285.921,303.938z
		 M285.921,319.938c-2.206,0-4-1.794-4-4s1.794-4,4-4s4,1.794,4,4S288.127,319.938,285.921,319.938z"/>
	<path d="M317.932,303.938c-6.617,0-12,5.383-12,12s5.383,12,12,12s12-5.383,12-12S324.549,303.938,317.932,303.938z
		 M317.932,319.938c-2.206,0-4-1.794-4-4s1.794-4,4-4s4,1.794,4,4S320.138,319.938,317.932,319.938z"/>
	<path d="M93.854,335.813c-6.617,0-12,5.383-12,12s5.383,12,12,12s12-5.383,12-12S100.471,335.813,93.854,335.813z M93.854,351.813
		c-2.206,0-4-1.794-4-4s1.794-4,4-4s4,1.794,4,4S96.06,351.813,93.854,351.813z"/>
	<path d="M125.865,335.813c-6.617,0-12,5.383-12,12s5.383,12,12,12s12-5.383,12-12S132.482,335.813,125.865,335.813z
		 M125.865,351.813c-2.206,0-4-1.794-4-4s1.794-4,4-4s4,1.794,4,4S128.071,351.813,125.865,351.813z"/>
	<path d="M157.876,335.813c-6.617,0-12,5.383-12,12s5.383,12,12,12s12-5.383,12-12S164.493,335.813,157.876,335.813z
		 M157.876,351.813c-2.206,0-4-1.794-4-4s1.794-4,4-4s4,1.794,4,4S160.082,351.813,157.876,351.813z"/>
	<path d="M189.887,335.813c-6.617,0-12,5.383-12,12s5.383,12,12,12s12-5.383,12-12S196.504,335.813,189.887,335.813z
		 M189.887,351.813c-2.206,0-4-1.794-4-4s1.794-4,4-4s4,1.794,4,4S192.093,351.813,189.887,351.813z"/>
	<path d="M221.899,335.813c-6.617,0-12,5.383-12,12s5.383,12,12,12s12-5.383,12-12S228.516,335.813,221.899,335.813z
		 M221.899,351.813c-2.206,0-4-1.794-4-4s1.794-4,4-4s4,1.794,4,4S224.105,351.813,221.899,351.813z"/>
	<path d="M253.909,335.813c-6.617,0-12,5.383-12,12s5.383,12,12,12s12-5.383,12-12S260.527,335.813,253.909,335.813z
		 M253.909,351.813c-2.206,0-4-1.794-4-4s1.794-4,4-4s4,1.794,4,4S256.115,351.813,253.909,351.813z"/>
	<path d="M285.921,335.813c-6.617,0-12,5.383-12,12s5.383,12,12,12s12-5.383,12-12S292.538,335.813,285.921,335.813z
		 M285.921,351.813c-2.206,0-4-1.794-4-4s1.794-4,4-4s4,1.794,4,4S288.127,351.813,285.921,351.813z"/>
	<path d="M317.932,335.813c-6.617,0-12,5.383-12,12s5.383,12,12,12s12-5.383,12-12S324.549,335.813,317.932,335.813z
		 M317.932,351.813c-2.206,0-4-1.794-4-4s1.794-4,4-4s4,1.794,4,4S320.138,351.813,317.932,351.813z"/>
</g>
<g>
</g>
<g>
</g>
<g>
</g>
<g>
</g>
<g>
</g>
<g>
</g>
<g>
</g>
<g>
</g>
<g>
</g>
<g>
</g>
<g>
</g>
<g>
</g>
<g>
</g>
<g>
</g>
<g>
</g>
</svg>
