<svg xmlns="http://www.w3.org/2000/svg" viewBox="0 0 411.625 411.625" style="enable-background:new 0 0 411.625 411.625" xml:space="preserve"><path d="M323.915 47.688H89.497c-8.822 0-16 7.178-16 16v136.375c0 8.822 7.178 16 16 16h232.191c8.822 0 16-7.178 16-16V63.688c0-8.972-6.05-16-13.773-16zm-38.992 152.375-78.004-78.004a7.999 7.999 0 0 0-11.314 0 7.998 7.998 0 0 0 0 11.313l66.69 66.69H89.497V63.688h36.424l37.684 37.685c1.562 1.562 3.609 2.343 5.657 2.343s4.095-.781 5.657-2.343a7.998 7.998 0 0 0 0-11.313l-26.371-26.371h173.14l.001 136.375h-36.766zM170.097 39.938h64.131a8 8 0 0 0 0-16h-64.131a8 8 0 0 0 0 16zM258.353 39.942c2.109 0 4.17-.86 5.66-2.35a8.055 8.055 0 0 0 2.34-5.66c0-2.1-.851-4.16-2.34-5.65a8.052 8.052 0 0 0-5.66-2.34c-2.101 0-4.17.85-5.66 2.34a8.088 8.088 0 0 0-2.34 5.65c0 2.11.859 4.17 2.34 5.66a8.072 8.072 0 0 0 5.66 2.35z"/><path d="M329.688 0H81.937c-17.645 0-32 14.355-32 32v347.625c0 17.645 14.355 32 32 32h247.75c17.645 0 32-14.355 32-32V32c.001-17.645-14.355-32-31.999-32zm16 379.625c0 8.822-7.178 16-16 16H81.937c-8.822 0-16-7.178-16-16V32c0-8.822 7.178-16 16-16h247.75c8.822 0 16 7.178 16 16v347.625z"/><path d="M93.854 240.183c-6.617 0-12 5.384-12 12 0 6.617 5.383 12 12 12s12-5.383 12-12-5.383-12-12-12zm0 16c-2.206 0-4-1.794-4-4 0-2.205 1.794-4 4-4s4 1.795 4 4c0 2.206-1.794 4-4 4zM125.865 240.183c-6.617 0-12 5.384-12 12 0 6.617 5.383 12 12 12s12-5.383 12-12-5.383-12-12-12zm0 16c-2.206 0-4-1.794-4-4 0-2.205 1.794-4 4-4s4 1.795 4 4c0 2.206-1.794 4-4 4zM157.876 240.183c-6.617 0-12 5.384-12 12 0 6.617 5.383 12 12 12s12-5.383 12-12-5.383-12-12-12zm0 16c-2.206 0-4-1.794-4-4 0-2.205 1.794-4 4-4s4 1.795 4 4c0 2.206-1.794 4-4 4zM189.887 240.183c-6.617 0-12 5.384-12 12 0 6.617 5.383 12 12 12s12-5.383 12-12-5.383-12-12-12zm0 16c-2.206 0-4-1.794-4-4 0-2.205 1.794-4 4-4s4 1.795 4 4c0 2.206-1.794 4-4 4zM221.899 240.183c-6.617 0-12 5.384-12 12 0 6.617 5.383 12 12 12s12-5.383 12-12-5.383-12-12-12zm0 16c-2.206 0-4-1.794-4-4 0-2.205 1.794-4 4-4s4 1.795 4 4c0 2.206-1.794 4-4 4zM253.909 240.183c-6.617 0-12 5.384-12 12 0 6.617 5.383 12 12 12s12-5.383 12-12-5.382-12-12-12zm0 16c-2.206 0-4-1.794-4-4 0-2.205 1.794-4 4-4s4 1.795 4 4c0 2.206-1.794 4-4 4zM285.921 240.183c-6.617 0-12 5.384-12 12 0 6.617 5.383 12 12 12s12-5.383 12-12-5.383-12-12-12zm0 16c-2.206 0-4-1.794-4-4 0-2.205 1.794-4 4-4s4 1.795 4 4c0 2.206-1.794 4-4 4zM317.932 240.183c-6.617 0-12 5.384-12 12 0 6.617 5.383 12 12 12s12-5.383 12-12-5.383-12-12-12zm0 16c-2.206 0-4-1.794-4-4 0-2.205 1.794-4 4-4s4 1.795 4 4c0 2.206-1.794 4-4 4zM93.854 272.058c-6.617 0-12 5.384-12 12 0 6.617 5.383 12 12 12s12-5.383 12-12-5.383-12-12-12zm0 16c-2.206 0-4-1.794-4-4 0-2.205 1.794-4 4-4s4 1.795 4 4c0 2.206-1.794 4-4 4zM125.865 272.058c-6.617 0-12 5.384-12 12 0 6.617 5.383 12 12 12s12-5.383 12-12-5.383-12-12-12zm0 16c-2.206 0-4-1.794-4-4 0-2.205 1.794-4 4-4s4 1.795 4 4c0 2.206-1.794 4-4 4zM157.876 272.058c-6.617 0-12 5.384-12 12 0 6.617 5.383 12 12 12s12-5.383 12-12-5.383-12-12-12zm0 16c-2.206 0-4-1.794-4-4 0-2.205 1.794-4 4-4s4 1.795 4 4c0 2.206-1.794 4-4 4zM189.887 272.058c-6.617 0-12 5.384-12 12 0 6.617 5.383 12 12 12s12-5.383 12-12-5.383-12-12-12zm0 16c-2.206 0-4-1.794-4-4 0-2.205 1.794-4 4-4s4 1.795 4 4c0 2.206-1.794 4-4 4zM221.899 272.058c-6.617 0-12 5.384-12 12 0 6.617 5.383 12 12 12s12-5.383 12-12-5.383-12-12-12zm0 16c-2.206 0-4-1.794-4-4 0-2.205 1.794-4 4-4s4 1.795 4 4c0 2.206-1.794 4-4 4zM253.909 272.058c-6.617 0-12 5.384-12 12 0 6.617 5.383 12 12 12s12-5.383 12-12-5.382-12-12-12zm0 16c-2.206 0-4-1.794-4-4 0-2.205 1.794-4 4-4s4 1.795 4 4c0 2.206-1.794 4-4 4zM285.921 272.058c-6.617 0-12 5.384-12 12 0 6.617 5.383 12 12 12s12-5.383 12-12-5.383-12-12-12zm0 16c-2.206 0-4-1.794-4-4 0-2.205 1.794-4 4-4s4 1.795 4 4c0 2.206-1.794 4-4 4zM317.932 272.058c-6.617 0-12 5.384-12 12 0 6.617 5.383 12 12 12s12-5.383 12-12-5.383-12-12-12zm0 16c-2.206 0-4-1.794-4-4 0-2.205 1.794-4 4-4s4 1.795 4 4c0 2.206-1.794 4-4 4zM93.854 303.938c-6.617 0-12 5.383-12 12s5.383 12 12 12 12-5.383 12-12-5.383-12-12-12zm0 16c-2.206 0-4-1.794-4-4s1.794-4 4-4 4 1.794 4 4-1.794 4-4 4zM125.865 303.938c-6.617 0-12 5.383-12 12s5.383 12 12 12 12-5.383 12-12-5.383-12-12-12zm0 16c-2.206 0-4-1.794-4-4s1.794-4 4-4 4 1.794 4 4-1.794 4-4 4zM157.876 303.938c-6.617 0-12 5.383-12 12s5.383 12 12 12 12-5.383 12-12-5.383-12-12-12zm0 16c-2.206 0-4-1.794-4-4s1.794-4 4-4 4 1.794 4 4-1.794 4-4 4zM189.887 303.938c-6.617 0-12 5.383-12 12s5.383 12 12 12 12-5.383 12-12-5.383-12-12-12zm0 16c-2.206 0-4-1.794-4-4s1.794-4 4-4 4 1.794 4 4-1.794 4-4 4zM221.899 303.938c-6.617 0-12 5.383-12 12s5.383 12 12 12 12-5.383 12-12-5.383-12-12-12zm0 16c-2.206 0-4-1.794-4-4s1.794-4 4-4 4 1.794 4 4-1.794 4-4 4zM253.909 303.938c-6.617 0-12 5.383-12 12s5.383 12 12 12 12-5.383 12-12-5.382-12-12-12zm0 16c-2.206 0-4-1.794-4-4s1.794-4 4-4 4 1.794 4 4-1.794 4-4 4zM285.921 303.938c-6.617 0-12 5.383-12 12s5.383 12 12 12 12-5.383 12-12-5.383-12-12-12zm0 16c-2.206 0-4-1.794-4-4s1.794-4 4-4 4 1.794 4 4-1.794 4-4 4zM317.932 303.938c-6.617 0-12 5.383-12 12s5.383 12 12 12 12-5.383 12-12-5.383-12-12-12zm0 16c-2.206 0-4-1.794-4-4s1.794-4 4-4 4 1.794 4 4-1.794 4-4 4zM93.854 335.813c-6.617 0-12 5.383-12 12s5.383 12 12 12 12-5.383 12-12-5.383-12-12-12zm0 16c-2.206 0-4-1.794-4-4s1.794-4 4-4 4 1.794 4 4-1.794 4-4 4zM125.865 335.813c-6.617 0-12 5.383-12 12s5.383 12 12 12 12-5.383 12-12-5.383-12-12-12zm0 16c-2.206 0-4-1.794-4-4s1.794-4 4-4 4 1.794 4 4-1.794 4-4 4zM157.876 335.813c-6.617 0-12 5.383-12 12s5.383 12 12 12 12-5.383 12-12-5.383-12-12-12zm0 16c-2.206 0-4-1.794-4-4s1.794-4 4-4 4 1.794 4 4-1.794 4-4 4zM189.887 335.813c-6.617 0-12 5.383-12 12s5.383 12 12 12 12-5.383 12-12-5.383-12-12-12zm0 16c-2.206 0-4-1.794-4-4s1.794-4 4-4 4 1.794 4 4-1.794 4-4 4zM221.899 335.813c-6.617 0-12 5.383-12 12s5.383 12 12 12 12-5.383 12-12-5.383-12-12-12zm0 16c-2.206 0-4-1.794-4-4s1.794-4 4-4 4 1.794 4 4-1.794 4-4 4zM253.909 335.813c-6.617 0-12 5.383-12 12s5.383 12 12 12 12-5.383 12-12-5.382-12-12-12zm0 16c-2.206 0-4-1.794-4-4s1.794-4 4-4 4 1.794 4 4-1.794 4-4 4zM285.921 335.813c-6.617 0-12 5.383-12 12s5.383 12 12 12 12-5.383 12-12-5.383-12-12-12zm0 16c-2.206 0-4-1.794-4-4s1.794-4 4-4 4 1.794 4 4-1.794 4-4 4zM317.932 335.813c-6.617 0-12 5.383-12 12s5.383 12 12 12 12-5.383 12-12-5.383-12-12-12zm0 16c-2.206 0-4-1.794-4-4s1.794-4 4-4 4 1.794 4 4-1.794 4-4 4z"/></svg>