<svg xmlns="http://www.w3.org/2000/svg" viewBox="0 0 464.119 464.119" style="enable-background:new 0 0 464.119 464.119" xml:space="preserve"><path d="M352.104 135.986h-240.09a8 8 0 0 0 0 16h240.09a8 8 0 0 0 0-16z"/><path d="M456.119 151.986h-32.47c-3.951-31.525-30.903-56-63.482-56h-9.335C343.394 71.643 301.496 56.34 239.87 56.34h-15.833c-61.508 0-103.327 15.303-110.751 39.646h-9.333c-32.579 0-59.531 24.475-63.482 56H8a8 8 0 0 0-8 8v7.524c0 17.907 14.569 32.476 32.477 32.476h7.476v175.792a8 8 0 0 0 8 8h17.409c3.562 13.786 16.104 24 30.987 24s27.426-10.214 30.987-24h209.129c3.562 13.786 16.104 24 30.987 24s27.426-10.214 30.987-24h17.728a8 8 0 0 0 8-8V199.986h7.476c17.907 0 32.477-14.568 32.477-32.476v-7.524a8.002 8.002 0 0 0-8.001-8zM224.036 72.341h15.833c30.383 0 55.912 3.826 73.829 11.063 9.018 3.643 15.579 8.002 19.171 12.582H131.148c9.539-12.518 41.413-23.645 92.888-23.645zM32.477 183.986c-8.926 0-16.217-7.135-16.47-16h23.945v16h-7.475zm63.872 207.792c-5.906 0-11.063-3.226-13.835-8h27.67c-2.772 4.774-7.929 8-13.835 8zm271.103 0c-5.906 0-11.063-3.226-13.835-8h27.67c-2.772 4.774-7.928 8-13.835 8zm40.715-24H55.952V159.986c0-26.468 21.533-48 48-48h256.215c26.467 0 48 21.532 48 48v207.792zm23.476-183.792h-7.476v-16h23.945c-.253 8.866-7.544 16-16.469 16z"/></svg>