<svg xmlns="http://www.w3.org/2000/svg" viewBox="0 0 408.152 408.152" style="enable-background:new 0 0 408.152 408.152" xml:space="preserve"><path d="M390.857 119.86H193.599c-9.486 0-17.203 7.618-17.203 16.982v39.283h-8.25v-49.894c0-.411-.041-.812-.101-1.206 5.226-11.249 8.15-23.775 8.15-36.973C176.195 39.5 136.695 0 88.143 0 39.591 0 .091 39.5.091 88.052c0 13.368 3 26.047 8.354 37.408a8.193 8.193 0 0 0-.039.772v243.143c0 21.382 18.244 38.778 40.669 38.778h78.402c22.425 0 40.669-17.396 40.669-38.778V224.027h8.25v46.976c0 9.364 7.717 16.982 17.203 16.982h197.259c9.486 0 17.204-7.618 17.204-16.982V136.842c0-9.363-7.718-16.982-17.205-16.982zM88.143 16c39.73 0 72.053 32.322 72.053 72.052s-32.322 72.053-72.053 72.053c-39.729 0-72.052-32.323-72.052-72.053S48.413 16 88.143 16zm0 192.022c4.414 0 8.005 3.591 8.005 8.004 0 4.414-3.591 8.005-8.005 8.005s-8.005-3.591-8.005-8.005c0-4.413 3.591-8.004 8.005-8.004zm39.334 184.13H49.074c-13.603 0-24.669-10.218-24.669-22.778v-220.63c14.35 15.063 33.971 25.057 55.87 27.006v17.604c-9.383 3.265-16.138 12.193-16.138 22.674 0 13.236 10.769 24.005 24.005 24.005s24.005-10.769 24.005-24.005c0-10.382-6.627-19.244-15.872-22.583v-17.718c21.929-2.018 41.555-12.107 55.87-27.267v220.915c.001 12.559-11.066 22.777-24.668 22.777zm40.669-200.027h47.859c4.586 0 8.317 3.567 8.317 7.951s-3.731 7.951-8.317 7.951h-47.859v-15.902zm223.916 78.878c0 .463-.515.982-1.204.982H193.599c-.688 0-1.203-.519-1.203-.982v-46.976h23.609c13.408 0 24.317-10.745 24.317-23.951s-10.909-23.951-24.317-23.951h-23.609v-39.283c0-.463.515-.982 1.203-.982h197.259c.689 0 1.204.519 1.204.982v134.161z"/><path d="M116.528 341.658H60.846a8 8 0 0 0 0 16h55.683a8 8 0 1 0-.001-16zM88.143 144.105c30.907 0 56.053-25.145 56.053-56.053C144.195 57.145 119.05 32 88.143 32S32.091 57.145 32.091 88.052c0 30.908 25.144 56.053 56.052 56.053zm0-96.105c22.085 0 40.053 17.967 40.053 40.052s-17.968 40.053-40.053 40.053-40.052-17.968-40.052-40.053S66.058 48 88.143 48z"/><path d="M88.143 112.105c13.263 0 24.053-10.79 24.053-24.053a8 8 0 0 0-16 0c0 4.44-3.612 8.053-8.053 8.053-4.439 0-8.052-3.612-8.052-8.053 0-4.44 3.612-8.052 8.052-8.052a8 8 0 0 0 0-16c-13.262 0-24.052 10.79-24.052 24.052s10.79 24.053 24.052 24.053z"/></svg>