<svg xmlns="http://www.w3.org/2000/svg" viewBox="0 0 448 448" style="enable-background:new 0 0 448 448" xml:space="preserve"><path d="M332.167 0H115.833c-17.645 0-32 14.355-32 32v408a8 8 0 0 0 8 8h264.333a8 8 0 0 0 8-8V32c.001-17.645-14.354-32-31.999-32zm-24.459 432h-167.75V280c0-4.411 3.589-8 8-8h151.75c4.411 0 8 3.589 8 8v152zm40.459 0h-24.458V280c0-13.233-10.767-24-24-24h-151.75c-13.233 0-24 10.767-24 24v152H99.833V32c0-8.822 7.178-16 16-16h216.333c8.822 0 16 7.178 16 16v400z"/><path d="M299.708 40h-151.75c-13.233 0-24 10.767-24 24v144c0 13.233 10.767 24 24 24h151.75c13.233 0 24-10.767 24-24V64c0-13.233-10.766-24-24-24zm0 176h-151.75c-4.411 0-8-3.589-8-8v-23.75h128.208a8 8 0 0 0 0-16H139.958V64c0-4.411 3.589-8 8-8h151.75c4.411 0 8 3.589 8 8v104.25h-7.375a8 8 0 0 0 0 16h7.375V208c0 4.411-3.588 8-8 8z"/><path d="M283.583 64h-119.5a8 8 0 0 0-8 8v80a8 8 0 0 0 8 8h99.236c1.428 1.092 3.136 1.646 4.847 1.646s3.419-.554 4.847-1.646h10.57a8 8 0 0 0 8-8V72a8 8 0 0 0-8-8zm-111.5 16h11.123l14.436 14.436c1.562 1.562 3.609 2.343 5.657 2.343s4.095-.781 5.657-2.343a7.999 7.999 0 0 0 0-11.314L205.835 80h69.749v64h-5.749l-37.22-37.22a8.001 8.001 0 0 0-11.313 0 7.999 7.999 0 0 0 0 11.314L247.207 144h-75.124V80z"/></svg>