<?xml version="1.0" encoding="iso-8859-1"?>
<!-- Generator: Adobe Illustrator 17.1.0, SVG Export Plug-In . SVG Version: 6.00 Build 0)  -->
<!DOCTYPE svg PUBLIC "-//W3C//DTD SVG 1.1//EN" "http://www.w3.org/Graphics/SVG/1.1/DTD/svg11.dtd">
<svg version="1.1" id="Capa_1" xmlns="http://www.w3.org/2000/svg" xmlns:xlink="http://www.w3.org/1999/xlink" x="0px" y="0px"
	 viewBox="0 0 448 448" style="enable-background:new 0 0 448 448;" xml:space="preserve">
<g>
	<path d="M332.167,0H115.833c-17.645,0-32,14.355-32,32v408c0,4.418,3.582,8,8,8h264.333c4.418,0,8-3.582,8-8V32
		C364.167,14.355,349.812,0,332.167,0z M307.708,432h-167.75V280c0-4.411,3.589-8,8-8h151.75c4.411,0,8,3.589,8,8V432z M348.167,432
		h-24.458V280c0-13.233-10.767-24-24-24h-151.75c-13.233,0-24,10.767-24,24v152H99.833V32c0-8.822,7.178-16,16-16h216.333
		c8.822,0,16,7.178,16,16V432z"/>
	<path d="M299.708,40h-151.75c-13.233,0-24,10.767-24,24v144c0,13.233,10.767,24,24,24h151.75c13.233,0,24-10.767,24-24V64
		C323.708,50.767,312.942,40,299.708,40z M299.708,216h-151.75c-4.411,0-8-3.589-8-8v-23.75h128.208c4.418,0,8-3.582,8-8
		s-3.582-8-8-8H139.958V64c0-4.411,3.589-8,8-8h151.75c4.411,0,8,3.589,8,8v104.25h-7.375c-4.418,0-8,3.582-8,8s3.582,8,8,8h7.375
		V208C307.708,212.411,304.12,216,299.708,216z"/>
	<path d="M283.583,64h-119.5c-4.418,0-8,3.582-8,8v80c0,4.418,3.582,8,8,8h99.236c1.428,1.092,3.136,1.646,4.847,1.646
		s3.419-0.554,4.847-1.646h10.57c4.418,0,8-3.582,8-8V72C291.583,67.582,288.002,64,283.583,64z M172.083,80h11.123l14.436,14.436
		c1.562,1.562,3.609,2.343,5.657,2.343s4.095-0.781,5.657-2.343c3.125-3.125,3.125-8.19,0-11.314L205.835,80h69.749v64h-5.749
		l-37.22-37.22c-3.124-3.123-8.189-3.123-11.313,0c-3.125,3.125-3.125,8.189,0,11.314L247.207,144h-75.124V80z"/>
</g>
<g>
</g>
<g>
</g>
<g>
</g>
<g>
</g>
<g>
</g>
<g>
</g>
<g>
</g>
<g>
</g>
<g>
</g>
<g>
</g>
<g>
</g>
<g>
</g>
<g>
</g>
<g>
</g>
<g>
</g>
</svg>
