<svg xmlns="http://www.w3.org/2000/svg" viewBox="0 0 423.771 423.771" style="enable-background:new 0 0 423.771 423.771" xml:space="preserve"><path d="M396.354 119.818h-68.551v-15.021c0-22.608-18.393-41.001-41.001-41.001H137.137c-22.608 0-41.001 18.393-41.001 41.001v15.021H27.418C12.3 119.818 0 132.118 0 147.236v185.32c0 15.118 12.3 27.418 27.418 27.418h368.936c15.118 0 27.418-12.3 27.418-27.418v-185.32c-.001-15.118-12.3-27.418-27.418-27.418zm-284.218-15.02c0-13.785 11.216-25.001 25.001-25.001h149.665c13.785 0 25.001 11.216 25.001 25.001v15.021H112.136v-15.021zm295.635 227.759c0 6.296-5.122 11.418-11.418 11.418H27.418c-6.296 0-11.418-5.122-11.418-11.418v-185.32c0-6.296 5.122-11.418 11.418-11.418h368.936c6.296 0 11.418 5.122 11.418 11.418v185.32z"/><path d="M88.012 215.644c-30.84 0-55.93 25.09-55.93 55.929 0 30.84 25.09 55.931 55.93 55.931s55.93-25.091 55.93-55.931c-.001-30.84-25.09-55.929-55.93-55.929zm0 95.859c-22.018 0-39.93-17.913-39.93-39.931 0-22.017 17.912-39.929 39.93-39.929s39.93 17.912 39.93 39.929c-.001 22.018-17.913 39.931-39.93 39.931zM263.886 231.818h-104a8 8 0 0 0-8 8v63.916a8 8 0 0 0 8 8h104a8 8 0 0 0 8-8v-63.916a8 8 0 0 0-8-8zm-8 63.916h-88v-47.916h88v47.916z"/><path d="M191.843 287.499c8.67 0 15.723-7.053 15.723-15.723s-7.053-15.723-15.723-15.723-15.723 7.053-15.723 15.723 7.053 15.723 15.723 15.723zm0-16c.153 0 .277.124.277.277 0 .307-.555.307-.555 0 0-.153.124-.277.278-.277zM232.005 287.499c8.669 0 15.722-7.053 15.722-15.723s-7.053-15.723-15.722-15.723c-8.67 0-15.723 7.053-15.723 15.723s7.053 15.723 15.723 15.723zm0-16c.153 0 .277.124.277.277 0 .307-.556.307-.556 0a.28.28 0 0 1 .279-.277zM383.839 183.818H40.082a8 8 0 0 0 0 16h343.757a8 8 0 0 0 0-16zM383.839 151.901h-16.286a8 8 0 0 0 0 16h16.286a8 8 0 0 0 0-16zM328.172 167.901h16.286a8 8 0 0 0 0-16h-16.286a8 8 0 0 0 0 16zM288.148 167.901h16.286a8 8 0 0 0 0-16h-16.286a8 8 0 0 0 0 16zM40.086 167.905c2.1 0 4.159-.859 5.649-2.35s2.351-3.55 2.351-5.66c0-2.1-.86-4.16-2.351-5.65a8.048 8.048 0 0 0-5.649-2.34c-2.11 0-4.17.851-5.66 2.34a8.046 8.046 0 0 0-2.34 5.65c0 2.11.85 4.18 2.34 5.66a8.056 8.056 0 0 0 5.66 2.35zM72.336 167.905c2.1 0 4.159-.859 5.649-2.35s2.351-3.55 2.351-5.65c0-2.109-.86-4.17-2.351-5.66a8.048 8.048 0 0 0-5.649-2.34c-2.11 0-4.17.851-5.66 2.34a8.052 8.052 0 0 0-2.34 5.66c0 2.101.85 4.16 2.34 5.65s3.55 2.35 5.66 2.35zM104.136 167.905c2.109 0 4.17-.859 5.66-2.35a8.049 8.049 0 0 0 2.34-5.65c0-2.109-.851-4.17-2.34-5.66a8.056 8.056 0 0 0-5.66-2.34c-2.11 0-4.17.851-5.66 2.34a8.052 8.052 0 0 0-2.34 5.66c0 2.101.85 4.16 2.34 5.65s3.549 2.35 5.66 2.35zM103.691 263.573a8 8 0 0 0-8 8c0 4.234-3.445 7.68-7.68 7.68s-7.68-3.445-7.68-7.68 3.445-7.68 7.68-7.68a8 8 0 0 0 0-16c-13.057 0-23.68 10.623-23.68 23.68s10.623 23.68 23.68 23.68 23.68-10.623 23.68-23.68a8 8 0 0 0-8-8zM335.909 215.644c-30.84 0-55.93 25.09-55.93 55.929 0 30.84 25.09 55.931 55.93 55.931s55.93-25.091 55.93-55.931c0-30.84-25.09-55.929-55.93-55.929zm0 95.859c-22.018 0-39.93-17.913-39.93-39.931 0-22.017 17.912-39.929 39.93-39.929s39.93 17.912 39.93 39.929c0 22.018-17.912 39.931-39.93 39.931z"/><path d="M351.589 263.573a8 8 0 0 0-8 8c0 4.234-3.445 7.68-7.68 7.68s-7.68-3.445-7.68-7.68 3.445-7.68 7.68-7.68a8 8 0 0 0 0-16c-13.057 0-23.68 10.623-23.68 23.68s10.623 23.68 23.68 23.68 23.68-10.623 23.68-23.68a8 8 0 0 0-8-8z"/></svg>