<svg xmlns="http://www.w3.org/2000/svg" viewBox="0 0 404.705 404.705" style="enable-background:new 0 0 404.705 404.705" xml:space="preserve"><path d="m398.773 133.361-21.966-5.887 9.095-10.824a8 8 0 0 0-4.053-12.874L65.097 18.848a8.002 8.002 0 0 0-9.8 5.656L45.291 61.843a8.043 8.043 0 0 0-.474 1.286c-.121.45-.192.901-.233 1.35l-20.413 76.177a8 8 0 0 0 5.655 9.798l147.003 39.422-30.933 116.52H94.245c-3.186-9.323-11.962-16.072-22.314-16.229v-9.543c0-21.133-18.328-38.327-40.855-38.327H8a8 8 0 0 0-8 8V378.13a8 8 0 0 0 8 8h23.076c22.527 0 40.855-17.193 40.855-38.327v-9.72c10.151-.154 18.792-6.645 22.128-15.687h57.991a7.999 7.999 0 0 0 7.732-5.947l32.501-122.428 77.815 20.868a44.649 44.649 0 0 0 11.562 1.542c9.144 0 18.005-2.912 25.584-8.293l66.708 17.875a8 8 0 0 0 9.798-5.658l20.68-77.196a8 8 0 0 0-5.657-9.798zM55.932 347.804c0 9.557-6.721 17.728-16.14 20.906v-87.08a8 8 0 0 0-16 0v88.5H16V258.297h15.076c13.705 0 24.855 10.016 24.855 22.327v67.18zm16-25.73v-15.898c4.222.194 7.6 3.68 7.6 7.949s-3.378 7.755-7.6 7.949zm202.313-122.639L41.697 137.072 58.322 75.03l247.101 66.21c.693.186 1.39.274 2.075.274a8 8 0 0 0 2.066-15.73l-247.1-66.21 6.217-23.201 296.889 79.604-64.003 76.165c-5.591 5.348-12.646 8.288-19.905 8.288a28.67 28.67 0 0 1-7.417-.995zm96.121 9.051-50.307-13.48 45.387-54.011 21.46 5.751-16.54 61.74z"/></svg>