<?xml version="1.0" encoding="iso-8859-1"?>
<!-- Generator: Adobe Illustrator 17.1.0, SVG Export Plug-In . SVG Version: 6.00 Build 0)  -->
<!DOCTYPE svg PUBLIC "-//W3C//DTD SVG 1.1//EN" "http://www.w3.org/Graphics/SVG/1.1/DTD/svg11.dtd">
<svg version="1.1" id="Capa_1" xmlns="http://www.w3.org/2000/svg" xmlns:xlink="http://www.w3.org/1999/xlink" x="0px" y="0px"
	 viewBox="0 0 424 424" style="enable-background:new 0 0 424 424;" xml:space="preserve">
<g>
	<path d="M416,71.381H8c-4.418,0-8,3.582-8,8v39.336c0,18.055,14.188,32.855,32,33.846v22.151c0,47.99,18.747,92.842,52.789,126.293
		c33.868,33.282,79.068,51.611,127.273,51.611s93.405-18.329,127.273-51.611c34.042-33.452,52.789-78.304,52.789-126.293v-22.161
		C409.877,151.501,424,136.73,424,118.717V79.381C424,74.963,420.418,71.381,416,71.381z M160,328.259V252.59
		c0-28.627,23.29-51.917,51.917-51.917s51.916,23.29,51.916,51.917v75.763c-16.282,5.357-33.688,8.266-51.771,8.266
		C193.872,336.619,176.365,333.677,160,328.259z M279.833,322.149V252.59c0-37.449-30.467-67.917-67.916-67.917
		S144,215.141,144,252.59v69.424c-56.588-25.565-96-81.974-96-147.3V152.62h328.125v22.095
		C376.125,240.154,336.579,296.646,279.833,322.149z M408,118.717c0,9.872-8.031,17.902-17.902,17.902H33.902
		c-9.871,0-17.902-8.031-17.902-17.902V87.381h392V118.717z"/>
	<path d="M240,244.505c-4.418,0-8,3.582-8,8c0,11.037-8.979,20.015-20.015,20.015s-20.015-8.979-20.015-20.015
		c0-11.036,8.979-20.015,20.015-20.015c4.418,0,8-3.582,8-8s-3.582-8-8-8c-19.858,0-36.015,16.156-36.015,36.015
		c0,19.859,16.156,36.015,36.015,36.015S248,272.364,248,252.505C248,248.086,244.418,244.505,240,244.505z"/>
</g>
<g>
</g>
<g>
</g>
<g>
</g>
<g>
</g>
<g>
</g>
<g>
</g>
<g>
</g>
<g>
</g>
<g>
</g>
<g>
</g>
<g>
</g>
<g>
</g>
<g>
</g>
<g>
</g>
<g>
</g>
</svg>
