<svg xmlns="http://www.w3.org/2000/svg" viewBox="0 0 407.936 407.936" style="enable-background:new 0 0 407.936 407.936" xml:space="preserve"><path d="M363.988 311.667c0-.041-.005-.08-.006-.121-.129-38.091-13.847-74.924-38.669-103.769-23.173-26.931-54.619-45.384-89.143-52.453v-23.762c0-10.948-8.906-19.854-19.854-19.854h-4.348V8a8 8 0 0 0-16 0v103.708h-4.348c-10.948 0-19.854 8.906-19.854 19.854v23.762c-34.524 7.069-65.969 25.522-89.143 52.453-24.822 28.845-38.539 65.678-38.669 103.769-.001.041-.006.08-.006.121 0 .026.004.051.004.077 0 .116-.004.231-.004.346v31.41a8 8 0 0 0 8 8h88.482c3.756 31.735 30.809 56.436 63.538 56.436s59.781-24.7 63.538-56.436h88.482a8 8 0 0 0 8-8v-31.41c0-.115-.004-.23-.004-.346 0-.026.004-.051.004-.077zm-160.02 80.269c-23.893 0-43.76-17.55-47.399-40.436h94.797c-3.638 22.886-23.505 40.436-47.398 40.436zM59.948 335.5v-15.833h232.353a8 8 0 0 0 0-16H60.196c3.837-67.417 53.461-122.992 120.833-133.771a7.897 7.897 0 0 0 1.258-.313h21.68a8 8 0 0 0 0-16h-16.203v-22.021a3.858 3.858 0 0 1 3.854-3.854h24.696a3.858 3.858 0 0 1 3.854 3.854v30.434a7.999 7.999 0 0 0 6.736 7.899c67.372 10.78 116.996 66.355 120.833 133.771h-23.813a8 8 0 0 0 0 16h24.062V335.5H59.948z"/></svg>