<?xml version="1.0" encoding="iso-8859-1"?>
<!-- Generator: Adobe Illustrator 17.1.0, SVG Export Plug-In . SVG Version: 6.00 Build 0)  -->
<!DOCTYPE svg PUBLIC "-//W3C//DTD SVG 1.1//EN" "http://www.w3.org/Graphics/SVG/1.1/DTD/svg11.dtd">
<svg version="1.1" id="Capa_1" xmlns="http://www.w3.org/2000/svg" xmlns:xlink="http://www.w3.org/1999/xlink" x="0px" y="0px"
	 viewBox="0 0 335.585 335.585" style="enable-background:new 0 0 335.585 335.585;" xml:space="preserve">
<g>
	<path d="M215.498,191.793c0-26.503-21.563-48.065-48.065-48.065c-26.503,0-48.065,21.562-48.065,48.065
		c0,26.504,21.562,48.066,48.065,48.066C193.936,239.859,215.498,218.297,215.498,191.793z M167.433,223.859
		c-17.681,0-32.065-14.385-32.065-32.066c0-17.681,14.384-32.065,32.065-32.065c17.681,0,32.065,14.384,32.065,32.065
		C199.498,209.475,185.114,223.859,167.433,223.859z"/>
	<path d="M183.487,183.793c-4.418,0-8,3.582-8,8c0,4.441-3.613,8.054-8.054,8.054s-8.053-3.613-8.053-8.054
		c0-4.44,3.613-8.053,8.053-8.053c4.418,0,8-3.582,8-8s-3.582-8-8-8c-13.263,0-24.053,10.79-24.053,24.053
		s10.79,24.054,24.053,24.054c13.264,0,24.054-10.791,24.054-24.054C191.487,187.375,187.905,183.793,183.487,183.793z"/>
	<path d="M263.723,287.679h-72.29v-18.105c63.661-11.22,112.179-66.927,112.179-133.755C303.612,60.928,242.683,0,167.792,0
		S31.973,60.928,31.973,135.818c0,66.568,48.14,122.1,111.434,133.622v18.239H71.433c-13.233,0-24,10.745-24,23.953v15.953
		c0,4.418,3.582,8,8,8h224.29c4.418,0,8-3.582,8-8v-15.953C287.723,298.424,276.956,287.679,263.723,287.679z M47.973,135.818
		C47.973,69.75,101.724,16,167.792,16s119.819,53.75,119.819,119.818c0,66.068-53.751,119.819-119.819,119.819
		S47.973,201.887,47.973,135.818z M159.407,271.371c2.774,0.17,5.568,0.266,8.385,0.266c2.564,0,5.111-0.078,7.641-0.219v16.261
		h-16.025V271.371z M271.723,319.585H63.433v-7.953c0-4.385,3.589-7.953,8-7.953h192.29c4.411,0,8,3.568,8,7.953V319.585z"/>
</g>
<g>
</g>
<g>
</g>
<g>
</g>
<g>
</g>
<g>
</g>
<g>
</g>
<g>
</g>
<g>
</g>
<g>
</g>
<g>
</g>
<g>
</g>
<g>
</g>
<g>
</g>
<g>
</g>
<g>
</g>
</svg>
