<svg xmlns="http://www.w3.org/2000/svg" viewBox="0 0 335.585 335.585" style="enable-background:new 0 0 335.585 335.585" xml:space="preserve"><path d="M215.498 191.793c0-26.503-21.563-48.065-48.065-48.065-26.503 0-48.065 21.562-48.065 48.065 0 26.504 21.562 48.066 48.065 48.066 26.503 0 48.065-21.562 48.065-48.066zm-48.065 32.066c-17.681 0-32.065-14.385-32.065-32.066 0-17.681 14.384-32.065 32.065-32.065 17.681 0 32.065 14.384 32.065 32.065 0 17.682-14.384 32.066-32.065 32.066z"/><path d="M183.487 183.793a8 8 0 0 0-8 8c0 4.441-3.613 8.054-8.054 8.054s-8.053-3.613-8.053-8.054c0-4.44 3.613-8.053 8.053-8.053a8 8 0 0 0 0-16c-13.263 0-24.053 10.79-24.053 24.053s10.79 24.054 24.053 24.054c13.264 0 24.054-10.791 24.054-24.054a8 8 0 0 0-8-8z"/><path d="M263.723 287.679h-72.29v-18.105c63.661-11.22 112.179-66.927 112.179-133.755C303.612 60.928 242.683 0 167.792 0S31.973 60.928 31.973 135.818c0 66.568 48.14 122.1 111.434 133.622v18.239H71.433c-13.233 0-24 10.745-24 23.953v15.953a8 8 0 0 0 8 8h224.29a8 8 0 0 0 8-8v-15.953c0-13.208-10.767-23.953-24-23.953zM47.973 135.818C47.973 69.75 101.724 16 167.792 16s119.819 53.75 119.819 119.818-53.751 119.819-119.819 119.819-119.819-53.75-119.819-119.819zm111.434 135.553c2.774.17 5.568.266 8.385.266 2.564 0 5.111-.078 7.641-.219v16.261h-16.025v-16.308zm112.316 48.214H63.433v-7.953c0-4.385 3.589-7.953 8-7.953h192.29c4.411 0 8 3.568 8 7.953v7.953z"/></svg>