<svg xmlns="http://www.w3.org/2000/svg" viewBox="0 0 424.166 424.166" style="enable-background:new 0 0 424.166 424.166" xml:space="preserve"><path d="M220.146 32.202c-28.742 0-52.125 23.383-52.125 52.125s23.383 52.125 52.125 52.125 52.125-23.383 52.125-52.125-23.384-52.125-52.125-52.125zm0 88.25c-19.919 0-36.125-16.206-36.125-36.125s16.206-36.125 36.125-36.125 36.125 16.206 36.125 36.125-16.206 36.125-36.125 36.125zM144.396 76.327a8 8 0 0 0-8 8c0 6.502-5.29 11.792-11.792 11.792s-11.792-5.29-11.792-11.792 5.29-11.791 11.792-11.791a8 8 0 0 0 0-16c-15.324 0-27.792 12.467-27.792 27.791s12.467 27.792 27.792 27.792 27.792-12.468 27.792-27.792a8 8 0 0 0-8-8zM335.671 76.327a8 8 0 0 0-8 8c0 6.502-5.29 11.792-11.792 11.792s-11.792-5.29-11.792-11.792 5.29-11.791 11.792-11.791a8 8 0 0 0 0-16c-15.325 0-27.792 12.467-27.792 27.791s12.467 27.792 27.792 27.792c15.324 0 27.792-12.468 27.792-27.792a8 8 0 0 0-8-8z"/><path d="M408.813 240.163v-47.66c0-.265-.014-.529-.04-.793-.011-.116-.033-.228-.049-.342-.021-.144-.037-.289-.066-.432-.026-.133-.063-.262-.096-.392-.031-.123-.058-.246-.094-.367-.039-.128-.087-.251-.132-.376-.043-.121-.083-.243-.133-.363-.048-.116-.105-.228-.159-.342-.058-.123-.112-.247-.177-.367-.058-.109-.125-.213-.188-.319-.07-.118-.137-.238-.214-.353-.076-.114-.161-.221-.243-.331-.074-.099-.144-.202-.223-.298a8.102 8.102 0 0 0-.482-.533c-.017-.017-.03-.036-.047-.052l-18.676-18.677h4.333l.019.001a8 8 0 0 0 8-8V32c0-17.645-14.355-32-32-32h-296c-17.645 0-32 14.355-32 32v120.166h-20c-10.959 0-19.875 8.916-19.875 19.875s8.916 19.875 19.875 19.875h36.667v124.505c-9.923 5.441-16.667 15.986-16.667 28.079v71.666a8 8 0 0 0 8 8h344a8 8 0 0 0 8-8V344.5c0-14.792-10.091-27.268-23.75-30.916V179.397l16.417 16.417v47.217c-5.228 3.584-8.667 9.596-8.667 16.399v44.429a8 8 0 0 0 7.993 8l23.75.021h.007a7.998 7.998 0 0 0 8-8v-44.45c0-9.305-6.436-17.114-15.083-19.267zM56.146 32c0-8.822 7.178-16 16-16h296c8.822 0 16 7.178 16 16v120.166h-328V32zm127.875 136.458c0-.099-.011-.194-.015-.292h72.28c-.004.098-.015.193-.015.292v23.833c0 4.411-3.589 8-8 8h-56.25c-4.411 0-8-3.589-8-8v-23.833zm-167.75 3.583a3.879 3.879 0 0 1 3.875-3.875h27.981l.019.001.019-.001h119.87c-.004.098-.015.193-.015.292v7.458H20.146a3.879 3.879 0 0 1-3.875-3.875zm151.75 19.875v.375c0 13.233 10.766 24 24 24h56.25c13.234 0 24-10.767 24-24v-23.833c0-.099-.011-.194-.015-.292h88.14V312.5H72.813V191.916h95.208zM384.146 344.5v63.666h-328V344.5c0-8.822 7.178-16 16-16h296c8.822 0 16 7.178 16 16zm23.75-48.628-7.75-.007V259.43c0-2.137 1.738-3.875 3.875-3.875s3.875 1.738 3.875 3.875v36.442z"/><path d="M328.146 336.333a8 8 0 0 0-8 8c0 8.822-7.178 16-16 16h-168c-8.822 0-16-7.178-16-16a8 8 0 0 0-16 0c0 17.645 14.355 32 32 32h168c17.645 0 32-14.355 32-32a8 8 0 0 0-8-8z"/></svg>