<svg xmlns="http://www.w3.org/2000/svg" viewBox="0 0 416.248 416.248" style="enable-background:new 0 0 416.248 416.248" xml:space="preserve"><path d="M207.904 296.203c-2.1 0-4.17.86-5.66 2.35a8.088 8.088 0 0 0-2.34 5.65c0 2.11.86 4.17 2.34 5.66a8.068 8.068 0 0 0 5.66 2.34c2.11 0 4.17-.85 5.66-2.34a8.05 8.05 0 0 0 2.34-5.66c0-2.1-.85-4.16-2.34-5.65a8.064 8.064 0 0 0-5.66-2.35z"/><path d="M416.248 280.019c0-.515-.053-1.016-.146-1.504V80.041c0-22.057-17.944-40-40-40H40c-22.056 0-40 17.943-40 40v216.103c0 22.056 17.944 40 40 40h104.149v24.063h-24.161a8 8 0 0 0 0 16h174.991a8 8 0 0 0 0-16h-23.241v-24.063h104.363c22.056 0 40-17.944 40-40v-14.62c.093-.488.147-.99.147-1.505zM40 56.041h44.738l36.657 36.656c1.562 1.563 3.609 2.344 5.657 2.344s4.095-.781 5.657-2.344a7.998 7.998 0 0 0 0-11.313l-25.343-25.343h268.737c13.234 0 24 10.766 24 24V272.02h-76.758L164.708 113.383a8 8 0 0 0-11.313 0 7.999 7.999 0 0 0 0 11.314l147.323 147.322H16V80.041c0-13.234 10.766-24 24-24zm215.738 304.166h-95.589v-24.063h95.589v24.063zm120.364-40.063H40c-13.234 0-24-10.766-24-24v-8.124h384.102v8.124c0 13.233-10.767 24-24 24z"/></svg>