<?xml version="1.0" encoding="iso-8859-1"?>
<!-- Generator: Adobe Illustrator 17.1.0, SVG Export Plug-In . SVG Version: 6.00 Build 0)  -->
<!DOCTYPE svg PUBLIC "-//W3C//DTD SVG 1.1//EN" "http://www.w3.org/Graphics/SVG/1.1/DTD/svg11.dtd">
<svg version="1.1" id="Capa_1" xmlns="http://www.w3.org/2000/svg" xmlns:xlink="http://www.w3.org/1999/xlink" x="0px" y="0px"
	 viewBox="0 0 464.055 464.055" style="enable-background:new 0 0 464.055 464.055;" xml:space="preserve">
<g>
	<path d="M441.568,119.965H22.487C10.088,119.965,0,130.056,0,142.459v179.145c0,12.399,10.088,22.486,22.487,22.486h419.081
		c12.399,0,22.486-10.087,22.486-22.486V142.459C464.055,130.056,453.968,119.965,441.568,119.965z M448.055,321.604
		c0,3.516-2.971,6.486-6.486,6.486H22.487c-3.517,0-6.487-2.97-6.487-6.486V142.459c0-3.581,2.91-6.494,6.487-6.494h419.081
		c3.576,0,6.486,2.913,6.486,6.494V321.604z"/>
	<path d="M56.172,175.965h15.816c4.418,0,8-3.582,8-8s-3.582-8-8-8H56.172c-4.418,0-8,3.582-8,8S51.754,175.965,56.172,175.965z"/>
	<path d="M104.171,175.965h15.816c4.418,0,8-3.582,8-8s-3.582-8-8-8h-15.816c-4.418,0-8,3.582-8,8S99.753,175.965,104.171,175.965z"
		/>
	<path d="M152.422,175.965h15.816c4.418,0,8-3.582,8-8s-3.582-8-8-8h-15.816c-4.418,0-8,3.582-8,8S148.004,175.965,152.422,175.965z
		"/>
	<path d="M200.421,175.965h15.816c4.418,0,8-3.582,8-8s-3.582-8-8-8h-15.816c-4.418,0-8,3.582-8,8S196.003,175.965,200.421,175.965z
		"/>
	<path d="M248.172,175.965h15.816c4.418,0,8-3.582,8-8s-3.582-8-8-8h-15.816c-4.418,0-8,3.582-8,8S243.754,175.965,248.172,175.965z
		"/>
	<path d="M311.987,159.965h-15.816c-4.418,0-8,3.582-8,8s3.582,8,8,8h15.816c4.418,0,8-3.582,8-8S316.405,159.965,311.987,159.965z"
		/>
	<path d="M344.422,175.965h15.816c4.418,0,8-3.582,8-8s-3.582-8-8-8h-15.816c-4.418,0-8,3.582-8,8S340.004,175.965,344.422,175.965z
		"/>
	<path d="M408.237,159.965h-15.816c-4.418,0-8,3.582-8,8s3.582,8,8,8h15.816c4.418,0,8-3.582,8-8S412.655,159.965,408.237,159.965z"
		/>
	<path d="M56.172,207.965h15.816c4.418,0,8-3.582,8-8s-3.582-8-8-8H56.172c-4.418,0-8,3.582-8,8S51.754,207.965,56.172,207.965z"/>
	<path d="M104.171,207.965h15.816c4.418,0,8-3.582,8-8s-3.582-8-8-8h-15.816c-4.418,0-8,3.582-8,8S99.753,207.965,104.171,207.965z"
		/>
	<path d="M152.422,207.965h15.816c4.418,0,8-3.582,8-8s-3.582-8-8-8h-15.816c-4.418,0-8,3.582-8,8S148.004,207.965,152.422,207.965z
		"/>
	<path d="M200.421,207.965h15.816c4.418,0,8-3.582,8-8s-3.582-8-8-8h-15.816c-4.418,0-8,3.582-8,8S196.003,207.965,200.421,207.965z
		"/>
	<path d="M248.172,207.965h15.816c4.418,0,8-3.582,8-8s-3.582-8-8-8h-15.816c-4.418,0-8,3.582-8,8S243.754,207.965,248.172,207.965z
		"/>
	<path d="M311.987,191.965h-15.816c-4.418,0-8,3.582-8,8s3.582,8,8,8h15.816c4.418,0,8-3.582,8-8S316.405,191.965,311.987,191.965z"
		/>
	<path d="M344.422,207.965h15.816c4.418,0,8-3.582,8-8s-3.582-8-8-8h-15.816c-4.418,0-8,3.582-8,8S340.004,207.965,344.422,207.965z
		"/>
	<path d="M408.237,191.965h-15.816c-4.418,0-8,3.582-8,8s3.582,8,8,8h15.816c4.418,0,8-3.582,8-8S412.655,191.965,408.237,191.965z"
		/>
	<path d="M71.988,287.965H56.172c-4.418,0-8,3.582-8,8s3.582,8,8,8h15.816c4.418,0,8-3.582,8-8S76.406,287.965,71.988,287.965z"/>
	<path d="M119.987,287.965h-15.816c-4.418,0-8,3.582-8,8s3.582,8,8,8h15.816c4.418,0,8-3.582,8-8S124.405,287.965,119.987,287.965z"
		/>
	<path d="M360.238,287.965h-15.816c-4.418,0-8,3.582-8,8s3.582,8,8,8h15.816c4.418,0,8-3.582,8-8S364.656,287.965,360.238,287.965z"
		/>
	<path d="M408.237,287.965h-15.816c-4.418,0-8,3.582-8,8s3.582,8,8,8h15.816c4.418,0,8-3.582,8-8S412.655,287.965,408.237,287.965z"
		/>
	<path d="M152.422,239.965h15.816c4.418,0,8-3.582,8-8s-3.582-8-8-8h-15.816c-4.418,0-8,3.582-8,8S148.004,239.965,152.422,239.965z
		"/>
	<path d="M200.421,239.965h15.816c4.418,0,8-3.582,8-8s-3.582-8-8-8h-15.816c-4.418,0-8,3.582-8,8S196.003,239.965,200.421,239.965z
		"/>
	<path d="M248.172,239.965h15.816c4.418,0,8-3.582,8-8s-3.582-8-8-8h-15.816c-4.418,0-8,3.582-8,8S243.754,239.965,248.172,239.965z
		"/>
	<path d="M311.987,223.965h-15.816c-4.418,0-8,3.582-8,8s3.582,8,8,8h15.816c4.418,0,8-3.582,8-8S316.405,223.965,311.987,223.965z"
		/>
	<path d="M152.422,271.965h15.816c4.418,0,8-3.582,8-8s-3.582-8-8-8h-15.816c-4.418,0-8,3.582-8,8S148.004,271.965,152.422,271.965z
		"/>
	<path d="M200.421,271.965h15.816c4.418,0,8-3.582,8-8s-3.582-8-8-8h-15.816c-4.418,0-8,3.582-8,8S196.003,271.965,200.421,271.965z
		"/>
	<path d="M248.172,271.965h15.816c4.418,0,8-3.582,8-8s-3.582-8-8-8h-15.816c-4.418,0-8,3.582-8,8S243.754,271.965,248.172,271.965z
		"/>
	<path d="M311.987,255.965h-15.816c-4.418,0-8,3.582-8,8s3.582,8,8,8h15.816c4.418,0,8-3.582,8-8S316.405,255.965,311.987,255.965z"
		/>
	<path d="M120.421,223.965H56.172c-4.418,0-8,3.582-8,8s3.582,8,8,8h64.249c4.418,0,8-3.582,8-8S124.839,223.965,120.421,223.965z"
		/>
	<path d="M120.421,255.965H56.172c-4.418,0-8,3.582-8,8s3.582,8,8,8h64.249c4.418,0,8-3.582,8-8S124.839,255.965,120.421,255.965z"
		/>
	<path d="M408.237,223.965h-63.45c-4.418,0-8,3.582-8,8s3.582,8,8,8h63.45c4.418,0,8-3.582,8-8S412.655,223.965,408.237,223.965z"/>
	<path d="M408.237,255.965h-63.45c-4.418,0-8,3.582-8,8s3.582,8,8,8h63.45c4.418,0,8-3.582,8-8S412.655,255.965,408.237,255.965z"/>
	<path d="M311.987,287.965H152.422c-4.418,0-8,3.582-8,8s3.582,8,8,8h159.565c4.418,0,8-3.582,8-8S316.405,287.965,311.987,287.965z
		"/>
</g>
<g>
</g>
<g>
</g>
<g>
</g>
<g>
</g>
<g>
</g>
<g>
</g>
<g>
</g>
<g>
</g>
<g>
</g>
<g>
</g>
<g>
</g>
<g>
</g>
<g>
</g>
<g>
</g>
<g>
</g>
</svg>
