<svg xmlns="http://www.w3.org/2000/svg" viewBox="0 0 464.055 464.055" style="enable-background:new 0 0 464.055 464.055" xml:space="preserve"><path d="M441.568 119.965H22.487C10.088 119.965 0 130.056 0 142.459v179.145c0 12.399 10.088 22.486 22.487 22.486h419.081c12.399 0 22.486-10.087 22.486-22.486V142.459c.001-12.403-10.086-22.494-22.486-22.494zm6.487 201.639c0 3.516-2.971 6.486-6.486 6.486H22.487c-3.517 0-6.487-2.97-6.487-6.486V142.459c0-3.581 2.91-6.494 6.487-6.494h419.081c3.576 0 6.486 2.913 6.486 6.494v179.145z"/><path d="M56.172 175.965h15.816a8 8 0 0 0 0-16H56.172a8 8 0 0 0 0 16zM104.171 175.965h15.816a8 8 0 0 0 0-16h-15.816a8 8 0 0 0 0 16zM152.422 175.965h15.816a8 8 0 0 0 0-16h-15.816a8 8 0 0 0 0 16zM200.421 175.965h15.816a8 8 0 0 0 0-16h-15.816a8 8 0 0 0 0 16zM248.172 175.965h15.816a8 8 0 0 0 0-16h-15.816a8 8 0 0 0 0 16zM311.987 159.965h-15.816a8 8 0 0 0 0 16h15.816a8 8 0 0 0 0-16zM344.422 175.965h15.816a8 8 0 0 0 0-16h-15.816a8 8 0 0 0 0 16zM408.237 159.965h-15.816a8 8 0 0 0 0 16h15.816a8 8 0 0 0 0-16zM56.172 207.965h15.816a8 8 0 0 0 0-16H56.172a8 8 0 0 0 0 16zM104.171 207.965h15.816a8 8 0 0 0 0-16h-15.816a8 8 0 0 0 0 16zM152.422 207.965h15.816a8 8 0 0 0 0-16h-15.816a8 8 0 0 0 0 16zM200.421 207.965h15.816a8 8 0 0 0 0-16h-15.816a8 8 0 0 0 0 16zM248.172 207.965h15.816a8 8 0 0 0 0-16h-15.816a8 8 0 0 0 0 16zM311.987 191.965h-15.816a8 8 0 0 0 0 16h15.816a8 8 0 0 0 0-16zM344.422 207.965h15.816a8 8 0 0 0 0-16h-15.816a8 8 0 0 0 0 16zM408.237 191.965h-15.816a8 8 0 0 0 0 16h15.816a8 8 0 0 0 0-16zM71.988 287.965H56.172a8 8 0 0 0 0 16h15.816a8 8 0 0 0 0-16zM119.987 287.965h-15.816a8 8 0 0 0 0 16h15.816a8 8 0 0 0 0-16zM360.238 287.965h-15.816a8 8 0 0 0 0 16h15.816a8 8 0 0 0 0-16zM408.237 287.965h-15.816a8 8 0 0 0 0 16h15.816a8 8 0 0 0 0-16zM152.422 239.965h15.816a8 8 0 0 0 0-16h-15.816a8 8 0 0 0 0 16zM200.421 239.965h15.816a8 8 0 0 0 0-16h-15.816a8 8 0 0 0 0 16zM248.172 239.965h15.816a8 8 0 0 0 0-16h-15.816a8 8 0 0 0 0 16zM311.987 223.965h-15.816a8 8 0 0 0 0 16h15.816a8 8 0 0 0 0-16zM152.422 271.965h15.816a8 8 0 0 0 0-16h-15.816a8 8 0 0 0 0 16zM200.421 271.965h15.816a8 8 0 0 0 0-16h-15.816a8 8 0 0 0 0 16zM248.172 271.965h15.816a8 8 0 0 0 0-16h-15.816a8 8 0 0 0 0 16zM311.987 255.965h-15.816a8 8 0 0 0 0 16h15.816a8 8 0 0 0 0-16zM120.421 223.965H56.172a8 8 0 0 0 0 16h64.249a8 8 0 0 0 0-16zM120.421 255.965H56.172a8 8 0 0 0 0 16h64.249a8 8 0 0 0 0-16zM408.237 223.965h-63.45a8 8 0 0 0 0 16h63.45a8 8 0 0 0 0-16zM408.237 255.965h-63.45a8 8 0 0 0 0 16h63.45a8 8 0 0 0 0-16zM311.987 287.965H152.422a8 8 0 0 0 0 16h159.565a8 8 0 0 0 0-16z"/></svg>