<svg xmlns="http://www.w3.org/2000/svg" viewBox="0 0 431.908 431.908" style="enable-background:new 0 0 431.908 431.908" xml:space="preserve"><path d="M423.908 152.051a8 8 0 0 0 0-16h-24.006v-31.936h24.006a8 8 0 0 0 0-16h-24.006V71.996c0-22.056-17.944-40-40-40h-16.109V8a8 8 0 0 0-16 0v23.996h-31.937V8a8 8 0 0 0-16 0v23.996H247.92V8a8 8 0 0 0-16 0v23.996h-31.935V8a8 8 0 0 0-16 0v23.996h-31.936V8a8 8 0 0 0-16 0v23.996h-31.936V8a8 8 0 0 0-16 0v23.996H71.985c-22.056 0-40 17.944-40 40v16.119H8a8 8 0 0 0 0 16h23.985v31.936H8a8 8 0 0 0 0 16h23.985v31.936H8a8 8 0 0 0 0 16h23.985v31.935H8a8 8 0 0 0 0 16h23.985v31.936H8a8 8 0 0 0 0 16h23.985v31.936H8a8 8 0 0 0 0 16h23.985v16.119c0 22.056 17.944 40 40 40h16.128v23.995a8 8 0 0 0 16 0v-23.995h31.936v23.995a8 8 0 0 0 16 0v-23.995h31.936v23.995a8 8 0 0 0 16 0v-23.995h31.935v23.995a8 8 0 0 0 16 0v-23.995h31.936v23.995a8 8 0 0 0 16 0v-23.995h31.937v23.995a8 8 0 0 0 16 0v-23.995h16.109c22.056 0 40-17.944 40-40v-16.119h24.006a8 8 0 0 0 0-16h-24.006v-31.936h24.006a8 8 0 0 0 0-16h-24.006v-31.936h24.006a8 8 0 0 0 0-16h-24.006v-31.935h24.006a8 8 0 0 0 0-16h-24.006v-31.936h24.006zm-40.006 207.861c0 13.233-10.767 24-24 24H71.985c-13.233 0-24-10.767-24-24V71.996c0-13.234 10.767-24 24-24h287.917c13.233 0 24 10.766 24 24v287.916z"/><path d="M343.777 72.121H88.11c-8.822 0-16 7.177-16 16v255.667c0 8.822 7.178 16 16 16h255.667c8.822 0 16-7.178 16-16V88.121c0-8.823-7.178-16-16-16zM88.11 343.787V88.121h255.667l.002 255.667H88.11z"/></svg>