<svg xmlns="http://www.w3.org/2000/svg" viewBox="0 0 424.666 424.666" style="enable-background:new 0 0 424.666 424.666" xml:space="preserve"><path d="M281.274 34.114h-4.876V8a8 8 0 0 0-8-8H156.69a8 8 0 0 0-8 8v26.114h-5.299c-23.34 0-43.059 20.663-43.059 45.121v302.372c0 23.742 19.316 43.059 43.059 43.059h137.883c23.742 0 43.059-19.316 43.059-43.059V77.173c0-23.742-19.316-43.059-43.059-43.059zM164.69 16h95.708v26.095l-.001.019.001.019v33.032H164.69V16zm143.643 365.607c0 14.92-12.139 27.059-27.059 27.059H143.392c-14.92 0-27.059-12.139-27.059-27.059V79.235c0-15.513 12.644-29.121 27.059-29.121h5.299v25.052h-8.54a8 8 0 0 0 0 16h144.141a8 8 0 0 0 0-16h-7.893V50.114h4.876c14.92 0 27.059 12.139 27.059 27.059v304.434z"/><path d="M164.583 224.916h-15.785c-8.822 0-16 7.178-16 16v7.918c0 8.822 7.178 16 16 16h15.785c8.822 0 16-7.178 16-16v-7.918c0-8.822-7.178-16-16-16zm-15.785 23.918v-7.918h15.785l.001 7.918h-15.786zM220.611 224.916h-15.785c-8.822 0-16 7.178-16 16v7.918c0 8.822 7.178 16 16 16h15.785c8.822 0 16-7.178 16-16v-7.918c0-8.822-7.177-16-16-16zm-15.785 23.918v-7.918h15.785l.002 7.918h-15.787zM276.291 224.916h-15.785c-8.822 0-16 7.178-16 16v7.918c0 8.822 7.178 16 16 16h15.785c8.822 0 16-7.178 16-16v-7.918c0-8.822-7.178-16-16-16zm-15.785 23.918v-7.918h15.785l.002 7.918h-15.787zM164.583 273.303h-15.785c-8.822 0-16 7.178-16 16v7.918c0 8.822 7.178 16 16 16h15.785c8.822 0 16-7.178 16-16v-7.918c0-8.823-7.178-16-16-16zm-15.785 23.918v-7.918h15.785l.001 7.918h-15.786zM220.611 273.303h-15.785c-8.822 0-16 7.178-16 16v7.918c0 8.822 7.178 16 16 16h15.785c8.822 0 16-7.178 16-16v-7.918c0-8.823-7.177-16-16-16zm-15.785 23.918v-7.918h15.785l.002 7.918h-15.787zM276.291 273.303h-15.785c-8.822 0-16 7.178-16 16v7.918c0 8.822 7.178 16 16 16h15.785c8.822 0 16-7.178 16-16v-7.918c0-8.823-7.178-16-16-16zm-15.785 23.918v-7.918h15.785l.002 7.918h-15.787zM164.583 320.803h-15.785c-8.822 0-16 7.178-16 16v7.918c0 8.822 7.178 16 16 16h15.785c8.822 0 16-7.178 16-16v-7.918c0-8.823-7.178-16-16-16zm-15.785 23.918v-7.918h15.785l.001 7.918h-15.786zM220.611 320.803h-15.785c-8.822 0-16 7.178-16 16v7.918c0 8.822 7.178 16 16 16h15.785c8.822 0 16-7.178 16-16v-7.918c0-8.823-7.177-16-16-16zm-15.785 23.918v-7.918h15.785l.002 7.918h-15.787zM276.291 320.803h-15.785c-8.822 0-16 7.178-16 16v7.918c0 8.822 7.178 16 16 16h15.785c8.822 0 16-7.178 16-16v-7.918c0-8.823-7.178-16-16-16zm-15.785 23.918v-7.918h15.785l.002 7.918h-15.787zM228.611 376.916h-31.785a8 8 0 0 0 0 16h31.785a8 8 0 0 0 0-16zM148.15 201.166h128c8.822 0 16-7.178 16-16v-57c0-8.822-7.178-16-16-16h-128c-8.822 0-16 7.178-16 16v57c0 8.822 7.178 16 16 16zm0-73h20.352l14.324 14.324c1.562 1.562 3.609 2.343 5.657 2.343s4.095-.781 5.657-2.343a7.999 7.999 0 0 0 0-11.314l-3.01-3.01h85.02l.002 57h-28.021l-30.31-30.31a8.003 8.003 0 0 0-11.314 0 7.999 7.999 0 0 0 0 11.314l18.995 18.995H148.15v-56.999z"/></svg>