<svg xmlns="http://www.w3.org/2000/svg" viewBox="0 0 383.834 383.834" style="enable-background:new 0 0 383.834 383.834" xml:space="preserve"><path d="M358.318 59.848H25.516C11.446 59.848 0 71.294 0 85.363V298.47c0 14.069 11.446 25.516 25.516 25.516h332.803c14.069 0 25.516-11.446 25.516-25.516V85.363c-.001-14.069-11.447-25.515-25.517-25.515zm9.516 25.515v38.576h-31.951c-1.982-13.599-13.717-24.078-27.857-24.078s-25.875 10.479-27.857 24.078h-32.157V75.848H358.32c5.245 0 9.514 4.268 9.514 9.515zm-47.652 42.655c0 6.703-5.453 12.156-12.156 12.156s-12.156-5.453-12.156-12.156 5.453-12.156 12.156-12.156 12.156 5.452 12.156 12.156zm-168.265-52.17h80.094v232.139h-80.094V75.848zm-126.401 0h110.401v48.092h-32.143c-1.982-13.599-13.717-24.078-27.857-24.078S50.042 110.34 48.06 123.939H16V85.363c0-5.247 4.269-9.515 9.516-9.515zm62.557 52.17c0 6.703-5.453 12.156-12.156 12.156s-12.156-5.453-12.156-12.156 5.453-12.156 12.156-12.156 12.156 5.452 12.156 12.156zM16 298.471V139.939h34.417c4.498 9.581 14.234 16.234 25.5 16.234s21.002-6.653 25.5-16.234h34.5v168.047H25.516c-5.247 0-9.516-4.268-9.516-9.515zm342.318 9.515H248.011V139.939h34.515c4.498 9.581 14.234 16.234 25.5 16.234s21.002-6.653 25.5-16.234h34.309V298.47c-.001 5.248-4.27 9.516-9.517 9.516z"/><path d="M75.917 187.918c-28.679 0-52.011 23.332-52.011 52.011 0 28.68 23.332 52.012 52.011 52.012s52.011-23.332 52.011-52.012c0-28.679-23.332-52.011-52.011-52.011zm0 88.022c-19.856 0-36.011-16.154-36.011-36.012 0-19.856 16.154-36.011 36.011-36.011s36.011 16.154 36.011 36.011c0 19.858-16.155 36.012-36.011 36.012zM216 100.06h-47.916a8 8 0 0 0-8 8v39.916a8 8 0 0 0 8 8H216a8 8 0 0 0 8-8V108.06a8 8 0 0 0-8-8zm-8 39.916h-31.916V116.06H208v23.916zM216 196.084h-48.166a8 8 0 0 0 0 16H216a8 8 0 0 0 0-16zM216 227.97h-48.166a8 8 0 0 0 0 16H216a8 8 0 0 0 0-16zM216 259.939h-48.166a8 8 0 0 0 0 16H216a8 8 0 0 0 0-16z"/><path d="M87.762 239.929c0 6.531-5.313 11.845-11.845 11.845s-11.845-5.313-11.845-11.845c0-6.53 5.313-11.844 11.845-11.844a8 8 0 0 0 0-16c-15.354 0-27.845 12.49-27.845 27.844s12.491 27.845 27.845 27.845 27.845-12.491 27.845-27.845a8 8 0 0 0-16 0zM308.057 187.918c-28.68 0-52.012 23.332-52.012 52.011 0 28.68 23.332 52.012 52.012 52.012 28.679 0 52.011-23.332 52.011-52.012-.001-28.679-23.333-52.011-52.011-52.011zm0 88.022c-19.857 0-36.012-16.154-36.012-36.012 0-19.856 16.154-36.011 36.012-36.011 19.856 0 36.011 16.154 36.011 36.011-.001 19.858-16.155 36.012-36.011 36.012z"/><path d="M319.9 239.929c0 6.531-5.313 11.845-11.844 11.845s-11.845-5.313-11.845-11.845c0-6.53 5.313-11.844 11.845-11.844a8 8 0 0 0 0-16c-15.354 0-27.845 12.49-27.845 27.844s12.491 27.845 27.845 27.845 27.844-12.491 27.844-27.845a8 8 0 0 0-16 0z"/></svg>