<svg xmlns="http://www.w3.org/2000/svg" viewBox="0 0 432.166 432.166" style="enable-background:new 0 0 432.166 432.166" xml:space="preserve"><path d="M429.225 217.636a8.001 8.001 0 0 0-6.66-1.641l-79.124 16.171H320v-.083c0-14.793-10.092-27.268-23.75-30.916v-25.334c0-17.645-14.355-32-32-32h-80.063v-7.896c0-8.822 7.178-16 16-16h32.345c.124 8.716 7.243 15.771 15.988 15.771h127.417c8.822 0 16-7.178 16-16v-15.542c0-8.822-7.178-16-16-16H248.521c-8.745 0-15.864 7.055-15.988 15.771h-32.345c-17.645 0-32 14.355-32 32v7.896H96.375l-87.626-8.236A8.001 8.001 0 0 0 0 143.562v40.521a8.003 8.003 0 0 0 8 8c.249 0 .499-.012.749-.035L88 184.599v15.484h-8.021c-17.645 0-32 14.355-32 32V312c0 17.645 14.355 32 32 32H288c17.626 0 31.969-14.325 31.999-31.945h23.636l78.948 15.941a8.003 8.003 0 0 0 9.583-7.842v-96.321a7.999 7.999 0 0 0-2.941-6.197zM248.521 104.167h127.417l.001 15.542H248.521v-15.542zm87.729 144v47.888H320v-47.888h16.25zm-72.584-88.334h.584c8.822 0 16 7.178 16 16v24.25h-8.209v-23.417a7.955 7.955 0 0 0-.888-3.652c-1.135-3.037-4.055-5.203-7.487-5.203H104v-7.979h159.666zm-7.625 23.979v16.271h-71.854v-16.271h71.854zM16 152.349l72 6.767v9.413l-72 6.767v-22.947zm88 31.463h64.188v16.271H104v-16.271zM304 312c0 8.822-7.178 16-16 16H79.979c-8.822 0-16-7.178-16-16v-64.104h216.084a8 8 0 0 0 0-16H63.988c.102-8.735 7.231-15.813 15.99-15.813H288c8.822 0 16 7.178 16 16V312zm112.166-1.623-63.916-12.906v-50.775l63.916-13.063v76.744z"/></svg>