<svg xmlns="http://www.w3.org/2000/svg" viewBox="0 0 455.334 455.334" style="enable-background:new 0 0 455.334 455.334" xml:space="preserve"><path d="M399.334 39.5h-183.5c-18.986 0-35.785 9.506-45.917 24h-34.583c-14.914 0-27.475 10.256-31.007 24.084H55.083c-17.645 0-32 14.355-32 32v.291H8a8 8 0 0 0 0 16h15.083v.292c0 17.645 14.355 32 32 32h49.243c3.533 13.828 16.094 24.083 31.007 24.083h34.879c10.161 14.259 26.817 23.584 45.621 23.584h16v35.137c0 20.269 16.489 36.758 36.758 36.758h2.841l.109 88.105c0 22.056 17.944 40 40 40h16.333c22.056 0 40-17.944 40-40.012l-.208-144.073c0-8.776 7.14-15.916 15.916-15.916h15.751c30.879 0 56-25.121 56-56V95.5c.001-30.879-25.12-56-55.999-56zM39.083 136.167v-16.583c0-8.822 7.178-16 16-16h48.25v48.583h-48.25c-8.822 0-16-7.178-16-16zm96.25 40.083c-8.822 0-16-7.178-16-16V95.5c0-8.822 7.178-16 16-16h26.841a55.789 55.789 0 0 0-2.341 16v64.334c0 5.71.864 11.222 2.46 16.416h-26.96zm133.259 95.479c-11.446 0-20.758-9.312-20.758-20.758v-35.137h23.51l.069 55.895h-2.821zm170.742-111.895c0 22.056-17.944 40-40 40h-15.751c-17.599 0-31.916 14.317-31.916 31.916v.012l.208 144.072c0 13.233-10.767 24-24 24h-16.333c-13.233 0-24-10.767-24-24.01l-.198-159.99h40.24a8 8 0 0 0 0-16h-111.75c-14.412 0-27.065-7.664-34.107-19.128a7.937 7.937 0 0 0-.591-1.01 39.74 39.74 0 0 1-5.302-19.862V95.5c0-22.056 17.944-40 40-40h183.5c22.056 0 40 17.944 40 40v64.334z"/><path d="M407.334 87.834h-79.75a8 8 0 0 0 0 16h79.75a8 8 0 0 0 0-16zM407.334 120.167h-79.75a8 8 0 0 0 0 16h79.75a8 8 0 0 0 0-16zM407.334 151.834h-79.75a8 8 0 0 0 0 16h79.75a8 8 0 0 0 0-16z"/></svg>