<svg xmlns="http://www.w3.org/2000/svg" viewBox="0 0 424.744 424.744" style="enable-background:new 0 0 424.744 424.744" xml:space="preserve"><path d="M352.701.41H304.61c-44.162 0-80.09 35.928-80.09 80.09 0 1.45.044 2.889.12 4.32a8.001 8.001 0 0 0-.309 2.18v166.273c0 19.332 15.728 35.061 35.06 35.061h4.523v128.41a8 8 0 0 0 16 0V288.26c18.322-1.128 32.884-16.386 32.884-34.986v-92.683H352.7c17.645 0 32-14.355 32-32V32.41c.001-17.644-14.354-32-31.999-32zm-48.091 16h31.727v128.181H304.61c-35.339 0-64.09-28.751-64.09-64.091.001-35.339 28.751-64.09 64.09-64.09zm-26.871 255.924h-18.348c-10.51 0-19.06-8.551-19.06-19.061V128.22c13.146 17.662 33.387 29.739 56.467 31.984v93.069c.001 10.51-8.549 19.061-19.059 19.061zm90.962-143.743c0 8.822-7.178 16-16 16h-.364V16.41h.364c8.822 0 16 7.178 16 16v96.181zM120.074 0C75.945 0 40.043 35.902 40.043 80.031c0 27.76 14.214 52.256 35.739 66.616v106.626c0 19.332 15.729 35.061 35.061 35.061h.833v128.41a8 8 0 0 0 16 0v-128.41h1.514c19.332 0 35.06-15.729 35.06-35.061V146.722c21.59-14.349 35.856-38.881 35.856-66.691C200.105 35.902 164.203 0 120.074 0zm28.175 253.273c0 10.51-8.55 19.061-19.06 19.061h-18.347c-10.51 0-19.061-8.551-19.061-19.061v-98.392a79.617 79.617 0 0 0 28.292 5.181 79.617 79.617 0 0 0 28.175-5.135v98.346zm4.405-118.149c-.296.15-.586.311-.86.495a63.61 63.61 0 0 1-31.72 8.444c-35.307 0-64.031-28.725-64.031-64.031S84.768 16 120.074 16s64.031 28.725 64.031 64.031c0 23.416-12.641 43.926-31.451 55.093z"/><path d="M152.272 80.031c0 17.754-14.444 32.198-32.198 32.198S87.877 97.785 87.877 80.031s14.443-32.197 32.197-32.197a8 8 0 0 0 0-16c-26.576 0-48.197 21.621-48.197 48.197s21.621 48.198 48.197 48.198 48.198-21.622 48.198-48.198a8 8 0 0 0-16 0z"/></svg>