<svg xmlns="http://www.w3.org/2000/svg" viewBox="0 0 439.604 439.604" style="enable-background:new 0 0 439.604 439.604" xml:space="preserve"><path d="m297.064 64.544 2.247-16.94h.991a8 8 0 0 0 8-8v-7.875c0-13.233-10.767-24-24-24h-64.514C219.644 3.438 216.128 0 211.802 0s-7.842 3.438-7.986 7.729h-64.014c-13.233 0-24 10.767-24 24v7.875a8 8 0 0 0 8 8h.977l30.29 232.008-14.585 113.387c-9.665 3.102-16.681 12.173-16.681 22.855v15.75a8 8 0 0 0 8 8h160.5a8 8 0 0 0 8-8v-15.75c0-10.872-7.27-20.074-17.202-23.013l-14.563-113.22 8.491-64.017h.441c16.107 0 27.335-9.461 30.804-25.958.022-.108.043-.218.062-.327l15.358-91.896c.073-.436.109-.877.109-1.318-.001-15.853-11.59-29.043-26.739-31.561zM139.802 23.729h144.5c4.369 0 7.932 3.521 7.999 7.875H131.803c.067-4.354 3.63-7.875 7.999-7.875zm143.369 23.875-2.844 21.443a7.973 7.973 0 0 0-.608 3.057c0 .34.028.674.07 1.003L253.46 271.604h-83.302l-29.244-224h142.257zm1.131 376h-144.5v-7.75c0-4.411 3.589-8 8-8h81a8 8 0 0 0 0-16h-72.04l13.41-104.25h83.26l13.41 104.25h-7.04a8 8 0 0 0 0 16h16.104l.021.001.015-.001h.36c4.411 0 8 3.589 8 8v7.75zm8.28-237.096c-2.268 10.527-8.377 12.704-13.425 13.041l15.801-119.133c7.126 1.432 12.556 7.613 12.833 15.089l-15.209 91.003z"/><path d="M195.969 223.438h31.666a8 8 0 0 0 0-16h-31.666a8 8 0 0 0 0 16zM195.969 191.438h31.666a8 8 0 0 0 0-16h-31.666a8 8 0 0 0 0 16zM195.969 159.438h31.666a8 8 0 0 0 0-16h-31.666a8 8 0 0 0 0 16zM195.969 127.438h31.666a8 8 0 0 0 0-16h-31.666a8 8 0 0 0 0 16zM195.969 95.438h31.666a8 8 0 0 0 0-16h-31.666a8 8 0 0 0 0 16z"/></svg>