<?xml version="1.0" encoding="iso-8859-1"?>
<!-- Generator: Adobe Illustrator 17.1.0, SVG Export Plug-In . SVG Version: 6.00 Build 0)  -->
<!DOCTYPE svg PUBLIC "-//W3C//DTD SVG 1.1//EN" "http://www.w3.org/Graphics/SVG/1.1/DTD/svg11.dtd">
<svg version="1.1" id="Capa_1" xmlns="http://www.w3.org/2000/svg" xmlns:xlink="http://www.w3.org/1999/xlink" x="0px" y="0px"
	 viewBox="0 0 431.5 431.5" style="enable-background:new 0 0 431.5 431.5;" xml:space="preserve">
<g>
	<path d="M431.284,245.903l-32.25-135.917c-0.855-3.606-4.077-6.153-7.784-6.153c-79.859,0-168.146,24.584-248.6,69.224
		C76.07,209.998,24.164,256.063,9.374,291.138C3.753,294.646,0,300.828,0,307.875c0,10.913,8.972,19.792,20,19.792h343.25
		c11.028,0,20-8.879,20-19.792c0-5.335-2.154-10.175-5.634-13.738l50.839-40.106C430.899,252.103,432.002,248.932,431.284,245.903z
		 M359.456,288.083h-7.706c-4.418,0-8,3.582-8,8s3.582,8,8,8h11.5c2.168,0,4,1.736,4,3.792s-1.832,3.792-4,3.792H20
		c-2.168,0-4-1.736-4-3.792s1.832-3.792,4-3.792h300c4.418,0,8-3.582,8-8s-3.582-8-8-8H28.923
		c16.11-26.7,57.166-65.346,121.49-101.036c44.325-24.594,133.007-65.515,234.526-67.162l29.599,124.746L359.456,288.083z"/>
	<path d="M392.877,214.618c-0.025-0.172-0.05-0.345-0.086-0.513c-0.002-0.011-0.003-0.022-0.006-0.033l-16.468-74.775
		c-0.019-0.086-0.048-0.168-0.069-0.253c-0.038-0.152-0.077-0.303-0.123-0.45c-0.033-0.104-0.072-0.205-0.109-0.307
		c-0.054-0.149-0.108-0.298-0.171-0.442c-0.043-0.099-0.09-0.195-0.137-0.292c-0.068-0.141-0.135-0.28-0.211-0.416
		c-0.051-0.092-0.107-0.181-0.161-0.271c-0.082-0.134-0.164-0.268-0.253-0.396c-0.056-0.081-0.115-0.158-0.173-0.236
		c-0.099-0.132-0.199-0.263-0.305-0.389c-0.054-0.063-0.11-0.124-0.166-0.186c-0.121-0.134-0.244-0.265-0.373-0.391
		c-0.046-0.044-0.094-0.087-0.141-0.13c-0.147-0.136-0.297-0.268-0.454-0.392c-0.033-0.026-0.066-0.05-0.099-0.075
		c-0.175-0.135-0.355-0.263-0.541-0.383c-0.019-0.012-0.038-0.023-0.057-0.035c-0.201-0.127-0.407-0.246-0.619-0.355
		c-0.009-0.005-0.017-0.009-0.026-0.013c-0.22-0.112-0.445-0.214-0.676-0.306c-0.008-0.003-0.016-0.006-0.024-0.009
		c-0.227-0.09-0.459-0.169-0.695-0.238c-0.021-0.006-0.043-0.011-0.064-0.017c-0.22-0.062-0.443-0.116-0.67-0.158
		c-0.049-0.01-0.099-0.016-0.148-0.024c-0.198-0.033-0.397-0.063-0.599-0.081c-0.091-0.009-0.183-0.011-0.274-0.016
		c-0.162-0.009-0.324-0.018-0.488-0.017c-0.137,0-0.275,0.01-0.413,0.017c-0.096,0.006-0.19,0.003-0.286,0.012
		c-0.065,0.006-0.131,0.014-0.196,0.02c-0.002,0-0.005,0-0.007,0.001c-51.339,4.609-103.141,18.58-153.97,41.527
		c-0.063,0.029-0.121,0.064-0.183,0.094c-0.133,0.064-0.264,0.13-0.392,0.201c-0.111,0.061-0.219,0.125-0.325,0.19
		c-0.112,0.069-0.223,0.14-0.331,0.214c-0.117,0.08-0.231,0.163-0.343,0.249c-0.088,0.067-0.173,0.136-0.258,0.207
		c-0.122,0.102-0.24,0.206-0.354,0.313c-0.069,0.065-0.136,0.131-0.202,0.198c-0.118,0.119-0.231,0.24-0.341,0.365
		c-0.059,0.067-0.115,0.135-0.171,0.204c-0.105,0.129-0.207,0.26-0.303,0.395c-0.055,0.076-0.107,0.154-0.159,0.232
		c-0.087,0.131-0.171,0.263-0.25,0.399c-0.054,0.093-0.105,0.186-0.155,0.281c-0.067,0.126-0.131,0.253-0.191,0.382
		c-0.051,0.11-0.099,0.222-0.145,0.334c-0.049,0.12-0.096,0.24-0.139,0.363c-0.044,0.125-0.084,0.25-0.122,0.377
		c-0.035,0.117-0.068,0.235-0.098,0.354c-0.033,0.131-0.061,0.262-0.088,0.396c-0.024,0.123-0.046,0.247-0.065,0.372
		c-0.019,0.126-0.034,0.253-0.047,0.382c-0.014,0.138-0.024,0.276-0.03,0.415c-0.005,0.115-0.008,0.23-0.009,0.346
		c-0.001,0.156,0.004,0.312,0.013,0.468c0.006,0.103,0.013,0.205,0.023,0.308c0.016,0.167,0.038,0.334,0.065,0.501
		c0.009,0.057,0.012,0.114,0.022,0.171l6.117,33.903c0.005,0.028,0.014,0.055,0.019,0.083c0.025,0.129,0.056,0.255,0.087,0.381
		c0.029,0.12,0.057,0.239,0.092,0.356c0.035,0.12,0.075,0.239,0.116,0.357c0.042,0.124,0.086,0.246,0.134,0.367
		c0.042,0.104,0.086,0.208,0.132,0.31c0.059,0.131,0.121,0.26,0.186,0.387c0.046,0.088,0.092,0.176,0.141,0.263
		c0.077,0.137,0.159,0.27,0.244,0.402c0.047,0.073,0.093,0.146,0.143,0.218c0.097,0.14,0.2,0.276,0.306,0.409
		c0.046,0.059,0.091,0.119,0.139,0.177c0.121,0.144,0.249,0.282,0.379,0.417c0.04,0.042,0.077,0.086,0.119,0.127
		c0.173,0.172,0.353,0.336,0.54,0.491c0.045,0.037,0.093,0.069,0.138,0.105c0.143,0.113,0.287,0.224,0.437,0.326
		c0.091,0.063,0.187,0.119,0.281,0.178c0.11,0.069,0.22,0.139,0.333,0.202c0.104,0.059,0.212,0.112,0.319,0.166
		c0.111,0.056,0.222,0.111,0.336,0.162c0.108,0.048,0.218,0.093,0.329,0.137c0.122,0.048,0.244,0.093,0.368,0.135
		c0.106,0.036,0.212,0.07,0.32,0.102c0.142,0.042,0.286,0.077,0.431,0.111c0.094,0.022,0.187,0.045,0.282,0.063
		c0.183,0.035,0.368,0.062,0.555,0.084c0.062,0.008,0.123,0.019,0.185,0.025c0.256,0.025,0.514,0.041,0.775,0.041
		c0.007,0,0.015-0.001,0.022-0.001H304c4.418,0,8-3.582,8-8s-3.582-8-8-8h-23.833v-7.667h47.667v15.667c0,4.418,3.582,8,8,8h49.087
		c0.015,0,0.03,0.002,0.045,0.002c0.135,0,0.273-0.015,0.409-0.022c0.145-0.007,0.291-0.009,0.433-0.023
		c0.058-0.006,0.116-0.019,0.174-0.027c0.23-0.029,0.458-0.064,0.682-0.112c0.01-0.002,0.021-0.003,0.031-0.005
		c0.06-0.013,0.116-0.033,0.175-0.048c0.192-0.047,0.384-0.096,0.571-0.156c0.086-0.028,0.168-0.062,0.252-0.092
		c0.161-0.058,0.322-0.116,0.477-0.184c0.11-0.048,0.214-0.103,0.321-0.155c0.124-0.061,0.248-0.119,0.368-0.186
		c0.123-0.068,0.241-0.144,0.36-0.219c0.098-0.061,0.197-0.12,0.292-0.186c0.124-0.085,0.241-0.177,0.359-0.269
		c0.085-0.066,0.171-0.129,0.253-0.198c0.113-0.095,0.219-0.196,0.327-0.297c0.081-0.077,0.164-0.152,0.242-0.231
		c0.095-0.097,0.184-0.2,0.274-0.302c0.082-0.093,0.165-0.184,0.242-0.281c0.076-0.095,0.147-0.194,0.219-0.293
		c0.082-0.111,0.164-0.222,0.24-0.338c0.06-0.091,0.113-0.185,0.169-0.279c0.077-0.129,0.154-0.257,0.224-0.39
		c0.048-0.092,0.09-0.186,0.135-0.28c0.066-0.138,0.132-0.276,0.19-0.418c0.042-0.103,0.077-0.208,0.114-0.312
		c0.049-0.136,0.099-0.272,0.141-0.412c0.038-0.126,0.067-0.255,0.098-0.383c0.029-0.121,0.062-0.24,0.086-0.363
		c0.032-0.16,0.052-0.323,0.074-0.486c0.013-0.096,0.029-0.19,0.039-0.287c0.018-0.186,0.024-0.374,0.028-0.563
		c0.002-0.069,0.01-0.136,0.01-0.205c0-0.013-0.002-0.025-0.002-0.038c-0.001-0.164-0.014-0.33-0.025-0.495
		c-0.007-0.112-0.01-0.224-0.022-0.334C392.913,214.823,392.892,214.72,392.877,214.618z M272.167,184.125c-4.418,0-8,3.582-8,8
		v15.667h-34.453l-3.811-21.122c45.109-19.723,90.902-32.149,136.32-36.982l12.796,58.104h-31.186v-15.667c0-4.418-3.582-8-8-8
		H272.167z"/>
</g>
<g>
</g>
<g>
</g>
<g>
</g>
<g>
</g>
<g>
</g>
<g>
</g>
<g>
</g>
<g>
</g>
<g>
</g>
<g>
</g>
<g>
</g>
<g>
</g>
<g>
</g>
<g>
</g>
<g>
</g>
</svg>
