<svg xmlns="http://www.w3.org/2000/svg" viewBox="0 0 431.5 431.5" style="enable-background:new 0 0 431.5 431.5" xml:space="preserve"><path d="m431.284 245.903-32.25-135.917a8 8 0 0 0-7.784-6.153c-79.859 0-168.146 24.584-248.6 69.224C76.07 209.998 24.164 256.063 9.374 291.138 3.753 294.646 0 300.828 0 307.875c0 10.913 8.972 19.792 20 19.792h343.25c11.028 0 20-8.879 20-19.792 0-5.335-2.154-10.175-5.634-13.738l50.839-40.106a8.002 8.002 0 0 0 2.829-8.128zm-71.828 42.18h-7.706a8 8 0 0 0 0 16h11.5c2.168 0 4 1.736 4 3.792s-1.832 3.792-4 3.792H20c-2.168 0-4-1.736-4-3.792s1.832-3.792 4-3.792h300a8 8 0 0 0 0-16H28.923c16.11-26.7 57.166-65.346 121.49-101.036 44.325-24.594 133.007-65.515 234.526-67.162l29.599 124.746-55.082 43.452z"/><path d="M392.877 214.618c-.025-.172-.05-.345-.086-.513l-.006-.033-16.468-74.775c-.019-.086-.048-.168-.069-.253a8.03 8.03 0 0 0-.123-.45c-.033-.104-.072-.205-.109-.307-.054-.149-.108-.298-.171-.442-.043-.099-.09-.195-.137-.292-.068-.141-.135-.28-.211-.416-.051-.092-.107-.181-.161-.271a8.065 8.065 0 0 0-.253-.396c-.056-.081-.115-.158-.173-.236a8.845 8.845 0 0 0-.305-.389c-.054-.063-.11-.124-.166-.186a8.608 8.608 0 0 0-.373-.391c-.046-.044-.094-.087-.141-.13a7.682 7.682 0 0 0-.454-.392l-.099-.075a7.878 7.878 0 0 0-.541-.383l-.057-.035a8.053 8.053 0 0 0-1.321-.674l-.024-.009a7.9 7.9 0 0 0-.695-.238l-.064-.017a7.5 7.5 0 0 0-.67-.158c-.049-.01-.099-.016-.148-.024a7.91 7.91 0 0 0-.599-.081c-.091-.009-.183-.011-.274-.016-.162-.009-.324-.018-.488-.017-.137 0-.275.01-.413.017-.096.006-.19.003-.286.012l-.196.02-.007.001c-51.339 4.609-103.141 18.58-153.97 41.527-.063.029-.121.064-.183.094a7.603 7.603 0 0 0-1.048.605 7.686 7.686 0 0 0-.601.456 8.23 8.23 0 0 0-.556.511 8.367 8.367 0 0 0-.512.569c-.105.129-.207.26-.303.395-.055.076-.107.154-.159.232a7.835 7.835 0 0 0-1.1 2.49 8.43 8.43 0 0 0-.2 1.15 7.17 7.17 0 0 0-.039.761 7.311 7.311 0 0 0 .036.776c.016.167.038.334.065.501.009.057.012.114.022.171l6.117 33.903c.005.028.014.055.019.083.025.129.056.255.087.381.029.12.057.239.092.356.035.12.075.239.116.357a7.635 7.635 0 0 0 .837 1.729c.047.073.093.146.143.218.097.14.2.276.306.409.046.059.091.119.139.177.121.144.249.282.379.417.04.042.077.086.119.127.173.172.353.336.54.491.045.037.093.069.138.105.143.113.287.224.437.326.091.063.187.119.281.178.11.069.22.139.333.202.104.059.212.112.319.166.111.056.222.111.336.162a8.737 8.737 0 0 0 1.017.374c.142.042.286.077.431.111.094.022.187.045.282.063.183.035.368.062.555.084.062.008.123.019.185.025.256.025.514.041.775.041l.022-.001H304a8 8 0 0 0 0-16h-23.833v-7.667h47.667v15.667a8 8 0 0 0 8 8h49.087l.045.002c.135 0 .273-.015.409-.022.145-.007.291-.009.433-.023.058-.006.116-.019.174-.027.23-.029.458-.064.682-.112l.031-.005c.06-.013.116-.033.175-.048a8.43 8.43 0 0 0 .571-.156c.086-.028.168-.062.252-.092.161-.058.322-.116.477-.184.11-.048.214-.103.321-.155.124-.061.248-.119.368-.186.123-.068.241-.144.36-.219.098-.061.197-.12.292-.186.124-.085.241-.177.359-.269.085-.066.171-.129.253-.198.113-.095.219-.196.327-.297.081-.077.164-.152.242-.231.095-.097.184-.2.274-.302.082-.093.165-.184.242-.281.076-.095.147-.194.219-.293.082-.111.164-.222.24-.338.06-.091.113-.185.169-.279.077-.129.154-.257.224-.39.048-.092.09-.186.135-.28.066-.138.132-.276.19-.418.042-.103.077-.208.114-.312.049-.136.099-.272.141-.412.038-.126.067-.255.098-.383.029-.121.062-.24.086-.363.032-.16.052-.323.074-.486.013-.096.029-.19.039-.287.018-.186.024-.374.028-.563.002-.069.01-.136.01-.205l-.002-.038c-.001-.164-.014-.33-.025-.495-.007-.112-.01-.224-.022-.334-.013-.101-.034-.204-.049-.306zm-120.71-30.493a8 8 0 0 0-8 8v15.667h-34.453l-3.811-21.122c45.109-19.723 90.902-32.149 136.32-36.982l12.796 58.104h-31.186v-15.667a8 8 0 0 0-8-8h-63.666z"/></svg>