<svg xmlns="http://www.w3.org/2000/svg" viewBox="0 0 416.375 416.375" style="enable-background:new 0 0 416.375 416.375" xml:space="preserve"><path d="M393.315 167.638a8.024 8.024 0 0 0-.052-.141L342.931 35.335C335.768 15.516 313.68 0 292.608 0H60.837c-22.056 0-40 17.944-40 40v128.458c0 22.056 17.944 40 40 40v89.186c-13.74 3.569-23.917 16.106-23.917 30.981v55.75c0 17.645 14.318 32 31.917 32 17.599 0 31.917-14.355 31.917-32v-55.75c0-14.875-10.177-27.413-23.917-30.981v-89.186h287.771c11.029 0 20.493-4.463 25.966-12.244 5.471-7.782 6.471-18.197 2.741-28.576zM84.754 328.625v55.75c0 5.889-3.19 11.032-7.917 13.81V344.06a8 8 0 0 0-16 0v54.125c-4.726-2.778-7.917-7.921-7.917-13.81v-55.75c0-5.942 3.246-11.126 8.042-13.886.648 3.767 3.923 6.636 7.875 6.636s7.227-2.869 7.875-6.636c4.796 2.76 8.042 7.945 8.042 13.886zM377.486 187.01c-2.471 3.514-7.044 5.448-12.878 5.448H60.837c-13.234 0-24-10.767-24-24V40c0-13.233 10.766-24 24-24h231.771c14.297 0 30.459 11.366 35.292 24.82l.053.143 50.329 132.153c1.946 5.462 1.665 10.395-.796 13.894z"/><path d="m312.995 46.64-.151-.409C310.31 39.182 300.098 32 292.608 32H92.895a8.003 8.003 0 0 0-5.178 1.901 8.87 8.87 0 0 0-1.096 1.122 8 8 0 0 0-1.783 5.034v40.567a8 8 0 0 0 8 8h224.539a8 8 0 0 0 7.477-10.847L312.995 46.64zM100.837 72.625V48H292.39c1.476.343 4.651 2.576 5.47 3.848.063.173.127.343.188.503l7.721 20.274H100.837zM148.962 104.5H92.754a8 8 0 0 0 0 16h56.208a8 8 0 0 0 0-16zM148.962 128.375H92.754a8 8 0 0 0 0 16h56.208a8 8 0 0 0 0-16zM148.962 152.375H92.754a8 8 0 0 0 0 16h56.208a8 8 0 0 0 0-16zM252.837 128.375a8 8 0 0 0-8 8c0 4.319-3.514 7.833-7.833 7.833s-7.834-3.514-7.834-7.833 3.515-7.833 7.834-7.833a8 8 0 0 0 0-16c-13.143 0-23.834 10.691-23.834 23.833s10.691 23.833 23.834 23.833c13.142 0 23.833-10.691 23.833-23.833a8 8 0 0 0-8-8zM308.35 128.375a8 8 0 0 0-8 8c0 4.319-3.515 7.833-7.834 7.833s-7.833-3.514-7.833-7.833 3.514-7.833 7.833-7.833a8 8 0 0 0 0-16c-13.142 0-23.833 10.691-23.833 23.833s10.691 23.833 23.833 23.833c13.143 0 23.834-10.691 23.834-23.833a8 8 0 0 0-8-8z"/></svg>