<?xml version="1.0" encoding="iso-8859-1"?>
<!-- Generator: Adobe Illustrator 17.1.0, SVG Export Plug-In . SVG Version: 6.00 Build 0)  -->
<!DOCTYPE svg PUBLIC "-//W3C//DTD SVG 1.1//EN" "http://www.w3.org/Graphics/SVG/1.1/DTD/svg11.dtd">
<svg version="1.1" id="Capa_1" xmlns="http://www.w3.org/2000/svg" xmlns:xlink="http://www.w3.org/1999/xlink" x="0px" y="0px"
	 viewBox="0 0 416.369 416.369" style="enable-background:new 0 0 416.369 416.369;" xml:space="preserve">
<g>
	<g>
		<path d="M284.518,416.369c-0.296,0-0.589-0.017-0.877-0.048H125.47c-0.204,0.016-0.411,0.023-0.619,0.023
			c-4.418,0-8-3.558-8-7.976v-16.048c0-13.233,10.767-24,24-24h127.667c13.233,0,24,10.767,24,24v16.048
			C292.518,412.787,288.937,416.369,284.518,416.369z M132.851,400.321h143.667v-8c0-4.411-3.589-8-8-8H140.851
			c-4.411,0-8,3.589-8,8V400.321z"/>
	</g>
	<g>
		<path d="M208.185,296.136c-81.645,0-148.068-66.423-148.068-148.067C60.117,66.423,126.54,0,208.185,0
			s148.068,66.423,148.068,148.068C356.252,229.713,289.83,296.136,208.185,296.136z M208.185,16
			C135.362,16,76.117,75.245,76.117,148.068c0,72.822,59.246,132.067,132.068,132.067s132.068-59.245,132.068-132.067
			C340.252,75.245,281.007,16,208.185,16z"/>
	</g>
	<g>
		<path d="M208.185,184.303c-19.979,0-36.234-16.255-36.234-36.234s16.255-36.234,36.234-36.234s36.234,16.255,36.234,36.234
			S228.164,184.303,208.185,184.303z M208.185,127.834c-11.157,0-20.234,9.077-20.234,20.234s9.077,20.234,20.234,20.234
			s20.234-9.077,20.234-20.234S219.342,127.834,208.185,127.834z"/>
	</g>
	<g>
		<path d="M197.201,130.058c-3.16,0-6.153-1.884-7.415-4.992c-17.835-43.922-17.835-53.276-17.835-56.35
			c0-19.979,16.255-36.234,36.234-36.234s36.234,16.255,36.234,36.234c0,3.073,0,12.427-17.834,56.346
			c-1.662,4.094-6.329,6.063-10.422,4.402c-4.094-1.662-6.065-6.328-4.402-10.422c15.457-38.065,16.658-48.144,16.658-50.326
			c0-11.157-9.077-20.234-20.234-20.234s-20.234,9.077-20.234,20.234c0,2.183,1.201,12.262,16.66,50.33
			c1.663,4.094-0.309,8.76-4.402,10.422C199.222,129.868,198.203,130.058,197.201,130.058z"/>
	</g>
	<g>
		<path d="M272.333,230.932c-7.384,0-14.833-2.244-21.25-6.906c-2.451-1.781-9.908-7.198-34.396-46.416
			c-2.34-3.748-1.199-8.683,2.548-11.023c3.749-2.339,8.684-1.198,11.023,2.549c21.193,33.939,28.496,40.687,30.229,41.946
			c9.028,6.557,21.707,4.551,28.264-4.477c3.177-4.373,4.461-9.721,3.616-15.06c-0.846-5.338-3.719-10.027-8.092-13.205
			c-1.765-1.282-10.626-6.234-50.51-16.104c-4.289-1.062-6.905-5.398-5.844-9.688c1.061-4.29,5.399-6.904,9.688-5.844
			c46.016,11.388,53.583,16.885,56.071,18.691c7.83,5.689,12.976,14.088,14.49,23.647s-0.785,19.136-6.474,26.966
			C294.614,225.755,283.548,230.932,272.333,230.932z"/>
	</g>
	<g>
		<path d="M144.035,230.932c-11.215,0.001-22.28-5.176-29.361-14.923c-5.689-7.83-7.988-17.406-6.475-26.966
			c1.514-9.56,6.66-17.958,14.49-23.646c2.487-1.808,10.055-7.305,56.072-18.692c4.29-1.065,8.626,1.554,9.688,5.844
			c1.062,4.289-1.555,8.626-5.844,9.688c-39.885,9.87-48.745,14.822-50.511,16.105c-4.372,3.177-7.246,7.866-8.091,13.204
			c-0.846,5.339,0.438,10.687,3.616,15.06c6.558,9.025,19.236,11.034,28.263,4.476c1.765-1.282,9.211-8.178,30.926-43.062
			c2.335-3.751,7.268-4.896,11.019-2.564c3.751,2.335,4.899,7.269,2.564,11.02c-25.052,40.248-32.618,45.745-35.104,47.551
			C158.869,228.687,151.418,230.931,144.035,230.932z"/>
	</g>
	<g>
		<path d="M172.185,384.321c-4.418,0-8-3.582-8-8v-88.186c0-4.418,3.582-8,8-8s8,3.582,8,8v88.186
			C180.185,380.739,176.603,384.321,172.185,384.321z"/>
	</g>
	<g>
		<path d="M244.185,384.321c-4.418,0-8-3.582-8-8v-88.186c0-4.418,3.582-8,8-8s8,3.582,8,8v88.186
			C252.185,380.739,248.603,384.321,244.185,384.321z"/>
	</g>
	<g>
		<path d="M212.185,328.354h-8c-4.418,0-8-3.582-8-8s3.582-8,8-8h8c4.418,0,8,3.582,8,8S216.603,328.354,212.185,328.354z"/>
	</g>
	<g>
		<path d="M212.185,352.104h-8c-4.418,0-8-3.582-8-8s3.582-8,8-8h8c4.418,0,8,3.582,8,8S216.603,352.104,212.185,352.104z"/>
	</g>
</g>
<g>
</g>
<g>
</g>
<g>
</g>
<g>
</g>
<g>
</g>
<g>
</g>
<g>
</g>
<g>
</g>
<g>
</g>
<g>
</g>
<g>
</g>
<g>
</g>
<g>
</g>
<g>
</g>
<g>
</g>
</svg>
