<svg xmlns="http://www.w3.org/2000/svg" viewBox="0 0 427.758 427.758" style="enable-background:new 0 0 427.758 427.758" xml:space="preserve"><path d="M369.604 155.726C369.604 69.858 299.746 0 213.879 0S58.153 69.858 58.153 155.726c0 51.666 25.486 99.737 68.215 128.818.192.168.391.33.602.481.467.336.922.671 1.381 1.016 15.573 11.684 22.598 23.13 25.777 42.035v41.219c0 22.293 15.218 40.996 35.555 45.791.998 7.147 7.134 12.672 14.552 12.672h19.627c7.43 0 13.574-5.536 14.562-12.695 20.287-4.833 35.454-23.512 35.454-45.768v-41.214c3.289-19.466 10.846-31.58 26.841-43.044.118-.084.224-.178.336-.268 42.942-29.068 68.549-77.208 68.549-129.043zM257.879 369.295c0 17.091-13.377 30.995-29.82 30.995H199.95c-11.378 0-21.284-6.659-26.31-16.423h60.572a8 8 0 0 0 0-16h-64.083v-8h64.083a8 8 0 0 0 0-16h-64.083v-7.816h87.75v33.244zm-55.829-49.244L165.989 193.36c2.576 2.21 5.978 3.963 10.607 3.963 8.834 0 13.23-6.361 15.857-10.162.768-1.11 2.053-2.97 2.569-3.252 0 0 .038-.007.126-.007h.087c.596.354 1.848 2.167 2.602 3.257 2.626 3.802 7.021 10.164 15.853 10.164 8.835 0 13.233-6.359 15.861-10.159.77-1.111 2.057-2.973 2.576-3.254 0 0 .04-.008.129-.008.047-.001.081.002.093.001.596.347 1.854 2.166 2.611 3.261 2.628 3.8 7.026 10.159 15.861 10.159 5.211 0 8.872-2.212 11.545-4.805L226.054 320.05H202.05zm89.15-47.92c-.316.21-.604.445-.879.689-17.39 12.753-26.741 26.804-31.19 47.23h-16.44l42.902-150.678a8 8 0 1 0-15.389-4.381l-.829 2.911c-8.814.013-13.208 6.359-15.834 10.152-.771 1.114-2.062 2.979-2.587 3.26 0 0-.04.008-.133.008l-.092-.001c-.596-.347-1.854-2.166-2.611-3.26-2.628-3.8-7.026-10.16-15.862-10.16s-13.235 6.36-15.863 10.16c-.77 1.111-2.056 2.972-2.575 3.253 0 0-.039.008-.128.008-.043-.001-.074-.005-.087 0-.596-.354-1.848-2.167-2.602-3.257-2.626-3.802-7.021-10.164-15.853-10.164-8.834 0-13.23 6.361-15.857 10.162-.768 1.11-2.053 2.97-2.569 3.252 0 0-.038.007-.126.007-.045 0-.073-.003-.087 0-.596-.354-1.849-2.166-2.602-3.256-2.555-3.697-6.797-9.798-15.156-10.133l-.837-2.942a8 8 0 0 0-15.389 4.381l42.889 150.678h-16.537c-4.374-19.965-13.622-33.828-30.921-46.807-.298-.224-.601-.442-.901-.662a7.956 7.956 0 0 0-.924-.736c-38.809-26.043-61.978-69.452-61.978-116.12C74.153 78.681 136.834 16 213.879 16s139.726 62.681 139.726 139.726c-.001 46.87-23.33 90.385-62.405 116.405z"/></svg>