<svg xmlns="http://www.w3.org/2000/svg" viewBox="0 0 440.125 440.125" style="enable-background:new 0 0 440.125 440.125" xml:space="preserve"><path d="M316.188 0h-192.25c-.056 0-.111.004-.167.004-.028 0-.055-.004-.083-.004-.085 0-.167.01-.252.013C101.611.284 83.938 18.113 83.938 40v168.5c0 18.495 5.598 47.511 12.478 64.68l40.11 100.092c6.827 17.037 24.938 30.845 43.412 34.033v12.82c0 11.028 8.972 20 20 20h40.25c11.028 0 20-8.972 20-20v-12.82c18.474-3.188 36.585-16.996 43.412-34.033l40.11-100.092c6.88-17.169 12.478-46.185 12.478-64.68V40c0-22.056-17.945-40-40-40zm-184.5 16h176.25v40c0 4.411-3.589 8-8 8h-160.25c-4.411 0-8-3.589-8-8V16zm108.5 408.125h-40.25c-2.206 0-4-1.794-4-4V408h48.25v12.125c0 2.206-1.794 4-4 4zm88.67-156.896-40.11 100.092c-5.361 13.378-22.065 24.68-36.478 24.68h-64.416c-14.412 0-31.116-11.302-36.478-24.68l-40.11-100.092c-6.141-15.325-11.329-42.22-11.329-58.729v-96.833h184a8 8 0 0 0 0-16h-184V40c0-10.336 6.568-19.167 15.75-22.539V56c0 13.233 10.767 24 24 24h160.25c13.233 0 24-10.767 24-24V17.292c9.441 3.231 16.25 12.187 16.25 22.708v55.667H324.77a8 8 0 0 0 0 16h15.417V208.5c.001 16.509-5.188 43.403-11.329 58.729z"/><path d="M220.146 143.958c-22.079 0-40.041 17.963-40.041 40.042v96.5c0 22.079 17.962 40.042 40.041 40.042s40.042-17.963 40.042-40.042V184c0-22.079-17.963-40.042-40.042-40.042zM244.188 280.5c0 13.257-10.785 24.042-24.042 24.042-13.256 0-24.041-10.785-24.041-24.042V184c0-13.257 10.785-24.042 24.041-24.042 13.257 0 24.042 10.785 24.042 24.042v96.5z"/><path d="M220.146 176.333a8 8 0 0 0-8 8V208a8 8 0 0 0 16 0v-23.667c0-4.418-3.583-8-8-8zM220.146 256a8 8 0 0 0-8 8v23.667a8 8 0 0 0 16 0V264c0-4.418-3.583-8-8-8z"/></svg>