<svg xmlns="http://www.w3.org/2000/svg" viewBox="0 0 416.369 416.369" style="enable-background:new 0 0 416.369 416.369" xml:space="preserve"><path d="M284.518 416.369c-.296 0-.589-.017-.877-.048H125.47a7.928 7.928 0 0 1-.619.023c-4.418 0-8-3.558-8-7.976V392.32c0-13.233 10.767-24 24-24h127.667c13.233 0 24 10.767 24 24v16.048a8 8 0 0 1-8 8.001zm-151.667-16.048h143.667v-8c0-4.411-3.589-8-8-8H140.851c-4.411 0-8 3.589-8 8v8zM208.185 296.136c-81.645 0-148.068-66.423-148.068-148.067C60.117 66.423 126.54 0 208.185 0s148.068 66.423 148.068 148.068c-.001 81.645-66.423 148.068-148.068 148.068zm0-280.136C135.362 16 76.117 75.245 76.117 148.068c0 72.822 59.246 132.067 132.068 132.067s132.068-59.245 132.068-132.067C340.252 75.245 281.007 16 208.185 16z"/><path d="M208.185 184.303c-19.979 0-36.234-16.255-36.234-36.234s16.255-36.234 36.234-36.234 36.234 16.255 36.234 36.234-16.255 36.234-36.234 36.234zm0-56.469c-11.157 0-20.234 9.077-20.234 20.234s9.077 20.234 20.234 20.234 20.234-9.077 20.234-20.234-9.077-20.234-20.234-20.234z"/><path d="M197.201 130.058a8.002 8.002 0 0 1-7.415-4.992c-17.835-43.922-17.835-53.276-17.835-56.35 0-19.979 16.255-36.234 36.234-36.234s36.234 16.255 36.234 36.234c0 3.073 0 12.427-17.834 56.346a8 8 0 0 1-14.824-6.02c15.457-38.065 16.658-48.144 16.658-50.326 0-11.157-9.077-20.234-20.234-20.234s-20.234 9.077-20.234 20.234c0 2.183 1.201 12.262 16.66 50.33a8 8 0 0 1-7.41 11.012zM272.333 230.932a36.041 36.041 0 0 1-21.25-6.906c-2.451-1.781-9.908-7.198-34.396-46.416a8 8 0 0 1 13.571-8.474c21.193 33.939 28.496 40.687 30.229 41.946 9.028 6.557 21.707 4.551 28.264-4.477a20.106 20.106 0 0 0 3.616-15.06 20.107 20.107 0 0 0-8.092-13.205c-1.765-1.282-10.626-6.234-50.51-16.104a8 8 0 0 1 3.844-15.532c46.016 11.388 53.583 16.885 56.071 18.691 7.83 5.689 12.976 14.088 14.49 23.647s-.785 19.136-6.474 26.966c-7.082 9.747-18.148 14.924-29.363 14.924zM144.035 230.932c-11.215.001-22.28-5.176-29.361-14.923-5.689-7.83-7.988-17.406-6.475-26.966 1.514-9.56 6.66-17.958 14.49-23.646 2.487-1.808 10.055-7.305 56.072-18.692 4.29-1.065 8.626 1.554 9.688 5.844a8 8 0 0 1-5.844 9.688c-39.885 9.87-48.745 14.822-50.511 16.105a20.1 20.1 0 0 0-8.091 13.204 20.098 20.098 0 0 0 3.616 15.06c6.558 9.025 19.236 11.034 28.263 4.476 1.765-1.282 9.211-8.178 30.926-43.062a8 8 0 0 1 13.583 8.456c-25.052 40.248-32.618 45.745-35.104 47.551a36.071 36.071 0 0 1-21.252 6.905zM172.185 384.321a8 8 0 0 1-8-8v-88.186a8 8 0 0 1 16 0v88.186a8 8 0 0 1-8 8zM244.185 384.321a8 8 0 0 1-8-8v-88.186a8 8 0 0 1 16 0v88.186a8 8 0 0 1-8 8zM212.185 328.354h-8a8 8 0 0 1 0-16h8a8 8 0 0 1 0 16zM212.185 352.104h-8a8 8 0 0 1 0-16h8a8 8 0 0 1 0 16z"/></svg>