<svg xmlns="http://www.w3.org/2000/svg" viewBox="0 0 416.205 416.205" style="enable-background:new 0 0 416.205 416.205" xml:space="preserve"><path d="M416.11 256.591c.002-.073.011-.144.011-.217 0-.079-.01-.155-.012-.233l-.17-92.125c0-18.51-14.071-33.793-32.083-35.74V80.144a8 8 0 0 0-8-8h-248a8 8 0 0 0-8 8v47.917h-7.849v-27.917c0-15.439-12.561-28-28-28H28c-15.439 0-28 12.561-28 28V140.3c0 7.323 2.958 14.389 8.07 19.597v96.41C2.958 261.516 0 268.582 0 275.905v40.156c0 15.439 12.561 28 28 28H376.944l.022-.001.022.001h3.242c19.837 0 35.976-16.13 35.976-35.971l-.096-51.499zm-192.254-.217v71.688H109.301a27.824 27.824 0 0 0 2.707-12v-40.156c0-7.323-2.958-14.389-8.07-19.597v-64.247h296.054l.104 56.313h-168.24a7.998 7.998 0 0 0-8 7.999zm176.083-92.345.022 12.032h-16.105v-31.614c9.157 1.815 16.083 9.898 16.083 19.582zm-32.083-75.885v87.917h-232V88.144h232zm-248 87.917h-15.919v-16.164a28.212 28.212 0 0 0 7.804-15.836h8.115v32zm-53.493 152H28c-6.617 0-12-5.383-12-12v-40.156c0-3.782 1.773-7.279 4.865-9.594a7.998 7.998 0 0 0 3.205-6.404V156.298a8.001 8.001 0 0 0-3.205-6.404C17.773 147.579 16 144.082 16 140.3v-40.156c0-6.617 5.383-12 12-12h56.008c6.617 0 12 5.383 12 12V140.3c0 3.782-1.773 7.279-4.865 9.594a7.998 7.998 0 0 0-3.205 6.404v103.609a8.001 8.001 0 0 0 3.205 6.404c3.092 2.315 4.865 5.812 4.865 9.594v40.156c0 6.617-5.383 12-12 12H66.363zm313.866 0h-3.242l-.022.001-.022-.001H239.856v-16.094h136.125a8 8 0 0 0 0-16H239.856v-31.594h160.268l.081 43.731c0 11.004-8.961 19.957-19.976 19.957z"/><path d="M199.669 200.092h-71.563a8 8 0 0 0-8 8v31.927a8 8 0 0 0 8 8h71.563a8 8 0 0 0 8-8v-31.927a8 8 0 0 0-8-8zm-8 31.927h-55.563v-15.927h55.563v15.927zM168.022 160.045h167.834a8 8 0 0 0 0-16H168.022a8 8 0 0 0 0 16zM168.022 128.077h72a8 8 0 0 0 0-16h-72a8 8 0 0 0 0 16zM271.689 128.077h64.167a8 8 0 0 0 0-16h-64.167a8 8 0 0 0 0 16zM351.817 208.228h-31.795a8 8 0 0 0 0 16h31.795a8 8 0 0 0 0-16zM381.593 210.572a8.046 8.046 0 0 0-5.65-2.34c-2.11 0-4.17.85-5.66 2.34a8.045 8.045 0 0 0-2.34 5.65c0 2.11.85 4.17 2.34 5.66a8.06 8.06 0 0 0 5.66 2.35c2.1 0 4.16-.86 5.65-2.35a8.064 8.064 0 0 0 2.35-5.66 8.067 8.067 0 0 0-2.35-5.65zM135.981 256.394h-7.875a8 8 0 0 0 0 16h7.875a8 8 0 0 0 0-16zM167.825 256.394h-7.875a8 8 0 0 0 0 16h7.875a8 8 0 0 0 0-16zM199.669 256.394h-7.875a8 8 0 0 0 0 16h7.875a8 8 0 0 0 0-16zM135.981 280.186h-7.875a8 8 0 0 0 0 16h7.875a8 8 0 0 0 0-16zM167.825 280.186h-7.875a8 8 0 0 0 0 16h7.875a8 8 0 0 0 0-16zM199.669 280.186h-7.875a8 8 0 0 0 0 16h7.875a8 8 0 0 0 0-16zM135.981 304.061h-7.875a8 8 0 0 0 0 16h7.875a8 8 0 0 0 0-16zM167.825 304.061h-7.875a8 8 0 0 0 0 16h7.875a8 8 0 0 0 0-16zM199.669 304.061h-7.875a8 8 0 0 0 0 16h7.875a8 8 0 0 0 0-16z"/></svg>