<svg xmlns="http://www.w3.org/2000/svg" viewBox="0 0 407.846 407.846" style="enable-background:new 0 0 407.846 407.846" xml:space="preserve"><path d="m339.708 221.523-31.904-191.09a8 8 0 0 0-7.891-6.683h-88V16h24.333a8 8 0 0 0 0-16H171.58a8 8 0 0 0 0 16h24.333v7.75h-88a8 8 0 0 0-7.891 6.683l-32 191.667a8 8 0 0 0 7.89 9.317h120v128.381h-55.5c-13.233 0-24 10.767-24 24v16.048c0 4.418 3.582 7.976 8 7.976.208 0 .415-.008.619-.023h157.753a8 8 0 0 0 8.878-7.952v-16.048c0-13.233-10.767-24-24-24h-55.75V231.417h120.02a8 8 0 0 0 8-8 7.997 7.997 0 0 0-.224-1.894zm-64.045 162.275v8h-143.25v-8c0-4.411 3.589-8 8-8h127.25c4.411 0 8 3.589 8 8zM114.689 39.75h44.2l-11.151 175.667H85.359l29.33-175.667zm145.4 175.667-8.621-135.813c-.28-4.409-4.073-7.747-8.491-7.478a8.002 8.002 0 0 0-7.478 8.491l8.557 134.799h-80.285l11.15-175.667h57.983l.69 10.884a7.992 7.992 0 0 0 8.491 7.478 8.002 8.002 0 0 0 7.478-8.491l-.626-9.87h44.2l29.329 175.667h-62.377z"/></svg>