<?xml version="1.0" encoding="iso-8859-1"?>
<!-- Generator: Adobe Illustrator 17.1.0, SVG Export Plug-In . SVG Version: 6.00 Build 0)  -->
<!DOCTYPE svg PUBLIC "-//W3C//DTD SVG 1.1//EN" "http://www.w3.org/Graphics/SVG/1.1/DTD/svg11.dtd">
<svg version="1.1" id="Capa_1" xmlns="http://www.w3.org/2000/svg" xmlns:xlink="http://www.w3.org/1999/xlink" x="0px" y="0px"
	 viewBox="0 0 439.709 439.709" style="enable-background:new 0 0 439.709 439.709;" xml:space="preserve">
<g>
	<g>
		<path d="M219.854,335.943c-81.645,0-148.068-66.423-148.068-148.068c0-81.645,66.423-148.067,148.068-148.067
			s148.068,66.423,148.068,148.067C367.922,269.521,301.5,335.943,219.854,335.943z M219.854,55.808
			c-72.822,0-132.068,59.245-132.068,132.067c0,72.823,59.246,132.068,132.068,132.068s132.068-59.245,132.068-132.068
			C351.922,115.053,292.677,55.808,219.854,55.808z"/>
	</g>
	<g>
		<path d="M219.854,224.109c-19.979,0-36.234-16.255-36.234-36.234s16.255-36.234,36.234-36.234s36.234,16.255,36.234,36.234
			S239.834,224.109,219.854,224.109z M219.854,167.641c-11.157,0-20.234,9.077-20.234,20.234s9.077,20.234,20.234,20.234
			s20.234-9.077,20.234-20.234S231.012,167.641,219.854,167.641z"/>
	</g>
	<g>
		<path d="M208.871,169.865c-3.16,0-6.153-1.884-7.415-4.992c-17.835-43.922-17.835-53.276-17.835-56.35
			c0-19.979,16.255-36.234,36.234-36.234s36.234,16.255,36.234,36.234c0,3.073,0,12.425-17.834,56.346
			c-1.662,4.094-6.329,6.065-10.422,4.402c-4.094-1.662-6.065-6.328-4.402-10.422c15.457-38.067,16.658-48.145,16.658-50.326
			c0-11.157-9.077-20.234-20.234-20.234s-20.234,9.077-20.234,20.234c0,2.183,1.201,12.262,16.66,50.33
			c1.663,4.094-0.309,8.76-4.402,10.422C210.892,169.676,209.873,169.865,208.871,169.865z"/>
	</g>
	<g>
		<path d="M283.974,270.76c-7.589,0-14.963-2.381-21.221-6.929c-2.45-1.779-9.906-7.196-34.396-46.414
			c-2.34-3.747-1.199-8.683,2.548-11.022c3.749-2.342,8.682-1.199,11.023,2.548c21.194,33.939,28.496,40.686,30.229,41.945
			c4.372,3.177,9.72,4.459,15.059,3.615c5.338-0.846,10.028-3.72,13.205-8.092c3.177-4.373,4.461-9.721,3.616-15.059
			c-0.845-5.338-3.719-10.027-8.092-13.205c-1.766-1.282-10.625-6.235-50.51-16.105c-4.289-1.062-6.905-5.398-5.844-9.688
			c1.061-4.289,5.401-6.907,9.688-5.844c46.018,11.388,53.585,16.887,56.071,18.693c7.83,5.688,12.976,14.086,14.49,23.646
			c1.514,9.56-0.786,19.136-6.475,26.966s-14.086,12.977-23.646,14.49C287.8,270.609,285.88,270.76,283.974,270.76z"/>
	</g>
	<g>
		<path d="M155.735,270.76c-1.907,0-3.826-0.15-5.745-0.454c-9.56-1.514-17.957-6.66-23.646-14.49s-7.988-17.406-6.475-26.966
			c1.514-9.56,6.66-17.957,14.491-23.646c2.486-1.807,10.053-7.306,56.071-18.693c4.289-1.063,8.626,1.555,9.688,5.844
			s-1.555,8.626-5.844,9.688c-39.885,9.87-48.744,14.823-50.51,16.105c-4.373,3.178-7.247,7.867-8.092,13.205
			c-0.846,5.338,0.438,10.686,3.616,15.059c3.177,4.372,7.866,7.246,13.205,8.092c5.337,0.845,10.686-0.438,15.059-3.615
			c1.765-1.283,9.211-8.178,30.925-43.062c2.335-3.75,7.268-4.896,11.019-2.564c3.751,2.335,4.899,7.269,2.564,11.02
			c-25.053,40.248-32.618,45.744-35.104,47.551C170.698,268.378,163.324,270.76,155.735,270.76z"/>
	</g>
	<g>
		<path d="M375.792,407.75H63.917c-17.645,0-32-14.355-32-32V32c0-17.645,14.355-32,32-32h311.875c17.645,0,32,14.355,32,32v343.75
			C407.792,393.395,393.437,407.75,375.792,407.75z M63.917,16c-8.822,0-16,7.178-16,16v343.75c0,8.822,7.178,16,16,16h311.875
			c8.822,0,16-7.178,16-16V32c0-8.822-7.178-16-16-16H63.917z"/>
	</g>
	<g>
		<path d="M287.792,375.75H39.917c-4.418,0-8-3.582-8-8s3.582-8,8-8h247.875c4.418,0,8,3.582,8,8S292.21,375.75,287.792,375.75z"/>
	</g>
	<g>
		<path d="M319.792,376.5h-7.504c-4.418,0-8-3.582-8-8s3.582-8,8-8h7.504c4.418,0,8,3.582,8,8S324.21,376.5,319.792,376.5z"/>
	</g>
	<g>
		<path d="M352.458,376.5h-7.504c-4.418,0-8-3.582-8-8s3.582-8,8-8h7.504c4.418,0,8,3.582,8,8S356.877,376.5,352.458,376.5z"/>
	</g>
	<g>
		<path d="M396.792,376.5h-20.333c-4.418,0-8-3.582-8-8s3.582-8,8-8h20.333c4.418,0,8,3.582,8,8S401.21,376.5,396.792,376.5z"/>
	</g>
	<g>
		<path d="M356.125,439.709h-8.333c-11.028,0-20-8.972-20-20V399.75c0-4.418,3.582-8,8-8s8,3.582,8,8v19.959c0,2.206,1.794,4,4,4
			h8.333c2.206,0,4-1.794,4-4V399.75c0-4.418,3.582-8,8-8s8,3.582,8,8v19.959C376.125,430.737,367.153,439.709,356.125,439.709z"/>
	</g>
</g>
<g>
</g>
<g>
</g>
<g>
</g>
<g>
</g>
<g>
</g>
<g>
</g>
<g>
</g>
<g>
</g>
<g>
</g>
<g>
</g>
<g>
</g>
<g>
</g>
<g>
</g>
<g>
</g>
<g>
</g>
</svg>
