<svg xmlns="http://www.w3.org/2000/svg" viewBox="0 0 439.709 439.709" style="enable-background:new 0 0 439.709 439.709" xml:space="preserve"><path d="M219.854 335.943c-81.645 0-148.068-66.423-148.068-148.068 0-81.645 66.423-148.067 148.068-148.067s148.068 66.423 148.068 148.067c0 81.646-66.422 148.068-148.068 148.068zm0-280.135c-72.822 0-132.068 59.245-132.068 132.067 0 72.823 59.246 132.068 132.068 132.068s132.068-59.245 132.068-132.068c0-72.822-59.245-132.067-132.068-132.067z"/><path d="M219.854 224.109c-19.979 0-36.234-16.255-36.234-36.234s16.255-36.234 36.234-36.234 36.234 16.255 36.234 36.234-16.254 36.234-36.234 36.234zm0-56.468c-11.157 0-20.234 9.077-20.234 20.234s9.077 20.234 20.234 20.234 20.234-9.077 20.234-20.234-9.076-20.234-20.234-20.234z"/><path d="M208.871 169.865a8.002 8.002 0 0 1-7.415-4.992c-17.835-43.922-17.835-53.276-17.835-56.35 0-19.979 16.255-36.234 36.234-36.234s36.234 16.255 36.234 36.234c0 3.073 0 12.425-17.834 56.346a7.999 7.999 0 0 1-10.422 4.402 7.999 7.999 0 0 1-4.402-10.422c15.457-38.067 16.658-48.145 16.658-50.326 0-11.157-9.077-20.234-20.234-20.234s-20.234 9.077-20.234 20.234c0 2.183 1.201 12.262 16.66 50.33a8 8 0 0 1-7.41 11.012zM283.974 270.76c-7.589 0-14.963-2.381-21.221-6.929-2.45-1.779-9.906-7.196-34.396-46.414a8 8 0 0 1 2.548-11.022 7.999 7.999 0 0 1 11.023 2.548c21.194 33.939 28.496 40.686 30.229 41.945a20.107 20.107 0 0 0 15.059 3.615 20.108 20.108 0 0 0 13.205-8.092 20.105 20.105 0 0 0 3.616-15.059 20.103 20.103 0 0 0-8.092-13.205c-1.766-1.282-10.625-6.235-50.51-16.105a8 8 0 0 1 3.844-15.532c46.018 11.388 53.585 16.887 56.071 18.693 7.83 5.688 12.976 14.086 14.49 23.646 1.514 9.56-.786 19.136-6.475 26.966s-14.086 12.977-23.646 14.49a36.71 36.71 0 0 1-5.745.455zM155.735 270.76a36.7 36.7 0 0 1-5.745-.454c-9.56-1.514-17.957-6.66-23.646-14.49s-7.988-17.406-6.475-26.966c1.514-9.56 6.66-17.957 14.491-23.646 2.486-1.807 10.053-7.306 56.071-18.693a8 8 0 0 1 9.688 5.844 8 8 0 0 1-5.844 9.688c-39.885 9.87-48.744 14.823-50.51 16.105a20.103 20.103 0 0 0-8.092 13.205 20.096 20.096 0 0 0 3.616 15.059 20.106 20.106 0 0 0 13.205 8.092 20.105 20.105 0 0 0 15.059-3.615c1.765-1.283 9.211-8.178 30.925-43.062a8 8 0 0 1 13.583 8.456c-25.053 40.248-32.618 45.744-35.104 47.551-6.259 4.544-13.633 6.926-21.222 6.926z"/><path d="M375.792 407.75H63.917c-17.645 0-32-14.355-32-32V32c0-17.645 14.355-32 32-32h311.875c17.645 0 32 14.355 32 32v343.75c0 17.645-14.355 32-32 32zM63.917 16c-8.822 0-16 7.178-16 16v343.75c0 8.822 7.178 16 16 16h311.875c8.822 0 16-7.178 16-16V32c0-8.822-7.178-16-16-16H63.917z"/><path d="M287.792 375.75H39.917a8 8 0 0 1 0-16h247.875a8 8 0 0 1 0 16zM319.792 376.5h-7.504a8 8 0 0 1 0-16h7.504a8 8 0 0 1 0 16zM352.458 376.5h-7.504a8 8 0 0 1 0-16h7.504a8 8 0 0 1 0 16zM396.792 376.5h-20.333a8 8 0 0 1 0-16h20.333a8 8 0 0 1 0 16zM356.125 439.709h-8.333c-11.028 0-20-8.972-20-20V399.75a8 8 0 0 1 16 0v19.959c0 2.206 1.794 4 4 4h8.333c2.206 0 4-1.794 4-4V399.75a8 8 0 0 1 16 0v19.959c0 11.028-8.972 20-20 20z"/></svg>