<svg xmlns="http://www.w3.org/2000/svg" viewBox="0 0 440 440" style="enable-background:new 0 0 440 440" xml:space="preserve"><path d="M312.065 248.47c-8.824 0-16.003 7.179-16.003 16.003 0 8.825 7.179 16.005 16.003 16.005s16.004-7.18 16.004-16.005c0-8.824-7.179-16.003-16.004-16.003zM288.069 304.474c0-8.824-7.18-16.003-16.004-16.003s-16.003 7.179-16.003 16.003c0 8.825 7.179 16.005 16.003 16.005s16.004-7.18 16.004-16.005zM184.281 264.194h-7.896v-8.021c0-8.822-7.178-16-16-16h-7.77c-8.822 0-16 7.178-16 16v8.021h-8.178c-8.822 0-16 7.178-16 16v7.769c0 8.822 7.178 16 16 16h8.178v8.334c0 8.822 7.178 16 16 16h7.77c8.822 0 16-7.178 16-16v-8.334h7.896c8.822 0 16-7.178 16-16v-7.769c0-8.822-7.177-16-16-16zm0 23.769h-15.896a8 8 0 0 0-8 8l.002 16.334h-7.771v-16.334a8 8 0 0 0-8-8h-16.178v-7.769h16.178a8 8 0 0 0 8-8v-16.021h7.77v16.021a8 8 0 0 0 8 8h15.896v7.769zM224.396 360.805a8 8 0 0 0-8 8V392a8 8 0 0 0 16 0v-23.195a8 8 0 0 0-8-8zM192.281 360.805a8 8 0 0 0-8 8V392a8 8 0 0 0 16 0v-23.195a8 8 0 0 0-8-8zM256.063 360.805a8 8 0 0 0-8 8V392a8 8 0 0 0 16 0v-23.195a8 8 0 0 0-8-8zM160.281 360.805a8 8 0 0 0-8 8V392a8 8 0 0 0 16 0v-23.195a8 8 0 0 0-8-8zM288.063 360.805a8 8 0 0 0-8 8V392a8 8 0 0 0 16 0v-23.195a8 8 0 0 0-8-8z"/><path d="M328.063 0H111.938c-22.056 0-40 17.944-40 40v360c0 22.056 17.944 40 40 40h216.125c22.056 0 40-17.944 40-40V40c0-22.056-17.945-40-40-40zm24 400c0 13.234-10.767 24-24 24H111.938c-13.233 0-24-10.766-24-24V40c0-13.234 10.767-24 24-24h216.125c13.233 0 24 10.766 24 24v360z"/><path d="M120.438 207.548h199.125a8 8 0 0 0 8-8V48a8 8 0 0 0-8-8H120.438a8 8 0 0 0-8 8v151.548a8 8 0 0 0 8 8zm8-151.548h3.978l38.028 38.028c1.563 1.562 3.609 2.343 5.657 2.343s4.095-.781 5.657-2.343a8 8 0 0 0 0-11.313L155.043 56h156.52v135.548h-20.971l-76.833-76.833a8 8 0 1 0-11.314 11.313l65.52 65.52H128.438V56z"/></svg>