<svg xmlns="http://www.w3.org/2000/svg" viewBox="0 0 448 448" style="enable-background:new 0 0 448 448" xml:space="preserve"><path d="M408 127.958H40c-22.056 0-40 17.944-40 40v88.667c0 22.056 17.944 40 40 40h8.312c.312 12.965 10.947 23.417 23.985 23.417h15.479c13.038 0 23.673-10.452 23.985-23.417h224.478c.312 12.965 10.947 23.417 23.985 23.417h15.479c13.038 0 23.673-10.452 23.985-23.417H408c22.056 0 40-17.944 40-40v-88.667c0-22.056-17.944-40-40-40zM87.776 304.042H72.297c-4.214 0-7.67-3.278-7.97-7.417h31.42c-.302 4.139-3.757 7.417-7.971 7.417zm287.927 0h-15.479c-4.214 0-7.67-3.278-7.97-7.417h31.42c-.301 4.139-3.757 7.417-7.971 7.417zM432 256.625c0 13.233-10.766 24-24 24H40c-13.234 0-24-10.767-24-24v-88.667c0-13.234 10.766-24 24-24h368c13.234 0 24 10.766 24 24v88.667z"/><path d="M112.39 204.089a8 8 0 0 0-8 8c0 11.028-8.972 20-20 20s-20-8.972-20-20 8.972-20 20-20a8 8 0 0 0 0-16c-19.851 0-36 16.149-36 36s16.149 36 36 36 36-16.149 36-36a8 8 0 0 0-8-8zM380.375 184.422H376a8 8 0 0 0 0 16h4.375c6.433 0 11.667 5.233 11.667 11.667s-5.234 11.667-11.667 11.667h-192.31c-6.433 0-11.667-5.233-11.667-11.667s5.233-11.667 11.667-11.667H345a8 8 0 0 0 0-16H188.066c-15.255 0-27.667 12.411-27.667 27.667s12.411 27.667 27.667 27.667h192.31c15.255 0 27.667-12.411 27.667-27.667s-12.412-27.667-27.668-27.667z"/></svg>