<svg xmlns="http://www.w3.org/2000/svg" viewBox="0 0 475.479 475.479" style="enable-background:new 0 0 475.479 475.479" xml:space="preserve"><path d="M331.666 145.571h-47.75a8 8 0 0 0 0 16h47.75a8 8 0 0 0 0-16zM331.666 177.905h-47.75a8 8 0 0 0 0 16h47.75a8 8 0 0 0 0-16zM331.666 209.571h-47.75a8 8 0 0 0 0 16h47.75a8 8 0 0 0 0-16zM411.479 129.571h-46.917c-.39 0-.772.022-1.188.055a8 8 0 0 0-7.374 7.976v119.94c0 4.188 3.293 7.671 7.469 7.982.362.027.725.047 1.093.047h46.917c8.822 0 16-7.178 16-16v-104c0-8.822-7.178-16-16-16zm0 119.936c-.02.03-.043.063 0 .064H372V145.569l39.389-.013c.035.017.09.066.09.015v103.936z"/><path d="M411.479 81.571H139.562c-12.925 0-24.432 6.168-31.749 15.709h-52.73c-17.645 0-32 14.355-32 32v.291H8a8 8 0 0 0 0 16h15.083v.292c0 17.645 14.355 32 32 32h52.731c7.317 9.541 18.824 15.708 31.748 15.708h31.979v17.438c-9.376 3.267-16.125 12.191-16.125 22.666v136.231c0 13.233 10.767 24 24 24h.25c13.233 0 24-10.767 24-24v-136.23c0-10.475-6.749-19.399-16.125-22.666v-17.438h31.771c13.291 0 24.104 10.813 24.104 24.104v103.896c0 22.056 17.944 40 40 40H332c22.056 0 40-17.944 40-40v-8h39.479c35.29 0 64-28.71 64-64v-104c0-35.291-28.71-64.001-64-64.001zM187.666 369.907c0 4.411-3.589 8-8 8h-.25c-4.411 0-8-3.589-8-8V233.676c0-4.411 3.589-8 8-8h.25c4.411 0 8 3.589 8 8v136.231zM55.083 161.863c-8.822 0-16-7.178-16-16V129.28c0-8.822 7.178-16 16-16h45.349a40.03 40.03 0 0 0-.87 8.291v32c0 2.843.303 5.615.87 8.292H55.083zm404.396 87.708c0 26.468-21.532 48-48 48l-46.95-.002a16.41 16.41 0 0 0-.445-.012h-.083a8.002 8.002 0 0 0-8 8v16.014c0 13.233-10.767 24-24 24h-48.584c-13.233 0-24-10.767-24-24V217.676c0-22.113-17.99-40.104-40.104-40.104h-55.521v-40a8 8 0 0 0-16 0v40h-8.229c-13.233 0-24-10.767-24-24v-32c0-13.233 10.767-24 24-24h8.229v8a8 8 0 0 0 16 0v-8H411.48c26.468 0 48 21.532 48 48v103.999z"/></svg>