<svg xmlns="http://www.w3.org/2000/svg" viewBox="0 0 440.167 440.167" style="enable-background:new 0 0 440.167 440.167" xml:space="preserve"><path d="M356.333 0h-272.5c-13.233 0-24 10.766-24 24v392.167c0 13.234 10.767 24 24 24h272.5c13.233 0 24-10.766 24-24V24c0-13.234-10.766-24-24-24zm8 416.167c0 4.411-3.589 8-8 8h-272.5c-4.411 0-8-3.589-8-8V24c0-4.411 3.589-8 8-8h272.5c4.411 0 8 3.589 8 8v392.167z"/><path d="m129.515 239.474-9.897 9.897a15.492 15.492 0 0 0-3.785-.484c-8.593 0-15.583 6.991-15.583 15.583 0 8.593 6.99 15.583 15.583 15.583s15.583-6.991 15.583-15.583c0-1.307-.18-2.571-.484-3.785l9.897-9.897c21.193 18.569 48.93 29.841 79.254 29.841 66.394 0 120.408-54.015 120.408-120.409S286.477 39.812 220.083 39.812 99.675 93.826 99.675 160.22c0 30.324 11.272 58.061 29.84 79.254zm90.568-183.662c57.571 0 104.408 46.837 104.408 104.408s-46.837 104.409-104.408 104.409c-25.912 0-49.647-9.492-67.918-25.177l25.602-25.602a8 8 0 1 0-11.314-11.313l-25.601 25.602c-15.684-18.271-25.176-42.006-25.176-67.918-.001-57.572 46.836-104.409 104.407-104.409z"/><path d="M220.083 200.317c22.109 0 40.097-17.987 40.097-40.097 0-3.8-.532-7.563-1.582-11.183a8 8 0 0 0-9.912-5.456 8 8 0 0 0-5.455 9.912c.63 2.172.949 4.435.949 6.727 0 13.287-10.81 24.097-24.097 24.097s-24.097-10.81-24.097-24.097 10.81-24.097 24.097-24.097c2.259 0 4.492.311 6.637.923a8 8 0 0 0 4.395-15.385 40.147 40.147 0 0 0-11.031-1.539c-22.109 0-40.097 17.987-40.097 40.097 0 22.111 17.987 40.098 40.096 40.098zM100.083 336.083h240a8 8 0 0 0 0-16h-240a8 8 0 0 0 0 16zM104.175 56.395c6.662 0 12.083-5.42 12.083-12.083s-5.421-12.083-12.083-12.083c-6.663 0-12.084 5.42-12.084 12.083s5.421 12.083 12.084 12.083zM336.576 32.228c-6.663 0-12.084 5.42-12.084 12.083s5.421 12.083 12.084 12.083c6.662 0 12.083-5.42 12.083-12.083s-5.421-12.083-12.083-12.083zM104.175 383.839c-6.663 0-12.084 5.42-12.084 12.083s5.421 12.083 12.084 12.083c6.662 0 12.083-5.42 12.083-12.083s-5.421-12.083-12.083-12.083zM336.576 383.839c-6.663 0-12.084 5.42-12.084 12.083s5.421 12.083 12.084 12.083c6.662 0 12.083-5.42 12.083-12.083s-5.421-12.083-12.083-12.083z"/></svg>