<svg xmlns="http://www.w3.org/2000/svg" viewBox="0 0 455.813 455.813" style="enable-background:new 0 0 455.813 455.813" xml:space="preserve"><path d="M284.073 151.813h-20V40c0-22.056-16.224-40-36.166-40S191.74 17.944 191.74 40v111.813h-20c-11.028 0-20 8.972-20 20v156.25c0 23.844 17.478 43.674 40.293 47.373v8.574c0 10.253 6.624 18.998 15.854 22.264v41.539a8 8 0 0 0 8 8h23.75a8 8 0 0 0 8-8v-41.398c9.446-3.148 16.271-11.998 16.271-22.404v-8.597c22.752-3.753 40.165-23.552 40.165-47.35v-156.25c0-11.029-8.972-20.001-20-20.001zM207.74 55.792h40.333v16.031H207.74V55.792zM227.907 16c11.06 0 20.067 10.654 20.162 23.792h-40.324c.094-13.138 9.1-23.792 20.162-23.792zM207.74 87.823h40.333v63.99H207.74v-63.99zm16.146 351.99v-32.167h7.75v32.167h-7.75zm24.022-55.803c0 4.21-3.524 7.636-7.856 7.636h-24.163c-4.331 0-7.855-3.426-7.855-7.636v-7.947h39.875v7.947zm40.165-55.947c0 17.645-14.355 32-32 32H199.74c-17.645 0-32-14.355-32-32v-156.25c0-2.168 1.832-4 4-4h112.333c2.168 0 4 1.832 4 4v156.25z"/></svg>