<?xml version="1.0" encoding="iso-8859-1"?>
<!-- Generator: Adobe Illustrator 17.1.0, SVG Export Plug-In . SVG Version: 6.00 Build 0)  -->
<!DOCTYPE svg PUBLIC "-//W3C//DTD SVG 1.1//EN" "http://www.w3.org/Graphics/SVG/1.1/DTD/svg11.dtd">
<svg version="1.1" id="Capa_1" xmlns="http://www.w3.org/2000/svg" xmlns:xlink="http://www.w3.org/1999/xlink" x="0px" y="0px"
	 viewBox="0 0 432.363 432.363" style="enable-background:new 0 0 432.363 432.363;" xml:space="preserve">
<g>
	<path d="M411.146,68.114H21.218C9.519,68.114,0,77.633,0,89.332v253.699c0,11.699,9.519,21.218,21.218,21.218h389.928
		c11.699,0,21.218-9.519,21.218-21.218V89.332C432.363,77.633,422.845,68.114,411.146,68.114z M21.218,84.114h389.928
		c2.828,0,5.218,2.39,5.218,5.218v10.583h-16.182c-4.418,0-8,3.582-8,8s3.582,8,8,8h16.182v184.5H308.73L175.219,166.904
		c-3.125-3.124-8.189-3.124-11.314,0c-3.124,3.124-3.124,8.189,0,11.313l122.198,122.198H16v-184.5h85.601l30.303,30.303
		c1.563,1.562,3.609,2.343,5.657,2.343s4.095-0.781,5.657-2.344c3.124-3.124,3.124-8.189,0-11.313l-18.989-18.989h243.952
		c4.418,0,8-3.582,8-8s-3.582-8-8-8H247.677c0-0.028,0.004-0.055,0.004-0.083c0-4.418-3.582-8-8-8h-47c-4.418,0-8,3.582-8,8
		c0,0.028,0.004,0.056,0.004,0.083H16V89.332C16,86.504,18.39,84.114,21.218,84.114z M411.146,348.249H21.218
		c-2.828,0-5.218-2.39-5.218-5.218v-26.616h400.363v26.616C416.363,345.859,413.974,348.249,411.146,348.249z"/>
	<path d="M232.181,324.082h-31.999c-4.418,0-8,3.582-8,8c0,4.418,3.582,8,8,8h31.999c4.418,0,8-3.582,8-8
		C240.181,327.664,236.599,324.082,232.181,324.082z"/>
</g>
<g>
</g>
<g>
</g>
<g>
</g>
<g>
</g>
<g>
</g>
<g>
</g>
<g>
</g>
<g>
</g>
<g>
</g>
<g>
</g>
<g>
</g>
<g>
</g>
<g>
</g>
<g>
</g>
<g>
</g>
</svg>
