<svg xmlns="http://www.w3.org/2000/svg" viewBox="0 0 432.363 432.363" style="enable-background:new 0 0 432.363 432.363" xml:space="preserve"><path d="M411.146 68.114H21.218C9.519 68.114 0 77.633 0 89.332v253.699c0 11.699 9.519 21.218 21.218 21.218h389.928c11.699 0 21.218-9.519 21.218-21.218V89.332c-.001-11.699-9.519-21.218-21.218-21.218zm-389.928 16h389.928c2.828 0 5.218 2.39 5.218 5.218v10.583h-16.182a8 8 0 0 0 0 16h16.182v184.5H308.73L175.219 166.904a8 8 0 0 0-11.314 11.313l122.198 122.198H16v-184.5h85.601l30.303 30.303c1.563 1.562 3.609 2.343 5.657 2.343s4.095-.781 5.657-2.344a8 8 0 0 0 0-11.313l-18.989-18.989h243.952a8 8 0 0 0 0-16H247.677c0-.028.004-.055.004-.083a8 8 0 0 0-8-8h-47a8 8 0 0 0-8 8c0 .028.004.056.004.083H16V89.332c0-2.828 2.39-5.218 5.218-5.218zm389.928 264.135H21.218c-2.828 0-5.218-2.39-5.218-5.218v-26.616h400.363v26.616c0 2.828-2.389 5.218-5.217 5.218z"/><path d="M232.181 324.082h-31.999a8 8 0 0 0 0 16h31.999a8 8 0 0 0 0-16z"/></svg>