<svg xmlns="http://www.w3.org/2000/svg" viewBox="0 0 416.02 416.02" style="enable-background:new 0 0 416.02 416.02" xml:space="preserve"><path d="M356.973 0H59.047C35.311 0 16 19.307 16 43.039v297.858c0 23.732 19.311 43.04 43.047 43.04h4.88v24.083a8 8 0 0 0 8 8h272.166a8 8 0 0 0 8-8v-24.083h4.88c23.736 0 43.047-19.308 43.047-43.04V43.039C400.02 19.307 380.709 0 356.973 0zm-20.88 400.02H79.927v-16.083h256.166v16.083zm47.927-59.123c0 14.91-12.133 27.04-27.047 27.04H59.047c-14.914 0-27.047-12.13-27.047-27.04V43.039C32 28.13 44.133 16 59.047 16h297.926c14.914 0 27.047 12.13 27.047 27.039v297.858z"/><path d="M336.093 39.918H79.76a8 8 0 0 0-8 8v160.227a8 8 0 0 0 8 8h56.072v55.708a8 8 0 0 0 8 8H272.09a8 8 0 0 0 8-8v-55.708h56.003a8 8 0 0 0 8-8V47.918a8 8 0 0 0-8-8zm-8 160.227H272.09a8 8 0 0 0-8 8v55.708H151.832v-55.708a8 8 0 0 0-8-8H87.76V55.918h16.167v80.102a8 8 0 0 0 16 0V55.918h16.041v80.102a8 8 0 0 0 16 0V55.918h16.042v80.102a8 8 0 0 0 16 0V55.918h16.042v80.102a8 8 0 0 0 16 0V55.918h16.041v80.102a8 8 0 0 0 16 0V55.918h16.042v80.102a8 8 0 0 0 16 0V55.918h16.042v80.102a8 8 0 0 0 16 0V55.918h15.916v144.227z"/><path d="M208.052 152.02a8 8 0 0 0-8 8v8a8 8 0 0 0 16 0v-8a8 8 0 0 0-8-8zM176.01 152.02a8 8 0 0 0-8 8v8a8 8 0 0 0 16 0v-8a8 8 0 0 0-8-8zM143.968 152.02a8 8 0 0 0-8 8v8a8 8 0 0 0 16 0v-8a8 8 0 0 0-8-8zM111.927 152.02a8 8 0 0 0-8 8v8a8 8 0 0 0 16 0v-8a8 8 0 0 0-8-8zM304.177 152.02a8 8 0 0 0-8 8v8a8 8 0 0 0 16 0v-8a8 8 0 0 0-8-8zM272.135 152.02a8 8 0 0 0-8 8v8a8 8 0 0 0 16 0v-8a8 8 0 0 0-8-8zM240.093 152.02a8 8 0 0 0-8 8v8a8 8 0 0 0 16 0v-8a8 8 0 0 0-8-8z"/></svg>