<svg xmlns="http://www.w3.org/2000/svg" viewBox="0 0 456.084 456.084" style="enable-background:new 0 0 456.084 456.084" xml:space="preserve"><path d="m403.946 423.767-12.399-280.241C390.61 126.438 375.01 112 357.481 112h-33.246V96.084h8.021a8 8 0 0 0 0-16h-8.021V15.995A7.997 7.997 0 0 0 324.131 0H212.068a8 8 0 0 0 0 16h.167v96H85.406c-17.409 0-32.349 14.142-33.304 31.525a8.004 8.004 0 0 0-.012.438v38.834c0 .188.015.373.028.558-.013.369-.028.737-.028 1.109v239.619c0 17.645 14.355 32 32 32h289.178c8.604 0 16.55-3.388 22.374-9.54 5.823-6.15 8.771-14.27 8.304-22.776zM308.236 112h-32.208V96.084h32.208V112zm-80-96h80v64.084h-40.208a8 8 0 0 0-8 8V112h-31.792V16zM85.406 128h133.662c.382.056.77.095 1.168.095s.786-.039 1.168-.095h38.624v24.464H84.09a31.793 31.793 0 0 0-16 4.305v-12.563C68.684 135.4 76.567 128 85.406 128zM68.09 424.084V184.465c0-8.823 7.178-16.001 16-16.001h60.951l-11.477 255.218c-.321 5.843.944 11.466 3.615 16.402H84.09c-8.823 0-16-7.178-16-16zm315.932 11.461c-2.771 2.927-6.591 4.539-10.755 4.539H164.236c-4.164 0-7.983-1.612-10.753-4.539s-4.171-6.829-3.939-11.065l11.513-256.016h98.971v96.743c-9.347 3.398-16.042 12.37-16.042 22.877 0 13.417 10.916 24.333 24.333 24.333s24.333-10.916 24.333-24.333a8 8 0 0 0-16 0c0 4.595-3.738 8.333-8.333 8.333-4.595 0-8.333-3.738-8.333-8.333 0-4.596 3.738-8.334 8.333-8.334a8 8 0 0 0 8-8c0-.733-.107-1.439-.292-2.114V168.464h47.896a8 8 0 0 0 0-16h-47.896V128h39.041c.382.056.77.095 1.168.095s.786-.039 1.168-.095h40.078c9.158 0 17.611 7.664 18.086 16.317l.36 8.146h-19.692a8 8 0 0 0 0 16h20.4l11.331 256.095c.227 4.158-1.174 8.059-3.945 10.987z"/><path d="M268.319 328.042c-22.056 0-40 17.944-40 40s17.944 40 40 40 40-17.944 40-40-17.944-40-40-40zm0 64c-13.233 0-24-10.767-24-24 0-10.429 6.689-19.321 16-22.624v22.624a8 8 0 0 0 16 0v-22.624c9.311 3.303 16 12.195 16 22.624 0 13.233-10.767 24-24 24z"/></svg>