<?xml version="1.0" encoding="iso-8859-1"?>
<!-- Generator: Adobe Illustrator 17.1.0, SVG Export Plug-In . SVG Version: 6.00 Build 0)  -->
<!DOCTYPE svg PUBLIC "-//W3C//DTD SVG 1.1//EN" "http://www.w3.org/Graphics/SVG/1.1/DTD/svg11.dtd">
<svg version="1.1" id="Capa_1" xmlns="http://www.w3.org/2000/svg" xmlns:xlink="http://www.w3.org/1999/xlink" x="0px" y="0px"
	 viewBox="0 0 456.084 456.084" style="enable-background:new 0 0 456.084 456.084;" xml:space="preserve">
<g>
	<path d="M403.946,423.767l-12.399-280.241C390.61,126.438,375.01,112,357.481,112h-33.246V96.084h8.021c4.418,0,8-3.582,8-8
		s-3.582-8-8-8h-8.021V15.995c4.37-0.056,7.896-3.612,7.896-7.995c0-4.418-3.582-8-8-8h-7.896h-96h-8.167c-4.418,0-8,3.582-8,8
		s3.582,8,8,8h0.167v96H85.406c-17.409,0-32.349,14.142-33.304,31.525c-0.008,0.146-0.012,0.292-0.012,0.438v38.834
		c0,0.188,0.015,0.373,0.028,0.558c-0.013,0.369-0.028,0.737-0.028,1.109v239.619c0,17.645,14.355,32,32,32h80.146h19.5h189.532
		c8.604,0,16.55-3.388,22.374-9.54C401.465,440.393,404.413,432.273,403.946,423.767z M308.236,112h-32.208V96.084h32.208V112z
		 M228.236,16h80v64.084h-40.208c-4.418,0-8,3.582-8,8V112h-31.792V16z M85.406,128h133.662c0.382,0.056,0.77,0.095,1.168,0.095
		s0.786-0.039,1.168-0.095h38.624v24.464H84.09c-5.827,0-11.289,1.573-16,4.305v-12.563C68.684,135.4,76.567,128,85.406,128z
		 M68.09,424.084V184.465c0-8.823,7.178-16.001,16-16.001h60.951l-11.477,255.218c-0.321,5.843,0.944,11.466,3.615,16.402H84.09
		C75.267,440.084,68.09,432.906,68.09,424.084z M384.022,435.545c-2.771,2.927-6.591,4.539-10.755,4.539H183.736h-19.5
		c-4.164,0-7.983-1.612-10.753-4.539s-4.171-6.829-3.939-11.065l11.513-256.016h98.971v96.743
		c-9.347,3.398-16.042,12.37-16.042,22.877c0,13.417,10.916,24.333,24.333,24.333s24.333-10.916,24.333-24.333c0-4.418-3.582-8-8-8
		s-8,3.582-8,8c0,4.595-3.738,8.333-8.333,8.333c-4.595,0-8.333-3.738-8.333-8.333c0-4.596,3.738-8.334,8.333-8.334
		c4.418,0,8-3.582,8-8c0-0.733-0.107-1.439-0.292-2.114V168.464h47.896c4.418,0,8-3.582,8-8s-3.582-8-8-8h-47.896V128h39.041
		c0.382,0.056,0.77,0.095,1.168,0.095s0.786-0.039,1.168-0.095h40.078c9.158,0,17.611,7.664,18.086,16.317l0.36,8.146h-19.692
		c-4.418,0-8,3.582-8,8s3.582,8,8,8h20.4l11.331,256.095C388.194,428.716,386.793,432.617,384.022,435.545z"/>
	<path d="M268.319,328.042c-22.056,0-40,17.944-40,40s17.944,40,40,40s40-17.944,40-40S290.375,328.042,268.319,328.042z
		 M268.319,392.042c-13.233,0-24-10.767-24-24c0-10.429,6.689-19.321,16-22.624v22.624c0,4.418,3.582,8,8,8s8-3.582,8-8v-22.624
		c9.311,3.303,16,12.195,16,22.624C292.319,381.275,281.552,392.042,268.319,392.042z"/>
</g>
<g>
</g>
<g>
</g>
<g>
</g>
<g>
</g>
<g>
</g>
<g>
</g>
<g>
</g>
<g>
</g>
<g>
</g>
<g>
</g>
<g>
</g>
<g>
</g>
<g>
</g>
<g>
</g>
<g>
</g>
</svg>
