<?xml version="1.0" encoding="iso-8859-1"?>
<!-- Generator: Adobe Illustrator 17.1.0, SVG Export Plug-In . SVG Version: 6.00 Build 0)  -->
<!DOCTYPE svg PUBLIC "-//W3C//DTD SVG 1.1//EN" "http://www.w3.org/Graphics/SVG/1.1/DTD/svg11.dtd">
<svg version="1.1" id="Capa_1" xmlns="http://www.w3.org/2000/svg" xmlns:xlink="http://www.w3.org/1999/xlink" x="0px" y="0px"
	 viewBox="0 0 424.166 424.166" style="enable-background:new 0 0 424.166 424.166;" xml:space="preserve">
<g>
	<path d="M360.26,0h-296c-17.645,0-32,14.355-32,32v54.311c-0.229,0.745-0.354,1.535-0.354,2.355s0.124,1.61,0.354,2.355v282.624
		c-0.229,0.745-0.354,1.535-0.354,2.355s0.124,1.61,0.354,2.355v37.811c0,4.418,3.582,8,8,8h344c4.418,0,8-3.582,8-8V32
		C392.26,14.355,377.904,0,360.26,0z M48.26,408.166V384h271.813c4.418,0,8-3.582,8-8s-3.582-8-8-8H48.26V96.666h271.813
		c4.418,0,8-3.582,8-8s-3.582-8-8-8H48.26V32c0-8.822,7.178-16,16-16h296c8.822,0,16,7.178,16,16v48.666h-24.104
		c-4.418,0-8,3.582-8,8s3.582,8,8,8h24.104V368h-24.104c-4.418,0-8,3.582-8,8s3.582,8,8,8h24.104v24.166H48.26z"/>
	<path d="M175.908,32.083c-8.776,0-15.917,7.141-15.917,15.917s7.141,15.916,15.917,15.916s15.916-7.14,15.916-15.916
		S184.685,32.083,175.908,32.083z"/>
	<path d="M247.747,32.083c-8.776,0-15.917,7.141-15.917,15.917s7.141,15.916,15.917,15.916s15.916-7.14,15.916-15.916
		S256.523,32.083,247.747,32.083z"/>
	<path d="M335.989,48c0-8.776-7.14-15.917-15.916-15.917S304.156,39.224,304.156,48s7.141,15.916,15.917,15.916
		S335.989,56.776,335.989,48z"/>
	<path d="M104.177,32.083C95.4,32.083,88.26,39.224,88.26,48s7.141,15.916,15.917,15.916s15.916-7.14,15.916-15.916
		S112.953,32.083,104.177,32.083z"/>
	<path d="M315.343,160.333H104.177c-4.418,0-8,3.582-8,8V328c0,4.418,3.582,8,8,8h211.166c4.418,0,8-3.582,8-8V168.333
		C323.343,163.915,319.761,160.333,315.343,160.333z M112.177,176.333h30.843l35.641,35.642c1.563,1.562,3.609,2.343,5.657,2.343
		c2.047,0,4.095-0.781,5.657-2.343c3.124-3.124,3.124-8.189,0-11.314l-24.326-24.327h141.695v141.695l-85.368-85.368
		c-3.125-3.123-8.189-3.123-11.314,0c-3.124,3.125-3.124,8.189,0,11.314L286.686,320H112.177V176.333z"/>
	<path d="M320.343,120H104.01c-13.233,0-24,10.767-24,24c0,4.418,3.582,8,8,8s8-3.582,8-8c0-4.411,3.589-8,8-8h216.333
		c4.411,0,8,3.589,8,8c0,4.418,3.582,8,8,8s8-3.582,8-8C344.343,130.767,333.576,120,320.343,120z"/>
</g>
<g>
</g>
<g>
</g>
<g>
</g>
<g>
</g>
<g>
</g>
<g>
</g>
<g>
</g>
<g>
</g>
<g>
</g>
<g>
</g>
<g>
</g>
<g>
</g>
<g>
</g>
<g>
</g>
<g>
</g>
</svg>
