<svg xmlns="http://www.w3.org/2000/svg" viewBox="0 0 424.166 424.166" style="enable-background:new 0 0 424.166 424.166" xml:space="preserve"><path d="M360.26 0h-296c-17.645 0-32 14.355-32 32v54.311a8 8 0 0 0 0 4.71v282.624a8 8 0 0 0 0 4.71v37.811a8 8 0 0 0 8 8h344a8 8 0 0 0 8-8V32c0-17.645-14.356-32-32-32zm-312 408.166V384h271.813a8 8 0 0 0 0-16H48.26V96.666h271.813a8 8 0 0 0 0-16H48.26V32c0-8.822 7.178-16 16-16h296c8.822 0 16 7.178 16 16v48.666h-24.104a8 8 0 0 0 0 16h24.104V368h-24.104a8 8 0 0 0 0 16h24.104v24.166h-328z"/><path d="M175.908 32.083c-8.776 0-15.917 7.141-15.917 15.917s7.141 15.916 15.917 15.916 15.916-7.14 15.916-15.916-7.139-15.917-15.916-15.917zM247.747 32.083c-8.776 0-15.917 7.141-15.917 15.917s7.141 15.916 15.917 15.916 15.916-7.14 15.916-15.916-7.14-15.917-15.916-15.917zM335.989 48c0-8.776-7.14-15.917-15.916-15.917S304.156 39.224 304.156 48s7.141 15.916 15.917 15.916 15.916-7.14 15.916-15.916zM104.177 32.083C95.4 32.083 88.26 39.224 88.26 48s7.141 15.916 15.917 15.916 15.916-7.14 15.916-15.916-7.14-15.917-15.916-15.917zM315.343 160.333H104.177a8 8 0 0 0-8 8V328a8 8 0 0 0 8 8h211.166a8 8 0 0 0 8-8V168.333a8 8 0 0 0-8-8zm-203.166 16h30.843l35.641 35.642a7.976 7.976 0 0 0 5.657 2.343 8 8 0 0 0 5.657-13.657l-24.326-24.327h141.695v141.695l-85.368-85.368a8 8 0 0 0-11.314 11.314L286.686 320H112.177V176.333zM320.343 120H104.01c-13.233 0-24 10.767-24 24a8 8 0 0 0 16 0c0-4.411 3.589-8 8-8h216.333c4.411 0 8 3.589 8 8a8 8 0 0 0 16 0c0-13.233-10.767-24-24-24z"/></svg>