<svg xmlns="http://www.w3.org/2000/svg" viewBox="0 0 431.705 431.705" style="enable-background:new 0 0 431.705 431.705" xml:space="preserve"><path d="M397.281 71.966H34.424C15.765 71.966 0 87.957 0 106.885v218.427c0 18.983 15.442 34.428 34.424 34.428h362.857c18.981 0 34.424-15.444 34.424-34.428V106.387c0-18.98-15.442-34.421-34.424-34.421zm18.424 253.346c0 10.161-8.265 18.428-18.424 18.428H34.424C24.265 343.74 16 335.473 16 325.312V106.885c0-10.255 8.438-18.919 18.424-18.919h362.857c10.159 0 18.424 8.264 18.424 18.421v218.925z"/><path d="M279.416 207.413c-17.326 0-31.422-14.097-31.422-31.423s14.096-31.423 31.422-31.423a31.226 31.226 0 0 1 17.061 5.056c-.113.168-.232.33-.344.5a47.278 47.278 0 0 0-7.67 25.866c0 26.149 21.274 47.423 47.425 47.423 26.146 0 47.419-21.273 47.419-47.423s-21.272-47.423-47.419-47.423a8 8 0 0 0 0 16c17.324 0 31.419 14.097 31.419 31.423s-14.095 31.423-31.419 31.423a31.228 31.228 0 0 1-17.064-5.057 47.176 47.176 0 0 0 8.013-26.366c0-26.149-21.273-47.423-47.422-47.423s-47.422 21.273-47.422 47.423 21.273 47.423 47.422 47.423a8 8 0 0 0 .001-15.999zm31.422-31.423c0 4.844-1.106 9.538-3.182 13.783a31.218 31.218 0 0 1-3.192-13.783c0-4.814 1.106-9.507 3.189-13.771a31.24 31.24 0 0 1 3.185 13.771zM122.554 127.765H61.571c-16.227 0-29.428 13.196-29.428 29.416v37.248c0 16.225 13.201 29.424 29.428 29.424h60.982c16.225 0 29.424-13.199 29.424-29.424v-37.248c.001-16.22-13.199-29.416-29.423-29.416zm0 80.088H61.571c-5.622 0-10.44-3.475-12.438-8.386h23.143a8 8 0 0 0 0-16H48.144v-15.728h24.133a8 8 0 0 0 0-16H49.309c2.094-4.691 6.798-7.975 12.262-7.975h60.982c5.463 0 10.166 3.283 12.259 7.975h-23.355a8 8 0 0 0 0 16h24.52v15.728h-24.52a8 8 0 0 0 0 16h23.53c-1.996 4.911-6.813 8.386-12.433 8.386zM56.228 271.989a8 8 0 0 0-8 8V295a8 8 0 0 0 16 0v-15.011a8 8 0 0 0-8-8zM95.992 271.989a8 8 0 0 0-8 8V295a8 8 0 0 0 16 0v-15.011a8 8 0 0 0-8-8zM135.757 271.989a8 8 0 0 0-8 8V295a8 8 0 0 0 16 0v-15.011a8 8 0 0 0-8-8zM175.521 271.989a8 8 0 0 0-8 8V295a8 8 0 0 0 16 0v-15.011a8 8 0 0 0-8-8zM215.563 271.989a8 8 0 0 0-8 8V295a8 8 0 0 0 16 0v-15.011c0-4.418-3.583-8-8-8zM255.327 271.989a8 8 0 0 0-8 8V295a8 8 0 0 0 16 0v-15.011a8 8 0 0 0-8-8zM295.092 271.989a8 8 0 0 0-8 8V295a8 8 0 0 0 16 0v-15.011a8 8 0 0 0-8-8zM334.856 271.989a8 8 0 0 0-8 8V295a8 8 0 0 0 16 0v-15.011a8 8 0 0 0-8-8zM375.478 271.989a8 8 0 0 0-8 8V295a8 8 0 0 0 16 0v-15.011a8 8 0 0 0-8-8z"/></svg>