<svg xmlns="http://www.w3.org/2000/svg" viewBox="0 0 433.282 433.282" style="enable-background:new 0 0 433.282 433.282" xml:space="preserve"><path d="M346.719 61.027a23.464 23.464 0 0 0-5.499-8.587 23.566 23.566 0 0 0 4.711-6.701 23.427 23.427 0 0 0 .788-18.029c-3.377-9.282-12.282-15.52-22.158-15.52-2.749 0-5.461.479-8.064 1.426l-25.378 9.237a23.478 23.478 0 0 0-1.406-7.336C286.334 6.236 277.429 0 267.555 0c-2.75 0-5.463.479-8.066 1.426L100.656 59.259C88.44 63.705 82.118 77.263 86.564 89.482c1.165 3.202 3 6.029 5.294 8.375-6.122 6.285-8.49 15.76-5.294 24.543 1.2 3.297 3.108 6.2 5.499 8.585a23.538 23.538 0 0 0-4.711 6.701c-2.662 5.708-2.941 12.111-.788 18.03a23.462 23.462 0 0 0 5.45 8.536c-6.235 6.284-8.672 15.84-5.45 24.696a23.456 23.456 0 0 0 5.364 8.447c-6.173 6.285-8.572 15.796-5.364 24.612a23.462 23.462 0 0 0 5.493 8.579c-6.266 6.283-8.722 15.862-5.493 24.738a23.477 23.477 0 0 0 5.449 8.535c-6.235 6.284-8.672 15.84-5.449 24.696 3.378 9.281 12.283 15.518 22.159 15.518 2.756 0 5.471-.48 8.063-1.426l76.306-27.773-.056 50.701h-32.228a8 8 0 0 0-8 8v41.243c0 22.292 15.217 40.996 35.555 45.791.997 7.148 7.134 12.673 14.552 12.673h19.626c7.43 0 13.576-5.537 14.563-12.697 20.287-4.833 35.454-23.511 35.454-45.767v-41.243a8 8 0 0 0-8-8h-24.363l.044-34.602 92.387-33.57c5.918-2.153 10.644-6.483 13.305-12.191s2.941-12.111.788-18.029a23.434 23.434 0 0 0-5.479-8.594c6.256-6.283 8.706-15.855 5.479-24.724a23.465 23.465 0 0 0-5.456-8.543 23.575 23.575 0 0 0 4.669-6.658 23.427 23.427 0 0 0 .788-18.029 23.467 23.467 0 0 0-5.492-8.581c6.266-6.283 8.722-15.862 5.492-24.737a23.464 23.464 0 0 0-5.373-8.457 23.544 23.544 0 0 0 4.585-6.573 23.427 23.427 0 0 0 .788-18.029 23.452 23.452 0 0 0-5.456-8.543 23.56 23.56 0 0 0 4.669-6.658 23.439 23.439 0 0 0 .786-18.03zM331.43 171.902a7.524 7.524 0 0 1-4.276 3.918l-215.842 78.562a7.537 7.537 0 0 1-2.59.461 7.605 7.605 0 0 1-7.123-4.989c-1.43-3.928.602-8.287 4.529-9.716l215.838-78.561a7.563 7.563 0 0 1 2.595-.462 7.607 7.607 0 0 1 7.123 4.99 7.534 7.534 0 0 1-.254 5.797zm-222.708 16.564a7.605 7.605 0 0 1-7.123-4.989c-1.43-3.928.602-8.287 4.529-9.716L321.966 95.2a7.563 7.563 0 0 1 2.595-.462 7.607 7.607 0 0 1 7.123 4.99 7.534 7.534 0 0 1-.253 5.797 7.524 7.524 0 0 1-4.276 3.918l-8.67 3.155c-.669.179-1.332.388-1.988.626l-206.306 75.09a7.406 7.406 0 0 1-1.469.152zm-6.87-44.018a7.524 7.524 0 0 1 4.276-3.918l215.838-78.56a7.563 7.563 0 0 1 2.595-.462 7.607 7.607 0 0 1 7.123 4.99 7.534 7.534 0 0 1-.253 5.797 7.524 7.524 0 0 1-4.276 3.918l-215.842 78.562a7.537 7.537 0 0 1-2.59.461 7.608 7.608 0 0 1-7.124-4.99 7.531 7.531 0 0 1 .253-5.798zm4.276 62.372 8.659-3.152c.673-.18 1.339-.388 1.999-.628l206.295-75.087a7.461 7.461 0 0 1 1.481-.154 7.605 7.605 0 0 1 7.122 4.989c1.429 3.929-.603 8.287-4.529 9.716l-215.846 78.563a7.52 7.52 0 0 1-2.586.459 7.607 7.607 0 0 1-7.124-4.989c-1.429-3.93.602-8.288 4.529-9.717zM321.966 28.652a7.563 7.563 0 0 1 2.595-.462 7.607 7.607 0 0 1 7.123 4.99 7.534 7.534 0 0 1-.253 5.797 7.524 7.524 0 0 1-4.276 3.918l-215.842 78.562a7.537 7.537 0 0 1-2.59.461 7.605 7.605 0 0 1-7.123-4.989c-1.43-3.928.602-8.287 4.529-9.716l7.663-2.789a23.596 23.596 0 0 0 2.995-.851L275.62 45.74c.976-.355 1.91-.775 2.808-1.241l43.538-15.847zM106.129 74.294 264.96 16.462a7.555 7.555 0 0 1 2.595-.462 7.604 7.604 0 0 1 7.122 4.989c1.226 3.37-.1 7.051-2.98 8.933l-162.178 59.03a7.54 7.54 0 0 1-.796.047 7.607 7.607 0 0 1-7.124-4.989c-1.429-3.929.602-8.287 4.53-9.716zm5.179 213.32a7.515 7.515 0 0 1-2.586.459 7.607 7.607 0 0 1-7.124-4.989c-1.429-3.929.603-8.287 4.529-9.716l215.839-78.56a7.555 7.555 0 0 1 2.595-.462 7.605 7.605 0 0 1 7.122 4.989c1.429 3.929-.603 8.287-4.529 9.716l-116.446 42.383a23.567 23.567 0 0 0-4.191 1.525l-95.209 34.655zm145.25 87.204c0 17.091-13.377 30.995-29.82 30.995h-28.109c-11.377 0-21.284-6.659-26.309-16.423h60.572a8 8 0 0 0 0-16h-64.083v-8h64.083a8 8 0 0 0 0-16h-64.083v-7.815h87.75v33.243zM331.43 238.45a7.525 7.525 0 0 1-4.271 3.917l-97.645 35.48a7.998 7.998 0 0 0-5.268 7.509l-.051 40.219h-15.159l.057-51.369a7.559 7.559 0 0 1 3.737-6.516l2.701-.983a8.082 8.082 0 0 0 1.017-.277l105.419-38.305c3.93-1.43 8.288.603 9.717 4.528a7.534 7.534 0 0 1-.254 5.797z"/></svg>