<?xml version="1.0" encoding="iso-8859-1"?>
<!-- Generator: Adobe Illustrator 17.1.0, SVG Export Plug-In . SVG Version: 6.00 Build 0)  -->
<!DOCTYPE svg PUBLIC "-//W3C//DTD SVG 1.1//EN" "http://www.w3.org/Graphics/SVG/1.1/DTD/svg11.dtd">
<svg version="1.1" id="Capa_1" xmlns="http://www.w3.org/2000/svg" xmlns:xlink="http://www.w3.org/1999/xlink" x="0px" y="0px"
	 viewBox="0 0 433.282 433.282" style="enable-background:new 0 0 433.282 433.282;" xml:space="preserve">
<path d="M346.719,61.027c-1.2-3.298-3.108-6.201-5.499-8.587c1.92-1.922,3.529-4.166,4.711-6.701
	c2.662-5.708,2.941-12.111,0.788-18.029c-3.377-9.282-12.282-15.52-22.158-15.52c-2.749,0-5.461,0.479-8.064,1.426l-25.378,9.237
	c-0.074-2.444-0.525-4.916-1.406-7.336C286.334,6.236,277.429,0,267.555,0c-2.75,0-5.463,0.479-8.066,1.426L100.656,59.259
	c-12.216,4.446-18.538,18.004-14.092,30.223c1.165,3.202,3,6.029,5.294,8.375c-6.122,6.285-8.49,15.76-5.294,24.543
	c1.2,3.297,3.108,6.2,5.499,8.585c-1.92,1.921-3.529,4.165-4.711,6.701c-2.662,5.708-2.941,12.111-0.788,18.03
	c1.192,3.275,3.082,6.159,5.45,8.536c-6.235,6.284-8.672,15.84-5.45,24.696c1.177,3.234,3.037,6.087,5.364,8.447
	c-6.173,6.285-8.572,15.796-5.364,24.612c1.199,3.294,3.105,6.195,5.493,8.579c-6.266,6.283-8.722,15.862-5.493,24.738
	c1.192,3.274,3.082,6.158,5.449,8.535c-6.235,6.284-8.672,15.84-5.449,24.696c3.378,9.281,12.283,15.518,22.159,15.518
	c2.756,0,5.471-0.48,8.063-1.426l76.306-27.773l-0.056,50.701h-32.228c-4.418,0-8,3.582-8,8v41.243
	c0,22.292,15.217,40.996,35.555,45.791c0.997,7.148,7.134,12.673,14.552,12.673h19.626c7.43,0,13.576-5.537,14.563-12.697
	c20.287-4.833,35.454-23.511,35.454-45.767v-41.243c0-4.418-3.582-8-8-8h-24.363l0.044-34.602l92.387-33.57
	c5.918-2.153,10.644-6.483,13.305-12.191s2.941-12.111,0.788-18.029c-1.215-3.339-3.115-6.234-5.479-8.594
	c6.256-6.283,8.706-15.855,5.479-24.724c-1.193-3.278-3.086-6.166-5.456-8.543c1.901-1.913,3.495-4.141,4.669-6.658
	c2.662-5.708,2.941-12.111,0.788-18.029c-1.199-3.295-3.104-6.196-5.492-8.581c6.266-6.283,8.722-15.862,5.492-24.737
	c-1.179-3.239-3.042-6.095-5.373-8.457c1.864-1.894,3.429-4.093,4.585-6.573c2.662-5.708,2.941-12.111,0.788-18.029
	c-1.193-3.278-3.085-6.166-5.456-8.543c1.901-1.912,3.495-4.141,4.669-6.658C348.593,73.349,348.872,66.945,346.719,61.027z
	 M331.43,171.902c-0.855,1.835-2.374,3.226-4.276,3.918l-215.842,78.562c-0.839,0.306-1.71,0.461-2.59,0.461
	c-3.174,0-6.037-2.005-7.123-4.989c-1.43-3.928,0.602-8.287,4.529-9.716l215.838-78.561c0.843-0.307,1.716-0.462,2.595-0.462
	c3.174,0,6.036,2.006,7.123,4.99C332.376,168.009,332.286,170.067,331.43,171.902z M108.722,188.466
	c-3.174,0-6.037-2.005-7.123-4.989c-1.43-3.928,0.602-8.287,4.529-9.716L321.966,95.2c0.843-0.307,1.716-0.462,2.595-0.462
	c3.174,0,6.036,2.006,7.123,4.99c0.692,1.903,0.603,3.962-0.253,5.797c-0.855,1.835-2.374,3.226-4.276,3.918l-8.67,3.155
	c-0.669,0.179-1.332,0.388-1.988,0.626l-206.306,75.09C109.706,188.412,109.216,188.466,108.722,188.466z M101.852,144.448
	c0.855-1.835,2.374-3.226,4.276-3.918L321.966,61.97c0.843-0.307,1.716-0.462,2.595-0.462c3.174,0,6.036,2.006,7.123,4.99
	c0.692,1.903,0.603,3.962-0.253,5.797c-0.855,1.835-2.374,3.226-4.276,3.918l-215.842,78.562c-0.839,0.306-1.71,0.461-2.59,0.461
	c-3.174,0-6.037-2.006-7.124-4.99C100.906,148.342,100.996,146.283,101.852,144.448z M106.128,206.82l8.659-3.152
	c0.673-0.18,1.339-0.388,1.999-0.628l206.295-75.087c0.489-0.099,0.984-0.154,1.481-0.154c3.173,0,6.035,2.005,7.122,4.989
	c1.429,3.929-0.603,8.287-4.529,9.716l-215.846,78.563c-0.835,0.305-1.706,0.459-2.586,0.459c-3.174,0-6.037-2.005-7.124-4.989
	C100.17,212.607,102.201,208.249,106.128,206.82z M321.966,28.652c0.843-0.307,1.716-0.462,2.595-0.462
	c3.174,0,6.036,2.006,7.123,4.99c0.692,1.903,0.603,3.962-0.253,5.797c-0.855,1.835-2.374,3.226-4.276,3.918l-215.842,78.562
	c-0.839,0.306-1.71,0.461-2.59,0.461c-3.174,0-6.037-2.005-7.123-4.989c-1.43-3.928,0.602-8.287,4.529-9.716l7.663-2.789
	c1.011-0.224,2.014-0.493,2.995-0.851L275.62,45.74c0.976-0.355,1.91-0.775,2.808-1.241L321.966,28.652z M106.129,74.294
	L264.96,16.462c0.842-0.307,1.715-0.462,2.595-0.462c3.173,0,6.036,2.005,7.122,4.989c1.226,3.37-0.1,7.051-2.98,8.933
	l-162.178,59.03c-0.264,0.028-0.529,0.047-0.796,0.047c-3.174,0-6.037-2.005-7.124-4.989
	C100.17,80.081,102.201,75.723,106.129,74.294z M111.308,287.614c-0.835,0.305-1.705,0.459-2.586,0.459
	c-3.174,0-6.037-2.005-7.124-4.989c-1.429-3.929,0.603-8.287,4.529-9.716l215.839-78.56c0.842-0.307,1.715-0.462,2.595-0.462
	c3.173,0,6.035,2.005,7.122,4.989c1.429,3.929-0.603,8.287-4.529,9.716l-116.446,42.383c-1.461,0.381-2.862,0.892-4.191,1.525
	L111.308,287.614z M256.558,374.818c0,17.091-13.377,30.995-29.82,30.995h-28.109c-11.377,0-21.284-6.659-26.309-16.423h60.572
	c4.418,0,8-3.582,8-8s-3.582-8-8-8h-64.083v-8h64.083c4.418,0,8-3.582,8-8s-3.582-8-8-8h-64.083v-7.815h87.75V374.818z
	 M331.43,238.45c-0.855,1.835-2.374,3.226-4.271,3.917l-97.645,35.48c-3.159,1.147-5.264,4.147-5.268,7.509l-0.051,40.219h-15.159
	l0.057-51.369c0.001-2.742,1.477-5.19,3.737-6.516l2.701-0.983c0.344-0.076,0.686-0.157,1.017-0.277l105.419-38.305
	c3.93-1.43,8.288,0.603,9.717,4.528C332.376,234.557,332.286,236.615,331.43,238.45z"/>
<g>
</g>
<g>
</g>
<g>
</g>
<g>
</g>
<g>
</g>
<g>
</g>
<g>
</g>
<g>
</g>
<g>
</g>
<g>
</g>
<g>
</g>
<g>
</g>
<g>
</g>
<g>
</g>
<g>
</g>
</svg>
