<svg xmlns="http://www.w3.org/2000/svg" viewBox="0 0 391.917 391.917" style="enable-background:new 0 0 391.917 391.917" xml:space="preserve"><path d="M67.604 171.868c19.851 0 36-16.149 36-36a8 8 0 0 0-16 0c0 11.028-8.972 20-20 20s-20-8.972-20-20 8.972-20 20-20a8 8 0 0 0 0-16c-19.851 0-36 16.149-36 36s16.15 36 36 36zM98.534 227.609a7.998 7.998 0 0 0-4.691 10.295 27.911 27.911 0 0 1 1.762 9.805c0 15.439-12.561 28-28 28s-28-12.561-28-28 12.561-28 28-28c3.251 0 6.433.55 9.457 1.635a8 8 0 0 0 10.231-4.829 8 8 0 0 0-4.829-10.231 43.885 43.885 0 0 0-14.859-2.574c-24.262 0-44 19.738-44 44s19.738 44 44 44 44-19.738 44-44a43.84 43.84 0 0 0-2.776-15.408c-1.548-4.142-6.159-6.244-10.295-4.693z"/><path d="M367.917 52.306H280c-13.233 0-24 10.767-24 24v80.876a23.885 23.885 0 0 0-8-1.376H143.917c-2.805 0-5.496.488-8 1.376V76.306c0-13.233-10.767-24-24-24H24c-13.233 0-24 10.767-24 24v239.305c0 13.233 10.767 24 24 24h87.917c6.142 0 11.751-2.322 16-6.131 4.249 3.809 9.858 6.131 16 6.131H248c6.142 0 11.751-2.322 16-6.131 4.25 3.809 9.858 6.131 16 6.131h87.916c13.233 0 24-10.767 24-24V76.306c.001-13.233-10.766-24-23.999-24zm-256 271.305H24c-4.411 0-8-3.589-8-8V76.306c0-4.411 3.589-8 8-8h87.917c4.411 0 8 3.589 8 8v239.305c0 4.411-3.589 8-8 8zm136.083 0H143.917c-4.411 0-8-3.589-8-8v-79.688h80.75a8 8 0 0 0 0-16h-80.75v-40.117c0-4.411 3.589-8 8-8H248c4.411 0 8 3.589 8 8v40.117h-7.834a8 8 0 0 0 0 16H256v79.688c0 4.411-3.588 8-8 8zm127.917-8c0 4.411-3.589 8-8 8H280c-4.411 0-8-3.589-8-8V76.306c0-4.411 3.589-8 8-8h87.916c4.411 0 8 3.589 8 8v239.305z"/><path d="M323.604 171.868c19.851 0 36-16.149 36-36a8 8 0 0 0-16 0c0 11.028-8.972 20-20 20s-20-8.972-20-20 8.972-20 20-20a8 8 0 0 0 0-16c-19.851 0-36 16.149-36 36s16.149 36 36 36zM354.534 227.609a7.998 7.998 0 0 0-4.691 10.295 27.903 27.903 0 0 1 1.762 9.805c0 15.439-12.561 28-28 28s-28-12.561-28-28 12.561-28 28-28c3.251 0 6.434.55 9.457 1.635a8 8 0 0 0 5.402-15.06 43.89 43.89 0 0 0-14.859-2.574c-24.262 0-44 19.738-44 44s19.738 44 44 44 44-19.738 44-44c0-5.299-.934-10.483-2.775-15.408-1.549-4.141-6.16-6.244-10.296-4.693zM239.667 195.493a8 8 0 0 0-8-8H160.25a8 8 0 0 0 0 16h71.417c4.417 0 8-3.582 8-8zM167.333 251.972c-8.73 0-15.833 7.104-15.833 15.834s7.103 15.833 15.833 15.833 15.833-7.103 15.833-15.833-7.102-15.834-15.833-15.834zm0 16v-.333c.092 0 .167.075.167.167a.165.165 0 0 1-.167.166zM231.39 251.972c-8.73 0-15.833 7.104-15.833 15.834s7.103 15.833 15.833 15.833 15.834-7.103 15.834-15.833-7.103-15.834-15.834-15.834zm0 16v-.333a.166.166 0 1 1 0 .333z"/></svg>