<svg xmlns="http://www.w3.org/2000/svg" viewBox="0 0 424.026 424.026" style="enable-background:new 0 0 424.026 424.026" xml:space="preserve"><path d="M390.083 148.075c18.716 0 33.942-15.227 33.942-33.942V70.08c0-18.716-15.227-33.942-33.942-33.942H33.943C15.227 36.138 0 51.365 0 70.08v44.053c0 18.716 15.227 33.942 33.943 33.942H192.18v8.083H33.943C15.227 156.159 0 171.385 0 190.101v44.053c0 18.716 15.227 33.942 33.943 33.942H192.18v7.854H33.943C15.227 275.95 0 291.177 0 309.893v44.053c0 18.716 15.227 33.942 33.943 33.942h356.141c18.716 0 33.942-15.227 33.942-33.942v-44.053c0-18.716-15.227-33.942-33.942-33.942H232.18v-7.854h157.904c18.716 0 33.942-15.227 33.942-33.942v-44.053c0-18.716-15.227-33.942-33.942-33.942H232.18v-8.083h157.903zM16 114.133V70.08c0-9.894 8.049-17.942 17.943-17.942h356.141c9.894 0 17.942 8.049 17.942 17.942v44.053c0 9.894-8.049 17.942-17.942 17.942H33.943c-9.894 0-17.943-8.048-17.943-17.942zm392.026 195.76v44.053c0 9.894-8.049 17.942-17.942 17.942H33.943c-9.894 0-17.943-8.049-17.943-17.942v-44.053c0-9.894 8.049-17.942 17.943-17.942h356.141c9.893-.001 17.942 8.048 17.942 17.942zM216.18 275.95h-8v-7.854h8v7.854zm191.846-85.849v44.053c0 9.894-8.049 17.942-17.942 17.942H33.943c-9.894 0-17.943-8.049-17.943-17.942v-44.053c0-9.894 8.049-17.942 17.943-17.942h356.141c9.893 0 17.942 8.049 17.942 17.942zM216.18 156.159h-8v-8.083h8v8.083z"/><path d="M56.028 68.053c-13.237 0-24.007 10.77-24.007 24.008 0 13.237 10.77 24.007 24.007 24.007 13.238 0 24.007-10.77 24.007-24.007.001-13.238-10.769-24.008-24.007-24.008zm0 32.015c-4.415 0-8.007-3.592-8.007-8.007 0-4.415 3.592-8.008 8.007-8.008s8.007 3.592 8.007 8.008c.001 4.415-3.592 8.007-8.007 8.007zM367.885 116.068c13.238 0 24.008-10.77 24.008-24.007 0-13.238-10.77-24.008-24.008-24.008-13.237 0-24.006 10.77-24.006 24.008-.001 13.237 10.768 24.007 24.006 24.007zm0-32.015c4.416 0 8.008 3.592 8.008 8.008 0 4.415-3.592 8.007-8.008 8.007-4.415 0-8.006-3.592-8.006-8.007-.001-4.415 3.591-8.008 8.006-8.008zM312.027 116.068c13.238 0 24.007-10.77 24.007-24.007 0-13.238-10.77-24.008-24.007-24.008-13.237 0-24.007 10.77-24.007 24.008.001 13.237 10.77 24.007 24.007 24.007zm0-32.015c4.415 0 8.007 3.592 8.007 8.008 0 4.415-3.592 8.007-8.007 8.007s-8.007-3.592-8.007-8.007c.001-4.415 3.592-8.008 8.007-8.008zM280.346 92.234c0-13.265-10.792-24.056-24.056-24.056H112.013c-13.264 0-24.055 10.792-24.055 24.056 0 13.263 10.791 24.053 24.055 24.053h144.278c13.264 0 24.055-10.79 24.055-24.053zm-176.388 0c0-4.442 3.613-8.056 8.055-8.056h144.278c4.442 0 8.056 3.614 8.056 8.056 0 4.44-3.614 8.053-8.056 8.053H112.013c-4.442 0-8.055-3.613-8.055-8.053zM56.028 236.088c13.238 0 24.007-10.769 24.007-24.006 0-13.238-10.77-24.008-24.007-24.008-13.237 0-24.007 10.77-24.007 24.008 0 13.237 10.77 24.006 24.007 24.006zm0-32.014c4.415 0 8.007 3.592 8.007 8.008 0 4.415-3.592 8.006-8.007 8.006s-8.007-3.592-8.007-8.006c0-4.416 3.592-8.008 8.007-8.008zM367.885 236.088c13.238 0 24.008-10.769 24.008-24.006 0-13.238-10.77-24.008-24.008-24.008-13.237 0-24.006 10.77-24.006 24.008-.001 13.237 10.768 24.006 24.006 24.006zm0-32.014c4.416 0 8.008 3.592 8.008 8.008 0 4.415-3.592 8.006-8.008 8.006-4.415 0-8.006-3.592-8.006-8.006-.001-4.416 3.591-8.008 8.006-8.008zM312.027 236.088c13.238 0 24.007-10.769 24.007-24.006 0-13.238-10.77-24.008-24.007-24.008-13.237 0-24.007 10.77-24.007 24.008.001 13.237 10.77 24.006 24.007 24.006zm0-32.014c4.415 0 8.007 3.592 8.007 8.008 0 4.415-3.592 8.006-8.007 8.006s-8.007-3.592-8.007-8.006c.001-4.416 3.592-8.008 8.007-8.008zM112.013 236.308h144.278c13.264 0 24.056-10.79 24.056-24.053 0-13.265-10.792-24.056-24.056-24.056H112.013c-13.264 0-24.055 10.792-24.055 24.056 0 13.263 10.791 24.053 24.055 24.053zm0-32.11h144.278c4.442 0 8.056 3.614 8.056 8.056 0 4.44-3.614 8.053-8.056 8.053H112.013c-4.441 0-8.055-3.613-8.055-8.053 0-4.442 3.613-8.056 8.055-8.056zM56.028 355.88c13.238 0 24.007-10.77 24.007-24.007 0-13.238-10.77-24.007-24.007-24.007-13.237 0-24.007 10.77-24.007 24.007 0 13.238 10.77 24.007 24.007 24.007zm0-32.014c4.415 0 8.007 3.592 8.007 8.007s-3.592 8.007-8.007 8.007-8.007-3.592-8.007-8.007 3.592-8.007 8.007-8.007zM367.885 355.88c13.238 0 24.008-10.77 24.008-24.007 0-13.238-10.77-24.007-24.008-24.007-13.237 0-24.006 10.77-24.006 24.007-.001 13.238 10.768 24.007 24.006 24.007zm0-32.014c4.416 0 8.008 3.592 8.008 8.007s-3.592 8.007-8.008 8.007c-4.415 0-8.006-3.592-8.006-8.007s3.591-8.007 8.006-8.007zM312.027 355.88c13.238 0 24.007-10.77 24.007-24.007 0-13.238-10.77-24.007-24.007-24.007-13.237 0-24.007 10.77-24.007 24.007.001 13.238 10.77 24.007 24.007 24.007zm0-32.014c4.415 0 8.007 3.592 8.007 8.007s-3.592 8.007-8.007 8.007-8.007-3.592-8.007-8.007 3.592-8.007 8.007-8.007zM112.013 356.099h144.278c13.264 0 24.056-10.79 24.056-24.053 0-13.265-10.792-24.056-24.056-24.056H112.013c-13.264 0-24.055 10.792-24.055 24.056 0 13.263 10.791 24.053 24.055 24.053zm0-32.109h144.278c4.442 0 8.056 3.614 8.056 8.056 0 4.44-3.614 8.053-8.056 8.053H112.013c-4.441 0-8.055-3.612-8.055-8.053 0-4.442 3.613-8.056 8.055-8.056z"/></svg>