<?xml version="1.0" encoding="iso-8859-1"?>
<!-- Generator: Adobe Illustrator 17.1.0, SVG Export Plug-In . SVG Version: 6.00 Build 0)  -->
<!DOCTYPE svg PUBLIC "-//W3C//DTD SVG 1.1//EN" "http://www.w3.org/Graphics/SVG/1.1/DTD/svg11.dtd">
<svg version="1.1" id="Capa_1" xmlns="http://www.w3.org/2000/svg" xmlns:xlink="http://www.w3.org/1999/xlink" x="0px" y="0px"
	 viewBox="0 0 424.026 424.026" style="enable-background:new 0 0 424.026 424.026;" xml:space="preserve">
<g>
	<path d="M390.083,148.075c18.716,0,33.942-15.227,33.942-33.942V70.08c0-18.716-15.227-33.942-33.942-33.942H33.943
		C15.227,36.138,0,51.365,0,70.08v44.053c0,18.716,15.227,33.942,33.943,33.942H192.18v8.083H33.943
		C15.227,156.159,0,171.385,0,190.101v44.053c0,18.716,15.227,33.942,33.943,33.942H192.18v7.854H33.943
		C15.227,275.95,0,291.177,0,309.893v44.053c0,18.716,15.227,33.942,33.943,33.942h356.141c18.716,0,33.942-15.227,33.942-33.942
		v-44.053c0-18.716-15.227-33.942-33.942-33.942H232.18v-7.854h157.904c18.716,0,33.942-15.227,33.942-33.942v-44.053
		c0-18.716-15.227-33.942-33.942-33.942H232.18v-8.083H390.083z M16,114.133V70.08c0-9.894,8.049-17.942,17.943-17.942h356.141
		c9.894,0,17.942,8.049,17.942,17.942v44.053c0,9.894-8.049,17.942-17.942,17.942H33.943C24.049,132.075,16,124.027,16,114.133z
		 M408.026,309.893v44.053c0,9.894-8.049,17.942-17.942,17.942H33.943c-9.894,0-17.943-8.049-17.943-17.942v-44.053
		c0-9.894,8.049-17.942,17.943-17.942h356.141C399.977,291.95,408.026,299.999,408.026,309.893z M216.18,275.95h-8v-7.854h8V275.95z
		 M408.026,190.101v44.053c0,9.894-8.049,17.942-17.942,17.942H33.943c-9.894,0-17.943-8.049-17.943-17.942v-44.053
		c0-9.894,8.049-17.942,17.943-17.942h356.141C399.977,172.159,408.026,180.208,408.026,190.101z M216.18,156.159h-8v-8.083h8
		V156.159z"/>
	<path d="M56.028,68.053c-13.237,0-24.007,10.77-24.007,24.008c0,13.237,10.77,24.007,24.007,24.007
		c13.238,0,24.007-10.77,24.007-24.007C80.036,78.823,69.266,68.053,56.028,68.053z M56.028,100.068
		c-4.415,0-8.007-3.592-8.007-8.007c0-4.415,3.592-8.008,8.007-8.008s8.007,3.592,8.007,8.008
		C64.036,96.476,60.443,100.068,56.028,100.068z"/>
	<path d="M367.885,116.068c13.238,0,24.008-10.77,24.008-24.007c0-13.238-10.77-24.008-24.008-24.008
		c-13.237,0-24.006,10.77-24.006,24.008C343.878,105.298,354.647,116.068,367.885,116.068z M367.885,84.053
		c4.416,0,8.008,3.592,8.008,8.008c0,4.415-3.592,8.007-8.008,8.007c-4.415,0-8.006-3.592-8.006-8.007
		C359.878,87.646,363.47,84.053,367.885,84.053z"/>
	<path d="M312.027,116.068c13.238,0,24.007-10.77,24.007-24.007c0-13.238-10.77-24.008-24.007-24.008
		c-13.237,0-24.007,10.77-24.007,24.008C288.021,105.298,298.79,116.068,312.027,116.068z M312.027,84.053
		c4.415,0,8.007,3.592,8.007,8.008c0,4.415-3.592,8.007-8.007,8.007s-8.007-3.592-8.007-8.007
		C304.021,87.646,307.612,84.053,312.027,84.053z"/>
	<path d="M280.346,92.234c0-13.265-10.792-24.056-24.056-24.056H112.013c-13.264,0-24.055,10.792-24.055,24.056
		c0,13.263,10.791,24.053,24.055,24.053h144.278C269.555,116.287,280.346,105.497,280.346,92.234z M103.958,92.234
		c0-4.442,3.613-8.056,8.055-8.056h144.278c4.442,0,8.056,3.614,8.056,8.056c0,4.44-3.614,8.053-8.056,8.053H112.013
		C107.571,100.287,103.958,96.674,103.958,92.234z"/>
	<path d="M56.028,236.088c13.238,0,24.007-10.769,24.007-24.006c0-13.238-10.77-24.008-24.007-24.008
		c-13.237,0-24.007,10.77-24.007,24.008C32.021,225.319,42.791,236.088,56.028,236.088z M56.028,204.074
		c4.415,0,8.007,3.592,8.007,8.008c0,4.415-3.592,8.006-8.007,8.006s-8.007-3.592-8.007-8.006
		C48.021,207.666,51.613,204.074,56.028,204.074z"/>
	<path d="M367.885,236.088c13.238,0,24.008-10.769,24.008-24.006c0-13.238-10.77-24.008-24.008-24.008
		c-13.237,0-24.006,10.77-24.006,24.008C343.878,225.319,354.647,236.088,367.885,236.088z M367.885,204.074
		c4.416,0,8.008,3.592,8.008,8.008c0,4.415-3.592,8.006-8.008,8.006c-4.415,0-8.006-3.592-8.006-8.006
		C359.878,207.666,363.47,204.074,367.885,204.074z"/>
	<path d="M312.027,236.088c13.238,0,24.007-10.769,24.007-24.006c0-13.238-10.77-24.008-24.007-24.008
		c-13.237,0-24.007,10.77-24.007,24.008C288.021,225.319,298.79,236.088,312.027,236.088z M312.027,204.074
		c4.415,0,8.007,3.592,8.007,8.008c0,4.415-3.592,8.006-8.007,8.006s-8.007-3.592-8.007-8.006
		C304.021,207.666,307.612,204.074,312.027,204.074z"/>
	<path d="M112.013,236.308h144.278c13.264,0,24.056-10.79,24.056-24.053c0-13.265-10.792-24.056-24.056-24.056H112.013
		c-13.264,0-24.055,10.792-24.055,24.056C87.958,225.518,98.749,236.308,112.013,236.308z M112.013,204.198h144.278
		c4.442,0,8.056,3.614,8.056,8.056c0,4.44-3.614,8.053-8.056,8.053H112.013c-4.441,0-8.055-3.613-8.055-8.053
		C103.958,207.812,107.571,204.198,112.013,204.198z"/>
	<path d="M56.028,355.88c13.238,0,24.007-10.77,24.007-24.007c0-13.238-10.77-24.007-24.007-24.007
		c-13.237,0-24.007,10.77-24.007,24.007C32.021,345.111,42.791,355.88,56.028,355.88z M56.028,323.866
		c4.415,0,8.007,3.592,8.007,8.007s-3.592,8.007-8.007,8.007s-8.007-3.592-8.007-8.007S51.613,323.866,56.028,323.866z"/>
	<path d="M367.885,355.88c13.238,0,24.008-10.77,24.008-24.007c0-13.238-10.77-24.007-24.008-24.007
		c-13.237,0-24.006,10.77-24.006,24.007C343.878,345.111,354.647,355.88,367.885,355.88z M367.885,323.866
		c4.416,0,8.008,3.592,8.008,8.007s-3.592,8.007-8.008,8.007c-4.415,0-8.006-3.592-8.006-8.007S363.47,323.866,367.885,323.866z"/>
	<path d="M312.027,355.88c13.238,0,24.007-10.77,24.007-24.007c0-13.238-10.77-24.007-24.007-24.007
		c-13.237,0-24.007,10.77-24.007,24.007C288.021,345.111,298.79,355.88,312.027,355.88z M312.027,323.866
		c4.415,0,8.007,3.592,8.007,8.007s-3.592,8.007-8.007,8.007s-8.007-3.592-8.007-8.007S307.612,323.866,312.027,323.866z"/>
	<path d="M112.013,356.099h144.278c13.264,0,24.056-10.79,24.056-24.053c0-13.265-10.792-24.056-24.056-24.056H112.013
		c-13.264,0-24.055,10.792-24.055,24.056C87.958,345.309,98.749,356.099,112.013,356.099z M112.013,323.99h144.278
		c4.442,0,8.056,3.614,8.056,8.056c0,4.44-3.614,8.053-8.056,8.053H112.013c-4.441,0-8.055-3.612-8.055-8.053
		C103.958,327.604,107.571,323.99,112.013,323.99z"/>
</g>
<g>
</g>
<g>
</g>
<g>
</g>
<g>
</g>
<g>
</g>
<g>
</g>
<g>
</g>
<g>
</g>
<g>
</g>
<g>
</g>
<g>
</g>
<g>
</g>
<g>
</g>
<g>
</g>
<g>
</g>
</svg>
