<svg xmlns="http://www.w3.org/2000/svg" viewBox="0 0 415.792 415.792" style="enable-background:new 0 0 415.792 415.792" xml:space="preserve"><path d="M123.355 199.801h-7.897v-8.022c0-8.822-7.178-16-16-16h-7.769c-8.822 0-16 7.178-16 16v8.022h-8.178c-8.822 0-16 7.178-16 16v7.769c0 8.822 7.178 16 16 16h8.178v8.334c0 8.822 7.178 16 16 16h7.769c8.822 0 16-7.178 16-16v-8.334h7.897c8.822 0 16-7.178 16-16v-7.769c0-8.822-7.178-16-16-16zm0 23.769h-15.897a8 8 0 0 0-8 8l.001 16.334h-7.771V231.57a8 8 0 0 0-8-8H67.511v-7.769h16.178a8 8 0 0 0 8-8v-16.022h7.769v16.022a8 8 0 0 0 8 8h15.897v7.769zM311.477 219.849a7.995 7.995 0 0 0-2.513-5.824l-8.473-7.985a7.999 7.999 0 0 0-5.487-2.178h-15.37a8 8 0 0 0-8 8v15.96a8 8 0 0 0 8 8h15.37a8.003 8.003 0 0 0 5.483-2.174l8.473-7.975a8.003 8.003 0 0 0 2.517-5.824zM359.13 203.862h-15.371c-2.04 0-4.003.779-5.487 2.178l-8.473 7.985a8 8 0 0 0 .004 11.647l8.473 7.975a8.003 8.003 0 0 0 5.483 2.174h15.371a8 8 0 0 0 8-8v-15.96a8 8 0 0 0-8-7.999zM325.212 230.263a8 8 0 0 0-5.822-2.517h-.003a7.999 7.999 0 0 0-5.822 2.513l-7.985 8.473a8.004 8.004 0 0 0-2.178 5.487v15.371a8 8 0 0 0 8 8h15.96a8 8 0 0 0 8-8v-15.371a7.995 7.995 0 0 0-2.175-5.483l-7.975-8.473zM313.565 209.424a8 8 0 0 0 5.822 2.513h.003a8 8 0 0 0 5.822-2.517l7.975-8.473a8 8 0 0 0 2.175-5.483v-15.37a8 8 0 0 0-8-8h-15.96a8 8 0 0 0-8 8v15.37a8 8 0 0 0 2.178 5.487l7.985 8.473z"/><path d="M325.528 124.048a8.03 8.03 0 0 0-1.688-.178h-52.467c-.059-13.183-10.8-23.892-23.997-23.892h-79.5c-13.198 0-23.938 10.708-23.997 23.892H95.972C43.053 123.87 0 166.923 0 219.842s43.053 95.972 95.972 95.972c25.278 0 48.91-9.64 66.928-27.22h89.991c18.019 17.58 41.651 27.22 66.929 27.22 52.919 0 95.972-43.053 95.972-95.972 0-50.998-39.542-92.821-90.264-95.794zm-157.653-8.07h79.5c4.375 0 7.936 3.531 7.995 7.892h-95.49c.059-4.361 3.62-7.892 7.995-7.892zM319.82 299.813c-22.028 0-42.558-8.789-57.808-24.747a8 8 0 0 0-5.784-2.473h-96.665a8.003 8.003 0 0 0-5.784 2.473c-15.25 15.958-35.78 24.747-57.808 24.747-44.096 0-79.971-35.875-79.971-79.971s35.875-79.972 79.972-79.972h226.592c.3.048.605.08.916.093 42.791 1.926 76.312 37.013 76.312 79.878 0 44.097-35.875 79.972-79.972 79.972z"/><path d="M183.466 203.842c-8.822 0-16 7.178-16 16s7.178 16 16 16 16-7.178 16-16-7.177-16-16-16zM231.785 203.842c-8.822 0-16 7.178-16 16s7.178 16 16 16 16-7.178 16-16-7.178-16-16-16z"/></svg>