<svg xmlns="http://www.w3.org/2000/svg" viewBox="0 0 416.333 416.333" style="enable-background:new 0 0 416.333 416.333" xml:space="preserve"><path d="M80.063 288.169v-.003c0-8.822-7.178-16-16-16h-7.77c-8.822 0-16 7.178-16 16l-.428.001c-8.822 0-16 7.178-16 16v7.769c0 8.822 7.178 16 16 16h.428v.23c0 8.822 7.178 16 16 16h7.77c8.822 0 16-7.178 16-16v-.232c8.708-.134 15.75-7.259 15.75-15.998v-7.769c0-8.738-7.043-15.864-15.75-15.998zm-.25 23.768h-7.75a8 8 0 0 0-8 8l.001 8.23h-7.771v-8.23a8 8 0 0 0-8-8h-8.428v-7.769h8.428a8 8 0 0 0 8-8v-8.001h7.77v8.001a8 8 0 0 0 8 8h7.75v7.769zM80.063 138.277a8 8 0 0 0 8-8v-41.61a8 8 0 0 0-16 0v41.61a8 8 0 0 0 8 8zM56.313 130.777a8 8 0 0 0 8-8v-26.61a8 8 0 0 0-16 0v26.61a8 8 0 0 0 8 8zM336.563 138.277a8 8 0 0 0 8-8v-41.61a8 8 0 0 0-16 0v41.61a8 8 0 0 0 8 8zM360.563 130.777a8 8 0 0 0 8-8v-26.61a8 8 0 0 0-16 0v26.61a8 8 0 0 0 8 8z"/><path d="M391.938 0H24.396c-13.234 0-24 10.767-24 24v368.333c0 13.233 10.766 24 24 24h367.542c13.234 0 24-10.767 24-24V24c0-13.233-10.767-24-24-24zM24.396 16h367.542c4.411 0 8 3.589 8 8v176.167H16.396V24c0-4.411 3.588-8 8-8zm367.542 384.333H24.396c-4.411 0-8-3.589-8-8V216.167h383.542v176.167c0 4.41-3.589 7.999-8 7.999z"/><path d="M120.167 184.375h176a8 8 0 0 0 8-8V40.292a8 8 0 0 0-8-8h-176a8 8 0 0 0-8 8v136.083a8 8 0 0 0 8 8zm8-136.083h6.292l36.657 36.657c1.562 1.562 3.609 2.343 5.657 2.343s4.095-.781 5.657-2.343a7.998 7.998 0 0 0 0-11.313l-25.343-25.343h131.081v120.083h-10.997l-62.74-62.74a8 8 0 0 0-11.313 0 7.998 7.998 0 0 0 0 11.313l51.427 51.427H128.167V48.292zM296.167 232.167H138.571a8.05 8.05 0 0 0-1.598 0h-16.807a8 8 0 0 0-8 8V376.25a8 8 0 0 0 8 8h176a8 8 0 0 0 8-8V240.167a7.998 7.998 0 0 0-7.999-8zm-8 136.083h-10.955l-62.782-62.782a8 8 0 0 0-11.313 0 7.998 7.998 0 0 0 0 11.313l51.469 51.468H128.167V248.167h6.334l36.615 36.615c1.562 1.562 3.609 2.343 5.657 2.343s4.095-.781 5.657-2.343a7.998 7.998 0 0 0 0-11.313l-25.302-25.302h131.039V368.25zM348.072 272.167c-6.617 0-12 5.383-12 12s5.383 12 12 12 12-5.383 12-12-5.384-12-12-12zm0 16c-2.206 0-4-1.794-4-4s1.794-4 4-4 4 1.794 4 4-1.795 4-4 4zM348.072 320.25c-6.617 0-12 5.383-12 12s5.383 12 12 12 12-5.383 12-12-5.384-12-12-12zm0 16c-2.206 0-4-1.794-4-4s1.794-4 4-4 4 1.794 4 4-1.795 4-4 4zM324.03 296.208c-6.617 0-12 5.383-12 12s5.383 12 12 12 12-5.383 12-12-5.383-12-12-12zm0 16c-2.206 0-4-1.794-4-4s1.794-4 4-4 4 1.794 4 4-1.794 4-4 4zM372.113 296.208c-6.617 0-12 5.383-12 12s5.383 12 12 12 12-5.383 12-12-5.383-12-12-12zm0 16c-2.206 0-4-1.794-4-4s1.794-4 4-4 4 1.794 4 4-1.794 4-4 4z"/></svg>