<svg xmlns="http://www.w3.org/2000/svg" viewBox="0 0 407.989 407.989" style="enable-background:new 0 0 407.989 407.989" xml:space="preserve"><path d="M275.931 183.844H60.264c-11.086 0-20.106 9.02-20.106 20.106v137.306c0 11.086 9.02 20.106 20.106 20.106h215.667c11.086 0 20.106-9.02 20.106-20.106V203.95c0-11.087-9.02-20.106-20.106-20.106zm4.106 157.412c0 2.226-1.88 4.106-4.106 4.106h-99.956v-41.456a8 8 0 0 0-16 0v41.456H60.264c-2.226 0-4.106-1.88-4.106-4.106v-61.129h197.53a8 8 0 0 0 0-16H56.158v-24.22h199.911a8 8 0 0 0 0-16H56.158V203.95c0-2.226 1.88-4.106 4.106-4.106h215.667c2.226 0 4.106 1.88 4.106 4.106v137.306z"/><path d="M406.629 212.209c.074-.11.138-.225.205-.338.066-.11.135-.218.196-.332.063-.118.117-.24.174-.361.055-.115.112-.229.161-.347.049-.119.089-.24.132-.361.045-.126.093-.25.132-.378.037-.122.064-.245.095-.368.033-.13.069-.258.095-.391.029-.144.046-.29.066-.435.016-.113.038-.224.049-.338.026-.264.04-.528.04-.793v-39.779c0-.265-.014-.529-.04-.793-.011-.114-.033-.225-.049-.338-.021-.145-.038-.291-.066-.435-.026-.132-.063-.261-.095-.391-.031-.123-.058-.246-.095-.368-.039-.129-.087-.252-.132-.378-.043-.121-.083-.242-.132-.361-.049-.118-.107-.232-.161-.347-.057-.121-.111-.243-.174-.361-.061-.114-.13-.222-.196-.332-.068-.113-.132-.228-.205-.338-.083-.124-.175-.241-.265-.361-.067-.089-.129-.181-.201-.268a7.996 7.996 0 0 0-1.119-1.119c-.084-.069-.172-.128-.258-.193-.123-.093-.243-.187-.371-.273-.107-.072-.219-.133-.328-.199-.114-.068-.225-.14-.343-.203-.113-.061-.23-.112-.346-.167-.121-.057-.24-.117-.364-.169-.112-.046-.226-.083-.339-.124-.133-.048-.264-.099-.4-.14-.113-.034-.227-.059-.341-.088-.139-.035-.276-.074-.418-.102-.13-.026-.261-.041-.392-.06-.127-.019-.253-.043-.382-.055a7.748 7.748 0 0 0-.698-.035c-.03 0-.059-.004-.089-.004s-.059.004-.089.004a8.134 8.134 0 0 0-.698.035c-.129.013-.255.036-.382.055-.131.019-.262.034-.392.06-.142.028-.279.067-.418.102-.114.029-.228.054-.341.088-.136.041-.267.092-.4.14-.113.041-.227.078-.339.124-.124.051-.243.112-.364.169-.116.055-.232.106-.346.167-.117.063-.229.134-.343.203-.11.066-.221.128-.328.199-.128.086-.249.18-.371.273-.086.065-.174.124-.258.193a8.116 8.116 0 0 0-.592.535l-58.378 58.378v-94.003c0-21.374-17.388-38.762-38.762-38.762h-1.161V71.745a8 8 0 0 0-8-8H143.912a8 8 0 0 0-8 8v16.201h-55.79v-8.201h34.037c7.718 0 13.997-6.139 13.997-13.684V13.684C128.156 6.139 121.877 0 114.159 0H30.086C22.368 0 16.09 6.139 16.09 13.684v52.377c0 7.545 6.279 13.684 13.996 13.684h34.037v8.242a8.147 8.147 0 0 0-.737-.042h-24.61c-21.374 0-38.762 17.388-38.762 38.762v273.282a8 8 0 0 0 8 8h319.923a8 8 0 0 0 8-8V283.121l69.691-69.691a8.1 8.1 0 0 0 .535-.591c.072-.087.133-.179.201-.268.09-.12.182-.237.265-.362zM32.09 16h80.066v47.745H32.09V16zm119.822 63.745h128.102v8.201H151.912v-8.201zM38.776 103.946h24.61c.249 0 .493-.019.737-.042v15.752a8 8 0 0 0 16 0v-15.71h217.053c12.551 0 22.762 10.211 22.762 22.762v9.199H16.014v-9.199c0-12.551 10.211-22.762 22.762-22.762zM16.014 391.989V151.906h303.923v240.083H16.014zm319.923-148.652 56.039-56.039v17.157l-56.039 56.039v-17.157z"/></svg>