<svg xmlns="http://www.w3.org/2000/svg" viewBox="0 0 416.25 416.25" style="enable-background:new 0 0 416.25 416.25" xml:space="preserve"><path d="M379.247 151.958H355.6c-3.554-13.6-15.943-23.667-30.641-23.667-14.698 0-27.088 10.067-30.641 23.667h-10.185c-3.554-13.6-15.943-23.667-30.641-23.667-14.698 0-27.087 10.067-30.641 23.667H68.125V8a8 8 0 0 0-16 0v143.958H37.002c-18.192 0-32.992 15.196-32.992 33.875v196.54c0 18.68 14.8 33.877 32.992 33.877h342.245c18.192 0 32.993-15.197 32.993-33.877v-196.54c0-18.679-14.801-33.875-32.993-33.875zm-54.289-7.667c5.714 0 10.709 3.085 13.445 7.667h-26.891c2.738-4.582 7.732-7.667 13.446-7.667zm-71.467 0c5.714 0 10.709 3.085 13.446 7.667h-26.891c2.737-4.582 7.731-7.667 13.445-7.667zM396.24 382.373c0 9.857-7.623 17.877-16.993 17.877H37.002c-9.369 0-16.992-8.02-16.992-17.877v-196.54c0-9.856 7.623-17.875 16.992-17.875h342.245c9.37 0 16.993 8.019 16.993 17.875v196.54z"/><path d="M243.19 264.031h-70.82a8 8 0 0 0 0 16h70.82a8 8 0 0 0 0-16zM243.19 320.156h-70.82a8 8 0 0 0 0 16h70.82a8 8 0 0 0 0-16zM356 292.01a8 8 0 0 0-8 8c0 6.53-5.313 11.844-11.844 11.844s-11.844-5.313-11.844-11.844 5.313-11.844 11.844-11.844a8 8 0 0 0 0-16c-15.353 0-27.844 12.49-27.844 27.844s12.491 27.844 27.844 27.844S364 315.363 364 300.01a8 8 0 0 0-8-8zM99.813 292.01a8 8 0 0 0-8 8c0 6.53-5.313 11.844-11.844 11.844s-11.844-5.313-11.844-11.844 5.313-11.844 11.844-11.844a8 8 0 0 0 0-16c-15.353 0-27.844 12.49-27.844 27.844s12.491 27.844 27.844 27.844 27.844-12.49 27.844-27.844a8 8 0 0 0-8-8z"/><path d="M208.125 224.015c-41.902 0-75.992 34.09-75.992 75.992 0 41.901 34.09 75.99 75.992 75.99s75.991-34.089 75.991-75.99c.001-41.903-34.089-75.992-75.991-75.992zm0 135.982c-33.08 0-59.992-26.911-59.992-59.99 0-33.08 26.913-59.992 59.992-59.992 33.079 0 59.991 26.912 59.991 59.992.001 33.079-26.911 59.99-59.991 59.99zM372.292 183.874H44.125a8 8 0 0 0 0 16h328.167a8 8 0 0 0 0-16z"/></svg>