<svg xmlns="http://www.w3.org/2000/svg" viewBox="0 0 407.834 407.834" style="enable-background:new 0 0 407.834 407.834" xml:space="preserve"><path d="M312.146 143.667c-.077 0-.152.009-.229.012-.077-.002-.152-.012-.229-.012h-15.923V91.849C295.765 41.203 254.56 0 203.911 0c-50.642 0-91.842 41.203-91.842 91.849v51.818H95.688a8 8 0 0 0-8 8v67.895c0 51.47 33.638 95.224 80.082 110.457a8.061 8.061 0 0 0-.082 1.084v36.689h-32a8 8 0 0 0-8 8v24.042a8 8 0 0 0 8 8H271.71a8 8 0 0 0 8-8v-24.042a8 8 0 0 0-8-8h-31.577v-36.689c0-.368-.034-.728-.082-1.083 46.451-15.231 80.094-58.987 80.094-110.458v-67.895a7.999 7.999 0 0 0-7.999-8zM128.069 91.849c0-41.823 34.022-75.849 75.842-75.849 41.826 0 75.854 34.025 75.854 75.849v51.818H128.069V91.849zm0 100.151h127.369a8 8 0 0 0 0-16H128.069v-16.333h151.696v60.343c0 41.818-34.028 75.84-75.854 75.84-41.819 0-75.842-34.021-75.842-75.84V192zM263.71 391.834H143.688v-8.042H263.71v8.042zm-39.577-24.042h-40.445v-33.778a116.518 116.518 0 0 0 20.223 1.765c6.896 0 13.653-.607 20.223-1.764v33.777zm-20.222-48.014c-55.263 0-100.223-44.957-100.223-100.217v-59.895h8.381v60.343c0 50.641 41.2 91.84 91.842 91.84 50.649 0 91.854-41.199 91.854-91.84v-60.343h8.381v59.895c0 55.26-44.965 100.217-100.235 100.217z"/></svg>