<?xml version="1.0" encoding="iso-8859-1"?>
<!-- Generator: Adobe Illustrator 17.1.0, SVG Export Plug-In . SVG Version: 6.00 Build 0)  -->
<!DOCTYPE svg PUBLIC "-//W3C//DTD SVG 1.1//EN" "http://www.w3.org/Graphics/SVG/1.1/DTD/svg11.dtd">
<svg version="1.1" id="Capa_1" xmlns="http://www.w3.org/2000/svg" xmlns:xlink="http://www.w3.org/1999/xlink" x="0px" y="0px"
	 viewBox="0 0 376.318 376.318" style="enable-background:new 0 0 376.318 376.318;" xml:space="preserve">
<g>
	<path d="M333,112.159H247.94c-0.859-13.377-12.008-24-25.599-24h-18.734l74.344-74.343c3.124-3.124,3.124-8.189,0-11.313
		c-3.124-3.124-8.188-3.125-11.314,0l-82.49,82.49l-82.49-82.49c-3.124-3.124-8.189-3.124-11.313,0
		c-3.125,3.124-3.125,8.189,0,11.313l74.344,74.343h-11.029c-13.59,0-24.74,10.623-25.599,24H43.317
		C19.432,112.159,0,131.591,0,155.476v177.365c0,23.885,19.432,43.317,43.317,43.317H333c23.886,0,43.318-19.432,43.318-43.317
		V155.476C376.318,131.591,356.885,112.159,333,112.159z M153.658,104.159h68.683c4.759,0,8.715,3.463,9.505,8h-87.694
		C144.943,107.622,148.899,104.159,153.658,104.159z M360.318,332.841c0,15.063-12.255,27.317-27.318,27.317H43.317
		C28.254,360.159,16,347.904,16,332.841V155.476c0-15.063,12.254-27.317,27.317-27.317H333c15.063,0,27.318,12.254,27.318,27.317
		V332.841z"/>
	<path d="M263.281,144.154H48.719c-9.219,0-16.719,7.5-16.719,16.719V327.44c0,9.219,7.5,16.719,16.719,16.719h214.562
		c9.219,0,16.719-7.5,16.719-16.719V160.873C280,151.654,272.5,144.154,263.281,144.154z M264,327.44
		c0,0.376-0.343,0.719-0.719,0.719h-11.967L141.657,218.502c-3.124-3.124-8.189-3.124-11.313,0s-3.125,8.189,0,11.313l98.342,98.343
		H48.719c-0.376,0-0.719-0.343-0.719-0.719V160.873c0-0.376,0.343-0.719,0.719-0.719h11.963l37.662,37.662
		c1.562,1.562,3.609,2.343,5.657,2.343s4.095-0.781,5.657-2.343c3.125-3.124,3.125-8.189,0-11.313l-26.348-26.348h179.972
		c0.376,0,0.719,0.343,0.719,0.719V327.44z"/>
	<path d="M319.934,232.159c-13.271,0-24.066,10.796-24.066,24.066s10.796,24.066,24.066,24.066c13.27,0,24.065-10.796,24.065-24.066
		S333.204,232.159,319.934,232.159z M319.934,264.291c-4.448,0-8.066-3.618-8.066-8.066s3.618-8.066,8.066-8.066
		c4.447,0,8.065,3.618,8.065,8.066S324.381,264.291,319.934,264.291z"/>
	<path d="M319.934,288.159c-13.271,0-24.066,10.796-24.066,24.066s10.796,24.066,24.066,24.066c13.27,0,24.065-10.796,24.065-24.066
		S333.204,288.159,319.934,288.159z M319.934,320.291c-4.448,0-8.066-3.618-8.066-8.066s3.618-8.066,8.066-8.066
		c4.447,0,8.065,3.618,8.065,8.066S324.381,320.291,319.934,320.291z"/>
	<path d="M336,144.159h-32c-4.418,0-8,3.582-8,8s3.582,8,8,8h32c4.418,0,8-3.582,8-8S340.417,144.159,336,144.159z"/>
	<path d="M336,168.159h-32c-4.418,0-8,3.582-8,8s3.582,8,8,8h32c4.418,0,8-3.582,8-8S340.417,168.159,336,168.159z"/>
	<path d="M336,192.159h-32c-4.418,0-8,3.582-8,8s3.582,8,8,8h32c4.418,0,8-3.582,8-8S340.417,192.159,336,192.159z"/>
</g>
<g>
</g>
<g>
</g>
<g>
</g>
<g>
</g>
<g>
</g>
<g>
</g>
<g>
</g>
<g>
</g>
<g>
</g>
<g>
</g>
<g>
</g>
<g>
</g>
<g>
</g>
<g>
</g>
<g>
</g>
</svg>
