<svg xmlns="http://www.w3.org/2000/svg" viewBox="0 0 376.318 376.318" style="enable-background:new 0 0 376.318 376.318" xml:space="preserve"><path d="M333 112.159h-85.06c-.859-13.377-12.008-24-25.599-24h-18.734l74.344-74.343a8 8 0 1 0-11.314-11.313l-82.49 82.49-82.49-82.49a8 8 0 0 0-11.313 0 7.998 7.998 0 0 0 0 11.313l74.344 74.343h-11.029c-13.59 0-24.74 10.623-25.599 24H43.317C19.432 112.159 0 131.591 0 155.476v177.365c0 23.885 19.432 43.317 43.317 43.317H333c23.886 0 43.318-19.432 43.318-43.317V155.476c0-23.885-19.433-43.317-43.318-43.317zm-179.342-8h68.683c4.759 0 8.715 3.463 9.505 8h-87.694c.791-4.537 4.747-8 9.506-8zm206.66 228.682c0 15.063-12.255 27.317-27.318 27.317H43.317C28.254 360.159 16 347.904 16 332.841V155.476c0-15.063 12.254-27.317 27.317-27.317H333c15.063 0 27.318 12.254 27.318 27.317v177.365z"/><path d="M263.281 144.154H48.719c-9.219 0-16.719 7.5-16.719 16.719V327.44c0 9.219 7.5 16.719 16.719 16.719h214.562c9.219 0 16.719-7.5 16.719-16.719V160.873c0-9.219-7.5-16.719-16.719-16.719zM264 327.44a.748.748 0 0 1-.719.719h-11.967L141.657 218.502a8 8 0 1 0-11.313 11.313l98.342 98.343H48.719a.748.748 0 0 1-.719-.719V160.873c0-.376.343-.719.719-.719h11.963l37.662 37.662c1.562 1.562 3.609 2.343 5.657 2.343s4.095-.781 5.657-2.343a7.998 7.998 0 0 0 0-11.313L83.31 160.155h179.972c.376 0 .719.343.719.719V327.44zM319.934 232.159c-13.271 0-24.066 10.796-24.066 24.066s10.796 24.066 24.066 24.066 24.065-10.796 24.065-24.066-10.795-24.066-24.065-24.066zm0 32.132c-4.448 0-8.066-3.618-8.066-8.066s3.618-8.066 8.066-8.066c4.447 0 8.065 3.618 8.065 8.066s-3.618 8.066-8.065 8.066zM319.934 288.159c-13.271 0-24.066 10.796-24.066 24.066s10.796 24.066 24.066 24.066 24.065-10.796 24.065-24.066-10.795-24.066-24.065-24.066zm0 32.132c-4.448 0-8.066-3.618-8.066-8.066s3.618-8.066 8.066-8.066c4.447 0 8.065 3.618 8.065 8.066s-3.618 8.066-8.065 8.066zM336 144.159h-32a8 8 0 0 0 0 16h32a8 8 0 0 0 0-16zM336 168.159h-32a8 8 0 0 0 0 16h32a8 8 0 0 0 0-16zM336 192.159h-32a8 8 0 0 0 0 16h32a8 8 0 0 0 0-16z"/></svg>