<svg xmlns="http://www.w3.org/2000/svg" viewBox="0 0 424.129 424.129" style="enable-background:new 0 0 424.129 424.129" xml:space="preserve"><path d="M421.171 62.636a8.015 8.015 0 0 0-6.688-1.617l-70.922 14.914-152.427-14.927c-20.281-20.211-48.24-32.724-79.067-32.724C50.273 28.281 0 78.554 0 140.348c0 44.553 26.136 83.115 63.879 101.166v106.834c0 15.002 10.38 27.62 24.333 31.065v8.435a8 8 0 0 0 16 0v-7.5h16c17.645 0 32-14.355 32-32V244.974c14.848-5.717 28.184-14.503 39.221-25.584l152.128-14.897 70.922 14.914a8.001 8.001 0 0 0 9.646-7.829V68.848a8.004 8.004 0 0 0-2.958-6.212zM136.213 348.348c0 8.822-7.178 16-16 16H95.879c-8.822 0-16-7.178-16-16V247.697a111.709 111.709 0 0 0 32.188 4.719c8.288 0 16.366-.912 24.146-2.628v98.56zm-24.146-111.933C59.095 236.415 16 193.32 16 140.348c0-52.971 43.095-96.066 96.067-96.066s96.067 43.096 96.067 96.066c0 52.972-43.095 96.067-96.067 96.067zm296.062-34.695-56.125-11.803v-57.569a8 8 0 0 0-16 0v56.808l-130.35 12.765c11.672-17.682 18.479-38.846 18.479-61.573 0-22.851-6.88-44.122-18.67-61.862L336.004 91.27v9.745a8 8 0 0 0 16 0V90.508l56.125-11.803V201.72z"/><path d="M176.504 132.348H47.629a8 8 0 0 0 0 16h128.875a8 8 0 0 0 0-16zM56.367 117.015h111.4a8 8 0 0 0 0-16h-111.4a8 8 0 0 0 0 16zM104.004 84.448h16.125a8 8 0 0 0 0-16h-16.125a8 8 0 0 0 0 16zM120.129 196.248h-16.125a8 8 0 0 0 0 16h16.125a8 8 0 0 0 0-16zM166.994 165.015H57.14a8 8 0 0 0 0 16h109.854a8 8 0 0 0 0-16z"/></svg>