<svg xmlns="http://www.w3.org/2000/svg" viewBox="0 0 424.125 424.125" style="enable-background:new 0 0 424.125 424.125" xml:space="preserve"><path d="M392.125 71.896H32c-17.645 0-32 14.355-32 32V344.23a8 8 0 0 0 8 8h408.125a8 8 0 0 0 8-8V103.896c0-17.645-14.355-32-32-32zm-72.062 216.333c-8.822 0-16-7.178-16-16V151.896c0-8.822 7.178-16 16-16v152.333zM16 103.896c0-8.822 7.178-16 16-16h288.063v32c-17.645 0-32 14.355-32 32V272.23c0 17.645 14.355 32 32 32v32H16V103.896zm392.125 232.333h-72.063V87.896h56.063c8.822 0 16 7.178 16 16v232.333z"/><path d="M240.729 119.896h-161c-17.645 0-32 14.355-32 32V272.23c0 17.645 14.355 32 32 32h161c17.645 0 32-14.355 32-32V151.896c0-17.645-14.355-32-32-32zm-177 152.333V151.896c0-8.822 7.178-16 16-16h5.181l36.991 36.991c1.562 1.562 3.609 2.343 5.657 2.343s4.095-.781 5.657-2.343a7.999 7.999 0 0 0 0-11.314l-25.677-25.677h133.191c8.822 0 16 7.178 16 16V272.23c0 3.611-1.217 6.935-3.242 9.615l-88.273-88.272a8.001 8.001 0 0 0-11.313 0 7.999 7.999 0 0 0 0 11.314l83.343 83.343H79.729c-8.822-.001-16-7.178-16-16.001zM352.063 168.229h39.875a8 8 0 0 0 8-8v-32a8 8 0 0 0-8-8h-39.875a8 8 0 0 0-8 8v32a8 8 0 0 0 8 8zm8-32h23.875v16h-23.875v-16zM352.063 199.896h8.208a8 8 0 0 0 0-16h-8.208a8 8 0 0 0 0 16zM352.063 231.896h8.208a8 8 0 0 0 0-16h-8.208a8 8 0 0 0 0 16zM392 183.896h-8.208a8 8 0 0 0 0 16H392a8 8 0 0 0 0-16zM392 215.896h-8.208a8 8 0 0 0 0 16H392a8 8 0 0 0 0-16zM392 260.171a8 8 0 0 0-8 8c0 6.617-5.383 12-12 12s-12-5.383-12-12 5.383-12 12-12a8 8 0 0 0 0-16c-15.439 0-28 12.561-28 28s12.561 28 28 28 28-12.561 28-28a8 8 0 0 0-8-8z"/></svg>