<?xml version="1.0" encoding="iso-8859-1"?>
<!-- Generator: Adobe Illustrator 17.1.0, SVG Export Plug-In . SVG Version: 6.00 Build 0)  -->
<!DOCTYPE svg PUBLIC "-//W3C//DTD SVG 1.1//EN" "http://www.w3.org/Graphics/SVG/1.1/DTD/svg11.dtd">
<svg version="1.1" id="Capa_1" xmlns="http://www.w3.org/2000/svg" xmlns:xlink="http://www.w3.org/1999/xlink" x="0px" y="0px"
	 viewBox="0 0 407.834 407.834" style="enable-background:new 0 0 407.834 407.834;" xml:space="preserve">
<path d="M312.146,143.667c-0.077,0-0.152,0.009-0.229,0.012c-0.077-0.002-0.152-0.012-0.229-0.012h-15.923V91.849
	C295.765,41.203,254.56,0,203.911,0c-50.642,0-91.842,41.203-91.842,91.849v51.818H95.688c-4.418,0-8,3.582-8,8v67.895
	c0,51.47,33.638,95.224,80.082,110.457c-0.048,0.355-0.082,0.715-0.082,1.084v36.689h-32c-4.418,0-8,3.582-8,8v24.042
	c0,4.418,3.582,8,8,8H271.71c4.418,0,8-3.582,8-8v-24.042c0-4.418-3.582-8-8-8h-31.577v-36.689c0-0.368-0.034-0.728-0.082-1.083
	c46.451-15.231,80.094-58.987,80.094-110.458v-67.895C320.146,147.249,316.564,143.667,312.146,143.667z M128.069,91.849
	c0-41.823,34.022-75.849,75.842-75.849c41.826,0,75.854,34.025,75.854,75.849v51.818H128.069V91.849z M128.069,192h127.369
	c4.418,0,8-3.582,8-8s-3.582-8-8-8H128.069v-16.333h151.696v60.343c0,41.818-34.028,75.84-75.854,75.84
	c-41.819,0-75.842-34.021-75.842-75.84V192z M263.71,391.834H143.688v-8.042h32h56.445h31.577V391.834z M224.133,367.792h-40.445
	v-33.778c6.57,1.157,13.326,1.765,20.223,1.765c6.896,0,13.653-0.607,20.223-1.764V367.792z M203.911,319.778
	c-55.263,0-100.223-44.957-100.223-100.217v-59.895h8.381v60.343c0,50.641,41.2,91.84,91.842,91.84
	c50.649,0,91.854-41.199,91.854-91.84v-60.343h8.381v59.895C304.146,274.821,259.181,319.778,203.911,319.778z"/>
<g>
</g>
<g>
</g>
<g>
</g>
<g>
</g>
<g>
</g>
<g>
</g>
<g>
</g>
<g>
</g>
<g>
</g>
<g>
</g>
<g>
</g>
<g>
</g>
<g>
</g>
<g>
</g>
<g>
</g>
</svg>
