<?xml version="1.0" encoding="iso-8859-1"?>
<!-- Generator: Adobe Illustrator 17.1.0, SVG Export Plug-In . SVG Version: 6.00 Build 0)  -->
<!DOCTYPE svg PUBLIC "-//W3C//DTD SVG 1.1//EN" "http://www.w3.org/Graphics/SVG/1.1/DTD/svg11.dtd">
<svg version="1.1" id="Capa_1" xmlns="http://www.w3.org/2000/svg" xmlns:xlink="http://www.w3.org/1999/xlink" x="0px" y="0px"
	 viewBox="0 0 448.069 448.069" style="enable-background:new 0 0 448.069 448.069;" xml:space="preserve">
<g>
	<path d="M440.069,320.076h-15.976v-207.33c0-18.014-14.656-32.67-32.67-32.67H56.71c-18.021,0-32.683,14.656-32.683,32.67v207.33H8
		c-4.418,0-8,3.582-8,8v4.167c0,19.712,16.038,35.749,35.752,35.749h376.564c19.714,0,35.753-16.037,35.753-35.749v-4.167
		C448.069,323.658,444.488,320.076,440.069,320.076z M40.027,112.746c0-9.192,7.484-16.67,16.683-16.67h59.818l37.907,37.907
		c1.562,1.562,3.609,2.343,5.657,2.343s4.095-0.781,5.657-2.343c3.125-3.124,3.125-8.189,0-11.313l-26.594-26.594h252.268
		c9.192,0,16.67,7.478,16.67,16.67v207.33h-44.938L197.749,154.669c-3.124-3.124-8.189-3.124-11.313,0
		c-3.125,3.124-3.125,8.189,0,11.314l154.093,154.093H40.027V112.746z M412.316,351.993H35.752c-9.581,0-17.589-6.855-19.378-15.917
		h415.322C429.907,345.138,421.897,351.993,412.316,351.993z"/>
	<path d="M223.884,119.825c2.1,0,4.16-0.85,5.65-2.34c1.49-1.49,2.35-3.55,2.35-5.66c0-2.1-0.86-4.17-2.35-5.65
		c-1.49-1.49-3.55-2.35-5.65-2.35c-2.11,0-4.17,0.86-5.66,2.35c-1.49,1.48-2.34,3.55-2.34,5.65c0,2.11,0.85,4.17,2.34,5.66
		C219.714,118.975,221.774,119.825,223.884,119.825z"/>
</g>
<g>
</g>
<g>
</g>
<g>
</g>
<g>
</g>
<g>
</g>
<g>
</g>
<g>
</g>
<g>
</g>
<g>
</g>
<g>
</g>
<g>
</g>
<g>
</g>
<g>
</g>
<g>
</g>
<g>
</g>
</svg>
