<svg xmlns="http://www.w3.org/2000/svg" viewBox="0 0 448.069 448.069" style="enable-background:new 0 0 448.069 448.069" xml:space="preserve"><path d="M440.069 320.076h-15.976v-207.33c0-18.014-14.656-32.67-32.67-32.67H56.71c-18.021 0-32.683 14.656-32.683 32.67v207.33H8a8 8 0 0 0-8 8v4.167c0 19.712 16.038 35.749 35.752 35.749h376.564c19.714 0 35.753-16.037 35.753-35.749v-4.167a8 8 0 0 0-8-8zM40.027 112.746c0-9.192 7.484-16.67 16.683-16.67h59.818l37.907 37.907c1.562 1.562 3.609 2.343 5.657 2.343s4.095-.781 5.657-2.343a7.998 7.998 0 0 0 0-11.313l-26.594-26.594h252.268c9.192 0 16.67 7.478 16.67 16.67v207.33h-44.938L197.749 154.669a8 8 0 0 0-11.313 0 7.999 7.999 0 0 0 0 11.314l154.093 154.093H40.027v-207.33zm372.289 239.247H35.752c-9.581 0-17.589-6.855-19.378-15.917h415.322c-1.789 9.062-9.799 15.917-19.38 15.917z"/><path d="M223.884 119.825c2.1 0 4.16-.85 5.65-2.34a8.06 8.06 0 0 0 2.35-5.66c0-2.1-.86-4.17-2.35-5.65a8.054 8.054 0 0 0-5.65-2.35c-2.11 0-4.17.86-5.66 2.35a8.027 8.027 0 0 0-2.34 5.65c0 2.11.85 4.17 2.34 5.66a8.05 8.05 0 0 0 5.66 2.34z"/></svg>