<svg xmlns="http://www.w3.org/2000/svg" viewBox="0 0 432.333 432.333" style="enable-background:new 0 0 432.333 432.333" xml:space="preserve"><path d="M355.833 224.917h-39.5V40c0-22.056-17.944-40-40-40H156c-22.056 0-40 17.944-40 40v184.917H76.5c-17.645 0-32 14.355-32 32v143.417c0 17.645 14.355 32 32 32h279.334c17.645 0 32-14.355 32-32V256.917c-.001-17.646-14.356-32-32.001-32zM132 40c0-13.233 10.766-24 24-24h120.334c13.233 0 24 10.767 24 24v272.167H132V40zm223.833 376.333H76.5c-8.822 0-16-7.178-16-16v-11.971a31.793 31.793 0 0 0 16 4.305h247.834a8 8 0 0 0 0-16H76.5c-8.822 0-16-7.178-16-16v-103.75c0-8.822 7.178-16 16-16H116v79.25a8 8 0 0 0 8 8h184.334a8 8 0 0 0 8-8v-79.25h39.5c8.822 0 16 7.178 16 16v103.75c0 8.822-7.178 16-16 16a8 8 0 0 0 0 16 31.796 31.796 0 0 0 16-4.305v11.972c-.001 8.821-7.178 15.999-16.001 15.999z"/><path d="M156.5 144.458h119.334a8 8 0 0 0 8-8V80.333a8 8 0 0 0-8-8H156.5a8 8 0 0 0-8 8v56.125a8 8 0 0 0 8 8zm8-56.125h103.334v40.125H164.5V88.333zM164.5 200.868h8.011c8.822 0 16-7.178 16-16v-8.035c0-8.822-7.178-16-16-16H164.5c-8.822 0-16 7.178-16 16v8.035c0 8.822 7.177 16 16 16zm0-24.035h8.011l.001 8.035H164.5v-8.035zM220.171 160.833h-8.01c-8.822 0-16 7.178-16 16v8.035c0 8.822 7.178 16 16 16h8.01c8.822 0 16-7.178 16-16v-8.035c0-8.822-7.177-16-16-16zm-8.01 24.035v-8.035h8.01l.002 8.035h-8.012zM267.833 160.833h-8.011c-8.822 0-16 7.178-16 16v8.035c0 8.822 7.178 16 16 16h8.011c8.822 0 16-7.178 16-16v-8.035c0-8.822-7.177-16-16-16zm-8.01 24.035v-8.035h8.011l.002 8.035h-8.013zM164.5 248.868h8.011c8.822 0 16-7.178 16-16v-8.035c0-8.822-7.178-16-16-16H164.5c-8.822 0-16 7.178-16 16v8.035c0 8.822 7.177 16 16 16zm0-24.035h8.011l.001 8.035H164.5v-8.035zM220.171 208.833h-8.01c-8.822 0-16 7.178-16 16v8.035c0 8.822 7.178 16 16 16h8.01c8.822 0 16-7.178 16-16v-8.035c0-8.822-7.177-16-16-16zm-8.01 24.035v-8.035h8.01l.002 8.035h-8.012zM267.833 208.833h-8.011c-8.822 0-16 7.178-16 16v8.035c0 8.822 7.178 16 16 16h8.011c8.822 0 16-7.178 16-16v-8.035c0-8.822-7.177-16-16-16zm-8.01 24.035v-8.035h8.011l.002 8.035h-8.013zM164.5 296.535h8.011c8.822 0 16-7.178 16-16V272.5c0-8.822-7.178-16-16-16H164.5c-8.822 0-16 7.178-16 16v8.035c0 8.822 7.177 16 16 16zm0-24.035h8.011l.001 8.035H164.5V272.5zM220.171 256.5h-8.01c-8.822 0-16 7.178-16 16v8.035c0 8.822 7.178 16 16 16h8.01c8.822 0 16-7.178 16-16V272.5c0-8.822-7.177-16-16-16zm-8.01 24.035V272.5h8.01l.002 8.035h-8.012zM267.833 256.5h-8.011c-8.822 0-16 7.178-16 16v8.035c0 8.822 7.178 16 16 16h8.011c8.822 0 16-7.178 16-16V272.5c0-8.822-7.177-16-16-16zm-8.01 24.035V272.5h8.011l.002 8.035h-8.013zM195.833 56.667H236.5a8 8 0 0 0 0-16h-40.667a8 8 0 0 0 0 16z"/></svg>