<svg xmlns="http://www.w3.org/2000/svg" viewBox="0 0 464.139 464.139" style="enable-background:new 0 0 464.139 464.139" xml:space="preserve"><path d="M112.317 215.966h-7.897v-8.021c0-8.822-7.178-16-16-16h-7.769c-8.822 0-16 7.178-16 16v8.021h-8.179c-8.822 0-16 7.178-16 16v7.77c0 8.822 7.178 16 16 16h8.179v8.334c0 8.822 7.178 16 16 16h7.769c8.822 0 16-7.178 16-16v-8.334h7.897c8.822 0 16-7.178 16-16v-7.77c0-8.822-7.177-16-16-16zm0 23.769H96.42a8 8 0 0 0-8 8l.002 16.334h-7.771v-16.334a8 8 0 0 0-8-8H56.473v-7.77h16.179a8 8 0 0 0 8-8v-16.021h7.769v16.021a8 8 0 0 0 8 8h15.897v7.77zM320.197 152.007H143.853a8 8 0 0 0-8 8v144.125a8 8 0 0 0 8 8h176.345a8 8 0 0 0 8-8V160.007a8.001 8.001 0 0 0-8.001-8zm-168.344 16h13.33l36.657 36.657c1.563 1.562 3.609 2.343 5.657 2.343s4.095-.781 5.657-2.343a8 8 0 0 0 0-11.313l-25.343-25.343h124.387v124.387l-67.044-67.044a8 8 0 0 0-11.314 11.313l59.468 59.468H151.853V168.007zM376.064 232.119a7.992 7.992 0 0 0-2.514-5.824l-8.473-7.985a7.997 7.997 0 0 0-5.486-2.178h-15.37a8 8 0 0 0-8 8v15.96a8 8 0 0 0 8 8h15.37a8 8 0 0 0 5.483-2.175l8.473-7.975a8 8 0 0 0 2.517-5.823zM423.717 216.132h-15.37c-2.04 0-4.002.779-5.486 2.178l-8.473 7.985a7.996 7.996 0 0 0 .003 11.647l8.473 7.975a8 8 0 0 0 5.483 2.175h15.37a8 8 0 0 0 8-8v-15.96a8 8 0 0 0-8-8zM389.8 242.534a8 8 0 0 0-5.822-2.517h-.003a7.999 7.999 0 0 0-5.822 2.513l-7.985 8.473a8.004 8.004 0 0 0-2.178 5.487v15.371a8 8 0 0 0 8 8h15.96a8 8 0 0 0 8-8V256.49a7.995 7.995 0 0 0-2.175-5.483l-7.975-8.473zM378.152 221.694a8 8 0 0 0 5.822 2.513h.003a8 8 0 0 0 5.822-2.517l7.975-8.473a8 8 0 0 0 2.175-5.483v-15.371a8 8 0 0 0-8-8h-15.96a8 8 0 0 0-8 8v15.371a8 8 0 0 0 2.178 5.487l7.985 8.473z"/><path d="M352.201 120.132H111.938C50.215 120.132 0 170.347 0 232.069s50.215 111.938 111.938 111.938h240.264c61.723 0 111.938-50.215 111.938-111.938s-50.216-111.937-111.939-111.937zm0 207.875H111.938c-52.9 0-95.938-43.037-95.938-95.938 0-52.9 43.037-95.938 95.938-95.938h240.264c52.9 0 95.938 43.038 95.938 95.938-.001 52.901-43.038 95.938-95.939 95.938z"/></svg>