<svg xmlns="http://www.w3.org/2000/svg" viewBox="0 0 447.971 447.971" style="enable-background:new 0 0 447.971 447.971" xml:space="preserve"><path d="M363.904 352.892V72.304a8 8 0 0 0-8-8H91.985a8 8 0 0 0-8 8v295.562a8 8 0 0 0 8 8h263.919a8 8 0 0 0 8-8v-14.974zm-263.919 6.975V108.292l25.343 25.343c1.563 1.562 3.609 2.343 5.657 2.343s4.095-.781 5.657-2.343a8 8 0 0 0 0-11.313L99.985 85.664v-5.359h247.919v253.279L168.643 154.321a8 8 0 0 0-11.314 11.314l190.576 190.577v3.656H99.985z"/><path d="M387.985 28.688C387.985 12.869 375.11 0 359.284 0H88.564C72.746 0 59.877 12.869 59.877 28.69l.108 390.586c0 15.822 12.875 28.694 28.7 28.694h270.721c15.818 0 28.688-12.872 28.688-28.697l-.109-390.585zm-28.579 403.283H88.686c-7.003 0-12.7-5.694-12.7-12.697l-.109-390.586C75.877 21.691 81.568 16 88.564 16h270.72c7.004 0 12.701 5.691 12.701 12.69l.108 390.586c.001 7-5.691 12.695-12.687 12.695z"/><path d="M203.967 48.138h39.956a8 8 0 0 0 0-16h-39.956a8 8 0 0 0 0 16zM179.855 48.135c2.109 0 4.17-.85 5.66-2.34a8.055 8.055 0 0 0 2.34-5.66c0-2.1-.851-4.17-2.34-5.65a8.062 8.062 0 0 0-5.66-2.35c-2.101 0-4.16.86-5.65 2.35a8.037 8.037 0 0 0-2.35 5.65c0 2.11.859 4.17 2.35 5.66a8.045 8.045 0 0 0 5.65 2.34zM223.95 384.509c-10.95 0-19.858 8.905-19.858 19.85 0 10.948 8.908 19.855 19.858 19.855 10.943 0 19.847-8.907 19.847-19.855 0-10.945-8.903-19.85-19.847-19.85zm0 23.706a3.86 3.86 0 0 1-3.858-3.855c0-2.123 1.73-3.85 3.858-3.85a3.853 3.853 0 0 1 0 7.705z"/></svg>