<?xml version="1.0" encoding="iso-8859-1"?>
<!-- Generator: Adobe Illustrator 17.1.0, SVG Export Plug-In . SVG Version: 6.00 Build 0)  -->
<!DOCTYPE svg PUBLIC "-//W3C//DTD SVG 1.1//EN" "http://www.w3.org/Graphics/SVG/1.1/DTD/svg11.dtd">
<svg version="1.1" id="Capa_1" xmlns="http://www.w3.org/2000/svg" xmlns:xlink="http://www.w3.org/1999/xlink" x="0px" y="0px"
	 viewBox="0 0 464.139 464.139" style="enable-background:new 0 0 464.139 464.139;" xml:space="preserve">
<g>
	<path d="M112.317,215.966h-7.897v-8.021c0-8.822-7.178-16-16-16h-7.769c-8.822,0-16,7.178-16,16v8.021h-8.179
		c-8.822,0-16,7.178-16,16v7.77c0,8.822,7.178,16,16,16h8.179v8.334c0,8.822,7.178,16,16,16h7.769c8.822,0,16-7.178,16-16v-8.334
		h7.897c8.822,0,16-7.178,16-16v-7.77C128.317,223.144,121.14,215.966,112.317,215.966z M112.317,239.735H96.42
		c-4.418,0-8,3.582-8,8l0.002,16.334h-7.771v-16.334c0-4.418-3.582-8-8-8H56.473v-7.77h16.179c4.418,0,8-3.582,8-8v-16.021h7.769
		v16.021c0,4.418,3.582,8,8,8h15.897V239.735z"/>
	<path d="M320.197,152.007H143.853c-4.418,0-8,3.582-8,8v144.125c0,4.418,3.582,8,8,8h176.345c4.418,0,8-3.582,8-8V160.007
		C328.197,155.588,324.615,152.007,320.197,152.007z M151.853,168.007h13.33l36.657,36.657c1.563,1.562,3.609,2.343,5.657,2.343
		s4.095-0.781,5.657-2.343c3.124-3.124,3.124-8.189,0-11.313l-25.343-25.343h124.387v124.387l-67.044-67.044
		c-3.125-3.124-8.189-3.124-11.314,0c-3.124,3.124-3.124,8.189,0,11.313l59.468,59.468H151.853V168.007z"/>
	<path d="M376.064,232.119c0.001-2.205-0.908-4.312-2.514-5.824l-8.473-7.985c-1.484-1.399-3.446-2.178-5.486-2.178h-15.37
		c-4.418,0-8,3.582-8,8v15.96c0,4.418,3.582,8,8,8h15.37c2.038,0,3.999-0.778,5.483-2.175l8.473-7.975
		C375.153,236.431,376.063,234.324,376.064,232.119z"/>
	<path d="M423.717,216.132h-15.37c-2.04,0-4.002,0.779-5.486,2.178l-8.473,7.985c-1.605,1.512-2.515,3.619-2.514,5.824
		s0.911,4.312,2.517,5.823l8.473,7.975c1.484,1.397,3.445,2.175,5.483,2.175h15.37c4.418,0,8-3.582,8-8v-15.96
		C431.717,219.713,428.135,216.132,423.717,216.132z"/>
	<path d="M389.8,242.534c-1.511-1.605-3.617-2.516-5.822-2.517c-0.001,0-0.002,0-0.003,0c-2.204,0-4.311,0.909-5.822,2.513
		l-7.985,8.473c-1.398,1.484-2.178,3.447-2.178,5.487v15.371c0,4.418,3.582,8,8,8h15.96c4.418,0,8-3.582,8-8v-15.371
		c0-2.038-0.777-3.999-2.175-5.483L389.8,242.534z"/>
	<path d="M378.152,221.694c1.512,1.604,3.618,2.513,5.822,2.513c0.001,0,0.002,0,0.003,0c2.205-0.001,4.312-0.912,5.822-2.517
		l7.975-8.473c1.397-1.484,2.175-3.445,2.175-5.483v-15.371c0-4.418-3.582-8-8-8h-15.96c-4.418,0-8,3.582-8,8v15.371
		c0,2.04,0.779,4.002,2.178,5.487L378.152,221.694z"/>
	<path d="M352.201,120.132H111.938C50.215,120.132,0,170.347,0,232.069s50.215,111.938,111.938,111.938h240.264
		c61.723,0,111.938-50.215,111.938-111.938S413.924,120.132,352.201,120.132z M352.201,328.007H111.938
		c-52.9,0-95.938-43.037-95.938-95.938c0-52.9,43.037-95.938,95.938-95.938h240.264c52.9,0,95.938,43.038,95.938,95.938
		C448.139,284.97,405.102,328.007,352.201,328.007z"/>
</g>
<g>
</g>
<g>
</g>
<g>
</g>
<g>
</g>
<g>
</g>
<g>
</g>
<g>
</g>
<g>
</g>
<g>
</g>
<g>
</g>
<g>
</g>
<g>
</g>
<g>
</g>
<g>
</g>
<g>
</g>
</svg>
