<svg xmlns="http://www.w3.org/2000/svg" viewBox="0 0 407.958 407.958" style="enable-background:new 0 0 407.958 407.958" xml:space="preserve"><path d="M84.979 307.916H33.153C14.873 307.916 0 293.04 0 274.756l.197-125.688c0-18.274 14.878-33.151 33.166-33.151h27.116a8 8 0 0 1 0 16H33.363c-9.465 0-17.166 7.7-17.166 17.164L16 274.768c0 9.45 7.695 17.148 17.153 17.148h51.826a8 8 0 0 1 0 16zM374.607 307.916h-53.961a8 8 0 0 1 0-16h53.961c9.458 0 17.153-7.698 17.153-17.161l.197-125.688c0-9.452-7.695-17.151-17.153-17.151h-29.43a8 8 0 0 1 0-16h29.43c18.281 0 33.153 14.877 33.153 33.164l-.197 125.688c0 18.272-14.872 33.148-33.153 33.148z"/><path d="M359.906 172H47.854a8 8 0 0 1 0-16h312.052a8 8 0 0 1 0 16z"/><path d="M64.042 170.146a8 8 0 0 1-8-8V83.96a8 8 0 0 1 8-8h23.101a8 8 0 0 1 0 16H72.042v70.187a8 8 0 0 1-8 7.999zM343.854 170.242a8 8 0 0 1-8-8V92.056h-14.582a8 8 0 0 1 0-16h22.582a8 8 0 0 1 8 8v78.187a8 8 0 0 1-8 7.999z"/><path d="M87.979 170.763a8 8 0 0 1-8-8V44.041a8 8 0 0 1 8-8h231.906a8 8 0 0 1 8 8v111.893a8 8 0 0 1-16 0V52.041H95.979v110.722a8 8 0 0 1-8 8zM319.979 371.916H88.062a8 8 0 0 1-8-8V227.791a8 8 0 0 1 8-8h231.917a8 8 0 0 1 8 8v136.125a8 8 0 0 1-8 8zm-223.917-16h215.917V235.791H96.062v120.125zM47.849 204.169c-2.1 0-4.16-.86-5.65-2.35a8.037 8.037 0 0 1-2.35-5.65c0-2.11.86-4.17 2.35-5.66a8.045 8.045 0 0 1 5.65-2.34c2.11 0 4.17.85 5.66 2.34a8.05 8.05 0 0 1 2.34 5.66c0 2.1-.85 4.17-2.34 5.65a8.06 8.06 0 0 1-5.66 2.35zM343.949 203.919a8.06 8.06 0 0 1-5.66-2.35 8.027 8.027 0 0 1-2.34-5.65c0-2.11.85-4.17 2.34-5.66a8.05 8.05 0 0 1 5.66-2.34c2.11 0 4.17.85 5.65 2.34a8.06 8.06 0 0 1 2.35 5.66c0 2.1-.86 4.17-2.35 5.65a8.037 8.037 0 0 1-5.65 2.35z"/><path d="M279.976 299.841H127.907a8 8 0 0 1 0-16h152.069a8 8 0 0 1 0 16zM279.976 331.791h-15.997a8 8 0 0 1 0-16h15.997a8 8 0 0 1 0 16zM231.812 331.791H127.907a8 8 0 0 1 0-16h103.905a8 8 0 0 1 0 16zM191.979 267.891h-64.072a8 8 0 0 1 0-16h64.072a8 8 0 0 1 0 16zM279.976 267.891h-55.831a8 8 0 0 1 0-16h55.831a8 8 0 0 1 0 16zM319.979 204.166h-32a8 8 0 0 1 0-16h32a8 8 0 0 1 0 16z"/></svg>