<svg xmlns="http://www.w3.org/2000/svg" viewBox="0 0 407.623 407.623" style="enable-background:new 0 0 407.623 407.623" xml:space="preserve"><path d="M407.623 153.268c0-23.47-12.109-44.925-31.904-57.087V50.436c0-15.975-12.108-28.021-28.165-28.021-3.29 0-6.611.518-9.9 1.549L182.614 73.22H85.813c-21.28 0-40.081 10.815-51.2 27.239h-4.059C13.707 100.458 0 114.165 0 131.013v44.171c0 16.848 13.707 30.554 30.555 30.554h3.934c11.102 16.526 29.963 27.424 51.325 27.424h25.829v123.342c0 15.827 12.882 28.704 28.717 28.704h22.573c15.835 0 28.717-12.876 28.717-28.704v-120.48L337.677 282.3c3.264 1.026 6.589 1.546 9.885 1.546h.001c7.548 0 14.561-2.725 19.747-7.672 5.423-5.174 8.409-12.402 8.409-20.354v-45.496a66.847 66.847 0 0 0 31.904-57.056zM16 175.184v-44.171c0-6.694 4.548-12.331 10.712-14.023a61.599 61.599 0 0 0-2.691 18.035v36.346c0 6.194.927 12.175 2.631 17.821C20.519 187.48 16 181.856 16 175.184zm24.021-3.813v-36.346c0-25.257 20.542-45.805 45.792-45.805h90.041v127.942H85.813c-25.25.001-45.792-20.541-45.792-45.791zm122.912 197.837H140.36c-7.012 0-12.717-5.699-12.717-12.704V233.163h48.007v123.342c-.001 7.005-5.706 12.703-12.717 12.703zm196.786-113.387c0 3.586-1.194 6.621-3.454 8.777-2.196 2.095-5.286 3.249-8.702 3.249h-.001a16.93 16.93 0 0 1-5.069-.804l-150.638-47.738v-100.06l107.088-33.998a8 8 0 1 0-4.842-15.25l-102.246 32.461V87.073l150.613-47.851c1.709-.536 3.421-.807 5.086-.807 6.056 0 12.165 3.717 12.165 12.021v205.385zm16-65.55v-74.033c10.031 9.491 15.904 22.772 15.904 37.03a50.872 50.872 0 0 1-15.904 37.003z"/><path d="M143.771 145.298H71.938a8 8 0 0 0 0 16h71.834a8 8 0 1 0-.001-16zM71.938 129.333h71.834a8 8 0 0 0 0-16H71.938a8 8 0 0 0 0 16zM143.771 177.25H71.938a8 8 0 0 0 0 16h71.834a8 8 0 1 0-.001-16zM333.545 57.146l-15.44 5.026a8 8 0 0 0 4.953 15.213l15.44-5.026a8 8 0 0 0-4.953-15.213z"/></svg>