<svg xmlns="http://www.w3.org/2000/svg" viewBox="0 0 391.768 391.768" style="enable-background:new 0 0 391.768 391.768" xml:space="preserve"><path d="M195.883 200.02c-44.018 0-79.829 35.811-79.829 79.829s35.811 79.829 79.829 79.829c44.019 0 79.83-35.811 79.83-79.829s-35.811-79.829-79.83-79.829zm0 143.658c-35.195 0-63.829-28.634-63.829-63.829s28.634-63.829 63.829-63.829c35.196 0 63.83 28.634 63.83 63.829s-28.634 63.829-63.83 63.829z"/><path d="m331.167 168.101-9.394-21.767a9.464 9.464 0 0 0-.148-.324c-4.944-10.183-17.377-18.159-28.306-18.159h-25.25v-16h43.095c11.389 0 20.655-9.428 20.655-21.018V21.018C331.819 9.428 322.554 0 311.165 0H176.6c-11.389 0-20.655 9.428-20.655 21.018v69.815c0 11.589 9.266 21.018 20.655 21.018h43.47v16h-24.186c-10.929 0-23.362 7.977-28.305 18.16a6.727 6.727 0 0 0-.148.324l-9.331 21.621h-26.35v-1.797c0-11.957-9.733-21.685-21.696-21.685H97.551c-11.957 0-21.685 9.728-21.685 21.685v1.797H63.471c-15.212 0-27.589 12.376-27.589 27.589v168.634c0 15.212 12.376 27.589 27.589 27.589h264.825c15.213 0 27.59-12.376 27.59-27.589V195.107c0-14.018-10.85-25.588-24.719-27.006zM171.944 90.833V21.018c0-2.72 2.132-5.018 4.655-5.018h134.565c2.523 0 4.655 2.298 4.655 5.018v69.815c0 2.72-2.132 5.018-4.655 5.018H176.6c-2.524 0-4.656-2.298-4.656-5.018zm64.125 21.018h16v16h-16v-16zm-54.029 41.01c2.345-4.65 9.022-9.01 13.844-9.01h97.436c4.821 0 11.499 4.36 13.845 9.011l6.514 15.094H175.526l6.514-15.095zm-90.174 13.297c0-3.082 2.604-5.685 5.685-5.685h12.502c3.087 0 5.696 2.604 5.696 5.685v1.797H91.866v-1.797zm248.02 198.021c0 6.39-5.199 11.589-11.59 11.589h-12.477v-168a8 8 0 0 0-16 0v168H63.471c-6.39 0-11.589-5.199-11.589-11.589V195.544c0-6.391 5.199-11.589 11.589-11.589h264.825c6.499 0 11.59 4.899 11.59 11.152v169.072z"/><path d="M83.866 191.778c-13.228 0-23.989 10.762-23.989 23.989s10.762 23.989 23.989 23.989 23.989-10.761 23.989-23.989-10.761-23.989-23.989-23.989zm0 31.978c-4.405 0-7.989-3.584-7.989-7.989 0-4.405 3.584-7.989 7.989-7.989s7.989 3.584 7.989 7.989c0 4.405-3.584 7.989-7.989 7.989zM187.819 63.861h111.586a8 8 0 0 0 0-16H187.819a8 8 0 0 0 0 16zM187.819 39.893h111.586a8 8 0 0 0 0-16H187.819a8 8 0 0 0 0 16zM307.405 79.83a8 8 0 0 0-8-8H187.819a8 8 0 0 0 0 16h111.586a8 8 0 0 0 8-8zM228.639 255.68a8.001 8.001 0 0 0-3.854 10.637c1.988 4.246 2.996 8.799 2.996 13.533 0 17.626-14.34 31.966-31.967 31.966-17.626 0-31.966-14.34-31.966-31.966 0-17.627 14.34-31.967 31.966-31.967 4.649 0 9.128.973 13.312 2.893a8 8 0 0 0 6.671-14.543c-6.292-2.886-13.016-4.35-19.984-4.35-26.449 0-47.966 21.518-47.966 47.967 0 26.449 21.518 47.966 47.966 47.966 26.449 0 47.967-21.518 47.967-47.966 0-7.096-1.516-13.931-4.504-20.316a7.998 7.998 0 0 0-10.637-3.854z"/></svg>