<svg xmlns="http://www.w3.org/2000/svg" viewBox="0 0 376.002 376.002" style="enable-background:new 0 0 376.002 376.002" xml:space="preserve"><path d="M338.895 55.917H192V53.79c0-11.957-9.733-21.685-21.696-21.685h-12.502c-11.957 0-21.685 9.728-21.685 21.685v2.127h-16.162V53.79c0-11.957-9.733-21.685-21.696-21.685H69.876c-11.957 0-21.685 9.728-21.685 21.685v2.127H37.107C16.646 55.917 0 72.568 0 93.043L.151 258.81c0 20.461 16.651 37.107 37.119 37.107h50.886c21.89 29.115 56.713 47.98 95.862 47.98 39.137 0 73.951-18.865 95.835-47.98h59.043c20.461 0 37.107-16.646 37.107-37.107V93.036c-.001-20.468-16.647-37.119-37.108-37.119zM152.117 53.79c0-3.082 2.604-5.685 5.685-5.685h12.502c3.088 0 5.696 2.604 5.696 5.685v2.127h-23.883V53.79zm-87.926 0c0-3.082 2.604-5.685 5.685-5.685h28.383c3.087 0 5.696 2.604 5.696 5.685v2.127H64.191V53.79zm119.826 274.107c-57.275 0-103.873-46.597-103.873-103.873 0-57.263 46.597-103.851 103.873-103.851 57.257 0 103.839 46.587 103.839 103.851 0 57.276-46.582 103.873-103.839 103.873zm175.985-69.087c0 11.639-9.469 21.107-21.107 21.107h-48.89c8.837-16.699 13.852-35.719 13.852-55.892 0-66.086-53.76-119.851-119.839-119.851-66.098 0-119.873 53.765-119.873 119.851 0 20.173 5.016 39.193 13.856 55.892H48.169v-176a8 8 0 0 0-16 0v175.351c-9.184-2.29-16.018-10.582-16.018-20.466L16 93.036c0-11.645 9.469-21.119 21.107-21.119h301.788c11.638 0 21.107 9.474 21.107 21.119V258.81z"/><path d="M312.009 87.918c-17.646 0-32.001 14.361-32.001 32.013 0 17.639 14.355 31.99 32.001 31.99 17.646 0 32.002-14.351 32.002-31.99 0-17.652-14.356-32.013-32.002-32.013zm0 48.003c-8.823 0-16.001-7.173-16.001-15.99 0-8.83 7.178-16.013 16.001-16.013 8.824 0 16.002 7.184 16.002 16.013 0 8.817-7.178 15.99-16.002 15.99zM208.118 216.025a8 8 0 0 0-8 8c0 8.884-7.228 16.112-16.112 16.112-8.879 0-16.102-7.228-16.102-16.112 0-8.879 7.223-16.103 16.102-16.103a8 8 0 0 0 0-16c-17.701 0-32.102 14.401-32.102 32.103 0 17.707 14.401 32.112 32.102 32.112 17.707 0 32.112-14.405 32.112-32.112a8 8 0 0 0-8-8z"/><path d="M184.016 135.82c-48.648 0-88.226 39.569-88.226 88.206 0 48.648 39.578 88.226 88.226 88.226 48.631 0 88.195-39.578 88.195-88.226-.001-48.637-39.565-88.206-88.195-88.206zm0 160.431c-39.826 0-72.226-32.4-72.226-72.226 0-39.814 32.4-72.206 72.226-72.206 39.809 0 72.195 32.391 72.195 72.206-.001 39.826-32.387 72.226-72.195 72.226z"/></svg>