<?xml version="1.0" encoding="iso-8859-1"?>
<!-- Generator: Adobe Illustrator 17.1.0, SVG Export Plug-In . SVG Version: 6.00 Build 0)  -->
<!DOCTYPE svg PUBLIC "-//W3C//DTD SVG 1.1//EN" "http://www.w3.org/Graphics/SVG/1.1/DTD/svg11.dtd">
<svg version="1.1" id="Capa_1" xmlns="http://www.w3.org/2000/svg" xmlns:xlink="http://www.w3.org/1999/xlink" x="0px" y="0px"
	 viewBox="0 0 376.002 376.002" style="enable-background:new 0 0 376.002 376.002;" xml:space="preserve">
<g>
	<path d="M338.895,55.917H192V53.79c0-11.957-9.733-21.685-21.696-21.685h-12.502c-11.957,0-21.685,9.728-21.685,21.685v2.127
		h-16.162V53.79c0-11.957-9.733-21.685-21.696-21.685H69.876c-11.957,0-21.685,9.728-21.685,21.685v2.127H37.107
		C16.646,55.917,0,72.568,0,93.043L0.151,258.81c0,20.461,16.651,37.107,37.119,37.107h50.886
		c21.89,29.115,56.713,47.98,95.862,47.98c39.137,0,73.951-18.865,95.835-47.98h59.043c20.461,0,37.107-16.646,37.107-37.107V93.036
		C376.002,72.568,359.356,55.917,338.895,55.917z M152.117,53.79c0-3.082,2.604-5.685,5.685-5.685h12.502
		c3.088,0,5.696,2.604,5.696,5.685v2.127h-23.883V53.79z M64.191,53.79c0-3.082,2.604-5.685,5.685-5.685h28.383
		c3.087,0,5.696,2.604,5.696,5.685v2.127H64.191V53.79z M184.017,327.897c-57.275,0-103.873-46.597-103.873-103.873
		c0-57.263,46.597-103.851,103.873-103.851c57.257,0,103.839,46.587,103.839,103.851C287.856,281.3,241.274,327.897,184.017,327.897
		z M360.002,258.81c0,11.639-9.469,21.107-21.107,21.107h-48.89c8.837-16.699,13.852-35.719,13.852-55.892
		c0-66.086-53.76-119.851-119.839-119.851c-66.098,0-119.873,53.765-119.873,119.851c0,20.173,5.016,39.193,13.856,55.892H48.169
		v-176c0-4.418-3.582-8-8-8s-8,3.582-8,8v175.351c-9.184-2.29-16.018-10.582-16.018-20.466L16,93.036
		c0-11.645,9.469-21.119,21.107-21.119h301.788c11.638,0,21.107,9.474,21.107,21.119V258.81z"/>
	<path d="M312.009,87.918c-17.646,0-32.001,14.361-32.001,32.013c0,17.639,14.355,31.99,32.001,31.99
		c17.646,0,32.002-14.351,32.002-31.99C344.011,102.279,329.655,87.918,312.009,87.918z M312.009,135.921
		c-8.823,0-16.001-7.173-16.001-15.99c0-8.83,7.178-16.013,16.001-16.013c8.824,0,16.002,7.184,16.002,16.013
		C328.011,128.748,320.833,135.921,312.009,135.921z"/>
	<path d="M208.118,216.025c-4.418,0-8,3.582-8,8c0,8.884-7.228,16.112-16.112,16.112c-8.879,0-16.102-7.228-16.102-16.112
		c0-8.879,7.223-16.103,16.102-16.103c4.418,0,8-3.582,8-8s-3.582-8-8-8c-17.701,0-32.102,14.401-32.102,32.103
		c0,17.707,14.401,32.112,32.102,32.112c17.707,0,32.112-14.405,32.112-32.112C216.118,219.607,212.537,216.025,208.118,216.025z"/>
	<path d="M184.016,135.82c-48.648,0-88.226,39.569-88.226,88.206c0,48.648,39.578,88.226,88.226,88.226
		c48.631,0,88.195-39.578,88.195-88.226C272.21,175.389,232.646,135.82,184.016,135.82z M184.016,296.251
		c-39.826,0-72.226-32.4-72.226-72.226c0-39.814,32.4-72.206,72.226-72.206c39.809,0,72.195,32.391,72.195,72.206
		C256.21,263.851,223.824,296.251,184.016,296.251z"/>
</g>
<g>
</g>
<g>
</g>
<g>
</g>
<g>
</g>
<g>
</g>
<g>
</g>
<g>
</g>
<g>
</g>
<g>
</g>
<g>
</g>
<g>
</g>
<g>
</g>
<g>
</g>
<g>
</g>
<g>
</g>
</svg>
