<svg xmlns="http://www.w3.org/2000/svg" viewBox="0 0 411.195 411.195" style="enable-background:new 0 0 411.195 411.195" xml:space="preserve"><path d="M368.098 143.695h-14.591C351.233 64.074 285.76 0 205.598 0S59.962 64.074 57.688 143.695h-14.59c-5.514 0-10 4.486-10 10v27.938c0 4.147 2.539 7.712 6.144 9.225 11.109 57.383 51.789 105.501 106.481 126.169v35.705c0 22.292 15.217 40.996 35.554 45.791.997 7.148 7.134 12.673 14.552 12.673h19.627c7.43 0 13.575-5.537 14.563-12.696 20.287-4.833 35.454-23.512 35.454-45.768v-35.701c54.687-20.669 95.372-68.794 106.48-126.173 3.605-1.513 6.145-5.078 6.145-9.225v-27.938c0-5.513-4.487-10-10-10zM205.598 16c71.339 0 129.631 56.897 131.899 127.695H73.699C75.967 72.897 134.259 16 205.598 16zM55.748 191.633h57.622c2.995 27.667 9.782 53.68 19.686 75.321 6.639 14.509 14.592 26.844 23.454 36.534h-1.754a7.93 7.93 0 0 0-1.427-.688c-49.287-17.855-86.344-60.224-97.581-111.167zm174.949 111.855h-16.902V191.633h67.933c-5.895 51.501-25.289 94.119-51.031 111.855zm-32.902 0h-17.298c-25.742-17.736-45.135-60.353-51.028-111.855h68.326v111.855zm51.678 49.243c0 17.091-13.377 30.995-29.82 30.995h-28.109c-11.378 0-21.284-6.659-26.31-16.423h60.572a8 8 0 0 0 0-16h-64.083v-8h64.083a8 8 0 0 0 0-16h-64.083v-7.815h87.75v33.243zm8.421-49.942c-.51.185-.995.42-1.45.699h-1.758c8.864-9.693 16.818-22.032 23.458-36.545 9.9-21.64 16.687-47.648 19.682-75.311h16.022a8 8 0 0 0 0-16H49.098v-15.938h313v15.938h-16.524a8 8 0 0 0 0 16h9.874c-11.236 50.933-48.282 93.299-97.554 111.157z"/></svg>