<?xml version="1.0" encoding="iso-8859-1"?>
<!-- Generator: Adobe Illustrator 17.1.0, SVG Export Plug-In . SVG Version: 6.00 Build 0)  -->
<!DOCTYPE svg PUBLIC "-//W3C//DTD SVG 1.1//EN" "http://www.w3.org/Graphics/SVG/1.1/DTD/svg11.dtd">
<svg version="1.1" id="Capa_1" xmlns="http://www.w3.org/2000/svg" xmlns:xlink="http://www.w3.org/1999/xlink" x="0px" y="0px"
	 viewBox="0 0 411.195 411.195" style="enable-background:new 0 0 411.195 411.195;" xml:space="preserve">
<path d="M368.098,143.695h-14.591C351.233,64.074,285.76,0,205.598,0S59.962,64.074,57.688,143.695H43.098c-5.514,0-10,4.486-10,10
	v27.938c0,4.147,2.539,7.712,6.144,9.225c11.109,57.383,51.789,105.501,106.481,126.169v35.705
	c0,22.292,15.217,40.996,35.554,45.791c0.997,7.148,7.134,12.673,14.552,12.673h19.627c7.43,0,13.575-5.537,14.563-12.696
	c20.287-4.833,35.454-23.512,35.454-45.768v-35.701c54.687-20.669,95.372-68.794,106.48-126.173
	c3.605-1.513,6.145-5.078,6.145-9.225v-27.938C378.098,148.182,373.611,143.695,368.098,143.695z M205.598,16
	c71.339,0,129.631,56.897,131.899,127.695H73.699C75.967,72.897,134.259,16,205.598,16z M55.748,191.633h57.622
	c2.995,27.667,9.782,53.68,19.686,75.321c6.639,14.509,14.592,26.844,23.454,36.534h-1.754c-0.446-0.271-0.92-0.505-1.427-0.688
	C104.042,284.945,66.985,242.576,55.748,191.633z M230.697,303.488h-16.902V191.633h67.933
	C275.833,243.134,256.439,285.752,230.697,303.488z M197.795,303.488h-17.298c-25.742-17.736-45.135-60.353-51.028-111.855h68.326
	V303.488z M249.473,352.731c0,17.091-13.377,30.995-29.82,30.995h-28.109c-11.378,0-21.284-6.659-26.31-16.423h60.572
	c4.418,0,8-3.582,8-8s-3.582-8-8-8h-64.083v-8h64.083c4.418,0,8-3.582,8-8s-3.582-8-8-8h-64.083v-7.815h87.75V352.731z
	 M257.894,302.789c-0.51,0.185-0.995,0.42-1.45,0.699h-1.758c8.864-9.693,16.818-22.032,23.458-36.545
	c9.9-21.64,16.687-47.648,19.682-75.311h16.022c4.418,0,8-3.582,8-8s-3.582-8-8-8H49.098v-15.938h313v15.938h-16.524
	c-4.418,0-8,3.582-8,8s3.582,8,8,8h9.874C344.212,242.565,307.166,284.931,257.894,302.789z"/>
<g>
</g>
<g>
</g>
<g>
</g>
<g>
</g>
<g>
</g>
<g>
</g>
<g>
</g>
<g>
</g>
<g>
</g>
<g>
</g>
<g>
</g>
<g>
</g>
<g>
</g>
<g>
</g>
<g>
</g>
</svg>
