<svg xmlns="http://www.w3.org/2000/svg" viewBox="0 0 464 464" style="enable-background:new 0 0 464 464" xml:space="preserve"><path d="M423.833 196.344h-79.75a8 8 0 0 0 0 16h79.75a8 8 0 0 0 0-16zM344.083 164.094h31.5a8 8 0 0 0 0-16h-31.5a8 8 0 0 0 0 16zM399.83 164.09c2.109 0 4.17-.85 5.66-2.34a8.055 8.055 0 0 0 2.34-5.66c0-2.1-.851-4.17-2.34-5.65a8.062 8.062 0 0 0-5.66-2.35c-2.101 0-4.16.86-5.65 2.35a8.037 8.037 0 0 0-2.35 5.65c0 2.11.859 4.17 2.35 5.66s3.549 2.34 5.65 2.34zM423.83 164.09c2.109 0 4.17-.85 5.66-2.34a8.055 8.055 0 0 0 2.34-5.66c0-2.1-.851-4.16-2.34-5.65a8.062 8.062 0 0 0-5.66-2.35c-2.101 0-4.16.86-5.65 2.35a8.037 8.037 0 0 0-2.35 5.65c0 2.11.859 4.17 2.35 5.66s3.549 2.34 5.65 2.34zM344.083 132.094h31.5a8 8 0 0 0 0-16h-31.5a8 8 0 0 0 0 16zM399.83 132.09c2.109 0 4.17-.85 5.66-2.34a8.055 8.055 0 0 0 2.34-5.66c0-2.1-.851-4.17-2.34-5.65a8.062 8.062 0 0 0-5.66-2.35c-2.101 0-4.16.86-5.65 2.35a8.037 8.037 0 0 0-2.35 5.65c0 2.11.859 4.17 2.35 5.66s3.549 2.34 5.65 2.34zM423.83 132.09c2.109 0 4.17-.85 5.66-2.34a8.055 8.055 0 0 0 2.34-5.66c0-2.1-.851-4.16-2.34-5.65a8.062 8.062 0 0 0-5.66-2.35c-2.101 0-4.17.86-5.65 2.35a8.054 8.054 0 0 0-2.35 5.65c0 2.11.859 4.17 2.35 5.66a8.025 8.025 0 0 0 5.65 2.34zM423.833 228.281h-79.75a8 8 0 0 0 0 16h79.75a8 8 0 0 0 0-16zM423.833 260.219h-79.75a8 8 0 0 0 0 16h79.75a8 8 0 0 0 0-16zM423.833 292.156h-79.75a8 8 0 0 0 0 16h79.75a8 8 0 0 0 0-16zM423.833 324.094h-79.75a8 8 0 0 0 0 16h79.75a8 8 0 0 0 0-16zM271.875 132.344H16c-8.822 0-16 7.177-16 16v167.75c0 8.823 7.178 16 16 16h103.875v40.063h-32a8 8 0 0 0 0 16H200a8 8 0 0 0 0-16h-32v-40.063h103.875c8.822 0 16-7.177 16-16v-167.75c0-8.823-7.178-16-16-16zM152 372.156h-16.125v-40.063H152v40.063zm83.667-56.062L118.208 198.635a8 8 0 0 0-11.313 0 7.999 7.999 0 0 0 0 11.314L213.04 316.094H16v-167.75h29.291l29.604 29.605a7.97 7.97 0 0 0 5.657 2.343 7.999 7.999 0 0 0 5.657-13.657l-18.291-18.291h203.958l.002 167.75h-36.211z"/><path d="M440 75.844H328.083c-13.233 0-24 10.767-24 24v280.313a8 8 0 0 0 16 0H448a8 8 0 0 0 16 0V99.844c0-13.234-10.767-24-24-24zM320.083 364.156V99.844c0-4.411 3.589-8 8-8H440c4.411 0 8 3.589 8 8v264.313H320.083z"/></svg>