<?xml version="1.0" encoding="iso-8859-1"?>
<!-- Generator: Adobe Illustrator 17.1.0, SVG Export Plug-In . SVG Version: 6.00 Build 0)  -->
<!DOCTYPE svg PUBLIC "-//W3C//DTD SVG 1.1//EN" "http://www.w3.org/Graphics/SVG/1.1/DTD/svg11.dtd">
<svg version="1.1" id="Capa_1" xmlns="http://www.w3.org/2000/svg" xmlns:xlink="http://www.w3.org/1999/xlink" x="0px" y="0px"
	 viewBox="0 0 464 464" style="enable-background:new 0 0 464 464;" xml:space="preserve">
<g>
	<path d="M423.833,196.344h-79.75c-4.418,0-8,3.582-8,8s3.582,8,8,8h79.75c4.418,0,8-3.582,8-8S428.251,196.344,423.833,196.344z"/>
	<path d="M344.083,164.094h31.5c4.418,0,8-3.582,8-8s-3.582-8-8-8h-31.5c-4.418,0-8,3.582-8,8S339.665,164.094,344.083,164.094z"/>
	<path d="M399.83,164.09c2.109,0,4.17-0.85,5.66-2.34c1.489-1.49,2.34-3.55,2.34-5.66c0-2.1-0.851-4.17-2.34-5.65
		c-1.49-1.49-3.551-2.35-5.66-2.35c-2.101,0-4.16,0.86-5.65,2.35c-1.49,1.48-2.35,3.55-2.35,5.65c0,2.11,0.859,4.17,2.35,5.66
		S397.729,164.09,399.83,164.09z"/>
	<path d="M423.83,164.09c2.109,0,4.17-0.85,5.66-2.34c1.489-1.49,2.34-3.55,2.34-5.66c0-2.1-0.851-4.16-2.34-5.65
		c-1.49-1.49-3.551-2.35-5.66-2.35c-2.101,0-4.16,0.86-5.65,2.35c-1.49,1.48-2.35,3.55-2.35,5.65c0,2.11,0.859,4.17,2.35,5.66
		S421.729,164.09,423.83,164.09z"/>
	<path d="M344.083,132.094h31.5c4.418,0,8-3.582,8-8s-3.582-8-8-8h-31.5c-4.418,0-8,3.582-8,8S339.665,132.094,344.083,132.094z"/>
	<path d="M399.83,132.09c2.109,0,4.17-0.85,5.66-2.34c1.489-1.49,2.34-3.55,2.34-5.66c0-2.1-0.851-4.17-2.34-5.65
		c-1.49-1.49-3.551-2.35-5.66-2.35c-2.101,0-4.16,0.86-5.65,2.35c-1.49,1.48-2.35,3.55-2.35,5.65c0,2.11,0.859,4.17,2.35,5.66
		S397.729,132.09,399.83,132.09z"/>
	<path d="M423.83,132.09c2.109,0,4.17-0.85,5.66-2.34c1.489-1.49,2.34-3.55,2.34-5.66c0-2.1-0.851-4.16-2.34-5.65
		c-1.49-1.49-3.551-2.35-5.66-2.35c-2.101,0-4.17,0.86-5.65,2.35c-1.49,1.49-2.35,3.55-2.35,5.65c0,2.11,0.859,4.17,2.35,5.66
		C419.66,131.24,421.729,132.09,423.83,132.09z"/>
	<path d="M423.833,228.281h-79.75c-4.418,0-8,3.582-8,8s3.582,8,8,8h79.75c4.418,0,8-3.582,8-8S428.251,228.281,423.833,228.281z"/>
	<path d="M423.833,260.219h-79.75c-4.418,0-8,3.582-8,8s3.582,8,8,8h79.75c4.418,0,8-3.582,8-8S428.251,260.219,423.833,260.219z"/>
	<path d="M423.833,292.156h-79.75c-4.418,0-8,3.582-8,8s3.582,8,8,8h79.75c4.418,0,8-3.582,8-8S428.251,292.156,423.833,292.156z"/>
	<path d="M423.833,324.094h-79.75c-4.418,0-8,3.582-8,8s3.582,8,8,8h79.75c4.418,0,8-3.582,8-8S428.251,324.094,423.833,324.094z"/>
	<path d="M271.875,132.344H16c-8.822,0-16,7.177-16,16v167.75c0,8.823,7.178,16,16,16h103.875v40.063h-32c-4.418,0-8,3.582-8,8
		s3.582,8,8,8H200c4.418,0,8-3.582,8-8s-3.582-8-8-8h-32v-40.063h103.875c8.822,0,16-7.177,16-16v-167.75
		C287.875,139.521,280.697,132.344,271.875,132.344z M152,372.156h-16.125v-40.063H152V372.156z M235.667,316.094L118.208,198.635
		c-3.124-3.124-8.189-3.124-11.313,0c-3.125,3.124-3.125,8.189,0,11.314L213.04,316.094H16v-167.75h29.291l29.604,29.605
		c1.562,1.563,3.609,2.343,5.657,2.343c2.047,0,4.095-0.781,5.657-2.343c3.125-3.124,3.125-8.19,0-11.314l-18.291-18.291h203.958
		l0.002,167.75H235.667z"/>
	<path d="M440,75.844H328.083c-13.233,0-24,10.767-24,24v264.313v8v8c0,4.418,3.582,8,8,8s8-3.582,8-8H448c0,4.418,3.582,8,8,8
		s8-3.582,8-8v-8v-8V99.844C464,86.61,453.233,75.844,440,75.844z M320.083,364.156V99.844c0-4.411,3.589-8,8-8H440
		c4.411,0,8,3.589,8,8v264.313H320.083z"/>
</g>
<g>
</g>
<g>
</g>
<g>
</g>
<g>
</g>
<g>
</g>
<g>
</g>
<g>
</g>
<g>
</g>
<g>
</g>
<g>
</g>
<g>
</g>
<g>
</g>
<g>
</g>
<g>
</g>
<g>
</g>
</svg>
