<?xml version="1.0" encoding="iso-8859-1"?>
<!-- Generator: Adobe Illustrator 17.1.0, SVG Export Plug-In . SVG Version: 6.00 Build 0)  -->
<!DOCTYPE svg PUBLIC "-//W3C//DTD SVG 1.1//EN" "http://www.w3.org/Graphics/SVG/1.1/DTD/svg11.dtd">
<svg version="1.1" id="Capa_1" xmlns="http://www.w3.org/2000/svg" xmlns:xlink="http://www.w3.org/1999/xlink" x="0px" y="0px"
	 viewBox="0 0 399.917 399.917" style="enable-background:new 0 0 399.917 399.917;" xml:space="preserve">
<g>
	<path d="M349.615,82.01L269.948,2.343c-1.5-1.5-3.535-2.343-5.657-2.343H79.958c-17.645,0-32,14.355-32,32v335.917
		c0,17.645,14.355,32,32,32h240c17.645,0,32-14.355,32-32V87.667C351.958,85.545,351.115,83.51,349.615,82.01z M335.958,367.917
		c0,8.822-7.178,16-16,16h-240c-8.822,0-16-7.178-16-16V32c0-8.822,7.178-16,16-16h181.019l74.981,74.98V367.917z"/>
	<path d="M96.458,79.667c4.418,0,8-3.582,8-8v-31.5c0-4.418-3.582-8-8-8s-8,3.582-8,8v31.5
		C88.458,76.085,92.04,79.667,96.458,79.667z"/>
	<path d="M136.427,79.667c4.418,0,8-3.582,8-8v-31.5c0-4.418-3.582-8-8-8s-8,3.582-8,8v31.5
		C128.427,76.085,132.009,79.667,136.427,79.667z"/>
	<path d="M176.396,79.667c4.418,0,8-3.582,8-8v-31.5c0-4.418-3.582-8-8-8s-8,3.582-8,8v31.5
		C168.396,76.085,171.977,79.667,176.396,79.667z"/>
	<path d="M216.365,79.667c4.418,0,8-3.582,8-8v-31.5c0-4.418-3.582-8-8-8s-8,3.582-8,8v31.5
		C208.365,76.085,211.946,79.667,216.365,79.667z"/>
	<path d="M248.333,40.167v31.5c0,4.418,3.582,8,8,8s8-3.582,8-8v-31.5c0-4.418-3.582-8-8-8S248.333,35.748,248.333,40.167z"/>
	<path d="M295.958,127.167c4.418,0,8-3.582,8-8v-31c0-4.418-3.582-8-8-8s-8,3.582-8,8v31
		C287.958,123.585,291.54,127.167,295.958,127.167z"/>
	<path d="M271.958,199.667h16c4.411,0,8,3.589,8,8v120c0,4.411-3.589,8-8,8h-176c-4.411,0-8-3.589-8-8v-120c0-4.411,3.589-8,8-8
		h128.25c4.418,0,8-3.582,8-8s-3.582-8-8-8h-128.25c-13.233,0-24,10.767-24,24v120c0,13.233,10.767,24,24,24h176
		c13.233,0,24-10.767,24-24v-120c0-13.233-10.767-24-24-24h-16c-4.418,0-8,3.582-8,8S267.54,199.667,271.958,199.667z"/>
</g>
<g>
</g>
<g>
</g>
<g>
</g>
<g>
</g>
<g>
</g>
<g>
</g>
<g>
</g>
<g>
</g>
<g>
</g>
<g>
</g>
<g>
</g>
<g>
</g>
<g>
</g>
<g>
</g>
<g>
</g>
</svg>
