<svg xmlns="http://www.w3.org/2000/svg" viewBox="0 0 399.917 399.917" style="enable-background:new 0 0 399.917 399.917" xml:space="preserve"><path d="M349.615 82.01 269.948 2.343A8 8 0 0 0 264.291 0H79.958c-17.645 0-32 14.355-32 32v335.917c0 17.645 14.355 32 32 32h240c17.645 0 32-14.355 32-32V87.667a8 8 0 0 0-2.343-5.657zm-13.657 285.907c0 8.822-7.178 16-16 16h-240c-8.822 0-16-7.178-16-16V32c0-8.822 7.178-16 16-16h181.019l74.981 74.98v276.937z"/><path d="M96.458 79.667a8 8 0 0 0 8-8v-31.5a8 8 0 0 0-16 0v31.5a8 8 0 0 0 8 8zM136.427 79.667a8 8 0 0 0 8-8v-31.5a8 8 0 0 0-16 0v31.5a8 8 0 0 0 8 8zM176.396 79.667a8 8 0 0 0 8-8v-31.5a8 8 0 0 0-16 0v31.5a8 8 0 0 0 8 8zM216.365 79.667a8 8 0 0 0 8-8v-31.5a8 8 0 0 0-16 0v31.5a8 8 0 0 0 8 8zM248.333 40.167v31.5a8 8 0 0 0 16 0v-31.5a8 8 0 0 0-16 0zM295.958 127.167a8 8 0 0 0 8-8v-31a8 8 0 0 0-16 0v31a8 8 0 0 0 8 8zM271.958 199.667h16c4.411 0 8 3.589 8 8v120c0 4.411-3.589 8-8 8h-176c-4.411 0-8-3.589-8-8v-120c0-4.411 3.589-8 8-8h128.25a8 8 0 0 0 0-16h-128.25c-13.233 0-24 10.767-24 24v120c0 13.233 10.767 24 24 24h176c13.233 0 24-10.767 24-24v-120c0-13.233-10.767-24-24-24h-16a8 8 0 0 0 0 16z"/></svg>