<svg xmlns="http://www.w3.org/2000/svg" viewBox="0 0 455.666 455.666" style="enable-background:new 0 0 455.666 455.666" xml:space="preserve"><path d="M431.75 59.583c-13.188 0-23.917 10.767-23.917 24v8.5h-8.229v-.25c0-22.056-17.944-40-40-40H56c-22.056 0-40 17.944-40 40V227.5c0 22.056 17.944 40 40 40h16.166v64.833a8 8 0 0 0 16 0V267.5h16c22.056 0 40-17.944 40-40v-39.417H263.27V347.5H24c-13.233 0-24 10.767-24 24v24.333a8 8 0 0 0 8 8h399.604a8 8 0 0 0 8-8V371.5c0-10.429-6.689-19.321-16-22.624V147.583h8.229v8.75c0 13.233 10.729 24 23.917 24s23.916-10.767 23.916-24v-72.75c0-13.233-10.728-24-23.916-24zm-192.084 112.5v-64.25a8 8 0 0 0-16 0v64.25h-39.5v-64.25a8 8 0 0 0-16 0v64.25h-32a8 8 0 0 0-8 8V227.5c0 13.233-10.767 24-24 24H56c-13.233 0-24-10.767-24-24V91.833c0-13.233 10.767-24 24-24h112.166v8.5a8 8 0 0 0 16 0v-8.5h39.5v8.5a8 8 0 0 0 16 0v-8.5h119.938c13.233 0 24 10.767 24 24v254.333H279.271V180.083a8 8 0 0 0-8-8h-31.605zm159.938 215.75H16V371.5c0-4.411 3.589-8 8-8h367.604c4.411 0 8 3.589 8 8v16.333zm0-256.25v-23.5h8.229v23.5h-8.229zm40.062 24.75c0 4.411-3.551 8-7.916 8s-7.917-3.589-7.917-8v-72.75c0-4.411 3.552-8 7.917-8s7.916 3.589 7.916 8v72.75z"/><path d="M303.916 187.833h55.25a8 8 0 0 0 0-16h-55.25a8 8 0 0 0 0 16zM303.916 220h55.25a8 8 0 0 0 0-16h-55.25a8 8 0 0 0 0 16zM303.916 251.833h55.25a8 8 0 0 0 0-16h-55.25a8 8 0 0 0 0 16z"/></svg>