<svg xmlns="http://www.w3.org/2000/svg" viewBox="0 0 416.045 416.045" style="enable-background:new 0 0 416.045 416.045" xml:space="preserve"><path d="M296.21 64.253H120.272a8 8 0 0 0-8 8v271.75a8 8 0 0 0 8 8H296.21a8 8 0 0 0 8-8V72.253a8 8 0 0 0-8-8zm-167.938 271.75V139.587l26.364 26.364c1.562 1.562 3.609 2.343 5.657 2.343s4.095-.781 5.657-2.343a7.998 7.998 0 0 0 0-11.313l-37.678-37.678V80.253H288.21v196.645l-90.26-90.26a7.998 7.998 0 0 0-11.313 0 7.998 7.998 0 0 0 0 11.313L288.21 299.525v36.478H128.272zM192.147 48.253h31.75a8 8 0 0 0 0-16h-31.75a8 8 0 0 0 0 16zM168.022 48.252c2.11 0 4.17-.85 5.66-2.34a8.05 8.05 0 0 0 2.34-5.66c0-2.1-.85-4.17-2.34-5.66a8.05 8.05 0 0 0-5.66-2.34c-2.11 0-4.17.85-5.66 2.34s-2.34 3.55-2.34 5.66.85 4.17 2.34 5.66a8.052 8.052 0 0 0 5.66 2.34zM223.783 358.063a23.91 23.91 0 0 0-15.761-5.924c-13.19 0-23.921 10.728-23.921 23.914 0 13.188 10.731 23.918 23.921 23.918 13.191 0 23.922-10.729 23.922-23.918a23.922 23.922 0 0 0-8.161-17.99zm-15.761 25.909c-4.368 0-7.921-3.552-7.921-7.918 0-4.364 3.554-7.914 7.921-7.914a7.917 7.917 0 0 1 7.923 7.914c-.001 4.366-3.555 7.918-7.923 7.918z"/><path d="M294.147 0h-172.25c-18.748 0-34 15.252-34 34v348.045c0 18.748 15.252 34 34 34h172.25c18.748 0 34-15.252 34-34V34c0-18.748-15.252-34-34-34zm18 382.045c0 9.925-8.075 18-18 18h-172.25c-9.925 0-18-8.075-18-18V34c0-9.925 8.075-18 18-18h172.25c9.925 0 18 8.075 18 18v348.045z"/></svg>