<svg xmlns="http://www.w3.org/2000/svg" viewBox="0 0 416 416" style="enable-background:new 0 0 416 416" xml:space="preserve"><path d="M64 114.221V95.875a8 8 0 0 0-16 0v18.346c-4.707 2.76-7.883 7.859-7.883 13.698s3.176 10.938 7.883 13.698v178.508a8 8 0 0 0 16 0V141.617c4.707-2.76 7.883-7.859 7.883-13.698S68.707 116.98 64 114.221zM208 114.221V95.875a8 8 0 0 0-16 0v18.346c-4.707 2.76-7.883 7.859-7.883 13.698s3.176 10.938 7.883 13.698v178.508a8 8 0 0 0 16 0V141.617c4.707-2.76 7.883-7.859 7.883-13.698s-3.176-10.939-7.883-13.698zM256 218.274V95.875a8 8 0 0 0-16 0v122.399c-4.707 2.76-7.883 7.859-7.883 13.698s3.176 10.938 7.883 13.698v74.455a8 8 0 0 0 16 0V245.67c4.707-2.76 7.883-7.859 7.883-13.698s-3.176-10.939-7.883-13.698zM112 274.594V95.875a8 8 0 0 0-16 0v178.719c-4.707 2.76-7.883 7.859-7.883 13.698 0 5.838 3.176 10.938 7.883 13.697v18.136a8 8 0 0 0 16 0v-18.136c4.707-2.76 7.883-7.859 7.883-13.697 0-5.839-3.176-10.938-7.883-13.698zM160 146.084V95.875a8 8 0 0 0-16 0v50.209c-4.707 2.76-7.883 7.859-7.883 13.698s3.176 10.938 7.883 13.698v146.645a8 8 0 0 0 16 0V173.48c4.707-2.76 7.883-7.859 7.883-13.698s-3.176-10.938-7.883-13.698zM304 258.623V95.875a8 8 0 0 0-16 0v162.748c-4.707 2.76-7.883 7.859-7.883 13.697 0 5.839 3.176 10.938 7.883 13.698v34.107a8 8 0 0 0 16 0v-34.107c4.707-2.76 7.883-7.859 7.883-13.698 0-5.838-3.176-10.937-7.883-13.697zM352.18 216.089c-8.757 0-15.882 7.125-15.882 15.883s7.125 15.883 15.882 15.883c8.758 0 15.883-7.125 15.883-15.883s-7.125-15.883-15.883-15.883zm.001 16-.001 7.766.001-7.766a.117.117 0 1 1-.001-.234h.001c.069.002.115.048.117.116a.116.116 0 0 1-.117.118zM352.18 256.438c-8.757 0-15.882 7.125-15.882 15.882 0 8.758 7.125 15.883 15.882 15.883 8.758 0 15.883-7.125 15.883-15.883 0-8.757-7.125-15.882-15.883-15.882zm.001 16-.001 7.765.001-7.765a.119.119 0 0 1-.118-.117.117.117 0 0 1 .117-.118h.001c.069.002.115.048.117.116-.002.07-.05.118-.117.119zM352.18 296.359c-8.757 0-15.882 7.125-15.882 15.883s7.125 15.883 15.882 15.883c8.758 0 15.883-7.125 15.883-15.883s-7.125-15.883-15.883-15.883zm.001 16-.001 7.766.001-7.766a.117.117 0 1 1-.001-.234h.001c.069.002.115.048.117.116a.116.116 0 0 1-.117.118z"/><path d="M384 47.875H32c-17.645 0-32 14.355-32 32v256.25c0 17.645 14.355 32 32 32h352c17.645 0 32-14.355 32-32V79.875c0-17.645-14.355-32-32-32zm16 288.25c0 8.822-7.178 16-16 16H32c-8.822 0-16-7.178-16-16V79.875c0-8.822 7.178-16 16-16h352c8.822 0 16 7.178 16 16v256.25z"/><path d="M352.18 87.958c-13.118 0-23.791 10.673-23.791 23.792s10.673 23.792 23.791 23.792c13.119 0 23.792-10.673 23.792-23.792s-10.673-23.792-23.792-23.792zm0 31.584c-4.296 0-7.791-3.495-7.791-7.792s3.495-7.792 7.791-7.792c4.297 0 7.792 3.495 7.792 7.792s-3.495 7.792-7.792 7.792zM352.18 151.782c-13.118 0-23.791 10.673-23.791 23.792 0 13.118 10.673 23.791 23.791 23.791 13.119 0 23.792-10.673 23.792-23.791 0-13.119-10.673-23.792-23.792-23.792zm0 31.583c-4.296 0-7.791-3.495-7.791-7.791 0-4.297 3.495-7.792 7.791-7.792 4.297 0 7.792 3.495 7.792 7.792 0 4.296-3.495 7.791-7.792 7.791z"/></svg>