<?xml version="1.0" encoding="iso-8859-1"?>
<!-- Generator: Adobe Illustrator 17.1.0, SVG Export Plug-In . SVG Version: 6.00 Build 0)  -->
<!DOCTYPE svg PUBLIC "-//W3C//DTD SVG 1.1//EN" "http://www.w3.org/Graphics/SVG/1.1/DTD/svg11.dtd">
<svg version="1.1" id="Capa_1" xmlns="http://www.w3.org/2000/svg" xmlns:xlink="http://www.w3.org/1999/xlink" x="0px" y="0px"
	 viewBox="0 0 424.313 424.313" style="enable-background:new 0 0 424.313 424.313;" xml:space="preserve">
<g>
	<path d="M212.156,40.114c-94.864,0-172.042,77.178-172.042,172.042s77.178,172.042,172.042,172.042
		c94.865,0,172.042-77.178,172.042-172.042S307.021,40.114,212.156,40.114z M212.156,368.198c-86.042,0-156.042-70-156.042-156.042
		s70-156.042,156.042-156.042c86.042,0,156.042,70,156.042,156.042S298.198,368.198,212.156,368.198z"/>
	<path d="M276.9,171.264c-3.96,1.959-5.582,6.758-3.623,10.718c4.662,9.423,7.026,19.575,7.026,30.175
		c0,37.576-30.571,68.147-68.147,68.147c-37.576,0-68.146-30.571-68.146-68.147s30.57-68.147,68.146-68.147
		c13.658,0,26.832,4.022,38.096,11.634c3.661,2.474,8.634,1.511,11.107-2.15s1.511-8.634-2.15-11.107
		c-13.92-9.405-30.19-14.376-47.053-14.376c-46.398,0-84.146,37.748-84.146,84.147s37.748,84.147,84.146,84.147
		c46.399,0,84.147-37.748,84.147-84.147c0-13.083-2.922-25.622-8.685-37.271C285.66,170.927,280.861,169.305,276.9,171.264z"/>
	<path d="M378.294,344.023c29.728-37.424,46.018-83.958,46.018-131.867c0-49.615-17.318-97.422-48.916-135.462l19.492-19.492
		c4.579-4.577,7.101-10.663,7.101-17.137c0-6.475-2.522-12.561-7.097-17.134c-4.575-4.58-10.662-7.102-17.139-7.102
		s-12.563,2.521-17.136,7.099L340.387,43.16C303.654,15.278,258.404,0,212.156,0C164.248,0,117.714,16.29,80.29,46.019
		L57.204,22.932c-4.576-4.58-10.663-7.102-17.139-7.102c-6.477,0-12.563,2.521-17.134,7.098c-4.579,4.577-7.101,10.663-7.101,17.138
		c0,6.474,2.522,12.56,7.1,17.136l23.089,23.088C16.29,117.713,0,164.247,0,212.156c0,46.249,15.278,91.499,43.16,128.23
		l-20.23,20.23c-4.579,4.576-7.101,10.662-7.101,17.137c0,6.474,2.522,12.56,7.096,17.132c4.575,4.58,10.662,7.103,17.139,7.103
		s12.563-2.522,17.137-7.1l19.493-19.493c38.04,31.599,85.846,48.917,135.462,48.917c47.908,0,94.443-16.29,131.867-46.019
		l16.593,16.593c4.576,4.58,10.663,7.102,17.139,7.102c6.477,0,12.563-2.522,17.134-7.098c4.579-4.577,7.101-10.663,7.101-17.137
		c0-6.475-2.522-12.561-7.1-17.136L378.294,344.023z M383.572,383.579c-1.552,1.554-3.618,2.409-5.818,2.409
		s-4.267-0.856-5.823-2.413l-21.729-21.729c-2.951-2.951-7.674-3.139-10.849-0.429c-35.451,30.241-80.624,46.896-127.198,46.896
		c-48.208,0-94.568-17.684-130.542-49.793c-1.521-1.357-3.425-2.031-5.326-2.031c-2.052,0-4.101,0.786-5.658,2.343l-24.745,24.747
		c-1.553,1.554-3.62,2.41-5.82,2.41s-4.266-0.855-5.823-2.414c-1.556-1.555-2.412-3.622-2.412-5.82c0-2.199,0.856-4.266,2.413-5.821
		l25.252-25.252c2.902-2.902,3.137-7.529,0.545-10.711C31.641,301.122,16,257.151,16,212.156c0-46.575,16.654-91.748,46.895-127.197
		c2.708-3.175,2.521-7.898-0.43-10.85L34.242,45.886c-1.556-1.555-2.412-3.622-2.412-5.82c0-2.199,0.856-4.267,2.416-5.825
		c1.553-1.555,3.62-2.41,5.819-2.41s4.267,0.855,5.822,2.413L74.11,62.467c2.951,2.95,7.674,3.139,10.849,0.429
		C120.41,32.654,165.582,16,212.156,16c44.995,0,88.966,15.64,123.813,44.039c3.181,2.594,7.809,2.357,10.71-0.544l25.254-25.255
		c1.553-1.555,3.62-2.41,5.819-2.41s4.267,0.855,5.823,2.414c1.556,1.555,2.412,3.622,2.412,5.821c0,2.198-0.856,4.266-2.413,5.821
		L358.833,70.63c-3,3-3.137,7.819-0.312,10.984c32.109,35.975,49.792,82.335,49.792,130.542c0,46.575-16.654,91.748-46.895,127.197
		c-2.708,3.175-2.521,7.898,0.43,10.85l21.73,21.73c1.555,1.555,2.412,3.621,2.412,5.82
		C385.989,379.952,385.132,382.02,383.572,383.579z"/>
</g>
<g>
</g>
<g>
</g>
<g>
</g>
<g>
</g>
<g>
</g>
<g>
</g>
<g>
</g>
<g>
</g>
<g>
</g>
<g>
</g>
<g>
</g>
<g>
</g>
<g>
</g>
<g>
</g>
<g>
</g>
</svg>
