<svg xmlns="http://www.w3.org/2000/svg" viewBox="0 0 424.313 424.313" style="enable-background:new 0 0 424.313 424.313" xml:space="preserve"><path d="M212.156 40.114c-94.864 0-172.042 77.178-172.042 172.042s77.178 172.042 172.042 172.042c94.865 0 172.042-77.178 172.042-172.042S307.021 40.114 212.156 40.114zm0 328.084c-86.042 0-156.042-70-156.042-156.042s70-156.042 156.042-156.042 156.042 70 156.042 156.042-70 156.042-156.042 156.042z"/><path d="M276.9 171.264a8 8 0 0 0-3.623 10.718c4.662 9.423 7.026 19.575 7.026 30.175 0 37.576-30.571 68.147-68.147 68.147-37.576 0-68.146-30.571-68.146-68.147s30.57-68.147 68.146-68.147c13.658 0 26.832 4.022 38.096 11.634a8 8 0 0 0 8.957-13.257c-13.92-9.405-30.19-14.376-47.053-14.376-46.398 0-84.146 37.748-84.146 84.147s37.748 84.147 84.146 84.147c46.399 0 84.147-37.748 84.147-84.147 0-13.083-2.922-25.622-8.685-37.271a8 8 0 0 0-10.718-3.623z"/><path d="M378.294 344.023c29.728-37.424 46.018-83.958 46.018-131.867 0-49.615-17.318-97.422-48.916-135.462l19.492-19.492a24.071 24.071 0 0 0 7.101-17.137c0-6.475-2.522-12.561-7.097-17.134-4.575-4.58-10.662-7.102-17.139-7.102s-12.563 2.521-17.136 7.099l-20.23 20.232C303.654 15.278 258.404 0 212.156 0 164.248 0 117.714 16.29 80.29 46.019L57.204 22.932c-4.576-4.58-10.663-7.102-17.139-7.102-6.477 0-12.563 2.521-17.134 7.098a24.072 24.072 0 0 0-7.101 17.138 24.07 24.07 0 0 0 7.1 17.136L46.019 80.29C16.29 117.713 0 164.247 0 212.156c0 46.249 15.278 91.499 43.16 128.23l-20.23 20.23a24.068 24.068 0 0 0-7.101 17.137c0 6.474 2.522 12.56 7.096 17.132 4.575 4.58 10.662 7.103 17.139 7.103s12.563-2.522 17.137-7.1l19.493-19.493c38.04 31.599 85.846 48.917 135.462 48.917 47.908 0 94.443-16.29 131.867-46.019l16.593 16.593c4.576 4.58 10.663 7.102 17.139 7.102 6.477 0 12.563-2.522 17.134-7.098a24.071 24.071 0 0 0 7.101-17.137c0-6.475-2.522-12.561-7.1-17.136l-16.596-16.594zm5.278 39.556c-1.552 1.554-3.618 2.409-5.818 2.409s-4.267-.856-5.823-2.413l-21.729-21.729a7.998 7.998 0 0 0-10.849-.429c-35.451 30.241-80.624 46.896-127.198 46.896-48.208 0-94.568-17.684-130.542-49.793a7.979 7.979 0 0 0-5.326-2.031 7.982 7.982 0 0 0-5.658 2.343l-24.745 24.747c-1.553 1.554-3.62 2.41-5.82 2.41s-4.266-.855-5.823-2.414a8.174 8.174 0 0 1-2.412-5.82c0-2.199.856-4.266 2.413-5.821l25.252-25.252a8.001 8.001 0 0 0 .545-10.711C31.641 301.122 16 257.151 16 212.156c0-46.575 16.654-91.748 46.895-127.197a8.002 8.002 0 0 0-.43-10.85L34.242 45.886a8.174 8.174 0 0 1-2.412-5.82c0-2.199.856-4.267 2.416-5.825 1.553-1.555 3.62-2.41 5.819-2.41s4.267.855 5.822 2.413L74.11 62.467a8 8 0 0 0 10.849.429C120.41 32.654 165.582 16 212.156 16c44.995 0 88.966 15.64 123.813 44.039a7.999 7.999 0 0 0 10.71-.544l25.254-25.255c1.553-1.555 3.62-2.41 5.819-2.41s4.267.855 5.823 2.414a8.174 8.174 0 0 1 2.412 5.821 8.173 8.173 0 0 1-2.413 5.821L358.833 70.63a8 8 0 0 0-.312 10.984c32.109 35.975 49.792 82.335 49.792 130.542 0 46.575-16.654 91.748-46.895 127.197a8.002 8.002 0 0 0 .43 10.85l21.73 21.73a8.176 8.176 0 0 1 2.412 5.82 8.186 8.186 0 0 1-2.418 5.826z"/></svg>