<?xml version="1.0" encoding="iso-8859-1"?>
<!-- Generator: Adobe Illustrator 17.1.0, SVG Export Plug-In . SVG Version: 6.00 Build 0)  -->
<!DOCTYPE svg PUBLIC "-//W3C//DTD SVG 1.1//EN" "http://www.w3.org/Graphics/SVG/1.1/DTD/svg11.dtd">
<svg version="1.1" id="Capa_1" xmlns="http://www.w3.org/2000/svg" xmlns:xlink="http://www.w3.org/1999/xlink" x="0px" y="0px"
	 viewBox="0 0 439.75 439.75" style="enable-background:new 0 0 439.75 439.75;" xml:space="preserve">
<path d="M387.825,215.945c0-3.582-0.793-6.979-2.203-10.036c-0.08-1.355-0.498-2.708-1.296-3.919
	c-0.093-0.141-0.191-0.282-0.295-0.422L283.624,66.52c0.085-0.821,0.13-1.654,0.13-2.497c0-13.257-10.781-24.042-24.034-24.042
	c-10.284,0-19.077,6.492-22.505,15.592H219.8V54c0-29.775-24.224-54-54-54h-4.333c-29.776,0-54,24.225-54,54v37.972
	c-34.342,20.464-55.542,57.623-55.542,97.788v17.97c0,4.418,3.582,8,8,8h210.714c4.418,0,8-3.582,8-8v-17.97
	c0-41.572-22.522-79.656-58.839-99.684V71.573h17.1c1.932,5.822,6.028,10.666,11.338,13.564l92.351,124.525
	c-0.543,2.004-0.838,4.109-0.838,6.283c0,2.158,0.291,4.249,0.826,6.24l-97.608,168.662c-0.186,0.321-0.338,0.651-0.474,0.985
	H121.355c-11.817,0-21.431,9.611-21.431,21.425v18.492c0,4.418,3.582,8,8,8h191.875c4.418,0,8-3.582,8-8v-18.492
	c0-11.287-8.783-20.542-19.871-21.346l90.256-155.92c0.238-0.411,0.427-0.835,0.584-1.267
	C384.283,230.317,387.825,223.539,387.825,215.945z M262.639,189.76v9.97H67.925v-9.97c0-0.684,0.02-1.365,0.035-2.047h169.422
	c4.418,0,8-3.582,8-8s-3.582-8-8-8H69.616c5.308-28.27,22.893-53.166,48.527-67.438c0.317-0.176,0.611-0.377,0.894-0.588
	c0.604,0.146,1.231,0.231,1.879,0.231h59.133c4.418,0,8-3.582,8-8s-3.582-8-8-8h-56.583V54c0-20.953,17.047-38,38-38h4.333
	c20.953,0,38,17.047,38,38v41.917c0,4.408,3.566,7.983,7.972,7.999C243.161,121.081,262.639,153.913,262.639,189.76z M275.375,82.24
	l82.154,110.497c-2.579,0.696-4.99,1.809-7.15,3.266l-81.423-109.79C271.308,85.23,273.469,83.88,275.375,82.24z M363.791,207.904
	c4.43,0,8.034,3.607,8.034,8.041c0,4.433-3.604,8.039-8.034,8.039c-4.434,0-8.041-3.606-8.041-8.039
	C355.75,211.512,359.358,207.904,363.791,207.904z M259.72,55.981c4.43,0,8.034,3.607,8.034,8.042c0,4.433-3.604,8.038-8.034,8.038
	c-4.435,0-8.042-3.605-8.042-8.038C251.678,59.589,255.285,55.981,259.72,55.981z M350.929,236.239
	c2.101,1.336,4.418,2.36,6.891,2.995l-87.763,151.613c-0.186,0.321-0.338,0.652-0.475,0.986h-8.698L350.929,236.239z
	 M291.799,413.258v10.492H115.925v-10.492c0-2.94,2.487-5.425,5.431-5.425h165.013C289.363,407.833,291.799,410.267,291.799,413.258
	z"/>
<g>
</g>
<g>
</g>
<g>
</g>
<g>
</g>
<g>
</g>
<g>
</g>
<g>
</g>
<g>
</g>
<g>
</g>
<g>
</g>
<g>
</g>
<g>
</g>
<g>
</g>
<g>
</g>
<g>
</g>
</svg>
