<svg xmlns="http://www.w3.org/2000/svg" viewBox="0 0 439.75 439.75" style="enable-background:new 0 0 439.75 439.75" xml:space="preserve"><path d="M387.825 215.945c0-3.582-.793-6.979-2.203-10.036a7.947 7.947 0 0 0-1.591-4.341L283.624 66.52c.085-.821.13-1.654.13-2.497 0-13.257-10.781-24.042-24.034-24.042-10.284 0-19.077 6.492-22.505 15.592H219.8V54c0-29.775-24.224-54-54-54h-4.333c-29.776 0-54 24.225-54 54v37.972c-34.342 20.464-55.542 57.623-55.542 97.788v17.97a8 8 0 0 0 8 8h210.714a8 8 0 0 0 8-8v-17.97c0-41.572-22.522-79.656-58.839-99.684V71.573h17.1a24.159 24.159 0 0 0 11.338 13.564l92.351 124.525a23.987 23.987 0 0 0-.012 12.523l-97.608 168.662a7.866 7.866 0 0 0-.474.985h-121.14c-11.817 0-21.431 9.611-21.431 21.425v18.492a8 8 0 0 0 8 8h191.875a8 8 0 0 0 8-8v-18.492c0-11.287-8.783-20.542-19.871-21.346l90.256-155.92c.238-.411.427-.835.584-1.267 5.515-4.407 9.057-11.185 9.057-18.779zM262.639 189.76v9.97H67.925v-9.97c0-.684.02-1.365.035-2.047h169.422a8 8 0 0 0 0-16H69.616c5.308-28.27 22.893-53.166 48.527-67.438.317-.176.611-.377.894-.588a7.977 7.977 0 0 0 1.879.231h59.133a8 8 0 0 0 0-16h-56.583V54c0-20.953 17.047-38 38-38h4.333c20.953 0 38 17.047 38 38v41.917a8 8 0 0 0 7.972 7.999c31.39 17.165 50.868 49.997 50.868 85.844zm12.736-107.52 82.154 110.497a23.937 23.937 0 0 0-7.15 3.266l-81.423-109.79a24.092 24.092 0 0 0 6.419-3.973zm88.416 125.664c4.43 0 8.034 3.607 8.034 8.041 0 4.433-3.604 8.039-8.034 8.039-4.434 0-8.041-3.606-8.041-8.039s3.608-8.041 8.041-8.041zM259.72 55.981c4.43 0 8.034 3.607 8.034 8.042 0 4.433-3.604 8.038-8.034 8.038-4.435 0-8.042-3.605-8.042-8.038 0-4.434 3.607-8.042 8.042-8.042zm91.209 180.258a23.933 23.933 0 0 0 6.891 2.995l-87.763 151.613a8.029 8.029 0 0 0-.475.986h-8.698l90.045-155.594zm-59.13 177.019v10.492H115.925v-10.492c0-2.94 2.487-5.425 5.431-5.425h165.013a5.434 5.434 0 0 1 5.43 5.425z"/></svg>