<?xml version="1.0" encoding="iso-8859-1"?>
<!-- Generator: Adobe Illustrator 17.1.0, SVG Export Plug-In . SVG Version: 6.00 Build 0)  -->
<!DOCTYPE svg PUBLIC "-//W3C//DTD SVG 1.1//EN" "http://www.w3.org/Graphics/SVG/1.1/DTD/svg11.dtd">
<svg version="1.1" id="Capa_1" xmlns="http://www.w3.org/2000/svg" xmlns:xlink="http://www.w3.org/1999/xlink" x="0px" y="0px"
	 viewBox="0 0 464.041 464.041" style="enable-background:new 0 0 464.041 464.041;" xml:space="preserve">
<g>
	<path d="M464.041,187.708c0-0.675-0.093-1.326-0.25-1.952v-45.588c0-13.35-10.644-24.21-23.727-24.21H23.727
		C10.644,115.958,0,126.818,0,140.168v183.705c0,13.35,10.644,24.21,23.727,24.21h416.338c13.083,0,23.727-10.86,23.727-24.21
		V189.66C463.948,189.034,464.041,188.383,464.041,187.708z M23.727,131.958h416.338c4.261,0,7.727,3.683,7.727,8.21v39.54H16
		v-39.54C16,135.641,19.466,131.958,23.727,131.958z M440.064,332.083h-19.638v-32.5h0.104c4.418,0,8-3.582,8-8v-71.417
		c0-4.418-3.582-8-8-8h-8c-4.418,0-8,3.582-8,8v6.602c-0.063,0.403-0.104,0.812-0.104,1.232v104.083h-24.063v-32.5h0.104
		c4.418,0,8-3.582,8-8v-71.417c0-4.418-3.582-8-8-8h-8c-4.418,0-8,3.582-8,8v6.602c-0.063,0.403-0.104,0.812-0.104,1.232v104.083
		h-24.063v-32.5h0.104c4.418,0,8-3.582,8-8v-71.417c0-4.418-3.582-8-8-8h-8c-4.418,0-8,3.582-8,8v6.602
		c-0.063,0.403-0.104,0.812-0.104,1.232v104.083h-24.063v-32.5h0.104c4.418,0,8-3.582,8-8v-71.417c0-4.418-3.582-8-8-8h-8
		c-4.418,0-8,3.582-8,8v6.602c-0.063,0.403-0.104,0.812-0.104,1.232v104.083h-24.063v-32.5h0.105c4.418,0,8-3.582,8-8v-71.417
		c0-4.418-3.582-8-8-8h-8c-4.418,0-8,3.582-8,8v6.596c-0.063,0.405-0.105,0.816-0.105,1.238v104.083h-24.063v-32.5h0.105
		c4.418,0,8-3.582,8-8v-71.417c0-4.418-3.582-8-8-8h-8c-4.418,0-8,3.582-8,8v6.596c-0.063,0.405-0.105,0.816-0.105,1.238v104.083
		h-24.063v-32.5h0.105c4.418,0,8-3.582,8-8v-71.417c0-4.418-3.582-8-8-8h-8c-4.418,0-8,3.582-8,8v6.596
		c-0.063,0.405-0.105,0.816-0.105,1.238v104.083h-24.063v-32.5h0.105c4.418,0,8-3.582,8-8v-71.417c0-4.418-3.582-8-8-8h-8
		c-4.418,0-8,3.582-8,8v6.596c-0.063,0.405-0.105,0.816-0.105,1.238v104.083H99.928v-32.5h0.104c4.418,0,8-3.582,8-8v-71.417
		c0-4.418-3.582-8-8-8h-8c-4.418,0-8,3.582-8,8v6.602c-0.062,0.403-0.104,0.812-0.104,1.232v104.083H59.865v-32.5h0.104
		c4.418,0,8-3.582,8-8v-71.417c0-4.418-3.582-8-8-8h-8c-4.418,0-8,3.582-8,8v6.602c-0.062,0.403-0.104,0.812-0.104,1.232v104.083
		H23.727c-4.261,0-7.727-3.683-7.727-8.21V195.708h431.791v128.165C447.791,328.4,444.325,332.083,440.064,332.083z"/>
	<path d="M48,163.916h8c4.418,0,8-3.582,8-8s-3.582-8-8-8h-8c-4.418,0-8,3.582-8,8S43.582,163.916,48,163.916z"/>
	<path d="M80.032,163.916h8c4.418,0,8-3.582,8-8s-3.582-8-8-8h-8c-4.418,0-8,3.582-8,8S75.614,163.916,80.032,163.916z"/>
	<path d="M112.365,163.916h8c4.418,0,8-3.582,8-8s-3.582-8-8-8h-8c-4.418,0-8,3.582-8,8S107.947,163.916,112.365,163.916z"/>
	<path d="M344.286,163.916h8c4.418,0,8-3.582,8-8s-3.582-8-8-8h-8c-4.418,0-8,3.582-8,8S339.868,163.916,344.286,163.916z"/>
	<path d="M376.318,163.916h8c4.418,0,8-3.582,8-8s-3.582-8-8-8h-8c-4.418,0-8,3.582-8,8S371.9,163.916,376.318,163.916z"/>
	<path d="M408.651,163.916h8c4.418,0,8-3.582,8-8s-3.582-8-8-8h-8c-4.418,0-8,3.582-8,8S404.233,163.916,408.651,163.916z"/>
	<path d="M191.42,163.91c2.101,0,4.16-0.85,5.65-2.34s2.35-3.55,2.35-5.65c0-2.109-0.859-4.17-2.35-5.659
		c-1.49-1.49-3.55-2.341-5.65-2.341c-2.109,0-4.17,0.851-5.659,2.341c-1.49,1.489-2.341,3.55-2.341,5.659
		c0,2.101,0.851,4.16,2.341,5.65C187.25,163.061,189.311,163.91,191.42,163.91z"/>
	<path d="M216.08,163.91c2.11,0,4.17-0.85,5.66-2.34s2.34-3.55,2.34-5.65c0-2.109-0.85-4.17-2.34-5.659
		c-1.49-1.49-3.55-2.341-5.66-2.341c-2.1,0-4.17,0.851-5.649,2.341c-1.49,1.489-2.351,3.55-2.351,5.659
		c0,2.101,0.86,4.16,2.351,5.65C211.91,163.061,213.98,163.91,216.08,163.91z"/>
	<path d="M239.98,163.91c2.1,0,4.17-0.85,5.649-2.34c1.49-1.49,2.351-3.55,2.351-5.65c0-2.109-0.86-4.17-2.351-5.659
		c-1.479-1.49-3.55-2.341-5.649-2.341c-2.11,0-4.17,0.851-5.66,2.341c-1.49,1.489-2.34,3.55-2.34,5.659c0,2.101,0.85,4.16,2.34,5.65
		S237.87,163.91,239.98,163.91z"/>
	<path d="M264.58,163.91c2.11,0,4.17-0.85,5.66-2.34s2.34-3.55,2.34-5.65c0-2.109-0.85-4.17-2.34-5.659
		c-1.49-1.49-3.55-2.341-5.66-2.341c-2.1,0-4.17,0.851-5.649,2.341c-1.49,1.489-2.351,3.55-2.351,5.659
		c0,2.101,0.86,4.16,2.351,5.65C260.41,163.061,262.471,163.91,264.58,163.91z"/>
</g>
<g>
</g>
<g>
</g>
<g>
</g>
<g>
</g>
<g>
</g>
<g>
</g>
<g>
</g>
<g>
</g>
<g>
</g>
<g>
</g>
<g>
</g>
<g>
</g>
<g>
</g>
<g>
</g>
<g>
</g>
</svg>
