<svg xmlns="http://www.w3.org/2000/svg" viewBox="0 0 464.041 464.041" style="enable-background:new 0 0 464.041 464.041" xml:space="preserve"><path d="M464.041 187.708a8 8 0 0 0-.25-1.952v-45.588c0-13.35-10.644-24.21-23.727-24.21H23.727C10.644 115.958 0 126.818 0 140.168v183.705c0 13.35 10.644 24.21 23.727 24.21h416.338c13.083 0 23.727-10.86 23.727-24.21V189.66a8.05 8.05 0 0 0 .249-1.952zm-440.314-55.75h416.338c4.261 0 7.727 3.683 7.727 8.21v39.54H16v-39.54c0-4.527 3.466-8.21 7.727-8.21zm416.337 200.125h-19.638v-32.5h.104a8 8 0 0 0 8-8v-71.417a8 8 0 0 0-8-8h-8a8 8 0 0 0-8 8v6.602a7.948 7.948 0 0 0-.104 1.232v104.083h-24.063v-32.5h.104a8 8 0 0 0 8-8v-71.417a8 8 0 0 0-8-8h-8a8 8 0 0 0-8 8v6.602a7.948 7.948 0 0 0-.104 1.232v104.083H340.3v-32.5h.104a8 8 0 0 0 8-8v-71.417a8 8 0 0 0-8-8h-8a8 8 0 0 0-8 8v6.602A7.948 7.948 0 0 0 324.3 228v104.083h-24.063v-32.5h.104a8 8 0 0 0 8-8v-71.417a8 8 0 0 0-8-8h-8a8 8 0 0 0-8 8v6.602a7.948 7.948 0 0 0-.104 1.232v104.083h-24.063v-32.5h.105a8 8 0 0 0 8-8v-71.417a8 8 0 0 0-8-8h-8a8 8 0 0 0-8 8v6.596a8.025 8.025 0 0 0-.105 1.238v104.083h-24.063v-32.5h.105a8 8 0 0 0 8-8v-71.417a8 8 0 0 0-8-8h-8a8 8 0 0 0-8 8v6.596a8.025 8.025 0 0 0-.105 1.238v104.083h-24.063v-32.5h.105a8 8 0 0 0 8-8v-71.417a8 8 0 0 0-8-8h-8a8 8 0 0 0-8 8v6.596a8.025 8.025 0 0 0-.105 1.238v104.083h-24.063v-32.5h.105a8 8 0 0 0 8-8v-71.417a8 8 0 0 0-8-8h-8a8 8 0 0 0-8 8v6.596a8.025 8.025 0 0 0-.105 1.238v104.083H99.928v-32.5h.104a8 8 0 0 0 8-8v-71.417a8 8 0 0 0-8-8h-8a8 8 0 0 0-8 8v6.602a8.073 8.073 0 0 0-.104 1.232v104.083H59.865v-32.5h.104a8 8 0 0 0 8-8v-71.417a8 8 0 0 0-8-8h-8a8 8 0 0 0-8 8v6.602a8.073 8.073 0 0 0-.104 1.232v104.083H23.727c-4.261 0-7.727-3.683-7.727-8.21V195.708h431.791v128.165c0 4.527-3.466 8.21-7.727 8.21z"/><path d="M48 163.916h8a8 8 0 0 0 0-16h-8a8 8 0 0 0 0 16zM80.032 163.916h8a8 8 0 0 0 0-16h-8a8 8 0 0 0 0 16zM112.365 163.916h8a8 8 0 0 0 0-16h-8a8 8 0 0 0 0 16zM344.286 163.916h8a8 8 0 0 0 0-16h-8a8 8 0 0 0 0 16zM376.318 163.916h8a8 8 0 0 0 0-16h-8a8 8 0 0 0 0 16zM408.651 163.916h8a8 8 0 0 0 0-16h-8a8 8 0 0 0 0 16zM191.42 163.91c2.101 0 4.16-.85 5.65-2.34s2.35-3.55 2.35-5.65c0-2.109-.859-4.17-2.35-5.659a8.046 8.046 0 0 0-5.65-2.341c-2.109 0-4.17.851-5.659 2.341a8.049 8.049 0 0 0-2.341 5.659c0 2.101.851 4.16 2.341 5.65a8.044 8.044 0 0 0 5.659 2.34zM216.08 163.91c2.11 0 4.17-.85 5.66-2.34s2.34-3.55 2.34-5.65c0-2.109-.85-4.17-2.34-5.659a8.051 8.051 0 0 0-5.66-2.341c-2.1 0-4.17.851-5.649 2.341a8.059 8.059 0 0 0-2.351 5.659c0 2.101.86 4.16 2.351 5.65a8.019 8.019 0 0 0 5.649 2.34zM239.98 163.91c2.1 0 4.17-.85 5.649-2.34a8.055 8.055 0 0 0 2.351-5.65c0-2.109-.86-4.17-2.351-5.659a8.026 8.026 0 0 0-5.649-2.341c-2.11 0-4.17.851-5.66 2.341a8.048 8.048 0 0 0-2.34 5.659c0 2.101.85 4.16 2.34 5.65s3.55 2.34 5.66 2.34zM264.58 163.91c2.11 0 4.17-.85 5.66-2.34s2.34-3.55 2.34-5.65c0-2.109-.85-4.17-2.34-5.659a8.051 8.051 0 0 0-5.66-2.341c-2.1 0-4.17.851-5.649 2.341a8.059 8.059 0 0 0-2.351 5.659c0 2.101.86 4.16 2.351 5.65a8.003 8.003 0 0 0 5.649 2.34z"/></svg>