<svg xmlns="http://www.w3.org/2000/svg" viewBox="0 0 456.007 456.007" style="enable-background:new 0 0 456.007 456.007" xml:space="preserve"><path d="M440.007 72.061H16c-8.822 0-16 7.178-16 16v247.792c0 8.822 7.178 16 16 16h168.253v16.094h-86.92a8 8 0 0 0 0 16h263.004a8 8 0 0 0 0-16h-88v-16.094h167.67c8.822 0 16-7.178 16-16V88.061c0-8.823-7.178-16-16-16zm-183.67 295.885h-56.083v-16.094h56.083v16.094zm114.897-32.093L198.035 162.654a8 8 0 0 0-11.313 0 7.998 7.998 0 0 0 0 11.313l161.885 161.885H16V88.061h84.815l53.907 53.907c1.562 1.562 3.609 2.343 5.657 2.343s4.095-.781 5.657-2.343a7.998 7.998 0 0 0 0-11.313l-42.593-42.593h316.565l.001 247.792h-68.775z"/><path d="M215.753 328.228h24.5a8 8 0 0 0 0-16h-24.5a8 8 0 0 0 0 16z"/></svg>