<svg xmlns="http://www.w3.org/2000/svg" viewBox="0 0 360.631 360.631" style="enable-background:new 0 0 360.631 360.631" xml:space="preserve"><path d="M320.631 88.581H176.609a8 8 0 0 0-8 8v56.188a8 8 0 0 0 8 8H320.63a8 8 0 0 0 8-8V96.581a7.999 7.999 0 0 0-7.999-8zm-8 56.188H184.609v-40.188H312.63v40.188z"/><path d="M360.398 87.766c0-17.169-13.969-31.138-31.138-31.138H152.18V44.169c0-15.439-12.561-28-28-28H68.172c-15.439 0-28 12.561-28 28v12.458h-9.033C13.969 56.628 0 70.596 0 87.774l.232 225.558c0 17.165 13.969 31.13 31.138 31.13h298.122c17.17 0 31.139-13.965 31.139-31.138l-.233-225.558zM56.172 244.173c0-3.782 1.773-7.279 4.865-9.595a7.996 7.996 0 0 0 3.205-6.403V100.323a8.001 8.001 0 0 0-3.205-6.404c-3.092-2.315-4.865-5.812-4.865-9.594V44.169c0-6.617 5.383-12 12-12h56.008c6.617 0 12 5.383 12 12v40.156c0 3.782-1.773 7.279-4.865 9.594a7.998 7.998 0 0 0-3.205 6.404v127.852a8 8 0 0 0 3.205 6.403c3.092 2.316 4.865 5.813 4.865 9.595v40.156c0 6.617-5.383 12-12 12H68.172c-6.617 0-12-5.383-12-12v-40.156zm273.32 84.288H31.37c-8.347 0-15.138-6.787-15.138-15.138L16 87.766c0-8.347 6.791-15.138 15.139-15.138h9.033v11.698c0 7.323 2.958 14.389 8.07 19.597v120.653c-5.112 5.208-8.07 12.274-8.07 19.597v40.156c0 15.439 12.561 28 28 28h56.008c15.439 0 28-12.561 28-28v-40.156c0-7.323-2.958-14.389-8.07-19.597V103.923c5.112-5.208 8.07-12.274 8.07-19.597V72.628h177.081c8.347 0 15.138 6.791 15.138 15.146l.232 225.558c0 8.342-6.791 15.129-15.139 15.129z"/><path d="M312.631 272.294H296.61c-8.822 0-16 7.178-16 16v8.035c0 8.822 7.178 16 16 16h16.021c8.822 0 16-7.178 16-16v-8.035c0-8.822-7.178-16-16-16zm-16.022 24.036v-8.035h16.021l.002 8.035h-16.023zM312.631 224.294H296.61c-8.822 0-16 7.178-16 16v8.035c0 8.822 7.178 16 16 16h16.021c8.822 0 16-7.178 16-16v-8.035c0-8.822-7.178-16-16-16zm-16.022 24.036v-8.035h16.021l.002 8.035h-16.023zM312.631 176.294H296.61c-8.822 0-16 7.178-16 16v8.035c0 8.822 7.178 16 16 16h16.021c8.822 0 16-7.178 16-16v-8.035c0-8.822-7.178-16-16-16zm-16.022 24.036v-8.035h16.021l.002 8.035h-16.023zM256.631 272.294H240.61c-8.822 0-16 7.178-16 16v8.035c0 8.822 7.178 16 16 16h16.021c8.822 0 16-7.178 16-16v-8.035c0-8.822-7.178-16-16-16zm-16.022 24.036v-8.035h16.021l.002 8.035h-16.023zM256.631 224.294H240.61c-8.822 0-16 7.178-16 16v8.035c0 8.822 7.178 16 16 16h16.021c8.822 0 16-7.178 16-16v-8.035c0-8.822-7.178-16-16-16zm-16.022 24.036v-8.035h16.021l.002 8.035h-16.023zM256.631 176.294H240.61c-8.822 0-16 7.178-16 16v8.035c0 8.822 7.178 16 16 16h16.021c8.822 0 16-7.178 16-16v-8.035c0-8.822-7.178-16-16-16zm-16.022 24.036v-8.035h16.021l.002 8.035h-16.023zM200.631 272.294H184.61c-8.822 0-16 7.178-16 16v8.035c0 8.822 7.178 16 16 16h16.021c8.822 0 16-7.178 16-16v-8.035c0-8.822-7.178-16-16-16zm-16.022 24.036v-8.035h16.021l.002 8.035h-16.023zM200.631 224.294H184.61c-8.822 0-16 7.178-16 16v8.035c0 8.822 7.178 16 16 16h16.021c8.822 0 16-7.178 16-16v-8.035c0-8.822-7.178-16-16-16zm-16.022 24.036v-8.035h16.021l.002 8.035h-16.023zM200.631 176.294H184.61c-8.822 0-16 7.178-16 16v8.035c0 8.822 7.178 16 16 16h16.021c8.822 0 16-7.178 16-16v-8.035c0-8.822-7.178-16-16-16zm-16.022 24.036v-8.035h16.021l.002 8.035h-16.023z"/></svg>