<?xml version="1.0" encoding="iso-8859-1"?>
<!-- Generator: Adobe Illustrator 17.1.0, SVG Export Plug-In . SVG Version: 6.00 Build 0)  -->
<!DOCTYPE svg PUBLIC "-//W3C//DTD SVG 1.1//EN" "http://www.w3.org/Graphics/SVG/1.1/DTD/svg11.dtd">
<svg version="1.1" id="Capa_1" xmlns="http://www.w3.org/2000/svg" xmlns:xlink="http://www.w3.org/1999/xlink" x="0px" y="0px"
	 viewBox="0 0 400.016 400.016" style="enable-background:new 0 0 400.016 400.016;" xml:space="preserve">
<g>
	<path d="M392.412,73.134L326.717,7.44c-9.923-9.921-26.063-9.92-35.983,0l-67.097,67.097c-0.055,0.055-0.102,0.115-0.155,0.171
		c-0.108,0.114-0.215,0.229-0.316,0.35c-0.076,0.091-0.147,0.184-0.218,0.277c-0.086,0.113-0.172,0.226-0.253,0.344
		c-0.078,0.113-0.15,0.229-0.221,0.346c-0.063,0.103-0.125,0.205-0.184,0.312c-0.077,0.14-0.147,0.282-0.215,0.426
		c-0.043,0.091-0.087,0.181-0.127,0.273c-0.07,0.163-0.132,0.329-0.19,0.496c-0.021,0.06-0.048,0.116-0.068,0.176l-16.111,49.24
		L5.973,326.555c-0.085,0.084-0.158,0.176-0.238,0.263c-3.582,3.709-5.562,8.569-5.562,13.739c0,5.289,2.06,10.263,5.8,14.003
		l39.657,39.657c3.74,3.739,8.713,5.799,14.003,5.799c5.289,0,10.262-2.06,14.002-5.799l199.631-199.632l48.938-16.445
		c0.055-0.019,0.106-0.043,0.16-0.063c0.164-0.059,0.327-0.122,0.488-0.192c0.093-0.04,0.183-0.083,0.274-0.127
		c0.142-0.068,0.282-0.139,0.42-0.216c0.106-0.059,0.208-0.121,0.311-0.183c0.115-0.071,0.228-0.144,0.34-0.221
		c0.118-0.081,0.231-0.166,0.344-0.253c0.054-0.042,0.112-0.078,0.166-0.122c0.036-0.029,0.07-0.065,0.106-0.095
		c0.12-0.102,0.236-0.208,0.35-0.316c0.05-0.048,0.103-0.089,0.152-0.138l67.098-67.097c4.792-4.793,7.431-11.182,7.431-17.992
		C399.842,84.315,397.204,77.927,392.412,73.134z M308.726,16.01c2.535,0,4.907,0.975,6.677,2.745l65.694,65.693
		c3.331,3.33,3.638,8.544,0.943,12.235l-78.873-78.873C304.766,16.647,306.69,16.01,308.726,16.01z M62.321,382.902
		c-0.968,0.969-2.1,1.113-2.688,1.113c-0.589,0-1.721-0.145-2.688-1.113l-39.657-39.657c-0.97-0.969-1.114-2.101-1.114-2.688
		c0-0.587,0.145-1.715,1.109-2.683c0.002-0.001,0.003-0.003,0.005-0.004l200.897-200.898c0.003-0.003,0.006-0.006,0.01-0.009
		l0.052-0.052c0.25-0.25,0.473-0.517,0.683-0.79c0.054-0.07,0.105-0.142,0.157-0.214c0.222-0.31,0.427-0.627,0.6-0.959
		c0.001-0.001,0.001-0.003,0.002-0.005c0.188-0.361,0.339-0.735,0.467-1.115c0.01-0.03,0.026-0.057,0.036-0.087l16.111-49.24
		l55.463-55.463l79.048,79.048l-51.157,51.156l-62.284-62.283c-3.125-3.123-8.189-3.123-11.314,0c-3.124,3.125-3.124,8.19,0,11.314
		l58.813,58.813l-33.783,11.353l-31.342-31.342c-3.123-3.121-8.188-3.123-11.314,0c-3.124,3.125-3.124,8.189,0,11.314l29.19,29.189
		L62.321,382.902z"/>
	<path d="M195.27,170.637c-0.617,0.617-1.193,1.263-1.733,1.932l-32.124,32.125c-0.195,0.195-0.378,0.398-0.549,0.608
		c-8.781,9.4-8.615,24.178,0.549,33.343c4.681,4.68,10.828,7.02,16.976,7.02c5.891,0,11.768-2.173,16.368-6.471
		c0.209-0.171,0.412-0.354,0.608-0.549l32.119-32.119c0.671-0.542,1.319-1.119,1.937-1.737c4.561-4.562,7.073-10.626,7.073-17.076
		s-2.513-12.515-7.073-17.075c-4.562-4.561-10.626-7.073-17.076-7.073S199.83,166.076,195.27,170.637z M172.727,227.33
		c-3.122-3.121-3.122-8.201,0-11.322l17.84-17.84c1.166,2.424,2.744,4.662,4.702,6.62c1.958,1.959,4.196,3.537,6.62,4.703
		l-17.84,17.84C180.928,230.453,175.848,230.453,172.727,227.33z M220.494,187.712c0,1.892-0.643,3.685-1.821,5.132
		c-0.313,0.232-0.618,0.481-0.902,0.766l-0.826,0.826c-1.344,0.924-2.933,1.426-4.6,1.426c-2.176,0-4.222-0.848-5.761-2.388
		c-1.539-1.539-2.388-3.585-2.388-5.762c0-1.667,0.501-3.254,1.426-4.6l1.062-1.062c0.244-0.244,0.462-0.503,0.668-0.77
		c1.423-1.109,3.16-1.718,4.993-1.718c2.177,0,4.223,0.849,5.763,2.388C219.646,183.49,220.494,185.536,220.494,187.712z"/>
</g>
<g>
</g>
<g>
</g>
<g>
</g>
<g>
</g>
<g>
</g>
<g>
</g>
<g>
</g>
<g>
</g>
<g>
</g>
<g>
</g>
<g>
</g>
<g>
</g>
<g>
</g>
<g>
</g>
<g>
</g>
</svg>
