<svg xmlns="http://www.w3.org/2000/svg" viewBox="0 0 400.016 400.016" style="enable-background:new 0 0 400.016 400.016" xml:space="preserve"><path d="M392.412 73.134 326.717 7.44c-9.923-9.921-26.063-9.92-35.983 0l-67.097 67.097c-.055.055-.102.115-.155.171a7.499 7.499 0 0 0-.316.35c-.076.091-.147.184-.218.277-.086.113-.172.226-.253.344-.078.113-.15.229-.221.346a7.985 7.985 0 0 0-.184.312c-.077.14-.147.282-.215.426-.043.091-.087.181-.127.273-.07.163-.132.329-.19.496-.021.06-.048.116-.068.176l-16.111 49.24L5.973 326.555c-.085.084-.158.176-.238.263-3.582 3.709-5.562 8.569-5.562 13.739 0 5.289 2.06 10.263 5.8 14.003l39.657 39.657a19.677 19.677 0 0 0 14.003 5.799c5.289 0 10.262-2.06 14.002-5.799l199.631-199.632 48.938-16.445c.055-.019.106-.043.16-.063a8.09 8.09 0 0 0 .762-.319c.142-.068.282-.139.42-.216.106-.059.208-.121.311-.183a7.798 7.798 0 0 0 .684-.474c.054-.042.112-.078.166-.122.036-.029.07-.065.106-.095.12-.102.236-.208.35-.316.05-.048.103-.089.152-.138l67.098-67.097c4.792-4.793 7.431-11.182 7.431-17.992-.002-6.81-2.64-13.198-7.432-17.991zM308.726 16.01c2.535 0 4.907.975 6.677 2.745l65.694 65.693c3.331 3.33 3.638 8.544.943 12.235L303.167 17.81a9.402 9.402 0 0 1 5.559-1.8zM62.321 382.902a3.782 3.782 0 0 1-2.688 1.113 3.784 3.784 0 0 1-2.688-1.113l-39.657-39.657a3.783 3.783 0 0 1-1.114-2.688c0-.587.145-1.715 1.109-2.683l.005-.004 200.897-200.898.01-.009.052-.052c.25-.25.473-.517.683-.79.054-.07.105-.142.157-.214.222-.31.427-.627.6-.959l.002-.005c.188-.361.339-.735.467-1.115.01-.03.026-.057.036-.087l16.111-49.24 55.463-55.463 79.048 79.048-51.157 51.156-62.284-62.283a8 8 0 0 0-11.314 11.314l58.813 58.813-33.783 11.353-31.342-31.342a8 8 0 0 0-11.314 11.314l29.19 29.189L62.321 382.902z"/><path d="M195.27 170.637a24.412 24.412 0 0 0-1.733 1.932l-32.124 32.125a8.032 8.032 0 0 0-.549.608c-8.781 9.4-8.615 24.178.549 33.343 4.681 4.68 10.828 7.02 16.976 7.02a23.926 23.926 0 0 0 16.368-6.471c.209-.171.412-.354.608-.549l32.119-32.119a24.552 24.552 0 0 0 1.937-1.737c4.561-4.562 7.073-10.626 7.073-17.076s-2.513-12.515-7.073-17.075c-4.562-4.561-10.626-7.073-17.076-7.073s-12.515 2.511-17.075 7.072zm-22.543 56.693c-3.122-3.121-3.122-8.201 0-11.322l17.84-17.84a24.175 24.175 0 0 0 4.702 6.62 24.158 24.158 0 0 0 6.62 4.703l-17.84 17.84c-3.121 3.122-8.201 3.122-11.322-.001zm47.767-39.618a8.087 8.087 0 0 1-1.821 5.132 7.9 7.9 0 0 0-.902.766l-.826.826a8.087 8.087 0 0 1-4.6 1.426 8.091 8.091 0 0 1-5.761-2.388 8.096 8.096 0 0 1-2.388-5.762c0-1.667.501-3.254 1.426-4.6l1.062-1.062a7.92 7.92 0 0 0 .668-.77 8.084 8.084 0 0 1 4.993-1.718 8.1 8.1 0 0 1 5.763 2.388 8.102 8.102 0 0 1 2.386 5.762z"/></svg>