<svg xmlns="http://www.w3.org/2000/svg" viewBox="0 0 432.129 432.129" style="enable-background:new 0 0 432.129 432.129" xml:space="preserve"><path d="M348.038 336.649V21.322C348.038 9.565 338.473 0 326.716 0H105.413C93.656 0 84.091 9.565 84.091 21.322v389.484c0 11.757 9.565 21.322 21.322 21.322h221.303c11.757 0 21.322-9.565 21.322-21.322v-74.157zM157.434 165.361l174.604 174.604v12.038H100.091V108.019l25.343 25.343c1.562 1.563 3.609 2.344 5.657 2.344s4.095-.781 5.657-2.344a7.998 7.998 0 0 0 0-11.313l-36.657-36.656V64.337h231.947v253.001l-163.29-163.29a8 8 0 0 0-11.313 0 7.999 7.999 0 0 0-.001 11.313zM105.413 16h221.303c2.885 0 5.322 2.438 5.322 5.322v27.015H100.091V21.322c0-2.884 2.437-5.322 5.322-5.322zm221.303 400.129H105.413c-2.885 0-5.322-2.438-5.322-5.322v-42.803h231.947v42.803c0 2.884-2.437 5.322-5.322 5.322z"/><path d="M195.746 40.004h41.333a8 8 0 0 0 0-16h-41.333a8 8 0 0 0 0 16zM260.244 40.004c2.11 0 4.17-.85 5.66-2.34a8.068 8.068 0 0 0 2.34-5.66c0-2.11-.85-4.17-2.34-5.66a8.05 8.05 0 0 0-5.66-2.34c-2.11 0-4.17.85-5.66 2.34a8.093 8.093 0 0 0-2.34 5.66c0 2.1.86 4.17 2.34 5.66a8.05 8.05 0 0 0 5.66 2.34zM284.084 40.004c2.1 0 4.16-.85 5.65-2.34a8.096 8.096 0 0 0 2.35-5.66c0-2.11-.86-4.17-2.35-5.66a8.045 8.045 0 0 0-5.65-2.34c-2.11 0-4.17.85-5.66 2.34a8.05 8.05 0 0 0-2.34 5.66c0 2.1.85 4.17 2.34 5.66a8.05 8.05 0 0 0 5.66 2.34zM236.08 376.066h-40.031c-8.822 0-16 7.136-16 15.906s7.178 15.906 16 15.906h40.031c8.822 0 16-7.136 16-15.906s-7.178-15.906-16-15.906z"/></svg>