<?xml version="1.0" encoding="iso-8859-1"?>
<!-- Generator: Adobe Illustrator 17.1.0, SVG Export Plug-In . SVG Version: 6.00 Build 0)  -->
<!DOCTYPE svg PUBLIC "-//W3C//DTD SVG 1.1//EN" "http://www.w3.org/Graphics/SVG/1.1/DTD/svg11.dtd">
<svg version="1.1" id="Capa_1" xmlns="http://www.w3.org/2000/svg" xmlns:xlink="http://www.w3.org/1999/xlink" x="0px" y="0px"
	 viewBox="0 0 432.129 432.129" style="enable-background:new 0 0 432.129 432.129;" xml:space="preserve">
<g>
	<path d="M348.038,336.649V21.322C348.038,9.565,338.473,0,326.716,0H105.413C93.656,0,84.091,9.565,84.091,21.322v67.38
		c0,0.002,0,0.003,0,0.005v322.099c0,11.757,9.565,21.322,21.322,21.322h221.303c11.757,0,21.322-9.565,21.322-21.322v-74.152
		C348.038,336.653,348.038,336.651,348.038,336.649z M157.434,165.361l174.604,174.604v12.038H100.091V108.019l25.343,25.343
		c1.562,1.563,3.609,2.344,5.657,2.344s4.095-0.781,5.657-2.344c3.125-3.124,3.125-8.189,0-11.313l-36.657-36.656V64.337h231.947
		v253.001L168.748,154.048c-3.124-3.124-8.189-3.124-11.313,0C154.31,157.172,154.31,162.237,157.434,165.361z M105.413,16h221.303
		c2.885,0,5.322,2.438,5.322,5.322v27.015H100.091V21.322C100.091,18.438,102.528,16,105.413,16z M326.716,416.129H105.413
		c-2.885,0-5.322-2.438-5.322-5.322v-42.803h231.947v42.803C332.038,413.691,329.601,416.129,326.716,416.129z"/>
	<path d="M195.746,40.004h41.333c4.418,0,8-3.582,8-8s-3.582-8-8-8h-41.333c-4.418,0-8,3.582-8,8S191.328,40.004,195.746,40.004z"/>
	<path d="M260.244,40.004c2.11,0,4.17-0.85,5.66-2.34c1.49-1.49,2.34-3.56,2.34-5.66c0-2.11-0.85-4.17-2.34-5.66
		c-1.49-1.49-3.55-2.34-5.66-2.34c-2.11,0-4.17,0.85-5.66,2.34c-1.48,1.49-2.34,3.55-2.34,5.66c0,2.1,0.86,4.17,2.34,5.66
		C256.074,39.154,258.134,40.004,260.244,40.004z"/>
	<path d="M284.084,40.004c2.1,0,4.16-0.85,5.65-2.34c1.49-1.5,2.35-3.56,2.35-5.66c0-2.11-0.86-4.17-2.35-5.66
		c-1.49-1.49-3.55-2.34-5.65-2.34c-2.11,0-4.17,0.85-5.66,2.34c-1.49,1.49-2.34,3.55-2.34,5.66c0,2.1,0.85,4.17,2.34,5.66
		C279.914,39.154,281.974,40.004,284.084,40.004z"/>
	<path d="M236.08,376.066h-40.031c-8.822,0-16,7.136-16,15.906s7.178,15.906,16,15.906h40.031c8.822,0,16-7.136,16-15.906
		S244.902,376.066,236.08,376.066z"/>
</g>
<g>
</g>
<g>
</g>
<g>
</g>
<g>
</g>
<g>
</g>
<g>
</g>
<g>
</g>
<g>
</g>
<g>
</g>
<g>
</g>
<g>
</g>
<g>
</g>
<g>
</g>
<g>
</g>
<g>
</g>
</svg>
