<svg xmlns="http://www.w3.org/2000/svg" viewBox="0 0 408.143 408.143" style="enable-background:new 0 0 408.143 408.143" xml:space="preserve"><path d="M387.695 44.228H20.449C9.173 44.228 0 53.401 0 64.676v278.791c0 11.275 9.173 20.448 20.449 20.448h367.246c11.275 0 20.448-9.173 20.448-20.448V64.676c0-11.275-9.173-20.448-20.448-20.448zm4.448 299.239c0 2.411-2.037 4.448-4.448 4.448H20.449c-2.412 0-4.449-2.037-4.449-4.448V64.676c0-2.411 2.038-4.448 4.449-4.448h367.246c2.411 0 4.448 2.037 4.448 4.448v278.791z"/><path d="M160.047 76.001c-70.582 0-128.004 57.423-128.004 128.005S89.465 332.01 160.047 332.01c70.583 0 128.005-57.422 128.005-128.004S230.629 76.001 160.047 76.001zm0 240.009c-61.759 0-112.004-50.245-112.004-112.004 0-61.76 50.245-112.005 112.004-112.005 61.76 0 112.005 50.245 112.005 112.005 0 61.759-50.245 112.004-112.005 112.004zM336.155 123.311a8 8 0 0 0-8 8v160.667a8 8 0 0 0 16 0V131.311a8 8 0 0 0-8-8zM336.152 316.011a8.07 8.07 0 0 0-5.66 2.34 8.095 8.095 0 0 0-2.34 5.66c0 2.101.859 4.17 2.34 5.65a8.078 8.078 0 0 0 5.66 2.35c2.109 0 4.17-.859 5.66-2.35a8.014 8.014 0 0 0 2.34-5.65c0-2.109-.851-4.17-2.34-5.66a8.056 8.056 0 0 0-5.66-2.34z"/><path d="M165.702 209.732a8.08 8.08 0 0 0 2.35-5.66c0-2.101-.86-4.17-2.35-5.66a8.027 8.027 0 0 0-5.65-2.34c-2.11 0-4.17.85-5.66 2.34s-2.34 3.56-2.34 5.66.85 4.16 2.34 5.66a8.055 8.055 0 0 0 5.66 2.34 8.052 8.052 0 0 0 5.65-2.34zM360.072 316.011c-2.11 0-4.17.851-5.66 2.34a8.052 8.052 0 0 0-2.34 5.66c0 2.101.85 4.17 2.34 5.65a8.06 8.06 0 0 0 5.66 2.35c2.1 0 4.17-.859 5.649-2.35a7.978 7.978 0 0 0 2.351-5.65 8.011 8.011 0 0 0-8-8zM312.072 316.011c-2.11 0-4.17.851-5.66 2.34a8.052 8.052 0 0 0-2.34 5.66c0 2.101.85 4.17 2.34 5.65a8.06 8.06 0 0 0 5.66 2.35c2.1 0 4.17-.859 5.66-2.35a8.031 8.031 0 0 0 2.34-5.65c0-2.109-.851-4.17-2.34-5.66a8.056 8.056 0 0 0-5.66-2.34zM336.155 84.145a8 8 0 0 0-8 8v15.5a8 8 0 0 0 16 0v-15.5a8 8 0 0 0-8-8z"/><path d="M208.176 204.006c0-26.539-21.59-48.13-48.129-48.13-26.539 0-48.129 21.591-48.129 48.13 0 26.538 21.591 48.129 48.129 48.129 26.539 0 48.129-21.591 48.129-48.129zm-80.259 0c0-17.717 14.413-32.13 32.129-32.13s32.13 14.413 32.13 32.13c0 17.716-14.414 32.129-32.13 32.129s-32.129-14.413-32.129-32.129z"/><path d="M232.052 204.006c0 39.703-32.301 72.004-72.005 72.004a8 8 0 0 0 0 16c48.526 0 88.005-39.479 88.005-88.004a8 8 0 0 0-16 0zM168.047 124.001a8 8 0 0 0-8-8c-48.526 0-88.004 39.479-88.004 88.005a8 8 0 0 0 16 0c0-39.704 32.301-72.005 72.004-72.005a8 8 0 0 0 8-8z"/></svg>