<svg xmlns="http://www.w3.org/2000/svg" viewBox="0 0 415.99 415.99" style="enable-background:new 0 0 415.99 415.99" xml:space="preserve"><path d="M159.923 215.759c10.988 0 19.929-8.94 19.929-19.928 0-10.989-8.94-19.929-19.929-19.929s-19.929 8.94-19.929 19.929c0 10.988 8.941 19.928 19.929 19.928zm0-23.858a3.934 3.934 0 0 1 3.929 3.929c0 2.166-1.763 3.928-3.929 3.928s-3.929-1.762-3.929-3.928a3.934 3.934 0 0 1 3.929-3.929zM255.892 215.759c10.989 0 19.93-8.94 19.93-19.928 0-10.989-8.94-19.929-19.93-19.929-10.988 0-19.928 8.94-19.928 19.929 0 10.988 8.939 19.928 19.928 19.928zm0-23.858a3.934 3.934 0 0 1 3.93 3.929 3.933 3.933 0 0 1-3.93 3.928 3.932 3.932 0 0 1-3.928-3.928 3.933 3.933 0 0 1 3.928-3.929zM207.986 215.759c10.988 0 19.929-8.94 19.929-19.928 0-10.989-8.94-19.929-19.929-19.929s-19.929 8.94-19.929 19.929c.001 10.988 8.941 19.928 19.929 19.928zm0-23.858a3.934 3.934 0 0 1 3.929 3.929c0 2.166-1.763 3.928-3.929 3.928s-3.929-1.762-3.929-3.928a3.935 3.935 0 0 1 3.929-3.929zM159.923 168.003c10.988 0 19.929-8.94 19.929-19.928 0-10.989-8.94-19.929-19.929-19.929s-19.929 8.94-19.929 19.929c0 10.988 8.941 19.928 19.929 19.928zm0-23.857a3.934 3.934 0 0 1 3.929 3.929c0 2.166-1.763 3.928-3.929 3.928s-3.929-1.762-3.929-3.928a3.934 3.934 0 0 1 3.929-3.929zM255.892 168.003c10.989 0 19.93-8.94 19.93-19.928 0-10.989-8.94-19.929-19.93-19.929-10.988 0-19.928 8.94-19.928 19.929 0 10.988 8.939 19.928 19.928 19.928zm0-23.857a3.934 3.934 0 0 1 3.93 3.929 3.933 3.933 0 0 1-3.93 3.928 3.932 3.932 0 0 1-3.928-3.928 3.933 3.933 0 0 1 3.928-3.929zM207.986 168.003c10.988 0 19.929-8.94 19.929-19.928 0-10.989-8.94-19.929-19.929-19.929s-19.929 8.94-19.929 19.929c.001 10.988 8.941 19.928 19.929 19.928zm0-23.857a3.934 3.934 0 0 1 3.929 3.929c0 2.166-1.763 3.928-3.929 3.928s-3.929-1.762-3.929-3.928a3.935 3.935 0 0 1 3.929-3.929zM159.923 119.658c10.988 0 19.929-8.94 19.929-19.929S170.912 79.8 159.923 79.8s-19.929 8.94-19.929 19.929 8.941 19.929 19.929 19.929zm0-23.857c2.166 0 3.929 1.762 3.929 3.929s-1.763 3.929-3.929 3.929-3.929-1.762-3.929-3.929 1.763-3.929 3.929-3.929zM159.923 71.825c10.988 0 19.929-8.94 19.929-19.929a19.792 19.792 0 0 0-5.837-14.091 19.798 19.798 0 0 0-14.092-5.837c-10.988 0-19.929 8.94-19.929 19.929s8.941 19.928 19.929 19.928zm0-23.858c1.416 0 2.348.72 2.778 1.151.43.43 1.15 1.362 1.15 2.778 0 2.167-1.763 3.929-3.929 3.929s-3.929-1.762-3.929-3.929 1.764-3.929 3.93-3.929zM255.892 119.658c10.989 0 19.93-8.94 19.93-19.929s-8.94-19.929-19.93-19.929c-10.988 0-19.928 8.94-19.928 19.929s8.939 19.929 19.928 19.929zm0-23.857c2.167 0 3.93 1.762 3.93 3.929s-1.763 3.929-3.93 3.929c-2.166 0-3.928-1.762-3.928-3.929s1.762-3.929 3.928-3.929zM207.986 119.658c10.988 0 19.929-8.94 19.929-19.929S218.975 79.8 207.986 79.8s-19.929 8.94-19.929 19.929 8.941 19.929 19.929 19.929zm0-23.857c2.166 0 3.929 1.762 3.929 3.929s-1.763 3.929-3.929 3.929-3.929-1.762-3.929-3.929 1.763-3.929 3.929-3.929z"/><path d="M274.041 0H141.949c-18.748 0-34 15.252-34 34v347.99c0 18.748 15.252 34 34 34h132.092c18.748 0 34-15.252 34-34V34c0-18.748-15.252-34-34-34zm18 381.99c0 9.925-8.075 18-18 18H141.949c-9.925 0-18-8.075-18-18V34c0-9.925 8.075-18 18-18h132.092c9.925 0 18 8.075 18 18v347.99z"/><path d="M207.907 295.57c10.999 0 19.947-8.948 19.947-19.947v-15.8c0-10.999-8.948-19.947-19.947-19.947s-19.947 8.948-19.947 19.947v15.8c0 10.999 8.948 19.947 19.947 19.947zm-3.947-35.746c0-2.176 1.771-3.947 3.947-3.947s3.947 1.771 3.947 3.947v15.8c0 2.176-1.771 3.947-3.947 3.947s-3.947-1.771-3.947-3.947v-15.8zM207.907 320.394c-10.999 0-19.947 8.948-19.947 19.947v15.799c0 10.999 8.948 19.947 19.947 19.947s19.947-8.948 19.947-19.947v-15.799c0-10.999-8.948-19.947-19.947-19.947zm3.947 35.746c0 2.177-1.771 3.947-3.947 3.947s-3.947-1.771-3.947-3.947v-15.799c0-2.176 1.771-3.947 3.947-3.947s3.947 1.771 3.947 3.947v15.799zM195.496 307.982c0-10.999-8.948-19.948-19.947-19.948h-15.8c-10.998 0-19.946 8.949-19.946 19.948s8.948 19.947 19.946 19.947h15.8c10.999 0 19.947-8.948 19.947-19.947zm-19.947 3.947h-15.8a3.951 3.951 0 0 1-3.946-3.947 3.952 3.952 0 0 1 3.946-3.948h15.8a3.952 3.952 0 0 1 3.947 3.948 3.95 3.95 0 0 1-3.947 3.947zM256.065 288.035h-15.799c-10.999 0-19.947 8.949-19.947 19.948s8.948 19.947 19.947 19.947h15.799c10.999 0 19.947-8.948 19.947-19.947.001-11-8.948-19.948-19.947-19.948zm0 23.894h-15.799a3.951 3.951 0 0 1-3.947-3.947 3.952 3.952 0 0 1 3.947-3.948h15.799a3.952 3.952 0 0 1 3.947 3.948 3.95 3.95 0 0 1-3.947 3.947z"/></svg>