<?xml version="1.0" encoding="iso-8859-1"?>
<!-- Generator: Adobe Illustrator 17.1.0, SVG Export Plug-In . SVG Version: 6.00 Build 0)  -->
<!DOCTYPE svg PUBLIC "-//W3C//DTD SVG 1.1//EN" "http://www.w3.org/Graphics/SVG/1.1/DTD/svg11.dtd">
<svg version="1.1" id="Capa_1" xmlns="http://www.w3.org/2000/svg" xmlns:xlink="http://www.w3.org/1999/xlink" x="0px" y="0px"
	 viewBox="0 0 447.979 447.979" style="enable-background:new 0 0 447.979 447.979;" xml:space="preserve">
<g>
	<path d="M316.352,143.979h-0.3V8c0-4.418-3.582-8-8-8H139.927c-4.418,0-8,3.582-8,8v135.979h-2.164
		c-12.041,0-21.836,9.803-21.836,21.853v116.029c0,25.09,21.756,52.259,41.914,63.043c0.056,0.029,0.111,0.058,0.167,0.086
		l38.149,19.271v11.915c0,10.253,6.624,18.998,15.854,22.264v41.539c0,4.418,3.582,8,8,8h23.75c4.418,0,8-3.582,8-8v-41.398
		c9.447-3.148,16.272-11.998,16.272-22.405v-12.209l37.566-18.977c0.056-0.028,0.111-0.057,0.166-0.086
		c20.337-10.879,42.287-38.076,42.287-63.043V165.833C340.052,152.954,327.562,143.979,316.352,143.979z M220.011,431.979v-32.167
		h7.75v32.167H220.011z M244.033,376.177c0,4.21-3.524,7.636-7.857,7.636h-24.162c-4.332,0-7.856-3.426-7.856-7.636v-7.947h39.875
		V376.177z M290.296,330.754l-42.512,21.475h-47.961l-42.514-21.476c-15.775-8.483-33.382-31.16-33.382-48.892V165.833
		c0-3.228,2.618-5.853,5.836-5.853h139.164c4.418,0,8-3.582,8-8s-3.582-8-8-8h-121V16h152.125v128.102
		c-3.775,0.641-6.653,3.919-6.653,7.878c0,4.418,3.582,8,8,8h14.953c3.599,0,7.7,3.118,7.7,5.853v116.029
		C324.052,299.48,306.248,322.178,290.296,330.754z"/>
	<path d="M204.094,80.146h-31.833c-4.418,0-8,3.582-8,8v31.833c0,4.418,3.582,8,8,8h31.833c4.418,0,8-3.582,8-8V88.146
		C212.094,83.728,208.512,80.146,204.094,80.146z M196.094,111.979h-15.833V96.146h15.833V111.979z"/>
	<path d="M276.094,80.146H244.26c-4.418,0-8,3.582-8,8v31.833c0,4.418,3.582,8,8,8h31.834c4.418,0,8-3.582,8-8V88.146
		C284.094,83.728,280.512,80.146,276.094,80.146z M268.094,111.979H252.26V96.146h15.834V111.979z"/>
</g>
<g>
</g>
<g>
</g>
<g>
</g>
<g>
</g>
<g>
</g>
<g>
</g>
<g>
</g>
<g>
</g>
<g>
</g>
<g>
</g>
<g>
</g>
<g>
</g>
<g>
</g>
<g>
</g>
<g>
</g>
</svg>
