<svg xmlns="http://www.w3.org/2000/svg" viewBox="0 0 399.806 399.806" style="enable-background:new 0 0 399.806 399.806" xml:space="preserve"><path d="M397.457 87.027 312.785 2.344a7.997 7.997 0 0 0-11.314 0l-67.84 67.851c-4.731-4.035-10.689-6.24-17-6.24-7.023 0-13.614 2.724-18.557 7.668L26.73 242.976l-.005.005c-35.721 35.743-35.61 93.994.247 129.851 17.318 17.324 40.368 26.904 64.905 26.974h.271c24.447-.001 47.386-9.459 64.625-26.656l.06-.059 171.346-171.347c4.951-4.948 7.677-11.54 7.677-18.563 0-6.304-2.204-12.259-6.236-16.994l67.837-67.848a8 8 0 0 0 0-11.312zm-83.863 72.56a8.092 8.092 0 0 0-.442.489c-.147.127-.295.253-.434.393a8 8 0 0 0 0 11.314l4.149 4.148a10.177 10.177 0 0 1 2.989 7.25c0 2.747-1.061 5.32-2.989 7.248L145.585 361.711l-.053.052c-14.225 14.22-33.175 22.042-53.385 22.042h-.224c-20.279-.058-39.328-7.973-53.637-22.287-29.62-29.62-29.73-77.72-.248-107.224l.003-.003L209.39 82.935c1.921-1.922 4.493-2.98 7.241-2.98s5.32 1.059 7.243 2.982l68.94 68.943a7.998 7.998 0 0 0 11.313 0 7.998 7.998 0 0 0 0-11.313l-59.119-59.121 62.12-62.13 73.358 73.369-66.892 66.902z"/><path d="M290.115 58.87a8 8 0 0 0-11.488.176L261.83 75.844a7.999 7.999 0 0 0 0 11.313l16.925 16.928a7.998 7.998 0 0 0 11.313.001l16.97-16.967a8 8 0 0 0 .002-11.312L290.115 58.87zm-5.703 28.244-5.613-5.613 5.658-5.658 5.612 5.615-5.657 5.656zM295.77 121.097l16.925 16.928a7.998 7.998 0 0 0 11.313.001l16.97-16.967a8 8 0 0 0 .002-11.312L324.055 92.81a8 8 0 0 0-11.496.184l-16.789 16.79a8 8 0 0 0 0 11.313zm22.628-11.314 5.612 5.616-5.657 5.656-5.613-5.614 5.658-5.658zM229.865 109.892c-3.728-3.73-8.695-5.784-13.988-5.784-5.293 0-10.261 2.054-13.987 5.782L86.452 225.334l-.002.002c-24.172 24.186-24.1 63.6.16 87.859 12.161 12.165 28.128 18.251 44.078 18.25 15.873 0 31.73-6.028 43.796-18.09l.052-.052 115.377-115.377c3.733-3.73 5.789-8.7 5.789-13.992 0-5.292-2.055-10.261-5.787-13.991l-60.05-60.051zm48.736 76.719L163.163 302.049l-.044.044c-8.942 8.91-20.675 13.361-32.43 13.359-11.851-.001-23.723-4.526-32.764-13.57-18.024-18.024-18.094-47.289-.157-65.236l-.001.001 115.439-115.445c.952-.952 2.083-1.094 2.672-1.094s1.719.142 2.673 1.096l60.051 60.054c.957.957 1.1 2.088 1.1 2.677s-.143 1.719-1.101 2.676z"/></svg>