<svg xmlns="http://www.w3.org/2000/svg" viewBox="0 0 448.021 448.021" style="enable-background:new 0 0 448.021 448.021" xml:space="preserve"><path d="M316.373 144.021h-.698V32c0-17.645-14.355-32-32-32H163.948c-17.645 0-32 14.355-32 32v112.021h-2.164c-12.04 0-21.836 9.803-21.836 21.853v116.03c0 25.09 21.757 52.259 41.914 63.042l.166.086 38.149 19.271v11.915c0 10.252 6.624 18.997 15.854 22.263v41.539a8 8 0 0 0 8 8h23.75a8 8 0 0 0 8-8v-41.399c9.447-3.148 16.272-11.998 16.272-22.404V364.01l37.566-18.977.166-.086c20.337-10.879 42.287-38.075 42.287-63.042v-116.03c.001-12.879-12.489-21.854-23.699-21.854zm-96.342 288v-32.167h7.75v32.167h-7.75zm24.023-55.802c0 4.21-3.524 7.636-7.857 7.636h-24.162c-4.332 0-7.856-3.425-7.856-7.636v-7.947h39.876v7.947zm46.263-45.423-42.512 21.476h-47.96l-42.514-21.475c-15.775-8.483-33.383-31.16-33.383-48.893v-116.03c0-3.227 2.618-5.853 5.836-5.853h139.164a8 8 0 0 0 0-16h-121V32c0-8.822 7.178-16 16-16h15.396v79.917a8 8 0 0 0 16 0V16h20.177v79.917a8 8 0 0 0 16 0V16h19.99v79.917a8 8 0 0 0 16 0V16h16.164c8.822 0 16 7.178 16 16v112.03c-4.339.091-7.831 3.63-7.831 7.991a8 8 0 0 0 8 8h16.529c3.599 0 7.7 3.118 7.7 5.853v116.03c0 17.619-17.804 40.316-33.756 48.892z"/></svg>