<svg xmlns="http://www.w3.org/2000/svg" viewBox="0 0 447.979 447.979" style="enable-background:new 0 0 447.979 447.979" xml:space="preserve"><path d="M316.352 143.979h-.3V8a8 8 0 0 0-8-8H139.927a8 8 0 0 0-8 8v135.979h-2.164c-12.041 0-21.836 9.803-21.836 21.853v116.029c0 25.09 21.756 52.259 41.914 63.043l.167.086 38.149 19.271v11.915c0 10.253 6.624 18.998 15.854 22.264v41.539a8 8 0 0 0 8 8h23.75a8 8 0 0 0 8-8v-41.398c9.447-3.148 16.272-11.998 16.272-22.405v-12.209l37.566-18.977.166-.086c20.337-10.879 42.287-38.076 42.287-63.043V165.833c0-12.879-12.49-21.854-23.7-21.854zm-96.341 288v-32.167h7.75v32.167h-7.75zm24.022-55.802c0 4.21-3.524 7.636-7.857 7.636h-24.162c-4.332 0-7.856-3.426-7.856-7.636v-7.947h39.875v7.947zm46.263-45.423-42.512 21.475h-47.961l-42.514-21.476c-15.775-8.483-33.382-31.16-33.382-48.892V165.833c0-3.228 2.618-5.853 5.836-5.853h139.164a8 8 0 0 0 0-16h-121V16h152.125v128.102c-3.775.641-6.653 3.919-6.653 7.878a8 8 0 0 0 8 8h14.953c3.599 0 7.7 3.118 7.7 5.853v116.029c0 17.618-17.804 40.316-33.756 48.892z"/><path d="M204.094 80.146h-31.833a8 8 0 0 0-8 8v31.833a8 8 0 0 0 8 8h31.833a8 8 0 0 0 8-8V88.146a8 8 0 0 0-8-8zm-8 31.833h-15.833V96.146h15.833v15.833zM276.094 80.146H244.26a8 8 0 0 0-8 8v31.833a8 8 0 0 0 8 8h31.834a8 8 0 0 0 8-8V88.146a8 8 0 0 0-8-8zm-8 31.833H252.26V96.146h15.834v15.833z"/></svg>