<?xml version="1.0" encoding="iso-8859-1"?>
<!-- Generator: Adobe Illustrator 17.1.0, SVG Export Plug-In . SVG Version: 6.00 Build 0)  -->
<!DOCTYPE svg PUBLIC "-//W3C//DTD SVG 1.1//EN" "http://www.w3.org/Graphics/SVG/1.1/DTD/svg11.dtd">
<svg version="1.1" id="Capa_1" xmlns="http://www.w3.org/2000/svg" xmlns:xlink="http://www.w3.org/1999/xlink" x="0px" y="0px"
	 viewBox="0 0 448.021 448.021" style="enable-background:new 0 0 448.021 448.021;" xml:space="preserve">
<path d="M316.373,144.021h-0.698V32c0-17.645-14.355-32-32-32H163.948c-17.645,0-32,14.355-32,32v112.021h-2.164
	c-12.04,0-21.836,9.803-21.836,21.853v116.03c0,25.09,21.757,52.259,41.914,63.042c0.055,0.029,0.11,0.058,0.166,0.086
	l38.149,19.271v11.915c0,10.252,6.624,18.997,15.854,22.263v41.539c0,4.418,3.582,8,8,8h23.75c4.418,0,8-3.582,8-8v-41.399
	c9.447-3.148,16.272-11.998,16.272-22.404V364.01l37.566-18.977c0.056-0.028,0.111-0.057,0.166-0.086
	c20.337-10.879,42.287-38.075,42.287-63.042v-116.03C340.073,152.996,327.583,144.021,316.373,144.021z M220.031,432.021v-32.167
	h7.75v32.167H220.031z M244.054,376.219c0,4.21-3.524,7.636-7.857,7.636h-24.162c-4.332,0-7.856-3.425-7.856-7.636v-7.947h39.876
	V376.219z M290.317,330.796l-42.512,21.476h-47.96l-42.514-21.475c-15.775-8.483-33.383-31.16-33.383-48.893v-116.03
	c0-3.227,2.618-5.853,5.836-5.853h139.164c4.418,0,8-3.582,8-8s-3.582-8-8-8h-121V32c0-8.822,7.178-16,16-16h15.396v79.917
	c0,4.418,3.582,8,8,8s8-3.582,8-8V16h20.177v79.917c0,4.418,3.582,8,8,8s8-3.582,8-8V16h19.99v79.917c0,4.418,3.582,8,8,8
	s8-3.582,8-8V16h16.164c8.822,0,16,7.178,16,16v112.03c-4.339,0.091-7.831,3.63-7.831,7.991c0,4.418,3.582,8,8,8h16.529
	c3.599,0,7.7,3.118,7.7,5.853v116.03C324.073,299.523,306.269,322.22,290.317,330.796z"/>
<g>
</g>
<g>
</g>
<g>
</g>
<g>
</g>
<g>
</g>
<g>
</g>
<g>
</g>
<g>
</g>
<g>
</g>
<g>
</g>
<g>
</g>
<g>
</g>
<g>
</g>
<g>
</g>
<g>
</g>
</svg>
