<svg xmlns="http://www.w3.org/2000/svg" viewBox="0 0 447.991 447.991" style="enable-background:new 0 0 447.991 447.991" xml:space="preserve"><path d="M140.402 317.13a8 8 0 0 0-15.061 5.4 39.741 39.741 0 0 1 2.326 13.451c0 21.964-17.869 39.833-39.833 39.833C65.869 375.815 48 357.946 48 335.982c0-21.965 17.869-39.834 39.833-39.834 4.412 0 8.742.714 12.87 2.123a7.998 7.998 0 0 0 10.155-4.987 8 8 0 0 0-4.987-10.155 55.717 55.717 0 0 0-18.038-2.98C57.047 280.148 32 305.195 32 335.982c0 30.786 25.047 55.833 55.833 55.833s55.833-25.047 55.833-55.833a55.677 55.677 0 0 0-3.264-18.852z"/><path d="M447.967 407.267c-.342-21.637-18.049-39.133-39.766-39.133h-8.563V104.072c0-35.29-28.71-64-64-64h-80.333v-7.896a8 8 0 0 0-8-8h-55.639c-44.112 0-80 35.888-80 80v104.083h-56.11c-17.645 0-32 14.355-32 32v35.625c0 .098.011.194.015.292C8.956 291.869 0 312.897 0 335.982c0 48.432 39.402 87.833 87.833 87.833 13.184 0 25.696-2.925 36.929-8.152.092.003.181.014.274.014h170.269c17.645 0 32-14.355 32-32V315.96c0-59.386-48.314-107.7-107.7-107.7h-59.938V104.176c0-17.645 14.355-32 32-32h55.639a8 8 0 0 0 8-8v-8.104h80.333c26.467 0 48 21.532 48 48v264.063h-8.229c-21.93 0-39.771 17.841-39.771 39.771a8 8 0 0 0 8 8h96.353a8 8 0 0 0 7.975-8.639zM16 335.982c0-39.609 32.225-71.834 71.833-71.834s71.833 32.225 71.833 71.834c0 39.608-32.224 71.833-71.833 71.833S16 375.59 16 335.982zm295.306-20.023v52.175H296a8 8 0 0 0 0 16h15.282c-.245 8.609-7.309 15.542-15.977 15.542H148.25a88.457 88.457 0 0 0 13.003-15.542H263.5a8 8 0 0 0 0-16h-93.927c3.932-9.962 6.094-20.81 6.094-32.152 0-48.432-39.402-87.834-87.833-87.834-17.821 0-34.415 5.34-48.278 14.496v-22.385c0-8.822 7.178-16 16-16h164.05c50.563 0 91.7 41.137 91.7 91.7zM143.667 104.176v104.083h-16V104.176c0-35.29 28.71-64 64-64h47.639v16h-47.639c-26.467 0-48 21.532-48 48zm209.356 295.729c3.292-9.184 12.084-15.771 22.386-15.771h32.792c10.302 0 19.094 6.587 22.386 15.771h-77.564z"/></svg>