<svg xmlns="http://www.w3.org/2000/svg" viewBox="0 0 432.188 432.188" style="enable-background:new 0 0 432.188 432.188" xml:space="preserve"><path d="M410.961 135.925h-18.092c-12.368-28.048-40.423-47.684-72.993-47.684-32.57 0-60.626 19.636-72.994 47.684H21.227C9.522 135.925 0 145.448 0 157.152v149.606c0 11.705 9.522 21.227 21.227 21.227h3.201c1.808 9.088 9.839 15.961 19.451 15.961 9.611 0 17.642-6.873 19.45-15.961h305.453c1.808 9.088 9.839 15.961 19.451 15.961s17.643-6.873 19.451-15.961h3.278c11.705 0 21.227-9.522 21.227-21.227V157.152c-.001-11.704-9.523-21.227-21.228-21.227zm-91.086-31.684c35.15 0 63.746 28.597 63.746 63.747s-28.596 63.747-63.746 63.747c-35.15 0-63.747-28.597-63.747-63.747s28.597-63.747 63.747-63.747zm96.313 202.518c0 2.833-2.394 5.227-5.227 5.227H21.227c-2.833 0-5.227-2.394-5.227-5.227V157.152c0-2.833 2.394-5.227 5.227-5.227h220.527a79.773 79.773 0 0 0-1.626 16.063c0 43.973 35.774 79.747 79.747 79.747 43.972 0 79.746-35.774 79.746-79.747 0-5.5-.56-10.873-1.626-16.063h12.965c2.833 0 5.227 2.394 5.227 5.227v149.607z"/><path d="M319.875 215.971c26.458 0 47.982-21.525 47.982-47.983s-21.525-47.983-47.982-47.983c-26.458 0-47.983 21.525-47.983 47.983s21.525 47.983 47.983 47.983zm0-79.966c17.635 0 31.982 14.348 31.982 31.983 0 17.636-14.347 31.983-31.982 31.983-17.636 0-31.983-14.348-31.983-31.983 0-17.635 14.348-31.983 31.983-31.983z"/><path d="M319.875 191.952c13.214 0 23.964-10.75 23.964-23.964a8 8 0 0 0-16 0c0 4.392-3.573 7.964-7.964 7.964-4.392 0-7.965-3.573-7.965-7.964s3.573-7.964 7.965-7.964a8 8 0 0 0 0-16c-13.214 0-23.965 10.75-23.965 23.964s10.751 23.964 23.965 23.964zM383.983 256.177c-13.28 0-24.084 10.805-24.084 24.085s10.804 24.084 24.084 24.084c13.281 0 24.085-10.804 24.085-24.084s-10.804-24.085-24.085-24.085zm0 32.17c-4.458 0-8.084-3.626-8.084-8.084s3.626-8.085 8.084-8.085 8.085 3.627 8.085 8.085-3.627 8.084-8.085 8.084zM335.959 264.177c-8.869 0-16.084 7.216-16.084 16.085s7.215 16.084 16.084 16.084 16.085-7.215 16.085-16.084-7.215-16.085-16.085-16.085zM184.125 183.925H47.756a8 8 0 0 0 0 16h136.369a8 8 0 0 0 0-16zM184.125 224.092H47.756a8 8 0 0 0 0 16h136.369a8 8 0 0 0 0-16zM184.125 264.259H47.756a8 8 0 0 0 0 16h136.369a8 8 0 0 0 0-16z"/></svg>