<?xml version="1.0" encoding="iso-8859-1"?>
<!-- Generator: Adobe Illustrator 17.1.0, SVG Export Plug-In . SVG Version: 6.00 Build 0)  -->
<!DOCTYPE svg PUBLIC "-//W3C//DTD SVG 1.1//EN" "http://www.w3.org/Graphics/SVG/1.1/DTD/svg11.dtd">
<svg version="1.1" id="Capa_1" xmlns="http://www.w3.org/2000/svg" xmlns:xlink="http://www.w3.org/1999/xlink" x="0px" y="0px"
	 viewBox="0 0 432.188 432.188" style="enable-background:new 0 0 432.188 432.188;" xml:space="preserve">
<g>
	<path d="M410.961,135.925h-18.092c-12.368-28.048-40.423-47.684-72.993-47.684c-32.57,0-60.626,19.636-72.994,47.684H21.227
		C9.522,135.925,0,145.448,0,157.152v149.606c0,11.705,9.522,21.227,21.227,21.227h3.201c1.808,9.088,9.839,15.961,19.451,15.961
		c9.611,0,17.642-6.873,19.45-15.961h305.453c1.808,9.088,9.839,15.961,19.451,15.961s17.643-6.873,19.451-15.961h3.278
		c11.705,0,21.227-9.522,21.227-21.227V157.152C432.188,145.448,422.666,135.925,410.961,135.925z M319.875,104.241
		c35.15,0,63.746,28.597,63.746,63.747c0,35.15-28.596,63.747-63.746,63.747c-35.15,0-63.747-28.597-63.747-63.747
		C256.128,132.838,284.725,104.241,319.875,104.241z M416.188,306.759c0,2.833-2.394,5.227-5.227,5.227H21.227
		c-2.833,0-5.227-2.394-5.227-5.227V157.152c0-2.833,2.394-5.227,5.227-5.227h220.527c-1.066,5.19-1.626,10.562-1.626,16.063
		c0,43.973,35.774,79.747,79.747,79.747c43.972,0,79.746-35.774,79.746-79.747c0-5.5-0.56-10.873-1.626-16.063h12.965
		c2.833,0,5.227,2.394,5.227,5.227V306.759z"/>
	<path d="M319.875,215.971c26.458,0,47.982-21.525,47.982-47.983s-21.525-47.983-47.982-47.983
		c-26.458,0-47.983,21.525-47.983,47.983S293.417,215.971,319.875,215.971z M319.875,136.005c17.635,0,31.982,14.348,31.982,31.983
		c0,17.636-14.347,31.983-31.982,31.983c-17.636,0-31.983-14.348-31.983-31.983C287.892,150.353,302.24,136.005,319.875,136.005z"/>
	<path d="M319.875,191.952c13.214,0,23.964-10.75,23.964-23.964c0-4.418-3.582-8-8-8s-8,3.582-8,8c0,4.392-3.573,7.964-7.964,7.964
		c-4.392,0-7.965-3.573-7.965-7.964c0-4.391,3.573-7.964,7.965-7.964c4.418,0,8-3.582,8-8s-3.582-8-8-8
		c-13.214,0-23.965,10.75-23.965,23.964S306.661,191.952,319.875,191.952z"/>
	<path d="M383.983,256.177c-13.28,0-24.084,10.805-24.084,24.085s10.804,24.084,24.084,24.084c13.281,0,24.085-10.804,24.085-24.084
		S397.264,256.177,383.983,256.177z M383.983,288.347c-4.458,0-8.084-3.626-8.084-8.084s3.626-8.085,8.084-8.085
		c4.458,0,8.085,3.627,8.085,8.085S388.441,288.347,383.983,288.347z"/>
	<path d="M335.959,264.177c-8.869,0-16.084,7.216-16.084,16.085s7.215,16.084,16.084,16.084s16.085-7.215,16.085-16.084
		S344.829,264.177,335.959,264.177z"/>
	<path d="M184.125,183.925H47.756c-4.418,0-8,3.582-8,8s3.582,8,8,8h136.369c4.418,0,8-3.582,8-8S188.543,183.925,184.125,183.925z"
		/>
	<path d="M184.125,224.092H47.756c-4.418,0-8,3.582-8,8s3.582,8,8,8h136.369c4.418,0,8-3.582,8-8S188.543,224.092,184.125,224.092z"
		/>
	<path d="M184.125,264.259H47.756c-4.418,0-8,3.582-8,8s3.582,8,8,8h136.369c4.418,0,8-3.582,8-8S188.543,264.259,184.125,264.259z"
		/>
</g>
<g>
</g>
<g>
</g>
<g>
</g>
<g>
</g>
<g>
</g>
<g>
</g>
<g>
</g>
<g>
</g>
<g>
</g>
<g>
</g>
<g>
</g>
<g>
</g>
<g>
</g>
<g>
</g>
<g>
</g>
</svg>
