<?xml version="1.0" encoding="iso-8859-1"?>
<!-- Generator: Adobe Illustrator 17.1.0, SVG Export Plug-In . SVG Version: 6.00 Build 0)  -->
<!DOCTYPE svg PUBLIC "-//W3C//DTD SVG 1.1//EN" "http://www.w3.org/Graphics/SVG/1.1/DTD/svg11.dtd">
<svg version="1.1" id="Capa_1" xmlns="http://www.w3.org/2000/svg" xmlns:xlink="http://www.w3.org/1999/xlink" x="0px" y="0px"
	 viewBox="0 0 447.374 447.374" style="enable-background:new 0 0 447.374 447.374;" xml:space="preserve">
<g>
	<path d="M167.482,111.687c0-4.418-3.582-8-8-8s-8,3.582-8,8c0,13.316-10.833,24.15-24.15,24.15s-24.15-10.833-24.15-24.15
		s10.833-24.15,24.15-24.15c4.418,0,8-3.582,8-8s-3.582-8-8-8c-22.139,0-40.15,18.011-40.15,40.15s18.011,40.15,40.15,40.15
		S167.482,133.826,167.482,111.687z"/>
	<path d="M311.666,151.837c22.139,0,40.15-18.011,40.15-40.15c0-4.418-3.582-8-8-8s-8,3.582-8,8c0,13.316-10.833,24.15-24.15,24.15
		s-24.15-10.833-24.15-24.15s10.833-24.15,24.15-24.15c4.418,0,8-3.582,8-8s-3.582-8-8-8c-22.139,0-40.15,18.011-40.15,40.15
		S289.527,151.837,311.666,151.837z"/>
	<path d="M431.374,256.021h-16.021c-8.71,0-15.803,6.999-15.983,15.667h-15.684v-39.333c0-13.234-10.767-24-24-24h-40.021v-17.068
		c40.37-4.027,72-38.187,72-79.599c0-44.112-35.888-80-80-80c-41.412,0-75.572,31.63-79.599,72h-25.135
		c-4.027-40.37-38.187-72-79.599-72c-44.112,0-80,35.888-80,80c0,41.412,31.63,75.572,72,79.599v17.068H87.521
		c-10.178,0-18.891,6.372-22.374,15.333h-17.16c-0.353-8.512-7.369-15.333-15.966-15.333H16c-8.822,0-16,7.178-16,16v40
		c0,8.822,7.178,16,16,16h16.021c6.178,0,11.54-3.526,14.204-8.667h17.296v120c0,13.234,10.767,24,24,24h272.166
		c13.233,0,24-10.766,24-24v-39.333h15.684c0.18,8.668,7.273,15.667,15.983,15.667h16.021c8.822,0,16-7.178,16-16v-80
		C447.374,263.198,440.196,256.021,431.374,256.021z M311.666,47.687c35.29,0,64,28.71,64,64s-28.71,64-64,64s-64-28.71-64-64
		S276.376,47.687,311.666,47.687z M63.333,111.687c0-35.29,28.71-64,64-64s64,28.71,64,64s-28.71,64-64,64
		S63.333,146.977,63.333,111.687z M135.333,191.286c37.738-3.764,67.835-33.861,71.599-71.599h25.135
		c3.764,37.738,33.861,67.835,71.599,71.599v17.068H135.333V191.286z M16,264.354v-40h16.021l0,7.328c0,0.002,0,0.004,0,0.005
		s0,0.004,0,0.005l0.001,31.966c0,0.01-0.001,0.019-0.001,0.029s0.001,0.019,0.001,0.029v0.638H16z M48.021,255.687v-16h15.5v16
		H48.021z M359.687,399.687H87.521c-4.411,0-8-3.589-8-8V232.354c0-4.411,3.589-8,8-8h272.166c4.411,0,8,3.589,8,8v127.333H111.854
		c-4.418,0-8,3.582-8,8s3.582,8,8,8h255.833v16C367.687,396.098,364.098,399.687,359.687,399.687z M383.687,287.687h15.667v48.667
		h-15.667V287.687z M415.354,352.021v-7.667v-64.667v-7.667h16.021l0.001,80H415.354z"/>
</g>
<g>
</g>
<g>
</g>
<g>
</g>
<g>
</g>
<g>
</g>
<g>
</g>
<g>
</g>
<g>
</g>
<g>
</g>
<g>
</g>
<g>
</g>
<g>
</g>
<g>
</g>
<g>
</g>
<g>
</g>
</svg>
