<svg xmlns="http://www.w3.org/2000/svg" viewBox="0 0 447.374 447.374" style="enable-background:new 0 0 447.374 447.374" xml:space="preserve"><path d="M167.482 111.687a8 8 0 0 0-16 0c0 13.316-10.833 24.15-24.15 24.15s-24.15-10.833-24.15-24.15 10.833-24.15 24.15-24.15a8 8 0 0 0 0-16c-22.139 0-40.15 18.011-40.15 40.15s18.011 40.15 40.15 40.15 40.15-18.011 40.15-40.15zM311.666 151.837c22.139 0 40.15-18.011 40.15-40.15a8 8 0 0 0-16 0c0 13.316-10.833 24.15-24.15 24.15s-24.15-10.833-24.15-24.15 10.833-24.15 24.15-24.15a8 8 0 0 0 0-16c-22.139 0-40.15 18.011-40.15 40.15s18.011 40.15 40.15 40.15z"/><path d="M431.374 256.021h-16.021c-8.71 0-15.803 6.999-15.983 15.667h-15.684v-39.333c0-13.234-10.767-24-24-24h-40.021v-17.068c40.37-4.027 72-38.187 72-79.599 0-44.112-35.888-80-80-80-41.412 0-75.572 31.63-79.599 72h-25.135c-4.027-40.37-38.187-72-79.599-72-44.112 0-80 35.888-80 80 0 41.412 31.63 75.572 72 79.599v17.068H87.521c-10.178 0-18.891 6.372-22.374 15.333h-17.16c-.353-8.512-7.369-15.333-15.966-15.333H16c-8.822 0-16 7.178-16 16v40c0 8.822 7.178 16 16 16h16.021c6.178 0 11.54-3.526 14.204-8.667h17.296v120c0 13.234 10.767 24 24 24h272.166c13.233 0 24-10.766 24-24v-39.333h15.684c.18 8.668 7.273 15.667 15.983 15.667h16.021c8.822 0 16-7.178 16-16v-80c-.001-8.824-7.179-16.001-16.001-16.001zM311.666 47.687c35.29 0 64 28.71 64 64s-28.71 64-64 64-64-28.71-64-64 28.71-64 64-64zm-248.333 64c0-35.29 28.71-64 64-64s64 28.71 64 64-28.71 64-64 64-64-28.71-64-64zm72 79.599c37.738-3.764 67.835-33.861 71.599-71.599h25.135c3.764 37.738 33.861 67.835 71.599 71.599v17.068H135.333v-17.068zM16 264.354v-40h16.021v7.338l.001 31.966-.001.029.001.029v.638H16zm32.021-8.667v-16h15.5v16h-15.5zm311.666 144H87.521c-4.411 0-8-3.589-8-8V232.354c0-4.411 3.589-8 8-8h272.166c4.411 0 8 3.589 8 8v127.333H111.854a8 8 0 0 0 0 16h255.833v16c0 4.411-3.589 8-8 8zm24-112h15.667v48.667h-15.667v-48.667zm31.667 64.334V272.02h16.021l.001 80h-16.022z"/></svg>