<svg xmlns="http://www.w3.org/2000/svg" viewBox="0 0 399.935 399.935" style="enable-background:new 0 0 399.935 399.935" xml:space="preserve"><path d="M367.885 128.051H83.678l152.597-97.509a8 8 0 0 0-8.615-13.483L53.963 128.051H32.05C14.377 128.051 0 142.423 0 160.089v192.008c0 17.666 14.377 32.038 32.05 32.038h335.835c17.672 0 32.049-14.372 32.049-32.038V160.089c.001-17.666-14.377-32.038-32.049-32.038zm16.05 224.045c0 8.844-7.2 16.038-16.049 16.038H32.05c-8.85 0-16.05-7.194-16.05-16.038V160.089c0-8.844 7.2-16.038 16.05-16.038h24.242l.016.001.014-.001h311.563c8.85 0 16.049 7.194 16.049 16.038v192.007z"/><path d="M119.977 175.961c-44.191 0-80.143 35.947-80.143 80.132s35.952 80.132 80.143 80.132 80.144-35.947 80.144-80.132-35.953-80.132-80.144-80.132zm0 144.263c-35.369 0-64.143-28.77-64.143-64.132s28.774-64.132 64.143-64.132 64.144 28.77 64.144 64.132-28.775 64.132-64.144 64.132zM344.634 175.961h-96.167a8 8 0 0 0-8 8v40.121a8 8 0 0 0 8 8h96.167a8 8 0 0 0 8-8v-40.121a8 8 0 0 0-8-8zm-8 40.121h-80.167v-24.121h80.167v24.121zM248.217 248.072a8 8 0 0 0-8 8v71.98a8 8 0 0 0 16 0v-71.98a8 8 0 0 0-8-8zM280.352 248.072a8 8 0 0 0-8 8v71.98a8 8 0 0 0 16 0v-71.98a8 8 0 0 0-8-8zM312.486 248.072a8 8 0 0 0-8 8v71.98a8 8 0 0 0 16 0v-71.98a8 8 0 0 0-8-8zM344.634 248.072a8 8 0 0 0-8 8v71.98a8 8 0 0 0 16 0v-71.98a8 8 0 0 0-8-8z"/><path d="M153.333 232.94a8 8 0 0 0-4.158 10.521 31.573 31.573 0 0 1 2.606 12.631c0 17.533-14.268 31.798-31.805 31.798s-31.804-14.265-31.804-31.798 14.267-31.798 31.804-31.798c4.811 0 9.428 1.044 13.724 3.103a7.999 7.999 0 0 0 10.672-3.756 8 8 0 0 0-3.757-10.672c-6.471-3.103-13.416-4.675-20.639-4.675-26.359 0-47.804 21.442-47.804 47.798s21.445 47.798 47.804 47.798c26.36 0 47.805-21.442 47.805-47.798a47.474 47.474 0 0 0-3.926-18.994 7.998 7.998 0 0 0-10.522-4.158z"/></svg>