<?xml version="1.0" encoding="iso-8859-1"?>
<!-- Generator: Adobe Illustrator 17.1.0, SVG Export Plug-In . SVG Version: 6.00 Build 0)  -->
<!DOCTYPE svg PUBLIC "-//W3C//DTD SVG 1.1//EN" "http://www.w3.org/Graphics/SVG/1.1/DTD/svg11.dtd">
<svg version="1.1" id="Capa_1" xmlns="http://www.w3.org/2000/svg" xmlns:xlink="http://www.w3.org/1999/xlink" x="0px" y="0px"
	 viewBox="0 0 376.167 376.167" style="enable-background:new 0 0 376.167 376.167;" xml:space="preserve">
<g>
	<path d="M119.689,164.337h-8.011c-8.822,0-16,7.178-16,16v8.035c0,8.822,7.178,16,16,16h8.011c8.822,0,16-7.178,16-16v-8.035
		C135.689,171.515,128.511,164.337,119.689,164.337z M111.678,188.372v-8.035h8.011l0.001,8.035H111.678z"/>
	<path d="M167.35,164.337h-8.01c-8.822,0-16,7.178-16,16v8.035c0,8.822,7.178,16,16,16h8.01c8.822,0,16-7.178,16-16v-8.035
		C183.35,171.515,176.172,164.337,167.35,164.337z M159.34,188.372v-8.035h8.01l0.001,8.035H159.34z"/>
	<path d="M215.012,164.337h-8.01c-8.822,0-16,7.178-16,16v8.035c0,8.822,7.178,16,16,16h8.01c8.822,0,16-7.178,16-16v-8.035
		C231.012,171.515,223.834,164.337,215.012,164.337z M207.001,188.372v-8.035h8.01l0.001,8.035H207.001z"/>
	<path d="M119.689,212.337h-8.011c-8.822,0-16,7.178-16,16v8.035c0,8.822,7.178,16,16,16h8.011c8.822,0,16-7.178,16-16v-8.035
		C135.689,219.515,128.511,212.337,119.689,212.337z M111.678,236.372v-8.035h8.011l0.001,8.035H111.678z"/>
	<path d="M167.35,212.337h-8.01c-8.822,0-16,7.178-16,16v8.035c0,8.822,7.178,16,16,16h8.01c8.822,0,16-7.178,16-16v-8.035
		C183.35,219.515,176.172,212.337,167.35,212.337z M159.34,236.372v-8.035h8.01l0.001,8.035H159.34z"/>
	<path d="M215.012,212.337h-8.01c-8.822,0-16,7.178-16,16v8.035c0,8.822,7.178,16,16,16h8.01c8.822,0,16-7.178,16-16v-8.035
		C231.012,219.515,223.834,212.337,215.012,212.337z M207.001,236.372v-8.035h8.01l0.001,8.035H207.001z"/>
	<path d="M119.689,260.003h-8.011c-8.822,0-16,7.178-16,16v8.035c0,8.822,7.178,16,16,16h8.011c8.822,0,16-7.178,16-16v-8.035
		C135.689,267.181,128.511,260.003,119.689,260.003z M111.678,284.038v-8.035h8.011l0.001,8.035H111.678z"/>
	<path d="M167.35,260.003h-8.01c-8.822,0-16,7.178-16,16v8.035c0,8.822,7.178,16,16,16h8.01c8.822,0,16-7.178,16-16v-8.035
		C183.35,267.181,176.172,260.003,167.35,260.003z M159.34,284.038v-8.035h8.01l0.001,8.035H159.34z"/>
	<path d="M215.012,260.003h-8.01c-8.822,0-16,7.178-16,16v8.035c0,8.822,7.178,16,16,16h8.01c8.822,0,16-7.178,16-16v-8.035
		C231.012,267.181,223.834,260.003,215.012,260.003z M207.001,284.038v-8.035h8.01l0.001,8.035H207.001z"/>
	<path d="M255.107,164.337c-8.822,0-16,7.178-16,16v8.035c0,8.822,7.178,16,16,16h8.011c8.822,0,16-7.178,16-16v-8.035
		c0-8.822-7.178-16-16-16H255.107z M255.107,188.372v-8.035h8.011l0.001,8.035H255.107z"/>
	<path d="M263.118,212.337h-8.011c-8.822,0-16,7.178-16,16v8.035c0,8.822,7.178,16,16,16h8.011c8.822,0,16-7.178,16-16v-8.035
		C279.118,219.515,271.94,212.337,263.118,212.337z M255.107,236.372v-8.035h8.011l0.001,8.035H255.107z"/>
	<path d="M263.118,260.003h-8.011c-8.822,0-16,7.178-16,16v8.035c0,8.822,7.178,16,16,16h8.011c8.822,0,16-7.178,16-16v-8.035
		C279.118,267.181,271.94,260.003,263.118,260.003z M255.107,284.038v-8.035h8.011l0.001,8.035H255.107z"/>
	<path d="M375.961,105.422c-8.434-36.433-8.53-36.785-8.609-37.07c-1.138-4.125-3.801-13.785-14.341-16.155
		C306.966,41.884,249.25,36.205,190.493,36.205c-58.745,0-116.454,5.677-162.508,15.988c-10.793,2.435-17.91,8.197-20.041,16.231
		c-0.062,0.232-0.154,0.584-7.738,33.373C0.069,102.388,0,102.993,0,103.6v36.419c0,4.418,3.582,8,8,8l23.779,0v147.584
		c0,24.459,19.244,44.358,42.898,44.358h225.442c23.654,0,42.898-19.899,42.898-44.358V148.017l25.15-0.001c4.418,0,8-3.582,8-8
		v-32.79C376.167,106.619,376.098,106.014,375.961,105.422z M327.017,295.604c0,15.637-12.066,28.358-26.898,28.358H74.677
		c-14.832,0-26.898-12.721-26.898-28.358V148.02l64.054,0.001c0.007,0,0.013,0,0.02,0c4.418,0,8-3.582,8-8
		c0-0.194-0.007-0.387-0.021-0.577l-0.039-43.792c23.364-2.595,47.318-3.908,71.319-3.908c22.297,0,43.977,1.144,64.557,3.404
		l0.059,44.881c0.006,4.415,3.586,7.99,8,7.99l63.288-0.002V295.604z M360.167,132.016l-88.448,0.003l-0.021-15.891h63.469
		c4.418,0,8-3.582,8-8s-3.582-8-8-8h-63.49l-0.01-7.812c0-0.053,0-0.105-0.002-0.158l0.004-4.123
		c0.004-4.041-3.007-7.451-7.018-7.947c-23.295-2.883-48.038-4.345-73.538-4.345c-27.061,0-54.076,1.631-80.294,4.849
		c-4.01,0.492-7.024,3.897-7.025,7.938l-0.001,4.372l0.035,39.119l-63.931-0.001c-0.039,0-0.077-0.006-0.117-0.006
		s-0.077,0.005-0.117,0.006l-23.663,0v-15.891h63.167c4.418,0,8-3.582,8-8s-3.582-8-8-8H17.014
		c5.114-22.106,6.239-26.938,6.411-27.657c0.539-1.853,3.699-3.682,8.069-4.668c44.928-10.059,101.396-15.598,159-15.598
		c57.615,0,114.09,5.542,159.014,15.604c0.435,0.098,1.16,0.261,2.392,4.695c0.196,0.816,1.583,6.761,8.268,35.637V132.016z"/>
</g>
<g>
</g>
<g>
</g>
<g>
</g>
<g>
</g>
<g>
</g>
<g>
</g>
<g>
</g>
<g>
</g>
<g>
</g>
<g>
</g>
<g>
</g>
<g>
</g>
<g>
</g>
<g>
</g>
<g>
</g>
</svg>
