<svg xmlns="http://www.w3.org/2000/svg" viewBox="0 0 376.167 376.167" style="enable-background:new 0 0 376.167 376.167" xml:space="preserve"><path d="M301.491 339.962H74.677c-23.654 0-42.898-19.899-42.898-44.358 0-.149.004-.298.013-.447l8.709-155.59c.247-4.412 4.027-7.793 8.435-7.54a8 8 0 0 1 7.54 8.435L47.78 295.816c.108 15.54 12.133 28.147 26.898 28.147h226.814c14.765 0 26.79-12.607 26.897-28.147l-8.696-155.354a8 8 0 0 1 7.54-8.435c4.407-.265 8.188 3.128 8.435 7.54l8.709 155.59c.008.149.013.298.013.447 0 24.459-19.244 44.358-42.899 44.358zM79.167 116.128H8.917a8 8 0 0 1 0-16h70.25a8 8 0 0 1 0 16zM335.167 116.128h-70.305a8 8 0 0 1 0-16h70.305a8 8 0 0 1 0 16z"/><path d="M187.667 308.233c-50.847 0-92.214-41.367-92.214-92.214s41.367-92.214 92.214-92.214 92.214 41.367 92.214 92.214-41.367 92.214-92.214 92.214zm0-168.429c-42.025 0-76.214 34.189-76.214 76.214s34.189 76.214 76.214 76.214 76.214-34.189 76.214-76.214-34.19-76.214-76.214-76.214z"/><path d="M187.667 228.067c-6.643 0-12.048-5.405-12.048-12.048s5.405-12.048 12.048-12.048 12.048 5.405 12.048 12.048-5.405 12.048-12.048 12.048zm0-16c-2.179 0-3.952 1.773-3.952 3.952s1.773 3.952 3.952 3.952 3.952-1.773 3.952-3.952-1.773-3.952-3.952-3.952zM187.667 187.898c-10.871 0-19.714-8.844-19.714-19.714s8.844-19.714 19.714-19.714 19.714 8.844 19.714 19.714-8.844 19.714-19.714 19.714zm0-23.429c-2.048 0-3.714 1.666-3.714 3.714s1.666 3.714 3.714 3.714 3.714-1.666 3.714-3.714-1.666-3.714-3.714-3.714zM187.667 283.718c-10.871 0-19.714-8.844-19.714-19.714s8.844-19.714 19.714-19.714 19.714 8.844 19.714 19.714-8.844 19.714-19.714 19.714zm0-23.429c-2.048 0-3.714 1.666-3.714 3.714s1.666 3.714 3.714 3.714 3.714-1.666 3.714-3.714-1.666-3.714-3.714-3.714zM146.164 211.855c-3.446 0-6.851-.914-9.846-2.643-9.414-5.436-12.651-17.517-7.216-26.931 3.511-6.082 10.058-9.859 17.084-9.859 3.446 0 6.851.914 9.846 2.643 9.415 5.437 12.651 17.518 7.216 26.931a19.78 19.78 0 0 1-17.084 9.859zm.023-23.433a3.687 3.687 0 0 0-3.228 1.859 3.72 3.72 0 0 0 3.205 5.574 3.687 3.687 0 0 0 3.228-1.859 3.72 3.72 0 0 0-3.205-5.574zM229.147 259.764c-3.447 0-6.852-.914-9.847-2.643-9.414-5.435-12.651-17.516-7.217-26.93a19.781 19.781 0 0 1 17.085-9.86c3.446 0 6.851.914 9.846 2.643 9.414 5.435 12.651 17.516 7.216 26.931-3.51 6.082-10.056 9.859-17.083 9.859zm.022-23.432a3.687 3.687 0 0 0-3.228 1.859 3.719 3.719 0 0 0 1.36 5.074c.574.332 1.195.5 1.847.5a3.686 3.686 0 0 0 3.227-1.859 3.718 3.718 0 0 0-3.206-5.574zM146.186 259.764a19.78 19.78 0 0 1-17.084-9.859c-5.435-9.414-2.198-21.495 7.216-26.931a19.723 19.723 0 0 1 9.846-2.643 19.78 19.78 0 0 1 17.084 9.859c5.435 9.414 2.198 21.495-7.216 26.93a19.708 19.708 0 0 1-9.846 2.644zm-.022-23.432a3.72 3.72 0 0 0-3.205 5.574 3.686 3.686 0 0 0 3.228 1.859 3.72 3.72 0 0 0 3.206-5.574 3.69 3.69 0 0 0-3.229-1.859zM229.169 211.855a19.78 19.78 0 0 1-17.084-9.859c-5.435-9.414-2.198-21.495 7.216-26.93a19.724 19.724 0 0 1 9.847-2.643 19.78 19.78 0 0 1 17.083 9.859c5.436 9.415 2.198 21.496-7.216 26.931a19.733 19.733 0 0 1-9.846 2.642zm-.022-23.433a3.719 3.719 0 0 0-3.207 5.574 3.687 3.687 0 0 0 3.228 1.859 3.65 3.65 0 0 0 1.847-.5 3.694 3.694 0 0 0 1.73-2.255 3.7 3.7 0 0 0-.371-2.819 3.685 3.685 0 0 0-3.227-1.859zM111.854 148.021h-.02L8 148.019a8 8 0 0 1-8-8V103.6c0-.607.069-1.211.206-1.803 7.589-32.811 7.673-33.128 7.741-33.382 2.128-8.024 9.245-13.787 20.038-16.222C74.04 41.882 131.749 36.205 190.494 36.205c58.757 0 116.473 5.679 162.518 15.992 10.54 2.37 13.203 12.03 14.34 16.155.079.285.175.637 8.609 37.07a8 8 0 0 1 .206 1.804v32.79a8 8 0 0 1-8 8l-104.438.003a8 8 0 0 1-8-7.99l-.059-44.88c-20.58-2.26-42.26-3.405-64.557-3.405-24.001 0-47.956 1.313-71.319 3.908l.039 43.792a8 8 0 0 1-7.979 8.577zM16 132.019l87.826.002-.035-39.119.002-4.373a8 8 0 0 1 7.025-7.937c26.218-3.217 53.233-4.849 80.294-4.849 25.5 0 50.242 1.462 73.538 4.345a8 8 0 0 1 7.018 7.946l-.003 4.122.002.16.052 39.703 88.448-.003V108.14c-6.685-28.875-8.072-34.82-8.268-35.637-1.232-4.435-1.957-4.597-2.392-4.695-44.924-10.062-101.399-15.604-159.014-15.604-57.604 0-114.072 5.54-159 15.598-4.37.986-7.53 2.815-8.068 4.669-.205.861-1.701 7.296-7.424 32.041v27.507z"/></svg>