<svg xmlns="http://www.w3.org/2000/svg" viewBox="0 0 376.167 376.167" style="enable-background:new 0 0 376.167 376.167" xml:space="preserve"><path d="M119.689 164.337h-8.011c-8.822 0-16 7.178-16 16v8.035c0 8.822 7.178 16 16 16h8.011c8.822 0 16-7.178 16-16v-8.035c0-8.822-7.178-16-16-16zm-8.011 24.035v-8.035h8.011l.001 8.035h-8.012zM167.35 164.337h-8.01c-8.822 0-16 7.178-16 16v8.035c0 8.822 7.178 16 16 16h8.01c8.822 0 16-7.178 16-16v-8.035c0-8.822-7.178-16-16-16zm-8.01 24.035v-8.035h8.01l.001 8.035h-8.011zM215.012 164.337h-8.01c-8.822 0-16 7.178-16 16v8.035c0 8.822 7.178 16 16 16h8.01c8.822 0 16-7.178 16-16v-8.035c0-8.822-7.178-16-16-16zm-8.011 24.035v-8.035h8.01l.001 8.035h-8.011zM119.689 212.337h-8.011c-8.822 0-16 7.178-16 16v8.035c0 8.822 7.178 16 16 16h8.011c8.822 0 16-7.178 16-16v-8.035c0-8.822-7.178-16-16-16zm-8.011 24.035v-8.035h8.011l.001 8.035h-8.012zM167.35 212.337h-8.01c-8.822 0-16 7.178-16 16v8.035c0 8.822 7.178 16 16 16h8.01c8.822 0 16-7.178 16-16v-8.035c0-8.822-7.178-16-16-16zm-8.01 24.035v-8.035h8.01l.001 8.035h-8.011zM215.012 212.337h-8.01c-8.822 0-16 7.178-16 16v8.035c0 8.822 7.178 16 16 16h8.01c8.822 0 16-7.178 16-16v-8.035c0-8.822-7.178-16-16-16zm-8.011 24.035v-8.035h8.01l.001 8.035h-8.011zM119.689 260.003h-8.011c-8.822 0-16 7.178-16 16v8.035c0 8.822 7.178 16 16 16h8.011c8.822 0 16-7.178 16-16v-8.035c0-8.822-7.178-16-16-16zm-8.011 24.035v-8.035h8.011l.001 8.035h-8.012zM167.35 260.003h-8.01c-8.822 0-16 7.178-16 16v8.035c0 8.822 7.178 16 16 16h8.01c8.822 0 16-7.178 16-16v-8.035c0-8.822-7.178-16-16-16zm-8.01 24.035v-8.035h8.01l.001 8.035h-8.011zM215.012 260.003h-8.01c-8.822 0-16 7.178-16 16v8.035c0 8.822 7.178 16 16 16h8.01c8.822 0 16-7.178 16-16v-8.035c0-8.822-7.178-16-16-16zm-8.011 24.035v-8.035h8.01l.001 8.035h-8.011zM255.107 164.337c-8.822 0-16 7.178-16 16v8.035c0 8.822 7.178 16 16 16h8.011c8.822 0 16-7.178 16-16v-8.035c0-8.822-7.178-16-16-16h-8.011zm0 24.035v-8.035h8.011l.001 8.035h-8.012zM263.118 212.337h-8.011c-8.822 0-16 7.178-16 16v8.035c0 8.822 7.178 16 16 16h8.011c8.822 0 16-7.178 16-16v-8.035c0-8.822-7.178-16-16-16zm-8.011 24.035v-8.035h8.011l.001 8.035h-8.012zM263.118 260.003h-8.011c-8.822 0-16 7.178-16 16v8.035c0 8.822 7.178 16 16 16h8.011c8.822 0 16-7.178 16-16v-8.035c0-8.822-7.178-16-16-16zm-8.011 24.035v-8.035h8.011l.001 8.035h-8.012z"/><path d="M375.961 105.422c-8.434-36.433-8.53-36.785-8.609-37.07-1.138-4.125-3.801-13.785-14.341-16.155-46.045-10.313-103.761-15.992-162.518-15.992-58.745 0-116.454 5.677-162.508 15.988-10.793 2.435-17.91 8.197-20.041 16.231-.062.232-.154.584-7.738 33.373A7.985 7.985 0 0 0 0 103.6v36.419a8 8 0 0 0 8 8h23.779v147.584c0 24.459 19.244 44.358 42.898 44.358h225.442c23.654 0 42.898-19.899 42.898-44.358V148.017l25.15-.001a8 8 0 0 0 8-8v-32.79a8 8 0 0 0-.206-1.804zm-48.944 190.182c0 15.637-12.066 28.358-26.898 28.358H74.677c-14.832 0-26.898-12.721-26.898-28.358V148.02l64.054.001h.02a8 8 0 0 0 7.979-8.577l-.039-43.792c23.364-2.595 47.318-3.908 71.319-3.908 22.297 0 43.977 1.144 64.557 3.404l.059 44.881a8 8 0 0 0 8 7.99l63.288-.002v147.587zm33.15-163.588-88.448.003-.021-15.891h63.469a8 8 0 0 0 0-16h-63.49l-.01-7.812c0-.053 0-.105-.002-.158l.004-4.123a8 8 0 0 0-7.018-7.947c-23.295-2.883-48.038-4.345-73.538-4.345-27.061 0-54.076 1.631-80.294 4.849a8 8 0 0 0-7.025 7.938l-.001 4.372.035 39.119-63.931-.001c-.039 0-.077-.006-.117-.006s-.077.005-.117.006H16v-15.891h63.167a8 8 0 0 0 0-16H17.014c5.114-22.106 6.239-26.938 6.411-27.657.539-1.853 3.699-3.682 8.069-4.668 44.928-10.059 101.396-15.598 159-15.598 57.615 0 114.09 5.542 159.014 15.604.435.098 1.16.261 2.392 4.695.196.816 1.583 6.761 8.268 35.637v23.874z"/></svg>