<svg xmlns="http://www.w3.org/2000/svg" viewBox="0 0 407.833 407.833" style="enable-background:new 0 0 407.833 407.833" xml:space="preserve"><path d="M99.776 71.952c13.217 0 23.97-10.753 23.97-23.971s-10.753-23.972-23.97-23.972c-13.218 0-23.971 10.753-23.971 23.972-.001 13.218 10.753 23.971 23.971 23.971zm0-31.943c4.395 0 7.97 3.576 7.97 7.972s-3.575 7.971-7.97 7.971c-4.396 0-7.971-3.576-7.971-7.971s3.575-7.972 7.971-7.972zM268.063 71.986h47.665c8.822 0 16-7.178 16-16.001V39.984c0-8.823-7.178-16-16-16h-47.665c-8.823 0-16.001 7.178-16.001 16v16.001c0 8.823 7.178 16.001 16.001 16.001zm0-32.003h47.665l.001 16.002-47.667-.001.001-16.001z"/><path d="M358.86 263.98h-2.865V40.682C355.994 18.25 337.875 0 315.603 0H92.073C69.801 0 51.681 18.25 51.681 40.682V263.98h-2.708c-11.619 0-21.072 9.453-21.072 21.072v29.794c0 11.62 9.453 21.073 21.072 21.073h50.875v63.914a8 8 0 0 0 8 8h191.958a8 8 0 0 0 8-8v-63.914h51.053c11.619 0 21.072-9.453 21.072-21.073v-29.794c.001-11.619-9.452-21.072-21.071-21.072zM67.681 111.783h57.833c-6.279 12.113-9.831 25.857-9.831 40.417a87.692 87.692 0 0 0 5.92 31.75H67.681v-72.167zm64.002 40.417c0-39.769 32.354-72.124 72.124-72.124s72.124 32.354 72.124 72.124-32.354 72.124-72.124 72.124-72.124-32.355-72.124-72.124zm150.416-40.417h57.896v72.167H286.01a87.67 87.67 0 0 0 5.92-31.75c0-14.56-3.553-28.304-9.831-40.417zM92.073 16h223.53c13.449 0 24.392 11.072 24.392 24.682v55.101h-68.547c-16.178-19.364-40.494-31.707-67.641-31.707s-51.463 12.342-67.641 31.707H67.681V40.682C67.681 27.072 78.623 16 92.073 16zM67.681 199.95h62.093c15.712 24.275 43.026 40.374 74.032 40.374s58.321-16.098 74.032-40.374h62.156v64.03H67.681v-64.03zm224.126 191.883H115.848V303.77h175.958v88.063zm72.125-76.987c0 2.75-2.323 5.073-5.072 5.073h-51.053v-24.148a8 8 0 0 0-8-8H107.848a8 8 0 0 0-8 8v24.148H48.973c-2.75 0-5.072-2.323-5.072-5.073v-29.794c0-2.75 2.323-5.072 5.072-5.072H358.86c2.749 0 5.072 2.323 5.072 5.072v29.794z"/><path d="M139.848 375.73h127.958a8 8 0 0 0 8-8v-39.561a8 8 0 0 0-16 0v31.561H147.848v-31.561a8 8 0 0 0-16 0v39.561a8 8 0 0 0 8 8zM203.806 192.24c22.079 0 40.041-17.962 40.041-40.04a8 8 0 0 0-16 0c0 13.256-10.784 24.04-24.041 24.04-13.256 0-24.04-10.784-24.04-24.04s10.784-24.041 24.04-24.041a8 8 0 0 0 0-16c-22.078 0-40.04 17.962-40.04 40.041 0 22.078 17.962 40.04 40.04 40.04z"/></svg>