<?xml version="1.0" encoding="iso-8859-1"?>
<!-- Generator: Adobe Illustrator 17.1.0, SVG Export Plug-In . SVG Version: 6.00 Build 0)  -->
<!DOCTYPE svg PUBLIC "-//W3C//DTD SVG 1.1//EN" "http://www.w3.org/Graphics/SVG/1.1/DTD/svg11.dtd">
<svg version="1.1" id="Capa_1" xmlns="http://www.w3.org/2000/svg" xmlns:xlink="http://www.w3.org/1999/xlink" x="0px" y="0px"
	 viewBox="0 0 376.167 376.167" style="enable-background:new 0 0 376.167 376.167;" xml:space="preserve">
<g>
	<g>
		<path d="M301.491,339.962H74.677c-23.654,0-42.898-19.899-42.898-44.358c0-0.149,0.004-0.298,0.013-0.447l8.709-155.59
			c0.247-4.412,4.027-7.793,8.435-7.54c4.411,0.247,7.787,4.023,7.54,8.435l-8.696,155.354c0.108,15.54,12.133,28.147,26.898,28.147
			h226.814c14.765,0,26.79-12.607,26.897-28.147l-8.696-155.354c-0.247-4.412,3.129-8.188,7.54-8.435
			c4.407-0.265,8.188,3.128,8.435,7.54l8.709,155.59c0.008,0.149,0.013,0.298,0.013,0.447
			C344.39,320.063,325.146,339.962,301.491,339.962z"/>
	</g>
	<g>
		<path d="M79.167,116.128H8.917c-4.418,0-8-3.582-8-8s3.582-8,8-8h70.25c4.418,0,8,3.582,8,8S83.585,116.128,79.167,116.128z"/>
	</g>
	<g>
		<path d="M335.167,116.128h-70.305c-4.418,0-8-3.582-8-8s3.582-8,8-8h70.305c4.418,0,8,3.582,8,8S339.585,116.128,335.167,116.128z
			"/>
	</g>
	<g>
		<path d="M187.667,308.233c-50.847,0-92.214-41.367-92.214-92.214s41.367-92.214,92.214-92.214s92.214,41.367,92.214,92.214
			S238.514,308.233,187.667,308.233z M187.667,139.804c-42.025,0-76.214,34.189-76.214,76.214s34.189,76.214,76.214,76.214
			s76.214-34.189,76.214-76.214S229.691,139.804,187.667,139.804z"/>
	</g>
	<g>
		<path d="M187.667,228.067c-6.643,0-12.048-5.405-12.048-12.048s5.405-12.048,12.048-12.048s12.048,5.405,12.048,12.048
			S194.31,228.067,187.667,228.067z M187.667,212.067c-2.179,0-3.952,1.773-3.952,3.952s1.773,3.952,3.952,3.952
			s3.952-1.773,3.952-3.952S189.846,212.067,187.667,212.067z"/>
	</g>
	<g>
		<path d="M187.667,187.898c-10.871,0-19.714-8.844-19.714-19.714s8.844-19.714,19.714-19.714s19.714,8.844,19.714,19.714
			S198.537,187.898,187.667,187.898z M187.667,164.469c-2.048,0-3.714,1.666-3.714,3.714s1.666,3.714,3.714,3.714
			s3.714-1.666,3.714-3.714S189.715,164.469,187.667,164.469z"/>
	</g>
	<g>
		<path d="M187.667,283.718c-10.871,0-19.714-8.844-19.714-19.714s8.844-19.714,19.714-19.714s19.714,8.844,19.714,19.714
			S198.537,283.718,187.667,283.718z M187.667,260.289c-2.048,0-3.714,1.666-3.714,3.714s1.666,3.714,3.714,3.714
			s3.714-1.666,3.714-3.714S189.715,260.289,187.667,260.289z"/>
	</g>
	<g>
		<path d="M146.164,211.855c-3.446,0-6.851-0.914-9.846-2.643c-9.414-5.436-12.651-17.517-7.216-26.931
			c3.511-6.082,10.058-9.859,17.084-9.859c3.446,0,6.851,0.914,9.846,2.643c9.415,5.437,12.651,17.518,7.216,26.931
			C159.737,208.077,153.191,211.855,146.164,211.855z M146.187,188.422c-1.349,0-2.556,0.695-3.228,1.859
			c-1.024,1.774-0.414,4.05,1.359,5.074c0.574,0.332,1.195,0.5,1.846,0.5c1.349,0,2.556-0.695,3.228-1.859
			c1.024-1.774,0.414-4.05-1.36-5.075C147.459,188.59,146.837,188.422,146.187,188.422z"/>
	</g>
	<g>
		<path d="M229.147,259.764c-3.447,0-6.852-0.914-9.847-2.643c-9.414-5.435-12.651-17.516-7.217-26.93
			c3.512-6.082,10.058-9.86,17.085-9.86c3.446,0,6.851,0.914,9.846,2.643c9.414,5.435,12.651,17.516,7.216,26.931
			C242.72,255.987,236.174,259.764,229.147,259.764z M229.169,236.332c-1.349,0-2.556,0.695-3.228,1.859
			c-1.024,1.773-0.414,4.05,1.36,5.074c0.574,0.332,1.195,0.5,1.847,0.5c1.349,0,2.555-0.695,3.227-1.859
			c1.024-1.774,0.415-4.05-1.359-5.074C230.441,236.5,229.82,236.332,229.169,236.332z"/>
	</g>
	<g>
		<path d="M146.186,259.764c-7.027,0-13.573-3.778-17.084-9.859c-5.435-9.414-2.198-21.495,7.216-26.931
			c2.995-1.729,6.4-2.643,9.846-2.643c7.027,0,13.573,3.778,17.084,9.859c5.435,9.414,2.198,21.495-7.216,26.93
			C153.038,258.85,149.633,259.764,146.186,259.764z M146.164,236.332c-0.651,0-1.272,0.168-1.846,0.5
			c-1.773,1.024-2.383,3.3-1.359,5.074c0.672,1.164,1.878,1.859,3.228,1.859c0.651,0,1.272-0.168,1.847-0.5
			c1.773-1.024,2.383-3.3,1.359-5.074C148.72,237.027,147.513,236.332,146.164,236.332z"/>
	</g>
	<g>
		<path d="M229.169,211.855c-7.027,0-13.573-3.778-17.084-9.859c-5.435-9.414-2.198-21.495,7.216-26.93
			c2.995-1.729,6.4-2.643,9.847-2.643c7.026,0,13.572,3.778,17.083,9.859c5.436,9.415,2.198,21.496-7.216,26.931
			C236.02,210.941,232.615,211.855,229.169,211.855z M229.147,188.422c-0.651,0-1.272,0.168-1.847,0.5
			c-1.774,1.024-2.384,3.3-1.36,5.074c0.672,1.164,1.879,1.859,3.228,1.859c0.651,0,1.272-0.168,1.847-0.5
			c1.159-0.669,1.582-1.7,1.73-2.255c0.149-0.555,0.298-1.659-0.371-2.819C231.703,189.117,230.496,188.422,229.147,188.422z"/>
	</g>
	<g>
		<path d="M111.854,148.021c-0.007,0-0.013,0-0.02,0l0,0L8,148.019c-4.418,0-8-3.582-8-8v-36.419c0-0.607,0.069-1.211,0.206-1.803
			c7.589-32.811,7.673-33.128,7.741-33.382c2.128-8.024,9.245-13.787,20.038-16.222c46.055-10.311,103.764-15.988,162.509-15.988
			c58.757,0,116.473,5.679,162.518,15.992c10.54,2.37,13.203,12.03,14.34,16.155c0.079,0.285,0.175,0.637,8.609,37.07
			c0.137,0.592,0.206,1.197,0.206,1.804v32.79c0,4.418-3.582,8-8,8l-104.438,0.003c-4.414,0-7.994-3.575-8-7.99l-0.059-44.88
			c-20.58-2.26-42.26-3.405-64.557-3.405c-24.001,0-47.956,1.313-71.319,3.908l0.039,43.792c0.014,0.19,0.021,0.383,0.021,0.577
			C119.854,144.439,116.272,148.021,111.854,148.021z M16,132.019l87.826,0.002l-0.035-39.119l0.002-4.373
			c0.002-4.04,3.016-7.445,7.025-7.937c26.218-3.217,53.233-4.849,80.294-4.849c25.5,0,50.242,1.462,73.538,4.345
			c4.01,0.496,7.021,3.905,7.018,7.946l-0.003,4.122c0.001,0.053,0.002,0.106,0.002,0.16l0.052,39.703l88.448-0.003V108.14
			c-6.685-28.875-8.072-34.82-8.268-35.637c-1.232-4.435-1.957-4.597-2.392-4.695c-44.924-10.062-101.399-15.604-159.014-15.604
			c-57.604,0-114.072,5.54-159,15.598c-4.37,0.986-7.53,2.815-8.068,4.669c-0.205,0.861-1.701,7.296-7.424,32.041V132.019z"/>
	</g>
</g>
<g>
</g>
<g>
</g>
<g>
</g>
<g>
</g>
<g>
</g>
<g>
</g>
<g>
</g>
<g>
</g>
<g>
</g>
<g>
</g>
<g>
</g>
<g>
</g>
<g>
</g>
<g>
</g>
<g>
</g>
</svg>
