<?xml version="1.0" encoding="iso-8859-1"?>
<!-- Generator: Adobe Illustrator 17.1.0, SVG Export Plug-In . SVG Version: 6.00 Build 0)  -->
<!DOCTYPE svg PUBLIC "-//W3C//DTD SVG 1.1//EN" "http://www.w3.org/Graphics/SVG/1.1/DTD/svg11.dtd">
<svg version="1.1" id="Capa_1" xmlns="http://www.w3.org/2000/svg" xmlns:xlink="http://www.w3.org/1999/xlink" x="0px" y="0px"
	 viewBox="0 0 420.057 420.057" style="enable-background:new 0 0 420.057 420.057;" xml:space="preserve">
<path d="M394.18,25.844C377.524,9.178,355.376,0,331.813,0c-23.563,0-45.719,9.178-62.385,25.842
	c-15.48,15.478-21.188,28.524-27.232,42.338c-6.667,15.235-13.56,30.989-35.759,53.179c-1.5,1.5-2.344,3.535-2.344,5.657
	s0.843,4.157,2.343,5.658l1.028,1.028L11.18,350.536c-10.374,11.19-10.041,29.049,0.755,39.84l3.234,3.233l-12.79,12.79
	c-3.125,3.125-3.125,8.189,0,11.314c1.562,1.562,3.609,2.343,5.657,2.343s4.095-0.781,5.657-2.343l12.792-12.792l2.678,2.678
	c5.54,5.538,12.946,8.324,20.359,8.324c7.023,0,14.053-2.502,19.503-7.535l217.26-195.874l1.074,1.074
	c1.5,1.5,3.536,2.343,5.657,2.343s4.156-0.843,5.657-2.344c22.199-22.2,37.949-29.097,53.181-35.765
	c13.806-6.045,26.845-11.754,42.324-27.225c16.667-16.66,25.845-38.814,25.844-62.382C420.02,64.651,410.842,42.499,394.18,25.844z
	 M58.272,396.541c-0.028,0.024-0.055,0.05-0.083,0.075c-4.887,4.533-13.001,4.378-17.714-0.332l-17.228-17.224
	c-4.707-4.705-4.851-12.795-0.315-17.666c0.025-0.028,0.051-0.056,0.076-0.083L218.793,145.03l56.162,56.157L58.272,396.541z
	 M345.437,163.166c-14.545,6.368-30.874,13.517-52.327,33.547l-69.797-69.79c20.028-21.446,27.175-37.78,33.541-52.33
	c4.855-11.096,9.158-20.898,18.714-31.888l7.659,7.66c1.563,1.563,3.609,2.344,5.657,2.344c2.047,0,4.095-0.781,5.657-2.343
	c3.124-3.124,3.125-8.189,0-11.313l-7.492-7.493C299.753,21.483,315.358,16,331.813,16c19.287,0,37.417,7.513,51.053,21.157
	c13.641,13.636,21.154,31.77,21.155,51.06c0.001,16.457-5.483,32.062-15.558,44.761l-73.32-73.327
	c-3.125-3.125-8.189-3.124-11.314-0.001c-3.124,3.124-3.125,8.189,0,11.313l73.486,73.493
	C366.324,154.007,356.527,158.31,345.437,163.166z"/>
<g>
</g>
<g>
</g>
<g>
</g>
<g>
</g>
<g>
</g>
<g>
</g>
<g>
</g>
<g>
</g>
<g>
</g>
<g>
</g>
<g>
</g>
<g>
</g>
<g>
</g>
<g>
</g>
<g>
</g>
</svg>
