<svg xmlns="http://www.w3.org/2000/svg" viewBox="0 0 420.057 420.057" style="enable-background:new 0 0 420.057 420.057" xml:space="preserve"><path d="M394.18 25.844C377.524 9.178 355.376 0 331.813 0c-23.563 0-45.719 9.178-62.385 25.842-15.48 15.478-21.188 28.524-27.232 42.338-6.667 15.235-13.56 30.989-35.759 53.179a8.001 8.001 0 0 0-.001 11.315l1.028 1.028L11.18 350.536c-10.374 11.19-10.041 29.049.755 39.84l3.234 3.233-12.79 12.79a7.999 7.999 0 0 0 0 11.314c1.562 1.562 3.609 2.343 5.657 2.343s4.095-.781 5.657-2.343l12.792-12.792 2.678 2.678c5.54 5.538 12.946 8.324 20.359 8.324 7.023 0 14.053-2.502 19.503-7.535l217.26-195.874 1.074 1.074a8.002 8.002 0 0 0 11.314-.001c22.199-22.2 37.949-29.097 53.181-35.765 13.806-6.045 26.845-11.754 42.324-27.225 16.667-16.66 25.845-38.814 25.844-62.382-.002-23.564-9.18-45.716-25.842-62.371zM58.272 396.541l-.083.075c-4.887 4.533-13.001 4.378-17.714-.332L23.247 379.06c-4.707-4.705-4.851-12.795-.315-17.666l.076-.083L218.793 145.03l56.162 56.157L58.272 396.541zm287.165-233.375c-14.545 6.368-30.874 13.517-52.327 33.547l-69.797-69.79c20.028-21.446 27.175-37.78 33.541-52.33 4.855-11.096 9.158-20.898 18.714-31.888l7.659 7.66a7.973 7.973 0 0 0 5.657 2.344 7.999 7.999 0 0 0 5.657-13.656l-7.492-7.493C299.753 21.483 315.358 16 331.813 16c19.287 0 37.417 7.513 51.053 21.157 13.641 13.636 21.154 31.77 21.155 51.06.001 16.457-5.483 32.062-15.558 44.761l-73.32-73.327a8 8 0 0 0-11.314 11.312l73.486 73.493c-10.991 9.551-20.788 13.854-31.878 18.71z"/></svg>