<svg xmlns="http://www.w3.org/2000/svg" viewBox="0 0 448.059 448.059" style="enable-background:new 0 0 448.059 448.059" xml:space="preserve"><path d="M296.123 96.134v-1.839c0-11.958-9.732-21.686-21.696-21.686h-12.502c-11.957 0-21.686 9.728-21.686 21.686v1.711h-63.986V15.875C176.253 7.121 169.133 0 160.38 0s-15.874 7.121-15.874 15.875v81.573c-18.423 5.089-32.477 23.032-32.477 43.68V405c0 23.743 19.316 43.059 43.059 43.059H292.97c23.743 0 43.06-19.316 43.06-43.059V139.065c-.001-22.681-17.632-41.309-39.907-42.931zm-39.884-1.839c0-3.082 2.604-5.686 5.686-5.686h12.502c3.088 0 5.696 2.604 5.696 5.686v1.711h-23.884v-1.711zM320.029 405c0 14.92-12.139 27.059-27.06 27.059H155.088c-14.92 0-27.059-12.139-27.059-27.059V141.127c0-15.513 12.644-29.121 27.059-29.121H292.97c14.921 0 27.06 12.139 27.06 27.059V405z"/><path d="M176.279 248.309h-15.785c-8.822 0-16 7.178-16 16v7.917c0 8.822 7.178 16 16 16h15.785c8.822 0 16-7.178 16-16v-7.917c0-8.823-7.177-16-16-16zm-15.785 23.917v-7.917h15.785l.001 7.917h-15.786zM232.308 248.309h-15.785c-8.822 0-16 7.178-16 16v7.917c0 8.822 7.178 16 16 16h15.785c8.822 0 16-7.178 16-16v-7.917c0-8.823-7.178-16-16-16zm-15.786 23.917v-7.917h15.785l.002 7.917h-15.787zM287.987 248.309h-15.785c-8.822 0-16 7.178-16 16v7.917c0 8.822 7.178 16 16 16h15.785c8.822 0 16-7.178 16-16v-7.917c0-8.823-7.177-16-16-16zm-15.785 23.917v-7.917h15.785l.002 7.917h-15.787zM176.279 296.695h-15.785c-8.822 0-16 7.178-16 16v7.917c0 8.822 7.178 16 16 16h15.785c8.822 0 16-7.178 16-16v-7.917c0-8.822-7.177-16-16-16zm-15.785 23.918v-7.917h15.785l.001 7.917h-15.786zM232.308 296.695h-15.785c-8.822 0-16 7.178-16 16v7.917c0 8.822 7.178 16 16 16h15.785c8.822 0 16-7.178 16-16v-7.917c0-8.822-7.178-16-16-16zm-15.786 23.918v-7.917h15.785l.002 7.917h-15.787zM287.987 296.695h-15.785c-8.822 0-16 7.178-16 16v7.917c0 8.822 7.178 16 16 16h15.785c8.822 0 16-7.178 16-16v-7.917c0-8.822-7.177-16-16-16zm-15.785 23.918v-7.917h15.785l.002 7.917h-15.787zM176.279 344.195h-15.785c-8.822 0-16 7.178-16 16v7.917c0 8.822 7.178 16 16 16h15.785c8.822 0 16-7.178 16-16v-7.917c0-8.822-7.177-16-16-16zm-15.785 23.918v-7.917h15.785l.001 7.917h-15.786zM232.308 344.195h-15.785c-8.822 0-16 7.178-16 16v7.917c0 8.822 7.178 16 16 16h15.785c8.822 0 16-7.178 16-16v-7.917c0-8.822-7.178-16-16-16zm-15.786 23.918v-7.917h15.785l.002 7.917h-15.787zM287.987 344.195h-15.785c-8.822 0-16 7.178-16 16v7.917c0 8.822 7.178 16 16 16h15.785c8.822 0 16-7.178 16-16v-7.917c0-8.822-7.177-16-16-16zm-15.785 23.918v-7.917h15.785l.002 7.917h-15.787zM224.029 231.725a8 8 0 0 0 8-8v-79.417a8 8 0 0 0-16 0v79.417a8 8 0 0 0 8 8zM192.237 152.142a8 8 0 0 0-8 8v47.75a8 8 0 0 0 16 0v-47.75a8 8 0 0 0-8-8zM264.529 207.892v-47.75a8 8 0 0 0-16 0v47.75a8 8 0 0 0 16 0zM240.308 400.309h-31.785a8 8 0 0 0 0 16h31.785a8 8 0 0 0 0-16z"/></svg>