<?xml version="1.0" encoding="iso-8859-1"?>
<!-- Generator: Adobe Illustrator 17.1.0, SVG Export Plug-In . SVG Version: 6.00 Build 0)  -->
<!DOCTYPE svg PUBLIC "-//W3C//DTD SVG 1.1//EN" "http://www.w3.org/Graphics/SVG/1.1/DTD/svg11.dtd">
<svg version="1.1" id="Capa_1" xmlns="http://www.w3.org/2000/svg" xmlns:xlink="http://www.w3.org/1999/xlink" x="0px" y="0px"
	 viewBox="0 0 448.059 448.059" style="enable-background:new 0 0 448.059 448.059;" xml:space="preserve">
<g>
	<path d="M296.123,96.134v-1.839c0-11.958-9.732-21.686-21.696-21.686h-12.502c-11.957,0-21.686,9.728-21.686,21.686v1.711h-63.986
		V15.875C176.253,7.121,169.133,0,160.38,0s-15.874,7.121-15.874,15.875v81.573c-18.423,5.089-32.477,23.032-32.477,43.68V405
		c0,23.743,19.316,43.059,43.059,43.059H292.97c23.743,0,43.06-19.316,43.06-43.059V139.065
		C336.029,116.384,318.398,97.756,296.123,96.134z M256.239,94.295c0-3.082,2.604-5.686,5.686-5.686h12.502
		c3.088,0,5.696,2.604,5.696,5.686v1.711h-23.884V94.295z M320.029,405c0,14.92-12.139,27.059-27.06,27.059H155.088
		c-14.92,0-27.059-12.139-27.059-27.059V141.127c0-15.513,12.644-29.121,27.059-29.121h13.166H292.97
		c14.921,0,27.06,12.139,27.06,27.059V405z"/>
	<path d="M176.279,248.309h-15.785c-8.822,0-16,7.178-16,16v7.917c0,8.822,7.178,16,16,16h15.785c8.822,0,16-7.178,16-16v-7.917
		C192.279,255.486,185.102,248.309,176.279,248.309z M160.494,272.226v-7.917h15.785l0.001,7.917H160.494z"/>
	<path d="M232.308,248.309h-15.785c-8.822,0-16,7.178-16,16v7.917c0,8.822,7.178,16,16,16h15.785c8.822,0,16-7.178,16-16v-7.917
		C248.308,255.486,241.13,248.309,232.308,248.309z M216.522,272.226v-7.917h15.785l0.002,7.917H216.522z"/>
	<path d="M287.987,248.309h-15.785c-8.822,0-16,7.178-16,16v7.917c0,8.822,7.178,16,16,16h15.785c8.822,0,16-7.178,16-16v-7.917
		C303.987,255.486,296.81,248.309,287.987,248.309z M272.202,272.226v-7.917h15.785l0.002,7.917H272.202z"/>
	<path d="M176.279,296.695h-15.785c-8.822,0-16,7.178-16,16v7.917c0,8.822,7.178,16,16,16h15.785c8.822,0,16-7.178,16-16v-7.917
		C192.279,303.873,185.102,296.695,176.279,296.695z M160.494,320.613v-7.917h15.785l0.001,7.917H160.494z"/>
	<path d="M232.308,296.695h-15.785c-8.822,0-16,7.178-16,16v7.917c0,8.822,7.178,16,16,16h15.785c8.822,0,16-7.178,16-16v-7.917
		C248.308,303.873,241.13,296.695,232.308,296.695z M216.522,320.613v-7.917h15.785l0.002,7.917H216.522z"/>
	<path d="M287.987,296.695h-15.785c-8.822,0-16,7.178-16,16v7.917c0,8.822,7.178,16,16,16h15.785c8.822,0,16-7.178,16-16v-7.917
		C303.987,303.873,296.81,296.695,287.987,296.695z M272.202,320.613v-7.917h15.785l0.002,7.917H272.202z"/>
	<path d="M176.279,344.195h-15.785c-8.822,0-16,7.178-16,16v7.917c0,8.822,7.178,16,16,16h15.785c8.822,0,16-7.178,16-16v-7.917
		C192.279,351.373,185.102,344.195,176.279,344.195z M160.494,368.113v-7.917h15.785l0.001,7.917H160.494z"/>
	<path d="M232.308,344.195h-15.785c-8.822,0-16,7.178-16,16v7.917c0,8.822,7.178,16,16,16h15.785c8.822,0,16-7.178,16-16v-7.917
		C248.308,351.373,241.13,344.195,232.308,344.195z M216.522,368.113v-7.917h15.785l0.002,7.917H216.522z"/>
	<path d="M287.987,344.195h-15.785c-8.822,0-16,7.178-16,16v7.917c0,8.822,7.178,16,16,16h15.785c8.822,0,16-7.178,16-16v-7.917
		C303.987,351.373,296.81,344.195,287.987,344.195z M272.202,368.113v-7.917h15.785l0.002,7.917H272.202z"/>
	<path d="M224.029,231.725c4.418,0,8-3.582,8-8v-79.417c0-4.418-3.582-8-8-8c-4.418,0-8,3.582-8,8v79.417
		C216.029,228.144,219.611,231.725,224.029,231.725z"/>
	<path d="M192.237,152.142c-4.418,0-8,3.582-8,8v47.75c0,4.418,3.582,8,8,8s8-3.582,8-8v-47.75
		C200.237,155.723,196.656,152.142,192.237,152.142z"/>
	<path d="M264.529,207.892v-47.75c0-4.418-3.582-8-8-8s-8,3.582-8,8v47.75c0,4.418,3.582,8,8,8S264.529,212.31,264.529,207.892z"/>
	<path d="M240.308,400.309h-31.785c-4.418,0-8,3.582-8,8s3.582,8,8,8h31.785c4.418,0,8-3.582,8-8S244.726,400.309,240.308,400.309z"
		/>
</g>
<g>
</g>
<g>
</g>
<g>
</g>
<g>
</g>
<g>
</g>
<g>
</g>
<g>
</g>
<g>
</g>
<g>
</g>
<g>
</g>
<g>
</g>
<g>
</g>
<g>
</g>
<g>
</g>
<g>
</g>
</svg>
