<svg xmlns="http://www.w3.org/2000/svg" viewBox="0 0 351.959 351.959" style="enable-background:new 0 0 351.959 351.959" xml:space="preserve"><path d="M175.896 295.877c-66.112 0-119.898-53.786-119.898-119.897S109.784 56.082 175.896 56.082s119.897 53.786 119.897 119.897-53.785 119.898-119.897 119.898zm0-223.795c-57.29 0-103.898 46.608-103.898 103.897s46.608 103.897 103.898 103.897c57.289 0 103.897-46.608 103.897-103.897S233.185 72.082 175.896 72.082z"/><path d="M127.865 200.011c-13.25 0-24.031-10.78-24.031-24.031s10.78-24.031 24.031-24.031 24.031 10.78 24.031 24.031-10.78 24.031-24.031 24.031zm0-32.063c-4.428 0-8.031 3.603-8.031 8.031s3.603 8.031 8.031 8.031 8.031-3.603 8.031-8.031-3.603-8.031-8.031-8.031zM223.697 200.011c-13.25 0-24.031-10.78-24.031-24.031s10.78-24.031 24.031-24.031 24.031 10.78 24.031 24.031-10.78 24.031-24.031 24.031zm0-32.063c-4.428 0-8.031 3.603-8.031 8.031s3.603 8.031 8.031 8.031 8.031-3.603 8.031-8.031-3.603-8.031-8.031-8.031z"/><path d="M297.896 351.959H54.063c-29.776 0-54-24.225-54-54V54c0-29.775 24.224-54 54-54h243.833c29.776 0 54 24.225 54 54v243.959c0 29.775-24.224 54-54 54zM54.063 16c-20.953 0-38 17.047-38 38v243.959c0 20.953 17.047 38 38 38h243.833c20.953 0 38-17.047 38-38V54c0-20.953-17.047-38-38-38H54.063z"/><path d="M175.896 39.977a8 8 0 0 1-8-8V8a8 8 0 0 1 16 0v23.977a8 8 0 0 1-8 8zM175.896 351.881a8 8 0 0 1-8-8v-23.904a8 8 0 0 1 16 0v23.904a8 8 0 0 1-8 8z"/></svg>