<svg xmlns="http://www.w3.org/2000/svg" viewBox="0 0 424.166 424.166" style="enable-background:new 0 0 424.166 424.166" xml:space="preserve"><path d="M360.083 0h-296c-17.645 0-32 14.355-32 32v384.166a8 8 0 0 0 8 8h344a8 8 0 0 0 8-8V32c0-17.645-14.355-32-32-32zm-312 408.166V80H320.25a8 8 0 0 0 0-16H48.083V32c0-8.822 7.178-16 16-16h296c8.822 0 16 7.178 16 16v32h-23.75a8 8 0 0 0 0 16h23.75v328.166h-328z"/><path d="M212.083 112.005c-72.966 0-132.329 59.362-132.329 132.328s59.362 132.328 132.329 132.328c72.966 0 132.328-59.362 132.328-132.328s-59.362-132.328-132.328-132.328zm0 248.656c-64.144 0-116.329-52.185-116.329-116.328s52.185-116.328 116.329-116.328c48.707 0 90.511 30.094 107.815 72.661h-7.315c-3.419 0-6.712.545-9.803 1.542-16.255-34.945-51.646-57.87-90.697-57.87-55.138 0-99.995 44.857-99.995 99.995s44.857 99.995 99.995 99.995c39.052 0 74.442-22.925 90.697-57.87a31.878 31.878 0 0 0 9.803 1.542h7.315c-17.304 42.567-59.108 72.661-107.815 72.661zm91.588-91.381a7.404 7.404 0 0 0-.473-.35c-3.999-2.911-6.614-7.615-6.614-12.93v-23.334c0-5.314 2.615-10.018 6.614-12.93.162-.112.321-.228.473-.35a15.907 15.907 0 0 1 8.912-2.72h12.495c2.172 8.871 3.333 18.135 3.333 27.667s-1.161 18.796-3.333 27.667h-12.495a15.905 15.905 0 0 1-8.912-2.72zm-14.521 8.481c-13.224 30.451-43.539 50.567-77.067 50.567-46.315 0-83.995-37.68-83.995-83.995s37.68-83.995 83.995-83.995c33.528 0 63.843 20.116 77.067 50.567-5.311 5.715-8.567 13.363-8.567 21.761V256c0 8.398 3.256 16.046 8.567 21.761zM344.083 40.083c0-8.776-7.141-15.917-15.917-15.917s-15.916 7.141-15.916 15.917S319.39 56 328.166 56s15.917-7.141 15.917-15.917zM280.5 24.166c-8.776 0-15.917 7.141-15.917 15.917S271.724 56 280.5 56s15.916-7.141 15.916-15.917-7.14-15.917-15.916-15.917zM152.416 32.083h-72a8 8 0 0 0 0 16h72a8 8 0 0 0 0-16zM199.75 32.083h-15.417a8 8 0 0 0 0 16h15.417a8 8 0 0 0 0-16z"/><path d="M212.083 176.005c-37.677 0-68.329 30.652-68.329 68.328a8 8 0 0 0 16 0c0-28.854 23.475-52.328 52.329-52.328a8 8 0 0 0 0-16z"/></svg>