<svg xmlns="http://www.w3.org/2000/svg" viewBox="0 0 410.949 410.949" style="enable-background:new 0 0 410.949 410.949" xml:space="preserve"><path d="M321.452 139.824h-48.478V20c0-11.028-8.86-20-19.75-20s-19.75 8.972-19.75 20v119.824h-56V20c0-11.028-8.86-20-19.75-20s-19.75 8.972-19.75 20v119.824H89.497a8 8 0 0 0-8 8v31.833a8 8 0 0 0 8 8h.145v50.832c0 54.263 37.509 99.923 87.958 112.434v52.026a8 8 0 0 0 8 8h39.75a8 8 0 0 0 8-8v-52.026c50.45-12.511 87.958-58.171 87.958-112.434v-50.832h.145a8 8 0 0 0 8-8v-31.833a8.001 8.001 0 0 0-8.001-8zM249.474 20c0-2.168 1.717-4 3.75-4s3.75 1.832 3.75 4v119.824h-7.5V20zm-95.5 0c0-2.168 1.717-4 3.75-4s3.75 1.832 3.75 4v119.824h-7.5V20zm63.375 374.949h-23.75v-41.231c3.905.399 7.866.604 11.875.604s7.97-.205 11.875-.604v41.231zm87.959-156.46c0 55.048-44.785 99.833-99.833 99.833s-99.833-44.785-99.833-99.833v-50.832h159.833a8 8 0 0 0 0-16H97.497v-15.833h215.956v15.833h-15.728a8 8 0 0 0 0 16h7.583v50.832z"/></svg>