<svg xmlns="http://www.w3.org/2000/svg" viewBox="0 0 416.25 416.25" style="enable-background:new 0 0 416.25 416.25" xml:space="preserve"><path d="M72.208 279.991c-13.26 0-24.047 10.788-24.047 24.047 0 13.26 10.788 24.048 24.047 24.048s24.047-10.788 24.047-24.048c.001-13.259-10.787-24.047-24.047-24.047zm0 32.095c-4.438 0-8.047-3.61-8.047-8.048 0-4.437 3.61-8.047 8.047-8.047s8.047 3.61 8.047 8.047c.001 4.438-3.609 8.048-8.047 8.048zM128.456 279.991c-13.26 0-24.047 10.788-24.047 24.047 0 13.26 10.788 24.048 24.047 24.048s24.047-10.788 24.047-24.048c0-13.259-10.787-24.047-24.047-24.047zm0 32.095c-4.438 0-8.047-3.61-8.047-8.048 0-4.437 3.61-8.047 8.047-8.047s8.047 3.61 8.047 8.047c0 4.438-3.609 8.048-8.047 8.048z"/><path d="M376.25 223.976H56.625V24.101a8 8 0 0 0-16 0v199.875H40c-22.056 0-40 17.944-40 40v80.125c0 16.438 9.969 30.586 24.177 36.73 2.204 11.002 11.937 19.318 23.577 19.318 10.456 0 19.37-6.71 22.674-16.048h275.137c3.305 9.338 12.218 16.048 22.674 16.048 11.597 0 21.302-8.252 23.554-19.192 14.357-6.078 24.456-20.31 24.456-36.856v-80.125c.001-22.056-17.943-40-39.999-40zM47.754 384.149c-.291 0-.579-.018-.862-.048h1.725c-.284.03-.572.048-.863.048zm319.623-.048h1.725c-.284.03-.571.048-.862.048s-.579-.018-.863-.048zm32.873-40c0 13.234-10.766 24-24 24H40c-13.234 0-24-10.766-24-24v-80.125c0-13.234 10.766-24 24-24h336.25c13.234 0 24 10.766 24 24v80.125z"/><path d="M344.111 279.991H184.395c-13.26 0-24.047 10.787-24.047 24.046 0 13.261 10.788 24.049 24.047 24.049h159.716c13.26 0 24.047-10.788 24.047-24.049 0-13.259-10.787-24.046-24.047-24.046zm0 32.095H184.395c-4.438 0-8.047-3.611-8.047-8.049 0-4.437 3.61-8.046 8.047-8.046h159.716c4.438 0 8.047 3.609 8.047 8.046 0 4.438-3.61 8.049-8.047 8.049z"/></svg>