<?xml version="1.0" encoding="iso-8859-1"?>
<!-- Generator: Adobe Illustrator 17.1.0, SVG Export Plug-In . SVG Version: 6.00 Build 0)  -->
<!DOCTYPE svg PUBLIC "-//W3C//DTD SVG 1.1//EN" "http://www.w3.org/Graphics/SVG/1.1/DTD/svg11.dtd">
<svg version="1.1" id="Capa_1" xmlns="http://www.w3.org/2000/svg" xmlns:xlink="http://www.w3.org/1999/xlink" x="0px" y="0px"
	 viewBox="0 0 416.25 416.25" style="enable-background:new 0 0 416.25 416.25;" xml:space="preserve">
<g>
	<path d="M72.208,279.991c-13.26,0-24.047,10.788-24.047,24.047c0,13.26,10.788,24.048,24.047,24.048s24.047-10.788,24.047-24.048
		C96.256,290.779,85.468,279.991,72.208,279.991z M72.208,312.086c-4.438,0-8.047-3.61-8.047-8.048c0-4.437,3.61-8.047,8.047-8.047
		s8.047,3.61,8.047,8.047C80.256,308.476,76.646,312.086,72.208,312.086z"/>
	<path d="M128.456,279.991c-13.26,0-24.047,10.788-24.047,24.047c0,13.26,10.788,24.048,24.047,24.048s24.047-10.788,24.047-24.048
		C152.503,290.779,141.716,279.991,128.456,279.991z M128.456,312.086c-4.438,0-8.047-3.61-8.047-8.048
		c0-4.437,3.61-8.047,8.047-8.047s8.047,3.61,8.047,8.047C136.503,308.476,132.894,312.086,128.456,312.086z"/>
	<path d="M376.25,223.976H56.625V24.101c0-4.418-3.582-8-8-8s-8,3.582-8,8v199.875H40c-22.056,0-40,17.944-40,40v80.125
		c0,16.438,9.969,30.586,24.177,36.73c2.204,11.002,11.937,19.318,23.577,19.318c10.456,0,19.37-6.71,22.674-16.048h275.137
		c3.305,9.338,12.218,16.048,22.674,16.048c11.597,0,21.302-8.252,23.554-19.192c14.357-6.078,24.456-20.31,24.456-36.856v-80.125
		C416.25,241.92,398.306,223.976,376.25,223.976z M47.754,384.149c-0.291,0-0.579-0.018-0.862-0.048h1.725
		C48.333,384.131,48.045,384.149,47.754,384.149z M367.377,384.101h1.725c-0.284,0.03-0.571,0.048-0.862,0.048
		S367.661,384.131,367.377,384.101z M400.25,344.101c0,13.234-10.766,24-24,24h-24.048c-0.003,0-0.006,0-0.01,0s-0.006,0-0.01,0
		H63.811c-0.003,0-0.006,0-0.01,0s-0.006,0-0.01,0H40c-13.234,0-24-10.766-24-24v-80.125c0-13.234,10.766-24,24-24h336.25
		c13.234,0,24,10.766,24,24V344.101z"/>
	<path d="M344.111,279.991H184.395c-13.26,0-24.047,10.787-24.047,24.046c0,13.261,10.788,24.049,24.047,24.049h159.716
		c13.26,0,24.047-10.788,24.047-24.049C368.158,290.778,357.371,279.991,344.111,279.991z M344.111,312.086H184.395
		c-4.438,0-8.047-3.611-8.047-8.049c0-4.437,3.61-8.046,8.047-8.046h159.716c4.438,0,8.047,3.609,8.047,8.046
		C352.158,308.475,348.548,312.086,344.111,312.086z"/>
</g>
<g>
</g>
<g>
</g>
<g>
</g>
<g>
</g>
<g>
</g>
<g>
</g>
<g>
</g>
<g>
</g>
<g>
</g>
<g>
</g>
<g>
</g>
<g>
</g>
<g>
</g>
<g>
</g>
<g>
</g>
</svg>
