<?xml version="1.0" encoding="iso-8859-1"?>
<!-- Generator: Adobe Illustrator 17.1.0, SVG Export Plug-In . SVG Version: 6.00 Build 0)  -->
<!DOCTYPE svg PUBLIC "-//W3C//DTD SVG 1.1//EN" "http://www.w3.org/Graphics/SVG/1.1/DTD/svg11.dtd">
<svg version="1.1" id="Capa_1" xmlns="http://www.w3.org/2000/svg" xmlns:xlink="http://www.w3.org/1999/xlink" x="0px" y="0px"
	 viewBox="0 0 399.605 399.605" style="enable-background:new 0 0 399.605 399.605;" xml:space="preserve">
<g>
	<path d="M396.94,224.569c-6.123-59.635-20.786-112.913-39.225-142.519c-6.417-10.307-26.473-18.552-42.167-23.654
		c-5.453-1.773-33.145-10.441-42.698-6.971c-6.285,2.281-11.792,5.277-17.624,8.448c-13.672,7.436-27.809,15.125-55.303,15.125
		c-0.08,0-0.161,0-0.241,0c-27.494,0-41.631-7.689-55.303-15.125c-5.831-3.171-11.338-6.167-17.623-8.448
		c-9.559-3.472-37.246,5.198-42.699,6.97c-15.694,5.102-35.75,13.347-42.167,23.653c-18.439,29.606-33.103,82.885-39.226,142.52
		c-1.6,15.583-8.651,94.316,9.711,113.979c7.14,7.645,16.145,11.205,26.046,10.306c16.11-1.47,33.051-14.886,47.701-37.778
		c0.033-0.051,0.065-0.103,0.097-0.155c1.792-2.946,3.465-5.738,5.05-8.383c11.204-18.695,17.375-28.993,29.964-34.556
		c14.346-6.34,39.627-7.581,78.448-7.581h0.241c38.82,0,64.102,1.241,78.448,7.581c12.588,5.563,18.76,15.861,29.964,34.556
		c1.585,2.645,3.258,5.437,5.05,8.383c0.032,0.052,0.064,0.104,0.097,0.155c14.65,22.892,31.591,36.309,47.701,37.778
		c1.005,0.091,2,0.137,2.986,0.137c8.722,0,16.645-3.575,23.06-10.443C405.591,318.885,398.54,240.152,396.94,224.569z
		 M375.535,327.627c-3.747,4.012-7.968,5.744-12.899,5.293c-10.903-0.995-23.887-12.071-35.629-30.393
		c-1.755-2.885-3.394-5.621-4.948-8.214c-12.036-20.082-19.987-33.349-37.22-40.966c-17.017-7.521-42.972-8.946-84.916-8.946h-0.241
		c-41.943,0-67.899,1.426-84.916,8.946c-17.233,7.617-25.185,20.884-37.22,40.966c-1.554,2.593-3.193,5.329-4.948,8.214
		c-11.742,18.322-24.726,29.398-35.629,30.393c-4.937,0.449-9.153-1.281-12.899-5.293c-5.949-6.37-11.584-42.048-5.488-101.424
		c5.886-57.329,19.676-108.056,36.891-135.696c2.165-3.478,13.108-10.092,32.02-16.397c16.72-5.575,29.092-7.575,33.24-7.575
		c0.348,0,0.637,0.014,0.867,0.041c5.048,1.867,9.951,4.533,15.135,7.353c13.832,7.522,31.009,16.865,61.93,17.065
		c0.077,0.002,0.154,0.003,0.232,0.003h0.786c0.08,0,0.161,0,0.241,0h0.786c0.078,0,0.155-0.001,0.232-0.003
		c30.921-0.201,48.099-9.543,61.93-17.065c5.184-2.82,10.086-5.486,15.135-7.353c2.972-0.356,15.987,1.491,34.107,7.534
		c18.912,6.305,29.855,12.919,32.021,16.398c17.214,27.639,31.004,78.366,36.89,135.695
		C387.12,285.579,381.484,321.257,375.535,327.627z"/>
	<path d="M215.806,131.018c0-8.824-7.179-16.003-16.003-16.003s-16.003,7.179-16.003,16.003c0,8.825,7.179,16.005,16.003,16.005
		S215.806,139.844,215.806,131.018z"/>
	<path d="M167.802,139.021c2.1,0,4.17-0.85,5.66-2.34c1.49-1.49,2.34-3.55,2.34-5.66c0-2.11-0.85-4.17-2.34-5.66
		c-1.49-1.49-3.56-2.34-5.66-2.34c-2.1,0-4.17,0.85-5.66,2.34c-1.49,1.49-2.34,3.55-2.34,5.66c0,2.11,0.85,4.17,2.34,5.66
		C163.632,138.171,165.702,139.021,167.802,139.021z"/>
	<path d="M231.972,139.021c2.11,0,4.17-0.85,5.66-2.34c1.49-1.49,2.34-3.56,2.34-5.66c0-2.1-0.85-4.17-2.34-5.66
		c-1.49-1.49-3.55-2.34-5.66-2.34s-4.17,0.85-5.65,2.34c-1.49,1.49-2.35,3.55-2.35,5.66c0,2.11,0.86,4.17,2.35,5.66
		C227.802,138.171,229.872,139.021,231.972,139.021z"/>
	<path d="M287.99,131.027c0-2.205-0.909-4.312-2.513-5.824l-8.473-7.985c-1.484-1.399-3.447-2.178-5.487-2.178h-15.371
		c-4.418,0-8,3.582-8,8v15.96c0,4.418,3.582,8,8,8h15.371c2.038,0,3.999-0.778,5.483-2.175l8.473-7.975
		C287.079,135.338,287.989,133.232,287.99,131.027z"/>
	<path d="M335.643,115.039h-15.371c-2.04,0-4.002,0.779-5.487,2.178l-8.473,7.985c-1.604,1.512-2.514,3.619-2.513,5.824
		s0.911,4.312,2.517,5.823l8.473,7.975c1.484,1.397,3.445,2.175,5.483,2.175h15.371c4.418,0,8-3.582,8-8v-15.96
		C343.643,118.621,340.061,115.039,335.643,115.039z"/>
	<path d="M263.177,186.532c-4.418,0-8,3.582-8,8c0,8.643-7.039,15.674-15.69,15.674c-8.643,0-15.674-7.031-15.674-15.674
		c0-8.651,7.031-15.689,15.674-15.689c4.418,0,8-3.582,8-8s-3.582-8-8-8c-17.465,0-31.674,14.216-31.674,31.689
		c0,17.465,14.209,31.674,31.674,31.674c17.474,0,31.69-14.209,31.69-31.674C271.177,190.114,267.596,186.532,263.177,186.532z"/>
	<path d="M175.74,171.145h-7.896v-8.021c0-8.822-7.178-16-16-16h-7.77c-8.822,0-16,7.178-16,16v8.021h-8.178
		c-8.822,0-16,7.178-16,16v7.77c0,8.822,7.178,16,16,16h8.178v8.334c0,8.822,7.178,16,16,16h7.77c8.822,0,16-7.178,16-16v-8.334
		h7.896c8.822,0,16-7.178,16-16v-7.77C191.74,178.323,184.562,171.145,175.74,171.145z M175.74,194.914h-15.896
		c-4.418,0-8,3.582-8,8l0.001,16.334h-7.771v-16.334c0-4.418-3.582-8-8-8h-16.178v-7.77h16.178c4.418,0,8-3.582,8-8v-16.021h7.77
		v16.021c0,4.418,3.582,8,8,8h15.896V194.914z"/>
	<path d="M301.725,141.441c-1.511-1.605-3.618-2.516-5.823-2.517c-0.001,0-0.001,0-0.002,0c-2.204,0-4.311,0.909-5.822,2.513
		l-7.985,8.473c-1.399,1.484-2.178,3.447-2.178,5.487v15.37c0,4.418,3.582,8,8,8h15.96c4.418,0,8-3.582,8-8v-15.37
		c0-2.038-0.778-3.999-2.175-5.483L301.725,141.441z"/>
	<path d="M290.077,120.601c1.512,1.604,3.618,2.513,5.822,2.513c0.001,0,0.001,0,0.002,0c2.205,0,4.312-0.911,5.823-2.517
		l7.975-8.473c1.396-1.484,2.174-3.445,2.174-5.483v-15.37c0-4.418-3.582-8-8-8h-15.96c-4.418,0-8,3.582-8,8v15.37
		c0,2.04,0.779,4.002,2.178,5.487L290.077,120.601z"/>
	<path d="M127.589,131.027c0-4.418-3.582-8-8-8s-8,3.582-8,8c0,8.643-7.039,15.674-15.69,15.674
		c-8.643,0-15.674-7.031-15.674-15.674c0-8.651,7.031-15.689,15.674-15.689c4.418,0,8-3.582,8-8s-3.582-8-8-8
		c-17.465,0-31.674,14.216-31.674,31.689c0,17.465,14.209,31.674,31.674,31.674C113.373,162.701,127.589,148.492,127.589,131.027z"
		/>
</g>
<g>
</g>
<g>
</g>
<g>
</g>
<g>
</g>
<g>
</g>
<g>
</g>
<g>
</g>
<g>
</g>
<g>
</g>
<g>
</g>
<g>
</g>
<g>
</g>
<g>
</g>
<g>
</g>
<g>
</g>
</svg>
