<svg xmlns="http://www.w3.org/2000/svg" viewBox="0 0 399.605 399.605" style="enable-background:new 0 0 399.605 399.605" xml:space="preserve"><path d="M396.94 224.569c-6.123-59.635-20.786-112.913-39.225-142.519-6.417-10.307-26.473-18.552-42.167-23.654-5.453-1.773-33.145-10.441-42.698-6.971-6.285 2.281-11.792 5.277-17.624 8.448-13.672 7.436-27.809 15.125-55.303 15.125h-.241c-27.494 0-41.631-7.689-55.303-15.125-5.831-3.171-11.338-6.167-17.623-8.448-9.559-3.472-37.246 5.198-42.699 6.97-15.694 5.102-35.75 13.347-42.167 23.653-18.439 29.606-33.103 82.885-39.226 142.52-1.6 15.583-8.651 94.316 9.711 113.979 7.14 7.645 16.145 11.205 26.046 10.306 16.11-1.47 33.051-14.886 47.701-37.778l.097-.155c1.792-2.946 3.465-5.738 5.05-8.383 11.204-18.695 17.375-28.993 29.964-34.556 14.346-6.34 39.627-7.581 78.448-7.581h.241c38.82 0 64.102 1.241 78.448 7.581 12.588 5.563 18.76 15.861 29.964 34.556 1.585 2.645 3.258 5.437 5.05 8.383l.097.155c14.65 22.892 31.591 36.309 47.701 37.778 1.005.091 2 .137 2.986.137 8.722 0 16.645-3.575 23.06-10.443 18.363-19.662 11.312-98.395 9.712-113.978zm-21.405 103.058c-3.747 4.012-7.968 5.744-12.899 5.293-10.903-.995-23.887-12.071-35.629-30.393-1.755-2.885-3.394-5.621-4.948-8.214-12.036-20.082-19.987-33.349-37.22-40.966-17.017-7.521-42.972-8.946-84.916-8.946h-.241c-41.943 0-67.899 1.426-84.916 8.946-17.233 7.617-25.185 20.884-37.22 40.966-1.554 2.593-3.193 5.329-4.948 8.214-11.742 18.322-24.726 29.398-35.629 30.393-4.937.449-9.153-1.281-12.899-5.293-5.949-6.37-11.584-42.048-5.488-101.424 5.886-57.329 19.676-108.056 36.891-135.696 2.165-3.478 13.108-10.092 32.02-16.397 16.72-5.575 29.092-7.575 33.24-7.575.348 0 .637.014.867.041 5.048 1.867 9.951 4.533 15.135 7.353 13.832 7.522 31.009 16.865 61.93 17.065.077.002.154.003.232.003H200.71c.078 0 .155-.001.232-.003 30.921-.201 48.099-9.543 61.93-17.065 5.184-2.82 10.086-5.486 15.135-7.353 2.972-.356 15.987 1.491 34.107 7.534 18.912 6.305 29.855 12.919 32.021 16.398 17.214 27.639 31.004 78.366 36.89 135.695 6.095 59.376.459 95.054-5.49 101.424z"/><path d="M215.806 131.018c0-8.824-7.179-16.003-16.003-16.003s-16.003 7.179-16.003 16.003c0 8.825 7.179 16.005 16.003 16.005s16.003-7.179 16.003-16.005zM167.802 139.021c2.1 0 4.17-.85 5.66-2.34a8.05 8.05 0 0 0 2.34-5.66c0-2.11-.85-4.17-2.34-5.66a8.068 8.068 0 0 0-5.66-2.34c-2.1 0-4.17.85-5.66 2.34a8.05 8.05 0 0 0-2.34 5.66c0 2.11.85 4.17 2.34 5.66a8.068 8.068 0 0 0 5.66 2.34zM231.972 139.021c2.11 0 4.17-.85 5.66-2.34a8.068 8.068 0 0 0 2.34-5.66c0-2.1-.85-4.17-2.34-5.66-1.49-1.49-3.55-2.34-5.66-2.34s-4.17.85-5.65 2.34a8.06 8.06 0 0 0-2.35 5.66c0 2.11.86 4.17 2.35 5.66a8.027 8.027 0 0 0 5.65 2.34zM287.99 131.027a8.003 8.003 0 0 0-2.513-5.824l-8.473-7.985a7.999 7.999 0 0 0-5.487-2.178h-15.371a8 8 0 0 0-8 8V139a8 8 0 0 0 8 8h15.371a8 8 0 0 0 5.483-2.175l8.473-7.975a8 8 0 0 0 2.517-5.823zM335.643 115.039h-15.371a8 8 0 0 0-5.487 2.178l-8.473 7.985a8 8 0 0 0 .004 11.647l8.473 7.975a8 8 0 0 0 5.483 2.175h15.371a8 8 0 0 0 8-8v-15.96a8 8 0 0 0-8-8zM263.177 186.532a8 8 0 0 0-8 8c0 8.643-7.039 15.674-15.69 15.674-8.643 0-15.674-7.031-15.674-15.674 0-8.651 7.031-15.689 15.674-15.689a8 8 0 0 0 0-16c-17.465 0-31.674 14.216-31.674 31.689 0 17.465 14.209 31.674 31.674 31.674 17.474 0 31.69-14.209 31.69-31.674a8 8 0 0 0-8-8zM175.74 171.145h-7.896v-8.021c0-8.822-7.178-16-16-16h-7.77c-8.822 0-16 7.178-16 16v8.021h-8.178c-8.822 0-16 7.178-16 16v7.77c0 8.822 7.178 16 16 16h8.178v8.334c0 8.822 7.178 16 16 16h7.77c8.822 0 16-7.178 16-16v-8.334h7.896c8.822 0 16-7.178 16-16v-7.77c0-8.822-7.178-16-16-16zm0 23.769h-15.896a8 8 0 0 0-8 8l.001 16.334h-7.771v-16.334a8 8 0 0 0-8-8h-16.178v-7.77h16.178a8 8 0 0 0 8-8v-16.021h7.77v16.021a8 8 0 0 0 8 8h15.896v7.77zM301.725 141.441a8.003 8.003 0 0 0-5.823-2.517h-.002a7.999 7.999 0 0 0-5.822 2.513l-7.985 8.473a7.999 7.999 0 0 0-2.178 5.487v15.37a8 8 0 0 0 8 8h15.96a8 8 0 0 0 8-8v-15.37a8 8 0 0 0-2.175-5.483l-7.975-8.473zM290.077 120.601a8 8 0 0 0 5.822 2.513h.002a7.995 7.995 0 0 0 5.823-2.517l7.975-8.473a8.003 8.003 0 0 0 2.174-5.483v-15.37a8 8 0 0 0-8-8h-15.96a8 8 0 0 0-8 8v15.37a8 8 0 0 0 2.178 5.487l7.986 8.473zM127.589 131.027a8 8 0 0 0-16 0c0 8.643-7.039 15.674-15.69 15.674-8.643 0-15.674-7.031-15.674-15.674 0-8.651 7.031-15.689 15.674-15.689a8 8 0 0 0 0-16c-17.465 0-31.674 14.216-31.674 31.689 0 17.465 14.209 31.674 31.674 31.674 17.474 0 31.69-14.209 31.69-31.674z"/></svg>