<svg xmlns="http://www.w3.org/2000/svg" width="166.7" height="168.9"><g clip-path="url(#_clipPath_PPPiEcORhRSYwopEENnaRFzzeYSXmwtt)"><path d="M65.6 135.2c0 1.9-1.5 3.4-3.4 3.4-1.8 0-3.3-1.5-3.3-3.4 0-4.5 3-8.5 7.9-11.2 4.3-2.4 10.2-3.9 16.5-3.9 6.4 0 12.3 1.5 16.6 3.9 4.8 2.7 7.9 6.7 7.9 11.2 0 1.9-1.5 3.4-3.4 3.4-1.8 0-3.3-1.5-3.3-3.4s-1.7-3.9-4.5-5.4c-3.3-1.9-8-3-13.3-3-5.2 0-9.9 1.1-13.3 3-2.7 1.5-4.4 3.5-4.4 5.4Zm83.6 18.1c0 4.3-1.7 8.2-4.6 11.1-2.8 2.8-6.7 4.5-11 4.5s-8.2-1.7-11-4.5c-1.7-1.6-2.9-3.5-3.7-5.7-4.8 2.3-9.9 4.1-15.2 5.4-6.5 1.7-13.3 2.5-20.4 2.5-23 0-43.8-9.3-58.9-24.4C9.3 127.1 0 106.3 0 83.3s9.3-43.8 24.4-58.9C39.5 9.3 60.3 0 83.3 0c23.1 0 43.9 9.3 59 24.4 15 15.1 24.4 35.9 24.4 58.9 0 11.2-2.2 21.8-6.2 31.6-3.9 9.3-9.4 17.8-16.1 25.1 2.6 5.1 4.8 10.2 4.8 13.3Zm-18.5-27c.4-.8 1.1-1.3 1.8-1.5l.1-.1h.2l.1-.1H133.2c.7-.1 1.4 0 2 .4.6.3 1.1.8 1.4 1.4v.1h.1c.3.7 1 1.8 1.7 3.1l.1.1.1.1v.1l.1.1v.1l.1.1v.1h.1v.1l.1.1v.1l.1.1.1.1v.1c.6.9 1.2 2 1.8 3 5.5-6.3 10.1-13.6 13.3-21.5 3.7-9 5.7-18.8 5.7-29.1 0-21.2-8.6-40.3-22.4-54.2-13.9-13.9-33.1-22.4-54.3-22.4-21.1 0-40.3 8.5-54.2 22.4C15.2 43 6.7 62.1 6.7 83.3c0 21.2 8.5 40.3 22.4 54.2C43 151.4 62.2 160 83.3 160c6.5 0 12.8-.8 18.8-2.3 5.7-1.5 11-3.5 16-6v-.1h.1v-.3l.1-.3.1-.3v-.1l.1-.2v-.4l.1-.1v-.2l.1-.1.1-.3c.1-.4.2-.8.3-1.1l.1-.1.1-.3v-.1l.1-.3c.1-.3.2-.5.3-.7v-.1l.1-.3.1-.1.1-.3h.1c.1-.3.2-.6.3-.8l.2-.4v-.1l.1-.3.1-.1.1-.3v-.1h.1l.1-.3v-.1l.1-.2.1-.2h.1c.2-.4.3-.8.6-1.2v-.1l.2-.3v-.1l.2-.4.2-.4.2-.4.2-.3v-.1l.4-.8h.1l.1-.3.1-.2.1-.1.1-.3.1-.1.2-.3v-.1l.2-.3.2-.4.2-.4.2-.3.1-.1.1-.3.1-.1.1-.3.1-.1.1-.2.1-.2.1-.2.1-.2.3-.4v-.1l.2-.3.2-.3v-.1l.2-.3.2-.4.3-.3.1-.3v-.1l.2-.2.1-.1.1-.2.1-.2.1-.1.1-.2v-.2l.2-.2.2-.3.2-.3.1-.3.1-.1v-.1h.1v-.2l.1-.1.1-.1v-.1h.1v-.1l.1-.1v-.2h.1v-.1l.1-.1v-.1h.1v-.1l.1-.1v-.1l.1-.1v-.1h.1v-.2h.1v-.1l.1-.1v-.1l.1-.1.1-.1v-.1l.1-.1v-.1l.1-.1v-.1h.1v-.1Zm9.3 33.3c1.5-1.5 2.6-3.8 2.6-6.3 0-2.3-2.5-7.3-5.2-12.2-.4-.7-.7-1.3-1.1-2l-.1-.1v-.1h-.1v-.1l-.1-.3h-.1c-.7-1.3-1.4-2.4-2-3.5l-.1-.1v-.1l-.1-.1-.1-.1v-.1l-.2.3-.1.3-.2.3-.2.3-.2.3-.2.3-.1.3-.2.3-.2.3-.2.3-.2.4-.2.3-.2.3-.2.4-.2.3-.1.3-.2.4-.2.3-.2.3-.2.4-.2.3-.1.3-.2.4-.2.3-.2.4-.2.3-.2.3-.1.4-.2.3-.2.4-.2.3-.1.3-.2.3-.2.4-.1.3-.2.3-.1.3-.2.3-.1.4-.2.3-.1.3-.1.3-.2.3-.1.2-.1.4-.2.3v.2l-.1.3-.2.2-.1.3v.3l-.1.2-.1.3-.1.2v.3l-.1.2-.1.2v.4c-.1.1-.1.1-.1.2v.4l-.1.2v.2c.1 2.5 1.1 4.7 2.7 6.3 1.6 1.6 3.8 2.6 6.3 2.6s4.7-1 6.4-2.7Zm-4.7-86.9c.9 1.6.3 3.6-1.4 4.5-1.6.8-3.6.2-4.5-1.4-.7-1.5-1.8-2.9-3.1-3.9-1.3-1.1-2.9-1.8-4.5-2.3-1-.2-2-.4-2.9-.4-1.1 0-2.1.1-3.1.3-1.8.4-3.5-.7-4-2.5-.3-1.8.8-3.5 2.6-4 1.4-.3 3-.4 4.5-.4 1.6 0 3.1.2 4.5.6h.2c2.5.7 4.8 1.9 6.8 3.5 2.1 1.6 3.7 3.7 4.9 6Zm-98.1 3.1c-.8 1.6-2.8 2.2-4.5 1.4-1.6-.9-2.2-2.9-1.4-4.5 1.2-2.3 2.9-4.4 4.9-6 2-1.6 4.4-2.8 6.9-3.5h.1c1.5-.4 3-.6 4.5-.6 1.6 0 3.1.1 4.6.4 1.8.5 2.9 2.2 2.5 4-.4 1.8-2.2 2.9-3.9 2.5-1-.2-2.1-.3-3.1-.3s-2 .2-2.9.4c-1.7.5-3.2 1.2-4.5 2.3-1.3 1-2.4 2.4-3.2 3.9Zm88 16.9c0-2-.7-3.8-1.9-5.1-1.1-1.1-2.7-1.9-4.3-1.9-1.7 0-3.2.8-4.3 1.9-1.2 1.3-1.9 3.1-1.9 5.1 0 1.9.7 3.7 1.9 5 1.1 1.2 2.6 1.9 4.3 1.9 1.6 0 3.2-.7 4.3-1.9 1.2-1.3 1.9-3.1 1.9-5Zm3-9.5c2.2 2.4 3.6 5.8 3.6 9.5s-1.4 7-3.6 9.5c-2.4 2.5-5.6 4.1-9.2 4.1-3.6 0-6.9-1.6-9.2-4.1-2.3-2.5-3.7-5.8-3.7-9.5s1.4-7.1 3.7-9.5c2.3-2.6 5.6-4.1 9.2-4.1 3.6 0 6.8 1.5 9.2 4.1Zm-74.3 9.5c0-2-.7-3.8-1.9-5.1-1.1-1.1-2.6-1.9-4.3-1.9-1.7 0-3.2.8-4.3 1.9-1.2 1.3-1.9 3.1-1.9 5.1 0 1.9.7 3.7 1.9 5 1.1 1.2 2.6 1.9 4.3 1.9 1.7 0 3.2-.7 4.3-1.9 1.2-1.3 1.9-3.1 1.9-5Zm3-9.5c2.3 2.4 3.6 5.8 3.6 9.5s-1.3 7-3.6 9.5c-2.4 2.5-5.6 4.1-9.2 4.1-3.6 0-6.8-1.6-9.2-4.1-2.3-2.5-3.7-5.8-3.7-9.5s1.4-7.1 3.7-9.5c2.4-2.6 5.6-4.1 9.2-4.1 3.6 0 6.8 1.5 9.2 4.1Z" fill="#011627" fill-opacity=".2"/></g></svg>